<svg width="116" height="39" viewBox="0 0 116 39" fill="none" xmlns="http://www.w3.org/2000/svg">
<g clip-path="url(#clip0_67_98)">
<path fill-rule="evenodd" clip-rule="evenodd" d="M40.7637 15.2645C41.8186 15.2645 42.6816 16.1274 42.6816 17.1918C42.6816 18.2563 41.8186 19.1196 40.7637 19.1196C39.6609 19.1196 38.799 18.2563 38.799 17.1918C38.799 16.1274 39.6609 15.2645 40.7637 15.2645ZM55.4366 11.0738C55.1968 12.0471 54.9571 13.8692 53.2789 13.8692C51.6007 13.8692 51.2179 12.7614 51.17 11.7785C51.17 9.60642 53.7108 3.67084 59.8961 3.67084C63.5881 3.67084 67.712 6.6867 67.712 12.4644C67.712 17.3264 64.1631 21.3203 59.7519 21.3203C56.6353 21.3203 53.5662 19.4312 51.4565 17.5037C46.3261 12.8671 44.1692 5.44455 39.5182 5.44455C36.1618 5.44455 34.8189 12.0758 34.8189 18.5488C34.8189 26.724 37.6006 29.5244 39.9022 29.5244C42.8749 29.5244 45.3188 25.4152 45.5585 24.7535C45.6544 24.5569 45.8473 24.1874 46.2309 24.2258C46.8063 24.2881 46.9018 24.8445 46.8059 25.2185C45.6552 30.5023 42.5382 32.8372 39.4695 32.8372C33.7637 32.8372 30.792 26.0385 30.792 19.46C30.792 12.8815 33.9075 3.67084 39.4695 3.67084C45.0315 3.67084 49.1082 12.723 52.3687 16.0938C54.3345 18.1364 57.4017 19.3207 59.4635 19.2104C63.0596 19.2104 64.1628 16.0939 64.1628 12.3923C64.1628 10.532 63.5398 5.76108 59.7519 5.76108C57.9299 5.76108 56.2997 7.21874 55.4366 11.0738ZM108.899 29.5338C109.186 30.2003 108.276 30.7134 108.084 30.8093C95.3298 36.8172 88.4728 27.7645 86.6028 22.9409C85.1165 18.9325 84.7336 13.5813 84.7336 10.34C84.7336 8.57554 83.8222 5.31063 79.5549 5.31063C76.4382 5.31063 74.4248 7.73165 74.4248 10.34C74.4248 13.9409 74.2794 18.7838 73.1287 22.9409C72.0738 26.5226 67.8544 32.8326 61.1417 32.8326C52.559 32.8326 49.8739 23.7946 49.8739 22.5335C49.8259 21.589 50.3545 20.2223 51.9847 20.2223C53.7108 20.2223 54.094 21.7088 54.2379 22.4568C54.8133 25.5734 56.203 30.4834 61.1417 30.4834C69.1969 30.4834 70.6845 19.1961 70.6845 12.0566C70.6845 8.78655 73.3695 3.67084 79.5549 3.67084C86.0758 3.67084 88.5695 9.05985 88.5695 12.0566C88.5695 15.0582 88.1848 18.5587 90.0547 22.5335C92.7398 28.1818 98.6861 32.8806 107.365 29.3708C107.892 29.1455 108.563 28.8529 108.899 29.5338ZM20.7697 21.9534C25.4686 19.6327 26.9075 17.9782 26.9075 15.7726C26.9075 14.3821 25.7095 13.3513 24.319 13.3513C19.8119 13.2218 13.5296 19.3303 7.58401 19.3303C4.46738 19.3399 0.966797 16.6839 0.966797 12.4644C0.966797 9.18 2.83752 7.2571 4.37186 6.27896C8.25566 3.80483 9.40566 2.44779 10.5564 2.44779C11.6592 2.44779 12.6673 3.17653 12.6673 4.52866C12.6673 6.14931 9.16667 6.94528 6.05004 8.64265C4.56365 9.46256 2.8379 10.93 2.8379 13.0493C2.8379 13.8644 3.41215 16.3097 5.76161 16.3097C9.78925 16.3097 15.8311 10.3353 22.2082 10.3353C26.9071 10.3353 28.8741 14.9866 28.8741 17.336C28.8741 22.8261 23.9354 23.5261 17.3665 27.6257C15.6884 28.6806 14.441 29.3854 14.441 31.0827V32.6167C14.441 33.101 14.105 33.2835 13.8173 33.2835C13.4816 33.2835 13.1936 33.0243 13.1936 32.6167V30.4927C13.1936 27.6255 15.1598 24.7344 20.7697 21.9534ZM13.8173 35.1293C14.8721 35.1293 15.7352 35.9974 15.7352 37.057C15.7352 38.1215 14.8721 38.9843 13.8173 38.9843C12.7624 38.9843 11.8993 38.1215 11.8993 37.057C11.8993 35.9974 12.7624 35.1293 13.8173 35.1293ZM107.412 22.4952C107.412 23.1041 106.694 23.3246 106.31 23.4349C104.536 23.924 101.658 24.7343 99.7399 24.7343C95.3287 24.7247 91.7816 21.5505 91.7816 16.8229C91.7816 8.11548 99.7406 9.97574 105.063 7.81807C111.68 5.16175 113.934 0.189453 114.941 0.189453C115.325 0.189453 115.611 0.4294 115.611 0.880112C115.611 1.84866 112.495 5.0707 110.242 6.79683C102.858 12.4643 95.713 9.6592 95.713 16.9713C95.713 19.9105 98.11 22.5527 101.083 22.5527C102.905 22.5527 105.927 21.6607 106.55 21.6607C107.029 21.6607 107.412 21.9485 107.412 22.4952Z" fill="white"/>
</g>
<defs>
<clipPath id="clip0_67_98">
<rect width="116" height="39" fill="white"/>
</clipPath>
</defs>
</svg>
