<svg width="10" height="69" viewBox="0 0 10 69" fill="none" xmlns="http://www.w3.org/2000/svg">
<path d="M0 0V4.88889H2.44444V2.44444H4.88889V0H0ZM7.33333 2.44444V4.88889H4.88889V7.33333H2.44444V9.77778H7.33333V7.33333H9.77778V2.44444H7.33333Z" fill="black"/>
<path d="M0 9.77783V14.6667H2.44444V12.2223H4.88889V9.77783H0ZM7.33333 12.2223V14.6667H4.88889V17.1112H2.44444V19.5556H7.33333V17.1112H9.77778V12.2223H7.33333Z" fill="black"/>
<path d="M0 19.5555V24.4444H2.44444V22H4.88889V19.5555H0ZM7.33333 22V24.4444H4.88889V26.8889H2.44444V29.3333H7.33333V26.8889H9.77778V22H7.33333Z" fill="black"/>
<path d="M0 29.3334V34.2223H2.44444V31.7778H4.88889V29.3334H0ZM7.33333 31.7778V34.2223H4.88889V36.6667H2.44444V39.1112H7.33333V36.6667H9.77778V31.7778H7.33333Z" fill="black"/>
<path d="M0 39.1111V44H2.44444V41.5555H4.88889V39.1111H0ZM7.33333 41.5555V44H4.88889V46.4444H2.44444V48.8889H7.33333V46.4444H9.77778V41.5555H7.33333Z" fill="black"/>
<path d="M0 48.8889V53.7778H2.44444V51.3334H4.88889V48.8889H0ZM7.33333 51.3334V53.7778H4.88889V56.2222H2.44444V58.6667H7.33333V56.2222H9.77778V51.3334H7.33333Z" fill="black"/>
<path d="M0 58.6666V63.5555H2.44444V61.1111H4.88889V58.6666H0ZM7.33333 61.1111V63.5555H4.88889V66H2.44444V68.4444H7.33333V66H9.77778V61.1111H7.33333Z" fill="black"/>
</svg>
