<svg width="140" height="40" viewBox="0 0 140 40" fill="none" xmlns="http://www.w3.org/2000/svg">
<path fill-rule="evenodd" clip-rule="evenodd" d="M21.776 17.42V21.776H17.421V17.42H21.776ZM26.131 13.065V17.42H21.776V13.065H26.131ZM17.421 21.776V30.486H13.065V21.776H17.421ZM26.131 8.71H30.486V13.065H26.131V8.71ZM17.421 8.71V4.355H26.131V8.71H17.421ZM13.065 13.065V8.71H17.421V13.065H13.065ZM4.355 13.065H13.065V17.42H4.355V13.065ZM4.355 8.71V13.065H0V8.71H4.355ZM8.71 4.355V0H13.065V4.355H8.71ZM4.355 8.71V4.355H8.71V8.71H4.355ZM47.906 21.776H52.262V34.841H47.906V21.776ZM43.551 17.42H47.906V21.776H43.551V17.42ZM39.196 13.065H43.551V17.42H39.196V13.065ZM39.196 4.355V13.065H34.841V4.355H39.196ZM47.906 4.355H52.262V13.065H47.906V4.355ZM39.196 4.355V0H47.906V4.355H39.196ZM47.906 34.841V39.196H39.196V34.841H47.906ZM39.196 34.841H34.841V26.131H39.196V34.841ZM60.972 13.065V8.71H69.682V13.065H60.972ZM60.972 34.841H56.617V13.065H60.972V34.841ZM69.682 34.841V30.486H74.037V34.841H69.682ZM60.972 34.841H69.682V39.196H60.972V34.841ZM69.682 13.065H74.037V17.42H69.682V13.065ZM82.747 34.841H78.392V13.065H82.747V21.776H91.458V13.065H95.813V26.131H82.747V34.841ZM82.747 13.065V8.71H91.458V13.065H82.747ZM91.458 34.841V30.486H95.813V34.841H91.458ZM82.747 34.841H91.458V39.196H82.747V34.841ZM126.299 34.841H121.943V13.065H126.299V21.776H135.009V13.065H139.364V26.131H126.299V34.841ZM126.299 13.065V8.71H135.009V13.065H126.299ZM135.009 34.841V30.486H139.364V34.841H135.009ZM126.299 34.841H135.009V39.196H126.299V34.841ZM104.523 13.065V39.196H100.168V13.065H104.523ZM113.233 13.065H117.588V39.196H113.233V13.065ZM104.523 13.065V8.71H113.233V13.065H104.523ZM13.065 39.196V34.841H17.421V39.196H13.065Z" fill="black"/>
</svg>
