<svg width="140" height="40" viewBox="0 0 140 40" fill="none" xmlns="http://www.w3.org/2000/svg">
<path fill-rule="evenodd" clip-rule="evenodd" d="M4.355 13.065L0.054 13.12C0.018 12.176 0 11.45 0 10.942V8.71H2.123C2.631 8.674 3.375 8.656 4.355 8.656V4.355L6.642 4.301H8.71V0H13.065V2.177C13.065 2.649 13.047 3.375 13.011 4.355H8.71V8.656C7.767 8.656 7.041 8.674 6.533 8.71H4.355V13.065ZM26.131 13.065V17.42H21.83C21.83 18.364 21.812 19.09 21.776 19.598V21.776H17.475V22.538C17.439 23.3 17.402 23.881 17.366 24.28V30.486H13.065V21.776H17.421V19.054C17.457 18.691 17.475 18.418 17.475 18.237V17.42H21.776V15.297C21.812 14.789 21.83 14.045 21.83 13.065H26.131ZM4.355 13.065H11.541L13.065 13.011V8.71H17.421V4.41H26.131V8.71H30.431V13.065H26.131V8.765H22.102C21.812 8.728 21.358 8.71 20.741 8.71C20.015 8.71 19.471 8.728 19.108 8.765H17.421V13.065H13.065V17.42H4.355V13.065ZM39.196 4.355V0H47.906V4.301H50.03C50.538 4.301 51.282 4.319 52.262 4.355V13.065H47.906V4.355H44.64C43.914 4.319 43.188 4.301 42.462 4.301C41.737 4.301 40.648 4.319 39.196 4.355ZM39.196 34.841L34.895 34.895C34.859 33.952 34.841 33.244 34.841 32.772V26.131H39.142V30.921C39.178 31.792 39.196 33.099 39.196 34.841ZM47.906 34.841L47.961 39.142C46.037 39.178 44.586 39.196 43.606 39.196H39.196V34.841C40.648 34.877 41.737 34.895 42.462 34.895H44.64C45.366 34.859 46.455 34.841 47.906 34.841ZM39.142 13.065H34.841V7.621C34.841 6.859 34.859 5.752 34.895 4.301L39.196 4.355V13.065H43.497C43.533 14.009 43.551 14.735 43.551 15.243V17.42H47.906V21.776H52.262V34.841H47.906V28.417C47.906 26.965 47.888 24.752 47.852 21.776H43.551V19.435C43.515 18.999 43.497 18.673 43.497 18.455V17.42H39.196C39.196 16.477 39.178 15.769 39.142 15.297V13.065ZM69.682 34.841V30.486H74.037C74.037 31.466 74.019 32.21 73.983 32.718V34.841H69.682ZM60.972 34.841H69.682V39.142C68.23 39.178 67.141 39.196 66.416 39.196H64.184C63.458 39.196 62.369 39.178 60.917 39.142L60.972 34.841ZM60.972 13.065V34.841H56.617V21.231C56.617 19.38 56.635 16.658 56.671 13.065H60.972ZM60.972 13.065V8.765H65.327C66.307 8.728 67.74 8.71 69.628 8.71C69.664 9.69 69.682 10.434 69.682 10.942V13.065H73.983V17.42C73.293 17.457 72.767 17.475 72.404 17.475H69.682V14.862C69.682 14.462 69.664 13.864 69.628 13.065H60.972ZM91.458 34.841V30.486H95.758V34.841H91.458ZM82.747 34.841H91.458V39.142C90.006 39.178 88.899 39.196 88.137 39.196H85.959C85.233 39.196 84.145 39.178 82.693 39.142L82.747 34.841ZM82.747 13.065C82.747 16.658 82.729 19.38 82.693 21.231V21.776H91.403V13.065H82.747L82.693 8.765H87.048C88.028 8.728 89.48 8.71 91.403 8.71V10.942C91.403 11.414 91.421 12.122 91.458 13.065H95.758V26.131H82.693V26.675C82.693 28.49 82.711 31.212 82.747 34.841H78.392C78.356 31.212 78.338 28.49 78.338 26.675V21.231C78.374 19.38 78.392 16.658 78.392 13.065H82.747ZM126.299 13.065C126.262 16.658 126.244 19.38 126.244 21.231V21.776H134.954V13.065H139.309V26.131H126.244V26.675C126.244 28.49 126.262 31.212 126.299 34.841H121.943C121.907 31.212 121.889 28.49 121.889 26.675V21.231C121.925 19.38 121.943 16.658 121.943 13.065H126.299ZM134.954 13.065H126.299L126.244 8.765H130.599C131.579 8.728 133.031 8.71 134.954 8.71V13.065ZM134.954 34.841V32.663C134.991 32.155 135.009 31.429 135.009 30.486H139.309V34.841H134.954ZM126.299 34.841H134.954L135.009 39.142C133.557 39.178 132.45 39.196 131.688 39.196H129.51C128.785 39.196 127.696 39.178 126.244 39.142L126.299 34.841ZM113.179 13.065H117.534V36.583C117.57 36.692 117.588 36.764 117.588 36.801V39.196H113.179V13.065ZM104.468 15.461V36.529L104.523 36.583V39.196H100.113C100.113 38.906 100.095 38.688 100.059 38.543V37.4C100.095 37.291 100.113 37.146 100.113 36.964V16.059C100.113 15.406 100.132 14.408 100.168 13.065H104.468V10.942C104.468 10.434 104.487 9.69 104.523 8.71H108.769C109.749 8.71 111.219 8.728 113.179 8.765V13.065H104.523C104.487 14.118 104.468 14.916 104.468 15.461ZM13.011 37.018C13.011 36.51 13.029 35.785 13.065 34.841H17.421V39.196H13.065C13.029 38.216 13.011 37.49 13.011 37.018Z" fill="black"/>
</svg>
