<svg width="139" height="41" viewBox="0 0 139 41" fill="none" xmlns="http://www.w3.org/2000/svg">
<path fill-rule="evenodd" clip-rule="evenodd" d="M4.355 14.1198L0.436 14.3918C0.29 13.4848 0.181 12.7588 0.109 12.2138C0.036 11.6338 0 10.8348 0 9.81882C0.835 9.67382 1.506 9.54684 2.014 9.43784C2.559 9.32884 3.339 9.21984 4.355 9.11084V5.19183L6.642 5.08282C7.113 5.04682 7.458 5.00985 7.676 4.97385C7.93 4.93785 8.275 4.91983 8.71 4.91983V0.999817C9.618 0.963817 10.307 0.963817 10.779 0.999817C11.287 0.999817 11.995 1.03583 12.902 1.10883C12.938 2.01583 12.938 2.70582 12.902 3.17682C12.902 3.64882 12.866 4.33882 12.793 5.24582L8.71 5.35483V9.27484C7.803 9.31084 7.077 9.34682 6.533 9.38382C5.988 9.41982 5.262 9.45582 4.355 9.49182V10.6898C4.283 11.0888 4.21 11.3978 4.137 11.6158C4.101 11.7968 4.083 12.1048 4.083 12.5408C4.083 12.9038 4.101 13.1938 4.137 13.4118C4.21 13.5928 4.283 13.8288 4.355 14.1198ZM4.355 14.1198C5.879 14.1198 7.041 14.1018 7.839 14.0648C8.674 14.0288 9.908 13.9558 11.541 13.8478L13.065 13.7928V9.87283C13.936 9.83683 14.626 9.80083 15.134 9.76483C15.678 9.72783 16.441 9.69182 17.421 9.65582V5.73584C19.271 5.69984 20.705 5.68182 21.721 5.68182C22.774 5.68182 24.244 5.75383 26.131 5.89883V9.87283L30.05 9.81882C30.087 10.7258 30.105 11.4338 30.105 11.9418C30.141 12.4138 30.177 13.1218 30.214 14.0648H26.294V16.2428C26.294 16.7508 26.276 17.4768 26.24 18.4198H22.32C22.284 19.3638 22.211 20.0898 22.102 20.5978C22.03 21.1058 21.939 21.8318 21.83 22.7758H17.91C17.874 22.9568 17.838 23.1018 17.802 23.2108C17.765 23.2838 17.729 23.4108 17.693 23.5918C17.475 24.3908 17.312 25.0078 17.203 25.4428C17.094 25.8418 17.039 26.4408 17.039 27.2398V31.4308C16.386 31.4678 15.878 31.4858 15.515 31.4858H14.481C14.118 31.4858 13.61 31.4678 12.957 31.4308V28.2188C12.957 27.1308 12.993 26.2958 13.065 25.7148C13.138 25.1348 13.211 24.2998 13.283 23.2108L13.338 22.7758H17.257C17.294 22.1948 17.348 21.7588 17.421 21.4688C17.493 21.1418 17.566 20.6888 17.638 20.1078C17.674 19.7448 17.729 19.4728 17.802 19.2908C17.874 19.0738 17.929 18.7828 17.965 18.4198H21.885C21.993 17.5128 22.066 16.8048 22.102 16.2968C22.175 15.7888 22.211 15.0448 22.211 14.0648H26.131V10.1458H23.627C23.082 10.0728 22.647 10.0188 22.32 9.98184C22.03 9.94584 21.594 9.92783 21.014 9.92783C20.288 9.92783 19.707 9.94584 19.271 9.98184C18.836 10.0188 18.219 10.0548 17.421 10.0908V14.0108L13.065 14.2289V18.1479C11.178 18.2569 9.726 18.3298 8.71 18.3658C7.694 18.3658 6.242 18.3479 4.355 18.3119V14.1198ZM39.196 36.0588L35.277 36.3308C35.095 35.4238 34.95 34.7338 34.841 34.2618C34.768 33.7898 34.732 33.0828 34.732 32.1388L34.678 30.2339V27.3478C35.331 27.3118 35.821 27.2939 36.148 27.2939C36.51 27.2579 36.873 27.2398 37.236 27.2398C37.599 27.2398 38.107 27.2579 38.761 27.2939V28.1108C38.833 29.8888 38.888 31.2498 38.924 32.1928C38.997 33.1008 39.087 34.3888 39.196 36.0588ZM39.196 5.13684V1.05383C41.083 0.981833 42.535 0.944824 43.551 0.944824C44.604 0.944824 46.055 0.963817 47.906 0.999817V4.91983C48.814 4.95583 49.503 4.99183 49.975 5.02783C50.483 5.02783 51.191 5.06484 52.098 5.13684V13.7928C51.445 13.8288 50.937 13.8658 50.574 13.9018H49.539C49.213 13.8658 48.705 13.8288 48.015 13.7928C48.015 12.7408 47.997 11.9418 47.961 11.3978C47.961 10.8528 47.943 10.0548 47.906 9.00183V5.57285C46.527 5.35485 45.457 5.20984 44.694 5.13684C43.969 5.06484 43.225 5.02783 42.462 5.02783C41.7 5.02783 40.612 5.06484 39.196 5.13684ZM47.906 35.8409C48.015 33.0099 48.015 30.8318 47.906 29.3078C47.834 27.7838 47.707 25.6058 47.525 22.7758H43.606C43.569 22.2668 43.515 21.8858 43.442 21.6318C43.406 21.3778 43.37 20.9788 43.334 20.4348C43.297 19.9988 43.243 19.6718 43.17 19.4548C43.134 19.2368 43.098 18.8918 43.061 18.4198H39.142C39.033 17.4768 38.942 16.7508 38.87 16.2428C38.833 15.7348 38.797 15.0088 38.761 14.0648H34.841C34.805 12.6858 34.768 11.5968 34.732 10.7988C34.696 9.96383 34.714 9.12883 34.786 8.29483C34.859 7.45983 35.022 6.33483 35.277 4.91983L39.196 5.13684C39.087 6.51584 39.015 7.60484 38.978 8.40384C38.942 9.16584 38.942 9.94584 38.978 10.7438C39.051 11.5428 39.16 12.6498 39.305 14.0648H43.225C43.261 14.9728 43.334 15.6978 43.442 16.2428C43.551 16.7508 43.642 17.4768 43.715 18.4198H47.634C47.707 19.3278 47.779 20.0349 47.852 20.5439C47.925 21.0519 47.997 21.7958 48.07 22.7758H51.989C52.134 25.5338 52.225 27.6748 52.262 29.1988C52.298 30.7238 52.262 32.9369 52.153 35.8409H47.906ZM39.196 36.0588C40.575 36.1308 41.646 36.1678 42.408 36.1678C43.206 36.1678 43.987 36.1488 44.749 36.1128C45.511 36.0398 46.564 35.9499 47.906 35.8409L48.233 39.7599C46.382 39.9419 44.912 40.0868 43.823 40.1958C42.735 40.2688 41.192 40.2868 39.196 40.2498V36.0588ZM61.19 14.0648L60.917 10.1458C62.804 10.0728 64.22 10.0368 65.164 10.0368C66.107 9.99983 67.486 9.98184 69.301 9.98184C69.41 10.8528 69.501 11.5248 69.573 11.9968C69.646 12.4678 69.7 13.1578 69.736 14.0648H73.656C73.692 14.9728 73.71 15.6978 73.71 16.2428V18.6928C73.057 18.7288 72.567 18.7648 72.241 18.8008H71.206C70.843 18.7648 70.335 18.7288 69.682 18.6928C69.682 18.5468 69.664 18.4388 69.628 18.3658V17.9298C69.591 17.0588 69.555 16.3878 69.519 15.9158C69.482 15.4438 69.428 14.8268 69.355 14.0648H66.252C65.127 14.0288 64.274 14.0108 63.694 14.0108C63.113 14.0108 62.278 14.0288 61.19 14.0648ZM61.026 35.8409H56.671C56.526 32.2839 56.453 29.5438 56.453 27.6208C56.453 25.6968 56.508 23.8098 56.617 21.9588C56.725 20.0718 56.853 17.4398 56.998 14.0648H61.19C61.081 17.4038 60.99 20.0348 60.917 21.9588C60.845 23.8458 60.808 25.7699 60.808 27.7289C60.845 29.6529 60.917 32.3569 61.026 35.8409ZM69.573 35.8409C69.609 35.0789 69.646 34.4978 69.682 34.0988C69.718 33.6998 69.736 33.1369 69.736 32.4109V31.5948C70.426 31.5578 70.934 31.5398 71.261 31.5398C71.624 31.5398 71.968 31.5578 72.295 31.5948C72.658 31.5948 73.148 31.6128 73.765 31.6488V33.7718C73.765 34.2438 73.747 34.9339 73.71 35.8409H69.573ZM61.026 35.8409C62.369 35.9129 63.403 35.9678 64.129 36.0038C64.891 36.0398 65.635 36.0588 66.361 36.0588C67.123 36.0218 68.194 35.9499 69.573 35.8409L69.791 39.7599C68.412 39.9779 67.305 40.1228 66.47 40.1958C65.635 40.2688 64.801 40.2688 63.966 40.1958C63.131 40.1228 62.006 39.9779 60.591 39.7599L61.026 35.8409ZM82.53 35.8409H78.229C78.084 32.3199 77.993 29.5988 77.957 27.6748C77.957 25.7148 78.011 23.8098 78.12 21.9588C78.229 20.0718 78.356 17.4398 78.501 14.0648H82.693C82.584 17.4038 82.475 20.0348 82.366 21.9588L82.339 22.7228C82.797 22.7578 83.133 22.7948 83.346 22.8298C83.6 22.8658 83.981 22.8838 84.489 22.8838H89.824C90.115 22.8478 90.532 22.8118 91.077 22.7758C91.113 22.1588 91.131 21.6868 91.131 21.3598V19.6178C91.131 18.3478 91.113 17.3858 91.077 16.7328C91.04 16.0798 90.986 15.1898 90.913 14.0648H87.81C86.685 14.0288 85.814 14.0108 85.197 14.0108C84.616 14.0108 83.782 14.0288 82.693 14.0648L82.421 10.1458C84.272 10.0728 85.669 10.0368 86.613 10.0368C87.556 9.99983 88.935 9.98184 90.75 9.98184C90.822 10.8528 90.895 11.5248 90.968 11.9968C91.077 12.4678 91.167 13.1578 91.24 14.0648H95.159C95.268 15.9518 95.341 17.4038 95.377 18.4198C95.414 19.4368 95.432 20.8878 95.432 22.7758C95.432 23.7188 95.414 24.4449 95.377 24.9529C95.377 25.4249 95.359 26.0778 95.323 26.9128H86.667C85.651 26.9128 84.889 26.9488 84.381 27.0218C83.909 27.0578 83.219 27.1118 82.312 27.1848C82.312 27.1848 82.257 26.3439 82.257 27.7289C82.294 29.6529 82.384 32.3569 82.53 35.8409ZM91.185 35.8409C91.222 34.8969 91.258 34.1708 91.294 33.6628C91.331 33.1188 91.367 32.3928 91.403 31.4858C92.056 31.4488 92.546 31.4308 92.873 31.4308C93.236 31.4308 93.581 31.4488 93.907 31.4858C94.27 31.4858 94.778 31.5038 95.432 31.5398C95.432 32.4478 95.414 33.1728 95.377 33.7178C95.341 34.2258 95.323 34.9339 95.323 35.8409H91.185ZM82.53 35.8409C83.909 35.9129 84.961 35.9678 85.687 36.0038C86.449 36.0398 87.211 36.0588 87.974 36.0588C88.736 36.0218 89.806 35.9499 91.185 35.8409L91.403 39.7599C90.024 39.9779 88.899 40.1228 88.028 40.1958C87.193 40.2688 86.34 40.2688 85.469 40.1958C84.635 40.1228 83.528 39.9779 82.149 39.7599L82.53 35.8409ZM126.026 35.8409H121.671C121.526 32.3199 121.453 29.5988 121.453 27.6748C121.453 25.7148 121.49 23.8098 121.562 21.9588C121.671 20.0718 121.798 17.4398 121.943 14.0648H126.19C126.044 17.4038 125.936 20.0348 125.863 21.9588L125.835 22.7228C126.258 22.7588 126.594 22.7948 126.843 22.8298C127.097 22.8658 127.478 22.8838 127.986 22.8838H133.321C133.612 22.8478 134.029 22.8118 134.573 22.7758V19.6178C134.573 18.3478 134.555 17.3858 134.519 16.7328C134.519 16.0798 134.483 15.1898 134.41 14.0648H131.307C130.182 14.0288 129.311 14.0108 128.694 14.0108C128.113 14.0108 127.278 14.0288 126.19 14.0648L125.863 10.1458C127.714 10.0728 129.111 10.0368 130.055 10.0368C131.035 9.99983 132.432 9.98184 134.247 9.98184C134.319 10.8528 134.392 11.5248 134.464 11.9968C134.573 12.4678 134.664 13.1578 134.737 14.0648H138.656C138.729 15.9518 138.783 17.4038 138.82 18.4198C138.892 19.4368 138.928 20.8878 138.928 22.7758C138.928 23.7188 138.91 24.4449 138.874 24.9529C138.874 25.4249 138.838 26.0778 138.765 26.9128H130.164C129.148 26.9128 128.385 26.9488 127.877 27.0218L125.754 27.1848V27.7289C125.79 29.6529 125.881 32.3569 126.026 35.8409ZM134.682 35.8409C134.718 34.8969 134.755 34.1708 134.791 33.6628C134.827 33.1188 134.845 32.3928 134.845 31.4858C135.499 31.4488 136.007 31.4308 136.37 31.4308C136.733 31.4308 137.077 31.4488 137.404 31.4858C137.767 31.4858 138.275 31.5038 138.928 31.5398C138.892 32.4478 138.856 33.1728 138.82 33.7178C138.82 34.2258 138.801 34.9339 138.765 35.8409H134.682ZM126.026 35.8409C127.369 35.9129 128.422 35.9678 129.184 36.0038C129.946 36.0398 130.708 36.0588 131.47 36.0588C132.232 36.0218 133.303 35.9499 134.682 35.8409L134.845 39.7599C133.466 39.9779 132.359 40.1228 131.525 40.1958C130.69 40.2688 129.837 40.2688 128.966 40.1958C128.131 40.1228 127.006 39.9779 125.591 39.7599L126.026 35.8409ZM103.979 35.9499C103.979 36.3489 103.997 36.6388 104.033 36.8208C104.069 37.0018 104.124 37.2559 104.196 37.5829C104.233 37.6189 104.251 37.6558 104.251 37.6918V37.7458C104.323 37.9998 104.36 38.1998 104.36 38.3448C104.396 38.4538 104.414 38.6538 104.414 38.9438C104.414 39.1978 104.396 39.3978 104.36 39.5428C104.36 39.6878 104.341 39.9058 104.305 40.1958H99.46C99.424 39.9418 99.388 39.7418 99.351 39.5968V38.5078C99.388 38.3998 99.442 38.2538 99.515 38.0728V37.9098C99.551 37.8368 99.569 37.7638 99.569 37.6918C99.605 37.3288 99.623 37.0568 99.623 36.8748C99.66 36.6568 99.678 36.3489 99.678 35.9499V20.0538C99.678 18.7468 99.696 17.7488 99.732 17.0588C99.805 16.3698 99.896 15.3718 100.004 14.0648H103.924C103.96 13.1938 104.015 12.5228 104.087 12.0508C104.16 11.5788 104.214 10.8898 104.251 9.98184H112.58C112.652 10.8528 112.707 11.5248 112.743 11.9968C112.816 12.4318 112.87 13.1218 112.907 14.0648H116.826C116.971 15.3358 117.062 16.3149 117.098 17.0049C117.171 17.6579 117.207 18.6558 117.207 19.9988V36.8748C117.207 37.0568 117.244 37.3288 117.316 37.6918V37.9098C117.352 37.9458 117.389 38.0179 117.425 38.1269C117.461 38.2719 117.498 38.3998 117.534 38.5078C117.57 38.6168 117.588 38.7618 117.588 38.9438C117.588 39.2338 117.57 39.4518 117.534 39.5968C117.534 39.7418 117.516 39.9418 117.479 40.1958H112.634C112.598 39.9418 112.562 39.7418 112.525 39.5968V38.9438C112.525 38.6538 112.544 38.4538 112.58 38.3448C112.616 38.1998 112.652 37.9818 112.689 37.6918C112.761 37.3288 112.798 37.0568 112.798 36.8748C112.834 36.6938 112.852 36.3849 112.852 35.9499V19.5088C112.852 18.2748 112.816 17.3498 112.743 16.7328C112.707 16.0798 112.634 15.1898 112.525 14.0648H110.566C109.84 14.0288 109.277 14.0108 108.878 14.0108C108.515 14.0108 107.953 14.0288 107.19 14.0648H104.305C104.233 15.0448 104.16 15.8249 104.087 16.4059C104.015 16.9509 103.979 17.7848 103.979 18.9098V35.9499ZM12.739 37.9638C12.739 37.4198 12.775 36.6939 12.848 35.7859C13.791 35.7139 14.517 35.6778 15.025 35.6778C15.57 35.6778 16.295 35.7139 17.203 35.7859C17.275 36.7299 17.312 37.4739 17.312 38.0179C17.312 38.5269 17.275 39.2338 17.203 40.1418C16.259 40.2138 15.515 40.2498 14.971 40.2498C14.463 40.2498 13.755 40.2138 12.848 40.1418C12.775 39.1978 12.739 38.4718 12.739 37.9638Z" fill="black"/>
</svg>
