<svg width="135" height="41" viewBox="0 0 135 41" fill="none" xmlns="http://www.w3.org/2000/svg">
<path fill-rule="evenodd" clip-rule="evenodd" d="M41.4781 40.7295C40.6986 40.7295 39.8598 40.6589 38.9004 40.515C37.971 40.3684 37.0713 40.1879 36.2618 39.9707C35.4223 39.7564 34.7932 39.5194 34.3435 39.2683C34.0736 39.1216 33.8633 38.9693 33.7134 38.8057C33.5935 38.6449 33.533 38.3629 33.533 37.968L33.2332 29.4581C33.2332 28.736 33.4731 28.3749 33.9828 28.3749C34.4025 28.3749 34.703 28.6993 34.8529 29.348L35.3624 31.41C36.6816 36.5746 39.1096 39.1583 42.6774 39.1583C44.5962 39.1583 46.1255 38.5547 47.2648 37.3447C48.4041 36.1318 48.9735 34.4252 48.9735 32.2223C48.9735 30.0899 48.3743 28.1012 47.2051 26.2594C46.0358 24.4175 44.1472 22.5926 41.5988 20.7845C38.7505 18.8721 36.6816 17.0189 35.3624 15.2306C34.0732 13.4423 33.4136 11.5356 33.4136 9.51314C33.4136 6.83914 34.4025 4.69825 36.3813 3.09047C38.36 1.48268 40.8794 0.678711 43.9375 0.678711C45.1068 0.678711 46.2159 0.805735 47.2952 1.05677C48.3746 1.31063 49.2443 1.67157 49.9338 2.14262C50.1737 2.28648 50.3526 2.45007 50.4726 2.63059C50.6225 2.81112 50.6834 3.0453 50.6834 3.33301L50.8626 11.5186C50.8626 12.1335 50.6227 12.4381 50.113 12.4381C49.7533 12.4381 49.5134 12.187 49.3635 11.6793L48.9735 10.3255C48.104 7.54428 47.2355 5.51054 46.3361 4.22714C45.4366 2.94655 44.1474 2.30349 42.4385 2.30349C40.7895 2.30349 39.4698 2.81118 38.5104 3.82098C37.521 4.8336 37.0418 6.2609 37.0418 8.1028C37.0418 9.65699 37.581 11.1378 38.6603 12.5481C39.7097 13.9556 41.5988 15.6734 44.2971 17.6958C47.1753 19.9016 49.274 22.0228 50.5932 24.0649C51.9124 26.1071 52.6017 28.2846 52.6017 30.5948C52.6017 32.62 52.1218 34.3886 51.1624 35.9061C50.203 37.4236 48.884 38.6083 47.2051 39.4573C45.5261 40.3063 43.6068 40.7295 41.4781 40.7295ZM64.1751 40.7295C62.4961 40.7295 60.9668 40.1991 59.5877 39.1329C58.2385 38.0667 57.1589 36.538 56.3494 34.5522C55.5399 32.5637 55.1197 30.197 55.1197 27.4525C55.1197 24.3808 55.6301 21.7068 56.5895 19.4305C57.5789 17.1542 58.9276 15.3941 60.6066 14.1474C62.2855 12.9007 64.1746 12.2773 66.2433 12.2773C68.0122 12.2773 69.3909 12.6017 70.4103 13.2533C70.7701 13.5043 70.9806 13.9021 70.9806 14.4437L71.1001 21.0581C71.1001 21.5996 70.86 21.8705 70.4103 21.8705C69.9905 21.8705 69.7209 21.6336 69.601 21.1653C69.0613 19.1768 68.5519 17.6423 68.0422 16.5592C67.5325 15.4732 67.0231 14.7257 66.4834 14.3083C65.9437 13.8936 65.3441 13.6849 64.6845 13.6849C63.935 13.6849 63.1248 14.1024 62.3153 14.9316C61.4758 15.7637 60.7862 17.1091 60.2166 18.9708C59.6769 20.8296 59.4073 23.278 59.4073 26.3131C59.4073 30.1802 59.9167 33.0883 60.9661 35.0402C62.0454 36.9921 63.4248 37.968 65.1038 37.968C66.4529 37.968 67.562 37.4434 68.4615 36.3941C69.3609 35.3476 70.1407 33.4493 70.8003 30.7048C70.9202 30.3071 71.1603 30.1068 71.4901 30.1068C71.9698 30.1068 72.1195 30.4707 71.9995 31.1928C71.5798 33.7201 71.0099 35.6805 70.2604 37.0739C69.5108 38.4645 68.6119 39.4206 67.5925 39.9452C66.6031 40.4699 65.4343 40.7295 64.1751 40.7295ZM84.1128 40.7295C82.2539 40.7295 80.6045 40.154 79.1354 38.9975C77.6962 37.8411 76.5265 36.205 75.657 34.0924C74.7876 31.9769 74.3688 29.5285 74.3688 26.7473C74.3688 23.8928 74.818 21.3824 75.6875 19.2133C76.5869 17.047 77.7867 15.349 79.3157 14.1192C80.8448 12.8894 82.553 12.2773 84.4418 12.2773C86.7204 12.2773 88.55 13.1517 89.9591 14.9062C91.3383 16.6578 92.0579 19.5039 92.0579 23.4416C92.0579 24.6347 91.5779 25.2298 90.6185 25.2298H79.6753C78.8957 25.2298 78.5053 25.6445 78.5053 26.4765C78.5053 30.307 79.1049 33.1785 80.3042 35.0938C81.5034 37.009 83.0034 37.968 84.8623 37.968C86.3014 37.968 87.5002 37.4801 88.4296 36.5041C89.359 35.5282 90.1086 33.8836 90.6782 31.5707C90.7982 31.173 91.038 30.9756 91.4278 30.9756C91.8775 30.9756 92.0572 31.3366 91.9372 32.0587C91.3376 35.2742 90.348 37.5251 88.9988 38.8057C87.6496 40.0891 86.0316 40.7295 84.1128 40.7295ZM79.4949 23.876H85.312C87.1709 23.876 88.0701 22.9706 88.0701 21.1653C88.0701 18.8157 87.7703 16.9738 87.1706 15.6368C86.541 14.2998 85.6114 13.6312 84.3821 13.6312C82.883 13.6312 81.6234 14.4437 80.604 16.0712C79.6146 17.6959 78.9257 20.0088 78.6259 23.0072C78.5659 23.5854 78.8353 23.876 79.4949 23.876ZM126.806 40.7295C124.977 40.7295 123.328 40.154 121.859 38.9975C120.39 37.8411 119.22 36.205 118.381 34.0924C117.511 31.9769 117.062 29.5285 117.062 26.7473C117.062 23.8928 117.512 21.3824 118.411 19.2133C119.281 17.047 120.48 15.349 122.039 14.1192C123.568 12.8894 125.277 12.2773 127.165 12.2773C129.414 12.2773 131.243 13.1517 132.652 14.9062C134.061 16.6578 134.751 19.5039 134.751 23.4416C134.751 24.6347 134.271 25.2298 133.312 25.2298H122.368C121.619 25.2298 121.229 25.6445 121.229 26.4765C121.229 30.307 121.829 33.1785 122.999 35.0938C124.198 37.009 125.727 37.968 127.555 37.968C129.025 37.968 130.193 37.4801 131.123 36.5041C132.052 35.5282 132.802 33.8836 133.371 31.5707C133.491 31.173 133.731 30.9756 134.121 30.9756C134.571 30.9756 134.752 31.3366 134.632 32.0587C134.032 35.2742 133.042 37.5251 131.693 38.8057C130.374 40.0891 128.725 40.7295 126.806 40.7295ZM122.189 23.876H128.005C129.864 23.876 130.794 22.9706 130.794 21.1653C130.794 18.8157 130.463 16.9738 129.864 15.6368C129.234 14.2998 128.335 13.6312 127.106 13.6312C125.607 13.6312 124.347 14.4437 123.328 16.0712C122.308 17.6959 121.649 20.0088 121.35 23.0072C121.26 23.5854 121.56 23.876 122.189 23.876ZM99.9128 18.7395V36.741C99.9128 37.4998 100.032 38.0414 100.272 38.3658C100.542 38.693 101.052 38.8903 101.862 38.9637L103.42 39.1245C103.84 39.1979 104.05 39.3952 104.05 39.7224C104.05 40.1568 103.78 40.3712 103.18 40.3712H93.4667C92.8671 40.3712 92.5966 40.1738 92.5966 39.7761C92.5966 39.4517 92.8364 39.2345 93.3461 39.1245L94.0359 39.0172C94.8454 38.8734 95.3553 38.6478 95.6252 38.3403C95.865 38.0328 95.9847 37.4998 95.9847 36.741V20.7703C95.9847 18.4828 96.9441 16.2912 98.6831 14.6749C100.392 13.0587 102.731 12.1532 105.16 12.1532C107.588 12.1532 109.926 13.0587 111.635 14.6749C113.344 16.2912 114.304 18.4828 114.304 20.7703V36.741C114.304 37.4998 114.424 38.0328 114.694 38.3403C114.934 38.6478 115.472 38.8537 116.282 38.9637L117.542 39.1245C117.962 39.1979 118.171 39.4151 118.171 39.7761C118.171 40.1738 117.931 40.3712 117.481 40.3712H107.798C107.258 40.3712 106.988 40.1738 106.988 39.7761C106.988 39.4151 107.198 39.1979 107.618 39.1245L108.427 39.0172C109.237 38.9101 109.776 38.693 110.016 38.3658C110.256 38.0414 110.406 37.4998 110.406 36.741V18.7395C110.406 16.0148 108.038 13.809 105.16 13.809C102.251 13.809 99.9128 16.0148 99.9128 18.7395ZM13.2955 34.5803C14.9745 34.5803 16.3546 35.9597 16.3546 37.655C16.3546 39.353 14.9745 40.7295 13.2955 40.7295C11.5866 40.7295 10.2084 39.353 10.2084 37.655C10.2084 35.9597 11.5866 34.5803 13.2955 34.5803ZM20.2522 20.5843C25.0492 18.2177 26.4874 16.5281 26.4874 14.2744C26.4874 12.8584 25.2591 11.8063 23.8499 11.8063C19.2628 11.6709 12.816 17.9074 6.78976 17.9074C3.58174 17.9187 0.0146484 15.2052 0.0146484 10.9009C0.0146484 7.54993 1.93276 5.58671 3.4918 4.59101C7.44936 2.06651 8.64909 0.678711 9.81836 0.678711C10.9277 0.678711 11.9463 1.42344 11.9463 2.80275C11.9463 4.45849 8.409 5.27081 5.23096 6.99988C3.67192 7.83762 1.933 9.33545 1.933 11.4989C1.933 12.331 2.50218 14.8243 4.9007 14.8243C9.03814 14.8243 15.1844 8.73181 21.6903 8.73181C26.4874 8.73181 28.4971 13.4734 28.4971 15.8709C28.4971 21.4756 23.4897 22.1892 16.7738 26.3723C15.0349 27.4498 13.7757 28.1662 13.7757 29.9009V31.4663C13.7757 31.9599 13.4154 32.1434 13.1456 32.1434C12.8158 32.1434 12.5167 31.8809 12.5167 31.4663V29.2972C12.5167 26.3722 14.4957 23.419 20.2522 20.5843Z" fill="black"/>
</svg>
