<svg width="139" height="41" viewBox="0 0 139 41" fill="none" xmlns="http://www.w3.org/2000/svg">
<path fill-rule="evenodd" clip-rule="evenodd" d="M4.355 14.1198C5.879 14.1558 7.041 14.1558 7.839 14.1198C8.674 14.0468 9.908 13.9558 11.541 13.8478L13.065 13.7388V9.8728C13.936 9.8368 14.626 9.80077 15.134 9.76477C15.678 9.72777 16.441 9.69182 17.421 9.65582V5.79077C19.271 5.75377 20.705 5.73578 21.721 5.73578C22.774 5.73578 24.244 5.8088 26.131 5.9538V9.8728H29.996C30.032 10.7438 30.069 11.4338 30.105 11.9418C30.141 12.4138 30.159 13.1218 30.159 14.0648H26.294C26.33 14.9728 26.349 15.6978 26.349 16.2428C26.349 16.7508 26.33 17.4768 26.294 18.4198H22.374C22.338 19.3638 22.266 20.0898 22.157 20.5978C22.084 21.1058 21.975 21.8318 21.83 22.7758H17.965C17.929 22.9568 17.892 23.1018 17.856 23.2108C17.82 23.2838 17.783 23.4108 17.747 23.5918C17.493 24.3908 17.294 25.0078 17.148 25.4428C17.039 25.8418 16.985 26.4408 16.985 27.2398V31.4308C16.332 31.4678 15.824 31.4858 15.461 31.4858H14.426C14.1 31.4858 13.61 31.4678 12.957 31.4308V28.2188C12.957 27.1308 12.993 26.2958 13.065 25.7148C13.138 25.1348 13.229 24.2998 13.338 23.2108V22.7758H17.257C17.294 22.1948 17.348 21.7588 17.421 21.4688C17.493 21.1418 17.566 20.6888 17.638 20.1078C17.711 19.7448 17.783 19.4728 17.856 19.2908C17.929 19.0738 17.983 18.7828 18.019 18.4198H21.939C22.012 17.5128 22.066 16.8048 22.102 16.2968C22.175 15.7888 22.211 15.0448 22.211 14.0648H26.131V10.1998H23.627C23.118 10.1278 22.701 10.0728 22.374 10.0368C22.084 9.9638 21.63 9.9278 21.014 9.9278C20.288 9.9278 19.707 9.94581 19.271 9.98181C18.836 10.0188 18.219 10.0728 17.421 10.1458V14.0108L13.065 14.2828V18.1478C11.178 18.2208 9.726 18.2748 8.71 18.3118C7.694 18.3478 6.242 18.3478 4.355 18.3118V14.1198ZM4.355 14.1198L0.49 14.3918C0.345 13.5208 0.218 12.7948 0.109 12.2138C0.036 11.6338 0 10.8348 0 9.81879C0.835 9.63779 1.506 9.49179 2.014 9.38379C2.559 9.27479 3.339 9.16582 4.355 9.05682V5.19177L6.642 5.02777C7.113 4.99177 7.458 4.97382 7.676 4.97382C7.93 4.93782 8.275 4.90081 8.71 4.86481V0.999817C9.618 0.963817 10.307 0.963817 10.779 0.999817C11.287 0.999817 11.995 1.03583 12.902 1.10883C12.938 2.01583 12.938 2.70582 12.902 3.17682L12.739 5.24579L8.71 5.3548V9.21979C7.803 9.25579 7.077 9.31079 6.533 9.38379C5.988 9.41979 5.262 9.43781 4.355 9.43781V10.6898C4.283 11.0528 4.21 11.3428 4.137 11.5608C4.101 11.7788 4.083 12.0868 4.083 12.4868C4.083 12.8858 4.101 13.1938 4.137 13.4118C4.21 13.5928 4.283 13.8288 4.355 14.1198ZM39.196 5.08282V1.05377C41.083 0.981772 42.535 0.944824 43.551 0.944824C44.604 0.944824 46.055 0.963817 47.906 0.999817V4.86481C48.814 4.90081 49.503 4.93782 49.975 4.97382C50.483 5.00982 51.173 5.04682 52.044 5.08282C52.08 6.93382 52.098 8.38481 52.098 9.43781V13.7928C51.445 13.8288 50.937 13.8658 50.574 13.9018H49.539C49.213 13.8658 48.723 13.8288 48.07 13.7928C48.033 12.7408 47.997 11.9418 47.961 11.3978C47.961 10.8168 47.943 10.0188 47.906 9.00183V5.57281C46.564 5.35481 45.511 5.20978 44.749 5.13678C43.987 5.02778 43.206 4.97382 42.408 4.97382C41.646 4.97382 40.575 5.00982 39.196 5.08282ZM47.906 35.8408L48.233 39.7058C46.382 39.9238 44.912 40.0868 43.823 40.1958C42.735 40.2688 41.192 40.2868 39.196 40.2498V36.0588C40.575 36.1308 41.646 36.1858 42.408 36.2218C43.206 36.2218 43.987 36.1858 44.749 36.1128C45.511 36.0398 46.564 35.9498 47.906 35.8408ZM39.196 36.0588L35.331 36.3308C35.15 35.4598 34.986 34.7878 34.841 34.3168C34.732 33.8448 34.678 33.1548 34.678 32.2478V27.3478C35.331 27.3118 35.821 27.2938 36.148 27.2938C36.51 27.2578 36.855 27.2578 37.182 27.2938C37.545 27.2938 38.053 27.3118 38.706 27.3478L38.761 28.1648C38.797 29.9068 38.851 31.2498 38.924 32.1928C38.997 33.1008 39.087 34.3888 39.196 36.0588ZM47.906 35.8408C48.015 33.0098 48.015 30.8318 47.906 29.3078C47.834 27.7838 47.707 25.6058 47.525 22.7758H43.606C43.569 22.2668 43.515 21.8858 43.442 21.6318C43.406 21.3778 43.352 20.9788 43.279 20.4348C43.243 19.9988 43.188 19.6718 43.116 19.4548C43.079 19.2368 43.043 18.8918 43.007 18.4198H39.142C39.033 17.4768 38.942 16.7508 38.87 16.2428C38.797 15.7348 38.742 15.0088 38.706 14.0648H34.841C34.768 12.7218 34.714 11.6338 34.678 10.7988C34.678 9.96383 34.714 9.1288 34.786 8.2948C34.859 7.4598 35.041 6.3348 35.331 4.9198L39.196 5.08282C39.087 6.46182 39.015 7.55082 38.978 8.34882C38.942 9.14782 38.942 9.94577 38.978 10.7438C39.051 11.5428 39.16 12.6498 39.305 14.0648H43.17C43.243 14.9728 43.334 15.6978 43.442 16.2428C43.551 16.7508 43.66 17.4768 43.769 18.4198H47.634C47.707 19.3278 47.779 20.0348 47.852 20.5438C47.925 21.0518 48.015 21.7958 48.124 22.7758H51.989C52.134 25.4968 52.225 27.6388 52.262 29.1988C52.298 30.7238 52.243 32.9368 52.098 35.8408H47.906ZM61.026 35.8408C62.369 35.9128 63.403 35.9858 64.129 36.0588C64.855 36.0948 65.599 36.0948 66.361 36.0588C67.123 36.0218 68.194 35.9498 69.573 35.8408L69.791 39.7058C68.412 39.9598 67.305 40.1228 66.47 40.1958C65.635 40.2688 64.782 40.2688 63.911 40.1958C63.077 40.1228 61.952 39.9598 60.536 39.7058L61.026 35.8408ZM61.19 14.0648L60.917 10.1998L65.109 10.0368C66.089 9.9998 67.486 9.98181 69.301 9.98181C69.41 10.8528 69.501 11.5248 69.573 11.9968C69.646 12.4678 69.7 13.1578 69.736 14.0648H73.602C73.638 14.9728 73.656 15.6978 73.656 16.2428C73.692 16.7508 73.71 17.4768 73.71 18.4198V18.6928C73.057 18.7288 72.549 18.7648 72.186 18.8008H71.152C70.825 18.8008 70.335 18.7828 69.682 18.7468C69.682 18.6018 69.664 18.4748 69.628 18.3658V17.9848C69.591 17.0778 69.537 16.3878 69.464 15.9158C69.428 15.4438 69.374 14.8268 69.301 14.0648H66.252C65.127 14.0288 64.274 14.0108 63.694 14.0108C63.113 14.0108 62.278 14.0288 61.19 14.0648ZM69.573 35.8408C69.609 35.0788 69.646 34.4978 69.682 34.0988C69.718 33.6998 69.736 33.1368 69.736 32.4108V31.5948C70.426 31.5578 70.934 31.5398 71.261 31.5398C71.624 31.5398 71.968 31.5578 72.295 31.5948C72.622 31.6308 73.112 31.6488 73.765 31.6488C73.765 32.5928 73.747 33.2998 73.71 33.7718C73.71 34.2438 73.692 34.9338 73.656 35.8408H69.573ZM61.026 35.8408H56.671C56.526 32.2838 56.453 29.5438 56.453 27.6208C56.453 25.6608 56.508 23.7548 56.617 21.9038C56.725 20.0168 56.871 17.4038 57.052 14.0648H61.19C61.081 17.4038 60.972 20.0168 60.863 21.9038C60.79 23.7918 60.754 25.7148 60.754 27.6748C60.79 29.6348 60.881 32.3568 61.026 35.8408ZM91.185 35.8408C91.222 34.9338 91.258 34.2078 91.294 33.6628C91.331 33.1188 91.367 32.3928 91.403 31.4858C92.056 31.4488 92.546 31.4308 92.873 31.4308C93.236 31.4308 93.581 31.4488 93.907 31.4858C94.27 31.4858 94.76 31.5038 95.377 31.5398C95.377 32.4478 95.359 33.1728 95.323 33.7178C95.323 34.2258 95.305 34.9338 95.268 35.8408H91.185ZM82.53 35.8408H78.174C78.029 32.3198 77.957 29.5988 77.957 27.6748C77.957 25.7148 77.993 23.7918 78.066 21.9038C78.174 20.0168 78.32 17.4038 78.501 14.0648H82.693C82.548 17.3678 82.439 19.9808 82.366 21.9038L82.337 22.7228C82.761 22.7578 83.097 22.7948 83.346 22.8298C83.6 22.8658 83.963 22.8838 84.435 22.8838H89.77C90.06 22.8478 90.478 22.8118 91.022 22.7758C91.058 22.1588 91.077 21.6868 91.077 21.3598V19.6178C91.077 18.3478 91.058 17.3858 91.022 16.7328C90.986 16.0798 90.931 15.1898 90.859 14.0648H87.81C86.685 14.0288 85.814 14.0108 85.197 14.0108C84.616 14.0108 83.782 14.0288 82.693 14.0648L82.366 10.1998C84.217 10.0908 85.614 10.0368 86.558 10.0368C87.502 9.9998 88.881 9.98181 90.695 9.98181C90.768 10.8528 90.859 11.5248 90.968 11.9968C91.077 12.4678 91.167 13.1578 91.24 14.0648H95.105C95.214 15.9158 95.286 17.3678 95.323 18.4198C95.395 19.4368 95.414 20.8878 95.377 22.7758C95.377 23.7188 95.359 24.4448 95.323 24.9528C95.323 25.4248 95.305 26.0778 95.268 26.9128H86.613C85.596 26.9128 84.834 26.9488 84.326 27.0218C83.854 27.0578 83.165 27.1118 82.258 27.1848L82.257 27.6748C82.294 29.6348 82.384 32.3568 82.53 35.8408ZM82.53 35.8408C83.872 35.9128 84.907 35.9858 85.633 36.0588C86.395 36.0948 87.157 36.0948 87.919 36.0588C88.718 36.0218 89.806 35.9498 91.185 35.8408L91.403 39.7058C90.024 39.9598 88.899 40.1228 88.028 40.1958C87.193 40.2688 86.34 40.2688 85.469 40.1958C84.598 40.0868 83.455 39.9238 82.04 39.7058L82.53 35.8408ZM126.026 35.8408C127.333 35.9128 128.367 35.9858 129.129 36.0588C129.892 36.0948 130.654 36.0948 131.416 36.0588C132.178 36.0218 133.249 35.9498 134.628 35.8408L134.845 39.7058C133.466 39.9598 132.341 40.1228 131.47 40.1958C130.636 40.2688 129.783 40.2688 128.912 40.1958C128.077 40.0868 126.952 39.9238 125.536 39.7058L126.026 35.8408ZM126.026 35.8408H121.671C121.49 32.3198 121.399 29.5988 121.399 27.6748C121.399 25.7148 121.453 23.7918 121.562 21.9038C121.671 20.0168 121.798 17.4038 121.943 14.0648H126.19C126.044 17.3678 125.917 19.9808 125.809 21.9038L125.78 22.7228C126.204 22.7578 126.539 22.7948 126.788 22.8298C127.043 22.8658 127.424 22.8838 127.932 22.8838H133.267C133.557 22.8478 133.974 22.8118 134.519 22.7758V21.3598C134.555 21.0328 134.573 20.5798 134.573 19.9988V19.6178C134.573 18.3478 134.555 17.3858 134.519 16.7328C134.483 16.0798 134.428 15.1898 134.356 14.0648H131.252C130.127 14.0288 129.275 14.0108 128.694 14.0108C128.113 14.0108 127.278 14.0288 126.19 14.0648L125.863 10.1998C127.678 10.0908 129.057 10.0368 130 10.0368C130.98 9.9998 132.359 9.98181 134.138 9.98181C134.247 10.8528 134.337 11.5248 134.41 11.9968C134.519 12.4678 134.61 13.1578 134.682 14.0648H138.547C138.656 15.9158 138.729 17.3678 138.765 18.4198C138.838 19.4368 138.874 20.8878 138.874 22.7758C138.874 23.7188 138.856 24.4448 138.82 24.9528C138.82 25.4248 138.783 26.0778 138.711 26.9128H130.055C129.039 26.9128 128.276 26.9488 127.768 27.0218C127.297 27.0578 126.625 27.1118 125.754 27.1848C125.73 26.8418 125.714 26.5568 125.706 26.3298C125.702 26.7758 125.7 27.2248 125.7 27.6748C125.736 29.6348 125.845 32.3568 126.026 35.8408ZM134.628 35.8408C134.664 34.9338 134.7 34.2078 134.737 33.6628C134.809 33.1188 134.845 32.3928 134.845 31.4858C135.499 31.4488 135.989 31.4308 136.315 31.4308C136.678 31.4308 137.023 31.4488 137.35 31.4858C137.713 31.4858 138.221 31.5038 138.874 31.5398C138.838 32.4478 138.801 33.1728 138.765 33.7178C138.765 34.2258 138.747 34.9338 138.711 35.8408H134.628ZM103.924 35.9498C103.924 36.3488 103.942 36.6388 103.979 36.8208C104.051 37.0018 104.124 37.2558 104.196 37.5828V37.6918L104.251 37.7458C104.287 37.9998 104.323 38.1998 104.36 38.3448C104.396 38.4538 104.414 38.6538 104.414 38.9438C104.414 39.2338 104.396 39.4518 104.36 39.5968C104.36 39.7058 104.341 39.9058 104.305 40.1958H99.406C99.333 39.9418 99.279 39.7418 99.242 39.5968V38.9438C99.242 38.7618 99.26 38.6168 99.297 38.5078C99.333 38.3998 99.369 38.2538 99.406 38.0728C99.442 37.9998 99.46 37.9458 99.46 37.9098C99.496 37.8368 99.515 37.7638 99.515 37.6918C99.587 37.3288 99.623 37.0568 99.623 36.8748V20.0538C99.623 18.7468 99.642 17.7488 99.678 17.0588C99.75 16.3698 99.859 15.3718 100.004 14.0648H103.87C103.906 13.1938 103.96 12.5228 104.033 12.0508C104.106 11.5788 104.178 10.8898 104.251 9.98181H108.334C109.277 9.98181 110.675 9.9998 112.525 10.0368C112.598 10.8718 112.652 11.5248 112.689 11.9968C112.761 12.4678 112.834 13.1578 112.907 14.0648H116.772C116.917 15.3358 117.008 16.3148 117.044 17.0048C117.116 17.6578 117.153 18.6558 117.153 19.9988V36.8748C117.189 37.0568 117.225 37.3288 117.262 37.6918C117.298 37.8008 117.316 37.8728 117.316 37.9098C117.352 37.9458 117.371 38.0178 117.371 38.1268C117.443 38.2718 117.498 38.3998 117.534 38.5078C117.57 38.6168 117.588 38.7808 117.588 38.9978C117.588 39.2888 117.57 39.5058 117.534 39.6518C117.534 39.7598 117.498 39.9418 117.425 40.1958H112.58C112.544 39.9418 112.507 39.7418 112.471 39.5968V38.9438C112.471 38.6538 112.489 38.4538 112.525 38.3448C112.562 38.1998 112.598 37.9998 112.634 37.7458L112.798 36.9298C112.834 36.7118 112.852 36.3848 112.852 35.9498V19.5088C112.852 18.2748 112.816 17.3498 112.743 16.7328C112.671 16.0798 112.58 15.1898 112.471 14.0648H110.511C109.785 14.0288 109.223 14.0108 108.824 14.0108C108.461 14.0108 107.898 14.0288 107.136 14.0648H104.305C104.196 15.0448 104.106 15.8248 104.033 16.4058C103.96 16.9508 103.924 17.7848 103.924 18.9098V35.9498ZM12.739 37.9638C12.739 37.4198 12.775 36.6938 12.848 35.7858C13.791 35.7138 14.517 35.6778 15.025 35.6778C15.57 35.6778 16.295 35.7138 17.203 35.7858C17.275 36.7298 17.312 37.4738 17.312 38.0178C17.312 38.5268 17.275 39.2338 17.203 40.1418C16.259 40.2138 15.515 40.2498 14.971 40.2498C14.463 40.2498 13.755 40.2138 12.848 40.1418C12.775 39.1978 12.739 38.4718 12.739 37.9638Z" fill="black"/>
</svg>
