<svg width="139" height="41" viewBox="0 0 139 41" fill="none" xmlns="http://www.w3.org/2000/svg">
<path fill-rule="evenodd" clip-rule="evenodd" d="M4.355 14.1198L0.544 14.4458L0.109 12.2688C0.036 11.6878 0 10.8718 0 9.81879C0.835 9.63779 1.506 9.49179 2.014 9.38379C2.559 9.23779 3.339 9.11083 4.355 9.00183V5.19177L6.642 5.02777C7.113 4.95577 7.458 4.9198 7.676 4.9198C7.93 4.8828 8.275 4.84679 8.71 4.81079V0.999817C9.618 0.963817 10.307 0.963817 10.779 0.999817C11.287 0.999817 11.995 1.03583 12.902 1.10883C12.902 2.01583 12.884 2.70582 12.848 3.17682C12.848 3.64882 12.811 4.33879 12.739 5.24579L8.71 5.3548V9.16577C7.803 9.20177 7.077 9.2558 6.533 9.3288C5.988 9.3648 5.262 9.40181 4.355 9.43781V10.6358C4.283 10.9988 4.21 11.2888 4.137 11.5068C4.065 11.7238 4.028 12.0508 4.028 12.4868C4.028 12.8858 4.065 13.1938 4.137 13.4118C4.21 13.5928 4.283 13.8288 4.355 14.1198ZM4.355 14.1198C5.843 14.1558 7.004 14.1378 7.839 14.0648C8.674 13.9928 9.908 13.9018 11.541 13.7928L13.065 13.7388V9.8728C13.936 9.8728 14.626 9.85479 15.134 9.81879C15.678 9.74579 16.441 9.69182 17.421 9.65582V5.84479C19.271 5.77179 20.705 5.73578 21.721 5.73578C22.774 5.73578 24.244 5.82681 26.131 6.00781V9.8728H29.942C29.978 10.7438 30.014 11.4338 30.05 11.9418C30.087 12.4498 30.123 13.1578 30.159 14.0648H26.294C26.33 14.9728 26.349 15.6978 26.349 16.2428C26.349 16.7508 26.33 17.4768 26.294 18.4198H22.429C22.393 19.3638 22.32 20.0898 22.211 20.5978C22.102 21.1058 21.975 21.8318 21.83 22.7758H17.965C17.929 22.9568 17.892 23.1018 17.856 23.2108C17.82 23.2838 17.783 23.4108 17.747 23.5918C17.493 24.3908 17.294 25.0078 17.148 25.4428C17.003 25.8418 16.931 26.4588 16.931 27.2938V31.4308C16.314 31.4678 15.824 31.4858 15.461 31.4858H14.426C14.1 31.4858 13.61 31.4678 12.957 31.4308V28.2738C12.957 27.1488 12.993 26.2958 13.065 25.7148C13.138 25.1348 13.229 24.2998 13.338 23.2108L13.392 22.7758H17.203C17.275 22.1948 17.348 21.7588 17.421 21.4688C17.493 21.1418 17.584 20.6888 17.693 20.1078C17.729 19.7448 17.783 19.4728 17.856 19.2908C17.929 19.0738 18.019 18.7828 18.128 18.4198H21.939C22.048 17.5128 22.12 16.8048 22.157 16.2968C22.229 15.7888 22.266 15.0448 22.266 14.0648H26.131V10.2548H23.681C23.173 10.1458 22.756 10.0728 22.429 10.0368C22.102 9.9638 21.649 9.9278 21.068 9.9278C20.306 9.9278 19.707 9.9638 19.271 10.0368C18.836 10.0728 18.219 10.1278 17.421 10.1998V14.0108L13.065 14.2828V18.0938C11.178 18.2028 9.708 18.2748 8.656 18.3118C7.64 18.3478 6.206 18.3298 4.355 18.2568V14.1198ZM39.196 5.08282V1.05377C41.083 0.981772 42.535 0.944824 43.551 0.944824C44.604 0.944824 46.055 0.963817 47.906 0.999817V4.81079C48.814 4.84679 49.503 4.8828 49.975 4.9198C50.483 4.9558 51.173 5.00982 52.044 5.08282V9.38379C52.08 10.4358 52.098 11.8878 52.098 13.7388C51.445 13.7748 50.937 13.8108 50.574 13.8478H49.539C49.213 13.8478 48.723 13.8108 48.07 13.7388C48.033 12.6858 47.997 11.8878 47.961 11.3428C47.961 10.7988 47.943 10.0188 47.906 9.00183V5.57281C46.564 5.35481 45.511 5.20978 44.749 5.13678C43.987 5.02778 43.206 4.97382 42.408 4.97382C41.646 4.97382 40.575 5.00982 39.196 5.08282ZM39.196 36.1128L35.385 36.3848C35.168 35.5508 34.986 34.8968 34.841 34.4248C34.732 33.9168 34.678 33.2098 34.678 32.3018V27.3478C35.295 27.3118 35.766 27.2938 36.093 27.2938C36.456 27.2578 36.801 27.2578 37.127 27.2938C37.49 27.2938 37.998 27.3118 38.652 27.3478L38.706 28.1648C38.742 29.9068 38.797 31.2498 38.87 32.1928C38.942 33.1368 39.051 34.4438 39.196 36.1128ZM47.906 35.8408L48.287 39.6518C46.437 39.9058 44.949 40.0868 43.823 40.1958C42.735 40.2688 41.192 40.2868 39.196 40.2498V36.1128C40.575 36.1858 41.646 36.2218 42.408 36.2218C43.206 36.2218 43.987 36.2038 44.749 36.1678C45.547 36.0948 46.6 35.9858 47.906 35.8408ZM38.652 14.0648H34.841C34.768 12.7218 34.714 11.6338 34.678 10.7988C34.641 9.96383 34.66 9.1288 34.732 8.2948C34.841 7.4238 35.059 6.27981 35.385 4.86481L39.196 5.08282C39.087 6.46182 39.015 7.55082 38.978 8.34882C38.942 9.11082 38.942 9.90977 38.978 10.7438C39.051 11.5428 39.16 12.6498 39.305 14.0648H43.17C43.206 14.9728 43.279 15.6978 43.388 16.2428C43.533 16.7508 43.66 17.4768 43.769 18.4198H47.58C47.689 19.3278 47.779 20.0348 47.852 20.5438C47.961 21.0518 48.051 21.7958 48.124 22.7758H51.935C52.116 25.4968 52.225 27.6388 52.262 29.1988C52.334 30.7598 52.28 32.9738 52.098 35.8408H47.906C48.051 33.0098 48.07 30.8318 47.961 29.3078C47.852 27.7478 47.689 25.5698 47.471 22.7758H43.606C43.569 22.2668 43.515 21.8858 43.442 21.6318C43.406 21.3778 43.352 20.9788 43.279 20.4348C43.243 19.9988 43.188 19.6718 43.116 19.4548C43.079 19.2368 43.025 18.8918 42.952 18.4198H39.142C38.997 17.4768 38.888 16.7508 38.815 16.2428C38.742 15.7348 38.688 15.0088 38.652 14.0648ZM69.573 35.8408C69.609 35.0788 69.646 34.4978 69.682 34.0988C69.718 33.6998 69.736 33.1368 69.736 32.4108L69.791 31.6488C70.444 31.6128 70.934 31.5948 71.261 31.5948C71.624 31.5578 71.968 31.5578 72.295 31.5948C72.622 31.6308 73.112 31.6668 73.765 31.7038C73.729 32.6108 73.71 33.3188 73.71 33.8268C73.71 34.2978 73.692 34.9698 73.656 35.8408H69.573ZM61.026 35.8408C62.369 35.9128 63.403 35.9858 64.129 36.0588C64.855 36.0948 65.599 36.1128 66.361 36.1128C67.123 36.0768 68.194 35.9858 69.573 35.8408L69.791 39.6518C68.412 39.9058 67.305 40.0868 66.47 40.1958C65.635 40.3048 64.782 40.3048 63.911 40.1958C63.04 40.1228 61.897 39.9418 60.482 39.6518L61.026 35.8408ZM61.244 14.0648C61.099 17.3678 60.972 19.9808 60.863 21.9038C60.79 23.7918 60.754 25.7328 60.754 27.7288C60.79 29.6888 60.881 32.3928 61.026 35.8408H56.671C56.49 32.3198 56.399 29.5798 56.399 27.6208C56.435 25.6608 56.508 23.7368 56.617 21.8498C56.762 19.9628 56.925 17.3678 57.106 14.0648H61.244ZM61.244 14.0648L60.917 10.2548C62.768 10.1458 64.165 10.0728 65.109 10.0368C66.089 9.9998 67.468 9.98181 69.246 9.98181C69.392 10.8528 69.501 11.5248 69.573 11.9968C69.646 12.4678 69.7 13.1578 69.736 14.0648H73.547C73.62 14.9728 73.656 15.6978 73.656 16.2428V18.7468C73.039 18.7828 72.549 18.8198 72.186 18.8558H71.152C70.825 18.8198 70.335 18.7828 69.682 18.7468C69.682 18.6018 69.664 18.4928 69.628 18.4198V17.9848C69.591 17.0778 69.537 16.3878 69.464 15.9158C69.428 15.4438 69.355 14.8268 69.246 14.0648H66.252C65.127 14.0288 64.274 14.0108 63.694 14.0108C63.113 14.0108 62.296 14.0288 61.244 14.0648ZM91.131 35.8408C91.204 34.9338 91.258 34.2078 91.294 33.6628C91.331 33.1188 91.349 32.3928 91.349 31.4858C92.002 31.4488 92.492 31.4308 92.819 31.4308C93.182 31.4308 93.526 31.4488 93.853 31.4858C94.216 31.4858 94.724 31.5038 95.377 31.5398C95.341 32.4478 95.305 33.1728 95.268 33.7178C95.268 34.2258 95.25 34.9338 95.214 35.8408H91.131ZM82.53 35.8408C83.836 35.9128 84.87 35.9858 85.633 36.0588C86.395 36.0948 87.157 36.1128 87.919 36.1128C88.718 36.0768 89.788 35.9858 91.131 35.8408L91.403 39.6518C90.024 39.9058 88.899 40.0868 88.028 40.1958C87.157 40.2688 86.286 40.2688 85.415 40.1958C84.544 40.0868 83.401 39.9058 81.985 39.6518L82.53 35.8408ZM82.693 14.0648C82.548 17.3678 82.421 19.9808 82.312 21.9038C82.301 22.1758 82.292 22.4488 82.283 22.7228C82.706 22.7578 83.043 22.7948 83.292 22.8298C83.546 22.8658 83.909 22.8838 84.381 22.8838H89.77C90.06 22.8478 90.478 22.8118 91.022 22.7758V21.3598C91.058 21.0328 91.077 20.5798 91.077 19.9988V19.6178C91.077 18.3838 91.04 17.4398 90.968 16.7868C90.931 16.0978 90.877 15.1898 90.804 14.0648H87.81C86.685 14.0288 85.814 14.0108 85.197 14.0108C84.616 14.0108 83.782 14.0288 82.693 14.0648L82.312 10.2548C84.163 10.1458 85.56 10.0908 86.504 10.0908C87.447 10.0548 88.808 10.0368 90.587 10.0368C90.695 10.8718 90.804 11.5248 90.913 11.9968C91.022 12.4678 91.113 13.1578 91.185 14.0648H95.051C95.159 15.9158 95.232 17.3678 95.268 18.4198C95.341 19.4368 95.377 20.8878 95.377 22.7758C95.377 23.7188 95.359 24.4448 95.323 24.9528C95.323 25.4248 95.286 26.0778 95.214 26.9128H86.504C85.524 26.9128 84.78 26.9488 84.272 27.0218C83.8 27.0578 83.111 27.1118 82.203 27.1848C82.203 27.3658 82.203 27.5468 82.203 27.7288C82.239 29.6888 82.348 32.3928 82.53 35.8408H78.174C77.993 32.3198 77.902 29.5798 77.902 27.6208C77.902 25.6608 77.957 23.7368 78.066 21.8498C78.174 19.9628 78.32 17.3678 78.501 14.0648H82.693ZM134.628 35.8408C134.664 34.9338 134.7 34.2078 134.737 33.6628C134.773 33.1188 134.809 32.3928 134.845 31.4858C135.499 31.4488 135.989 31.4308 136.315 31.4308C136.678 31.4308 137.023 31.4488 137.35 31.4858C137.676 31.4858 138.166 31.5038 138.82 31.5398C138.82 32.4478 138.801 33.1728 138.765 33.7178C138.729 34.2258 138.692 34.9338 138.656 35.8408H134.628ZM125.972 35.8408C127.315 35.9128 128.349 35.9858 129.075 36.0588C129.837 36.0948 130.599 36.1128 131.361 36.1128C132.16 36.0768 133.249 35.9858 134.628 35.8408L134.845 39.6518C133.466 39.9058 132.341 40.0868 131.47 40.1958C130.599 40.2688 129.728 40.2688 128.857 40.1958C127.986 40.0868 126.861 39.9058 125.482 39.6518L125.972 35.8408ZM126.19 14.0648C126.008 17.3678 125.863 19.9808 125.754 21.9038C125.744 22.1758 125.734 22.4488 125.725 22.7228C126.148 22.7578 126.485 22.7948 126.734 22.8298C126.988 22.8658 127.369 22.8838 127.877 22.8838H133.212C133.503 22.8478 133.92 22.8118 134.464 22.7758C134.501 22.1588 134.519 21.6868 134.519 21.3598V19.6178C134.519 18.3838 134.501 17.4398 134.464 16.7868C134.428 16.0978 134.356 15.1898 134.247 14.0648H131.252C130.127 14.0288 129.256 14.0108 128.639 14.0108C128.059 14.0108 127.242 14.0288 126.19 14.0648L125.809 10.2548C127.623 10.1458 129.002 10.0908 129.946 10.0908C130.89 10.0548 132.269 10.0368 134.083 10.0368C134.192 10.8718 134.301 11.5248 134.41 11.9968C134.519 12.4678 134.61 13.1578 134.682 14.0648H138.493C138.602 15.9158 138.674 17.3678 138.711 18.4198C138.783 19.4368 138.82 20.8878 138.82 22.7758C138.82 23.7188 138.801 24.4448 138.765 24.9528C138.765 25.4248 138.729 26.0778 138.656 26.9128H129.946C128.966 26.9128 128.222 26.9488 127.714 27.0218C127.242 27.0578 126.571 27.1118 125.7 27.1848C125.675 26.8458 125.659 26.5638 125.651 26.3378C125.647 26.7988 125.645 27.2618 125.645 27.7288C125.682 29.6888 125.79 32.3928 125.972 35.8408H121.617C121.435 32.3198 121.345 29.5798 121.345 27.6208C121.345 25.6608 121.399 23.7368 121.508 21.8498C121.653 19.9628 121.798 17.3678 121.943 14.0648H126.19ZM103.87 35.9498C103.87 36.3848 103.888 36.6938 103.924 36.8748C103.997 37.0198 104.069 37.2558 104.142 37.5828C104.178 37.6188 104.196 37.6558 104.196 37.6918V37.7458C104.269 37.9998 104.305 38.1998 104.305 38.3448C104.341 38.4538 104.36 38.6538 104.36 38.9438C104.36 39.2338 104.341 39.4518 104.305 39.5968C104.305 39.7058 104.287 39.9058 104.251 40.1958H99.297C99.26 39.9418 99.224 39.7418 99.188 39.5968V38.5078C99.224 38.3998 99.279 38.2538 99.351 38.0728C99.388 37.9998 99.406 37.9458 99.406 37.9098C99.442 37.8368 99.46 37.7638 99.46 37.6918C99.533 37.3288 99.569 37.0568 99.569 36.8748V20.0538C99.569 18.7468 99.605 17.7488 99.678 17.0588C99.75 16.3698 99.841 15.3718 99.95 14.0648H103.815C103.852 13.1938 103.906 12.5228 103.979 12.0508C104.051 11.5788 104.142 10.9078 104.251 10.0368C106.029 9.9998 107.372 9.98181 108.279 9.98181C109.223 9.98181 110.602 9.9998 112.417 10.0368C112.525 10.8718 112.598 11.5248 112.634 11.9968C112.707 12.4678 112.78 13.1578 112.852 14.0648H116.717C116.862 15.3358 116.953 16.3148 116.989 17.0048C117.062 17.6578 117.098 18.6558 117.098 19.9988V36.8748L117.262 37.6918V37.9098C117.298 37.9458 117.334 38.0178 117.371 38.1268C117.443 38.2718 117.498 38.3998 117.534 38.5078C117.57 38.6168 117.588 38.7808 117.588 38.9978C117.588 39.2888 117.57 39.5058 117.534 39.6518C117.534 39.7598 117.498 39.9418 117.425 40.1958H112.525C112.489 39.9418 112.453 39.7418 112.417 39.5968V38.9438C112.417 38.6538 112.435 38.4538 112.471 38.3448C112.507 38.1998 112.544 37.9998 112.58 37.7458L112.743 36.9298C112.78 36.7118 112.798 36.3848 112.798 35.9498V19.5088C112.798 18.2748 112.761 17.3498 112.689 16.7328C112.616 16.0798 112.507 15.1898 112.362 14.0648H110.457C109.731 14.0288 109.168 14.0108 108.769 14.0108C108.406 14.0108 107.844 14.0288 107.082 14.0648H104.251C104.142 15.0448 104.051 15.8248 103.979 16.4058C103.906 16.9508 103.87 17.7848 103.87 18.9098V35.9498ZM12.684 37.9638C12.684 37.4198 12.721 36.6938 12.793 35.7858C13.737 35.7138 14.481 35.6778 15.025 35.6778C15.57 35.6778 16.295 35.7138 17.203 35.7858C17.275 36.7298 17.312 37.4738 17.312 38.0178C17.312 38.5268 17.275 39.2338 17.203 40.1418C16.259 40.2138 15.515 40.2498 14.971 40.2498C14.426 40.2498 13.701 40.2138 12.793 40.1418C12.721 39.1978 12.684 38.4718 12.684 37.9638Z" fill="black"/>
</svg>
