<svg width="139" height="41" viewBox="0 0 139 41" fill="none" xmlns="http://www.w3.org/2000/svg">
<path fill-rule="evenodd" clip-rule="evenodd" d="M4.355 14.1201L0.544 14.5011C0.363 13.5931 0.218 12.8491 0.109 12.2691C0.036 11.6881 0 10.8721 0 9.8191C0.835 9.6381 1.506 9.47411 2.014 9.32911C2.559 9.18411 3.339 9.05712 4.355 8.94812V5.19208L6.642 4.97412C7.113 4.93812 7.458 4.90112 7.676 4.86512C7.93 4.82912 8.275 4.8111 8.71 4.8111V1.00013C9.618 0.964126 10.307 0.964126 10.779 1.00013C11.287 1.00013 11.977 1.03613 12.848 1.10913C12.884 2.01613 12.884 2.70613 12.848 3.17713C12.848 3.64913 12.793 4.3391 12.684 5.2461L8.71 5.35511V9.11109C7.803 9.14809 7.077 9.20209 6.533 9.27509C5.988 9.34709 5.262 9.40211 4.355 9.43811V10.5811C4.283 10.9801 4.21 11.2891 4.137 11.5071C4.065 11.7241 4.028 12.0511 4.028 12.4871C4.028 12.8861 4.065 13.1941 4.137 13.4121C4.21 13.5931 4.283 13.8291 4.355 14.1201ZM4.355 14.1201C5.843 14.1561 7.004 14.1381 7.839 14.0651C8.674 13.9931 9.908 13.9021 11.541 13.7931L13.065 13.6841V9.9281C13.936 9.8921 14.644 9.8551 15.189 9.8191C15.733 9.7461 16.477 9.69213 17.421 9.65613V5.89911C19.271 5.82711 20.723 5.79108 21.776 5.79108C22.828 5.79108 24.28 5.88111 26.131 6.06311V9.9281L29.942 9.87311C29.978 10.7441 30.014 11.4341 30.05 11.9421C30.087 12.4501 30.105 13.1581 30.105 14.0651H26.349V16.2431C26.349 16.7511 26.33 17.4771 26.294 18.4201H22.483C22.447 19.3641 22.356 20.0901 22.211 20.5981C22.102 21.1061 21.975 21.8321 21.83 22.7761H18.019C17.983 22.9571 17.947 23.1021 17.91 23.2111C17.874 23.2841 17.838 23.4111 17.802 23.5921C17.511 24.3911 17.294 25.0081 17.148 25.4431C17.003 25.8791 16.931 26.4961 16.931 27.2941V31.4311C16.277 31.4681 15.769 31.5041 15.406 31.5401H14.372C14.045 31.5041 13.573 31.4681 12.957 31.4311V28.2741C12.957 27.1491 12.993 26.2961 13.065 25.7151C13.138 25.1351 13.229 24.3001 13.338 23.2111L13.392 22.7761H17.203C17.275 22.1951 17.348 21.7591 17.421 21.4691C17.493 21.1421 17.584 20.6891 17.693 20.1081C17.765 19.7451 17.838 19.4731 17.91 19.2911C17.983 19.0741 18.074 18.7831 18.183 18.4201H21.939C22.048 17.5131 22.139 16.8051 22.211 16.2971C22.284 15.7891 22.32 15.0451 22.32 14.0651H26.131V10.2551H23.681C23.173 10.1821 22.756 10.1281 22.429 10.0911C22.139 10.0191 21.685 9.98212 21.068 9.98212C20.342 9.98212 19.743 10.0001 19.271 10.0371C18.836 10.0731 18.219 10.1461 17.421 10.2551V14.0111L13.065 14.2831V18.0941C11.178 18.2031 9.708 18.2751 8.656 18.3121C7.64 18.3481 6.206 18.3301 4.355 18.2571V14.1201ZM39.196 36.1131L35.385 36.4401C35.168 35.6051 34.986 34.9521 34.841 34.4801C34.732 33.9721 34.678 33.2641 34.678 32.3571V30.3431L34.623 27.4031C35.277 27.3671 35.766 27.3301 36.093 27.2941C36.456 27.2581 36.801 27.2581 37.127 27.2941C37.49 27.2941 37.98 27.3121 38.597 27.3481L38.652 28.1651C38.724 29.9431 38.797 31.3041 38.87 32.2481C38.942 33.1921 39.051 34.4801 39.196 36.1131ZM39.196 5.02808V1.05408C41.083 0.945081 42.553 0.909133 43.606 0.945133C44.658 0.945133 46.092 0.964126 47.906 1.00013V4.8111C48.814 4.8471 49.503 4.88311 49.975 4.92011C50.483 4.95611 51.173 4.99208 52.044 5.02808V13.7391C51.427 13.7751 50.937 13.8111 50.574 13.8481H49.539C49.213 13.8111 48.723 13.7751 48.07 13.7391C48.033 12.6861 47.997 11.8881 47.961 11.3431C47.961 10.7631 47.943 9.96412 47.906 8.94812V5.62714C46.564 5.37314 45.511 5.19213 44.749 5.08313C43.987 4.97413 43.206 4.92011 42.408 4.92011C41.646 4.92011 40.575 4.95608 39.196 5.02808ZM47.961 35.8411C48.07 33.0101 48.07 30.8321 47.961 29.3081C47.852 27.7481 47.67 25.5701 47.416 22.7761H43.66C43.588 22.2671 43.515 21.8861 43.442 21.6321C43.37 21.3421 43.315 20.9431 43.279 20.4351C43.206 20.0351 43.134 19.7271 43.061 19.5091C43.025 19.2551 42.971 18.8921 42.898 18.4201H39.142C38.997 17.4771 38.888 16.7511 38.815 16.2431C38.742 15.7351 38.67 15.0091 38.597 14.0651H34.841C34.768 12.7221 34.714 11.6341 34.678 10.7991C34.641 9.92814 34.66 9.07512 34.732 8.24012C34.841 7.36912 35.059 6.2261 35.385 4.8111L39.196 5.02808C39.051 6.40808 38.96 7.49611 38.924 8.29511C38.888 9.09311 38.906 9.91008 38.978 10.7441C39.051 11.5431 39.16 12.6501 39.305 14.0651H43.116C43.188 14.9731 43.279 15.6981 43.388 16.2431C43.533 16.7511 43.66 17.4771 43.769 18.4201H47.58C47.689 19.3281 47.779 20.0351 47.852 20.5441C47.961 21.0521 48.051 21.7961 48.124 22.7761H51.935C52.116 25.4971 52.225 27.6391 52.262 29.1991C52.334 30.7601 52.28 32.9741 52.098 35.8411H47.961ZM39.196 36.1131C40.575 36.2221 41.664 36.2761 42.462 36.2761C43.261 36.2761 44.041 36.2401 44.803 36.1681C45.566 36.0951 46.618 35.9861 47.961 35.8411L48.287 39.6521C46.473 39.9061 45.003 40.0871 43.878 40.1961C42.753 40.2691 41.192 40.2871 39.196 40.2501V36.1131ZM69.573 35.8411C69.609 35.1151 69.646 34.5521 69.682 34.1531C69.718 33.7181 69.736 33.1371 69.736 32.4111L69.791 31.6491C70.444 31.6131 70.934 31.5951 71.261 31.5951C71.624 31.5951 71.968 31.6131 72.295 31.6491C72.622 31.6491 73.094 31.6671 73.71 31.7041C73.71 32.6111 73.692 33.3191 73.656 33.8271C73.656 34.2981 73.638 34.9701 73.602 35.8411H69.573ZM61.026 35.8411C62.333 35.9131 63.349 35.9861 64.075 36.0591C64.837 36.0951 65.599 36.1131 66.361 36.1131C67.123 36.0771 68.194 35.9861 69.573 35.8411L69.845 39.6521C68.466 39.9061 67.341 40.0871 66.47 40.1961C65.599 40.3051 64.728 40.3051 63.857 40.1961C62.986 40.0871 61.843 39.9061 60.427 39.6521L61.026 35.8411ZM61.244 14.0651C61.099 17.3321 60.972 19.9271 60.863 21.8501C60.79 23.7741 60.754 25.7331 60.754 27.7291C60.79 29.6891 60.881 32.3931 61.026 35.8411H56.671C56.49 32.3201 56.399 29.5801 56.399 27.6211C56.399 25.6241 56.471 23.7011 56.617 21.8501C56.762 19.9631 56.943 17.3681 57.161 14.0651H61.244ZM61.244 14.0651L60.917 10.2551L65.109 10.0911C66.053 10.0551 67.414 10.0371 69.192 10.0371C69.337 10.8721 69.446 11.5251 69.519 11.9971C69.628 12.4681 69.7 13.1581 69.736 14.0651H73.493C73.565 14.9731 73.602 15.6981 73.602 16.2431C73.638 16.7871 73.656 17.5311 73.656 18.4751V18.7471C73.003 18.7831 72.513 18.8201 72.186 18.8561H71.152C70.825 18.8561 70.335 18.8381 69.682 18.8011C69.682 18.6561 69.664 18.5291 69.628 18.4201V18.0391C69.591 17.1321 69.537 16.4421 69.464 15.9711C69.392 15.4631 69.319 14.8271 69.246 14.0651H66.252C65.127 14.0291 64.274 14.0111 63.694 14.0111C63.113 14.0111 62.296 14.0291 61.244 14.0651ZM91.131 35.8411C91.167 34.9341 91.204 34.2081 91.24 33.6631C91.312 33.1191 91.349 32.3931 91.349 31.4861C92.002 31.4491 92.492 31.4311 92.819 31.4311C93.182 31.3951 93.526 31.3951 93.853 31.4311C94.216 31.4681 94.706 31.5041 95.323 31.5401C95.286 32.4481 95.25 33.1731 95.214 33.7181C95.214 34.2621 95.196 34.9701 95.159 35.8411H91.131ZM82.475 35.8411C83.818 35.9131 84.852 35.9861 85.578 36.0591C86.34 36.0951 87.102 36.1131 87.865 36.1131C88.663 36.0771 89.752 35.9861 91.131 35.8411L91.403 39.6521C90.024 39.9061 88.899 40.0871 88.028 40.1961C87.157 40.3051 86.268 40.3051 85.36 40.1961C84.489 40.0871 83.346 39.9061 81.931 39.6521L82.475 35.8411ZM82.693 14.0651C82.548 17.3321 82.421 19.9271 82.312 21.8501C82.295 22.1411 82.28 22.4331 82.266 22.7261C82.672 22.7611 82.996 22.7961 83.237 22.8301C83.491 22.8661 83.854 22.8841 84.326 22.8841H89.716C90.006 22.8481 90.423 22.8121 90.968 22.7761C91.004 22.1591 91.022 21.6871 91.022 21.3601V19.6181C91.022 18.3841 91.004 17.4401 90.968 16.7871C90.931 16.0981 90.859 15.1901 90.75 14.0651H87.756C86.631 13.9931 85.778 13.9751 85.197 14.0111C84.616 14.0111 83.782 14.0291 82.693 14.0651L82.312 10.2551C84.126 10.1821 85.506 10.1281 86.449 10.0911C87.393 10.0551 88.754 10.0371 90.532 10.0371C90.641 10.8721 90.75 11.5251 90.859 11.9971C91.004 12.4681 91.113 13.1581 91.185 14.0651H94.942C95.087 15.9161 95.178 17.3681 95.214 18.4201C95.286 19.4371 95.323 20.8881 95.323 22.7761C95.323 23.7191 95.305 24.4451 95.268 24.9531C95.268 25.4251 95.232 26.0601 95.159 26.8581H86.449C85.433 26.8581 84.689 26.8951 84.217 26.9671C83.746 27.0401 83.056 27.1121 82.15 27.1851C82.149 27.3661 82.149 27.5471 82.149 27.7291C82.185 29.6891 82.294 32.3931 82.475 35.8411H78.174C77.957 32.3201 77.848 29.5801 77.848 27.6211C77.848 25.6611 77.902 23.7371 78.011 21.8501C78.156 19.9631 78.32 17.3681 78.501 14.0651H82.693ZM126.135 14.0651C125.99 17.3321 125.863 19.9271 125.754 21.8501C125.737 22.1411 125.722 22.4331 125.708 22.7261C126.115 22.7611 126.438 22.7961 126.68 22.8301C126.934 22.8661 127.297 22.8841 127.768 22.8841H133.158C133.448 22.8481 133.866 22.8121 134.41 22.7761C134.446 22.1591 134.464 21.6871 134.464 21.3601V19.6181C134.464 18.3841 134.446 17.4401 134.41 16.7871C134.374 16.0981 134.301 15.1901 134.192 14.0651H131.198C130.109 13.9931 129.256 13.9751 128.639 14.0111C128.059 14.0111 127.224 14.0291 126.135 14.0651L125.754 10.2551C127.569 10.1821 128.948 10.1281 129.892 10.0911C130.835 10.0551 132.196 10.0371 133.974 10.0371C134.083 10.8721 134.192 11.5251 134.301 11.9971C134.446 12.4681 134.555 13.1581 134.628 14.0651H138.438C138.547 15.9161 138.62 17.3681 138.656 18.4201C138.729 19.4371 138.765 20.8881 138.765 22.7761C138.765 23.7191 138.747 24.4451 138.711 24.9531C138.711 25.4251 138.674 26.0601 138.602 26.8581H129.892C128.912 26.8581 128.168 26.8951 127.66 26.9671C127.188 27.0401 126.516 27.1121 125.645 27.1851C125.623 26.8761 125.608 26.6081 125.599 26.3791C125.594 26.8271 125.591 27.2771 125.591 27.7291C125.627 29.6891 125.754 32.3931 125.972 35.8411H121.617C121.435 32.3201 121.326 29.5801 121.29 27.6211C121.29 25.6611 121.345 23.7371 121.453 21.8501C121.599 19.9631 121.762 17.3681 121.943 14.0651H126.135ZM134.573 35.8411C134.61 34.9341 134.646 34.2081 134.682 33.6631C134.755 33.1191 134.791 32.3931 134.791 31.4861C135.444 31.4491 135.934 31.4311 136.261 31.4311C136.624 31.3951 136.969 31.3951 137.295 31.4311C137.658 31.4681 138.148 31.5041 138.765 31.5401C138.765 32.4481 138.747 33.1731 138.711 33.7181C138.674 34.2621 138.638 34.9701 138.602 35.8411H134.573ZM125.972 35.8411C127.278 35.9131 128.313 35.9861 129.075 36.0591C129.837 36.0951 130.599 36.1131 131.361 36.1131C132.124 36.0771 133.194 35.9861 134.573 35.8411L134.845 39.6521C133.466 39.9061 132.341 40.0871 131.47 40.1961C130.599 40.3051 129.71 40.3051 128.803 40.1961C127.932 40.0871 126.788 39.9061 125.373 39.6521L125.972 35.8411ZM103.815 35.9501C103.815 36.3851 103.833 36.6941 103.87 36.8751C103.942 37.0571 104.033 37.3111 104.142 37.6371V37.6921L104.196 37.7461C104.269 38.0001 104.305 38.2001 104.305 38.3451C104.341 38.4541 104.36 38.6541 104.36 38.9441C104.36 39.2341 104.341 39.4521 104.305 39.5971C104.305 39.7061 104.287 39.9061 104.251 40.1961H99.242C99.206 39.9421 99.17 39.7421 99.134 39.5971C99.097 39.4521 99.079 39.2341 99.079 38.9441C99.079 38.7621 99.097 38.6171 99.134 38.5081C99.17 38.4001 99.224 38.2541 99.297 38.0731C99.297 38.0001 99.315 37.9461 99.351 37.9101C99.388 37.8371 99.406 37.7641 99.406 37.6921C99.478 37.3291 99.515 37.0571 99.515 36.8751V20.0541C99.515 18.7471 99.551 17.7491 99.623 17.0591C99.696 16.3701 99.805 15.3721 99.95 14.0651H103.761C103.797 13.1941 103.852 12.5231 103.924 12.0511C104.033 11.5791 104.124 10.9081 104.196 10.0371H108.279C109.223 10.0371 110.584 10.0551 112.362 10.0911C112.471 10.9261 112.544 11.5791 112.58 12.0511C112.652 12.4871 112.743 13.1581 112.852 14.0651H116.608C116.79 15.3361 116.899 16.3151 116.935 17.0051C117.008 17.6951 117.044 18.6931 117.044 19.9991V36.8751L117.207 37.6921C117.244 37.8011 117.262 37.8731 117.262 37.9101C117.298 37.9461 117.334 38.0181 117.371 38.1271C117.443 38.3091 117.498 38.4541 117.534 38.5631C117.57 38.6721 117.588 38.8171 117.588 38.9981C117.588 39.2891 117.57 39.5061 117.534 39.6521C117.534 39.7601 117.498 39.9421 117.425 40.1961H112.471C112.435 39.9421 112.398 39.7421 112.362 39.5971C112.326 39.4521 112.308 39.2341 112.308 38.9441C112.308 38.6541 112.326 38.4541 112.362 38.3451C112.398 38.2001 112.453 38.0001 112.525 37.7461L112.689 36.9301C112.761 36.7481 112.78 36.4221 112.743 35.9501V19.4551C112.743 18.2571 112.707 17.3501 112.634 16.7331C112.562 16.0801 112.453 15.1901 112.308 14.0651H110.402C109.676 14.0291 109.114 14.0111 108.715 14.0111C108.352 14.0111 107.789 14.0291 107.027 14.0651H104.251C104.142 15.0451 104.033 15.8251 103.924 16.4061C103.852 16.9511 103.815 17.7851 103.815 18.9101V35.9501ZM12.684 37.9641C12.684 37.4201 12.721 36.6941 12.793 35.7861C13.737 35.7141 14.463 35.6781 14.971 35.6781C15.515 35.6781 16.241 35.7141 17.148 35.7861C17.221 36.6941 17.257 37.4201 17.257 37.9641C17.294 38.5081 17.257 39.2341 17.148 40.1421C16.241 40.2141 15.515 40.2501 14.971 40.2501C14.426 40.2501 13.701 40.2141 12.793 40.1421C12.721 39.2341 12.684 38.5081 12.684 37.9641Z" fill="black"/>
</svg>
