<svg width="135" height="41" viewBox="0 0 135 41" fill="none" xmlns="http://www.w3.org/2000/svg">
<path fill-rule="evenodd" clip-rule="evenodd" d="M79.808 25.166C79.154 25.166 78.755 25.3656 78.61 25.7656C78.501 26.1656 78.483 26.8559 78.556 27.8359V28.2759C78.592 28.3459 78.61 28.4758 78.61 28.6558V29.2559C78.646 29.4359 78.683 29.636 78.719 29.856C78.9 31.156 79.209 32.416 79.644 33.606C80.08 34.806 80.715 35.8258 81.55 36.6558C82.421 37.4958 83.51 37.9058 84.816 37.9058C86.086 37.9058 87.121 37.566 87.919 36.876C88.718 36.186 89.298 35.4259 89.661 34.5859C90.06 33.7559 90.369 32.8658 90.587 31.9258C90.659 31.5258 90.75 31.246 90.859 31.106C91.004 30.926 91.185 30.8457 91.403 30.8857C91.694 30.9257 91.875 31.0456 91.948 31.2656C92.02 31.4856 92.02 31.7559 91.948 32.0859C91.694 33.4959 91.276 34.856 90.695 36.166C90.151 37.436 89.353 38.506 88.3 39.376C87.248 40.246 85.959 40.686 84.435 40.686C81.858 40.686 79.79 39.856 78.229 38.186C76.668 36.476 75.598 34.4259 75.017 32.0259C74.436 29.5959 74.237 27.316 74.418 25.166V24.7856C74.454 24.7156 74.473 24.5858 74.473 24.4058C74.509 24.2258 74.527 24.0959 74.527 24.0259C74.527 24.0059 74.528 23.9756 74.53 23.9556C74.528 23.9356 74.527 23.926 74.527 23.916C74.636 22.246 75.09 20.5058 75.888 18.6958C76.686 16.8758 77.812 15.3557 79.263 14.1157C80.715 12.8457 82.403 12.2158 84.326 12.2158C85.669 12.2158 86.921 12.5358 88.082 13.1958C89.244 13.8458 90.187 14.9356 90.913 16.4556C91.675 17.9856 92.056 19.9758 92.056 22.4458C92.056 23.3558 91.984 24.0058 91.839 24.4058C91.694 24.7758 91.476 25.0057 91.185 25.1157C90.931 25.1857 90.496 25.206 89.879 25.166H79.808ZM80.098 23.7559C80.11 23.7559 80.122 23.7559 80.134 23.7559H85.143C86.231 23.7559 86.994 23.536 87.429 23.106C87.865 22.626 88.082 21.976 88.082 21.146C88.082 19.036 87.828 17.2359 87.32 15.7559C86.812 14.2659 85.814 13.5156 84.326 13.5156C82.838 13.5156 81.622 14.3057 80.679 15.8657C79.771 17.3857 79.1 19.5058 78.664 22.2358C78.628 22.3358 78.61 22.4457 78.61 22.5557V22.8257C78.61 23.2257 78.683 23.4857 78.828 23.5957C79.009 23.6657 79.318 23.6958 79.753 23.6958C80.014 23.6958 80.129 23.7159 80.098 23.7559ZM122.77 25.1357C122.462 25.1557 122.223 25.1856 122.052 25.2256C121.762 25.2956 121.544 25.4756 121.399 25.7656C121.254 26.0256 121.181 26.496 121.181 27.186C121.181 28.886 121.417 30.5756 121.889 32.2456C122.361 33.8856 123.068 35.2457 124.012 36.3257C124.956 37.3857 126.063 37.9058 127.333 37.9058C128.676 37.9058 129.746 37.6058 130.545 36.9858C131.343 36.3658 131.924 35.676 132.287 34.916C132.65 34.116 132.995 33.1356 133.321 31.9756C133.394 31.6156 133.503 31.326 133.648 31.106C133.793 30.886 134.011 30.8157 134.301 30.8857C134.591 30.9957 134.737 31.1958 134.737 31.4858C134.737 31.7358 134.7 32.0157 134.628 32.3057C134.156 34.7357 133.339 36.7457 132.178 38.3457C131.017 39.9457 129.275 40.7358 126.952 40.7358C125.065 40.7358 123.341 40.1458 121.78 38.9458C120.256 37.7058 119.058 35.9157 118.187 33.5557C117.352 31.1957 117.008 28.3857 117.153 25.1157C117.153 24.7557 117.171 24.356 117.207 23.916C117.28 23.446 117.371 22.9159 117.479 22.3359C117.625 21.7559 117.788 21.1559 117.969 20.5459C118.223 19.6359 118.568 18.7257 119.004 17.8257C119.476 16.9157 120.056 16.0456 120.746 15.2056C121.472 14.3756 122.306 13.7058 123.25 13.1958C123.831 12.8658 124.466 12.6358 125.155 12.4858C125.845 12.3058 126.571 12.2158 127.333 12.2158C129.329 12.2158 130.908 12.8457 132.069 14.1157C133.267 15.3557 134.065 17.0057 134.464 19.0757C134.61 19.8757 134.682 20.7257 134.682 21.6357C134.717 22.4757 134.701 23.316 134.635 24.166C134.633 24.186 134.631 24.2156 134.628 24.2456C134.627 24.2556 134.627 24.2556 134.626 24.2656C134.585 24.5856 134.422 24.8056 134.138 24.9556C133.884 25.0956 133.63 25.166 133.376 25.166H125.319C124.616 25.156 123.767 25.1457 122.77 25.1357ZM128.616 23.6357C128.759 23.6057 128.985 23.5957 129.293 23.5957C129.547 23.5957 129.765 23.5059 129.946 23.3159C130.164 23.1059 130.345 22.8158 130.49 22.4458C130.817 21.5458 130.908 20.3658 130.763 18.9058C130.654 17.4558 130.291 16.2058 129.674 15.1558C129.093 14.0658 128.313 13.5156 127.333 13.5156C126.68 13.5156 126.063 13.6656 125.482 13.9556C124.938 14.2456 124.429 14.6656 123.958 15.2056C123.522 15.7156 123.123 16.3557 122.76 17.1157C122.433 17.8357 122.143 18.6757 121.889 19.6157C121.671 20.5657 121.49 21.5956 121.345 22.7256C121.272 23.1956 121.345 23.4857 121.562 23.5957C121.816 23.6957 122.216 23.7559 122.76 23.7559H123.032C124.665 23.7159 125.881 23.6958 126.68 23.6958C127.165 23.6758 127.81 23.6557 128.616 23.6357ZM95.432 38.5957C95.405 38.4657 95.387 38.326 95.377 38.186C95.305 36.946 95.25 34.8059 95.214 31.7559C95.214 28.7059 95.232 25.8959 95.268 23.3159V20.5459C95.268 19.3859 95.595 18.1457 96.248 16.8457C96.902 15.5357 97.881 14.4256 99.188 13.5156C100.531 12.6156 102.164 12.1558 104.087 12.1558C106.12 12.1558 107.844 12.5958 109.259 13.4658C110.711 14.3058 111.781 15.3359 112.471 16.5659C113.197 17.7659 113.56 18.9056 113.56 19.9956V29.9058C113.596 31.5758 113.614 34.1359 113.614 37.5859C113.614 37.9459 113.578 38.2757 113.505 38.5757V38.6157C113.498 38.6257 113.491 38.6458 113.485 38.6558C113.444 38.8058 113.394 38.9557 113.334 39.0957C113.318 39.1857 113.276 39.2657 113.209 39.3457C113.182 39.3957 113.154 39.4358 113.124 39.4858C112.798 39.9558 112.308 40.1958 111.654 40.1958C111.11 40.1958 110.656 39.9957 110.293 39.5957C109.967 39.1657 109.804 38.5958 109.804 37.9058C109.731 34.7858 109.676 31.4156 109.64 27.7856V18.4756C109.64 17.3156 109.187 16.2456 108.279 15.2656C107.408 14.2856 106.011 13.7959 104.087 13.7959C102.599 13.7959 101.402 14.3059 100.494 15.3159C99.623 16.2959 99.188 17.476 99.188 18.856V37.6357C99.188 37.9057 99.17 38.1457 99.133 38.3657L99.134 38.396C99.134 38.686 99.079 38.926 98.97 39.106C98.898 39.286 98.807 39.4359 98.698 39.5459C98.604 39.6659 98.487 39.7657 98.347 39.8457C98.051 40.0757 97.678 40.1958 97.228 40.1958C96.611 40.1958 96.158 39.9957 95.867 39.5957C95.758 39.4857 95.686 39.3756 95.649 39.2656C95.638 39.2356 95.627 39.206 95.616 39.166C95.539 38.996 95.48 38.8157 95.439 38.6357C95.437 38.6257 95.434 38.6257 95.432 38.6157C95.432 38.6057 95.432 38.6057 95.432 38.5957ZM13.991 24.4058C15.189 22.9958 17.13 21.6159 19.816 20.2759C22.102 19.1059 23.699 18.076 24.606 17.166C25.514 16.226 25.967 15.1859 25.967 14.0659C25.967 13.4159 25.695 12.846 25.151 12.376C24.643 11.906 24.026 11.666 23.3 11.666C22.393 11.666 21.413 11.8857 20.36 12.3257C19.344 12.7557 17.947 13.4259 16.168 14.3359C14.063 15.4259 12.285 16.2557 10.833 16.8457C9.418 17.3857 8.003 17.6558 6.587 17.6558C5.535 17.6558 4.5 17.3656 3.484 16.7856C2.468 16.2056 1.633 15.406 0.98 14.396C0.327 13.336 0 12.1459 0 10.7959C0 9.3059 0.327 8.0559 0.98 7.0459C1.633 6.0259 2.432 5.2057 3.375 4.5957C4.101 4.1257 4.754 3.68564 5.335 3.28564C5.916 2.88564 6.442 2.5258 6.914 2.1958C7.712 1.6158 8.275 1.23566 8.601 1.05566C8.928 0.875664 9.255 0.785645 9.581 0.785645C10.162 0.785645 10.652 0.985977 11.051 1.37598C11.487 1.74598 11.704 2.2357 11.704 2.8457C11.704 3.3557 11.414 3.79576 10.833 4.15576C10.289 4.51576 9.345 5.00598 8.003 5.62598C7.531 5.80598 7.041 6.02588 6.533 6.27588C6.061 6.49588 5.589 6.73584 5.117 6.98584C4.21 7.45584 3.43 8.07594 2.776 8.83594C2.159 9.56594 1.851 10.3957 1.851 11.3457C1.851 12.0357 2.069 12.7556 2.504 13.5156C2.976 14.2856 3.738 14.666 4.791 14.666C5.589 14.666 6.46 14.4659 7.404 14.0659C8.347 13.6659 9.599 13.0258 11.16 12.1558C13.338 10.9958 15.17 10.1259 16.658 9.5459C18.146 8.9659 19.671 8.67578 21.231 8.67578C22.683 8.67578 23.917 9.07598 24.933 9.87598C25.949 10.636 26.693 11.5756 27.165 12.7056C27.673 13.7956 27.927 14.7958 27.927 15.6958C27.927 16.9658 27.655 18.0358 27.111 18.9058C26.566 19.7858 25.84 20.526 24.933 21.146C24.062 21.726 22.774 22.4459 21.068 23.3159L18.782 24.5757C18.019 24.9757 17.221 25.426 16.386 25.936C15.297 26.626 14.535 27.1857 14.1 27.6157C13.701 28.0557 13.501 28.656 13.501 29.416V31.436C13.501 31.646 13.428 31.8158 13.283 31.9258C13.174 32.0258 13.029 32.0859 12.848 32.0859C12.666 32.0859 12.503 32.0258 12.358 31.9258C12.249 31.7758 12.194 31.616 12.194 31.436V28.8159C12.194 27.2959 12.793 25.8258 13.991 24.4058ZM60.7 13.9556C62.405 12.7556 64.202 12.1558 66.089 12.1558C67.25 12.1558 68.176 12.3759 68.865 12.8159C69.555 13.2159 70.081 13.9958 70.444 15.1558C70.843 16.3158 71.043 18.0058 71.043 20.2158V20.5957C71.079 20.9557 71.061 21.236 70.989 21.416C70.952 21.596 70.825 21.7259 70.607 21.7959C70.571 21.7959 70.535 21.8157 70.499 21.8457H70.39C70.172 21.8857 70.009 21.836 69.9 21.686C69.791 21.546 69.682 21.3056 69.573 20.9756L69.029 19.2959C68.484 17.5159 67.904 16.1157 67.287 15.0957C66.67 14.0857 65.781 13.5757 64.619 13.5757C63.567 13.5757 62.641 14.1958 61.843 15.4258C61.044 16.6258 60.427 18.1456 59.992 19.9956C59.556 21.8456 59.339 23.6856 59.339 25.4956C59.339 28.4756 59.611 30.8858 60.155 32.7358C60.7 34.5858 61.389 35.9158 62.224 36.7158C63.059 37.5058 63.966 37.9058 64.946 37.9058C66.434 37.9058 67.577 37.4057 68.375 36.3857C69.174 35.3657 69.791 34.2659 70.226 33.0659L70.335 32.7358C70.408 32.6258 70.499 32.516 70.607 32.416C70.716 32.266 70.843 32.1958 70.989 32.1958C71.279 32.1958 71.46 32.3056 71.533 32.5156C71.642 32.7356 71.66 32.9558 71.587 33.1758C71.043 35.7458 70.118 37.6758 68.811 38.9458C67.504 40.1758 65.908 40.7959 64.02 40.7959C62.206 40.7959 60.609 40.1557 59.23 38.8857C57.887 37.6157 56.853 35.966 56.127 33.936C55.437 31.866 55.092 29.7056 55.092 27.4556C55.092 24.2956 55.6 21.5558 56.617 19.2358C57.669 16.9158 59.03 15.1556 60.7 13.9556ZM50.465 23.9756C51.772 26.0056 52.425 28.1859 52.425 30.5059C52.425 32.5359 51.953 34.3159 51.009 35.8359C50.066 37.3659 48.759 38.566 47.09 39.436C45.457 40.266 43.569 40.686 41.428 40.686C40.666 40.686 39.813 40.6158 38.87 40.4658C37.962 40.3258 37.091 40.1458 36.256 39.9258C35.458 39.7058 34.841 39.4658 34.406 39.2158C34.151 39.0658 33.952 38.9259 33.807 38.7759C33.661 38.5959 33.589 38.3058 33.589 37.9058L33.317 29.3657C33.28 28.6357 33.534 28.2759 34.079 28.2759C34.442 28.2759 34.714 28.5959 34.895 29.2559L35.44 31.3257C36.783 36.4757 39.178 39.066 42.626 39.106C44.549 39.106 46.055 38.5057 47.144 37.3057C48.269 36.0757 48.832 34.3557 48.832 32.1357C48.832 29.9957 48.251 28.006 47.09 26.146C45.928 24.296 44.078 22.4658 41.537 20.6558C38.742 18.7258 36.692 16.8757 35.385 15.0957C34.115 13.2857 33.48 11.3657 33.48 9.32568C33.48 6.64568 34.46 4.50576 36.42 2.90576C38.38 1.27576 40.866 0.455566 43.878 0.455566C45.039 0.455566 46.146 0.585938 47.199 0.835938C48.251 1.08594 49.122 1.45578 49.812 1.92578C50.03 2.06578 50.193 2.23602 50.302 2.41602C50.447 2.59602 50.519 2.83598 50.519 3.12598L50.737 11.3457C50.737 11.9557 50.483 12.2656 49.975 12.2656C49.612 12.2656 49.358 12.0159 49.213 11.5059L48.832 10.146C48.033 7.356 47.181 5.3159 46.273 4.0459C45.366 2.7459 44.078 2.08594 42.408 2.08594C40.775 2.08594 39.468 2.59572 38.488 3.61572C37.545 4.62572 37.073 6.06602 37.073 7.91602C37.073 9.47602 37.599 10.966 38.652 12.376C39.704 13.796 41.573 15.5159 44.259 17.5459C47.09 19.7659 49.158 21.9056 50.465 23.9756ZM63.911 23.8057C64.274 23.4457 64.746 23.2656 65.327 23.2656C65.835 23.2656 66.27 23.4457 66.633 23.8057C66.996 24.1757 67.178 24.626 67.178 25.166C67.178 25.676 66.996 26.1156 66.633 26.4756C66.27 26.8356 65.835 27.0259 65.327 27.0259C64.782 27.0259 64.329 26.8356 63.966 26.4756C63.603 26.1156 63.422 25.676 63.422 25.166C63.422 24.626 63.585 24.1757 63.911 23.8057ZM11.813 36.2256C12.249 35.8256 12.721 35.626 13.229 35.626C13.737 35.626 14.19 35.8256 14.59 36.2256C14.989 36.6256 15.189 37.0957 15.189 37.6357C15.189 38.1457 14.989 38.5956 14.59 38.9956C14.19 39.3956 13.737 39.5957 13.229 39.5957C12.721 39.5957 12.249 39.3956 11.813 38.9956C11.414 38.5956 11.214 38.1457 11.214 37.6357C11.214 37.0957 11.414 36.6256 11.813 36.2256Z" fill="black"/>
</svg>
