<svg width="135" height="41" viewBox="0 0 135 41" fill="none" xmlns="http://www.w3.org/2000/svg">
<path fill-rule="evenodd" clip-rule="evenodd" d="M89.879 25.166H89.389C86.268 25.166 83.927 25.1856 82.366 25.2256H74.418V24.8457C74.454 24.7357 74.473 24.5858 74.473 24.4058C74.509 24.2258 74.527 24.0959 74.527 24.0259C74.527 23.9159 74.545 23.7757 74.582 23.5957C74.981 23.5957 75.271 23.606 75.453 23.646H76.378C77.43 23.686 78.683 23.7159 80.134 23.7559H85.143C86.231 23.7559 86.994 23.536 87.429 23.106C87.865 22.626 88.082 21.976 88.082 21.146C88.082 19.036 87.828 17.2359 87.32 15.7559C86.812 14.2659 85.814 13.5156 84.326 13.5156C83.274 13.5156 82.239 14.0658 81.223 15.1558C80.207 16.2058 79.481 17.8256 79.046 19.9956L78.937 20.3257C78.937 20.3957 78.918 20.5058 78.882 20.6558C78.701 21.3458 78.465 21.8658 78.174 22.2358C77.884 22.5558 77.449 22.7256 76.868 22.7256C76.396 22.7256 76.015 22.5756 75.725 22.2856C75.471 21.9956 75.326 21.6657 75.289 21.3057C75.253 20.9057 75.289 20.506 75.398 20.106C75.616 19.056 76.106 17.9258 76.868 16.7358C77.666 15.4958 78.719 14.4457 80.025 13.5757C81.332 12.6657 82.802 12.2158 84.435 12.2158C85.778 12.2158 87.012 12.5358 88.137 13.1958C89.298 13.8458 90.242 14.9356 90.968 16.4556C91.694 17.9856 92.056 19.9758 92.056 22.4458C92.056 23.3558 91.984 24.0058 91.839 24.4058C91.694 24.7758 91.476 25.0057 91.185 25.1157C90.931 25.1857 90.496 25.206 89.879 25.166ZM88.3 39.376C87.248 40.246 85.959 40.686 84.435 40.686C81.931 40.686 79.935 39.9057 78.447 38.3457C76.959 36.7457 75.906 34.9859 75.289 33.0659C74.709 31.1359 74.418 29.6359 74.418 28.5459C74.418 28.0759 74.491 27.6757 74.636 27.3457C74.817 27.0257 75.071 26.7659 75.398 26.5859C75.761 26.4059 76.178 26.3159 76.65 26.3159C77.231 26.3159 77.666 26.496 77.957 26.856C78.283 27.226 78.483 27.656 78.556 28.166V28.3857C78.592 28.4157 78.61 28.4759 78.61 28.5459V29.146C78.61 29.366 78.628 29.5759 78.664 29.7959C78.81 31.0659 79.118 32.3157 79.59 33.5557C80.062 34.7557 80.733 35.7858 81.604 36.6558C82.475 37.4958 83.546 37.9058 84.816 37.9058C86.086 37.9058 87.121 37.566 87.919 36.876C88.718 36.186 89.298 35.4259 89.661 34.5859C90.06 33.7559 90.369 32.8658 90.587 31.9258C90.659 31.5258 90.75 31.246 90.859 31.106C91.004 30.926 91.185 30.8457 91.403 30.8857C91.694 30.9257 91.875 31.0456 91.948 31.2656C92.02 31.4856 92.02 31.7559 91.948 32.0859C91.694 33.4959 91.276 34.856 90.695 36.166C90.151 37.436 89.353 38.506 88.3 39.376ZM13.991 24.4058C15.189 22.9958 17.13 21.6159 19.816 20.2759C22.102 19.1059 23.699 18.076 24.606 17.166C25.514 16.226 25.967 15.1859 25.967 14.0659C25.967 13.4159 25.695 12.846 25.151 12.376C24.643 11.906 24.026 11.666 23.3 11.666C22.393 11.666 21.413 11.8857 20.36 12.3257C19.344 12.7557 17.947 13.4259 16.168 14.3359C14.063 15.4259 12.285 16.2557 10.833 16.8457C9.418 17.3857 8.003 17.6558 6.587 17.6558C5.535 17.6558 4.5 17.3656 3.484 16.7856C2.468 16.2056 1.633 15.406 0.98 14.396C0.327 13.336 0 12.1459 0 10.7959C0 9.3059 0.327 8.0559 0.98 7.0459C1.633 6.0259 2.432 5.2057 3.375 4.5957C4.101 4.1257 4.754 3.68564 5.335 3.28564C5.916 2.88564 6.442 2.5258 6.914 2.1958C7.712 1.6158 8.275 1.23566 8.601 1.05566C8.928 0.875664 9.255 0.785645 9.581 0.785645C10.162 0.785645 10.652 0.985977 11.051 1.37598C11.487 1.74598 11.704 2.2357 11.704 2.8457C11.704 3.3557 11.414 3.79576 10.833 4.15576C10.289 4.51576 9.345 5.00598 8.003 5.62598C7.531 5.80598 7.041 6.02588 6.533 6.27588C6.061 6.49588 5.589 6.73584 5.117 6.98584C4.21 7.45584 3.43 8.07594 2.776 8.83594C2.159 9.56594 1.851 10.3957 1.851 11.3457C1.851 12.0357 2.069 12.7556 2.504 13.5156C2.976 14.2856 3.738 14.666 4.791 14.666C5.589 14.666 6.46 14.4659 7.404 14.0659C8.347 13.6659 9.599 13.0258 11.16 12.1558C13.338 10.9958 15.17 10.1259 16.658 9.5459C18.146 8.9659 19.671 8.67578 21.231 8.67578C22.683 8.67578 23.917 9.07598 24.933 9.87598C25.949 10.636 26.693 11.5756 27.165 12.7056C27.673 13.7956 27.927 14.7958 27.927 15.6958C27.927 16.9658 27.655 18.0358 27.111 18.9058C26.566 19.7858 25.84 20.526 24.933 21.146C24.062 21.726 22.774 22.4459 21.068 23.3159L18.782 24.5757C18.019 24.9757 17.221 25.426 16.386 25.936C15.297 26.626 14.535 27.1857 14.1 27.6157C13.701 28.0557 13.501 28.656 13.501 29.416V30.9458C13.501 31.1558 13.428 31.326 13.283 31.436C13.174 31.536 13.029 31.5957 12.848 31.5957C12.666 31.5957 12.503 31.536 12.358 31.436C12.249 31.286 12.194 31.1258 12.194 30.9458V28.8159C12.194 27.2959 12.793 25.8258 13.991 24.4058ZM134.247 23.6958C134.501 23.8058 134.628 23.9956 134.628 24.2456C134.628 24.5756 134.483 24.8056 134.192 24.9556C133.938 25.0956 133.666 25.166 133.376 25.166H125.319C123.54 25.136 120.818 25.1157 117.153 25.1157C117.153 24.7557 117.171 24.356 117.207 23.916C117.28 23.446 117.371 22.9159 117.479 22.3359C117.625 21.7559 117.788 21.1559 117.969 20.5459C118.223 19.6359 118.568 18.7257 119.004 17.8257C119.476 16.9157 120.056 16.0456 120.746 15.2056C121.472 14.3756 122.306 13.7058 123.25 13.1958C123.831 12.8658 124.466 12.6358 125.155 12.4858C125.845 12.3058 126.571 12.2158 127.333 12.2158C129.111 12.2158 130.527 12.7258 131.579 13.7358C132.668 14.7158 133.484 15.956 134.029 17.436C134.174 17.876 134.283 18.3156 134.356 18.7456C134.464 19.1456 134.555 19.4956 134.628 19.7856C134.773 20.6156 134.519 21.2859 133.866 21.7959C133.249 22.2659 132.577 22.3559 131.851 22.0659C131.162 21.7759 130.781 21.0856 130.708 19.9956C130.672 19.7056 130.636 19.3957 130.599 19.0757C130.599 18.7457 130.581 18.436 130.545 18.146C130.436 17.276 130.254 16.5157 130 15.8657C129.783 15.1757 129.438 14.6058 128.966 14.1758C128.531 13.7358 127.986 13.5156 127.333 13.5156C126.68 13.5156 126.063 13.6656 125.482 13.9556C124.938 14.2456 124.429 14.6656 123.958 15.2056C123.522 15.7156 123.123 16.3557 122.76 17.1157C122.433 17.8357 122.143 18.6757 121.889 19.6157C121.671 20.5657 121.49 21.5956 121.345 22.7256C121.272 23.1956 121.345 23.4857 121.562 23.5957C121.816 23.6957 122.216 23.7559 122.76 23.7559H123.032C124.665 23.7159 125.881 23.6958 126.68 23.6958C127.478 23.6658 128.712 23.6257 130.381 23.5957C131.071 23.5557 131.579 23.5356 131.906 23.5356C132.269 23.5356 132.795 23.5158 133.484 23.4858C133.775 23.4858 134.029 23.5558 134.247 23.6958ZM60.7 13.9556C62.405 12.7556 64.202 12.1558 66.089 12.1558C67.25 12.1558 68.176 12.3759 68.865 12.8159C69.555 13.2159 70.081 13.9958 70.444 15.1558C70.843 16.3158 71.043 18.0058 71.043 20.2158V20.5957C71.079 20.9557 71.061 21.236 70.989 21.416C70.952 21.596 70.825 21.7259 70.607 21.7959C70.571 21.7959 70.535 21.8157 70.499 21.8457H70.39C70.172 21.8857 70.009 21.836 69.9 21.686C69.791 21.546 69.682 21.3056 69.573 20.9756L69.029 19.2959C68.484 17.5159 67.904 16.1157 67.287 15.0957C66.67 14.0857 65.781 13.5757 64.619 13.5757C63.567 13.5757 62.641 14.1958 61.843 15.4258C61.044 16.6258 60.427 18.1456 59.992 19.9956C59.556 21.8456 59.339 23.6856 59.339 25.4956C59.339 28.4756 59.611 30.8858 60.155 32.7358C60.7 34.5858 61.389 35.9158 62.224 36.7158C63.059 37.5058 63.966 37.9058 64.946 37.9058C66.434 37.9058 67.577 37.4057 68.375 36.3857C69.174 35.3657 69.791 34.2659 70.226 33.0659L70.335 32.7358C70.408 32.6258 70.499 32.516 70.607 32.416C70.716 32.266 70.843 32.1958 70.989 32.1958C71.279 32.1958 71.46 32.3056 71.533 32.5156C71.642 32.7356 71.66 32.9558 71.587 33.1758C71.043 35.7458 70.118 37.6758 68.811 38.9458C67.504 40.1758 65.908 40.7959 64.02 40.7959C62.206 40.7959 60.609 40.1557 59.23 38.8857C57.887 37.6157 56.853 35.966 56.127 33.936C55.437 31.866 55.092 29.7056 55.092 27.4556C55.092 24.2956 55.6 21.5558 56.617 19.2358C57.669 16.9158 59.03 15.1556 60.7 13.9556ZM132.178 38.3457C131.017 39.9457 129.275 40.7358 126.952 40.7358C125.173 40.7358 123.522 40.1458 121.998 38.9458C120.51 37.7458 119.33 36.1856 118.459 34.2656C117.625 32.3056 117.207 30.266 117.207 28.166C117.207 27.656 117.316 27.226 117.534 26.856C117.788 26.496 118.096 26.2259 118.459 26.0459C118.822 25.8559 119.131 25.7656 119.385 25.7656C119.675 25.7656 119.965 25.8559 120.256 26.0459C120.546 26.1859 120.782 26.456 120.964 26.856C121.181 27.256 121.29 27.786 121.29 28.436C121.29 30.036 121.544 31.5759 122.052 33.0659C122.597 34.5159 123.323 35.696 124.23 36.606C125.173 37.476 126.208 37.9058 127.333 37.9058C128.676 37.9058 129.746 37.6058 130.545 36.9858C131.343 36.3658 131.924 35.676 132.287 34.916C132.65 34.116 132.995 33.1356 133.321 31.9756C133.394 31.6156 133.503 31.326 133.648 31.106C133.793 30.886 134.011 30.8157 134.301 30.8857C134.591 30.9957 134.737 31.1958 134.737 31.4858C134.737 31.7358 134.7 32.0157 134.628 32.3057C134.156 34.7357 133.339 36.7457 132.178 38.3457ZM113.56 29.9058C113.596 31.5758 113.614 34.1359 113.614 37.5859C113.614 38.3459 113.451 38.9758 113.124 39.4858C112.798 39.9558 112.308 40.1958 111.654 40.1958C111.11 40.1958 110.656 39.9957 110.293 39.5957C109.967 39.1657 109.804 38.5958 109.804 37.9058C109.731 34.8258 109.676 31.4456 109.64 27.7856V18.4756C109.64 17.3156 109.187 16.2456 108.279 15.2656C107.408 14.2856 106.011 13.7959 104.087 13.7959C102.599 13.7959 101.402 14.3059 100.494 15.3159C99.623 16.2959 99.188 17.476 99.188 18.856V37.6357C99.188 38.4757 99.006 39.1059 98.644 39.5459C98.317 39.9759 97.845 40.1958 97.228 40.1958C96.611 40.1958 96.158 39.9957 95.867 39.5957C95.577 39.1957 95.414 38.726 95.377 38.186C95.305 36.946 95.25 34.8059 95.214 31.7559C95.214 28.7059 95.232 25.8959 95.268 23.3159V20.5459C95.268 19.3859 95.595 18.1457 96.248 16.8457C96.902 15.5357 97.881 14.4256 99.188 13.5156C100.531 12.6156 102.164 12.1558 104.087 12.1558C106.12 12.1558 107.844 12.5958 109.259 13.4658C110.711 14.3058 111.781 15.3359 112.471 16.5659C113.197 17.7659 113.56 18.9056 113.56 19.9956V29.9058ZM50.465 23.9756C51.772 26.0056 52.425 28.1859 52.425 30.5059C52.425 32.5359 51.953 34.3159 51.009 35.8359C50.066 37.3659 48.759 38.566 47.09 39.436C45.457 40.266 43.569 40.686 41.428 40.686C40.666 40.686 39.813 40.6158 38.87 40.4658C37.962 40.3258 37.091 40.1458 36.256 39.9258C35.458 39.7058 34.841 39.4658 34.406 39.2158C34.151 39.0658 33.952 38.9259 33.807 38.7759C33.661 38.5959 33.589 38.3058 33.589 37.9058L33.317 29.3657C33.28 28.6357 33.534 28.2759 34.079 28.2759C34.442 28.2759 34.714 28.5959 34.895 29.2559L35.44 31.3257C36.783 36.4757 39.178 39.066 42.626 39.106C44.549 39.106 46.055 38.5057 47.144 37.3057C48.269 36.0757 48.832 34.3557 48.832 32.1357C48.832 29.9957 48.251 28.006 47.09 26.146C45.928 24.296 44.078 22.4658 41.537 20.6558C38.742 18.7258 36.692 16.8757 35.385 15.0957C34.115 13.2857 33.48 11.3657 33.48 9.32568C33.48 6.64568 34.46 4.50576 36.42 2.90576C38.38 1.27576 40.866 0.455566 43.878 0.455566C45.039 0.455566 46.146 0.585938 47.199 0.835938C48.251 1.08594 49.122 1.45578 49.812 1.92578C50.03 2.06578 50.193 2.23602 50.302 2.41602C50.447 2.59602 50.519 2.83598 50.519 3.12598L50.737 11.3457C50.737 11.9557 50.483 12.2656 49.975 12.2656C49.612 12.2656 49.358 12.0159 49.213 11.5059L48.832 10.146C48.033 7.356 47.181 5.3159 46.273 4.0459C45.366 2.7459 44.078 2.08594 42.408 2.08594C40.775 2.08594 39.468 2.59572 38.488 3.61572C37.545 4.62572 37.073 6.06602 37.073 7.91602C37.073 9.47602 37.599 10.966 38.652 12.376C39.704 13.796 41.573 15.5159 44.259 17.5459C47.09 19.7659 49.158 21.9056 50.465 23.9756ZM63.911 23.8057C64.274 23.4057 64.746 23.2158 65.327 23.2158C65.835 23.2158 66.27 23.4057 66.633 23.8057C67.033 24.1757 67.232 24.626 67.232 25.166C67.232 25.676 67.033 26.1356 66.633 26.5356C66.27 26.8956 65.835 27.0757 65.327 27.0757C64.782 27.0757 64.311 26.8956 63.911 26.5356C63.548 26.1356 63.367 25.676 63.367 25.166C63.367 24.626 63.548 24.1757 63.911 23.8057ZM11.868 36.2759C12.267 35.8759 12.721 35.6758 13.229 35.6758C13.737 35.6758 14.172 35.8759 14.535 36.2759C14.934 36.6359 15.134 37.0957 15.134 37.6357C15.134 38.1457 14.934 38.5956 14.535 38.9956C14.172 39.3656 13.737 39.5459 13.229 39.5459C12.721 39.5459 12.267 39.3656 11.868 38.9956C11.469 38.5956 11.269 38.1457 11.269 37.6357C11.269 37.0957 11.469 36.6359 11.868 36.2759Z" fill="black"/>
</svg>
