<svg width="135" height="41" viewBox="0 0 135 41" fill="none" xmlns="http://www.w3.org/2000/svg">
<path fill-rule="evenodd" clip-rule="evenodd" d="M89.552 25.2256H89.062C86.014 25.2256 83.709 25.2459 82.149 25.2759C80.588 25.2759 78.247 25.2656 75.126 25.2256H74.364C74.327 25.0456 74.309 24.8956 74.309 24.7856V24.356C74.382 24.176 74.418 24.0456 74.418 23.9756C74.418 23.8656 74.454 23.7156 74.527 23.5356C74.926 23.5356 75.217 23.5557 75.398 23.5957C75.58 23.6257 75.87 23.646 76.269 23.646C77.358 23.686 78.628 23.7159 80.08 23.7559C81.531 23.7959 83.165 23.8057 84.979 23.8057C86.068 23.8057 86.83 23.576 87.266 23.106C87.701 22.626 87.919 21.9559 87.919 21.0859C87.919 19.0159 87.665 17.2359 87.157 15.7559C86.649 14.2659 85.651 13.5156 84.163 13.5156C83.147 13.5156 82.13 14.0457 81.114 15.0957C80.098 16.1157 79.372 17.6959 78.937 19.8359C78.9 19.9759 78.864 20.1058 78.828 20.2158C78.828 20.2858 78.81 20.3758 78.773 20.4858C78.592 21.1758 78.338 21.7059 78.011 22.0659C77.721 22.4259 77.267 22.6157 76.65 22.6157C76.142 22.6157 75.761 22.4658 75.507 22.1758C75.289 21.8858 75.162 21.546 75.126 21.146C75.126 20.746 75.18 20.3458 75.289 19.9458C75.543 18.8958 76.051 17.786 76.814 16.626C77.612 15.426 78.646 14.3956 79.917 13.5156C81.187 12.6456 82.638 12.2158 84.272 12.2158C85.614 12.2158 86.848 12.5358 87.974 13.1958C89.135 13.8458 90.078 14.9356 90.804 16.4556C91.53 17.9456 91.893 19.9059 91.893 22.3359C91.893 23.2859 91.802 23.956 91.621 24.356C91.476 24.756 91.258 25.0057 90.968 25.1157C90.677 25.2257 90.206 25.2656 89.552 25.2256ZM88.191 39.376C87.139 40.246 85.85 40.686 84.326 40.686C81.822 40.686 79.826 39.9057 78.338 38.3457C76.85 36.7857 75.797 35.0558 75.18 33.1758C74.6 31.2858 74.309 29.7956 74.309 28.7056C74.273 28.2356 74.309 27.8356 74.418 27.5156C74.563 27.1456 74.799 26.8758 75.126 26.6958C75.453 26.5158 75.87 26.4258 76.378 26.4258C76.995 26.4258 77.467 26.6058 77.793 26.9658C78.12 27.3258 78.338 27.7458 78.447 28.2158V28.436C78.483 28.476 78.501 28.5257 78.501 28.5957V29.1958C78.501 29.4158 78.519 29.636 78.556 29.856C78.701 31.126 78.991 32.376 79.427 33.606C79.898 34.806 80.57 35.8358 81.441 36.7158C82.312 37.5458 83.382 37.9658 84.653 37.9658C85.923 37.9658 86.957 37.6158 87.756 36.9258C88.554 36.2058 89.135 35.4259 89.498 34.5859C89.897 33.7559 90.187 32.8658 90.369 31.9258C90.478 31.5258 90.587 31.2359 90.695 31.0459C90.841 30.8659 91.04 30.7959 91.294 30.8359C91.585 30.8659 91.766 31.0156 91.839 31.2656C91.911 31.4856 91.911 31.7757 91.839 32.1357C91.585 33.5557 91.167 34.896 90.587 36.166C90.042 37.436 89.244 38.506 88.191 39.376ZM13.991 24.4058C15.189 22.9958 17.13 21.6159 19.816 20.2759C22.102 19.1059 23.699 18.076 24.606 17.166C25.514 16.226 25.967 15.1859 25.967 14.0659C25.967 13.4159 25.695 12.846 25.151 12.376C24.643 11.906 24.026 11.666 23.3 11.666C22.393 11.666 21.413 11.8857 20.36 12.3257C19.344 12.7557 17.947 13.4259 16.168 14.3359C14.063 15.4259 12.285 16.2557 10.833 16.8457C9.418 17.3857 8.003 17.6558 6.587 17.6558C5.535 17.6558 4.5 17.3656 3.484 16.7856C2.468 16.2056 1.633 15.406 0.98 14.396C0.327 13.336 0 12.1459 0 10.7959C0 9.3059 0.327 8.0559 0.98 7.0459C1.633 6.0259 2.432 5.2057 3.375 4.5957C4.101 4.1257 4.754 3.68564 5.335 3.28564C5.916 2.88564 6.442 2.5258 6.914 2.1958C7.712 1.6158 8.275 1.23566 8.601 1.05566C8.928 0.875664 9.255 0.785645 9.581 0.785645C10.162 0.785645 10.652 0.985977 11.051 1.37598C11.487 1.74598 11.704 2.2357 11.704 2.8457C11.704 3.3557 11.414 3.79576 10.833 4.15576C10.289 4.51576 9.345 5.00598 8.003 5.62598C7.531 5.80598 7.041 6.02588 6.533 6.27588C6.061 6.49588 5.589 6.73584 5.117 6.98584C4.21 7.45584 3.43 8.07594 2.776 8.83594C2.159 9.56594 1.851 10.3957 1.851 11.3457C1.851 12.0357 2.069 12.7556 2.504 13.5156C2.976 14.2856 3.738 14.666 4.791 14.666C5.589 14.666 6.46 14.4659 7.404 14.0659C8.347 13.6659 9.599 13.0258 11.16 12.1558C13.338 10.9958 15.17 10.1259 16.658 9.5459C18.146 8.9659 19.671 8.67578 21.231 8.67578C22.683 8.67578 23.917 9.07598 24.933 9.87598C25.949 10.636 26.693 11.5756 27.165 12.7056C27.673 13.7956 27.927 14.7958 27.927 15.6958C27.927 16.9658 27.655 18.0358 27.111 18.9058C26.566 19.7858 25.84 20.526 24.933 21.146C24.062 21.726 22.774 22.4459 21.068 23.3159L18.782 24.5757C18.019 24.9757 17.221 25.426 16.386 25.936C15.297 26.626 14.535 27.1857 14.1 27.6157C13.701 28.0557 13.501 28.656 13.501 29.416V30.9458C13.501 31.1558 13.428 31.326 13.283 31.436C13.174 31.536 13.029 31.5957 12.848 31.5957C12.666 31.5957 12.503 31.536 12.358 31.436C12.249 31.286 12.194 31.1258 12.194 30.9458V28.8159C12.194 27.2959 12.793 25.8258 13.991 24.4058ZM134.138 23.8657C134.392 23.9757 134.519 24.1558 134.519 24.4058C134.519 24.6958 134.374 24.9357 134.083 25.1157C133.829 25.2657 133.557 25.3359 133.267 25.3359C129.819 25.3659 127.206 25.3857 125.428 25.3857H117.479C117.407 25.0657 117.352 24.666 117.316 24.186C117.28 23.716 117.298 23.1757 117.371 22.5557C117.443 21.9357 117.57 21.2857 117.752 20.5957C118.006 19.6857 118.35 18.786 118.786 17.876C119.258 16.936 119.838 16.0456 120.528 15.2056C121.254 14.3756 122.107 13.7058 123.087 13.1958C123.667 12.8658 124.302 12.6358 124.992 12.4858C125.682 12.3058 126.407 12.2158 127.17 12.2158C128.948 12.2158 130.381 12.706 131.47 13.686C132.559 14.666 133.376 15.8659 133.92 17.2759C134.065 17.7159 134.174 18.1259 134.247 18.5259C134.356 18.8959 134.446 19.1956 134.519 19.4556C134.664 20.2856 134.428 20.9558 133.811 21.4658C133.23 21.9358 132.613 22.0459 131.96 21.7959C131.307 21.5059 130.926 20.8356 130.817 19.7856C130.744 19.4956 130.69 19.1958 130.654 18.9058C130.617 18.5858 130.581 18.2758 130.545 17.9858C130.4 17.1158 130.182 16.3659 129.892 15.7559C129.637 15.0959 129.275 14.5758 128.803 14.1758C128.367 13.7358 127.823 13.5156 127.17 13.5156C126.516 13.5156 125.899 13.6656 125.319 13.9556C124.774 14.2456 124.266 14.6656 123.794 15.2056C123.323 15.7156 122.905 16.3357 122.542 17.0557C122.216 17.7857 121.925 18.6159 121.671 19.5659C121.453 20.5059 121.272 21.5257 121.127 22.6157C121.054 23.1557 121.163 23.5158 121.453 23.6958C121.744 23.8858 122.179 23.9756 122.76 23.9756H123.087C124.684 23.9356 125.881 23.8957 126.68 23.8657C127.478 23.8257 128.712 23.7959 130.381 23.7559C131.035 23.7159 131.525 23.6958 131.851 23.6958C132.214 23.6958 132.722 23.686 133.376 23.646C133.666 23.646 133.92 23.7157 134.138 23.8657ZM60.536 13.9556C62.206 12.7256 63.984 12.106 65.871 12.106C67.033 12.106 67.958 12.3259 68.648 12.7559C69.374 13.1959 69.936 13.9958 70.335 15.1558C70.734 16.3158 70.934 17.986 70.934 20.166V20.376C70.934 20.416 70.952 20.4857 70.989 20.5957C70.989 20.9257 70.952 21.176 70.88 21.356C70.843 21.546 70.716 21.6656 70.499 21.7456C70.462 21.7456 70.426 21.7559 70.39 21.7959C70.353 21.7959 70.317 21.8157 70.281 21.8457C70.063 21.8457 69.9 21.7757 69.791 21.6357C69.682 21.4857 69.573 21.2558 69.464 20.9258L68.92 19.2959C68.375 17.5159 67.777 16.1157 67.123 15.0957C66.506 14.0857 65.617 13.5757 64.456 13.5757C63.403 13.5757 62.478 14.1958 61.679 15.4258C60.881 16.6258 60.264 18.1456 59.829 19.9956C59.393 21.8456 59.175 23.6957 59.175 25.5557C59.175 28.4957 59.447 30.8858 59.992 32.7358C60.536 34.5858 61.226 35.9158 62.06 36.7158C62.932 37.5058 63.839 37.9058 64.782 37.9058C66.27 37.9058 67.414 37.4057 68.212 36.3857C69.01 35.3657 69.628 34.2659 70.063 33.0659L70.172 32.7358C70.245 32.6258 70.335 32.516 70.444 32.416C70.553 32.266 70.68 32.1958 70.825 32.1958C71.116 32.1958 71.297 32.3056 71.37 32.5156C71.478 32.7356 71.497 32.9558 71.424 33.1758C70.88 35.7458 69.954 37.6758 68.648 38.9458C67.341 40.1758 65.744 40.7959 63.857 40.7959C62.042 40.7959 60.446 40.1557 59.066 38.8857C57.724 37.6157 56.707 35.966 56.018 33.936C55.328 31.866 54.983 29.7056 54.983 27.4556C54.983 24.3356 55.492 21.6159 56.508 19.2959C57.524 16.9659 58.867 15.1856 60.536 13.9556ZM131.96 38.396C130.799 39.956 129.075 40.7358 126.788 40.7358C125.01 40.7358 123.377 40.1556 121.889 38.9956C120.401 37.8356 119.24 36.3158 118.405 34.4258C117.57 32.5358 117.135 30.5957 117.098 28.5957C117.098 28.0957 117.207 27.6559 117.425 27.2959C117.643 26.8959 117.915 26.6058 118.242 26.4258C118.568 26.2058 118.859 26.0957 119.113 26.0957C119.403 26.0957 119.693 26.1857 119.984 26.3657C120.31 26.5157 120.582 26.786 120.8 27.186C121.018 27.586 121.145 28.1056 121.181 28.7656C121.181 30.3256 121.435 31.8156 121.943 33.2256C122.452 34.6456 123.159 35.7858 124.067 36.6558C125.01 37.4958 126.044 37.9058 127.17 37.9058C128.476 37.9058 129.51 37.6156 130.273 37.0356C131.071 36.4256 131.652 35.7358 132.015 34.9658C132.414 34.2058 132.777 33.2657 133.103 32.1357C133.176 31.7757 133.285 31.4856 133.43 31.2656C133.612 31.0456 133.847 30.9759 134.138 31.0459C134.428 31.1559 134.555 31.356 134.519 31.646C134.519 31.906 134.483 32.1758 134.41 32.4658C133.938 34.8558 133.122 36.836 131.96 38.396ZM113.397 29.9058C113.433 31.6158 113.451 34.1857 113.451 37.6357C113.451 38.3957 113.288 39.0359 112.961 39.5459C112.671 40.0159 112.199 40.2456 111.546 40.2456C111.001 40.2456 110.548 40.0458 110.185 39.6558C109.822 39.2158 109.64 38.6558 109.64 37.9658C109.568 34.9558 109.513 31.5759 109.477 27.8359V18.4756C109.477 17.3156 109.023 16.2456 108.116 15.2656C107.245 14.2856 105.866 13.7959 103.979 13.7959C102.454 13.7959 101.238 14.3059 100.331 15.3159C99.46 16.2959 99.025 17.476 99.025 18.856V37.5259C99.025 38.3659 98.843 38.996 98.48 39.436C98.154 39.866 97.682 40.0859 97.065 40.0859C96.448 40.0859 95.994 39.8858 95.704 39.4858C95.414 39.0858 95.25 38.6157 95.214 38.0757C95.178 36.7257 95.141 34.586 95.105 31.646V20.5459C95.105 19.3859 95.432 18.1457 96.085 16.8457C96.738 15.5357 97.718 14.4256 99.025 13.5156C100.367 12.6156 102.001 12.1558 103.924 12.1558C105.956 12.1558 107.699 12.5958 109.15 13.4658C110.602 14.3058 111.673 15.3359 112.362 16.5659C113.052 17.7659 113.397 18.9056 113.397 19.9956V29.9058ZM50.356 23.9756C51.663 26.0056 52.316 28.1859 52.316 30.5059C52.316 32.5359 51.844 34.3159 50.901 35.8359C49.957 37.3659 48.65 38.566 46.981 39.436C45.348 40.266 43.461 40.686 41.319 40.686C40.557 40.686 39.704 40.6158 38.761 40.4658C37.853 40.3258 36.982 40.1458 36.148 39.9258C35.349 39.7058 34.732 39.4658 34.297 39.2158C34.042 39.0658 33.843 38.9259 33.698 38.7759C33.553 38.5959 33.48 38.3058 33.48 37.9058L33.208 29.3657C33.172 28.6357 33.426 28.2759 33.97 28.2759C34.333 28.2759 34.605 28.5959 34.786 29.2559L35.331 31.376C36.638 36.426 39.033 38.996 42.517 39.106C44.44 39.106 45.947 38.4859 47.035 37.2559C48.16 36.0259 48.723 34.2959 48.723 32.0859C48.723 29.9459 48.142 27.9457 46.981 26.0957C45.82 24.2457 43.969 22.4157 41.428 20.5957C38.634 18.6757 36.583 16.8259 35.277 15.0459C34.006 13.2259 33.371 11.3059 33.371 9.27588C33.371 6.62588 34.351 4.50576 36.311 2.90576C38.271 1.27576 40.739 0.455566 43.715 0.455566C44.876 0.455566 45.983 0.585938 47.035 0.835938C48.124 1.08594 49.013 1.45578 49.703 1.92578C49.921 2.06578 50.084 2.23602 50.193 2.41602C50.338 2.59602 50.411 2.83598 50.411 3.12598L50.628 11.3457C50.628 11.9557 50.374 12.2656 49.866 12.2656C49.503 12.2656 49.249 12.0159 49.104 11.5059L48.723 10.0957C47.961 7.3357 47.126 5.3159 46.219 4.0459C45.311 2.7459 44.023 2.08594 42.354 2.08594C40.684 2.08594 39.359 2.59572 38.38 3.61572C37.436 4.62572 36.964 6.06602 36.964 7.91602C36.964 9.47602 37.49 10.966 38.543 12.376C39.595 13.796 41.464 15.5159 44.15 17.5459C46.981 19.7659 49.05 21.9056 50.356 23.9756ZM63.748 23.8057C64.111 23.4057 64.583 23.2158 65.164 23.2158C65.672 23.2158 66.107 23.4057 66.47 23.8057C66.869 24.1757 67.069 24.626 67.069 25.166C67.069 25.676 66.869 26.1356 66.47 26.5356C66.107 26.8956 65.672 27.0757 65.164 27.0757C64.619 27.0757 64.147 26.8956 63.748 26.5356C63.385 26.1356 63.204 25.676 63.204 25.166C63.204 24.626 63.385 24.1757 63.748 23.8057ZM11.868 36.2759C12.267 35.8759 12.721 35.6758 13.229 35.6758C13.737 35.6758 14.172 35.8759 14.535 36.2759C14.934 36.6359 15.134 37.0957 15.134 37.6357C15.134 38.1457 14.934 38.5956 14.535 38.9956C14.172 39.3656 13.737 39.5459 13.229 39.5459C12.721 39.5459 12.267 39.3656 11.868 38.9956C11.469 38.5956 11.269 38.1457 11.269 37.6357C11.269 37.0957 11.469 36.6359 11.868 36.2759Z" fill="black"/>
</svg>
