<svg width="135" height="41" viewBox="0 0 135 41" fill="none" xmlns="http://www.w3.org/2000/svg">
<path fill-rule="evenodd" clip-rule="evenodd" d="M89.28 25.3359H81.931C80.37 25.2959 78.066 25.2656 75.017 25.2256H74.636C74.563 25.1856 74.436 25.166 74.255 25.166C74.219 24.986 74.2 24.8458 74.2 24.7358V24.2959C74.237 24.1159 74.255 23.996 74.255 23.916C74.291 23.806 74.364 23.6856 74.473 23.5356C74.836 23.5356 75.108 23.5557 75.289 23.5957H76.16C77.285 23.6957 78.556 23.7757 79.971 23.8057C81.386 23.8457 83.001 23.8657 84.816 23.8657C85.905 23.8257 86.667 23.576 87.102 23.106C87.574 22.626 87.81 21.9559 87.81 21.0859C87.81 19.0159 87.556 17.2359 87.048 15.7559C86.54 14.2659 85.542 13.5156 84.054 13.5156C83.001 13.5156 81.967 14.0259 80.951 15.0459C79.971 16.0659 79.263 17.6356 78.828 19.7856C78.791 19.8856 78.755 19.996 78.719 20.106C78.719 20.176 78.701 20.286 78.664 20.436C78.483 21.126 78.229 21.6456 77.902 22.0156C77.612 22.3756 77.158 22.5557 76.541 22.5557C76.033 22.5557 75.652 22.416 75.398 22.126C75.18 21.836 75.053 21.4859 75.017 21.0859C75.017 20.6559 75.071 20.2557 75.18 19.8857C75.434 18.8357 75.942 17.7259 76.705 16.5659C77.467 15.3759 78.483 14.3556 79.753 13.5156C81.06 12.6456 82.53 12.2158 84.163 12.2158C85.506 12.2158 86.74 12.5358 87.865 13.1958C89.026 13.8458 89.951 14.9158 90.641 16.4058C91.367 17.8958 91.73 19.8358 91.73 22.2358C91.73 23.2158 91.639 23.916 91.458 24.356C91.276 24.756 91.022 25.026 90.695 25.166C90.369 25.276 89.897 25.3359 89.28 25.3359ZM88.028 39.376C86.975 40.246 85.687 40.686 84.163 40.686C81.659 40.686 79.662 39.9057 78.174 38.3457C76.723 36.7857 75.688 35.0756 75.071 33.2256C74.491 31.3756 74.182 29.9059 74.146 28.8159C74.146 28.3459 74.2 27.9457 74.309 27.6157C74.454 27.2557 74.69 26.9857 75.017 26.8057C75.344 26.5857 75.761 26.4756 76.269 26.4756C76.886 26.4756 77.358 26.6559 77.685 27.0259C78.011 27.3859 78.229 27.8059 78.338 28.2759V29.2559C78.338 29.4759 78.356 29.6858 78.392 29.9058C78.574 31.2158 78.882 32.466 79.318 33.666C79.79 34.856 80.443 35.8758 81.278 36.7158C82.149 37.5458 83.237 37.9658 84.544 37.9658C85.778 37.9658 86.776 37.6158 87.538 36.9258C88.336 36.2358 88.917 35.476 89.28 34.646C89.679 33.776 89.988 32.8856 90.206 31.9756C90.278 31.5056 90.387 31.1756 90.532 30.9956C90.714 30.8156 90.913 30.7559 91.131 30.8359C91.458 30.8659 91.657 31.0156 91.73 31.2656C91.839 31.4856 91.839 31.7958 91.73 32.1958C91.439 33.5758 91.004 34.896 90.423 36.166C89.879 37.436 89.08 38.506 88.028 39.376ZM13.991 24.4658C15.225 23.0458 17.185 21.6657 19.87 20.3257C22.157 19.1657 23.754 18.116 24.661 17.166C25.568 16.226 26.022 15.1859 26.022 14.0659C26.022 13.4159 25.75 12.846 25.205 12.376C24.697 11.906 24.08 11.666 23.354 11.666C22.447 11.666 21.467 11.8857 20.415 12.3257C19.362 12.7557 17.965 13.4259 16.223 14.3359C14.118 15.4259 12.339 16.2557 10.888 16.8457C9.436 17.3857 8.003 17.6558 6.587 17.6558C5.535 17.6558 4.5 17.3656 3.484 16.7856C2.468 16.2056 1.633 15.406 0.98 14.396C0.327 13.336 0 12.1459 0 10.7959C0 9.3059 0.327 8.0559 0.98 7.0459C1.633 6.0259 2.432 5.2057 3.375 4.5957C4.101 4.1257 4.754 3.68564 5.335 3.28564C5.916 2.88564 6.442 2.5258 6.914 2.1958C7.712 1.6158 8.275 1.23566 8.601 1.05566C8.928 0.875664 9.255 0.785645 9.581 0.785645C10.162 0.785645 10.652 0.985977 11.051 1.37598C11.487 1.74598 11.704 2.2357 11.704 2.8457C11.704 3.3557 11.414 3.79576 10.833 4.15576C10.289 4.51576 9.345 5.00598 8.003 5.62598C7.531 5.80598 7.041 6.02588 6.533 6.27588C6.061 6.49588 5.589 6.73584 5.117 6.98584C4.21 7.45584 3.43 8.07594 2.776 8.83594C2.159 9.56594 1.851 10.3957 1.851 11.3457C1.851 12.0357 2.069 12.7556 2.504 13.5156C2.976 14.2856 3.738 14.666 4.791 14.666C5.589 14.666 6.46 14.4659 7.404 14.0659C8.347 13.6659 9.599 13.0258 11.16 12.1558C13.338 10.9958 15.17 10.1259 16.658 9.5459C18.183 8.9659 19.725 8.67578 21.286 8.67578C22.737 8.67578 23.971 9.07598 24.988 9.87598C26.004 10.636 26.748 11.5756 27.22 12.7056C27.728 13.7956 27.982 14.7958 27.982 15.6958C27.982 17.0058 27.709 18.0958 27.165 18.9658C26.621 19.8358 25.895 20.5758 24.988 21.1958C24.116 21.7758 22.828 22.506 21.122 23.376C20.397 23.776 19.634 24.186 18.836 24.626C18.074 25.026 17.275 25.4758 16.441 25.9858C15.352 26.6758 14.59 27.2358 14.154 27.6758C13.719 28.1058 13.501 28.7056 13.501 29.4756V30.9956C13.501 31.2156 13.428 31.3758 13.283 31.4858C13.174 31.5958 13.029 31.646 12.848 31.646C12.666 31.646 12.503 31.5958 12.358 31.4858C12.249 31.3358 12.194 31.1756 12.194 30.9956V28.876C12.194 27.346 12.793 25.8758 13.991 24.4658ZM133.974 23.9756C134.229 24.0856 134.356 24.2656 134.356 24.5156C134.356 24.8456 134.229 25.0756 133.974 25.2256C133.72 25.3656 133.448 25.4656 133.158 25.4956C129.819 25.5656 127.278 25.6258 125.536 25.6558C123.831 25.6958 121.254 25.7158 117.806 25.7158C117.625 25.3858 117.479 24.9856 117.371 24.5156C117.298 24.0056 117.262 23.4259 117.262 22.7759C117.298 22.1259 117.389 21.4356 117.534 20.7056C117.788 19.7256 118.133 18.786 118.568 17.876C119.04 16.936 119.621 16.0456 120.31 15.2056C121.036 14.3356 121.889 13.6658 122.869 13.1958C123.45 12.8658 124.085 12.6358 124.774 12.4858C125.5 12.3058 126.244 12.2158 127.006 12.2158C128.785 12.2158 130.218 12.706 131.307 13.686C132.396 14.626 133.212 15.786 133.757 17.166C133.938 17.566 134.065 17.9657 134.138 18.3657C134.247 18.7657 134.337 19.0759 134.41 19.2959C134.519 20.0859 134.283 20.7258 133.702 21.1958C133.158 21.6658 132.559 21.7759 131.906 21.5259C131.289 21.2659 130.926 20.6357 130.817 19.6157C130.781 19.3657 130.726 19.0957 130.654 18.8057C130.617 18.4757 130.581 18.1858 130.545 17.9258C130.4 17.0958 130.182 16.3659 129.892 15.7559C129.601 15.0959 129.22 14.5758 128.748 14.1758C128.276 13.7758 127.696 13.5757 127.006 13.5757C126.353 13.5757 125.736 13.7159 125.155 14.0059C124.611 14.2659 124.085 14.6656 123.577 15.2056C123.141 15.6756 122.742 16.2759 122.379 17.0059C122.016 17.7259 121.708 18.5659 121.453 19.5059C121.236 20.4159 121.054 21.4357 120.909 22.5557C120.836 23.1757 120.964 23.5957 121.29 23.8057C121.617 24.0257 122.107 24.156 122.76 24.186H123.087C124.684 24.156 125.881 24.1159 126.68 24.0859C127.514 24.0459 128.73 23.996 130.327 23.916C130.98 23.886 131.47 23.8657 131.797 23.8657C132.124 23.8257 132.595 23.7959 133.212 23.7559C133.503 23.7559 133.757 23.8256 133.974 23.9756ZM60.318 14.0059C61.988 12.7359 63.766 12.106 65.653 12.106C66.778 12.106 67.704 12.3259 68.43 12.7559C69.156 13.1959 69.718 14.0056 70.118 15.2056C70.553 16.3656 70.807 18.026 70.88 20.166V20.5459C70.916 20.9059 70.898 21.176 70.825 21.356C70.753 21.546 70.607 21.646 70.39 21.686C70.353 21.726 70.317 21.7559 70.281 21.7959H70.172C69.954 21.8359 69.791 21.7757 69.682 21.6357C69.573 21.4857 69.464 21.2558 69.355 20.9258L68.811 19.2358C68.266 17.4958 67.668 16.1157 67.014 15.0957C66.397 14.0857 65.508 13.5757 64.347 13.5757C63.294 13.5757 62.369 14.1958 61.571 15.4258C60.772 16.6258 60.155 18.1657 59.72 20.0557C59.284 21.9057 59.066 23.756 59.066 25.606C59.066 28.546 59.339 30.9459 59.883 32.7959C60.427 34.6059 61.117 35.9158 61.952 36.7158C62.786 37.5058 63.676 37.9058 64.619 37.9058C66.143 37.9058 67.305 37.4057 68.103 36.3857C68.902 35.3657 69.519 34.2659 69.954 33.0659L70.063 32.7358C70.136 32.6258 70.226 32.516 70.335 32.416C70.444 32.266 70.571 32.1958 70.716 32.1958C71.007 32.1958 71.188 32.3056 71.261 32.5156C71.37 32.7356 71.388 32.9558 71.315 33.1758C70.771 35.7458 69.845 37.6758 68.539 38.9458C67.232 40.1758 65.635 40.7959 63.748 40.7959C61.934 40.7959 60.337 40.1557 58.958 38.8857C57.615 37.6157 56.58 35.966 55.854 33.936C55.165 31.866 54.82 29.7056 54.82 27.4556C54.82 24.3756 55.328 21.6657 56.344 19.3457C57.361 17.0257 58.685 15.2459 60.318 14.0059ZM131.742 38.4556C130.581 39.9756 128.875 40.7358 126.625 40.7358C124.883 40.7358 123.268 40.1757 121.78 39.0557C120.328 37.8957 119.185 36.4059 118.35 34.5859C117.516 32.7759 117.08 30.866 117.044 28.876C117.008 28.396 117.098 27.9857 117.316 27.6157C117.534 27.2257 117.788 26.9356 118.078 26.7456C118.405 26.5356 118.713 26.4258 119.004 26.4258C119.294 26.3858 119.584 26.4557 119.875 26.6357C120.201 26.8257 120.474 27.1156 120.691 27.5156C120.909 27.8756 121.018 28.3658 121.018 28.9858C121.054 30.5458 121.326 32.016 121.835 33.396C122.343 34.736 123.032 35.8258 123.903 36.6558C124.811 37.4958 125.845 37.9058 127.006 37.9058C128.276 37.9058 129.293 37.6156 130.055 37.0356C130.853 36.4556 131.434 35.8057 131.797 35.0757C132.196 34.3157 132.577 33.3756 132.94 32.2456C133.013 31.8856 133.122 31.596 133.267 31.376C133.412 31.156 133.63 31.1058 133.92 31.2158C134.21 31.3258 134.356 31.5259 134.356 31.8159C134.356 32.0659 134.319 32.336 134.247 32.626C133.739 34.956 132.904 36.8956 131.742 38.4556ZM113.288 29.9658C113.324 31.6258 113.342 34.2058 113.342 37.6958C113.342 38.4558 113.179 39.0857 112.852 39.5957C112.525 40.0657 112.036 40.3057 111.382 40.3057C110.838 40.3057 110.384 40.1056 110.021 39.7056C109.695 39.2656 109.531 38.6858 109.531 37.9658C109.459 35.0258 109.404 31.666 109.368 27.896V18.4756C109.368 17.3156 108.914 16.2456 108.007 15.2656C107.136 14.2856 105.739 13.7959 103.815 13.7959C102.327 13.7959 101.13 14.3059 100.222 15.3159C99.351 16.2959 98.916 17.476 98.916 18.856V37.416C98.916 38.256 98.734 38.8857 98.371 39.3257C98.008 39.7557 97.518 39.9756 96.902 39.9756C96.321 39.9756 95.885 39.776 95.595 39.376C95.305 38.976 95.141 38.4858 95.105 37.9058C95.032 36.5258 94.978 34.4056 94.942 31.5356C94.942 28.6356 94.96 25.8959 94.996 23.3159V20.5459C94.996 19.3859 95.323 18.1457 95.976 16.8457C96.629 15.5357 97.609 14.4256 98.916 13.5156C100.259 12.6156 101.892 12.1558 103.815 12.1558C105.848 12.1558 107.572 12.5958 108.987 13.4658C110.439 14.3058 111.509 15.3359 112.199 16.5659C112.925 17.7659 113.288 18.9056 113.288 19.9956V29.9658ZM50.247 23.9756C51.554 26.0056 52.207 28.1859 52.207 30.5059C52.207 32.5359 51.735 34.3159 50.792 35.8359C49.848 37.3659 48.542 38.566 46.872 39.436C45.239 40.266 43.352 40.686 41.21 40.686C40.448 40.686 39.595 40.6158 38.652 40.4658C37.744 40.3258 36.873 40.1458 36.039 39.9258C35.24 39.7058 34.623 39.4658 34.188 39.2158C33.934 39.0658 33.734 38.9259 33.589 38.7759C33.444 38.5959 33.371 38.3058 33.371 37.9058L33.099 29.3657C33.063 28.6357 33.317 28.2759 33.861 28.2759C34.224 28.2759 34.496 28.5959 34.678 29.2559L35.222 31.436C36.529 36.406 38.924 38.966 42.408 39.106C44.368 39.106 45.892 38.4756 46.981 37.2056C48.07 35.9356 48.614 34.1856 48.614 31.9756C48.614 29.8356 48.033 27.8559 46.872 26.0459C45.711 24.2259 43.86 22.4157 41.319 20.5957C38.525 18.6757 36.474 16.8058 35.168 14.9858C33.897 13.1758 33.262 11.2558 33.262 9.21582C33.262 6.56582 34.242 4.4457 36.202 2.8457C38.162 1.2557 40.63 0.455566 43.606 0.455566C44.767 0.455566 45.874 0.585938 46.926 0.835938C48.015 1.08594 48.904 1.45578 49.594 1.92578C49.812 2.06578 49.975 2.23602 50.084 2.41602C50.229 2.59602 50.302 2.83598 50.302 3.12598L50.519 11.3457C50.519 11.9557 50.265 12.2656 49.757 12.2656C49.394 12.2656 49.14 12.0159 48.995 11.5059L48.614 9.98584C47.888 7.33584 47.054 5.3559 46.11 4.0459C45.203 2.7059 43.914 2.03564 42.245 2.03564C40.612 2.03564 39.305 2.55572 38.325 3.61572C37.345 4.62572 36.855 6.06602 36.855 7.91602C36.855 9.47602 37.382 10.966 38.434 12.376C39.486 13.796 41.356 15.5159 44.041 17.5459C46.872 19.7659 48.941 21.9056 50.247 23.9756ZM63.639 23.8057C64.002 23.4057 64.474 23.2158 65.055 23.2158C65.563 23.2158 65.998 23.4057 66.361 23.8057C66.76 24.1757 66.96 24.626 66.96 25.166C66.96 25.676 66.76 26.1356 66.361 26.5356C65.998 26.8956 65.563 27.0757 65.055 27.0757C64.51 27.0757 64.038 26.8956 63.639 26.5356C63.276 26.1356 63.095 25.676 63.095 25.166C63.095 24.626 63.276 24.1757 63.639 23.8057ZM11.868 36.2759C12.267 35.8759 12.721 35.6758 13.229 35.6758C13.737 35.6758 14.172 35.8759 14.535 36.2759C14.934 36.6359 15.134 37.0957 15.134 37.6357C15.134 38.1457 14.934 38.5956 14.535 38.9956C14.172 39.3656 13.737 39.5459 13.229 39.5459C12.721 39.5459 12.267 39.3656 11.868 38.9956C11.469 38.5956 11.269 38.1457 11.269 37.6357C11.269 37.0957 11.469 36.6359 11.868 36.2759Z" fill="black"/>
</svg>
