<svg width="135" height="41" viewBox="0 0 135 41" fill="none" xmlns="http://www.w3.org/2000/svg">
<path fill-rule="evenodd" clip-rule="evenodd" d="M88.953 25.3857H81.659C80.134 25.3557 77.902 25.2956 74.963 25.2256C74.781 25.1856 74.654 25.166 74.582 25.166H74.2C74.128 24.986 74.073 24.8458 74.037 24.7358V24.2456C74.11 24.0656 74.164 23.9357 74.2 23.8657C74.237 23.7557 74.291 23.6258 74.364 23.4858C74.763 23.4858 75.053 23.5056 75.235 23.5356C75.416 23.5756 75.688 23.5957 76.051 23.5957C77.213 23.6957 78.483 23.7957 79.862 23.8657C81.278 23.8957 82.874 23.8957 84.653 23.8657C85.778 23.8657 86.558 23.6258 86.994 23.1558C87.429 22.6458 87.647 21.9356 87.647 21.0356C87.647 19.0056 87.393 17.2359 86.885 15.7559C86.377 14.2659 85.379 13.5156 83.891 13.5156C82.874 13.5156 81.858 14.0259 80.842 15.0459C79.862 16.0259 79.154 17.5658 78.719 19.6758C78.683 19.8158 78.646 19.9457 78.61 20.0557C78.61 20.1257 78.592 20.2157 78.556 20.3257C78.374 21.0157 78.12 21.5458 77.793 21.9058C77.503 22.2658 77.049 22.4458 76.432 22.4458C75.924 22.4458 75.543 22.3056 75.289 22.0156C75.071 21.7256 74.944 21.3756 74.908 20.9756C74.908 20.5756 74.963 20.1959 75.071 19.8359C75.326 18.8159 75.834 17.7259 76.596 16.5659C77.358 15.3759 78.374 14.3556 79.644 13.5156C80.915 12.6456 82.366 12.2158 83.999 12.2158C85.342 12.2158 86.576 12.5358 87.701 13.1958C88.863 13.8458 89.788 14.9158 90.478 16.4058C91.204 17.8558 91.566 19.766 91.566 22.126C91.566 23.106 91.458 23.8259 91.24 24.2959C91.058 24.7759 90.786 25.0756 90.423 25.2256C90.097 25.3356 89.607 25.3857 88.953 25.3857ZM87.919 39.376C86.867 40.246 85.578 40.686 84.054 40.686C81.55 40.686 79.554 39.926 78.066 38.396C76.578 36.836 75.543 35.1356 74.963 33.2856C74.382 31.4356 74.073 29.966 74.037 28.876C74.001 28.396 74.037 28.0058 74.146 27.6758C74.291 27.3158 74.527 27.036 74.854 26.856C75.18 26.636 75.598 26.5356 76.106 26.5356C76.723 26.5356 77.195 26.7157 77.521 27.0757C77.848 27.4357 78.066 27.8557 78.174 28.3257V28.5459C78.211 28.5859 78.229 28.6356 78.229 28.7056V29.3657C78.229 29.5457 78.247 29.7458 78.283 29.9658C78.465 31.2658 78.773 32.5158 79.209 33.7158C79.644 34.8758 80.279 35.8956 81.114 36.7656C81.985 37.6056 83.074 38.0156 84.381 38.0156C85.614 38.0156 86.613 37.6758 87.375 36.9858C88.173 36.2558 88.754 35.476 89.117 34.646C89.516 33.776 89.806 32.8856 89.988 31.9756C90.097 31.5056 90.224 31.1756 90.369 30.9956C90.55 30.8156 90.768 30.7459 91.022 30.7759C91.349 30.8159 91.548 30.9756 91.621 31.2656C91.73 31.5256 91.73 31.8456 91.621 32.2456C91.331 33.6256 90.895 34.9556 90.314 36.2256C89.77 37.4556 88.972 38.506 87.919 39.376ZM14.045 24.4658C15.243 23.0458 17.185 21.6657 19.87 20.3257C22.157 19.1657 23.754 18.1256 24.661 17.2256C25.568 16.2756 26.022 15.2259 26.022 14.0659C26.022 13.4159 25.75 12.846 25.205 12.376C24.697 11.906 24.08 11.666 23.354 11.666C22.447 11.666 21.467 11.8857 20.415 12.3257C19.362 12.7557 17.965 13.4259 16.223 14.3359C14.118 15.4259 12.339 16.2557 10.888 16.8457C9.436 17.4257 8.003 17.7158 6.587 17.7158C5.535 17.7158 4.5 17.4257 3.484 16.8457C2.468 16.2557 1.633 15.446 0.98 14.396C0.327 13.336 0 12.1459 0 10.7959C0 9.3059 0.327 8.0559 0.98 7.0459C1.633 6.0259 2.432 5.2057 3.375 4.5957C4.101 4.1257 4.754 3.68564 5.335 3.28564C5.916 2.88564 6.442 2.5258 6.914 2.1958C7.712 1.6158 8.275 1.23566 8.601 1.05566C8.928 0.875664 9.273 0.785645 9.636 0.785645C10.216 0.785645 10.706 0.985977 11.106 1.37598C11.541 1.74598 11.759 2.2357 11.759 2.8457C11.759 3.3557 11.469 3.79576 10.888 4.15576C10.307 4.51576 9.364 5.00598 8.057 5.62598C7.585 5.80598 7.095 6.02588 6.587 6.27588C6.079 6.49588 5.589 6.73584 5.117 6.98584C4.21 7.45584 3.43 8.07594 2.776 8.83594C2.159 9.56594 1.851 10.3957 1.851 11.3457C1.851 12.0357 2.069 12.7556 2.504 13.5156C2.976 14.2856 3.738 14.666 4.791 14.666C5.589 14.666 6.46 14.4659 7.404 14.0659C8.384 13.6659 9.654 13.0258 11.214 12.1558C13.356 11.0358 15.17 10.186 16.658 9.60596C18.183 8.98596 19.725 8.67578 21.286 8.67578C22.737 8.67578 23.971 9.07598 24.988 9.87598C26.004 10.636 26.748 11.5756 27.22 12.7056C27.728 13.8256 27.982 14.8459 27.982 15.7559C27.982 17.0259 27.709 18.0958 27.165 18.9658C26.621 19.8358 25.895 20.5758 24.988 21.1958C24.116 21.7758 22.828 22.506 21.122 23.376C20.397 23.776 19.634 24.186 18.836 24.626C18.074 25.026 17.275 25.4758 16.441 25.9858C15.352 26.6758 14.59 27.2358 14.154 27.6758C13.755 28.1058 13.555 28.7056 13.555 29.4756V30.9956C13.555 31.2156 13.483 31.3758 13.338 31.4858C13.229 31.5958 13.084 31.646 12.902 31.646C12.721 31.646 12.557 31.5958 12.412 31.4858C12.303 31.3358 12.249 31.1756 12.249 30.9956V28.876C12.249 27.346 12.848 25.8758 14.045 24.4658ZM133.866 24.1357C134.12 24.2457 134.247 24.4258 134.247 24.6758C134.247 24.9758 134.12 25.2057 133.866 25.3857C133.612 25.5357 133.339 25.6258 133.049 25.6558C129.855 25.7658 127.405 25.856 125.7 25.936C123.994 25.966 121.472 25.9858 118.133 25.9858C117.879 25.6958 117.661 25.2956 117.479 24.7856C117.298 24.2856 117.189 23.6856 117.153 22.9956C117.116 22.3056 117.171 21.5556 117.316 20.7656C117.534 19.7856 117.86 18.816 118.296 17.876C118.768 16.936 119.367 16.0456 120.092 15.2056C120.818 14.3356 121.689 13.6457 122.706 13.1357C123.286 12.8457 123.921 12.6358 124.611 12.4858C125.337 12.3058 126.081 12.2158 126.843 12.2158C128.658 12.2158 130.109 12.686 131.198 13.626C132.287 14.536 133.103 15.6757 133.648 17.0557C133.793 17.4557 133.92 17.8559 134.029 18.2559C134.138 18.6159 134.21 18.906 134.247 19.126C134.392 19.886 134.192 20.5056 133.648 20.9756C133.103 21.4156 132.523 21.5257 131.906 21.3057C131.325 21.0557 130.98 20.4559 130.871 19.5059C130.799 19.2159 130.744 18.9458 130.708 18.6958C130.672 18.4058 130.617 18.1157 130.545 17.8257C130.363 17.0257 130.109 16.3158 129.783 15.6958C129.492 15.0858 129.093 14.5758 128.585 14.1758C128.113 13.7758 127.533 13.5757 126.843 13.5757C126.226 13.5757 125.627 13.7159 125.046 14.0059C124.466 14.2659 123.921 14.6458 123.413 15.1558C122.941 15.6658 122.524 16.2759 122.161 17.0059C121.798 17.6959 121.49 18.5156 121.236 19.4556C121.018 20.3656 120.836 21.3558 120.691 22.4458C120.655 23.1358 120.818 23.626 121.181 23.916C121.544 24.206 122.07 24.3758 122.76 24.4058H123.141C124.702 24.3758 125.881 24.3359 126.68 24.2959C127.514 24.2259 128.73 24.1559 130.327 24.0859C130.944 24.0059 131.416 23.9756 131.742 23.9756C132.069 23.9756 132.523 23.956 133.103 23.916C133.394 23.916 133.648 23.9957 133.866 24.1357ZM60.155 14.0059C61.788 12.7059 63.548 12.0557 65.436 12.0557C66.561 12.0557 67.486 12.2859 68.212 12.7559C68.974 13.2259 69.573 14.0456 70.009 15.2056C70.444 16.3656 70.698 18.006 70.771 20.106V20.4858C70.807 20.8558 70.789 21.1257 70.716 21.3057C70.68 21.4857 70.553 21.616 70.335 21.686C70.263 21.686 70.208 21.7056 70.172 21.7456H70.118C69.9 21.7756 69.718 21.7257 69.573 21.5757C69.464 21.4357 69.355 21.1957 69.246 20.8657L68.702 19.2358C68.158 17.4958 67.559 16.1157 66.906 15.0957C66.252 14.0857 65.345 13.5757 64.184 13.5757C63.131 13.5757 62.206 14.1958 61.407 15.4258C60.609 16.6258 59.992 18.1657 59.556 20.0557C59.121 21.9057 58.903 23.7758 58.903 25.6558C58.903 28.5658 59.175 30.9459 59.72 32.7959C60.264 34.6059 60.954 35.9158 61.788 36.7158C62.659 37.5058 63.548 37.9058 64.456 37.9058C65.98 37.9058 67.141 37.4057 67.94 36.3857C68.738 35.3657 69.355 34.2659 69.791 33.0659L69.9 32.7358C69.972 32.6258 70.063 32.516 70.172 32.416C70.281 32.266 70.408 32.1958 70.553 32.1958C70.843 32.1958 71.025 32.3056 71.097 32.5156C71.206 32.7356 71.224 32.9558 71.152 33.1758C70.607 35.7458 69.682 37.6758 68.375 38.9458C67.069 40.1758 65.472 40.7959 63.585 40.7959C61.77 40.7959 60.191 40.1557 58.849 38.8857C57.506 37.6157 56.471 35.966 55.746 33.936C55.056 31.866 54.711 29.7056 54.711 27.4556C54.711 24.4456 55.201 21.7756 56.181 19.4556C57.197 17.0956 58.522 15.2859 60.155 14.0059ZM131.525 38.5059C130.363 39.9959 128.676 40.7358 126.462 40.7358C124.72 40.7358 123.123 40.196 121.671 39.106C120.22 37.986 119.076 36.5259 118.242 34.7559C117.407 32.9759 116.971 31.1258 116.935 29.1958C116.935 28.6958 117.026 28.256 117.207 27.896C117.425 27.526 117.679 27.2557 117.969 27.0757C118.296 26.8557 118.586 26.7358 118.84 26.6958C119.131 26.6958 119.421 26.7858 119.711 26.9658C120.038 27.1158 120.31 27.3856 120.528 27.7856C120.746 28.1456 120.873 28.6359 120.909 29.2559C120.945 30.7759 121.199 32.2157 121.671 33.5557C122.179 34.8557 122.869 35.9158 123.74 36.7158C124.647 37.5058 125.663 37.9058 126.788 37.9058C128.022 37.9058 129.02 37.6357 129.783 37.0957C130.581 36.5157 131.18 35.8557 131.579 35.1357C131.978 34.4057 132.359 33.496 132.722 32.416C132.795 32.046 132.904 31.7556 133.049 31.5356C133.23 31.3256 133.466 31.266 133.757 31.376C134.047 31.486 134.174 31.6856 134.138 31.9756C134.138 32.2256 134.101 32.5059 134.029 32.7959C133.521 35.0759 132.686 36.9859 131.525 38.5059ZM113.124 29.9658C113.161 31.6658 113.179 34.2656 113.179 37.7456C113.179 38.5056 113.015 39.1458 112.689 39.6558C112.398 40.1258 111.927 40.356 111.273 40.356C110.729 40.356 110.275 40.1559 109.912 39.7559C109.549 39.3259 109.368 38.7456 109.368 38.0156C109.295 35.1556 109.241 31.8159 109.205 28.0059V18.4756C109.205 17.3156 108.751 16.2456 107.844 15.2656C106.973 14.2856 105.594 13.7959 103.706 13.7959C102.182 13.7959 100.966 14.3059 100.059 15.3159C99.188 16.2959 98.752 17.476 98.752 18.856V37.3057C98.752 38.1457 98.571 38.7758 98.208 39.2158C97.881 39.6558 97.391 39.8657 96.738 39.8657C96.158 39.8657 95.722 39.6656 95.432 39.2656C95.141 38.8756 94.978 38.3859 94.942 37.7959C94.905 36.3159 94.869 34.186 94.833 31.436V20.5459C94.833 19.3859 95.159 18.1457 95.813 16.8457C96.466 15.5357 97.446 14.4256 98.752 13.5156C100.095 12.6156 101.728 12.1558 103.652 12.1558C105.684 12.1558 107.426 12.5958 108.878 13.4658C110.33 14.3058 111.4 15.3359 112.09 16.5659C112.78 17.7659 113.124 18.9056 113.124 19.9956V29.9658ZM50.138 23.9756C51.445 26.0056 52.098 28.1859 52.098 30.5059C52.098 32.5359 51.626 34.3159 50.683 35.8359C49.739 37.3659 48.433 38.566 46.763 39.436C45.13 40.266 43.243 40.686 41.102 40.686C40.339 40.686 39.486 40.6158 38.543 40.4658C37.636 40.3258 36.765 40.1458 35.93 39.9258C35.131 39.7058 34.514 39.4658 34.079 39.2158C33.825 39.0658 33.625 38.9259 33.48 38.7759C33.335 38.5959 33.262 38.3058 33.262 37.9058L32.99 29.3657C32.954 28.6357 33.208 28.2759 33.752 28.2759C34.115 28.2759 34.387 28.5959 34.569 29.2559L35.168 31.4858C36.402 36.3458 38.779 38.886 42.299 39.106C44.259 39.106 45.783 38.4756 46.872 37.2056C47.961 35.8956 48.505 34.1358 48.505 31.9258C48.505 29.7758 47.925 27.8058 46.763 25.9858C45.602 24.1758 43.751 22.3559 41.21 20.5459C38.416 18.6159 36.365 16.746 35.059 14.936C33.789 13.086 33.153 11.1457 33.153 9.11572C33.153 6.53572 34.133 4.4457 36.093 2.8457C38.053 1.2557 40.503 0.455566 43.442 0.455566C44.604 0.455566 45.729 0.585938 46.818 0.835938C47.906 1.08594 48.795 1.45578 49.485 1.92578C49.703 2.06578 49.866 2.23602 49.975 2.41602C50.12 2.59602 50.193 2.83598 50.193 3.12598L50.411 11.3457C50.411 11.9557 50.175 12.2656 49.703 12.2656C49.304 12.2656 49.031 12.0159 48.886 11.5059L48.505 9.92578C47.816 7.31578 46.999 5.3559 46.055 4.0459C45.148 2.7059 43.86 2.03564 42.19 2.03564C40.521 2.03564 39.196 2.55572 38.216 3.61572C37.236 4.62572 36.746 6.06602 36.746 7.91602C36.746 9.47602 37.273 10.966 38.325 12.376C39.378 13.796 41.247 15.5159 43.932 17.5459C46.763 19.7659 48.832 21.9056 50.138 23.9756ZM63.476 23.8057C63.839 23.4057 64.311 23.2158 64.891 23.2158C65.399 23.2158 65.835 23.4057 66.198 23.8057C66.597 24.1757 66.797 24.626 66.797 25.166C66.797 25.676 66.597 26.1356 66.198 26.5356C65.835 26.8956 65.399 27.0757 64.891 27.0757C64.347 27.0757 63.875 26.8956 63.476 26.5356C63.113 26.1356 62.932 25.676 62.932 25.166C62.932 24.626 63.113 24.1757 63.476 23.8057ZM11.868 36.2759C12.267 35.8759 12.721 35.6758 13.229 35.6758C13.737 35.6758 14.172 35.8759 14.535 36.2759C14.934 36.6359 15.134 37.0957 15.134 37.6357C15.134 38.1457 14.934 38.5956 14.535 38.9956C14.172 39.3656 13.737 39.5459 13.229 39.5459C12.721 39.5459 12.267 39.3656 11.868 38.9956C11.469 38.5956 11.269 38.1457 11.269 37.6357C11.269 37.0957 11.469 36.6359 11.868 36.2759Z" fill="black"/>
</svg>
