<svg width="135" height="41" viewBox="0 0 135 41" fill="none" xmlns="http://www.w3.org/2000/svg">
<path fill-rule="evenodd" clip-rule="evenodd" d="M88.627 25.4458H88.137C85.233 25.4458 83.001 25.4257 81.441 25.3857C79.917 25.3557 77.739 25.2956 74.908 25.2256C74.727 25.1856 74.6 25.166 74.527 25.166H74.146C74.037 24.986 73.965 24.8458 73.928 24.7358C73.892 24.5858 73.892 24.4256 73.928 24.2456C73.965 24.0256 74.001 23.8857 74.037 23.8057C74.11 23.6957 74.2 23.5758 74.309 23.4258C74.672 23.4658 74.944 23.5056 75.126 23.5356C75.307 23.5356 75.58 23.5557 75.942 23.5957C77.14 23.7357 78.429 23.846 79.808 23.916C81.187 23.956 82.747 23.956 84.489 23.916C85.614 23.886 86.395 23.6258 86.83 23.1558C87.302 22.6458 87.538 21.9256 87.538 20.9756C87.538 18.9856 87.284 17.2359 86.776 15.7559C86.268 14.2659 85.27 13.5156 83.782 13.5156C82.729 13.5156 81.713 14.0058 80.733 14.9858C79.753 15.9658 79.046 17.5157 78.61 19.6157L78.501 19.9458C78.501 20.0158 78.483 20.1259 78.447 20.2759C78.265 20.9559 78.011 21.4857 77.685 21.8457C77.394 22.2157 76.941 22.396 76.324 22.396C75.852 22.396 75.489 22.2456 75.235 21.9556C74.981 21.6656 74.836 21.3258 74.799 20.9258C74.799 20.5258 74.854 20.1456 74.963 19.7856C75.217 18.7656 75.725 17.6756 76.487 16.5156C77.249 15.3556 78.265 14.3556 79.535 13.5156C80.806 12.6456 82.257 12.2158 83.891 12.2158C85.197 12.2158 86.413 12.5358 87.538 13.1958C88.699 13.8458 89.643 14.896 90.369 16.356C91.095 17.806 91.458 19.6856 91.458 22.0156C91.458 23.0256 91.331 23.7959 91.077 24.2959C90.859 24.7759 90.568 25.0959 90.206 25.2759C89.843 25.4259 89.316 25.4758 88.627 25.4458ZM87.756 39.376C86.703 40.246 85.433 40.686 83.945 40.686C81.441 40.686 79.445 39.926 77.957 38.396C76.469 36.876 75.434 35.206 74.854 33.396C74.273 31.536 73.965 30.0658 73.928 28.9858C73.892 28.5058 73.928 28.0956 74.037 27.7256C74.182 27.3656 74.418 27.096 74.745 26.916C75.071 26.696 75.489 26.5859 75.997 26.5859C76.614 26.5859 77.086 26.766 77.412 27.126C77.739 27.496 77.957 27.9057 78.066 28.3857V28.7656C78.102 28.9856 78.12 29.196 78.12 29.416C78.12 29.596 78.138 29.7956 78.174 30.0156C78.32 31.3256 78.61 32.5759 79.046 33.7759C79.517 34.9359 80.171 35.9356 81.005 36.7656C81.84 37.6056 82.911 38.0156 84.217 38.0156C85.451 38.0156 86.449 37.6758 87.211 36.9858C88.01 36.2558 88.59 35.476 88.953 34.646C89.353 33.776 89.643 32.8856 89.824 31.9756C89.897 31.4656 90.024 31.1258 90.206 30.9458C90.387 30.7558 90.623 30.6856 90.913 30.7256C91.24 30.7956 91.458 30.9756 91.566 31.2656C91.675 31.5256 91.657 31.8657 91.512 32.3057C91.222 33.6857 90.786 34.9856 90.206 36.2256C89.625 37.4556 88.808 38.506 87.756 39.376ZM14.045 24.4658C15.243 23.0458 17.185 21.6657 19.87 20.3257C22.193 19.1657 23.808 18.1256 24.715 17.2256C25.623 16.2756 26.076 15.2457 26.076 14.1157C26.076 13.4257 25.804 12.846 25.26 12.376C24.715 11.906 24.08 11.666 23.354 11.666C22.447 11.666 21.467 11.906 20.415 12.376C19.398 12.816 18.001 13.486 16.223 14.396C14.118 15.476 12.339 16.316 10.888 16.896C9.472 17.436 8.039 17.7158 6.587 17.7158C5.535 17.7158 4.5 17.4257 3.484 16.8457C2.468 16.2557 1.633 15.4658 0.98 14.4458C0.327 13.3958 0 12.1759 0 10.7959C0 9.3059 0.327 8.0559 0.98 7.0459C1.633 6.0259 2.432 5.2057 3.375 4.5957C4.101 4.1257 4.754 3.68564 5.335 3.28564C5.916 2.88564 6.442 2.5258 6.914 2.1958C7.712 1.6158 8.275 1.23566 8.601 1.05566C8.964 0.875664 9.309 0.785645 9.636 0.785645C10.216 0.785645 10.706 0.985977 11.106 1.37598C11.541 1.74598 11.759 2.2357 11.759 2.8457C11.759 3.3557 11.469 3.79576 10.888 4.15576C10.307 4.51576 9.364 5.00598 8.057 5.62598C7.585 5.80598 7.095 6.02588 6.587 6.27588C6.115 6.49588 5.625 6.73584 5.117 6.98584C4.21 7.45584 3.43 8.07594 2.776 8.83594C2.159 9.56594 1.851 10.3957 1.851 11.3457C1.851 12.0357 2.069 12.7757 2.504 13.5757C2.976 14.3357 3.738 14.7158 4.791 14.7158C5.589 14.7158 6.46 14.5157 7.404 14.1157C8.384 13.7157 9.654 13.0858 11.214 12.2158C13.356 11.0558 15.17 10.186 16.658 9.60596C18.183 8.98596 19.725 8.67578 21.286 8.67578C22.774 8.67578 24.026 9.07598 25.042 9.87598C26.058 10.676 26.802 11.6359 27.274 12.7559C27.782 13.8459 28.036 14.8459 28.036 15.7559C28.036 17.0259 27.764 18.0958 27.22 18.9658C26.675 19.8358 25.949 20.5758 25.042 21.1958C24.171 21.7758 22.864 22.506 21.122 23.376C20.397 23.776 19.634 24.186 18.836 24.626C18.074 25.026 17.275 25.4758 16.441 25.9858C15.352 26.6758 14.59 27.2556 14.154 27.7256C13.755 28.1656 13.555 28.7659 13.555 29.5259V31.0459C13.555 31.2659 13.483 31.4356 13.338 31.5356C13.229 31.6456 13.084 31.7056 12.902 31.7056C12.721 31.7056 12.557 31.6456 12.412 31.5356C12.303 31.3956 12.249 31.2359 12.249 31.0459V28.9258C12.249 27.3658 12.848 25.8758 14.045 24.4658ZM133.757 24.2456C133.974 24.3556 134.083 24.5356 134.083 24.7856C134.12 25.1156 134.011 25.3556 133.757 25.4956C133.503 25.6456 133.23 25.7356 132.94 25.7656C129.855 25.9556 127.478 26.0956 125.809 26.2056C124.175 26.2756 121.744 26.3159 118.514 26.3159C118.151 26.0259 117.824 25.6257 117.534 25.1157C117.28 24.5757 117.098 23.9358 116.989 23.2158C116.917 22.4858 116.953 21.6859 117.098 20.8159C117.316 19.7959 117.643 18.816 118.078 17.876C118.55 16.896 119.149 15.9858 119.875 15.1558C120.637 14.3158 121.508 13.6457 122.488 13.1357C123.105 12.8157 123.758 12.576 124.448 12.436C125.173 12.286 125.917 12.2158 126.68 12.2158C128.494 12.2158 129.946 12.6657 131.035 13.5757C132.124 14.4857 132.958 15.6058 133.539 16.9458C133.684 17.3458 133.793 17.7257 133.866 18.0957C133.974 18.4557 134.065 18.7656 134.138 19.0156C134.247 19.7456 134.047 20.3256 133.539 20.7656C133.031 21.1556 132.486 21.2556 131.906 21.0356C131.361 20.8156 131.017 20.2557 130.871 19.3457C130.799 19.0957 130.744 18.8359 130.708 18.5859C130.672 18.2959 130.617 18.0256 130.545 17.7656C130.363 16.9656 130.109 16.2758 129.783 15.6958C129.456 15.0858 129.039 14.5758 128.531 14.1758C128.022 13.7758 127.405 13.5757 126.68 13.5757C126.063 13.5757 125.464 13.7159 124.883 14.0059C124.302 14.2659 123.758 14.6458 123.25 15.1558C122.778 15.6658 122.343 16.2759 121.943 17.0059C121.58 17.6959 121.272 18.496 121.018 19.396C120.8 20.306 120.619 21.306 120.474 22.396C120.437 23.156 120.619 23.7159 121.018 24.0859C121.453 24.4059 122.034 24.586 122.76 24.626H123.196C124.72 24.626 125.881 24.5856 126.68 24.5156C127.514 24.4456 128.73 24.3556 130.327 24.2456C130.908 24.1756 131.343 24.1357 131.634 24.1357C131.96 24.0957 132.414 24.0859 132.995 24.0859C133.285 24.0459 133.539 24.0956 133.757 24.2456ZM59.937 14.0059C61.571 12.7059 63.313 12.0557 65.164 12.0557C66.325 12.0557 67.269 12.2859 67.994 12.7559C68.757 13.2259 69.374 14.0456 69.845 15.2056C70.317 16.3656 70.589 18.006 70.662 20.106V20.2759C70.698 20.3059 70.716 20.3758 70.716 20.4858C70.716 20.8158 70.68 21.0857 70.607 21.3057C70.571 21.4857 70.444 21.5957 70.226 21.6357C70.19 21.6357 70.154 21.646 70.118 21.686C70.081 21.686 70.045 21.7056 70.009 21.7456C69.791 21.7456 69.609 21.6659 69.464 21.5259C69.355 21.3759 69.246 21.1459 69.138 20.8159L68.648 19.2358C68.067 17.4958 67.45 16.1157 66.797 15.0957C66.143 14.0457 65.218 13.5156 64.02 13.5156C62.968 13.5156 62.042 14.136 61.244 15.376C60.446 16.606 59.829 18.1657 59.393 20.0557C58.994 21.9057 58.794 23.7958 58.794 25.7158C58.794 28.6158 59.066 30.9759 59.611 32.7959C60.155 34.6059 60.845 35.9158 61.679 36.7158C62.514 37.5058 63.403 37.9058 64.347 37.9058C65.835 37.9058 66.978 37.4057 67.777 36.3857C68.611 35.3657 69.246 34.2659 69.682 33.0659L69.791 32.7358C69.863 32.6258 69.954 32.516 70.063 32.416C70.172 32.266 70.299 32.1958 70.444 32.1958C70.734 32.1958 70.916 32.3056 70.989 32.5156C71.097 32.7356 71.116 32.9558 71.043 33.1758C70.499 35.7458 69.573 37.6758 68.266 38.9458C66.96 40.1758 65.363 40.7959 63.476 40.7959C61.661 40.7959 60.064 40.1557 58.685 38.8857C57.342 37.6157 56.326 35.966 55.637 33.936C54.947 31.866 54.602 29.7056 54.602 27.4556C54.602 24.4856 55.092 21.8156 56.072 19.4556C57.052 17.0956 58.341 15.2859 59.937 14.0059ZM131.307 38.5659C130.146 40.0159 128.494 40.7358 126.353 40.7358C124.575 40.7358 122.96 40.216 121.508 39.166C120.092 38.076 118.967 36.6758 118.133 34.9658C117.334 33.2258 116.899 31.4159 116.826 29.5259C116.826 29.0159 116.917 28.5858 117.098 28.2158C117.28 27.8558 117.516 27.5858 117.806 27.4058C118.133 27.1858 118.441 27.0559 118.732 27.0259C118.986 27.0259 119.258 27.0958 119.548 27.2358C119.875 27.3858 120.147 27.6557 120.365 28.0557C120.619 28.4157 120.746 28.9059 120.746 29.5259C120.818 31.0159 121.091 32.396 121.562 33.666C122.07 34.936 122.76 35.9656 123.631 36.7656C124.502 37.5656 125.5 37.9658 126.625 37.9658C127.823 37.9658 128.803 37.696 129.565 37.146C130.363 36.566 130.962 35.916 131.361 35.186C131.797 34.466 132.178 33.5756 132.505 32.5156C132.613 32.1556 132.74 31.8856 132.886 31.7056C133.067 31.4856 133.303 31.4356 133.593 31.5356C133.884 31.6156 134.011 31.7959 133.974 32.0859C133.974 32.3759 133.938 32.6656 133.866 32.9556C133.321 35.2056 132.468 37.0759 131.307 38.5659ZM113.015 30.0156C113.052 31.7256 113.07 34.3159 113.07 37.7959C113.07 38.5659 112.907 39.1956 112.58 39.7056C112.253 40.1756 111.781 40.416 111.164 40.416C110.584 40.416 110.112 40.2159 109.749 39.8159C109.422 39.3759 109.259 38.7756 109.259 38.0156C109.187 35.2256 109.132 31.9057 109.096 28.0557V18.4756C109.096 17.3156 108.642 16.2456 107.735 15.2656C106.864 14.2856 105.467 13.7959 103.543 13.7959C102.055 13.7959 100.857 14.3059 99.95 15.3159C99.079 16.2959 98.644 17.476 98.644 18.856V30.126C98.607 31.646 98.589 32.8458 98.589 33.7158V37.2056C98.589 37.9956 98.408 38.636 98.045 39.106C97.718 39.546 97.246 39.7559 96.629 39.7559C96.012 39.7559 95.559 39.556 95.268 39.166C94.978 38.726 94.833 38.2358 94.833 37.6958C94.76 36.0958 94.706 33.9556 94.67 31.2656C94.67 28.5856 94.688 25.9156 94.724 23.2656V20.5459C94.724 19.3859 95.051 18.1457 95.704 16.8457C96.357 15.5357 97.337 14.4256 98.644 13.5156C99.986 12.6156 101.62 12.1558 103.543 12.1558C105.575 12.1558 107.299 12.5958 108.715 13.4658C110.166 14.3058 111.237 15.3359 111.927 16.5659C112.652 17.7659 113.015 18.9056 113.015 19.9956V30.0156ZM50.03 23.9756C51.336 26.0056 51.989 28.1859 51.989 30.5059C51.989 32.5359 51.518 34.3159 50.574 35.8359C49.63 37.3659 48.324 38.566 46.654 39.436C45.021 40.266 43.134 40.686 40.993 40.686C40.23 40.686 39.378 40.6158 38.434 40.4658C37.527 40.3258 36.656 40.1458 35.821 39.9258C35.022 39.7058 34.406 39.4658 33.97 39.2158C33.716 39.0658 33.516 38.9259 33.371 38.7759C33.226 38.5959 33.153 38.3058 33.153 37.9058L32.881 29.3657C32.845 28.6357 33.099 28.2759 33.643 28.2759C34.006 28.2759 34.278 28.5959 34.46 29.2559L35.059 31.5356C36.293 36.2956 38.67 38.816 42.19 39.106C44.186 39.106 45.711 38.456 46.763 37.146C47.852 35.806 48.396 34.0259 48.396 31.8159C48.396 29.6759 47.816 27.716 46.654 25.936C45.493 24.116 43.642 22.3058 41.102 20.4858C38.307 18.5658 36.256 16.6957 34.95 14.8857C33.68 13.0257 33.045 11.0857 33.045 9.05566C33.045 6.51566 34.006 4.4457 35.93 2.8457C37.89 1.2557 40.339 0.455566 43.279 0.455566C44.44 0.455566 45.566 0.585938 46.654 0.835938C47.779 1.08594 48.687 1.45578 49.376 1.92578C49.594 2.06578 49.757 2.23602 49.866 2.41602C50.011 2.59602 50.084 2.83598 50.084 3.12598L50.302 11.3457C50.302 11.9557 50.066 12.2656 49.594 12.2656C49.195 12.2656 48.923 12.0159 48.777 11.5059L48.396 9.87598C47.707 7.33598 46.908 5.3959 46.001 4.0459C45.094 2.7059 43.787 2.03564 42.081 2.03564C40.448 2.03564 39.124 2.55572 38.107 3.61572C37.127 4.62572 36.638 6.06602 36.638 7.91602C36.638 9.47602 37.164 10.966 38.216 12.376C39.269 13.796 41.138 15.5159 43.823 17.5459C46.654 19.7659 48.723 21.9056 50.03 23.9756ZM63.367 23.8057C63.73 23.4057 64.202 23.2158 64.782 23.2158C65.29 23.2158 65.726 23.4057 66.089 23.8057C66.488 24.1757 66.688 24.626 66.688 25.166C66.688 25.676 66.488 26.1356 66.089 26.5356C65.726 26.8956 65.29 27.0757 64.782 27.0757C64.238 27.0757 63.766 26.8956 63.367 26.5356C63.004 26.1356 62.823 25.676 62.823 25.166C62.823 24.626 63.004 24.1757 63.367 23.8057ZM11.813 36.2759C12.213 35.8759 12.666 35.6758 13.174 35.6758C13.682 35.6758 14.118 35.8759 14.481 36.2759C14.88 36.6359 15.08 37.0957 15.08 37.6357C15.08 38.1457 14.88 38.5956 14.481 38.9956C14.118 39.3656 13.682 39.5459 13.174 39.5459C12.666 39.5459 12.213 39.3656 11.813 38.9956C11.414 38.5956 11.214 38.1457 11.214 37.6357C11.214 37.0957 11.414 36.6359 11.813 36.2759Z" fill="black"/>
</svg>
