<svg width="135" height="41" viewBox="0 0 135 41" fill="none" xmlns="http://www.w3.org/2000/svg">
<path fill-rule="evenodd" clip-rule="evenodd" d="M88.355 25.5557H87.81C84.979 25.5557 82.784 25.5356 81.223 25.4956C79.699 25.4256 77.558 25.316 74.799 25.166H74.418C74.346 25.166 74.237 25.1557 74.092 25.1157C73.983 24.9757 73.892 24.8258 73.819 24.6758C73.783 24.5358 73.765 24.376 73.765 24.186C73.838 23.976 73.892 23.8058 73.928 23.6958C74.001 23.5958 74.11 23.5058 74.255 23.4258C74.618 23.4258 74.89 23.4458 75.071 23.4858C75.253 23.5158 75.525 23.5356 75.888 23.5356C77.049 23.7156 78.32 23.846 79.699 23.916C81.078 23.996 82.62 24.0056 84.326 23.9756C85.487 23.9356 86.286 23.6658 86.721 23.1558C87.157 22.6458 87.375 21.9058 87.375 20.9258C87.375 18.9658 87.121 17.2359 86.613 15.7559C86.104 14.2659 85.106 13.5156 83.618 13.5156C82.602 13.5156 81.604 14.0058 80.624 14.9858C79.681 15.9658 78.973 17.4959 78.501 19.5659C78.465 19.6759 78.429 19.7857 78.392 19.8857C78.392 19.9657 78.374 20.056 78.338 20.166C78.156 20.856 77.902 21.3959 77.576 21.7959C77.285 22.1559 76.832 22.3359 76.215 22.3359C75.743 22.3359 75.38 22.1958 75.126 21.9058C74.872 21.6158 74.727 21.2657 74.69 20.8657C74.69 20.4657 74.745 20.0758 74.854 19.6758C75.108 18.6958 75.616 17.6356 76.378 16.5156C77.14 15.3556 78.138 14.3556 79.372 13.5156C80.642 12.6456 82.094 12.2158 83.727 12.2158C85.07 12.2158 86.304 12.5358 87.429 13.1958C88.554 13.8158 89.48 14.866 90.206 16.356C90.931 17.806 91.294 19.6558 91.294 21.9058C91.294 22.9558 91.167 23.7356 90.913 24.2456C90.659 24.7556 90.333 25.0959 89.933 25.2759C89.534 25.4659 89.008 25.5557 88.355 25.5557ZM87.647 39.436C86.594 40.306 85.324 40.7358 83.836 40.7358C81.332 40.7358 79.336 39.9756 77.848 38.4556C76.36 36.8956 75.326 35.2258 74.745 33.4458C74.164 31.6258 73.838 30.1656 73.765 29.0356C73.729 28.5656 73.765 28.1456 73.874 27.7856C74.019 27.4156 74.255 27.1458 74.582 26.9658C74.908 26.7858 75.326 26.6958 75.834 26.6958C76.451 26.6958 76.922 26.8758 77.249 27.2358C77.576 27.5658 77.793 27.9856 77.902 28.4956V28.7056C77.939 28.7456 77.957 28.7859 77.957 28.8159V29.4756C77.993 29.6556 78.029 29.8559 78.066 30.0659C78.211 31.4159 78.501 32.6657 78.937 33.8257C79.372 34.9857 80.007 35.9859 80.842 36.8159C81.713 37.6559 82.802 38.0757 84.108 38.0757C85.306 38.0757 86.286 37.7058 87.048 36.9858C87.846 36.2558 88.427 35.476 88.79 34.646C89.153 33.776 89.425 32.8856 89.607 31.9756C89.716 31.4656 89.861 31.1258 90.042 30.9458C90.26 30.7258 90.514 30.6556 90.804 30.7256C91.131 30.7556 91.349 30.9258 91.458 31.2158C91.566 31.5058 91.548 31.886 91.403 32.356C91.077 33.696 90.623 34.9856 90.042 36.2256C89.498 37.4556 88.699 38.526 87.647 39.436ZM14.045 24.5156C15.243 23.0656 17.203 21.6657 19.925 20.3257C22.211 19.1657 23.808 18.1256 24.715 17.2256C25.623 16.2756 26.076 15.2457 26.076 14.1157C26.076 13.4657 25.804 12.906 25.26 12.436C24.752 11.956 24.135 11.7256 23.409 11.7256C22.502 11.7256 21.522 11.946 20.469 12.376C19.417 12.816 18.001 13.486 16.223 14.396C14.154 15.476 12.394 16.316 10.942 16.896C9.491 17.436 8.057 17.7158 6.642 17.7158C5.553 17.7158 4.5 17.4257 3.484 16.8457C2.468 16.2557 1.633 15.4658 0.98 14.4458C0.327 13.3958 0 12.196 0 10.856C0 9.32596 0.327 8.0559 0.98 7.0459C1.633 6.0259 2.432 5.2057 3.375 4.5957C4.101 4.1257 4.754 3.68564 5.335 3.28564C5.916 2.88564 6.442 2.5258 6.914 2.1958C7.712 1.6158 8.275 1.23566 8.601 1.05566C8.964 0.875664 9.309 0.785645 9.636 0.785645C10.216 0.785645 10.706 0.985977 11.106 1.37598C11.541 1.74598 11.759 2.2357 11.759 2.8457C11.759 3.3557 11.469 3.79576 10.888 4.15576C10.343 4.51576 9.4 5.00598 8.057 5.62598C7.585 5.80598 7.095 6.02588 6.587 6.27588C6.115 6.49588 5.644 6.73584 5.172 6.98584C4.228 7.45584 3.43 8.07594 2.776 8.83594C2.159 9.56594 1.851 10.416 1.851 11.396C1.851 12.086 2.087 12.8157 2.559 13.5757C3.03 14.3357 3.793 14.7158 4.845 14.7158C5.644 14.7158 6.515 14.5157 7.458 14.1157C8.402 13.7157 9.654 13.0858 11.214 12.2158C13.356 11.0558 15.189 10.186 16.713 9.60596C18.237 9.01596 19.78 8.72559 21.34 8.72559C22.792 8.72559 24.026 9.12578 25.042 9.92578C26.058 10.6858 26.802 11.6359 27.274 12.7559C27.782 13.8459 28.036 14.8459 28.036 15.7559C28.036 17.0259 27.764 18.0958 27.22 18.9658C26.675 19.8358 25.949 20.5758 25.042 21.1958C24.171 21.7758 22.883 22.5258 21.177 23.4258C20.451 23.8258 19.689 24.2458 18.89 24.6758C18.092 25.0758 17.275 25.5359 16.441 26.0459C15.352 26.7359 14.59 27.2956 14.154 27.7256C13.755 28.1656 13.555 28.7659 13.555 29.5259V31.0459C13.555 31.2659 13.483 31.4356 13.338 31.5356C13.229 31.6456 13.084 31.7056 12.902 31.7056C12.721 31.7056 12.557 31.6456 12.412 31.5356C12.303 31.3956 12.249 31.2359 12.249 31.0459V28.9258C12.249 27.4058 12.848 25.9356 14.045 24.5156ZM133.593 24.4058C133.847 24.5158 133.974 24.6956 133.974 24.9556C133.974 25.2456 133.847 25.4758 133.593 25.6558C133.376 25.8058 133.122 25.896 132.831 25.936C129.855 26.146 127.551 26.3158 125.917 26.4258C124.321 26.5358 121.962 26.5859 118.84 26.5859C118.369 26.3359 117.951 25.9357 117.588 25.3857C117.262 24.8457 117.026 24.1858 116.881 23.4258C116.772 22.6258 116.79 21.7757 116.935 20.8657C117.116 19.8557 117.425 18.856 117.861 17.876C118.332 16.896 118.931 15.9858 119.657 15.1558C120.419 14.3158 121.308 13.6457 122.325 13.1357C122.905 12.8157 123.558 12.576 124.284 12.436C125.01 12.246 125.772 12.1558 126.571 12.1558C128.349 12.1558 129.783 12.6156 130.871 13.5156C131.996 14.4256 132.849 15.5357 133.43 16.8457C133.575 17.2057 133.684 17.5658 133.757 17.9258L134.029 18.856C134.138 19.546 133.956 20.1059 133.484 20.5459C133.013 20.9459 132.486 21.0359 131.906 20.8159C131.361 20.5959 131.035 20.0758 130.926 19.2358C130.853 18.9858 130.781 18.7256 130.708 18.4756C130.672 18.2156 130.617 17.9658 130.545 17.7158C130.327 16.9458 130.037 16.2758 129.674 15.6958C129.347 15.0858 128.912 14.5956 128.367 14.2256C127.859 13.8256 127.26 13.626 126.571 13.626C125.917 13.626 125.3 13.7559 124.72 14.0059C124.139 14.2659 123.595 14.6458 123.087 15.1558C122.579 15.6258 122.125 16.2258 121.726 16.9458C121.363 17.6358 121.054 18.4357 120.8 19.3457C120.546 20.2157 120.383 21.1956 120.31 22.2856C120.238 23.1156 120.437 23.7357 120.909 24.1357C121.381 24.5357 121.998 24.7757 122.76 24.8457C122.869 24.8457 122.941 24.866 122.978 24.896H123.25C124.738 24.866 125.899 24.8058 126.734 24.7358C127.569 24.6258 128.766 24.496 130.327 24.356C130.871 24.316 131.289 24.2959 131.579 24.2959C131.906 24.2659 132.341 24.226 132.886 24.186C133.14 24.186 133.376 24.2658 133.593 24.4058ZM59.774 14.0059C61.371 12.6659 63.095 11.9956 64.946 11.9956C66.071 11.9956 67.014 12.2459 67.777 12.7559C68.575 13.2259 69.21 14.0656 69.682 15.2656C70.19 16.4256 70.499 18.0257 70.607 20.0557V20.436C70.644 20.766 70.626 21.0359 70.553 21.2559C70.48 21.4359 70.335 21.5457 70.118 21.5757C70.081 21.6157 70.045 21.646 70.009 21.686H69.9C69.682 21.726 69.501 21.6659 69.355 21.5259C69.246 21.3459 69.138 21.1059 69.029 20.8159L68.539 19.2358C67.994 17.5358 67.377 16.1557 66.688 15.0957C65.998 14.0457 65.073 13.5156 63.911 13.5156C62.823 13.5156 61.879 14.136 61.081 15.376C60.318 16.566 59.72 18.1257 59.284 20.0557C58.849 21.9357 58.631 23.8456 58.631 25.7656C58.631 28.6356 58.903 30.9759 59.447 32.7959C59.992 34.6059 60.681 35.9158 61.516 36.7158C62.351 37.5058 63.24 37.9058 64.184 37.9058C65.708 37.9058 66.869 37.4057 67.668 36.3857C68.466 35.3657 69.083 34.2659 69.519 33.0659L69.628 32.7358C69.7 32.6258 69.791 32.516 69.9 32.416C70.009 32.266 70.136 32.1958 70.281 32.1958C70.571 32.1958 70.753 32.3056 70.825 32.5156C70.934 32.7356 70.952 32.9558 70.88 33.1758C70.335 35.7458 69.41 37.6758 68.103 38.9458C66.797 40.1758 65.2 40.7959 63.313 40.7959C61.498 40.7959 59.919 40.1557 58.576 38.8857C57.234 37.6157 56.217 35.966 55.528 33.936C54.838 31.866 54.493 29.7056 54.493 27.4556C54.493 24.5156 54.965 21.8659 55.909 19.5059C56.889 17.1459 58.177 15.3159 59.774 14.0059ZM131.035 38.5659C129.91 40.0159 128.295 40.7358 126.19 40.7358C124.411 40.7358 122.814 40.216 121.399 39.166C119.984 38.106 118.877 36.7457 118.078 35.0757C117.28 33.4057 116.844 31.6459 116.772 29.7959C116.735 29.3259 116.808 28.9059 116.989 28.5459C117.171 28.1459 117.407 27.8558 117.697 27.6758C118.024 27.4558 118.314 27.3457 118.568 27.3457C118.859 27.3157 119.149 27.3859 119.439 27.5659C119.766 27.7159 120.038 27.9657 120.256 28.3257C120.474 28.6957 120.601 29.1859 120.637 29.7959C120.709 31.2159 120.982 32.5557 121.453 33.8257C121.925 35.0557 122.597 36.0559 123.468 36.8159C124.339 37.5859 125.337 37.9658 126.462 37.9658C127.623 37.9658 128.585 37.7056 129.347 37.2056C130.109 36.6556 130.708 36.0259 131.144 35.2959C131.579 34.5659 131.978 33.696 132.341 32.686C132.414 32.316 132.523 32.0259 132.668 31.8159C132.849 31.5959 133.085 31.536 133.376 31.646C133.666 31.756 133.793 31.9556 133.757 32.2456C133.757 32.5356 133.72 32.8059 133.648 33.0659C133.067 35.2759 132.196 37.1159 131.035 38.5659ZM112.852 30.0156C112.888 31.7256 112.907 34.336 112.907 37.856C112.907 38.616 112.743 39.2559 112.417 39.7559C112.126 40.2359 111.654 40.4658 111.001 40.4658C110.457 40.4658 110.003 40.2657 109.64 39.8657C109.277 39.4357 109.096 38.8357 109.096 38.0757C109.023 35.3457 108.969 32.046 108.932 28.166V18.4756C108.932 17.3156 108.479 16.2456 107.572 15.2656C106.7 14.2856 105.321 13.7959 103.434 13.7959C101.91 13.7959 100.694 14.3059 99.787 15.3159C98.916 16.2959 98.48 17.476 98.48 18.856V37.0957C98.48 37.8957 98.299 38.5058 97.936 38.9458C97.573 39.3758 97.083 39.5957 96.466 39.5957C95.885 39.5957 95.45 39.3956 95.159 38.9956C94.869 38.5956 94.706 38.1059 94.67 37.5259C94.633 35.8959 94.597 33.7758 94.561 31.1558V20.5459C94.561 19.3859 94.887 18.1457 95.54 16.8457C96.194 15.5357 97.174 14.4256 98.48 13.5156C99.823 12.6156 101.456 12.1558 103.38 12.1558C105.412 12.1558 107.154 12.5958 108.606 13.4658C110.058 14.3058 111.128 15.3359 111.818 16.5659C112.507 17.7659 112.852 18.9056 112.852 19.9956V30.0156ZM49.921 23.9756C51.227 26.0056 51.88 28.1859 51.88 30.5059C51.88 32.5359 51.409 34.3159 50.465 35.8359C49.521 37.3659 48.215 38.566 46.545 39.436C44.912 40.266 43.025 40.686 40.884 40.686C40.122 40.686 39.269 40.6158 38.325 40.4658C37.418 40.3258 36.547 40.1458 35.712 39.9258C34.914 39.7058 34.297 39.4658 33.861 39.2158C33.607 39.0658 33.407 38.9259 33.262 38.7759C33.117 38.5959 33.045 38.3058 33.045 37.9058L32.772 29.3657C32.736 28.6357 32.99 28.2759 33.534 28.2759C33.897 28.2759 34.17 28.5959 34.351 29.2559L34.95 31.5957C36.148 36.2757 38.525 38.776 42.081 39.106C44.078 39.106 45.602 38.4357 46.654 37.0957C47.743 35.7457 48.287 33.9759 48.287 31.7559C48.287 29.6159 47.707 27.656 46.545 25.876C45.42 24.096 43.588 22.3058 41.047 20.4858C38.253 18.5658 36.202 16.6757 34.895 14.8257C33.625 12.9757 32.99 11.0359 32.99 9.00586C32.99 6.46586 33.952 4.4157 35.875 2.8457C37.799 1.2557 40.23 0.455566 43.17 0.455566C44.332 0.455566 45.457 0.585938 46.545 0.835938C47.67 1.08594 48.578 1.45578 49.267 1.92578C49.485 2.06578 49.648 2.23602 49.757 2.41602C49.902 2.59602 49.975 2.83598 49.975 3.12598L50.193 11.3457C50.229 11.9557 49.993 12.2656 49.485 12.2656C49.086 12.2656 48.832 11.9956 48.723 11.4556L48.287 9.76562C47.634 7.29562 46.854 5.3959 45.947 4.0459C45.039 2.6659 43.733 1.97559 42.027 1.97559C40.358 1.97559 39.015 2.50566 37.998 3.55566C36.982 4.61566 36.474 6.06602 36.474 7.91602C36.474 9.47602 37 10.966 38.053 12.376C39.142 13.796 41.029 15.5159 43.715 17.5459C46.545 19.7659 48.614 21.9056 49.921 23.9756ZM63.204 23.8057C63.567 23.4057 64.038 23.2158 64.619 23.2158C65.127 23.2158 65.563 23.4057 65.926 23.8057C66.325 24.1757 66.525 24.626 66.525 25.166C66.525 25.676 66.325 26.1356 65.926 26.5356C65.563 26.8956 65.127 27.0757 64.619 27.0757C64.075 27.0757 63.603 26.8956 63.204 26.5356C62.841 26.1356 62.659 25.676 62.659 25.166C62.659 24.626 62.841 24.1757 63.204 23.8057ZM11.813 36.2759C12.213 35.8759 12.666 35.6758 13.174 35.6758C13.682 35.6758 14.118 35.8759 14.481 36.2759C14.88 36.6359 15.08 37.0957 15.08 37.6357C15.08 38.1457 14.88 38.5956 14.481 38.9956C14.118 39.3656 13.682 39.5459 13.174 39.5459C12.666 39.5459 12.213 39.3656 11.813 38.9956C11.414 38.5956 11.214 38.1457 11.214 37.6357C11.214 37.0957 11.414 36.6359 11.813 36.2759Z" fill="black"/>
</svg>
