<svg width="134" height="41" viewBox="0 0 134 41" fill="none" xmlns="http://www.w3.org/2000/svg">
<path fill-rule="evenodd" clip-rule="evenodd" d="M88.028 25.606H87.484C84.725 25.606 82.566 25.5656 81.005 25.4956C79.481 25.4256 77.394 25.316 74.745 25.166H74.364C74.291 25.136 74.164 25.1157 73.983 25.1157C73.874 24.9357 73.783 24.776 73.71 24.626C73.638 24.486 73.62 24.3157 73.656 24.1357C73.692 23.9157 73.747 23.756 73.819 23.646C73.892 23.536 74.019 23.446 74.2 23.376C74.527 23.406 74.781 23.4458 74.963 23.4858C75.144 23.4858 75.416 23.5056 75.779 23.5356C76.977 23.7556 78.247 23.8956 79.59 23.9756C80.933 24.0456 82.457 24.0659 84.163 24.0259C85.324 23.9559 86.123 23.6658 86.558 23.1558C87.03 22.6458 87.266 21.9058 87.266 20.9258C87.266 18.9658 87.012 17.2359 86.504 15.7559C85.996 14.2659 84.998 13.5156 83.51 13.5156C82.457 13.5156 81.459 14.0058 80.515 14.9858C79.572 15.9358 78.864 17.4256 78.392 19.4556L78.283 19.7856C78.283 19.8556 78.265 19.966 78.229 20.106C78.047 20.796 77.793 21.3456 77.467 21.7456C77.176 22.1056 76.723 22.2856 76.106 22.2856C75.634 22.2856 75.271 22.1357 75.017 21.8457C74.763 21.5557 74.618 21.2159 74.582 20.8159C74.582 20.3759 74.636 19.9757 74.745 19.6157C74.999 18.6357 75.489 17.5856 76.215 16.4556C76.977 15.2956 77.993 14.3058 79.263 13.4658C80.534 12.6358 81.985 12.2158 83.618 12.2158C84.925 12.2158 86.141 12.5358 87.266 13.1958C88.427 13.8158 89.353 14.8459 90.042 16.2959C90.768 17.7459 91.131 19.5859 91.131 21.7959C91.131 22.8859 90.986 23.6956 90.695 24.2456C90.441 24.7556 90.097 25.1159 89.661 25.3359C89.262 25.5159 88.718 25.606 88.028 25.606ZM87.484 39.436C86.431 40.306 85.161 40.7358 83.673 40.7358C81.169 40.7358 79.173 39.9756 77.685 38.4556C76.233 36.9256 75.217 35.2756 74.636 33.4956C74.055 31.7256 73.729 30.266 73.656 29.146C73.62 28.676 73.656 28.256 73.765 27.896C73.91 27.526 74.146 27.2557 74.473 27.0757C74.799 26.8557 75.217 26.7456 75.725 26.7456C76.342 26.7456 76.814 26.9359 77.14 27.2959C77.467 27.6159 77.685 28.0359 77.793 28.5459V28.876C77.83 29.086 77.848 29.3059 77.848 29.5259C77.848 29.7059 77.866 29.906 77.902 30.126C78.084 31.466 78.392 32.7157 78.828 33.8857C79.263 35.0457 79.898 36.036 80.733 36.876C81.568 37.676 82.638 38.0757 83.945 38.0757C85.143 38.0757 86.123 37.7256 86.885 37.0356C87.647 36.3156 88.209 35.516 88.572 34.646C88.972 33.776 89.262 32.9059 89.443 32.0259C89.516 31.4459 89.661 31.0657 89.879 30.8857C90.097 30.6657 90.351 30.596 90.641 30.666C91.004 30.746 91.24 30.9258 91.349 31.2158C91.494 31.5058 91.476 31.906 91.294 32.416C90.968 33.756 90.514 35.0459 89.933 36.2759C89.353 37.4759 88.536 38.526 87.484 39.436ZM14.045 24.5156C15.279 23.1056 17.239 21.726 19.925 20.376C22.247 19.216 23.862 18.1656 24.77 17.2256C25.677 16.2756 26.131 15.2457 26.131 14.1157C26.131 13.4657 25.859 12.906 25.314 12.436C24.77 11.956 24.135 11.7256 23.409 11.7256C22.502 11.7256 21.522 11.946 20.469 12.376C19.417 12.816 18.019 13.486 16.277 14.396C14.172 15.476 12.394 16.316 10.942 16.896C9.491 17.436 8.057 17.7158 6.642 17.7158C5.553 17.7158 4.5 17.4257 3.484 16.8457C2.468 16.2557 1.633 15.4658 0.98 14.4458C0.327 13.3958 0 12.196 0 10.856C0 9.32596 0.327 8.0559 0.98 7.0459C1.633 6.0259 2.432 5.2057 3.375 4.5957C4.101 4.1257 4.754 3.68564 5.335 3.28564C5.916 2.88564 6.442 2.5258 6.914 2.1958C7.712 1.6158 8.275 1.23566 8.601 1.05566C8.964 0.875664 9.309 0.785645 9.636 0.785645C10.216 0.785645 10.706 0.985977 11.106 1.37598C11.541 1.74598 11.759 2.2357 11.759 2.8457C11.759 3.3557 11.469 3.79576 10.888 4.15576C10.343 4.51576 9.4 5.00598 8.057 5.62598C7.585 5.80598 7.095 6.02588 6.587 6.27588C6.115 6.49588 5.644 6.73584 5.172 6.98584C4.228 7.45584 3.43 8.07594 2.776 8.83594C2.159 9.60594 1.851 10.456 1.851 11.396C1.851 12.086 2.087 12.8157 2.559 13.5757C3.03 14.3357 3.793 14.7158 4.845 14.7158C5.644 14.7158 6.515 14.5157 7.458 14.1157C8.402 13.7157 9.654 13.0858 11.214 12.2158C13.356 11.0558 15.189 10.186 16.713 9.60596C18.237 9.01596 19.78 8.72559 21.34 8.72559C22.828 8.72559 24.08 9.12578 25.096 9.92578C26.113 10.6858 26.857 11.6359 27.328 12.7559C27.837 13.8459 28.09 14.8459 28.09 15.7559C28.09 17.0559 27.818 18.1456 27.274 19.0156C26.73 19.8856 26.004 20.6359 25.096 21.2559C24.225 21.8359 22.919 22.5558 21.177 23.4258C20.451 23.8258 19.689 24.2458 18.89 24.6758C18.128 25.0758 17.33 25.5359 16.495 26.0459C15.406 26.7359 14.644 27.2956 14.209 27.7256C13.773 28.1656 13.555 28.7857 13.555 29.5757V31.106C13.555 31.326 13.483 31.4857 13.338 31.5957C13.229 31.7057 13.084 31.7559 12.902 31.7559C12.721 31.7559 12.557 31.7057 12.412 31.5957C12.303 31.4457 12.249 31.286 12.249 31.106V28.9858C12.249 27.4158 12.848 25.9356 14.045 24.5156ZM133.484 24.5156C133.702 24.6256 133.811 24.8059 133.811 25.0659C133.847 25.3859 133.739 25.6256 133.484 25.7656C133.267 25.9156 133.013 26.0257 132.722 26.0957C129.855 26.3457 127.623 26.5458 126.026 26.6958C124.466 26.8358 122.179 26.916 119.167 26.916C118.623 26.656 118.133 26.2558 117.697 25.7158C117.298 25.1658 116.989 24.486 116.772 23.646C116.59 22.816 116.572 21.9256 116.717 20.9756C116.862 19.8856 117.153 18.856 117.588 17.876C118.06 16.896 118.677 15.9858 119.439 15.1558C120.201 14.2858 121.091 13.6157 122.107 13.1357C122.724 12.8157 123.395 12.576 124.121 12.436C124.847 12.246 125.609 12.1558 126.407 12.1558C128.186 12.1558 129.619 12.6156 130.708 13.5156C131.833 14.3956 132.686 15.4658 133.267 16.7358C133.448 17.0958 133.575 17.4557 133.648 17.8257C133.757 18.1857 133.847 18.4758 133.92 18.6958C133.993 19.3458 133.811 19.8759 133.376 20.2759C132.94 20.6659 132.45 20.7757 131.906 20.5957C131.398 20.3757 131.071 19.8757 130.926 19.0757C130.853 18.8557 130.781 18.6157 130.708 18.3657C130.672 18.1157 130.617 17.8758 130.545 17.6558C130.327 16.8958 130.037 16.226 129.674 15.646C129.311 15.066 128.857 14.5956 128.313 14.2256C127.768 13.8256 127.133 13.626 126.407 13.626C125.754 13.626 125.137 13.7559 124.556 14.0059C123.976 14.2659 123.413 14.6458 122.869 15.1558C122.397 15.6258 121.962 16.206 121.562 16.896C121.163 17.586 120.836 18.3859 120.582 19.2959C120.328 20.1659 120.165 21.1458 120.092 22.2358C120.02 23.1358 120.238 23.8259 120.746 24.2959C121.254 24.7359 121.925 24.9859 122.76 25.0659C122.869 25.0659 122.941 25.0757 122.978 25.1157H123.25C124.738 25.0757 125.899 25.0256 126.734 24.9556C127.569 24.8456 128.748 24.6956 130.273 24.5156C130.817 24.4856 131.234 24.4458 131.525 24.4058C131.851 24.3758 132.251 24.356 132.722 24.356C133.013 24.316 133.267 24.3756 133.484 24.5156ZM59.556 14.0059C61.153 12.6659 62.877 11.9956 64.728 11.9956C65.853 11.9956 66.797 12.2459 67.559 12.7559C68.357 13.2259 69.01 14.0656 69.519 15.2656C70.027 16.4256 70.353 18.0257 70.499 20.0557V20.376C70.535 20.746 70.517 21.0359 70.444 21.2559C70.372 21.4359 70.226 21.5457 70.009 21.5757C69.972 21.5757 69.936 21.5957 69.9 21.6357H69.791C69.573 21.6657 69.392 21.6158 69.246 21.4658C69.138 21.3258 69.029 21.0856 68.92 20.7656L68.43 19.186C67.885 17.516 67.269 16.1557 66.579 15.0957C65.889 14.0457 64.946 13.5156 63.748 13.5156C62.696 13.5156 61.77 14.136 60.972 15.376C60.173 16.566 59.556 18.1257 59.121 20.0557C58.722 21.9357 58.522 23.8657 58.522 25.8257C58.522 28.6957 58.794 31.0357 59.339 32.8457C59.883 34.6257 60.573 35.9158 61.407 36.7158C62.242 37.5058 63.113 37.9058 64.02 37.9058C65.545 37.9058 66.706 37.4057 67.504 36.3857C68.339 35.3657 68.974 34.2659 69.41 33.0659L69.519 32.7358C69.591 32.6258 69.682 32.516 69.791 32.416C69.9 32.266 70.027 32.1958 70.172 32.1958C70.462 32.1958 70.644 32.3056 70.716 32.5156C70.825 32.7356 70.843 32.9558 70.771 33.1758C70.226 35.7458 69.301 37.6758 67.994 38.9458C66.688 40.1758 65.091 40.7959 63.204 40.7959C61.389 40.7959 59.81 40.1557 58.468 38.8857C57.125 37.6157 56.09 35.966 55.365 33.936C54.675 31.866 54.33 29.7056 54.33 27.4556C54.33 24.5556 54.802 21.9259 55.746 19.5659C56.725 17.2059 57.996 15.3559 59.556 14.0059ZM130.817 38.6157C129.692 40.0357 128.095 40.7358 126.026 40.7358C124.284 40.7358 122.706 40.2358 121.29 39.2158C119.911 38.1958 118.822 36.8959 118.024 35.2959C117.225 33.6659 116.772 31.936 116.663 30.126C116.627 29.656 116.699 29.236 116.881 28.876C117.062 28.476 117.298 28.1859 117.588 28.0059C117.879 27.7859 118.169 27.6758 118.459 27.6758C118.713 27.6358 118.986 27.6959 119.276 27.8359C119.603 27.9859 119.875 28.2357 120.092 28.5957C120.347 28.9657 120.492 29.4356 120.528 30.0156C120.601 31.4356 120.873 32.736 121.345 33.936C121.816 35.136 122.47 36.116 123.304 36.876C124.139 37.606 125.137 37.9658 126.299 37.9658C127.387 37.9658 128.313 37.7056 129.075 37.2056C129.873 36.6956 130.49 36.0958 130.926 35.4058C131.361 34.6758 131.761 33.8059 132.124 32.7959C132.232 32.4259 132.359 32.1556 132.505 31.9756C132.686 31.7556 132.922 31.7059 133.212 31.8159C133.503 31.9259 133.63 32.116 133.593 32.416C133.593 32.706 133.557 32.9756 133.484 33.2256C132.868 35.4056 131.978 37.2057 130.817 38.6157ZM112.743 30.0659C112.78 31.7759 112.798 34.3858 112.798 37.9058C112.798 38.6758 112.634 39.3059 112.308 39.8159C111.981 40.2859 111.509 40.5259 110.892 40.5259C110.312 40.5259 109.84 40.3258 109.477 39.9258C109.15 39.4858 108.987 38.8757 108.987 38.0757C108.914 35.4257 108.86 32.1358 108.824 28.2158V18.4756C108.824 17.3156 108.37 16.2456 107.463 15.2656C106.592 14.2856 105.194 13.7959 103.271 13.7959C101.783 13.7959 100.585 14.3059 99.678 15.3159C98.807 16.2959 98.371 17.476 98.371 18.856V30.0659C98.335 31.5259 98.317 32.6857 98.317 33.5557V36.9858C98.317 37.7858 98.135 38.3959 97.772 38.8359C97.41 39.2659 96.92 39.4858 96.303 39.4858C95.722 39.4858 95.286 39.2857 94.996 38.8857C94.706 38.4857 94.561 37.996 94.561 37.416C94.488 35.676 94.434 33.5559 94.397 31.0459C94.397 28.5059 94.415 25.9156 94.452 23.2656V20.5459C94.452 19.3859 94.778 18.1457 95.432 16.8457C96.085 15.5357 97.065 14.4256 98.371 13.5156C99.714 12.6156 101.347 12.1558 103.271 12.1558C105.303 12.1558 107.027 12.5958 108.443 13.4658C109.894 14.3058 110.965 15.3359 111.654 16.5659C112.38 17.7659 112.743 18.9056 112.743 19.9956V30.0659ZM49.812 23.9756C51.118 26.0056 51.772 28.1859 51.772 30.5059C51.772 32.5359 51.3 34.3159 50.356 35.8359C49.413 37.3659 48.106 38.566 46.437 39.436C44.803 40.266 42.916 40.686 40.775 40.686C40.013 40.686 39.16 40.6158 38.216 40.4658C37.309 40.3258 36.438 40.1458 35.603 39.9258C34.805 39.7058 34.188 39.4658 33.752 39.2158C33.498 39.0658 33.299 38.9259 33.153 38.7759C33.008 38.5959 32.936 38.3058 32.936 37.9058L32.663 29.3657C32.627 28.6357 32.881 28.2759 33.426 28.2759C33.789 28.2759 34.061 28.5959 34.242 29.2559L34.841 31.646C36.039 36.226 38.416 38.706 41.972 39.106C44.005 39.106 45.547 38.4156 46.6 37.0356C47.652 35.6556 48.179 33.866 48.179 31.646C48.179 29.506 47.598 27.5657 46.437 25.8257C45.311 24.0457 43.479 22.246 40.938 20.436C38.144 18.516 36.093 16.6259 34.786 14.7759C33.516 12.9259 32.881 10.9758 32.881 8.9458C32.881 6.4458 33.843 4.4157 35.766 2.8457C37.69 1.2557 40.103 0.455566 43.007 0.455566C44.168 0.455566 45.311 0.585938 46.437 0.835938C47.562 1.08594 48.469 1.45578 49.158 1.92578C49.376 2.06578 49.539 2.23602 49.648 2.41602C49.794 2.59602 49.866 2.83598 49.866 3.12598L50.084 11.3457C50.12 11.9557 49.884 12.2656 49.376 12.2656C48.977 12.2656 48.723 11.9956 48.614 11.4556L48.179 9.70557C47.562 7.31557 46.781 5.4259 45.838 4.0459C44.93 2.6659 43.624 1.97559 41.918 1.97559C40.285 1.97559 38.942 2.50566 37.89 3.55566C36.873 4.61566 36.365 6.06602 36.365 7.91602C36.365 9.47602 36.892 10.966 37.944 12.376C39.033 13.796 40.92 15.5159 43.606 17.5459C46.437 19.7659 48.505 21.9056 49.812 23.9756ZM63.095 23.8057C63.458 23.4057 63.93 23.2158 64.51 23.2158C65.018 23.2158 65.454 23.4057 65.817 23.8057C66.216 24.1757 66.416 24.626 66.416 25.166C66.416 25.676 66.216 26.1356 65.817 26.5356C65.454 26.8956 65.018 27.0757 64.51 27.0757C63.966 27.0757 63.494 26.8956 63.095 26.5356C62.732 26.1356 62.55 25.676 62.55 25.166C62.55 24.626 62.732 24.1757 63.095 23.8057ZM11.813 36.2759C12.213 35.8759 12.666 35.6758 13.174 35.6758C13.682 35.6758 14.118 35.8759 14.481 36.2759C14.88 36.6359 15.08 37.0957 15.08 37.6357C15.08 38.1457 14.88 38.5956 14.481 38.9956C14.118 39.3656 13.682 39.5459 13.174 39.5459C12.666 39.5459 12.213 39.3656 11.813 38.9956C11.414 38.5956 11.214 38.1457 11.214 37.6357C11.214 37.0957 11.414 36.6359 11.813 36.2759Z" fill="black"/>
</svg>
