<svg width="134" height="41" viewBox="0 0 134 41" fill="none" xmlns="http://www.w3.org/2000/svg">
<path fill-rule="evenodd" clip-rule="evenodd" d="M87.429 25.7158H87.157C84.471 25.7158 82.348 25.676 80.787 25.606C79.263 25.496 77.231 25.356 74.69 25.166H74.309C74.237 25.136 74.11 25.1157 73.928 25.1157C73.783 24.9357 73.674 24.776 73.602 24.626C73.529 24.446 73.493 24.2659 73.493 24.0859C73.565 23.8659 73.638 23.6957 73.71 23.5957C73.783 23.4857 73.928 23.406 74.146 23.376C74.473 23.376 74.709 23.3958 74.854 23.4258C75.035 23.4658 75.307 23.5056 75.67 23.5356C76.904 23.7556 78.174 23.9159 79.481 24.0259C80.824 24.0959 82.33 24.1159 83.999 24.0859C85.197 24.0059 86.014 23.7158 86.449 23.2158C86.885 22.6658 87.102 21.8857 87.102 20.8657C87.102 18.9457 86.848 17.2359 86.34 15.7559C85.832 14.2659 84.834 13.5156 83.346 13.5156C82.33 13.5156 81.35 13.996 80.406 14.936C79.463 15.876 78.755 17.366 78.283 19.396C78.211 19.506 78.174 19.6156 78.174 19.7256C78.174 19.7956 78.156 19.8856 78.12 19.9956C77.939 20.6856 77.685 21.2357 77.358 21.6357C77.068 22.0357 76.632 22.2358 76.051 22.2358C75.543 22.2358 75.162 22.0859 74.908 21.7959C74.654 21.5059 74.509 21.1556 74.473 20.7656C74.473 20.3256 74.527 19.9259 74.636 19.5659C74.89 18.5859 75.38 17.5358 76.106 16.4058C76.868 15.2858 77.866 14.3058 79.1 13.4658C80.37 12.6358 81.822 12.2158 83.455 12.2158C84.798 12.2158 86.032 12.5358 87.157 13.1958C88.282 13.8158 89.189 14.8459 89.879 16.2959C90.605 17.7159 90.968 19.506 90.968 21.686C90.968 22.816 90.822 23.646 90.532 24.186C90.242 24.736 89.861 25.1159 89.389 25.3359C88.953 25.5559 88.391 25.6558 87.701 25.6558C87.592 25.6958 87.502 25.7158 87.429 25.7158ZM87.375 39.436C86.322 40.306 85.052 40.7358 83.564 40.7358C81.06 40.7358 79.064 39.9756 77.576 38.4556C76.124 36.9256 75.108 35.2957 74.527 33.5557C73.946 31.8157 73.602 30.3558 73.493 29.1958C73.456 28.7258 73.493 28.3058 73.602 27.9458C73.747 27.5858 73.983 27.316 74.309 27.126C74.636 26.916 75.053 26.8057 75.561 26.8057C76.178 26.8057 76.65 26.9857 76.977 27.3457C77.303 27.6757 77.521 28.0957 77.63 28.5957V28.8159C77.666 28.8559 77.685 28.8858 77.685 28.9258V29.5757C77.721 29.7657 77.757 29.9658 77.793 30.1758C77.975 31.5558 78.265 32.8258 78.664 33.9858C79.1 35.1158 79.735 36.0958 80.57 36.9258C81.405 37.7258 82.475 38.126 83.782 38.126C84.979 38.126 85.959 37.7656 86.721 37.0356C87.484 36.3156 88.046 35.516 88.409 34.646C88.772 33.776 89.044 32.9059 89.226 32.0259C89.334 31.4459 89.498 31.0459 89.716 30.8359C89.933 30.6159 90.206 30.5457 90.532 30.6157C90.895 30.6857 91.131 30.8858 91.24 31.2158C91.385 31.5058 91.367 31.9258 91.185 32.4658C90.859 33.8058 90.405 35.0759 89.824 36.2759C89.244 37.4759 88.427 38.526 87.375 39.436ZM14.045 24.5757C15.279 23.1157 17.239 21.726 19.925 20.376C22.247 19.216 23.862 18.1656 24.77 17.2256C25.677 16.2756 26.131 15.2457 26.131 14.1157C26.131 13.4657 25.859 12.906 25.314 12.436C24.806 11.956 24.189 11.7256 23.463 11.7256C22.556 11.7256 21.558 11.946 20.469 12.376C19.417 12.816 18.019 13.486 16.277 14.396C14.172 15.476 12.394 16.316 10.942 16.896C9.491 17.436 8.057 17.7158 6.642 17.7158C5.553 17.7158 4.5 17.4257 3.484 16.8457C2.468 16.2557 1.633 15.4658 0.98 14.4458C0.327 13.3958 0 12.196 0 10.856C0 9.32596 0.327 8.0559 0.98 7.0459C1.633 6.0259 2.432 5.2057 3.375 4.5957C4.101 4.1257 4.754 3.68564 5.335 3.28564C5.916 2.88564 6.442 2.5258 6.914 2.1958C7.712 1.6158 8.275 1.23566 8.601 1.05566C8.964 0.875664 9.309 0.785645 9.636 0.785645C10.216 0.785645 10.706 0.985977 11.106 1.37598C11.541 1.74598 11.759 2.2357 11.759 2.8457C11.759 3.3557 11.469 3.79576 10.888 4.15576C10.343 4.51576 9.4 5.00598 8.057 5.62598C7.585 5.80598 7.095 6.02588 6.587 6.27588C6.115 6.49588 5.644 6.73584 5.172 6.98584C4.264 7.45584 3.484 8.07594 2.831 8.83594C2.178 9.60594 1.851 10.456 1.851 11.396C1.851 12.086 2.087 12.8157 2.559 13.5757C3.03 14.3357 3.793 14.7158 4.845 14.7158C5.644 14.7158 6.515 14.5157 7.458 14.1157C8.402 13.7157 9.654 13.0858 11.214 12.2158C13.356 11.0558 15.189 10.186 16.713 9.60596C18.237 9.01596 19.798 8.72559 21.395 8.72559C22.846 8.72559 24.08 9.12578 25.096 9.92578C26.113 10.6858 26.857 11.6359 27.328 12.7559C27.837 13.8459 28.09 14.8657 28.09 15.8057C28.09 17.0757 27.818 18.1456 27.274 19.0156C26.73 19.8856 26.004 20.6359 25.096 21.2559C24.225 21.8359 22.937 22.5558 21.231 23.4258C20.469 23.8258 19.689 24.2458 18.89 24.6758C18.128 25.1158 17.33 25.5857 16.495 26.0957C15.406 26.7857 14.644 27.3456 14.209 27.7856C13.773 28.2156 13.555 28.8157 13.555 29.5757V31.106C13.555 31.326 13.483 31.4857 13.338 31.5957C13.229 31.7057 13.084 31.7559 12.902 31.7559C12.721 31.7559 12.557 31.7057 12.412 31.5957C12.303 31.4457 12.249 31.286 12.249 31.106V28.9858C12.249 27.4558 12.848 25.9857 14.045 24.5757ZM133.376 24.6758C133.593 24.7858 133.702 24.9756 133.702 25.2256C133.702 25.5156 133.593 25.756 133.376 25.936C133.158 26.076 132.904 26.1859 132.613 26.2559C129.855 26.5459 127.696 26.7858 126.135 26.9658C124.611 27.1158 122.397 27.186 119.494 27.186C118.84 26.966 118.26 26.5859 117.752 26.0459C117.28 25.4659 116.917 24.7357 116.663 23.8657C116.445 22.9957 116.391 22.0456 116.5 21.0356C116.645 19.9456 116.935 18.9058 117.371 17.9258C117.842 16.9158 118.459 15.9858 119.221 15.1558C119.984 14.2858 120.891 13.6157 121.943 13.1357C122.56 12.8157 123.232 12.576 123.958 12.436C124.684 12.246 125.446 12.1558 126.244 12.1558C128.022 12.1558 129.474 12.5958 130.599 13.4658C131.724 14.3358 132.577 15.386 133.158 16.626C133.339 16.986 133.466 17.3458 133.539 17.7158C133.648 18.0358 133.739 18.3159 133.811 18.5259C133.884 19.1459 133.702 19.6557 133.267 20.0557C132.868 20.4157 132.414 20.5057 131.906 20.3257C131.398 20.1457 131.089 19.6858 130.98 18.9658C130.908 18.7458 130.835 18.5259 130.763 18.3159C130.69 18.0559 130.617 17.826 130.545 17.606C130.291 16.846 129.964 16.186 129.565 15.646C129.202 15.066 128.73 14.5956 128.149 14.2256C127.605 13.8256 126.97 13.626 126.244 13.626C125.591 13.626 124.974 13.7559 124.393 14.0059C123.812 14.2659 123.25 14.6458 122.706 15.1558C122.197 15.5858 121.744 16.1557 121.345 16.8457C120.945 17.5357 120.619 18.3258 120.365 19.2358C120.111 20.1058 119.947 21.066 119.875 22.126C119.802 23.106 120.038 23.846 120.582 24.356C121.163 24.866 121.907 25.1659 122.814 25.2759C122.887 25.2759 122.96 25.2959 123.032 25.3359H123.304C124.756 25.2959 125.899 25.2257 126.734 25.1157C127.605 25.0057 128.785 24.8658 130.273 24.6758C130.781 24.6458 131.18 24.6057 131.47 24.5757C131.761 24.5357 132.142 24.4958 132.613 24.4658C132.904 24.4658 133.158 24.5358 133.376 24.6758ZM59.393 14.0059C60.954 12.6359 62.659 11.9458 64.51 11.9458C65.635 11.9458 66.597 12.1956 67.396 12.7056C68.194 13.2156 68.847 14.0656 69.355 15.2656C69.9 16.4556 70.245 18.0356 70.39 19.9956C70.426 20.0756 70.444 20.1458 70.444 20.2158V20.376C70.48 20.706 70.444 20.9758 70.335 21.1958C70.263 21.3758 70.118 21.4859 69.9 21.5259C69.863 21.5559 69.827 21.5957 69.791 21.6357H69.682C69.464 21.6357 69.283 21.556 69.138 21.416C69.029 21.266 68.92 21.0556 68.811 20.7656L68.321 19.186C67.777 17.516 67.141 16.1557 66.416 15.0957C65.726 14.0457 64.782 13.5156 63.585 13.5156C62.532 13.5156 61.607 14.136 60.808 15.376C60.046 16.566 59.447 18.1257 59.012 20.0557C58.576 21.9757 58.359 23.916 58.359 25.876C58.359 28.706 58.631 31.0357 59.175 32.8457C59.72 34.6257 60.409 35.9158 61.244 36.7158C62.079 37.5058 62.95 37.9058 63.857 37.9058C65.418 37.9058 66.597 37.4057 67.396 36.3857C68.194 35.3657 68.811 34.2659 69.246 33.0659L69.355 32.7358C69.428 32.6258 69.519 32.516 69.628 32.416C69.736 32.266 69.863 32.1958 70.009 32.1958C70.299 32.1958 70.48 32.3056 70.553 32.5156C70.662 32.7356 70.68 32.9558 70.607 33.1758C70.063 35.7458 69.138 37.6758 67.831 38.9458C66.525 40.1758 64.928 40.7959 63.04 40.7959C61.226 40.7959 59.647 40.1557 58.304 38.8857C56.961 37.6157 55.945 35.966 55.256 33.936C54.566 31.866 54.221 29.7056 54.221 27.4556C54.221 24.6256 54.693 22.0358 55.637 19.6758C56.58 17.2758 57.832 15.3859 59.393 14.0059ZM130.599 38.6758C129.474 40.0458 127.895 40.7358 125.863 40.7358C124.121 40.7358 122.56 40.2456 121.181 39.2656C119.802 38.2856 118.713 37.0156 117.915 35.4556C117.153 33.8656 116.717 32.1956 116.608 30.4556C116.536 29.9756 116.59 29.5658 116.772 29.1958C116.953 28.7958 117.189 28.5057 117.479 28.3257C117.77 28.1057 118.042 28.0059 118.296 28.0059C118.586 27.9659 118.877 28.016 119.167 28.166C119.457 28.306 119.711 28.5658 119.929 28.9258C120.183 29.2558 120.328 29.7056 120.365 30.2856C120.474 31.6656 120.746 32.9357 121.181 34.0957C121.653 35.2557 122.306 36.2058 123.141 36.9258C123.976 37.6158 124.974 37.9658 126.135 37.9658C127.188 37.9658 128.095 37.7259 128.857 37.2559C129.619 36.7459 130.218 36.1456 130.654 35.4556C131.125 34.7656 131.543 33.9356 131.906 32.9556C132.015 32.5956 132.142 32.3157 132.287 32.1357C132.468 31.9257 132.704 31.8656 132.995 31.9756C133.285 32.0856 133.412 32.2857 133.376 32.5757C133.376 32.8657 133.339 33.136 133.267 33.396C132.65 35.536 131.761 37.2958 130.599 38.6758ZM112.58 30.0659C112.616 31.7759 112.634 34.4058 112.634 37.9658C112.634 38.7258 112.471 39.3657 112.144 39.8657C111.854 40.3457 111.382 40.5757 110.729 40.5757C110.185 40.5757 109.731 40.3756 109.368 39.9756C109.005 39.5456 108.824 38.926 108.824 38.126C108.751 35.546 108.697 32.2659 108.66 28.2759V18.4756C108.66 17.3156 108.207 16.2456 107.299 15.2656C106.428 14.2856 105.049 13.7959 103.162 13.7959C101.638 13.7959 100.422 14.3059 99.515 15.3159C98.644 16.2959 98.208 17.476 98.208 18.856V36.876C98.208 37.676 98.008 38.2856 97.609 38.7256C97.246 39.1656 96.756 39.376 96.139 39.376C95.595 39.376 95.178 39.1759 94.887 38.7759C94.597 38.3859 94.434 37.8759 94.397 37.2559C94.361 35.4759 94.325 33.3758 94.288 30.9458V20.5459C94.288 19.3859 94.615 18.1457 95.268 16.8457C95.922 15.5357 96.902 14.4256 98.208 13.5156C99.551 12.6156 101.184 12.1558 103.108 12.1558C105.14 12.1558 106.882 12.5958 108.334 13.4658C109.785 14.3058 110.856 15.3359 111.546 16.5659C112.235 17.7659 112.58 18.9056 112.58 19.9956V30.0659ZM49.703 23.9756C51.009 26.0056 51.663 28.1859 51.663 30.5059C51.663 32.5359 51.191 34.3159 50.247 35.8359C49.304 37.3659 47.997 38.566 46.328 39.436C44.694 40.266 42.807 40.686 40.666 40.686C39.904 40.686 39.051 40.6158 38.107 40.4658C37.2 40.3258 36.329 40.1458 35.494 39.9258C34.696 39.7058 34.079 39.4658 33.643 39.2158C33.389 39.0658 33.19 38.9259 33.045 38.7759C32.899 38.5959 32.827 38.3058 32.827 37.9058L32.554 29.3657C32.518 28.6357 32.772 28.2759 33.317 28.2759C33.68 28.2759 33.952 28.5959 34.133 29.2559L34.732 31.7056C35.894 36.1656 38.271 38.636 41.864 39.106C43.896 39.106 45.438 38.4156 46.491 37.0356C47.543 35.6256 48.07 33.8057 48.07 31.5957C48.07 29.4557 47.489 27.5156 46.328 25.7656C45.203 24.0256 43.37 22.246 40.829 20.436C38.035 18.516 35.984 16.6259 34.678 14.7759C33.407 12.8859 32.772 10.926 32.772 8.896C32.772 6.386 33.734 4.3559 35.658 2.7959C37.581 1.2359 39.976 0.455566 42.844 0.455566C44.005 0.455566 45.148 0.585938 46.273 0.835938C47.435 1.08594 48.36 1.45578 49.05 1.92578C49.267 2.06578 49.431 2.23602 49.539 2.41602C49.685 2.59602 49.757 2.83598 49.757 3.12598L49.975 11.3457C50.011 11.9557 49.775 12.2656 49.267 12.2656C48.868 12.2656 48.614 11.9956 48.505 11.4556L48.07 9.65576C47.489 7.29576 46.727 5.4259 45.783 4.0459C44.876 2.6659 43.569 1.97559 41.864 1.97559C40.194 1.97559 38.833 2.50566 37.781 3.55566C36.765 4.61566 36.256 6.06602 36.256 7.91602C36.256 9.47602 36.783 10.966 37.835 12.376C38.924 13.796 40.811 15.5159 43.497 17.5459C46.328 19.7659 48.396 21.9056 49.703 23.9756ZM62.932 23.8057C63.294 23.4057 63.766 23.2158 64.347 23.2158C64.855 23.2158 65.29 23.4057 65.653 23.8057C66.053 24.1757 66.252 24.626 66.252 25.166C66.252 25.676 66.053 26.1356 65.653 26.5356C65.29 26.8956 64.855 27.0757 64.347 27.0757C63.803 27.0757 63.331 26.8956 62.932 26.5356C62.569 26.1356 62.387 25.676 62.387 25.166C62.387 24.626 62.569 24.1757 62.932 23.8057ZM11.813 36.2759C12.213 35.8759 12.666 35.6758 13.174 35.6758C13.682 35.6758 14.118 35.8759 14.481 36.2759C14.88 36.6359 15.08 37.0957 15.08 37.6357C15.08 38.1457 14.88 38.5956 14.481 38.9956C14.118 39.3656 13.682 39.5459 13.174 39.5459C12.666 39.5459 12.213 39.3656 11.813 38.9956C11.414 38.5956 11.214 38.1457 11.214 37.6357C11.214 37.0957 11.414 36.6359 11.813 36.2759Z" fill="black"/>
</svg>
