<svg width="134" height="41" viewBox="0 0 134 41" fill="none" xmlns="http://www.w3.org/2000/svg">
<path fill-rule="evenodd" clip-rule="evenodd" d="M87.429 25.7656H86.83C84.181 25.7656 82.094 25.716 80.57 25.606C79.046 25.496 77.049 25.356 74.582 25.166H74.2C74.128 25.136 74.019 25.0959 73.874 25.0659C73.692 24.9159 73.547 24.776 73.438 24.626C73.366 24.446 73.348 24.2459 73.384 24.0259C73.42 23.8059 73.493 23.6456 73.602 23.5356C73.71 23.4256 73.856 23.3559 74.037 23.3159C74.4 23.3559 74.654 23.3958 74.799 23.4258C74.981 23.4658 75.235 23.4858 75.561 23.4858C76.832 23.7358 78.12 23.9159 79.427 24.0259C80.733 24.1359 82.203 24.1559 83.836 24.0859C85.034 24.0459 85.85 23.7558 86.286 23.2158C86.758 22.6658 86.994 21.8659 86.994 20.8159C86.994 18.9259 86.721 17.2359 86.177 15.7559C85.669 14.2659 84.689 13.5156 83.237 13.5156C82.185 13.5156 81.187 13.996 80.243 14.936C79.336 15.846 78.646 17.2959 78.174 19.2959C78.102 19.4359 78.066 19.5457 78.066 19.6157C78.066 19.6857 78.047 19.7958 78.011 19.9458C77.83 20.5958 77.576 21.1259 77.249 21.5259C76.959 21.9259 76.523 22.126 75.942 22.126C75.434 22.126 75.053 21.976 74.799 21.686C74.545 21.396 74.4 21.0558 74.364 20.6558C74.364 20.2558 74.418 19.8759 74.527 19.5059C74.781 18.5659 75.271 17.5358 75.997 16.4058C76.759 15.2858 77.757 14.3058 78.991 13.4658C80.261 12.6358 81.713 12.2158 83.346 12.2158C84.653 12.2158 85.869 12.5358 86.994 13.1958C88.119 13.8158 89.026 14.8256 89.716 16.2456C90.441 17.6556 90.804 19.4557 90.804 21.6357C90.804 22.7257 90.641 23.576 90.314 24.186C90.024 24.776 89.643 25.1657 89.171 25.3857C88.699 25.6057 88.119 25.7356 87.429 25.7656ZM87.211 39.436C86.159 40.306 84.907 40.7358 83.455 40.7358C80.951 40.7358 78.955 39.9959 77.467 38.5059C75.979 36.9859 74.944 35.346 74.364 33.606C73.819 31.866 73.493 30.4357 73.384 29.3057C73.348 28.8357 73.384 28.4157 73.493 28.0557C73.638 27.6557 73.874 27.366 74.2 27.186C74.527 26.966 74.944 26.856 75.453 26.856C76.07 26.856 76.541 27.0358 76.868 27.4058C77.195 27.7258 77.412 28.1458 77.521 28.6558V29.0356C77.558 29.2556 77.576 29.4557 77.576 29.6357C77.612 29.8157 77.648 30.0158 77.685 30.2358C77.866 31.6158 78.156 32.8658 78.556 33.9858C78.955 35.1158 79.572 36.0958 80.406 36.9258C81.241 37.7258 82.33 38.126 83.673 38.126C84.834 38.126 85.796 37.7656 86.558 37.0356C87.32 36.3156 87.883 35.516 88.246 34.646C88.609 33.776 88.881 32.9059 89.062 32.0259C89.171 31.4459 89.334 31.0459 89.552 30.8359C89.806 30.6159 90.097 30.5457 90.423 30.6157C90.786 30.6557 91.04 30.8458 91.185 31.2158C91.331 31.5358 91.294 31.9756 91.077 32.5156C90.714 33.8256 90.242 35.0759 89.661 36.2759C89.08 37.4759 88.264 38.526 87.211 39.436ZM14.1 24.5757C15.297 23.1157 17.257 21.726 19.979 20.376C22.266 19.216 23.862 18.1859 24.77 17.2759C25.677 16.3359 26.131 15.2857 26.131 14.1157C26.131 13.4657 25.859 12.906 25.314 12.436C24.806 11.956 24.189 11.7256 23.463 11.7256C22.556 11.7256 21.558 11.946 20.469 12.376C19.417 12.816 18.019 13.486 16.277 14.396C14.209 15.476 12.43 16.316 10.942 16.896C9.491 17.476 8.057 17.7656 6.642 17.7656C5.589 17.7656 4.537 17.476 3.484 16.896C2.468 16.316 1.633 15.4958 0.98 14.4458C0.327 13.3958 0 12.196 0 10.856C0 9.32596 0.327 8.0559 0.98 7.0459C1.633 6.0259 2.432 5.2057 3.375 4.5957C4.101 4.1257 4.754 3.68564 5.335 3.28564C5.916 2.88564 6.442 2.5258 6.914 2.1958C7.712 1.6158 8.275 1.23566 8.601 1.05566C8.964 0.875664 9.309 0.785645 9.636 0.785645C10.216 0.785645 10.725 0.985977 11.16 1.37598C11.596 1.74598 11.813 2.2357 11.813 2.8457C11.813 3.3557 11.523 3.79576 10.942 4.15576C10.362 4.51576 9.418 5.00598 8.111 5.62598C7.64 5.80598 7.15 6.02588 6.642 6.27588C6.133 6.49588 5.644 6.73584 5.172 6.98584C4.264 7.45584 3.484 8.07594 2.831 8.83594C2.178 9.60594 1.851 10.456 1.851 11.396C1.851 12.086 2.087 12.8157 2.559 13.5757C3.03 14.3357 3.793 14.7158 4.845 14.7158C5.644 14.7158 6.515 14.5157 7.458 14.1157C8.402 13.7157 9.672 13.0858 11.269 12.2158C13.374 11.0858 15.189 10.2358 16.713 9.65576C18.273 9.03576 19.834 8.72559 21.395 8.72559C22.846 8.72559 24.08 9.12578 25.096 9.92578C26.113 10.6858 26.875 11.6359 27.383 12.7559C27.891 13.8859 28.145 14.8957 28.145 15.8057C28.145 17.0757 27.873 18.1456 27.328 19.0156C26.784 19.8856 26.058 20.6359 25.151 21.2559C24.28 21.8359 22.973 22.5758 21.231 23.4858C20.505 23.8858 19.743 24.2958 18.945 24.7358C18.146 25.1358 17.33 25.5857 16.495 26.0957C15.406 26.7857 14.644 27.3456 14.209 27.7856C13.809 28.2156 13.61 28.8157 13.61 29.5757V31.1558C13.61 31.3758 13.537 31.536 13.392 31.646C13.283 31.756 13.138 31.8159 12.957 31.8159C12.775 31.8159 12.612 31.756 12.467 31.646C12.358 31.506 12.303 31.3358 12.303 31.1558V28.9858C12.303 27.4558 12.902 25.9857 14.1 24.5757ZM133.212 24.7856C133.43 24.8956 133.557 25.0759 133.593 25.3359C133.593 25.6559 133.485 25.9157 133.267 26.0957C133.049 26.2457 132.795 26.3458 132.505 26.4258C129.892 26.7458 127.823 27.006 126.299 27.186C124.774 27.366 122.615 27.4556 119.82 27.4556C119.094 27.2756 118.441 26.8959 117.861 26.3159C117.28 25.7359 116.844 24.9859 116.554 24.0859C116.264 23.1759 116.173 22.1759 116.282 21.0859C116.427 19.9959 116.717 18.9458 117.153 17.9258C117.625 16.9158 118.242 15.9858 119.004 15.1558C119.766 14.2858 120.673 13.5959 121.726 13.0859C122.343 12.7959 123.014 12.576 123.74 12.436C124.502 12.246 125.282 12.1558 126.081 12.1558C127.895 12.1558 129.365 12.576 130.49 13.416C131.615 14.246 132.468 15.2856 133.049 16.5156C133.194 16.8456 133.321 17.1859 133.43 17.5459C133.539 17.8759 133.612 18.1457 133.648 18.3657C133.757 18.9457 133.612 19.4156 133.212 19.7856C132.813 20.1456 132.378 20.256 131.906 20.106C131.434 19.926 131.125 19.4957 130.98 18.8057L130.763 18.146C130.726 17.926 130.654 17.7156 130.545 17.4956C130.254 16.8056 129.91 16.186 129.51 15.646C129.148 15.066 128.676 14.5956 128.095 14.2256C127.514 13.8656 126.843 13.686 126.081 13.686C125.464 13.686 124.847 13.8159 124.23 14.0659C123.649 14.2859 123.087 14.6257 122.542 15.0957C122.034 15.5757 121.562 16.1557 121.127 16.8457C120.728 17.4957 120.401 18.256 120.147 19.126C119.893 19.996 119.73 20.9556 119.657 22.0156C119.621 23.0656 119.893 23.8858 120.474 24.4658C121.091 25.0458 121.871 25.3856 122.814 25.4956C122.887 25.4956 122.96 25.5157 123.032 25.5557H123.359C124.774 25.5157 125.899 25.4459 126.734 25.3359C127.605 25.2259 128.785 25.0657 130.273 24.8457C130.744 24.7757 131.125 24.7358 131.416 24.7358C131.706 24.6958 132.069 24.666 132.505 24.626C132.759 24.586 132.995 24.6456 133.212 24.7856ZM59.175 14.0659C60.736 12.6459 62.442 11.9458 64.293 11.9458C65.381 11.9458 66.343 12.2159 67.178 12.7559C68.013 13.2659 68.702 14.1159 69.246 15.3159C69.791 16.4759 70.154 18.0258 70.335 19.9458V20.3257C70.372 20.6557 70.353 20.926 70.281 21.146C70.208 21.326 70.045 21.4459 69.791 21.5259C69.754 21.5259 69.718 21.5457 69.682 21.5757H69.628C69.41 21.6157 69.228 21.556 69.083 21.416C68.938 21.236 68.811 20.9956 68.702 20.7056L68.212 19.186C67.668 17.516 67.033 16.1557 66.307 15.0957C65.581 14.0457 64.637 13.5156 63.476 13.5156C62.387 13.5156 61.444 14.136 60.645 15.376C59.883 16.566 59.284 18.1257 58.849 20.0557C58.449 21.9757 58.25 23.936 58.25 25.936C58.25 28.726 58.504 31.0357 59.012 32.8457C59.556 34.6257 60.246 35.9158 61.081 36.7158C61.915 37.5058 62.786 37.9058 63.694 37.9058C65.254 37.9058 66.434 37.4057 67.232 36.3857C68.067 35.3657 68.702 34.2659 69.138 33.0659L69.246 32.7358C69.319 32.6258 69.41 32.516 69.519 32.416C69.628 32.266 69.754 32.1958 69.9 32.1958C70.19 32.1958 70.372 32.3056 70.444 32.5156C70.553 32.7356 70.571 32.9558 70.499 33.1758C69.954 35.7458 69.029 37.6758 67.722 38.9458C66.416 40.1758 64.819 40.7959 62.932 40.7959C61.117 40.7959 59.538 40.1557 58.195 38.8857C56.853 37.6157 55.836 35.966 55.147 33.936C54.457 31.906 54.112 29.7456 54.112 27.4556C54.112 24.6656 54.566 22.0856 55.473 19.7256C56.417 17.3356 57.651 15.4459 59.175 14.0659ZM130.381 38.7256C129.256 40.0656 127.696 40.7358 125.7 40.7358C123.958 40.7358 122.397 40.2657 121.018 39.3257C119.675 38.3457 118.604 37.0959 117.806 35.5659C117.044 34.0459 116.608 32.4256 116.5 30.7256C116.463 30.2556 116.518 29.8356 116.663 29.4756C116.844 29.1056 117.062 28.8358 117.316 28.6558C117.606 28.4358 117.879 28.3059 118.133 28.2759C118.423 28.2359 118.713 28.296 119.004 28.436C119.33 28.586 119.603 28.8358 119.82 29.1958C120.038 29.5258 120.183 29.9757 120.256 30.5557C120.365 31.9057 120.637 33.1356 121.072 34.2656C121.508 35.3856 122.143 36.2958 122.978 36.9858C123.812 37.6358 124.792 37.9658 125.917 37.9658C126.97 37.9658 127.859 37.7259 128.585 37.2559C129.347 36.7859 129.964 36.2259 130.436 35.5659C130.908 34.8759 131.343 34.0459 131.742 33.0659C131.815 32.7359 131.942 32.4656 132.124 32.2456C132.305 32.0256 132.541 31.9957 132.831 32.1357C133.122 32.2457 133.249 32.4458 133.212 32.7358C133.212 33.0258 133.158 33.2957 133.049 33.5557C132.432 35.6257 131.543 37.3456 130.381 38.7256ZM112.471 30.126C112.507 31.826 112.525 34.4656 112.525 38.0156C112.525 38.7756 112.362 39.4158 112.036 39.9258C111.745 40.3958 111.273 40.6357 110.62 40.6357C110.076 40.6357 109.622 40.4356 109.259 40.0356C108.896 39.5956 108.697 38.966 108.66 38.126C108.624 35.626 108.588 32.3557 108.551 28.3257V18.4756C108.551 17.3156 108.098 16.2456 107.19 15.2656C106.319 14.2856 104.922 13.7959 102.999 13.7959C101.511 13.7959 100.313 14.3059 99.406 15.3159C98.535 16.2959 98.099 17.476 98.099 18.856C98.099 21.286 98.081 23.116 98.045 24.356V36.7656C98.045 37.5656 97.863 38.1857 97.5 38.6157C97.137 39.0557 96.629 39.2656 95.976 39.2656C95.432 39.2656 95.014 39.0658 94.724 38.6758C94.434 38.2758 94.27 37.766 94.234 37.146C94.198 35.256 94.161 33.1559 94.125 30.8359C94.125 28.4759 94.143 25.9358 94.18 23.2158V20.5459C94.18 19.3859 94.506 18.1457 95.159 16.8457C95.813 15.5357 96.793 14.4256 98.099 13.5156C99.442 12.6156 101.075 12.1558 102.999 12.1558C105.031 12.1558 106.755 12.5958 108.17 13.4658C109.622 14.3058 110.693 15.3359 111.382 16.5659C112.108 17.7659 112.471 18.9056 112.471 19.9956V30.126ZM49.594 23.9756C50.901 26.0056 51.554 28.1859 51.554 30.5059C51.554 32.5359 51.082 34.3159 50.138 35.8359C49.195 37.3659 47.888 38.566 46.219 39.436C44.586 40.266 42.698 40.686 40.557 40.686C39.795 40.686 38.942 40.6158 37.998 40.4658C37.091 40.3258 36.22 40.1458 35.385 39.9258C34.587 39.7058 33.97 39.4658 33.534 39.2158C33.28 39.0658 33.081 38.9259 32.936 38.7759C32.79 38.5959 32.718 38.3058 32.718 37.9058L32.446 29.3657C32.409 28.6357 32.663 28.2759 33.208 28.2759C33.571 28.2759 33.843 28.5959 34.024 29.2559L34.678 31.7559C35.766 36.1459 38.126 38.596 41.755 39.106C43.823 39.106 45.366 38.3958 46.382 36.9858C47.435 35.5358 47.961 33.6958 47.961 31.4858C47.961 29.3458 47.38 27.4158 46.219 25.7158C45.094 23.9758 43.261 22.196 40.72 20.376C37.926 18.456 35.875 16.556 34.569 14.666C33.299 12.776 32.663 10.8156 32.663 8.78564C32.663 6.35564 33.625 4.3559 35.549 2.7959C37.472 1.2359 39.868 0.455566 42.735 0.455566C43.896 0.455566 45.039 0.585938 46.164 0.835938C47.326 1.08594 48.251 1.45578 48.941 1.92578C49.158 2.06578 49.322 2.23602 49.431 2.41602C49.576 2.59602 49.648 2.83598 49.648 3.12598L49.866 11.3457C49.902 11.9557 49.685 12.2656 49.213 12.2656C48.777 12.2656 48.505 11.9956 48.396 11.4556L47.961 9.5459C47.416 7.2959 46.672 5.4659 45.729 4.0459C44.822 2.6359 43.497 1.92578 41.755 1.92578C40.122 1.92578 38.779 2.46566 37.726 3.55566C36.674 4.61566 36.148 6.06602 36.148 7.91602C36.148 9.47602 36.674 10.966 37.726 12.376C38.815 13.796 40.702 15.5159 43.388 17.5459C46.219 19.7659 48.287 21.9056 49.594 23.9756ZM62.823 23.8057C63.186 23.4057 63.657 23.2158 64.238 23.2158C64.746 23.2158 65.182 23.4057 65.545 23.8057C65.944 24.1757 66.143 24.626 66.143 25.166C66.143 25.676 65.944 26.1356 65.545 26.5356C65.182 26.8956 64.746 27.0757 64.238 27.0757C63.694 27.0757 63.222 26.8956 62.823 26.5356C62.46 26.1356 62.278 25.676 62.278 25.166C62.278 24.626 62.46 24.1757 62.823 23.8057ZM11.813 36.2759C12.213 35.8759 12.666 35.6758 13.174 35.6758C13.682 35.6758 14.118 35.8759 14.481 36.2759C14.88 36.6359 15.08 37.0957 15.08 37.6357C15.08 38.1457 14.88 38.5956 14.481 38.9956C14.118 39.3656 13.682 39.5459 13.174 39.5459C12.666 39.5459 12.213 39.3656 11.813 38.9956C11.414 38.5956 11.214 38.1457 11.214 37.6357C11.214 37.0957 11.414 36.6359 11.813 36.2759Z" fill="black"/>
</svg>
