<svg width="139" height="41" viewBox="0 0 139 41" fill="none" xmlns="http://www.w3.org/2000/svg">
<path fill-rule="evenodd" clip-rule="evenodd" d="M4.355 14.1741C5.843 14.1741 7.004 14.1381 7.839 14.0651C8.674 13.9931 9.908 13.9021 11.541 13.7931L13.065 13.6841V9.9281C13.936 9.8921 14.644 9.8551 15.189 9.8191C15.733 9.7461 16.477 9.69213 17.421 9.65613V5.89911C19.271 5.82711 20.723 5.8091 21.776 5.8451C22.828 5.8451 24.28 5.93613 26.131 6.11713V9.9281L29.887 9.87311C29.923 10.7441 29.96 11.4341 29.996 11.9421C30.032 12.4501 30.069 13.1581 30.105 14.0651H26.349C26.385 14.9731 26.385 15.6981 26.349 16.2431C26.349 16.7511 26.33 17.4771 26.294 18.4201H22.538C22.502 19.3641 22.411 20.0901 22.266 20.5981C22.157 21.1061 22.012 21.8321 21.83 22.7761H18.074C18.038 22.9571 17.983 23.1021 17.91 23.2111C17.874 23.2841 17.838 23.4111 17.802 23.5921C17.511 24.3911 17.275 25.0081 17.094 25.4431C16.949 25.8791 16.876 26.4961 16.876 27.2941V31.4311C16.259 31.4681 15.769 31.5041 15.406 31.5401H14.372C14.045 31.5041 13.573 31.4491 12.957 31.3771V28.2741C12.957 27.1491 12.993 26.2961 13.065 25.7151C13.138 25.1351 13.247 24.3001 13.392 23.2111L13.446 22.7761H17.203C17.239 22.1951 17.312 21.7591 17.421 21.4691C17.529 21.1421 17.638 20.6891 17.747 20.1081C17.82 19.7451 17.892 19.4731 17.965 19.2911C18.038 19.0741 18.128 18.7831 18.237 18.4201H21.939C22.084 17.5131 22.193 16.8051 22.266 16.2971C22.338 15.7891 22.374 15.0451 22.374 14.0651H26.131V10.3091H23.735C23.227 10.2361 22.81 10.1641 22.483 10.0911C22.157 10.0191 21.685 9.98212 21.068 9.98212C20.342 9.98212 19.743 10.0191 19.271 10.0911C18.836 10.1281 18.219 10.1821 17.421 10.2551V14.0111L13.065 14.3371V18.0391C11.178 18.1841 9.708 18.2751 8.656 18.3121C7.64 18.3481 6.206 18.3301 4.355 18.2571V14.1741ZM4.355 14.1741L0.599 14.5011C0.417 13.6301 0.272 12.9041 0.163 12.3231C0.054 11.7061 0 10.8901 0 9.87311C0.798 9.65611 1.452 9.47411 1.96 9.32911C2.504 9.14811 3.303 9.00211 4.355 8.89411V5.13709L6.642 4.92011C7.113 4.88311 7.458 4.8471 7.676 4.8111C7.93 4.7741 8.275 4.75611 8.71 4.75611V1.00013C9.581 0.964126 10.271 0.964126 10.779 1.00013C11.287 1.00013 11.977 1.03613 12.848 1.10913C12.884 2.01613 12.884 2.70613 12.848 3.17713C12.811 3.64913 12.757 4.3391 12.684 5.2461L8.71 5.35511V9.11109C7.803 9.14809 7.077 9.20209 6.533 9.27509C5.988 9.31109 5.262 9.3471 4.355 9.3841V10.5811C4.246 10.9441 4.156 11.2531 4.083 11.5071C4.047 11.7241 4.028 12.0511 4.028 12.4871C4.028 12.8861 4.047 13.1941 4.083 13.4121C4.156 13.5931 4.246 13.8481 4.355 14.1741ZM39.196 36.1681L35.44 36.4941C35.222 35.6591 35.041 35.0061 34.895 34.5341C34.75 34.0631 34.678 33.3551 34.678 32.4111L34.623 30.3971V27.4031C35.24 27.3671 35.712 27.3481 36.039 27.3481C36.402 27.3121 36.746 27.2941 37.073 27.2941C37.436 27.2941 37.944 27.3301 38.597 27.4031V28.2191C38.67 29.9611 38.742 31.3041 38.815 32.2481C38.924 33.1921 39.051 34.4981 39.196 36.1681ZM39.196 5.02808V1.05408C41.083 0.945081 42.553 0.909133 43.606 0.945133C44.658 0.945133 46.092 0.964126 47.906 1.00013V4.75611C48.814 4.79211 49.503 4.82912 49.975 4.86512C50.483 4.90112 51.173 4.95608 52.044 5.02808V13.6841C51.427 13.7571 50.937 13.8111 50.574 13.8481H49.539C49.213 13.8111 48.723 13.7751 48.07 13.7391C48.033 12.6861 47.997 11.8881 47.961 11.3431C47.961 10.7631 47.943 9.96412 47.906 8.94812V5.62714C46.564 5.37314 45.511 5.19213 44.749 5.08313C43.987 4.93813 43.206 4.86512 42.408 4.86512C41.646 4.86512 40.575 4.92008 39.196 5.02808ZM47.961 35.8411C48.07 33.0101 48.051 30.8321 47.906 29.3081C47.798 27.7481 47.616 25.5701 47.362 22.7761H43.66C43.588 22.2671 43.515 21.8861 43.442 21.6321C43.37 21.3421 43.297 20.9431 43.225 20.4351C43.188 20.0351 43.134 19.7271 43.061 19.5091C42.989 19.2551 42.916 18.8921 42.844 18.4201H39.142C38.997 17.4771 38.87 16.7511 38.761 16.2431C38.688 15.7351 38.634 15.0091 38.597 14.0651H34.841C34.768 12.7221 34.714 11.6341 34.678 10.7991C34.641 9.92814 34.66 9.0571 34.732 8.1861C34.841 7.3151 35.077 6.17211 35.44 4.75611L39.196 5.02808C39.051 6.37108 38.96 7.46011 38.924 8.29511C38.888 9.09311 38.888 9.91008 38.924 10.7441C38.997 11.5431 39.142 12.6501 39.359 14.0651H43.061C43.17 14.9361 43.279 15.6441 43.388 16.1881C43.533 16.7331 43.678 17.4771 43.823 18.4201H47.525C47.634 19.3281 47.743 20.0351 47.852 20.5441C47.961 21.0521 48.051 21.7961 48.124 22.7761H51.88C52.098 25.4971 52.225 27.6391 52.262 29.1991C52.334 30.7601 52.28 32.9741 52.098 35.8411H47.961ZM39.196 36.1681C40.575 36.2401 41.664 36.2951 42.462 36.3311C43.261 36.3311 44.041 36.2951 44.803 36.2221C45.566 36.1131 46.618 35.9861 47.961 35.8411L48.342 39.5971C46.527 39.8511 45.039 40.0331 43.878 40.1421C42.753 40.2501 41.192 40.2871 39.196 40.2501V36.1681ZM61.244 14.0651C61.099 17.2951 60.972 19.8901 60.863 21.8501C60.754 23.7741 60.718 25.7331 60.754 27.7291C60.79 29.6891 60.881 32.3931 61.026 35.8411H56.671C56.49 32.3201 56.399 29.5801 56.399 27.6211C56.399 25.6241 56.471 23.6831 56.617 21.7961C56.762 19.9081 56.943 17.3321 57.161 14.0651H61.244ZM61.244 14.0651L60.917 10.3091C62.732 10.2001 64.111 10.1281 65.055 10.0911C66.035 10.0551 67.414 10.0371 69.192 10.0371C69.337 10.9081 69.446 11.5791 69.519 12.0511C69.628 12.4871 69.7 13.1581 69.736 14.0651H73.493C73.529 14.9731 73.547 15.6981 73.547 16.2431C73.583 16.7871 73.602 17.5491 73.602 18.5291V18.8011C72.985 18.8381 72.513 18.8741 72.186 18.9101H71.152C70.825 18.8741 70.335 18.8381 69.682 18.8011C69.682 18.6561 69.664 18.5471 69.628 18.4751V18.0391C69.555 17.1321 69.482 16.4421 69.41 15.9711C69.374 15.4631 69.301 14.8271 69.192 14.0651H66.252C65.127 13.9931 64.274 13.9751 63.694 14.0111C63.113 14.0111 62.296 14.0291 61.244 14.0651ZM69.573 35.8411C69.609 35.1151 69.646 34.5521 69.682 34.1531C69.718 33.7181 69.736 33.1371 69.736 32.4111L69.791 31.6491C70.444 31.6131 70.934 31.5951 71.261 31.5951C71.587 31.5951 71.914 31.6131 72.241 31.6491C72.604 31.6491 73.094 31.6671 73.71 31.7041C73.674 32.6111 73.638 33.3191 73.602 33.8271V35.8411H69.573ZM61.026 35.8411C62.333 35.9501 63.349 36.0401 64.075 36.1131C64.837 36.1491 65.599 36.1491 66.361 36.1131C67.123 36.0771 68.194 35.9861 69.573 35.8411L69.845 39.5971C68.466 39.8881 67.341 40.0871 66.47 40.1961C65.599 40.3051 64.71 40.3051 63.803 40.1961C62.932 40.0871 61.806 39.8881 60.427 39.5971L61.026 35.8411ZM91.131 35.8411C91.167 34.9341 91.204 34.2081 91.24 33.6631C91.312 33.0831 91.349 32.3571 91.349 31.4861C92.002 31.4491 92.492 31.4311 92.819 31.4311C93.182 31.3951 93.526 31.3951 93.853 31.4311C94.18 31.4681 94.651 31.5041 95.268 31.5401C95.268 32.4481 95.25 33.1731 95.214 33.7181C95.178 34.2621 95.141 34.9701 95.105 35.8411H91.131ZM82.475 35.8411C83.782 35.9501 84.816 36.0401 85.578 36.1131C86.34 36.1491 87.102 36.1491 87.865 36.1131C88.663 36.0771 89.752 35.9861 91.131 35.8411L91.349 39.5971C90.006 39.8881 88.881 40.0871 87.974 40.1961C87.102 40.3051 86.213 40.3051 85.306 40.1961C84.399 40.0871 83.255 39.8881 81.876 39.5971L82.475 35.8411ZM82.693 14.0651L82.257 21.8501C82.242 22.1251 82.227 22.4011 82.214 22.6781C82.619 22.7451 82.942 22.7961 83.183 22.8301C83.437 22.8661 83.8 22.8841 84.272 22.8841C85.106 22.8841 85.778 22.9031 86.286 22.9391H88.3C88.917 22.9391 89.371 22.9211 89.661 22.8841C89.988 22.8481 90.405 22.8121 90.913 22.7761C90.95 22.1951 90.968 21.7411 90.968 21.4151V19.6181C90.968 18.3841 90.95 17.4221 90.913 16.7331C90.877 16.0431 90.804 15.1541 90.695 14.0651H87.756C86.631 13.9931 85.76 13.9751 85.143 14.0111C84.562 14.0111 83.745 14.0291 82.693 14.0651L82.257 10.3091C84.072 10.2001 85.451 10.1281 86.395 10.0911C87.338 10.0551 88.699 10.0371 90.478 10.0371C90.587 10.9081 90.695 11.5791 90.804 12.0511C90.95 12.5231 91.058 13.1941 91.131 14.0651H94.887C95.032 15.9161 95.141 17.3681 95.214 18.4201C95.286 19.4371 95.305 20.8881 95.268 22.7761C95.268 23.7191 95.25 24.4451 95.214 24.9531C95.214 25.4251 95.178 26.0601 95.105 26.8581H86.34C85.36 26.8581 84.635 26.8951 84.163 26.9671C83.691 27.0041 83.019 27.0761 82.149 27.1851C82.126 26.8761 82.111 26.6081 82.102 26.3791C82.097 26.8271 82.094 27.2771 82.094 27.7291C82.13 29.7261 82.257 32.4291 82.475 35.8411H78.12C77.939 32.3571 77.83 29.6171 77.793 27.6211C77.793 25.6241 77.866 23.6831 78.011 21.7961C78.156 19.9081 78.32 17.3321 78.501 14.0651H82.693ZM134.573 35.8411C134.61 34.9341 134.646 34.2081 134.682 33.6631C134.755 33.0831 134.791 32.3571 134.791 31.4861C135.444 31.4491 135.934 31.4311 136.261 31.4311C136.624 31.3951 136.969 31.3951 137.295 31.4311C137.622 31.4681 138.094 31.5041 138.711 31.5401C138.711 32.4481 138.692 33.1731 138.656 33.7181C138.62 34.2621 138.584 34.9701 138.547 35.8411H134.573ZM125.917 35.8411C127.224 35.9501 128.258 36.0401 129.02 36.1131C129.783 36.1491 130.545 36.1491 131.307 36.1131C132.105 36.0771 133.194 35.9861 134.573 35.8411L134.791 39.5971C133.448 39.8881 132.323 40.0871 131.416 40.1961C130.545 40.3051 129.656 40.3051 128.748 40.1961C127.841 40.0871 126.698 39.8881 125.319 39.5971L125.917 35.8411ZM126.135 14.0651L125.7 21.8501C125.684 22.1251 125.67 22.4011 125.658 22.6781C126.061 22.7451 126.384 22.7961 126.625 22.8301C126.879 22.8661 127.242 22.8841 127.714 22.8841C128.549 22.8841 129.22 22.9031 129.728 22.9391H131.797C132.378 22.9391 132.813 22.9211 133.103 22.8841C133.43 22.8481 133.847 22.8121 134.356 22.7761C134.392 22.1951 134.41 21.7411 134.41 21.4151V19.6181C134.41 18.3841 134.392 17.4221 134.356 16.7331C134.319 16.0431 134.247 15.1541 134.138 14.0651H131.198C130.073 13.9931 129.202 13.9751 128.585 14.0111C128.004 14.0111 127.188 14.0291 126.135 14.0651L125.7 10.3091C127.514 10.2001 128.893 10.1281 129.837 10.0911C130.781 10.0551 132.142 10.0371 133.92 10.0371C134.029 10.9081 134.138 11.5791 134.247 12.0511C134.392 12.5231 134.501 13.1941 134.573 14.0651H138.33C138.475 15.9161 138.584 17.3681 138.656 18.4201C138.729 19.4371 138.747 20.8881 138.711 22.7761C138.711 23.7191 138.692 24.4451 138.656 24.9531C138.656 25.4251 138.62 26.0601 138.547 26.8581H129.783C128.803 26.8581 128.077 26.8951 127.605 26.9671C127.133 27.0041 126.462 27.0761 125.591 27.1851C125.588 27.1381 125.585 27.0921 125.581 27.0481C125.584 27.2741 125.587 27.5011 125.591 27.7291C125.627 29.7261 125.736 32.4291 125.917 35.8411H121.562C121.381 32.3571 121.272 29.6171 121.236 27.6211C121.236 25.6241 121.308 23.6831 121.453 21.7961C121.599 19.9081 121.762 17.3321 121.943 14.0651H126.135ZM103.761 35.9501C103.761 36.3851 103.779 36.6941 103.815 36.8751C103.888 37.0571 103.979 37.3111 104.087 37.6371C104.124 37.6741 104.142 37.7101 104.142 37.7461V37.8011C104.214 38.0551 104.269 38.2361 104.305 38.3451C104.341 38.4541 104.36 38.6541 104.36 38.9441C104.36 39.2341 104.341 39.4521 104.305 39.5971C104.305 39.7421 104.269 39.9421 104.196 40.1961H99.188C99.115 39.9421 99.061 39.7421 99.025 39.5971V38.5081C99.061 38.4001 99.134 38.2541 99.242 38.0731V37.9101C99.279 37.8731 99.315 37.8191 99.351 37.7461C99.424 37.3831 99.46 37.1111 99.46 36.9301C99.496 36.7121 99.515 36.3851 99.515 35.9501L99.46 20.1081C99.46 18.8011 99.496 17.8031 99.569 17.1141C99.642 16.3881 99.769 15.3721 99.95 14.0651H103.652C103.724 13.1941 103.797 12.5411 103.87 12.1051C103.979 11.6341 104.087 10.9621 104.196 10.0911C105.938 10.0551 107.281 10.0371 108.225 10.0371C109.168 10.0371 110.529 10.0551 112.308 10.0911C112.417 10.9261 112.507 11.5791 112.58 12.0511C112.652 12.4871 112.725 13.1581 112.798 14.0651H116.554C116.735 15.2991 116.862 16.2791 116.935 17.0051C117.008 17.6951 117.044 18.6931 117.044 19.9991V36.9301C117.08 37.1111 117.116 37.3831 117.153 37.7461C117.189 37.8191 117.225 37.8731 117.262 37.9101C117.298 37.9461 117.316 38.0181 117.316 38.1271C117.389 38.3091 117.443 38.4541 117.479 38.5631C117.552 38.6721 117.588 38.8171 117.588 38.9981C117.588 39.2891 117.57 39.5061 117.534 39.6521C117.498 39.7601 117.461 39.9421 117.425 40.1961H112.417C112.344 39.9421 112.29 39.7421 112.253 39.5971V38.9441C112.253 38.6901 112.271 38.5081 112.308 38.4001L112.471 37.7461C112.544 37.4201 112.598 37.1661 112.634 36.9841C112.707 36.7661 112.743 36.4221 112.743 35.9501V19.4551C112.743 18.2211 112.689 17.2951 112.58 16.6781C112.507 16.0251 112.398 15.1541 112.253 14.0651H110.348C109.658 14.0291 109.114 14.0111 108.715 14.0111C108.316 14.0111 107.735 14.0291 106.973 14.0651H104.251C104.106 15.0091 103.979 15.7711 103.87 16.3521C103.797 16.9321 103.761 17.7851 103.761 18.9101V35.9501ZM12.63 37.9641C12.63 37.4201 12.684 36.6941 12.793 35.7861C13.701 35.6781 14.426 35.6231 14.971 35.6231C15.515 35.6231 16.241 35.6781 17.148 35.7861C17.221 36.6941 17.257 37.4201 17.257 37.9641C17.257 38.5081 17.221 39.2341 17.148 40.1421C16.205 40.2141 15.461 40.2501 14.916 40.2501C14.372 40.2501 13.664 40.2141 12.793 40.1421C12.684 39.2341 12.63 38.5081 12.63 37.9641Z" fill="black"/>
</svg>
