<svg width="134" height="41" viewBox="0 0 134 41" fill="none" xmlns="http://www.w3.org/2000/svg">
<path fill-rule="evenodd" clip-rule="evenodd" d="M87.102 25.8257H86.504C83.927 25.8257 81.876 25.7658 80.352 25.6558C78.828 25.5558 76.886 25.386 74.527 25.166C74.382 25.136 74.255 25.1157 74.146 25.1157C74.073 25.1157 73.965 25.0959 73.819 25.0659C73.602 24.9159 73.438 24.7557 73.329 24.5757C73.221 24.3857 73.184 24.1856 73.221 23.9756C73.293 23.7556 73.384 23.5958 73.493 23.4858C73.602 23.3758 73.765 23.3056 73.983 23.2656C74.309 23.3056 74.545 23.336 74.69 23.376C74.872 23.406 75.126 23.4458 75.453 23.4858C76.759 23.7758 78.047 23.9759 79.318 24.0859C80.624 24.1859 82.076 24.2057 83.673 24.1357C84.907 24.0657 85.742 23.7558 86.177 23.2158C86.613 22.6658 86.83 21.8456 86.83 20.7656C86.83 18.9056 86.576 17.2359 86.068 15.7559C85.56 14.2659 84.562 13.5156 83.074 13.5156C82.058 13.5156 81.078 13.9757 80.134 14.8857C79.227 15.7857 78.537 17.2358 78.066 19.2358C77.993 19.3458 77.957 19.4559 77.957 19.5659C77.957 19.6359 77.939 19.7259 77.902 19.8359C77.721 20.5259 77.467 21.0658 77.14 21.4658C76.85 21.8658 76.414 22.0659 75.834 22.0659C75.326 22.0659 74.944 21.9257 74.69 21.6357C74.436 21.3457 74.291 20.9957 74.255 20.5957C74.255 20.1957 74.309 19.8156 74.418 19.4556C74.672 18.5156 75.162 17.4958 75.888 16.4058C76.65 15.2858 77.648 14.3058 78.882 13.4658C80.116 12.6358 81.55 12.2158 83.183 12.2158C84.489 12.2158 85.705 12.5358 86.83 13.1958C87.955 13.8158 88.863 14.8256 89.552 16.2456C90.278 17.6256 90.641 19.3859 90.641 21.5259C90.641 22.6459 90.478 23.5157 90.151 24.1357C89.824 24.7557 89.407 25.1858 88.899 25.4458C88.427 25.6558 87.828 25.7857 87.102 25.8257ZM87.102 39.436C86.05 40.306 84.78 40.7358 83.292 40.7358C80.824 40.7358 78.846 39.9959 77.358 38.5059C75.87 37.0159 74.836 35.4258 74.255 33.7158C73.71 31.9758 73.384 30.5257 73.275 29.3657C73.202 28.8857 73.221 28.476 73.329 28.106C73.475 27.716 73.71 27.4158 74.037 27.2358C74.364 27.0258 74.781 26.916 75.289 26.916C75.906 26.916 76.378 27.0956 76.705 27.4556C77.031 27.7856 77.249 28.2056 77.358 28.7056V28.9258C77.394 28.9658 77.412 29.0159 77.412 29.0859C77.449 29.3059 77.467 29.506 77.467 29.686C77.503 29.866 77.539 30.0656 77.576 30.2856C77.757 31.6656 78.047 32.9159 78.447 34.0459C78.846 35.1659 79.445 36.1458 80.243 36.9858C81.078 37.7858 82.167 38.186 83.51 38.186C84.671 38.186 85.633 37.8157 86.395 37.0957C87.157 36.3257 87.719 35.516 88.082 34.646C88.445 33.776 88.699 32.9059 88.845 32.0259C88.953 31.4159 89.135 30.9959 89.389 30.7759C89.643 30.5559 89.933 30.4857 90.26 30.5557C90.659 30.6357 90.931 30.8458 91.077 31.2158C91.222 31.5358 91.185 31.9957 90.968 32.5757C90.605 33.8857 90.133 35.1357 89.552 36.3257C88.972 37.4957 88.155 38.526 87.102 39.436ZM14.1 24.5757C15.297 23.1157 17.257 21.726 19.979 20.376C22.302 19.216 23.917 18.1859 24.824 17.2759C25.732 16.3359 26.185 15.2857 26.185 14.1157C26.185 13.4657 25.913 12.906 25.369 12.436C24.824 11.956 24.189 11.7256 23.463 11.7256C22.556 11.7256 21.558 11.946 20.469 12.376C19.417 12.816 18.019 13.486 16.277 14.396C14.209 15.476 12.43 16.316 10.942 16.896C9.491 17.476 8.057 17.7656 6.642 17.7656C5.589 17.7656 4.537 17.476 3.484 16.896C2.468 16.316 1.633 15.4958 0.98 14.4458C0.327 13.3958 0 12.196 0 10.856C0 9.32596 0.327 8.0559 0.98 7.0459C1.633 6.0259 2.432 5.2057 3.375 4.5957C4.101 4.1257 4.754 3.68564 5.335 3.28564C5.916 2.88564 6.442 2.5258 6.914 2.1958C7.712 1.6158 8.275 1.23566 8.601 1.05566C8.964 0.875664 9.327 0.785645 9.69 0.785645C10.271 0.785645 10.761 0.985977 11.16 1.37598C11.596 1.74598 11.813 2.2357 11.813 2.8457C11.813 3.3557 11.523 3.79576 10.942 4.15576C10.362 4.51576 9.418 5.00598 8.111 5.62598C7.64 5.80598 7.15 6.02588 6.642 6.27588C6.133 6.49588 5.644 6.73584 5.172 6.98584C4.264 7.49584 3.484 8.136 2.831 8.896C2.178 9.616 1.851 10.456 1.851 11.396C1.851 12.086 2.087 12.8157 2.559 13.5757C3.03 14.3357 3.793 14.7158 4.845 14.7158C5.644 14.7158 6.515 14.5157 7.458 14.1157C8.438 13.7157 9.708 13.0858 11.269 12.2158C13.374 11.0858 15.189 10.2358 16.713 9.65576C18.273 9.03576 19.834 8.72559 21.395 8.72559C22.883 8.72559 24.135 9.12578 25.151 9.92578C26.167 10.6858 26.911 11.6359 27.383 12.7559C27.891 13.8859 28.145 14.8957 28.145 15.8057C28.145 17.0757 27.873 18.1456 27.328 19.0156C26.784 19.8856 26.058 20.6359 25.151 21.2559C24.28 21.8359 22.973 22.5758 21.231 23.4858C20.505 23.8858 19.743 24.2958 18.945 24.7358C18.146 25.1358 17.33 25.5857 16.495 26.0957C15.406 26.7857 14.644 27.3659 14.209 27.8359C13.809 28.2759 13.61 28.8757 13.61 29.6357V31.1558C13.61 31.3758 13.537 31.536 13.392 31.646C13.283 31.756 13.138 31.8159 12.957 31.8159C12.775 31.8159 12.612 31.756 12.467 31.646C12.358 31.506 12.303 31.3358 12.303 31.1558V29.0356C12.303 27.4756 12.902 25.9857 14.1 24.5757ZM133.103 24.9556C133.321 25.0656 133.43 25.2456 133.43 25.4956C133.466 25.7856 133.376 26.0256 133.158 26.2056C132.94 26.3456 132.686 26.4759 132.396 26.5859C129.892 26.9459 127.895 27.2356 126.407 27.4556C124.919 27.6756 122.833 27.7856 120.147 27.7856C119.348 27.6056 118.604 27.2257 117.915 26.6357C117.262 26.0257 116.754 25.2459 116.391 24.2959C116.064 23.3559 115.955 22.306 116.064 21.146C116.209 20.016 116.5 18.9458 116.935 17.9258C117.407 16.9158 118.024 15.9858 118.786 15.1558C119.548 14.2858 120.474 13.5959 121.562 13.0859C122.179 12.7959 122.851 12.576 123.577 12.436C124.339 12.246 125.119 12.1558 125.917 12.1558C127.732 12.1558 129.202 12.576 130.327 13.416C131.452 14.206 132.323 15.2058 132.94 16.4058C133.085 16.7358 133.212 17.0557 133.321 17.3857C133.43 17.7157 133.503 17.9856 133.539 18.2056C133.612 18.7456 133.466 19.1959 133.103 19.5659C132.741 19.8859 132.341 19.9759 131.906 19.8359C131.47 19.6859 131.18 19.3058 131.035 18.6958C130.926 18.4758 130.835 18.2757 130.763 18.0957C130.726 17.8757 130.654 17.656 130.545 17.436C130.254 16.746 129.892 16.1359 129.456 15.5859C129.057 15.0459 128.549 14.5956 127.932 14.2256C127.351 13.8656 126.68 13.686 125.917 13.686C125.3 13.686 124.684 13.8159 124.067 14.0659C123.486 14.2859 122.923 14.6257 122.379 15.0957C121.835 15.5757 121.345 16.1356 120.909 16.7856C120.51 17.4356 120.183 18.2057 119.929 19.0757C119.675 19.9457 119.512 20.9056 119.439 21.9556C119.403 23.0856 119.711 23.976 120.365 24.626C121.018 25.246 121.835 25.6058 122.814 25.7158C122.887 25.7158 122.96 25.7356 123.032 25.7656H123.413C124.792 25.7356 125.899 25.6557 126.734 25.5557C127.605 25.4057 128.785 25.2259 130.273 25.0059C130.744 24.9359 131.107 24.8757 131.361 24.8457C131.615 24.8057 131.96 24.7856 132.396 24.7856C132.65 24.7556 132.886 24.8056 133.103 24.9556ZM59.012 14.0659C60.536 12.6159 62.224 11.8857 64.075 11.8857C65.164 11.8857 66.125 12.1556 66.96 12.7056C67.795 13.2456 68.502 14.1159 69.083 15.3159C69.664 16.4759 70.045 18.0258 70.226 19.9458V20.106C70.226 20.146 70.245 20.2157 70.281 20.3257C70.281 20.6157 70.245 20.8659 70.172 21.0859C70.099 21.3059 69.936 21.4358 69.682 21.4658C69.646 21.4658 69.609 21.4859 69.573 21.5259H69.519C69.301 21.5559 69.119 21.506 68.974 21.356C68.829 21.176 68.702 20.9458 68.593 20.6558L68.103 19.186C67.559 17.516 66.924 16.1557 66.198 15.0957C65.472 14.0457 64.51 13.5156 63.313 13.5156C62.224 13.5156 61.28 14.136 60.482 15.376C59.72 16.566 59.121 18.1257 58.685 20.0557C58.286 21.9757 58.086 23.9558 58.086 25.9858C58.086 28.7858 58.359 31.0657 58.903 32.8457C59.447 34.6257 60.137 35.9158 60.972 36.7158C61.806 37.5058 62.659 37.9058 63.53 37.9058C65.091 37.9058 66.27 37.4057 67.069 36.3857C67.904 35.3657 68.539 34.2659 68.974 33.0659L69.083 32.7358C69.156 32.6258 69.246 32.516 69.355 32.416C69.464 32.266 69.591 32.1958 69.736 32.1958C70.027 32.1958 70.208 32.3056 70.281 32.5156C70.39 32.7356 70.408 32.9558 70.335 33.1758C69.791 35.7458 68.865 37.6758 67.559 38.9458C66.252 40.1758 64.655 40.7959 62.768 40.7959C60.954 40.7959 59.375 40.1557 58.032 38.8857C56.725 37.6157 55.727 35.966 55.038 33.936C54.348 31.906 54.004 29.7456 54.004 27.4556C54.004 24.6956 54.457 22.1356 55.365 19.7856C56.272 17.3856 57.488 15.4759 59.012 14.0659ZM130.164 38.7759C129.039 40.0859 127.496 40.7358 125.536 40.7358C123.831 40.7358 122.288 40.286 120.909 39.376C119.566 38.436 118.514 37.2356 117.752 35.7856C116.989 34.2956 116.536 32.7159 116.391 31.0459C116.354 30.5759 116.409 30.1659 116.554 29.7959C116.735 29.4359 116.953 29.1658 117.207 28.9858C117.498 28.7658 117.77 28.6357 118.024 28.5957C118.278 28.5657 118.55 28.6156 118.84 28.7656C119.167 28.8756 119.439 29.1056 119.657 29.4756C119.911 29.7956 120.056 30.2559 120.092 30.8359C120.238 32.1359 120.528 33.3358 120.964 34.4258C121.399 35.4758 122.016 36.3258 122.814 36.9858C123.649 37.6358 124.629 37.9658 125.754 37.9658C126.77 37.9658 127.641 37.7457 128.367 37.3057C129.129 36.8357 129.746 36.276 130.218 35.626C130.69 34.966 131.125 34.1756 131.525 33.2256C131.634 32.8656 131.779 32.596 131.96 32.416C132.142 32.196 132.378 32.1356 132.668 32.2456C132.958 32.3956 133.085 32.6058 133.049 32.9058C133.013 33.1958 132.958 33.4658 132.886 33.7158C132.232 35.7458 131.325 37.4359 130.164 38.7759ZM112.308 30.126C112.344 31.866 112.362 34.5157 112.362 38.0757C112.362 38.8357 112.199 39.4656 111.872 39.9756C111.582 40.4456 111.128 40.686 110.511 40.686C109.931 40.686 109.459 40.4859 109.096 40.0859C108.733 39.6559 108.551 39.016 108.551 38.186C108.479 35.746 108.424 32.506 108.388 28.436V18.4756C108.388 17.3156 107.934 16.2456 107.027 15.2656C106.156 14.2856 104.777 13.7959 102.89 13.7959C101.365 13.7959 100.15 14.3059 99.242 15.3159C98.371 16.2959 97.936 17.476 97.936 18.856V29.9058C97.9 31.3258 97.881 32.486 97.881 33.396V36.6558C97.881 37.4558 97.7 38.0759 97.337 38.5059C96.974 38.9459 96.466 39.166 95.813 39.166C95.268 39.166 94.851 38.9659 94.561 38.5659C94.27 38.1659 94.125 37.6556 94.125 37.0356C94.089 35.0456 94.053 32.916 94.016 30.666V20.5459C94.016 19.3859 94.343 18.1457 94.996 16.8457C95.649 15.5357 96.629 14.4256 97.936 13.5156C99.279 12.6156 100.912 12.1558 102.835 12.1558C104.868 12.1558 106.61 12.5958 108.061 13.4658C109.513 14.3058 110.584 15.3359 111.273 16.5659C111.963 17.7659 112.308 18.9056 112.308 19.9956V30.126ZM49.485 23.9756C50.792 26.0056 51.445 28.1859 51.445 30.5059C51.445 32.5359 50.973 34.3159 50.03 35.8359C49.086 37.3659 47.779 38.566 46.11 39.436C44.477 40.266 42.59 40.686 40.448 40.686C39.686 40.686 38.833 40.6158 37.89 40.4658C36.982 40.3258 36.111 40.1458 35.277 39.9258C34.478 39.7058 33.861 39.4658 33.426 39.2158C33.172 39.0658 32.972 38.9259 32.827 38.7759C32.682 38.5959 32.609 38.3058 32.609 37.9058L32.337 29.3657C32.301 28.6357 32.554 28.2759 33.099 28.2759C33.462 28.2759 33.734 28.5959 33.916 29.2559L34.569 31.8159C35.658 36.0959 38.017 38.526 41.646 39.106C43.715 39.106 45.257 38.3858 46.273 36.9258C47.326 35.4758 47.852 33.646 47.852 31.436C47.852 29.286 47.271 27.3658 46.11 25.6558C44.985 23.9158 43.152 22.1357 40.612 20.3257C37.817 18.4057 35.766 16.496 34.46 14.606C33.19 12.726 32.554 10.7656 32.554 8.72559C32.554 6.33559 33.516 4.3559 35.44 2.7959C37.363 1.2359 39.741 0.455566 42.571 0.455566C43.733 0.455566 44.894 0.585938 46.055 0.835938C47.217 1.08594 48.142 1.45578 48.832 1.92578C49.05 2.06578 49.213 2.23602 49.322 2.41602C49.467 2.59602 49.539 2.83598 49.539 3.12598L49.757 11.3457C49.794 11.9557 49.576 12.2656 49.104 12.2656C48.669 12.2656 48.396 11.9956 48.287 11.4556L47.852 9.49561C47.344 7.27561 46.618 5.4659 45.674 4.0459C44.767 2.6359 43.442 1.92578 41.7 1.92578C40.031 1.92578 38.67 2.46566 37.617 3.55566C36.565 4.61566 36.039 6.06602 36.039 7.91602C36.039 9.47602 36.565 10.966 37.617 12.376C38.706 13.796 40.593 15.5159 43.279 17.5459C46.11 19.7659 48.179 21.9056 49.485 23.9756ZM62.659 23.8057C63.022 23.4057 63.494 23.2158 64.075 23.2158C64.583 23.2158 65.018 23.4057 65.381 23.8057C65.781 24.1757 65.98 24.626 65.98 25.166C65.98 25.676 65.781 26.1356 65.381 26.5356C65.018 26.8956 64.583 27.0757 64.075 27.0757C63.53 27.0757 63.059 26.8956 62.659 26.5356C62.296 26.1356 62.115 25.676 62.115 25.166C62.115 24.626 62.296 24.1757 62.659 23.8057ZM11.813 36.2759C12.213 35.8759 12.666 35.6758 13.174 35.6758C13.682 35.6758 14.118 35.8759 14.481 36.2759C14.88 36.6359 15.08 37.0957 15.08 37.6357C15.08 38.1457 14.88 38.5956 14.481 38.9956C14.118 39.3656 13.682 39.5459 13.174 39.5459C12.666 39.5459 12.213 39.3656 11.813 38.9956C11.414 38.5956 11.214 38.1457 11.214 37.6357C11.214 37.0957 11.414 36.6359 11.813 36.2759Z" fill="black"/>
</svg>
