<svg width="134" height="41" viewBox="0 0 134 41" fill="none" xmlns="http://www.w3.org/2000/svg">
<path fill-rule="evenodd" clip-rule="evenodd" d="M86.449 25.936H86.231C83.691 25.936 81.659 25.8558 80.134 25.7158C78.61 25.5658 76.723 25.386 74.473 25.166C74.291 25.136 74.164 25.1157 74.092 25.1157C74.019 25.0757 73.892 25.0659 73.71 25.0659C73.493 24.8759 73.329 24.6956 73.221 24.5156C73.112 24.3356 73.075 24.136 73.112 23.916C73.148 23.696 73.221 23.5358 73.329 23.4258C73.475 23.3158 73.674 23.2656 73.928 23.2656C74.255 23.3056 74.491 23.336 74.636 23.376C74.781 23.406 75.017 23.4458 75.344 23.4858C76.686 23.7758 77.975 23.9957 79.209 24.1357C80.479 24.2857 81.931 24.296 83.564 24.186C84.762 24.116 85.578 23.8056 86.014 23.2656C86.486 22.7256 86.721 21.8856 86.721 20.7656C86.721 18.9056 86.449 17.2359 85.905 15.7559C85.397 14.2659 84.417 13.5156 82.965 13.5156C81.913 13.5156 80.933 13.9757 80.025 14.8857C79.118 15.7557 78.41 17.186 77.902 19.186C77.866 19.296 77.848 19.3856 77.848 19.4556C77.848 19.5256 77.812 19.6356 77.739 19.7856C77.558 20.4356 77.303 20.976 76.977 21.416C76.686 21.816 76.269 22.0156 75.725 22.0156C75.217 22.0156 74.836 21.8657 74.582 21.5757C74.364 21.2857 74.219 20.9459 74.146 20.5459C74.11 20.1059 74.146 19.726 74.255 19.396C74.509 18.456 74.999 17.436 75.725 16.356C76.487 15.226 77.485 14.2658 78.719 13.4658C79.989 12.6358 81.441 12.2158 83.074 12.2158C84.381 12.2158 85.596 12.5358 86.721 13.1958C87.846 13.8158 88.754 14.806 89.443 16.186C90.169 17.566 90.532 19.306 90.532 21.416C90.532 22.576 90.351 23.4857 89.988 24.1357C89.661 24.7557 89.226 25.2056 88.681 25.4956C88.137 25.7556 87.502 25.876 86.776 25.876C86.667 25.916 86.558 25.936 86.449 25.936ZM86.939 39.436C85.887 40.306 84.635 40.7358 83.183 40.7358C80.679 40.7358 78.683 39.9959 77.195 38.5059C75.743 37.0159 74.727 35.4459 74.146 33.7759C73.565 32.0659 73.221 30.6356 73.112 29.4756C73.075 28.9956 73.112 28.5858 73.221 28.2158C73.366 27.8158 73.602 27.5159 73.928 27.2959C74.255 27.0759 74.672 26.9658 75.18 26.9658C75.797 26.9658 76.269 27.1456 76.596 27.5156C76.922 27.8756 77.14 28.2956 77.249 28.7656V28.9858C77.285 29.0158 77.303 29.076 77.303 29.146V29.7456C77.34 29.9256 77.376 30.146 77.412 30.396C77.594 31.776 77.884 33.0258 78.283 34.1558C78.683 35.2458 79.281 36.1858 80.08 36.9858C80.915 37.7858 82.003 38.186 83.346 38.186C84.507 38.186 85.451 37.8157 86.177 37.0957C86.939 36.3657 87.502 35.546 87.865 34.646C88.228 33.736 88.5 32.8859 88.681 32.0859C88.79 31.4359 88.972 30.9959 89.226 30.7759C89.48 30.5259 89.788 30.4359 90.151 30.5059C90.55 30.5759 90.822 30.7958 90.968 31.1558C91.149 31.5258 91.131 32.016 90.913 32.626C90.514 33.936 90.006 35.1857 89.389 36.3857C88.808 37.5457 87.992 38.566 86.939 39.436ZM14.1 24.626C15.334 23.176 17.294 21.776 19.979 20.436C22.302 19.276 23.917 18.2159 24.824 17.2759C25.732 16.3359 26.185 15.2857 26.185 14.1157C26.185 13.4657 25.913 12.906 25.369 12.436C24.86 11.956 24.244 11.7256 23.518 11.7256C22.61 11.7256 21.612 11.956 20.523 12.436C19.471 12.866 18.074 13.5358 16.332 14.4458C14.227 15.5358 12.448 16.3658 10.997 16.9458C9.545 17.4958 8.093 17.7656 6.642 17.7656C5.589 17.7656 4.537 17.476 3.484 16.896C2.468 16.316 1.633 15.4958 0.98 14.4458C0.327 13.3958 0 12.196 0 10.856C0 9.36596 0.327 8.1157 0.98 7.0957C1.669 6.0757 2.486 5.2457 3.43 4.5957C4.156 4.1257 4.809 3.70594 5.389 3.33594C5.97 2.94594 6.496 2.5558 6.968 2.1958C7.73 1.6558 8.293 1.27566 8.656 1.05566C9.019 0.835664 9.364 0.725586 9.69 0.725586C10.271 0.725586 10.761 0.925684 11.16 1.32568C11.596 1.68568 11.813 2.1957 11.813 2.8457C11.813 3.3557 11.523 3.81582 10.942 4.21582C10.362 4.57582 9.418 5.02568 8.111 5.57568C7.64 5.78568 7.15 6.02588 6.642 6.27588C6.17 6.49588 5.68 6.7559 5.172 7.0459C4.264 7.5159 3.484 8.136 2.831 8.896C2.214 9.616 1.905 10.456 1.905 11.396C1.905 12.086 2.123 12.836 2.559 13.626C3.03 14.396 3.793 14.7759 4.845 14.7759C5.644 14.7759 6.515 14.5758 7.458 14.1758C8.438 13.7758 9.708 13.1356 11.269 12.2656C13.41 11.1056 15.243 10.2358 16.767 9.65576C18.292 9.03576 19.852 8.72559 21.449 8.72559C22.901 8.72559 24.135 9.12578 25.151 9.92578C26.167 10.7258 26.929 11.6859 27.437 12.8159C27.945 13.9059 28.199 14.8957 28.199 15.8057C28.199 17.1157 27.927 18.2057 27.383 19.0757C26.838 19.9457 26.113 20.6857 25.205 21.3057C24.334 21.8857 23.028 22.6158 21.286 23.4858C20.523 23.8858 19.743 24.2958 18.945 24.7358C18.183 25.1658 17.384 25.646 16.549 26.146C15.461 26.836 14.698 27.4059 14.263 27.8359C13.828 28.2759 13.61 28.8757 13.61 29.6357V31.2158C13.61 31.4358 13.537 31.5956 13.392 31.7056C13.283 31.8156 13.138 31.8657 12.957 31.8657C12.775 31.8657 12.612 31.8156 12.467 31.7056C12.358 31.5556 12.303 31.3958 12.303 31.2158V29.0356C12.303 27.5156 12.902 26.046 14.1 24.626ZM132.94 25.0659C133.158 25.1659 133.285 25.356 133.321 25.606C133.321 25.936 133.212 26.1857 132.995 26.3657C132.813 26.5157 132.577 26.6258 132.287 26.6958C129.892 27.1658 127.968 27.5156 126.516 27.7256C125.101 27.9456 123.105 28.0557 120.528 28.0557C119.584 27.8757 118.75 27.496 118.024 26.916C117.298 26.296 116.735 25.4956 116.336 24.5156C115.937 23.5356 115.774 22.4459 115.846 21.2559C115.955 20.0859 116.227 18.9858 116.663 17.9258C117.135 16.8758 117.77 15.9357 118.568 15.0957C119.367 14.2257 120.292 13.5559 121.345 13.0859C121.998 12.7559 122.687 12.526 123.413 12.376C124.175 12.236 124.956 12.1558 125.754 12.1558C127.569 12.1558 129.039 12.556 130.164 13.356C131.325 14.156 132.196 15.1359 132.777 16.2959C132.958 16.6259 133.085 16.9459 133.158 17.2759L133.43 18.0957C133.503 18.6057 133.357 19.0157 132.995 19.3457C132.668 19.6357 132.287 19.7257 131.851 19.6157C131.452 19.5057 131.18 19.1459 131.035 18.5259L130.817 17.9858C130.744 17.7658 130.672 17.5657 130.599 17.3857C130.236 16.6957 129.837 16.0959 129.402 15.5859C129.002 15.0859 128.494 14.6456 127.877 14.2856C127.26 13.8856 126.553 13.686 125.754 13.686C125.137 13.686 124.52 13.8159 123.903 14.0659C123.286 14.3159 122.706 14.6657 122.161 15.0957C121.653 15.5357 121.181 16.0956 120.746 16.7856C120.347 17.4356 120.002 18.2057 119.711 19.0757C119.457 19.9057 119.294 20.8357 119.221 21.8457C119.185 23.0457 119.512 23.9958 120.201 24.6758C120.891 25.3658 121.762 25.786 122.814 25.936C122.923 25.966 123.014 25.9858 123.087 25.9858H123.413C124.792 25.9858 125.917 25.9156 126.788 25.7656C127.66 25.6256 128.803 25.426 130.218 25.166C130.69 25.096 131.053 25.0459 131.307 25.0059C131.561 24.9759 131.869 24.936 132.232 24.896C132.523 24.866 132.759 24.9159 132.94 25.0659ZM58.794 14.0659C60.355 12.6159 62.024 11.8857 63.803 11.8857C64.928 11.8857 65.908 12.1556 66.742 12.7056C67.613 13.2456 68.339 14.1159 68.92 15.3159C69.501 16.5159 69.9 18.0357 70.118 19.8857C70.154 19.9657 70.172 20.036 70.172 20.106V20.2759C70.208 20.5959 70.172 20.8659 70.063 21.0859C69.99 21.2659 69.845 21.376 69.628 21.416C69.591 21.446 69.555 21.4859 69.519 21.5259H69.41C69.192 21.5259 69.01 21.4457 68.865 21.3057C68.72 21.1557 68.611 20.9458 68.539 20.6558L68.049 19.126C67.468 17.496 66.797 16.1557 66.035 15.0957C65.309 14.0057 64.347 13.4658 63.149 13.4658C62.097 13.4658 61.171 14.0859 60.373 15.3159C59.611 16.5559 59.012 18.146 58.576 20.106C58.177 22.036 57.978 24.0059 57.978 26.0459C57.978 28.7959 58.232 31.0657 58.74 32.8457C59.284 34.6257 59.974 35.9158 60.808 36.7158C61.643 37.5058 62.514 37.9058 63.422 37.9058C64.982 37.9058 66.162 37.4057 66.96 36.3857C67.795 35.3357 68.43 34.2059 68.865 33.0059L68.974 32.7358C69.047 32.6258 69.138 32.516 69.246 32.416C69.355 32.266 69.482 32.1958 69.628 32.1958C69.918 32.1958 70.099 32.3056 70.172 32.5156C70.281 32.7356 70.299 32.9558 70.226 33.1758C69.682 35.7458 68.757 37.6758 67.45 38.9458C66.143 40.1758 64.546 40.7959 62.659 40.7959C60.845 40.7959 59.266 40.1557 57.923 38.8857C56.58 37.6157 55.564 35.966 54.875 33.936C54.185 31.906 53.84 29.7456 53.84 27.4556C53.84 24.7356 54.276 22.1756 55.147 19.7856C56.054 17.3856 57.27 15.4759 58.794 14.0659ZM130 38.8359C128.875 40.1059 127.351 40.7358 125.428 40.7358C123.685 40.7358 122.143 40.306 120.8 39.436C119.494 38.526 118.459 37.3658 117.697 35.9458C116.935 34.4958 116.481 32.976 116.336 31.376C116.264 30.906 116.3 30.486 116.445 30.126C116.59 29.766 116.79 29.4857 117.044 29.3057C117.334 29.0857 117.606 28.9658 117.861 28.9258C118.151 28.8858 118.441 28.9459 118.732 29.0859C119.022 29.1959 119.276 29.4156 119.494 29.7456C119.748 30.0356 119.911 30.4659 119.984 31.0459C120.092 32.3559 120.365 33.5359 120.8 34.5859C121.236 35.6059 121.853 36.4357 122.651 37.0957C123.45 37.7057 124.429 38.0156 125.591 38.0156C126.534 38.0156 127.369 37.7957 128.095 37.3657C128.857 36.8957 129.492 36.3258 130 35.6758C130.508 35.0258 130.944 34.2459 131.307 33.3359C131.416 33.0059 131.561 32.7557 131.742 32.5757C131.924 32.3557 132.16 32.306 132.45 32.416C132.741 32.516 132.868 32.7159 132.831 33.0059C132.831 33.2959 132.777 33.5857 132.668 33.8857C132.015 35.8757 131.125 37.5259 130 38.8359ZM112.199 30.1758C112.235 31.8858 112.253 34.5157 112.253 38.0757C112.253 38.8757 112.09 39.5256 111.763 40.0356C111.473 40.5356 111.001 40.7959 110.348 40.7959C109.804 40.7959 109.35 40.5958 108.987 40.1958C108.624 39.7558 108.424 39.086 108.388 38.186C108.352 35.826 108.316 32.5956 108.279 28.4956V18.4756C108.279 17.3156 107.826 16.2456 106.918 15.2656C106.047 14.2856 104.65 13.7959 102.726 13.7959C101.238 13.7959 100.041 14.3059 99.134 15.3159C98.262 16.2959 97.827 17.476 97.827 18.856C97.827 21.286 97.809 23.1059 97.772 24.2959V36.606C97.772 37.326 97.573 37.926 97.174 38.396C96.811 38.836 96.321 39.0557 95.704 39.0557C95.159 39.0557 94.742 38.8556 94.452 38.4556C94.161 38.0156 93.998 37.496 93.962 36.876C93.926 34.846 93.889 32.7357 93.853 30.5557C93.853 28.3857 93.871 25.9358 93.907 23.2158V20.5459C93.907 19.3859 94.234 18.1457 94.887 16.8457C95.54 15.5357 96.52 14.4256 97.827 13.5156C99.17 12.6156 100.803 12.1558 102.726 12.1558C104.759 12.1558 106.483 12.5958 107.898 13.4658C109.35 14.3058 110.42 15.3359 111.11 16.5659C111.836 17.7659 112.199 18.9056 112.199 19.9956V30.1758ZM49.376 23.9756C50.683 26.0056 51.336 28.1859 51.336 30.5059C51.336 32.5359 50.864 34.3159 49.921 35.8359C48.977 37.3659 47.67 38.566 46.001 39.436C44.368 40.266 42.481 40.686 40.339 40.686C39.577 40.686 38.724 40.6158 37.781 40.4658C36.873 40.3258 36.002 40.1458 35.168 39.9258C34.369 39.7058 33.752 39.4658 33.317 39.2158C33.063 39.0658 32.863 38.9259 32.718 38.7759C32.573 38.5959 32.5 38.3058 32.5 37.9058L32.228 29.3657C32.192 28.6357 32.446 28.2759 32.99 28.2759C33.389 28.2759 33.661 28.5959 33.807 29.2559L34.46 31.9258C35.512 36.0558 37.871 38.456 41.537 39.106C43.642 39.066 45.203 38.326 46.219 36.876C47.271 35.386 47.798 33.5357 47.798 31.3257C47.798 29.1857 47.217 27.276 46.055 25.606C44.894 23.896 43.043 22.1357 40.503 20.3257C37.708 18.4057 35.658 16.496 34.351 14.606C33.081 12.686 32.446 10.7058 32.446 8.67578C32.446 6.27578 33.389 4.3159 35.277 2.7959C37.2 1.2359 39.577 0.455566 42.408 0.455566C43.569 0.455566 44.731 0.585938 45.892 0.835938C47.09 1.08594 48.033 1.45578 48.723 1.92578C48.941 2.06578 49.104 2.23602 49.213 2.41602C49.358 2.59602 49.431 2.83598 49.431 3.12598L49.703 11.396C49.703 12.016 49.467 12.3257 48.995 12.3257C48.596 12.2857 48.324 11.9956 48.179 11.4556L47.798 9.43604C47.253 7.29604 46.509 5.51596 45.566 4.10596C44.658 2.65596 43.334 1.92578 41.591 1.92578C39.958 1.92578 38.597 2.46566 37.509 3.55566C36.456 4.61566 35.93 6.06602 35.93 7.91602C35.93 9.47602 36.456 10.966 37.509 12.376C38.597 13.796 40.484 15.5159 43.17 17.5459C46.001 19.7659 48.07 21.9056 49.376 23.9756ZM62.55 23.8057C62.913 23.4057 63.385 23.2158 63.966 23.2158C64.474 23.2158 64.909 23.4057 65.272 23.8057C65.672 24.1757 65.871 24.626 65.871 25.166C65.871 25.676 65.672 26.1356 65.272 26.5356C64.909 26.8956 64.474 27.0757 63.966 27.0757C63.422 27.0757 62.95 26.8956 62.55 26.5356C62.188 26.1356 62.006 25.676 62.006 25.166C62.006 24.626 62.188 24.1757 62.55 23.8057ZM11.759 36.2759C12.158 35.8759 12.612 35.6758 13.12 35.6758C13.628 35.6758 14.063 35.8759 14.426 36.2759C14.826 36.6359 15.025 37.0957 15.025 37.6357C15.025 38.1457 14.826 38.5956 14.426 38.9956C14.063 39.3656 13.628 39.5459 13.12 39.5459C12.612 39.5459 12.158 39.3656 11.759 38.9956C11.36 38.5956 11.16 38.1457 11.16 37.6357C11.16 37.0957 11.36 36.6359 11.759 36.2759Z" fill="black"/>
</svg>
