<svg width="134" height="41" viewBox="0 0 134 41" fill="none" xmlns="http://www.w3.org/2000/svg">
<path fill-rule="evenodd" clip-rule="evenodd" d="M86.177 25.9858H85.905C83.437 25.9858 81.441 25.9156 79.917 25.7656C78.392 25.6256 76.559 25.426 74.418 25.166C74.237 25.136 74.092 25.1157 73.983 25.1157C73.91 25.0757 73.801 25.0659 73.656 25.0659C73.402 24.8759 73.202 24.6956 73.057 24.5156C72.948 24.2956 72.912 24.096 72.948 23.916C73.021 23.666 73.112 23.486 73.221 23.376C73.366 23.266 73.583 23.2158 73.874 23.2158C74.164 23.2458 74.382 23.2859 74.527 23.3159C74.672 23.3559 74.908 23.4058 75.235 23.4858C76.614 23.8058 77.92 24.046 79.154 24.186C80.388 24.336 81.804 24.3556 83.401 24.2456C84.598 24.1356 85.415 23.8056 85.85 23.2656C86.322 22.7256 86.558 21.8656 86.558 20.7056C86.558 18.8956 86.304 17.2359 85.796 15.7559C85.288 14.2659 84.29 13.5156 82.802 13.5156C81.786 13.5156 80.824 13.9557 79.917 14.8257C79.009 15.6957 78.302 17.1157 77.793 19.0757C77.757 19.1857 77.739 19.296 77.739 19.396C77.739 19.476 77.703 19.5658 77.63 19.6758C77.449 20.3658 77.195 20.926 76.868 21.356C76.578 21.756 76.16 21.9556 75.616 21.9556C75.108 21.9556 74.727 21.8159 74.473 21.5259C74.255 21.2359 74.11 20.8858 74.037 20.4858C74.001 20.0558 74.037 19.6757 74.146 19.3457C74.4 18.4057 74.89 17.3859 75.616 16.2959C76.378 15.2059 77.376 14.2658 78.61 13.4658C79.844 12.6358 81.278 12.2158 82.911 12.2158C84.217 12.2158 85.433 12.5358 86.558 13.1958C87.683 13.8158 88.59 14.806 89.28 16.186C90.006 17.536 90.369 19.2357 90.369 21.3057C90.369 22.5057 90.187 23.4259 89.824 24.0859C89.462 24.7359 88.99 25.2056 88.409 25.4956C87.865 25.7856 87.211 25.936 86.449 25.936C86.34 25.966 86.25 25.9858 86.177 25.9858ZM86.83 39.436C85.778 40.306 84.526 40.7358 83.074 40.7358C80.57 40.7358 78.574 40.0159 77.086 38.5659C75.634 37.0759 74.618 35.4957 74.037 33.8257C73.456 32.1557 73.112 30.7259 73.003 29.5259C72.93 29.0559 72.948 28.6359 73.057 28.2759C73.202 27.8759 73.438 27.5657 73.765 27.3457C74.092 27.1257 74.509 27.0259 75.017 27.0259C75.634 27.0259 76.106 27.2059 76.432 27.5659C76.759 27.9259 76.995 28.3459 77.14 28.8159V29.1958C77.176 29.4158 77.195 29.6159 77.195 29.7959C77.231 29.9759 77.267 30.1956 77.303 30.4556C77.485 31.8256 77.775 33.0856 78.174 34.2056C78.574 35.2956 79.173 36.2356 79.971 37.0356C80.806 37.8356 81.876 38.2358 83.183 38.2358C84.344 38.2358 85.288 37.876 86.014 37.146C86.776 36.386 87.338 35.546 87.701 34.646C88.064 33.736 88.318 32.8859 88.463 32.0859C88.572 31.3959 88.754 30.9456 89.008 30.7256C89.298 30.4656 89.643 30.3756 90.042 30.4556C90.441 30.5556 90.714 30.7958 90.859 31.1558C91.04 31.5258 91.022 32.026 90.804 32.686C90.405 33.986 89.897 35.2257 89.28 36.3857C88.699 37.5457 87.883 38.566 86.83 39.436ZM14.1 24.626C15.334 23.176 17.294 21.776 19.979 20.436C22.338 19.276 23.971 18.2159 24.879 17.2759C25.786 16.3359 26.24 15.2958 26.24 14.1758C26.24 13.4858 25.967 12.906 25.423 12.436C24.879 11.956 24.244 11.7256 23.518 11.7256C22.61 11.7256 21.612 11.956 20.523 12.436C19.471 12.866 18.074 13.5358 16.332 14.4458C14.227 15.5358 12.448 16.3658 10.997 16.9458C9.545 17.4958 8.093 17.7656 6.642 17.7656C5.589 17.7656 4.537 17.476 3.484 16.896C2.468 16.316 1.633 15.5156 0.98 14.4956C0.327 13.4456 0 12.236 0 10.856C0 9.36596 0.327 8.1157 0.98 7.0957C1.669 6.0757 2.486 5.2457 3.43 4.5957C4.156 4.1257 4.809 3.70594 5.389 3.33594C5.97 2.94594 6.496 2.5558 6.968 2.1958C7.73 1.6558 8.293 1.27566 8.656 1.05566C9.019 0.835664 9.364 0.725586 9.69 0.725586C10.271 0.725586 10.761 0.925684 11.16 1.32568C11.596 1.68568 11.813 2.1957 11.813 2.8457C11.813 3.3557 11.523 3.81582 10.942 4.21582C10.362 4.57582 9.418 5.02568 8.111 5.57568C7.64 5.78568 7.15 6.02588 6.642 6.27588C6.17 6.49588 5.68 6.7559 5.172 7.0459C4.264 7.5159 3.484 8.136 2.831 8.896C2.214 9.616 1.905 10.456 1.905 11.396C1.905 12.086 2.123 12.836 2.559 13.626C3.03 14.396 3.793 14.7759 4.845 14.7759C5.644 14.7759 6.515 14.5758 7.458 14.1758C8.438 13.7758 9.708 13.1356 11.269 12.2656C13.41 11.1056 15.243 10.2358 16.767 9.65576C18.292 9.03576 19.852 8.72559 21.449 8.72559C22.937 8.72559 24.189 9.12578 25.205 9.92578C26.222 10.7258 26.965 11.6859 27.437 12.8159C27.945 13.9059 28.199 14.9157 28.199 15.8657C28.199 17.1357 27.927 18.2057 27.383 19.0757C26.838 19.9457 26.113 20.6857 25.205 21.3057C24.334 21.8857 23.028 22.6158 21.286 23.4858C20.56 23.9158 19.798 24.3556 18.999 24.7856C18.201 25.1856 17.384 25.646 16.549 26.146C15.461 26.836 14.698 27.4059 14.263 27.8359C13.828 28.2759 13.61 28.886 13.61 29.686V31.2158C13.61 31.4358 13.537 31.5956 13.392 31.7056C13.283 31.8156 13.138 31.8657 12.957 31.8657C12.775 31.8657 12.612 31.8156 12.467 31.7056C12.358 31.5556 12.303 31.3958 12.303 31.2158V29.0859C12.303 27.5259 12.902 26.046 14.1 24.626ZM132.831 25.2256C133.049 25.3356 133.158 25.5156 133.158 25.7656C133.194 26.0556 133.103 26.2956 132.886 26.4756C132.704 26.6256 132.468 26.746 132.178 26.856C129.892 27.366 128.041 27.7459 126.625 28.0059C125.246 28.2559 123.323 28.3857 120.855 28.3857C119.838 28.2057 118.913 27.806 118.078 27.186C117.28 26.566 116.645 25.7558 116.173 24.7358C115.737 23.7158 115.556 22.5757 115.628 21.3057C115.737 20.1057 116.01 18.9858 116.445 17.9258C116.917 16.8758 117.552 15.9357 118.35 15.0957C119.149 14.2257 120.092 13.5559 121.181 13.0859C121.835 12.7559 122.524 12.526 123.25 12.376C124.012 12.236 124.792 12.1558 125.591 12.1558C127.405 12.1558 128.875 12.556 130 13.356C131.162 14.116 132.051 15.066 132.668 16.186C132.849 16.516 132.976 16.846 133.049 17.166C133.158 17.456 133.249 17.7158 133.321 17.9258C133.357 18.4058 133.212 18.7857 132.886 19.0757C132.595 19.3657 132.251 19.476 131.851 19.396C131.488 19.296 131.234 18.966 131.089 18.416C130.98 18.236 130.89 18.056 130.817 17.876L130.599 17.3359C130.236 16.6459 129.819 16.0659 129.347 15.5859C128.912 15.0859 128.367 14.6456 127.714 14.2856C127.097 13.8856 126.389 13.686 125.591 13.686C124.974 13.686 124.357 13.8159 123.74 14.0659C123.123 14.3159 122.542 14.6657 121.998 15.0957C121.453 15.5357 120.964 16.0758 120.528 16.7358C120.129 17.3858 119.784 18.1456 119.494 19.0156C119.24 19.8556 119.076 20.7759 119.004 21.7959C118.967 23.0659 119.312 24.0857 120.038 24.8457C120.8 25.5657 121.726 26.006 122.814 26.146C122.923 26.186 123.014 26.2056 123.087 26.2056H123.468C124.811 26.2056 125.917 26.1358 126.788 25.9858C127.66 25.8058 128.803 25.5859 130.218 25.3359C130.654 25.2659 130.998 25.206 131.252 25.166C131.507 25.096 131.797 25.0659 132.124 25.0659C132.414 25.0259 132.65 25.0756 132.831 25.2256ZM58.631 14.0659C60.155 12.5759 61.806 11.8359 63.585 11.8359C64.71 11.8359 65.69 12.1256 66.525 12.7056C67.396 13.2456 68.14 14.1159 68.757 15.3159C69.374 16.5159 69.791 18.0357 70.009 19.8857C70.045 19.9257 70.063 19.9757 70.063 20.0557V20.2158C70.099 20.5458 70.063 20.8156 69.954 21.0356C69.882 21.2556 69.736 21.376 69.519 21.416C69.482 21.416 69.446 21.4358 69.41 21.4658H69.301C69.083 21.4658 68.902 21.3959 68.757 21.2559C68.611 21.1059 68.502 20.8857 68.43 20.5957L67.94 19.126C67.359 17.496 66.688 16.1557 65.926 15.0957C65.2 14.0057 64.22 13.4658 62.986 13.4658C61.934 13.4658 61.008 14.0859 60.21 15.3159C59.447 16.5559 58.849 18.146 58.413 20.106C58.014 22.036 57.814 24.0257 57.814 26.0957C57.814 28.8557 58.086 31.1258 58.631 32.9058C59.175 34.6458 59.847 35.9158 60.645 36.7158C61.48 37.5058 62.351 37.9058 63.258 37.9058C64.819 37.9058 65.998 37.4057 66.797 36.3857C67.631 35.3357 68.266 34.2059 68.702 33.0059L68.811 32.7358C68.884 32.6258 68.974 32.516 69.083 32.416C69.192 32.266 69.319 32.1958 69.464 32.1958C69.754 32.1958 69.936 32.3056 70.009 32.5156C70.118 32.7356 70.136 32.9558 70.063 33.1758C69.519 35.7458 68.593 37.6758 67.287 38.9458C65.98 40.1758 64.383 40.7959 62.496 40.7959C60.681 40.7959 59.103 40.1557 57.76 38.8857C56.453 37.6157 55.455 35.966 54.766 33.936C54.076 31.906 53.731 29.7456 53.731 27.4556C53.731 24.8056 54.167 22.2857 55.038 19.8857C55.909 17.4557 57.106 15.5159 58.631 14.0659ZM129.783 38.8857C128.658 40.1257 127.151 40.7358 125.264 40.7358C123.522 40.7358 121.998 40.3258 120.691 39.4858C119.385 38.6158 118.35 37.4957 117.588 36.1157C116.862 34.7357 116.409 33.2656 116.227 31.7056C116.155 31.2356 116.191 30.8156 116.336 30.4556C116.481 30.0856 116.681 29.8157 116.935 29.6357C117.225 29.4157 117.498 29.2859 117.752 29.2559C118.006 29.2159 118.278 29.2557 118.568 29.3657C118.859 29.4757 119.131 29.6856 119.385 30.0156C119.639 30.3056 119.802 30.7457 119.875 31.3257C119.984 32.5957 120.256 33.7158 120.691 34.6958C121.127 35.6758 121.726 36.4757 122.488 37.0957C123.286 37.7057 124.266 38.0156 125.428 38.0156C126.335 38.0156 127.151 37.7957 127.877 37.3657C128.639 36.9257 129.275 36.4056 129.783 35.7856C130.291 35.1356 130.726 34.3756 131.089 33.4956C131.234 33.1356 131.398 32.866 131.579 32.686C131.761 32.506 131.996 32.4657 132.287 32.5757C132.577 32.6857 132.704 32.8858 132.668 33.1758C132.632 33.4658 132.577 33.7559 132.505 34.0459C131.815 36.0059 130.908 37.6157 129.783 38.8857ZM112.036 30.1758C112.072 31.9258 112.09 34.566 112.09 38.126C112.09 38.926 111.927 39.5759 111.6 40.0859C111.31 40.5959 110.856 40.8457 110.239 40.8457C109.658 40.8457 109.187 40.6358 108.824 40.1958C108.461 39.7958 108.279 39.1458 108.279 38.2358C108.207 35.9458 108.152 32.7357 108.116 28.5957V18.4756C108.116 17.3156 107.662 16.2456 106.755 15.2656C105.884 14.2856 104.505 13.7959 102.618 13.7959C101.093 13.7959 99.878 14.3059 98.97 15.3159C98.099 16.2959 97.664 17.476 97.664 18.856V29.7959C97.627 31.1759 97.609 32.3356 97.609 33.2856V36.4956C97.609 37.2156 97.41 37.8156 97.01 38.2856C96.647 38.7256 96.158 38.9458 95.54 38.9458C94.996 38.9458 94.579 38.7457 94.288 38.3457C93.998 37.9057 93.853 37.3856 93.853 36.7656L93.744 30.4556V20.5459C93.744 19.3859 94.071 18.1457 94.724 16.8457C95.377 15.5357 96.357 14.4256 97.664 13.5156C99.006 12.6156 100.64 12.1558 102.563 12.1558C104.596 12.1558 106.338 12.5958 107.789 13.4658C109.241 14.3058 110.312 15.3359 111.001 16.5659C111.691 17.7659 112.036 18.9056 112.036 19.9956V30.1758ZM49.267 23.9756C50.574 26.0056 51.227 28.1859 51.227 30.5059C51.227 32.5359 50.755 34.3159 49.812 35.8359C48.868 37.3659 47.562 38.566 45.892 39.436C44.259 40.266 42.372 40.686 40.23 40.686C39.468 40.686 38.615 40.6158 37.672 40.4658C36.765 40.3258 35.894 40.1458 35.059 39.9258C34.26 39.7058 33.643 39.4658 33.208 39.2158C32.954 39.0658 32.754 38.9259 32.609 38.7759C32.464 38.5959 32.391 38.3058 32.391 37.9058L32.119 29.3657C32.083 28.6357 32.337 28.2759 32.881 28.2759C33.28 28.2759 33.553 28.5959 33.698 29.2559L34.351 31.9756C35.404 36.0056 37.763 38.386 41.428 39.106C43.533 39.066 45.094 38.3059 46.11 36.8159C47.162 35.3359 47.689 33.4856 47.689 31.2656C47.689 29.1256 47.108 27.2257 45.947 25.5557C44.785 23.8457 42.934 22.0859 40.394 20.2759C37.599 18.3459 35.549 16.4457 34.242 14.5557C32.972 12.6357 32.337 10.656 32.337 8.62598C32.337 6.26598 33.28 4.3159 35.168 2.7959C37.091 1.2359 39.45 0.455566 42.245 0.455566C43.406 0.455566 44.586 0.585938 45.783 0.835938C46.981 1.08594 47.925 1.45578 48.614 1.92578C48.832 2.06578 48.995 2.23602 49.104 2.41602C49.249 2.59602 49.322 2.83598 49.322 3.12598L49.594 11.396C49.594 12.016 49.358 12.3257 48.886 12.3257C48.487 12.2857 48.215 11.9956 48.07 11.4556L47.689 9.38574C47.181 7.27574 46.455 5.51596 45.511 4.10596C44.604 2.65596 43.279 1.92578 41.537 1.92578C39.868 1.92578 38.488 2.46566 37.4 3.55566C36.347 4.61566 35.821 6.06602 35.821 7.91602C35.821 9.47602 36.347 10.966 37.4 12.376C38.488 13.796 40.376 15.5159 43.061 17.5459C45.892 19.7659 47.961 21.9056 49.267 23.9756ZM62.387 23.8057C62.75 23.4057 63.222 23.2158 63.803 23.2158C64.311 23.2158 64.746 23.4057 65.109 23.8057C65.508 24.1757 65.708 24.626 65.708 25.166C65.708 25.676 65.508 26.1356 65.109 26.5356C64.746 26.8956 64.311 27.0757 63.803 27.0757C63.258 27.0757 62.786 26.8956 62.387 26.5356C62.024 26.1356 61.843 25.676 61.843 25.166C61.843 24.626 62.024 24.1757 62.387 23.8057ZM11.759 36.2759C12.158 35.8759 12.612 35.6758 13.12 35.6758C13.628 35.6758 14.063 35.8759 14.426 36.2759C14.826 36.6359 15.025 37.0957 15.025 37.6357C15.025 38.1457 14.826 38.5956 14.426 38.9956C14.063 39.3656 13.628 39.5459 13.12 39.5459C12.612 39.5459 12.158 39.3656 11.759 38.9956C11.36 38.5956 11.16 38.1457 11.16 37.6357C11.16 37.0957 11.36 36.6359 11.759 36.2759Z" fill="black"/>
</svg>
