<svg width="134" height="41" viewBox="0 0 134 41" fill="none" xmlns="http://www.w3.org/2000/svg">
<path fill-rule="evenodd" clip-rule="evenodd" d="M86.177 26.0459H85.578C83.147 26.0459 81.169 25.9657 79.644 25.8257C78.156 25.6457 76.378 25.426 74.309 25.166C74.164 25.136 74.037 25.1157 73.928 25.1157C73.856 25.0757 73.747 25.0459 73.602 25.0059C73.311 24.8659 73.094 24.6956 72.948 24.5156C72.803 24.2956 72.767 24.0857 72.839 23.8657C72.876 23.6057 72.966 23.4259 73.112 23.3159C73.293 23.2159 73.511 23.1558 73.765 23.1558C74.092 23.2258 74.327 23.2859 74.473 23.3159C74.618 23.3559 74.836 23.3958 75.126 23.4258C76.541 23.7958 77.848 24.0656 79.046 24.2456C80.279 24.3856 81.677 24.3856 83.237 24.2456C84.471 24.1756 85.306 23.8659 85.742 23.3159C86.213 22.7359 86.449 21.8458 86.449 20.6558C86.449 18.8758 86.177 17.2359 85.633 15.7559C85.125 14.2659 84.145 13.5156 82.693 13.5156C81.64 13.5156 80.661 13.9557 79.753 14.8257C78.882 15.6657 78.193 17.0556 77.685 19.0156C77.648 19.1256 77.63 19.2159 77.63 19.2959C77.63 19.3659 77.594 19.4757 77.521 19.6157C77.34 20.2757 77.086 20.8159 76.759 21.2559C76.469 21.6459 76.051 21.8457 75.507 21.8457C75.035 21.8457 74.672 21.706 74.418 21.416C74.164 21.126 74.001 20.776 73.928 20.376C73.892 19.976 73.928 19.6159 74.037 19.2959C74.291 18.3859 74.781 17.3859 75.507 16.2959C76.269 15.2059 77.267 14.2658 78.501 13.4658C79.735 12.6358 81.169 12.2158 82.802 12.2158C84.072 12.2158 85.27 12.5358 86.395 13.1958C87.52 13.8158 88.427 14.7957 89.117 16.1357C89.843 17.4757 90.206 19.1658 90.206 21.1958C90.206 22.3958 90.006 23.3559 89.607 24.0859C89.244 24.7759 88.772 25.2657 88.191 25.5557C87.611 25.8457 86.939 26.0059 86.177 26.0459ZM86.667 39.436C85.614 40.306 84.362 40.7358 82.911 40.7358C80.443 40.7358 78.465 40.0159 76.977 38.5659C75.489 37.1159 74.454 35.5457 73.874 33.8857C73.329 32.2157 73.003 30.7957 72.894 29.6357C72.821 29.1657 72.839 28.7257 72.948 28.3257C73.094 27.9257 73.329 27.6158 73.656 27.4058C73.983 27.1858 74.4 27.0757 74.908 27.0757C75.525 27.0757 75.997 27.2557 76.324 27.6157C76.65 27.9857 76.868 28.396 76.977 28.876V29.0859C77.013 29.1259 77.031 29.1859 77.031 29.2559C77.068 29.5059 77.086 29.7258 77.086 29.9058C77.122 30.0558 77.158 30.2559 77.195 30.5059C77.376 31.8859 77.648 33.1156 78.011 34.2056C78.41 35.2956 79.009 36.2356 79.808 37.0356C80.642 37.8356 81.731 38.2358 83.074 38.2358C84.199 38.2358 85.125 37.876 85.85 37.146C86.613 36.386 87.175 35.546 87.538 34.646C87.901 33.736 88.155 32.8859 88.3 32.0859C88.409 31.3959 88.609 30.9456 88.899 30.7256C89.189 30.4656 89.534 30.3756 89.933 30.4556C90.333 30.5256 90.623 30.7558 90.804 31.1558C90.986 31.5558 90.95 32.0858 90.695 32.7358C90.26 34.0058 89.734 35.2257 89.117 36.3857C88.536 37.5457 87.719 38.566 86.667 39.436ZM14.154 24.626C15.352 23.176 17.312 21.776 20.034 20.436C22.356 19.276 23.971 18.2359 24.879 17.3359C25.786 16.3859 26.24 15.3358 26.24 14.1758C26.24 13.4858 25.967 12.906 25.423 12.436C24.879 11.956 24.244 11.7256 23.518 11.7256C22.61 11.7256 21.612 11.956 20.523 12.436C19.471 12.866 18.074 13.5358 16.332 14.4458C14.263 15.5358 12.485 16.3658 10.997 16.9458C9.545 17.5358 8.093 17.8257 6.642 17.8257C5.589 17.8257 4.537 17.5358 3.484 16.9458C2.468 16.3658 1.633 15.5556 0.98 14.4956C0.327 13.4456 0 12.236 0 10.856C0 9.36596 0.327 8.1157 0.98 7.0957C1.669 6.0757 2.486 5.2457 3.43 4.5957C4.156 4.1257 4.809 3.70594 5.389 3.33594C5.97 2.94594 6.496 2.5558 6.968 2.1958C7.73 1.6558 8.293 1.27566 8.656 1.05566C9.019 0.835664 9.364 0.725586 9.69 0.725586C10.271 0.725586 10.779 0.925684 11.214 1.32568C11.65 1.68568 11.868 2.1957 11.868 2.8457C11.868 3.3557 11.559 3.81582 10.942 4.21582C10.362 4.57582 9.436 5.02568 8.166 5.57568C7.694 5.78568 7.204 6.02588 6.696 6.27588C6.188 6.49588 5.68 6.7559 5.172 7.0459C4.264 7.5159 3.484 8.136 2.831 8.896C2.214 9.616 1.905 10.456 1.905 11.396C1.905 12.086 2.123 12.836 2.559 13.626C3.03 14.396 3.793 14.7759 4.845 14.7759C5.68 14.7759 6.569 14.5758 7.513 14.1758C8.456 13.7758 9.726 13.1356 11.323 12.2656C13.428 11.1456 15.243 10.2758 16.767 9.65576C18.328 9.03576 19.888 8.72559 21.449 8.72559C22.937 8.72559 24.189 9.12578 25.205 9.92578C26.222 10.7258 26.984 11.6859 27.492 12.8159C28 13.9359 28.254 14.9557 28.254 15.8657C28.254 17.1357 27.982 18.2057 27.437 19.0757C26.893 19.9457 26.167 20.6857 25.26 21.3057C24.389 21.8857 23.064 22.6256 21.286 23.5356C20.56 23.9356 19.798 24.3556 18.999 24.7856C18.201 25.1856 17.384 25.646 16.549 26.146C15.461 26.836 14.698 27.416 14.263 27.896C13.864 28.326 13.664 28.926 13.664 29.686V31.2656C13.664 31.4856 13.592 31.6459 13.446 31.7559C13.338 31.8659 13.192 31.9258 13.011 31.9258C12.83 31.9258 12.666 31.8659 12.521 31.7559C12.412 31.6159 12.358 31.4456 12.358 31.2656V29.0859C12.358 27.5259 12.957 26.046 14.154 24.626ZM132.668 25.3359C132.886 25.4459 133.013 25.626 133.049 25.876C133.085 26.206 132.995 26.4557 132.777 26.6357C132.595 26.7857 132.359 26.9159 132.069 27.0259C129.928 27.5659 128.168 27.9859 126.788 28.2759C125.409 28.5259 123.54 28.6558 121.181 28.6558C120.092 28.5058 119.094 28.1256 118.187 27.5156C117.28 26.8556 116.572 26.0056 116.064 24.9556C115.556 23.8956 115.338 22.706 115.411 21.356C115.52 20.166 115.792 19.0358 116.227 17.9858C116.699 16.8958 117.334 15.9357 118.133 15.0957C118.931 14.2257 119.875 13.5359 120.964 13.0259C121.617 12.7359 122.324 12.526 123.087 12.376C123.849 12.236 124.629 12.1558 125.428 12.1558C127.278 12.1558 128.766 12.5357 129.892 13.3057C131.053 14.0257 131.942 14.9557 132.559 16.0757C132.704 16.3657 132.831 16.6759 132.94 17.0059C133.049 17.2959 133.122 17.5456 133.158 17.7656C133.23 18.2056 133.122 18.566 132.831 18.856C132.541 19.106 132.214 19.196 131.851 19.126C131.525 19.056 131.271 18.7659 131.089 18.2559C130.98 18.0759 130.89 17.9156 130.817 17.7656L130.599 17.2256C130.2 16.6056 129.764 16.0659 129.293 15.5859C128.857 15.0859 128.313 14.6456 127.66 14.2856C127.006 13.9156 126.262 13.7358 125.428 13.7358C124.847 13.7358 124.23 13.8657 123.577 14.1157C122.96 14.3357 122.379 14.6459 121.835 15.0459C121.29 15.5159 120.8 16.0758 120.365 16.7358C119.929 17.3458 119.566 18.0758 119.276 18.9058C119.022 19.7458 118.859 20.666 118.786 21.686C118.786 23.026 119.167 24.1156 119.929 24.9556C120.728 25.7556 121.689 26.2257 122.814 26.3657C122.923 26.4057 123.032 26.4258 123.141 26.4258H123.522C124.829 26.4258 125.917 26.3456 126.788 26.2056C127.66 26.0256 128.803 25.7856 130.218 25.4956C130.617 25.4256 130.926 25.3659 131.144 25.3359C131.398 25.2659 131.688 25.2256 132.015 25.2256C132.269 25.1556 132.486 25.1859 132.668 25.3359ZM58.413 14.0659C59.937 12.5759 61.589 11.8359 63.367 11.8359C64.456 11.8359 65.436 12.1256 66.307 12.7056C67.214 13.2856 67.976 14.176 68.593 15.376C69.246 16.536 69.7 18.0259 69.954 19.8359V19.9956C69.99 20.0356 70.009 20.1058 70.009 20.2158C70.009 20.5058 69.972 20.7656 69.9 20.9756C69.827 21.1956 69.664 21.326 69.41 21.356C69.374 21.356 69.337 21.376 69.301 21.416H69.246C69.029 21.446 68.829 21.3959 68.648 21.2559C68.502 21.0659 68.394 20.8359 68.321 20.5459L67.831 19.126C67.25 17.496 66.579 16.1557 65.817 15.0957C65.055 14.0057 64.075 13.4658 62.877 13.4658C61.788 13.4658 60.845 14.0859 60.046 15.3159C59.284 16.5559 58.703 18.146 58.304 20.106C57.905 22.036 57.705 24.046 57.705 26.146C57.705 28.876 57.959 31.1258 58.468 32.9058C59.012 34.6458 59.702 35.9158 60.536 36.7158C61.371 37.5058 62.224 37.9058 63.095 37.9058C64.655 37.9058 65.853 37.4057 66.688 36.3857C67.522 35.3357 68.158 34.2059 68.593 33.0059L68.702 32.7358C68.775 32.6258 68.865 32.516 68.974 32.416C69.083 32.266 69.21 32.1958 69.355 32.1958C69.646 32.1958 69.827 32.3056 69.9 32.5156C70.009 32.7356 70.027 32.9558 69.954 33.1758C69.41 35.7458 68.484 37.6758 67.178 38.9458C65.871 40.1758 64.274 40.7959 62.387 40.7959C60.573 40.7959 58.994 40.1557 57.651 38.8857C56.308 37.6157 55.292 35.966 54.602 33.936C53.949 31.906 53.622 29.7456 53.622 27.4556C53.622 24.8456 54.04 22.3358 54.875 19.9458C55.746 17.5158 56.925 15.5559 58.413 14.0659ZM129.565 38.8857C128.44 40.1257 126.952 40.7358 125.101 40.7358C123.395 40.7358 121.889 40.3258 120.582 39.4858C119.276 38.6558 118.242 37.5859 117.479 36.2759C116.754 34.9359 116.3 33.4956 116.118 31.9756C116.082 31.5056 116.118 31.1059 116.227 30.7759C116.372 30.4159 116.572 30.1458 116.826 29.9658C117.08 29.7458 117.334 29.5959 117.588 29.5259C117.842 29.4859 118.115 29.5257 118.405 29.6357C118.732 29.7457 119.004 29.9656 119.221 30.2856C119.476 30.5756 119.639 31.0157 119.711 31.5957C119.857 32.8257 120.129 33.916 120.528 34.856C120.964 35.806 121.562 36.566 122.325 37.146C123.123 37.726 124.085 38.0156 125.21 38.0156C126.117 38.0156 126.934 37.816 127.66 37.416C128.385 36.986 129.002 36.4559 129.51 35.8359C130.055 35.2259 130.527 34.476 130.926 33.606C131.035 33.286 131.18 33.0257 131.361 32.8457C131.579 32.6257 131.833 32.5958 132.124 32.7358C132.414 32.8458 132.541 33.0459 132.505 33.3359C132.468 33.6259 132.396 33.9156 132.287 34.2056C131.597 36.0956 130.69 37.6557 129.565 38.8857ZM111.927 30.2358C111.963 31.9758 111.981 34.626 111.981 38.186C111.981 38.976 111.818 39.636 111.491 40.146C111.201 40.646 110.747 40.9058 110.13 40.9058C109.549 40.9058 109.078 40.6856 108.715 40.2456C108.352 39.8556 108.152 39.1758 108.116 38.2358C108.08 36.0258 108.043 32.8258 108.007 28.6558V18.4756C108.007 17.3156 107.553 16.2456 106.646 15.2656C105.775 14.2856 104.378 13.7959 102.454 13.7959C100.966 13.7959 99.769 14.3059 98.861 15.3159C97.99 16.2959 97.555 17.476 97.555 18.856C97.555 21.256 97.537 23.0456 97.5 24.2456V29.7456C97.464 31.0856 97.446 32.2456 97.446 33.2256V36.3857C97.446 37.1157 97.264 37.706 96.902 38.186C96.539 38.616 96.03 38.8359 95.377 38.8359C94.833 38.8359 94.415 38.6358 94.125 38.2358C93.835 37.7958 93.69 37.2758 93.69 36.6558C93.653 34.4058 93.617 32.3057 93.581 30.3457C93.581 28.3457 93.599 25.9558 93.635 23.1558V20.5459C93.635 19.3859 93.962 18.1457 94.615 16.8457C95.268 15.5357 96.248 14.4256 97.555 13.5156C98.898 12.6156 100.531 12.1558 102.454 12.1558C104.487 12.1558 106.211 12.5958 107.626 13.4658C109.078 14.3058 110.148 15.3359 110.838 16.5659C111.564 17.7659 111.927 18.9056 111.927 19.9956V30.2358ZM49.158 23.9756C50.465 26.0056 51.118 28.1859 51.118 30.5059C51.118 32.5359 50.646 34.3159 49.703 35.8359C48.759 37.3659 47.453 38.566 45.783 39.436C44.15 40.266 42.263 40.686 40.122 40.686C39.359 40.686 38.507 40.6158 37.563 40.4658C36.656 40.3258 35.785 40.1458 34.95 39.9258C34.151 39.7058 33.534 39.4658 33.099 39.2158C32.845 39.0658 32.645 38.9259 32.5 38.7759C32.355 38.5959 32.282 38.3058 32.282 37.9058L32.01 29.3657C31.974 28.6357 32.228 28.2759 32.772 28.2759C33.172 28.2759 33.444 28.5959 33.589 29.2559L34.297 32.0259C35.277 35.9859 37.617 38.346 41.319 39.106C43.461 39.066 45.039 38.2856 46.055 36.7656C47.072 35.2456 47.58 33.3758 47.58 31.1558C47.58 29.0158 46.999 27.1158 45.838 25.4458C44.676 23.7758 42.825 22.0358 40.285 20.2158C37.49 18.2958 35.44 16.3658 34.133 14.4458C32.863 12.5258 32.228 10.5456 32.228 8.51562C32.228 6.22563 33.172 4.3159 35.059 2.7959C36.982 1.2359 39.341 0.455566 42.136 0.455566C43.297 0.455566 44.477 0.585938 45.674 0.835938C46.872 1.08594 47.816 1.45578 48.505 1.92578C48.723 2.06578 48.886 2.23602 48.995 2.41602C49.14 2.59602 49.213 2.83598 49.213 3.12598L49.485 11.396C49.485 12.016 49.267 12.3257 48.832 12.3257C48.396 12.2857 48.106 11.9956 47.961 11.4556L47.58 9.27588C47.108 7.27588 46.4 5.55596 45.457 4.10596C44.549 2.61596 43.206 1.86572 41.428 1.86572C39.795 1.86572 38.434 2.41586 37.345 3.50586C36.256 4.59586 35.712 6.06602 35.712 7.91602C35.712 9.47602 36.238 10.966 37.291 12.376C38.38 13.796 40.267 15.5159 42.952 17.5459C45.783 19.7659 47.852 21.9056 49.158 23.9756ZM62.278 23.8057C62.641 23.4057 63.113 23.2158 63.694 23.2158C64.202 23.2158 64.637 23.4057 65 23.8057C65.399 24.1757 65.599 24.626 65.599 25.166C65.599 25.676 65.399 26.1356 65 26.5356C64.637 26.8956 64.202 27.0757 63.694 27.0757C63.149 27.0757 62.678 26.8956 62.278 26.5356C61.915 26.1356 61.734 25.676 61.734 25.166C61.734 24.626 61.915 24.1757 62.278 23.8057ZM11.759 36.2759C12.158 35.8759 12.612 35.6758 13.12 35.6758C13.628 35.6758 14.063 35.8759 14.426 36.2759C14.826 36.6359 15.025 37.0957 15.025 37.6357C15.025 38.1457 14.826 38.5956 14.426 38.9956C14.063 39.3656 13.628 39.5459 13.12 39.5459C12.612 39.5459 12.158 39.3656 11.759 38.9956C11.36 38.5956 11.16 38.1457 11.16 37.6357C11.16 37.0957 11.36 36.6359 11.759 36.2759Z" fill="black"/>
</svg>
