<svg width="134" height="41" viewBox="0 0 134 41" fill="none" xmlns="http://www.w3.org/2000/svg">
<path fill-rule="evenodd" clip-rule="evenodd" d="M85.524 26.146H85.251C82.893 26.146 80.951 26.056 79.427 25.876C77.939 25.696 76.215 25.466 74.255 25.166C74.11 25.136 73.983 25.1157 73.874 25.1157C73.801 25.0757 73.692 25.0459 73.547 25.0059C73.221 24.8659 72.985 24.6758 72.839 24.4658C72.694 24.2458 72.64 24.0257 72.676 23.8057C72.749 23.5557 72.858 23.3756 73.003 23.2656C73.184 23.1556 73.42 23.1158 73.71 23.1558C74.037 23.1958 74.255 23.2459 74.364 23.3159C74.509 23.3559 74.727 23.3958 75.017 23.4258C76.469 23.7958 77.793 24.0656 78.991 24.2456C80.189 24.4256 81.55 24.4459 83.074 24.2959C84.308 24.2259 85.143 23.8959 85.578 23.3159C86.05 22.7359 86.286 21.8357 86.286 20.5957C86.286 18.8557 86.014 17.2359 85.469 15.7559C84.961 14.2659 83.981 13.5156 82.53 13.5156C81.513 13.5156 80.552 13.9359 79.644 14.7759C78.773 15.6059 78.084 16.9858 77.576 18.9058C77.539 19.0558 77.521 19.1658 77.521 19.2358C77.521 19.3058 77.485 19.3959 77.412 19.5059C77.231 20.1659 76.977 20.706 76.65 21.146C76.36 21.576 75.942 21.7959 75.398 21.7959C74.926 21.7959 74.563 21.646 74.309 21.356C74.055 21.066 73.892 20.7257 73.819 20.3257C73.783 19.9257 73.819 19.5658 73.928 19.2358C74.182 18.3258 74.672 17.3459 75.398 16.2959C76.16 15.2059 77.14 14.2658 78.338 13.4658C79.572 12.6358 81.005 12.2158 82.638 12.2158C83.945 12.2158 85.143 12.5358 86.231 13.1958C87.357 13.8158 88.264 14.7957 88.953 16.1357C89.679 17.4357 90.042 19.0959 90.042 21.0859C90.042 22.3259 89.843 23.3059 89.443 24.0259C89.044 24.7559 88.536 25.276 87.919 25.606C87.302 25.896 86.613 26.0557 85.85 26.0957C85.742 26.1357 85.633 26.146 85.524 26.146ZM86.558 39.436C85.506 40.306 84.254 40.7358 82.802 40.7358C80.334 40.7358 78.356 40.0159 76.868 38.5659C75.38 37.1159 74.346 35.566 73.765 33.936C73.221 32.306 72.876 30.886 72.731 29.686C72.658 29.216 72.676 28.7857 72.785 28.3857C72.93 27.9857 73.166 27.6756 73.493 27.4556C73.819 27.2356 74.237 27.126 74.745 27.126C75.362 27.126 75.834 27.3158 76.16 27.6758C76.487 28.0358 76.723 28.4558 76.868 28.9258V29.3057C76.904 29.5657 76.941 29.7758 76.977 29.9658C77.013 30.1058 77.049 30.3057 77.086 30.5557C77.267 31.9757 77.539 33.2259 77.902 34.3159C78.265 35.3659 78.846 36.2957 79.644 37.0957C80.479 37.8957 81.568 38.2856 82.911 38.2856C84.036 38.2856 84.961 37.906 85.687 37.146C86.449 36.386 86.994 35.546 87.32 34.646C87.683 33.736 87.937 32.8859 88.082 32.0859C88.228 31.3959 88.445 30.926 88.736 30.666C89.026 30.416 89.371 30.326 89.77 30.396C90.206 30.466 90.514 30.7258 90.695 31.1558C90.877 31.5558 90.841 32.1059 90.587 32.7959C90.151 34.0659 89.625 35.276 89.008 36.436C88.427 37.566 87.611 38.566 86.558 39.436ZM14.154 24.626C15.352 23.176 17.312 21.776 20.034 20.436C22.356 19.276 23.971 18.2359 24.879 17.3359C25.786 16.3859 26.24 15.3358 26.24 14.1758C26.24 13.4858 25.967 12.906 25.423 12.436C24.915 11.956 24.298 11.7256 23.572 11.7256C22.665 11.7256 21.667 11.956 20.578 12.436C19.489 12.866 18.074 13.5358 16.332 14.4458C14.263 15.5358 12.485 16.3658 10.997 16.9458C9.545 17.5358 8.093 17.8257 6.642 17.8257C5.589 17.8257 4.537 17.5358 3.484 16.9458C2.468 16.3658 1.633 15.5556 0.98 14.4956C0.327 13.4456 0 12.236 0 10.856C0 9.36596 0.327 8.1157 0.98 7.0957C1.669 6.0757 2.486 5.2457 3.43 4.5957C4.156 4.1257 4.809 3.70594 5.389 3.33594C5.97 2.94594 6.496 2.5558 6.968 2.1958C7.73 1.6558 8.293 1.27566 8.656 1.05566C9.019 0.835664 9.364 0.725586 9.69 0.725586C10.271 0.725586 10.779 0.925684 11.214 1.32568C11.65 1.68568 11.868 2.1957 11.868 2.8457C11.868 3.3557 11.559 3.81582 10.942 4.21582C10.362 4.57582 9.436 5.02568 8.166 5.57568C7.694 5.78568 7.204 6.02588 6.696 6.27588C6.188 6.49588 5.68 6.7559 5.172 7.0459C4.264 7.5159 3.484 8.136 2.831 8.896C2.214 9.616 1.905 10.456 1.905 11.396C1.905 12.126 2.123 12.866 2.559 13.626C3.03 14.396 3.793 14.7759 4.845 14.7759C5.68 14.7759 6.569 14.5758 7.513 14.1758C8.456 13.7758 9.726 13.1356 11.323 12.2656C13.428 11.1456 15.243 10.2758 16.767 9.65576C18.328 9.03576 19.907 8.72559 21.503 8.72559C22.955 8.72559 24.189 9.12578 25.205 9.92578C26.222 10.7258 26.984 11.6859 27.492 12.8159C28 13.9359 28.254 14.9557 28.254 15.8657C28.254 17.1357 27.982 18.2057 27.437 19.0757C26.893 19.9457 26.167 20.6857 25.26 21.3057C24.389 21.8857 23.082 22.6256 21.34 23.5356C20.578 23.9356 19.798 24.3556 18.999 24.7856C18.201 25.2256 17.384 25.6956 16.549 26.2056C15.461 26.8956 14.698 27.456 14.263 27.896C13.864 28.326 13.664 28.9456 13.664 29.7456V31.2656C13.664 31.4856 13.592 31.6459 13.446 31.7559C13.338 31.8659 13.192 31.9258 13.011 31.9258C12.83 31.9258 12.666 31.8659 12.521 31.7559C12.412 31.6159 12.358 31.4456 12.358 31.2656V29.0859C12.358 27.5659 12.957 26.076 14.154 24.626ZM132.559 25.4956C132.777 25.6056 132.904 25.7859 132.94 26.0459C132.94 26.3359 132.831 26.5656 132.613 26.7456C132.432 26.9356 132.214 27.076 131.96 27.186C129.928 27.766 128.24 28.2056 126.897 28.4956C125.555 28.7856 123.758 28.9258 121.508 28.9258C120.31 28.8158 119.221 28.4356 118.242 27.7856C117.262 27.1256 116.5 26.256 115.955 25.166C115.411 24.086 115.157 22.826 115.193 21.416C115.302 20.216 115.574 19.0758 116.01 17.9858C116.481 16.8958 117.116 15.9357 117.915 15.0957C118.713 14.2257 119.675 13.5359 120.8 13.0259C121.453 12.7359 122.161 12.526 122.923 12.376C123.685 12.236 124.466 12.1558 125.264 12.1558C127.115 12.1558 128.621 12.5256 129.783 13.2456C130.944 13.9756 131.833 14.866 132.45 15.916C132.595 16.246 132.722 16.5557 132.831 16.8457C132.94 17.1357 133.013 17.386 133.049 17.606C133.122 18.006 133.013 18.3259 132.722 18.5859C132.468 18.8359 132.178 18.9458 131.851 18.9058C131.525 18.8358 131.289 18.586 131.144 18.146C131.035 17.966 130.944 17.8058 130.871 17.6558C130.799 17.5158 130.708 17.346 130.599 17.166C130.164 16.556 129.71 16.0056 129.238 15.5356C128.766 15.0656 128.186 14.6456 127.496 14.2856C126.843 13.9156 126.099 13.7358 125.264 13.7358C124.684 13.7358 124.067 13.8657 123.413 14.1157C122.796 14.3357 122.216 14.6459 121.671 15.0459C121.091 15.4759 120.582 16.0258 120.147 16.6758C119.711 17.2958 119.348 18.026 119.058 18.856C118.804 19.686 118.641 20.5957 118.568 21.5757C118.568 22.9957 118.986 24.1359 119.82 25.0059C120.655 25.8759 121.653 26.4059 122.814 26.5859C122.923 26.6259 123.032 26.6357 123.141 26.6357H123.577C124.847 26.6357 125.917 26.5457 126.788 26.3657C127.696 26.1857 128.839 25.9558 130.218 25.6558C130.581 25.5558 130.871 25.4758 131.089 25.4458C131.343 25.4058 131.615 25.3659 131.906 25.3359C132.16 25.2959 132.378 25.3556 132.559 25.4956ZM58.25 14.0659C59.738 12.5359 61.371 11.7759 63.149 11.7759C64.238 11.7759 65.236 12.0856 66.143 12.7056C67.051 13.2856 67.831 14.176 68.484 15.376C69.138 16.566 69.591 18.0356 69.845 19.7856C69.882 19.8556 69.9 19.9256 69.9 19.9956V20.166C69.936 20.456 69.9 20.7058 69.791 20.9258C69.718 21.1458 69.555 21.286 69.301 21.356C69.265 21.356 69.228 21.376 69.192 21.416H69.138C68.92 21.416 68.72 21.3458 68.539 21.1958C68.394 21.0158 68.285 20.7959 68.212 20.5459L67.722 19.126C67.141 17.496 66.452 16.1557 65.653 15.0957C64.891 14.0057 63.911 13.4658 62.714 13.4658C61.625 13.4658 60.7 14.0859 59.937 15.3159C59.175 16.5559 58.576 18.146 58.141 20.106C57.742 22.066 57.542 24.0956 57.542 26.2056C57.542 28.8856 57.796 31.1258 58.304 32.9058C58.849 34.6458 59.538 35.9158 60.373 36.7158C61.208 37.5058 62.06 37.9058 62.932 37.9058C64.528 37.9058 65.726 37.4057 66.525 36.3857C67.359 35.3357 67.994 34.2059 68.43 33.0059L68.539 32.7358C68.611 32.6258 68.702 32.516 68.811 32.416C68.92 32.266 69.047 32.1958 69.192 32.1958C69.482 32.1958 69.664 32.3056 69.736 32.5156C69.845 32.7356 69.863 32.9558 69.791 33.1758C69.246 35.7458 68.321 37.6758 67.014 38.9458C65.708 40.1758 64.111 40.7959 62.224 40.7959C60.409 40.7959 58.83 40.1557 57.488 38.8857C56.181 37.6157 55.183 35.966 54.493 33.936C53.84 31.906 53.514 29.7456 53.514 27.4556C53.514 24.8756 53.931 22.3956 54.766 19.9956C55.6 17.5656 56.762 15.5859 58.25 14.0659ZM129.347 38.9458C128.222 40.1458 126.752 40.7358 124.938 40.7358C123.232 40.7358 121.726 40.3459 120.419 39.5459C119.149 38.7459 118.151 37.706 117.425 36.436C116.699 35.136 116.245 33.7557 116.064 32.3057C115.991 31.8257 116.01 31.436 116.118 31.106C116.264 30.746 116.463 30.4656 116.717 30.2856C116.971 30.0656 117.225 29.926 117.479 29.856C117.733 29.816 118.006 29.8558 118.296 29.9658C118.586 30.0658 118.84 30.2657 119.058 30.5557C119.312 30.8457 119.494 31.2659 119.603 31.8159C119.748 33.0459 120.02 34.1159 120.419 35.0259C120.818 35.9359 121.399 36.6556 122.161 37.2056C122.96 37.7456 123.921 38.0156 125.046 38.0156C125.917 38.0156 126.698 37.816 127.387 37.416C128.113 37.016 128.748 36.5258 129.293 35.9458C129.837 35.3358 130.309 34.6059 130.708 33.7759C130.817 33.4459 130.962 33.1959 131.144 33.0059C131.361 32.7959 131.615 32.7357 131.906 32.8457C132.196 32.9957 132.323 33.2056 132.287 33.4956C132.251 33.7856 132.178 34.076 132.069 34.376C131.38 36.226 130.472 37.7458 129.347 38.9458ZM111.763 30.2358C111.8 31.9758 111.818 34.6458 111.818 38.2358C111.818 39.0358 111.673 39.6858 111.382 40.1958C111.092 40.7058 110.62 40.9556 109.967 40.9556C109.422 40.9556 108.951 40.7357 108.551 40.3057C108.188 39.9057 107.989 39.2356 107.953 38.2856C107.916 36.1456 107.88 32.9556 107.844 28.7056V18.4756C107.844 17.3156 107.39 16.2456 106.483 15.2656C105.612 14.2856 104.233 13.7959 102.345 13.7959C100.821 13.7959 99.605 14.3059 98.698 15.3159C97.827 16.2959 97.391 17.476 97.391 18.856C97.391 21.256 97.373 23.0456 97.337 24.2456V36.2759C97.337 37.0059 97.137 37.6057 96.738 38.0757C96.375 38.5057 95.867 38.7256 95.214 38.7256C94.706 38.7256 94.307 38.526 94.016 38.126C93.726 37.696 93.563 37.1456 93.526 36.4956C93.526 34.2056 93.508 32.1158 93.472 30.2358V20.5459C93.472 19.3859 93.798 18.1457 94.452 16.8457C95.105 15.5357 96.085 14.4256 97.391 13.5156C98.734 12.6156 100.367 12.1558 102.291 12.1558C104.323 12.1558 106.065 12.5958 107.517 13.4658C108.969 14.3058 110.039 15.3359 110.729 16.5659C111.419 17.7659 111.763 18.9056 111.763 19.9956V30.2358ZM49.05 23.9756C50.356 26.0056 51.009 28.1859 51.009 30.5059C51.009 32.5359 50.538 34.3159 49.594 35.8359C48.65 37.3659 47.344 38.566 45.674 39.436C44.041 40.266 42.154 40.686 40.013 40.686C39.251 40.686 38.398 40.6158 37.454 40.4658C36.547 40.3258 35.676 40.1458 34.841 39.9258C34.042 39.7058 33.426 39.4658 32.99 39.2158C32.736 39.0658 32.536 38.9259 32.391 38.7759C32.246 38.5959 32.173 38.3058 32.173 37.9058L31.901 29.3657C31.865 28.6357 32.119 28.2759 32.663 28.2759C33.063 28.2759 33.335 28.5959 33.48 29.2559L34.188 32.0859C35.131 35.9359 37.472 38.276 41.21 39.106C43.352 39.066 44.93 38.2856 45.947 36.7656C46.963 35.2056 47.471 33.316 47.471 31.106C47.471 28.966 46.89 27.0758 45.729 25.4458C44.567 23.7758 42.717 22.0358 40.176 20.2158C37.382 18.2958 35.331 16.3658 34.024 14.4458C32.754 12.4858 32.119 10.4856 32.119 8.45557C32.119 6.17557 33.063 4.26561 34.95 2.74561C36.873 1.21561 39.214 0.455566 41.972 0.455566C43.134 0.455566 44.313 0.585938 45.511 0.835938C46.745 1.08594 47.707 1.45578 48.396 1.92578C48.614 2.06578 48.777 2.23602 48.886 2.41602C49.031 2.59602 49.104 2.83598 49.104 3.12598L49.376 11.396C49.376 12.016 49.158 12.3257 48.723 12.3257C48.287 12.2857 47.997 11.9956 47.852 11.4556L47.471 9.21582C47.035 7.25582 46.346 5.55596 45.402 4.10596C44.495 2.61596 43.152 1.86572 41.374 1.86572C39.704 1.86572 38.325 2.41586 37.236 3.50586C36.148 4.59586 35.603 6.06602 35.603 7.91602C35.603 9.47602 36.129 10.966 37.182 12.376C38.271 13.796 40.158 15.5159 42.844 17.5459C45.674 19.7659 47.743 21.9056 49.05 23.9756ZM62.115 23.8057C62.478 23.4057 62.95 23.2158 63.53 23.2158C64.038 23.2158 64.474 23.4057 64.837 23.8057C65.236 24.1757 65.436 24.626 65.436 25.166C65.436 25.676 65.236 26.1356 64.837 26.5356C64.474 26.8956 64.038 27.0757 63.53 27.0757C62.986 27.0757 62.514 26.8956 62.115 26.5356C61.752 26.1356 61.571 25.676 61.571 25.166C61.571 24.626 61.752 24.1757 62.115 23.8057ZM11.759 36.2759C12.158 35.8759 12.612 35.6758 13.12 35.6758C13.628 35.6758 14.063 35.8759 14.426 36.2759C14.826 36.6359 15.025 37.0957 15.025 37.6357C15.025 38.1457 14.826 38.5956 14.426 38.9956C14.063 39.3656 13.628 39.5459 13.12 39.5459C12.612 39.5459 12.158 39.3656 11.759 38.9956C11.36 38.5956 11.16 38.1457 11.16 37.6357C11.16 37.0957 11.36 36.6359 11.759 36.2759Z" fill="black"/>
</svg>
