<svg width="133" height="42" viewBox="0 0 133 42" fill="none" xmlns="http://www.w3.org/2000/svg">
<path fill-rule="evenodd" clip-rule="evenodd" d="M85.197 26.2056H84.925C82.638 26.2056 80.733 26.116 79.209 25.936C77.721 25.716 76.051 25.466 74.2 25.166C74.019 25.136 73.892 25.0959 73.819 25.0659C73.747 25.0259 73.62 25.0059 73.438 25.0059C73.112 24.8259 72.858 24.6258 72.676 24.4058C72.531 24.1858 72.477 23.9759 72.513 23.7559C72.585 23.5059 72.712 23.3158 72.894 23.2158C73.075 23.1058 73.329 23.066 73.656 23.106C73.946 23.176 74.146 23.2256 74.255 23.2656C74.4 23.3056 74.618 23.3558 74.908 23.4258C76.396 23.8258 77.721 24.1159 78.882 24.2959C80.044 24.4859 81.386 24.496 82.911 24.356C84.181 24.246 85.034 23.8959 85.469 23.3159C85.941 22.7359 86.177 21.8357 86.177 20.5957C86.177 18.8557 85.905 17.2359 85.36 15.7559C84.852 14.2659 83.872 13.5156 82.421 13.5156C81.368 13.5156 80.406 13.9359 79.535 14.7759C78.664 15.5759 77.975 16.936 77.467 18.856C77.43 18.966 77.412 19.056 77.412 19.126C77.412 19.196 77.376 19.3056 77.303 19.4556C77.122 20.1056 76.868 20.6559 76.541 21.0859C76.251 21.5259 75.834 21.7456 75.289 21.7456C74.817 21.7456 74.454 21.5957 74.2 21.3057C73.946 21.0157 73.783 20.6659 73.71 20.2759C73.674 19.8359 73.71 19.476 73.819 19.186C74.073 18.276 74.563 17.2956 75.289 16.2456C76.015 15.1556 76.995 14.206 78.229 13.416C79.463 12.616 80.896 12.2158 82.53 12.2158C83.8 12.2158 84.998 12.5358 86.123 13.1958C87.248 13.8158 88.155 14.7757 88.845 16.0757C89.534 17.3857 89.879 19.0156 89.879 20.9756C89.879 22.2456 89.661 23.2659 89.226 24.0259C88.826 24.7559 88.3 25.276 87.647 25.606C87.03 25.936 86.322 26.116 85.524 26.146C85.415 26.186 85.306 26.2056 85.197 26.2056ZM86.395 39.436C85.342 40.306 84.108 40.7358 82.693 40.7358C80.189 40.7358 78.193 40.0357 76.705 38.6157C75.253 37.1657 74.237 35.6459 73.656 34.0459C73.112 32.4159 72.767 30.9959 72.622 29.7959C72.549 29.3259 72.567 28.8856 72.676 28.4956C72.821 28.0956 73.057 27.7859 73.384 27.5659C73.71 27.3159 74.128 27.186 74.636 27.186C75.253 27.186 75.725 27.3656 76.051 27.7256C76.378 28.0956 76.596 28.5058 76.705 28.9858V29.1958C76.741 29.2358 76.759 29.2857 76.759 29.3657C76.795 29.6157 76.814 29.8356 76.814 30.0156C76.85 30.1656 76.886 30.3557 76.922 30.6157C77.14 32.0257 77.43 33.286 77.793 34.376C78.156 35.426 78.737 36.346 79.535 37.146C80.334 37.906 81.405 38.2856 82.747 38.2856C83.872 38.2856 84.798 37.9256 85.524 37.2056C86.25 36.4356 86.794 35.6058 87.157 34.6958C87.52 33.7558 87.774 32.9057 87.919 32.1357C88.028 31.3757 88.228 30.8657 88.518 30.6157C88.845 30.3557 89.226 30.2657 89.661 30.3457C90.097 30.4557 90.405 30.7258 90.587 31.1558C90.804 31.5558 90.768 32.1157 90.478 32.8457C90.042 34.1157 89.516 35.316 88.899 36.436C88.282 37.566 87.447 38.566 86.395 39.436ZM14.154 24.6758C15.388 23.2258 17.348 21.8358 20.034 20.4858C22.393 19.3258 24.026 18.2759 24.933 17.3359C25.84 16.3859 26.294 15.3358 26.294 14.1758C26.294 13.4858 26.022 12.906 25.478 12.436C24.933 11.956 24.298 11.7256 23.572 11.7256C22.665 11.7256 21.667 11.956 20.578 12.436C19.489 12.866 18.092 13.5358 16.386 14.4458C14.281 15.5358 12.485 16.3658 10.997 16.9458C9.545 17.5358 8.111 17.8257 6.696 17.8257C5.607 17.8257 4.537 17.5358 3.484 16.9458C2.468 16.3658 1.633 15.5556 0.98 14.4956C0.327 13.4456 0 12.236 0 10.856C0 9.36596 0.327 8.1157 0.98 7.0957C1.669 6.0757 2.486 5.2457 3.43 4.5957C4.156 4.1257 4.809 3.70594 5.389 3.33594C5.97 2.94594 6.496 2.5558 6.968 2.1958C7.73 1.6558 8.293 1.27566 8.656 1.05566C9.019 0.835664 9.364 0.725586 9.69 0.725586C10.307 0.725586 10.815 0.925684 11.214 1.32568C11.65 1.68568 11.868 2.1957 11.868 2.8457C11.868 3.3557 11.559 3.81582 10.942 4.21582C10.362 4.57582 9.436 5.02568 8.166 5.57568C7.694 5.78568 7.204 6.02588 6.696 6.27588C6.188 6.49588 5.68 6.7559 5.172 7.0459C4.264 7.5159 3.484 8.136 2.831 8.896C2.214 9.616 1.905 10.456 1.905 11.396C1.905 12.126 2.123 12.866 2.559 13.626C3.03 14.396 3.793 14.7759 4.845 14.7759C5.68 14.7759 6.569 14.5758 7.513 14.1758C8.456 13.7758 9.726 13.1356 11.323 12.2656C13.428 11.1456 15.243 10.2758 16.767 9.65576C18.328 9.03576 19.907 8.72559 21.503 8.72559C22.991 8.72559 24.244 9.12578 25.26 9.92578C26.276 10.7258 27.038 11.6859 27.546 12.8159C28.054 13.9359 28.308 14.9557 28.308 15.8657C28.308 17.1657 28.036 18.256 27.492 19.126C26.947 19.996 26.222 20.746 25.314 21.356C24.443 21.936 23.118 22.6656 21.34 23.5356C20.614 23.9756 19.852 24.4057 19.054 24.8457C18.255 25.2457 17.439 25.6956 16.604 26.2056C15.515 26.8956 14.753 27.4758 14.318 27.9458C13.882 28.3858 13.664 28.9856 13.664 29.7456V31.3257C13.664 31.5357 13.592 31.7059 13.446 31.8159C13.338 31.9259 13.192 31.9756 13.011 31.9756C12.83 31.9756 12.666 31.9259 12.521 31.8159C12.412 31.6659 12.358 31.5057 12.358 31.3257V29.146C12.358 27.586 12.957 26.0958 14.154 24.6758ZM132.45 25.606C132.632 25.716 132.741 25.896 132.777 26.146C132.813 26.476 132.722 26.736 132.505 26.916C132.323 27.056 132.105 27.2057 131.851 27.3457C129.928 27.9657 128.313 28.4356 127.006 28.7656C125.7 29.0856 123.976 29.2559 121.835 29.2559C120.564 29.1459 119.403 28.766 118.35 28.106C117.298 27.416 116.463 26.5157 115.846 25.3857C115.229 24.2657 114.939 22.9759 114.975 21.5259C115.048 20.2559 115.302 19.0758 115.737 17.9858C116.209 16.8958 116.844 15.9159 117.643 15.0459C118.477 14.1759 119.457 13.5059 120.582 13.0259C121.272 12.7359 121.998 12.526 122.76 12.376C123.522 12.236 124.302 12.1558 125.101 12.1558C126.952 12.1558 128.458 12.5256 129.619 13.2456C130.781 13.9356 131.67 14.7957 132.287 15.8057C132.468 16.1357 132.613 16.4458 132.722 16.7358C132.831 17.0258 132.904 17.256 132.94 17.436C132.976 17.806 132.868 18.1157 132.613 18.3657C132.396 18.5857 132.142 18.6757 131.851 18.6357C131.561 18.6057 131.325 18.3858 131.144 17.9858C131.035 17.8358 130.944 17.6959 130.871 17.5459C130.799 17.4059 130.708 17.2557 130.599 17.1157C130.164 16.4957 129.692 15.9656 129.184 15.5356C128.712 15.0656 128.131 14.6456 127.442 14.2856C126.752 13.9156 125.972 13.7358 125.101 13.7358C124.52 13.7358 123.903 13.8657 123.25 14.1157C122.633 14.3357 122.034 14.6459 121.453 15.0459C120.909 15.4759 120.401 16.006 119.929 16.626C119.494 17.236 119.131 17.9657 118.84 18.8057C118.586 19.6357 118.423 20.5459 118.35 21.5259C118.35 23.0159 118.786 24.226 119.657 25.166C120.528 26.076 121.58 26.6257 122.814 26.8057C122.923 26.8357 123.032 26.856 123.141 26.856H123.577C124.847 26.856 125.917 26.7659 126.788 26.5859C127.696 26.4059 128.821 26.1457 130.164 25.8257C130.527 25.7157 130.817 25.646 131.035 25.606C131.252 25.536 131.488 25.4956 131.742 25.4956C132.033 25.4256 132.269 25.466 132.45 25.606ZM58.032 14.1157C59.52 12.5557 61.153 11.7759 62.932 11.7759C64.02 11.7759 65.018 12.0856 65.926 12.7056C66.833 13.2856 67.613 14.176 68.266 15.376C68.956 16.566 69.446 18.0356 69.736 19.7856C69.773 19.8156 69.791 19.8758 69.791 19.9458C69.791 19.9758 69.809 20.036 69.845 20.106C69.845 20.436 69.791 20.7058 69.682 20.9258C69.609 21.1458 69.446 21.2657 69.192 21.3057C69.156 21.3057 69.119 21.326 69.083 21.356H69.029C68.811 21.356 68.611 21.286 68.43 21.146C68.285 20.996 68.176 20.7758 68.103 20.4858L67.613 19.0757C67.033 17.4757 66.343 16.1557 65.545 15.0957C64.782 14.0057 63.784 13.4658 62.55 13.4658C61.462 13.4658 60.536 14.0859 59.774 15.3159C59.012 16.5559 58.431 18.146 58.032 20.106C57.633 22.066 57.433 24.1159 57.433 26.2559C57.433 28.9459 57.687 31.1558 58.195 32.9058C58.74 34.6458 59.411 35.9158 60.21 36.7158C61.044 37.5058 61.897 37.9058 62.768 37.9058C64.365 37.9058 65.581 37.4057 66.416 36.3857C67.25 35.3357 67.885 34.2059 68.321 33.0059L68.43 32.7358C68.502 32.6258 68.593 32.516 68.702 32.416C68.811 32.266 68.938 32.1958 69.083 32.1958C69.374 32.1958 69.555 32.3056 69.628 32.5156C69.736 32.7356 69.754 32.9558 69.682 33.1758C69.138 35.7458 68.212 37.6758 66.906 38.9458C65.599 40.1758 64.002 40.7959 62.115 40.7959C60.3 40.7959 58.722 40.1557 57.379 38.8857C56.072 37.6157 55.074 35.966 54.385 33.936C53.695 31.906 53.35 29.7456 53.35 27.4556C53.35 24.9156 53.768 22.4457 54.602 20.0557C55.437 17.6257 56.58 15.6457 58.032 14.1157ZM129.129 38.9956C128.004 40.1556 126.553 40.7358 124.774 40.7358C123.068 40.7358 121.58 40.3557 120.31 39.5957C119.076 38.8357 118.096 37.836 117.371 36.606C116.645 35.366 116.173 34.046 115.955 32.626C115.883 32.156 115.901 31.756 116.01 31.436C116.155 31.066 116.336 30.7957 116.554 30.6157C116.808 30.3957 117.062 30.2558 117.316 30.1758C117.57 30.1458 117.842 30.1756 118.133 30.2856C118.423 30.3556 118.695 30.5459 118.949 30.8359C119.203 31.1259 119.367 31.5359 119.439 32.0859C119.621 33.2859 119.911 34.316 120.31 35.186C120.709 36.026 121.272 36.7159 121.998 37.2559C122.76 37.7659 123.722 38.0156 124.883 38.0156C125.682 38.0156 126.444 37.8356 127.17 37.4756C127.895 37.0756 128.531 36.5859 129.075 36.0059C129.619 35.4259 130.091 34.7157 130.49 33.8857C130.636 33.5557 130.799 33.2957 130.98 33.1157C131.198 32.9357 131.452 32.9059 131.742 33.0059C132.033 33.1559 132.16 33.376 132.124 33.666C132.087 33.956 132.015 34.2456 131.906 34.5356C131.18 36.3456 130.254 37.8356 129.129 38.9956ZM111.654 30.2856C111.691 32.0256 111.709 34.6956 111.709 38.2856C111.709 39.0856 111.546 39.7456 111.219 40.2456C110.929 40.7556 110.475 41.0156 109.858 41.0156C109.277 41.0156 108.805 40.796 108.443 40.356C108.08 39.956 107.88 39.2656 107.844 38.2856C107.807 36.2256 107.771 33.0456 107.735 28.7656V18.4756C107.735 17.3156 107.281 16.2456 106.374 15.2656C105.503 14.2856 104.106 13.7959 102.182 13.7959C100.694 13.7959 99.496 14.3059 98.589 15.3159C97.718 16.2959 97.283 17.476 97.283 18.856C97.283 21.256 97.264 23.0456 97.228 24.2456V29.6357C97.192 30.9457 97.174 32.0859 97.174 33.0659V36.166C97.174 36.896 96.974 37.4958 96.575 37.9658C96.212 38.3958 95.704 38.6157 95.051 38.6157C94.542 38.6157 94.143 38.4156 93.853 38.0156C93.563 37.5856 93.417 37.0357 93.417 36.3857C93.381 33.9857 93.345 31.8859 93.309 30.0659C93.309 28.2559 93.327 25.9558 93.363 23.1558V20.5459C93.363 19.3859 93.69 18.1457 94.343 16.8457C94.996 15.5357 95.976 14.4256 97.283 13.5156C98.625 12.6156 100.259 12.1558 102.182 12.1558C104.214 12.1558 105.938 12.5958 107.354 13.4658C108.805 14.3058 109.876 15.3359 110.566 16.5659C111.292 17.7659 111.654 18.9056 111.654 19.9956V30.2856ZM48.941 23.9756C50.247 26.0056 50.901 28.1859 50.901 30.5059C50.901 32.5359 50.429 34.3159 49.485 35.8359C48.542 37.3659 47.235 38.566 45.566 39.436C43.932 40.266 42.045 40.686 39.904 40.686C39.142 40.686 38.289 40.6158 37.345 40.4658C36.438 40.3258 35.567 40.1458 34.732 39.9258C33.934 39.7058 33.317 39.4658 32.881 39.2158C32.627 39.0658 32.428 38.9259 32.282 38.7759C32.137 38.5959 32.065 38.3058 32.065 37.9058L31.792 29.3657C31.756 28.6357 32.01 28.2759 32.554 28.2759C32.954 28.2759 33.226 28.5959 33.371 29.2559L34.079 32.1357C35.022 35.8757 37.363 38.196 41.102 39.106C43.279 39.066 44.858 38.2758 45.838 36.7158C46.854 35.1158 47.362 33.2056 47.362 30.9956C47.362 28.8556 46.781 26.9659 45.62 25.3359C44.459 23.6959 42.608 21.976 40.067 20.166C37.273 18.236 35.222 16.316 33.916 14.396C32.645 12.436 32.01 10.4358 32.01 8.40576C32.01 6.15576 32.954 4.26561 34.841 2.74561C36.765 1.21561 39.087 0.455566 41.809 0.455566C42.971 0.455566 44.168 0.585938 45.402 0.835938C46.636 1.08594 47.598 1.45578 48.287 1.92578C48.505 2.06578 48.669 2.23602 48.777 2.41602C48.923 2.59602 48.995 2.83598 48.995 3.12598L49.267 11.396C49.267 12.016 49.05 12.3257 48.614 12.3257C48.179 12.2857 47.888 11.9956 47.743 11.4556L47.362 9.16602C46.963 7.27602 46.291 5.58596 45.348 4.10596C44.404 2.61596 43.043 1.86572 41.265 1.86572C39.632 1.86572 38.253 2.41586 37.127 3.50586C36.039 4.59586 35.494 6.06602 35.494 7.91602C35.494 9.47602 36.021 10.966 37.073 12.376C38.162 13.796 40.049 15.5159 42.735 17.5459C45.566 19.7659 47.634 21.9056 48.941 23.9756ZM62.006 23.8057C62.369 23.4057 62.841 23.2158 63.422 23.2158C63.93 23.2158 64.365 23.4057 64.728 23.8057C65.127 24.1757 65.327 24.626 65.327 25.166C65.327 25.676 65.127 26.1356 64.728 26.5356C64.365 26.8956 63.93 27.0757 63.422 27.0757C62.877 27.0757 62.405 26.8956 62.006 26.5356C61.643 26.1356 61.462 25.676 61.462 25.166C61.462 24.626 61.643 24.1757 62.006 23.8057ZM11.759 36.2759C12.158 35.8759 12.612 35.6758 13.12 35.6758C13.628 35.6758 14.063 35.8759 14.426 36.2759C14.826 36.6359 15.025 37.0957 15.025 37.6357C15.025 38.1457 14.826 38.5956 14.426 38.9956C14.063 39.3656 13.628 39.5459 13.12 39.5459C12.612 39.5459 12.158 39.3656 11.759 38.9956C11.36 38.5956 11.16 38.1457 11.16 37.6357C11.16 37.0957 11.36 36.6359 11.759 36.2759Z" fill="black"/>
</svg>
