<svg width="133" height="42" viewBox="0 0 133 42" fill="none" xmlns="http://www.w3.org/2000/svg">
<path fill-rule="evenodd" clip-rule="evenodd" d="M84.925 26.3159H84.598C82.384 26.3159 80.515 26.2058 78.991 25.9858C77.503 25.7658 75.87 25.4757 74.092 25.1157C73.946 25.0757 73.819 25.0659 73.71 25.0659C73.638 25.0259 73.529 24.9856 73.384 24.9556C73.057 24.8056 72.803 24.6258 72.622 24.4058C72.44 24.1558 72.368 23.9158 72.404 23.6958C72.477 23.4458 72.604 23.2658 72.785 23.1558C72.966 23.0158 73.239 22.996 73.602 23.106C73.892 23.136 74.092 23.1956 74.2 23.2656C74.346 23.3056 74.563 23.336 74.854 23.376C76.305 23.806 77.612 24.136 78.773 24.356C79.935 24.536 81.259 24.5558 82.747 24.4058C84.018 24.2958 84.87 23.956 85.306 23.376C85.778 22.756 86.014 21.8159 86.014 20.5459C86.014 18.8359 85.742 17.2359 85.197 15.7559C84.689 14.2659 83.709 13.5156 82.257 13.5156C81.241 13.5156 80.298 13.9359 79.427 14.7759C78.592 15.5759 77.902 16.9157 77.358 18.8057C77.322 18.9057 77.303 19.0057 77.303 19.0757C77.303 19.1457 77.267 19.2357 77.195 19.3457C77.013 19.9957 76.759 20.5656 76.432 21.0356C76.142 21.4656 75.725 21.686 75.18 21.686C74.709 21.686 74.346 21.5459 74.092 21.2559C73.838 20.9559 73.674 20.6158 73.602 20.2158C73.565 19.7858 73.602 19.3957 73.71 19.0757C73.965 18.2057 74.454 17.236 75.18 16.186C75.906 15.136 76.868 14.206 78.066 13.416C79.3 12.616 80.733 12.2158 82.366 12.2158C83.673 12.2158 84.87 12.5257 85.959 13.1357C87.084 13.7557 87.992 14.7357 88.681 16.0757C89.371 17.3857 89.716 18.9857 89.716 20.8657C89.716 22.1757 89.498 23.2156 89.062 23.9756C88.627 24.7356 88.064 25.2958 87.375 25.6558C86.721 25.9858 86.014 26.1859 85.251 26.2559C85.143 26.2959 85.034 26.3159 84.925 26.3159ZM86.286 39.4858C85.233 40.3558 83.999 40.7959 82.584 40.7959C80.08 40.7959 78.084 40.0657 76.596 38.6157C75.144 37.1657 74.128 35.6557 73.547 34.0957C73.003 32.5057 72.64 31.086 72.458 29.856C72.386 29.376 72.404 28.9459 72.513 28.5459C72.658 28.1459 72.894 27.8357 73.221 27.6157C73.547 27.4057 73.965 27.2959 74.473 27.2959C75.09 27.2959 75.561 27.4759 75.888 27.8359C76.215 28.1659 76.451 28.5859 76.596 29.0859V29.416C76.632 29.676 76.668 29.8859 76.705 30.0659C76.741 30.2159 76.777 30.416 76.814 30.666C77.031 32.116 77.303 33.3758 77.63 34.4258C77.993 35.4758 78.574 36.4056 79.372 37.2056C80.171 37.9656 81.259 38.3457 82.638 38.3457C83.727 38.3457 84.635 37.9656 85.36 37.2056C86.086 36.4356 86.613 35.6058 86.939 34.6958C87.302 33.7558 87.556 32.9057 87.701 32.1357C87.846 31.3757 88.082 30.8657 88.409 30.6157C88.736 30.3257 89.117 30.2357 89.552 30.3457C89.988 30.4157 90.296 30.666 90.478 31.106C90.695 31.536 90.659 32.1358 90.369 32.9058C89.897 34.1358 89.353 35.316 88.736 36.436C88.155 37.566 87.338 38.5758 86.286 39.4858ZM14.154 24.6758C15.388 23.2258 17.366 21.8358 20.088 20.4858C22.411 19.3258 24.026 18.2759 24.933 17.3359C25.84 16.3859 26.294 15.3358 26.294 14.1758C26.294 13.5158 26.022 12.9558 25.478 12.4858C24.969 12.0158 24.352 11.7759 23.627 11.7759C22.719 11.7759 21.703 11.996 20.578 12.436C19.489 12.866 18.092 13.5358 16.386 14.4458C14.318 15.5358 12.539 16.3658 11.051 16.9458C9.563 17.5358 8.111 17.8257 6.696 17.8257C5.607 17.8257 4.537 17.5358 3.484 16.9458C2.468 16.3658 1.633 15.5556 0.98 14.4956C0.327 13.4456 0 12.2458 0 10.9058C0 9.38576 0.327 8.1157 0.98 7.0957C1.669 6.0757 2.486 5.2457 3.43 4.5957C4.156 4.1257 4.809 3.70594 5.389 3.33594C5.97 2.94594 6.496 2.5558 6.968 2.1958C7.73 1.6558 8.293 1.27566 8.656 1.05566C9.019 0.835664 9.382 0.725586 9.745 0.725586C10.325 0.725586 10.815 0.925684 11.214 1.32568C11.65 1.68568 11.868 2.1957 11.868 2.8457C11.868 3.3557 11.577 3.81582 10.997 4.21582C10.416 4.57582 9.472 5.02568 8.166 5.57568C7.694 5.78568 7.204 6.02588 6.696 6.27588C6.188 6.49588 5.698 6.7559 5.226 7.0459C4.283 7.5159 3.484 8.136 2.831 8.896C2.214 9.616 1.905 10.4756 1.905 11.4556C1.905 12.1456 2.141 12.866 2.613 13.626C3.085 14.396 3.847 14.7759 4.9 14.7759C5.698 14.7759 6.569 14.5758 7.513 14.1758C8.492 13.7758 9.763 13.1356 11.323 12.2656C13.428 11.1456 15.261 10.2856 16.822 9.70557C18.382 9.09557 19.961 8.78564 21.558 8.78564C23.01 8.78564 24.244 9.18584 25.26 9.98584C26.276 10.7458 27.038 11.6859 27.546 12.8159C28.054 13.9359 28.308 14.9557 28.308 15.8657C28.308 17.1657 28.036 18.256 27.492 19.126C26.947 19.996 26.222 20.746 25.314 21.356C24.443 21.936 23.137 22.6857 21.395 23.5957C20.632 23.9957 19.852 24.4057 19.054 24.8457C18.255 25.2757 17.439 25.7559 16.604 26.2559C15.515 26.9459 14.753 27.5158 14.318 27.9458C13.882 28.3858 13.664 28.9856 13.664 29.7456V31.3257C13.664 31.5357 13.592 31.7059 13.446 31.8159C13.338 31.9259 13.192 31.9756 13.011 31.9756C12.83 31.9756 12.666 31.9259 12.521 31.8159C12.412 31.6659 12.358 31.5057 12.358 31.3257V29.146C12.358 27.586 12.957 26.0958 14.154 24.6758ZM132.287 25.7656C132.505 25.8756 132.632 26.0559 132.668 26.3159C132.668 26.6059 132.577 26.8359 132.396 27.0259C132.214 27.2059 131.996 27.3656 131.742 27.5156C129.928 28.1656 128.385 28.6756 127.115 29.0356C125.845 29.3656 124.194 29.5259 122.161 29.5259C120.818 29.4559 119.566 29.086 118.405 28.436C117.28 27.746 116.391 26.806 115.737 25.606C115.084 24.406 114.776 23.0657 114.812 21.5757C114.848 20.3057 115.084 19.1256 115.52 18.0356C115.991 16.9156 116.627 15.9159 117.425 15.0459C118.26 14.1759 119.258 13.5059 120.419 13.0259C121.072 12.7359 121.78 12.526 122.542 12.376C123.341 12.196 124.157 12.106 124.992 12.106C126.807 12.106 128.295 12.4658 129.456 13.1958C130.654 13.8858 131.561 14.7158 132.178 15.6958C132.359 15.9858 132.505 16.2759 132.613 16.5659C132.722 16.8559 132.795 17.0959 132.831 17.2759C132.868 17.6059 132.777 17.896 132.559 18.146C132.378 18.366 132.142 18.456 131.851 18.416C131.561 18.386 131.343 18.206 131.198 17.876C131.089 17.726 130.98 17.6056 130.871 17.4956C130.799 17.3456 130.708 17.2057 130.599 17.0557C130.127 16.4757 129.637 15.9656 129.129 15.5356C128.621 15.0656 128.004 14.6659 127.278 14.3359C126.589 13.9759 125.827 13.7959 124.992 13.7959C124.375 13.7959 123.74 13.9057 123.087 14.1157C122.47 14.3357 121.871 14.6459 121.29 15.0459C120.709 15.4459 120.183 15.9559 119.711 16.5659C119.276 17.1859 118.913 17.9156 118.623 18.7456C118.332 19.5456 118.187 20.436 118.187 21.416C118.151 22.976 118.586 24.2456 119.494 25.2256C120.437 26.2056 121.544 26.8059 122.814 27.0259C122.923 27.0559 123.05 27.096 123.196 27.126H123.631C124.865 27.096 125.936 26.9857 126.843 26.8057C127.75 26.5857 128.857 26.296 130.164 25.936C130.49 25.856 130.763 25.8056 130.98 25.7656C131.198 25.6956 131.416 25.646 131.634 25.606C131.888 25.566 132.105 25.6256 132.287 25.7656ZM57.869 14.1157C59.32 12.5257 60.935 11.7256 62.714 11.7256C63.766 11.7256 64.764 12.036 65.708 12.646C66.652 13.266 67.468 14.1958 68.158 15.4258C68.847 16.6258 69.355 18.0556 69.682 19.7256C69.718 19.7956 69.736 19.8758 69.736 19.9458V20.106C69.773 20.396 69.736 20.6557 69.628 20.8657C69.519 21.0857 69.337 21.2159 69.083 21.2559C69.047 21.2859 69.01 21.326 68.974 21.356H68.92C68.702 21.356 68.502 21.286 68.321 21.146C68.176 20.956 68.067 20.7458 67.994 20.4858L67.504 19.0757C66.96 17.5157 66.27 16.1857 65.436 15.0957C64.637 14.0057 63.639 13.4658 62.442 13.4658C61.353 13.4658 60.427 14.0859 59.665 15.3159C58.903 16.5159 58.304 18.116 57.869 20.106C57.469 22.106 57.27 24.1759 57.27 26.3159C57.27 28.9659 57.524 31.1558 58.032 32.9058C58.576 34.6458 59.266 35.9158 60.101 36.7158C60.935 37.5058 61.77 37.9058 62.605 37.9058C64.238 37.9058 65.454 37.4057 66.252 36.3857C67.087 35.3357 67.722 34.2059 68.158 33.0059L68.266 32.7358C68.339 32.6258 68.43 32.516 68.539 32.416C68.648 32.266 68.775 32.1958 68.92 32.1958C69.21 32.1958 69.392 32.3056 69.464 32.5156C69.573 32.7356 69.591 32.9558 69.519 33.1758C68.974 35.7458 68.049 37.6758 66.742 38.9458C65.436 40.1758 63.839 40.7959 61.952 40.7959C60.137 40.7959 58.558 40.1557 57.215 38.8857C55.909 37.6157 54.911 35.966 54.221 33.936C53.568 31.906 53.241 29.7456 53.241 27.4556C53.241 24.9856 53.641 22.536 54.439 20.106C55.274 17.676 56.417 15.6757 57.869 14.1157ZM128.857 39.0557C127.768 40.1757 126.353 40.7358 124.611 40.7358C122.905 40.7358 121.435 40.3758 120.201 39.6558C118.967 38.8858 117.988 37.9256 117.262 36.7656C116.572 35.5656 116.118 34.2758 115.901 32.9058C115.792 32.4658 115.792 32.0656 115.901 31.7056C116.046 31.3356 116.227 31.0657 116.445 30.8857C116.699 30.6657 116.935 30.5459 117.153 30.5059C117.443 30.4359 117.733 30.4557 118.024 30.5557C118.314 30.6657 118.568 30.8658 118.786 31.1558C119.04 31.4158 119.221 31.816 119.33 32.356C119.512 33.486 119.784 34.4659 120.147 35.2959C120.546 36.1359 121.109 36.8057 121.835 37.3057C122.597 37.7857 123.558 38.0156 124.72 38.0156C125.482 38.0156 126.208 37.8559 126.897 37.5259C127.623 37.1659 128.258 36.6957 128.803 36.1157C129.383 35.5357 129.892 34.8459 130.327 34.0459C130.436 33.7159 130.581 33.4656 130.763 33.2856C130.98 33.0656 131.234 33.0258 131.525 33.1758C131.815 33.3158 131.942 33.5357 131.906 33.8257C131.869 34.1157 131.797 34.386 131.688 34.646C130.926 36.426 129.982 37.8957 128.857 39.0557ZM111.491 30.2856C111.527 32.0256 111.546 34.7157 111.546 38.3457C111.546 39.1457 111.4 39.7957 111.11 40.3057C110.82 40.8157 110.348 41.0659 109.695 41.0659C109.15 41.0659 108.678 40.846 108.279 40.416C107.916 40.016 107.717 39.3257 107.68 38.3457C107.644 36.3457 107.608 33.196 107.572 28.876V18.4756C107.572 17.3156 107.118 16.2456 106.211 15.2656C105.34 14.2856 103.96 13.7959 102.073 13.7959C100.549 13.7959 99.333 14.3059 98.426 15.3159C97.555 16.2959 97.119 17.476 97.119 18.856C97.119 21.216 97.101 22.996 97.065 24.186V36.0557C97.065 36.7857 96.865 37.3659 96.466 37.7959C96.067 38.2359 95.54 38.4556 94.887 38.4556C94.415 38.4556 94.034 38.256 93.744 37.856C93.454 37.456 93.29 36.9156 93.254 36.2256C93.254 33.7856 93.236 31.7058 93.2 29.9658V20.5459C93.2 19.3859 93.526 18.1457 94.18 16.8457C94.833 15.5357 95.813 14.4256 97.119 13.5156C98.462 12.6156 100.095 12.1558 102.019 12.1558C104.051 12.1558 105.775 12.5958 107.19 13.4658C108.642 14.3058 109.713 15.3359 110.402 16.5659C111.128 17.7659 111.491 18.9056 111.491 19.9956V30.2856ZM48.832 23.9756C50.138 26.0056 50.792 28.1859 50.792 30.5059C50.792 32.5359 50.32 34.3159 49.376 35.8359C48.433 37.3659 47.126 38.566 45.457 39.436C43.823 40.266 41.936 40.686 39.795 40.686C39.033 40.686 38.18 40.6158 37.236 40.4658C36.329 40.3258 35.458 40.1458 34.623 39.9258C33.825 39.7058 33.208 39.4658 32.772 39.2158C32.518 39.0658 32.319 38.9259 32.173 38.7759C32.028 38.5959 31.956 38.3058 31.956 37.9058L31.683 29.3657C31.647 28.6357 31.901 28.2759 32.446 28.2759C32.845 28.2759 33.117 28.5959 33.262 29.2559L33.97 32.1958C34.877 35.8558 37.218 38.166 40.993 39.106C43.17 39.066 44.749 38.2558 45.729 36.6558C46.745 35.0558 47.253 33.1558 47.253 30.9458C47.253 28.7958 46.672 26.9359 45.511 25.3359C44.386 23.6959 42.553 21.976 40.013 20.166C37.218 18.236 35.168 16.2959 33.861 14.3359C32.591 12.3759 31.956 10.3857 31.956 8.3457C31.956 6.0957 32.899 4.22561 34.786 2.74561C36.674 1.21561 38.978 0.455566 41.7 0.455566C42.862 0.455566 44.059 0.585938 45.293 0.835938C46.527 1.08594 47.489 1.45578 48.179 1.92578C48.396 2.06578 48.56 2.23602 48.669 2.41602C48.814 2.59602 48.886 2.83598 48.886 3.12598L49.158 11.396C49.195 12.016 48.977 12.3257 48.505 12.3257C48.07 12.2857 47.798 11.976 47.689 11.396L47.253 9.05566C46.89 7.24566 46.237 5.58596 45.293 4.10596C44.35 2.57596 42.989 1.81592 41.21 1.81592C39.541 1.81592 38.144 2.37586 37.019 3.50586C35.894 4.59586 35.331 6.06602 35.331 7.91602C35.331 9.47602 35.875 10.966 36.964 12.376C38.053 13.796 39.94 15.5159 42.626 17.5459C45.457 19.7659 47.525 21.9056 48.832 23.9756ZM61.843 23.8057C62.206 23.4057 62.678 23.2158 63.258 23.2158C63.766 23.2158 64.202 23.4057 64.565 23.8057C64.964 24.1757 65.164 24.626 65.164 25.166C65.164 25.676 64.964 26.1356 64.565 26.5356C64.202 26.8956 63.766 27.0757 63.258 27.0757C62.714 27.0757 62.242 26.8956 61.843 26.5356C61.48 26.1356 61.298 25.676 61.298 25.166C61.298 24.626 61.48 24.1757 61.843 23.8057ZM11.759 36.2759C12.158 35.8759 12.612 35.6758 13.12 35.6758C13.628 35.6758 14.063 35.8759 14.426 36.2759C14.826 36.6359 15.025 37.0957 15.025 37.6357C15.025 38.1457 14.826 38.5956 14.426 38.9956C14.063 39.3656 13.628 39.5459 13.12 39.5459C12.612 39.5459 12.158 39.3656 11.759 38.9956C11.36 38.5956 11.16 38.1457 11.16 37.6357C11.16 37.0957 11.36 36.6359 11.759 36.2759Z" fill="black"/>
</svg>
