<svg width="133" height="42" viewBox="0 0 133 42" fill="none" xmlns="http://www.w3.org/2000/svg">
<path fill-rule="evenodd" clip-rule="evenodd" d="M84.598 26.3657H84.326C82.149 26.3657 80.298 26.2559 78.773 26.0459C77.285 25.7859 75.707 25.4757 74.037 25.1157C73.892 25.0757 73.765 25.0659 73.656 25.0659C73.583 25.0259 73.475 24.9856 73.329 24.9556C72.966 24.8056 72.676 24.606 72.458 24.356C72.277 24.096 72.204 23.866 72.241 23.646C72.313 23.396 72.44 23.216 72.622 23.106C72.839 22.956 73.148 22.9359 73.547 23.0459C73.801 23.1159 73.983 23.1758 74.092 23.2158C74.237 23.2458 74.454 23.306 74.745 23.376C76.233 23.846 77.539 24.1858 78.664 24.4058C79.826 24.5858 81.132 24.6058 82.584 24.4658C83.891 24.3158 84.762 23.956 85.197 23.376C85.669 22.756 85.905 21.7958 85.905 20.4858C85.905 18.8558 85.633 17.2957 85.088 15.8057C84.58 14.2857 83.6 13.5156 82.149 13.5156C81.096 13.5156 80.152 13.9158 79.318 14.7158C78.483 15.5158 77.793 16.8458 77.249 18.6958C77.213 18.8058 77.195 18.8958 77.195 18.9658C77.195 19.0358 77.158 19.1459 77.086 19.2959C76.904 19.9459 76.65 20.5056 76.324 20.9756C76.033 21.4156 75.616 21.6357 75.071 21.6357C74.6 21.6357 74.237 21.4858 73.983 21.1958C73.729 20.9058 73.565 20.566 73.493 20.166C73.456 19.726 73.493 19.3456 73.602 19.0156C73.856 18.1456 74.346 17.206 75.071 16.186C75.797 15.136 76.759 14.206 77.957 13.416C79.191 12.616 80.624 12.2158 82.257 12.2158C83.528 12.2158 84.707 12.5257 85.796 13.1357C86.921 13.7557 87.828 14.7159 88.518 16.0259C89.244 17.3359 89.607 18.9056 89.607 20.7656C89.607 22.1056 89.371 23.1756 88.899 23.9756C88.427 24.7356 87.846 25.3158 87.157 25.7158C86.467 26.0758 85.723 26.2759 84.925 26.3159C84.816 26.3459 84.707 26.3657 84.598 26.3657ZM86.123 39.4858C85.07 40.3558 83.836 40.7959 82.421 40.7959C79.953 40.7959 77.975 40.0858 76.487 38.6758C75.035 37.2158 74.019 35.7158 73.438 34.1558C72.894 32.5958 72.531 31.1958 72.35 29.9658C72.277 29.4858 72.295 29.0558 72.404 28.6558C72.549 28.2158 72.785 27.8958 73.112 27.6758C73.438 27.4558 73.856 27.3457 74.364 27.3457C74.981 27.3457 75.453 27.526 75.779 27.896C76.106 28.216 76.324 28.636 76.432 29.146V29.3657C76.469 29.3957 76.487 29.4559 76.487 29.5259C76.523 29.7459 76.559 29.946 76.596 30.126C76.632 30.266 76.668 30.4656 76.705 30.7256C76.886 32.1756 77.158 33.4256 77.521 34.4756C77.884 35.5356 78.447 36.4356 79.209 37.2056C80.007 37.9656 81.096 38.3457 82.475 38.3457C83.564 38.3457 84.471 37.9656 85.197 37.2056C85.923 36.4356 86.449 35.6058 86.776 34.6958C87.139 33.7558 87.393 32.9057 87.538 32.1357C87.647 31.3357 87.865 30.8157 88.191 30.5557C88.554 30.2657 88.953 30.1756 89.389 30.2856C89.861 30.3956 90.206 30.666 90.423 31.106C90.641 31.536 90.587 32.1556 90.26 32.9556C89.788 34.1856 89.244 35.3656 88.627 36.4956C88.01 37.5856 87.175 38.5758 86.123 39.4858ZM14.154 24.6758C15.388 23.2258 17.366 21.8358 20.088 20.4858C22.447 19.3258 24.08 18.2759 24.988 17.3359C25.895 16.3859 26.349 15.3358 26.349 14.1758C26.349 13.5158 26.076 12.9558 25.532 12.4858C24.988 12.0158 24.352 11.7759 23.627 11.7759C22.719 11.7759 21.721 12.0158 20.632 12.4858C19.544 12.9258 18.128 13.5956 16.386 14.4956C14.318 15.5856 12.539 16.4259 11.051 17.0059C9.599 17.5459 8.148 17.8257 6.696 17.8257C5.607 17.8257 4.537 17.5358 3.484 16.9458C2.468 16.3658 1.633 15.5556 0.98 14.4956C0.327 13.4456 0 12.2458 0 10.9058C0 9.38576 0.327 8.1157 0.98 7.0957C1.669 6.0757 2.486 5.2457 3.43 4.5957C4.156 4.1257 4.809 3.70594 5.389 3.33594C5.97 2.94594 6.496 2.5558 6.968 2.1958C7.73 1.6558 8.293 1.27566 8.656 1.05566C9.055 0.835664 9.418 0.725586 9.745 0.725586C10.325 0.725586 10.815 0.925684 11.214 1.32568C11.65 1.68568 11.868 2.1957 11.868 2.8457C11.868 3.3557 11.577 3.81582 10.997 4.21582C10.416 4.57582 9.472 5.02568 8.166 5.57568C7.694 5.78568 7.204 6.02588 6.696 6.27588C6.224 6.49588 5.734 6.7559 5.226 7.0459C4.283 7.5159 3.484 8.136 2.831 8.896C2.214 9.616 1.905 10.4756 1.905 11.4556C1.905 12.1456 2.141 12.886 2.613 13.686C3.085 14.446 3.847 14.8257 4.9 14.8257C5.698 14.8257 6.569 14.6256 7.513 14.2256C8.492 13.8256 9.763 13.1957 11.323 12.3257C13.428 11.1657 15.261 10.2856 16.822 9.70557C18.382 9.09557 19.961 8.78564 21.558 8.78564C23.046 8.78564 24.298 9.18584 25.314 9.98584C26.33 10.7758 27.093 11.7457 27.601 12.8657C28.109 13.9557 28.363 14.976 28.363 15.916C28.363 17.186 28.09 18.256 27.546 19.126C27.002 19.996 26.276 20.746 25.369 21.356C24.498 21.936 23.173 22.6857 21.395 23.5957C20.632 23.9957 19.852 24.4057 19.054 24.8457C18.255 25.2757 17.439 25.7559 16.604 26.2559C15.515 26.9459 14.753 27.5158 14.318 27.9458C13.882 28.3858 13.664 28.9959 13.664 29.7959V31.376C13.664 31.596 13.592 31.7557 13.446 31.8657C13.338 31.9757 13.192 32.0259 13.011 32.0259C12.83 32.0259 12.666 31.9757 12.521 31.8657C12.412 31.7257 12.358 31.556 12.358 31.376V29.1958C12.358 27.6358 12.957 26.1358 14.154 24.6758ZM132.178 25.876C132.359 25.986 132.468 26.1658 132.505 26.4258C132.541 26.7458 132.468 27.006 132.287 27.186C132.105 27.326 131.888 27.4757 131.634 27.6157C129.928 28.3457 128.458 28.9057 127.224 29.3057C126.026 29.6757 124.466 29.856 122.542 29.856C121.054 29.776 119.693 29.3956 118.459 28.7056C117.262 28.0156 116.3 27.0557 115.574 25.8257C114.884 24.5857 114.558 23.1957 114.594 21.6357C114.63 20.3257 114.866 19.1058 115.302 17.9858C115.774 16.8558 116.427 15.8759 117.262 15.0459C118.096 14.1759 119.076 13.5059 120.201 13.0259C120.891 12.7059 121.617 12.4657 122.379 12.3257C123.177 12.1757 123.994 12.106 124.829 12.106C126.643 12.106 128.131 12.4457 129.293 13.1357C130.49 13.8257 131.416 14.6459 132.069 15.5859C132.251 15.8759 132.378 16.1656 132.45 16.4556C132.559 16.7156 132.65 16.946 132.722 17.166C132.722 17.456 132.632 17.7158 132.45 17.9258C132.305 18.1158 132.105 18.2056 131.851 18.2056C131.597 18.1656 131.38 18.0058 131.198 17.7158L130.871 17.3857C130.799 17.2357 130.708 17.1159 130.599 17.0059C130.127 16.4259 129.619 15.9156 129.075 15.4756C128.567 15.0456 127.95 14.6659 127.224 14.3359C126.498 13.9759 125.7 13.7959 124.829 13.7959C124.212 13.7959 123.577 13.9057 122.923 14.1157C122.306 14.3357 121.708 14.6459 121.127 15.0459C120.546 15.4459 120.02 15.9559 119.548 16.5659C119.076 17.1859 118.695 17.8958 118.405 18.6958C118.115 19.4958 117.969 20.376 117.969 21.356C117.933 22.996 118.405 24.3357 119.385 25.3857C120.365 26.4057 121.508 27.0258 122.814 27.2358C122.96 27.2758 123.087 27.3157 123.196 27.3457H123.685C124.883 27.3457 125.936 27.2359 126.843 27.0259C127.75 26.8059 128.857 26.4957 130.164 26.0957C130.454 26.0257 130.708 25.956 130.926 25.876C131.144 25.806 131.343 25.7656 131.525 25.7656C131.779 25.6956 131.996 25.736 132.178 25.876ZM57.651 14.1157C59.103 12.5257 60.7 11.7256 62.442 11.7256C63.53 11.7256 64.546 12.036 65.49 12.646C66.434 13.266 67.269 14.1958 67.994 15.4258C68.72 16.6258 69.246 18.0556 69.573 19.7256C69.609 19.7656 69.628 19.8157 69.628 19.8857V20.0557C69.664 20.3457 69.628 20.6157 69.519 20.8657C69.41 21.0857 69.246 21.2159 69.029 21.2559C68.992 21.2559 68.956 21.2657 68.92 21.3057H68.811C68.593 21.3057 68.394 21.2359 68.212 21.0859C68.067 20.9059 67.958 20.686 67.885 20.436L67.45 19.0757C66.869 17.5157 66.162 16.1857 65.327 15.0957C64.528 13.9757 63.512 13.416 62.278 13.416C61.19 13.416 60.264 14.0256 59.502 15.2656C58.74 16.4956 58.159 18.116 57.76 20.106C57.361 22.106 57.161 24.1857 57.161 26.3657C57.161 29.0157 57.415 31.2156 57.923 32.9556C58.468 34.6656 59.139 35.9158 59.937 36.7158C60.772 37.5058 61.625 37.9058 62.496 37.9058C64.093 37.9058 65.309 37.4057 66.143 36.3857C66.978 35.3357 67.613 34.2059 68.049 33.0059L68.158 32.7358C68.23 32.6258 68.321 32.516 68.43 32.416C68.539 32.266 68.666 32.1958 68.811 32.1958C69.101 32.1958 69.283 32.3056 69.355 32.5156C69.464 32.7356 69.482 32.9558 69.41 33.1758C68.865 35.7458 67.94 37.6758 66.633 38.9458C65.327 40.1758 63.73 40.7959 61.843 40.7959C60.028 40.7959 58.449 40.1557 57.106 38.8857C55.8 37.6157 54.802 35.966 54.112 33.936C53.459 31.906 53.133 29.7456 53.133 27.4556C53.133 25.0256 53.532 22.596 54.33 20.166C55.129 17.696 56.236 15.6757 57.651 14.1157ZM128.639 39.106C127.551 40.196 126.172 40.7358 124.502 40.7358C122.796 40.7358 121.326 40.3956 120.092 39.7056C118.859 38.9756 117.897 38.0558 117.207 36.9258C116.518 35.8058 116.046 34.5656 115.792 33.2256C115.683 32.7956 115.683 32.3959 115.792 32.0259C115.901 31.6659 116.064 31.3958 116.282 31.2158C116.536 30.9958 116.79 30.8659 117.044 30.8359C117.298 30.7559 117.57 30.7757 117.861 30.8857C118.151 30.9557 118.423 31.136 118.677 31.436C118.931 31.686 119.094 32.086 119.167 32.626C119.385 33.716 119.675 34.6656 120.038 35.4556C120.437 36.2256 121 36.8557 121.726 37.3657C122.452 37.8357 123.395 38.0757 124.556 38.0757C125.282 38.0757 125.99 37.9059 126.68 37.5859C127.405 37.2159 128.059 36.746 128.639 36.166C129.22 35.586 129.71 34.9158 130.109 34.1558C130.254 33.8258 130.418 33.576 130.599 33.396C130.817 33.206 131.071 33.1959 131.361 33.3359C131.652 33.4459 131.779 33.6658 131.742 33.9858C131.706 34.2758 131.634 34.5557 131.525 34.8057C130.726 36.5457 129.764 37.986 128.639 39.106ZM111.382 30.3457C111.419 32.0857 111.437 34.766 111.437 38.396C111.437 39.196 111.273 39.856 110.947 40.356C110.656 40.866 110.203 41.126 109.586 41.126C109.005 41.126 108.533 40.9058 108.17 40.4658C107.807 40.0658 107.608 39.3657 107.572 38.3457C107.535 36.4257 107.499 33.2858 107.463 28.9258V18.4756C107.463 17.3156 107.009 16.2456 106.102 15.2656C105.231 14.2856 103.833 13.7959 101.91 13.7959C100.422 13.7959 99.224 14.3059 98.317 15.3159C97.446 16.2959 97.01 17.476 97.01 18.856C97.01 21.216 96.992 22.996 96.956 24.186V29.5757C96.92 30.8157 96.902 31.9356 96.902 32.9556V35.9458C96.902 36.6358 96.702 37.2158 96.303 37.6958C95.903 38.1258 95.395 38.3457 94.778 38.3457C94.27 38.3457 93.871 38.1456 93.581 37.7456C93.29 37.3056 93.145 36.7657 93.145 36.1157C93.109 33.5757 93.073 31.486 93.036 29.856C93.036 28.186 93.054 25.936 93.091 23.106V20.5459C93.091 19.3859 93.417 18.1457 94.071 16.8457C94.724 15.5357 95.704 14.4256 97.01 13.5156C98.353 12.6156 99.986 12.1558 101.91 12.1558C103.942 12.1558 105.666 12.5958 107.082 13.4658C108.533 14.3058 109.604 15.3359 110.293 16.5659C111.019 17.7659 111.382 18.9056 111.382 19.9956V30.3457ZM48.723 23.9756C50.03 26.0056 50.683 28.1859 50.683 30.5059C50.683 32.5359 50.211 34.3159 49.267 35.8359C48.324 37.3659 47.017 38.566 45.348 39.436C43.715 40.266 41.827 40.686 39.686 40.686C38.924 40.686 38.071 40.6158 37.127 40.4658C36.22 40.3258 35.349 40.1458 34.514 39.9258C33.716 39.7058 33.099 39.4658 32.663 39.2158C32.409 39.0658 32.21 38.9259 32.065 38.7759C31.919 38.5959 31.847 38.3058 31.847 37.9058L31.575 29.3657C31.538 28.6357 31.792 28.2759 32.337 28.2759C32.736 28.2759 33.008 28.5959 33.153 29.2559L33.861 32.2456C34.768 35.8056 37.109 38.096 40.884 39.106C43.098 39.066 44.694 38.236 45.674 36.606C46.654 34.966 47.144 33.0459 47.144 30.8359C47.144 28.6959 46.564 26.8256 45.402 25.2256C44.277 23.6256 42.444 21.926 39.904 20.106C37.109 18.186 35.059 16.2456 33.752 14.2856C32.482 12.3256 31.847 10.3259 31.847 8.2959C31.847 6.0759 32.772 4.22561 34.623 2.74561C36.51 1.21561 38.815 0.455566 41.537 0.455566C42.698 0.455566 43.896 0.585938 45.13 0.835938C46.4 1.08594 47.38 1.45578 48.07 1.92578C48.287 2.06578 48.451 2.23602 48.56 2.41602C48.705 2.59602 48.777 2.83598 48.777 3.12598L49.05 11.396C49.086 12.016 48.868 12.3257 48.396 12.3257C47.961 12.2857 47.689 11.976 47.58 11.396L47.144 9.00586C46.781 7.25586 46.128 5.62596 45.184 4.10596C44.277 2.57596 42.916 1.81592 41.102 1.81592C39.468 1.81592 38.071 2.37586 36.91 3.50586C35.785 4.59586 35.222 6.06602 35.222 7.91602C35.222 9.47602 35.766 10.966 36.855 12.376C37.944 13.796 39.831 15.5159 42.517 17.5459C45.348 19.7659 47.416 21.9056 48.723 23.9756ZM61.734 23.8057C62.097 23.4057 62.569 23.2158 63.149 23.2158C63.657 23.2158 64.093 23.4057 64.456 23.8057C64.855 24.1757 65.055 24.626 65.055 25.166C65.055 25.676 64.855 26.1356 64.456 26.5356C64.093 26.8956 63.657 27.0757 63.149 27.0757C62.605 27.0757 62.133 26.8956 61.734 26.5356C61.371 26.1356 61.19 25.676 61.19 25.166C61.19 24.626 61.371 24.1757 61.734 23.8057ZM11.704 36.2759C12.104 35.8759 12.557 35.6758 13.065 35.6758C13.573 35.6758 14.009 35.8759 14.372 36.2759C14.771 36.6359 14.971 37.0957 14.971 37.6357C14.971 38.1457 14.771 38.5956 14.372 38.9956C14.009 39.3656 13.573 39.5459 13.065 39.5459C12.557 39.5459 12.104 39.3656 11.704 38.9956C11.305 38.5956 11.106 38.1457 11.106 37.6357C11.106 37.0957 11.305 36.6359 11.704 36.2759Z" fill="black"/>
</svg>
