<svg width="133" height="42" viewBox="0 0 133 42" fill="none" xmlns="http://www.w3.org/2000/svg">
<path fill-rule="evenodd" clip-rule="evenodd" d="M84.272 26.4258H83.999C81.858 26.4258 80.044 26.3157 78.556 26.0957C77.068 25.8457 75.543 25.5157 73.983 25.1157C73.838 25.0757 73.71 25.0659 73.602 25.0659C73.529 25.0259 73.42 24.9856 73.275 24.9556C72.876 24.8056 72.567 24.606 72.35 24.356C72.132 24.096 72.059 23.8457 72.132 23.5957C72.204 23.3357 72.35 23.1559 72.567 23.0459C72.785 22.9059 73.075 22.8856 73.438 22.9956C73.729 23.0656 73.928 23.1358 74.037 23.2158C74.146 23.2458 74.346 23.306 74.636 23.376C76.16 23.846 77.485 24.1858 78.61 24.4058C79.735 24.6258 81.005 24.6458 82.421 24.4658C83.727 24.3558 84.598 23.996 85.034 23.376C85.506 22.756 85.742 21.776 85.742 20.436C85.742 18.836 85.469 17.2957 84.925 15.8057C84.417 14.2857 83.437 13.5156 81.985 13.5156C80.969 13.5156 80.044 13.9158 79.209 14.7158C78.374 15.4758 77.685 16.7857 77.14 18.6357C77.104 18.7457 77.086 18.8358 77.086 18.9058C77.086 18.9858 77.049 19.076 76.977 19.186C76.795 19.836 76.541 20.3957 76.215 20.8657C75.924 21.3057 75.507 21.5259 74.963 21.5259C74.491 21.5259 74.128 21.3759 73.874 21.0859C73.62 20.7959 73.456 20.4557 73.384 20.0557C73.348 19.6557 73.384 19.2958 73.493 18.9658C73.747 18.1258 74.237 17.206 74.963 16.186C75.688 15.136 76.65 14.206 77.848 13.416C79.046 12.616 80.461 12.2158 82.094 12.2158C83.364 12.2158 84.544 12.5257 85.633 13.1357C86.758 13.7557 87.665 14.7159 88.355 16.0259C89.08 17.2959 89.443 18.8358 89.443 20.6558C89.443 21.9958 89.189 23.086 88.681 23.916C88.209 24.756 87.611 25.3656 86.885 25.7656C86.195 26.1356 85.433 26.3357 84.598 26.3657C84.489 26.4057 84.381 26.4258 84.272 26.4258ZM86.014 39.4858C84.961 40.3558 83.727 40.7959 82.312 40.7959C79.844 40.7959 77.866 40.0858 76.378 38.6758C74.89 37.2558 73.874 35.7656 73.329 34.2056C72.785 32.6456 72.422 31.2456 72.241 30.0156C72.132 29.5456 72.132 29.1056 72.241 28.7056C72.386 28.2756 72.622 27.9456 72.948 27.7256C73.275 27.5156 73.692 27.4058 74.2 27.4058C74.817 27.4058 75.289 27.5858 75.616 27.9458C75.942 28.2758 76.178 28.6958 76.324 29.1958V29.416C76.36 29.456 76.378 29.5057 76.378 29.5757C76.414 29.8357 76.451 30.0358 76.487 30.1758C76.523 30.3258 76.559 30.5259 76.596 30.7759C76.777 32.2259 77.031 33.4856 77.358 34.5356C77.721 35.5456 78.302 36.4559 79.1 37.2559C79.898 38.0159 80.969 38.396 82.312 38.396C83.401 38.396 84.308 38.0159 85.034 37.2559C85.76 36.4559 86.286 35.6058 86.613 34.6958C86.975 33.7558 87.211 32.9057 87.32 32.1357C87.465 31.3357 87.701 30.8157 88.028 30.5557C88.391 30.2657 88.808 30.1658 89.28 30.2358C89.752 30.3458 90.097 30.636 90.314 31.106C90.532 31.576 90.478 32.2159 90.151 33.0059C89.679 34.2459 89.135 35.4056 88.518 36.4956C87.901 37.5856 87.066 38.5758 86.014 39.4858ZM14.209 24.6758C15.406 23.2258 17.366 21.8358 20.088 20.4858C22.447 19.3258 24.08 18.2957 24.988 17.3857C25.895 16.4457 26.349 15.3758 26.349 14.1758C26.349 13.5158 26.076 12.9558 25.532 12.4858C24.988 12.0158 24.352 11.7759 23.627 11.7759C22.719 11.7759 21.721 12.0158 20.632 12.4858C19.544 12.9258 18.128 13.5956 16.386 14.4956C14.318 15.5856 12.539 16.4259 11.051 17.0059C9.599 17.5859 8.148 17.876 6.696 17.876C5.607 17.876 4.537 17.5859 3.484 17.0059C2.468 16.4259 1.633 15.6057 0.98 14.5557C0.327 13.4657 0 12.2458 0 10.9058C0 9.38576 0.327 8.1157 0.98 7.0957C1.669 6.0757 2.486 5.2457 3.43 4.5957C4.156 4.1257 4.809 3.70594 5.389 3.33594C5.97 2.94594 6.496 2.5558 6.968 2.1958C7.73 1.6558 8.293 1.27566 8.656 1.05566C9.055 0.835664 9.418 0.725586 9.745 0.725586C10.325 0.725586 10.833 0.925684 11.269 1.32568C11.704 1.68568 11.922 2.1957 11.922 2.8457C11.922 3.3557 11.614 3.81582 10.997 4.21582C10.416 4.57582 9.491 5.02568 8.22 5.57568C7.748 5.78568 7.259 6.02588 6.75 6.27588C6.242 6.49588 5.734 6.7559 5.226 7.0459C4.283 7.5159 3.484 8.136 2.831 8.896C2.214 9.616 1.905 10.4756 1.905 11.4556C1.905 12.1456 2.141 12.886 2.613 13.686C3.085 14.446 3.847 14.8257 4.9 14.8257C5.698 14.8257 6.569 14.6256 7.513 14.2256C8.492 13.8256 9.781 13.1957 11.378 12.3257C13.446 11.1957 15.261 10.3256 16.822 9.70557C18.382 9.09557 19.961 8.78564 21.558 8.78564C23.046 8.78564 24.298 9.18584 25.314 9.98584C26.33 10.7758 27.093 11.7457 27.601 12.8657C28.109 13.9957 28.363 15.006 28.363 15.916C28.363 17.186 28.09 18.256 27.546 19.126C27.002 19.996 26.276 20.746 25.369 21.356C24.498 21.936 23.173 22.6857 21.395 23.5957C20.669 24.0257 19.888 24.466 19.054 24.896C18.255 25.296 17.439 25.7559 16.604 26.2559C15.515 26.9459 14.753 27.5259 14.318 28.0059C13.918 28.4359 13.719 29.0359 13.719 29.7959V31.376C13.719 31.596 13.646 31.7557 13.501 31.8657C13.392 31.9757 13.247 32.0259 13.065 32.0259C12.884 32.0259 12.721 31.9757 12.575 31.8657C12.467 31.7257 12.412 31.556 12.412 31.376V29.1958C12.412 27.6358 13.011 26.1358 14.209 24.6758ZM132.069 26.0459C132.251 26.1459 132.359 26.3359 132.396 26.5859C132.432 26.8759 132.359 27.1159 132.178 27.2959C131.996 27.4759 131.779 27.6356 131.525 27.7856C129.964 28.5456 128.585 29.1259 127.387 29.5259C126.19 29.9259 124.684 30.126 122.869 30.126C121.308 30.086 119.875 29.7256 118.568 29.0356C117.262 28.3056 116.227 27.3159 115.465 26.0459C114.703 24.7759 114.34 23.316 114.376 21.686C114.413 20.376 114.649 19.1656 115.084 18.0356C115.556 16.8756 116.209 15.8759 117.044 15.0459C117.879 14.1759 118.877 13.4856 120.038 12.9756C120.728 12.6856 121.453 12.4657 122.216 12.3257C123.014 12.1757 123.831 12.106 124.665 12.106C126.516 12.106 128.022 12.4359 129.184 13.0859C130.381 13.7359 131.289 14.5356 131.906 15.4756C132.087 15.7756 132.232 16.0459 132.341 16.2959C132.45 16.5559 132.523 16.7859 132.559 17.0059C132.595 17.2559 132.541 17.4758 132.396 17.6558C132.251 17.8358 132.069 17.9258 131.851 17.9258C131.634 17.9258 131.434 17.826 131.252 17.606C131.107 17.456 130.98 17.3459 130.871 17.2759C130.799 17.1659 130.708 17.046 130.599 16.896C130.091 16.356 129.565 15.8756 129.02 15.4756C128.476 15.0456 127.823 14.6659 127.061 14.3359C126.335 13.9759 125.536 13.7959 124.665 13.7959C124.085 13.7959 123.468 13.9057 122.814 14.1157C122.161 14.3357 121.544 14.6258 120.964 14.9858C120.347 15.4258 119.802 15.9559 119.33 16.5659C118.859 17.1459 118.477 17.8357 118.187 18.6357C117.897 19.4357 117.752 20.3059 117.752 21.2559C117.752 22.9559 118.26 24.3756 119.276 25.4956C120.292 26.5856 121.472 27.2356 122.814 27.4556C122.96 27.4956 123.105 27.5259 123.25 27.5659H123.74C124.901 27.5659 125.936 27.4558 126.843 27.2358C127.75 26.9858 128.857 26.6559 130.164 26.2559C130.418 26.1859 130.636 26.1159 130.817 26.0459C131.035 25.9659 131.234 25.936 131.416 25.936C131.67 25.856 131.888 25.8959 132.069 26.0459ZM57.488 14.1157C58.903 12.4857 60.482 11.666 62.224 11.666C63.313 11.666 64.329 11.996 65.272 12.646C66.252 13.306 67.105 14.2258 67.831 15.4258C68.593 16.6258 69.138 18.0358 69.464 19.6758C69.501 19.7058 69.519 19.7659 69.519 19.8359C69.555 19.8759 69.573 19.9256 69.573 19.9956C69.573 20.2856 69.519 20.5659 69.41 20.8159C69.337 21.0359 69.174 21.1558 68.92 21.1958C68.884 21.1958 68.847 21.2159 68.811 21.2559H68.757C68.539 21.2559 68.339 21.1756 68.158 21.0356C67.976 20.8556 67.849 20.636 67.777 20.376L67.341 19.0757C66.76 17.5157 66.053 16.1857 65.218 15.0957C64.383 13.9757 63.349 13.416 62.115 13.416C61.026 13.416 60.101 14.0256 59.339 15.2656C58.576 16.4956 57.996 18.116 57.597 20.106C57.197 22.106 56.998 24.2058 56.998 26.4258C56.998 29.0358 57.252 31.2156 57.76 32.9556C58.304 34.6656 58.976 35.9158 59.774 36.7158C60.609 37.5058 61.462 37.9058 62.333 37.9058C63.93 37.9058 65.145 37.4057 65.98 36.3857C66.815 35.3357 67.45 34.2059 67.885 33.0059L67.994 32.7358C68.067 32.6258 68.158 32.516 68.266 32.416C68.375 32.266 68.502 32.1958 68.648 32.1958C68.938 32.1958 69.119 32.3056 69.192 32.5156C69.301 32.7356 69.319 32.9558 69.246 33.1758C68.702 35.7458 67.777 37.6758 66.47 38.9458C65.164 40.1758 63.567 40.7959 61.679 40.7959C59.865 40.7959 58.304 40.1557 56.998 38.8857C55.691 37.6157 54.693 35.966 54.004 33.936C53.35 31.906 53.024 29.7456 53.024 27.4556C53.024 25.0656 53.405 22.6458 54.167 20.2158C54.965 17.7458 56.072 15.7157 57.488 14.1157ZM128.422 39.166C127.333 40.216 125.972 40.7358 124.339 40.7358C122.633 40.7358 121.163 40.4159 119.929 39.7559C118.732 39.0659 117.788 38.1857 117.098 37.0957C116.409 36.0057 115.937 34.8257 115.683 33.5557C115.61 33.0857 115.61 32.686 115.683 32.356C115.792 31.996 115.955 31.7256 116.173 31.5356C116.427 31.3256 116.663 31.176 116.881 31.106C117.135 31.066 117.407 31.0858 117.697 31.1558C117.988 31.2358 118.26 31.4156 118.514 31.7056C118.768 31.9556 118.949 32.3357 119.058 32.8457C119.276 33.9357 119.566 34.856 119.929 35.626C120.292 36.346 120.836 36.946 121.562 37.416C122.288 37.856 123.214 38.0757 124.339 38.0757C125.065 38.0757 125.772 37.9059 126.462 37.5859C127.151 37.2559 127.787 36.8159 128.367 36.2759C128.984 35.6959 129.492 35.0459 129.892 34.3159C130.037 33.9859 130.218 33.7357 130.436 33.5557C130.654 33.3757 130.908 33.3358 131.198 33.4458C131.488 33.5858 131.597 33.8258 131.525 34.1558C131.488 34.4458 131.416 34.7158 131.307 34.9658C130.508 36.6758 129.547 38.076 128.422 39.166ZM111.219 30.3457C111.255 32.1157 111.273 34.8256 111.273 38.4556C111.273 39.2556 111.128 39.906 110.838 40.416C110.548 40.926 110.094 41.1758 109.477 41.1758C108.896 41.1758 108.406 40.9559 108.007 40.5259C107.644 40.1259 107.444 39.416 107.408 38.396C107.372 36.546 107.336 33.4256 107.299 29.0356V18.4756C107.299 17.3156 106.846 16.2456 105.938 15.2656C105.067 14.2856 103.67 13.7959 101.747 13.7959C100.259 13.7959 99.061 14.3059 98.154 15.3159C97.283 16.2959 96.847 17.476 96.847 18.856C96.847 21.216 96.829 22.9757 96.793 24.1357V29.5259C96.756 30.7559 96.738 31.8858 96.738 32.9058V35.8359C96.738 36.5259 96.539 37.1159 96.139 37.5859C95.776 38.0159 95.268 38.2358 94.615 38.2358C94.107 38.2358 93.708 38.0357 93.417 37.6357C93.127 37.2057 92.982 36.6559 92.982 36.0059C92.982 33.3559 92.964 31.2656 92.927 29.7456V20.5459C92.927 19.3859 93.254 18.1457 93.907 16.8457C94.561 15.5357 95.54 14.4256 96.847 13.5156C98.19 12.6156 99.823 12.1558 101.747 12.1558C103.779 12.1558 105.503 12.5958 106.918 13.4658C108.37 14.3058 109.441 15.3359 110.13 16.5659C110.856 17.7659 111.219 18.9056 111.219 19.9956V30.3457ZM48.614 23.9756C49.921 26.0056 50.574 28.1859 50.574 30.5059C50.574 32.5359 50.102 34.3159 49.158 35.8359C48.215 37.3659 46.908 38.566 45.239 39.436C43.606 40.266 41.718 40.686 39.577 40.686C38.815 40.686 37.962 40.6158 37.019 40.4658C36.111 40.3258 35.24 40.1458 34.406 39.9258C33.607 39.7058 32.99 39.4658 32.554 39.2158C32.301 39.0658 32.101 38.9259 31.956 38.7759C31.811 38.5959 31.738 38.3058 31.738 37.9058L31.466 29.3657C31.43 28.6357 31.683 28.2759 32.228 28.2759C32.627 28.2759 32.899 28.5959 33.045 29.2559L33.807 32.3057C34.641 35.7457 36.964 38.016 40.775 39.106C42.989 39.066 44.586 38.236 45.566 36.606C46.545 34.936 47.035 32.9959 47.035 30.7759C47.035 28.6359 46.455 26.766 45.293 25.166C44.168 23.576 42.335 21.8657 39.795 20.0557C37 18.1257 34.95 16.1856 33.643 14.2256C32.373 12.2356 31.738 10.216 31.738 8.18604C31.738 6.04604 32.663 4.22561 34.514 2.74561C36.402 1.21561 38.688 0.455566 41.374 0.455566C42.535 0.455566 43.751 0.585938 45.021 0.835938C46.291 1.08594 47.271 1.45578 47.961 1.92578C48.179 2.06578 48.342 2.23602 48.451 2.41602C48.596 2.59602 48.669 2.83598 48.669 3.12598L48.941 11.396C48.977 12.016 48.777 12.3257 48.342 12.3257C47.87 12.2857 47.58 11.976 47.471 11.396L47.035 8.9458C46.709 7.2458 46.074 5.62596 45.13 4.10596C44.223 2.57596 42.862 1.81592 41.047 1.81592C39.378 1.81592 37.962 2.37586 36.801 3.50586C35.676 4.59586 35.113 6.06602 35.113 7.91602C35.113 9.47602 35.658 10.966 36.746 12.376C37.835 13.796 39.722 15.5159 42.408 17.5459C45.239 19.7659 47.308 21.9056 48.614 23.9756ZM61.571 23.8057C61.934 23.4057 62.405 23.2158 62.986 23.2158C63.494 23.2158 63.93 23.4057 64.293 23.8057C64.692 24.1757 64.891 24.626 64.891 25.166C64.891 25.676 64.692 26.1356 64.293 26.5356C63.93 26.8956 63.494 27.0757 62.986 27.0757C62.442 27.0757 61.97 26.8956 61.571 26.5356C61.208 26.1356 61.026 25.676 61.026 25.166C61.026 24.626 61.208 24.1757 61.571 23.8057ZM11.704 36.2759C12.104 35.8759 12.557 35.6758 13.065 35.6758C13.573 35.6758 14.009 35.8759 14.372 36.2759C14.771 36.6359 14.971 37.0957 14.971 37.6357C14.971 38.1457 14.771 38.5956 14.372 38.9956C14.009 39.3656 13.573 39.5459 13.065 39.5459C12.557 39.5459 12.104 39.3656 11.704 38.9956C11.305 38.5956 11.106 38.1457 11.106 37.6357C11.106 37.0957 11.305 36.6359 11.704 36.2759Z" fill="black"/>
</svg>
