<svg width="133" height="42" viewBox="0 0 133 42" fill="none" xmlns="http://www.w3.org/2000/svg">
<path fill-rule="evenodd" clip-rule="evenodd" d="M83.999 26.5356H83.673C81.604 26.5356 79.826 26.406 78.338 26.146C76.85 25.856 75.362 25.5157 73.874 25.1157C73.729 25.0757 73.602 25.0459 73.493 25.0059C73.42 24.9759 73.311 24.936 73.166 24.896C72.767 24.756 72.458 24.5559 72.241 24.2959C72.023 24.0459 71.932 23.8057 71.968 23.5957C72.041 23.3057 72.186 23.1056 72.404 22.9956C72.658 22.8456 72.985 22.8456 73.384 22.9956C73.638 23.0656 73.819 23.1158 73.928 23.1558C74.073 23.1958 74.273 23.2459 74.527 23.3159C76.088 23.8659 77.412 24.2458 78.501 24.4658C79.59 24.6758 80.842 24.6956 82.257 24.5156C83.6 24.3756 84.489 23.996 84.925 23.376C85.397 22.756 85.633 21.776 85.633 20.436C85.633 18.836 85.36 17.2957 84.816 15.8057C84.308 14.2857 83.328 13.5156 81.876 13.5156C80.824 13.5156 79.88 13.906 79.046 14.666C78.247 15.426 77.576 16.7159 77.031 18.5259C76.995 18.6359 76.977 18.7257 76.977 18.8057C76.977 18.8757 76.941 18.986 76.868 19.126C76.686 19.786 76.432 20.3459 76.106 20.8159C75.815 21.2559 75.398 21.4658 74.854 21.4658C74.382 21.4658 74.019 21.3256 73.765 21.0356C73.511 20.7456 73.348 20.3956 73.275 19.9956C73.239 19.5656 73.275 19.1958 73.384 18.9058C73.638 18.0758 74.11 17.1457 74.799 16.1357C75.525 15.0857 76.487 14.176 77.685 13.416C78.918 12.616 80.352 12.2158 81.985 12.2158C83.255 12.2158 84.435 12.5257 85.524 13.1357C86.649 13.7557 87.556 14.6958 88.246 15.9658C88.935 17.2358 89.28 18.7659 89.28 20.5459C89.28 21.9259 89.026 23.046 88.518 23.916C88.01 24.756 87.375 25.3656 86.613 25.7656C85.887 26.1656 85.125 26.4056 84.326 26.4756C84.217 26.5156 84.108 26.5356 83.999 26.5356ZM85.85 39.4858C84.798 40.3558 83.582 40.7959 82.203 40.7959C79.699 40.7959 77.703 40.0858 76.215 38.6758C74.763 37.2558 73.765 35.7856 73.221 34.2656C72.676 32.7356 72.295 31.356 72.077 30.126C72.005 29.656 72.023 29.2159 72.132 28.8159C72.277 28.3859 72.513 28.0559 72.839 27.8359C73.166 27.5859 73.583 27.4556 74.092 27.4556C74.709 27.4556 75.18 27.6359 75.507 28.0059C75.834 28.3259 76.051 28.7459 76.16 29.2559V29.4756C76.197 29.5056 76.215 29.5657 76.215 29.6357C76.251 29.8857 76.287 30.0858 76.324 30.2358C76.36 30.3758 76.396 30.5759 76.432 30.8359C76.65 32.3159 76.922 33.5759 77.249 34.5859C77.612 35.6059 78.174 36.4959 78.937 37.2559C79.735 38.0159 80.824 38.396 82.203 38.396C83.255 38.396 84.126 38.0159 84.816 37.2559C85.542 36.4959 86.068 35.6458 86.395 34.6958C86.758 33.7558 87.012 32.9158 87.157 32.1958C87.266 31.3258 87.502 30.7559 87.865 30.5059C88.264 30.2159 88.699 30.1258 89.171 30.2358C89.643 30.3458 89.988 30.636 90.206 31.106C90.46 31.576 90.405 32.2259 90.042 33.0659C89.534 34.2659 88.972 35.4056 88.355 36.4956C87.738 37.5856 86.903 38.5758 85.85 39.4858ZM14.209 24.7358C15.443 23.2858 17.421 21.8859 20.142 20.5459C22.502 19.3859 24.135 18.3257 25.042 17.3857C25.949 16.4457 26.403 15.3856 26.403 14.2256C26.403 13.5356 26.131 12.9558 25.586 12.4858C25.042 12.0158 24.407 11.7759 23.681 11.7759C22.774 11.7759 21.758 12.0158 20.632 12.4858C19.544 12.9258 18.146 13.5956 16.441 14.4956C14.372 15.5856 12.594 16.4259 11.106 17.0059C9.618 17.5859 8.148 17.876 6.696 17.876C5.607 17.876 4.537 17.5859 3.484 17.0059C2.468 16.4259 1.633 15.6057 0.98 14.5557C0.327 13.5057 0 12.2858 0 10.9058C0 9.38576 0.327 8.1157 0.98 7.0957C1.669 6.0757 2.486 5.2457 3.43 4.5957C4.156 4.1257 4.809 3.70594 5.389 3.33594C5.97 2.94594 6.496 2.5558 6.968 2.1958C7.73 1.6558 8.293 1.27566 8.656 1.05566C9.055 0.835664 9.418 0.725586 9.745 0.725586C10.325 0.725586 10.833 0.925684 11.269 1.32568C11.704 1.68568 11.922 2.1957 11.922 2.8457C11.922 3.3557 11.614 3.81582 10.997 4.21582C10.416 4.57582 9.491 5.02568 8.22 5.57568C7.748 5.78568 7.259 6.02588 6.75 6.27588C6.242 6.49588 5.734 6.7559 5.226 7.0459C4.319 7.5159 3.539 8.136 2.885 8.896C2.232 9.656 1.905 10.5056 1.905 11.4556C1.905 12.1456 2.141 12.886 2.613 13.686C3.085 14.446 3.847 14.8257 4.9 14.8257C5.698 14.8257 6.569 14.6256 7.513 14.2256C8.492 13.8256 9.781 13.1957 11.378 12.3257C13.446 11.1957 15.261 10.3256 16.822 9.70557C18.419 9.09557 20.015 8.78564 21.612 8.78564C23.1 8.78564 24.352 9.18584 25.369 9.98584C26.385 10.7758 27.147 11.7457 27.655 12.8657C28.163 13.9957 28.417 15.006 28.417 15.916C28.417 17.226 28.145 18.316 27.601 19.186C27.056 20.056 26.33 20.796 25.423 21.416C24.552 21.996 23.227 22.736 21.449 23.646C20.687 24.046 19.907 24.466 19.108 24.896C18.31 25.336 17.493 25.8059 16.658 26.3159C15.57 27.0059 14.807 27.5659 14.372 28.0059C13.936 28.4359 13.719 29.056 13.719 29.856V31.436C13.719 31.646 13.646 31.8158 13.501 31.9258C13.392 32.0258 13.247 32.0859 13.065 32.0859C12.884 32.0859 12.721 32.0258 12.575 31.9258C12.467 31.7758 12.412 31.616 12.412 31.436V29.2559C12.412 27.6959 13.011 26.1858 14.209 24.7358ZM131.906 26.146C132.087 26.256 132.196 26.4458 132.232 26.6958C132.269 27.0258 132.196 27.2756 132.015 27.4556C131.869 27.6056 131.67 27.7658 131.416 27.9458C129.964 28.7458 128.658 29.3659 127.496 29.7959C126.335 30.2359 124.901 30.4556 123.196 30.4556C121.562 30.4156 120.056 30.0357 118.677 29.3057C117.298 28.5857 116.191 27.5659 115.356 26.2559C114.558 24.9559 114.159 23.4659 114.159 21.7959C114.159 20.4159 114.376 19.1656 114.812 18.0356C115.284 16.8756 115.937 15.8658 116.772 14.9858C117.643 14.1158 118.659 13.4456 119.82 12.9756C120.51 12.6856 121.254 12.4657 122.052 12.3257C122.851 12.1757 123.667 12.106 124.502 12.106C126.353 12.106 127.859 12.4359 129.02 13.0859C130.218 13.7059 131.144 14.466 131.797 15.376C131.978 15.626 132.124 15.896 132.232 16.186C132.341 16.446 132.414 16.6557 132.45 16.8457C132.45 17.0557 132.396 17.256 132.287 17.436C132.178 17.586 132.015 17.6758 131.797 17.7158C131.615 17.7158 131.434 17.626 131.252 17.436C131.144 17.336 131.035 17.236 130.926 17.166C130.853 17.056 130.744 16.9457 130.599 16.8457C130.091 16.3357 129.547 15.8756 128.966 15.4756C128.422 15.0456 127.768 14.6659 127.006 14.3359C126.244 14.0059 125.409 13.8457 124.502 13.8457C123.921 13.8457 123.304 13.9558 122.651 14.1758C121.998 14.3558 121.363 14.6258 120.746 14.9858C120.165 15.3858 119.621 15.8956 119.113 16.5156C118.641 17.0956 118.26 17.7859 117.969 18.5859C117.679 19.3459 117.534 20.2158 117.534 21.1958C117.534 22.9758 118.06 24.446 119.113 25.606C120.165 26.736 121.399 27.4158 122.814 27.6758C122.96 27.7158 123.105 27.7456 123.25 27.7856H123.74C124.901 27.7856 125.936 27.6756 126.843 27.4556C127.787 27.2056 128.875 26.8558 130.109 26.4258C130.363 26.3158 130.581 26.226 130.763 26.146C130.98 26.076 131.144 26.0459 131.252 26.0459C131.507 25.9659 131.724 26.006 131.906 26.146ZM57.27 14.1157C58.685 12.4857 60.264 11.666 62.006 11.666C63.059 11.666 64.075 11.996 65.055 12.646C66.035 13.306 66.906 14.2456 67.668 15.4756C68.43 16.6756 69.01 18.0758 69.41 19.6758C69.446 19.7058 69.464 19.7659 69.464 19.8359V19.9956C69.501 20.2856 69.464 20.5659 69.355 20.8159C69.246 21.0359 69.065 21.146 68.811 21.146C68.775 21.176 68.738 21.2159 68.702 21.2559H68.648C68.43 21.2559 68.23 21.1756 68.049 21.0356C67.867 20.8556 67.74 20.636 67.668 20.376L67.232 19.0156C66.652 17.4956 65.944 16.1857 65.109 15.0957C64.274 13.9757 63.24 13.416 62.006 13.416C60.881 13.416 59.937 14.0256 59.175 15.2656C58.449 16.4956 57.887 18.126 57.488 20.166C57.088 22.156 56.889 24.2656 56.889 26.4756C56.889 29.0856 57.143 31.2456 57.651 32.9556C58.195 34.6656 58.867 35.9158 59.665 36.7158C60.5 37.5058 61.335 37.9058 62.169 37.9058C63.803 37.9058 65.037 37.4057 65.871 36.3857C66.706 35.3357 67.341 34.2059 67.777 33.0059L67.885 32.7358C67.958 32.6258 68.049 32.516 68.158 32.416C68.266 32.266 68.394 32.1958 68.539 32.1958C68.829 32.1958 69.01 32.3056 69.083 32.5156C69.192 32.7356 69.21 32.9558 69.138 33.1758C68.593 35.7458 67.668 37.6758 66.361 38.9458C65.055 40.1758 63.458 40.7959 61.571 40.7959C59.756 40.7959 58.177 40.1557 56.834 38.8857C55.528 37.6157 54.53 35.966 53.84 33.936C53.187 31.906 52.86 29.7456 52.86 27.4556C52.86 25.0956 53.241 22.7059 54.004 20.2759C54.802 17.8059 55.891 15.7557 57.27 14.1157ZM128.204 39.166C127.115 40.216 125.772 40.7358 124.175 40.7358C122.47 40.7358 121.018 40.4159 119.82 39.7559C118.659 39.1059 117.733 38.2759 117.044 37.2559C116.354 36.2359 115.883 35.0957 115.628 33.8257C115.52 33.3957 115.501 33.006 115.574 32.686C115.683 32.316 115.846 32.0457 116.064 31.8657C116.282 31.6457 116.518 31.506 116.772 31.436C117.026 31.356 117.298 31.3758 117.588 31.4858C117.879 31.5558 118.151 31.7256 118.405 31.9756C118.659 32.2256 118.84 32.6057 118.949 33.1157C119.167 34.1757 119.457 35.0458 119.82 35.7358C120.183 36.4258 120.709 36.986 121.399 37.416C122.089 37.856 123.014 38.0757 124.175 38.0757C124.829 38.0757 125.5 37.9257 126.19 37.6357C126.916 37.3057 127.569 36.8757 128.149 36.3257C128.766 35.7857 129.293 35.1558 129.728 34.4258C129.873 34.0958 130.037 33.846 130.218 33.666C130.436 33.486 130.69 33.466 130.98 33.606C131.271 33.756 131.398 33.9859 131.361 34.3159C131.325 34.6059 131.253 34.8757 131.144 35.1357C130.309 36.7657 129.329 38.106 128.204 39.166ZM111.11 30.396C111.146 32.136 111.164 34.8459 111.164 38.5059C111.164 39.3059 111.001 39.9558 110.675 40.4658C110.384 40.9758 109.931 41.2256 109.314 41.2256C108.733 41.2256 108.261 41.0157 107.898 40.5757C107.535 40.1757 107.336 39.456 107.299 38.396C107.263 36.626 107.227 33.5159 107.19 29.0859V18.4756C107.19 17.3156 106.737 16.2456 105.829 15.2656C104.958 14.2856 103.561 13.7959 101.638 13.7959C100.15 13.7959 98.952 14.3059 98.045 15.3159C97.174 16.2959 96.738 17.476 96.738 18.856C96.738 21.176 96.72 22.9357 96.684 24.1357V29.4756C96.647 30.6656 96.629 31.7957 96.629 32.8457V35.7358C96.629 36.4258 96.43 37.0056 96.03 37.4756C95.631 37.9056 95.105 38.126 94.452 38.126C93.98 38.126 93.599 37.9259 93.309 37.5259C93.018 37.0959 92.873 36.5259 92.873 35.8359C92.837 33.1559 92.8 31.0857 92.764 29.6357C92.764 28.1457 92.782 25.966 92.819 23.106V20.5459C92.819 19.3859 93.145 18.1457 93.798 16.8457C94.452 15.5357 95.432 14.4256 96.738 13.5156C98.081 12.6156 99.714 12.1558 101.638 12.1558C103.67 12.1558 105.394 12.5958 106.809 13.4658C108.261 14.3058 109.332 15.3359 110.021 16.5659C110.747 17.7659 111.11 18.9056 111.11 19.9956V30.396ZM48.505 23.9756C49.812 26.0056 50.465 28.1859 50.465 30.5059C50.465 32.5359 49.993 34.3159 49.05 35.8359C48.106 37.3659 46.799 38.566 45.13 39.436C43.497 40.266 41.61 40.686 39.468 40.686C38.706 40.686 37.853 40.6158 36.91 40.4658C36.002 40.3258 35.131 40.1458 34.297 39.9258C33.498 39.7058 32.881 39.4658 32.446 39.2158C32.192 39.0658 31.992 38.9259 31.847 38.7759C31.702 38.5959 31.629 38.3058 31.629 37.9058L31.357 29.3657C31.321 28.6357 31.575 28.2759 32.119 28.2759C32.518 28.2759 32.79 28.5959 32.936 29.2559L33.698 32.356C34.533 35.736 36.855 37.986 40.666 39.106C42.916 39.066 44.513 38.2159 45.457 36.5459C46.437 34.8459 46.926 32.886 46.926 30.666C46.926 28.526 46.346 26.6757 45.184 25.1157C44.059 23.5557 42.227 21.8657 39.686 20.0557C36.892 18.1257 34.841 16.1658 33.534 14.1758C32.264 12.1758 31.629 10.1657 31.629 8.13574C31.629 5.98574 32.554 4.17604 34.406 2.68604C36.293 1.19604 38.579 0.455566 41.265 0.455566C42.426 0.455566 43.642 0.585938 44.912 0.835938C46.182 1.08594 47.162 1.45578 47.852 1.92578C48.07 2.06578 48.233 2.23602 48.342 2.41602C48.487 2.59602 48.56 2.83598 48.56 3.12598L48.832 11.396C48.868 12.016 48.669 12.3257 48.233 12.3257C47.761 12.2857 47.471 11.976 47.362 11.396L46.926 8.83594C46.636 7.24594 46.019 5.66596 45.076 4.10596C44.132 2.54596 42.753 1.76562 40.938 1.76562C39.305 1.76562 37.908 2.3258 36.746 3.4458C35.585 4.5758 35.004 6.06602 35.004 7.91602C35.004 9.47602 35.549 10.966 36.638 12.376C37.726 13.796 39.614 15.5159 42.299 17.5459C45.13 19.7659 47.199 21.9056 48.505 23.9756ZM61.462 23.8057C61.825 23.4057 62.296 23.2158 62.877 23.2158C63.385 23.2158 63.821 23.4057 64.184 23.8057C64.583 24.1757 64.782 24.626 64.782 25.166C64.782 25.676 64.583 26.1356 64.184 26.5356C63.821 26.8956 63.385 27.0757 62.877 27.0757C62.333 27.0757 61.861 26.8956 61.462 26.5356C61.099 26.1356 60.917 25.676 60.917 25.166C60.917 24.626 61.099 24.1757 61.462 23.8057ZM11.704 36.2759C12.104 35.8759 12.557 35.6758 13.065 35.6758C13.573 35.6758 14.009 35.8759 14.372 36.2759C14.771 36.6359 14.971 37.0957 14.971 37.6357C14.971 38.1457 14.771 38.5956 14.372 38.9956C14.009 39.3656 13.573 39.5459 13.065 39.5459C12.557 39.5459 12.104 39.3656 11.704 38.9956C11.305 38.5956 11.106 38.1457 11.106 37.6357C11.106 37.0957 11.305 36.6359 11.704 36.2759Z" fill="black"/>
</svg>
