<svg width="139" height="41" viewBox="0 0 139 41" fill="none" xmlns="http://www.w3.org/2000/svg">
<path fill-rule="evenodd" clip-rule="evenodd" d="M4.355 14.1741L0.653 14.5551C0.436 13.6841 0.272 12.9581 0.163 12.3781C0.054 11.7611 0 10.9261 0 9.87311C0.798 9.61911 1.452 9.42009 1.96 9.27509C2.504 9.09309 3.303 8.94812 4.355 8.83912V5.13709L6.642 4.92011C7.113 4.88311 7.458 4.8471 7.676 4.8111C7.93 4.7381 8.275 4.70209 8.71 4.70209V1.00013C9.581 0.964126 10.271 0.964126 10.779 1.00013C11.287 1.00013 11.977 1.03613 12.848 1.10913C12.884 2.01613 12.884 2.70613 12.848 3.17713C12.811 3.64913 12.739 4.3391 12.63 5.2461L8.71 5.35511V9.05713C7.803 9.09313 7.059 9.1481 6.478 9.2201C5.934 9.2931 5.226 9.3471 4.355 9.3841V10.5271C4.246 10.8901 4.156 11.1981 4.083 11.4521C4.01 11.6701 3.974 11.9971 3.974 12.4321C3.974 12.8681 4.01 13.1941 4.083 13.4121C4.156 13.6301 4.246 13.8841 4.355 14.1741ZM4.355 14.1741C5.843 14.1741 7.004 14.1381 7.839 14.0651C8.674 13.9931 9.908 13.8841 11.541 13.7391L13.065 13.6301V9.9281C13.9 9.8921 14.59 9.8551 15.134 9.8191C15.715 9.7461 16.477 9.69213 17.421 9.65613V5.95411C19.271 5.88111 20.723 5.8451 21.776 5.8451C22.828 5.8451 24.28 5.95412 26.131 6.17212V9.9281L29.833 9.87311C29.869 10.7441 29.905 11.4341 29.942 11.9421C30.014 12.4501 30.05 13.1581 30.05 14.0651H26.349C26.385 14.9731 26.403 15.6981 26.403 16.2431C26.403 16.7511 26.367 17.4771 26.294 18.4201H22.592C22.556 19.3641 22.465 20.1081 22.32 20.6521C22.175 21.1601 22.012 21.8681 21.83 22.7761H18.128C18.092 22.9571 18.038 23.1021 17.965 23.2111C17.929 23.2841 17.892 23.4111 17.856 23.5921C17.493 24.3911 17.221 25.0261 17.039 25.4971C16.894 25.9331 16.822 26.5501 16.822 27.3481V31.3771C16.205 31.4491 15.715 31.5041 15.352 31.5401H14.372C14.045 31.5041 13.573 31.4491 12.957 31.3771V28.2741C12.957 27.1491 12.993 26.2961 13.065 25.7151C13.138 25.0981 13.247 24.2641 13.392 23.2111L13.446 22.7761H17.148C17.221 22.1951 17.312 21.7591 17.421 21.4691C17.529 21.1421 17.638 20.6891 17.747 20.1081C17.82 19.7451 17.892 19.4731 17.965 19.2911C18.074 19.0741 18.183 18.7831 18.292 18.4201H21.993C22.102 17.5131 22.193 16.8051 22.266 16.2971C22.374 15.7891 22.429 15.0451 22.429 14.0651H26.131V10.3631H23.735C23.264 10.2551 22.864 10.1641 22.538 10.0911C22.211 10.0191 21.739 9.98212 21.122 9.98212C20.397 9.98212 19.798 10.0191 19.326 10.0911C18.854 10.1641 18.219 10.2361 17.421 10.3091V14.0111L13.065 14.3371V18.0391C11.178 18.1481 9.708 18.2391 8.656 18.3121C7.64 18.3481 6.206 18.3301 4.355 18.2571V14.1741ZM39.196 5.02808V1.05408C41.083 0.945081 42.553 0.909133 43.606 0.945133C44.658 0.945133 46.092 0.964126 47.906 1.00013V4.70209C48.814 4.73809 49.503 4.79212 49.975 4.86512C50.483 4.90112 51.155 4.95608 51.989 5.02808V9.32911C52.026 10.3821 52.044 11.8331 52.044 13.6841C51.427 13.7201 50.937 13.7571 50.574 13.7931H49.539C49.213 13.7571 48.741 13.7201 48.124 13.6841L47.961 11.2891C47.961 10.7081 47.943 9.92812 47.906 8.94812V5.62714C46.6 5.37314 45.547 5.19213 44.749 5.08313C43.987 4.93813 43.206 4.86512 42.408 4.86512C41.646 4.86512 40.575 4.92008 39.196 5.02808ZM39.196 36.1681L35.494 36.5491C35.24 35.7141 35.041 35.0611 34.895 34.5891C34.75 34.1171 34.678 33.4091 34.678 32.4661L34.623 30.4511V27.4031C35.24 27.3671 35.712 27.3481 36.039 27.3481C36.365 27.3121 36.71 27.3121 37.073 27.3481C37.436 27.3481 37.926 27.3671 38.543 27.4031V28.2191C38.615 29.9611 38.688 31.3221 38.761 32.3021C38.87 33.2461 39.015 34.5341 39.196 36.1681ZM47.961 35.8411L48.396 39.5431C46.545 39.8331 45.057 40.0331 43.932 40.1421C42.807 40.2501 41.228 40.2871 39.196 40.2501V36.1681C40.575 36.2761 41.664 36.3311 42.462 36.3311C43.261 36.3311 44.041 36.2951 44.803 36.2221C45.602 36.1491 46.654 36.0221 47.961 35.8411ZM38.543 14.0651H34.841C34.768 12.7591 34.696 11.6701 34.623 10.7991C34.587 9.92814 34.623 9.0571 34.732 8.1861C34.877 7.2791 35.131 6.13511 35.494 4.75611L39.196 5.02808C39.051 6.37108 38.942 7.44212 38.87 8.24012C38.833 9.03912 38.851 9.85513 38.924 10.6901C38.997 11.5251 39.142 12.6501 39.359 14.0651H43.061C43.134 14.9361 43.243 15.6441 43.388 16.1881C43.533 16.7331 43.678 17.4771 43.823 18.4201H47.525C47.634 19.3281 47.743 20.0351 47.852 20.5441C47.961 21.0521 48.07 21.7961 48.179 22.7761H51.88C52.098 25.4611 52.225 27.6021 52.262 29.1991C52.334 30.7601 52.28 32.9741 52.098 35.8411H47.961C48.106 33.0461 48.106 30.8691 47.961 29.3081C47.816 27.7111 47.616 25.5341 47.362 22.7761H43.66C43.588 22.2671 43.515 21.8861 43.442 21.6321C43.37 21.3421 43.297 20.9431 43.225 20.4351C43.152 20.0351 43.079 19.7271 43.007 19.5091C42.934 19.2551 42.862 18.8921 42.789 18.4201H39.087C38.942 17.4771 38.815 16.7511 38.706 16.2431C38.634 15.6981 38.579 14.9731 38.543 14.0651ZM61.298 14.0651L60.917 10.3631C62.732 10.2551 64.111 10.1821 65.055 10.1461C66.035 10.1091 67.396 10.0911 69.138 10.0911C69.319 10.9261 69.446 11.5791 69.519 12.0511C69.628 12.5231 69.7 13.1941 69.736 14.0651H73.438C73.511 14.9731 73.547 15.6981 73.547 16.2431C73.583 16.7871 73.602 17.5491 73.602 18.5291V18.8011C72.985 18.8381 72.495 18.8741 72.132 18.9101C71.805 18.9471 71.46 18.9651 71.097 18.9651C70.771 18.9281 70.299 18.8921 69.682 18.8561C69.682 18.7111 69.664 18.5841 69.628 18.4751V18.0941C69.555 17.1501 69.482 16.4421 69.41 15.9711C69.337 15.4631 69.265 14.8271 69.192 14.0651H66.252C65.164 13.9931 64.329 13.9751 63.748 14.0111C63.167 14.0111 62.351 14.0291 61.298 14.0651ZM69.573 35.8411C69.609 35.1151 69.646 34.5521 69.682 34.1531C69.718 33.7181 69.736 33.1371 69.736 32.4111L69.791 31.6491C70.444 31.6131 70.934 31.5951 71.261 31.5951C71.587 31.5951 71.914 31.6131 72.241 31.6491C72.604 31.6491 73.075 31.6851 73.656 31.7581C73.656 32.6291 73.638 33.3191 73.602 33.8271C73.602 34.2981 73.583 34.9701 73.547 35.8411H69.573ZM61.026 35.8411C62.333 35.9501 63.349 36.0401 64.075 36.1131C64.837 36.1491 65.599 36.1681 66.361 36.1681C67.123 36.1311 68.194 36.0221 69.573 35.8411L69.845 39.5431C68.502 39.8691 67.377 40.0871 66.47 40.1961C65.599 40.3051 64.71 40.3051 63.803 40.1961C62.932 40.0871 61.788 39.8691 60.373 39.5431L61.026 35.8411ZM61.298 14.0651C61.117 17.2591 60.972 19.8361 60.863 21.7961C60.754 23.7191 60.7 25.6971 60.7 27.7291C60.736 29.7261 60.845 32.4291 61.026 35.8411H56.671C56.453 32.3201 56.344 29.5801 56.344 27.6211C56.381 25.6241 56.471 23.6831 56.617 21.7961C56.798 19.8721 56.998 17.2951 57.215 14.0651H61.298ZM91.077 35.8411C91.149 34.9341 91.204 34.2081 91.24 33.6631C91.276 33.0831 91.312 32.3571 91.349 31.4861C91.966 31.4491 92.438 31.4311 92.764 31.4311C93.127 31.3951 93.472 31.3951 93.798 31.4311C94.161 31.4681 94.633 31.5041 95.214 31.5401C95.214 32.4481 95.196 33.1731 95.159 33.7181C95.123 34.2621 95.087 34.9701 95.051 35.8411H91.077ZM82.475 35.8411C83.745 35.9501 84.762 36.0401 85.524 36.1131C86.286 36.1491 87.066 36.1681 87.865 36.1681C88.663 36.1311 89.734 36.0221 91.077 35.8411L91.349 39.5431C90.006 39.8691 88.881 40.0871 87.974 40.1961C87.066 40.3051 86.159 40.3051 85.251 40.1961C84.344 40.0511 83.201 39.8331 81.822 39.5431L82.475 35.8411ZM82.693 14.0651C82.511 17.2591 82.348 19.8361 82.203 21.7961C82.187 22.0861 82.172 22.3771 82.159 22.6691C82.553 22.7401 82.876 22.7941 83.128 22.8301C83.382 22.8661 83.745 22.8841 84.217 22.8841C85.052 22.9211 85.723 22.9391 86.231 22.9391H88.3C88.917 22.9391 89.371 22.9211 89.661 22.8841C89.951 22.8481 90.369 22.8121 90.913 22.7761V21.4151C90.95 21.0521 90.968 20.5801 90.968 19.9991V19.6721C90.968 18.4021 90.931 17.4221 90.859 16.7331C90.822 16.0431 90.75 15.1541 90.641 14.0651H87.756C86.631 13.9931 85.76 13.9751 85.143 14.0111C84.562 14.0111 83.745 14.0291 82.693 14.0651L82.257 10.3631C84.036 10.2551 85.397 10.1821 86.34 10.1461C87.284 10.1091 88.627 10.0911 90.369 10.0911C90.514 10.9261 90.659 11.5791 90.804 12.0511C90.95 12.5231 91.058 13.1941 91.131 14.0651H94.833C94.978 15.9161 95.087 17.3681 95.159 18.4201C95.232 19.4371 95.268 20.8881 95.268 22.7761C95.268 23.7191 95.25 24.4271 95.214 24.8991C95.178 25.3701 95.123 26.0241 95.051 26.8581H86.286C85.306 26.8581 84.58 26.8951 84.108 26.9671C83.637 27.0041 82.965 27.0761 82.094 27.1851C82.094 26.9361 82.09 26.7141 82.081 26.5171C82.082 26.9191 82.087 27.3231 82.094 27.7291C82.13 29.7261 82.257 32.4291 82.475 35.8411H78.12C77.902 32.3571 77.793 29.6171 77.793 27.6211C77.793 25.6241 77.866 23.6831 78.011 21.7961C78.156 19.8721 78.338 17.2951 78.556 14.0651H82.693ZM82.091 24.8801C82.092 24.8681 82.093 24.8561 82.094 24.8441V24.7211C82.093 24.7741 82.092 24.8271 82.091 24.8801ZM134.519 35.8411C134.555 34.9341 134.591 34.2081 134.628 33.6631C134.7 33.0831 134.755 32.3571 134.791 31.4861C135.408 31.4491 135.88 31.4311 136.206 31.4311C136.569 31.3951 136.914 31.3951 137.241 31.4311C137.604 31.4681 138.076 31.5041 138.656 31.5401C138.656 32.4481 138.638 33.1731 138.602 33.7181C138.565 34.2621 138.529 34.9701 138.493 35.8411H134.519ZM125.917 35.8411C127.188 35.9501 128.204 36.0401 128.966 36.1131C129.728 36.1491 130.508 36.1681 131.307 36.1681C132.105 36.1311 133.176 36.0221 134.519 35.8411L134.791 39.5431C133.448 39.8691 132.323 40.0871 131.416 40.1961C130.508 40.3051 129.601 40.3051 128.694 40.1961C127.787 40.0511 126.643 39.8331 125.264 39.5431L125.917 35.8411ZM126.135 14.0651C125.954 17.2591 125.79 19.8361 125.645 21.7961C125.628 22.0891 125.614 22.3821 125.6 22.6781C126.006 22.7441 126.33 22.7961 126.571 22.8301C126.825 22.8661 127.188 22.8841 127.66 22.8841C128.494 22.9211 129.166 22.9391 129.674 22.9391H131.742C132.359 22.9391 132.813 22.9211 133.103 22.8841C133.394 22.8481 133.811 22.8121 134.356 22.7761V21.4151C134.392 21.0521 134.41 20.5801 134.41 19.9991V19.6721C134.41 18.4021 134.374 17.4221 134.301 16.7331C134.265 16.0431 134.192 15.1541 134.083 14.0651H131.144C130.055 13.9931 129.202 13.9751 128.585 14.0111C128.004 14.0111 127.188 14.0291 126.135 14.0651L125.645 10.3631C127.46 10.2551 128.839 10.1821 129.783 10.1461C130.726 10.1091 132.069 10.0911 133.811 10.0911C133.956 10.9261 134.083 11.5791 134.192 12.0511C134.337 12.5231 134.464 13.1941 134.573 14.0651H138.275C138.42 15.9161 138.529 17.3681 138.602 18.4201C138.674 19.4371 138.711 20.8881 138.711 22.7761C138.711 23.7191 138.692 24.4271 138.656 24.8991C138.62 25.3701 138.565 26.0241 138.493 26.8581H129.728C128.748 26.8581 128.022 26.8951 127.551 26.9671C127.079 27.0041 126.407 27.0761 125.536 27.1851C125.533 27.1391 125.53 27.0931 125.527 27.0491C125.529 27.2751 125.532 27.5021 125.536 27.7291C125.573 29.7261 125.7 32.4291 125.917 35.8411H121.562C121.345 32.3571 121.218 29.6171 121.181 27.6211C121.181 25.6241 121.254 23.6831 121.399 21.7961C121.544 19.8721 121.726 17.2951 121.943 14.0651H126.135ZM103.706 35.9501C103.706 36.4221 103.743 36.7481 103.815 36.9301C103.888 37.0751 103.979 37.3111 104.087 37.6371V37.7461L104.142 37.8011C104.214 38.0551 104.269 38.2541 104.305 38.4001C104.341 38.5081 104.36 38.6901 104.36 38.9441C104.36 39.2341 104.341 39.4521 104.305 39.5971C104.269 39.7421 104.233 39.9421 104.196 40.1961H99.079C99.043 39.9781 99.006 39.7971 98.97 39.6521C98.934 39.4701 98.916 39.2341 98.916 38.9441C98.916 38.7621 98.934 38.6171 98.97 38.5081C99.006 38.4001 99.061 38.2541 99.134 38.0731C99.17 38.0371 99.188 38.0001 99.188 37.9641L99.297 37.7461C99.369 37.3831 99.406 37.1111 99.406 36.9301C99.442 36.7121 99.46 36.3851 99.46 35.9501L99.406 20.1081C99.406 18.8011 99.442 17.7851 99.515 17.0591C99.623 16.3341 99.75 15.3361 99.896 14.0651H103.597C103.67 13.2311 103.743 12.5771 103.815 12.1051C103.924 11.6341 104.033 10.9621 104.142 10.0911H108.17C109.114 10.0911 110.475 10.1091 112.253 10.1461C112.362 10.9441 112.453 11.5791 112.525 12.0511C112.598 12.4871 112.689 13.1581 112.798 14.0651H116.5C116.681 15.2991 116.808 16.2791 116.881 17.0051C116.953 17.6951 116.989 18.6931 116.989 19.9991V36.9301L117.153 37.7461C117.189 37.8551 117.207 37.9281 117.207 37.9641C117.244 38.0001 117.28 38.0551 117.316 38.1271C117.389 38.3091 117.443 38.4541 117.479 38.5631C117.552 38.6721 117.588 38.8171 117.588 38.9981C117.588 39.2891 117.57 39.5061 117.534 39.6521C117.498 39.7971 117.461 39.9781 117.425 40.1961H112.362C112.29 39.9781 112.235 39.7971 112.199 39.6521V38.9441C112.199 38.6901 112.217 38.5081 112.253 38.4001C112.29 38.2541 112.344 38.0551 112.417 37.8011L112.58 36.9841C112.652 36.7661 112.689 36.4221 112.689 35.9501V19.4551C112.689 18.2211 112.634 17.2951 112.525 16.6781C112.453 16.0251 112.326 15.1541 112.144 14.0651H110.293C109.604 14.0291 109.06 14.0111 108.66 14.0111C108.261 14.0111 107.68 14.0291 106.918 14.0651H104.196C104.087 15.0091 103.979 15.7711 103.87 16.3521C103.761 16.9321 103.706 17.7851 103.706 18.9101V35.9501ZM12.63 37.9641C12.63 37.3831 12.666 36.6571 12.739 35.7861C13.682 35.6781 14.426 35.6231 14.971 35.6231C15.515 35.6231 16.223 35.6591 17.094 35.7321C17.203 36.6761 17.257 37.4201 17.257 37.9641C17.257 38.5081 17.221 39.2341 17.148 40.1421C16.205 40.2141 15.461 40.2501 14.916 40.2501C14.372 40.2871 13.646 40.2501 12.739 40.1421C12.666 39.2341 12.63 38.5081 12.63 37.9641Z" fill="black"/>
</svg>
