<svg width="133" height="42" viewBox="0 0 133 42" fill="none" xmlns="http://www.w3.org/2000/svg">
<path fill-rule="evenodd" clip-rule="evenodd" d="M83.673 26.5859H83.346C81.35 26.5859 79.608 26.4556 78.12 26.2056C76.632 25.9156 75.198 25.5557 73.819 25.1157C73.674 25.0757 73.547 25.0459 73.438 25.0059C73.366 24.9759 73.257 24.936 73.112 24.896C72.676 24.756 72.331 24.5559 72.077 24.2959C71.86 24.0059 71.787 23.7556 71.86 23.5356C71.932 23.2456 72.077 23.046 72.295 22.936C72.549 22.796 72.894 22.796 73.329 22.936C73.583 23.016 73.765 23.0858 73.874 23.1558C73.983 23.1958 74.164 23.2459 74.418 23.3159C76.015 23.8659 77.34 24.2656 78.392 24.5156C79.481 24.7356 80.715 24.7557 82.094 24.5757C83.437 24.4257 84.326 24.0458 84.762 23.4258C85.233 22.7758 85.469 21.756 85.469 20.376C85.469 18.816 85.197 17.2957 84.653 15.8057C84.145 14.2857 83.165 13.5156 81.713 13.5156C80.697 13.5156 79.771 13.906 78.937 14.666C78.138 15.386 77.467 16.6556 76.922 18.4756C76.886 18.5856 76.868 18.6756 76.868 18.7456C76.868 18.8156 76.832 18.9056 76.759 19.0156C76.578 19.6756 76.324 20.2356 75.997 20.7056C75.707 21.1756 75.289 21.416 74.745 21.416C74.309 21.416 73.946 21.2656 73.656 20.9756C73.402 20.6856 73.239 20.3458 73.166 19.9458C73.13 19.5058 73.166 19.146 73.275 18.856C73.529 18.026 74.001 17.0957 74.69 16.0757C75.416 15.0657 76.378 14.176 77.576 13.416C78.773 12.616 80.189 12.2158 81.822 12.2158C83.092 12.2158 84.272 12.5257 85.36 13.1357C86.486 13.7557 87.393 14.6958 88.082 15.9658C88.772 17.2058 89.117 18.696 89.117 20.436C89.117 21.846 88.845 22.9957 88.3 23.8657C87.792 24.7357 87.157 25.3857 86.395 25.8257C85.633 26.2257 84.834 26.4556 83.999 26.5356C83.891 26.5656 83.782 26.5859 83.673 26.5859ZM85.742 39.4858C84.689 40.3558 83.455 40.7959 82.04 40.7959C79.572 40.7959 77.594 40.1056 76.106 38.7256C74.654 37.3056 73.656 35.856 73.112 34.376C72.567 32.846 72.186 31.4458 71.968 30.1758C71.86 29.7058 71.86 29.276 71.968 28.876C72.114 28.436 72.35 28.106 72.676 27.896C73.003 27.636 73.42 27.5156 73.928 27.5156C74.545 27.5156 75.017 27.6957 75.344 28.0557C75.67 28.3857 75.906 28.7957 76.051 29.3057V29.5259C76.088 29.5659 76.106 29.616 76.106 29.686C76.142 29.946 76.178 30.1456 76.215 30.2856C76.251 30.4356 76.287 30.6357 76.324 30.8857C76.541 32.3757 76.814 33.626 77.14 34.646C77.467 35.656 78.011 36.5457 78.773 37.3057C79.572 38.0757 80.661 38.4556 82.04 38.4556C83.092 38.4556 83.963 38.0757 84.653 37.3057C85.379 36.5157 85.905 35.6458 86.231 34.6958C86.594 33.7558 86.83 32.9158 86.939 32.1958C87.084 31.3258 87.338 30.7456 87.701 30.4556C88.101 30.1656 88.554 30.0658 89.062 30.1758C89.534 30.2858 89.879 30.596 90.097 31.106C90.351 31.576 90.296 32.2457 89.933 33.1157C89.425 34.3157 88.863 35.4559 88.246 36.5459C87.629 37.6059 86.794 38.5758 85.742 39.4858ZM14.209 24.7358C15.443 23.2858 17.421 21.8859 20.142 20.5459C22.502 19.3859 24.135 18.3257 25.042 17.3857C25.949 16.4457 26.403 15.3856 26.403 14.2256C26.403 13.5356 26.131 12.9558 25.586 12.4858C25.042 12.0158 24.407 11.7759 23.681 11.7759C22.774 11.7759 21.758 12.0158 20.632 12.4858C19.544 12.9258 18.146 13.5956 16.441 14.4956C14.372 15.5856 12.594 16.4259 11.106 17.0059C9.618 17.5859 8.148 17.876 6.696 17.876C5.607 17.876 4.537 17.5859 3.484 17.0059C2.468 16.4259 1.633 15.6057 0.98 14.5557C0.327 13.5057 0 12.2858 0 10.9058C0 9.38576 0.327 8.1157 0.98 7.0957C1.669 6.0757 2.486 5.2457 3.43 4.5957C4.156 4.1257 4.809 3.70594 5.389 3.33594C5.97 2.94594 6.496 2.5558 6.968 2.1958C7.73 1.6558 8.293 1.27566 8.656 1.05566C9.055 0.835664 9.418 0.725586 9.745 0.725586C10.362 0.725586 10.87 0.925684 11.269 1.32568C11.704 1.68568 11.922 2.1957 11.922 2.8457C11.922 3.3557 11.614 3.81582 10.997 4.21582C10.416 4.57582 9.491 5.02568 8.22 5.57568C7.748 5.78568 7.259 6.02588 6.75 6.27588C6.242 6.49588 5.734 6.7559 5.226 7.0459C4.319 7.5159 3.539 8.136 2.885 8.896C2.232 9.656 1.905 10.5056 1.905 11.4556C1.905 12.1456 2.141 12.886 2.613 13.686C3.085 14.446 3.847 14.8257 4.9 14.8257C5.698 14.8257 6.569 14.6256 7.513 14.2256C8.492 13.8256 9.781 13.1957 11.378 12.3257C13.446 11.1957 15.261 10.3256 16.822 9.70557C18.419 9.09557 20.015 8.78564 21.612 8.78564C23.1 8.78564 24.352 9.18584 25.369 9.98584C26.385 10.7758 27.147 11.7457 27.655 12.8657C28.163 13.9957 28.417 15.006 28.417 15.916C28.417 17.226 28.145 18.316 27.601 19.186C27.056 20.056 26.33 20.796 25.423 21.416C24.552 21.996 23.227 22.736 21.449 23.646C20.687 24.046 19.907 24.466 19.108 24.896C18.31 25.336 17.493 25.8059 16.658 26.3159C15.57 27.0059 14.807 27.5857 14.372 28.0557C13.936 28.4957 13.719 29.086 13.719 29.856V31.436C13.719 31.646 13.646 31.8158 13.501 31.9258C13.392 32.0258 13.247 32.0859 13.065 32.0859C12.884 32.0859 12.721 32.0258 12.575 31.9258C12.467 31.7758 12.412 31.616 12.412 31.436V29.2559C12.412 27.6959 13.011 26.1858 14.209 24.7358ZM131.797 26.3159C131.978 26.4259 132.087 26.606 132.124 26.856C132.16 27.146 132.087 27.3859 131.906 27.5659C131.761 27.7459 131.561 27.926 131.307 28.106C129.964 28.946 128.73 29.5959 127.605 30.0659C126.48 30.5059 125.119 30.7256 123.522 30.7256C121.78 30.7256 120.183 30.3557 118.732 29.6357C117.28 28.8757 116.118 27.8156 115.247 26.4756C114.376 25.1356 113.941 23.5957 113.941 21.8457C113.941 20.4657 114.159 19.1956 114.594 18.0356C115.066 16.8756 115.719 15.8658 116.554 14.9858C117.425 14.1158 118.459 13.4456 119.657 12.9756C120.347 12.6856 121.091 12.4657 121.889 12.3257C122.687 12.1757 123.504 12.106 124.339 12.106C126.19 12.106 127.714 12.4159 128.912 13.0259C130.109 13.6459 131.035 14.3956 131.688 15.2656C131.869 15.5156 132.015 15.7759 132.124 16.0259C132.232 16.2759 132.305 16.4958 132.341 16.6758C132.341 16.8558 132.287 17.026 132.178 17.166C132.105 17.316 131.978 17.406 131.797 17.436C131.652 17.476 131.488 17.4359 131.307 17.3359C131.162 17.2259 131.035 17.1357 130.926 17.0557C130.853 16.9857 130.744 16.8956 130.599 16.7856C130.055 16.2756 129.492 15.8258 128.912 15.4258C128.331 15.0258 127.641 14.6659 126.843 14.3359C126.081 14.0059 125.246 13.8457 124.339 13.8457C123.758 13.8457 123.141 13.9558 122.488 14.1758C121.835 14.3558 121.199 14.6258 120.582 14.9858C119.965 15.3858 119.403 15.8756 118.895 16.4556C118.423 17.0456 118.042 17.7259 117.752 18.5259C117.461 19.2959 117.316 20.1459 117.316 21.0859C117.316 22.9359 117.861 24.4858 118.949 25.7158C120.074 26.9158 121.363 27.636 122.814 27.896C122.96 27.926 123.105 27.9659 123.25 28.0059H123.794C124.919 28.0059 125.936 27.8757 126.843 27.6157C127.787 27.3657 128.875 27.0259 130.109 26.5859C130.327 26.4759 130.527 26.3859 130.708 26.3159C130.89 26.2459 131.035 26.2056 131.144 26.2056C131.398 26.1356 131.615 26.1659 131.797 26.3159ZM57.106 14.1157C58.486 12.4457 60.046 11.6157 61.788 11.6157C62.841 11.6157 63.857 11.956 64.837 12.646C65.853 13.306 66.742 14.2456 67.504 15.4756C68.303 16.6756 68.902 18.0557 69.301 19.6157C69.337 19.6557 69.355 19.7056 69.355 19.7856V19.9458C69.392 20.2358 69.355 20.5056 69.246 20.7656C69.138 20.9756 68.956 21.106 68.702 21.146C68.666 21.146 68.629 21.1558 68.593 21.1958H68.539C68.321 21.1958 68.121 21.1256 67.94 20.9756C67.758 20.7956 67.631 20.5757 67.559 20.3257L67.123 19.0156C66.543 17.4956 65.817 16.1857 64.946 15.0957C64.111 13.9757 63.077 13.416 61.843 13.416C60.754 13.416 59.829 14.0256 59.066 15.2656C58.304 16.4956 57.724 18.126 57.324 20.166C56.925 22.156 56.725 24.2856 56.725 26.5356C56.725 29.1056 56.98 31.2456 57.488 32.9556C58.032 34.6656 58.703 35.9158 59.502 36.7158C60.337 37.5058 61.171 37.9058 62.006 37.9058C63.639 37.9058 64.873 37.4057 65.708 36.3857C66.543 35.3357 67.178 34.2059 67.613 33.0059L67.722 32.7358C67.795 32.6258 67.885 32.516 67.994 32.416C68.103 32.266 68.23 32.1958 68.375 32.1958C68.666 32.1958 68.847 32.3056 68.92 32.5156C69.029 32.7356 69.047 32.9558 68.974 33.1758C68.43 35.7458 67.504 37.6758 66.198 38.9458C64.891 40.1758 63.294 40.7959 61.407 40.7959C59.593 40.7959 58.032 40.1557 56.725 38.8857C55.419 37.6157 54.421 35.966 53.731 33.936C53.078 31.906 52.751 29.7456 52.751 27.4556C52.751 25.1656 53.133 22.7957 53.895 20.3257C54.657 17.8557 55.727 15.7857 57.106 14.1157ZM127.986 39.2158C126.897 40.2358 125.573 40.7358 124.012 40.7358C122.343 40.7358 120.909 40.4359 119.711 39.8159C118.55 39.1959 117.625 38.396 116.935 37.416C116.282 36.436 115.81 35.3458 115.52 34.1558C115.411 33.7158 115.393 33.3359 115.465 33.0059C115.574 32.6459 115.737 32.3758 115.955 32.1958C116.173 31.9758 116.391 31.8259 116.608 31.7559C116.862 31.6859 117.135 31.6859 117.425 31.7559C117.715 31.8259 117.988 31.9956 118.242 32.2456C118.496 32.5056 118.677 32.886 118.786 33.396C119.04 34.406 119.33 35.246 119.657 35.896C120.02 36.546 120.546 37.0756 121.236 37.4756C121.925 37.8756 122.851 38.0757 124.012 38.0757C124.629 38.0757 125.282 37.9257 125.972 37.6357C126.661 37.3457 127.315 36.946 127.932 36.436C128.549 35.896 129.075 35.2759 129.51 34.5859C129.656 34.2659 129.837 34.0057 130.055 33.8257C130.273 33.6457 130.527 33.6259 130.817 33.7759C131.107 33.9159 131.216 34.1556 131.144 34.4756C131.107 34.7656 131.035 35.0459 130.926 35.2959C130.091 36.8959 129.111 38.1958 127.986 39.2158ZM110.947 30.396C110.983 32.176 111.001 34.8959 111.001 38.5659C111.001 39.3659 110.856 40.0159 110.566 40.5259C110.275 41.0259 109.822 41.2856 109.205 41.2856C108.624 41.2856 108.134 41.0657 107.735 40.6357C107.372 40.2357 107.172 39.5056 107.136 38.4556C107.1 36.7456 107.063 33.646 107.027 29.146V18.4756C107.027 17.3156 106.573 16.2456 105.666 15.2656C104.795 14.2856 103.398 13.7959 101.474 13.7959C99.986 13.7959 98.789 14.3059 97.881 15.3159C97.01 16.2959 96.575 17.476 96.575 18.856C96.575 21.176 96.557 22.9159 96.52 24.0859V29.416C96.484 30.616 96.466 31.7359 96.466 32.7959V35.626C96.466 36.316 96.266 36.8957 95.867 37.3657C95.468 37.7957 94.942 38.0156 94.288 38.0156C93.817 38.0156 93.436 37.816 93.145 37.416C92.855 36.986 92.71 36.4258 92.71 35.7358C92.71 32.9358 92.692 30.8456 92.655 29.4756V20.5459C92.655 19.3859 92.982 18.1457 93.635 16.8457C94.288 15.5357 95.268 14.4256 96.575 13.5156C97.918 12.6156 99.551 12.1558 101.474 12.1558C103.507 12.1558 105.231 12.5958 106.646 13.4658C108.098 14.3058 109.168 15.3359 109.858 16.5659C110.584 17.7659 110.947 18.9056 110.947 19.9956V30.396ZM48.396 23.9756C49.703 26.0056 50.356 28.1859 50.356 30.5059C50.356 32.5359 49.884 34.3159 48.941 35.8359C47.997 37.3659 46.691 38.566 45.021 39.436C43.388 40.266 41.501 40.686 39.359 40.686C38.597 40.686 37.744 40.6158 36.801 40.4658C35.894 40.3258 35.022 40.1458 34.188 39.9258C33.389 39.7058 32.772 39.4658 32.337 39.2158C32.083 39.0658 31.883 38.9259 31.738 38.7759C31.593 38.5959 31.52 38.3058 31.52 37.9058L31.248 29.3657C31.212 28.6357 31.466 28.2759 32.01 28.2759C32.409 28.2759 32.682 28.5959 32.827 29.2559L33.589 32.416C34.387 35.676 36.71 37.906 40.557 39.106C42.807 39.066 44.404 38.1956 45.348 36.4956C46.328 34.7856 46.818 32.8257 46.818 30.6157C46.818 28.4757 46.237 26.6259 45.076 25.0659C43.95 23.5059 42.118 21.8156 39.577 19.9956C36.783 18.0756 34.732 16.1157 33.426 14.1157C32.155 12.1257 31.52 10.1057 31.52 8.07568C31.52 5.97568 32.446 4.17604 34.297 2.68604C36.184 1.19604 38.452 0.455566 41.102 0.455566C42.263 0.455566 43.479 0.585938 44.749 0.835938C46.055 1.08594 47.054 1.45578 47.743 1.92578C47.961 2.06578 48.124 2.23602 48.233 2.41602C48.378 2.59602 48.451 2.83598 48.451 3.12598L48.723 11.396C48.759 12.016 48.56 12.3257 48.124 12.3257C47.652 12.2857 47.362 11.976 47.253 11.396L46.818 8.78564C46.564 7.22564 45.965 5.66596 45.021 4.10596C44.078 2.54596 42.698 1.76562 40.884 1.76562C39.214 1.76562 37.799 2.3258 36.638 3.4458C35.476 4.5758 34.895 6.06602 34.895 7.91602C34.895 9.47602 35.44 10.966 36.529 12.376C37.617 13.796 39.505 15.5159 42.19 17.5459C45.021 19.7659 47.09 21.9056 48.396 23.9756ZM61.298 23.8057C61.661 23.4057 62.133 23.2158 62.714 23.2158C63.222 23.2158 63.657 23.4057 64.02 23.8057C64.42 24.1757 64.619 24.626 64.619 25.166C64.619 25.676 64.42 26.1356 64.02 26.5356C63.657 26.8956 63.222 27.0757 62.714 27.0757C62.169 27.0757 61.698 26.8956 61.298 26.5356C60.935 26.1356 60.754 25.676 60.754 25.166C60.754 24.626 60.935 24.1757 61.298 23.8057ZM11.704 36.2759C12.104 35.8759 12.557 35.6758 13.065 35.6758C13.573 35.6758 14.009 35.8759 14.372 36.2759C14.771 36.6359 14.971 37.0957 14.971 37.6357C14.971 38.1457 14.771 38.5956 14.372 38.9956C14.009 39.3656 13.573 39.5459 13.065 39.5459C12.557 39.5459 12.104 39.3656 11.704 38.9956C11.305 38.5956 11.106 38.1457 11.106 37.6357C11.106 37.0957 11.305 36.6359 11.704 36.2759Z" fill="black"/>
</svg>
