<svg width="133" height="42" viewBox="0 0 133 42" fill="none" xmlns="http://www.w3.org/2000/svg">
<path fill-rule="evenodd" clip-rule="evenodd" d="M83.455 26.6958H83.128C81.132 26.6958 79.372 26.5459 77.848 26.2559C76.36 25.9359 74.944 25.5359 73.602 25.0659C73.456 25.0259 73.329 24.9856 73.221 24.9556C73.148 24.9156 73.039 24.8757 72.894 24.8457C72.458 24.6657 72.132 24.446 71.914 24.186C71.696 23.896 71.624 23.6458 71.696 23.4258C71.769 23.1358 71.914 22.9357 72.132 22.8257C72.386 22.7257 72.731 22.7357 73.166 22.8857C73.42 22.9557 73.602 23.026 73.71 23.106C73.819 23.176 74.001 23.2459 74.255 23.3159C75.815 23.8959 77.14 24.3157 78.229 24.5757C79.318 24.8257 80.552 24.8658 81.931 24.6758C83.274 24.5758 84.181 24.1856 84.653 23.5356C85.125 22.8456 85.36 21.796 85.36 20.376C85.36 18.816 85.088 17.2957 84.544 15.8057C84.036 14.2857 83.056 13.5156 81.604 13.5156C80.588 13.5156 79.662 13.906 78.828 14.666C77.993 15.386 77.303 16.6556 76.759 18.4756C76.723 18.5856 76.705 18.6756 76.705 18.7456C76.705 18.8156 76.668 18.9056 76.596 19.0156C76.451 19.6756 76.215 20.2356 75.888 20.7056C75.598 21.1756 75.18 21.416 74.636 21.416C74.164 21.416 73.801 21.2656 73.547 20.9756C73.293 20.6856 73.13 20.3458 73.057 19.9458C73.021 19.5458 73.039 19.186 73.112 18.856C73.366 18.056 73.838 17.1457 74.527 16.1357C75.253 15.0857 76.215 14.176 77.412 13.416C78.646 12.616 80.08 12.2158 81.713 12.2158C82.983 12.2158 84.163 12.5257 85.251 13.1357C86.377 13.7557 87.284 14.6958 87.974 15.9658C88.663 17.2058 89.008 18.696 89.008 20.436C89.008 21.846 88.736 23.016 88.191 23.916C87.683 24.786 87.03 25.446 86.231 25.876C85.469 26.316 84.671 26.5657 83.836 26.6357C83.727 26.6757 83.6 26.6958 83.455 26.6958ZM85.687 39.4858C84.635 40.3558 83.401 40.7959 81.985 40.7959C79.481 40.7959 77.485 40.1056 75.997 38.7256C74.545 37.3056 73.529 35.856 72.948 34.376C72.404 32.846 72.023 31.4458 71.805 30.1758C71.733 29.7058 71.751 29.276 71.86 28.876C72.005 28.476 72.241 28.1658 72.567 27.9458C72.894 27.6958 73.311 27.5659 73.819 27.5659C74.436 27.5659 74.908 27.746 75.235 28.106C75.561 28.436 75.797 28.8557 75.942 29.3657V29.7456C76.015 29.9956 76.07 30.1957 76.106 30.3457C76.142 30.4857 76.178 30.6858 76.215 30.9458C76.432 32.3958 76.705 33.626 77.031 34.646C77.358 35.656 77.92 36.5457 78.719 37.3057C79.517 38.0757 80.606 38.4556 81.985 38.4556C83.038 38.4556 83.909 38.0757 84.598 37.3057C85.324 36.5457 85.85 35.7157 86.177 34.8057C86.54 33.8657 86.776 33.0257 86.885 32.3057C87.03 31.4357 87.284 30.8657 87.647 30.6157C88.046 30.3257 88.5 30.2357 89.008 30.3457C89.48 30.4557 89.824 30.7556 90.042 31.2656C90.296 31.7356 90.242 32.3956 89.879 33.2256C89.371 34.4256 88.808 35.546 88.191 36.606C87.574 37.656 86.74 38.6158 85.687 39.4858ZM14.209 24.7358C15.443 23.2858 17.421 21.8859 20.142 20.5459C22.502 19.3859 24.135 18.3257 25.042 17.3857C25.949 16.4457 26.403 15.3856 26.403 14.2256C26.403 13.5356 26.131 12.9558 25.586 12.4858C25.042 12.0158 24.407 11.7759 23.681 11.7759C22.774 11.7759 21.758 12.0158 20.632 12.4858C19.544 12.9258 18.146 13.5956 16.441 14.4956C14.372 15.5856 12.594 16.4259 11.106 17.0059C9.618 17.5859 8.148 17.876 6.696 17.876C5.607 17.876 4.537 17.5859 3.484 17.0059C2.468 16.4259 1.633 15.6057 0.98 14.5557C0.327 13.5057 0 12.2858 0 10.9058C0 9.38576 0.327 8.1157 0.98 7.0957C1.669 6.0757 2.486 5.2457 3.43 4.5957C4.156 4.1257 4.809 3.70594 5.389 3.33594C5.97 2.94594 6.496 2.5558 6.968 2.1958C7.73 1.6558 8.293 1.27566 8.656 1.05566C9.055 0.835664 9.418 0.725586 9.745 0.725586C10.362 0.725586 10.87 0.925684 11.269 1.32568C11.704 1.68568 11.922 2.1957 11.922 2.8457C11.922 3.3557 11.614 3.81582 10.997 4.21582C10.416 4.57582 9.491 5.02568 8.22 5.57568C7.748 5.78568 7.259 6.02588 6.75 6.27588C6.242 6.49588 5.734 6.7559 5.226 7.0459C4.319 7.5159 3.539 8.136 2.885 8.896C2.232 9.656 1.905 10.5056 1.905 11.4556C1.905 12.1456 2.141 12.886 2.613 13.686C3.085 14.446 3.847 14.8257 4.9 14.8257C5.698 14.8257 6.569 14.6256 7.513 14.2256C8.492 13.8256 9.781 13.1957 11.378 12.3257C13.446 11.1957 15.261 10.3256 16.822 9.70557C18.419 9.09557 20.015 8.78564 21.612 8.78564C23.1 8.78564 24.352 9.18584 25.369 9.98584C26.385 10.7758 27.147 11.7457 27.655 12.8657C28.163 13.9957 28.417 15.006 28.417 15.916C28.417 17.226 28.145 18.316 27.601 19.186C27.056 20.056 26.33 20.796 25.423 21.416C24.552 21.996 23.227 22.736 21.449 23.646C20.687 24.046 19.907 24.466 19.108 24.896C18.31 25.336 17.493 25.8059 16.658 26.3159C15.57 27.0059 14.807 27.5857 14.372 28.0557C13.936 28.4957 13.719 29.086 13.719 29.856V31.436C13.719 31.646 13.646 31.8158 13.501 31.9258C13.392 32.0258 13.247 32.0859 13.065 32.0859C12.884 32.0859 12.721 32.0258 12.575 31.9258C12.467 31.7758 12.412 31.616 12.412 31.436V29.2559C12.412 27.6959 13.011 26.1858 14.209 24.7358ZM131.579 26.4258C131.761 26.5358 131.869 26.7158 131.906 26.9658C131.942 27.2558 131.869 27.4958 131.688 27.6758C131.543 27.8558 131.343 28.0358 131.089 28.2158C129.746 29.0158 128.512 29.656 127.387 30.126C126.262 30.556 124.919 30.7759 123.359 30.7759C121.617 30.7759 120.02 30.416 118.568 29.686C117.153 28.926 116.01 27.8959 115.139 26.5859C114.268 25.2459 113.832 23.6956 113.832 21.9556C113.832 20.5756 114.05 19.306 114.485 18.146C114.957 16.946 115.61 15.9159 116.445 15.0459C117.316 14.1759 118.35 13.4856 119.548 12.9756C120.238 12.6856 120.982 12.4657 121.78 12.3257C122.579 12.1757 123.395 12.106 124.23 12.106C126.081 12.066 127.605 12.3257 128.803 12.8657C130 13.4157 130.908 14.0857 131.525 14.8857C131.706 15.1357 131.851 15.386 131.96 15.646C132.069 15.866 132.16 16.046 132.232 16.186C132.232 16.366 132.178 16.5358 132.069 16.6758C131.996 16.8258 131.888 16.9158 131.742 16.9458C131.597 16.9858 131.434 16.9457 131.252 16.8457C131.107 16.7657 130.98 16.696 130.871 16.626C130.799 16.556 130.69 16.4758 130.545 16.4058C130.037 15.9358 129.492 15.5158 128.912 15.1558C128.331 14.7958 127.641 14.4856 126.843 14.2256C126.044 13.9356 125.192 13.7959 124.284 13.7959C123.667 13.8259 123.032 13.9558 122.379 14.1758C121.726 14.3958 121.091 14.6859 120.474 15.0459C119.857 15.4459 119.294 15.9356 118.786 16.5156C118.314 17.0956 117.933 17.7859 117.643 18.5859C117.389 19.3859 117.262 20.2759 117.262 21.2559C117.262 23.0659 117.806 24.5756 118.895 25.7656C119.984 26.9656 121.254 27.6958 122.706 27.9458C122.851 27.9858 122.996 28.0157 123.141 28.0557H123.685C124.774 28.0557 125.772 27.9456 126.68 27.7256C127.587 27.4756 128.658 27.1258 129.892 26.6958C130.109 26.5858 130.309 26.4958 130.49 26.4258C130.672 26.3458 130.817 26.3159 130.926 26.3159C131.18 26.2459 131.398 26.2758 131.579 26.4258ZM56.943 14.1157C58.322 12.4457 59.883 11.6157 61.625 11.6157C62.678 11.6157 63.694 11.956 64.674 12.646C65.69 13.306 66.597 14.2456 67.396 15.4756C68.194 16.6756 68.811 18.0557 69.246 19.6157C69.283 19.6557 69.301 19.7056 69.301 19.7856V19.9458C69.337 20.2358 69.301 20.5056 69.192 20.7656C69.083 20.9756 68.92 21.106 68.702 21.146C68.629 21.146 68.575 21.1558 68.539 21.1958H68.484C68.266 21.1958 68.067 21.1256 67.885 20.9756C67.704 20.7956 67.577 20.5757 67.504 20.3257L67.069 19.0156C66.452 17.4956 65.708 16.1857 64.837 15.0957C63.966 13.9757 62.913 13.416 61.679 13.416C60.591 13.416 59.665 14.0256 58.903 15.2656C58.141 16.4956 57.56 18.126 57.161 20.166C56.798 22.156 56.617 24.2856 56.617 26.5356C56.617 29.1056 56.871 31.2456 57.379 32.9556C57.923 34.6656 58.594 35.9158 59.393 36.7158C60.228 37.5058 61.062 37.9058 61.897 37.9058C63.53 37.9058 64.764 37.4057 65.599 36.3857C66.434 35.3357 67.069 34.2059 67.504 33.0059L67.613 32.7358C67.686 32.6258 67.777 32.516 67.885 32.416C67.994 32.266 68.121 32.1958 68.266 32.1958C68.557 32.1958 68.738 32.3056 68.811 32.5156C68.92 32.7356 68.938 32.9558 68.865 33.1758C68.321 35.7458 67.396 37.6758 66.089 38.9458C64.782 40.1758 63.186 40.7959 61.298 40.7959C59.484 40.7959 57.923 40.1557 56.617 38.8857C55.31 37.6157 54.312 35.966 53.622 33.936C52.969 31.906 52.643 29.7456 52.643 27.4556C52.643 25.1656 53.006 22.7957 53.731 20.3257C54.493 17.8557 55.564 15.7857 56.943 14.1157ZM127.768 39.2656C126.68 40.2456 125.373 40.7358 123.849 40.7358C122.143 40.7358 120.709 40.4359 119.548 39.8159C118.387 39.1959 117.461 38.4156 116.772 37.4756C116.082 36.4956 115.592 35.4056 115.302 34.2056C115.193 33.7756 115.175 33.3959 115.247 33.0659C115.32 32.7059 115.465 32.4256 115.683 32.2456C115.901 32.0256 116.118 31.8659 116.336 31.7559C116.59 31.6859 116.862 31.6859 117.153 31.7559C117.443 31.8259 117.715 31.9956 117.969 32.2456C118.223 32.5056 118.423 32.886 118.568 33.396C118.822 34.406 119.131 35.246 119.494 35.896C119.857 36.546 120.383 37.0756 121.072 37.4756C121.762 37.8756 122.687 38.0757 123.849 38.0757C124.466 38.0757 125.119 37.9458 125.809 37.6958C126.498 37.4058 127.151 37.0056 127.768 36.4956C128.385 35.9856 128.912 35.3858 129.347 34.6958C129.529 34.4058 129.728 34.1758 129.946 33.9858C130.164 33.8058 130.418 33.786 130.708 33.936C130.962 34.076 131.053 34.316 130.98 34.646C130.944 34.936 130.871 35.2056 130.763 35.4556C129.892 37.0156 128.893 38.2856 127.768 39.2656ZM110.838 30.5059C110.874 32.2859 110.892 35.0058 110.892 38.6758C110.892 39.4658 110.747 40.1257 110.457 40.6357C110.166 41.1357 109.713 41.396 109.096 41.396C108.515 41.396 108.025 41.1959 107.626 40.7959C107.263 40.3959 107.063 39.6657 107.027 38.6157C106.991 36.9157 106.955 33.7859 106.918 29.2559V18.4756C106.918 17.3156 106.465 16.2456 105.557 15.2656C104.686 14.2856 103.289 13.7959 101.365 13.7959C99.878 13.7959 98.68 14.3059 97.772 15.3159C96.902 16.2959 96.466 17.476 96.466 18.856C96.466 21.146 96.448 22.8456 96.412 23.9756V29.1958C96.375 30.3558 96.357 31.4458 96.357 32.4658V35.2959C96.357 35.9859 96.158 36.5458 95.758 36.9858C95.359 37.4158 94.833 37.6357 94.18 37.6357C93.708 37.6357 93.327 37.4356 93.036 37.0356C92.746 36.6356 92.601 36.0958 92.601 35.4058C92.601 32.6858 92.583 30.6557 92.546 29.3057V20.5459C92.546 19.3859 92.873 18.1457 93.526 16.8457C94.18 15.5357 95.159 14.4256 96.466 13.5156C97.809 12.6156 99.442 12.1558 101.365 12.1558C103.398 12.1558 105.122 12.5958 106.537 13.4658C107.989 14.3058 109.06 15.3359 109.749 16.5659C110.475 17.7659 110.838 18.9056 110.838 19.9956V30.5059ZM48.287 23.9756C49.594 26.0056 50.247 28.1859 50.247 30.5059C50.247 32.5359 49.775 34.3159 48.832 35.8359C47.888 37.3659 46.582 38.566 44.912 39.436C43.279 40.266 41.392 40.686 39.251 40.686C38.488 40.686 37.636 40.6158 36.692 40.4658C35.785 40.3258 34.914 40.1458 34.079 39.9258C33.28 39.7058 32.663 39.4658 32.228 39.2158C31.974 39.0658 31.774 38.9259 31.629 38.7759C31.484 38.5959 31.411 38.3058 31.411 37.9058L31.139 29.3657C31.103 28.6357 31.357 28.2759 31.901 28.2759C32.301 28.2759 32.573 28.5959 32.718 29.2559L33.48 32.4658C34.278 35.7358 36.601 37.946 40.448 39.106C42.698 39.066 44.295 38.1956 45.239 36.4956C46.219 34.7856 46.709 32.8257 46.709 30.6157C46.709 28.4757 46.146 26.6259 45.021 25.0659C43.896 23.4659 42.063 21.7558 39.523 19.9458C36.728 18.0258 34.678 16.0757 33.371 14.1157C32.065 12.1257 31.411 10.1057 31.411 8.07568C31.411 5.97568 32.337 4.17604 34.188 2.68604C36.075 1.19604 38.343 0.455566 40.993 0.455566C42.154 0.455566 43.37 0.585938 44.64 0.835938C45.947 1.08594 46.945 1.45578 47.634 1.92578C47.852 2.06578 48.015 2.23602 48.124 2.41602C48.269 2.59602 48.342 2.83598 48.342 3.12598L48.614 11.2358C48.65 11.8558 48.451 12.1558 48.015 12.1558C47.543 12.1258 47.271 11.8158 47.199 11.2358L46.763 8.67578C46.509 7.11578 45.892 5.5759 44.912 4.0459C43.969 2.5259 42.59 1.76562 40.775 1.76562C39.105 1.76562 37.69 2.3258 36.529 3.4458C35.367 4.5758 34.786 6.06602 34.786 7.91602C34.786 9.47602 35.331 10.966 36.42 12.376C37.509 13.796 39.396 15.5159 42.081 17.5459C44.912 19.7659 46.981 21.9056 48.287 23.9756ZM61.19 23.8057C61.552 23.4057 62.024 23.2158 62.605 23.2158C63.113 23.2158 63.548 23.4057 63.911 23.8057C64.311 24.1757 64.51 24.626 64.51 25.166C64.51 25.676 64.311 26.1356 63.911 26.5356C63.548 26.8956 63.113 27.0757 62.605 27.0757C62.06 27.0757 61.589 26.8956 61.19 26.5356C60.827 26.1356 60.645 25.676 60.645 25.166C60.645 24.626 60.827 24.1757 61.19 23.8057ZM11.704 36.3257C12.104 35.9357 12.557 35.7358 13.065 35.7358C13.573 35.7358 14.009 35.9357 14.372 36.3257C14.771 36.6957 14.971 37.1458 14.971 37.6958C14.971 38.1958 14.771 38.6557 14.372 39.0557C14.009 39.4157 13.573 39.5957 13.065 39.5957C12.557 39.5957 12.104 39.4157 11.704 39.0557C11.305 38.6557 11.106 38.1958 11.106 37.6958C11.106 37.1458 11.305 36.6957 11.704 36.3257Z" fill="black"/>
</svg>
