<svg width="133" height="42" viewBox="0 0 133 42" fill="none" xmlns="http://www.w3.org/2000/svg">
<path fill-rule="evenodd" clip-rule="evenodd" d="M83.237 26.856H82.911C80.915 26.856 79.154 26.6759 77.63 26.3159C76.142 25.9559 74.727 25.5159 73.384 25.0059C73.239 24.9359 73.112 24.8757 73.003 24.8457C72.93 24.8057 72.821 24.7758 72.676 24.7358C72.241 24.5858 71.914 24.3759 71.696 24.0859C71.478 23.7959 71.406 23.5359 71.478 23.3159C71.587 23.0259 71.751 22.8256 71.968 22.7256C72.222 22.6156 72.567 22.6457 73.003 22.8257C73.257 22.9357 73.438 23.026 73.547 23.106C73.656 23.176 73.856 23.266 74.146 23.376C75.67 23.956 76.977 24.3858 78.066 24.6758C79.154 24.9358 80.388 24.9857 81.767 24.8457C83.147 24.6957 84.054 24.2857 84.489 23.5957C84.961 22.9057 85.197 21.836 85.197 20.376C85.197 18.816 84.925 17.2957 84.381 15.8057C83.872 14.2857 82.893 13.5156 81.441 13.5156C80.425 13.5156 79.499 13.906 78.664 14.666C77.866 15.426 77.195 16.7159 76.65 18.5259C76.578 18.6359 76.541 18.7257 76.541 18.8057C76.541 18.8757 76.523 18.9657 76.487 19.0757C76.305 19.7257 76.051 20.2856 75.725 20.7656C75.434 21.1956 75.035 21.416 74.527 21.416C74.055 21.416 73.674 21.2856 73.384 21.0356C73.13 20.7456 72.966 20.3956 72.894 19.9956C72.858 19.5656 72.894 19.1958 73.003 18.9058C73.257 18.0758 73.729 17.1457 74.418 16.1357C75.144 15.0857 76.106 14.176 77.303 13.416C78.501 12.616 79.917 12.2158 81.55 12.2158C82.82 12.2158 83.999 12.5257 85.088 13.1357C86.213 13.7557 87.121 14.6958 87.81 15.9658C88.5 17.2058 88.845 18.696 88.845 20.436C88.845 21.846 88.572 23.016 88.028 23.916C87.52 24.826 86.867 25.5158 86.068 25.9858C85.306 26.4258 84.489 26.6957 83.618 26.8057C83.51 26.8357 83.382 26.856 83.237 26.856ZM85.578 39.5459C84.526 40.3759 83.31 40.7959 81.931 40.7959C79.427 40.7959 77.43 40.1056 75.942 38.7256C74.454 37.3056 73.42 35.8359 72.839 34.3159C72.259 32.7959 71.878 31.4358 71.696 30.2358C71.587 29.7658 71.587 29.3258 71.696 28.9258C71.841 28.4958 72.077 28.1658 72.404 27.9458C72.731 27.6958 73.148 27.5659 73.656 27.5659C74.273 27.5659 74.745 27.746 75.071 28.106C75.398 28.436 75.634 28.8557 75.779 29.3657V29.5757C75.815 29.6157 75.834 29.6756 75.834 29.7456C75.906 29.9956 75.942 30.1957 75.942 30.3457C75.979 30.4857 76.033 30.6858 76.106 30.9458C76.324 32.3958 76.596 33.626 76.922 34.646C77.285 35.656 77.848 36.5457 78.61 37.3057C79.408 38.0757 80.497 38.4556 81.876 38.4556C82.929 38.4556 83.818 38.0957 84.544 37.3657C85.27 36.6057 85.796 35.766 86.123 34.856C86.486 33.956 86.74 33.116 86.885 32.356C87.03 31.526 87.284 30.9756 87.647 30.7256C88.046 30.4356 88.482 30.3456 88.953 30.4556C89.425 30.5956 89.77 30.926 89.988 31.436C90.242 31.906 90.187 32.556 89.824 33.396C89.28 34.586 88.699 35.6958 88.082 36.7158C87.465 37.7258 86.631 38.6759 85.578 39.5459ZM14.209 24.7358C15.443 23.2858 17.421 21.8859 20.142 20.5459C22.502 19.3859 24.135 18.3257 25.042 17.3857C25.949 16.4457 26.403 15.3856 26.403 14.2256C26.403 13.5356 26.131 12.9558 25.586 12.4858C25.042 12.0158 24.407 11.7759 23.681 11.7759C22.774 11.7759 21.758 12.0158 20.632 12.4858C19.544 12.9258 18.146 13.5956 16.441 14.4956C14.372 15.5856 12.594 16.4259 11.106 17.0059C9.618 17.5859 8.148 17.876 6.696 17.876C5.607 17.876 4.537 17.5859 3.484 17.0059C2.468 16.4259 1.633 15.6057 0.98 14.5557C0.327 13.5057 0 12.2858 0 10.9058C0 9.38576 0.327 8.1157 0.98 7.0957C1.669 6.0757 2.486 5.2457 3.43 4.5957C4.156 4.1257 4.809 3.70594 5.389 3.33594C5.97 2.94594 6.496 2.5558 6.968 2.1958C7.73 1.6558 8.293 1.27566 8.656 1.05566C9.055 0.835664 9.418 0.725586 9.745 0.725586C10.362 0.725586 10.87 0.925684 11.269 1.32568C11.704 1.68568 11.922 2.1957 11.922 2.8457C11.922 3.3557 11.614 3.81582 10.997 4.21582C10.416 4.57582 9.491 5.02568 8.22 5.57568C7.748 5.78568 7.259 6.02588 6.75 6.27588C6.242 6.49588 5.734 6.7559 5.226 7.0459C4.319 7.5159 3.539 8.136 2.885 8.896C2.232 9.656 1.905 10.5056 1.905 11.4556C1.905 12.1456 2.141 12.886 2.613 13.686C3.085 14.446 3.847 14.8257 4.9 14.8257C5.698 14.8257 6.569 14.6256 7.513 14.2256C8.492 13.8256 9.781 13.1957 11.378 12.3257C13.446 11.1957 15.261 10.3256 16.822 9.70557C18.419 9.09557 20.015 8.78564 21.612 8.78564C23.1 8.78564 24.352 9.18584 25.369 9.98584C26.385 10.7758 27.147 11.7457 27.655 12.8657C28.163 13.9957 28.417 15.006 28.417 15.916C28.417 17.226 28.145 18.316 27.601 19.186C27.056 20.056 26.33 20.796 25.423 21.416C24.552 21.996 23.227 22.736 21.449 23.646C20.687 24.046 19.907 24.466 19.108 24.896C18.31 25.336 17.493 25.8059 16.658 26.3159C15.57 27.0059 14.807 27.5857 14.372 28.0557C13.936 28.4957 13.719 29.086 13.719 29.856V31.436C13.719 31.646 13.646 31.8158 13.501 31.9258C13.392 32.0258 13.247 32.0859 13.065 32.0859C12.884 32.0859 12.721 32.0258 12.575 31.9258C12.467 31.7758 12.412 31.616 12.412 31.436V29.2559C12.412 27.6959 13.011 26.1858 14.209 24.7358ZM131.361 26.5859C131.543 26.6959 131.652 26.876 131.688 27.126C131.724 27.416 131.652 27.6559 131.47 27.8359C131.325 27.9859 131.107 28.1457 130.817 28.3257C129.51 29.1257 128.276 29.7458 127.115 30.1758C125.99 30.6158 124.665 30.8359 123.141 30.8359C121.435 30.8359 119.875 30.4656 118.459 29.7456C117.044 28.9856 115.901 27.9457 115.03 26.6357C114.195 25.2957 113.778 23.7759 113.778 22.0659C113.778 20.6559 113.995 19.3656 114.431 18.2056C114.903 17.0056 115.556 15.9657 116.391 15.0957C117.262 14.1957 118.296 13.5059 119.494 13.0259C120.183 12.7059 120.909 12.4657 121.671 12.3257C122.47 12.1757 123.286 12.0857 124.121 12.0557C126.008 12.0157 127.532 12.2459 128.694 12.7559C129.855 13.2259 130.763 13.8257 131.416 14.5557C131.597 14.7357 131.742 14.9358 131.851 15.1558C131.96 15.3758 132.033 15.5759 132.069 15.7559C132.069 15.8959 132.033 16.046 131.96 16.186C131.888 16.336 131.779 16.4256 131.634 16.4556C131.525 16.4956 131.38 16.4758 131.198 16.4058C131.053 16.2958 130.944 16.226 130.871 16.186C130.799 16.116 130.69 16.0458 130.545 15.9658C130 15.5758 129.438 15.226 128.857 14.936C128.276 14.606 127.587 14.3357 126.788 14.1157C126.026 13.8657 125.192 13.7559 124.284 13.7959C123.631 13.8259 122.96 13.9558 122.27 14.1758C121.617 14.3958 120.982 14.6957 120.365 15.0957C119.748 15.4957 119.203 16.006 118.732 16.626C118.26 17.206 117.879 17.8958 117.588 18.6958C117.334 19.4958 117.207 20.376 117.207 21.356C117.207 23.176 117.733 24.676 118.786 25.876C119.875 27.076 121.127 27.8057 122.542 28.0557C122.687 28.0957 122.833 28.126 122.978 28.166H123.522C124.611 28.166 125.609 28.0559 126.516 27.8359C127.424 27.5859 128.458 27.2357 129.619 26.8057C129.837 26.7357 130.037 26.6559 130.218 26.5859C130.436 26.5159 130.599 26.4756 130.708 26.4756C130.962 26.4056 131.18 26.4459 131.361 26.5859ZM56.834 14.1157C58.214 12.4457 59.774 11.6157 61.516 11.6157C62.532 11.6157 63.548 11.956 64.565 12.646C65.581 13.306 66.488 14.2456 67.287 15.4756C68.085 16.6756 68.72 18.0557 69.192 19.6157C69.228 19.6557 69.246 19.7056 69.246 19.7856V19.9458C69.283 20.1958 69.246 20.4556 69.138 20.7056C69.065 20.9256 68.902 21.066 68.648 21.146C68.611 21.146 68.575 21.1558 68.539 21.1958H68.484C68.266 21.1958 68.067 21.1256 67.885 20.9756C67.704 20.7956 67.559 20.596 67.45 20.376L67.014 19.0757C66.361 17.5157 65.599 16.1857 64.728 15.0957C63.857 13.9757 62.804 13.416 61.571 13.416C60.446 13.416 59.502 14.0256 58.74 15.2656C58.014 16.4956 57.451 18.126 57.052 20.166C56.653 22.156 56.453 24.2856 56.453 26.5356C56.453 29.1056 56.707 31.2456 57.215 32.9556C57.76 34.6656 58.431 35.9158 59.23 36.7158C60.064 37.5058 60.899 37.9058 61.734 37.9058C63.367 37.9058 64.601 37.4057 65.436 36.3857C66.27 35.3357 66.906 34.2059 67.341 33.0059L67.45 32.7358C67.522 32.6258 67.613 32.516 67.722 32.416C67.831 32.266 67.958 32.1958 68.103 32.1958C68.394 32.1958 68.575 32.3056 68.648 32.5156C68.757 32.7356 68.775 32.9558 68.702 33.1758C68.158 35.7458 67.232 37.6758 65.926 38.9458C64.619 40.1758 63.022 40.7959 61.135 40.7959C59.32 40.7959 57.76 40.1557 56.453 38.8857C55.147 37.6157 54.149 35.966 53.459 33.936C52.806 31.906 52.479 29.7456 52.479 27.4556C52.479 25.1656 52.86 22.7957 53.622 20.3257C54.385 17.8557 55.455 15.7857 56.834 14.1157ZM127.551 39.3257C126.462 40.2657 125.155 40.7358 123.631 40.7358C121.962 40.7358 120.528 40.4457 119.33 39.8657C118.169 39.2557 117.244 38.4759 116.554 37.5259C115.901 36.5459 115.411 35.4759 115.084 34.3159C114.975 33.8459 114.957 33.4259 115.03 33.0659C115.102 32.7059 115.229 32.4256 115.411 32.2456C115.628 32.0256 115.846 31.8859 116.064 31.8159C116.318 31.7359 116.59 31.7359 116.881 31.8159C117.171 31.8459 117.443 31.9956 117.697 32.2456C117.988 32.5056 118.187 32.886 118.296 33.396C118.586 34.406 118.913 35.246 119.276 35.896C119.639 36.546 120.165 37.0959 120.855 37.5259C121.58 37.9259 122.506 38.126 123.631 38.126C124.284 38.126 124.938 37.9956 125.591 37.7456C126.28 37.4556 126.934 37.076 127.551 36.606C128.204 36.096 128.766 35.516 129.238 34.856C129.383 34.536 129.565 34.2958 129.783 34.1558C130.037 33.9758 130.291 33.9758 130.545 34.1558C130.835 34.2958 130.944 34.536 130.871 34.856C130.799 35.156 130.708 35.406 130.599 35.626C129.692 37.146 128.676 38.3857 127.551 39.3257ZM110.675 30.5557C110.711 32.3357 110.729 35.0959 110.729 38.8359C110.729 39.6359 110.584 40.2859 110.293 40.7959C110.003 41.3059 109.549 41.5557 108.932 41.5557C108.352 41.5557 107.862 41.3358 107.463 40.9058C107.1 40.5058 106.9 39.7959 106.864 38.7759C106.828 37.0359 106.791 33.8857 106.755 29.3057V18.4756C106.755 17.3156 106.301 16.2456 105.394 15.2656C104.523 14.2856 103.144 13.7959 101.257 13.7959C99.732 13.7959 98.516 14.3059 97.609 15.3159C96.738 16.2959 96.303 17.476 96.303 18.856C96.303 21.066 96.284 22.7357 96.248 23.8657V28.9858C96.212 30.1058 96.194 31.1758 96.194 32.1958V34.9658C96.194 35.6258 95.994 36.1858 95.595 36.6558C95.196 37.0958 94.67 37.3057 94.016 37.3057C93.544 37.3057 93.163 37.1158 92.873 36.7158C92.583 36.2758 92.438 35.7357 92.438 35.0757C92.438 32.3957 92.419 30.3959 92.383 29.0859V20.5459C92.383 19.3859 92.71 18.1457 93.363 16.8457C94.016 15.5357 94.996 14.4256 96.303 13.5156C97.646 12.6156 99.279 12.1558 101.202 12.1558C103.235 12.1558 104.977 12.5958 106.428 13.4658C107.88 14.3058 108.951 15.3359 109.64 16.5659C110.33 17.7659 110.675 18.9056 110.675 19.9956V30.5557ZM48.179 23.9756C49.485 26.0056 50.138 28.1859 50.138 30.5059C50.138 32.5359 49.667 34.3159 48.723 35.8359C47.779 37.3659 46.473 38.566 44.803 39.436C43.17 40.266 41.283 40.686 39.142 40.686C38.38 40.686 37.527 40.6158 36.583 40.4658C35.676 40.3258 34.805 40.1458 33.97 39.9258C33.172 39.7058 32.554 39.4658 32.119 39.2158C31.865 39.0658 31.665 38.9259 31.52 38.7759C31.375 38.5959 31.302 38.3058 31.302 37.9058L31.03 29.3657C30.994 28.6357 31.248 28.2759 31.792 28.2759C32.192 28.2759 32.464 28.5959 32.609 29.2559L33.426 32.5757C34.224 35.8357 36.529 38.016 40.339 39.106C42.59 39.066 44.186 38.1956 45.13 36.4956C46.11 34.7856 46.6 32.8257 46.6 30.6157C46.6 28.4757 46.037 26.6059 44.912 25.0059C43.823 23.4059 42.009 21.7057 39.468 19.8857C36.674 17.9657 34.605 16.0259 33.262 14.0659C31.956 12.1059 31.302 10.1057 31.302 8.07568C31.302 5.97568 32.228 4.17604 34.079 2.68604C35.966 1.19604 38.234 0.455566 40.884 0.455566C42.045 0.455566 43.261 0.585938 44.531 0.835938C45.838 1.08594 46.836 1.45578 47.525 1.92578C47.743 2.06578 47.906 2.23602 48.015 2.41602C48.16 2.59602 48.233 2.83598 48.233 3.12598L48.505 11.0757C48.542 11.6557 48.342 11.9458 47.906 11.9458C47.471 11.9458 47.199 11.6557 47.09 11.0757L46.709 8.56592C46.491 7.00592 45.874 5.48561 44.858 3.99561C43.878 2.50561 42.481 1.76562 40.666 1.76562C38.997 1.76562 37.581 2.3258 36.42 3.4458C35.258 4.5758 34.678 6.06602 34.678 7.91602C34.678 9.47602 35.222 10.966 36.311 12.376C37.4 13.796 39.287 15.5159 41.972 17.5459C44.803 19.7659 46.872 21.9056 48.179 23.9756ZM61.026 23.8057C61.389 23.4057 61.861 23.2158 62.442 23.2158C62.95 23.2158 63.385 23.4057 63.748 23.8057C64.147 24.1757 64.347 24.626 64.347 25.166C64.347 25.676 64.147 26.1356 63.748 26.5356C63.385 26.8956 62.95 27.0757 62.442 27.0757C61.897 27.0757 61.425 26.8956 61.026 26.5356C60.663 26.1356 60.482 25.676 60.482 25.166C60.482 24.626 60.663 24.1757 61.026 23.8057ZM11.704 36.3857C12.104 35.9857 12.557 35.7856 13.065 35.7856C13.573 35.7856 14.009 35.9857 14.372 36.3857C14.771 36.7457 14.971 37.2056 14.971 37.7456C14.971 38.2556 14.771 38.706 14.372 39.106C14.009 39.466 13.573 39.6558 13.065 39.6558C12.557 39.6558 12.104 39.466 11.704 39.106C11.305 38.706 11.106 38.2556 11.106 37.7456C11.106 37.2056 11.305 36.7457 11.704 36.3857Z" fill="black"/>
</svg>
