<svg width="132" height="42" viewBox="0 0 132 42" fill="none" xmlns="http://www.w3.org/2000/svg">
<path fill-rule="evenodd" clip-rule="evenodd" d="M83.074 26.9658H82.747C80.751 26.9658 78.973 26.7657 77.412 26.3657C75.888 25.9657 74.454 25.4956 73.112 24.9556C73.003 24.8756 72.894 24.8256 72.785 24.7856C72.676 24.7556 72.567 24.7158 72.458 24.6758C72.059 24.4958 71.751 24.2656 71.533 23.9756C71.315 23.6856 71.243 23.4258 71.315 23.2158C71.424 22.9558 71.587 22.776 71.805 22.666C72.059 22.556 72.404 22.5959 72.839 22.7759C73.057 22.8859 73.239 22.996 73.384 23.106C73.529 23.176 73.729 23.266 73.983 23.376C75.471 23.996 76.759 24.4458 77.848 24.7358C78.937 25.0258 80.189 25.0956 81.604 24.9556C82.983 24.8056 83.909 24.3858 84.381 23.6958C84.852 22.9758 85.088 21.866 85.088 20.376C85.088 18.816 84.816 17.2957 84.272 15.8057C83.763 14.2857 82.784 13.5156 81.332 13.5156C80.316 13.5156 79.39 13.906 78.556 14.666C77.721 15.426 77.031 16.7159 76.487 18.5259C76.451 18.6359 76.432 18.7257 76.432 18.8057C76.432 18.8757 76.414 18.9657 76.378 19.0757C76.197 19.7257 75.942 20.2856 75.616 20.7656C75.326 21.2356 74.908 21.4658 74.364 21.4658C73.892 21.4658 73.529 21.3256 73.275 21.0356C73.021 20.7456 72.858 20.3956 72.785 19.9956C72.749 19.5956 72.785 19.2358 72.894 18.9058C73.112 18.1158 73.565 17.206 74.255 16.186C74.981 15.136 75.942 14.206 77.14 13.416C78.374 12.616 79.808 12.2158 81.441 12.2158C82.711 12.2158 83.891 12.5257 84.979 13.1357C86.104 13.7557 87.012 14.6958 87.701 15.9658C88.391 17.2058 88.736 18.696 88.736 20.436C88.736 21.846 88.463 23.0256 87.919 23.9756C87.411 24.8756 86.758 25.5659 85.959 26.0459C85.161 26.5159 84.326 26.806 83.455 26.916C83.346 26.946 83.219 26.9658 83.074 26.9658ZM85.524 39.5459C84.471 40.3759 83.237 40.7959 81.822 40.7959C79.318 40.7959 77.322 40.1056 75.834 38.7256C74.346 37.3056 73.311 35.8359 72.731 34.3159C72.15 32.7959 71.769 31.4358 71.587 30.2358C71.478 29.7658 71.478 29.3258 71.587 28.9258C71.733 28.5258 71.968 28.2159 72.295 28.0059C72.622 27.7459 73.039 27.6157 73.547 27.6157C74.164 27.6157 74.636 27.806 74.963 28.166C75.289 28.496 75.525 28.906 75.67 29.416V29.6357C75.707 29.6757 75.725 29.7259 75.725 29.7959C75.761 30.0559 75.797 30.256 75.834 30.396C75.87 30.546 75.906 30.7456 75.942 30.9956C76.197 32.4456 76.487 33.6858 76.814 34.6958C77.176 35.7158 77.757 36.6057 78.556 37.3657C79.354 38.0957 80.443 38.4556 81.822 38.4556C82.874 38.4556 83.745 38.0957 84.435 37.3657C85.161 36.6357 85.687 35.8358 86.014 34.9658C86.377 34.0658 86.649 33.2258 86.83 32.4658C86.975 31.6258 87.23 31.0859 87.592 30.8359C87.992 30.5459 88.427 30.4657 88.899 30.6157C89.407 30.7257 89.77 31.0356 89.988 31.5356C90.206 32.0156 90.133 32.6656 89.77 33.4956C89.226 34.6956 88.645 35.8059 88.028 36.8159C87.411 37.7959 86.576 38.7059 85.524 39.5459ZM14.209 24.7358C15.443 23.2858 17.421 21.8859 20.142 20.5459C22.502 19.3859 24.135 18.3257 25.042 17.3857C25.949 16.4457 26.403 15.3856 26.403 14.2256C26.403 13.5356 26.131 12.9558 25.586 12.4858C25.042 12.0158 24.407 11.7759 23.681 11.7759C22.774 11.7759 21.758 12.0158 20.632 12.4858C19.544 12.9258 18.146 13.5956 16.441 14.4956C14.372 15.5856 12.594 16.4259 11.106 17.0059C9.618 17.5859 8.148 17.876 6.696 17.876C5.607 17.876 4.537 17.5859 3.484 17.0059C2.468 16.4259 1.633 15.6057 0.98 14.5557C0.327 13.5057 0 12.2858 0 10.9058C0 9.38576 0.327 8.1157 0.98 7.0957C1.669 6.0757 2.486 5.2457 3.43 4.5957C4.156 4.1257 4.809 3.70594 5.389 3.33594C5.97 2.94594 6.496 2.5558 6.968 2.1958C7.73 1.6558 8.293 1.27566 8.656 1.05566C9.055 0.835664 9.418 0.725586 9.745 0.725586C10.362 0.725586 10.87 0.925684 11.269 1.32568C11.704 1.68568 11.922 2.1957 11.922 2.8457C11.922 3.3557 11.614 3.81582 10.997 4.21582C10.416 4.57582 9.491 5.02568 8.22 5.57568C7.748 5.78568 7.259 6.02588 6.75 6.27588C6.242 6.49588 5.734 6.7559 5.226 7.0459C4.319 7.5159 3.539 8.136 2.885 8.896C2.232 9.656 1.905 10.5056 1.905 11.4556C1.905 12.1456 2.141 12.886 2.613 13.686C3.085 14.446 3.847 14.8257 4.9 14.8257C5.698 14.8257 6.569 14.6256 7.513 14.2256C8.492 13.8256 9.781 13.1957 11.378 12.3257C13.446 11.1957 15.261 10.3256 16.822 9.70557C18.419 9.09557 20.015 8.78564 21.612 8.78564C23.1 8.78564 24.352 9.18584 25.369 9.98584C26.385 10.7758 27.147 11.7457 27.655 12.8657C28.163 13.9957 28.417 15.006 28.417 15.916C28.417 17.226 28.145 18.316 27.601 19.186C27.056 20.056 26.33 20.796 25.423 21.416C24.552 21.996 23.227 22.736 21.449 23.646C20.687 24.046 19.907 24.466 19.108 24.896C18.31 25.336 17.493 25.8059 16.658 26.3159C15.57 27.0059 14.807 27.5857 14.372 28.0557C13.936 28.4957 13.719 29.086 13.719 29.856V31.436C13.719 31.646 13.646 31.8158 13.501 31.9258C13.392 32.0258 13.247 32.0859 13.065 32.0859C12.884 32.0859 12.721 32.0258 12.575 31.9258C12.467 31.7758 12.412 31.616 12.412 31.436V29.2559C12.412 27.6959 13.011 26.1858 14.209 24.7358ZM131.144 26.6958C131.325 26.8058 131.434 26.9858 131.47 27.2358C131.47 27.5258 131.38 27.7658 131.198 27.9458C131.053 28.1258 130.853 28.296 130.599 28.436C129.293 29.196 128.059 29.7958 126.897 30.2358C125.772 30.6658 124.466 30.8857 122.978 30.8857C121.272 30.8857 119.711 30.5259 118.296 29.7959C116.881 29.0359 115.756 28.0058 114.921 26.6958C114.086 25.3858 113.669 23.866 113.669 22.126C113.669 20.746 113.886 19.4559 114.322 18.2559C114.794 17.0559 115.447 16.0258 116.282 15.1558C117.153 14.2458 118.187 13.5359 119.385 13.0259C120.074 12.7359 120.8 12.526 121.562 12.376C122.361 12.196 123.177 12.0857 124.012 12.0557C125.899 11.9757 127.424 12.1557 128.585 12.5957C129.746 12.9957 130.636 13.5158 131.252 14.1758C131.434 14.3558 131.579 14.5559 131.688 14.7759C131.797 14.9559 131.888 15.1156 131.96 15.2656C131.96 15.4056 131.924 15.5558 131.851 15.6958C131.815 15.8058 131.724 15.8958 131.579 15.9658C131.434 16.0058 131.289 15.986 131.144 15.916C131.035 15.846 130.926 15.7859 130.817 15.7559C130.744 15.6759 130.636 15.6259 130.49 15.5859C129.982 15.2259 129.438 14.916 128.857 14.666C128.276 14.376 127.587 14.1356 126.788 13.9556C125.99 13.7356 125.137 13.6658 124.23 13.7358C123.54 13.8158 122.851 13.9756 122.161 14.2256C121.508 14.4456 120.873 14.7357 120.256 15.0957C119.639 15.5357 119.094 16.0658 118.623 16.6758C118.151 17.2558 117.77 17.9657 117.479 18.8057C117.225 19.5957 117.098 20.5059 117.098 21.5259C117.098 23.3059 117.625 24.7858 118.677 25.9858C119.766 27.1458 121.018 27.856 122.433 28.106C122.579 28.146 122.724 28.1858 122.869 28.2158H123.413C124.429 28.2158 125.391 28.106 126.299 27.896C127.206 27.636 128.24 27.316 129.402 26.916C129.619 26.836 129.819 26.7658 130 26.6958C130.218 26.6258 130.381 26.5859 130.49 26.5859C130.744 26.5159 130.962 26.5458 131.144 26.6958ZM56.671 14.1157C58.05 12.4457 59.611 11.6157 61.353 11.6157C62.405 11.6157 63.422 11.956 64.401 12.646C65.418 13.306 66.325 14.2456 67.123 15.4756C67.958 16.6756 68.629 18.0359 69.138 19.5659C69.174 19.5959 69.192 19.6556 69.192 19.7256V19.8857C69.228 20.1757 69.192 20.4556 69.083 20.7056C69.01 20.9256 68.847 21.0559 68.593 21.0859C68.557 21.1259 68.521 21.1558 68.484 21.1958H68.43C68.212 21.1958 68.013 21.1256 67.831 20.9756C67.65 20.8356 67.522 20.636 67.45 20.376L66.96 19.0757C66.27 17.5457 65.472 16.2257 64.565 15.0957C63.694 13.9757 62.641 13.416 61.407 13.416C60.318 13.416 59.393 14.0256 58.631 15.2656C57.869 16.4956 57.288 18.126 56.889 20.166C56.526 22.156 56.344 24.2856 56.344 26.5356C56.344 29.1056 56.598 31.2456 57.106 32.9556C57.651 34.6656 58.322 35.9158 59.121 36.7158C59.956 37.5058 60.79 37.9058 61.625 37.9058C63.258 37.9058 64.492 37.4057 65.327 36.3857C66.162 35.3357 66.797 34.2059 67.232 33.0059L67.341 32.7358C67.414 32.6258 67.504 32.516 67.613 32.416C67.722 32.266 67.849 32.1958 67.994 32.1958C68.285 32.1958 68.466 32.3056 68.539 32.5156C68.648 32.7356 68.666 32.9558 68.593 33.1758C68.049 35.7458 67.123 37.6758 65.817 38.9458C64.51 40.1758 62.913 40.7959 61.026 40.7959C59.212 40.7959 57.651 40.1557 56.344 38.8857C55.038 37.6157 54.04 35.966 53.35 33.936C52.697 31.906 52.37 29.7456 52.37 27.4556C52.37 25.1656 52.751 22.7957 53.514 20.3257C54.276 17.8557 55.328 15.7857 56.671 14.1157ZM127.333 39.376C126.244 40.286 124.956 40.7358 123.468 40.7358C121.798 40.7358 120.365 40.4457 119.167 39.8657C118.006 39.2557 117.08 38.4759 116.391 37.5259C115.701 36.5859 115.193 35.536 114.866 34.376C114.721 33.896 114.685 33.4857 114.757 33.1157C114.83 32.7557 114.975 32.4857 115.193 32.3057C115.411 32.0857 115.628 31.9259 115.846 31.8159C116.064 31.7359 116.318 31.7359 116.608 31.8159C116.899 31.8859 117.171 32.0457 117.425 32.3057C117.715 32.5557 117.933 32.9358 118.078 33.4458C118.369 34.4258 118.695 35.2558 119.058 35.9458C119.457 36.6058 120.002 37.1259 120.691 37.5259C121.417 37.9259 122.343 38.126 123.468 38.126C124.085 38.126 124.738 37.9956 125.428 37.7456C126.117 37.4956 126.77 37.1258 127.387 36.6558C128.041 36.1858 128.603 35.6258 129.075 34.9658C129.256 34.6758 129.456 34.4659 129.674 34.3159C129.928 34.1359 130.182 34.1359 130.436 34.3159C130.69 34.4659 130.781 34.6959 130.708 35.0259C130.636 35.3159 130.527 35.5656 130.381 35.7856C129.474 37.2356 128.458 38.436 127.333 39.376ZM110.566 30.6157C110.602 32.4257 110.62 35.2058 110.62 38.9458C110.62 39.7458 110.475 40.3958 110.185 40.9058C109.894 41.4158 109.441 41.666 108.824 41.666C108.243 41.666 107.753 41.4659 107.354 41.0659C106.991 40.6659 106.791 39.9756 106.755 38.9956C106.719 37.2156 106.682 34.026 106.646 29.416V18.4756C106.646 17.3156 106.192 16.2456 105.285 15.2656C104.414 14.2856 103.017 13.7959 101.093 13.7959C99.605 13.7959 98.408 14.3059 97.5 15.3159C96.629 16.2959 96.194 17.476 96.194 18.856C96.194 21.036 96.176 22.6659 96.139 23.7559V28.7656C96.103 29.8556 96.085 30.8857 96.085 31.8657V34.646C96.085 35.296 95.885 35.8359 95.486 36.2759C95.087 36.7159 94.561 36.9258 93.907 36.9258C93.436 36.9258 93.054 36.7257 92.764 36.3257C92.474 35.9357 92.329 35.3858 92.329 34.6958C92.329 32.1158 92.31 30.1958 92.274 28.9258V20.5459C92.274 19.3859 92.601 18.1457 93.254 16.8457C93.907 15.5357 94.887 14.4256 96.194 13.5156C97.537 12.6156 99.17 12.1558 101.093 12.1558C103.126 12.1558 104.85 12.5958 106.265 13.4658C107.717 14.3058 108.787 15.3359 109.477 16.5659C110.203 17.7659 110.566 18.9056 110.566 19.9956V30.6157ZM48.07 23.9756C49.376 26.0056 50.03 28.1859 50.03 30.5059C50.03 32.5359 49.558 34.3159 48.614 35.8359C47.67 37.3659 46.364 38.566 44.694 39.436C43.061 40.266 41.174 40.686 39.033 40.686C38.271 40.686 37.418 40.6158 36.474 40.4658C35.567 40.3258 34.696 40.1458 33.861 39.9258C33.063 39.7058 32.446 39.4658 32.01 39.2158C31.756 39.0658 31.557 38.9259 31.411 38.7759C31.266 38.5959 31.194 38.3058 31.194 37.9058L30.921 29.3657C30.885 28.6357 31.139 28.2759 31.683 28.2759C32.083 28.2759 32.355 28.5959 32.5 29.2559L33.317 32.626C34.115 35.896 36.42 38.056 40.23 39.106C42.481 39.066 44.078 38.1956 45.021 36.4956C46.001 34.7856 46.491 32.8257 46.491 30.6157C46.491 28.4757 45.947 26.6059 44.858 25.0059C43.805 23.3759 42.009 21.6459 39.468 19.8359C36.674 17.9159 34.587 15.9859 33.208 14.0659C31.865 12.1059 31.194 10.1057 31.194 8.07568C31.194 5.97568 32.119 4.17604 33.97 2.68604C35.857 1.19604 38.126 0.455566 40.775 0.455566C41.936 0.455566 43.152 0.585938 44.422 0.835938C45.729 1.08594 46.727 1.45578 47.416 1.92578C47.634 2.06578 47.798 2.23602 47.906 2.41602C48.051 2.59602 48.124 2.83598 48.124 3.12598L48.396 10.9058C48.433 11.4858 48.251 11.7759 47.852 11.7759C47.38 11.7459 47.108 11.4558 47.035 10.9058L46.654 8.45557C46.437 6.89557 45.82 5.39604 44.803 3.93604C43.787 2.48604 42.372 1.76562 40.557 1.76562C38.888 1.76562 37.472 2.3258 36.311 3.4458C35.15 4.5758 34.569 6.06602 34.569 7.91602C34.569 9.47602 35.113 10.966 36.202 12.376C37.291 13.796 39.178 15.5159 41.864 17.5459C44.694 19.7659 46.763 21.9056 48.07 23.9756ZM60.917 23.8057C61.28 23.4057 61.752 23.2158 62.333 23.2158C62.841 23.2158 63.276 23.4057 63.639 23.8057C64.038 24.1757 64.238 24.626 64.238 25.166C64.238 25.676 64.038 26.1356 63.639 26.5356C63.276 26.8956 62.841 27.0757 62.333 27.0757C61.788 27.0757 61.317 26.8956 60.917 26.5356C60.554 26.1356 60.373 25.676 60.373 25.166C60.373 24.626 60.554 24.1757 60.917 23.8057ZM11.704 36.436C12.104 36.036 12.557 35.8359 13.065 35.8359C13.573 35.8359 14.009 36.036 14.372 36.436C14.771 36.806 14.971 37.2559 14.971 37.7959C14.971 38.3059 14.771 38.766 14.372 39.166C14.009 39.526 13.573 39.7056 13.065 39.7056C12.557 39.7056 12.104 39.526 11.704 39.166C11.305 38.766 11.106 38.3059 11.106 37.7959C11.106 37.2559 11.305 36.806 11.704 36.436Z" fill="black"/>
</svg>
