<svg width="132" height="42" viewBox="0 0 132 42" fill="none" xmlns="http://www.w3.org/2000/svg">
<path fill-rule="evenodd" clip-rule="evenodd" d="M82.856 27.126H82.53C80.534 27.126 78.755 26.9156 77.195 26.4756C75.67 26.0056 74.237 25.476 72.894 24.896C72.749 24.826 72.622 24.7758 72.513 24.7358C72.44 24.6658 72.35 24.6057 72.241 24.5757C71.841 24.3857 71.533 24.1557 71.315 23.8657C71.134 23.5757 71.079 23.316 71.152 23.106C71.261 22.846 71.424 22.6857 71.642 22.6157C71.896 22.5057 72.222 22.5356 72.622 22.7256C72.876 22.8256 73.075 22.9359 73.221 23.0459C73.366 23.1559 73.565 23.2858 73.819 23.4258C75.307 24.0458 76.596 24.5157 77.685 24.8457C78.773 25.1357 80.025 25.2059 81.441 25.0659C82.856 24.9559 83.8 24.5357 84.272 23.8057C84.743 23.0457 84.979 21.906 84.979 20.376C84.979 18.816 84.707 17.2957 84.163 15.8057C83.655 14.2857 82.675 13.5156 81.223 13.5156C80.207 13.5156 79.281 13.9158 78.447 14.7158C77.612 15.4758 76.922 16.7659 76.378 18.5859C76.305 18.6959 76.269 18.786 76.269 18.856C76.269 18.926 76.251 19.016 76.215 19.126C76.033 19.786 75.797 20.3459 75.507 20.8159C75.217 21.2559 74.799 21.4658 74.255 21.4658C73.783 21.4658 73.402 21.3256 73.112 21.0356C72.858 20.7456 72.694 20.3956 72.622 19.9956C72.585 19.5956 72.622 19.2558 72.731 18.9658C72.948 18.1658 73.42 17.236 74.146 16.186C74.872 15.136 75.834 14.206 77.031 13.416C78.265 12.616 79.699 12.2158 81.332 12.2158C82.602 12.2158 83.782 12.5257 84.87 13.1357C85.996 13.7557 86.903 14.6958 87.592 15.9658C88.282 17.2058 88.627 18.696 88.627 20.436C88.627 21.846 88.355 23.0256 87.81 23.9756C87.302 24.9156 86.649 25.646 85.85 26.146C85.052 26.656 84.199 26.9459 83.292 27.0259C83.147 27.0559 83.001 27.096 82.856 27.126ZM85.415 39.5957C84.399 40.3957 83.183 40.7959 81.767 40.7959C79.263 40.7959 77.249 40.1056 75.725 38.7256C74.237 37.3056 73.184 35.8359 72.567 34.3159C71.987 32.7559 71.606 31.3958 71.424 30.2358C71.351 29.7958 71.37 29.3758 71.478 28.9858C71.624 28.5858 71.86 28.2757 72.186 28.0557C72.513 27.8057 72.93 27.6758 73.438 27.6758C74.055 27.6758 74.527 27.8558 74.854 28.2158C75.18 28.5458 75.416 28.9656 75.561 29.4756V29.686C75.598 29.726 75.616 29.776 75.616 29.856C75.652 30.106 75.688 30.3056 75.725 30.4556C75.761 30.5956 75.797 30.7959 75.834 31.0459C76.088 32.4659 76.378 33.6858 76.705 34.6958C77.068 35.7158 77.648 36.6057 78.447 37.3657C79.281 38.0957 80.37 38.4556 81.713 38.4556C82.802 38.4556 83.691 38.0957 84.381 37.3657C85.106 36.6357 85.633 35.8559 85.959 35.0259C86.322 34.1559 86.594 33.3156 86.776 32.5156C86.957 31.7256 87.23 31.1958 87.592 30.9458C87.955 30.6858 88.391 30.6359 88.899 30.7759C89.371 30.8859 89.716 31.1956 89.933 31.7056C90.151 32.1756 90.078 32.806 89.716 33.606C89.135 34.806 88.536 35.896 87.919 36.876C87.302 37.856 86.467 38.7657 85.415 39.5957ZM14.209 24.7358C15.443 23.2858 17.421 21.8859 20.142 20.5459C22.502 19.3859 24.135 18.3257 25.042 17.3857C25.949 16.4457 26.403 15.3856 26.403 14.2256C26.403 13.5356 26.131 12.9558 25.586 12.4858C25.042 12.0158 24.407 11.7759 23.681 11.7759C22.774 11.7759 21.758 12.0158 20.632 12.4858C19.544 12.9258 18.146 13.5956 16.441 14.4956C14.372 15.5856 12.594 16.4259 11.106 17.0059C9.618 17.5859 8.148 17.876 6.696 17.876C5.607 17.876 4.537 17.5859 3.484 17.0059C2.468 16.4259 1.633 15.6057 0.98 14.5557C0.327 13.5057 0 12.2858 0 10.9058C0 9.38576 0.327 8.1157 0.98 7.0957C1.669 6.0757 2.486 5.2457 3.43 4.5957C4.156 4.1257 4.809 3.70594 5.389 3.33594C5.97 2.94594 6.496 2.5558 6.968 2.1958C7.73 1.6558 8.293 1.27566 8.656 1.05566C9.055 0.835664 9.418 0.725586 9.745 0.725586C10.362 0.725586 10.87 0.925684 11.269 1.32568C11.704 1.68568 11.922 2.1957 11.922 2.8457C11.922 3.3557 11.614 3.81582 10.997 4.21582C10.416 4.57582 9.491 5.02568 8.22 5.57568C7.748 5.78568 7.259 6.02588 6.75 6.27588C6.242 6.49588 5.734 6.7559 5.226 7.0459C4.319 7.5159 3.539 8.136 2.885 8.896C2.232 9.656 1.905 10.5056 1.905 11.4556C1.905 12.1456 2.141 12.886 2.613 13.686C3.085 14.446 3.847 14.8257 4.9 14.8257C5.698 14.8257 6.569 14.6256 7.513 14.2256C8.492 13.8256 9.781 13.1957 11.378 12.3257C13.446 11.1957 15.261 10.3256 16.822 9.70557C18.419 9.09557 20.015 8.78564 21.612 8.78564C23.1 8.78564 24.352 9.18584 25.369 9.98584C26.385 10.7758 27.147 11.7457 27.655 12.8657C28.163 13.9957 28.417 15.006 28.417 15.916C28.417 17.226 28.145 18.316 27.601 19.186C27.056 20.056 26.33 20.796 25.423 21.416C24.552 21.996 23.227 22.736 21.449 23.646C20.687 24.046 19.907 24.466 19.108 24.896C18.31 25.336 17.493 25.8059 16.658 26.3159C15.57 27.0059 14.807 27.5857 14.372 28.0557C13.936 28.4957 13.719 29.086 13.719 29.856V31.436C13.719 31.646 13.646 31.8158 13.501 31.9258C13.392 32.0258 13.247 32.0859 13.065 32.0859C12.884 32.0859 12.721 32.0258 12.575 31.9258C12.467 31.7758 12.412 31.616 12.412 31.436V29.2559C12.412 27.6959 13.011 26.1858 14.209 24.7358ZM130.926 26.8057C131.107 26.9457 131.198 27.1458 131.198 27.4058C131.234 27.6958 131.162 27.926 130.98 28.106C130.835 28.256 130.617 28.3959 130.327 28.5459C129.02 29.3059 127.805 29.9057 126.68 30.3457C125.555 30.7457 124.266 30.9458 122.814 30.9458C121.109 30.9458 119.548 30.576 118.133 29.856C116.754 29.126 115.647 28.1057 114.812 26.8057C113.977 25.4657 113.56 23.9358 113.56 22.2358C113.56 20.8158 113.778 19.5059 114.213 18.3159C114.685 17.1159 115.338 16.0756 116.173 15.2056C117.044 14.3056 118.078 13.5959 119.276 13.0859C119.965 12.7559 120.691 12.5057 121.453 12.3257C122.252 12.1457 123.068 12.0557 123.903 12.0557C125.79 11.9457 127.315 12.066 128.476 12.436C129.637 12.796 130.527 13.2459 131.144 13.7959C131.325 13.9359 131.47 14.1056 131.579 14.2856C131.688 14.4656 131.761 14.6259 131.797 14.7759C131.833 14.9159 131.815 15.0656 131.742 15.2056C131.706 15.3156 131.615 15.4056 131.47 15.4756C131.361 15.5156 131.234 15.4958 131.089 15.4258C130.98 15.3558 130.871 15.2956 130.763 15.2656C130.69 15.2256 130.581 15.1858 130.436 15.1558C129.964 14.8258 129.438 14.576 128.857 14.396C128.276 14.176 127.587 13.9957 126.788 13.8457C125.99 13.6657 125.119 13.616 124.175 13.686C123.45 13.796 122.742 13.9756 122.052 14.2256C121.399 14.4456 120.764 14.7558 120.147 15.1558C119.53 15.5858 118.986 16.1158 118.514 16.7358C118.078 17.3158 117.715 18.026 117.425 18.856C117.171 19.686 117.044 20.636 117.044 21.686C117.044 23.426 117.57 24.8957 118.623 26.0957C119.675 27.2557 120.909 27.9658 122.325 28.2158C122.47 28.2558 122.615 28.2957 122.76 28.3257H123.304C124.284 28.3257 125.21 28.2159 126.081 28.0059C126.988 27.7459 128.004 27.4357 129.129 27.0757C129.383 26.9657 129.601 26.8757 129.783 26.8057C130 26.7357 130.164 26.6958 130.273 26.6958C130.527 26.6258 130.744 26.6557 130.926 26.8057ZM56.508 14.1157C57.887 12.4457 59.447 11.6157 61.19 11.6157C62.242 11.6157 63.258 11.956 64.238 12.646C65.254 13.306 66.18 14.2258 67.014 15.4258C67.849 16.6258 68.521 18.0059 69.029 19.5659C69.065 19.5959 69.083 19.6556 69.083 19.7256C69.119 19.7656 69.138 19.8157 69.138 19.8857C69.174 20.1757 69.138 20.4556 69.029 20.7056C68.956 20.9256 68.811 21.0559 68.593 21.0859C68.521 21.1259 68.466 21.146 68.43 21.146C68.43 21.146 68.412 21.1558 68.375 21.1958C68.158 21.1958 67.958 21.1256 67.777 20.9756C67.595 20.8356 67.468 20.636 67.396 20.376L66.906 19.126C66.18 17.566 65.363 16.2257 64.456 15.0957C63.548 13.9757 62.478 13.416 61.244 13.416C60.155 13.416 59.23 14.0256 58.468 15.2656C57.742 16.4956 57.179 18.126 56.78 20.166C56.417 22.156 56.236 24.2856 56.236 26.5356C56.236 29.1056 56.49 31.2456 56.998 32.9556C57.542 34.6656 58.214 35.9158 59.012 36.7158C59.847 37.5058 60.681 37.9058 61.516 37.9058C63.149 37.9058 64.383 37.4057 65.218 36.3857C66.053 35.3357 66.688 34.2059 67.123 33.0059L67.232 32.7358C67.305 32.6258 67.396 32.516 67.504 32.416C67.613 32.266 67.74 32.1958 67.885 32.1958C68.176 32.1958 68.357 32.3056 68.43 32.5156C68.539 32.7356 68.557 32.9558 68.484 33.1758C67.94 35.7458 67.014 37.6758 65.708 38.9458C64.401 40.1758 62.804 40.7959 60.917 40.7959C59.103 40.7959 57.542 40.1557 56.236 38.8857C54.929 37.6157 53.931 35.966 53.241 33.936C52.588 31.906 52.262 29.7456 52.262 27.4556C52.262 25.1656 52.624 22.7957 53.35 20.3257C54.112 17.8557 55.165 15.7857 56.508 14.1157ZM127.17 39.436C126.044 40.306 124.756 40.7358 123.304 40.7358C121.599 40.7358 120.147 40.4457 118.949 39.8657C117.788 39.2857 116.862 38.5259 116.173 37.5859C115.483 36.6359 114.975 35.5858 114.649 34.4258C114.503 33.9558 114.467 33.5358 114.54 33.1758C114.612 32.8058 114.739 32.5157 114.921 32.3057C115.139 32.0857 115.356 31.9357 115.574 31.8657C115.828 31.7957 116.1 31.7957 116.391 31.8657C116.681 31.9057 116.953 32.0457 117.207 32.3057C117.498 32.5557 117.715 32.9358 117.861 33.4458C118.151 34.4258 118.477 35.2558 118.84 35.9458C119.24 36.6058 119.802 37.1459 120.528 37.5859C121.254 37.9859 122.179 38.186 123.304 38.186C123.921 38.186 124.575 38.0559 125.264 37.7959C125.954 37.5459 126.607 37.2056 127.224 36.7656C127.877 36.2956 128.458 35.7457 128.966 35.1357C129.148 34.8457 129.347 34.6256 129.565 34.4756C129.783 34.2956 130.037 34.2956 130.327 34.4756C130.581 34.6656 130.654 34.896 130.545 35.186C130.472 35.476 130.363 35.7358 130.218 35.9458C129.311 37.3658 128.295 38.526 127.17 39.436ZM110.457 30.7256C110.493 32.5356 110.511 35.336 110.511 39.106C110.511 39.906 110.366 40.5559 110.076 41.0659C109.785 41.5759 109.332 41.8257 108.715 41.8257C108.134 41.8257 107.644 41.6256 107.245 41.2256C106.882 40.8356 106.682 40.146 106.646 39.166C106.61 37.386 106.573 34.1759 106.537 29.5259V18.4756C106.537 17.3156 106.084 16.2456 105.176 15.2656C104.305 14.2856 102.908 13.7959 100.984 13.7959C99.496 13.7959 98.299 14.3059 97.391 15.3159C96.52 16.2959 96.085 17.476 96.085 18.856C96.085 20.996 96.067 22.596 96.03 23.646V28.5459C95.994 29.5959 95.976 30.6157 95.976 31.5957V34.3159C95.976 34.9359 95.758 35.456 95.323 35.896C94.924 36.326 94.415 36.5459 93.798 36.5459C93.327 36.5459 92.946 36.3458 92.655 35.9458C92.365 35.5458 92.22 35.026 92.22 34.376C92.22 31.826 92.202 29.9456 92.165 28.7056V20.5459C92.165 19.3859 92.492 18.1457 93.145 16.8457C93.798 15.5357 94.778 14.4256 96.085 13.5156C97.428 12.6156 99.061 12.1558 100.984 12.1558C103.017 12.1558 104.741 12.5958 106.156 13.4658C107.608 14.3058 108.678 15.3359 109.368 16.5659C110.094 17.7659 110.457 18.9056 110.457 19.9956V30.7256ZM47.961 23.9756C49.267 26.0056 49.921 28.1859 49.921 30.5059C49.921 32.5359 49.449 34.3159 48.505 35.8359C47.562 37.3659 46.255 38.566 44.586 39.436C42.952 40.266 41.065 40.686 38.924 40.686C38.162 40.686 37.309 40.6158 36.365 40.4658C35.458 40.3258 34.587 40.1458 33.752 39.9258C32.954 39.7058 32.337 39.4658 31.901 39.2158C31.647 39.0658 31.448 38.9259 31.302 38.7759C31.157 38.5959 31.085 38.3058 31.085 37.9058L30.813 29.3657C30.776 28.6357 31.03 28.2759 31.575 28.2759C31.974 28.2759 32.246 28.5959 32.391 29.2559L33.262 32.686C34.024 35.946 36.311 38.096 40.122 39.106C42.372 39.066 43.969 38.1956 44.912 36.4956C45.892 34.7856 46.382 32.8257 46.382 30.6157C46.382 28.4757 45.856 26.5856 44.803 24.9556C43.751 23.3156 41.954 21.5956 39.414 19.7856C36.619 17.8556 34.533 15.9359 33.153 14.0059C31.774 12.0859 31.085 10.1057 31.085 8.07568C31.085 5.97568 32.01 4.17604 33.861 2.68604C35.748 1.19604 38.017 0.455566 40.666 0.455566C41.827 0.455566 43.043 0.585938 44.313 0.835938C45.62 1.08594 46.618 1.45578 47.308 1.92578C47.525 2.06578 47.689 2.23602 47.798 2.41602C47.943 2.59602 48.015 2.83598 48.015 3.12598L48.287 10.7456C48.324 11.3256 48.142 11.6157 47.743 11.6157C47.308 11.5757 47.035 11.3059 46.926 10.7959L46.6 8.3457C46.382 6.7857 45.747 5.29574 44.694 3.88574C43.678 2.46574 42.263 1.76562 40.448 1.76562C38.779 1.76562 37.363 2.3258 36.202 3.4458C35.041 4.5758 34.46 6.06602 34.46 7.91602C34.46 9.47602 35.004 10.966 36.093 12.376C37.182 13.796 39.069 15.5159 41.755 17.5459C44.586 19.7659 46.654 21.9056 47.961 23.9756ZM60.808 23.8057C61.171 23.4057 61.643 23.2158 62.224 23.2158C62.732 23.2158 63.167 23.4057 63.53 23.8057C63.93 24.1757 64.129 24.626 64.129 25.166C64.129 25.676 63.93 26.1356 63.53 26.5356C63.167 26.8956 62.732 27.0757 62.224 27.0757C61.679 27.0757 61.208 26.8956 60.808 26.5356C60.446 26.1356 60.264 25.676 60.264 25.166C60.264 24.626 60.446 24.1757 60.808 23.8057ZM11.759 36.5459C12.158 36.1459 12.612 35.9458 13.12 35.9458C13.628 35.9458 14.063 36.1459 14.426 36.5459C14.826 36.9159 15.025 37.3658 15.025 37.9058C15.025 38.4158 14.826 38.8756 14.426 39.2656C14.063 39.6356 13.628 39.8159 13.12 39.8159C12.612 39.8159 12.158 39.6356 11.759 39.2656C11.36 38.8756 11.16 38.4158 11.16 37.9058C11.16 37.3658 11.36 36.9159 11.759 36.5459Z" fill="black"/>
</svg>
