<svg width="132" height="42" viewBox="0 0 132 42" fill="none" xmlns="http://www.w3.org/2000/svg">
<path fill-rule="evenodd" clip-rule="evenodd" d="M82.693 27.2358H82.312C80.316 27.2358 78.537 27.0056 76.977 26.5356C75.416 26.0256 73.983 25.4456 72.676 24.7856C72.531 24.7556 72.404 24.7158 72.295 24.6758C72.222 24.6058 72.132 24.5556 72.023 24.5156C71.624 24.2956 71.315 24.0459 71.097 23.7559C70.916 23.4659 70.88 23.2156 70.989 22.9956C71.097 22.7356 71.279 22.5759 71.533 22.5059C71.787 22.4259 72.095 22.486 72.458 22.666C72.712 22.816 72.912 22.9359 73.057 23.0459C73.202 23.1559 73.402 23.2858 73.656 23.4258C75.108 24.0858 76.378 24.576 77.467 24.896C78.592 25.226 79.862 25.3356 81.278 25.2256C82.693 25.0756 83.637 24.6257 84.108 23.8657C84.58 23.1057 84.816 21.936 84.816 20.376C84.816 18.816 84.544 17.2957 83.999 15.8057C83.491 14.2857 82.511 13.5156 81.06 13.5156C80.044 13.5156 79.118 13.9158 78.283 14.7158C77.449 15.4758 76.759 16.7659 76.215 18.5859C76.178 18.6959 76.16 18.786 76.16 18.856C76.16 18.926 76.142 19.016 76.106 19.126C75.924 19.786 75.688 20.3459 75.398 20.8159C75.108 21.2559 74.69 21.4658 74.146 21.4658C73.638 21.4658 73.257 21.3459 73.003 21.0859C72.749 20.7959 72.585 20.4557 72.513 20.0557C72.477 19.6557 72.513 19.2958 72.622 18.9658C72.839 18.1658 73.293 17.236 73.983 16.186C74.709 15.136 75.67 14.206 76.868 13.416C78.102 12.616 79.535 12.2158 81.169 12.2158C82.439 12.2158 83.618 12.5257 84.707 13.1357C85.832 13.7557 86.74 14.6958 87.429 15.9658C88.119 17.2058 88.463 18.696 88.463 20.436C88.463 21.846 88.191 23.0459 87.647 24.0259C87.139 24.9759 86.486 25.7159 85.687 26.2559C84.889 26.7659 84.018 27.076 83.074 27.186C82.965 27.226 82.838 27.2358 82.693 27.2358ZM85.36 39.6558C84.308 40.4158 83.074 40.7959 81.659 40.7959C79.154 40.7959 77.14 40.1056 75.616 38.7256C74.092 37.3056 73.021 35.8359 72.404 34.3159C71.823 32.7559 71.46 31.3958 71.315 30.2358C71.206 29.7958 71.206 29.3758 71.315 28.9858C71.46 28.5858 71.696 28.2757 72.023 28.0557C72.35 27.8057 72.767 27.6758 73.275 27.6758C73.892 27.6758 74.364 27.8558 74.69 28.2158C75.053 28.5458 75.307 28.9656 75.453 29.4756V29.856C75.525 30.106 75.58 30.3056 75.616 30.4556C75.652 30.5956 75.688 30.7959 75.725 31.0459C75.942 32.4659 76.233 33.6858 76.596 34.6958C76.995 35.7158 77.594 36.6057 78.392 37.3657C79.191 38.0957 80.279 38.4556 81.659 38.4556C82.747 38.4556 83.637 38.106 84.326 37.416C85.052 36.696 85.578 35.9157 85.905 35.0757C86.268 34.2057 86.54 33.396 86.721 32.626C86.903 31.826 87.175 31.3059 87.538 31.0459C87.937 30.7959 88.373 30.7457 88.845 30.8857C89.316 31.0357 89.661 31.3557 89.879 31.8657C90.097 32.3357 90.024 32.9558 89.661 33.7158C89.08 34.9158 88.482 36.0058 87.865 36.9858C87.248 37.9658 86.413 38.8558 85.36 39.6558ZM14.209 24.7358C15.443 23.2858 17.421 21.8859 20.142 20.5459C22.502 19.3859 24.135 18.3257 25.042 17.3857C25.949 16.4457 26.403 15.3856 26.403 14.2256C26.403 13.5356 26.131 12.9558 25.586 12.4858C25.042 12.0158 24.407 11.7759 23.681 11.7759C22.774 11.7759 21.758 12.0158 20.632 12.4858C19.544 12.9258 18.146 13.5956 16.441 14.4956C14.372 15.5856 12.594 16.4259 11.106 17.0059C9.618 17.5859 8.148 17.876 6.696 17.876C5.607 17.876 4.537 17.5859 3.484 17.0059C2.468 16.4259 1.633 15.6057 0.98 14.5557C0.327 13.5057 0 12.2858 0 10.9058C0 9.38576 0.327 8.1157 0.98 7.0957C1.669 6.0757 2.486 5.2457 3.43 4.5957C4.156 4.1257 4.809 3.70594 5.389 3.33594C5.97 2.94594 6.496 2.5558 6.968 2.1958C7.73 1.6558 8.293 1.27566 8.656 1.05566C9.055 0.835664 9.418 0.725586 9.745 0.725586C10.362 0.725586 10.87 0.925684 11.269 1.32568C11.704 1.68568 11.922 2.1957 11.922 2.8457C11.922 3.3557 11.614 3.81582 10.997 4.21582C10.416 4.57582 9.491 5.02568 8.22 5.57568C7.748 5.78568 7.259 6.02588 6.75 6.27588C6.242 6.49588 5.734 6.7559 5.226 7.0459C4.319 7.5159 3.539 8.136 2.885 8.896C2.232 9.656 1.905 10.5056 1.905 11.4556C1.905 12.1456 2.141 12.886 2.613 13.686C3.085 14.446 3.847 14.8257 4.9 14.8257C5.698 14.8257 6.569 14.6256 7.513 14.2256C8.492 13.8256 9.781 13.1957 11.378 12.3257C13.446 11.1957 15.261 10.3256 16.822 9.70557C18.419 9.09557 20.015 8.78564 21.612 8.78564C23.1 8.78564 24.352 9.18584 25.369 9.98584C26.385 10.7758 27.147 11.7457 27.655 12.8657C28.163 13.9957 28.417 15.006 28.417 15.916C28.417 17.226 28.145 18.316 27.601 19.186C27.056 20.056 26.33 20.796 25.423 21.416C24.552 21.996 23.227 22.736 21.449 23.646C20.687 24.046 19.907 24.466 19.108 24.896C18.31 25.336 17.493 25.8059 16.658 26.3159C15.57 27.0059 14.807 27.5857 14.372 28.0557C13.936 28.4957 13.719 29.086 13.719 29.856V31.436C13.719 31.646 13.646 31.8158 13.501 31.9258C13.392 32.0258 13.247 32.0859 13.065 32.0859C12.884 32.0859 12.721 32.0258 12.575 31.9258C12.467 31.7758 12.412 31.616 12.412 31.436V29.2559C12.412 27.6959 13.011 26.1858 14.209 24.7358ZM130.708 26.9658C130.89 27.0758 130.98 27.2556 130.98 27.5156C131.017 27.8056 130.944 28.0358 130.763 28.2158C130.617 28.3658 130.4 28.5256 130.109 28.7056C128.803 29.3956 127.569 29.966 126.407 30.396C125.282 30.796 124.012 30.9956 122.597 30.9956C120.964 30.9956 119.439 30.6358 118.024 29.9058C116.645 29.1858 115.538 28.166 114.703 26.856C113.868 25.556 113.451 24.0459 113.451 22.3359C113.451 20.9259 113.687 19.616 114.159 18.416C114.63 17.226 115.284 16.1656 116.118 15.2656C116.989 14.3156 118.006 13.5959 119.167 13.0859C119.857 12.7559 120.582 12.5057 121.345 12.3257C122.143 12.1457 122.96 12.0356 123.794 11.9956C125.718 11.8856 127.242 11.9756 128.367 12.2656C129.492 12.5556 130.363 12.936 130.98 13.416C131.162 13.556 131.307 13.7158 131.416 13.9058C131.525 14.0458 131.615 14.1959 131.688 14.3359C131.724 14.4459 131.706 14.5758 131.634 14.7158C131.597 14.8258 131.525 14.9158 131.416 14.9858C131.307 15.0258 131.18 15.0258 131.035 14.9858C130.926 14.9158 130.835 14.8857 130.763 14.8857C130.69 14.8457 130.581 14.8059 130.436 14.7759C129.964 14.4859 129.42 14.2657 128.803 14.1157C128.222 13.9357 127.532 13.796 126.734 13.686C125.936 13.576 125.065 13.576 124.121 13.686C123.395 13.796 122.687 13.9756 121.998 14.2256C121.308 14.4856 120.655 14.8056 120.038 15.2056C119.421 15.6456 118.877 16.1656 118.405 16.7856C117.969 17.3656 117.625 18.0958 117.371 18.9658C117.116 19.7958 116.989 20.7459 116.989 21.7959C116.989 23.5359 117.498 24.986 118.514 26.146C119.566 27.316 120.782 28.0159 122.161 28.2759C122.306 28.3059 122.452 28.3457 122.597 28.3857H123.141C124.121 28.3857 125.046 28.2757 125.917 28.0557C126.825 27.8357 127.823 27.546 128.912 27.186C129.129 27.076 129.347 26.986 129.565 26.916C129.783 26.836 129.946 26.8057 130.055 26.8057C130.309 26.7657 130.527 26.8258 130.708 26.9658ZM56.399 14.1157C57.778 12.4457 59.339 11.6157 61.081 11.6157C62.097 11.6157 63.113 11.956 64.129 12.646C65.145 13.306 66.071 14.2258 66.906 15.4258C67.74 16.6258 68.43 18.0059 68.974 19.5659C69.01 19.5959 69.029 19.6556 69.029 19.7256C69.065 19.7656 69.083 19.8157 69.083 19.8857C69.119 20.1757 69.101 20.4556 69.029 20.7056C68.956 20.9256 68.793 21.0559 68.539 21.0859C68.502 21.1259 68.466 21.146 68.43 21.146H68.375C68.158 21.176 67.958 21.1256 67.777 20.9756C67.595 20.8356 67.45 20.636 67.341 20.376L66.797 19.126C66.071 17.566 65.254 16.2257 64.347 15.0957C63.44 13.9757 62.369 13.416 61.135 13.416C60.046 13.416 59.121 14.0256 58.359 15.2656C57.597 16.4956 57.016 18.126 56.617 20.166C56.254 22.156 56.072 24.2856 56.072 26.5356C56.072 29.1056 56.326 31.2456 56.834 32.9556C57.379 34.6656 58.05 35.9158 58.849 36.7158C59.683 37.5058 60.518 37.9058 61.353 37.9058C62.986 37.9058 64.22 37.4057 65.055 36.3857C65.889 35.3357 66.525 34.2059 66.96 33.0059L67.069 32.7358C67.141 32.6258 67.232 32.516 67.341 32.416C67.45 32.266 67.577 32.1958 67.722 32.1958C68.013 32.1958 68.194 32.3056 68.266 32.5156C68.375 32.7356 68.394 32.9558 68.321 33.1758C67.777 35.7458 66.851 37.6758 65.545 38.9458C64.238 40.1758 62.641 40.7959 60.754 40.7959C58.939 40.7959 57.379 40.1557 56.072 38.8857C54.766 37.6157 53.768 35.966 53.078 33.936C52.425 31.906 52.098 29.7456 52.098 27.4556C52.098 25.1356 52.479 22.7557 53.241 20.3257C54.004 17.8557 55.056 15.7857 56.399 14.1157ZM126.952 39.4858C125.827 40.3258 124.538 40.7358 123.087 40.7358C121.417 40.7358 119.984 40.4457 118.786 39.8657C117.625 39.2857 116.699 38.5457 116.01 37.6357C115.32 36.6957 114.794 35.6556 114.431 34.5356C114.286 34.0656 114.231 33.6456 114.268 33.2856C114.34 32.8856 114.467 32.576 114.649 32.356C114.866 32.136 115.084 31.9757 115.302 31.8657C115.556 31.7957 115.828 31.7957 116.118 31.8657C116.409 31.9057 116.681 32.0457 116.935 32.3057C117.225 32.5557 117.443 32.9556 117.588 33.4956C117.915 34.4456 118.278 35.2558 118.677 35.9458C119.076 36.6058 119.639 37.1459 120.365 37.5859C121.091 37.9859 121.998 38.186 123.087 38.186C123.74 38.186 124.411 38.076 125.101 37.856C125.79 37.606 126.444 37.2559 127.061 36.8159C127.714 36.3459 128.295 35.8256 128.803 35.2456C129.021 34.9556 129.238 34.7359 129.456 34.5859C129.674 34.4459 129.91 34.466 130.164 34.646C130.418 34.826 130.49 35.0557 130.381 35.3457C130.309 35.6457 130.2 35.8957 130.055 36.1157C129.111 37.4957 128.077 38.6158 126.952 39.4858ZM110.293 30.7759C110.33 32.5959 110.348 35.4058 110.348 39.2158C110.348 40.0158 110.203 40.6658 109.912 41.1758C109.622 41.6858 109.168 41.936 108.551 41.936C107.971 41.936 107.481 41.7359 107.082 41.3359C106.719 40.9359 106.519 40.2657 106.483 39.3257C106.446 37.5457 106.41 34.2957 106.374 29.5757V18.4756C106.374 17.3156 105.92 16.2456 105.013 15.2656C104.142 14.2856 102.763 13.7959 100.876 13.7959C99.351 13.7959 98.135 14.3059 97.228 15.3159C96.357 16.2959 95.922 17.476 95.922 18.856C95.922 20.926 95.903 22.4856 95.867 23.5356V28.3257C95.831 29.3457 95.813 30.3256 95.813 31.2656V33.9858C95.813 34.6058 95.613 35.1359 95.214 35.5659C94.815 36.0059 94.288 36.2256 93.635 36.2256C93.163 36.2256 92.782 36.026 92.492 35.626C92.202 35.226 92.056 34.6959 92.056 34.0459C92.056 31.5759 92.038 29.7459 92.002 28.5459V20.5459C92.002 19.3859 92.329 18.1457 92.982 16.8457C93.635 15.5357 94.615 14.4256 95.922 13.5156C97.264 12.6156 98.898 12.1558 100.821 12.1558C102.853 12.1558 104.596 12.5958 106.047 13.4658C107.499 14.3058 108.57 15.3359 109.259 16.5659C109.949 17.7659 110.293 18.9056 110.293 19.9956V30.7759ZM47.906 23.9756C49.213 26.0056 49.866 28.1859 49.866 30.5059C49.866 32.5359 49.394 34.3159 48.451 35.8359C47.507 37.3659 46.201 38.566 44.531 39.436C42.898 40.266 41.011 40.686 38.87 40.686C38.107 40.686 37.254 40.6158 36.311 40.4658C35.404 40.3258 34.533 40.1458 33.698 39.9258C32.899 39.7058 32.282 39.4658 31.847 39.2158C31.593 39.0658 31.393 38.9259 31.248 38.7759C31.103 38.5959 31.03 38.3058 31.03 37.9058L30.758 29.3657C30.722 28.6357 30.976 28.2759 31.52 28.2759C31.919 28.2759 32.192 28.5959 32.337 29.2559L33.153 32.7358C33.952 36.0058 36.256 38.126 40.067 39.106C42.317 39.066 43.914 38.1956 44.858 36.4956C45.838 34.7856 46.328 32.8257 46.328 30.6157C46.328 28.4757 45.801 26.566 44.749 24.896C43.696 23.226 41.9 21.4858 39.359 19.6758C36.565 17.7458 34.478 15.8456 33.099 13.9556C31.72 12.0656 31.03 10.1057 31.03 8.07568C31.03 5.97568 31.956 4.17604 33.807 2.68604C35.694 1.19604 37.962 0.455566 40.612 0.455566C41.773 0.455566 42.989 0.585938 44.259 0.835938C45.566 1.08594 46.564 1.45578 47.253 1.92578C47.471 2.06578 47.634 2.23602 47.743 2.41602C47.888 2.59602 47.961 2.83598 47.961 3.12598L48.179 10.5859C48.215 11.1659 48.033 11.4556 47.634 11.4556C47.199 11.4156 46.945 11.1457 46.872 10.6357L46.545 8.23584C46.364 6.67584 45.747 5.20568 44.694 3.82568C43.642 2.45568 42.208 1.76562 40.394 1.76562C38.724 1.76562 37.309 2.3258 36.148 3.4458C34.986 4.5758 34.406 6.06602 34.406 7.91602C34.406 9.47602 34.95 10.966 36.039 12.376C37.127 13.796 39.015 15.5159 41.7 17.5459C44.531 19.7659 46.6 21.9056 47.906 23.9756ZM60.645 23.8057C61.008 23.4057 61.48 23.2158 62.06 23.2158C62.569 23.2158 63.004 23.4057 63.367 23.8057C63.766 24.1757 63.966 24.626 63.966 25.166C63.966 25.676 63.766 26.1356 63.367 26.5356C63.004 26.8956 62.569 27.0757 62.06 27.0757C61.516 27.0757 61.044 26.8956 60.645 26.5356C60.282 26.1356 60.101 25.676 60.101 25.166C60.101 24.626 60.282 24.1757 60.645 23.8057ZM11.759 36.606C12.158 36.206 12.612 36.0059 13.12 36.0059C13.628 36.0059 14.063 36.206 14.426 36.606C14.826 36.966 15.025 37.4158 15.025 37.9658C15.025 38.4758 14.826 38.9257 14.426 39.3257C14.063 39.6857 13.628 39.8657 13.12 39.8657C12.612 39.8657 12.158 39.6857 11.759 39.3257C11.36 38.9257 11.16 38.4758 11.16 37.9658C11.16 37.4158 11.36 36.966 11.759 36.606Z" fill="black"/>
</svg>
