<svg width="132" height="43" viewBox="0 0 132 43" fill="none" xmlns="http://www.w3.org/2000/svg">
<path fill-rule="evenodd" clip-rule="evenodd" d="M82.53 27.3457H82.094C80.098 27.3457 78.32 27.0959 76.759 26.5859C75.198 26.0459 73.765 25.4258 72.458 24.7358C72.313 24.6958 72.186 24.666 72.077 24.626C72.005 24.556 71.896 24.4858 71.751 24.4058C71.388 24.2258 71.116 23.9958 70.934 23.6958C70.753 23.3758 70.716 23.1057 70.825 22.8857C70.934 22.6257 71.116 22.466 71.37 22.396C71.624 22.326 71.932 22.3957 72.295 22.6157C72.549 22.7557 72.749 22.9059 72.894 23.0459C73.039 23.1559 73.257 23.2858 73.547 23.4258C74.963 24.1158 76.215 24.6459 77.303 25.0059C78.429 25.3359 79.699 25.4459 81.114 25.3359C82.566 25.2259 83.528 24.7756 83.999 23.9756C84.471 23.1756 84.707 21.976 84.707 20.376C84.707 18.816 84.435 17.2957 83.891 15.8057C83.382 14.2857 82.403 13.5156 80.951 13.5156C79.935 13.5156 79.009 13.9158 78.174 14.7158C77.34 15.5158 76.65 16.8257 76.106 18.6357C76.033 18.7457 75.997 18.8358 75.997 18.9058C75.997 18.9858 75.979 19.076 75.942 19.186C75.761 19.836 75.525 20.3759 75.235 20.8159C74.944 21.2559 74.527 21.4658 73.983 21.4658C73.511 21.4658 73.148 21.3459 72.894 21.0859C72.64 20.7959 72.477 20.4557 72.404 20.0557C72.368 19.6557 72.386 19.3056 72.458 19.0156C72.676 18.2156 73.148 17.2956 73.874 16.2456C74.6 15.1556 75.561 14.206 76.759 13.416C77.993 12.616 79.427 12.2158 81.06 12.2158C82.33 12.2158 83.51 12.5257 84.598 13.1357C85.723 13.7557 86.631 14.6958 87.32 15.9658C88.01 17.2058 88.355 18.696 88.355 20.436C88.355 21.846 88.082 23.0459 87.538 24.0259C87.03 25.0059 86.358 25.7659 85.524 26.3159C84.725 26.8559 83.854 27.1859 82.911 27.2959C82.802 27.3259 82.675 27.3457 82.53 27.3457ZM85.251 39.6558C84.235 40.4158 83.019 40.7959 81.604 40.7959C79.1 40.7959 77.068 40.1056 75.507 38.7256C73.983 37.3056 72.912 35.8256 72.295 34.2656C71.678 32.7056 71.297 31.3756 71.152 30.2856C71.079 29.8556 71.097 29.4356 71.206 29.0356C71.351 28.6356 71.587 28.326 71.914 28.106C72.241 27.856 72.658 27.7256 73.166 27.7256C73.783 27.7256 74.255 27.9059 74.582 28.2759C74.908 28.5959 75.144 29.0159 75.289 29.5259V29.7456C75.326 29.7756 75.344 29.8358 75.344 29.9058C75.416 30.1658 75.453 30.3559 75.453 30.5059C75.489 30.6559 75.543 30.846 75.616 31.106C75.834 32.486 76.124 33.6858 76.487 34.6958C76.886 35.7158 77.485 36.6057 78.283 37.3657C79.118 38.0957 80.225 38.4556 81.604 38.4556C82.657 38.4556 83.546 38.106 84.272 37.416C84.998 36.726 85.524 35.9657 85.85 35.1357C86.213 34.2957 86.504 33.4958 86.721 32.7358C86.903 31.9358 87.175 31.4358 87.538 31.2158C87.901 30.9558 88.318 30.9059 88.79 31.0459C89.262 31.1959 89.607 31.5259 89.824 32.0259C90.078 32.5059 90.024 33.1157 89.661 33.8857C89.008 35.0757 88.373 36.1457 87.756 37.0957C87.139 38.0357 86.304 38.8858 85.251 39.6558ZM14.209 24.7358C15.443 23.2858 17.421 21.8859 20.142 20.5459C22.502 19.3859 24.135 18.3257 25.042 17.3857C25.949 16.4457 26.403 15.3856 26.403 14.2256C26.403 13.5356 26.131 12.9558 25.586 12.4858C25.042 12.0158 24.407 11.7759 23.681 11.7759C22.774 11.7759 21.758 12.0158 20.632 12.4858C19.544 12.9258 18.146 13.5956 16.441 14.4956C14.372 15.5856 12.594 16.4259 11.106 17.0059C9.618 17.5859 8.148 17.876 6.696 17.876C5.607 17.876 4.537 17.5859 3.484 17.0059C2.468 16.4259 1.633 15.6057 0.98 14.5557C0.327 13.5057 0 12.2858 0 10.9058C0 9.38576 0.327 8.1157 0.98 7.0957C1.669 6.0757 2.486 5.2457 3.43 4.5957C4.156 4.1257 4.809 3.70594 5.389 3.33594C5.97 2.94594 6.496 2.5558 6.968 2.1958C7.73 1.6558 8.293 1.27566 8.656 1.05566C9.055 0.835664 9.418 0.725586 9.745 0.725586C10.362 0.725586 10.87 0.925684 11.269 1.32568C11.704 1.68568 11.922 2.1957 11.922 2.8457C11.922 3.3557 11.614 3.81582 10.997 4.21582C10.416 4.57582 9.491 5.02568 8.22 5.57568C7.748 5.78568 7.259 6.02588 6.75 6.27588C6.242 6.49588 5.734 6.7559 5.226 7.0459C4.319 7.5159 3.539 8.136 2.885 8.896C2.232 9.656 1.905 10.5056 1.905 11.4556C1.905 12.1456 2.141 12.886 2.613 13.686C3.085 14.446 3.847 14.8257 4.9 14.8257C5.698 14.8257 6.569 14.6256 7.513 14.2256C8.492 13.8256 9.781 13.1957 11.378 12.3257C13.446 11.1957 15.261 10.3256 16.822 9.70557C18.419 9.09557 20.015 8.78564 21.612 8.78564C23.1 8.78564 24.352 9.18584 25.369 9.98584C26.385 10.7758 27.147 11.7457 27.655 12.8657C28.163 13.9957 28.417 15.006 28.417 15.916C28.417 17.226 28.145 18.316 27.601 19.186C27.056 20.056 26.33 20.796 25.423 21.416C24.552 21.996 23.227 22.736 21.449 23.646C20.687 24.046 19.907 24.466 19.108 24.896C18.31 25.336 17.493 25.8059 16.658 26.3159C15.57 27.0059 14.807 27.5857 14.372 28.0557C13.936 28.4957 13.719 29.086 13.719 29.856V31.436C13.719 31.646 13.646 31.8158 13.501 31.9258C13.392 32.0258 13.247 32.0859 13.065 32.0859C12.884 32.0859 12.721 32.0258 12.575 31.9258C12.467 31.7758 12.412 31.616 12.412 31.436V29.2559C12.412 27.6959 13.011 26.1858 14.209 24.7358ZM130.436 27.0757C130.617 27.1857 130.726 27.3657 130.763 27.6157C130.799 27.9057 130.726 28.1457 130.545 28.3257C130.363 28.4757 130.146 28.6359 129.892 28.8159C128.585 29.5059 127.351 30.0556 126.19 30.4556C125.065 30.8456 123.812 31.0459 122.433 31.0459C120.8 31.0459 119.294 30.6858 117.915 29.9658C116.536 29.2358 115.429 28.216 114.594 26.916C113.796 25.606 113.397 24.1158 113.397 22.4458C113.397 20.9958 113.614 19.6756 114.05 18.4756C114.522 17.2756 115.175 16.2259 116.01 15.3159C116.881 14.3759 117.915 13.6259 119.113 13.0859C119.802 12.7559 120.528 12.5057 121.29 12.3257C122.052 12.1457 122.851 12.0356 123.685 11.9956C125.609 11.8556 127.133 11.9058 128.258 12.1558C129.383 12.3758 130.254 12.6659 130.871 13.0259C131.017 13.1359 131.144 13.266 131.252 13.416C131.398 13.556 131.488 13.7057 131.525 13.8457C131.561 13.9557 131.561 14.0856 131.525 14.2256C131.488 14.3356 131.416 14.4256 131.307 14.4956C131.234 14.5356 131.125 14.5356 130.98 14.4956C130.871 14.4656 130.781 14.4458 130.708 14.4458C130.636 14.4058 130.527 14.3759 130.381 14.3359C129.91 14.1159 129.383 13.9557 128.803 13.8457C128.222 13.7357 127.532 13.6457 126.734 13.5757C125.936 13.5057 125.065 13.516 124.121 13.626C123.323 13.776 122.579 13.9756 121.889 14.2256C121.199 14.4856 120.546 14.8256 119.929 15.2656C119.312 15.6956 118.768 16.2257 118.296 16.8457C117.86 17.4557 117.516 18.2057 117.262 19.0757C117.044 19.9057 116.935 20.8656 116.935 21.9556C116.935 23.6656 117.443 25.0959 118.459 26.2559C119.476 27.4159 120.673 28.1257 122.052 28.3857C122.197 28.4157 122.343 28.4556 122.488 28.4956H123.032C123.976 28.4956 124.883 28.386 125.754 28.166C126.625 27.946 127.587 27.6559 128.639 27.2959C128.893 27.1859 129.129 27.1157 129.347 27.0757C129.565 27.0057 129.728 26.9658 129.837 26.9658C130.091 26.8958 130.291 26.9357 130.436 27.0757ZM56.236 14.1157C57.615 12.4457 59.175 11.6157 60.917 11.6157C61.934 11.6157 62.95 11.956 63.966 12.646C64.982 13.306 65.908 14.2258 66.742 15.4258C67.613 16.6258 68.339 18.0059 68.92 19.5659C68.956 19.5959 68.974 19.6556 68.974 19.7256C69.01 19.7656 69.029 19.8157 69.029 19.8857C69.101 20.1457 69.083 20.3958 68.974 20.6558C68.902 20.8658 68.738 21.0159 68.484 21.0859C68.448 21.0859 68.412 21.106 68.375 21.146H68.321C68.103 21.176 67.904 21.1256 67.722 20.9756C67.541 20.8356 67.396 20.656 67.287 20.436L66.742 19.186C65.98 17.586 65.127 16.2257 64.184 15.0957C63.276 13.9757 62.206 13.416 60.972 13.416C59.883 13.416 58.958 14.0256 58.195 15.2656C57.469 16.4956 56.907 18.116 56.508 20.106C56.145 22.106 55.963 24.2456 55.963 26.5356C55.963 29.1056 56.217 31.2456 56.725 32.9556C57.27 34.6656 57.941 35.9158 58.74 36.7158C59.574 37.5058 60.409 37.9058 61.244 37.9058C62.877 37.9058 64.111 37.4057 64.946 36.3857C65.781 35.3357 66.416 34.2059 66.851 33.0059L66.96 32.7358C67.033 32.6258 67.123 32.516 67.232 32.416C67.341 32.266 67.468 32.1958 67.613 32.1958C67.904 32.1958 68.085 32.3056 68.158 32.5156C68.266 32.7356 68.285 32.9558 68.212 33.1758C67.668 35.7458 66.742 37.6758 65.436 38.9458C64.129 40.1758 62.532 40.7959 60.645 40.7959C58.83 40.7959 57.27 40.1557 55.963 38.8857C54.657 37.6157 53.659 35.966 52.969 33.936C52.316 31.906 51.989 29.7456 51.989 27.4556C51.989 25.1356 52.352 22.7557 53.078 20.3257C53.84 17.8557 54.893 15.7857 56.236 14.1157ZM126.734 39.5459C125.609 40.3459 124.339 40.7358 122.923 40.7358C121.254 40.7358 119.82 40.4658 118.623 39.9258C117.461 39.3458 116.518 38.5958 115.792 37.6958C115.102 36.7458 114.576 35.7159 114.213 34.5859C114.068 34.1159 114.013 33.6856 114.05 33.2856C114.122 32.8856 114.249 32.576 114.431 32.356C114.612 32.136 114.812 31.9958 115.03 31.9258C115.284 31.8158 115.556 31.7957 115.846 31.8657C116.137 31.9057 116.409 32.0457 116.663 32.3057C116.953 32.5557 117.189 32.9556 117.371 33.4956C117.661 34.4756 118.024 35.2958 118.459 35.9458C118.895 36.6058 119.476 37.1459 120.201 37.5859C120.927 37.9859 121.835 38.186 122.923 38.186C123.577 38.186 124.23 38.076 124.883 37.856C125.573 37.636 126.244 37.306 126.897 36.876C127.551 36.436 128.149 35.9357 128.694 35.3457C128.875 35.0957 129.075 34.8959 129.293 34.7559C129.547 34.6059 129.801 34.646 130.055 34.856C130.309 35.046 130.381 35.2759 130.273 35.5659C130.164 35.8559 130.037 36.0959 129.892 36.2759C128.912 37.6159 127.859 38.7059 126.734 39.5459ZM110.185 30.8359C110.221 32.6859 110.239 35.536 110.239 39.376C110.239 40.176 110.094 40.8359 109.804 41.3359C109.513 41.8459 109.06 42.106 108.443 42.106C107.862 42.106 107.372 41.9059 106.973 41.5059C106.61 41.1059 106.41 40.4358 106.374 39.4858C106.338 37.6758 106.301 34.406 106.265 29.686V18.4756C106.265 17.3156 105.811 16.2456 104.904 15.2656C104.033 14.2856 102.636 13.7959 100.712 13.7959C99.224 13.7959 98.027 14.3059 97.119 15.3159C96.248 16.2959 95.813 17.476 95.813 18.856C95.813 20.886 95.795 22.4158 95.758 23.4258V28.106C95.722 29.126 95.704 30.0856 95.704 30.9956V33.7158C95.704 34.2958 95.486 34.8056 95.051 35.2456C94.651 35.6456 94.143 35.8359 93.526 35.8359C93.054 35.8359 92.673 35.6456 92.383 35.2456C92.093 34.8456 91.948 34.3358 91.948 33.7158C91.948 31.3258 91.929 29.5457 91.893 28.3857V20.5459C91.893 19.3859 92.22 18.1457 92.873 16.8457C93.526 15.5357 94.506 14.4256 95.813 13.5156C97.156 12.6156 98.789 12.1558 100.712 12.1558C102.745 12.1558 104.468 12.5958 105.884 13.4658C107.336 14.3058 108.406 15.3359 109.096 16.5659C109.822 17.7659 110.185 18.9056 110.185 19.9956V30.8359ZM47.798 23.9756C49.104 26.0056 49.757 28.1859 49.757 30.5059C49.757 32.5359 49.286 34.3159 48.342 35.8359C47.398 37.3659 46.092 38.566 44.422 39.436C42.789 40.266 40.902 40.686 38.761 40.686C37.998 40.686 37.146 40.6158 36.202 40.4658C35.295 40.3258 34.424 40.1458 33.589 39.9258C32.79 39.7058 32.173 39.4658 31.738 39.2158C31.484 39.0658 31.284 38.9259 31.139 38.7759C30.994 38.5959 30.921 38.3058 30.921 37.9058L30.649 29.3657C30.613 28.6357 30.867 28.2759 31.411 28.2759C31.811 28.2759 32.083 28.5959 32.228 29.2559L33.045 32.8457C33.843 36.1157 36.148 38.196 39.958 39.106C42.208 39.066 43.805 38.1956 44.749 36.4956C45.729 34.7856 46.219 32.8257 46.219 30.6157C46.219 28.4757 45.693 26.566 44.64 24.896C43.624 23.196 41.846 21.4357 39.305 19.6157C36.51 17.6957 34.406 15.8056 32.99 13.9556C31.611 12.0656 30.921 10.1057 30.921 8.07568C30.921 5.97568 31.847 4.17604 33.698 2.68604C35.585 1.19604 37.853 0.455566 40.503 0.455566C41.664 0.455566 42.88 0.585938 44.15 0.835938C45.457 1.08594 46.455 1.45578 47.144 1.92578C47.362 2.06578 47.525 2.23602 47.634 2.41602C47.779 2.59602 47.852 2.83598 47.852 3.12598L48.07 10.416C48.106 10.966 47.925 11.2358 47.525 11.2358C47.126 11.2358 46.89 10.9756 46.818 10.4756L46.491 8.13574C46.31 6.56574 45.674 5.11588 44.586 3.77588C43.533 2.43588 42.1 1.76562 40.285 1.76562C38.615 1.76562 37.2 2.3258 36.039 3.4458C34.877 4.5758 34.297 6.06602 34.297 7.91602C34.297 9.47602 34.841 10.966 35.93 12.376C37.019 13.796 38.906 15.5159 41.591 17.5459C44.422 19.7659 46.491 21.9056 47.798 23.9756ZM60.536 23.8057C60.899 23.4057 61.371 23.2158 61.952 23.2158C62.46 23.2158 62.895 23.4057 63.258 23.8057C63.657 24.1757 63.857 24.626 63.857 25.166C63.857 25.676 63.657 26.1356 63.258 26.5356C62.895 26.8956 62.46 27.0757 61.952 27.0757C61.407 27.0757 60.935 26.8956 60.536 26.5356C60.173 26.1356 59.992 25.676 59.992 25.166C59.992 24.626 60.173 24.1757 60.536 23.8057ZM11.759 36.6558C12.158 36.2558 12.612 36.0557 13.12 36.0557C13.628 36.0557 14.063 36.2558 14.426 36.6558C14.826 37.0158 15.025 37.4756 15.025 38.0156C15.025 38.5256 14.826 38.976 14.426 39.376C14.063 39.746 13.628 39.9258 13.12 39.9258C12.612 39.9258 12.158 39.746 11.759 39.376C11.36 38.976 11.16 38.5256 11.16 38.0156C11.16 37.4756 11.36 37.0158 11.759 36.6558Z" fill="black"/>
</svg>
