<svg width="132" height="43" viewBox="0 0 132 43" fill="none" xmlns="http://www.w3.org/2000/svg">
<path fill-rule="evenodd" clip-rule="evenodd" d="M82.312 27.5156H81.876C79.88 27.5156 78.084 27.2257 76.487 26.6357C74.926 26.0557 73.493 25.4058 72.186 24.6758C72.077 24.6058 71.968 24.5556 71.86 24.5156C71.787 24.4456 71.678 24.386 71.533 24.356C71.17 24.136 70.898 23.8857 70.716 23.5957C70.571 23.2657 70.553 22.9959 70.662 22.7759C70.771 22.5559 70.952 22.4159 71.206 22.3359C71.46 22.2659 71.769 22.3357 72.132 22.5557C72.386 22.7057 72.585 22.8456 72.731 22.9956C72.876 23.1356 73.094 23.3058 73.384 23.4858C74.763 24.1758 76.015 24.6959 77.14 25.0659C78.265 25.4259 79.535 25.5558 80.951 25.4458C82.403 25.3658 83.364 24.9159 83.836 24.0859C84.344 23.2459 84.598 22.016 84.598 20.376C84.598 18.816 84.326 17.2957 83.782 15.8057C83.274 14.2857 82.294 13.5156 80.842 13.5156C79.826 13.5156 78.882 13.9158 78.011 14.7158C77.176 15.5158 76.487 16.8257 75.942 18.6357C75.906 18.7457 75.87 18.8358 75.834 18.9058C75.834 18.9858 75.815 19.076 75.779 19.186C75.634 19.836 75.416 20.3957 75.126 20.8657C74.836 21.3057 74.418 21.5259 73.874 21.5259C73.402 21.5259 73.021 21.3759 72.731 21.0859C72.477 20.7959 72.313 20.466 72.241 20.106C72.204 19.706 72.222 19.3456 72.295 19.0156C72.513 18.2156 72.985 17.2956 73.71 16.2456C74.436 15.1856 75.416 14.2658 76.65 13.4658C77.884 12.6358 79.318 12.2158 80.951 12.2158C82.221 12.2158 83.401 12.5257 84.489 13.1357C85.614 13.7557 86.522 14.6958 87.211 15.9658C87.901 17.2058 88.246 18.696 88.246 20.436C88.246 21.846 87.974 23.0659 87.429 24.0859C86.921 25.0659 86.25 25.8458 85.415 26.4258C84.58 26.9658 83.691 27.2958 82.747 27.4058C82.602 27.4358 82.457 27.4756 82.312 27.5156ZM85.197 39.7056C84.181 40.4356 82.965 40.7959 81.55 40.7959C79.009 40.7959 76.959 40.1056 75.398 38.7256C73.874 37.3056 72.785 35.8256 72.132 34.2656C71.515 32.7056 71.134 31.3756 70.989 30.2856C70.952 29.8556 70.989 29.4356 71.097 29.0356C71.243 28.6356 71.478 28.326 71.805 28.106C72.132 27.856 72.549 27.7256 73.057 27.7256C73.674 27.7256 74.146 27.9059 74.473 28.2759C74.799 28.6359 75.035 29.0559 75.18 29.5259V29.7456C75.217 29.7756 75.235 29.8358 75.235 29.9058C75.307 30.1658 75.344 30.3559 75.344 30.5059C75.38 30.6559 75.434 30.846 75.507 31.106C75.725 32.516 76.015 33.7359 76.378 34.7559C76.777 35.7659 77.394 36.6357 78.229 37.3657C79.064 38.0957 80.152 38.4556 81.495 38.4556C82.584 38.4556 83.473 38.1256 84.163 37.4756C84.889 36.7856 85.433 36.0356 85.796 35.2456C86.159 34.4056 86.449 33.5859 86.667 32.7959C86.848 32.0259 87.121 31.5357 87.484 31.3257C87.883 31.1057 88.318 31.0658 88.79 31.2158C89.262 31.3558 89.607 31.6858 89.824 32.1958C90.042 32.6658 89.97 33.2658 89.607 33.9858C88.953 35.1858 88.318 36.2556 87.701 37.2056C87.084 38.1056 86.25 38.9456 85.197 39.7056ZM14.209 24.7358C15.443 23.2858 17.421 21.8859 20.142 20.5459C22.502 19.3859 24.135 18.3257 25.042 17.3857C25.949 16.4457 26.403 15.3856 26.403 14.2256C26.403 13.5356 26.131 12.9558 25.586 12.4858C25.042 12.0158 24.407 11.7759 23.681 11.7759C22.774 11.7759 21.758 12.0158 20.632 12.4858C19.544 12.9258 18.146 13.5956 16.441 14.4956C14.372 15.5856 12.594 16.4259 11.106 17.0059C9.618 17.5859 8.148 17.876 6.696 17.876C5.607 17.876 4.537 17.5859 3.484 17.0059C2.468 16.4259 1.633 15.6057 0.98 14.5557C0.327 13.5057 0 12.2858 0 10.9058C0 9.38576 0.327 8.1157 0.98 7.0957C1.669 6.0757 2.486 5.2457 3.43 4.5957C4.156 4.1257 4.809 3.70594 5.389 3.33594C5.97 2.94594 6.496 2.5558 6.968 2.1958C7.73 1.6558 8.293 1.27566 8.656 1.05566C9.055 0.835664 9.418 0.725586 9.745 0.725586C10.362 0.725586 10.87 0.925684 11.269 1.32568C11.704 1.68568 11.922 2.1957 11.922 2.8457C11.922 3.3557 11.614 3.81582 10.997 4.21582C10.416 4.57582 9.491 5.02568 8.22 5.57568C7.748 5.78568 7.259 6.02588 6.75 6.27588C6.242 6.49588 5.734 6.7559 5.226 7.0459C4.319 7.5159 3.539 8.136 2.885 8.896C2.232 9.656 1.905 10.5056 1.905 11.4556C1.905 12.1456 2.141 12.886 2.613 13.686C3.085 14.446 3.847 14.8257 4.9 14.8257C5.698 14.8257 6.569 14.6256 7.513 14.2256C8.492 13.8256 9.781 13.1957 11.378 12.3257C13.446 11.1957 15.261 10.3256 16.822 9.70557C18.419 9.09557 20.015 8.78564 21.612 8.78564C23.1 8.78564 24.352 9.18584 25.369 9.98584C26.385 10.7758 27.147 11.7457 27.655 12.8657C28.163 13.9957 28.417 15.006 28.417 15.916C28.417 17.226 28.145 18.316 27.601 19.186C27.056 20.056 26.33 20.796 25.423 21.416C24.552 21.996 23.227 22.736 21.449 23.646C20.687 24.046 19.907 24.466 19.108 24.896C18.31 25.336 17.493 25.8059 16.658 26.3159C15.57 27.0059 14.807 27.5857 14.372 28.0557C13.936 28.4957 13.719 29.086 13.719 29.856V31.436C13.719 31.646 13.646 31.8158 13.501 31.9258C13.392 32.0258 13.247 32.0859 13.065 32.0859C12.884 32.0859 12.721 32.0258 12.575 31.9258C12.467 31.7758 12.412 31.616 12.412 31.436V29.2559C12.412 27.6959 13.011 26.1858 14.209 24.7358ZM130.218 27.186C130.4 27.326 130.508 27.5256 130.545 27.7856C130.581 28.0756 130.508 28.296 130.327 28.436C130.146 28.586 129.91 28.7458 129.619 28.9258C128.349 29.5758 127.133 30.1059 125.972 30.5059C124.847 30.9059 123.613 31.106 122.27 31.106C120.637 31.106 119.131 30.7456 117.752 30.0156C116.409 29.2856 115.32 28.2959 114.485 27.0259C113.687 25.7159 113.288 24.2257 113.288 22.5557C113.288 21.1057 113.505 19.7859 113.941 18.5859C114.413 17.3459 115.066 16.276 115.901 15.376C116.772 14.426 117.806 13.6857 119.004 13.1357C119.693 12.8157 120.419 12.556 121.181 12.376C121.98 12.156 122.778 12.0356 123.577 11.9956C125.536 11.8156 127.061 11.8156 128.149 11.9956C129.275 12.1456 130.127 12.356 130.708 12.646C130.89 12.756 131.035 12.8859 131.144 13.0259C131.253 13.1359 131.343 13.246 131.416 13.356C131.452 13.466 131.452 13.5958 131.416 13.7358C131.416 13.8458 131.361 13.9359 131.252 14.0059C131.18 14.0459 131.071 14.0459 130.926 14.0059C130.853 13.9759 130.763 13.9556 130.654 13.9556H130.381C129.91 13.7756 129.383 13.6457 128.803 13.5757C128.222 13.5057 127.514 13.4658 126.68 13.4658C125.881 13.4258 125.01 13.4657 124.067 13.5757C123.268 13.7557 122.506 13.9956 121.78 14.2856C121.091 14.5356 120.455 14.8656 119.875 15.2656C119.258 15.7356 118.713 16.276 118.242 16.896C117.806 17.516 117.461 18.256 117.207 19.126C116.953 19.996 116.826 20.996 116.826 22.126C116.826 23.756 117.334 25.1559 118.35 26.3159C119.367 27.4759 120.564 28.186 121.943 28.436C122.089 28.476 122.234 28.5059 122.379 28.5459H122.923C123.831 28.5459 124.702 28.4358 125.536 28.2158C126.407 28.0058 127.369 27.7258 128.422 27.4058C128.676 27.3258 128.912 27.256 129.129 27.186C129.347 27.116 129.51 27.0757 129.619 27.0757C129.873 27.0057 130.073 27.036 130.218 27.186ZM56.072 14.1157C57.451 12.4457 59.012 11.6157 60.754 11.6157C61.77 11.6157 62.786 11.956 63.803 12.646C64.819 13.306 65.762 14.2258 66.633 15.4258C67.504 16.6258 68.248 17.9859 68.865 19.5059C68.902 19.5859 68.92 19.6358 68.92 19.6758C68.956 19.7058 68.974 19.7659 68.974 19.8359C69.047 20.1259 69.029 20.3958 68.92 20.6558C68.847 20.8658 68.702 21.0159 68.484 21.0859C68.448 21.0859 68.412 21.106 68.375 21.146H68.321C68.103 21.176 67.885 21.1456 67.668 21.0356C67.486 20.8856 67.341 20.686 67.232 20.436L66.688 19.186C65.926 17.586 65.055 16.2257 64.075 15.0957C63.131 13.9757 62.042 13.416 60.808 13.416C59.72 13.416 58.794 14.0256 58.032 15.2656C57.306 16.4956 56.762 18.116 56.399 20.106C56.036 22.106 55.854 24.2456 55.854 26.5356C55.854 29.1056 56.109 31.2456 56.617 32.9556C57.161 34.6656 57.832 35.9158 58.631 36.7158C59.466 37.5058 60.3 37.9058 61.135 37.9058C62.768 37.9058 64.002 37.4057 64.837 36.3857C65.672 35.3357 66.307 34.2059 66.742 33.0059L66.851 32.7358C66.924 32.6258 67.014 32.516 67.123 32.416C67.232 32.266 67.359 32.1958 67.504 32.1958C67.795 32.1958 67.976 32.3056 68.049 32.5156C68.158 32.7356 68.176 32.9558 68.103 33.1758C67.559 35.7458 66.633 37.6758 65.327 38.9458C64.02 40.1758 62.423 40.7959 60.536 40.7959C58.722 40.7959 57.161 40.1557 55.854 38.8857C54.548 37.6157 53.55 35.966 52.86 33.936C52.207 31.906 51.88 29.7456 51.88 27.4556C51.88 25.1356 52.243 22.7557 52.969 20.3257C53.695 17.8557 54.729 15.7857 56.072 14.1157ZM126.516 39.5957C125.391 40.3557 124.139 40.7358 122.76 40.7358C121.054 40.7358 119.603 40.4658 118.405 39.9258C117.244 39.3458 116.3 38.5958 115.574 37.6958C114.884 36.7858 114.358 35.766 113.995 34.646C113.814 34.176 113.741 33.7359 113.778 33.3359C113.85 32.9359 113.977 32.626 114.159 32.416C114.34 32.196 114.54 32.0258 114.757 31.9258C115.012 31.8458 115.284 31.8458 115.574 31.9258C115.864 31.9558 116.155 32.106 116.445 32.356C116.735 32.606 116.971 32.9956 117.153 33.4956C117.443 34.4756 117.806 35.3159 118.242 36.0059C118.677 36.6559 119.258 37.2057 119.984 37.6357C120.709 38.0357 121.635 38.2358 122.76 38.2358C123.377 38.2358 124.03 38.1258 124.72 37.9058C125.409 37.6958 126.081 37.3858 126.734 36.9858C127.387 36.5458 127.986 36.0556 128.531 35.5156C128.748 35.2556 128.966 35.0758 129.184 34.9658C129.438 34.8258 129.692 34.8459 129.946 35.0259C130.164 35.2059 130.218 35.4458 130.109 35.7358C130 36.0258 129.873 36.2756 129.728 36.4956C128.712 37.7656 127.641 38.7957 126.516 39.5957ZM110.076 30.9458C110.112 32.7958 110.13 35.6458 110.13 39.4858C110.13 40.2858 109.985 40.9358 109.695 41.4458C109.404 41.9558 108.951 42.2056 108.334 42.2056C107.753 42.2056 107.263 42.0057 106.864 41.6157C106.501 41.2457 106.301 40.5958 106.265 39.6558C106.229 37.8358 106.192 34.5356 106.156 29.7456V18.4756C106.156 17.3156 105.702 16.2456 104.795 15.2656C103.924 14.2856 102.527 13.7959 100.603 13.7959C99.115 13.7959 97.918 14.3059 97.01 15.3159C96.139 16.2959 95.704 17.476 95.704 18.856C95.704 20.856 95.686 22.3359 95.649 23.3159V27.896C95.613 28.876 95.595 29.8156 95.595 30.7256V33.396C95.595 33.936 95.377 34.426 94.942 34.856C94.542 35.296 94.034 35.5156 93.417 35.5156C92.946 35.5156 92.565 35.316 92.274 34.916C91.984 34.516 91.839 34.006 91.839 33.396C91.839 31.036 91.821 29.286 91.784 28.166V20.5459C91.784 19.3859 92.111 18.1457 92.764 16.8457C93.417 15.5357 94.397 14.4256 95.704 13.5156C97.047 12.6156 98.68 12.1558 100.603 12.1558C102.636 12.1558 104.36 12.5958 105.775 13.4658C107.227 14.3058 108.297 15.3359 108.987 16.5659C109.713 17.7659 110.076 18.9056 110.076 19.9956V30.9458ZM47.689 23.9756C48.995 26.0056 49.648 28.1859 49.648 30.5059C49.648 32.5359 49.177 34.3159 48.233 35.8359C47.289 37.3659 45.983 38.566 44.313 39.436C42.68 40.266 40.793 40.686 38.652 40.686C37.89 40.686 37.037 40.6158 36.093 40.4658C35.186 40.3258 34.315 40.1458 33.48 39.9258C32.682 39.7058 32.065 39.4658 31.629 39.2158C31.375 39.0658 31.175 38.9259 31.03 38.7759C30.885 38.5959 30.813 38.3058 30.813 37.9058L30.54 29.3657C30.504 28.6357 30.758 28.2759 31.302 28.2759C31.702 28.2759 31.974 28.5959 32.119 29.2559L32.99 32.9058C33.789 36.1658 36.075 38.236 39.849 39.106C42.1 39.066 43.696 38.1956 44.64 36.4956C45.62 34.7856 46.11 32.8257 46.11 30.6157C46.11 28.4757 45.602 26.5457 44.586 24.8457C43.606 23.1357 41.846 21.3759 39.305 19.5659C36.51 17.6359 34.387 15.7558 32.936 13.9058C31.52 12.0558 30.813 10.1057 30.813 8.07568C30.813 5.97568 31.738 4.17604 33.589 2.68604C35.476 1.19604 37.744 0.455566 40.394 0.455566C41.555 0.455566 42.771 0.585938 44.041 0.835938C45.348 1.08594 46.346 1.45578 47.035 1.92578C47.253 2.06578 47.416 2.23602 47.525 2.41602C47.67 2.59602 47.743 2.83598 47.743 3.12598L48.015 10.2559C48.015 10.7959 47.834 11.0757 47.471 11.0757C47.035 11.0757 46.781 10.8157 46.709 10.3057L46.437 8.07568C46.255 6.47568 45.62 5.02559 44.531 3.72559C43.442 2.41559 41.991 1.76562 40.176 1.76562C38.507 1.76562 37.091 2.3258 35.93 3.4458C34.768 4.5758 34.188 6.06602 34.188 7.91602C34.188 9.47602 34.732 10.966 35.821 12.376C36.91 13.796 38.797 15.5159 41.483 17.5459C44.313 19.7659 46.382 21.9056 47.689 23.9756ZM60.427 23.8057C60.79 23.4057 61.262 23.2158 61.843 23.2158C62.351 23.2158 62.786 23.4057 63.149 23.8057C63.548 24.1757 63.748 24.626 63.748 25.166C63.748 25.676 63.548 26.1356 63.149 26.5356C62.786 26.8956 62.351 27.0757 61.843 27.0757C61.298 27.0757 60.827 26.8956 60.427 26.5356C60.064 26.1356 59.883 25.676 59.883 25.166C59.883 24.626 60.064 24.1757 60.427 23.8057ZM11.759 36.7158C12.158 36.3158 12.612 36.1157 13.12 36.1157C13.628 36.1157 14.063 36.3158 14.426 36.7158C14.826 37.0758 15.025 37.5257 15.025 38.0757C15.025 38.5757 14.826 39.036 14.426 39.436C14.063 39.796 13.628 39.9756 13.12 39.9756C12.612 39.9756 12.158 39.796 11.759 39.436C11.36 39.036 11.16 38.5757 11.16 38.0757C11.16 37.5257 11.36 37.0758 11.759 36.7158Z" fill="black"/>
</svg>
