<svg width="132" height="43" viewBox="0 0 132 43" fill="none" xmlns="http://www.w3.org/2000/svg">
<path fill-rule="evenodd" clip-rule="evenodd" d="M82.094 27.6157H81.713C79.717 27.6157 77.902 27.3158 76.269 26.6958C74.672 26.0758 73.239 25.386 71.968 24.626C71.86 24.556 71.751 24.4958 71.642 24.4658C71.533 24.3858 71.424 24.3156 71.315 24.2456C70.989 24.0256 70.734 23.7758 70.553 23.4858C70.372 23.1558 70.353 22.886 70.499 22.666C70.607 22.446 70.789 22.3256 71.043 22.2856C71.297 22.2156 71.606 22.2859 71.968 22.5059C72.222 22.6859 72.422 22.8456 72.567 22.9956C72.749 23.1356 72.966 23.3058 73.221 23.4858C74.6 24.2058 75.852 24.776 76.977 25.166C78.102 25.566 79.372 25.6957 80.787 25.5557C82.275 25.4757 83.255 25.026 83.727 24.186C84.199 23.316 84.435 22.046 84.435 20.376C84.435 18.816 84.163 17.2957 83.618 15.8057C83.11 14.2857 82.13 13.5156 80.679 13.5156C79.699 13.5156 78.773 13.9158 77.902 14.7158C77.068 15.5158 76.378 16.8458 75.834 18.6958C75.761 18.7658 75.725 18.8558 75.725 18.9658C75.725 19.0358 75.707 19.106 75.67 19.186C75.489 19.876 75.253 20.4357 74.963 20.8657C74.709 21.3057 74.291 21.5259 73.71 21.5259C73.239 21.5259 72.876 21.396 72.622 21.146C72.368 20.856 72.204 20.526 72.132 20.166C72.095 19.766 72.114 19.3957 72.186 19.0757C72.368 18.2757 72.821 17.3459 73.547 16.2959C74.309 15.2059 75.289 14.2658 76.487 13.4658C77.721 12.6358 79.154 12.2158 80.787 12.2158C82.058 12.2158 83.237 12.5257 84.326 13.1357C85.451 13.7557 86.358 14.6958 87.048 15.9658C87.738 17.2058 88.082 18.696 88.082 20.436C88.082 21.846 87.81 23.0659 87.266 24.0859C86.758 25.0959 86.086 25.8956 85.251 26.4756C84.417 27.0556 83.51 27.4159 82.53 27.5659C82.421 27.6059 82.275 27.6157 82.094 27.6157ZM85.088 39.7056C84.072 40.4356 82.856 40.7959 81.441 40.7959C78.937 40.7959 76.904 40.1056 75.344 38.7256C73.783 37.3056 72.676 35.8256 72.023 34.2656C71.406 32.6656 71.025 31.3356 70.88 30.2856C70.807 29.8556 70.843 29.4559 70.989 29.0859C71.134 28.6959 71.351 28.386 71.642 28.166C71.968 27.906 72.386 27.7856 72.894 27.7856C73.511 27.7856 73.983 27.9657 74.309 28.3257C74.672 28.6557 74.926 29.0757 75.071 29.5757V29.7959C75.108 29.8359 75.126 29.8858 75.126 29.9658C75.162 30.2158 75.198 30.4157 75.235 30.5557C75.271 30.7057 75.307 30.9058 75.344 31.1558C75.598 32.5358 75.924 33.7359 76.324 34.7559C76.723 35.7659 77.322 36.6357 78.12 37.3657C78.955 38.0957 80.062 38.4556 81.441 38.4556C82.53 38.4556 83.419 38.1256 84.108 37.4756C84.834 36.8156 85.36 36.0959 85.687 35.2959C86.05 34.4959 86.358 33.6958 86.613 32.9058C86.794 32.1358 87.066 31.646 87.429 31.436C87.828 31.216 88.264 31.1757 88.736 31.3257C89.207 31.4657 89.552 31.7957 89.77 32.3057C89.988 32.7757 89.915 33.3757 89.552 34.0957C88.863 35.2957 88.209 36.3459 87.592 37.2559C86.975 38.1659 86.141 38.9756 85.088 39.7056ZM14.209 24.7358C15.443 23.2858 17.421 21.8859 20.142 20.5459C22.502 19.3859 24.135 18.3257 25.042 17.3857C25.949 16.4457 26.403 15.3856 26.403 14.2256C26.403 13.5356 26.131 12.9558 25.586 12.4858C25.042 12.0158 24.407 11.7759 23.681 11.7759C22.774 11.7759 21.758 12.0158 20.632 12.4858C19.544 12.9258 18.146 13.5956 16.441 14.4956C14.372 15.5856 12.594 16.4259 11.106 17.0059C9.618 17.5859 8.148 17.876 6.696 17.876C5.607 17.876 4.537 17.5859 3.484 17.0059C2.468 16.4259 1.633 15.6057 0.98 14.5557C0.327 13.5057 0 12.2858 0 10.9058C0 9.38576 0.327 8.1157 0.98 7.0957C1.669 6.0757 2.486 5.2457 3.43 4.5957C4.156 4.1257 4.809 3.70594 5.389 3.33594C5.97 2.94594 6.496 2.5558 6.968 2.1958C7.73 1.6558 8.293 1.27566 8.656 1.05566C9.055 0.835664 9.418 0.725586 9.745 0.725586C10.362 0.725586 10.87 0.925684 11.269 1.32568C11.704 1.68568 11.922 2.1957 11.922 2.8457C11.922 3.3557 11.614 3.81582 10.997 4.21582C10.416 4.57582 9.491 5.02568 8.22 5.57568C7.748 5.78568 7.259 6.02588 6.75 6.27588C6.242 6.49588 5.734 6.7559 5.226 7.0459C4.319 7.5159 3.539 8.136 2.885 8.896C2.232 9.656 1.905 10.5056 1.905 11.4556C1.905 12.1456 2.141 12.886 2.613 13.686C3.085 14.446 3.847 14.8257 4.9 14.8257C5.698 14.8257 6.569 14.6256 7.513 14.2256C8.492 13.8256 9.781 13.1957 11.378 12.3257C13.446 11.1957 15.261 10.3256 16.822 9.70557C18.419 9.09557 20.015 8.78564 21.612 8.78564C23.1 8.78564 24.352 9.18584 25.369 9.98584C26.385 10.7758 27.147 11.7457 27.655 12.8657C28.163 13.9957 28.417 15.006 28.417 15.916C28.417 17.226 28.145 18.316 27.601 19.186C27.056 20.056 26.33 20.796 25.423 21.416C24.552 21.996 23.227 22.736 21.449 23.646C20.687 24.046 19.907 24.466 19.108 24.896C18.31 25.336 17.493 25.8059 16.658 26.3159C15.57 27.0059 14.807 27.5857 14.372 28.0557C13.936 28.4957 13.719 29.086 13.719 29.856V31.436C13.719 31.646 13.646 31.8158 13.501 31.9258C13.392 32.0258 13.247 32.0859 13.065 32.0859C12.884 32.0859 12.721 32.0258 12.575 31.9258C12.467 31.7758 12.412 31.616 12.412 31.436V29.2559C12.412 27.6959 13.011 26.1858 14.209 24.7358ZM130 27.3457C130.182 27.4557 130.291 27.636 130.327 27.896C130.363 28.186 130.291 28.4157 130.109 28.5957C129.928 28.7457 129.692 28.8856 129.402 29.0356C128.131 29.6856 126.916 30.2157 125.754 30.6157C124.593 30.9757 123.359 31.1558 122.052 31.1558C120.455 31.1558 118.967 30.7959 117.588 30.0659C116.245 29.3459 115.175 28.3457 114.376 27.0757C113.578 25.7657 113.179 24.296 113.179 22.666C113.179 21.176 113.415 19.8357 113.886 18.6357C114.358 17.4057 115.012 16.316 115.846 15.376C116.717 14.426 117.733 13.6857 118.895 13.1357C119.584 12.8157 120.31 12.556 121.072 12.376C121.871 12.156 122.669 12.0158 123.468 11.9458C125.428 11.7558 126.952 11.7259 128.041 11.8359C129.166 11.9459 130.019 12.1057 130.599 12.3257C130.744 12.3557 130.871 12.4356 130.98 12.5356C131.125 12.6456 131.216 12.7557 131.252 12.8657C131.325 12.9757 131.343 13.1056 131.307 13.2456C131.307 13.3556 131.253 13.4456 131.144 13.5156C131.071 13.5556 130.98 13.5556 130.871 13.5156H130.654C130.581 13.5156 130.472 13.5357 130.327 13.5757C129.892 13.4257 129.365 13.356 128.748 13.356C128.168 13.326 127.46 13.3057 126.625 13.3057C125.827 13.3057 124.956 13.3957 124.012 13.5757C123.177 13.7557 122.397 13.9956 121.671 14.2856C120.982 14.5356 120.347 14.8859 119.766 15.3159C119.149 15.7859 118.604 16.3358 118.133 16.9458C117.697 17.5658 117.352 18.3258 117.098 19.2358C116.881 20.1058 116.772 21.1058 116.772 22.2358C116.772 23.8658 117.262 25.2658 118.242 26.4258C119.258 27.5858 120.455 28.2959 121.835 28.5459C121.98 28.5859 122.125 28.6158 122.27 28.6558H122.76C123.667 28.6558 124.538 28.5457 125.373 28.3257C126.244 28.1057 127.17 27.8356 128.149 27.5156C128.404 27.4356 128.639 27.3659 128.857 27.2959C129.075 27.2259 129.256 27.186 129.402 27.186C129.656 27.146 129.855 27.2057 130 27.3457ZM55.963 14.1157C57.306 12.4457 58.849 11.6157 60.591 11.6157C61.643 11.6157 62.678 11.956 63.694 12.646C64.71 13.306 65.653 14.2258 66.525 15.4258C67.396 16.6258 68.158 17.9859 68.811 19.5059C68.847 19.5459 68.865 19.5958 68.865 19.6758C68.865 19.7058 68.884 19.7659 68.92 19.8359C68.992 20.1259 68.992 20.3958 68.92 20.6558C68.847 20.8658 68.684 21.0159 68.43 21.0859C68.394 21.0859 68.357 21.106 68.321 21.146H68.266C68.049 21.176 67.849 21.1456 67.668 21.0356C67.486 20.8856 67.323 20.686 67.178 20.436L66.633 19.2358C65.835 17.6358 64.946 16.2758 63.966 15.1558C62.986 13.9958 61.879 13.416 60.645 13.416C59.593 13.416 58.685 14.0256 57.923 15.2656C57.197 16.4956 56.635 18.116 56.236 20.106C55.873 22.106 55.691 24.2456 55.691 26.5356C55.691 29.1056 55.945 31.2456 56.453 32.9556C56.998 34.6656 57.669 35.9158 58.468 36.7158C59.302 37.5058 60.137 37.9058 60.972 37.9058C62.605 37.9058 63.839 37.4057 64.674 36.3857C65.508 35.3357 66.143 34.2059 66.579 33.0059L66.688 32.7358C66.76 32.6258 66.851 32.516 66.96 32.416C67.069 32.266 67.196 32.1958 67.341 32.1958C67.631 32.1958 67.813 32.3056 67.885 32.5156C67.994 32.7356 68.013 32.9558 67.94 33.1758C67.396 35.7458 66.47 37.6758 65.164 38.9458C63.857 40.1758 62.26 40.7959 60.373 40.7959C58.558 40.7959 56.998 40.1557 55.691 38.8857C54.385 37.6157 53.387 35.966 52.697 33.936C52.044 31.906 51.717 29.7456 51.717 27.4556C51.717 25.1356 52.08 22.7557 52.806 20.3257C53.568 17.8557 54.621 15.7857 55.963 14.1157ZM126.299 39.6558C125.173 40.3758 123.921 40.7358 122.542 40.7358C120.873 40.7358 119.439 40.4658 118.242 39.9258C117.08 39.3458 116.137 38.6156 115.411 37.7456C114.721 36.8356 114.177 35.8359 113.778 34.7559C113.596 34.2459 113.524 33.786 113.56 33.396C113.596 32.996 113.705 32.6858 113.886 32.4658C114.104 32.2158 114.322 32.0456 114.54 31.9756C114.757 31.8656 115.012 31.8458 115.302 31.9258C115.592 31.9558 115.883 32.106 116.173 32.356C116.463 32.606 116.699 33.0057 116.881 33.5557C117.207 34.4957 117.588 35.3159 118.024 36.0059C118.496 36.6559 119.094 37.2057 119.82 37.6357C120.546 38.0357 121.453 38.2358 122.542 38.2358C123.196 38.2358 123.867 38.1458 124.556 37.9658C125.246 37.7458 125.917 37.4356 126.571 37.0356C127.224 36.6356 127.841 36.166 128.422 35.626C128.639 35.366 128.857 35.1857 129.075 35.0757C129.329 34.9657 129.565 35.006 129.783 35.186C130.037 35.406 130.091 35.6558 129.946 35.9458C129.837 36.2058 129.71 36.4358 129.565 36.6558C128.512 37.8958 127.424 38.8858 126.299 39.6558ZM109.912 30.9956C109.949 32.8456 109.967 35.7358 109.967 39.6558C109.967 40.4458 109.822 41.1057 109.531 41.6157C109.241 42.1157 108.787 42.376 108.17 42.376C107.59 42.376 107.1 42.1759 106.7 41.7759C106.338 41.4159 106.156 40.7559 106.156 39.8159C106.084 37.9959 106.029 34.676 105.993 29.856V18.4756C105.993 17.3156 105.539 16.2456 104.632 15.2656C103.761 14.2856 102.382 13.7959 100.494 13.7959C98.97 13.7959 97.754 14.3059 96.847 15.3159C95.976 16.2959 95.54 17.476 95.54 18.856C95.54 20.776 95.522 22.2358 95.486 23.2158V27.6758C95.45 28.6158 95.432 29.526 95.432 30.396V33.0659C95.432 33.6059 95.214 34.0956 94.778 34.5356C94.379 34.9356 93.871 35.1357 93.254 35.1357C92.819 35.1357 92.438 34.9356 92.111 34.5356C91.821 34.1356 91.675 33.6259 91.675 33.0059C91.675 30.7559 91.657 29.0859 91.621 28.0059V20.5459C91.621 19.3859 91.948 18.1457 92.601 16.8457C93.254 15.5357 94.234 14.4256 95.54 13.5156C96.883 12.6156 98.516 12.1558 100.44 12.1558C102.472 12.1558 104.214 12.5958 105.666 13.4658C107.118 14.3058 108.188 15.3359 108.878 16.5659C109.568 17.7659 109.912 18.9056 109.912 19.9956V30.9956ZM47.58 23.9756C48.886 26.0056 49.539 28.1859 49.539 30.5059C49.539 32.5359 49.068 34.3159 48.124 35.8359C47.181 37.3659 45.874 38.566 44.205 39.436C42.571 40.266 40.684 40.686 38.543 40.686C37.781 40.686 36.928 40.6158 35.984 40.4658C35.077 40.3258 34.206 40.1458 33.371 39.9258C32.573 39.7058 31.956 39.4658 31.52 39.2158C31.266 39.0658 31.067 38.9259 30.921 38.7759C30.776 38.5959 30.704 38.3058 30.704 37.9058L30.431 29.3657C30.395 28.6357 30.649 28.2759 31.194 28.2759C31.593 28.2759 31.865 28.5959 32.01 29.2559L32.881 32.9556C33.68 36.2256 35.966 38.276 39.741 39.106C41.991 39.066 43.588 38.1956 44.531 36.4956C45.511 34.7856 46.001 32.8257 46.001 30.6157C46.001 28.4757 45.511 26.5457 44.531 24.8457C43.551 23.1057 41.791 21.3259 39.251 19.5059C36.456 17.5859 34.333 15.7158 32.881 13.9058C31.43 12.0558 30.704 10.1057 30.704 8.07568C30.704 5.97568 31.629 4.17604 33.48 2.68604C35.367 1.19604 37.636 0.455566 40.285 0.455566C41.446 0.455566 42.662 0.585938 43.932 0.835938C45.239 1.08594 46.237 1.45578 46.926 1.92578C47.144 2.06578 47.308 2.23602 47.416 2.41602C47.562 2.59602 47.634 2.83598 47.634 3.12598L47.906 10.146C47.906 10.656 47.725 10.9058 47.362 10.9058C46.963 10.9058 46.727 10.656 46.654 10.146L46.382 7.96582C46.237 6.37582 45.602 4.93602 44.477 3.66602C43.352 2.39602 41.882 1.76562 40.067 1.76562C38.398 1.76562 36.982 2.3258 35.821 3.4458C34.66 4.5758 34.079 6.06602 34.079 7.91602C34.079 9.47602 34.623 10.966 35.712 12.376C36.801 13.796 38.688 15.5159 41.374 17.5459C44.205 19.7659 46.273 21.9056 47.58 23.9756ZM60.264 23.8057C60.627 23.4057 61.099 23.2158 61.679 23.2158C62.188 23.2158 62.623 23.4057 62.986 23.8057C63.385 24.1757 63.585 24.626 63.585 25.166C63.585 25.676 63.385 26.1356 62.986 26.5356C62.623 26.8956 62.188 27.0757 61.679 27.0757C61.135 27.0757 60.663 26.8956 60.264 26.5356C59.901 26.1356 59.72 25.676 59.72 25.166C59.72 24.626 59.901 24.1757 60.264 23.8057ZM11.759 36.7656C12.158 36.3656 12.612 36.166 13.12 36.166C13.628 36.166 14.063 36.3656 14.426 36.7656C14.826 37.1256 15.025 37.586 15.025 38.126C15.025 38.636 14.826 39.0858 14.426 39.4858C14.063 39.8558 13.628 40.0356 13.12 40.0356C12.612 40.0356 12.158 39.8558 11.759 39.4858C11.36 39.0858 11.16 38.636 11.16 38.126C11.16 37.586 11.36 37.1256 11.759 36.7656Z" fill="black"/>
</svg>
