<svg width="132" height="43" viewBox="0 0 132 43" fill="none" xmlns="http://www.w3.org/2000/svg">
<path fill-rule="evenodd" clip-rule="evenodd" d="M81.876 27.7856H81.495C79.499 27.7856 77.685 27.4557 76.051 26.8057C74.454 26.1157 73.021 25.3657 71.751 24.5757C71.606 24.4957 71.478 24.426 71.37 24.356C71.297 24.286 71.206 24.226 71.097 24.186C70.771 23.936 70.517 23.666 70.335 23.376C70.19 23.046 70.172 22.7957 70.281 22.6157C70.426 22.3557 70.626 22.2158 70.88 22.1758C71.134 22.1058 71.442 22.1958 71.805 22.4458C72.023 22.6258 72.222 22.8156 72.404 22.9956C72.585 23.1356 72.803 23.3058 73.057 23.4858C74.4 24.2458 75.634 24.8459 76.759 25.2759C77.884 25.6759 79.173 25.8258 80.624 25.7158C82.112 25.6058 83.092 25.1359 83.564 24.2959C84.072 23.4259 84.326 22.126 84.326 20.376C84.326 18.816 84.054 17.2957 83.51 15.8057C83.001 14.2857 82.022 13.5156 80.57 13.5156C79.554 13.5156 78.61 13.9359 77.739 14.7759C76.904 15.5759 76.215 16.8758 75.67 18.6958C75.634 18.8058 75.598 18.8958 75.561 18.9658V19.2358C75.38 19.8858 75.144 20.4357 74.854 20.8657C74.6 21.3057 74.182 21.5259 73.602 21.5259C73.13 21.5259 72.749 21.396 72.458 21.146C72.204 20.856 72.041 20.526 71.968 20.166C71.932 19.766 71.968 19.3957 72.077 19.0757C72.259 18.3157 72.712 17.3859 73.438 16.2959C74.164 15.2059 75.144 14.2658 76.378 13.4658C77.612 12.6358 79.046 12.2158 80.679 12.2158C81.949 12.2158 83.128 12.5257 84.217 13.1357C85.342 13.7557 86.25 14.6958 86.939 15.9658C87.629 17.2058 87.974 18.696 87.974 20.436C87.974 21.846 87.701 23.0857 87.157 24.1357C86.649 25.1857 85.959 26.0059 85.088 26.5859C84.254 27.1659 83.346 27.5258 82.366 27.6758C82.221 27.7158 82.058 27.7456 81.876 27.7856ZM85.034 39.7559C84.018 40.4459 82.802 40.7959 81.386 40.7959C78.846 40.7959 76.795 40.1056 75.235 38.7256C73.674 37.3056 72.567 35.8256 71.914 34.2656C71.261 32.6656 70.88 31.3557 70.771 30.3457C70.698 29.9057 70.716 29.506 70.825 29.146C70.97 28.746 71.206 28.4358 71.533 28.2158C71.86 27.9658 72.277 27.8359 72.785 27.8359C73.402 27.8359 73.874 28.0157 74.2 28.3857C74.563 28.7057 74.817 29.1257 74.963 29.6357V30.0156C75.035 30.2656 75.09 30.4657 75.126 30.6157C75.162 30.7557 75.198 30.9558 75.235 31.2158C75.489 32.5558 75.815 33.7359 76.215 34.7559C76.614 35.7659 77.231 36.6357 78.066 37.3657C78.9 38.0957 79.989 38.4556 81.332 38.4556C82.421 38.4556 83.328 38.1459 84.054 37.5259C84.78 36.8759 85.306 36.1658 85.633 35.4058C85.996 34.6058 86.322 33.7856 86.613 32.9556C86.794 32.2256 87.066 31.7556 87.429 31.5356C87.792 31.3256 88.209 31.3058 88.681 31.4858C89.153 31.6258 89.498 31.9558 89.716 32.4658C89.933 32.9358 89.861 33.5156 89.498 34.2056C88.808 35.4056 88.155 36.4557 87.538 37.3657C86.921 38.2357 86.086 39.0359 85.034 39.7559ZM14.209 24.7358C15.443 23.2858 17.421 21.8859 20.142 20.5459C22.502 19.3859 24.135 18.3257 25.042 17.3857C25.949 16.4457 26.403 15.3856 26.403 14.2256C26.403 13.5356 26.131 12.9558 25.586 12.4858C25.042 12.0158 24.407 11.7759 23.681 11.7759C22.774 11.7759 21.758 12.0158 20.632 12.4858C19.544 12.9258 18.146 13.5956 16.441 14.4956C14.372 15.5856 12.594 16.4259 11.106 17.0059C9.618 17.5859 8.148 17.876 6.696 17.876C5.607 17.876 4.537 17.5859 3.484 17.0059C2.468 16.4259 1.633 15.6057 0.98 14.5557C0.327 13.5057 0 12.2858 0 10.9058C0 9.38576 0.327 8.1157 0.98 7.0957C1.669 6.0757 2.486 5.2457 3.43 4.5957C4.156 4.1257 4.809 3.70594 5.389 3.33594C5.97 2.94594 6.496 2.5558 6.968 2.1958C7.73 1.6558 8.293 1.27566 8.656 1.05566C9.055 0.835664 9.418 0.725586 9.745 0.725586C10.362 0.725586 10.87 0.925684 11.269 1.32568C11.704 1.68568 11.922 2.1957 11.922 2.8457C11.922 3.3557 11.614 3.81582 10.997 4.21582C10.416 4.57582 9.491 5.02568 8.22 5.57568C7.748 5.78568 7.259 6.02588 6.75 6.27588C6.242 6.49588 5.734 6.7559 5.226 7.0459C4.319 7.5159 3.539 8.136 2.885 8.896C2.232 9.656 1.905 10.5056 1.905 11.4556C1.905 12.1456 2.141 12.886 2.613 13.686C3.085 14.446 3.847 14.8257 4.9 14.8257C5.698 14.8257 6.569 14.6256 7.513 14.2256C8.492 13.8256 9.781 13.1957 11.378 12.3257C13.446 11.1957 15.261 10.3256 16.822 9.70557C18.419 9.09557 20.015 8.78564 21.612 8.78564C23.1 8.78564 24.352 9.18584 25.369 9.98584C26.385 10.7758 27.147 11.7457 27.655 12.8657C28.163 13.9957 28.417 15.006 28.417 15.916C28.417 17.226 28.145 18.316 27.601 19.186C27.056 20.056 26.33 20.796 25.423 21.416C24.552 21.996 23.227 22.736 21.449 23.646C20.687 24.046 19.907 24.466 19.108 24.896C18.31 25.336 17.493 25.8059 16.658 26.3159C15.57 27.0059 14.807 27.5857 14.372 28.0557C13.936 28.4957 13.719 29.086 13.719 29.856V31.436C13.719 31.646 13.646 31.8158 13.501 31.9258C13.392 32.0258 13.247 32.0859 13.065 32.0859C12.884 32.0859 12.721 32.0258 12.575 31.9258C12.467 31.7758 12.412 31.616 12.412 31.436V29.2559C12.412 27.6959 13.011 26.1858 14.209 24.7358ZM129.783 27.4556C129.964 27.6056 130.073 27.8057 130.109 28.0557C130.109 28.3457 130.019 28.5656 129.837 28.7056C129.692 28.8556 129.474 28.996 129.184 29.146C127.914 29.766 126.698 30.266 125.536 30.666C124.375 31.036 123.159 31.2158 121.889 31.2158C120.292 31.2158 118.822 30.846 117.479 30.126C116.137 29.396 115.066 28.396 114.268 27.126C113.469 25.856 113.07 24.3856 113.07 22.7256C113.07 21.2656 113.306 19.9258 113.778 18.6958C114.249 17.4558 114.903 16.3658 115.737 15.4258C116.608 14.4858 117.625 13.7157 118.786 13.1357C119.476 12.8157 120.201 12.556 120.964 12.376C121.762 12.156 122.56 12.0158 123.359 11.9458C125.319 11.7258 126.843 11.636 127.932 11.666C129.02 11.706 129.855 11.7958 130.436 11.9458C130.617 11.9758 130.763 12.0558 130.871 12.1558C130.98 12.2358 131.071 12.326 131.144 12.436C131.216 12.536 131.234 12.6459 131.198 12.7559C131.198 12.8359 131.162 12.9056 131.089 12.9756C131.017 13.0456 130.926 13.0859 130.817 13.0859C130.744 13.0459 130.672 13.0459 130.599 13.0859C130.527 13.0859 130.418 13.1057 130.273 13.1357C129.837 13.0657 129.329 13.0459 128.748 13.0859C128.168 13.0859 127.46 13.1258 126.625 13.1958C125.827 13.2258 124.956 13.3356 124.012 13.5156C123.105 13.7356 122.288 13.9956 121.562 14.2856C120.873 14.5756 120.238 14.936 119.657 15.376C119.04 15.846 118.514 16.4057 118.078 17.0557C117.643 17.6757 117.298 18.4357 117.044 19.3457C116.826 20.2157 116.717 21.236 116.717 22.396C116.717 23.996 117.207 25.3656 118.187 26.5356C119.167 27.6556 120.328 28.3457 121.671 28.5957C121.816 28.6357 121.962 28.6756 122.107 28.7056H122.651C123.486 28.7056 124.321 28.616 125.155 28.436C126.026 28.216 126.952 27.9457 127.932 27.6157C128.186 27.5457 128.422 27.4758 128.639 27.4058C128.857 27.3258 129.039 27.2959 129.184 27.2959C129.438 27.2559 129.637 27.3156 129.783 27.4556ZM55.854 14.1157C57.197 12.4457 58.74 11.6157 60.482 11.6157C61.498 11.6157 62.514 11.956 63.53 12.646C64.546 13.306 65.49 14.2258 66.361 15.4258C67.269 16.6258 68.067 17.9859 68.757 19.5059C68.793 19.5459 68.811 19.5958 68.811 19.6758C68.811 19.7058 68.829 19.7659 68.865 19.8359C68.938 20.0859 68.938 20.3457 68.865 20.5957C68.793 20.8157 68.629 20.9759 68.375 21.0859C68.339 21.0859 68.303 21.106 68.266 21.146H68.212C67.994 21.176 67.795 21.1456 67.613 21.0356C67.432 20.8856 67.287 20.7058 67.178 20.4858L66.579 19.2358C65.744 17.6358 64.837 16.2758 63.857 15.1558C62.877 13.9958 61.77 13.416 60.536 13.416C59.447 13.416 58.522 14.0256 57.76 15.2656C57.034 16.4956 56.49 18.116 56.127 20.106C55.764 22.106 55.582 24.2456 55.582 26.5356C55.582 29.1056 55.836 31.2456 56.344 32.9556C56.889 34.6656 57.56 35.9158 58.359 36.7158C59.193 37.5058 60.028 37.9058 60.863 37.9058C62.496 37.9058 63.73 37.4057 64.565 36.3857C65.399 35.3357 66.035 34.2059 66.47 33.0059L66.579 32.7358C66.652 32.6258 66.742 32.516 66.851 32.416C66.96 32.266 67.087 32.1958 67.232 32.1958C67.522 32.1958 67.704 32.3056 67.777 32.5156C67.885 32.7356 67.904 32.9558 67.831 33.1758C67.287 35.7458 66.361 37.6758 65.055 38.9458C63.748 40.1758 62.151 40.7959 60.264 40.7959C58.449 40.7959 56.889 40.1557 55.582 38.8857C54.276 37.6157 53.278 35.966 52.588 33.936C51.935 31.906 51.608 29.7456 51.608 27.4556C51.608 25.1356 51.971 22.7557 52.697 20.3257C53.459 17.8557 54.512 15.7857 55.854 14.1157ZM126.081 39.6558C124.956 40.3758 123.722 40.7358 122.379 40.7358C120.673 40.7358 119.221 40.4658 118.024 39.9258C116.862 39.3758 115.919 38.6759 115.193 37.7959C114.503 36.9259 113.977 35.9357 113.614 34.8057C113.396 34.2957 113.306 33.8458 113.342 33.4458C113.378 33.0058 113.487 32.6858 113.669 32.4658C113.85 32.2458 114.05 32.0856 114.268 31.9756C114.485 31.8656 114.739 31.8458 115.03 31.9258C115.32 31.9558 115.61 32.106 115.901 32.356C116.191 32.606 116.445 33.0057 116.663 33.5557C116.989 34.4957 117.371 35.3159 117.806 36.0059C118.278 36.6559 118.877 37.2057 119.603 37.6357C120.365 38.0357 121.29 38.2358 122.379 38.2358C123.032 38.2358 123.704 38.1458 124.393 37.9658C125.083 37.7858 125.754 37.506 126.407 37.146C127.061 36.746 127.678 36.2956 128.258 35.7856C128.512 35.5356 128.748 35.3456 128.966 35.2456C129.22 35.1356 129.456 35.1657 129.674 35.3457C129.892 35.5657 129.928 35.8257 129.783 36.1157C129.674 36.3657 129.529 36.6059 129.347 36.8159C128.295 37.9859 127.206 38.9258 126.081 39.6558ZM109.804 31.0459C109.84 32.9359 109.858 35.8359 109.858 39.7559C109.858 40.5559 109.713 41.2158 109.422 41.7158C109.132 42.2258 108.678 42.4858 108.061 42.4858C107.481 42.4858 106.991 42.2857 106.592 41.8857C106.229 41.5157 106.029 40.9056 105.993 40.0356C105.956 38.1856 105.92 34.8258 105.884 29.9658V18.4756C105.884 17.3156 105.43 16.2456 104.523 15.2656C103.652 14.2856 102.255 13.7959 100.331 13.7959C98.843 13.7959 97.646 14.3059 96.738 15.3159C95.867 16.2959 95.432 17.476 95.432 18.856C95.432 20.746 95.414 22.156 95.377 23.106V27.4556C95.341 28.3656 95.323 29.256 95.323 30.126V32.7358C95.323 33.2458 95.105 33.7158 94.67 34.1558C94.27 34.5558 93.762 34.7559 93.145 34.7559C92.673 34.7559 92.292 34.5656 92.002 34.2056C91.712 33.8056 91.566 33.296 91.566 32.686C91.566 30.506 91.548 28.8756 91.512 27.7856V20.5459C91.512 19.3859 91.839 18.1457 92.492 16.8457C93.145 15.5357 94.125 14.4256 95.432 13.5156C96.774 12.6156 98.408 12.1558 100.331 12.1558C102.364 12.1558 104.087 12.5958 105.503 13.4658C106.955 14.3058 108.025 15.3359 108.715 16.5659C109.441 17.7659 109.804 18.9056 109.804 19.9956V31.0459ZM47.471 23.9756C48.777 26.0056 49.431 28.1859 49.431 30.5059C49.431 32.5359 48.959 34.3159 48.015 35.8359C47.072 37.3659 45.765 38.566 44.096 39.436C42.462 40.266 40.575 40.686 38.434 40.686C37.672 40.686 36.819 40.6158 35.875 40.4658C34.968 40.3258 34.097 40.1458 33.262 39.9258C32.464 39.7058 31.847 39.4658 31.411 39.2158C31.157 39.0658 30.958 38.9259 30.813 38.7759C30.667 38.5959 30.595 38.3058 30.595 37.9058L30.323 29.3657C30.286 28.6357 30.54 28.2759 31.085 28.2759C31.484 28.2759 31.756 28.5959 31.901 29.2559L32.827 33.0659C33.589 36.3259 35.857 38.346 39.632 39.106C41.882 39.066 43.479 38.1956 44.422 36.4956C45.402 34.7856 45.892 32.8257 45.892 30.6157C45.892 28.4757 45.402 26.5356 44.422 24.7856C43.479 23.0456 41.737 21.2656 39.196 19.4556C36.402 17.5356 34.26 15.6657 32.772 13.8457C31.321 12.0357 30.595 10.1057 30.595 8.07568C30.595 5.97568 31.52 4.17604 33.371 2.68604C35.258 1.19604 37.527 0.455566 40.176 0.455566C41.337 0.455566 42.553 0.585938 43.823 0.835938C45.13 1.08594 46.128 1.45578 46.818 1.92578C47.035 2.06578 47.199 2.23602 47.308 2.41602C47.453 2.59602 47.525 2.83598 47.525 3.12598L47.798 9.98584C47.798 10.4858 47.616 10.7456 47.253 10.7456C46.854 10.7056 46.618 10.4558 46.545 9.98584L46.328 7.85596C46.182 6.26596 45.529 4.84572 44.368 3.61572C43.243 2.37572 41.773 1.76562 39.958 1.76562C38.289 1.76562 36.873 2.3258 35.712 3.4458C34.551 4.5758 33.97 6.06602 33.97 7.91602C33.97 9.47602 34.514 10.966 35.603 12.376C36.692 13.796 38.579 15.5159 41.265 17.5459C44.096 19.7659 46.164 21.9056 47.471 23.9756ZM60.155 23.8057C60.518 23.4057 60.99 23.2158 61.571 23.2158C62.079 23.2158 62.514 23.4057 62.877 23.8057C63.276 24.1757 63.476 24.626 63.476 25.166C63.476 25.676 63.276 26.1356 62.877 26.5356C62.514 26.8956 62.079 27.0757 61.571 27.0757C61.026 27.0757 60.554 26.8956 60.155 26.5356C59.792 26.1356 59.611 25.676 59.611 25.166C59.611 24.626 59.792 24.1757 60.155 23.8057ZM11.759 36.8159C12.158 36.4259 12.612 36.2256 13.12 36.2256C13.628 36.2256 14.063 36.4259 14.426 36.8159C14.826 37.1859 15.025 37.636 15.025 38.186C15.025 38.686 14.826 39.1459 14.426 39.5459C14.063 39.9059 13.628 40.0859 13.12 40.0859C12.612 40.0859 12.158 39.9059 11.759 39.5459C11.36 39.1459 11.16 38.686 11.16 38.186C11.16 37.636 11.36 37.1859 11.759 36.8159Z" fill="black"/>
</svg>
