<svg width="139" height="41" viewBox="0 0 139 41" fill="none" xmlns="http://www.w3.org/2000/svg">
<path fill-rule="evenodd" clip-rule="evenodd" d="M4.355 14.1741L0.708 14.5551L0.163 12.3781C0.054 11.7611 0 10.9261 0 9.87311C0.798 9.61911 1.452 9.42009 1.96 9.27509C2.504 9.09309 3.303 8.9301 4.355 8.7851V5.13709L6.642 4.86512C7.113 4.82912 7.458 4.79211 7.676 4.75611C7.93 4.72011 8.275 4.6841 8.71 4.6471V1.00013C9.581 0.964126 10.271 0.964126 10.779 1.00013C11.287 1.00013 11.958 1.05409 12.793 1.16309C12.83 2.03409 12.83 2.70613 12.793 3.17713C12.793 3.64913 12.739 4.3391 12.63 5.2461L8.71 5.35511V9.00214C7.803 9.03914 7.059 9.09308 6.478 9.16608C5.934 9.23808 5.226 9.29311 4.355 9.32911V10.4721C4.246 10.8721 4.156 11.1981 4.083 11.4521C4.01 11.6701 3.974 11.9971 3.974 12.4321C3.974 12.8681 4.01 13.1941 4.083 13.4121C4.156 13.6301 4.246 13.8841 4.355 14.1741ZM4.355 14.1741C5.807 14.1741 6.95 14.1381 7.785 14.0651C8.656 13.9931 9.908 13.8841 11.541 13.7391L13.065 13.6301V9.9281C13.9 9.9281 14.59 9.8921 15.134 9.8191C15.715 9.7461 16.477 9.69213 17.421 9.65613V6.00812C19.235 5.93612 20.669 5.89911 21.721 5.89911C22.81 5.89911 24.28 6.02609 26.131 6.28009V9.98212L29.778 9.9281C29.851 10.7631 29.905 11.4341 29.942 11.9421C29.978 12.4501 30.014 13.1581 30.05 14.0651H26.403V16.2431C26.403 16.7511 26.385 17.4771 26.349 18.4201H22.701C22.629 19.3641 22.52 20.1081 22.374 20.6521C22.229 21.1601 22.048 21.8681 21.83 22.7761H18.183C18.146 22.9571 18.092 23.1021 18.019 23.2111C17.983 23.2841 17.929 23.4111 17.856 23.5921C17.493 24.3911 17.221 25.0261 17.039 25.4971C16.858 25.9331 16.767 26.5501 16.767 27.3481V31.3771C16.186 31.4491 15.715 31.5041 15.352 31.5401H14.318C13.991 31.5041 13.519 31.4491 12.902 31.3771V28.2741C12.902 27.1491 12.957 26.2961 13.065 25.7151C13.174 25.0981 13.301 24.2641 13.446 23.2111L13.501 22.7761H17.148C17.221 22.1951 17.312 21.7591 17.421 21.4691C17.529 21.1421 17.638 20.6891 17.747 20.1081C17.856 19.7451 17.947 19.4731 18.019 19.2911C18.128 19.0741 18.237 18.7831 18.346 18.4201H21.993C22.139 17.5131 22.247 16.8051 22.32 16.2971C22.393 15.7891 22.429 15.0451 22.429 14.0651H26.131V10.4181H23.79C23.282 10.3091 22.864 10.2181 22.538 10.1461C22.211 10.0731 21.739 10.0371 21.122 10.0371C20.397 10.0371 19.798 10.0731 19.326 10.1461C18.854 10.1821 18.219 10.2551 17.421 10.3631V14.0111L13.065 14.3371V17.9851C11.178 18.1301 9.708 18.2391 8.656 18.3121C7.64 18.3481 6.206 18.3121 4.355 18.2031V14.1741ZM39.196 4.97412V1.05408C41.083 0.945081 42.553 0.909133 43.606 0.945133C44.694 0.945133 46.128 0.964126 47.906 1.00013V4.6471C48.814 4.6841 49.503 4.7381 49.975 4.8111C50.483 4.8471 51.155 4.90112 51.989 4.97412V9.27509C52.026 10.3271 52.044 11.7791 52.044 13.6301C51.427 13.7021 50.937 13.7571 50.574 13.7931H49.539C49.213 13.7571 48.741 13.7201 48.124 13.6841C48.088 12.6321 48.051 11.8331 48.015 11.2891C47.979 10.7081 47.943 9.91011 47.906 8.89411V5.68213C46.6 5.39113 45.547 5.17408 44.749 5.02808C43.987 4.88308 43.206 4.8111 42.408 4.8111C41.646 4.8111 40.575 4.86512 39.196 4.97412ZM39.196 36.1681L35.549 36.6031C35.258 35.7681 35.022 35.1151 34.841 34.6431C34.696 34.1711 34.623 33.4821 34.623 32.5751V27.4571C35.204 27.3851 35.658 27.3481 35.984 27.3481C36.347 27.3121 36.692 27.3121 37.019 27.3481C37.382 27.3481 37.871 27.3671 38.488 27.4031L38.543 28.2191C38.615 29.9981 38.688 31.3771 38.761 32.3571C38.87 33.3001 39.015 34.5711 39.196 36.1681ZM47.961 35.8411L48.396 39.4881C46.582 39.8151 45.094 40.0511 43.932 40.1961C42.807 40.3051 41.228 40.3231 39.196 40.2501V36.1681C40.575 36.2761 41.664 36.3491 42.462 36.3851C43.261 36.3851 44.041 36.3491 44.803 36.2761C45.602 36.1681 46.654 36.0221 47.961 35.8411ZM38.488 14.0651H34.841C34.768 12.7591 34.696 11.6701 34.623 10.7991C34.587 9.92814 34.623 9.03911 34.732 8.13111C34.877 7.22411 35.15 6.08109 35.549 4.70209L39.196 4.97412C39.051 6.31712 38.942 7.40612 38.87 8.24012C38.833 9.03912 38.851 9.85513 38.924 10.6901C38.997 11.5251 39.142 12.6501 39.359 14.0651H43.007C43.116 14.9361 43.243 15.6441 43.388 16.1881C43.533 16.7331 43.678 17.4771 43.823 18.4201H47.471C47.616 19.3281 47.743 20.0351 47.852 20.5441C47.961 21.0521 48.07 21.7961 48.179 22.7761H51.826C52.08 25.4611 52.225 27.6021 52.262 29.1991C52.334 30.7961 52.262 33.0101 52.044 35.8411H47.961C48.106 33.0461 48.106 30.8691 47.961 29.3081C47.816 27.7111 47.598 25.5341 47.308 22.7761H43.66C43.588 22.2671 43.515 21.8861 43.442 21.6321C43.37 21.3421 43.279 20.9431 43.17 20.4351C43.134 20.0351 43.061 19.7271 42.952 19.5091C42.88 19.2551 42.825 18.8921 42.789 18.4201H39.087C38.942 17.4771 38.815 16.7511 38.706 16.2431C38.597 15.6981 38.525 14.9731 38.488 14.0651ZM69.519 35.8411C69.591 35.1151 69.646 34.5521 69.682 34.1531C69.718 33.7181 69.736 33.1371 69.736 32.4111L69.791 31.6491C70.444 31.6131 70.934 31.5951 71.261 31.5951C71.587 31.5951 71.914 31.6131 72.241 31.6491C72.567 31.6851 73.039 31.7221 73.656 31.7581C73.62 32.6291 73.583 33.3191 73.547 33.8271C73.547 34.2981 73.529 34.9701 73.493 35.8411H69.519ZM61.026 35.8411C62.333 35.9501 63.349 36.0401 64.075 36.1131C64.837 36.1861 65.599 36.2041 66.361 36.1681C67.123 36.1311 68.176 36.0221 69.519 35.8411L69.845 39.4881C68.502 39.8151 67.377 40.0511 66.47 40.1961C65.599 40.3411 64.71 40.3411 63.803 40.1961C62.895 40.0871 61.734 39.8511 60.318 39.4881L61.026 35.8411ZM61.298 14.0651C61.117 17.2591 60.972 19.8361 60.863 21.7961C60.754 23.7191 60.7 25.6971 60.7 27.7291C60.736 29.7261 60.845 32.4291 61.026 35.8411H56.671C56.453 32.3571 56.344 29.6171 56.344 27.6211C56.381 25.5881 56.471 23.6281 56.617 21.7411C56.798 19.8181 57.016 17.2591 57.27 14.0651H61.298ZM61.298 14.0651L60.917 10.4181C62.732 10.3091 64.111 10.2361 65.055 10.2001C65.998 10.1281 67.341 10.0911 69.083 10.0911C69.265 10.9261 69.41 11.5791 69.519 12.0511C69.628 12.5231 69.7 13.1941 69.736 14.0651H73.384C73.456 14.9731 73.493 15.7171 73.493 16.2971C73.529 16.8421 73.547 17.6041 73.547 18.5841V18.8561C72.93 18.8921 72.458 18.9281 72.132 18.9651H71.097C70.771 18.9651 70.299 18.9281 69.682 18.8561C69.682 18.7111 69.664 18.6021 69.628 18.5291V18.0941C69.555 17.1501 69.482 16.4421 69.41 15.9711L69.138 14.0651H66.252C65.164 13.9931 64.329 13.9751 63.748 14.0111C63.167 14.0111 62.351 14.0291 61.298 14.0651ZM91.077 35.8411C91.113 34.9341 91.149 34.2081 91.185 33.6631C91.258 33.0831 91.312 32.3571 91.349 31.4861C91.966 31.4491 92.438 31.4311 92.764 31.4311C93.127 31.3951 93.472 31.3951 93.798 31.4311C94.125 31.4681 94.597 31.5041 95.214 31.5401C95.178 32.4481 95.141 33.1731 95.105 33.7181C95.069 34.2621 95.032 34.9701 94.996 35.8411H91.077ZM82.421 35.8411C83.727 35.9501 84.762 36.0401 85.524 36.1131C86.286 36.1861 87.048 36.2041 87.81 36.1681C88.609 36.1311 89.697 36.0221 91.077 35.8411L91.349 39.4881C90.006 39.8511 88.881 40.0871 87.974 40.1961C87.066 40.3051 86.141 40.3051 85.197 40.1961C84.29 40.0511 83.147 39.8151 81.767 39.4881L82.421 35.8411ZM82.693 14.0651C82.475 17.2231 82.294 19.7811 82.149 21.7411C82.131 22.0491 82.116 22.3581 82.103 22.6691C82.498 22.7401 82.822 22.7941 83.074 22.8301C83.328 22.8661 83.691 22.9031 84.163 22.9391H88.246C88.863 22.9391 89.316 22.9211 89.607 22.8841C89.897 22.8481 90.314 22.8121 90.859 22.7761C90.895 22.1951 90.913 21.7411 90.913 21.4151V19.6721C90.913 18.4021 90.877 17.4221 90.804 16.7331C90.768 16.0431 90.695 15.1541 90.587 14.0651H87.701C86.613 13.9931 85.76 13.9751 85.143 14.0111C84.562 14.0111 83.745 14.0291 82.693 14.0651L82.203 10.4181C83.981 10.2731 85.342 10.1821 86.286 10.1461C87.23 10.1091 88.572 10.0911 90.314 10.0911C90.46 10.9261 90.605 11.5791 90.75 12.0511C90.895 12.5231 91.022 13.1941 91.131 14.0651H94.778C94.924 15.8801 95.032 17.3131 95.105 18.3661C95.178 19.4181 95.214 20.8881 95.214 22.7761C95.214 23.7191 95.196 24.4271 95.159 24.8991C95.123 25.3701 95.069 26.0061 94.996 26.8041H86.231C85.215 26.8041 84.471 26.8401 83.999 26.9131C83.564 26.9851 82.911 27.0761 82.04 27.1851V24.7081C82.021 25.7061 82.021 26.7131 82.04 27.7291C82.076 29.7261 82.203 32.4291 82.421 35.8411H78.12C77.866 32.3571 77.739 29.6171 77.739 27.6211C77.739 25.6241 77.812 23.6651 77.957 21.7411C78.102 19.8181 78.302 17.2591 78.556 14.0651H82.693ZM125.863 35.8411C127.133 35.9501 128.149 36.0401 128.912 36.1131C129.71 36.1861 130.49 36.2041 131.252 36.1681C132.051 36.1311 133.122 36.0221 134.464 35.8411L134.791 39.4881C133.448 39.8511 132.323 40.0871 131.416 40.1961C130.508 40.3051 129.583 40.3051 128.639 40.1961C127.732 40.0511 126.571 39.8151 125.155 39.4881L125.863 35.8411ZM126.135 14.0651C125.917 17.2231 125.736 19.7811 125.591 21.7411C125.574 22.0491 125.559 22.3591 125.545 22.6691C125.941 22.7401 126.264 22.7941 126.516 22.8301C126.77 22.8661 127.133 22.9031 127.605 22.9391H131.688C132.305 22.9391 132.759 22.9211 133.049 22.8841C133.339 22.8481 133.757 22.8121 134.301 22.7761V21.4151C134.337 21.0521 134.356 20.5801 134.356 19.9991V19.6721C134.356 18.4021 134.319 17.4221 134.247 16.7331C134.21 16.0431 134.138 15.1541 134.029 14.0651H131.144C130.055 13.9931 129.202 13.9751 128.585 14.0111C128.004 14.0111 127.188 14.0291 126.135 14.0651L125.645 10.4181C127.424 10.2731 128.785 10.1821 129.728 10.1461C130.672 10.1091 132.015 10.0911 133.757 10.0911C133.902 10.9261 134.047 11.5791 134.192 12.0511C134.337 12.5231 134.446 13.1941 134.519 14.0651H138.221C138.366 15.8801 138.475 17.3131 138.547 18.3661C138.62 19.4181 138.656 20.8881 138.656 22.7761C138.656 23.7191 138.638 24.4271 138.602 24.8991C138.565 25.3701 138.511 26.0061 138.438 26.8041H129.619C128.639 26.8041 127.914 26.8401 127.442 26.9131C126.97 26.9851 126.317 27.0761 125.482 27.1851C125.479 27.1391 125.476 27.0941 125.473 27.0491C125.475 27.2751 125.478 27.5021 125.482 27.7291C125.518 29.7261 125.645 32.4291 125.863 35.8411H121.508C121.29 32.3571 121.181 29.6171 121.181 27.6211C121.181 25.6241 121.254 23.6651 121.399 21.7411C121.544 19.8181 121.726 17.2591 121.943 14.0651H126.135ZM134.464 35.8411C134.537 34.9341 134.591 34.2081 134.628 33.6631C134.7 33.0831 134.755 32.3571 134.791 31.4861C135.408 31.4491 135.88 31.4311 136.206 31.4311C136.569 31.3951 136.914 31.3951 137.241 31.4311C137.567 31.4681 138.039 31.5041 138.656 31.5401C138.62 32.4481 138.584 33.1731 138.547 33.7181C138.511 34.2621 138.475 34.9701 138.438 35.8411H134.464ZM103.652 35.9501C103.652 36.4221 103.688 36.7481 103.761 36.9301C103.833 37.1111 103.924 37.3471 104.033 37.6371C104.069 37.6741 104.087 37.7101 104.087 37.7461V37.8011C104.196 38.0551 104.251 38.2541 104.251 38.4001C104.287 38.5081 104.305 38.7081 104.305 38.9981C104.305 39.2521 104.287 39.4521 104.251 39.5971C104.251 39.7421 104.233 39.9421 104.196 40.1961H99.025C98.952 39.9781 98.898 39.7971 98.861 39.6521V38.9441C98.861 38.7621 98.879 38.6171 98.916 38.5081C98.952 38.4001 99.006 38.2721 99.079 38.1271C99.115 38.0551 99.134 38.0001 99.134 37.9641L99.242 37.7461C99.315 37.3831 99.351 37.1111 99.351 36.9301C99.388 36.7121 99.406 36.3851 99.406 35.9501V20.1081C99.406 18.8011 99.442 17.7851 99.515 17.0591C99.587 16.3341 99.714 15.3361 99.896 14.0651H103.543C103.616 13.2311 103.706 12.5771 103.815 12.1051C103.924 11.6341 104.033 10.9801 104.142 10.1461C105.848 10.1091 107.172 10.0911 108.116 10.0911C109.06 10.0911 110.402 10.1091 112.144 10.1461C112.29 10.9801 112.398 11.6161 112.471 12.0511C112.544 12.4871 112.634 13.1581 112.743 14.0651H116.391C116.572 15.2991 116.699 16.2791 116.772 17.0051C116.881 17.6951 116.935 18.6931 116.935 19.9991V36.9301L117.098 37.7461C117.135 37.8551 117.171 37.9281 117.207 37.9641C117.244 38.0001 117.28 38.0551 117.316 38.1271C117.389 38.3091 117.443 38.4541 117.479 38.5631C117.552 38.6721 117.588 38.8171 117.588 38.9981C117.588 39.2891 117.57 39.5061 117.534 39.6521C117.498 39.7971 117.443 39.9781 117.371 40.1961H112.308C112.235 39.9781 112.181 39.7971 112.144 39.6521V38.9981C112.144 38.7081 112.163 38.5081 112.199 38.4001C112.235 38.2541 112.29 38.0551 112.362 37.8011C112.471 37.4381 112.544 37.1661 112.58 36.9841C112.652 36.8031 112.671 36.4581 112.634 35.9501V19.4551C112.634 18.2211 112.58 17.2951 112.471 16.6781C112.398 16.0251 112.271 15.1541 112.09 14.0651H110.293C109.568 14.0291 109.005 14.0111 108.606 14.0111C108.207 14.0111 107.626 14.0291 106.864 14.0651H104.196C104.051 15.0091 103.924 15.7711 103.815 16.3521C103.706 16.9321 103.652 17.7851 103.652 18.9101V35.9501ZM12.575 37.9641C12.575 37.3831 12.63 36.6571 12.739 35.7861C13.646 35.6781 14.372 35.6231 14.916 35.6231C15.497 35.6231 16.223 35.6591 17.094 35.7321C17.203 36.6761 17.257 37.4201 17.257 37.9641C17.257 38.5081 17.203 39.2341 17.094 40.1421C16.186 40.2141 15.443 40.2501 14.862 40.2501C14.318 40.2871 13.61 40.2501 12.739 40.1421C12.63 39.2341 12.575 38.5081 12.575 37.9641Z" fill="black"/>
</svg>
