<svg width="132" height="43" viewBox="0 0 132 43" fill="none" xmlns="http://www.w3.org/2000/svg">
<path fill-rule="evenodd" clip-rule="evenodd" d="M81.713 27.896H81.278C79.281 27.896 77.467 27.546 75.834 26.856C74.2 26.136 72.767 25.3556 71.533 24.5156C71.388 24.4456 71.261 24.3759 71.152 24.2959C71.079 24.2259 70.989 24.1559 70.88 24.0859C70.553 23.8659 70.317 23.5956 70.172 23.2656C70.027 22.9356 70.009 22.6859 70.118 22.5059C70.263 22.2459 70.462 22.1059 70.716 22.0659C70.97 22.0359 71.279 22.136 71.642 22.396C71.86 22.576 72.059 22.756 72.241 22.936C72.422 23.116 72.658 23.3156 72.948 23.5356C74.219 24.2956 75.416 24.8959 76.541 25.3359C77.703 25.7659 79.009 25.9357 80.461 25.8257C81.985 25.7557 82.983 25.2758 83.455 24.4058C83.927 23.5058 84.163 22.156 84.163 20.376C84.163 18.816 83.891 17.2957 83.346 15.8057C82.838 14.2857 81.858 13.5156 80.406 13.5156C79.427 13.5156 78.501 13.9359 77.63 14.7759C76.795 15.5759 76.106 16.8956 75.561 18.7456C75.489 18.8156 75.453 18.9056 75.453 19.0156C75.453 19.0956 75.434 19.1658 75.398 19.2358C75.217 19.9258 74.981 20.4858 74.69 20.9258C74.436 21.3258 74.037 21.5259 73.493 21.5259C72.985 21.5259 72.604 21.396 72.35 21.146C72.095 20.856 71.932 20.526 71.86 20.166C71.823 19.796 71.841 19.456 71.914 19.126C72.095 18.326 72.549 17.3859 73.275 16.2959C74.037 15.2059 75.017 14.2658 76.215 13.4658C77.449 12.6358 78.882 12.2158 80.515 12.2158C81.786 12.2158 82.965 12.5257 84.054 13.1357C85.179 13.7557 86.086 14.6958 86.776 15.9658C87.465 17.2058 87.81 18.696 87.81 20.436C87.81 21.846 87.538 23.106 86.994 24.186C86.486 25.246 85.796 26.0758 84.925 26.6958C84.09 27.3158 83.183 27.6959 82.203 27.8359C82.058 27.8759 81.894 27.896 81.713 27.896ZM84.979 39.7559C83.963 40.4459 82.729 40.7959 81.278 40.7959C78.773 40.7959 76.723 40.1056 75.126 38.7256C73.565 37.3056 72.44 35.8056 71.751 34.2056C71.097 32.6056 70.716 31.3257 70.607 30.3457C70.535 29.9057 70.571 29.506 70.716 29.146C70.862 28.746 71.079 28.4358 71.37 28.2158C71.696 27.9658 72.114 27.8359 72.622 27.8359C73.239 27.8359 73.71 28.0157 74.037 28.3857C74.4 28.7457 74.654 29.1657 74.799 29.6357V29.856C74.836 29.886 74.854 29.9456 74.854 30.0156C74.926 30.2656 74.963 30.4657 74.963 30.6157C74.999 30.7557 75.053 30.9558 75.126 31.2158C75.38 32.5558 75.707 33.7359 76.106 34.7559C76.505 35.7659 77.122 36.6357 77.957 37.3657C78.828 38.0957 79.935 38.4556 81.278 38.4556C82.366 38.4556 83.255 38.1459 83.945 37.5259C84.671 36.9159 85.215 36.2256 85.578 35.4556C85.941 34.6956 86.268 33.8959 86.558 33.0659C86.74 32.3359 87.012 31.8856 87.375 31.7056C87.774 31.4856 88.209 31.4457 88.681 31.5957C89.117 31.7757 89.443 32.116 89.661 32.626C89.879 33.096 89.806 33.686 89.443 34.376C88.718 35.566 88.046 36.6056 87.429 37.4756C86.812 38.3056 85.996 39.0659 84.979 39.7559ZM14.209 24.7358C15.443 23.2858 17.421 21.8859 20.142 20.5459C22.502 19.3859 24.135 18.3257 25.042 17.3857C25.949 16.4457 26.403 15.3856 26.403 14.2256C26.403 13.5356 26.131 12.9558 25.586 12.4858C25.042 12.0158 24.407 11.7759 23.681 11.7759C22.774 11.7759 21.758 12.0158 20.632 12.4858C19.544 12.9258 18.146 13.5956 16.441 14.4956C14.372 15.5856 12.594 16.4259 11.106 17.0059C9.618 17.5859 8.148 17.876 6.696 17.876C5.607 17.876 4.537 17.5859 3.484 17.0059C2.468 16.4259 1.633 15.6057 0.98 14.5557C0.327 13.5057 0 12.2858 0 10.9058C0 9.38576 0.327 8.1157 0.98 7.0957C1.669 6.0757 2.486 5.2457 3.43 4.5957C4.156 4.1257 4.809 3.70594 5.389 3.33594C5.97 2.94594 6.496 2.5558 6.968 2.1958C7.73 1.6558 8.293 1.27566 8.656 1.05566C9.055 0.835664 9.418 0.725586 9.745 0.725586C10.362 0.725586 10.87 0.925684 11.269 1.32568C11.704 1.68568 11.922 2.1957 11.922 2.8457C11.922 3.3557 11.614 3.81582 10.997 4.21582C10.416 4.57582 9.491 5.02568 8.22 5.57568C7.748 5.78568 7.259 6.02588 6.75 6.27588C6.242 6.49588 5.734 6.7559 5.226 7.0459C4.319 7.5159 3.539 8.136 2.885 8.896C2.232 9.656 1.905 10.5056 1.905 11.4556C1.905 12.1456 2.141 12.886 2.613 13.686C3.085 14.446 3.847 14.8257 4.9 14.8257C5.698 14.8257 6.569 14.6256 7.513 14.2256C8.492 13.8256 9.781 13.1957 11.378 12.3257C13.446 11.1957 15.261 10.3256 16.822 9.70557C18.419 9.09557 20.015 8.78564 21.612 8.78564C23.1 8.78564 24.352 9.18584 25.369 9.98584C26.385 10.7758 27.147 11.7457 27.655 12.8657C28.163 13.9957 28.417 15.006 28.417 15.916C28.417 17.226 28.145 18.316 27.601 19.186C27.056 20.056 26.33 20.796 25.423 21.416C24.552 21.996 23.227 22.736 21.449 23.646C20.687 24.046 19.907 24.466 19.108 24.896C18.31 25.336 17.493 25.8059 16.658 26.3159C15.57 27.0059 14.807 27.5857 14.372 28.0557C13.936 28.4957 13.719 29.086 13.719 29.856V31.436C13.719 31.646 13.646 31.8158 13.501 31.9258C13.392 32.0258 13.247 32.0859 13.065 32.0859C12.884 32.0859 12.721 32.0258 12.575 31.9258C12.467 31.7758 12.412 31.616 12.412 31.436V29.2559C12.412 27.6959 13.011 26.1858 14.209 24.7358ZM129.565 27.6157C129.746 27.7257 129.855 27.906 129.892 28.166C129.892 28.456 129.801 28.6759 129.619 28.8159C129.438 28.9659 129.202 29.1059 128.912 29.2559C127.678 29.8659 126.48 30.3556 125.319 30.7256C124.157 31.0856 122.96 31.2656 121.726 31.2656C120.129 31.2656 118.659 30.9258 117.316 30.2358C116.01 29.5058 114.957 28.5058 114.159 27.2358C113.397 25.9358 113.015 24.4657 113.015 22.8257C113.015 21.3457 113.233 19.9756 113.669 18.7456C114.14 17.5156 114.794 16.4256 115.628 15.4756C116.5 14.5356 117.534 13.7758 118.732 13.1958C119.421 12.8358 120.147 12.556 120.909 12.376C121.671 12.156 122.452 12.0158 123.25 11.9458C125.246 11.6858 126.77 11.5659 127.823 11.5659C128.912 11.5259 129.746 11.5259 130.327 11.5659C130.472 11.5659 130.599 11.596 130.708 11.666C130.853 11.746 130.944 11.8358 130.98 11.9458C131.053 12.0558 131.089 12.1556 131.089 12.2656C131.089 12.3456 131.053 12.4158 130.98 12.4858C130.944 12.5558 130.871 12.5957 130.763 12.5957C130.69 12.5957 130.617 12.616 130.545 12.646C130.472 12.646 130.381 12.6859 130.273 12.7559C129.837 12.6859 129.329 12.6859 128.748 12.7559C128.168 12.8359 127.46 12.9259 126.625 13.0259C125.79 13.1359 124.901 13.2858 123.958 13.4658C123.05 13.7158 122.234 13.9956 121.508 14.2856C120.782 14.5756 120.129 14.9558 119.548 15.4258C118.931 15.8958 118.405 16.4557 117.969 17.1157C117.534 17.7257 117.189 18.496 116.935 19.396C116.717 20.306 116.608 21.3459 116.608 22.5059C116.608 24.0959 117.098 25.4757 118.078 26.6357C119.058 27.7657 120.22 28.4358 121.562 28.6558C121.708 28.6958 121.853 28.7256 121.998 28.7656H122.488C123.323 28.7656 124.157 28.6756 124.992 28.4956C125.827 28.3056 126.716 28.0756 127.66 27.7856C127.95 27.6756 128.204 27.6059 128.422 27.5659C128.639 27.4959 128.821 27.4556 128.966 27.4556C129.22 27.4156 129.42 27.4757 129.565 27.6157ZM55.691 14.1157C57.034 12.4457 58.576 11.6157 60.318 11.6157C61.335 11.6157 62.351 11.956 63.367 12.646C64.42 13.306 65.381 14.2258 66.252 15.4258C67.16 16.6258 67.958 17.9859 68.648 19.5059C68.684 19.5459 68.702 19.5958 68.702 19.6758C68.738 19.7058 68.775 19.7659 68.811 19.8359C68.884 20.0859 68.884 20.3457 68.811 20.5957C68.738 20.8157 68.593 20.9556 68.375 21.0356C68.339 21.0656 68.303 21.106 68.266 21.146H68.212C67.994 21.176 67.777 21.1456 67.559 21.0356C67.377 20.8856 67.232 20.7058 67.123 20.4858L66.525 19.2959C65.653 17.6559 64.71 16.2758 63.694 15.1558C62.714 13.9958 61.607 13.416 60.373 13.416C59.284 13.416 58.377 14.0256 57.651 15.2656C56.925 16.4956 56.362 18.116 55.963 20.106C55.6 22.106 55.419 24.2456 55.419 26.5356C55.419 29.1056 55.673 31.2456 56.181 32.9556C56.725 34.6656 57.397 35.9158 58.195 36.7158C59.03 37.5058 59.865 37.9058 60.7 37.9058C62.333 37.9058 63.567 37.4057 64.401 36.3857C65.236 35.3357 65.871 34.2059 66.307 33.0059L66.416 32.7358C66.488 32.6258 66.579 32.516 66.688 32.416C66.797 32.266 66.924 32.1958 67.069 32.1958C67.359 32.1958 67.541 32.3056 67.613 32.5156C67.722 32.7356 67.74 32.9558 67.668 33.1758C67.123 35.7458 66.198 37.6758 64.891 38.9458C63.585 40.1758 61.988 40.7959 60.101 40.7959C58.286 40.7959 56.725 40.1557 55.419 38.8857C54.112 37.6157 53.114 35.966 52.425 33.936C51.772 31.906 51.445 29.7456 51.445 27.4556C51.445 25.1356 51.808 22.7557 52.534 20.3257C53.296 17.8557 54.348 15.7857 55.691 14.1157ZM125.863 39.7056C124.738 40.3956 123.522 40.7358 122.216 40.7358C120.51 40.7358 119.058 40.4658 117.861 39.9258C116.699 39.3758 115.756 38.686 115.03 37.856C114.304 36.986 113.759 35.986 113.397 34.856C113.179 34.356 113.07 33.8956 113.07 33.4956C113.106 33.0656 113.215 32.7356 113.397 32.5156C113.578 32.2656 113.778 32.1059 113.995 32.0259C114.213 31.9259 114.467 31.8858 114.757 31.9258C115.048 31.9558 115.338 32.106 115.628 32.356C115.955 32.606 116.209 33.0057 116.391 33.5557C116.754 34.4957 117.171 35.3159 117.643 36.0059C118.115 36.6559 118.713 37.2057 119.439 37.6357C120.201 38.0757 121.127 38.2856 122.216 38.2856C122.869 38.2856 123.522 38.1956 124.175 38.0156C124.865 37.8356 125.536 37.5656 126.19 37.2056C126.879 36.8356 127.532 36.406 128.149 35.896C128.367 35.646 128.585 35.4758 128.803 35.4058C129.057 35.2958 129.293 35.3459 129.51 35.5659C129.765 35.7859 129.819 36.0357 129.674 36.3257C129.529 36.5857 129.365 36.8058 129.184 36.9858C128.131 38.1058 127.024 39.0156 125.863 39.7056ZM109.64 31.1558C109.676 33.0458 109.695 35.9658 109.695 39.9258C109.695 40.7258 109.549 41.3757 109.259 41.8857C108.969 42.3957 108.515 42.646 107.898 42.646C107.317 42.646 106.828 42.4459 106.428 42.0459C106.065 41.6859 105.884 41.0658 105.884 40.1958C105.811 38.3058 105.757 34.9156 105.721 30.0156V18.4756C105.721 17.3156 105.267 16.2456 104.36 15.2656C103.489 14.2856 102.109 13.7959 100.222 13.7959C98.698 13.7959 97.482 14.3059 96.575 15.3159C95.704 16.2959 95.268 17.476 95.268 18.856C95.268 20.706 95.25 22.1059 95.214 23.0459V27.2358C95.178 28.1058 95.159 28.9659 95.159 29.7959V32.416C95.159 32.916 94.942 33.3957 94.506 33.8257C94.107 34.2257 93.617 34.4258 93.036 34.4258C92.565 34.4258 92.165 34.2257 91.839 33.8257C91.548 33.4257 91.403 32.936 91.403 32.356C91.403 30.216 91.385 28.6357 91.349 27.6157V20.5459C91.349 19.3859 91.675 18.1457 92.329 16.8457C92.982 15.5357 93.962 14.4256 95.268 13.5156C96.611 12.6156 98.244 12.1558 100.168 12.1558C102.2 12.1558 103.942 12.5958 105.394 13.4658C106.846 14.3058 107.916 15.3359 108.606 16.5659C109.295 17.7659 109.64 18.9056 109.64 19.9956V31.1558ZM47.362 23.9756C48.669 26.0056 49.322 28.1859 49.322 30.5059C49.322 32.5359 48.85 34.3159 47.906 35.8359C46.963 37.3659 45.656 38.566 43.987 39.436C42.354 40.266 40.466 40.686 38.325 40.686C37.563 40.686 36.71 40.6158 35.766 40.4658C34.859 40.3258 33.988 40.1458 33.153 39.9258C32.355 39.7058 31.738 39.4658 31.302 39.2158C31.048 39.0658 30.849 38.9259 30.704 38.7759C30.558 38.5959 30.486 38.3058 30.486 37.9058L30.214 29.3657C30.177 28.6357 30.431 28.2759 30.976 28.2759C31.375 28.2759 31.647 28.5959 31.792 29.2559L32.718 33.1157C33.516 36.3857 35.785 38.386 39.523 39.106C41.773 39.066 43.37 38.1956 44.313 36.4956C45.293 34.7856 45.783 32.8257 45.783 30.6157C45.783 28.4757 45.311 26.5356 44.368 24.7856C43.424 23.0156 41.682 21.216 39.142 19.396C36.347 17.476 34.206 15.6257 32.718 13.8457C31.23 12.0357 30.486 10.1057 30.486 8.07568C30.486 5.97568 31.411 4.17604 33.262 2.68604C35.15 1.19604 37.418 0.455566 40.067 0.455566C41.228 0.455566 42.444 0.585938 43.715 0.835938C45.021 1.08594 46.019 1.45578 46.709 1.92578C46.926 2.06578 47.09 2.23602 47.199 2.41602C47.344 2.59602 47.416 2.83598 47.416 3.12598L47.689 9.81592C47.689 10.2859 47.507 10.5259 47.144 10.5259C46.781 10.5259 46.564 10.306 46.491 9.87598L46.273 7.74561C46.128 6.15561 45.475 4.75566 44.313 3.55566C43.152 2.35566 41.664 1.76562 39.849 1.76562C38.18 1.76562 36.765 2.3258 35.603 3.4458C34.442 4.5758 33.861 6.06602 33.861 7.91602C33.861 9.47602 34.406 10.966 35.494 12.376C36.583 13.796 38.47 15.5159 41.156 17.5459C43.987 19.7659 46.055 21.9056 47.362 23.9756ZM59.992 23.8057C60.355 23.4057 60.827 23.2158 61.407 23.2158C61.915 23.2158 62.351 23.4057 62.714 23.8057C63.113 24.1757 63.313 24.626 63.313 25.166C63.313 25.676 63.113 26.1356 62.714 26.5356C62.351 26.8956 61.915 27.0757 61.407 27.0757C60.863 27.0757 60.391 26.8956 59.992 26.5356C59.629 26.1356 59.447 25.676 59.447 25.166C59.447 24.626 59.629 24.1757 59.992 23.8057ZM11.759 36.9258C12.158 36.5258 12.612 36.3257 13.12 36.3257C13.628 36.3257 14.063 36.5258 14.426 36.9258C14.826 37.2958 15.025 37.7456 15.025 38.2856C15.025 38.7956 14.826 39.2558 14.426 39.6558C14.063 40.0158 13.628 40.1958 13.12 40.1958C12.612 40.1958 12.158 40.0158 11.759 39.6558C11.36 39.2558 11.16 38.7956 11.16 38.2856C11.16 37.7456 11.36 37.2958 11.759 36.9258Z" fill="black"/>
</svg>
