<svg width="131" height="43" viewBox="0 0 131 43" fill="none" xmlns="http://www.w3.org/2000/svg">
<path fill-rule="evenodd" clip-rule="evenodd" d="M81.495 28.0059H81.06C79.064 28.0059 77.249 27.636 75.616 26.916C73.983 26.146 72.531 25.3358 71.261 24.4658C71.152 24.3858 71.043 24.3156 70.934 24.2456C70.862 24.1356 70.771 24.0659 70.662 24.0259C70.335 23.7759 70.099 23.4858 69.954 23.1558C69.845 22.8258 69.845 22.576 69.954 22.396C70.099 22.136 70.299 22.0156 70.553 22.0156C70.807 21.9756 71.116 22.0859 71.478 22.3359C71.696 22.5559 71.896 22.7756 72.077 22.9956C72.259 23.1756 72.495 23.3556 72.785 23.5356C74.055 24.3356 75.253 24.9758 76.378 25.4458C77.539 25.8758 78.846 26.046 80.298 25.936C81.822 25.856 82.82 25.3658 83.292 24.4658C83.8 23.5558 84.054 22.196 84.054 20.376C84.054 18.816 83.782 17.2957 83.237 15.8057C82.729 14.2857 81.749 13.5156 80.298 13.5156C79.318 13.5156 78.392 13.9359 77.521 14.7759C76.65 15.6059 75.942 16.9356 75.398 18.7456C75.362 18.8556 75.326 18.9456 75.289 19.0156V19.2959C75.108 19.9459 74.872 20.4858 74.582 20.9258C74.327 21.3558 73.91 21.5757 73.329 21.5757C72.858 21.5757 72.495 21.4458 72.241 21.1958C71.987 20.9058 71.823 20.5758 71.751 20.2158C71.714 19.8158 71.733 19.456 71.805 19.126C71.95 18.366 72.386 17.436 73.112 16.356C73.874 15.266 74.872 14.3058 76.106 13.4658C77.34 12.6358 78.773 12.2158 80.406 12.2158C81.677 12.2158 82.856 12.5257 83.945 13.1357C85.07 13.7557 85.977 14.6958 86.667 15.9658C87.357 17.2058 87.701 18.696 87.701 20.436C87.701 21.886 87.429 23.1556 86.885 24.2456C86.377 25.2956 85.687 26.1457 84.816 26.8057C83.981 27.4157 83.056 27.8058 82.04 27.9458C81.858 27.9858 81.677 28.0059 81.495 28.0059ZM84.87 39.8159C83.854 40.4659 82.638 40.7959 81.223 40.7959C78.683 40.7959 76.614 40.1056 75.017 38.7256C73.456 37.3056 72.331 35.8056 71.642 34.2056C70.952 32.6056 70.571 31.3257 70.499 30.3457C70.426 29.9457 70.462 29.5658 70.607 29.1958C70.753 28.7958 70.97 28.4959 71.261 28.2759C71.587 28.0159 72.005 27.896 72.513 27.896C73.13 27.896 73.602 28.076 73.928 28.436C74.291 28.766 74.545 29.186 74.69 29.686V29.9058C74.727 29.9458 74.745 29.9959 74.745 30.0659C74.817 30.3259 74.854 30.526 74.854 30.666C74.89 30.816 74.944 31.0156 75.017 31.2656C75.271 32.6056 75.598 33.7857 75.997 34.8057C76.396 35.8257 77.013 36.696 77.848 37.416C78.719 38.106 79.844 38.4556 81.223 38.4556C82.312 38.4556 83.201 38.1659 83.891 37.5859C84.616 36.9659 85.161 36.2959 85.524 35.5659C85.887 34.8059 86.213 33.9857 86.504 33.1157C86.721 32.4257 87.012 31.9959 87.375 31.8159C87.738 31.5959 88.155 31.5759 88.627 31.7559C89.099 31.9359 89.425 32.2859 89.607 32.7959C89.824 33.2659 89.752 33.8256 89.389 34.4756C88.663 35.6756 87.992 36.6959 87.375 37.5259C86.758 38.3659 85.923 39.1259 84.87 39.8159ZM14.209 24.7358C15.443 23.2858 17.421 21.8859 20.142 20.5459C22.502 19.3859 24.135 18.3257 25.042 17.3857C25.949 16.4457 26.403 15.3856 26.403 14.2256C26.403 13.5356 26.131 12.9558 25.586 12.4858C25.042 12.0158 24.407 11.7759 23.681 11.7759C22.774 11.7759 21.758 12.0158 20.632 12.4858C19.544 12.9258 18.146 13.5956 16.441 14.4956C14.372 15.5856 12.594 16.4259 11.106 17.0059C9.618 17.5859 8.148 17.876 6.696 17.876C5.607 17.876 4.537 17.5859 3.484 17.0059C2.468 16.4259 1.633 15.6057 0.98 14.5557C0.327 13.5057 0 12.2858 0 10.9058C0 9.38576 0.327 8.1157 0.98 7.0957C1.669 6.0757 2.486 5.2457 3.43 4.5957C4.156 4.1257 4.809 3.70594 5.389 3.33594C5.97 2.94594 6.496 2.5558 6.968 2.1958C7.73 1.6558 8.293 1.27566 8.656 1.05566C9.055 0.835664 9.418 0.725586 9.745 0.725586C10.362 0.725586 10.87 0.925684 11.269 1.32568C11.704 1.68568 11.922 2.1957 11.922 2.8457C11.922 3.3557 11.614 3.81582 10.997 4.21582C10.416 4.57582 9.491 5.02568 8.22 5.57568C7.748 5.78568 7.259 6.02588 6.75 6.27588C6.242 6.49588 5.734 6.7559 5.226 7.0459C4.319 7.5159 3.539 8.136 2.885 8.896C2.232 9.656 1.905 10.5056 1.905 11.4556C1.905 12.1456 2.141 12.886 2.613 13.686C3.085 14.446 3.847 14.8257 4.9 14.8257C5.698 14.8257 6.569 14.6256 7.513 14.2256C8.492 13.8256 9.781 13.1957 11.378 12.3257C13.446 11.1957 15.261 10.3256 16.822 9.70557C18.419 9.09557 20.015 8.78564 21.612 8.78564C23.1 8.78564 24.352 9.18584 25.369 9.98584C26.385 10.7758 27.147 11.7457 27.655 12.8657C28.163 13.9957 28.417 15.006 28.417 15.916C28.417 17.226 28.145 18.316 27.601 19.186C27.056 20.056 26.33 20.796 25.423 21.416C24.552 21.996 23.227 22.736 21.449 23.646C20.687 24.046 19.907 24.466 19.108 24.896C18.31 25.336 17.493 25.8059 16.658 26.3159C15.57 27.0059 14.807 27.5857 14.372 28.0557C13.936 28.4957 13.719 29.086 13.719 29.856V31.436C13.719 31.646 13.646 31.8158 13.501 31.9258C13.392 32.0258 13.247 32.0859 13.065 32.0859C12.884 32.0859 12.721 32.0258 12.575 31.9258C12.467 31.7758 12.412 31.616 12.412 31.436V29.2559C12.412 27.6959 13.011 26.1858 14.209 24.7358ZM129.347 27.7256C129.529 27.8356 129.637 28.0159 129.674 28.2759C129.674 28.5659 129.583 28.7858 129.402 28.9258C129.22 29.0758 128.984 29.2157 128.694 29.3657C127.46 29.9457 126.244 30.4159 125.046 30.7759C123.885 31.1359 122.724 31.3257 121.562 31.3257C119.965 31.3257 118.514 30.9756 117.207 30.2856C115.901 29.5656 114.848 28.5659 114.05 27.2959C113.288 26.0259 112.907 24.576 112.907 22.936C112.907 21.446 113.124 20.086 113.56 18.856C114.032 17.586 114.685 16.4756 115.52 15.5356C116.391 14.5556 117.425 13.7758 118.623 13.1958C119.312 12.8658 120.038 12.596 120.8 12.376C121.562 12.126 122.343 11.9557 123.141 11.8857C125.137 11.6357 126.661 11.466 127.714 11.396C128.803 11.286 129.619 11.2158 130.164 11.1758C130.309 11.1758 130.436 11.2156 130.545 11.2856C130.69 11.3256 130.799 11.3756 130.871 11.4556C130.944 11.5656 130.98 11.6659 130.98 11.7759C130.98 11.8559 130.962 11.9256 130.926 11.9956C130.89 12.0656 130.817 12.106 130.708 12.106C130.672 12.106 130.617 12.1458 130.545 12.2158C130.472 12.2458 130.363 12.2857 130.218 12.3257C129.819 12.3257 129.311 12.3956 128.694 12.5356C128.113 12.6456 127.405 12.7758 126.571 12.9258C125.772 13.0658 124.883 13.2458 123.903 13.4658C122.96 13.7158 122.125 14.0059 121.399 14.3359C120.673 14.6259 120.02 14.9858 119.439 15.4258C118.822 15.9358 118.296 16.516 117.861 17.166C117.461 17.786 117.135 18.5659 116.881 19.5059C116.663 20.4159 116.554 21.466 116.554 22.666C116.554 24.226 117.026 25.5658 117.969 26.6958C118.949 27.8158 120.111 28.5056 121.453 28.7656C121.599 28.7956 121.744 28.836 121.889 28.876H122.379C123.177 28.876 123.994 28.7857 124.829 28.5957C125.663 28.4157 126.534 28.186 127.442 27.896C127.696 27.786 127.932 27.7158 128.149 27.6758C128.404 27.6058 128.603 27.5659 128.748 27.5659C129.002 27.5259 129.202 27.5856 129.347 27.7256ZM55.528 14.1157C56.871 12.4457 58.413 11.6157 60.155 11.6157C61.171 11.6157 62.188 11.956 63.204 12.646C64.256 13.336 65.236 14.2658 66.143 15.4258C67.051 16.5858 67.867 17.9256 68.593 19.4556C68.629 19.5256 68.648 19.5958 68.648 19.6758C68.684 19.7058 68.72 19.7456 68.757 19.7856C68.829 20.0756 68.829 20.3457 68.757 20.5957C68.72 20.8157 68.575 20.9556 68.321 21.0356C68.285 21.0656 68.248 21.0859 68.212 21.0859L68.158 21.146C67.94 21.176 67.74 21.1456 67.559 21.0356C67.377 20.9256 67.214 20.7458 67.069 20.4858L66.47 19.2959C65.563 17.6559 64.601 16.2758 63.585 15.1558C62.569 13.9958 61.444 13.416 60.21 13.416C59.157 13.416 58.25 14.0256 57.488 15.2656C56.762 16.4956 56.217 18.116 55.854 20.106C55.492 22.106 55.31 24.2456 55.31 26.5356C55.31 29.1056 55.564 31.2456 56.072 32.9556C56.617 34.6656 57.288 35.9158 58.086 36.7158C58.921 37.5058 59.756 37.9058 60.591 37.9058C62.224 37.9058 63.458 37.4057 64.293 36.3857C65.127 35.3357 65.762 34.2059 66.198 33.0059L66.307 32.7358C66.379 32.6258 66.47 32.516 66.579 32.416C66.688 32.266 66.815 32.1958 66.96 32.1958C67.25 32.1958 67.432 32.3056 67.504 32.5156C67.613 32.7356 67.631 32.9558 67.559 33.1758C67.014 35.7458 66.089 37.6758 64.782 38.9458C63.476 40.1758 61.879 40.7959 59.992 40.7959C58.177 40.7959 56.617 40.1557 55.31 38.8857C54.004 37.6157 53.006 35.966 52.316 33.936C51.663 31.906 51.336 29.7456 51.336 27.4556C51.336 25.1356 51.699 22.7359 52.425 20.2759C53.187 17.8059 54.221 15.7557 55.528 14.1157ZM125.645 39.7559C124.52 40.4159 123.304 40.7358 121.998 40.7358C120.328 40.7358 118.895 40.4856 117.697 39.9756C116.5 39.4356 115.538 38.7458 114.812 37.9058C114.122 37.0358 113.578 36.0558 113.179 34.9658C112.925 34.4258 112.816 33.9557 112.852 33.5557C112.888 33.1157 112.979 32.7957 113.124 32.5757C113.306 32.3157 113.505 32.1359 113.723 32.0259C113.977 31.9259 114.249 31.9056 114.54 31.9756C114.83 32.0156 115.12 32.156 115.411 32.416C115.701 32.666 115.955 33.066 116.173 33.606C116.536 34.516 116.953 35.3159 117.425 36.0059C117.897 36.6959 118.514 37.2558 119.276 37.6958C120.038 38.0958 120.964 38.2856 122.052 38.2856C122.706 38.2856 123.359 38.2157 124.012 38.0757C124.702 37.8957 125.373 37.6357 126.026 37.3057C126.716 36.9457 127.369 36.5159 127.986 36.0059C128.24 35.7859 128.476 35.6459 128.694 35.5659C128.948 35.4559 129.184 35.5158 129.402 35.7358C129.619 35.9458 129.656 36.2056 129.51 36.4956C129.365 36.7456 129.202 36.966 129.02 37.146C127.932 38.236 126.807 39.1059 125.645 39.7559ZM109.531 31.2158C109.568 33.1358 109.586 36.0756 109.586 40.0356C109.586 40.8356 109.441 41.4856 109.15 41.9956C108.86 42.4956 108.406 42.7559 107.789 42.7559C107.209 42.7559 106.719 42.5756 106.319 42.2056C105.956 41.8456 105.775 41.226 105.775 40.356C105.702 38.476 105.648 35.056 105.612 30.126V18.4756C105.612 17.3156 105.158 16.2456 104.251 15.2656C103.38 14.2856 102.001 13.7959 100.113 13.7959C98.589 13.7959 97.373 14.3059 96.466 15.3159C95.595 16.2959 95.159 17.476 95.159 18.856C95.159 20.636 95.141 21.9757 95.105 22.8857V27.0259C95.069 27.8559 95.051 28.6959 95.051 29.5259V32.0859C95.051 32.5959 94.833 33.0458 94.397 33.4458C93.998 33.8458 93.49 34.0459 92.873 34.0459C92.438 34.0459 92.056 33.8656 91.73 33.4956C91.439 33.0956 91.294 32.6059 91.294 32.0259C91.294 29.9659 91.276 28.4158 91.24 27.4058V20.5459C91.24 19.3859 91.566 18.1457 92.22 16.8457C92.873 15.5357 93.853 14.4256 95.159 13.5156C96.502 12.6156 98.135 12.1558 100.059 12.1558C102.091 12.1558 103.815 12.5958 105.231 13.4658C106.682 14.3058 107.753 15.3359 108.443 16.5659C109.168 17.7659 109.531 18.9056 109.531 19.9956V31.2158ZM47.253 23.9756C48.56 26.0056 49.213 28.1859 49.213 30.5059C49.213 32.5359 48.741 34.3159 47.798 35.8359C46.854 37.3659 45.547 38.566 43.878 39.436C42.245 40.266 40.358 40.686 38.216 40.686C37.454 40.686 36.601 40.6158 35.658 40.4658C34.75 40.3258 33.879 40.1458 33.045 39.9258C32.246 39.7058 31.629 39.4658 31.194 39.2158C30.94 39.0658 30.74 38.9259 30.595 38.7759C30.45 38.5959 30.377 38.3058 30.377 37.9058L30.105 29.3657C30.069 28.6357 30.323 28.2759 30.867 28.2759C31.266 28.2759 31.538 28.5959 31.683 29.2559L32.663 33.1758C33.426 36.4358 35.676 38.416 39.414 39.106C41.664 39.066 43.261 38.1956 44.205 36.4956C45.184 34.7856 45.674 32.8257 45.674 30.6157C45.674 28.4757 45.221 26.5158 44.313 24.7358C43.406 22.9558 41.682 21.1557 39.142 19.3457C36.347 17.4257 34.188 15.5759 32.663 13.7959C31.139 12.0159 30.377 10.1057 30.377 8.07568C30.377 5.97568 31.302 4.17604 33.153 2.68604C35.041 1.19604 37.309 0.455566 39.958 0.455566C41.12 0.455566 42.335 0.585938 43.606 0.835938C44.912 1.08594 45.91 1.45578 46.6 1.92578C46.818 2.06578 46.981 2.23602 47.09 2.41602C47.235 2.59602 47.308 2.83598 47.308 3.12598L47.58 9.65576C47.58 10.1258 47.398 10.3657 47.035 10.3657C46.672 10.3657 46.473 10.1456 46.437 9.70557L46.219 7.646C46.11 6.046 45.457 4.66586 44.259 3.50586C43.061 2.34586 41.555 1.76562 39.741 1.76562C38.071 1.76562 36.656 2.3258 35.494 3.4458C34.333 4.5758 33.752 6.06602 33.752 7.91602C33.752 9.47602 34.297 10.966 35.385 12.376C36.474 13.796 38.361 15.5159 41.047 17.5459C43.878 19.7659 45.947 21.9056 47.253 23.9756ZM59.883 23.8057C60.246 23.4057 60.718 23.2158 61.298 23.2158C61.806 23.2158 62.242 23.4057 62.605 23.8057C63.004 24.1757 63.204 24.626 63.204 25.166C63.204 25.676 63.004 26.1356 62.605 26.5356C62.242 26.8956 61.806 27.0757 61.298 27.0757C60.754 27.0757 60.282 26.8956 59.883 26.5356C59.52 26.1356 59.339 25.676 59.339 25.166C59.339 24.626 59.52 24.1757 59.883 23.8057ZM11.813 36.9858C12.213 36.5858 12.666 36.3857 13.174 36.3857C13.682 36.3857 14.118 36.5858 14.481 36.9858C14.88 37.3458 15.08 37.7957 15.08 38.3457C15.08 38.8557 14.88 39.3056 14.481 39.7056C14.118 40.0656 13.682 40.2456 13.174 40.2456C12.666 40.2456 12.213 40.0656 11.813 39.7056C11.414 39.3056 11.214 38.8557 11.214 38.3457C11.214 37.7957 11.414 37.3458 11.813 36.9858Z" fill="black"/>
</svg>
