<svg width="131" height="43" viewBox="0 0 131 43" fill="none" xmlns="http://www.w3.org/2000/svg">
<path fill-rule="evenodd" clip-rule="evenodd" d="M81.332 28.166H80.842C78.846 28.166 77.013 27.7658 75.344 26.9658C73.71 26.1658 72.277 25.3158 71.043 24.4058C70.934 24.2958 70.825 24.2057 70.716 24.1357C70.644 24.0657 70.553 23.996 70.444 23.916C70.118 23.666 69.882 23.3759 69.736 23.0459C69.628 22.7259 69.646 22.4656 69.791 22.2856C69.936 22.0656 70.136 21.9358 70.39 21.9058C70.644 21.8658 70.952 21.9956 71.315 22.2856C71.533 22.5056 71.733 22.726 71.914 22.936C72.132 23.156 72.368 23.3757 72.622 23.5957C73.856 24.3857 75.053 25.0256 76.215 25.4956C77.376 25.9656 78.683 26.1657 80.134 26.0957C81.659 26.0257 82.675 25.5157 83.183 24.5757C83.691 23.6257 83.945 22.236 83.945 20.376C83.945 18.816 83.673 17.2957 83.128 15.8057C82.62 14.2857 81.64 13.5156 80.189 13.5156C79.173 13.5156 78.229 13.9359 77.358 14.7759C76.487 15.6059 75.779 16.9457 75.235 18.8057C75.198 18.8757 75.18 18.9657 75.18 19.0757C75.18 19.1457 75.162 19.2159 75.126 19.2959C74.981 19.9759 74.763 20.5456 74.473 20.9756C74.219 21.3756 73.801 21.5757 73.221 21.5757C72.712 21.5757 72.331 21.4458 72.077 21.1958C71.823 20.9058 71.66 20.5758 71.587 20.2158C71.551 19.8558 71.569 19.506 71.642 19.186C71.823 18.386 72.277 17.436 73.003 16.356C73.729 15.266 74.709 14.3058 75.942 13.4658C77.213 12.6358 78.664 12.2158 80.298 12.2158C81.568 12.2158 82.747 12.5257 83.836 13.1357C84.961 13.7557 85.869 14.6958 86.558 15.9658C87.248 17.2058 87.592 18.696 87.592 20.436C87.592 21.886 87.32 23.1556 86.776 24.2456C86.268 25.3356 85.578 26.206 84.707 26.856C83.836 27.516 82.874 27.9057 81.822 28.0557C81.677 28.0957 81.513 28.126 81.332 28.166ZM84.816 39.8159C83.8 40.4659 82.566 40.7959 81.114 40.7959C78.61 40.7959 76.559 40.1056 74.963 38.7256C73.366 37.3056 72.222 35.8056 71.533 34.2056C70.843 32.5756 70.444 31.2857 70.335 30.3457C70.299 29.9457 70.335 29.5658 70.444 29.1958C70.589 28.7958 70.825 28.4959 71.152 28.2759C71.478 28.0159 71.896 27.896 72.404 27.896C73.021 27.896 73.493 28.076 73.819 28.436C74.182 28.796 74.436 29.216 74.582 29.686V29.9058C74.618 29.9458 74.636 29.9959 74.636 30.0659C74.672 30.3259 74.709 30.526 74.745 30.666C74.781 30.816 74.817 31.0156 74.854 31.2656C75.144 32.6056 75.489 33.7857 75.888 34.8057C76.324 35.8257 76.959 36.696 77.793 37.416C78.664 38.106 79.771 38.4556 81.114 38.4556C82.203 38.4556 83.11 38.1659 83.836 37.5859C84.562 36.9659 85.106 36.2959 85.469 35.5659C85.832 34.8459 86.159 34.0656 86.449 33.2256C86.667 32.5356 86.957 32.1058 87.32 31.9258C87.719 31.7358 88.137 31.7358 88.572 31.9258C89.044 32.0658 89.371 32.3958 89.552 32.9058C89.77 33.3758 89.697 33.9359 89.334 34.5859C88.572 35.7859 87.883 36.8057 87.266 37.6357C86.649 38.4357 85.832 39.1659 84.816 39.8159ZM14.209 24.7358C15.443 23.2858 17.421 21.8859 20.142 20.5459C22.502 19.3859 24.135 18.3257 25.042 17.3857C25.949 16.4457 26.403 15.3856 26.403 14.2256C26.403 13.5356 26.131 12.9558 25.586 12.4858C25.042 12.0158 24.407 11.7759 23.681 11.7759C22.774 11.7759 21.758 12.0158 20.632 12.4858C19.544 12.9258 18.146 13.5956 16.441 14.4956C14.372 15.5856 12.594 16.4259 11.106 17.0059C9.618 17.5859 8.148 17.876 6.696 17.876C5.607 17.876 4.537 17.5859 3.484 17.0059C2.468 16.4259 1.633 15.6057 0.98 14.5557C0.327 13.5057 0 12.2858 0 10.9058C0 9.38576 0.327 8.1157 0.98 7.0957C1.669 6.0757 2.486 5.2457 3.43 4.5957C4.156 4.1257 4.809 3.70594 5.389 3.33594C5.97 2.94594 6.496 2.5558 6.968 2.1958C7.73 1.6558 8.293 1.27566 8.656 1.05566C9.055 0.835664 9.418 0.725586 9.745 0.725586C10.362 0.725586 10.87 0.925684 11.269 1.32568C11.704 1.68568 11.922 2.1957 11.922 2.8457C11.922 3.3557 11.614 3.81582 10.997 4.21582C10.416 4.57582 9.491 5.02568 8.22 5.57568C7.748 5.78568 7.259 6.02588 6.75 6.27588C6.242 6.49588 5.734 6.7559 5.226 7.0459C4.319 7.5159 3.539 8.136 2.885 8.896C2.232 9.656 1.905 10.5056 1.905 11.4556C1.905 12.1456 2.141 12.886 2.613 13.686C3.085 14.446 3.847 14.8257 4.9 14.8257C5.698 14.8257 6.569 14.6256 7.513 14.2256C8.492 13.8256 9.781 13.1957 11.378 12.3257C13.446 11.1957 15.261 10.3256 16.822 9.70557C18.419 9.09557 20.015 8.78564 21.612 8.78564C23.1 8.78564 24.352 9.18584 25.369 9.98584C26.385 10.7758 27.147 11.7457 27.655 12.8657C28.163 13.9957 28.417 15.006 28.417 15.916C28.417 17.226 28.145 18.316 27.601 19.186C27.056 20.056 26.33 20.796 25.423 21.416C24.552 21.996 23.227 22.736 21.449 23.646C20.687 24.046 19.907 24.466 19.108 24.896C18.31 25.336 17.493 25.8059 16.658 26.3159C15.57 27.0059 14.807 27.5857 14.372 28.0557C13.936 28.4957 13.719 29.086 13.719 29.856V31.436C13.719 31.646 13.646 31.8158 13.501 31.9258C13.392 32.0258 13.247 32.0859 13.065 32.0859C12.884 32.0859 12.721 32.0258 12.575 31.9258C12.467 31.7758 12.412 31.616 12.412 31.436V29.2559C12.412 27.6959 13.011 26.1858 14.209 24.7358ZM129.129 27.8359C129.311 27.9859 129.402 28.186 129.402 28.436C129.438 28.726 129.365 28.9459 129.184 29.0859C129.002 29.2359 128.766 29.3656 128.476 29.4756C127.206 30.0556 125.99 30.5257 124.829 30.8857C123.667 31.2157 122.506 31.376 121.345 31.376C119.784 31.376 118.35 31.0357 117.044 30.3457C115.737 29.6157 114.703 28.6157 113.941 27.3457C113.179 26.0757 112.798 24.6459 112.798 23.0459C112.798 21.5259 113.034 20.1458 113.505 18.9058C113.977 17.6358 114.63 16.5359 115.465 15.5859C116.336 14.6059 117.352 13.8256 118.514 13.2456C119.203 12.8856 119.929 12.596 120.691 12.376C121.453 12.126 122.234 11.9557 123.032 11.8857C125.028 11.5957 126.553 11.3758 127.605 11.2358C128.658 11.0858 129.474 10.9459 130.055 10.7959C130.2 10.7959 130.327 10.816 130.436 10.856C130.545 10.856 130.654 10.9056 130.763 11.0156C130.835 11.0856 130.871 11.1756 130.871 11.2856C130.908 11.3656 130.908 11.4359 130.871 11.5059C130.835 11.5759 130.763 11.636 130.654 11.666C130.617 11.666 130.563 11.7059 130.49 11.7759C130.418 11.8159 130.327 11.8658 130.218 11.9458C129.819 11.9758 129.311 12.0856 128.694 12.2656C128.113 12.4156 127.405 12.5959 126.571 12.8159C125.736 12.9959 124.829 13.196 123.849 13.416C122.869 13.706 122.016 14.0059 121.29 14.3359C120.564 14.6259 119.911 15.0056 119.33 15.4756C118.713 15.9856 118.187 16.5656 117.752 17.2256C117.352 17.8756 117.044 18.6757 116.826 19.6157C116.608 20.5257 116.5 21.5957 116.5 22.8257C116.5 24.3557 116.971 25.6757 117.915 26.8057C118.859 27.9257 119.984 28.5959 121.29 28.8159C121.435 28.8559 121.58 28.8858 121.726 28.9258H122.27C123.032 28.9258 123.812 28.8358 124.611 28.6558C125.446 28.4758 126.299 28.2559 127.17 28.0059C127.46 27.9259 127.714 27.8556 127.932 27.7856C128.186 27.7156 128.385 27.6758 128.531 27.6758C128.785 27.6358 128.984 27.6959 129.129 27.8359ZM55.419 14.1157C56.762 12.4457 58.304 11.6157 60.046 11.6157C61.062 11.6157 62.079 11.956 63.095 12.646C64.111 13.336 65.073 14.2658 65.98 15.4258C66.924 16.5858 67.777 17.9256 68.539 19.4556C68.575 19.5256 68.593 19.5857 68.593 19.6157C68.629 19.6557 68.648 19.7056 68.648 19.7856C68.757 20.0756 68.775 20.3457 68.702 20.5957C68.666 20.8157 68.539 20.9556 68.321 21.0356C68.285 21.0656 68.248 21.0859 68.212 21.0859L68.158 21.146C67.94 21.176 67.722 21.1456 67.504 21.0356C67.323 20.9256 67.16 20.7458 67.014 20.4858L66.416 19.3457C65.472 17.6757 64.492 16.2758 63.476 15.1558C62.46 13.9958 61.335 13.416 60.101 13.416C59.012 13.416 58.086 14.0256 57.324 15.2656C56.598 16.4956 56.054 18.116 55.691 20.106C55.365 22.106 55.201 24.2456 55.201 26.5356C55.201 29.1056 55.455 31.2456 55.963 32.9556C56.508 34.6656 57.179 35.9158 57.978 36.7158C58.812 37.5058 59.647 37.9058 60.482 37.9058C62.115 37.9058 63.349 37.4057 64.184 36.3857C65.018 35.3357 65.653 34.2059 66.089 33.0059L66.198 32.7358C66.27 32.6258 66.361 32.516 66.47 32.416C66.579 32.266 66.706 32.1958 66.851 32.1958C67.141 32.1958 67.323 32.3056 67.396 32.5156C67.504 32.7356 67.522 32.9558 67.45 33.1758C66.906 35.7458 65.98 37.6758 64.674 38.9458C63.367 40.1758 61.77 40.7959 59.883 40.7959C58.068 40.7959 56.508 40.1557 55.201 38.8857C53.895 37.6157 52.897 35.966 52.207 33.936C51.554 31.906 51.227 29.7456 51.227 27.4556C51.227 25.1356 51.59 22.7359 52.316 20.2759C53.042 17.8059 54.076 15.7557 55.419 14.1157ZM125.428 39.8159C124.302 40.4359 123.105 40.7358 121.835 40.7358C120.129 40.7358 118.677 40.4856 117.479 39.9756C116.318 39.4356 115.374 38.7458 114.649 37.9058C113.923 37.0758 113.36 36.1159 112.961 35.0259C112.707 34.4759 112.58 34.006 112.58 33.606C112.616 33.176 112.707 32.8257 112.852 32.5757C113.034 32.3157 113.233 32.1559 113.451 32.0859C113.705 31.9759 113.977 31.9356 114.268 31.9756C114.558 32.0156 114.848 32.156 115.139 32.416C115.465 32.666 115.737 33.066 115.955 33.606C116.318 34.516 116.735 35.3159 117.207 36.0059C117.715 36.6959 118.35 37.2558 119.113 37.6958C119.875 38.1258 120.782 38.3457 121.835 38.3457C122.488 38.3457 123.159 38.276 123.849 38.126C124.538 37.946 125.21 37.6957 125.863 37.3657C126.553 37.0057 127.206 36.606 127.823 36.166C128.113 35.946 128.367 35.8058 128.585 35.7358C128.839 35.6258 129.075 35.676 129.293 35.896C129.474 36.146 129.492 36.4058 129.347 36.6558C129.202 36.9158 129.039 37.1257 128.857 37.3057C127.732 38.3657 126.589 39.1959 125.428 39.8159ZM109.422 31.2656C109.459 33.1956 109.477 36.146 109.477 40.146C109.477 40.936 109.332 41.596 109.041 42.106C108.751 42.606 108.297 42.8657 107.68 42.8657C107.1 42.8657 106.61 42.6859 106.211 42.3159C105.848 41.9559 105.648 41.3559 105.612 40.5259C105.575 38.6359 105.539 35.1858 105.503 30.1758V18.4756C105.503 17.3156 105.049 16.2456 104.142 15.2656C103.271 14.2856 101.874 13.7959 99.95 13.7959C98.462 13.7959 97.264 14.3059 96.357 15.3159C95.486 16.2959 95.051 17.476 95.051 18.856C95.051 20.596 95.032 21.9059 94.996 22.7759V26.8057C94.96 27.6057 94.942 28.3958 94.942 29.1958V31.7559C94.942 32.2259 94.724 32.6659 94.288 33.0659C93.889 33.4659 93.381 33.666 92.764 33.666C92.292 33.666 91.911 33.4857 91.621 33.1157C91.331 32.7157 91.185 32.2456 91.185 31.7056C91.185 29.7056 91.167 28.2158 91.131 27.2358V20.5459C91.131 19.3859 91.458 18.1457 92.111 16.8457C92.764 15.5357 93.744 14.4256 95.051 13.5156C96.393 12.6156 98.027 12.1558 99.95 12.1558C101.982 12.1558 103.706 12.5958 105.122 13.4658C106.573 14.3058 107.644 15.3359 108.334 16.5659C109.06 17.7659 109.422 18.9056 109.422 19.9956V31.2656ZM47.199 23.9756C48.505 26.0056 49.158 28.1859 49.158 30.5059C49.158 32.5359 48.687 34.3159 47.743 35.8359C46.799 37.3659 45.493 38.566 43.823 39.436C42.19 40.266 40.303 40.686 38.162 40.686C37.4 40.686 36.547 40.6158 35.603 40.4658C34.696 40.3258 33.825 40.1458 32.99 39.9258C32.192 39.7058 31.575 39.4658 31.139 39.2158C30.885 39.0658 30.686 38.9259 30.54 38.7759C30.395 38.5959 30.323 38.3058 30.323 37.9058L30.05 29.3657C30.014 28.6357 30.268 28.2759 30.813 28.2759C31.212 28.2759 31.484 28.5959 31.629 29.2559L32.554 33.2856C33.317 36.5456 35.585 38.486 39.359 39.106C41.61 39.066 43.206 38.1956 44.15 36.4956C45.13 34.7856 45.62 32.8257 45.62 30.6157C45.62 28.4757 45.166 26.5158 44.259 24.7358C43.352 22.9158 41.628 21.1059 39.087 19.2959C36.293 17.3659 34.133 15.5359 32.609 13.7959C31.085 12.0159 30.323 10.1057 30.323 8.07568C30.323 5.97568 31.248 4.17604 33.099 2.68604C34.986 1.19604 37.254 0.455566 39.904 0.455566C41.065 0.455566 42.281 0.585938 43.551 0.835938C44.858 1.08594 45.856 1.45578 46.545 1.92578C46.763 2.06578 46.926 2.23602 47.035 2.41602C47.181 2.59602 47.253 2.83598 47.253 3.12598L47.471 9.49561C47.471 9.96561 47.308 10.1958 46.981 10.1958C46.618 10.1958 46.4 9.9859 46.328 9.5459L46.164 7.53564C46.055 5.93564 45.402 4.5758 44.205 3.4458C43.007 2.3258 41.501 1.76562 39.686 1.76562C38.017 1.76562 36.601 2.3258 35.44 3.4458C34.278 4.5758 33.698 6.06602 33.698 7.91602C33.698 9.47602 34.242 10.966 35.331 12.376C36.42 13.796 38.307 15.5159 40.993 17.5459C43.823 19.7659 45.892 21.9056 47.199 23.9756ZM59.774 23.8057C60.137 23.4057 60.609 23.2158 61.19 23.2158C61.698 23.2158 62.133 23.4057 62.496 23.8057C62.895 24.1757 63.095 24.626 63.095 25.166C63.095 25.676 62.895 26.1356 62.496 26.5356C62.133 26.8956 61.698 27.0757 61.19 27.0757C60.645 27.0757 60.173 26.8956 59.774 26.5356C59.411 26.1356 59.23 25.676 59.23 25.166C59.23 24.626 59.411 24.1757 59.774 23.8057ZM11.813 37.0356C12.213 36.6356 12.666 36.436 13.174 36.436C13.682 36.436 14.118 36.6356 14.481 37.0356C14.88 37.4056 15.08 37.856 15.08 38.396C15.08 38.906 14.88 39.3659 14.481 39.7559C14.118 40.1259 13.682 40.3057 13.174 40.3057C12.666 40.3057 12.213 40.1259 11.813 39.7559C11.414 39.3659 11.214 38.906 11.214 38.396C11.214 37.856 11.414 37.4056 11.813 37.0356Z" fill="black"/>
</svg>
