<svg width="131" height="44" viewBox="0 0 131 44" fill="none" xmlns="http://www.w3.org/2000/svg">
<path fill-rule="evenodd" clip-rule="evenodd" d="M81.169 28.2759H80.679C78.683 28.2759 76.85 27.8757 75.18 27.0757C73.511 26.2457 72.059 25.336 70.825 24.356C70.716 24.246 70.607 24.1559 70.499 24.0859C70.426 23.9759 70.335 23.8957 70.226 23.8657C69.936 23.5757 69.718 23.266 69.573 22.936C69.464 22.616 69.482 22.3558 69.628 22.1758C69.773 21.9558 69.972 21.8457 70.226 21.8457C70.517 21.8157 70.807 21.9358 71.097 22.2358C71.351 22.4458 71.569 22.686 71.751 22.936C71.968 23.156 72.204 23.3757 72.458 23.5957C73.692 24.4257 74.89 25.096 76.051 25.606C77.213 26.076 78.519 26.2756 79.971 26.2056C81.531 26.1356 82.548 25.6258 83.019 24.6758C83.528 23.6958 83.782 22.266 83.782 20.376C83.782 18.816 83.51 17.2957 82.965 15.8057C82.457 14.2857 81.477 13.5156 80.025 13.5156C79.046 13.5156 78.12 13.9557 77.249 14.8257C76.378 15.6657 75.67 16.9857 75.126 18.8057C75.09 18.9057 75.053 19.0057 75.017 19.0757V19.3457C74.836 19.9957 74.618 20.5456 74.364 20.9756C74.11 21.3756 73.692 21.5757 73.112 21.5757C72.604 21.5757 72.222 21.4458 71.968 21.1958C71.714 20.9058 71.551 20.5758 71.478 20.2158C71.442 19.8558 71.46 19.506 71.533 19.186C71.678 18.416 72.114 17.4958 72.839 16.4058C73.602 15.2858 74.6 14.3058 75.834 13.4658C77.068 12.6358 78.501 12.2158 80.134 12.2158C81.405 12.2158 82.584 12.5257 83.673 13.1357C84.798 13.7557 85.705 14.6958 86.395 15.9658C87.084 17.2058 87.429 18.696 87.429 20.436C87.429 21.886 87.157 23.1759 86.613 24.2959C86.104 25.3859 85.415 26.2758 84.544 26.9658C83.673 27.6158 82.711 28.0358 81.659 28.2158C81.513 28.2558 81.35 28.2759 81.169 28.2759ZM84.762 39.8657C83.745 40.4857 82.511 40.7959 81.06 40.7959C78.519 40.7959 76.451 40.1056 74.854 38.7256C73.257 37.3056 72.095 35.8056 71.37 34.2056C70.68 32.5756 70.299 31.306 70.226 30.396C70.154 29.996 70.19 29.6159 70.335 29.2559C70.48 28.8559 70.698 28.5457 70.989 28.3257C71.315 28.0757 71.733 27.9458 72.241 27.9458C72.858 27.9458 73.348 28.1256 73.71 28.4956C74.073 28.8556 74.327 29.2756 74.473 29.7456V29.9658C74.509 29.9958 74.527 30.056 74.527 30.126C74.563 30.376 74.6 30.5756 74.636 30.7256C74.672 30.8656 74.709 31.0657 74.745 31.3257C75.035 32.6257 75.38 33.7857 75.779 34.8057C76.215 35.8257 76.868 36.696 77.739 37.416C78.61 38.106 79.717 38.4556 81.06 38.4556C82.149 38.4556 83.056 38.1659 83.782 37.5859C84.507 37.0059 85.034 36.3658 85.36 35.6758C85.723 34.9558 86.086 34.1759 86.449 33.3359C86.667 32.6459 86.957 32.2159 87.32 32.0259C87.683 31.8459 88.082 31.8459 88.518 32.0259C88.99 32.2159 89.316 32.5559 89.498 33.0659C89.716 33.5359 89.643 34.0758 89.28 34.6958C88.518 35.8958 87.828 36.8958 87.211 37.6958C86.594 38.4858 85.778 39.2157 84.762 39.8657ZM14.209 24.7358C15.443 23.2858 17.421 21.8859 20.142 20.5459C22.502 19.3859 24.135 18.3257 25.042 17.3857C25.949 16.4457 26.403 15.3856 26.403 14.2256C26.403 13.5356 26.131 12.9558 25.586 12.4858C25.042 12.0158 24.407 11.7759 23.681 11.7759C22.774 11.7759 21.758 12.0158 20.632 12.4858C19.544 12.9258 18.146 13.5956 16.441 14.4956C14.372 15.5856 12.594 16.4259 11.106 17.0059C9.618 17.5859 8.148 17.876 6.696 17.876C5.607 17.876 4.537 17.5859 3.484 17.0059C2.468 16.4259 1.633 15.6057 0.98 14.5557C0.327 13.5057 0 12.2858 0 10.9058C0 9.38576 0.327 8.1157 0.98 7.0957C1.669 6.0757 2.486 5.2457 3.43 4.5957C4.156 4.1257 4.809 3.70594 5.389 3.33594C5.97 2.94594 6.496 2.5558 6.968 2.1958C7.73 1.6558 8.293 1.27566 8.656 1.05566C9.055 0.835664 9.418 0.725586 9.745 0.725586C10.362 0.725586 10.87 0.925684 11.269 1.32568C11.704 1.68568 11.922 2.1957 11.922 2.8457C11.922 3.3557 11.614 3.81582 10.997 4.21582C10.416 4.57582 9.491 5.02568 8.22 5.57568C7.748 5.78568 7.259 6.02588 6.75 6.27588C6.242 6.49588 5.734 6.7559 5.226 7.0459C4.319 7.5159 3.539 8.136 2.885 8.896C2.232 9.656 1.905 10.5056 1.905 11.4556C1.905 12.1456 2.141 12.886 2.613 13.686C3.085 14.446 3.847 14.8257 4.9 14.8257C5.698 14.8257 6.569 14.6256 7.513 14.2256C8.492 13.8256 9.781 13.1957 11.378 12.3257C13.446 11.1957 15.261 10.3256 16.822 9.70557C18.419 9.09557 20.015 8.78564 21.612 8.78564C23.1 8.78564 24.352 9.18584 25.369 9.98584C26.385 10.7758 27.147 11.7457 27.655 12.8657C28.163 13.9957 28.417 15.006 28.417 15.916C28.417 17.226 28.145 18.316 27.601 19.186C27.056 20.056 26.33 20.796 25.423 21.416C24.552 21.996 23.227 22.736 21.449 23.646C20.687 24.046 19.907 24.466 19.108 24.896C18.31 25.336 17.493 25.8059 16.658 26.3159C15.57 27.0059 14.807 27.5857 14.372 28.0557C13.936 28.4957 13.719 29.086 13.719 29.856V31.436C13.719 31.646 13.646 31.8158 13.501 31.9258C13.392 32.0258 13.247 32.0859 13.065 32.0859C12.884 32.0859 12.721 32.0258 12.575 31.9258C12.467 31.7758 12.412 31.616 12.412 31.436V29.2559C12.412 27.6959 13.011 26.1858 14.209 24.7358ZM128.912 28.0059C129.093 28.1059 129.184 28.2959 129.184 28.5459C129.22 28.8359 129.129 29.0558 128.912 29.1958C128.73 29.3458 128.494 29.4757 128.204 29.5757C126.97 30.1257 125.772 30.5557 124.611 30.8857C123.45 31.2157 122.306 31.376 121.181 31.376C119.621 31.376 118.187 31.0357 116.881 30.3457C115.61 29.6557 114.594 28.6956 113.832 27.4556C113.106 26.1856 112.743 24.7558 112.743 23.1558C112.743 21.6358 112.961 20.2358 113.397 18.9658C113.868 17.6958 114.522 16.586 115.356 15.646C116.227 14.666 117.262 13.8656 118.459 13.2456C119.149 12.8856 119.857 12.596 120.582 12.376C121.345 12.126 122.125 11.9557 122.923 11.8857C124.956 11.5657 126.48 11.2857 127.496 11.0757C128.549 10.8557 129.347 10.636 129.892 10.416C130.037 10.386 130.164 10.386 130.273 10.416C130.418 10.416 130.527 10.4559 130.599 10.5259C130.708 10.5959 130.763 10.6859 130.763 10.7959C130.799 10.8759 130.799 10.9456 130.763 11.0156C130.726 11.0556 130.69 11.1058 130.654 11.1758C130.581 11.2158 130.508 11.2657 130.436 11.3457C130.363 11.3757 130.273 11.4359 130.164 11.5059C129.764 11.6159 129.275 11.7756 128.694 11.9956C128.113 12.2156 127.405 12.436 126.571 12.646C125.736 12.866 124.829 13.106 123.849 13.356C122.833 13.686 121.943 14.0059 121.181 14.3359C120.455 14.6659 119.802 15.0656 119.221 15.5356C118.604 16.0056 118.078 16.5859 117.643 17.2759C117.244 17.9259 116.935 18.7258 116.717 19.6758C116.536 20.6158 116.445 21.706 116.445 22.936C116.445 24.466 116.899 25.786 117.806 26.916C118.75 28.006 119.875 28.6758 121.181 28.9258C121.326 28.9658 121.472 28.9956 121.617 29.0356H122.107C122.869 29.0356 123.649 28.9456 124.448 28.7656C125.282 28.5856 126.117 28.366 126.952 28.106C127.242 28.036 127.496 27.966 127.714 27.896C127.968 27.816 128.168 27.7856 128.313 27.7856C128.567 27.7856 128.766 27.8559 128.912 28.0059ZM55.256 14.1157C56.598 12.4457 58.141 11.6157 59.883 11.6157C60.899 11.6157 61.915 11.956 62.932 12.646C63.984 13.336 64.964 14.2658 65.871 15.4258C66.815 16.5858 67.686 17.9256 68.484 19.4556C68.521 19.4956 68.539 19.5457 68.539 19.6157C68.575 19.6557 68.593 19.7056 68.593 19.7856C68.702 20.0356 68.72 20.2859 68.648 20.5459C68.611 20.7659 68.484 20.9256 68.266 21.0356C68.23 21.0656 68.194 21.0859 68.158 21.0859H68.103C67.885 21.1559 67.668 21.1456 67.45 21.0356C67.269 20.9256 67.105 20.7659 66.96 20.5459L66.361 19.3457C65.381 17.6757 64.365 16.2758 63.313 15.1558C62.296 13.9958 61.171 13.416 59.937 13.416C58.885 13.416 57.978 14.0256 57.215 15.2656C56.49 16.4956 55.945 18.116 55.582 20.106C55.219 22.106 55.038 24.2456 55.038 26.5356C55.038 29.1056 55.292 31.2456 55.8 32.9556C56.344 34.6656 57.016 35.9158 57.814 36.7158C58.649 37.5058 59.484 37.9058 60.318 37.9058C61.952 37.9058 63.186 37.4057 64.02 36.3857C64.855 35.3357 65.49 34.2059 65.926 33.0059L66.035 32.7358C66.107 32.6258 66.198 32.516 66.307 32.416C66.416 32.266 66.543 32.1958 66.688 32.1958C66.978 32.1958 67.16 32.3056 67.232 32.5156C67.341 32.7356 67.359 32.9558 67.287 33.1758C66.742 35.7458 65.817 37.6758 64.51 38.9458C63.204 40.1758 61.607 40.7959 59.72 40.7959C57.905 40.7959 56.344 40.1557 55.038 38.8857C53.731 37.6157 52.733 35.966 52.044 33.936C51.39 31.906 51.064 29.7456 51.064 27.4556C51.064 25.1356 51.427 22.7359 52.153 20.2759C52.915 17.8059 53.949 15.7557 55.256 14.1157ZM125.21 39.8657C124.085 40.4457 122.887 40.7358 121.617 40.7358C119.947 40.7358 118.514 40.4856 117.316 39.9756C116.155 39.4656 115.211 38.7958 114.485 37.9658C113.759 37.1258 113.179 36.1657 112.743 35.0757C112.489 34.5357 112.362 34.046 112.362 33.606C112.398 33.176 112.489 32.846 112.634 32.626C112.816 32.376 113.015 32.1959 113.233 32.0859C113.451 31.9759 113.705 31.9356 113.995 31.9756C114.286 32.0156 114.576 32.156 114.866 32.416C115.193 32.666 115.465 33.066 115.683 33.606C116.082 34.516 116.536 35.3159 117.044 36.0059C117.552 36.6959 118.187 37.2558 118.949 37.6958C119.711 38.1258 120.619 38.3457 121.671 38.3457C122.324 38.3457 122.996 38.276 123.685 38.126C124.375 37.946 125.046 37.706 125.7 37.416C126.389 37.096 127.061 36.7159 127.714 36.2759C128.004 36.0559 128.258 35.9159 128.476 35.8359C128.73 35.7659 128.948 35.8357 129.129 36.0557C129.347 36.3157 129.365 36.5659 129.184 36.8159C129.039 37.0759 128.875 37.2956 128.694 37.4756C127.532 38.4856 126.371 39.2857 125.21 39.8657ZM109.259 31.3257C109.295 33.2857 109.314 36.2757 109.314 40.3057C109.314 41.1057 109.168 41.7561 108.878 42.2661C108.588 42.7761 108.134 43.0259 107.517 43.0259C106.936 43.0259 106.446 42.8458 106.047 42.4858C105.684 42.1158 105.503 41.516 105.503 40.686C105.43 38.796 105.376 35.3356 105.34 30.2856V18.4756C105.34 17.3156 104.886 16.2456 103.979 15.2656C103.108 14.2856 101.728 13.7959 99.841 13.7959C98.317 13.7959 97.101 14.3059 96.194 15.3159C95.323 16.2959 94.887 17.476 94.887 18.856C94.887 20.526 94.869 21.796 94.833 22.666V26.5356C94.796 27.3256 94.778 28.1258 94.778 28.9258V31.436C94.778 31.906 94.561 32.3358 94.125 32.7358C93.726 33.1358 93.236 33.3359 92.655 33.3359C92.183 33.3359 91.784 33.1559 91.458 32.7959C91.167 32.3959 91.022 31.9057 91.022 31.3257C91.022 29.3957 91.004 27.9659 90.968 27.0259V20.5459C90.968 19.3859 91.294 18.1457 91.948 16.8457C92.601 15.5357 93.581 14.4256 94.887 13.5156C96.23 12.6156 97.863 12.1558 99.787 12.1558C101.819 12.1558 103.561 12.5958 105.013 13.4658C106.465 14.3058 107.535 15.3359 108.225 16.5659C108.914 17.7659 109.259 18.9056 109.259 19.9956V31.3257ZM47.09 23.9756C48.396 26.0056 49.05 28.1859 49.05 30.5059C49.05 32.5359 48.578 34.3159 47.634 35.8359C46.691 37.3659 45.384 38.566 43.715 39.436C42.081 40.266 40.194 40.686 38.053 40.686C37.291 40.686 36.438 40.6158 35.494 40.4658C34.587 40.3258 33.716 40.1458 32.881 39.9258C32.083 39.7058 31.466 39.4658 31.03 39.2158C30.776 39.0658 30.577 38.9259 30.431 38.7759C30.286 38.5959 30.214 38.3058 30.214 37.9058L29.942 29.3657C29.905 28.6357 30.159 28.2759 30.704 28.2759C31.103 28.2759 31.375 28.5959 31.52 29.2559L32.446 33.3359C33.244 36.6059 35.512 38.526 39.251 39.106C41.501 39.066 43.098 38.1956 44.041 36.4956C45.021 34.7856 45.511 32.8257 45.511 30.6157C45.511 28.4757 45.057 26.4958 44.15 24.6758C43.279 22.8658 41.573 21.0558 39.033 19.2358C36.238 17.3158 34.061 15.4758 32.5 13.7358C30.976 11.9958 30.214 10.1057 30.214 8.07568C30.214 5.97568 31.139 4.17604 32.99 2.68604C34.877 1.19604 37.146 0.455566 39.795 0.455566C40.956 0.455566 42.172 0.585938 43.442 0.835938C44.749 1.08594 45.747 1.45578 46.437 1.92578C46.654 2.06578 46.818 2.23602 46.926 2.41602C47.072 2.59602 47.144 2.83598 47.144 3.12598L47.362 9.32568C47.362 9.76568 47.199 9.98584 46.872 9.98584C46.509 10.0158 46.31 9.81574 46.273 9.38574L46.11 7.42578C46.001 5.82578 45.33 4.486 44.096 3.396C42.898 2.306 41.392 1.76562 39.577 1.76562C37.908 1.76562 36.492 2.3258 35.331 3.4458C34.17 4.5758 33.589 6.06602 33.589 7.91602C33.589 9.47602 34.133 10.966 35.222 12.376C36.311 13.796 38.198 15.5159 40.884 17.5459C43.715 19.7659 45.783 21.9056 47.09 23.9756ZM59.611 23.8057C59.974 23.4057 60.446 23.2158 61.026 23.2158C61.534 23.2158 61.97 23.4057 62.333 23.8057C62.732 24.1757 62.932 24.626 62.932 25.166C62.932 25.676 62.732 26.1356 62.333 26.5356C61.97 26.8956 61.534 27.0757 61.026 27.0757C60.482 27.0757 60.01 26.8956 59.611 26.5356C59.248 26.1356 59.066 25.676 59.066 25.166C59.066 24.626 59.248 24.1757 59.611 23.8057ZM11.813 37.0957C12.213 36.6957 12.666 36.4956 13.174 36.4956C13.682 36.4956 14.118 36.6957 14.481 37.0957C14.88 37.4557 15.08 37.9056 15.08 38.4556C15.08 38.9656 14.88 39.4159 14.481 39.8159C14.118 40.1759 13.682 40.356 13.174 40.356C12.666 40.356 12.213 40.1759 11.813 39.8159C11.414 39.4159 11.214 38.9656 11.214 38.4556C11.214 37.9056 11.414 37.4557 11.813 37.0957Z" fill="black"/>
</svg>
