<svg width="131" height="44" viewBox="0 0 131 44" fill="none" xmlns="http://www.w3.org/2000/svg">
<path fill-rule="evenodd" clip-rule="evenodd" d="M80.951 28.4365H80.461C78.465 28.4365 76.614 28.006 74.908 27.126C73.239 26.256 71.805 25.3159 70.607 24.2959C70.462 24.1859 70.335 24.0964 70.226 24.0264C70.154 23.9164 70.081 23.8259 70.009 23.7559C69.718 23.5059 69.519 23.2167 69.41 22.8867C69.301 22.5267 69.319 22.2464 69.464 22.0664C69.609 21.8464 69.809 21.7461 70.063 21.7461C70.353 21.7461 70.644 21.8868 70.934 22.1768C71.188 22.4268 71.406 22.6865 71.587 22.9365C71.805 23.1565 72.059 23.3767 72.35 23.5967C73.511 24.4667 74.672 25.1562 75.834 25.6562C77.031 26.1662 78.356 26.3864 79.808 26.3164C81.368 26.2764 82.403 25.7661 82.911 24.7861C83.419 23.7761 83.673 22.306 83.673 20.376C83.673 18.816 83.401 17.2966 82.856 15.8066C82.348 14.2866 81.368 13.5166 79.917 13.5166C78.937 13.5166 77.993 13.9562 77.086 14.8262C76.215 15.6662 75.507 17.0064 74.963 18.8564C74.926 18.9264 74.89 19.016 74.854 19.126V19.3467C74.709 20.0367 74.491 20.5766 74.2 20.9766C73.946 21.3766 73.529 21.5762 72.948 21.5762C72.477 21.5762 72.095 21.4463 71.805 21.1963C71.551 20.9463 71.388 20.6364 71.315 20.2764C71.279 19.9064 71.297 19.5663 71.37 19.2363C71.515 18.4763 71.95 17.5362 72.676 16.4062C73.438 15.2862 74.436 14.3058 75.67 13.4658C76.941 12.6358 78.392 12.2158 80.025 12.2158C81.296 12.2158 82.475 12.5267 83.564 13.1367C84.689 13.7567 85.596 14.6958 86.286 15.9658C86.975 17.2058 87.32 18.6965 87.32 20.4365C87.32 21.8865 87.048 23.1759 86.504 24.2959C85.996 25.4259 85.288 26.3364 84.381 27.0264C83.51 27.7164 82.548 28.1462 81.495 28.3262C81.314 28.3662 81.132 28.3965 80.951 28.4365ZM84.653 39.8662C83.637 40.4862 82.421 40.7959 81.005 40.7959C78.429 40.7959 76.324 40.1066 74.69 38.7266C73.094 37.3066 71.932 35.7862 71.206 34.1562C70.517 32.5163 70.136 31.2665 70.063 30.3965C70.027 29.9965 70.081 29.6159 70.226 29.2559C70.372 28.8859 70.589 28.5967 70.88 28.3867C71.206 28.1267 71.624 28.0059 72.132 28.0059C72.749 28.0059 73.221 28.1859 73.547 28.5459C73.91 28.8759 74.164 29.2859 74.309 29.7959V30.0166C74.346 30.0566 74.364 30.1068 74.364 30.1768C74.436 30.4368 74.473 30.6364 74.473 30.7764C74.509 30.9264 74.563 31.126 74.636 31.376C74.89 32.646 75.235 33.7866 75.67 34.8066C76.106 35.8266 76.759 36.696 77.63 37.416C78.501 38.106 79.608 38.4561 80.951 38.4561C82.076 38.4561 82.983 38.1867 83.673 37.6367C84.399 37.0567 84.943 36.4263 85.306 35.7363C85.669 35.0463 86.032 34.2665 86.395 33.3965C86.613 32.7365 86.903 32.3363 87.266 32.1963C87.629 32.0163 88.046 32.0163 88.518 32.1963C88.953 32.3763 89.262 32.7166 89.443 33.2266C89.661 33.6966 89.589 34.2464 89.226 34.8564C88.427 36.0564 87.719 37.0359 87.102 37.7959C86.486 38.5659 85.669 39.2562 84.653 39.8662ZM14.209 24.7363C15.443 23.2863 17.421 21.8859 20.142 20.5459C22.502 19.3859 24.135 18.3267 25.042 17.3867C25.949 16.4467 26.403 15.3866 26.403 14.2266C26.403 13.5366 26.131 12.9563 25.586 12.4863C25.042 12.0163 24.407 11.7764 23.681 11.7764C22.774 11.7764 21.758 12.0163 20.632 12.4863C19.544 12.9263 18.146 13.5961 16.441 14.4961C14.372 15.5861 12.594 16.4259 11.106 17.0059C9.618 17.5859 8.148 17.876 6.696 17.876C5.607 17.876 4.537 17.5859 3.484 17.0059C2.468 16.4259 1.633 15.6066 0.98 14.5566C0.327 13.5066 0 12.2862 0 10.9062C0 9.38625 0.327 8.11668 0.98 7.09668C1.669 6.07668 2.486 5.24668 3.43 4.59668C4.156 4.12668 4.809 3.70594 5.389 3.33594C5.97 2.94594 6.496 2.55629 6.968 2.19629C7.73 1.65629 8.293 1.27664 8.656 1.05664C9.055 0.836641 9.418 0.726562 9.745 0.726562C10.362 0.726562 10.87 0.926172 11.269 1.32617C11.704 1.68617 11.922 2.19668 11.922 2.84668C11.922 3.35668 11.614 3.81582 10.997 4.21582C10.416 4.57582 9.491 5.02617 8.22 5.57617C7.748 5.78617 7.259 6.02637 6.75 6.27637C6.242 6.49637 5.734 6.7559 5.226 7.0459C4.319 7.5159 3.539 8.13648 2.885 8.89648C2.232 9.65648 1.905 10.5061 1.905 11.4561C1.905 12.1461 2.141 12.8865 2.613 13.6865C3.085 14.4465 3.847 14.8262 4.9 14.8262C5.698 14.8262 6.569 14.6266 7.513 14.2266C8.492 13.8266 9.781 13.1962 11.378 12.3262C13.446 11.1962 15.261 10.3261 16.822 9.70605C18.419 9.09605 20.015 8.78613 21.612 8.78613C23.1 8.78613 24.352 9.18633 25.369 9.98633C26.385 10.7763 27.147 11.7462 27.655 12.8662C28.163 13.9962 28.417 15.006 28.417 15.916C28.417 17.226 28.145 18.3165 27.601 19.1865C27.056 20.0565 26.33 20.796 25.423 21.416C24.552 21.996 23.227 22.7365 21.449 23.6465C20.687 24.0465 19.907 24.4665 19.108 24.8965C18.31 25.3365 17.493 25.8064 16.658 26.3164C15.57 27.0064 14.807 27.5866 14.372 28.0566C13.936 28.4966 13.719 29.0864 13.719 29.8564V31.4365C13.719 31.6465 13.646 31.8168 13.501 31.9268C13.392 32.0268 13.247 32.0859 13.065 32.0859C12.884 32.0859 12.721 32.0268 12.575 31.9268C12.467 31.7768 12.412 31.6165 12.412 31.4365V29.2559C12.412 27.6959 13.011 26.1863 14.209 24.7363ZM128.694 28.1064C128.875 28.2564 128.966 28.4561 128.966 28.7061C128.966 28.9961 128.875 29.2162 128.694 29.3662C128.512 29.4762 128.277 29.5961 127.986 29.7461C126.752 30.2561 125.536 30.6661 124.339 30.9961C123.177 31.2861 122.07 31.4365 121.018 31.4365C119.457 31.4365 118.042 31.0865 116.772 30.3965C115.501 29.7065 114.485 28.7466 113.723 27.5166C112.997 26.2766 112.634 24.8666 112.634 23.2666C112.634 21.7466 112.852 20.3462 113.288 19.0762C113.759 17.7662 114.413 16.6265 115.247 15.6465C116.118 14.6665 117.153 13.8661 118.35 13.2461C119.04 12.8861 119.748 12.596 120.474 12.376C121.236 12.126 122.016 11.9459 122.814 11.8359C124.847 11.5459 126.371 11.2558 127.387 10.9658C128.44 10.6758 129.238 10.3867 129.783 10.0967C129.928 10.0167 130.055 9.98633 130.164 9.98633C130.273 9.98633 130.381 9.99613 130.49 10.0361C130.563 10.1061 130.617 10.1859 130.654 10.2559C130.69 10.3259 130.69 10.3966 130.654 10.4766C130.654 10.5466 130.636 10.6165 130.599 10.6865C130.527 10.7265 130.454 10.7764 130.381 10.8564C130.345 10.9264 130.254 11.016 130.109 11.126C129.746 11.266 129.256 11.4666 128.639 11.7266C128.059 11.9766 127.351 12.2461 126.516 12.5361C125.682 12.7961 124.774 13.0664 123.794 13.3564C122.742 13.6864 121.835 14.0059 121.072 14.3359C120.347 14.6659 119.693 15.0859 119.113 15.5859C118.496 16.0659 117.988 16.6459 117.588 17.3359C117.189 17.9859 116.881 18.8061 116.663 19.7861C116.445 20.7261 116.336 21.8364 116.336 23.1064C116.336 24.5864 116.79 25.8964 117.697 27.0264C118.641 28.1064 119.766 28.7663 121.072 28.9863C121.218 29.0163 121.363 29.0559 121.508 29.0859H121.998C122.724 29.0859 123.486 29.016 124.284 28.876C125.083 28.696 125.881 28.4758 126.68 28.2158C126.97 28.1458 127.242 28.0966 127.496 28.0566C127.75 27.9866 127.932 27.9463 128.041 27.9463C128.295 27.9063 128.512 27.9664 128.694 28.1064ZM55.092 14.1162C56.435 12.4462 57.978 11.6162 59.72 11.6162C60.736 11.6162 61.752 11.9565 62.768 12.6465C63.821 13.3365 64.819 14.2668 65.762 15.4268C66.706 16.5868 67.595 17.9261 68.43 19.4561C68.466 19.4961 68.484 19.5462 68.484 19.6162C68.521 19.6562 68.539 19.7061 68.539 19.7861C68.648 20.0361 68.684 20.2859 68.648 20.5459C68.611 20.7659 68.466 20.9261 68.212 21.0361C68.176 21.0661 68.14 21.0859 68.103 21.0859H68.049C67.831 21.1559 67.631 21.1461 67.45 21.0361C67.269 20.9261 67.105 20.7659 66.96 20.5459L66.307 19.3965C65.29 17.7265 64.256 16.3162 63.204 15.1562C62.151 13.9963 61.008 13.416 59.774 13.416C58.722 13.416 57.814 14.0266 57.052 15.2666C56.326 16.4966 55.782 18.1164 55.419 20.1064C55.092 22.1064 54.929 24.2461 54.929 26.5361C54.929 29.1061 55.183 31.2461 55.691 32.9561C56.236 34.6661 56.907 35.9158 57.705 36.7158C58.54 37.5058 59.375 37.9062 60.21 37.9062C61.843 37.9062 63.077 37.4067 63.911 36.3867C64.746 35.3367 65.381 34.2059 65.817 33.0059L65.926 32.7363C65.998 32.6263 66.089 32.516 66.198 32.416C66.307 32.266 66.434 32.1963 66.579 32.1963C66.869 32.1963 67.051 32.3066 67.123 32.5166C67.232 32.7366 67.25 32.9568 67.178 33.1768C66.633 35.7468 65.708 37.6763 64.401 38.9463C63.095 40.1763 61.498 40.7959 59.611 40.7959C57.796 40.7959 56.236 40.1567 54.929 38.8867C53.622 37.6167 52.624 35.9665 51.935 33.9365C51.282 31.9065 50.955 29.7461 50.955 27.4561C50.955 25.1361 51.318 22.7364 52.044 20.2764C52.77 17.8064 53.786 15.7562 55.092 14.1162ZM124.992 39.9268C123.831 40.4668 122.651 40.7363 121.453 40.7363C119.784 40.7363 118.35 40.4866 117.153 39.9766C115.955 39.4666 114.993 38.8166 114.268 38.0166C113.542 37.1866 112.961 36.2365 112.525 35.1865C112.271 34.6065 112.144 34.096 112.144 33.666C112.144 33.226 112.217 32.886 112.362 32.626C112.544 32.376 112.743 32.2167 112.961 32.1367C113.179 31.9967 113.433 31.9366 113.723 31.9766C114.013 32.0166 114.304 32.156 114.594 32.416C114.921 32.666 115.211 33.086 115.465 33.666C115.864 34.536 116.318 35.3159 116.826 36.0059C117.334 36.6959 117.969 37.2563 118.732 37.6963C119.53 38.1263 120.455 38.3467 121.508 38.3467C122.161 38.3467 122.814 38.276 123.468 38.126C124.157 37.986 124.847 37.7666 125.536 37.4766C126.226 37.1866 126.897 36.8365 127.551 36.4365C127.841 36.2265 128.113 36.0759 128.367 36.0059C128.621 35.9359 128.839 36.0264 129.02 36.2764C129.202 36.4964 129.202 36.7461 129.02 37.0361C128.875 37.2961 128.712 37.4967 128.531 37.6367C127.333 38.6167 126.153 39.3768 124.992 39.9268ZM109.15 31.4365C109.187 33.3965 109.205 36.386 109.205 40.416C109.205 41.216 109.06 41.866 108.769 42.376C108.479 42.886 108.025 43.1367 107.408 43.1367C106.828 43.1367 106.338 42.9567 105.938 42.5967C105.575 42.2667 105.394 41.6867 105.394 40.8467C105.321 38.9267 105.267 35.4267 105.231 30.3467V18.4766C105.231 17.3166 104.777 16.2466 103.87 15.2666C102.999 14.2866 101.601 13.7959 99.678 13.7959C98.19 13.7959 96.992 14.3064 96.085 15.3164C95.214 16.2964 94.778 17.4764 94.778 18.8564C94.778 20.4864 94.76 21.7266 94.724 22.5566V26.3164C94.688 27.0764 94.67 27.8562 94.67 28.6562V31.1064C94.67 31.5364 94.452 31.9564 94.016 32.3564C93.617 32.7564 93.109 32.9561 92.492 32.9561C92.056 32.9561 91.675 32.776 91.349 32.416C91.058 32.016 90.913 31.5361 90.913 30.9961C90.913 29.1461 90.895 27.7664 90.859 26.8564V20.5459C90.859 19.3859 91.185 18.1467 91.839 16.8467C92.492 15.5367 93.472 14.4266 94.778 13.5166C96.121 12.6166 97.754 12.1562 99.678 12.1562C101.71 12.1562 103.434 12.5958 104.85 13.4658C106.301 14.3058 107.372 15.3364 108.061 16.5664C108.787 17.7664 109.15 18.9061 109.15 19.9961V31.4365ZM46.981 23.9766C48.287 26.0066 48.941 28.1859 48.941 30.5059C48.941 32.5359 48.469 34.3159 47.525 35.8359C46.582 37.3659 45.275 38.5665 43.606 39.4365C41.972 40.2665 40.085 40.6865 37.944 40.6865C37.182 40.6865 36.329 40.6158 35.385 40.4658C34.478 40.3258 33.607 40.1468 32.772 39.9268C31.974 39.7068 31.357 39.4658 30.921 39.2158C30.667 39.0658 30.468 38.9264 30.323 38.7764C30.177 38.5964 30.105 38.3063 30.105 37.9062L29.833 29.3662C29.796 28.6362 30.05 28.2764 30.595 28.2764C30.994 28.2764 31.266 28.5959 31.411 29.2559L32.391 33.3965C33.153 36.6565 35.404 38.5664 39.142 39.1064C41.392 39.0664 42.989 38.1961 43.932 36.4961C44.912 34.7861 45.402 32.8262 45.402 30.6162C45.402 28.4762 44.967 26.4968 44.096 24.6768C43.225 22.8268 41.519 20.9965 38.978 19.1865C36.184 17.2565 34.006 15.4463 32.446 13.7363C30.885 11.9963 30.105 10.1062 30.105 8.07617C30.105 5.97617 31.03 4.17652 32.881 2.68652C34.768 1.19652 37.037 0.456055 39.686 0.456055C40.847 0.456055 42.063 0.585938 43.334 0.835938C44.64 1.08594 45.638 1.45676 46.328 1.92676C46.545 2.06676 46.709 2.23602 46.818 2.41602C46.963 2.59602 47.035 2.83598 47.035 3.12598L47.253 9.16602C47.253 9.60602 47.09 9.81641 46.763 9.81641C46.4 9.85641 46.201 9.65582 46.164 9.21582L46.055 7.31641C45.983 5.71641 45.311 4.39594 44.041 3.33594C42.807 2.28594 41.283 1.7666 39.468 1.7666C37.799 1.7666 36.383 2.32629 35.222 3.44629C34.061 4.57629 33.48 6.06602 33.48 7.91602C33.48 9.47602 34.024 10.966 35.113 12.376C36.202 13.796 38.089 15.5159 40.775 17.5459C43.606 19.7659 45.674 21.9066 46.981 23.9766ZM59.502 23.8066C59.865 23.4066 60.337 23.2158 60.917 23.2158C61.425 23.2158 61.861 23.4066 62.224 23.8066C62.623 24.1766 62.823 24.626 62.823 25.166C62.823 25.676 62.623 26.1361 62.224 26.5361C61.861 26.8961 61.425 27.0762 60.917 27.0762C60.373 27.0762 59.901 26.8961 59.502 26.5361C59.139 26.1361 58.958 25.676 58.958 25.166C58.958 24.626 59.139 24.1766 59.502 23.8066ZM11.813 37.1465C12.213 36.7465 12.666 36.5459 13.174 36.5459C13.682 36.5459 14.118 36.7465 14.481 37.1465C14.88 37.5065 15.08 37.9659 15.08 38.5059C15.08 39.0159 14.88 39.4662 14.481 39.8662C14.118 40.2362 13.682 40.416 13.174 40.416C12.666 40.416 12.213 40.2362 11.813 39.8662C11.414 39.4662 11.214 39.0159 11.214 38.5059C11.214 37.9659 11.414 37.5065 11.813 37.1465Z" fill="black"/>
</svg>
