<svg width="131" height="44" viewBox="0 0 131 44" fill="none" xmlns="http://www.w3.org/2000/svg">
<path fill-rule="evenodd" clip-rule="evenodd" d="M80.733 28.5459H80.243C78.247 28.5459 76.396 28.0965 74.69 27.1865C72.985 26.2765 71.551 25.2765 70.39 24.1865C70.245 24.1165 70.118 24.026 70.009 23.916C69.936 23.806 69.863 23.7363 69.791 23.6963C69.501 23.4063 69.301 23.1064 69.192 22.7764C69.083 22.4164 69.101 22.1361 69.246 21.9561C69.428 21.7461 69.646 21.6465 69.9 21.6865C70.19 21.6865 70.48 21.836 70.771 22.126C70.989 22.376 71.206 22.6267 71.424 22.8867C71.642 23.1367 71.896 23.3965 72.186 23.6465C73.348 24.5165 74.509 25.2266 75.67 25.7666C76.832 26.2766 78.156 26.5166 79.644 26.4766C81.241 26.4066 82.294 25.8567 82.802 24.8467C83.31 23.8267 83.564 22.336 83.564 20.376C83.564 18.816 83.292 17.2966 82.747 15.8066C82.239 14.2866 81.259 13.5166 79.808 13.5166C78.791 13.5166 77.848 13.9562 76.977 14.8262C76.106 15.6662 75.398 17.0064 74.854 18.8564C74.817 18.9264 74.781 19.016 74.745 19.126V19.3467C74.563 20.0367 74.346 20.5961 74.092 21.0361C73.838 21.4361 73.42 21.6367 72.839 21.6367C72.331 21.6367 71.95 21.5059 71.696 21.2559C71.442 20.9559 71.279 20.6562 71.206 20.3262C71.17 19.9662 71.188 19.5963 71.261 19.2363C71.406 18.4763 71.841 17.5461 72.567 16.4561C73.329 15.3361 74.327 14.3566 75.561 13.5166C76.832 12.6466 78.283 12.2158 79.917 12.2158C81.187 12.2158 82.366 12.5267 83.455 13.1367C84.58 13.7567 85.487 14.6958 86.177 15.9658C86.867 17.2058 87.211 18.6965 87.211 20.4365C87.211 21.8865 86.939 23.1964 86.395 24.3564C85.887 25.4764 85.179 26.406 84.272 27.126C83.364 27.816 82.366 28.2565 81.278 28.4365C81.132 28.4765 80.951 28.5059 80.733 28.5459ZM84.598 39.9268C83.582 40.5068 82.348 40.7959 80.896 40.7959C78.356 40.7959 76.269 40.1066 74.636 38.7266C73.003 37.3066 71.823 35.7862 71.097 34.1562C70.372 32.5163 69.99 31.2665 69.954 30.3965C69.918 29.9965 69.954 29.6159 70.063 29.2559C70.208 28.8859 70.444 28.5967 70.771 28.3867C71.097 28.1267 71.515 28.0059 72.023 28.0059C72.64 28.0059 73.112 28.1859 73.438 28.5459C73.801 28.9059 74.055 29.3259 74.2 29.7959V30.0166C74.237 30.0566 74.255 30.1068 74.255 30.1768C74.327 30.4368 74.364 30.6364 74.364 30.7764C74.4 30.9264 74.454 31.126 74.527 31.376C74.781 32.686 75.126 33.8464 75.561 34.8564C76.033 35.8764 76.705 36.726 77.576 37.416C78.447 38.106 79.554 38.4561 80.896 38.4561C82.022 38.4561 82.929 38.1867 83.618 37.6367C84.344 37.0967 84.889 36.4959 85.251 35.8359C85.614 35.1559 85.977 34.3761 86.34 33.4961C86.558 32.8461 86.848 32.4466 87.211 32.3066C87.611 32.1166 88.028 32.1364 88.463 32.3564C88.899 32.5364 89.207 32.8865 89.389 33.3965C89.607 33.8665 89.534 34.3858 89.171 34.9658C88.373 36.1658 87.665 37.1463 87.048 37.9062C86.431 38.6762 85.614 39.3468 84.598 39.9268ZM14.209 24.7363C15.443 23.2863 17.421 21.8859 20.142 20.5459C22.502 19.3859 24.135 18.3267 25.042 17.3867C25.949 16.4467 26.403 15.3866 26.403 14.2266C26.403 13.5366 26.131 12.9563 25.586 12.4863C25.042 12.0163 24.407 11.7764 23.681 11.7764C22.774 11.7764 21.758 12.0163 20.632 12.4863C19.544 12.9263 18.146 13.5961 16.441 14.4961C14.372 15.5861 12.594 16.4259 11.106 17.0059C9.618 17.5859 8.148 17.876 6.696 17.876C5.607 17.876 4.537 17.5859 3.484 17.0059C2.468 16.4259 1.633 15.6066 0.98 14.5566C0.327 13.5066 0 12.2862 0 10.9062C0 9.38625 0.327 8.11668 0.98 7.09668C1.669 6.07668 2.486 5.24668 3.43 4.59668C4.156 4.12668 4.809 3.70594 5.389 3.33594C5.97 2.94594 6.496 2.55629 6.968 2.19629C7.73 1.65629 8.293 1.27664 8.656 1.05664C9.055 0.836641 9.418 0.726562 9.745 0.726562C10.362 0.726562 10.87 0.926172 11.269 1.32617C11.704 1.68617 11.922 2.19668 11.922 2.84668C11.922 3.35668 11.614 3.81582 10.997 4.21582C10.416 4.57582 9.491 5.02617 8.22 5.57617C7.748 5.78617 7.259 6.02637 6.75 6.27637C6.242 6.49637 5.734 6.7559 5.226 7.0459C4.319 7.5159 3.539 8.13648 2.885 8.89648C2.232 9.65648 1.905 10.5061 1.905 11.4561C1.905 12.1461 2.141 12.8865 2.613 13.6865C3.085 14.4465 3.847 14.8262 4.9 14.8262C5.698 14.8262 6.569 14.6266 7.513 14.2266C8.492 13.8266 9.781 13.1962 11.378 12.3262C13.446 11.1962 15.261 10.3261 16.822 9.70605C18.419 9.09605 20.015 8.78613 21.612 8.78613C23.1 8.78613 24.352 9.18633 25.369 9.98633C26.385 10.7763 27.147 11.7462 27.655 12.8662C28.163 13.9962 28.417 15.006 28.417 15.916C28.417 17.226 28.145 18.3165 27.601 19.1865C27.056 20.0565 26.33 20.796 25.423 21.416C24.552 21.996 23.227 22.7365 21.449 23.6465C20.687 24.0465 19.907 24.4665 19.108 24.8965C18.31 25.3365 17.493 25.8064 16.658 26.3164C15.57 27.0064 14.807 27.5866 14.372 28.0566C13.936 28.4966 13.719 29.0864 13.719 29.8564V31.4365C13.719 31.6465 13.646 31.8168 13.501 31.9268C13.392 32.0268 13.247 32.0859 13.065 32.0859C12.884 32.0859 12.721 32.0268 12.575 31.9268C12.467 31.7768 12.412 31.6165 12.412 31.4365V29.2559C12.412 27.6959 13.011 26.1863 14.209 24.7363ZM128.476 28.2158C128.658 28.3658 128.748 28.5664 128.748 28.8164C128.748 29.1064 128.658 29.3266 128.476 29.4766C128.295 29.5766 128.041 29.7064 127.714 29.8564C126.516 30.3264 125.319 30.7259 124.121 31.0459C122.96 31.3359 121.853 31.4863 120.8 31.4863C119.276 31.4863 117.879 31.1361 116.608 30.4561C115.374 29.7661 114.376 28.7964 113.614 27.5664C112.888 26.3364 112.525 24.9164 112.525 23.3164C112.525 21.7964 112.761 20.396 113.233 19.126C113.705 17.856 114.358 16.7359 115.193 15.7559C116.064 14.7359 117.08 13.9166 118.242 13.3066C118.931 12.9366 119.639 12.636 120.365 12.376C121.127 12.126 121.907 11.9459 122.706 11.8359C124.738 11.5059 126.262 11.1659 127.278 10.7959C128.295 10.4359 129.075 10.0761 129.619 9.70605C129.765 9.60605 129.892 9.5459 130 9.5459C130.146 9.5059 130.254 9.5059 130.327 9.5459C130.436 9.6159 130.508 9.6966 130.545 9.7666C130.581 9.8366 130.599 9.90633 130.599 9.98633C130.599 10.0563 130.581 10.1263 130.545 10.1963C130.472 10.2763 130.4 10.346 130.327 10.416C130.291 10.486 130.218 10.5865 130.109 10.6865C129.746 10.9065 129.256 11.1759 128.639 11.5059C128.059 11.7959 127.333 12.1065 126.462 12.4365C125.627 12.7265 124.72 13.0166 123.74 13.3066C122.651 13.6666 121.726 14.0265 120.964 14.3965C120.238 14.7165 119.584 15.1365 119.004 15.6465C118.387 16.1165 117.879 16.6967 117.479 17.3867C117.08 18.0367 116.772 18.8559 116.554 19.8359C116.372 20.8159 116.282 21.9566 116.282 23.2666C116.282 24.7166 116.735 25.9862 117.643 27.0762C118.55 28.1662 119.639 28.8359 120.909 29.0859C121.054 29.1259 121.199 29.1663 121.345 29.1963H121.889C122.542 29.1963 123.268 29.1263 124.067 28.9863C124.865 28.7963 125.663 28.5862 126.462 28.3262C126.752 28.2562 127.024 28.206 127.278 28.166C127.532 28.096 127.714 28.0566 127.823 28.0566C128.077 28.0166 128.295 28.0758 128.476 28.2158ZM54.983 14.1162C56.326 12.4462 57.869 11.6162 59.611 11.6162C60.591 11.6162 61.589 11.9565 62.605 12.6465C63.657 13.3365 64.655 14.2668 65.599 15.4268C66.579 16.5868 67.504 17.9165 68.375 19.3965C68.412 19.4765 68.43 19.5462 68.43 19.6162C68.466 19.6562 68.484 19.6866 68.484 19.7266C68.593 20.0166 68.629 20.2859 68.593 20.5459C68.557 20.7659 68.43 20.9261 68.212 21.0361C68.176 21.0661 68.14 21.0859 68.103 21.0859H68.049C67.831 21.1559 67.613 21.1559 67.396 21.0859C67.214 20.9759 67.051 20.7959 66.906 20.5459L66.198 19.3965C65.182 17.7265 64.147 16.3162 63.095 15.1562C62.042 13.9963 60.899 13.416 59.665 13.416C58.576 13.416 57.669 14.0266 56.943 15.2666C56.217 16.4966 55.673 18.1164 55.31 20.1064C54.983 22.1064 54.82 24.2461 54.82 26.5361C54.82 29.1061 55.074 31.2461 55.582 32.9561C56.127 34.6661 56.798 35.9158 57.597 36.7158C58.431 37.5058 59.266 37.9062 60.101 37.9062C61.734 37.9062 62.968 37.4067 63.803 36.3867C64.637 35.3367 65.272 34.2059 65.708 33.0059L65.817 32.7363C65.889 32.6263 65.98 32.516 66.089 32.416C66.198 32.266 66.325 32.1963 66.47 32.1963C66.76 32.1963 66.942 32.3066 67.014 32.5166C67.123 32.7366 67.141 32.9568 67.069 33.1768C66.525 35.7468 65.599 37.6763 64.293 38.9463C62.986 40.1763 61.389 40.7959 59.502 40.7959C57.687 40.7959 56.127 40.1567 54.82 38.8867C53.514 37.6167 52.516 35.9665 51.826 33.9365C51.173 31.9065 50.846 29.7461 50.846 27.4561C50.846 25.1361 51.209 22.7364 51.935 20.2764C52.661 17.8064 53.677 15.7562 54.983 14.1162ZM124.774 39.9766C123.613 40.4866 122.452 40.7363 121.29 40.7363C119.584 40.7363 118.133 40.4866 116.935 39.9766C115.774 39.4666 114.812 38.8166 114.05 38.0166C113.324 37.2166 112.743 36.2961 112.308 35.2461C112.054 34.6961 111.908 34.2064 111.872 33.7764C111.872 33.2964 111.945 32.9365 112.09 32.6865C112.271 32.4265 112.471 32.2467 112.689 32.1367C112.907 32.0267 113.161 31.9964 113.451 32.0264C113.741 32.0664 114.05 32.2158 114.376 32.4658C114.703 32.7158 114.975 33.116 115.193 33.666C115.628 34.536 116.1 35.3366 116.608 36.0566C117.153 36.7466 117.806 37.3061 118.568 37.7461C119.367 38.1861 120.274 38.3965 121.29 38.3965C121.98 38.3965 122.651 38.3265 123.304 38.1865C123.994 38.0365 124.684 37.8359 125.373 37.5859C126.063 37.2959 126.752 36.9459 127.442 36.5459C127.732 36.3659 128.004 36.236 128.258 36.166C128.512 36.096 128.73 36.1865 128.912 36.4365C129.093 36.6965 129.093 36.9461 128.912 37.2061C128.73 37.4561 128.531 37.6559 128.313 37.7959C127.115 38.7059 125.936 39.4366 124.774 39.9766ZM109.041 31.4863C109.078 33.4463 109.096 36.4762 109.096 40.5762C109.096 41.3762 108.951 42.0261 108.66 42.5361C108.37 43.0461 107.916 43.2959 107.299 43.2959C106.719 43.2959 106.229 43.1159 105.829 42.7559C105.467 42.3959 105.267 41.8264 105.231 41.0664C105.194 39.1064 105.158 35.5661 105.122 30.4561V18.4766C105.122 17.3166 104.668 16.2466 103.761 15.2666C102.89 14.2866 101.492 13.7959 99.569 13.7959C98.081 13.7959 96.883 14.3064 95.976 15.3164C95.105 16.2964 94.67 17.4764 94.67 18.8564C94.67 20.4564 94.651 21.6463 94.615 22.4463V26.0967C94.579 26.8267 94.561 27.5662 94.561 28.3262V30.7764C94.561 31.2164 94.343 31.6264 93.907 32.0264C93.472 32.3964 92.964 32.5762 92.383 32.5762C91.911 32.5762 91.53 32.3964 91.24 32.0264C90.95 31.6664 90.804 31.216 90.804 30.666C90.804 28.856 90.786 27.5167 90.75 26.6367V20.5459C90.75 19.3859 91.077 18.1467 91.73 16.8467C92.383 15.5367 93.363 14.4266 94.67 13.5166C96.012 12.6166 97.646 12.1562 99.569 12.1562C101.601 12.1562 103.325 12.5958 104.741 13.4658C106.192 14.3058 107.263 15.3364 107.953 16.5664C108.678 17.7664 109.041 18.9061 109.041 19.9961V31.4863ZM46.872 23.9766C48.179 26.0066 48.832 28.1859 48.832 30.5059C48.832 32.5359 48.36 34.3159 47.416 35.8359C46.473 37.3659 45.166 38.5665 43.497 39.4365C41.864 40.2665 39.976 40.6865 37.835 40.6865C37.073 40.6865 36.22 40.6158 35.277 40.4658C34.369 40.3258 33.498 40.1468 32.663 39.9268C31.865 39.7068 31.248 39.4658 30.813 39.2158C30.558 39.0658 30.359 38.9264 30.214 38.7764C30.069 38.5964 29.996 38.3063 29.996 37.9062L29.724 29.3662C29.687 28.6362 29.942 28.2764 30.486 28.2764C30.885 28.2764 31.157 28.5959 31.302 29.2559L32.282 33.4463C33.045 36.7163 35.295 38.5964 39.033 39.1064C41.283 39.0664 42.88 38.1961 43.823 36.4961C44.803 34.7861 45.293 32.8262 45.293 30.6162C45.293 28.4762 44.858 26.476 43.987 24.626C43.152 22.736 41.464 20.8862 38.924 19.0762C36.129 17.1462 33.934 15.3565 32.337 13.6865C30.776 11.9765 29.996 10.1062 29.996 8.07617C29.996 5.97617 30.921 4.17652 32.772 2.68652C34.66 1.19652 36.928 0.456055 39.577 0.456055C40.739 0.456055 41.954 0.585938 43.225 0.835938C44.531 1.08594 45.529 1.45676 46.219 1.92676C46.437 2.06676 46.6 2.23602 46.709 2.41602C46.854 2.59602 46.926 2.83598 46.926 3.12598L47.144 9.00586C47.144 9.43586 46.981 9.65625 46.654 9.65625C46.328 9.65625 46.146 9.45664 46.11 9.05664L46.001 7.20605C45.928 5.60605 45.257 4.30613 43.987 3.28613C42.717 2.26613 41.174 1.7666 39.359 1.7666C37.69 1.7666 36.275 2.32629 35.113 3.44629C33.952 4.57629 33.371 6.06602 33.371 7.91602C33.371 9.47602 33.916 10.966 35.004 12.376C36.093 13.796 37.98 15.5159 40.666 17.5459C43.497 19.7659 45.566 21.9066 46.872 23.9766ZM59.393 23.8066C59.756 23.4066 60.228 23.2158 60.808 23.2158C61.317 23.2158 61.752 23.4066 62.115 23.8066C62.514 24.1766 62.714 24.626 62.714 25.166C62.714 25.676 62.514 26.1361 62.115 26.5361C61.752 26.8961 61.317 27.0762 60.808 27.0762C60.264 27.0762 59.792 26.8961 59.393 26.5361C59.03 26.1361 58.849 25.676 58.849 25.166C58.849 24.626 59.03 24.1766 59.393 23.8066ZM11.813 37.2061C12.213 36.8061 12.666 36.6064 13.174 36.6064C13.682 36.6064 14.118 36.8061 14.481 37.2061C14.88 37.5661 15.08 38.0164 15.08 38.5664C15.08 39.0664 14.88 39.5268 14.481 39.9268C14.118 40.2868 13.682 40.4658 13.174 40.4658C12.666 40.4658 12.213 40.2868 11.813 39.9268C11.414 39.5268 11.214 39.0664 11.214 38.5664C11.214 38.0164 11.414 37.5661 11.813 37.2061Z" fill="black"/>
</svg>
