<svg width="131" height="44" viewBox="0 0 131 44" fill="none" xmlns="http://www.w3.org/2000/svg">
<path fill-rule="evenodd" clip-rule="evenodd" d="M80.57 28.6562H80.025C78.029 28.6562 76.178 28.1863 74.473 27.2363C72.767 26.2963 71.315 25.2667 70.118 24.1367C70.009 24.0667 69.9 23.9762 69.791 23.8662C69.718 23.7562 69.646 23.6667 69.573 23.5967C69.283 23.3067 69.083 22.996 68.974 22.666C68.902 22.306 68.938 22.0367 69.083 21.8467C69.265 21.6667 69.482 21.5762 69.736 21.5762C70.027 21.5762 70.317 21.7464 70.607 22.0664C70.825 22.3264 71.043 22.5967 71.261 22.8867C71.478 23.1367 71.733 23.3965 72.023 23.6465C73.148 24.5565 74.291 25.2762 75.453 25.8262C76.65 26.3662 77.993 26.6259 79.481 26.5859C81.078 26.5459 82.13 26.0061 82.638 24.9561C83.147 23.8961 83.401 22.376 83.401 20.376C83.401 18.816 83.128 17.2966 82.584 15.8066C82.076 14.2866 81.096 13.5166 79.644 13.5166C78.664 13.5166 77.721 13.9562 76.814 14.8262C75.942 15.6962 75.235 17.0562 74.69 18.9062C74.654 18.9862 74.618 19.0765 74.582 19.1865V19.3965C74.436 20.0865 74.237 20.6361 73.983 21.0361C73.729 21.4361 73.293 21.6367 72.676 21.6367C72.204 21.6367 71.841 21.5059 71.587 21.2559C71.333 20.9559 71.17 20.6562 71.097 20.3262C71.061 19.9662 71.061 19.6159 71.097 19.2959C71.243 18.5259 71.678 17.5861 72.404 16.4561C73.166 15.3361 74.164 14.3566 75.398 13.5166C76.668 12.6466 78.12 12.2158 79.753 12.2158C81.023 12.2158 82.203 12.5267 83.292 13.1367C84.417 13.7567 85.324 14.6958 86.014 15.9658C86.703 17.2058 87.048 18.6965 87.048 20.4365C87.048 21.8865 86.776 23.1964 86.231 24.3564C85.723 25.5164 85.016 26.4763 84.108 27.2363C83.201 27.9663 82.203 28.4167 81.114 28.5967C80.933 28.6367 80.751 28.6562 80.57 28.6562ZM84.489 39.9766C83.473 40.5266 82.257 40.7959 80.842 40.7959C78.265 40.7959 76.16 40.1066 74.527 38.7266C72.894 37.3066 71.696 35.7862 70.934 34.1562C70.208 32.4863 69.827 31.2461 69.791 30.4561C69.754 30.0561 69.809 29.6766 69.954 29.3066C70.099 28.9466 70.317 28.6565 70.607 28.4365C70.934 28.1865 71.351 28.0566 71.86 28.0566C72.477 28.0566 72.966 28.2367 73.329 28.5967C73.692 28.9667 73.946 29.3764 74.092 29.8564V30.0664C74.128 30.1064 74.146 30.1663 74.146 30.2363C74.219 30.4863 74.255 30.6859 74.255 30.8359C74.291 30.9759 74.346 31.1765 74.418 31.4365C74.672 32.7065 75.017 33.8464 75.453 34.8564C75.924 35.8764 76.596 36.726 77.467 37.416C78.338 38.106 79.463 38.4561 80.842 38.4561C81.931 38.4561 82.838 38.1963 83.564 37.6963C84.29 37.1463 84.834 36.5465 85.197 35.8965C85.56 35.2465 85.923 34.4666 86.286 33.5566C86.54 32.9366 86.848 32.556 87.211 32.416C87.574 32.266 87.974 32.2858 88.409 32.4658C88.881 32.6858 89.207 33.0466 89.389 33.5566C89.57 34.0266 89.48 34.5362 89.117 35.0762C88.282 36.2762 87.556 37.2566 86.939 38.0166C86.322 38.7466 85.506 39.3966 84.489 39.9766ZM14.209 24.7363C15.443 23.2863 17.421 21.8859 20.142 20.5459C22.502 19.3859 24.135 18.3267 25.042 17.3867C25.949 16.4467 26.403 15.3866 26.403 14.2266C26.403 13.5366 26.131 12.9563 25.586 12.4863C25.042 12.0163 24.407 11.7764 23.681 11.7764C22.774 11.7764 21.758 12.0163 20.632 12.4863C19.544 12.9263 18.146 13.5961 16.441 14.4961C14.372 15.5861 12.594 16.4259 11.106 17.0059C9.618 17.5859 8.148 17.876 6.696 17.876C5.607 17.876 4.537 17.5859 3.484 17.0059C2.468 16.4259 1.633 15.6066 0.98 14.5566C0.327 13.5066 0 12.2862 0 10.9062C0 9.38625 0.327 8.11668 0.98 7.09668C1.669 6.07668 2.486 5.24668 3.43 4.59668C4.156 4.12668 4.809 3.70594 5.389 3.33594C5.97 2.94594 6.496 2.55629 6.968 2.19629C7.73 1.65629 8.293 1.27664 8.656 1.05664C9.055 0.836641 9.418 0.726562 9.745 0.726562C10.362 0.726562 10.87 0.926172 11.269 1.32617C11.704 1.68617 11.922 2.19668 11.922 2.84668C11.922 3.35668 11.614 3.81582 10.997 4.21582C10.416 4.57582 9.491 5.02617 8.22 5.57617C7.748 5.78617 7.259 6.02637 6.75 6.27637C6.242 6.49637 5.734 6.7559 5.226 7.0459C4.319 7.5159 3.539 8.13648 2.885 8.89648C2.232 9.65648 1.905 10.5061 1.905 11.4561C1.905 12.1461 2.141 12.8865 2.613 13.6865C3.085 14.4465 3.847 14.8262 4.9 14.8262C5.698 14.8262 6.569 14.6266 7.513 14.2266C8.492 13.8266 9.781 13.1962 11.378 12.3262C13.446 11.1962 15.261 10.3261 16.822 9.70605C18.419 9.09605 20.015 8.78613 21.612 8.78613C23.1 8.78613 24.352 9.18633 25.369 9.98633C26.385 10.7763 27.147 11.7462 27.655 12.8662C28.163 13.9962 28.417 15.006 28.417 15.916C28.417 17.226 28.145 18.3165 27.601 19.1865C27.056 20.0565 26.33 20.796 25.423 21.416C24.552 21.996 23.227 22.7365 21.449 23.6465C20.687 24.0465 19.907 24.4665 19.108 24.8965C18.31 25.3365 17.493 25.8064 16.658 26.3164C15.57 27.0064 14.807 27.5866 14.372 28.0566C13.936 28.4966 13.719 29.0864 13.719 29.8564V31.4365C13.719 31.6465 13.646 31.8168 13.501 31.9268C13.392 32.0268 13.247 32.0859 13.065 32.0859C12.884 32.0859 12.721 32.0268 12.575 31.9268C12.467 31.7768 12.412 31.6165 12.412 31.4365V29.2559C12.412 27.6959 13.011 26.1863 14.209 24.7363ZM128.258 28.3867C128.44 28.4967 128.531 28.6768 128.531 28.9268C128.531 29.2168 128.44 29.4362 128.258 29.5762C128.077 29.6862 127.823 29.8158 127.496 29.9658C126.299 30.4358 125.101 30.8164 123.903 31.1064C122.742 31.3964 121.653 31.5361 120.637 31.5361C119.113 31.5361 117.733 31.1959 116.5 30.5059C115.266 29.8159 114.268 28.8768 113.505 27.6768C112.78 26.4468 112.417 25.0268 112.417 23.4268C112.417 21.9068 112.652 20.5063 113.124 19.2363C113.596 17.9263 114.249 16.7866 115.084 15.8066C115.955 14.7966 116.971 13.9566 118.133 13.3066C118.822 12.9366 119.53 12.636 120.256 12.376C121.018 12.126 121.798 11.9459 122.597 11.8359C124.665 11.4659 126.19 11.0865 127.17 10.6865C128.186 10.2565 128.966 9.79617 129.51 9.32617C129.619 9.21617 129.728 9.14621 129.837 9.11621C129.982 9.07621 130.109 9.07621 130.218 9.11621C130.327 9.14621 130.4 9.20637 130.436 9.27637C130.508 9.34637 130.545 9.41609 130.545 9.49609C130.545 9.56609 130.527 9.6566 130.49 9.7666C130.454 9.7966 130.4 9.87633 130.327 9.98633C130.254 10.0963 130.164 10.1966 130.055 10.3066C129.692 10.5666 129.22 10.8763 128.639 11.2363C128.059 11.5663 127.333 11.9066 126.462 12.2666C125.627 12.6366 124.702 12.9561 123.685 13.2461C122.597 13.6461 121.671 14.0265 120.909 14.3965C120.147 14.7165 119.476 15.1365 118.895 15.6465C118.278 16.1565 117.77 16.7465 117.371 17.4365C117.008 18.1265 116.717 18.9663 116.5 19.9463C116.318 20.9263 116.227 22.066 116.227 23.376C116.227 24.826 116.663 26.0965 117.534 27.1865C118.441 28.2765 119.53 28.9265 120.8 29.1465C120.945 29.1865 121.091 29.2159 121.236 29.2559H121.726C122.379 29.2559 123.105 29.1861 123.903 29.0361C124.702 28.8561 125.464 28.6761 126.19 28.4961C126.516 28.3861 126.807 28.3064 127.061 28.2764C127.315 28.2064 127.496 28.166 127.605 28.166C127.859 28.166 128.077 28.2367 128.258 28.3867ZM54.82 14.1162C56.163 12.4462 57.705 11.6162 59.447 11.6162C60.427 11.6162 61.444 11.9565 62.496 12.6465C63.548 13.3365 64.546 14.2668 65.49 15.4268C66.47 16.5868 67.414 17.9165 68.321 19.3965C68.321 19.4765 68.339 19.5264 68.375 19.5664C68.412 19.5964 68.43 19.6566 68.43 19.7266C68.539 19.9766 68.575 20.2363 68.539 20.4863C68.502 20.7063 68.375 20.8861 68.158 21.0361C68.121 21.0361 68.085 21.0559 68.049 21.0859H67.994C67.777 21.1559 67.559 21.1559 67.341 21.0859C67.16 20.9759 66.996 20.8167 66.851 20.5967L66.143 19.4561C65.091 17.7461 64.02 16.3162 62.932 15.1562C61.879 13.9963 60.736 13.416 59.502 13.416C58.449 13.416 57.542 14.0266 56.78 15.2666C56.054 16.4966 55.51 18.1164 55.147 20.1064C54.82 22.0664 54.657 24.2061 54.657 26.5361C54.657 29.1061 54.911 31.2461 55.419 32.9561C55.963 34.6661 56.635 35.9158 57.433 36.7158C58.268 37.5058 59.103 37.9062 59.937 37.9062C61.571 37.9062 62.804 37.4067 63.639 36.3867C64.474 35.3367 65.109 34.2059 65.545 33.0059L65.653 32.7363C65.726 32.6263 65.817 32.516 65.926 32.416C66.035 32.266 66.162 32.1963 66.307 32.1963C66.597 32.1963 66.778 32.3066 66.851 32.5166C66.96 32.7366 66.978 32.9568 66.906 33.1768C66.361 35.7468 65.436 37.6763 64.129 38.9463C62.823 40.1763 61.226 40.7959 59.339 40.7959C57.524 40.7959 55.963 40.1567 54.657 38.8867C53.35 37.6167 52.352 35.9665 51.663 33.9365C51.009 31.9065 50.683 29.7461 50.683 27.4561C50.683 25.1361 51.046 22.7364 51.772 20.2764C52.497 17.8064 53.514 15.7562 54.82 14.1162ZM124.556 40.0361C123.395 40.5061 122.234 40.7363 121.072 40.7363C119.403 40.7363 117.969 40.5061 116.772 40.0361C115.574 39.5261 114.612 38.8762 113.886 38.0762C113.161 37.2762 112.562 36.3667 112.09 35.3467C111.8 34.7667 111.654 34.2662 111.654 33.8262C111.654 33.3562 111.727 32.9963 111.872 32.7363C112.017 32.4463 112.199 32.2663 112.417 32.1963C112.634 32.0463 112.888 31.9964 113.179 32.0264C113.469 32.0664 113.778 32.2158 114.104 32.4658C114.431 32.7158 114.721 33.116 114.975 33.666C115.411 34.566 115.883 35.3666 116.391 36.0566C116.935 36.7466 117.606 37.3061 118.405 37.7461C119.203 38.1861 120.111 38.3965 121.127 38.3965C121.78 38.3965 122.452 38.3463 123.141 38.2363C123.831 38.0963 124.52 37.8967 125.21 37.6367C125.899 37.3867 126.589 37.0563 127.278 36.6562C127.605 36.4762 127.877 36.3662 128.095 36.3262C128.349 36.2562 128.567 36.3464 128.748 36.6064C128.93 36.8564 128.93 37.1162 128.748 37.3662C128.567 37.6162 128.367 37.8158 128.149 37.9658C126.916 38.8358 125.718 39.5261 124.556 40.0361ZM108.878 31.5361C108.914 33.5361 108.932 36.5865 108.932 40.6865C108.932 41.4865 108.787 42.1365 108.497 42.6465C108.207 43.1565 107.753 43.4062 107.136 43.4062C106.555 43.4062 106.065 43.2262 105.666 42.8662C105.303 42.5362 105.122 41.9966 105.122 41.2266C105.049 39.2666 104.995 35.7166 104.958 30.5566V18.4766C104.958 17.3166 104.505 16.2466 103.597 15.2666C102.726 14.2866 101.347 13.7959 99.46 13.7959C97.936 13.7959 96.72 14.3064 95.813 15.3164C94.942 16.2964 94.506 17.4764 94.506 18.8564C94.506 20.3764 94.488 21.5459 94.452 22.3359V25.876C94.415 26.606 94.397 27.3266 94.397 28.0566V30.4561C94.397 30.8861 94.18 31.3061 93.744 31.7061C93.345 32.0661 92.855 32.2461 92.274 32.2461C91.802 32.2461 91.403 32.0661 91.077 31.7061C90.786 31.3061 90.641 30.8467 90.641 30.3467C90.641 28.5967 90.623 27.3166 90.587 26.4766V20.5459C90.587 19.3859 90.913 18.1467 91.566 16.8467C92.22 15.5367 93.2 14.4266 94.506 13.5166C95.849 12.6166 97.482 12.1562 99.406 12.1562C101.438 12.1562 103.18 12.5958 104.632 13.4658C106.084 14.3058 107.154 15.3364 107.844 16.5664C108.533 17.7664 108.878 18.9061 108.878 19.9961V31.5361ZM46.763 23.9766C48.07 26.0066 48.723 28.1859 48.723 30.5059C48.723 32.5359 48.251 34.3159 47.308 35.8359C46.364 37.3659 45.057 38.5665 43.388 39.4365C41.755 40.2665 39.868 40.6865 37.726 40.6865C36.964 40.6865 36.111 40.6158 35.168 40.4658C34.26 40.3258 33.389 40.1468 32.554 39.9268C31.756 39.7068 31.139 39.4658 30.704 39.2158C30.45 39.0658 30.25 38.9264 30.105 38.7764C29.96 38.5964 29.887 38.3063 29.887 37.9062L29.615 29.3662C29.578 28.6362 29.833 28.2764 30.377 28.2764C30.776 28.2764 31.048 28.5959 31.194 29.2559L32.228 33.5566C32.99 36.8166 35.222 38.6764 38.924 39.1064C41.174 39.0664 42.771 38.1961 43.715 36.4961C44.694 34.7861 45.184 32.8262 45.184 30.6162C45.184 28.4762 44.767 26.4562 43.932 24.5762C43.134 22.6862 41.464 20.8366 38.924 19.0166C36.129 17.0966 33.916 15.296 32.282 13.626C30.686 11.956 29.887 10.1062 29.887 8.07617C29.887 5.97617 30.813 4.17652 32.663 2.68652C34.551 1.19652 36.819 0.456055 39.468 0.456055C40.63 0.456055 41.846 0.585938 43.116 0.835938C44.422 1.08594 45.42 1.45676 46.11 1.92676C46.328 2.06676 46.491 2.23602 46.6 2.41602C46.745 2.59602 46.818 2.83598 46.818 3.12598L47.035 8.83594C47.035 9.27594 46.89 9.49609 46.6 9.49609C46.237 9.49609 46.055 9.30629 46.055 8.94629L45.947 7.09668C45.874 5.49668 45.184 4.21633 43.878 3.23633C42.608 2.25633 41.065 1.7666 39.251 1.7666C37.581 1.7666 36.166 2.32629 35.004 3.44629C33.843 4.57629 33.262 6.06602 33.262 7.91602C33.262 9.47602 33.807 10.966 34.895 12.376C35.984 13.796 37.871 15.5159 40.557 17.5459C43.388 19.7659 45.457 21.9066 46.763 23.9766ZM59.23 23.8066C59.593 23.4066 60.064 23.2158 60.645 23.2158C61.153 23.2158 61.589 23.4066 61.952 23.8066C62.351 24.1766 62.55 24.626 62.55 25.166C62.55 25.676 62.351 26.1361 61.952 26.5361C61.589 26.8961 61.153 27.0762 60.645 27.0762C60.101 27.0762 59.629 26.8961 59.23 26.5361C58.867 26.1361 58.685 25.676 58.685 25.166C58.685 24.626 58.867 24.1766 59.23 23.8066ZM11.813 37.2559C12.213 36.8559 12.666 36.6562 13.174 36.6562C13.682 36.6562 14.118 36.8559 14.481 37.2559C14.88 37.6159 15.08 38.0762 15.08 38.6162C15.08 39.1262 14.88 39.5766 14.481 39.9766C14.118 40.3466 13.682 40.5264 13.174 40.5264C12.666 40.5264 12.213 40.3466 11.813 39.9766C11.414 39.5766 11.214 39.1262 11.214 38.6162C11.214 38.0762 11.414 37.6159 11.813 37.2559Z" fill="black"/>
</svg>
