<svg width="131" height="44" viewBox="0 0 131 44" fill="none" xmlns="http://www.w3.org/2000/svg">
<path fill-rule="evenodd" clip-rule="evenodd" d="M80.352 28.8164H79.808C77.812 28.8164 75.942 28.3267 74.2 27.3467C72.495 26.3367 71.061 25.2459 69.9 24.0859C69.791 24.0059 69.682 23.9166 69.573 23.8066C69.501 23.6966 69.428 23.6061 69.355 23.5361C69.065 23.2461 68.884 22.9166 68.811 22.5566C68.738 22.1966 68.775 21.9261 68.92 21.7461C69.101 21.5561 69.319 21.4864 69.573 21.5264C69.863 21.5264 70.154 21.6866 70.444 22.0166L71.097 22.8867C71.351 23.1367 71.606 23.4063 71.86 23.6963C72.985 24.6063 74.128 25.3565 75.289 25.9365C76.487 26.4765 77.83 26.7363 79.318 26.6963C80.951 26.6963 82.022 26.1464 82.53 25.0664C83.038 23.9764 83.292 22.416 83.292 20.376C83.292 18.816 83.019 17.2966 82.475 15.8066C81.967 14.2866 80.987 13.5166 79.535 13.5166C78.556 13.5166 77.612 13.9562 76.705 14.8262C75.834 15.6962 75.126 17.0562 74.582 18.9062C74.545 18.9862 74.509 19.0765 74.473 19.1865C74.473 19.2565 74.454 19.3265 74.418 19.3965C74.273 20.0865 74.073 20.6361 73.819 21.0361C73.602 21.4361 73.184 21.6367 72.567 21.6367C72.059 21.6367 71.678 21.5059 71.424 21.2559C71.17 20.9959 71.007 20.706 70.934 20.376C70.898 20.016 70.898 19.6559 70.934 19.2959C71.079 18.5659 71.533 17.6366 72.295 16.5166C73.057 15.3566 74.055 14.3566 75.289 13.5166C76.559 12.6466 78.011 12.2158 79.644 12.2158C80.915 12.2158 82.094 12.5267 83.183 13.1367C84.308 13.7567 85.215 14.6958 85.905 15.9658C86.594 17.2058 86.939 18.6965 86.939 20.4365C86.939 21.8865 86.667 23.2162 86.123 24.4062C85.614 25.5662 84.907 26.5359 83.999 27.2959C83.092 28.0559 82.076 28.5261 80.951 28.7061C80.769 28.7461 80.57 28.7864 80.352 28.8164ZM84.435 39.9766C83.419 40.5266 82.185 40.7959 80.733 40.7959C78.193 40.7959 76.088 40.1066 74.418 38.7266C72.785 37.3066 71.587 35.7862 70.825 34.1562C70.099 32.4863 69.7 31.2461 69.628 30.4561C69.628 30.0561 69.7 29.6862 69.845 29.3662C69.99 28.9962 70.208 28.7061 70.499 28.4961C70.825 28.2361 71.243 28.1064 71.751 28.1064C72.368 28.1064 72.858 28.2962 73.221 28.6562C73.583 28.9863 73.838 29.3963 73.983 29.9062V30.126C74.019 30.166 74.037 30.2161 74.037 30.2861C74.073 30.5461 74.11 30.7467 74.146 30.8867C74.182 31.0367 74.219 31.2363 74.255 31.4863C74.545 32.7163 74.908 33.8464 75.344 34.8564C75.815 35.8764 76.487 36.726 77.358 37.416C78.265 38.106 79.39 38.4561 80.733 38.4561C81.858 38.4561 82.784 38.1963 83.51 37.6963C84.235 37.1863 84.78 36.6259 85.143 36.0059C85.506 35.3459 85.887 34.566 86.286 33.666C86.504 33.046 86.794 32.6862 87.157 32.5762C87.52 32.4262 87.937 32.446 88.409 32.626C88.845 32.806 89.153 33.156 89.334 33.666C89.516 34.136 89.425 34.6465 89.062 35.1865C88.228 36.3865 87.502 37.3462 86.885 38.0762C86.268 38.7962 85.451 39.4366 84.435 39.9766ZM14.209 24.7363C15.443 23.2863 17.421 21.8859 20.142 20.5459C22.502 19.3859 24.135 18.3267 25.042 17.3867C25.949 16.4467 26.403 15.3866 26.403 14.2266C26.403 13.5366 26.131 12.9563 25.586 12.4863C25.042 12.0163 24.407 11.7764 23.681 11.7764C22.774 11.7764 21.758 12.0163 20.632 12.4863C19.544 12.9263 18.146 13.5961 16.441 14.4961C14.372 15.5861 12.594 16.4259 11.106 17.0059C9.618 17.5859 8.148 17.876 6.696 17.876C5.607 17.876 4.537 17.5859 3.484 17.0059C2.468 16.4259 1.633 15.6066 0.98 14.5566C0.327 13.5066 0 12.2862 0 10.9062C0 9.38625 0.327 8.11668 0.98 7.09668C1.669 6.07668 2.486 5.24668 3.43 4.59668C4.156 4.12668 4.809 3.70594 5.389 3.33594C5.97 2.94594 6.496 2.55629 6.968 2.19629C7.73 1.65629 8.293 1.27664 8.656 1.05664C9.055 0.836641 9.418 0.726562 9.745 0.726562C10.362 0.726562 10.87 0.926172 11.269 1.32617C11.704 1.68617 11.922 2.19668 11.922 2.84668C11.922 3.35668 11.614 3.81582 10.997 4.21582C10.416 4.57582 9.491 5.02617 8.22 5.57617C7.748 5.78617 7.259 6.02637 6.75 6.27637C6.242 6.49637 5.734 6.7559 5.226 7.0459C4.319 7.5159 3.539 8.13648 2.885 8.89648C2.232 9.65648 1.905 10.5061 1.905 11.4561C1.905 12.1461 2.141 12.8865 2.613 13.6865C3.085 14.4465 3.847 14.8262 4.9 14.8262C5.698 14.8262 6.569 14.6266 7.513 14.2266C8.492 13.8266 9.781 13.1962 11.378 12.3262C13.446 11.1962 15.261 10.3261 16.822 9.70605C18.419 9.09605 20.015 8.78613 21.612 8.78613C23.1 8.78613 24.352 9.18633 25.369 9.98633C26.385 10.7763 27.147 11.7462 27.655 12.8662C28.163 13.9962 28.417 15.006 28.417 15.916C28.417 17.226 28.145 18.3165 27.601 19.1865C27.056 20.0565 26.33 20.796 25.423 21.416C24.552 21.996 23.227 22.7365 21.449 23.6465C20.687 24.0465 19.907 24.4665 19.108 24.8965C18.31 25.3365 17.493 25.8064 16.658 26.3164C15.57 27.0064 14.807 27.5866 14.372 28.0566C13.936 28.4966 13.719 29.0864 13.719 29.8564V31.4365C13.719 31.6465 13.646 31.8168 13.501 31.9268C13.392 32.0268 13.247 32.0859 13.065 32.0859C12.884 32.0859 12.721 32.0268 12.575 31.9268C12.467 31.7768 12.412 31.6165 12.412 31.4365V29.2559C12.412 27.6959 13.011 26.1863 14.209 24.7363ZM128.041 28.4961C128.222 28.6361 128.313 28.8359 128.313 29.0859C128.313 29.3759 128.204 29.5961 127.986 29.7461C127.805 29.8561 127.569 29.9664 127.278 30.0664C126.081 30.5064 124.883 30.8663 123.685 31.1562C122.488 31.4462 121.417 31.5967 120.474 31.5967C118.949 31.5967 117.57 31.2662 116.336 30.6162C115.102 29.9262 114.122 28.9666 113.397 27.7266C112.707 26.4966 112.362 25.0961 112.362 23.5361C112.362 21.9761 112.58 20.5659 113.015 19.2959C113.487 17.9859 114.14 16.8266 114.975 15.8066C115.846 14.7966 116.881 13.9764 118.078 13.3564C118.768 12.9564 119.476 12.636 120.201 12.376C120.927 12.126 121.689 11.9264 122.488 11.7764C124.556 11.4164 126.081 10.9964 127.061 10.5264C128.077 10.0164 128.839 9.49629 129.347 8.94629C129.492 8.80629 129.619 8.71676 129.728 8.67676C129.873 8.60676 129.982 8.58598 130.055 8.62598C130.2 8.65598 130.291 8.71613 130.327 8.78613C130.4 8.85613 130.436 8.92586 130.436 9.00586C130.472 9.07586 130.472 9.16637 130.436 9.27637C130.4 9.34637 130.345 9.4359 130.273 9.5459C130.236 9.6559 130.146 9.78676 130 9.92676C129.674 10.1868 129.202 10.5258 128.585 10.9658C128.004 11.3658 127.278 11.7562 126.407 12.1562C125.573 12.5563 124.665 12.9261 123.685 13.2461C122.524 13.6461 121.562 14.0265 120.8 14.3965C120.038 14.7565 119.367 15.1863 118.786 15.6963C118.169 16.2063 117.661 16.8061 117.262 17.4961C116.899 18.1861 116.627 19.0366 116.445 20.0566C116.264 21.0366 116.173 22.1961 116.173 23.5361C116.173 24.9561 116.608 26.2059 117.479 27.2959C118.35 28.3459 119.421 28.9959 120.691 29.2559C120.836 29.2859 120.982 29.3262 121.127 29.3662H121.617C122.234 29.3662 122.923 29.2865 123.685 29.1465C124.484 28.9665 125.246 28.7867 125.972 28.5967C126.262 28.5267 126.534 28.4567 126.788 28.3867C127.079 28.3067 127.278 28.2764 127.387 28.2764C127.641 28.2764 127.859 28.3461 128.041 28.4961ZM54.657 14.1162C56 12.4462 57.542 11.6162 59.284 11.6162C60.3 11.6162 61.317 11.9565 62.333 12.6465C63.385 13.3365 64.401 14.2668 65.381 15.4268C66.361 16.5868 67.305 17.9165 68.212 19.3965C68.248 19.4365 68.266 19.4964 68.266 19.5664C68.303 19.5964 68.339 19.6566 68.375 19.7266C68.484 19.9766 68.521 20.2363 68.484 20.4863C68.484 20.7063 68.357 20.8861 68.103 21.0361C68.067 21.0361 68.031 21.0559 67.994 21.0859H67.94C67.722 21.1559 67.522 21.1559 67.341 21.0859C67.16 20.9759 66.978 20.8167 66.797 20.5967L66.089 19.4561C65 17.7461 63.911 16.3162 62.823 15.1562C61.734 13.9963 60.573 13.416 59.339 13.416C58.286 13.416 57.397 14.0266 56.671 15.2666C55.945 16.4966 55.401 18.1164 55.038 20.1064C54.711 22.0664 54.548 24.2061 54.548 26.5361C54.548 29.1061 54.802 31.2461 55.31 32.9561C55.854 34.6661 56.526 35.9158 57.324 36.7158C58.159 37.5058 58.994 37.9062 59.829 37.9062C61.462 37.9062 62.696 37.4067 63.53 36.3867C64.365 35.3367 65 34.2059 65.436 33.0059L65.545 32.7363C65.617 32.6263 65.708 32.516 65.817 32.416C65.926 32.266 66.053 32.1963 66.198 32.1963C66.488 32.1963 66.67 32.3066 66.742 32.5166C66.851 32.7366 66.869 32.9568 66.797 33.1768C66.252 35.7468 65.327 37.6763 64.02 38.9463C62.714 40.1763 61.117 40.7959 59.23 40.7959C57.415 40.7959 55.854 40.1567 54.548 38.8867C53.241 37.6167 52.243 35.9665 51.554 33.9365C50.901 31.9065 50.574 29.7461 50.574 27.4561C50.574 25.1361 50.919 22.7364 51.608 20.2764C52.334 17.8064 53.35 15.7562 54.657 14.1162ZM124.339 40.0859C123.177 40.5259 122.034 40.7363 120.909 40.7363C119.24 40.7363 117.806 40.5061 116.608 40.0361C115.411 39.5261 114.431 38.886 113.669 38.126C112.943 37.326 112.344 36.4262 111.872 35.4062C111.582 34.8263 111.419 34.2962 111.382 33.8262C111.382 33.3562 111.455 32.9963 111.6 32.7363C111.745 32.4863 111.927 32.3063 112.144 32.1963C112.362 32.0863 112.616 32.0459 112.907 32.0859C113.197 32.0859 113.505 32.2158 113.832 32.4658C114.195 32.7158 114.503 33.1358 114.757 33.7158C115.193 34.5858 115.683 35.3666 116.227 36.0566C116.772 36.7466 117.443 37.3259 118.242 37.7959C119.04 38.2359 119.947 38.4561 120.964 38.4561C121.617 38.4561 122.27 38.3961 122.923 38.2861C123.613 38.1461 124.302 37.9661 124.992 37.7461C125.718 37.4961 126.444 37.1864 127.17 36.8164C127.496 36.6364 127.768 36.5261 127.986 36.4961C128.24 36.4261 128.458 36.5264 128.639 36.8164C128.821 37.0764 128.803 37.3259 128.585 37.5859C128.404 37.8359 128.204 38.016 127.986 38.126C126.752 38.966 125.536 39.6159 124.339 40.0859ZM108.769 31.6465C108.805 33.6465 108.824 36.7167 108.824 40.8467C108.824 41.6467 108.678 42.2966 108.388 42.8066C108.098 43.3166 107.644 43.5762 107.027 43.5762C106.446 43.5762 105.956 43.3864 105.557 43.0264C105.194 42.6964 105.013 42.1565 105.013 41.3965C104.94 39.4365 104.886 35.8362 104.85 30.6162V18.4766C104.85 17.3166 104.396 16.2466 103.489 15.2666C102.618 14.2866 101.22 13.7959 99.297 13.7959C97.809 13.7959 96.611 14.3064 95.704 15.3164C94.833 16.2964 94.397 17.4764 94.397 18.8564C94.397 20.3464 94.379 21.4663 94.343 22.2363V25.6562C94.307 26.3462 94.288 27.0561 94.288 27.7861V30.126C94.288 30.526 94.071 30.9262 93.635 31.3262C93.2 31.6862 92.692 31.8662 92.111 31.8662C91.675 31.8662 91.294 31.6862 90.968 31.3262C90.677 30.9562 90.532 30.5266 90.532 30.0166C90.532 28.3466 90.514 27.1164 90.478 26.3164V20.5459C90.478 19.3859 90.804 18.1467 91.458 16.8467C92.111 15.5367 93.091 14.4266 94.397 13.5166C95.74 12.6166 97.373 12.1562 99.297 12.1562C101.329 12.1562 103.053 12.5958 104.468 13.4658C105.92 14.3058 106.991 15.3364 107.68 16.5664C108.406 17.7664 108.769 18.9061 108.769 19.9961V31.6465ZM46.654 23.9766C47.961 26.0066 48.614 28.1859 48.614 30.5059C48.614 32.5359 48.142 34.3159 47.199 35.8359C46.255 37.3659 44.949 38.5665 43.279 39.4365C41.646 40.2665 39.759 40.6865 37.617 40.6865C36.855 40.6865 36.002 40.6158 35.059 40.4658C34.151 40.3258 33.28 40.1468 32.446 39.9268C31.647 39.7068 31.03 39.4658 30.595 39.2158C30.341 39.0658 30.141 38.9264 29.996 38.7764C29.851 38.5964 29.778 38.3063 29.778 37.9062L29.506 29.3662C29.47 28.6362 29.724 28.2764 30.268 28.2764C30.667 28.2764 30.94 28.5959 31.085 29.2559L32.119 33.6064C32.881 36.8764 35.113 38.7064 38.815 39.1064C41.065 39.0664 42.662 38.1961 43.606 36.4961C44.586 34.7861 45.076 32.8262 45.076 30.6162C45.076 28.4762 44.676 26.4562 43.878 24.5762C43.079 22.6462 41.41 20.7758 38.87 18.9658C36.075 17.0458 33.861 15.266 32.228 13.626C30.595 11.956 29.778 10.1062 29.778 8.07617C29.778 5.97617 30.704 4.17652 32.554 2.68652C34.442 1.19652 36.71 0.456055 39.359 0.456055C40.521 0.456055 41.737 0.585938 43.007 0.835938C44.313 1.08594 45.311 1.45676 46.001 1.92676C46.219 2.06676 46.382 2.23602 46.491 2.41602C46.636 2.59602 46.709 2.83598 46.709 3.12598L46.926 8.67676C46.926 9.07676 46.781 9.27637 46.491 9.27637C46.164 9.30637 45.983 9.14613 45.947 8.78613L45.892 6.98633C45.856 5.39633 45.166 4.12676 43.823 3.17676C42.517 2.23676 40.956 1.7666 39.142 1.7666C37.472 1.7666 36.057 2.32629 34.895 3.44629C33.734 4.57629 33.153 6.06602 33.153 7.91602C33.153 9.47602 33.698 10.966 34.786 12.376C35.875 13.796 37.763 15.5159 40.448 17.5459C43.279 19.7659 45.348 21.9066 46.654 23.9766ZM59.121 23.8066C59.484 23.4066 59.956 23.2158 60.536 23.2158C61.044 23.2158 61.48 23.4066 61.843 23.8066C62.242 24.1766 62.442 24.626 62.442 25.166C62.442 25.676 62.242 26.1361 61.843 26.5361C61.48 26.8961 61.044 27.0762 60.536 27.0762C59.992 27.0762 59.52 26.8961 59.121 26.5361C58.758 26.1361 58.576 25.676 58.576 25.166C58.576 24.626 58.758 24.1766 59.121 23.8066ZM11.813 37.3662C12.213 36.9662 12.666 36.7666 13.174 36.7666C13.682 36.7666 14.118 36.9662 14.481 37.3662C14.88 37.7262 15.08 38.1866 15.08 38.7266C15.08 39.2366 14.88 39.6859 14.481 40.0859C14.118 40.4459 13.682 40.6367 13.174 40.6367C12.666 40.6367 12.213 40.4459 11.813 40.0859C11.414 39.6859 11.214 39.2366 11.214 38.7266C11.214 38.1866 11.414 37.7262 11.813 37.3662Z" fill="black"/>
</svg>
