<svg width="131" height="44" viewBox="0 0 131 44" fill="none" xmlns="http://www.w3.org/2000/svg">
<path fill-rule="evenodd" clip-rule="evenodd" d="M80.189 28.9268H79.644C77.648 28.9268 75.779 28.4162 74.037 27.4062C72.295 26.3463 70.843 25.2264 69.682 24.0264L69.355 23.6963C69.283 23.5963 69.192 23.5068 69.083 23.4268C68.865 23.1368 68.702 22.8163 68.593 22.4463C68.521 22.0863 68.575 21.8167 68.757 21.6367C68.938 21.4467 69.156 21.376 69.41 21.416C69.7 21.446 69.99 21.6361 70.281 21.9561L70.934 22.8262C71.188 23.1162 71.46 23.4063 71.751 23.6963C72.803 24.6463 73.928 25.4063 75.126 25.9863C76.324 26.5663 77.666 26.8564 79.154 26.8564C80.787 26.8264 81.858 26.256 82.366 25.166C82.911 24.046 83.183 22.446 83.183 20.376C83.183 18.816 82.911 17.2966 82.366 15.8066C81.858 14.2866 80.878 13.5166 79.427 13.5166C78.41 13.5166 77.449 13.9767 76.541 14.8867C75.67 15.7567 74.963 17.1158 74.418 18.9658C74.382 19.0358 74.346 19.1263 74.309 19.2363V19.4561C74.164 20.1461 73.965 20.6859 73.71 21.0859C73.456 21.4459 73.039 21.6367 72.458 21.6367C71.95 21.6367 71.569 21.5059 71.315 21.2559C71.061 20.9959 70.898 20.706 70.825 20.376C70.789 20.016 70.789 19.6767 70.825 19.3467C70.97 18.5867 71.406 17.6366 72.132 16.5166C72.894 15.3566 73.91 14.3566 75.18 13.5166C76.451 12.6466 77.902 12.2158 79.535 12.2158C80.806 12.2158 81.985 12.5267 83.074 13.1367C84.199 13.7567 85.106 14.6958 85.796 15.9658C86.486 17.2058 86.83 18.6965 86.83 20.4365C86.83 21.8865 86.558 23.2162 86.014 24.4062C85.506 25.6063 84.78 26.6062 83.836 27.4062C82.929 28.1662 81.894 28.6364 80.733 28.8164C80.588 28.8564 80.406 28.8868 80.189 28.9268ZM84.326 40.0361C83.346 40.5361 82.13 40.7959 80.679 40.7959C78.102 40.7959 75.979 40.1066 74.309 38.7266C72.676 37.3066 71.478 35.7667 70.716 34.0967C69.954 32.4267 69.555 31.2161 69.519 30.4561C69.519 30.0861 69.573 29.7262 69.682 29.3662C69.827 28.9962 70.063 28.7061 70.39 28.4961C70.716 28.2361 71.134 28.1064 71.642 28.1064C72.259 28.1064 72.731 28.2962 73.057 28.6562C73.42 29.0163 73.674 29.4363 73.819 29.9062V30.126C73.856 30.166 73.874 30.2161 73.874 30.2861C73.946 30.5461 73.983 30.7467 73.983 30.8867C74.019 31.0367 74.073 31.2363 74.146 31.4863C74.436 32.7163 74.817 33.8464 75.289 34.8564C75.761 35.8764 76.432 36.726 77.303 37.416C78.211 38.106 79.336 38.4561 80.679 38.4561C81.804 38.4561 82.729 38.2161 83.455 37.7461C84.181 37.2361 84.707 36.6766 85.034 36.0566C85.397 35.4466 85.796 34.6764 86.231 33.7764C86.486 33.1564 86.794 32.7965 87.157 32.6865C87.52 32.5365 87.919 32.5759 88.355 32.7959C88.79 32.9759 89.099 33.3162 89.28 33.8262C89.498 34.2962 89.425 34.8067 89.062 35.3467C88.155 36.5467 87.393 37.4965 86.776 38.1865C86.159 38.8765 85.342 39.4861 84.326 40.0361ZM14.209 24.7363C15.443 23.2863 17.421 21.8859 20.142 20.5459C22.502 19.3859 24.135 18.3267 25.042 17.3867C25.949 16.4467 26.403 15.3866 26.403 14.2266C26.403 13.5366 26.131 12.9563 25.586 12.4863C25.042 12.0163 24.407 11.7764 23.681 11.7764C22.774 11.7764 21.758 12.0163 20.632 12.4863C19.544 12.9263 18.146 13.5961 16.441 14.4961C14.372 15.5861 12.594 16.4259 11.106 17.0059C9.618 17.5859 8.148 17.876 6.696 17.876C5.607 17.876 4.537 17.5859 3.484 17.0059C2.468 16.4259 1.633 15.6066 0.98 14.5566C0.327 13.5066 0 12.2862 0 10.9062C0 9.38625 0.327 8.11668 0.98 7.09668C1.669 6.07668 2.486 5.24668 3.43 4.59668C4.156 4.12668 4.809 3.70594 5.389 3.33594C5.97 2.94594 6.496 2.55629 6.968 2.19629C7.73 1.65629 8.293 1.27664 8.656 1.05664C9.055 0.836641 9.418 0.726562 9.745 0.726562C10.362 0.726562 10.87 0.926172 11.269 1.32617C11.704 1.68617 11.922 2.19668 11.922 2.84668C11.922 3.35668 11.614 3.81582 10.997 4.21582C10.416 4.57582 9.491 5.02617 8.22 5.57617C7.748 5.78617 7.259 6.02637 6.75 6.27637C6.242 6.49637 5.734 6.7559 5.226 7.0459C4.319 7.5159 3.539 8.13648 2.885 8.89648C2.232 9.65648 1.905 10.5061 1.905 11.4561C1.905 12.1461 2.141 12.8865 2.613 13.6865C3.085 14.4465 3.847 14.8262 4.9 14.8262C5.698 14.8262 6.569 14.6266 7.513 14.2266C8.492 13.8266 9.781 13.1962 11.378 12.3262C13.446 11.1962 15.261 10.3261 16.822 9.70605C18.419 9.09605 20.015 8.78613 21.612 8.78613C23.1 8.78613 24.352 9.18633 25.369 9.98633C26.385 10.7763 27.147 11.7462 27.655 12.8662C28.163 13.9962 28.417 15.006 28.417 15.916C28.417 17.226 28.145 18.3165 27.601 19.1865C27.056 20.0565 26.33 20.796 25.423 21.416C24.552 21.996 23.227 22.7365 21.449 23.6465C20.687 24.0465 19.907 24.4665 19.108 24.8965C18.31 25.3365 17.493 25.8064 16.658 26.3164C15.57 27.0064 14.807 27.5866 14.372 28.0566C13.936 28.4966 13.719 29.0864 13.719 29.8564V31.4365C13.719 31.6465 13.646 31.8168 13.501 31.9268C13.392 32.0268 13.247 32.0859 13.065 32.0859C12.884 32.0859 12.721 32.0268 12.575 31.9268C12.467 31.7768 12.412 31.6165 12.412 31.4365V29.2559C12.412 27.6959 13.011 26.1863 14.209 24.7363ZM127.768 28.5967C127.95 28.7467 128.059 28.9463 128.095 29.1963C128.095 29.4863 127.986 29.7064 127.768 29.8564C127.587 29.9664 127.333 30.0668 127.006 30.1768C125.845 30.6168 124.665 30.9766 123.468 31.2666C122.27 31.5266 121.199 31.6465 120.256 31.6465C118.804 31.6465 117.461 31.326 116.227 30.666C114.993 29.976 114.013 29.0359 113.288 27.8359C112.598 26.6059 112.253 25.2065 112.253 23.6465C112.253 22.0865 112.489 20.6567 112.961 19.3467C113.433 18.0367 114.086 16.8762 114.921 15.8662C115.792 14.8462 116.808 14.0064 117.969 13.3564C118.659 12.9564 119.367 12.636 120.092 12.376C120.818 12.086 121.58 11.8864 122.379 11.7764C124.484 11.3764 126.008 10.9062 126.952 10.3662C127.932 9.81621 128.694 9.21641 129.238 8.56641C129.347 8.42641 129.456 8.31633 129.565 8.23633C129.71 8.16633 129.837 8.13672 129.946 8.13672C130.055 8.16672 130.146 8.2259 130.218 8.2959C130.291 8.3659 130.327 8.4366 130.327 8.5166C130.363 8.5866 130.381 8.67613 130.381 8.78613C130.345 8.89613 130.291 9.00621 130.218 9.11621C130.182 9.21621 130.109 9.34609 130 9.49609C129.674 9.81609 129.202 10.2165 128.585 10.6865C128.004 11.1265 127.278 11.5661 126.407 11.9961C125.573 12.4361 124.647 12.8363 123.631 13.1963C122.47 13.6263 121.49 14.0463 120.691 14.4463C119.929 14.8063 119.258 15.2459 118.677 15.7559C118.06 16.2559 117.552 16.8559 117.153 17.5459C116.79 18.2359 116.518 19.0964 116.336 20.1064C116.191 21.0864 116.118 22.2863 116.118 23.6963C116.118 25.0763 116.536 26.3162 117.371 27.4062C118.242 28.4562 119.294 29.0866 120.528 29.3066C120.673 29.3466 120.818 29.376 120.964 29.416H121.508C122.089 29.416 122.76 29.3463 123.522 29.1963C124.284 29.0563 125.028 28.8861 125.754 28.7061C126.044 28.6361 126.317 28.5859 126.571 28.5459C126.825 28.4759 127.024 28.4365 127.17 28.4365C127.424 28.3965 127.623 28.4567 127.768 28.5967ZM54.548 14.1162C55.891 12.4462 57.433 11.6162 59.175 11.6162C60.155 11.6162 61.153 11.9565 62.169 12.6465C63.222 13.3365 64.238 14.2668 65.218 15.4268C66.234 16.5568 67.214 17.8765 68.158 19.3965C68.194 19.4365 68.212 19.4964 68.212 19.5664C68.248 19.5964 68.285 19.6566 68.321 19.7266C68.466 19.9766 68.521 20.2363 68.484 20.4863C68.448 20.7063 68.321 20.8666 68.103 20.9766C68.067 21.0166 68.031 21.0361 67.994 21.0361C67.994 21.0361 67.976 21.0559 67.94 21.0859C67.722 21.1559 67.504 21.1559 67.287 21.0859C67.105 20.9759 66.924 20.8167 66.742 20.5967L66.035 19.5059C64.909 17.7659 63.803 16.3162 62.714 15.1562C61.625 13.9963 60.464 13.416 59.23 13.416C58.141 13.416 57.234 14.0266 56.508 15.2666C55.782 16.4966 55.256 18.1164 54.929 20.1064C54.602 22.0664 54.439 24.2061 54.439 26.5361C54.439 29.1061 54.693 31.2461 55.201 32.9561C55.746 34.6661 56.417 35.9158 57.215 36.7158C58.05 37.5058 58.885 37.9062 59.72 37.9062C61.353 37.9062 62.587 37.4067 63.422 36.3867C64.256 35.3367 64.891 34.2059 65.327 33.0059L65.436 32.7363C65.508 32.6263 65.599 32.516 65.708 32.416C65.817 32.266 65.944 32.1963 66.089 32.1963C66.379 32.1963 66.561 32.3066 66.633 32.5166C66.742 32.7366 66.76 32.9568 66.688 33.1768C66.143 35.7468 65.218 37.6763 63.911 38.9463C62.605 40.1763 61.008 40.7959 59.121 40.7959C57.306 40.7959 55.746 40.1567 54.439 38.8867C53.133 37.6167 52.134 35.9665 51.445 33.9365C50.792 31.9065 50.465 29.7461 50.465 27.4561C50.465 25.1361 50.81 22.7364 51.499 20.2764C52.225 17.8064 53.241 15.7562 54.548 14.1162ZM124.121 40.1465C122.96 40.5365 121.835 40.7363 120.746 40.7363C119.04 40.7363 117.588 40.5061 116.391 40.0361C115.229 39.5561 114.268 38.9465 113.505 38.1865C112.743 37.3865 112.126 36.4761 111.654 35.4561C111.364 34.8761 111.201 34.3567 111.164 33.8867C111.164 33.4067 111.219 33.0459 111.328 32.7959C111.473 32.5359 111.654 32.3561 111.872 32.2461C112.126 32.1061 112.398 32.0459 112.689 32.0859C112.979 32.0859 113.288 32.2158 113.614 32.4658C113.941 32.7158 114.231 33.1358 114.485 33.7158C114.921 34.5858 115.429 35.3666 116.01 36.0566C116.59 36.7466 117.28 37.3259 118.078 37.7959C118.877 38.2359 119.766 38.4561 120.746 38.4561C121.435 38.4561 122.107 38.3961 122.76 38.2861C123.45 38.1861 124.139 38.0159 124.829 37.7959C125.555 37.5859 126.28 37.2968 127.006 36.9268C127.333 36.7868 127.623 36.6962 127.877 36.6562C128.131 36.5862 128.349 36.6963 128.531 36.9863C128.676 37.2363 128.639 37.4961 128.422 37.7461C128.24 37.9961 128.041 38.1861 127.823 38.2861C126.553 39.0861 125.319 39.7065 124.121 40.1465ZM108.66 31.7061C108.697 33.6961 108.715 36.7861 108.715 40.9561C108.715 41.7561 108.57 42.406 108.279 42.916C107.989 43.426 107.535 43.6768 106.918 43.6768C106.338 43.6768 105.848 43.4967 105.448 43.1367C105.085 42.8067 104.886 42.2866 104.85 41.5566C104.813 39.5566 104.777 35.9466 104.741 30.7266V18.4766C104.741 17.3166 104.287 16.2466 103.38 15.2666C102.509 14.2866 101.111 13.7959 99.188 13.7959C97.7 13.7959 96.502 14.3064 95.595 15.3164C94.724 16.2964 94.288 17.4764 94.288 18.8564C94.288 20.3064 94.27 21.396 94.234 22.126V25.4463C94.198 26.0963 94.18 26.7661 94.18 27.4561V29.8564C94.18 30.2164 93.962 30.5961 93.526 30.9961C93.091 31.3561 92.583 31.5361 92.002 31.5361C91.53 31.5361 91.149 31.3561 90.859 30.9961C90.568 30.5961 90.423 30.1467 90.423 29.6367C90.423 28.0367 90.405 26.8567 90.369 26.0967V20.5459C90.369 19.3859 90.695 18.1467 91.349 16.8467C92.002 15.5367 92.982 14.4266 94.288 13.5166C95.631 12.6166 97.264 12.1562 99.188 12.1562C101.22 12.1562 102.944 12.5958 104.36 13.4658C105.811 14.3058 106.882 15.3364 107.572 16.5664C108.297 17.7664 108.66 18.9061 108.66 19.9961V31.7061ZM46.545 23.9766C47.852 26.0066 48.505 28.1859 48.505 30.5059C48.505 32.5359 48.033 34.3159 47.09 35.8359C46.146 37.3659 44.84 38.5665 43.17 39.4365C41.537 40.2665 39.65 40.6865 37.509 40.6865C36.746 40.6865 35.894 40.6158 34.95 40.4658C34.042 40.3258 33.172 40.1468 32.337 39.9268C31.538 39.7068 30.921 39.4658 30.486 39.2158C30.232 39.0658 30.032 38.9264 29.887 38.7764C29.742 38.5964 29.669 38.3063 29.669 37.9062L29.397 29.3662C29.361 28.6362 29.615 28.2764 30.159 28.2764C30.558 28.2764 30.831 28.5959 30.976 29.2559L32.01 33.666C32.809 36.926 35.041 38.7464 38.706 39.1064C40.956 39.0664 42.553 38.1961 43.497 36.4961C44.477 34.7861 44.967 32.8262 44.967 30.6162C44.967 28.4762 44.567 26.4466 43.769 24.5166C43.007 22.5966 41.356 20.7263 38.815 18.9062C36.021 16.9863 33.789 15.2062 32.119 13.5762C30.486 11.9462 29.669 10.1062 29.669 8.07617C29.669 5.97617 30.595 4.17652 32.446 2.68652C34.333 1.19652 36.601 0.456055 39.251 0.456055C40.412 0.456055 41.628 0.585938 42.898 0.835938C44.205 1.08594 45.203 1.45676 45.892 1.92676C46.11 2.06676 46.273 2.23602 46.382 2.41602C46.527 2.59602 46.6 2.83598 46.6 3.12598L46.818 8.5166C46.854 8.9166 46.709 9.11621 46.382 9.11621C46.055 9.14621 45.892 8.98598 45.892 8.62598L45.838 6.87598C45.801 5.31598 45.112 4.08676 43.769 3.17676C42.426 2.23676 40.847 1.7666 39.033 1.7666C37.363 1.7666 35.948 2.32629 34.786 3.44629C33.625 4.57629 33.045 6.06602 33.045 7.91602C33.045 9.47602 33.589 10.966 34.678 12.376C35.766 13.796 37.654 15.5159 40.339 17.5459C43.17 19.7659 45.239 21.9066 46.545 23.9766ZM59.012 23.8066C59.375 23.4066 59.847 23.2158 60.427 23.2158C60.935 23.2158 61.371 23.4066 61.734 23.8066C62.133 24.1766 62.333 24.626 62.333 25.166C62.333 25.676 62.133 26.1361 61.734 26.5361C61.371 26.8961 60.935 27.0762 60.427 27.0762C59.883 27.0762 59.411 26.8961 59.012 26.5361C58.649 26.1361 58.468 25.676 58.468 25.166C58.468 24.626 58.649 24.1766 59.012 23.8066ZM11.868 37.416C12.267 37.016 12.721 36.8164 13.229 36.8164C13.737 36.8164 14.172 37.016 14.535 37.416C14.934 37.786 15.134 38.2364 15.134 38.7764C15.134 39.2864 14.934 39.7465 14.535 40.1465C14.172 40.5065 13.737 40.6865 13.229 40.6865C12.721 40.6865 12.267 40.5065 11.868 40.1465C11.469 39.7465 11.269 39.2864 11.269 38.7764C11.269 38.2364 11.469 37.786 11.868 37.416Z" fill="black"/>
</svg>
