<svg width="131" height="44" viewBox="0 0 131 44" fill="none" xmlns="http://www.w3.org/2000/svg">
<path fill-rule="evenodd" clip-rule="evenodd" d="M79.971 29.0859H79.427C77.43 29.0859 75.543 28.5461 73.765 27.4561C72.023 26.3661 70.589 25.2066 69.464 23.9766L69.138 23.6465C69.065 23.5365 68.974 23.446 68.865 23.376C68.648 23.046 68.502 22.7059 68.43 22.3359C68.357 21.9759 68.412 21.7064 68.593 21.5264C68.775 21.3464 68.992 21.2666 69.246 21.3066C69.537 21.3466 69.827 21.5462 70.118 21.9062C70.335 22.1962 70.553 22.5062 70.771 22.8262C71.025 23.1162 71.297 23.4063 71.587 23.6963C72.604 24.6763 73.71 25.4767 74.908 26.0967C76.142 26.6767 77.503 26.9658 78.991 26.9658C80.661 26.9358 81.749 26.3466 82.257 25.2266C82.766 24.0966 83.019 22.486 83.019 20.376C83.019 18.816 82.747 17.2966 82.203 15.8066C81.695 14.2866 80.715 13.5166 79.263 13.5166C78.283 13.5166 77.34 13.9767 76.432 14.8867C75.561 15.7567 74.854 17.1158 74.309 18.9658C74.273 19.0358 74.237 19.1263 74.2 19.2363V19.4561C74.019 20.1461 73.801 20.6859 73.547 21.0859C73.329 21.4859 72.912 21.6865 72.295 21.6865C71.787 21.6865 71.406 21.5566 71.152 21.3066C70.898 21.0166 70.734 20.706 70.662 20.376C70.626 20.056 70.644 19.7067 70.716 19.3467C70.825 18.6167 71.261 17.6964 72.023 16.5664C72.785 15.4064 73.783 14.3966 75.017 13.5166C76.287 12.6466 77.739 12.2158 79.372 12.2158C80.642 12.2158 81.822 12.5267 82.911 13.1367C84.036 13.7567 84.943 14.6958 85.633 15.9658C86.322 17.2058 86.667 18.6965 86.667 20.4365C86.667 21.8865 86.395 23.2258 85.85 24.4658C85.342 25.6558 84.616 26.6561 83.673 27.4561C82.766 28.2561 81.731 28.7663 80.57 28.9863C80.388 29.0163 80.189 29.0559 79.971 29.0859ZM84.272 40.0361C83.255 40.5361 82.04 40.7959 80.624 40.7959C78.047 40.7959 75.924 40.1066 74.255 38.7266C72.585 37.3066 71.351 35.7667 70.553 34.0967C69.791 32.4267 69.41 31.2161 69.41 30.4561C69.374 30.0861 69.428 29.746 69.573 29.416C69.718 29.056 69.936 28.7659 70.226 28.5459C70.553 28.2959 70.97 28.166 71.478 28.166C72.095 28.166 72.585 28.3461 72.948 28.7061C73.311 29.0761 73.565 29.4858 73.71 29.9658V30.1768C73.747 30.2168 73.765 30.2667 73.765 30.3467C73.838 30.5967 73.874 30.7963 73.874 30.9463C73.91 31.0863 73.965 31.2861 74.037 31.5361C74.327 32.7761 74.709 33.896 75.18 34.916C75.652 35.936 76.324 36.7866 77.195 37.4766C78.102 38.1266 79.245 38.4561 80.624 38.4561C81.713 38.4561 82.62 38.2161 83.346 37.7461C84.072 37.2361 84.616 36.6962 84.979 36.1162C85.342 35.5362 85.742 34.7662 86.177 33.8262C86.431 33.2462 86.74 32.9059 87.102 32.7959C87.465 32.6459 87.865 32.6863 88.3 32.9062C88.736 33.1162 89.044 33.4863 89.226 33.9863C89.443 34.4663 89.371 34.9561 89.008 35.4561C88.101 36.6561 87.338 37.6061 86.721 38.2861C86.104 38.9461 85.288 39.5261 84.272 40.0361ZM14.209 24.7363C15.443 23.2863 17.421 21.8859 20.142 20.5459C22.502 19.3859 24.135 18.3267 25.042 17.3867C25.949 16.4467 26.403 15.3866 26.403 14.2266C26.403 13.5366 26.131 12.9563 25.586 12.4863C25.042 12.0163 24.407 11.7764 23.681 11.7764C22.774 11.7764 21.758 12.0163 20.632 12.4863C19.544 12.9263 18.146 13.5961 16.441 14.4961C14.372 15.5861 12.594 16.4259 11.106 17.0059C9.618 17.5859 8.148 17.876 6.696 17.876C5.607 17.876 4.537 17.5859 3.484 17.0059C2.468 16.4259 1.633 15.6066 0.98 14.5566C0.327 13.5066 0 12.2862 0 10.9062C0 9.38625 0.327 8.11668 0.98 7.09668C1.669 6.07668 2.486 5.24668 3.43 4.59668C4.156 4.12668 4.809 3.70594 5.389 3.33594C5.97 2.94594 6.496 2.55629 6.968 2.19629C7.73 1.65629 8.293 1.27664 8.656 1.05664C9.055 0.836641 9.418 0.726562 9.745 0.726562C10.362 0.726562 10.87 0.926172 11.269 1.32617C11.704 1.68617 11.922 2.19668 11.922 2.84668C11.922 3.35668 11.614 3.81582 10.997 4.21582C10.416 4.57582 9.491 5.02617 8.22 5.57617C7.748 5.78617 7.259 6.02637 6.75 6.27637C6.242 6.49637 5.734 6.7559 5.226 7.0459C4.319 7.5159 3.539 8.13648 2.885 8.89648C2.232 9.65648 1.905 10.5061 1.905 11.4561C1.905 12.1461 2.141 12.8865 2.613 13.6865C3.085 14.4465 3.847 14.8262 4.9 14.8262C5.698 14.8262 6.569 14.6266 7.513 14.2266C8.492 13.8266 9.781 13.1962 11.378 12.3262C13.446 11.1962 15.261 10.3261 16.822 9.70605C18.419 9.09605 20.015 8.78613 21.612 8.78613C23.1 8.78613 24.352 9.18633 25.369 9.98633C26.385 10.7763 27.147 11.7462 27.655 12.8662C28.163 13.9962 28.417 15.006 28.417 15.916C28.417 17.226 28.145 18.3165 27.601 19.1865C27.056 20.0565 26.33 20.796 25.423 21.416C24.552 21.996 23.227 22.7365 21.449 23.6465C20.687 24.0465 19.907 24.4665 19.108 24.8965C18.31 25.3365 17.493 25.8064 16.658 26.3164C15.57 27.0064 14.807 27.5866 14.372 28.0566C13.936 28.4966 13.719 29.0864 13.719 29.8564V31.4365C13.719 31.6465 13.646 31.8168 13.501 31.9268C13.392 32.0268 13.247 32.0859 13.065 32.0859C12.884 32.0859 12.721 32.0268 12.575 31.9268C12.467 31.7768 12.412 31.6165 12.412 31.4365V29.2559C12.412 27.6959 13.011 26.1863 14.209 24.7363ZM127.551 28.7666C127.732 28.9066 127.823 29.1062 127.823 29.3662C127.859 29.6562 127.768 29.8558 127.551 29.9658C127.369 30.0658 127.115 30.1761 126.788 30.2861C125.591 30.6861 124.393 31.0362 123.196 31.3262C122.034 31.5762 121 31.7061 120.092 31.7061C118.641 31.7061 117.298 31.3766 116.064 30.7266C114.866 30.0366 113.905 29.0865 113.179 27.8965C112.489 26.6565 112.144 25.2759 112.144 23.7559C112.144 22.1559 112.38 20.7065 112.852 19.3965C113.324 18.0965 113.977 16.936 114.812 15.916C115.683 14.896 116.699 14.0464 117.861 13.3564C118.55 12.9964 119.258 12.666 119.984 12.376C120.709 12.086 121.472 11.8864 122.27 11.7764C124.375 11.3464 125.899 10.8163 126.843 10.1963C127.823 9.58629 128.567 8.91652 129.075 8.18652C129.22 8.00652 129.347 7.87664 129.456 7.80664C129.601 7.69664 129.71 7.65629 129.783 7.69629C129.928 7.69629 130.037 7.73664 130.109 7.80664C130.182 7.87664 130.236 7.94637 130.273 8.02637C130.309 8.09637 130.327 8.20668 130.327 8.34668C130.291 8.42668 130.236 8.52676 130.164 8.67676C130.127 8.78676 130.055 8.92621 129.946 9.11621C129.656 9.47621 129.202 9.90602 128.585 10.416C128.004 10.886 127.278 11.3767 126.407 11.8867C125.536 12.3567 124.593 12.7767 123.577 13.1367C122.379 13.6167 121.381 14.0463 120.582 14.4463C119.82 14.8063 119.149 15.2666 118.568 15.8066C117.951 16.3166 117.461 16.9362 117.098 17.6562C116.735 18.3462 116.463 19.1958 116.282 20.2158C116.1 21.1958 116.01 22.3966 116.01 23.8066C116.01 25.1866 116.427 26.4061 117.262 27.4561C118.133 28.5061 119.185 29.1462 120.419 29.3662C120.564 29.3962 120.709 29.4366 120.855 29.4766H121.345C121.925 29.4766 122.597 29.4166 123.359 29.3066C124.121 29.1666 124.829 28.9964 125.482 28.8164C125.809 28.7464 126.099 28.6962 126.353 28.6562C126.607 28.5862 126.807 28.5459 126.952 28.5459C127.206 28.5459 127.405 28.6166 127.551 28.7666ZM54.439 14.1162C55.746 12.4462 57.27 11.6162 59.012 11.6162C59.992 11.6162 61.008 11.9565 62.06 12.6465C63.113 13.3365 64.129 14.2668 65.109 15.4268C66.125 16.5568 67.123 17.8567 68.103 19.3467C68.14 19.4167 68.158 19.4964 68.158 19.5664C68.194 19.5964 68.23 19.6368 68.266 19.6768C68.412 19.9668 68.466 20.2363 68.43 20.4863C68.394 20.7063 68.266 20.8666 68.049 20.9766C68.013 21.0166 67.976 21.0361 67.94 21.0361C67.94 21.0361 67.922 21.0559 67.885 21.0859C67.668 21.1559 67.45 21.1559 67.232 21.0859C67.051 21.0159 66.869 20.8567 66.688 20.5967L65.98 19.5059C64.819 17.8059 63.676 16.3661 62.55 15.2061C61.462 14.0061 60.3 13.416 59.066 13.416C58.014 13.416 57.125 14.0266 56.399 15.2666C55.673 16.4966 55.129 18.1164 54.766 20.1064C54.439 22.0664 54.276 24.2061 54.276 26.5361C54.276 29.1061 54.53 31.2461 55.038 32.9561C55.582 34.6661 56.254 35.9158 57.052 36.7158C57.887 37.5058 58.722 37.9062 59.556 37.9062C61.19 37.9062 62.423 37.4067 63.258 36.3867C64.093 35.3367 64.728 34.2059 65.164 33.0059L65.272 32.7363C65.345 32.6263 65.436 32.516 65.545 32.416C65.653 32.266 65.781 32.1963 65.926 32.1963C66.216 32.1963 66.397 32.3066 66.47 32.5166C66.579 32.7366 66.597 32.9568 66.525 33.1768C65.98 35.7468 65.055 37.6763 63.748 38.9463C62.442 40.1763 60.845 40.7959 58.958 40.7959C57.143 40.7959 55.582 40.1567 54.276 38.8867C52.969 37.6167 51.971 35.9665 51.282 33.9365C50.628 31.9065 50.302 29.7461 50.302 27.4561C50.302 25.1361 50.665 22.7364 51.39 20.2764C52.116 17.8064 53.133 15.7562 54.439 14.1162ZM123.903 40.1963C122.742 40.5563 121.617 40.7363 120.528 40.7363C118.859 40.7363 117.425 40.5061 116.227 40.0361C115.03 39.5561 114.05 38.9465 113.288 38.1865C112.562 37.4165 111.945 36.5464 111.437 35.5664C111.146 34.9564 110.983 34.4065 110.947 33.9365C110.91 33.4665 110.965 33.0967 111.11 32.8467C111.255 32.5567 111.437 32.3561 111.654 32.2461C111.872 32.1061 112.126 32.0459 112.417 32.0859C112.707 32.1159 113.015 32.2666 113.342 32.5166C113.669 32.7766 113.977 33.1758 114.268 33.7158C114.703 34.5858 115.211 35.3862 115.792 36.1162C116.372 36.8062 117.062 37.3659 117.861 37.7959C118.695 38.2359 119.603 38.4561 120.582 38.4561C121.272 38.4561 121.943 38.4167 122.597 38.3467C123.286 38.2367 123.976 38.0962 124.665 37.9062C125.391 37.6963 126.135 37.4167 126.897 37.0967C127.224 36.9167 127.514 36.8066 127.768 36.7666C128.022 36.7266 128.222 36.8565 128.367 37.1465C128.549 37.4365 128.531 37.7058 128.313 37.9658C128.095 38.1858 127.877 38.3461 127.66 38.4561C126.353 39.2161 125.101 39.7963 123.903 40.1963ZM108.497 31.7559C108.533 33.7859 108.551 36.916 108.551 41.126C108.551 41.916 108.406 42.5759 108.116 43.0859C107.826 43.5859 107.372 43.8467 106.755 43.8467C106.174 43.8467 105.684 43.6659 105.285 43.2959C104.922 42.9759 104.741 42.4458 104.741 41.7158C104.668 39.7258 104.614 36.0764 104.577 30.7764V18.4766C104.577 17.3166 104.124 16.2466 103.216 15.2666C102.345 14.2866 100.966 13.7959 99.079 13.7959C97.555 13.7959 96.339 14.3064 95.432 15.3164C94.561 16.2964 94.125 17.4764 94.125 18.8564C94.125 20.2364 94.107 21.2866 94.071 22.0166V25.2266C94.034 25.8466 94.016 26.4965 94.016 27.1865V29.5264C94.016 29.8864 93.798 30.2562 93.363 30.6162C92.927 30.9762 92.438 31.1562 91.893 31.1562C91.421 31.1562 91.022 30.9762 90.695 30.6162C90.405 30.2562 90.26 29.8166 90.26 29.3066C90.26 27.7866 90.242 26.6565 90.206 25.9365V20.5459C90.206 19.3859 90.532 18.1467 91.185 16.8467C91.839 15.5367 92.819 14.4266 94.125 13.5166C95.468 12.6166 97.101 12.1562 99.025 12.1562C101.057 12.1562 102.799 12.5958 104.251 13.4658C105.702 14.3058 106.773 15.3364 107.463 16.5664C108.152 17.7664 108.497 18.9061 108.497 19.9961V31.7559ZM46.437 23.9766C47.743 26.0066 48.396 28.1859 48.396 30.5059C48.396 32.5359 47.925 34.3159 46.981 35.8359C46.037 37.3659 44.731 38.5665 43.061 39.4365C41.428 40.2665 39.541 40.6865 37.4 40.6865C36.638 40.6865 35.785 40.6158 34.841 40.4658C33.934 40.3258 33.063 40.1468 32.228 39.9268C31.43 39.7068 30.813 39.4658 30.377 39.2158C30.123 39.0658 29.923 38.9264 29.778 38.7764C29.633 38.5964 29.56 38.3063 29.56 37.9062L29.288 29.3662C29.252 28.6362 29.506 28.2764 30.05 28.2764C30.45 28.2764 30.722 28.5959 30.867 29.2559L31.956 33.7764C32.718 37.0364 34.932 38.8164 38.597 39.1064C40.847 39.0664 42.444 38.1961 43.388 36.4961C44.368 34.7861 44.858 32.8262 44.858 30.6162C44.858 28.4762 44.477 26.4466 43.715 24.5166C42.952 22.5566 41.301 20.6664 38.761 18.8564C35.966 16.9364 33.734 15.1762 32.065 13.5762C30.395 11.9462 29.56 10.1062 29.56 8.07617C29.56 5.97617 30.486 4.17652 32.337 2.68652C34.224 1.19652 36.492 0.456055 39.142 0.456055C40.303 0.456055 41.519 0.585938 42.789 0.835938C44.096 1.08594 45.094 1.45676 45.783 1.92676C46.001 2.06676 46.164 2.23602 46.273 2.41602C46.418 2.59602 46.491 2.83598 46.491 3.12598L46.709 8.34668C46.745 8.74668 46.6 8.94629 46.273 8.94629C45.983 8.98629 45.838 8.81605 45.838 8.45605L45.783 6.7666C45.747 5.2066 45.039 3.99598 43.66 3.12598C42.317 2.21598 40.739 1.7666 38.924 1.7666C37.254 1.7666 35.839 2.32629 34.678 3.44629C33.516 4.57629 32.936 6.06602 32.936 7.91602C32.936 9.47602 33.48 10.966 34.569 12.376C35.658 13.796 37.545 15.5159 40.23 17.5459C43.061 19.7659 45.13 21.9066 46.437 23.9766ZM58.849 23.8066C59.212 23.4066 59.683 23.2158 60.264 23.2158C60.772 23.2158 61.208 23.4066 61.571 23.8066C61.97 24.1766 62.169 24.626 62.169 25.166C62.169 25.676 61.97 26.1361 61.571 26.5361C61.208 26.8961 60.772 27.0762 60.264 27.0762C59.72 27.0762 59.248 26.8961 58.849 26.5361C58.486 26.1361 58.304 25.676 58.304 25.166C58.304 24.626 58.486 24.1766 58.849 23.8066ZM11.868 37.4766C12.267 37.0766 12.721 36.876 13.229 36.876C13.737 36.876 14.172 37.0766 14.535 37.4766C14.934 37.8366 15.134 38.2859 15.134 38.8359C15.134 39.3459 14.934 39.7963 14.535 40.1963C14.172 40.5563 13.737 40.7363 13.229 40.7363C12.721 40.7363 12.267 40.5563 11.868 40.1963C11.469 39.7963 11.269 39.3459 11.269 38.8359C11.269 38.2859 11.469 37.8366 11.868 37.4766Z" fill="black"/>
</svg>
