<svg width="139" height="41" viewBox="0 0 139 41" fill="none" xmlns="http://www.w3.org/2000/svg">
<path fill-rule="evenodd" clip-rule="evenodd" d="M4.355 14.1741L0.762 14.6101C0.508 13.7391 0.308 12.9951 0.163 12.3781C0.054 11.7611 0 10.9261 0 9.87311C0.798 9.61911 1.452 9.4021 1.96 9.2201C2.504 9.0391 3.303 8.87511 4.355 8.73011V5.13709L6.642 4.86512C7.113 4.79212 7.458 4.73809 7.676 4.70209C7.93 4.66509 8.275 4.62908 8.71 4.59308V1.00013C9.581 0.964126 10.253 0.964126 10.725 1.00013C11.233 1.00013 11.922 1.05409 12.793 1.16309C12.83 2.03409 12.83 2.72412 12.793 3.23212C12.757 3.70412 12.684 4.35708 12.575 5.19208L8.71 5.35511V8.94812C7.803 9.02112 7.059 9.09308 6.478 9.16608C5.934 9.23808 5.226 9.29311 4.355 9.32911V10.4721C4.246 10.8351 4.137 11.1441 4.028 11.3981C3.956 11.6161 3.92 11.9601 3.92 12.4321C3.92 12.8681 3.956 13.1941 4.028 13.4121C4.137 13.6301 4.246 13.8841 4.355 14.1741ZM4.355 14.1741C5.807 14.1741 6.95 14.1381 7.785 14.0651C8.656 13.9931 9.908 13.8841 11.541 13.7391L13.065 13.5751V9.98212C13.9 9.94612 14.59 9.8921 15.134 9.8191C15.715 9.7461 16.477 9.69213 17.421 9.65613V6.00812C19.235 5.93612 20.669 5.91811 21.721 5.95411C22.81 5.95411 24.28 6.08109 26.131 6.33509V9.98212L29.724 9.9281C29.796 10.7631 29.851 11.4341 29.887 11.9421C29.96 12.4501 29.996 13.1581 29.996 14.0651H26.403C26.439 14.9731 26.439 15.6981 26.403 16.2431C26.403 16.7871 26.385 17.5131 26.349 18.4201H22.756C22.683 19.3281 22.556 20.0541 22.374 20.5981C22.229 21.1421 22.048 21.8681 21.83 22.7761H18.237C18.165 22.9571 18.092 23.1021 18.019 23.2111C17.983 23.2841 17.947 23.4111 17.91 23.5921C17.511 24.4271 17.221 25.0621 17.039 25.4971C16.858 25.9331 16.767 26.5681 16.767 27.4031V31.3771C16.15 31.4491 15.678 31.5041 15.352 31.5401C15.025 31.5401 14.68 31.5221 14.318 31.4861C13.991 31.4491 13.519 31.4131 12.902 31.3771V28.2741C12.902 27.1491 12.957 26.2961 13.065 25.7151C13.174 25.0981 13.301 24.2641 13.446 23.2111L13.501 22.7761H17.148C17.221 22.1951 17.312 21.7591 17.421 21.4691C17.529 21.1421 17.656 20.6891 17.802 20.1081C17.874 19.7451 17.965 19.4731 18.074 19.2911C18.183 19.0741 18.292 18.7831 18.4 18.4201H21.993C22.139 17.5131 22.247 16.8051 22.32 16.2971C22.429 15.7891 22.483 15.0451 22.483 14.0651H26.131V10.4721H23.79C23.318 10.3271 22.919 10.2181 22.592 10.1461C22.266 10.0731 21.794 10.0371 21.177 10.0371C20.451 10.0371 19.852 10.0731 19.38 10.1461C18.909 10.2181 18.255 10.2911 17.421 10.3631V14.0111L13.065 14.3921V17.9851C11.178 18.1301 9.708 18.2211 8.656 18.2571C7.603 18.2931 6.17 18.2751 4.355 18.2031V14.1741ZM39.196 36.2221L35.603 36.6571C35.313 35.8231 35.077 35.1691 34.895 34.6981C34.714 34.2261 34.623 33.5361 34.623 32.6291V30.5601L34.569 27.4571C35.186 27.4211 35.658 27.3851 35.984 27.3481C36.311 27.3121 36.638 27.3121 36.964 27.3481C37.327 27.3481 37.817 27.3851 38.434 27.4571L38.488 28.2741C38.561 30.0161 38.652 31.3771 38.761 32.3571C38.87 33.3001 39.015 34.5891 39.196 36.2221ZM39.196 4.97412V1.05408C41.047 0.945081 42.517 0.909133 43.606 0.945133C44.694 0.945133 46.128 0.964126 47.906 1.00013V4.59308C48.814 4.66508 49.503 4.72011 49.975 4.75611C50.483 4.79211 51.155 4.86512 51.989 4.97412V13.6301C51.409 13.6661 50.937 13.7021 50.574 13.7391C50.247 13.7751 49.902 13.7931 49.539 13.7931C49.213 13.7571 48.741 13.7021 48.124 13.6301C48.088 12.5771 48.051 11.7791 48.015 11.2341C47.979 10.6541 47.943 9.87311 47.906 8.89411V5.68213C46.6 5.35513 45.547 5.13708 44.749 5.02808C43.987 4.88308 43.206 4.8111 42.408 4.8111C41.646 4.8111 40.575 4.86512 39.196 4.97412ZM47.961 35.8411C48.106 33.0461 48.106 30.8511 47.961 29.2541C47.816 27.6571 47.58 25.4971 47.253 22.7761H43.66C43.588 22.3041 43.497 21.9231 43.388 21.6321C43.315 21.3421 43.243 20.9431 43.17 20.4351C43.098 20.0351 43.025 19.7091 42.952 19.4551C42.88 19.2011 42.807 18.8561 42.735 18.4201H39.087C38.942 17.4771 38.815 16.7511 38.706 16.2431C38.597 15.6981 38.507 14.9731 38.434 14.0651H34.841C34.768 12.7591 34.696 11.6701 34.623 10.7991C34.587 9.89214 34.623 8.98409 34.732 8.07709C34.877 7.17009 35.168 6.0261 35.603 4.6471L39.196 4.97412C39.015 6.28012 38.888 7.3511 38.815 8.1861C38.779 9.0211 38.797 9.87308 38.87 10.7441C38.978 11.5791 39.142 12.6861 39.359 14.0651H42.952C43.061 14.9361 43.188 15.6441 43.334 16.1881C43.515 16.7331 43.696 17.4771 43.878 18.4201H47.471C47.616 19.3281 47.743 20.0541 47.852 20.5981C47.961 21.1061 48.07 21.8321 48.179 22.7761H51.826C52.044 25.4611 52.189 27.6021 52.262 29.1991C52.334 30.7961 52.262 33.0101 52.044 35.8411H47.961ZM39.196 36.2221C40.539 36.3311 41.61 36.4031 42.408 36.4401C43.243 36.4401 44.041 36.3851 44.803 36.2761C45.602 36.1681 46.654 36.0221 47.961 35.8411L48.451 39.4341C46.636 39.7971 45.148 40.0511 43.987 40.1961C42.825 40.3051 41.228 40.3231 39.196 40.2501V36.2221ZM69.519 35.8411C69.591 35.1151 69.646 34.5521 69.682 34.1531C69.718 33.7181 69.754 33.1551 69.791 32.4661V31.7041C70.408 31.6311 70.88 31.5951 71.206 31.5951C71.569 31.5951 71.914 31.6131 72.241 31.6491C72.567 31.6851 73.021 31.7221 73.602 31.7581C73.602 32.6291 73.583 33.3191 73.547 33.8271C73.547 34.2981 73.529 34.9701 73.493 35.8411H69.519ZM61.081 35.8411C62.351 35.9501 63.349 36.0401 64.075 36.1131C64.837 36.1861 65.599 36.2041 66.361 36.1681C67.123 36.1311 68.176 36.0221 69.519 35.8411L69.845 39.4341C68.502 39.7971 67.377 40.0511 66.47 40.1961C65.599 40.3411 64.692 40.3411 63.748 40.1961C62.841 40.0871 61.698 39.8331 60.318 39.4341L61.081 35.8411ZM61.353 14.0651C61.135 17.2231 60.954 19.7811 60.808 21.7411C60.7 23.7011 60.663 25.6971 60.7 27.7291C60.736 29.7621 60.863 32.4661 61.081 35.8411H56.671C56.453 32.3571 56.344 29.6171 56.344 27.6211C56.344 25.5881 56.435 23.6281 56.617 21.7411C56.798 19.8181 57.016 17.2591 57.27 14.0651H61.353ZM61.353 14.0651L60.917 10.4721C62.696 10.3271 64.057 10.2361 65 10.2001C65.98 10.1641 67.341 10.1461 69.083 10.1461L69.519 12.0511C69.628 12.5231 69.7 13.1941 69.736 14.0651H73.329C73.438 14.9731 73.493 15.7171 73.493 16.2971C73.529 16.8421 73.547 17.6041 73.547 18.5841V18.8561C72.93 18.9281 72.458 18.9831 72.132 19.0191H71.097C70.771 18.9831 70.299 18.9471 69.682 18.9101C69.646 18.7651 69.628 18.6381 69.628 18.5291V18.0941C69.555 17.1861 69.482 16.4791 69.41 15.9711C69.337 15.4631 69.228 14.8271 69.083 14.0651H66.252C65.164 13.9931 64.329 13.9751 63.748 14.0111C63.167 14.0111 62.369 14.0291 61.353 14.0651ZM82.421 35.8411C83.691 35.9501 84.707 36.0401 85.469 36.1131C86.231 36.1861 87.012 36.2041 87.81 36.1681C88.609 36.1311 89.679 36.0221 91.022 35.8411L91.349 39.4341C90.006 39.7971 88.863 40.0511 87.919 40.1961C87.012 40.3051 86.086 40.3051 85.143 40.1961C84.235 40.0511 83.092 39.7971 81.713 39.4341L82.421 35.8411ZM91.022 35.8411C91.095 34.9341 91.149 34.2081 91.185 33.6631C91.258 33.0831 91.312 32.3571 91.349 31.4861C91.966 31.4131 92.438 31.3771 92.764 31.3771C93.091 31.3771 93.417 31.3951 93.744 31.4311C94.107 31.4681 94.579 31.5041 95.159 31.5401C95.159 32.4481 95.141 33.1731 95.105 33.7181C95.069 34.2621 95.014 34.9701 94.942 35.8411H91.022ZM82.693 14.0651C82.475 17.2231 82.294 19.7811 82.149 21.7411C82.125 22.0521 82.105 22.3631 82.086 22.6751C82.464 22.7451 82.775 22.8151 83.019 22.8841C83.274 22.9211 83.637 22.9391 84.108 22.9391H89.552C89.879 22.9031 90.296 22.8481 90.804 22.7761C90.841 22.1951 90.859 21.7411 90.859 21.4151V19.6721C90.859 18.4021 90.822 17.4221 90.75 16.7331C90.714 16.0431 90.641 15.1541 90.532 14.0651H87.701C86.613 13.9931 85.76 13.9751 85.143 14.0111C84.562 14.0111 83.745 14.0291 82.693 14.0651L82.149 10.4721C83.927 10.3271 85.288 10.2361 86.231 10.2001C87.175 10.1641 88.518 10.1461 90.26 10.1461C90.405 10.9441 90.55 11.5791 90.695 12.0511C90.841 12.5231 90.968 13.1941 91.077 14.0651H94.724C94.869 15.8801 94.978 17.3131 95.051 18.3661C95.159 19.4181 95.196 20.8881 95.159 22.7761C95.159 23.7191 95.141 24.4271 95.105 24.8991C95.105 25.3701 95.051 26.0061 94.942 26.8041H86.123C85.143 26.8041 84.417 26.8401 83.945 26.9131C83.473 26.9851 82.82 27.0761 81.985 27.1851V25.3071C81.971 26.1091 81.971 26.9161 81.985 27.7291C82.022 29.7621 82.167 32.4661 82.421 35.8411H78.066C77.812 32.3571 77.685 29.6171 77.685 27.6211C77.685 25.5881 77.757 23.6281 77.902 21.7411C78.084 19.8181 78.302 17.2591 78.556 14.0651H82.693ZM134.464 35.8411C134.501 34.9341 134.555 34.2081 134.628 33.6631C134.7 33.0831 134.737 32.3571 134.737 31.4861C135.354 31.4131 135.825 31.3771 136.152 31.3771C136.515 31.3771 136.86 31.3951 137.186 31.4311C137.513 31.4681 137.985 31.5041 138.602 31.5401C138.565 32.4481 138.529 33.1731 138.493 33.7181C138.457 34.2621 138.42 34.9701 138.384 35.8411H134.464ZM125.863 35.8411C127.133 35.9501 128.149 36.0401 128.912 36.1131C129.674 36.1861 130.454 36.2041 131.252 36.1681C132.051 36.1311 133.122 36.0221 134.464 35.8411L134.791 39.4341C133.448 39.7971 132.305 40.0511 131.361 40.1961C130.454 40.3051 129.529 40.3051 128.585 40.1961C127.641 40.0511 126.48 39.7971 125.101 39.4341L125.863 35.8411ZM126.135 14.0651C125.881 17.2231 125.682 19.7811 125.536 21.7411C125.519 22.0491 125.504 22.3581 125.49 22.6691C125.885 22.7401 126.192 22.8131 126.407 22.8841C126.661 22.9211 127.043 22.9391 127.551 22.9391H132.995C133.285 22.9031 133.702 22.8481 134.247 22.7761C134.283 22.1951 134.301 21.7411 134.301 21.4151V19.6721C134.301 18.4021 134.265 17.4221 134.192 16.7331C134.156 16.0431 134.083 15.1541 133.974 14.0651H131.089C130 13.9931 129.148 13.9751 128.531 14.0111C127.95 14.0111 127.151 14.0291 126.135 14.0651L125.591 10.4721C127.369 10.3271 128.73 10.2361 129.674 10.2001C130.617 10.1641 131.942 10.1461 133.648 10.1461C133.829 10.9441 133.993 11.5791 134.138 12.0511C134.283 12.5231 134.41 13.1941 134.519 14.0651H138.112C138.293 15.8801 138.42 17.3131 138.493 18.3661C138.565 19.4181 138.602 20.8881 138.602 22.7761C138.602 23.7191 138.584 24.4271 138.547 24.8991C138.511 25.3701 138.457 26.0061 138.384 26.8041H129.565C128.585 26.8041 127.859 26.8401 127.387 26.9131C126.916 26.9851 126.262 27.0761 125.428 27.1851C125.425 27.1391 125.421 27.0931 125.418 27.0491C125.421 27.2751 125.424 27.5021 125.428 27.7291C125.464 29.7621 125.609 32.4661 125.863 35.8411H121.508C121.254 32.3571 121.127 29.6171 121.127 27.6211C121.127 25.5881 121.199 23.6281 121.345 21.7411C121.526 19.8181 121.744 17.2591 121.998 14.0651H126.135ZM103.597 36.0041C103.597 36.4401 103.634 36.7481 103.706 36.9301C103.779 37.1111 103.888 37.3651 104.033 37.6921V37.7461L104.087 37.8011C104.16 38.0551 104.214 38.2541 104.251 38.4001C104.287 38.5081 104.305 38.7081 104.305 38.9981C104.305 39.2521 104.287 39.4521 104.251 39.5971C104.251 39.7421 104.214 39.9421 104.142 40.1961H98.97C98.898 39.9781 98.843 39.7971 98.807 39.6521C98.771 39.5061 98.752 39.2891 98.752 38.9981C98.752 38.8171 98.771 38.6721 98.807 38.5631C98.843 38.4541 98.916 38.3091 99.025 38.1271C99.061 38.0551 99.079 38.0001 99.079 37.9641L99.188 37.7461C99.26 37.3831 99.297 37.1111 99.297 36.9301C99.333 36.7121 99.351 36.4031 99.351 36.0041V20.1081C99.351 18.8011 99.388 17.7851 99.46 17.0591C99.533 16.3341 99.678 15.3361 99.896 14.0651H103.489C103.561 13.2311 103.652 12.5771 103.761 12.1051C103.87 11.6341 103.979 10.9801 104.087 10.1461H108.061C109.005 10.1461 110.348 10.1641 112.09 10.2001C112.235 10.9991 112.344 11.6161 112.417 12.0511C112.525 12.4871 112.634 13.1581 112.743 14.0651H116.336C116.518 15.2991 116.645 16.2791 116.717 17.0051C116.826 17.6951 116.881 18.6931 116.881 19.9991L116.935 36.0041V36.9301L117.098 37.7461C117.135 37.8551 117.153 37.9281 117.153 37.9641C117.189 38.0001 117.225 38.0731 117.262 38.1821C117.371 38.3271 117.443 38.4541 117.479 38.5631C117.516 38.6721 117.534 38.8171 117.534 38.9981C117.534 39.2891 117.516 39.5061 117.479 39.6521C117.479 39.7971 117.443 39.9781 117.371 40.1961H112.199C112.163 39.9781 112.126 39.7971 112.09 39.6521C112.054 39.4701 112.036 39.2521 112.036 38.9981C112.036 38.7081 112.054 38.5081 112.09 38.4001C112.163 38.2541 112.235 38.0551 112.308 37.8011C112.417 37.4741 112.489 37.2201 112.525 37.0391C112.598 36.8211 112.634 36.4761 112.634 36.0041V19.4551C112.634 18.2211 112.58 17.2951 112.471 16.6781L112.036 14.0651H110.239C109.513 14.0291 108.951 14.0111 108.551 14.0111C108.152 14.0111 107.572 14.0291 106.809 14.0651H104.142C103.997 15.0091 103.87 15.7711 103.761 16.3521C103.652 16.9321 103.597 17.7851 103.597 18.9101V36.0041ZM12.521 37.9641C12.521 37.3831 12.575 36.6571 12.684 35.7861C13.628 35.6781 14.372 35.6231 14.916 35.6231C15.461 35.6231 16.186 35.6591 17.094 35.7321C17.203 36.6761 17.257 37.4201 17.257 37.9641C17.257 38.5081 17.203 39.2341 17.094 40.1421C16.186 40.2501 15.443 40.3051 14.862 40.3051C14.318 40.3051 13.61 40.2501 12.739 40.1421C12.63 39.2341 12.557 38.5081 12.521 37.9641Z" fill="black"/>
</svg>
