<svg width="131" height="44" viewBox="0 0 131 44" fill="none" xmlns="http://www.w3.org/2000/svg">
<path fill-rule="evenodd" clip-rule="evenodd" d="M79.808 29.1963H79.209C77.213 29.1963 75.326 28.6366 73.547 27.5166C71.769 26.3866 70.317 25.186 69.192 23.916C69.083 23.806 68.974 23.6967 68.865 23.5967C68.793 23.4467 68.72 23.3366 68.648 23.2666C68.43 22.9366 68.285 22.5963 68.212 22.2363C68.176 21.8663 68.248 21.6158 68.43 21.4658C68.611 21.2558 68.829 21.1759 69.083 21.2559C69.374 21.2859 69.646 21.4867 69.9 21.8467C70.154 22.1767 70.39 22.5062 70.607 22.8262L71.424 23.7559C72.44 24.7359 73.547 25.5365 74.745 26.1465C75.979 26.7665 77.34 27.0762 78.828 27.0762C80.497 27.0762 81.586 26.4959 82.094 25.3359C82.638 24.1759 82.911 22.526 82.911 20.376C82.911 18.816 82.638 17.2966 82.094 15.8066C81.586 14.2866 80.606 13.5166 79.154 13.5166C78.174 13.5166 77.231 13.9767 76.324 14.8867C75.416 15.7867 74.69 17.1666 74.146 19.0166C74.11 19.0966 74.073 19.1859 74.037 19.2959V19.5059C73.892 20.1959 73.692 20.7465 73.438 21.1465C73.221 21.5065 72.803 21.6865 72.186 21.6865C71.678 21.6865 71.297 21.5566 71.043 21.3066C70.789 21.0566 70.626 20.7665 70.553 20.4365C70.517 20.1065 70.517 19.7665 70.553 19.3965C70.662 18.6765 71.097 17.7264 71.86 16.5664C72.622 15.4064 73.638 14.3966 74.908 13.5166C76.178 12.6466 77.63 12.2158 79.263 12.2158C80.534 12.2158 81.713 12.5267 82.802 13.1367C83.927 13.7567 84.834 14.6958 85.524 15.9658C86.213 17.2058 86.558 18.6965 86.558 20.4365C86.558 21.8865 86.286 23.2258 85.742 24.4658C85.233 25.6958 84.507 26.7364 83.564 27.5664C82.62 28.3664 81.568 28.8759 80.406 29.0859C80.225 29.1259 80.025 29.1663 79.808 29.1963ZM84.163 40.0859C83.183 40.5559 81.967 40.7959 80.515 40.7959C77.939 40.7959 75.815 40.1066 74.146 38.7266C72.477 37.3066 71.243 35.7667 70.444 34.0967C69.646 32.3967 69.246 31.1959 69.246 30.5059C69.246 30.1459 69.319 29.7966 69.464 29.4766C69.609 29.1066 69.827 28.8167 70.118 28.5967C70.444 28.3467 70.862 28.2158 71.37 28.2158C71.987 28.2158 72.477 28.3966 72.839 28.7666C73.202 29.0866 73.456 29.5066 73.602 30.0166V30.2363C73.638 30.2663 73.656 30.3265 73.656 30.3965C73.729 30.6565 73.765 30.8461 73.765 30.9961C73.801 31.1361 73.856 31.3367 73.928 31.5967C74.219 32.7967 74.6 33.896 75.071 34.916C75.543 35.936 76.233 36.7866 77.14 37.4766C78.047 38.1266 79.173 38.4561 80.515 38.4561C81.64 38.4561 82.566 38.2161 83.292 37.7461C84.018 37.2761 84.562 36.7666 84.925 36.2266C85.288 35.6466 85.705 34.8765 86.177 33.9365C86.395 33.3565 86.685 33.0063 87.048 32.9062C87.411 32.7963 87.828 32.8464 88.3 33.0664C88.736 33.2864 89.044 33.6463 89.226 34.1562C89.407 34.6262 89.316 35.0964 88.953 35.5664C88.01 36.7664 87.23 37.6967 86.613 38.3467C85.996 38.9967 85.179 39.5759 84.163 40.0859ZM14.209 24.7363C15.443 23.2863 17.421 21.8859 20.142 20.5459C22.502 19.3859 24.135 18.3267 25.042 17.3867C25.949 16.4467 26.403 15.3866 26.403 14.2266C26.403 13.5366 26.131 12.9563 25.586 12.4863C25.042 12.0163 24.407 11.7764 23.681 11.7764C22.774 11.7764 21.758 12.0163 20.632 12.4863C19.544 12.9263 18.146 13.5961 16.441 14.4961C14.372 15.5861 12.594 16.4259 11.106 17.0059C9.618 17.5859 8.148 17.876 6.696 17.876C5.607 17.876 4.537 17.5859 3.484 17.0059C2.468 16.4259 1.633 15.6066 0.98 14.5566C0.327 13.5066 0 12.2862 0 10.9062C0 9.38625 0.327 8.11668 0.98 7.09668C1.669 6.07668 2.486 5.24668 3.43 4.59668C4.156 4.12668 4.809 3.70594 5.389 3.33594C5.97 2.94594 6.496 2.55629 6.968 2.19629C7.73 1.65629 8.293 1.27664 8.656 1.05664C9.055 0.836641 9.418 0.726562 9.745 0.726562C10.362 0.726562 10.87 0.926172 11.269 1.32617C11.704 1.68617 11.922 2.19668 11.922 2.84668C11.922 3.35668 11.614 3.81582 10.997 4.21582C10.416 4.57582 9.491 5.02617 8.22 5.57617C7.748 5.78617 7.259 6.02637 6.75 6.27637C6.242 6.49637 5.734 6.7559 5.226 7.0459C4.319 7.5159 3.539 8.13648 2.885 8.89648C2.232 9.65648 1.905 10.5061 1.905 11.4561C1.905 12.1461 2.141 12.8865 2.613 13.6865C3.085 14.4465 3.847 14.8262 4.9 14.8262C5.698 14.8262 6.569 14.6266 7.513 14.2266C8.492 13.8266 9.781 13.1962 11.378 12.3262C13.446 11.1962 15.261 10.3261 16.822 9.70605C18.419 9.09605 20.015 8.78613 21.612 8.78613C23.1 8.78613 24.352 9.18633 25.369 9.98633C26.385 10.7763 27.147 11.7462 27.655 12.8662C28.163 13.9962 28.417 15.006 28.417 15.916C28.417 17.226 28.145 18.3165 27.601 19.1865C27.056 20.0565 26.33 20.796 25.423 21.416C24.552 21.996 23.227 22.7365 21.449 23.6465C20.687 24.0465 19.907 24.4665 19.108 24.8965C18.31 25.3365 17.493 25.8064 16.658 26.3164C15.57 27.0064 14.807 27.5866 14.372 28.0566C13.936 28.4966 13.719 29.0864 13.719 29.8564V31.4365C13.719 31.6465 13.646 31.8168 13.501 31.9268C13.392 32.0268 13.247 32.0859 13.065 32.0859C12.884 32.0859 12.721 32.0268 12.575 31.9268C12.467 31.7768 12.412 31.6165 12.412 31.4365V29.2559C12.412 27.6959 13.011 26.1863 14.209 24.7363ZM127.333 28.876C127.514 29.016 127.605 29.2166 127.605 29.4766C127.605 29.7666 127.496 29.9664 127.278 30.0664C127.097 30.1764 126.843 30.2865 126.516 30.3965C125.355 30.7965 124.175 31.126 122.978 31.376C121.78 31.626 120.764 31.7559 119.929 31.7559C118.477 31.7559 117.153 31.4364 115.955 30.7764C114.757 30.0864 113.796 29.1463 113.07 27.9463C112.38 26.7463 112.036 25.3862 112.036 23.8662C112.036 22.2662 112.271 20.8159 112.743 19.5059C113.215 18.1659 113.868 16.9858 114.703 15.9658C115.574 14.9158 116.59 14.066 117.752 13.416C118.441 13.016 119.149 12.666 119.875 12.376C120.637 12.086 121.399 11.8666 122.161 11.7266C124.266 11.2866 125.79 10.7467 126.734 10.0967C127.714 9.40668 128.458 8.63664 128.966 7.80664C129.075 7.62664 129.184 7.47621 129.293 7.36621C129.438 7.25621 129.565 7.20605 129.674 7.20605C129.819 7.20605 129.928 7.24641 130 7.31641C130.073 7.35641 130.127 7.42613 130.164 7.53613C130.236 7.60613 130.273 7.71645 130.273 7.85645C130.273 7.96645 130.236 8.09633 130.164 8.23633C130.127 8.34633 130.037 8.49676 129.892 8.67676C129.601 9.11676 129.148 9.60648 128.531 10.1465C127.95 10.6865 127.224 11.2364 126.353 11.7764C125.482 12.2864 124.557 12.7367 123.577 13.1367C122.306 13.6167 121.272 14.0463 120.474 14.4463C119.711 14.8463 119.058 15.2966 118.514 15.8066C117.897 16.3566 117.389 16.9858 116.989 17.7158C116.627 18.4058 116.354 19.2564 116.173 20.2764C116.028 21.2864 115.955 22.5266 115.955 23.9766C115.955 25.2766 116.372 26.4764 117.207 27.5664C118.042 28.6164 119.076 29.2566 120.31 29.4766C120.455 29.5066 120.601 29.5462 120.746 29.5762H121.236C121.78 29.5762 122.415 29.526 123.141 29.416C123.903 29.276 124.611 29.1068 125.264 28.9268C125.555 28.8568 125.827 28.7966 126.081 28.7666C126.371 28.6966 126.589 28.6562 126.734 28.6562C126.988 28.6562 127.188 28.726 127.333 28.876ZM54.276 14.1162C55.582 12.4462 57.106 11.6162 58.849 11.6162C59.829 11.6162 60.845 11.9565 61.897 12.6465C62.95 13.3365 63.984 14.2668 65 15.4268C66.016 16.5568 67.033 17.8567 68.049 19.3467C68.085 19.4167 68.103 19.4759 68.103 19.5059C68.14 19.5459 68.176 19.5968 68.212 19.6768C68.357 19.9268 68.412 20.1765 68.375 20.4365C68.375 20.6565 68.266 20.8366 68.049 20.9766C67.976 21.0166 67.922 21.0361 67.885 21.0361C67.885 21.0361 67.867 21.0559 67.831 21.0859C67.613 21.1559 67.414 21.1559 67.232 21.0859C67.051 21.0159 66.869 20.8662 66.688 20.6562L65.926 19.5664C64.764 17.8264 63.603 16.3661 62.442 15.2061C61.317 14.0061 60.137 13.416 58.903 13.416C57.85 13.416 56.961 14.0266 56.236 15.2666C55.51 16.4966 54.983 18.1164 54.657 20.1064C54.33 22.0664 54.167 24.2061 54.167 26.5361C54.167 29.1061 54.421 31.2461 54.929 32.9561C55.473 34.6661 56.145 35.9158 56.943 36.7158C57.778 37.5058 58.613 37.9062 59.447 37.9062C61.081 37.9062 62.315 37.4067 63.149 36.3867C63.984 35.3367 64.619 34.2059 65.055 33.0059L65.164 32.7363C65.236 32.6263 65.327 32.516 65.436 32.416C65.545 32.266 65.672 32.1963 65.817 32.1963C66.107 32.1963 66.289 32.3066 66.361 32.5166C66.47 32.7366 66.488 32.9568 66.416 33.1768C65.871 35.7468 64.946 37.6763 63.639 38.9463C62.333 40.1763 60.736 40.7959 58.849 40.7959C57.034 40.7959 55.473 40.1567 54.167 38.8867C52.86 37.6167 51.862 35.9665 51.173 33.9365C50.519 31.9065 50.193 29.7461 50.193 27.4561C50.193 25.1361 50.538 22.7364 51.227 20.2764C51.953 17.8064 52.969 15.7562 54.276 14.1162ZM123.685 40.1963C122.524 40.5563 121.417 40.7363 120.365 40.7363C118.695 40.7363 117.262 40.5259 116.064 40.0859C114.866 39.6159 113.886 38.9963 113.124 38.2363C112.362 37.4763 111.727 36.606 111.219 35.626C110.892 35.006 110.711 34.4663 110.675 33.9863C110.675 33.4863 110.729 33.0967 110.838 32.8467C110.983 32.5967 111.164 32.4166 111.382 32.3066C111.6 32.1566 111.854 32.1067 112.144 32.1367C112.435 32.1367 112.743 32.2666 113.07 32.5166C113.433 32.7766 113.759 33.1964 114.05 33.7764C114.485 34.6064 114.993 35.3862 115.574 36.1162C116.191 36.8062 116.899 37.3864 117.697 37.8564C118.496 38.2864 119.403 38.5059 120.419 38.5059C121.109 38.5059 121.78 38.4765 122.433 38.3965C123.123 38.2865 123.812 38.1458 124.502 37.9658C125.228 37.7858 125.972 37.5261 126.734 37.2061C127.097 37.0561 127.405 36.9863 127.66 36.9863C127.914 36.9463 128.113 37.0566 128.258 37.3066C128.404 37.6066 128.367 37.876 128.149 38.126C127.932 38.346 127.714 38.5268 127.496 38.6768C126.153 39.3668 124.883 39.8663 123.685 40.1963ZM108.388 31.8662C108.424 33.8962 108.443 37.0166 108.443 41.2266C108.443 42.0266 108.297 42.6865 108.007 43.1865C107.717 43.6965 107.263 43.9561 106.646 43.9561C106.065 43.9561 105.575 43.7858 105.176 43.4658C104.813 43.1358 104.632 42.6067 104.632 41.8867C104.559 39.8867 104.505 36.2267 104.468 30.8867V18.4766C104.468 17.3166 104.015 16.2466 103.108 15.2666C102.236 14.2866 100.839 13.7959 98.916 13.7959C97.428 13.7959 96.23 14.3064 95.323 15.3164C94.452 16.2964 94.016 17.4764 94.016 18.8564C94.016 20.1964 93.998 21.2163 93.962 21.9062V25.0059C93.926 25.5859 93.907 26.2064 93.907 26.8564V29.1963C93.907 29.5263 93.69 29.8663 93.254 30.2363C92.819 30.5963 92.31 30.7764 91.73 30.7764C91.294 30.7764 90.913 30.5963 90.587 30.2363C90.296 29.8663 90.151 29.4563 90.151 28.9863C90.151 27.4963 90.133 26.4058 90.097 25.7158V20.5459C90.097 19.3859 90.423 18.1467 91.077 16.8467C91.73 15.5367 92.71 14.4266 94.016 13.5166C95.359 12.6166 96.992 12.1562 98.916 12.1562C100.948 12.1562 102.672 12.5958 104.087 13.4658C105.539 14.3058 106.61 15.3364 107.299 16.5664C108.025 17.7664 108.388 18.9061 108.388 19.9961V31.8662ZM46.328 23.9766C47.634 26.0066 48.287 28.1859 48.287 30.5059C48.287 32.5359 47.816 34.3159 46.872 35.8359C45.928 37.3659 44.622 38.5665 42.952 39.4365C41.319 40.2665 39.432 40.6865 37.291 40.6865C36.529 40.6865 35.676 40.6158 34.732 40.4658C33.825 40.3258 32.954 40.1468 32.119 39.9268C31.321 39.7068 30.704 39.4658 30.268 39.2158C30.014 39.0658 29.814 38.9264 29.669 38.7764C29.524 38.5964 29.452 38.3063 29.452 37.9062L29.179 29.3662C29.143 28.6362 29.397 28.2764 29.942 28.2764C30.341 28.2764 30.613 28.5959 30.758 29.2559L31.847 33.8262C32.609 37.0962 34.823 38.8564 38.488 39.1064C40.739 39.0664 42.335 38.1961 43.279 36.4961C44.259 34.7861 44.749 32.8262 44.749 30.6162C44.749 28.4762 44.386 26.4258 43.66 24.4658C42.934 22.5058 41.301 20.6166 38.761 18.8066C35.966 16.8766 33.716 15.1166 32.01 13.5166C30.304 11.9266 29.452 10.1062 29.452 8.07617C29.452 5.97617 30.377 4.17652 32.228 2.68652C34.115 1.19652 36.383 0.456055 39.033 0.456055C40.194 0.456055 41.41 0.585938 42.68 0.835938C43.987 1.08594 44.985 1.45676 45.674 1.92676C45.892 2.06676 46.055 2.23602 46.164 2.41602C46.31 2.59602 46.382 2.83598 46.382 3.12598L46.654 8.18652C46.654 8.58652 46.491 8.78613 46.164 8.78613C45.874 8.81613 45.729 8.6559 45.729 8.2959V6.71582C45.729 5.11582 45.021 3.90641 43.606 3.06641C42.227 2.19641 40.63 1.7666 38.815 1.7666C37.146 1.7666 35.73 2.32629 34.569 3.44629C33.407 4.57629 32.827 6.06602 32.827 7.91602C32.827 9.47602 33.371 10.966 34.46 12.376C35.549 13.796 37.436 15.5159 40.122 17.5459C42.952 19.7659 45.021 21.9066 46.328 23.9766ZM58.74 23.8066C59.103 23.4066 59.574 23.2158 60.155 23.2158C60.663 23.2158 61.099 23.4066 61.462 23.8066C61.861 24.1766 62.06 24.626 62.06 25.166C62.06 25.676 61.861 26.1361 61.462 26.5361C61.099 26.8961 60.663 27.0762 60.155 27.0762C59.611 27.0762 59.139 26.8961 58.74 26.5361C58.377 26.1361 58.195 25.676 58.195 25.166C58.195 24.626 58.377 24.1766 58.74 23.8066ZM11.868 37.5264C12.267 37.1264 12.721 36.9268 13.229 36.9268C13.737 36.9268 14.172 37.1264 14.535 37.5264C14.934 37.8964 15.134 38.3467 15.134 38.8867C15.134 39.3967 14.934 39.8363 14.535 40.1963C14.172 40.5963 13.737 40.7959 13.229 40.7959C12.721 40.7959 12.267 40.5963 11.868 40.1963C11.469 39.8363 11.269 39.3967 11.269 38.8867C11.269 38.3467 11.469 37.8964 11.868 37.5264Z" fill="black"/>
</svg>
