<svg width="112" height="41" viewBox="0 0 112 41" fill="none" xmlns="http://www.w3.org/2000/svg">
<path fill-rule="evenodd" clip-rule="evenodd" d="M71.253 29.5361C70.508 30.4861 69.694 31.346 68.811 32.126C67.904 32.886 66.851 33.5261 65.653 34.0361C64.456 34.5361 63.131 34.7959 61.679 34.7959C59.103 34.7959 56.961 34.1066 55.256 32.7266C53.586 31.3066 52.352 29.7667 51.554 28.0967C50.755 26.3967 50.356 25.1959 50.356 24.5059C50.356 24.1459 50.429 23.7966 50.574 23.4766C50.719 23.1066 50.937 22.8167 51.227 22.5967C51.554 22.3467 51.971 22.2158 52.479 22.2158C53.096 22.2158 53.586 22.3966 53.949 22.7666C54.312 23.1266 54.566 23.5466 54.711 24.0166V24.2363C54.748 24.2663 54.766 24.3265 54.766 24.3965C54.838 24.6565 54.875 24.8461 54.875 24.9961C54.911 25.1361 54.965 25.3367 55.038 25.5967C55.328 26.7967 55.709 27.896 56.181 28.916C56.689 29.936 57.397 30.7866 58.304 31.4766C59.212 32.1266 60.337 32.4561 61.679 32.4561C62.841 32.4561 63.875 32.2161 64.782 31.7461C65.726 31.2361 66.506 30.6363 67.123 29.9463C67.702 29.3363 68.153 28.7262 68.475 28.1162C68.507 28.0362 68.546 27.9667 68.593 27.8867C68.665 27.7267 68.742 27.5958 68.823 27.4658C69.439 26.2958 69.925 24.8161 70.281 23.0361C70.68 21.0061 70.952 18.9362 71.097 16.8262C71.134 16.3962 71.152 15.9967 71.152 15.6367C71.188 15.2367 71.206 14.8659 71.206 14.5459C71.206 13.3859 71.533 12.1467 72.186 10.8467C72.839 9.53668 73.819 8.4266 75.126 7.5166C76.469 6.6166 78.102 6.15625 80.025 6.15625C82.058 6.15625 83.782 6.59582 85.197 7.46582C86.649 8.30582 87.719 9.33641 88.409 10.5664C89.135 11.7664 89.498 12.9061 89.498 13.9961C89.498 14.3261 89.48 14.6661 89.443 15.0361C89.443 15.3961 89.425 15.756 89.389 16.126C89.316 17.896 89.334 19.4067 89.443 20.6367C89.548 21.7867 89.886 23.0259 90.458 24.3359C90.537 24.4759 90.616 24.6164 90.695 24.7764C91.458 26.2664 92.383 27.5859 93.472 28.7559C94.597 29.9159 95.849 30.8364 97.228 31.5264C98.607 32.1864 100.023 32.5059 101.474 32.5059C102.164 32.5059 102.835 32.4765 103.489 32.3965C104.178 32.3265 104.886 32.1966 105.612 32.0166C106.338 31.8366 107.082 31.6066 107.844 31.3066C108.207 31.1666 108.515 31.0967 108.769 31.0967C109.023 31.0567 109.223 31.1866 109.368 31.4766C109.513 31.7666 109.477 32.0361 109.259 32.2861C109.041 32.5061 108.805 32.6764 108.551 32.7764C107.209 33.4364 105.938 33.9261 104.741 34.2461C103.579 34.5761 102.472 34.7363 101.42 34.7363C98.734 34.7363 96.448 34.2662 94.561 33.3262C92.71 32.3862 91.294 31.326 90.314 30.166C89.334 29.006 88.536 27.8663 87.919 26.7363C87.533 26.0263 87.29 25.4559 87.189 25.0059C86.478 23.2059 86.032 21.4666 85.85 19.7666C85.669 17.6966 85.578 15.2666 85.578 12.4766C85.578 11.3166 85.125 10.2466 84.217 9.2666C83.346 8.2866 81.949 7.7959 80.025 7.7959C78.537 7.7959 77.34 8.30641 76.432 9.31641C75.561 10.2964 75.126 11.4764 75.126 12.8564C75.126 14.7464 75.053 16.5361 74.908 18.2461C74.763 19.9161 74.527 21.4768 74.2 22.9268C73.91 24.1968 73.529 25.3966 73.057 26.5166C72.585 27.6066 72.005 28.5861 71.315 29.4561C71.295 29.4861 71.275 29.5061 71.253 29.5361ZM49.341 16.6865C49.283 16.6165 49.223 16.5363 49.158 16.4463L48.342 15.3066C46.745 13.0566 45.257 11.1863 43.878 9.69629C42.535 8.17629 41.247 7.41602 40.013 7.41602C38.96 7.41602 38.071 8.0266 37.345 9.2666C36.619 10.4966 36.093 12.1164 35.766 14.1064C35.44 16.0664 35.277 18.2061 35.277 20.5361C35.277 23.1061 35.531 25.2461 36.039 26.9561C36.583 28.6661 37.254 29.9158 38.053 30.7158C38.888 31.5058 39.722 31.9062 40.557 31.9062C42.19 31.9062 43.424 31.4067 44.259 30.3867C45.094 29.3367 45.729 28.2059 46.164 27.0059L46.273 26.7363C46.346 26.6263 46.437 26.516 46.545 26.416C46.654 26.266 46.781 26.1963 46.926 26.1963C47.217 26.1963 47.398 26.3066 47.471 26.5166C47.58 26.7366 47.598 26.9568 47.525 27.1768C46.981 29.7468 46.055 31.6763 44.749 32.9463C43.442 34.1763 41.846 34.7959 39.958 34.7959C38.144 34.7959 36.583 34.1567 35.277 32.8867C33.97 31.6167 32.972 29.9665 32.282 27.9365C31.629 25.9065 31.302 23.7461 31.302 21.4561C31.302 19.1361 31.647 16.7364 32.337 14.2764C33.063 11.8064 34.079 9.75621 35.385 8.11621C36.692 6.44621 38.216 5.61621 39.958 5.61621C40.938 5.61621 42.045 6.10594 43.279 7.08594C44.549 8.02594 45.801 9.22676 47.035 10.6768C48.269 12.0968 49.431 13.5865 50.519 15.1465L50.525 15.1562C50.597 15.2263 50.668 15.316 50.737 15.416C50.955 15.746 51.191 16.0863 51.445 16.4463C51.699 16.7763 51.989 17.1163 52.316 17.4863C53.296 18.5763 54.421 19.4665 55.691 20.1465C56.998 20.8365 58.413 21.1865 59.937 21.1865C61.607 21.1865 62.696 20.6063 63.204 19.4463C63.748 18.2463 64.02 16.556 64.02 14.376C64.02 12.816 63.748 11.2966 63.204 9.80664C62.696 8.28664 61.716 7.5166 60.264 7.5166C59.284 7.5166 58.341 7.97672 57.433 8.88672C56.526 9.78672 55.8 11.1666 55.256 13.0166C55.219 13.0966 55.183 13.1859 55.147 13.2959V13.5059C55.002 14.1959 54.802 14.7465 54.548 15.1465C54.33 15.5065 53.913 15.6865 53.296 15.6865C52.788 15.6865 52.407 15.5566 52.153 15.3066C51.899 15.0566 51.735 14.7665 51.663 14.4365C51.626 14.1065 51.626 13.7665 51.663 13.3965C51.772 12.6765 52.207 11.7264 52.969 10.5664C53.731 9.40641 54.748 8.3966 56.018 7.5166C57.288 6.6466 58.74 6.21582 60.373 6.21582C61.643 6.21582 62.823 6.52672 63.911 7.13672C65.037 7.75672 65.944 8.69582 66.633 9.96582C67.323 11.2058 67.668 12.6965 67.668 14.4365C67.668 15.8865 67.396 17.2466 66.851 18.5166C66.343 19.7566 65.617 20.7862 64.674 21.6162C63.73 22.4562 62.659 22.9863 61.462 23.1963C61.28 23.2363 61.081 23.2766 60.863 23.3066H60.264C58.268 23.3066 56.344 22.6961 54.493 21.4561C52.643 20.2261 51.136 18.9161 49.975 17.5361C49.866 17.3961 49.775 17.2858 49.703 17.2158C49.63 17.1058 49.539 16.9762 49.431 16.8262C49.399 16.7762 49.369 16.7365 49.341 16.6865ZM13.991 28.0459C15.189 26.6259 17.13 25.2463 19.816 23.9062C22.102 22.7463 23.699 21.7166 24.606 20.8066C25.514 19.8566 25.967 18.8263 25.967 17.6963C25.967 17.0463 25.695 16.4866 25.151 16.0166C24.643 15.5466 24.026 15.3066 23.3 15.3066C22.393 15.3066 21.413 15.5261 20.36 15.9561C19.344 16.3961 17.947 17.0666 16.168 17.9766C14.063 19.0666 12.285 19.8966 10.833 20.4766C9.418 21.0266 8.003 21.2959 6.587 21.2959C5.535 21.2959 4.5 21.0068 3.484 20.4268C2.468 19.8468 1.633 19.0464 0.98 18.0264C0.327 16.9764 0 15.7765 0 14.4365C0 12.9465 0.327 11.6968 0.98 10.6768C1.633 9.66676 2.432 8.84656 3.375 8.22656C4.101 7.75656 4.754 7.32676 5.335 6.92676C5.916 6.52676 6.442 6.15594 6.914 5.83594C7.712 5.25594 8.275 4.87652 8.601 4.68652C8.928 4.50652 9.255 4.41602 9.581 4.41602C10.162 4.41602 10.652 4.6166 11.051 5.0166C11.487 5.3766 11.704 5.86633 11.704 6.48633C11.704 6.99633 11.414 7.4259 10.833 7.7959C10.289 8.1559 9.345 8.6466 8.003 9.2666C7.531 9.4466 7.041 9.66602 6.533 9.91602C6.061 10.136 5.589 10.366 5.117 10.626C4.21 11.096 3.43 11.7166 2.776 12.4766C2.159 13.1966 1.851 14.0366 1.851 14.9766C1.851 15.6666 2.069 16.3963 2.504 17.1562C2.976 17.9162 3.738 18.2959 4.791 18.2959C5.589 18.2959 6.46 18.0963 7.404 17.6963C8.347 17.3063 9.599 16.6659 11.16 15.7959C13.338 14.6359 15.17 13.7665 16.658 13.1865C18.146 12.6065 19.671 12.3164 21.231 12.3164C22.683 12.3164 23.917 12.7059 24.933 13.5059C25.949 14.2759 26.693 15.2159 27.165 16.3359C27.673 17.4259 27.927 18.4259 27.927 19.3359C27.927 20.6059 27.655 21.6759 27.111 22.5459C26.566 23.4159 25.84 24.1664 24.933 24.7764C24.062 25.3564 22.774 26.0861 21.068 26.9561C20.342 27.3561 19.58 27.7761 18.782 28.2061C18.019 28.6061 17.221 29.0564 16.386 29.5664C15.297 30.2564 14.535 30.8159 14.1 31.2559C13.701 31.6959 13.501 32.2866 13.501 33.0566V34.5762C13.501 34.7962 13.428 34.9564 13.283 35.0664C13.174 35.1764 13.029 35.2266 12.848 35.2266C12.666 35.2266 12.503 35.1566 12.358 35.0166C12.249 34.9066 12.194 34.7562 12.194 34.5762V32.4561C12.194 30.9261 12.793 29.4559 13.991 28.0459ZM108.388 22.9863C108.57 23.1263 108.66 23.3262 108.66 23.5762C108.66 23.8662 108.551 24.0668 108.334 24.1768C108.152 24.2868 107.898 24.3959 107.572 24.5059C106.41 24.8659 105.231 25.1765 104.033 25.4365C102.835 25.6865 101.819 25.8164 100.984 25.8164C99.533 25.8164 98.208 25.4859 97.01 24.8359C95.849 24.1459 94.924 23.1959 94.234 22.0059C93.544 20.8059 93.2 19.446 93.2 17.916C93.2 16.326 93.436 14.8664 93.907 13.5664C94.379 12.2164 95.032 11.0464 95.867 10.0264C96.738 8.97637 97.754 8.10602 98.916 7.41602C99.605 7.01602 100.313 6.66598 101.039 6.37598C101.765 6.08598 102.509 5.86656 103.271 5.72656C105.412 5.25656 106.955 4.65676 107.898 3.92676C108.842 3.20676 109.568 2.40613 110.076 1.53613C110.185 1.31613 110.293 1.1559 110.402 1.0459C110.548 0.895898 110.675 0.826172 110.783 0.826172C110.929 0.826172 111.037 0.866523 111.11 0.936523C111.219 0.966523 111.292 1.04625 111.328 1.15625C111.4 1.22625 111.437 1.33656 111.437 1.47656C111.437 1.58656 111.4 1.71645 111.328 1.85645C111.292 2.00645 111.219 2.16668 111.11 2.34668C110.82 2.81668 110.366 3.34676 109.749 3.92676C109.168 4.50676 108.443 5.08602 107.572 5.66602C106.7 6.21602 105.757 6.68594 104.741 7.08594C103.47 7.59594 102.436 8.04629 101.638 8.44629C100.839 8.84629 100.168 9.31621 99.623 9.86621C99.006 10.4062 98.516 11.0466 98.154 11.7666C97.791 12.4566 97.518 13.326 97.337 14.376C97.192 15.396 97.119 16.6259 97.119 18.0859C97.119 19.3859 97.518 20.5662 98.317 21.6162C99.152 22.6762 100.186 23.3064 101.42 23.5264C101.565 23.5664 101.71 23.5967 101.855 23.6367H102.345C102.853 23.6367 103.47 23.5766 104.196 23.4766C104.958 23.3266 105.648 23.1861 106.265 23.0361C106.592 22.9661 106.882 22.906 107.136 22.876C107.426 22.796 107.644 22.7666 107.789 22.7666C108.043 22.7666 108.243 22.8363 108.388 22.9863ZM39.849 17.8066C40.212 17.4066 40.684 17.2158 41.265 17.2158C41.773 17.2158 42.208 17.4066 42.571 17.8066C42.971 18.1766 43.17 18.626 43.17 19.166C43.17 19.676 42.971 20.1361 42.571 20.5361C42.208 20.8961 41.773 21.0762 41.265 21.0762C40.72 21.0762 40.249 20.8961 39.849 20.5361C39.486 20.1361 39.305 19.676 39.305 19.166C39.305 18.626 39.486 18.1766 39.849 17.8066ZM11.596 37.626C11.995 37.266 12.448 37.0859 12.957 37.0859C13.465 37.0859 13.9 37.266 14.263 37.626C14.662 38.026 14.862 38.4959 14.862 39.0459C14.862 39.5459 14.662 39.9867 14.263 40.3467C13.9 40.7467 13.465 40.9463 12.957 40.9463C12.448 40.9463 11.995 40.7467 11.596 40.3467C11.196 39.9867 10.997 39.5459 10.997 39.0459C10.997 38.4959 11.196 38.026 11.596 37.626Z" fill="black"/>
</svg>
