<svg width="112" height="41" viewBox="0 0 112 41" fill="none" xmlns="http://www.w3.org/2000/svg">
<path fill-rule="evenodd" clip-rule="evenodd" d="M71.199 29.5361C70.454 30.4861 69.639 31.346 68.757 32.126C67.849 32.886 66.797 33.5261 65.599 34.0361C64.401 34.5361 63.077 34.7959 61.625 34.7959C59.048 34.7959 56.907 34.1066 55.201 32.7266C53.532 31.3066 52.298 29.7667 51.499 28.0967C50.701 26.3967 50.302 25.1959 50.302 24.5059C50.302 24.1459 50.374 23.7966 50.519 23.4766C50.665 23.1066 50.882 22.8167 51.173 22.5967C51.499 22.3467 51.917 22.2158 52.425 22.2158C53.042 22.2158 53.532 22.3966 53.895 22.7666C54.258 23.1266 54.512 23.5466 54.657 24.0166V24.2363C54.693 24.2663 54.711 24.3265 54.711 24.3965C54.784 24.6565 54.82 24.8461 54.82 24.9961C54.856 25.1361 54.911 25.3367 54.983 25.5967C55.274 26.7967 55.655 27.896 56.127 28.916C56.635 29.936 57.342 30.7866 58.25 31.4766C59.157 32.1266 60.282 32.4561 61.625 32.4561C62.786 32.4561 63.821 32.2161 64.728 31.7461C65.672 31.2361 66.452 30.6363 67.069 29.9463C67.648 29.3363 68.098 28.7262 68.421 28.1162C68.452 28.0362 68.492 27.9667 68.539 27.8867C68.611 27.7267 68.688 27.5958 68.768 27.4658C69.384 26.2958 69.87 24.8161 70.226 23.0361C70.626 21.0061 70.898 18.9362 71.043 16.8262C71.079 16.3962 71.097 15.9967 71.097 15.6367C71.134 15.2367 71.152 14.8563 71.152 14.4863C71.152 13.3663 71.478 12.1467 72.132 10.8467C72.785 9.53668 73.765 8.4266 75.071 7.5166C76.414 6.6166 78.047 6.15625 79.971 6.15625C82.003 6.15625 83.727 6.59582 85.143 7.46582C86.594 8.30582 87.665 9.33641 88.355 10.5664C89.08 11.7664 89.443 12.9061 89.443 13.9961C89.443 14.3261 89.425 14.6661 89.389 15.0361C89.389 15.3961 89.371 15.7464 89.334 16.0664C89.262 17.8864 89.28 19.4067 89.389 20.6367C89.493 21.7867 89.832 23.0259 90.403 24.3359C90.483 24.4759 90.562 24.6164 90.641 24.7764C91.403 26.2664 92.329 27.5859 93.417 28.7559C94.542 29.9159 95.795 30.8364 97.174 31.5264C98.553 32.1864 99.968 32.5059 101.42 32.5059C102.109 32.5059 102.781 32.4765 103.434 32.3965C104.124 32.3265 104.831 32.1966 105.557 32.0166C106.283 31.8366 107.027 31.6066 107.789 31.3066C108.152 31.1666 108.461 31.0967 108.715 31.0967C108.969 31.0567 109.168 31.1866 109.314 31.4766C109.459 31.7666 109.422 32.0361 109.205 32.2861C108.987 32.5061 108.751 32.6764 108.497 32.7764C107.154 33.4364 105.884 33.9261 104.686 34.2461C103.525 34.5761 102.418 34.7363 101.365 34.7363C98.68 34.7363 96.393 34.2662 94.506 33.3262C92.655 32.3862 91.24 31.326 90.26 30.166C89.28 29.006 88.482 27.8663 87.865 26.7363C87.478 26.0263 87.234 25.4461 87.133 24.9961C86.423 23.1961 85.977 21.4358 85.796 19.7158C85.614 17.6458 85.524 15.2366 85.524 12.4766C85.524 11.3166 85.07 10.2466 84.163 9.2666C83.292 8.2866 81.894 7.7959 79.971 7.7959C78.483 7.7959 77.285 8.30641 76.378 9.31641C75.507 10.2964 75.071 11.4764 75.071 12.8564C75.071 14.7464 74.999 16.5361 74.854 18.2461C74.709 19.9161 74.473 21.4768 74.146 22.9268C73.856 24.1968 73.475 25.3966 73.003 26.5166C72.531 27.6066 71.95 28.5861 71.261 29.4561C71.241 29.4861 71.221 29.5061 71.199 29.5361ZM49.286 16.6865C49.229 16.6165 49.168 16.5363 49.104 16.4463L48.287 15.3066C46.691 13.0566 45.203 11.1863 43.823 9.69629C42.481 8.17629 41.192 7.41602 39.958 7.41602C38.906 7.41602 38.017 8.0266 37.291 9.2666C36.565 10.4966 36.039 12.1164 35.712 14.1064C35.385 16.0664 35.222 18.2061 35.222 20.5361C35.222 23.1061 35.476 25.2461 35.984 26.9561C36.529 28.6661 37.2 29.9158 37.998 30.7158C38.833 31.5058 39.668 31.9062 40.503 31.9062C42.136 31.9062 43.37 31.4067 44.205 30.3867C45.039 29.3367 45.674 28.2059 46.11 27.0059L46.219 26.7363C46.291 26.6263 46.382 26.516 46.491 26.416C46.6 26.266 46.727 26.1963 46.872 26.1963C47.162 26.1963 47.344 26.3066 47.416 26.5166C47.525 26.7366 47.543 26.9568 47.471 27.1768C46.926 29.7468 46.001 31.6763 44.694 32.9463C43.388 34.1763 41.791 34.7959 39.904 34.7959C38.089 34.7959 36.529 34.1567 35.222 32.8867C33.916 31.6167 32.917 29.9665 32.228 27.9365C31.575 25.9065 31.248 23.7461 31.248 21.4561C31.248 19.1361 31.593 16.7364 32.282 14.2764C33.008 11.8064 34.024 9.75621 35.331 8.11621C36.638 6.44621 38.162 5.61621 39.904 5.61621C40.884 5.61621 41.991 6.10594 43.225 7.08594C44.495 8.02594 45.747 9.22676 46.981 10.6768C48.215 12.0968 49.376 13.5865 50.465 15.1465L50.471 15.1562C50.543 15.2263 50.613 15.316 50.683 15.416C50.901 15.746 51.136 16.0863 51.39 16.4463C51.645 16.7763 51.935 17.1163 52.262 17.4863C53.241 18.5763 54.366 19.4665 55.637 20.1465C56.943 20.8365 58.359 21.1865 59.883 21.1865C61.552 21.1865 62.641 20.6063 63.149 19.4463C63.694 18.2463 63.966 16.556 63.966 14.376C63.966 12.816 63.694 11.2966 63.149 9.80664C62.641 8.28664 61.661 7.5166 60.21 7.5166C59.23 7.5166 58.286 7.97672 57.379 8.88672C56.471 9.78672 55.764 11.1666 55.256 13.0166C55.219 13.0966 55.183 13.1859 55.147 13.2959V13.5059C54.965 14.1959 54.748 14.7465 54.493 15.1465C54.276 15.5065 53.858 15.6865 53.241 15.6865C52.733 15.6865 52.352 15.5566 52.098 15.3066C51.844 15.0566 51.681 14.7665 51.608 14.4365C51.572 14.1065 51.572 13.7665 51.608 13.3965C51.717 12.6765 52.153 11.7264 52.915 10.5664C53.677 9.40641 54.693 8.3966 55.963 7.5166C57.234 6.6466 58.685 6.21582 60.318 6.21582C61.589 6.21582 62.768 6.52672 63.857 7.13672C64.982 7.75672 65.889 8.69582 66.579 9.96582C67.269 11.2058 67.613 12.6965 67.613 14.4365C67.613 15.8865 67.341 17.2466 66.797 18.5166C66.289 19.7566 65.563 20.7862 64.619 21.6162C63.676 22.4562 62.605 22.9863 61.407 23.1963C61.226 23.2363 61.026 23.2766 60.808 23.3066H60.21C58.214 23.3066 56.29 22.6961 54.439 21.4561C52.588 20.2261 51.082 18.9161 49.921 17.5361C49.812 17.3961 49.721 17.2858 49.648 17.2158C49.576 17.1058 49.485 16.9762 49.376 16.8262C49.345 16.7762 49.315 16.7365 49.286 16.6865ZM13.991 28.0459C15.189 26.6259 17.13 25.2463 19.816 23.9062C22.102 22.7463 23.699 21.7166 24.606 20.8066C25.514 19.8566 25.967 18.8263 25.967 17.6963C25.967 17.0463 25.695 16.4866 25.151 16.0166C24.643 15.5466 24.026 15.3066 23.3 15.3066C22.393 15.3066 21.413 15.5261 20.36 15.9561C19.344 16.3961 17.947 17.0666 16.168 17.9766C14.063 19.0666 12.285 19.8966 10.833 20.4766C9.418 21.0266 8.003 21.2959 6.587 21.2959C5.535 21.2959 4.5 21.0068 3.484 20.4268C2.468 19.8468 1.633 19.0464 0.98 18.0264C0.327 16.9764 0 15.7765 0 14.4365C0 12.9465 0.327 11.6968 0.98 10.6768C1.633 9.66676 2.432 8.84656 3.375 8.22656C4.101 7.75656 4.754 7.32676 5.335 6.92676C5.916 6.52676 6.442 6.15594 6.914 5.83594C7.712 5.25594 8.275 4.87652 8.601 4.68652C8.928 4.50652 9.255 4.41602 9.581 4.41602C10.162 4.41602 10.652 4.6166 11.051 5.0166C11.487 5.3766 11.704 5.86633 11.704 6.48633C11.704 6.99633 11.414 7.4259 10.833 7.7959C10.289 8.1559 9.345 8.6466 8.003 9.2666C7.531 9.4466 7.041 9.66602 6.533 9.91602C6.061 10.136 5.589 10.366 5.117 10.626C4.21 11.096 3.43 11.7166 2.776 12.4766C2.159 13.1966 1.851 14.0366 1.851 14.9766C1.851 15.6666 2.069 16.3963 2.504 17.1562C2.976 17.9162 3.738 18.2959 4.791 18.2959C5.589 18.2959 6.46 18.0963 7.404 17.6963C8.347 17.3063 9.599 16.6659 11.16 15.7959C13.338 14.6359 15.17 13.7665 16.658 13.1865C18.146 12.6065 19.671 12.3164 21.231 12.3164C22.683 12.3164 23.917 12.7059 24.933 13.5059C25.949 14.2759 26.693 15.2159 27.165 16.3359C27.673 17.4259 27.927 18.4259 27.927 19.3359C27.927 20.6059 27.655 21.6759 27.111 22.5459C26.566 23.4159 25.84 24.1664 24.933 24.7764C24.062 25.3564 22.774 26.0861 21.068 26.9561C20.342 27.3561 19.58 27.7761 18.782 28.2061C18.019 28.6061 17.221 29.0564 16.386 29.5664C15.297 30.2564 14.535 30.8159 14.1 31.2559C13.701 31.6959 13.501 32.2866 13.501 33.0566V34.5762C13.501 34.7962 13.428 34.9564 13.283 35.0664C13.174 35.1764 13.029 35.2266 12.848 35.2266C12.666 35.2266 12.503 35.1566 12.358 35.0166C12.249 34.9066 12.194 34.7562 12.194 34.5762V32.4561C12.194 30.9261 12.793 29.4559 13.991 28.0459ZM108.334 23.0361C108.515 23.1861 108.606 23.3767 108.606 23.6367C108.606 23.9267 108.497 24.1263 108.279 24.2363C108.098 24.3463 107.844 24.4566 107.517 24.5566C106.356 24.9266 105.176 25.2363 103.979 25.4863C102.781 25.7363 101.765 25.8662 100.93 25.8662C99.478 25.8662 98.154 25.5367 96.956 24.8867C95.795 24.1967 94.851 23.2566 94.125 22.0566C93.436 20.8566 93.091 19.4966 93.091 17.9766C93.091 16.3366 93.327 14.8664 93.798 13.5664C94.307 12.2564 94.996 11.0962 95.867 10.0762C96.738 9.06617 97.754 8.2066 98.916 7.5166C99.605 7.1566 100.313 6.83613 101.039 6.53613C101.801 6.24613 102.563 6.03672 103.325 5.88672C105.43 5.37672 106.955 4.76613 107.898 4.03613C108.878 3.30613 109.64 2.49594 110.185 1.58594C110.293 1.36594 110.402 1.20668 110.511 1.09668C110.656 0.95668 110.783 0.875977 110.892 0.875977C111.037 0.875977 111.146 0.916328 111.219 0.986328C111.328 1.02633 111.4 1.09605 111.437 1.20605C111.509 1.27605 111.546 1.38613 111.546 1.53613C111.546 1.64613 111.509 1.76602 111.437 1.91602C111.4 2.05602 111.328 2.22625 111.219 2.40625C110.929 2.87625 110.475 3.40633 109.858 3.98633C109.277 4.56633 108.551 5.14656 107.68 5.72656C106.809 6.26656 105.884 6.73672 104.904 7.13672C103.634 7.68672 102.581 8.15664 101.747 8.55664C100.948 8.95664 100.259 9.42582 99.678 9.96582C99.025 10.5158 98.498 11.1362 98.099 11.8262C97.736 12.5162 97.464 13.3865 97.283 14.4365C97.101 15.4465 97.01 16.6867 97.01 18.1367C97.01 19.4467 97.428 20.6268 98.262 21.6768C99.097 22.7268 100.132 23.3662 101.365 23.5762C101.511 23.6162 101.656 23.6565 101.801 23.6865H102.291C102.799 23.6865 103.416 23.6364 104.142 23.5264C104.904 23.3764 105.594 23.2359 106.211 23.0859C106.537 23.0159 106.828 22.9668 107.082 22.9268C107.372 22.8568 107.59 22.8164 107.735 22.8164C107.989 22.8164 108.188 22.8861 108.334 23.0361ZM39.795 17.8066C40.158 17.4066 40.63 17.2158 41.21 17.2158C41.718 17.2158 42.154 17.4066 42.517 17.8066C42.916 18.1766 43.116 18.626 43.116 19.166C43.116 19.676 42.916 20.1361 42.517 20.5361C42.154 20.8961 41.718 21.0762 41.21 21.0762C40.666 21.0762 40.194 20.8961 39.795 20.5361C39.432 20.1361 39.251 19.676 39.251 19.166C39.251 18.626 39.432 18.1766 39.795 17.8066ZM11.596 37.626C11.995 37.266 12.448 37.0859 12.957 37.0859C13.465 37.0859 13.9 37.266 14.263 37.626C14.662 38.026 14.862 38.4959 14.862 39.0459C14.862 39.5459 14.662 39.9867 14.263 40.3467C13.9 40.7467 13.465 40.9463 12.957 40.9463C12.448 40.9463 11.995 40.7467 11.596 40.3467C11.196 39.9867 10.997 39.5459 10.997 39.0459C10.997 38.4959 11.196 38.026 11.596 37.626Z" fill="black"/>
</svg>
