<svg width="112" height="41" viewBox="0 0 112 41" fill="none" xmlns="http://www.w3.org/2000/svg">
<path fill-rule="evenodd" clip-rule="evenodd" d="M71.145 29.5361C70.399 30.4861 69.585 31.346 68.702 32.126C67.795 32.886 66.742 33.5261 65.545 34.0361C64.347 34.5361 63.022 34.7959 61.571 34.7959C58.994 34.7959 56.853 34.1066 55.147 32.7266C53.477 31.3066 52.243 29.7667 51.445 28.0967C50.646 26.3967 50.247 25.1959 50.247 24.5059C50.247 24.1459 50.32 23.7966 50.465 23.4766C50.61 23.1066 50.828 22.8167 51.118 22.5967C51.445 22.3467 51.862 22.2158 52.37 22.2158C52.987 22.2158 53.477 22.3966 53.84 22.7666C54.203 23.1266 54.457 23.5466 54.602 24.0166V24.2363C54.639 24.2663 54.657 24.3265 54.657 24.3965C54.729 24.6565 54.766 24.8461 54.766 24.9961C54.802 25.1361 54.856 25.3367 54.929 25.5967C55.219 26.7967 55.6 27.896 56.072 28.916C56.58 29.936 57.288 30.7866 58.195 31.4766C59.103 32.1266 60.228 32.4561 61.571 32.4561C62.732 32.4561 63.766 32.2161 64.674 31.7461C65.617 31.2361 66.397 30.6363 67.014 29.9463C67.593 29.3363 68.044 28.7262 68.366 28.1162C68.398 28.0462 68.437 27.9667 68.484 27.8867C68.557 27.7267 68.633 27.5958 68.714 27.4658C69.33 26.2958 69.816 24.8161 70.172 23.0361C70.571 21.0061 70.843 18.9164 70.989 16.7764C71.025 16.3764 71.043 15.9967 71.043 15.6367C71.079 15.2367 71.097 14.8563 71.097 14.4863C71.097 13.3263 71.424 12.0961 72.077 10.7861C72.731 9.47613 73.71 8.37582 75.017 7.46582C76.36 6.55582 77.993 6.10645 79.917 6.10645C81.949 6.10645 83.673 6.53602 85.088 7.41602C86.54 8.28602 87.611 9.33641 88.3 10.5664C89.026 11.7664 89.389 12.9061 89.389 13.9961C89.389 14.3261 89.371 14.6661 89.334 15.0361C89.334 15.3561 89.316 15.7064 89.28 16.0664C89.207 17.8464 89.226 19.3559 89.334 20.5859C89.439 21.7659 89.777 23.0159 90.349 24.3359C90.428 24.4759 90.507 24.6164 90.587 24.7764C91.349 26.2664 92.274 27.5859 93.363 28.7559C94.488 29.9159 95.74 30.8364 97.119 31.5264C98.498 32.1864 99.914 32.5059 101.365 32.5059C102.055 32.5059 102.726 32.4765 103.38 32.3965C104.069 32.3265 104.777 32.1966 105.503 32.0166C106.229 31.8366 106.973 31.6066 107.735 31.3066C108.098 31.1666 108.406 31.0967 108.66 31.0967C108.914 31.0567 109.114 31.1866 109.259 31.4766C109.404 31.7666 109.368 32.0361 109.15 32.2861C108.932 32.5061 108.697 32.6764 108.443 32.7764C107.1 33.4364 105.829 33.9261 104.632 34.2461C103.47 34.5761 102.364 34.7363 101.311 34.7363C98.625 34.7363 96.339 34.2662 94.452 33.3262C92.601 32.3862 91.185 31.326 90.206 30.166C89.226 29.006 88.427 27.8663 87.81 26.7363C87.423 26.0263 87.179 25.4461 87.079 24.9961C86.369 23.1961 85.923 21.4358 85.742 19.7158C85.56 17.6458 85.469 15.2366 85.469 12.4766C85.469 11.3166 85.016 10.2466 84.108 9.2666C83.237 8.2466 81.858 7.73633 79.971 7.73633C78.447 7.73633 77.231 8.2466 76.324 9.2666C75.453 10.2466 75.017 11.4266 75.017 12.8066C75.017 14.6866 74.944 16.4865 74.799 18.1865C74.654 19.8965 74.418 21.4768 74.092 22.9268C73.801 24.1968 73.42 25.3966 72.948 26.5166C72.477 27.6066 71.896 28.5861 71.206 29.4561L71.145 29.5361ZM49.232 16.6865C49.175 16.6165 49.114 16.5363 49.05 16.4463L48.233 15.3066C46.636 13.0566 45.148 11.1863 43.769 9.69629C42.426 8.17629 41.138 7.41602 39.904 7.41602C38.851 7.41602 37.962 8.0266 37.236 9.2666C36.51 10.4966 35.984 12.1164 35.658 14.1064C35.331 16.0664 35.168 18.2061 35.168 20.5361C35.168 23.1061 35.422 25.2461 35.93 26.9561C36.474 28.6661 37.146 29.9158 37.944 30.7158C38.779 31.4758 39.614 31.8564 40.448 31.8564C42.045 31.8564 43.261 31.3462 44.096 30.3262C44.967 29.3162 45.62 28.2059 46.055 27.0059L46.164 26.7363C46.237 26.6263 46.328 26.516 46.437 26.416C46.545 26.266 46.672 26.1963 46.818 26.1963C47.108 26.1963 47.289 26.3066 47.362 26.5166C47.471 26.7366 47.489 26.9568 47.416 27.1768C46.872 29.7468 45.947 31.6763 44.64 32.9463C43.334 34.1763 41.737 34.7959 39.849 34.7959C38.035 34.7959 36.474 34.1567 35.168 32.8867C33.861 31.6167 32.863 29.9665 32.173 27.9365C31.52 25.9065 31.194 23.7461 31.194 21.4561C31.194 19.1361 31.538 16.7364 32.228 14.2764C32.954 11.8064 33.97 9.75621 35.277 8.11621C36.583 6.44621 38.107 5.61621 39.849 5.61621C40.829 5.61621 41.936 6.10594 43.17 7.08594C44.44 8.02594 45.693 9.22676 46.926 10.6768C48.16 12.0968 49.322 13.5865 50.411 15.1465L50.416 15.1562C50.488 15.2263 50.559 15.316 50.628 15.416C50.846 15.746 51.082 16.0863 51.336 16.4463C51.59 16.7763 51.88 17.1163 52.207 17.4863C53.187 18.5763 54.312 19.4665 55.582 20.1465C56.889 20.8365 58.304 21.1865 59.829 21.1865C61.498 21.1865 62.605 20.6063 63.149 19.4463C63.694 18.2463 63.966 16.556 63.966 14.376C63.966 12.816 63.694 11.2966 63.149 9.80664C62.605 8.28664 61.607 7.5166 60.155 7.5166C59.175 7.5166 58.232 7.97672 57.324 8.88672C56.453 9.78672 55.746 11.1666 55.201 13.0166C55.165 13.0966 55.129 13.1859 55.092 13.2959V13.5059C54.947 14.1959 54.748 14.7465 54.493 15.1465C54.276 15.5065 53.858 15.6865 53.241 15.6865C52.733 15.6865 52.334 15.5566 52.044 15.3066C51.79 15.0566 51.626 14.7665 51.554 14.4365C51.518 14.1065 51.518 13.7665 51.554 13.3965C51.663 12.6765 52.098 11.7264 52.86 10.5664C53.622 9.40641 54.639 8.3966 55.909 7.5166C57.179 6.6166 58.631 6.15625 60.264 6.15625C61.534 6.15625 62.732 6.48672 63.857 7.13672C64.982 7.75672 65.889 8.69582 66.579 9.96582C67.269 11.2058 67.613 12.6965 67.613 14.4365C67.613 15.8865 67.341 17.2466 66.797 18.5166C66.289 19.7566 65.545 20.7862 64.565 21.6162C63.621 22.4562 62.55 22.9863 61.353 23.1963C61.171 23.2363 60.972 23.2766 60.754 23.3066H60.155C58.159 23.3066 56.236 22.6961 54.385 21.4561C52.534 20.2261 51.028 18.9161 49.866 17.5361C49.757 17.3961 49.667 17.2858 49.594 17.2158C49.521 17.1058 49.431 16.9762 49.322 16.8262C49.29 16.7762 49.26 16.7365 49.232 16.6865ZM13.991 28.0459C15.189 26.6259 17.13 25.2463 19.816 23.9062C22.102 22.7463 23.699 21.7166 24.606 20.8066C25.514 19.8566 25.967 18.8263 25.967 17.6963C25.967 17.0463 25.695 16.4866 25.151 16.0166C24.643 15.5466 24.026 15.3066 23.3 15.3066C22.393 15.3066 21.413 15.5261 20.36 15.9561C19.344 16.3961 17.947 17.0666 16.168 17.9766C14.063 19.0666 12.285 19.8966 10.833 20.4766C9.418 21.0266 8.003 21.2959 6.587 21.2959C5.535 21.2959 4.5 21.0068 3.484 20.4268C2.468 19.8468 1.633 19.0464 0.98 18.0264C0.327 16.9764 0 15.7765 0 14.4365C0 12.9465 0.327 11.6968 0.98 10.6768C1.633 9.66676 2.432 8.84656 3.375 8.22656C4.101 7.75656 4.754 7.32676 5.335 6.92676C5.916 6.52676 6.442 6.15594 6.914 5.83594C7.712 5.25594 8.275 4.87652 8.601 4.68652C8.928 4.50652 9.255 4.41602 9.581 4.41602C10.162 4.41602 10.652 4.6166 11.051 5.0166C11.487 5.3766 11.704 5.86633 11.704 6.48633C11.704 6.99633 11.414 7.4259 10.833 7.7959C10.289 8.1559 9.345 8.6466 8.003 9.2666C7.531 9.4466 7.041 9.66602 6.533 9.91602C6.061 10.136 5.589 10.366 5.117 10.626C4.21 11.096 3.43 11.7166 2.776 12.4766C2.159 13.1966 1.851 14.0366 1.851 14.9766C1.851 15.6666 2.069 16.3963 2.504 17.1562C2.976 17.9162 3.738 18.2959 4.791 18.2959C5.589 18.2959 6.46 18.0963 7.404 17.6963C8.347 17.3063 9.599 16.6659 11.16 15.7959C13.338 14.6359 15.17 13.7665 16.658 13.1865C18.146 12.6065 19.671 12.3164 21.231 12.3164C22.683 12.3164 23.917 12.7059 24.933 13.5059C25.949 14.2759 26.693 15.2159 27.165 16.3359C27.673 17.4259 27.927 18.4259 27.927 19.3359C27.927 20.6059 27.655 21.6759 27.111 22.5459C26.566 23.4159 25.84 24.1664 24.933 24.7764C24.062 25.3564 22.774 26.0861 21.068 26.9561C20.342 27.3561 19.58 27.7761 18.782 28.2061C18.019 28.6061 17.221 29.0564 16.386 29.5664C15.297 30.2564 14.535 30.8159 14.1 31.2559C13.701 31.6959 13.501 32.2866 13.501 33.0566V34.5762C13.501 34.7962 13.428 34.9564 13.283 35.0664C13.174 35.1764 13.029 35.2266 12.848 35.2266C12.666 35.2266 12.503 35.1566 12.358 35.0166C12.249 34.9066 12.194 34.7562 12.194 34.5762V32.4561C12.194 30.9261 12.793 29.4559 13.991 28.0459ZM108.225 23.0361C108.406 23.1861 108.497 23.3767 108.497 23.6367C108.497 23.9267 108.388 24.1263 108.17 24.2363C107.989 24.3463 107.735 24.4566 107.408 24.5566C106.247 24.9266 105.067 25.2363 103.87 25.4863C102.672 25.7363 101.656 25.8662 100.821 25.8662C99.369 25.8662 98.045 25.5367 96.847 24.8867C95.686 24.1967 94.76 23.2566 94.071 22.0566C93.381 20.8566 93.036 19.4966 93.036 17.9766C93.036 16.3366 93.272 14.8664 93.744 13.5664C94.252 12.2564 94.942 11.1167 95.813 10.1367C96.684 9.15672 97.718 8.33652 98.916 7.68652C99.642 7.28652 100.367 6.93648 101.093 6.64648C101.819 6.35648 102.563 6.14609 103.325 5.99609C105.467 5.52609 107.009 4.90648 107.953 4.14648C108.932 3.38648 109.695 2.54648 110.239 1.64648C110.348 1.42648 110.475 1.25625 110.62 1.15625C110.765 1.00625 110.892 0.936523 111.001 0.936523C111.146 0.936523 111.255 0.965898 111.328 1.0459C111.437 1.0759 111.509 1.15586 111.546 1.25586C111.618 1.33586 111.654 1.44594 111.654 1.58594C111.654 1.69594 111.618 1.82582 111.546 1.96582C111.509 2.11582 111.437 2.27605 111.328 2.45605C111.037 2.92605 110.584 3.45613 109.967 4.03613C109.386 4.61613 108.66 5.19637 107.789 5.77637C106.955 6.32637 106.047 6.79629 105.067 7.19629C103.797 7.73629 102.745 8.22602 101.91 8.66602C101.075 9.06602 100.349 9.53617 99.732 10.0762C99.043 10.6262 98.498 11.2368 98.099 11.9268C97.7 12.5868 97.41 13.4165 97.228 14.4365C97.047 15.4465 96.956 16.6867 96.956 18.1367C96.956 19.4467 97.355 20.6268 98.154 21.6768C98.988 22.7268 100.023 23.3662 101.257 23.5762C101.402 23.6162 101.547 23.6565 101.692 23.6865H102.182C102.69 23.6865 103.307 23.6364 104.033 23.5264C104.795 23.3764 105.485 23.2359 106.102 23.0859C106.428 23.0159 106.719 22.9668 106.973 22.9268C107.263 22.8568 107.481 22.8164 107.626 22.8164C107.88 22.8164 108.08 22.8861 108.225 23.0361ZM39.741 17.8066C40.103 17.4066 40.575 17.2158 41.156 17.2158C41.664 17.2158 42.1 17.4066 42.462 17.8066C42.862 18.1766 43.061 18.626 43.061 19.166C43.061 19.676 42.862 20.1361 42.462 20.5361C42.1 20.8961 41.664 21.0762 41.156 21.0762C40.612 21.0762 40.14 20.8961 39.741 20.5361C39.378 20.1361 39.196 19.676 39.196 19.166C39.196 18.626 39.378 18.1766 39.741 17.8066ZM11.596 37.626C11.995 37.266 12.448 37.0859 12.957 37.0859C13.465 37.0859 13.9 37.266 14.263 37.626C14.662 38.026 14.862 38.4959 14.862 39.0459C14.862 39.5459 14.662 39.9867 14.263 40.3467C13.9 40.7467 13.465 40.9463 12.957 40.9463C12.448 40.9463 11.995 40.7467 11.596 40.3467C11.196 39.9867 10.997 39.5459 10.997 39.0459C10.997 38.4959 11.196 38.026 11.596 37.626Z" fill="black"/>
</svg>
