<svg width="112" height="41" viewBox="0 0 112 41" fill="none" xmlns="http://www.w3.org/2000/svg">
<path fill-rule="evenodd" clip-rule="evenodd" d="M71.09 29.5361C70.345 30.4861 69.531 31.346 68.648 32.126C67.74 32.886 66.688 33.5261 65.49 34.0361C64.293 34.5361 62.968 34.7959 61.516 34.7959C58.939 34.7959 56.798 34.1066 55.092 32.7266C53.423 31.3066 52.189 29.7667 51.39 28.0967C50.592 26.3967 50.193 25.1959 50.193 24.5059C50.193 24.1459 50.265 23.7966 50.411 23.4766C50.556 23.1066 50.774 22.8167 51.064 22.5967C51.39 22.3467 51.808 22.2158 52.316 22.2158C52.933 22.2158 53.423 22.3966 53.786 22.7666C54.149 23.1266 54.403 23.5466 54.548 24.0166V24.2363C54.584 24.2663 54.602 24.3265 54.602 24.3965C54.675 24.6565 54.711 24.8461 54.711 24.9961C54.748 25.1361 54.802 25.3367 54.875 25.5967C55.165 26.7967 55.546 27.896 56.018 28.916C56.526 29.936 57.234 30.7866 58.141 31.4766C59.048 32.1266 60.173 32.4561 61.516 32.4561C62.678 32.4561 63.712 32.2161 64.619 31.7461C65.563 31.2361 66.343 30.6363 66.96 29.9463C67.539 29.3363 67.989 28.7262 68.312 28.1162C68.343 28.0362 68.383 27.9667 68.43 27.8867C68.502 27.7267 68.578 27.5966 68.658 27.4766C69.275 26.2866 69.761 24.7963 70.118 22.9863C70.517 20.9463 70.789 18.8764 70.934 16.7764C70.97 16.3364 70.989 15.9362 70.989 15.5762C71.025 15.1762 71.043 14.8163 71.043 14.4863C71.043 13.3263 71.37 12.0961 72.023 10.7861C72.676 9.47613 73.656 8.37582 74.963 7.46582C76.305 6.55582 77.939 6.10645 79.862 6.10645C81.894 6.10645 83.618 6.53602 85.034 7.41602C86.486 8.28602 87.556 9.33641 88.246 10.5664C88.935 11.7664 89.28 12.9061 89.28 13.9961C89.28 14.3261 89.262 14.6661 89.226 15.0361V16.0166C89.153 17.8266 89.171 19.3559 89.28 20.5859C89.384 21.7659 89.723 23.0159 90.295 24.3359C90.374 24.4759 90.453 24.6164 90.532 24.7764C91.294 26.2664 92.22 27.5859 93.309 28.7559C94.434 29.9159 95.686 30.8364 97.065 31.5264C98.444 32.1864 99.859 32.5059 101.311 32.5059C102.001 32.5059 102.672 32.4765 103.325 32.3965C104.015 32.3265 104.723 32.1966 105.448 32.0166C106.174 31.8366 106.918 31.6066 107.68 31.3066C108.043 31.1666 108.352 31.0967 108.606 31.0967C108.86 31.0567 109.06 31.1866 109.205 31.4766C109.35 31.7666 109.314 32.0361 109.096 32.2861C108.878 32.5061 108.642 32.6764 108.388 32.7764C107.045 33.4364 105.775 33.9261 104.577 34.2461C103.416 34.5761 102.309 34.7363 101.257 34.7363C98.571 34.7363 96.284 34.2662 94.397 33.3262C92.546 32.3862 91.131 31.326 90.151 30.166C89.171 29.006 88.373 27.8663 87.756 26.7363C87.369 26.0263 87.125 25.4461 87.025 24.9961C86.314 23.1961 85.868 21.4458 85.687 19.7158C85.506 17.6058 85.415 15.1966 85.415 12.4766C85.415 11.2766 84.961 10.1861 84.054 9.20605C83.183 8.22605 81.804 7.73633 79.917 7.73633C78.392 7.73633 77.176 8.2466 76.269 9.2666C75.398 10.2466 74.963 11.4266 74.963 12.8066C74.963 14.6866 74.89 16.4865 74.745 18.1865C74.6 19.8565 74.364 21.4368 74.037 22.9268C73.747 24.1968 73.366 25.3966 72.894 26.5166C72.422 27.6066 71.841 28.5861 71.152 29.4561L71.09 29.5361ZM49.177 16.6865C49.12 16.6165 49.059 16.5363 48.995 16.4463L48.179 15.3066C46.582 13.0566 45.094 11.1863 43.715 9.69629C42.372 8.17629 41.083 7.41602 39.849 7.41602C38.797 7.41602 37.908 8.0266 37.182 9.2666C36.456 10.4966 35.93 12.1164 35.603 14.1064C35.277 16.0664 35.113 18.2061 35.113 20.5361C35.113 23.1061 35.367 25.2461 35.875 26.9561C36.42 28.6661 37.091 29.9158 37.89 30.7158C38.724 31.4758 39.559 31.8564 40.394 31.8564C41.991 31.8564 43.206 31.3462 44.041 30.3262C44.876 29.2762 45.529 28.1759 46.001 27.0059L46.11 26.7363C46.182 26.6263 46.273 26.516 46.382 26.416C46.491 26.266 46.618 26.1963 46.763 26.1963C47.054 26.1963 47.235 26.3066 47.308 26.5166C47.416 26.7366 47.435 26.9568 47.362 27.1768C46.818 29.7468 45.874 31.6763 44.531 32.9463C43.225 34.1763 41.646 34.7959 39.795 34.7959C37.98 34.7959 36.42 34.1567 35.113 32.8867C33.807 31.6167 32.809 29.9665 32.119 27.9365C31.466 25.9065 31.139 23.7461 31.139 21.4561C31.139 19.1361 31.484 16.7364 32.173 14.2764C32.899 11.8064 33.916 9.75621 35.222 8.11621C36.529 6.44621 38.053 5.61621 39.795 5.61621C40.775 5.61621 41.882 6.10594 43.116 7.08594C44.386 8.02594 45.638 9.22676 46.872 10.6768C48.106 12.0968 49.267 13.5865 50.356 15.1465L50.362 15.1562C50.434 15.2263 50.505 15.316 50.574 15.416C50.792 15.746 51.028 16.0863 51.282 16.4463C51.536 16.7763 51.826 17.1163 52.153 17.4863C53.133 18.5763 54.258 19.4665 55.528 20.1465C56.834 20.8365 58.25 21.1865 59.774 21.1865C61.444 21.1865 62.55 20.6063 63.095 19.4463C63.639 18.2463 63.911 16.556 63.911 14.376C63.911 12.816 63.639 11.2966 63.095 9.80664C62.587 8.28664 61.589 7.5166 60.101 7.5166C59.121 7.5166 58.177 7.97672 57.27 8.88672C56.399 9.78672 55.709 11.1666 55.201 13.0166C55.165 13.0966 55.129 13.1859 55.092 13.2959V13.5059C54.911 14.1959 54.693 14.7465 54.439 15.1465C54.221 15.5065 53.804 15.6865 53.187 15.6865C52.679 15.6865 52.298 15.5764 52.044 15.3564C51.79 15.1064 51.626 14.8163 51.554 14.4863C51.481 14.1663 51.463 13.8161 51.499 13.4561C51.608 12.6961 52.026 11.7264 52.751 10.5664C53.514 9.37641 54.53 8.33582 55.8 7.46582C57.07 6.59582 58.54 6.15625 60.21 6.15625C61.48 6.15625 62.678 6.46594 63.803 7.08594C64.928 7.70594 65.835 8.64602 66.525 9.91602C67.214 11.186 67.559 12.6965 67.559 14.4365C67.559 15.8865 67.287 17.2466 66.742 18.5166C66.234 19.7566 65.49 20.7862 64.51 21.6162C63.567 22.4562 62.496 22.9863 61.298 23.1963C61.117 23.2363 60.917 23.2766 60.7 23.3066H60.101C58.105 23.3066 56.181 22.6961 54.33 21.4561C52.479 20.2261 50.973 18.9161 49.812 17.5361C49.703 17.3961 49.612 17.2858 49.539 17.2158C49.467 17.1058 49.376 16.9762 49.267 16.8262C49.236 16.7762 49.206 16.7365 49.177 16.6865ZM13.991 28.0459C15.189 26.6259 17.13 25.2463 19.816 23.9062C22.102 22.7463 23.699 21.7166 24.606 20.8066C25.514 19.8566 25.967 18.8263 25.967 17.6963C25.967 17.0463 25.695 16.4866 25.151 16.0166C24.643 15.5466 24.026 15.3066 23.3 15.3066C22.393 15.3066 21.413 15.5261 20.36 15.9561C19.344 16.3961 17.947 17.0666 16.168 17.9766C14.063 19.0666 12.285 19.8966 10.833 20.4766C9.418 21.0266 8.003 21.2959 6.587 21.2959C5.535 21.2959 4.5 21.0068 3.484 20.4268C2.468 19.8468 1.633 19.0464 0.98 18.0264C0.327 16.9764 0 15.7765 0 14.4365C0 12.9465 0.327 11.6968 0.98 10.6768C1.633 9.66676 2.432 8.84656 3.375 8.22656C4.101 7.75656 4.754 7.32676 5.335 6.92676C5.916 6.52676 6.442 6.15594 6.914 5.83594C7.712 5.25594 8.275 4.87652 8.601 4.68652C8.928 4.50652 9.255 4.41602 9.581 4.41602C10.162 4.41602 10.652 4.6166 11.051 5.0166C11.487 5.3766 11.704 5.86633 11.704 6.48633C11.704 6.99633 11.414 7.4259 10.833 7.7959C10.289 8.1559 9.345 8.6466 8.003 9.2666C7.531 9.4466 7.041 9.66602 6.533 9.91602C6.061 10.136 5.589 10.366 5.117 10.626C4.21 11.096 3.43 11.7166 2.776 12.4766C2.159 13.1966 1.851 14.0366 1.851 14.9766C1.851 15.6666 2.069 16.3963 2.504 17.1562C2.976 17.9162 3.738 18.2959 4.791 18.2959C5.589 18.2959 6.46 18.0963 7.404 17.6963C8.347 17.3063 9.599 16.6659 11.16 15.7959C13.338 14.6359 15.17 13.7665 16.658 13.1865C18.146 12.6065 19.671 12.3164 21.231 12.3164C22.683 12.3164 23.917 12.7059 24.933 13.5059C25.949 14.2759 26.693 15.2159 27.165 16.3359C27.673 17.4259 27.927 18.4259 27.927 19.3359C27.927 20.6059 27.655 21.6759 27.111 22.5459C26.566 23.4159 25.84 24.1664 24.933 24.7764C24.062 25.3564 22.774 26.0861 21.068 26.9561C20.342 27.3561 19.58 27.7761 18.782 28.2061C18.019 28.6061 17.221 29.0564 16.386 29.5664C15.297 30.2564 14.535 30.8159 14.1 31.2559C13.701 31.6959 13.501 32.2866 13.501 33.0566V34.5762C13.501 34.7962 13.428 34.9564 13.283 35.0664C13.174 35.1764 13.029 35.2266 12.848 35.2266C12.666 35.2266 12.503 35.1566 12.358 35.0166C12.249 34.9066 12.194 34.7562 12.194 34.5762V32.4561C12.194 30.9261 12.793 29.4559 13.991 28.0459ZM108.17 23.0859C108.352 23.2359 108.443 23.4365 108.443 23.6865C108.443 23.9765 108.334 24.1761 108.116 24.2861C107.934 24.3961 107.68 24.5062 107.354 24.6162C106.192 24.9762 105.013 25.2861 103.815 25.5361C102.618 25.7961 101.601 25.9268 100.767 25.9268C99.315 25.9268 97.99 25.5963 96.793 24.9463C95.631 24.2563 94.688 23.3064 93.962 22.1064C93.272 20.9164 92.927 19.5564 92.927 18.0264C92.927 16.3964 93.182 14.9262 93.69 13.6162C94.198 12.3162 94.887 11.1861 95.758 10.2461C96.666 9.26609 97.736 8.4459 98.97 7.7959C99.66 7.4259 100.367 7.10641 101.093 6.81641C101.855 6.52641 102.618 6.30625 103.38 6.15625C105.485 5.65625 107.027 5.01586 108.007 4.25586C108.987 3.49586 109.767 2.65609 110.348 1.74609C110.457 1.49609 110.584 1.31605 110.729 1.20605C110.874 1.05605 111.001 0.986328 111.11 0.986328C111.255 0.986328 111.364 1.02668 111.437 1.09668C111.546 1.13668 111.618 1.20641 111.654 1.31641C111.727 1.38641 111.763 1.49648 111.763 1.64648C111.763 1.74648 111.727 1.87637 111.654 2.02637C111.618 2.16637 111.546 2.3366 111.437 2.5166C111.146 2.9466 110.693 3.47668 110.076 4.09668C109.495 4.67668 108.769 5.25594 107.898 5.83594C107.063 6.37594 106.174 6.84609 105.231 7.24609C103.924 7.82609 102.853 8.31582 102.019 8.71582C101.184 9.11582 100.422 9.58672 99.732 10.1367C99.043 10.6767 98.48 11.2963 98.045 11.9863C97.646 12.6363 97.337 13.4763 97.119 14.4863C96.938 15.5063 96.847 16.7365 96.847 18.1865C96.847 19.4965 97.264 20.6766 98.099 21.7266C98.934 22.7866 99.968 23.4167 101.202 23.6367C101.347 23.6767 101.492 23.7061 101.638 23.7461H102.128C102.636 23.7461 103.253 23.6862 103.979 23.5762C104.741 23.4362 105.43 23.2865 106.047 23.1465C106.374 23.0765 106.664 23.0163 106.918 22.9863C107.209 22.9063 107.426 22.876 107.572 22.876C107.826 22.876 108.025 22.9459 108.17 23.0859ZM39.686 17.8066C40.049 17.4066 40.521 17.2158 41.102 17.2158C41.61 17.2158 42.045 17.4066 42.408 17.8066C42.807 18.1766 43.007 18.626 43.007 19.166C43.007 19.676 42.807 20.1361 42.408 20.5361C42.045 20.8961 41.61 21.0762 41.102 21.0762C40.557 21.0762 40.085 20.8961 39.686 20.5361C39.323 20.1361 39.142 19.676 39.142 19.166C39.142 18.626 39.323 18.1766 39.686 17.8066ZM11.596 37.626C11.995 37.266 12.448 37.0859 12.957 37.0859C13.465 37.0859 13.9 37.266 14.263 37.626C14.662 38.026 14.862 38.4959 14.862 39.0459C14.862 39.5459 14.662 39.9867 14.263 40.3467C13.9 40.7467 13.465 40.9463 12.957 40.9463C12.448 40.9463 11.995 40.7467 11.596 40.3467C11.196 39.9867 10.997 39.5459 10.997 39.0459C10.997 38.4959 11.196 38.026 11.596 37.626Z" fill="black"/>
</svg>
