<svg width="112" height="41" viewBox="0 0 112 41" fill="none" xmlns="http://www.w3.org/2000/svg">
<path fill-rule="evenodd" clip-rule="evenodd" d="M71.036 29.5361C70.29 30.4861 69.476 31.346 68.593 32.126C67.686 32.886 66.633 33.5261 65.436 34.0361C64.238 34.5361 62.913 34.7959 61.462 34.7959C58.885 34.7959 56.744 34.1066 55.038 32.7266C53.368 31.3066 52.134 29.7667 51.336 28.0967C50.538 26.3967 50.138 25.1959 50.138 24.5059C50.138 24.1459 50.211 23.7966 50.356 23.4766C50.501 23.1066 50.719 22.8167 51.009 22.5967C51.336 22.3467 51.753 22.2158 52.262 22.2158C52.878 22.2158 53.368 22.3966 53.731 22.7666C54.094 23.1266 54.348 23.5466 54.493 24.0166V24.2363C54.53 24.2663 54.548 24.3265 54.548 24.3965C54.621 24.6565 54.657 24.8461 54.657 24.9961C54.693 25.1361 54.748 25.3367 54.82 25.5967C55.11 26.7967 55.492 27.896 55.963 28.916C56.471 29.936 57.179 30.7866 58.086 31.4766C58.994 32.1266 60.119 32.4561 61.462 32.4561C62.623 32.4561 63.657 32.2161 64.565 31.7461C65.508 31.2361 66.289 30.6363 66.906 29.9463C67.484 29.3363 67.935 28.7262 68.257 28.1162C68.289 28.0362 68.328 27.9667 68.375 27.8867C68.447 27.7267 68.523 27.5966 68.604 27.4766C69.22 26.2866 69.707 24.7963 70.063 22.9863C70.462 20.9463 70.734 18.8764 70.88 16.7764C70.916 16.3364 70.934 15.9362 70.934 15.5762C70.97 15.1762 70.989 14.7965 70.989 14.4365C70.989 13.3065 71.315 12.0961 71.968 10.7861C72.622 9.47613 73.602 8.37582 74.908 7.46582C76.251 6.55582 77.884 6.10645 79.808 6.10645C81.84 6.10645 83.564 6.53602 84.979 7.41602C86.431 8.24602 87.502 9.2866 88.191 10.5166C88.881 11.7466 89.226 12.9061 89.226 13.9961C89.226 14.3261 89.207 14.6566 89.171 14.9766C89.171 15.3066 89.153 15.6466 89.117 16.0166C89.08 17.7966 89.117 19.2961 89.226 20.5361C89.33 21.7161 89.671 22.9867 90.247 24.3467C90.324 24.4867 90.401 24.6264 90.478 24.7764C91.24 26.2664 92.165 27.5859 93.254 28.7559C94.379 29.9159 95.631 30.8364 97.01 31.5264C98.39 32.1864 99.805 32.5059 101.257 32.5059C101.946 32.5059 102.618 32.4765 103.271 32.3965C103.96 32.3265 104.668 32.1966 105.394 32.0166C106.12 31.8366 106.864 31.6066 107.626 31.3066C107.989 31.1666 108.297 31.0967 108.551 31.0967C108.805 31.0567 109.005 31.1866 109.15 31.4766C109.295 31.7666 109.259 32.0361 109.041 32.2861C108.824 32.5061 108.588 32.6764 108.334 32.7764C106.991 33.4364 105.721 33.9261 104.523 34.2461C103.362 34.5761 102.255 34.7363 101.202 34.7363C98.516 34.7363 96.23 34.2662 94.343 33.3262C92.492 32.3862 91.077 31.326 90.097 30.166C89.117 29.006 88.318 27.8663 87.701 26.7363C87.314 26.0263 87.071 25.4461 86.97 24.9961C86.26 23.1961 85.814 21.4358 85.633 19.7158C85.415 17.6058 85.306 15.1966 85.306 12.4766C85.306 11.2766 84.87 10.1861 83.999 9.20605C83.128 8.22605 81.749 7.73633 79.862 7.73633C78.338 7.73633 77.122 8.2466 76.215 9.2666C75.344 10.2466 74.908 11.4266 74.908 12.8066C74.908 14.6866 74.836 16.4865 74.69 18.1865C74.545 19.8565 74.309 21.416 73.983 22.876C73.692 24.176 73.311 25.3966 72.839 26.5166C72.368 27.6066 71.787 28.5861 71.097 29.4561L71.036 29.5361ZM49.123 16.6865C49.066 16.6165 49.005 16.5363 48.941 16.4463L48.124 15.3066C46.527 13.0566 45.039 11.1863 43.66 9.69629C42.317 8.17629 41.029 7.41602 39.795 7.41602C38.742 7.41602 37.853 8.0266 37.127 9.2666C36.402 10.4966 35.875 12.1164 35.549 14.1064C35.222 16.0664 35.059 18.2061 35.059 20.5361C35.059 23.1061 35.313 25.2461 35.821 26.9561C36.365 28.6261 37.037 29.8562 37.835 30.6562C38.67 31.4563 39.505 31.8564 40.339 31.8564C41.9 31.8564 43.098 31.3462 43.932 30.3262C44.803 29.2762 45.475 28.1759 45.947 27.0059L46.055 26.7363C46.128 26.6263 46.219 26.516 46.328 26.416C46.437 26.266 46.564 26.1963 46.709 26.1963C46.999 26.1963 47.181 26.3066 47.253 26.5166C47.362 26.7366 47.38 26.9568 47.308 27.1768C46.763 29.7468 45.82 31.6763 44.477 32.9463C43.17 34.1763 41.591 34.7959 39.741 34.7959C37.926 34.7959 36.365 34.1567 35.059 32.8867C33.752 31.6167 32.754 29.9665 32.065 27.9365C31.411 25.9065 31.085 23.7461 31.085 21.4561C31.085 19.1361 31.43 16.7364 32.119 14.2764C32.845 11.8064 33.861 9.75621 35.168 8.11621C36.474 6.44621 37.998 5.61621 39.741 5.61621C40.72 5.61621 41.827 6.10594 43.061 7.08594C44.332 8.02594 45.584 9.22676 46.818 10.6768C48.051 12.0968 49.213 13.5865 50.302 15.1465L50.307 15.1562C50.379 15.2263 50.45 15.316 50.519 15.416C50.737 15.746 50.973 16.0863 51.227 16.4463C51.481 16.7763 51.772 17.1163 52.098 17.4863C53.078 18.5763 54.203 19.4665 55.473 20.1465C56.78 20.8365 58.195 21.1865 59.72 21.1865C61.389 21.1865 62.496 20.5867 63.04 19.3867C63.621 18.1867 63.911 16.526 63.911 14.376C63.911 12.816 63.639 11.2966 63.095 9.80664C62.55 8.31664 61.534 7.57617 60.046 7.57617C59.066 7.57617 58.141 8.02652 57.27 8.93652C56.399 9.80652 55.691 11.1666 55.147 13.0166C55.11 13.0966 55.074 13.1859 55.038 13.2959V13.5059C54.893 14.1959 54.693 14.7465 54.439 15.1465C54.221 15.5065 53.804 15.6865 53.187 15.6865C52.643 15.6865 52.243 15.5764 51.989 15.3564C51.735 15.1064 51.572 14.8163 51.499 14.4863C51.427 14.1663 51.409 13.8161 51.445 13.4561C51.554 12.6961 51.971 11.7264 52.697 10.5664C53.459 9.37641 54.475 8.33582 55.746 7.46582C57.016 6.55582 58.486 6.10645 60.155 6.10645C61.425 6.10645 62.623 6.43594 63.748 7.08594C64.873 7.70594 65.781 8.64602 66.47 9.91602C67.196 11.186 67.559 12.6965 67.559 14.4365C67.559 15.8865 67.287 17.2466 66.742 18.5166C66.198 19.7566 65.436 20.7862 64.456 21.6162C63.512 22.4562 62.442 22.9863 61.244 23.1963C61.062 23.2363 60.863 23.2766 60.645 23.3066H60.046C58.05 23.3066 56.127 22.6961 54.276 21.4561C52.425 20.2261 50.919 18.9161 49.757 17.5361C49.648 17.3961 49.558 17.2858 49.485 17.2158C49.413 17.1058 49.322 16.9762 49.213 16.8262C49.181 16.7762 49.151 16.7365 49.123 16.6865ZM13.991 28.0459C15.189 26.6259 17.13 25.2463 19.816 23.9062C22.102 22.7463 23.699 21.7166 24.606 20.8066C25.514 19.8566 25.967 18.8263 25.967 17.6963C25.967 17.0463 25.695 16.4866 25.151 16.0166C24.643 15.5466 24.026 15.3066 23.3 15.3066C22.393 15.3066 21.413 15.5261 20.36 15.9561C19.344 16.3961 17.947 17.0666 16.168 17.9766C14.063 19.0666 12.285 19.8966 10.833 20.4766C9.418 21.0266 8.003 21.2959 6.587 21.2959C5.535 21.2959 4.5 21.0068 3.484 20.4268C2.468 19.8468 1.633 19.0464 0.98 18.0264C0.327 16.9764 0 15.7765 0 14.4365C0 12.9465 0.327 11.6968 0.98 10.6768C1.633 9.66676 2.432 8.84656 3.375 8.22656C4.101 7.75656 4.754 7.32676 5.335 6.92676C5.916 6.52676 6.442 6.15594 6.914 5.83594C7.712 5.25594 8.275 4.87652 8.601 4.68652C8.928 4.50652 9.255 4.41602 9.581 4.41602C10.162 4.41602 10.652 4.6166 11.051 5.0166C11.487 5.3766 11.704 5.86633 11.704 6.48633C11.704 6.99633 11.414 7.4259 10.833 7.7959C10.289 8.1559 9.345 8.6466 8.003 9.2666C7.531 9.4466 7.041 9.66602 6.533 9.91602C6.061 10.136 5.589 10.366 5.117 10.626C4.21 11.096 3.43 11.7166 2.776 12.4766C2.159 13.1966 1.851 14.0366 1.851 14.9766C1.851 15.6666 2.069 16.3963 2.504 17.1562C2.976 17.9162 3.738 18.2959 4.791 18.2959C5.589 18.2959 6.46 18.0963 7.404 17.6963C8.347 17.3063 9.599 16.6659 11.16 15.7959C13.338 14.6359 15.17 13.7665 16.658 13.1865C18.146 12.6065 19.671 12.3164 21.231 12.3164C22.683 12.3164 23.917 12.7059 24.933 13.5059C25.949 14.2759 26.693 15.2159 27.165 16.3359C27.673 17.4259 27.927 18.4259 27.927 19.3359C27.927 20.6059 27.655 21.6759 27.111 22.5459C26.566 23.4159 25.84 24.1664 24.933 24.7764C24.062 25.3564 22.774 26.0861 21.068 26.9561C20.342 27.3561 19.58 27.7761 18.782 28.2061C18.019 28.6061 17.221 29.0564 16.386 29.5664C15.297 30.2564 14.535 30.8159 14.1 31.2559C13.701 31.6959 13.501 32.2866 13.501 33.0566V34.5762C13.501 34.7962 13.428 34.9564 13.283 35.0664C13.174 35.1764 13.029 35.2266 12.848 35.2266C12.666 35.2266 12.503 35.1566 12.358 35.0166C12.249 34.9066 12.194 34.7562 12.194 34.5762V32.4561C12.194 30.9261 12.793 29.4559 13.991 28.0459ZM108.061 23.0859C108.243 23.2359 108.334 23.4365 108.334 23.6865C108.334 23.9765 108.225 24.1761 108.007 24.2861C107.826 24.3961 107.572 24.5062 107.245 24.6162C106.084 24.9762 104.904 25.2861 103.706 25.5361C102.509 25.7961 101.492 25.9268 100.658 25.9268C99.242 25.9268 97.936 25.5963 96.738 24.9463C95.54 24.2563 94.597 23.3064 93.907 22.1064C93.218 20.9164 92.873 19.5564 92.873 18.0264C92.873 16.3964 93.127 14.9468 93.635 13.6768C94.143 12.3668 94.833 11.2359 95.704 10.2959C96.611 9.3559 97.7 8.55625 98.97 7.90625C99.696 7.53625 100.422 7.22656 101.148 6.97656C101.874 6.68656 102.618 6.4466 103.38 6.2666C105.485 5.7566 107.027 5.12621 108.007 4.36621C109.023 3.60621 109.822 2.74664 110.402 1.80664C110.548 1.54664 110.693 1.35605 110.838 1.20605C110.983 1.05605 111.11 0.986328 111.219 0.986328C111.364 0.986328 111.473 1.02668 111.546 1.09668C111.654 1.13668 111.727 1.20641 111.763 1.31641C111.836 1.38641 111.872 1.49648 111.872 1.64648C111.872 1.74648 111.836 1.87637 111.763 2.02637C111.727 2.16637 111.654 2.34641 111.546 2.56641C111.255 3.00641 110.802 3.52648 110.185 4.14648C109.604 4.72648 108.896 5.30672 108.061 5.88672C107.227 6.43672 106.319 6.90664 105.34 7.30664C104.069 7.88664 102.999 8.39617 102.128 8.82617C101.293 9.22617 100.513 9.69609 99.787 10.2461C99.061 10.7861 98.48 11.4067 98.045 12.0967C97.609 12.7467 97.283 13.5659 97.065 14.5459C96.883 15.5259 96.793 16.7365 96.793 18.1865C96.793 19.4965 97.192 20.6766 97.99 21.7266C98.825 22.7866 99.859 23.4167 101.093 23.6367C101.238 23.6767 101.384 23.7061 101.529 23.7461H102.019C102.527 23.7461 103.144 23.6862 103.87 23.5762C104.632 23.4362 105.321 23.2865 105.938 23.1465C106.265 23.0765 106.555 23.0163 106.809 22.9863C107.1 22.9063 107.317 22.876 107.463 22.876C107.717 22.876 107.916 22.9459 108.061 23.0859ZM39.632 17.8066C39.995 17.4066 40.466 17.2158 41.047 17.2158C41.555 17.2158 41.991 17.4066 42.354 17.8066C42.753 18.1766 42.952 18.626 42.952 19.166C42.952 19.676 42.753 20.1361 42.354 20.5361C41.991 20.8961 41.555 21.0762 41.047 21.0762C40.503 21.0762 40.031 20.8961 39.632 20.5361C39.269 20.1361 39.087 19.676 39.087 19.166C39.087 18.626 39.269 18.1766 39.632 17.8066ZM11.541 37.626C11.94 37.266 12.394 37.0859 12.902 37.0859C13.41 37.0859 13.846 37.266 14.209 37.626C14.608 38.026 14.807 38.4959 14.807 39.0459C14.807 39.5459 14.608 39.9867 14.209 40.3467C13.846 40.7467 13.41 40.9463 12.902 40.9463C12.394 40.9463 11.94 40.7467 11.541 40.3467C11.142 39.9867 10.942 39.5459 10.942 39.0459C10.942 38.4959 11.142 38.026 11.541 37.626Z" fill="black"/>
</svg>
