<svg width="112" height="41" viewBox="0 0 112 41" fill="none" xmlns="http://www.w3.org/2000/svg">
<path fill-rule="evenodd" clip-rule="evenodd" d="M70.995 29.4614C70.246 30.4174 69.427 31.2864 68.539 32.0674C67.631 32.8294 66.579 33.4654 65.381 33.9734C64.184 34.4814 62.859 34.7354 61.407 34.7354C58.83 34.7354 56.689 34.0454 54.983 32.6664C53.314 31.2514 52.08 29.7084 51.282 28.0394C50.483 26.3334 50.084 25.1354 50.084 24.4464C50.084 24.0834 50.157 23.7384 50.302 23.4124C50.447 23.0494 50.665 22.7584 50.955 22.5414C51.282 22.2864 51.699 22.1594 52.207 22.1594C52.824 22.1594 53.314 22.3414 53.677 22.7044C54.04 23.0674 54.294 23.4844 54.439 23.9564V24.1744C54.475 24.2104 54.493 24.2644 54.493 24.3374C54.566 24.5914 54.602 24.7914 54.602 24.9364C54.639 25.0814 54.693 25.2814 54.766 25.5354C55.056 26.7324 55.437 27.8394 55.909 28.8554C56.417 29.8724 57.125 30.7244 58.032 31.4144C58.939 32.0674 60.064 32.3944 61.407 32.3944C62.569 32.3944 63.603 32.1584 64.51 31.6864C65.454 31.1784 66.234 30.5794 66.851 29.8904C67.429 29.2804 67.879 28.6704 68.201 28.0604C68.233 27.9814 68.273 27.9014 68.321 27.8214C68.391 27.6714 68.465 27.5374 68.544 27.4204C69.163 26.2414 69.651 24.7414 70.009 22.9224C70.408 20.8894 70.68 18.8024 70.825 16.6614C70.862 16.2624 70.88 15.8814 70.88 15.5184C70.916 15.1194 70.934 14.7384 70.934 14.3754C70.934 13.2134 71.261 11.9794 71.914 10.6734C72.567 9.3664 73.547 8.2594 74.854 7.3524C76.197 6.4454 77.83 5.9914 79.753 5.9914C81.786 5.9914 83.51 6.4274 84.925 7.2984C86.377 8.1694 87.447 9.2214 88.137 10.4554C88.826 11.6894 89.171 12.8504 89.171 13.9394C89.171 14.2664 89.153 14.5924 89.117 14.9194C89.117 15.2464 89.099 15.5724 89.062 15.8994C88.99 17.7144 89.008 19.2384 89.117 20.4724C89.256 21.6594 89.614 22.9304 90.191 24.2864C90.268 24.4194 90.346 24.5634 90.423 24.7184C91.185 26.2064 92.111 27.5314 93.2 28.6924C94.325 29.8544 95.577 30.7794 96.956 31.4694C98.335 32.1224 99.751 32.4484 101.202 32.4484C101.892 32.4484 102.563 32.4124 103.216 32.3404C103.906 32.2674 104.614 32.1404 105.34 31.9594C106.065 31.7774 106.809 31.5414 107.572 31.2514C107.934 31.1064 108.243 31.0334 108.497 31.0334C108.751 30.9974 108.951 31.1244 109.096 31.4144C109.241 31.7044 109.205 31.9774 108.987 32.2314C108.769 32.4484 108.533 32.6124 108.279 32.7214C106.936 33.3744 105.666 33.8644 104.468 34.1914C103.307 34.5174 102.2 34.6804 101.148 34.6804C98.462 34.6804 96.176 34.2094 94.288 33.2654C92.438 32.3214 91.022 31.2694 90.042 30.1084C89.062 28.9464 88.264 27.8034 87.647 26.6784C87.26 25.9694 87.017 25.3904 86.916 24.9384C86.206 23.1344 85.76 21.3554 85.578 19.6014C85.36 17.4964 85.251 15.0824 85.251 12.3604C85.251 11.1994 84.816 10.1284 83.945 9.1494C83.074 8.1324 81.695 7.6244 79.808 7.6244C78.283 7.6244 77.068 8.1324 76.16 9.1494C75.289 10.1284 74.854 11.3084 74.854 12.6874C74.854 14.6114 74.781 16.4254 74.636 18.1314C74.491 19.8004 74.255 21.3614 73.928 22.8134C73.638 24.1194 73.257 25.3354 72.785 26.4604C72.313 27.5494 71.733 28.5294 71.043 29.4004C71.027 29.4214 71.011 29.4414 70.995 29.4614ZM49.069 16.6284C49.012 16.5584 48.951 16.4784 48.886 16.3894L48.07 15.2464C46.473 12.9964 44.985 11.1264 43.606 9.6384C42.263 8.1144 40.974 7.3524 39.741 7.3524C38.688 7.3524 37.799 7.9694 37.073 9.2034C36.347 10.4374 35.821 12.0524 35.494 14.0484C35.168 16.0084 35.004 18.1494 35.004 20.4724C35.004 23.0494 35.258 25.1904 35.766 26.8964C36.311 28.5654 36.982 29.7994 37.781 30.5974C38.615 31.3964 39.45 31.7954 40.285 31.7954C41.846 31.7954 43.043 31.2874 43.878 30.2714C44.749 29.2184 45.402 28.1124 45.838 26.9504L46.001 26.6784C46.074 26.5694 46.164 26.4604 46.273 26.3514C46.382 26.2064 46.509 26.1334 46.654 26.1334C46.945 26.1334 47.126 26.2424 47.199 26.4604C47.308 26.6784 47.326 26.8964 47.253 27.1134C46.709 29.6904 45.765 31.6144 44.422 32.8844C43.116 34.1184 41.537 34.7354 39.686 34.7354C37.871 34.7354 36.311 34.1004 35.004 32.8294C33.698 31.5594 32.7 29.9084 32.01 27.8764C31.357 25.8434 31.03 23.6844 31.03 21.3974C31.03 19.0754 31.375 16.6794 32.065 14.2114C32.79 11.7444 33.807 9.6934 35.113 8.0604C36.42 6.3904 37.944 5.5564 39.686 5.5564C40.666 5.5564 41.773 6.0464 43.007 7.0254C44.277 7.9694 45.529 9.1674 46.763 10.6184C47.997 12.0344 49.158 13.5224 50.247 15.0824L50.253 15.0944C50.325 15.1694 50.396 15.2564 50.465 15.3554C50.683 15.6814 50.919 16.0264 51.173 16.3894C51.427 16.7164 51.717 17.0604 52.044 17.4234C53.024 18.5124 54.149 19.4014 55.419 20.0914C56.725 20.7804 58.141 21.1254 59.665 21.1254C61.371 21.1254 62.496 20.5264 63.04 19.3294C63.585 18.1314 63.857 16.4624 63.857 14.3204C63.857 12.7604 63.585 11.2354 63.04 9.7474C62.496 8.2594 61.48 7.5154 59.992 7.5154C59.012 7.5154 58.086 7.9694 57.215 8.8764C56.344 9.7474 55.655 11.1084 55.147 12.9594C55.11 13.0324 55.074 13.1234 55.038 13.2314V13.4494C54.856 14.1394 54.639 14.6834 54.385 15.0824C54.167 15.4454 53.75 15.6274 53.133 15.6274C52.624 15.6274 52.225 15.5184 51.935 15.3004C51.681 15.0464 51.518 14.7564 51.445 14.4294C51.409 14.1034 51.39 13.7584 51.39 13.3954C51.499 12.6334 51.917 11.6714 52.643 10.5094C53.405 9.3124 54.421 8.2784 55.691 7.4064C56.961 6.4994 58.431 6.0464 60.101 6.0464C61.371 6.0464 62.569 6.3724 63.694 7.0254C64.819 7.6424 65.726 8.5864 66.416 9.8564C67.141 11.1264 67.504 12.6334 67.504 14.3754C67.504 15.8264 67.232 17.1874 66.688 18.4584C66.143 19.6924 65.381 20.7264 64.401 21.5614C63.458 22.3954 62.387 22.9224 61.19 23.1394C61.008 23.1764 60.808 23.2124 60.591 23.2484H59.992C57.996 23.2484 56.072 22.6314 54.221 21.3974C52.37 20.1634 50.864 18.8574 49.703 17.4784C49.594 17.3334 49.503 17.2244 49.431 17.1514C49.358 17.0424 49.267 16.9154 49.158 16.7704C49.127 16.7234 49.097 16.6764 49.069 16.6284ZM13.991 27.9844C15.189 26.5694 17.13 25.1904 19.816 23.8474C22.102 22.6864 23.699 21.6514 24.606 20.7444C25.514 19.8004 25.967 18.7664 25.967 17.6414C25.967 16.9884 25.695 16.4254 25.151 15.9534C24.643 15.4824 24.026 15.2464 23.3 15.2464C22.393 15.2464 21.413 15.4634 20.36 15.8994C19.344 16.3354 17.947 17.0064 16.168 17.9134C14.063 19.0024 12.285 19.8374 10.833 20.4174C9.418 20.9624 8.003 21.2344 6.587 21.2344C5.535 21.2344 4.5 20.9444 3.484 20.3634C2.468 19.7824 1.633 18.9844 0.98 17.9684C0.327 16.9154 0 15.7184 0 14.3754C0 12.8874 0.327 11.6354 0.98 10.6184C1.633 9.6024 2.432 8.7864 3.375 8.1694C4.101 7.6974 4.754 7.2614 5.335 6.8624C5.916 6.4634 6.442 6.1004 6.914 5.7734C7.712 5.1934 8.275 4.8124 8.601 4.6304C8.928 4.4494 9.255 4.3584 9.581 4.3584C10.162 4.3584 10.652 4.5584 11.051 4.9574C11.487 5.3204 11.704 5.8104 11.704 6.4274C11.704 6.9354 11.414 7.3704 10.833 7.7334C10.289 8.0964 9.345 8.5864 8.003 9.2034C7.531 9.3844 7.041 9.6024 6.533 9.8564C6.061 10.0744 5.589 10.3104 5.117 10.5644C4.21 11.0364 3.43 11.6534 2.776 12.4154C2.159 13.1414 1.851 13.9764 1.851 14.9194C1.851 15.6094 2.069 16.3354 2.504 17.0974C2.976 17.8594 3.738 18.2404 4.791 18.2404C5.589 18.2404 6.46 18.0404 7.404 17.6414C8.347 17.2424 9.599 16.6074 11.16 15.7364C13.338 14.5744 15.17 13.7034 16.658 13.1234C18.146 12.5424 19.671 12.2524 21.231 12.2524C22.683 12.2524 23.917 12.6514 24.933 13.4494C25.949 14.2114 26.693 15.1554 27.165 16.2804C27.673 17.3694 27.927 18.3674 27.927 19.2744C27.927 20.5444 27.655 21.6154 27.111 22.4864C26.566 23.3574 25.84 24.1014 24.933 24.7184C24.062 25.2994 22.774 26.0254 21.068 26.8964C20.342 27.2954 19.58 27.7124 18.782 28.1484C18.019 28.5474 17.221 29.0014 16.386 29.5094C15.297 30.1984 14.535 30.7614 14.1 31.1964C13.701 31.6324 13.501 32.2314 13.501 32.9934V34.5174C13.501 34.7354 13.428 34.8984 13.283 35.0074C13.174 35.1164 13.029 35.1704 12.848 35.1704C12.666 35.1704 12.503 35.0984 12.358 34.9534C12.249 34.8444 12.194 34.6994 12.194 34.5174V32.3944C12.194 30.8704 12.793 29.4004 13.991 27.9844ZM108.007 23.0854C108.188 23.2304 108.279 23.4304 108.279 23.6844C108.279 23.9744 108.17 24.1744 107.953 24.2834C107.771 24.3914 107.517 24.5004 107.19 24.6094C106.029 24.9724 104.85 25.2814 103.652 25.5354C102.454 25.7894 101.438 25.9164 100.603 25.9164C99.152 25.9164 97.827 25.5894 96.629 24.9364C95.468 24.2464 94.524 23.3034 93.798 22.1054C93.109 20.9074 92.764 19.5464 92.764 18.0224C92.764 16.3534 93.018 14.8834 93.526 13.6134C94.071 12.3424 94.796 11.2544 95.704 10.3464C96.611 9.4034 97.7 8.6044 98.97 7.9514C99.696 7.6244 100.422 7.3164 101.148 7.0254C101.91 6.7354 102.672 6.5174 103.434 6.3724C105.539 5.8284 107.082 5.1744 108.061 4.4124C109.041 3.6144 109.858 2.7434 110.511 1.7994C110.656 1.5824 110.802 1.4004 110.947 1.2554C111.092 1.0734 111.219 0.983398 111.328 0.983398C111.473 0.983398 111.582 1.0194 111.654 1.0924C111.763 1.1284 111.836 1.2004 111.872 1.3094C111.945 1.3824 111.981 1.4914 111.981 1.6364C111.981 1.7454 111.945 1.8724 111.872 2.0174C111.836 2.1624 111.763 2.3444 111.654 2.5614C111.364 2.9974 110.91 3.5054 110.293 4.0864C109.713 4.6664 109.005 5.2474 108.17 5.8284C107.336 6.4084 106.446 6.8984 105.503 7.2984C104.233 7.9154 103.144 8.4414 102.236 8.8764C101.365 9.2764 100.567 9.7474 99.841 10.2924C99.079 10.8364 98.48 11.4354 98.045 12.0884C97.609 12.7414 97.264 13.5584 97.01 14.5384C96.793 15.5184 96.684 16.7344 96.684 18.1854C96.684 19.4924 97.101 20.6714 97.936 21.7244C98.771 22.7764 99.805 23.4124 101.039 23.6294L101.474 23.7384H101.964C102.472 23.7384 103.089 23.6844 103.815 23.5754C104.577 23.4304 105.267 23.2844 105.884 23.1394C106.211 23.0674 106.501 23.0124 106.755 22.9764C107.045 22.9034 107.263 22.8674 107.408 22.8674C107.662 22.8674 107.862 22.9404 108.007 23.0854ZM39.577 17.7504C39.94 17.3514 40.412 17.1514 40.993 17.1514C41.501 17.1514 41.936 17.3514 42.299 17.7504C42.698 18.1134 42.898 18.5674 42.898 19.1114C42.898 19.6194 42.698 20.0734 42.299 20.4724C41.936 20.8354 41.501 21.0164 40.993 21.0164C40.448 21.0164 39.976 20.8354 39.577 20.4724C39.214 20.0734 39.033 19.6194 39.033 19.1114C39.033 18.5674 39.214 18.1134 39.577 17.7504ZM11.541 37.5664C11.94 37.2034 12.394 37.0214 12.902 37.0214C13.41 37.0214 13.846 37.2034 14.209 37.5664C14.608 37.9654 14.807 38.4374 14.807 38.9814C14.807 39.4894 14.608 39.9254 14.209 40.2884C13.846 40.6874 13.41 40.8874 12.902 40.8874C12.394 40.8874 11.94 40.6874 11.541 40.2884C11.142 39.9254 10.942 39.4894 10.942 38.9814C10.942 38.4374 11.142 37.9654 11.541 37.5664Z" fill="black"/>
</svg>
