<svg width="113" height="40" viewBox="0 0 113 40" fill="none" xmlns="http://www.w3.org/2000/svg">
<path fill-rule="evenodd" clip-rule="evenodd" d="M70.927 28.5361C70.181 29.4861 69.367 30.346 68.484 31.126C67.577 31.886 66.525 32.5261 65.327 33.0361C64.129 33.5361 62.804 33.7959 61.353 33.7959C58.776 33.7959 56.635 33.1066 54.929 31.7266C53.26 30.3066 52.026 28.7667 51.227 27.0967C50.429 25.3967 50.03 24.1959 50.03 23.5059C50.03 23.1459 50.102 22.7966 50.247 22.4766C50.392 22.1066 50.61 21.8167 50.901 21.5967C51.227 21.3467 51.645 21.2158 52.153 21.2158C52.77 21.2158 53.26 21.3966 53.622 21.7666C53.985 22.1266 54.239 22.5466 54.385 23.0166V23.2363C54.421 23.2663 54.439 23.3265 54.439 23.3965C54.512 23.6565 54.548 23.8461 54.548 23.9961C54.584 24.1361 54.639 24.3367 54.711 24.5967C55.002 25.7967 55.383 26.896 55.854 27.916C56.362 28.936 57.07 29.7866 57.978 30.4766C58.885 31.1266 60.01 31.4561 61.353 31.4561C62.514 31.4561 63.548 31.2161 64.456 30.7461C65.399 30.2361 66.18 29.6363 66.797 28.9463C67.375 28.3363 67.826 27.7262 68.148 27.1162C68.18 27.0362 68.22 26.9667 68.266 26.8867C68.338 26.7267 68.414 26.5966 68.495 26.4766C69.111 25.2866 69.598 23.7963 69.954 21.9863C70.353 19.9463 70.626 17.8666 70.771 15.7266C70.807 15.2866 70.825 14.8864 70.825 14.5264C70.862 14.1264 70.88 13.7665 70.88 13.4365C70.88 12.2765 71.206 11.0363 71.86 9.73633C72.513 8.42633 73.493 7.31602 74.799 6.41602C76.142 5.50602 77.775 5.05664 79.699 5.05664C81.731 5.05664 83.455 5.48645 84.87 6.35645C86.322 7.22645 87.393 8.2866 88.082 9.5166C88.772 10.7466 89.117 11.9061 89.117 12.9961C89.117 13.3261 89.099 13.6566 89.062 13.9766C89.062 14.2666 89.044 14.5961 89.008 14.9561C88.935 16.7361 88.953 18.2661 89.062 19.5361C89.202 20.7161 89.561 21.9867 90.138 23.3467C90.215 23.4867 90.292 23.6264 90.369 23.7764C91.131 25.2664 92.056 26.5859 93.145 27.7559C94.27 28.9159 95.522 29.8364 96.902 30.5264C98.281 31.1864 99.696 31.5059 101.148 31.5059C101.837 31.5059 102.509 31.4765 103.162 31.3965C103.852 31.3265 104.559 31.1966 105.285 31.0166C106.011 30.8366 106.755 30.6066 107.517 30.3066C107.88 30.1666 108.188 30.0967 108.443 30.0967C108.697 30.0567 108.896 30.1866 109.041 30.4766C109.187 30.7666 109.15 31.0361 108.932 31.2861C108.715 31.5061 108.479 31.6764 108.225 31.7764C106.882 32.4364 105.612 32.9261 104.414 33.2461C103.253 33.5761 102.146 33.7363 101.093 33.7363C98.408 33.7363 96.121 33.2662 94.234 32.3262C92.383 31.3862 90.968 30.326 89.988 29.166C89.008 28.006 88.209 26.8663 87.592 25.7363C87.204 25.0263 86.96 24.4461 86.86 23.9961C86.151 22.1961 85.705 20.4162 85.524 18.6562C85.306 16.5563 85.197 14.146 85.197 11.416C85.197 10.256 84.762 9.18605 83.891 8.20605C83.019 7.19605 81.64 6.68652 79.753 6.68652C78.229 6.68652 77.013 7.19605 76.106 8.20605C75.235 9.18605 74.799 10.3661 74.799 11.7461C74.799 13.6361 74.727 15.4267 74.582 17.1367C74.436 18.8467 74.2 20.416 73.874 21.876C73.583 23.176 73.202 24.3966 72.731 25.5166C72.259 26.6066 71.678 27.5861 70.989 28.4561L70.927 28.5361ZM49.014 15.6865C48.957 15.6165 48.896 15.5363 48.832 15.4463L48.015 14.3066C46.418 12.0566 44.93 10.1863 43.551 8.69629C42.208 7.17629 40.92 6.41602 39.686 6.41602C38.634 6.41602 37.744 7.0266 37.019 8.2666C36.293 9.4966 35.766 11.1164 35.44 13.1064C35.113 15.0664 34.95 17.2061 34.95 19.5361C34.95 22.1061 35.204 24.2461 35.712 25.9561C36.256 27.6261 36.928 28.8562 37.726 29.6562C38.561 30.4162 39.396 30.7959 40.23 30.7959C41.755 30.7959 42.952 30.2964 43.823 29.2764C44.694 28.2564 45.348 27.1759 45.783 26.0059L45.947 25.7363C46.019 25.6263 46.11 25.516 46.219 25.416C46.328 25.266 46.455 25.1963 46.6 25.1963C46.89 25.1963 47.072 25.3066 47.144 25.5166C47.253 25.7366 47.271 25.9568 47.199 26.1768C46.654 28.7468 45.711 30.6763 44.368 31.9463C43.061 33.1763 41.483 33.7959 39.632 33.7959C37.817 33.7959 36.256 33.1567 34.95 31.8867C33.643 30.6167 32.645 28.9665 31.956 26.9365C31.302 24.9065 30.976 22.7461 30.976 20.4561C30.976 18.1361 31.321 15.7364 32.01 13.2764C32.736 10.8064 33.752 8.75621 35.059 7.11621C36.365 5.44621 37.89 4.61621 39.632 4.61621C40.612 4.61621 41.718 5.10594 42.952 6.08594C44.223 7.02594 45.475 8.22676 46.709 9.67676C47.943 11.0968 49.104 12.5865 50.193 14.1465L50.199 14.1562C50.271 14.2263 50.341 14.316 50.411 14.416C50.628 14.746 50.864 15.0863 51.118 15.4463C51.372 15.7763 51.663 16.1163 51.989 16.4863C52.969 17.5763 54.094 18.4665 55.365 19.1465C56.671 19.8365 58.086 20.1865 59.611 20.1865C61.317 20.1865 62.442 19.5867 62.986 18.3867C63.567 17.1867 63.857 15.526 63.857 13.376C63.857 11.816 63.567 10.2966 62.986 8.80664C62.442 7.31664 61.425 6.57617 59.937 6.57617C58.958 6.57617 58.032 7.02652 57.161 7.93652C56.29 8.80652 55.6 10.1666 55.092 12.0166C55.056 12.0966 55.02 12.1859 54.983 12.2959V12.5059C54.838 13.1959 54.639 13.7465 54.385 14.1465C54.131 14.5065 53.695 14.6865 53.078 14.6865C52.57 14.6865 52.171 14.5764 51.88 14.3564C51.626 14.1064 51.463 13.8163 51.39 13.4863C51.354 13.1663 51.336 12.8161 51.336 12.4561C51.445 11.6961 51.862 10.7264 52.588 9.56641C53.35 8.37641 54.366 7.33582 55.637 6.46582C56.907 5.55582 58.377 5.10645 60.046 5.10645C61.317 5.10645 62.514 5.43594 63.639 6.08594C64.801 6.70594 65.726 7.64602 66.416 8.91602C67.105 10.186 67.45 11.6965 67.45 13.4365C67.45 14.8865 67.178 16.2466 66.633 17.5166C66.125 18.7566 65.381 19.7862 64.401 20.6162C63.458 21.4562 62.369 21.9863 61.135 22.1963C60.954 22.2363 60.754 22.2766 60.536 22.3066H59.937C57.941 22.3066 56.018 21.6961 54.167 20.4561C52.316 19.2261 50.81 17.9161 49.648 16.5361C49.539 16.3961 49.449 16.2858 49.376 16.2158C49.304 16.1058 49.213 15.9762 49.104 15.8262C49.073 15.7762 49.043 15.7365 49.014 15.6865ZM13.991 27.0459C15.189 25.6259 17.13 24.2463 19.816 22.9062C22.102 21.7463 23.699 20.7166 24.606 19.8066C25.514 18.8566 25.967 17.8263 25.967 16.6963C25.967 16.0463 25.695 15.4866 25.151 15.0166C24.643 14.5466 24.026 14.3066 23.3 14.3066C22.393 14.3066 21.413 14.5261 20.36 14.9561C19.344 15.3961 17.947 16.0666 16.168 16.9766C14.063 18.0666 12.285 18.8966 10.833 19.4766C9.418 20.0266 8.003 20.2959 6.587 20.2959C5.535 20.2959 4.5 20.0068 3.484 19.4268C2.468 18.8468 1.633 18.0464 0.98 17.0264C0.327 15.9764 0 14.7765 0 13.4365C0 11.9465 0.327 10.6968 0.98 9.67676C1.633 8.66676 2.432 7.84656 3.375 7.22656C4.101 6.75656 4.754 6.32676 5.335 5.92676C5.916 5.52676 6.442 5.15594 6.914 4.83594C7.712 4.25594 8.275 3.87652 8.601 3.68652C8.928 3.50652 9.255 3.41602 9.581 3.41602C10.162 3.41602 10.652 3.6166 11.051 4.0166C11.487 4.3766 11.704 4.86633 11.704 5.48633C11.704 5.99633 11.414 6.4259 10.833 6.7959C10.289 7.1559 9.345 7.6466 8.003 8.2666C7.531 8.4466 7.041 8.66602 6.533 8.91602C6.061 9.13602 5.589 9.36598 5.117 9.62598C4.21 10.096 3.43 10.7166 2.776 11.4766C2.159 12.1966 1.851 13.0366 1.851 13.9766C1.851 14.6666 2.069 15.3963 2.504 16.1562C2.976 16.9162 3.738 17.2959 4.791 17.2959C5.589 17.2959 6.46 17.0963 7.404 16.6963C8.347 16.3063 9.599 15.6659 11.16 14.7959C13.338 13.6359 15.17 12.7665 16.658 12.1865C18.146 11.6065 19.671 11.3164 21.231 11.3164C22.683 11.3164 23.917 11.7059 24.933 12.5059C25.949 13.2759 26.693 14.2159 27.165 15.3359C27.673 16.4259 27.927 17.4259 27.927 18.3359C27.927 19.6059 27.655 20.6759 27.111 21.5459C26.566 22.4159 25.84 23.1664 24.933 23.7764C24.062 24.3564 22.774 25.0861 21.068 25.9561C20.342 26.3561 19.58 26.7761 18.782 27.2061C18.019 27.6061 17.221 28.0564 16.386 28.5664C15.297 29.2564 14.535 29.8159 14.1 30.2559C13.701 30.6959 13.501 31.2866 13.501 32.0566V33.5762C13.501 33.7962 13.428 33.9564 13.283 34.0664C13.174 34.1764 13.029 34.2266 12.848 34.2266C12.666 34.2266 12.503 34.1566 12.358 34.0166C12.249 33.9066 12.194 33.7562 12.194 33.5762V31.4561C12.194 29.9261 12.793 28.4559 13.991 27.0459ZM107.953 22.1465C108.134 22.2865 108.225 22.4861 108.225 22.7461C108.225 23.0361 108.116 23.2367 107.898 23.3467C107.717 23.4567 107.463 23.556 107.136 23.666C105.975 24.036 104.795 24.3367 103.597 24.5967C102.4 24.8467 101.384 24.9766 100.549 24.9766C99.097 24.9766 97.772 24.6461 96.575 23.9961C95.377 23.3061 94.434 22.366 93.744 21.166C93.054 19.966 92.71 18.6059 92.71 17.0859C92.71 15.4159 92.964 13.9468 93.472 12.6768C94.016 11.4068 94.742 10.3361 95.649 9.45605C96.557 8.55605 97.664 7.79676 98.97 7.17676C99.696 6.81676 100.44 6.50609 101.202 6.24609C101.964 5.95609 102.708 5.73668 103.434 5.59668C105.539 5.05668 107.082 4.37594 108.061 3.58594C109.078 2.78594 109.912 1.89602 110.566 0.916016C110.711 0.696016 110.856 0.516211 111.001 0.366211C111.183 0.186211 111.328 0.0966797 111.437 0.0966797C111.582 0.0966797 111.691 0.136055 111.763 0.206055C111.872 0.246055 111.945 0.316758 111.981 0.426758C112.054 0.496758 112.09 0.606094 112.09 0.746094C112.09 0.856094 112.054 0.986719 111.981 1.13672C111.945 1.27672 111.872 1.43598 111.763 1.62598C111.473 2.09598 111.019 2.61629 110.402 3.19629C109.822 3.77629 109.114 4.36629 108.279 4.94629C107.481 5.52629 106.61 6.01602 105.666 6.41602C104.396 7.02602 103.307 7.55633 102.4 7.98633C101.492 8.42633 100.658 8.91605 99.896 9.45605C99.097 10.0061 98.462 10.6059 97.99 11.2559C97.555 11.8759 97.21 12.6762 96.956 13.6562C96.738 14.6363 96.629 15.8261 96.629 17.2461C96.629 18.5561 97.047 19.7361 97.881 20.7861C98.716 21.8361 99.75 22.4765 100.984 22.6865C101.13 22.7265 101.275 22.7659 101.42 22.7959H101.91C102.418 22.7959 103.035 22.7467 103.761 22.6367C104.523 22.4867 105.212 22.3463 105.829 22.1963C106.156 22.1263 106.446 22.0761 106.7 22.0361C106.991 21.9661 107.209 21.9268 107.354 21.9268C107.608 21.9268 107.807 21.9965 107.953 22.1465ZM39.523 16.8066C39.886 16.4066 40.358 16.2158 40.938 16.2158C41.446 16.2158 41.882 16.4066 42.245 16.8066C42.644 17.1766 42.844 17.626 42.844 18.166C42.844 18.676 42.644 19.1361 42.245 19.5361C41.882 19.8961 41.446 20.0762 40.938 20.0762C40.394 20.0762 39.922 19.8961 39.523 19.5361C39.16 19.1361 38.978 18.676 38.978 18.166C38.978 17.626 39.16 17.1766 39.523 16.8066ZM11.541 36.626C11.94 36.266 12.394 36.0859 12.902 36.0859C13.41 36.0859 13.846 36.266 14.209 36.626C14.608 37.026 14.807 37.4959 14.807 38.0459C14.807 38.5459 14.608 38.9867 14.209 39.3467C13.846 39.7467 13.41 39.9463 12.902 39.9463C12.394 39.9463 11.94 39.7467 11.541 39.3467C11.142 38.9867 10.942 38.5459 10.942 38.0459C10.942 37.4959 11.142 37.026 11.541 36.626Z" fill="black"/>
</svg>
