<svg width="113" height="40" viewBox="0 0 113 40" fill="none" xmlns="http://www.w3.org/2000/svg">
<path fill-rule="evenodd" clip-rule="evenodd" d="M70.873 28.5361C70.127 29.4861 69.313 30.346 68.43 31.126C67.522 31.886 66.47 32.5261 65.272 33.0361C64.075 33.5361 62.75 33.7959 61.298 33.7959C58.722 33.7959 56.58 33.1066 54.875 31.7266C53.205 30.3066 51.971 28.7667 51.173 27.0967C50.374 25.3967 49.975 24.1959 49.975 23.5059C49.975 23.1459 50.048 22.7966 50.193 22.4766C50.338 22.1066 50.556 21.8167 50.846 21.5967C51.173 21.3467 51.59 21.2158 52.098 21.2158C52.715 21.2158 53.205 21.3966 53.568 21.7666C53.931 22.1266 54.185 22.5466 54.33 23.0166V23.2363C54.366 23.2663 54.385 23.3265 54.385 23.3965C54.457 23.6565 54.493 23.8461 54.493 23.9961C54.53 24.1361 54.584 24.3367 54.657 24.5967C54.947 25.7967 55.328 26.896 55.8 27.916C56.308 28.936 57.016 29.7866 57.923 30.4766C58.83 31.1266 59.956 31.4561 61.298 31.4561C62.46 31.4561 63.494 31.2161 64.401 30.7461C65.345 30.2361 66.125 29.6363 66.742 28.9463C67.321 28.3363 67.771 27.7262 68.094 27.1162C68.126 27.0462 68.165 26.9667 68.212 26.8867C68.284 26.7267 68.36 26.5966 68.44 26.4766C69.057 25.2866 69.543 23.7963 69.9 21.9863C70.299 19.9163 70.571 17.8266 70.716 15.7266C70.753 15.2866 70.771 14.8864 70.771 14.5264C70.807 14.1264 70.825 13.746 70.825 13.376C70.825 12.256 71.152 11.0363 71.805 9.73633C72.458 8.42633 73.438 7.31602 74.745 6.41602C76.088 5.50602 77.721 5.05664 79.644 5.05664C81.677 5.05664 83.401 5.48645 84.816 6.35645C86.268 7.22645 87.338 8.2866 88.028 9.5166C88.718 10.7466 89.062 11.9061 89.062 12.9961C89.062 13.3261 89.044 13.6566 89.008 13.9766C89.008 14.2666 88.99 14.5762 88.953 14.9062C88.881 16.7162 88.899 18.2661 89.008 19.5361C89.148 20.7161 89.506 21.9867 90.084 23.3467C90.161 23.4867 90.238 23.6264 90.314 23.7764C91.077 25.2664 92.002 26.5859 93.091 27.7559C94.216 28.9159 95.468 29.8364 96.847 30.5264C98.226 31.1864 99.642 31.5059 101.093 31.5059C101.783 31.5059 102.454 31.4765 103.108 31.3965C103.797 31.3265 104.505 31.1966 105.231 31.0166C105.956 30.8366 106.7 30.6066 107.463 30.3066C107.826 30.1666 108.134 30.0967 108.388 30.0967C108.642 30.0567 108.842 30.1866 108.987 30.4766C109.132 30.7666 109.096 31.0361 108.878 31.2861C108.66 31.5061 108.424 31.6764 108.17 31.7764C106.828 32.4364 105.557 32.9261 104.36 33.2461C103.198 33.5761 102.091 33.7363 101.039 33.7363C98.353 33.7363 96.067 33.2662 94.18 32.3262C92.329 31.3862 90.913 30.326 89.933 29.166C88.953 28.006 88.155 26.8663 87.538 25.7363C87.15 25.0263 86.906 24.4461 86.806 23.9961C86.096 22.1961 85.651 20.4162 85.469 18.6562C85.251 16.5162 85.143 14.106 85.143 11.416C85.143 10.256 84.707 9.18605 83.836 8.20605C82.965 7.19605 81.586 6.68652 79.699 6.68652C78.174 6.68652 76.959 7.19605 76.051 8.20605C75.18 9.18605 74.745 10.3661 74.745 11.7461C74.745 13.6361 74.672 15.4267 74.527 17.1367C74.382 18.8467 74.146 20.416 73.819 21.876C73.529 23.176 73.148 24.3966 72.676 25.5166C72.204 26.6066 71.624 27.5861 70.934 28.4561C70.914 28.4861 70.894 28.5061 70.873 28.5361ZM48.96 15.6865C48.902 15.6165 48.842 15.5363 48.777 15.4463L47.961 14.3066C46.364 12.0566 44.876 10.1863 43.497 8.69629C42.154 7.17629 40.866 6.41602 39.632 6.41602C38.579 6.41602 37.69 7.0266 36.964 8.2666C36.238 9.4966 35.712 11.1164 35.385 13.1064C35.059 15.0664 34.895 17.2061 34.895 19.5361C34.895 22.1061 35.15 24.2461 35.658 25.9561C36.202 27.6261 36.873 28.8562 37.672 29.6562C38.507 30.4162 39.341 30.7959 40.176 30.7959C41.7 30.7959 42.898 30.2964 43.769 29.2764C44.64 28.2264 45.293 27.1359 45.729 26.0059L45.892 25.7363C45.965 25.6263 46.055 25.516 46.164 25.416C46.273 25.266 46.4 25.1963 46.545 25.1963C46.836 25.1963 47.017 25.3066 47.09 25.5166C47.199 25.7366 47.217 25.9568 47.144 26.1768C46.6 28.7468 45.656 30.6763 44.313 31.9463C43.007 33.1763 41.428 33.7959 39.577 33.7959C37.763 33.7959 36.202 33.1567 34.895 31.8867C33.589 30.6167 32.591 28.9665 31.901 26.9365C31.248 24.9065 30.921 22.7461 30.921 20.4561C30.921 18.1361 31.266 15.7364 31.956 13.2764C32.682 10.8064 33.698 8.75621 35.004 7.11621C36.311 5.44621 37.835 4.61621 39.577 4.61621C40.557 4.61621 41.664 5.10594 42.898 6.08594C44.168 7.02594 45.42 8.22676 46.654 9.67676C47.888 11.0968 49.05 12.5865 50.138 14.1465L50.144 14.1562C50.216 14.2263 50.287 14.316 50.356 14.416C50.574 14.746 50.81 15.0863 51.064 15.4463C51.318 15.7763 51.608 16.1163 51.935 16.4863C52.915 17.5763 54.04 18.4665 55.31 19.1465C56.617 19.8365 58.032 20.1865 59.556 20.1865C61.262 20.1865 62.387 19.5867 62.932 18.3867C63.512 17.1867 63.803 15.526 63.803 13.376C63.803 11.816 63.53 10.2966 62.986 8.80664C62.442 7.31664 61.407 6.57617 59.883 6.57617C58.903 6.57617 57.978 7.02652 57.106 7.93652C56.272 8.80652 55.6 10.1666 55.092 12.0166C55.056 12.0966 55.02 12.1859 54.983 12.2959V12.5059C54.802 13.1959 54.584 13.7465 54.33 14.1465C54.112 14.5065 53.695 14.6865 53.078 14.6865C52.534 14.6865 52.134 14.5764 51.88 14.3564C51.626 14.1064 51.463 13.8359 51.39 13.5459C51.318 13.2159 51.282 12.8759 51.282 12.5059C51.39 11.7059 51.808 10.7264 52.534 9.56641C53.26 8.37641 54.258 7.31602 55.528 6.41602C56.834 5.50602 58.322 5.05664 59.992 5.05664C61.262 5.05664 62.46 5.37637 63.585 6.02637C64.746 6.64637 65.672 7.60602 66.361 8.91602C67.087 10.186 67.45 11.6965 67.45 13.4365C67.45 14.8865 67.178 16.2466 66.633 17.5166C66.089 18.7566 65.327 19.7862 64.347 20.6162C63.403 21.4562 62.315 21.9863 61.081 22.1963C60.899 22.2363 60.7 22.2766 60.482 22.3066H59.883C57.887 22.3066 55.963 21.6961 54.112 20.4561C52.262 19.2261 50.755 17.9161 49.594 16.5361C49.485 16.3961 49.394 16.2858 49.322 16.2158C49.249 16.1058 49.158 15.9762 49.05 15.8262C49.018 15.7762 48.988 15.7365 48.96 15.6865ZM13.991 27.0459C15.189 25.6259 17.13 24.2463 19.816 22.9062C22.102 21.7463 23.699 20.7166 24.606 19.8066C25.514 18.8566 25.967 17.8263 25.967 16.6963C25.967 16.0463 25.695 15.4866 25.151 15.0166C24.643 14.5466 24.026 14.3066 23.3 14.3066C22.393 14.3066 21.413 14.5261 20.36 14.9561C19.344 15.3961 17.947 16.0666 16.168 16.9766C14.063 18.0666 12.285 18.8966 10.833 19.4766C9.418 20.0266 8.003 20.2959 6.587 20.2959C5.535 20.2959 4.5 20.0068 3.484 19.4268C2.468 18.8468 1.633 18.0464 0.98 17.0264C0.327 15.9764 0 14.7765 0 13.4365C0 11.9465 0.327 10.6968 0.98 9.67676C1.633 8.66676 2.432 7.84656 3.375 7.22656C4.101 6.75656 4.754 6.32676 5.335 5.92676C5.916 5.52676 6.442 5.15594 6.914 4.83594C7.712 4.25594 8.275 3.87652 8.601 3.68652C8.928 3.50652 9.255 3.41602 9.581 3.41602C10.162 3.41602 10.652 3.6166 11.051 4.0166C11.487 4.3766 11.704 4.86633 11.704 5.48633C11.704 5.99633 11.414 6.4259 10.833 6.7959C10.289 7.1559 9.345 7.6466 8.003 8.2666C7.531 8.4466 7.041 8.66602 6.533 8.91602C6.061 9.13602 5.589 9.36598 5.117 9.62598C4.21 10.096 3.43 10.7166 2.776 11.4766C2.159 12.1966 1.851 13.0366 1.851 13.9766C1.851 14.6666 2.069 15.3963 2.504 16.1562C2.976 16.9162 3.738 17.2959 4.791 17.2959C5.589 17.2959 6.46 17.0963 7.404 16.6963C8.347 16.3063 9.599 15.6659 11.16 14.7959C13.338 13.6359 15.17 12.7665 16.658 12.1865C18.146 11.6065 19.671 11.3164 21.231 11.3164C22.683 11.3164 23.917 11.7059 24.933 12.5059C25.949 13.2759 26.693 14.2159 27.165 15.3359C27.673 16.4259 27.927 17.4259 27.927 18.3359C27.927 19.6059 27.655 20.6759 27.111 21.5459C26.566 22.4159 25.84 23.1664 24.933 23.7764C24.062 24.3564 22.774 25.0861 21.068 25.9561C20.342 26.3561 19.58 26.7761 18.782 27.2061C18.019 27.6061 17.221 28.0564 16.386 28.5664C15.297 29.2564 14.535 29.8159 14.1 30.2559C13.701 30.6959 13.501 31.2866 13.501 32.0566V33.5762C13.501 33.7962 13.428 33.9564 13.283 34.0664C13.174 34.1764 13.029 34.2266 12.848 34.2266C12.666 34.2266 12.503 34.1566 12.358 34.0166C12.249 33.9066 12.194 33.7562 12.194 33.5762V31.4561C12.194 29.9261 12.793 28.4559 13.991 27.0459ZM107.844 22.1963C108.025 22.3463 108.116 22.5459 108.116 22.7959C108.116 23.0859 108.007 23.2865 107.789 23.3965C107.608 23.5065 107.354 23.6166 107.027 23.7266C105.866 24.0866 104.686 24.3965 103.489 24.6465C102.291 24.9065 101.275 25.0264 100.44 25.0264C98.988 25.0264 97.664 24.7059 96.466 24.0459C95.305 23.3559 94.361 22.4158 93.635 21.2158C92.946 20.0258 92.601 18.6567 92.601 17.1367C92.601 15.4267 92.873 13.9566 93.417 12.7266C93.962 11.4566 94.688 10.3866 95.595 9.5166C96.539 8.6466 97.682 7.89613 99.025 7.28613C99.75 6.95613 100.476 6.66602 101.202 6.41602C101.964 6.12602 102.726 5.88605 103.489 5.70605C105.557 5.15605 107.1 4.48652 108.116 3.68652C109.132 2.89652 109.985 2.00637 110.675 1.02637C110.82 0.766367 110.965 0.566758 111.11 0.426758C111.292 0.246758 111.437 0.15625 111.546 0.15625C111.691 0.15625 111.8 0.185859 111.872 0.255859C111.981 0.295859 112.054 0.366563 112.09 0.476562C112.163 0.546563 112.199 0.656641 112.199 0.806641C112.199 0.916641 112.163 1.03652 112.09 1.18652C112.054 1.33652 111.981 1.49676 111.872 1.67676C111.582 2.14676 111.128 2.67586 110.511 3.25586C109.931 3.83586 109.223 4.41609 108.388 4.99609C107.59 5.57609 106.737 6.06582 105.829 6.46582C104.559 7.11582 103.452 7.66668 102.509 8.09668C101.601 8.53668 100.748 9.02641 99.95 9.56641C99.115 10.0764 98.462 10.6564 97.99 11.3164C97.518 11.9264 97.156 12.7261 96.902 13.7061C96.647 14.6461 96.52 15.8459 96.52 17.2959C96.52 18.6059 96.938 19.7859 97.772 20.8359C98.607 21.8859 99.642 22.5261 100.876 22.7461C101.021 22.7761 101.166 22.8164 101.311 22.8564H101.801C102.309 22.8564 102.926 22.7965 103.652 22.6865C104.414 22.5465 105.104 22.3959 105.721 22.2559C106.047 22.1859 106.338 22.1259 106.592 22.0859C106.882 22.0159 107.1 21.9863 107.245 21.9863C107.499 21.9863 107.699 22.0563 107.844 22.1963ZM39.468 16.8066C39.831 16.4066 40.303 16.2158 40.884 16.2158C41.392 16.2158 41.827 16.4066 42.19 16.8066C42.59 17.1766 42.789 17.626 42.789 18.166C42.789 18.676 42.59 19.1361 42.19 19.5361C41.827 19.8961 41.392 20.0762 40.884 20.0762C40.339 20.0762 39.868 19.8961 39.468 19.5361C39.105 19.1361 38.924 18.676 38.924 18.166C38.924 17.626 39.105 17.1766 39.468 16.8066ZM11.541 36.626C11.94 36.266 12.394 36.0859 12.902 36.0859C13.41 36.0859 13.846 36.266 14.209 36.626C14.608 37.026 14.807 37.4959 14.807 38.0459C14.807 38.5459 14.608 38.9867 14.209 39.3467C13.846 39.7467 13.41 39.9463 12.902 39.9463C12.394 39.9463 11.94 39.7467 11.541 39.3467C11.142 38.9867 10.942 38.5459 10.942 38.0459C10.942 37.4959 11.142 37.026 11.541 36.626Z" fill="black"/>
</svg>
