<svg width="113" height="40" viewBox="0 0 113 40" fill="none" xmlns="http://www.w3.org/2000/svg">
<path fill-rule="evenodd" clip-rule="evenodd" d="M70.873 28.5361C70.127 29.4861 69.313 30.346 68.43 31.126C67.522 31.886 66.47 32.5261 65.272 33.0361C64.075 33.5361 62.75 33.7959 61.298 33.7959C58.722 33.7959 56.58 33.1066 54.875 31.7266C53.205 30.3066 51.971 28.7667 51.173 27.0967C50.374 25.3967 49.975 24.1959 49.975 23.5059C49.975 23.1459 50.048 22.7966 50.193 22.4766C50.338 22.1066 50.556 21.8167 50.846 21.5967C51.173 21.3467 51.59 21.2158 52.098 21.2158C52.715 21.2158 53.205 21.3966 53.568 21.7666C53.931 22.1266 54.185 22.5466 54.33 23.0166V23.2363C54.366 23.2663 54.385 23.3265 54.385 23.3965C54.457 23.6565 54.493 23.8461 54.493 23.9961C54.53 24.1361 54.584 24.3367 54.657 24.5967C54.947 25.7967 55.328 26.896 55.8 27.916C56.308 28.936 57.016 29.7866 57.923 30.4766C58.83 31.1266 59.956 31.4561 61.298 31.4561C62.46 31.4561 63.494 31.2161 64.401 30.7461C65.345 30.2361 66.125 29.6363 66.742 28.9463C67.321 28.3363 67.771 27.7262 68.094 27.1162C68.126 27.0462 68.165 26.9667 68.212 26.8867C68.284 26.7267 68.36 26.5966 68.44 26.4766C69.057 25.2866 69.543 23.7963 69.9 21.9863C70.299 19.9163 70.571 17.8266 70.716 15.7266C70.753 15.2866 70.771 14.8864 70.771 14.5264C70.807 14.1264 70.825 13.746 70.825 13.376C70.825 12.216 71.152 10.9868 71.805 9.67676C72.458 8.37676 73.438 7.26645 74.745 6.35645C76.088 5.44645 77.721 4.99609 79.644 4.99609C81.677 4.99609 83.382 5.44645 84.762 6.35645C86.177 7.22645 87.23 8.2866 87.919 9.5166C88.609 10.7466 88.953 11.9061 88.953 12.9961V13.9268C88.953 14.2168 88.935 14.5462 88.899 14.9062C88.826 16.6862 88.845 18.2066 88.953 19.4766C89.092 20.6966 89.464 21.9662 90.067 23.3262C90.15 23.4562 90.232 23.6164 90.314 23.7764C91.077 25.2664 92.002 26.5859 93.091 27.7559C94.216 28.9159 95.468 29.8364 96.847 30.5264C98.226 31.1864 99.642 31.5059 101.093 31.5059C101.783 31.5059 102.454 31.4765 103.108 31.3965C103.797 31.3265 104.505 31.1966 105.231 31.0166C105.956 30.8366 106.7 30.6066 107.463 30.3066C107.826 30.1666 108.134 30.0967 108.388 30.0967C108.642 30.0567 108.842 30.1866 108.987 30.4766C109.132 30.7666 109.096 31.0361 108.878 31.2861C108.66 31.5061 108.424 31.6764 108.17 31.7764C106.828 32.4364 105.557 32.9261 104.36 33.2461C103.198 33.5761 102.091 33.7363 101.039 33.7363C98.353 33.7363 96.067 33.2662 94.18 32.3262C92.329 31.3862 90.913 30.326 89.933 29.166C88.953 28.006 88.155 26.8663 87.538 25.7363C87.152 25.0263 86.909 24.4559 86.808 24.0059C86.091 22.1959 85.627 20.4162 85.415 18.6562C85.197 16.5162 85.088 14.106 85.088 11.416C85.088 10.256 84.653 9.16625 83.782 8.15625C82.911 7.13625 81.531 6.62598 79.644 6.62598C78.156 6.62598 76.959 7.13625 76.051 8.15625C75.144 9.13625 74.69 10.3163 74.69 11.6963C74.69 13.6163 74.618 15.4267 74.473 17.1367C74.327 18.8067 74.092 20.386 73.765 21.876C73.475 23.176 73.094 24.3966 72.622 25.5166C72.186 26.6066 71.624 27.5861 70.934 28.4561C70.914 28.4861 70.894 28.5061 70.873 28.5361ZM48.96 15.6865C48.902 15.6165 48.842 15.5363 48.777 15.4463L47.961 14.3066C46.364 12.0566 44.876 10.1863 43.497 8.69629C42.154 7.17629 40.866 6.41602 39.632 6.41602C38.579 6.41602 37.69 7.0266 36.964 8.2666C36.238 9.4966 35.712 11.1164 35.385 13.1064C35.059 15.0664 34.895 17.2061 34.895 19.5361C34.895 22.1061 35.15 24.2461 35.658 25.9561C36.166 27.6261 36.819 28.8562 37.617 29.6562C38.416 30.4162 39.251 30.7959 40.122 30.7959C41.61 30.7959 42.789 30.2964 43.66 29.2764C44.567 28.2264 45.239 27.1359 45.674 26.0059L45.783 25.7363C45.856 25.6263 45.947 25.516 46.055 25.416C46.164 25.266 46.291 25.1963 46.437 25.1963C46.727 25.1963 46.908 25.3066 46.981 25.5166C47.09 25.7366 47.108 25.9568 47.035 26.1768C46.491 28.7168 45.566 30.6167 44.259 31.8867C42.952 33.1567 41.392 33.7959 39.577 33.7959C37.763 33.7959 36.202 33.1567 34.895 31.8867C33.589 30.6167 32.591 28.9665 31.901 26.9365C31.248 24.9065 30.921 22.7461 30.921 20.4561C30.921 18.1361 31.266 15.7364 31.956 13.2764C32.682 10.8064 33.698 8.75621 35.004 7.11621C36.311 5.44621 37.835 4.61621 39.577 4.61621C40.557 4.61621 41.664 5.10594 42.898 6.08594C44.168 7.02594 45.42 8.22676 46.654 9.67676C47.888 11.0968 49.05 12.5865 50.138 14.1465L50.144 14.1562C50.216 14.2263 50.287 14.316 50.356 14.416C50.574 14.746 50.81 15.0863 51.064 15.4463C51.318 15.7763 51.608 16.1163 51.935 16.4863C52.915 17.5763 54.04 18.4665 55.31 19.1465C56.617 19.8365 58.032 20.1865 59.556 20.1865C61.226 20.1865 62.351 19.5867 62.932 18.3867C63.512 17.1867 63.803 15.526 63.803 13.376C63.803 11.816 63.512 10.2966 62.932 8.80664C62.387 7.31664 61.371 6.57617 59.883 6.57617C58.903 6.57617 57.978 7.02652 57.106 7.93652C56.236 8.80652 55.546 10.1666 55.038 12.0166C55.002 12.0966 54.965 12.1859 54.929 12.2959V12.5059C54.784 13.1959 54.584 13.7465 54.33 14.1465C54.076 14.5465 53.641 14.7461 53.024 14.7461C52.516 14.7461 52.116 14.636 51.826 14.416C51.572 14.156 51.409 13.8659 51.336 13.5459C51.263 13.2159 51.245 12.8759 51.282 12.5059C51.354 11.7459 51.753 10.7664 52.479 9.56641C53.205 8.37641 54.203 7.31602 55.473 6.41602C56.78 5.50602 58.286 5.05664 59.992 5.05664C61.262 5.05664 62.46 5.37637 63.585 6.02637C64.71 6.64637 65.617 7.59621 66.307 8.86621C67.033 10.1362 67.396 11.6565 67.396 13.4365C67.396 14.8865 67.123 16.2466 66.579 17.5166C66.035 18.7566 65.272 19.7862 64.293 20.6162C63.349 21.4562 62.278 21.9863 61.081 22.1963C60.899 22.2363 60.7 22.2766 60.482 22.3066H59.883C57.887 22.3066 55.963 21.6961 54.112 20.4561C52.262 19.2261 50.755 17.9161 49.594 16.5361C49.485 16.3961 49.394 16.2858 49.322 16.2158C49.249 16.1058 49.158 15.9762 49.05 15.8262C49.018 15.7762 48.988 15.7365 48.96 15.6865ZM13.991 27.0459C15.189 25.6259 17.13 24.2463 19.816 22.9062C22.102 21.7463 23.699 20.7166 24.606 19.8066C25.514 18.8566 25.967 17.8263 25.967 16.6963C25.967 16.0463 25.695 15.4866 25.151 15.0166C24.643 14.5466 24.026 14.3066 23.3 14.3066C22.393 14.3066 21.413 14.5261 20.36 14.9561C19.344 15.3961 17.947 16.0666 16.168 16.9766C14.063 18.0666 12.285 18.8966 10.833 19.4766C9.418 20.0266 8.003 20.2959 6.587 20.2959C5.535 20.2959 4.5 20.0068 3.484 19.4268C2.468 18.8468 1.633 18.0464 0.98 17.0264C0.327 15.9764 0 14.7765 0 13.4365C0 11.9465 0.327 10.6968 0.98 9.67676C1.633 8.66676 2.432 7.84656 3.375 7.22656C4.101 6.75656 4.754 6.32676 5.335 5.92676C5.916 5.52676 6.442 5.15594 6.914 4.83594C7.712 4.25594 8.275 3.87652 8.601 3.68652C8.928 3.50652 9.255 3.41602 9.581 3.41602C10.162 3.41602 10.652 3.6166 11.051 4.0166C11.487 4.3766 11.704 4.86633 11.704 5.48633C11.704 5.99633 11.414 6.4259 10.833 6.7959C10.289 7.1559 9.345 7.6466 8.003 8.2666C7.531 8.4466 7.041 8.66602 6.533 8.91602C6.061 9.13602 5.589 9.36598 5.117 9.62598C4.21 10.096 3.43 10.7166 2.776 11.4766C2.159 12.1966 1.851 13.0366 1.851 13.9766C1.851 14.6666 2.069 15.3963 2.504 16.1562C2.976 16.9162 3.738 17.2959 4.791 17.2959C5.589 17.2959 6.46 17.0963 7.404 16.6963C8.347 16.3063 9.599 15.6659 11.16 14.7959C13.338 13.6359 15.17 12.7665 16.658 12.1865C18.146 11.6065 19.671 11.3164 21.231 11.3164C22.683 11.3164 23.917 11.7059 24.933 12.5059C25.949 13.2759 26.693 14.2159 27.165 15.3359C27.673 16.4259 27.927 17.4259 27.927 18.3359C27.927 19.6059 27.655 20.6759 27.111 21.5459C26.566 22.4159 25.84 23.1664 24.933 23.7764C24.062 24.3564 22.774 25.0861 21.068 25.9561C20.342 26.3561 19.58 26.7761 18.782 27.2061C18.019 27.6061 17.221 28.0564 16.386 28.5664C15.297 29.2564 14.535 29.8159 14.1 30.2559C13.701 30.6959 13.501 31.2866 13.501 32.0566V33.5762C13.501 33.7962 13.428 33.9564 13.283 34.0664C13.174 34.1764 13.029 34.2266 12.848 34.2266C12.666 34.2266 12.503 34.1566 12.358 34.0166C12.249 33.9066 12.194 33.7562 12.194 33.5762V31.4561C12.194 29.9261 12.793 28.4559 13.991 27.0459ZM107.789 22.1963C107.971 22.3463 108.061 22.5459 108.061 22.7959C108.061 23.0859 107.953 23.2865 107.735 23.3965C107.553 23.5065 107.299 23.6166 106.973 23.7266C105.811 24.0866 104.632 24.3965 103.434 24.6465C102.236 24.9065 101.22 25.0264 100.386 25.0264C98.934 25.0264 97.609 24.7059 96.412 24.0459C95.214 23.3559 94.27 22.4158 93.581 21.2158C92.891 20.0258 92.546 18.6567 92.546 17.1367C92.546 15.4667 92.819 14.0161 93.363 12.7861C93.907 11.5161 94.633 10.4364 95.54 9.56641C96.484 8.69641 97.646 7.97648 99.025 7.39648C99.75 7.06648 100.494 6.7766 101.257 6.5166C102.019 6.2666 102.763 6.04621 103.489 5.86621C105.594 5.28621 107.154 4.5959 108.17 3.7959C109.187 2.9659 110.039 2.05617 110.729 1.07617C110.91 0.826172 111.074 0.626563 111.219 0.476562C111.4 0.296562 111.546 0.206055 111.654 0.206055C111.8 0.206055 111.908 0.246406 111.981 0.316406C112.09 0.356406 112.163 0.426133 112.199 0.536133C112.271 0.606133 112.308 0.716445 112.308 0.856445C112.308 0.966445 112.271 1.09633 112.199 1.23633C112.163 1.38633 112.09 1.54656 111.981 1.72656C111.691 2.20656 111.255 2.72664 110.675 3.30664C110.094 3.88664 109.386 4.46664 108.551 5.05664C107.753 5.63664 106.9 6.13617 105.993 6.57617C104.723 7.19617 103.616 7.73605 102.672 8.20605C101.728 8.64605 100.821 9.13676 99.95 9.67676C99.079 10.1868 98.408 10.7462 97.936 11.3662C97.464 11.9862 97.101 12.7866 96.847 13.7666C96.593 14.7066 96.466 15.8859 96.466 17.2959C96.466 18.6059 96.883 19.7859 97.718 20.8359C98.553 21.8859 99.587 22.5261 100.821 22.7461C100.966 22.7761 101.111 22.8164 101.257 22.8564H101.747C102.255 22.8564 102.872 22.7965 103.597 22.6865C104.36 22.5465 105.049 22.3959 105.666 22.2559C105.993 22.1859 106.283 22.1259 106.537 22.0859C106.828 22.0159 107.045 21.9863 107.19 21.9863C107.444 21.9863 107.644 22.0563 107.789 22.1963ZM39.468 16.8066C39.831 16.4066 40.303 16.2158 40.884 16.2158C41.392 16.2158 41.827 16.4066 42.19 16.8066C42.59 17.1766 42.789 17.626 42.789 18.166C42.789 18.676 42.59 19.1361 42.19 19.5361C41.827 19.8961 41.392 20.0762 40.884 20.0762C40.339 20.0762 39.868 19.8961 39.468 19.5361C39.105 19.1361 38.924 18.676 38.924 18.166C38.924 17.626 39.105 17.1766 39.468 16.8066ZM11.541 36.626C11.94 36.266 12.394 36.0859 12.902 36.0859C13.41 36.0859 13.846 36.266 14.209 36.626C14.608 37.026 14.807 37.4959 14.807 38.0459C14.807 38.5459 14.608 38.9867 14.209 39.3467C13.846 39.7467 13.41 39.9463 12.902 39.9463C12.394 39.9463 11.94 39.7467 11.541 39.3467C11.142 38.9867 10.942 38.5459 10.942 38.0459C10.942 37.4959 11.142 37.026 11.541 36.626Z" fill="black"/>
</svg>
