<svg width="139" height="41" viewBox="0 0 139 41" fill="none" xmlns="http://www.w3.org/2000/svg">
<path fill-rule="evenodd" clip-rule="evenodd" d="M4.355 14.1741L0.762 14.6101C0.544 13.7751 0.363 13.0491 0.218 12.4321C0.073 11.8151 0 10.9621 0 9.87311L1.96 9.2201C2.504 9.0021 3.303 8.82109 4.355 8.67609V5.08313L6.642 4.8111C7.113 4.7741 7.458 4.73809 7.676 4.70209C7.93 4.62909 8.275 4.59308 8.71 4.59308V1.00013C9.581 0.964126 10.253 0.964126 10.725 1.00013C11.233 1.00013 11.922 1.05409 12.793 1.16309C12.83 2.03409 12.83 2.72412 12.793 3.23212C12.757 3.70412 12.684 4.35708 12.575 5.19208L8.71 5.35511V8.89411C7.803 8.96611 7.059 9.03909 6.478 9.11109C5.934 9.18409 5.226 9.23809 4.355 9.27509V10.4181C4.246 10.7811 4.137 11.0891 4.028 11.3431C3.956 11.5971 3.92 11.9601 3.92 12.4321C3.92 12.8681 3.956 13.1941 4.028 13.4121C4.137 13.6301 4.246 13.8841 4.355 14.1741ZM4.355 14.1741C5.807 14.2101 6.95 14.1921 7.785 14.1201C8.656 14.0111 9.908 13.8661 11.541 13.6841L13.065 13.5211V9.98212C13.9 9.94612 14.59 9.8921 15.134 9.8191C15.715 9.7461 16.477 9.69213 17.421 9.65613V6.06311C19.235 5.99011 20.687 5.95411 21.776 5.95411C22.864 5.95411 24.316 6.0991 26.131 6.3891V9.98212L29.724 9.9281C29.76 10.7631 29.796 11.4341 29.833 11.9421C29.905 12.4501 29.96 13.1581 29.996 14.0651H26.403C26.439 14.9731 26.457 15.6981 26.457 16.2431C26.457 16.7871 26.421 17.5131 26.349 18.4201H22.81C22.737 19.3281 22.61 20.0541 22.429 20.5981C22.247 21.1421 22.048 21.8681 21.83 22.7761H18.292C18.219 22.9571 18.146 23.1021 18.074 23.2111C18.038 23.2841 17.983 23.4111 17.91 23.5921C17.511 24.4271 17.203 25.0801 16.985 25.5521C16.804 25.9871 16.713 26.6041 16.713 27.4031V31.3771C16.132 31.4491 15.66 31.5041 15.297 31.5401C14.971 31.5401 14.644 31.5221 14.318 31.4861C13.991 31.4491 13.519 31.4131 12.902 31.3771V28.2741C12.902 27.1491 12.957 26.2961 13.065 25.7151C13.174 25.0981 13.319 24.2641 13.501 23.2111L13.555 22.7761H17.094C17.203 22.1951 17.312 21.7591 17.421 21.4691C17.529 21.1421 17.656 20.6891 17.802 20.1081C17.91 19.7451 18.019 19.4731 18.128 19.2911C18.237 19.0741 18.346 18.7831 18.455 18.4201H21.993C22.175 17.5131 22.302 16.8051 22.374 16.2971C22.483 15.7891 22.538 15.0451 22.538 14.0651H26.131V10.4721H23.844C23.373 10.3631 22.955 10.2731 22.592 10.2001C22.266 10.0911 21.794 10.0371 21.177 10.0371C20.451 10.0371 19.852 10.0731 19.38 10.1461C18.909 10.2181 18.255 10.3091 17.421 10.4181V14.0111L13.065 14.3921V17.9851C11.178 18.1301 9.708 18.2211 8.656 18.2571C7.603 18.2931 6.17 18.2751 4.355 18.2031V14.1741ZM47.961 35.8411L48.451 39.4341C46.672 39.7601 45.184 39.9961 43.987 40.1421C42.825 40.2871 41.228 40.3231 39.196 40.2501V36.2221C40.539 36.3311 41.61 36.4031 42.408 36.4401C43.243 36.4401 44.041 36.4031 44.803 36.3311C45.602 36.2221 46.654 36.0591 47.961 35.8411ZM38.38 14.0651H34.841L34.569 10.7991C34.533 9.89214 34.587 8.98409 34.732 8.07709C34.877 7.13309 35.168 5.97208 35.603 4.59308L39.196 4.92011C39.015 6.26211 38.888 7.3511 38.815 8.1861C38.779 9.0211 38.797 9.87308 38.87 10.7441C38.978 11.5791 39.142 12.6861 39.359 14.0651H42.952C43.061 14.9361 43.188 15.6441 43.334 16.1881C43.515 16.7331 43.696 17.4771 43.878 18.4201H47.471C47.58 19.3281 47.689 20.0541 47.798 20.5981C47.943 21.1061 48.088 21.8321 48.233 22.7761H51.772C52.026 25.4251 52.189 27.5661 52.262 29.1991C52.334 30.7961 52.262 33.0101 52.044 35.8411H47.961C48.142 33.0461 48.142 30.8511 47.961 29.2541C47.816 27.6571 47.58 25.4971 47.253 22.7761H43.66C43.588 22.3041 43.497 21.9231 43.388 21.6321C43.315 21.3421 43.225 20.9431 43.116 20.4351C43.043 20.0351 42.971 19.7091 42.898 19.4551C42.825 19.2011 42.753 18.8561 42.68 18.4201H39.087C38.906 17.4771 38.761 16.7511 38.652 16.2431C38.543 15.6981 38.452 14.9731 38.38 14.0651ZM39.196 4.92011V1.05408C41.047 0.945081 42.517 0.909133 43.606 0.945133C44.694 0.945133 46.128 0.964126 47.906 1.00013V4.59308C48.814 4.62908 49.503 4.68411 49.975 4.75611C50.483 4.79211 51.136 4.84711 51.935 4.92011V9.27509C51.971 10.3271 51.989 11.7611 51.989 13.5751C51.409 13.6481 50.937 13.7021 50.574 13.7391H49.539C49.213 13.7021 48.741 13.6661 48.124 13.6301C48.088 12.5771 48.051 11.7791 48.015 11.2341C47.979 10.6541 47.943 9.87311 47.906 8.89411V5.68213C46.6 5.35513 45.547 5.11912 44.749 4.97412C43.987 4.82912 43.206 4.75611 42.408 4.75611C41.61 4.75611 40.539 4.81111 39.196 4.92011ZM39.196 36.2221L35.603 36.7121C35.313 35.8771 35.077 35.2241 34.895 34.7521C34.714 34.2801 34.623 33.5911 34.623 32.6831L34.569 30.6151V27.4571C35.15 27.4211 35.603 27.3851 35.93 27.3481C36.293 27.3121 36.638 27.3121 36.964 27.3481C37.327 27.3481 37.799 27.3851 38.38 27.4571L38.434 28.2741C38.507 30.0161 38.597 31.3771 38.706 32.3571C38.851 33.3371 39.015 34.6251 39.196 36.2221ZM69.519 35.8411C69.591 35.1151 69.646 34.5521 69.682 34.1531C69.718 33.7181 69.754 33.1551 69.791 32.4661V31.7041C70.408 31.6311 70.88 31.5951 71.206 31.5951C71.569 31.5951 71.914 31.6131 72.241 31.6491C72.567 31.6851 73.021 31.7401 73.602 31.8121C73.602 32.6831 73.583 33.3551 73.547 33.8271C73.511 34.2981 73.475 34.9701 73.438 35.8411H69.519ZM61.081 35.8411C62.315 35.9501 63.294 36.0591 64.02 36.1681C64.782 36.2401 65.545 36.2581 66.307 36.2221C67.105 36.1491 68.176 36.0221 69.519 35.8411L69.9 39.4341C68.557 39.7971 67.414 40.0511 66.47 40.1961C65.563 40.3411 64.637 40.3411 63.694 40.1961C62.786 40.0511 61.643 39.7971 60.264 39.4341L61.081 35.8411ZM61.353 14.0651C61.135 17.1861 60.954 19.7271 60.808 21.6871C60.7 23.6471 60.663 25.6611 60.7 27.7291C60.736 29.7621 60.863 32.4661 61.081 35.8411H56.671C56.417 32.3571 56.29 29.5991 56.29 27.5661C56.326 25.5341 56.435 23.5741 56.617 21.6871C56.834 19.7631 57.07 17.2231 57.324 14.0651H61.353ZM61.353 14.0651L60.917 10.4721C62.696 10.3631 64.057 10.2911 65 10.2551C65.98 10.1821 67.323 10.1461 69.029 10.1461C69.246 10.9441 69.41 11.5791 69.519 12.0511C69.628 12.5231 69.7 13.1941 69.736 14.0651H73.329C73.402 14.9731 73.438 15.7171 73.438 16.2971C73.475 16.8421 73.493 17.6041 73.493 18.5841V18.9101C72.912 18.9471 72.458 18.9831 72.132 19.0191C71.805 19.0561 71.46 19.0741 71.097 19.0741C70.771 19.0371 70.299 18.9831 69.682 18.9101C69.646 18.7651 69.628 18.6381 69.628 18.5291V18.1481C69.555 17.2051 69.464 16.4791 69.355 15.9711L69.083 14.0651H66.252C65.164 13.9931 64.329 13.9751 63.748 14.0111C63.167 14.0111 62.369 14.0291 61.353 14.0651ZM91.022 35.8411C91.095 34.9701 91.149 34.2441 91.185 33.6631C91.258 33.0831 91.312 32.3571 91.349 31.4861C91.929 31.4131 92.383 31.3771 92.71 31.3771C93.073 31.3771 93.417 31.3951 93.744 31.4311C94.071 31.4681 94.524 31.5041 95.105 31.5401C95.105 32.4481 95.087 33.1731 95.051 33.7181C95.014 34.2621 94.978 34.9701 94.942 35.8411H91.022ZM82.421 35.8411C83.655 35.9501 84.653 36.0591 85.415 36.1681C86.213 36.2401 87.012 36.2581 87.81 36.2221C88.609 36.1491 89.679 36.0221 91.022 35.8411L91.349 39.4341C90.006 39.7971 88.863 40.0511 87.919 40.1961C87.012 40.3411 86.068 40.3411 85.088 40.1961C84.145 40.0511 82.983 39.7971 81.604 39.4341L82.421 35.8411ZM82.693 14.0651C82.439 17.1861 82.239 19.7271 82.094 21.6871C82.07 22.0151 82.048 22.3441 82.029 22.6741C82.443 22.7441 82.755 22.8141 82.965 22.8841C83.219 22.9211 83.582 22.9391 84.054 22.9391H89.552C89.843 22.9031 90.26 22.8481 90.804 22.7761V21.4151C90.841 21.0521 90.859 20.5981 90.859 20.0541V19.6721C90.859 18.4021 90.822 17.4221 90.75 16.7331C90.714 16.0431 90.623 15.1541 90.478 14.0651H87.701C86.576 13.9931 85.705 13.9751 85.088 14.0111C84.507 14.0111 83.709 14.0291 82.693 14.0651L82.149 10.4721C83.927 10.3271 85.27 10.2361 86.177 10.2001C87.121 10.1641 88.463 10.1461 90.206 10.1461C90.351 10.9441 90.496 11.5791 90.641 12.0511C90.822 12.5231 90.968 13.1941 91.077 14.0651H94.615C94.833 15.8801 94.978 17.3131 95.051 18.3661C95.123 19.4181 95.159 20.8881 95.159 22.7761C95.159 23.7191 95.141 24.4271 95.105 24.8991C95.069 25.3701 94.996 26.0061 94.887 26.8041H86.068C85.088 26.8041 84.362 26.8401 83.891 26.9131C83.419 26.9851 82.766 27.0761 81.931 27.1851V25.2741C81.916 26.0841 81.916 26.9021 81.931 27.7291C81.967 29.7621 82.13 32.4661 82.421 35.8411H78.066C77.812 32.3931 77.666 29.6531 77.63 27.6211C77.63 25.5881 77.721 23.6101 77.902 21.6871C78.084 19.7631 78.302 17.2231 78.556 14.0651H82.693ZM134.41 35.8411C134.483 34.9701 134.537 34.2441 134.573 33.6631C134.646 33.0831 134.7 32.3571 134.737 31.4861C135.354 31.4131 135.825 31.3771 136.152 31.3771C136.479 31.3771 136.805 31.3951 137.132 31.4311C137.495 31.4681 137.967 31.5041 138.547 31.5401C138.511 32.4481 138.475 33.1731 138.438 33.7181C138.402 34.2621 138.366 34.9701 138.33 35.8411H134.41ZM125.809 35.8411C127.079 35.9501 128.095 36.0591 128.857 36.1681C129.619 36.2401 130.4 36.2581 131.198 36.2221C131.996 36.1491 133.067 36.0221 134.41 35.8411L134.737 39.4341C133.43 39.7971 132.305 40.0511 131.361 40.1961C130.418 40.3411 129.474 40.3411 128.531 40.1961C127.587 40.0511 126.426 39.7971 125.046 39.4341L125.809 35.8411ZM126.081 14.0651C125.863 17.1861 125.682 19.7271 125.536 21.6871C125.512 22.0151 125.49 22.3441 125.471 22.6751C125.849 22.7441 126.143 22.8151 126.353 22.8841C126.607 22.9211 126.988 22.9391 127.496 22.9391H132.94C133.267 22.9031 133.684 22.8481 134.192 22.7761C134.228 22.1951 134.247 21.7411 134.247 21.4151V19.6721C134.247 18.4021 134.21 17.4221 134.138 16.7331C134.101 16.0431 134.029 15.1541 133.92 14.0651H131.089C130 13.9931 129.148 13.9751 128.531 14.0111C127.95 14.0111 127.133 14.0291 126.081 14.0651L125.536 10.4721C127.315 10.3271 128.676 10.2361 129.619 10.2001C130.563 10.1641 131.888 10.1461 133.593 10.1461C133.775 10.9441 133.938 11.5791 134.083 12.0511C134.228 12.5231 134.356 13.1941 134.464 14.0651H138.057C138.239 15.8801 138.366 17.3131 138.438 18.3661C138.511 19.4181 138.547 20.8881 138.547 22.7761C138.547 23.7191 138.529 24.4271 138.493 24.8991C138.457 25.3701 138.402 26.0061 138.33 26.8041H129.456C128.476 26.8041 127.75 26.8401 127.278 26.9131C126.843 26.9851 126.208 27.0761 125.373 27.1851C125.373 26.9581 125.369 26.7531 125.362 26.5701C125.363 26.9541 125.366 27.3411 125.373 27.7291C125.409 29.7621 125.555 32.4661 125.809 35.8411H121.453C121.199 32.3931 121.072 29.6531 121.072 27.6211C121.072 25.5881 121.145 23.6101 121.29 21.6871C121.472 19.7631 121.708 17.2231 121.998 14.0651H126.081ZM103.543 36.0041C103.543 36.4761 103.579 36.8031 103.652 36.9841C103.724 37.1291 103.833 37.3651 103.979 37.6921V37.8011C104.015 37.8011 104.033 37.8191 104.033 37.8551C104.142 38.0731 104.214 38.2541 104.251 38.4001C104.287 38.5081 104.305 38.7081 104.305 38.9981C104.305 39.2891 104.287 39.5061 104.251 39.6521C104.214 39.7601 104.178 39.9421 104.142 40.1961H98.861C98.789 39.9781 98.734 39.7971 98.698 39.6521V38.9981C98.698 38.8171 98.716 38.6721 98.752 38.5631C98.789 38.4541 98.861 38.3091 98.97 38.1271C98.97 38.0551 98.988 38.0001 99.025 37.9641L99.134 37.7461C99.206 37.4201 99.242 37.1471 99.242 36.9301C99.279 36.7121 99.297 36.4031 99.297 36.0041V20.1081C99.297 18.8011 99.333 17.7851 99.406 17.0591C99.515 16.3341 99.66 15.3361 99.841 14.0651H103.434C103.507 13.2311 103.597 12.5951 103.706 12.1601C103.815 11.6881 103.942 11.0351 104.087 10.2001C105.793 10.1641 107.1 10.1461 108.007 10.1461C108.951 10.1461 110.293 10.1641 112.036 10.2001C112.181 10.9991 112.29 11.6341 112.362 12.1051C112.471 12.5411 112.58 13.1941 112.689 14.0651H116.282C116.463 15.2991 116.608 16.2791 116.717 17.0051C116.826 17.6951 116.881 18.6931 116.881 19.9991V36.9301C116.917 37.1471 116.971 37.4201 117.044 37.7461C117.08 37.8551 117.116 37.9281 117.153 37.9641C117.189 38.0001 117.225 38.0731 117.262 38.1821C117.371 38.3271 117.443 38.4541 117.479 38.5631C117.516 38.6721 117.534 38.8351 117.534 39.0531C117.534 39.3431 117.516 39.5611 117.479 39.7061C117.479 39.8151 117.443 39.9781 117.371 40.1961H112.144C112.108 39.9781 112.072 39.7971 112.036 39.6521C111.999 39.5061 111.981 39.2891 111.981 38.9981C111.981 38.7081 111.999 38.5081 112.036 38.4001C112.108 38.2541 112.199 38.0551 112.308 37.8011C112.38 37.4741 112.435 37.2201 112.471 37.0391C112.544 36.8211 112.58 36.4761 112.58 36.0041V19.4551C112.58 18.2211 112.525 17.2771 112.417 16.6241C112.308 15.9711 112.163 15.1181 111.981 14.0651H110.185C109.459 14.0291 108.896 14.0111 108.497 14.0111C108.098 14.0111 107.517 14.0291 106.755 14.0651H104.142C103.997 15.0091 103.852 15.7711 103.706 16.3521C103.597 16.9321 103.543 17.7851 103.543 18.9101V36.0041ZM12.521 37.9641C12.521 37.3831 12.575 36.6571 12.684 35.7861C13.592 35.6411 14.318 35.5691 14.862 35.5691C15.443 35.5691 16.168 35.6231 17.039 35.7321C17.148 36.6391 17.203 37.3831 17.203 37.9641C17.239 38.5081 17.203 39.2341 17.094 40.1421C16.15 40.2501 15.406 40.3051 14.862 40.3051C14.318 40.3051 13.592 40.2501 12.684 40.1421C12.575 39.2341 12.521 38.5081 12.521 37.9641Z" fill="black"/>
</svg>
