<svg width="113" height="40" viewBox="0 0 113 40" fill="none" xmlns="http://www.w3.org/2000/svg">
<path fill-rule="evenodd" clip-rule="evenodd" d="M70.818 28.5361C70.072 29.4861 69.258 30.346 68.375 31.126C67.468 31.886 66.416 32.5261 65.218 33.0361C64.02 33.5361 62.696 33.7959 61.244 33.7959C58.667 33.7959 56.526 33.1066 54.82 31.7266C53.151 30.3066 51.917 28.7667 51.118 27.0967C50.32 25.3967 49.921 24.1959 49.921 23.5059C49.921 23.1459 49.993 22.7966 50.138 22.4766C50.283 22.1066 50.501 21.8167 50.792 21.5967C51.118 21.3467 51.536 21.2158 52.044 21.2158C52.661 21.2158 53.151 21.3966 53.514 21.7666C53.877 22.1266 54.131 22.5466 54.276 23.0166V23.2363C54.312 23.2663 54.33 23.3265 54.33 23.3965C54.403 23.6565 54.439 23.8461 54.439 23.9961C54.475 24.1361 54.53 24.3367 54.602 24.5967C54.893 25.7967 55.274 26.896 55.746 27.916C56.254 28.936 56.961 29.7866 57.869 30.4766C58.776 31.1266 59.901 31.4561 61.244 31.4561C62.405 31.4561 63.44 31.2161 64.347 30.7461C65.29 30.2361 66.071 29.6363 66.688 28.9463C67.267 28.3363 67.717 27.7262 68.039 27.1162C68.071 27.0362 68.111 26.9667 68.158 26.8867C68.229 26.7267 68.306 26.5966 68.386 26.4766C69.003 25.2866 69.489 23.7963 69.845 21.9863C70.245 19.9163 70.517 17.806 70.662 15.666C70.698 15.236 70.716 14.8358 70.716 14.4658C70.753 14.1058 70.771 13.746 70.771 13.376C70.771 12.216 71.097 10.9868 71.751 9.67676C72.404 8.37676 73.384 7.26645 74.69 6.35645C76.033 5.44645 77.666 4.99609 79.59 4.99609C81.622 4.99609 83.328 5.43664 84.707 6.30664C86.123 7.17664 87.175 8.2466 87.865 9.5166C88.554 10.7466 88.899 11.9061 88.899 12.9961C88.899 13.3261 88.881 13.6368 88.845 13.9268V14.8467C88.772 16.6667 88.79 18.2066 88.899 19.4766C89.038 20.6966 89.409 21.9662 90.013 23.3262C90.095 23.4562 90.178 23.6164 90.26 23.7764C91.022 25.2664 91.948 26.5859 93.036 27.7559C94.161 28.9159 95.414 29.8364 96.793 30.5264C98.172 31.1864 99.587 31.5059 101.039 31.5059C101.728 31.5059 102.4 31.4765 103.053 31.3965C103.743 31.3265 104.45 31.1966 105.176 31.0166C105.902 30.8366 106.646 30.6066 107.408 30.3066C107.771 30.1666 108.08 30.0967 108.334 30.0967C108.588 30.0567 108.787 30.1866 108.932 30.4766C109.078 30.7666 109.041 31.0361 108.824 31.2861C108.606 31.5061 108.37 31.6764 108.116 31.7764C106.773 32.4364 105.503 32.9261 104.305 33.2461C103.144 33.5761 102.037 33.7363 100.984 33.7363C98.299 33.7363 96.012 33.2662 94.125 32.3262C92.274 31.3862 90.859 30.326 89.879 29.166C88.899 28.006 88.101 26.8663 87.484 25.7363C87.097 25.0263 86.853 24.4459 86.753 24.0059C86.036 22.1859 85.572 20.3864 85.36 18.6064C85.143 16.4664 85.034 14.066 85.034 11.416C85.034 10.226 84.598 9.13625 83.727 8.15625C82.856 7.13625 81.477 6.62598 79.59 6.62598C78.102 6.62598 76.904 7.13625 75.997 8.15625C75.09 9.13625 74.636 10.3163 74.636 11.6963C74.636 13.6163 74.563 15.4267 74.418 17.1367C74.273 18.8067 74.037 20.386 73.71 21.876C73.42 23.176 73.039 24.3966 72.567 25.5166C72.132 26.6066 71.569 27.5861 70.88 28.4561C70.86 28.4861 70.839 28.5061 70.818 28.5361ZM48.905 15.6865C48.848 15.6165 48.787 15.5363 48.723 15.4463L47.906 14.3066C46.31 12.0566 44.822 10.1863 43.442 8.69629C42.1 7.17629 40.811 6.41602 39.577 6.41602C38.525 6.41602 37.636 7.0266 36.91 8.2666C36.184 9.4966 35.658 11.1164 35.331 13.1064C35.004 15.0664 34.841 17.2061 34.841 19.5361C34.841 22.1061 35.095 24.2461 35.603 25.9561C36.111 27.6261 36.765 28.8562 37.563 29.6562C38.361 30.4162 39.196 30.7959 40.067 30.7959C41.555 30.7959 42.735 30.2964 43.606 29.2764C44.477 28.2264 45.148 27.1359 45.62 26.0059L45.729 25.7363C45.801 25.6263 45.892 25.516 46.001 25.416C46.11 25.266 46.237 25.1963 46.382 25.1963C46.672 25.1963 46.854 25.3066 46.926 25.5166C47.035 25.7366 47.054 25.9568 46.981 26.1768C46.437 28.7168 45.493 30.6167 44.15 31.8867C42.844 33.1567 41.301 33.7959 39.523 33.7959C37.708 33.7959 36.148 33.1567 34.841 31.8867C33.534 30.6167 32.536 28.9665 31.847 26.9365C31.194 24.9065 30.867 22.7461 30.867 20.4561C30.867 18.1361 31.212 15.7364 31.901 13.2764C32.627 10.8064 33.643 8.75621 34.95 7.11621C36.256 5.44621 37.781 4.61621 39.523 4.61621C40.503 4.61621 41.61 5.10594 42.844 6.08594C44.114 7.02594 45.366 8.22676 46.6 9.67676C47.834 11.0968 48.995 12.5865 50.084 14.1465L50.09 14.1562C50.162 14.2263 50.232 14.316 50.302 14.416C50.519 14.746 50.755 15.0863 51.009 15.4463C51.263 15.7763 51.554 16.1163 51.88 16.4863C52.86 17.5763 53.985 18.4665 55.256 19.1465C56.562 19.8365 57.978 20.1865 59.502 20.1865C61.171 20.1865 62.296 19.5867 62.877 18.3867C63.458 17.1867 63.748 15.526 63.748 13.376C63.748 11.816 63.458 10.2966 62.877 8.80664C62.333 7.31664 61.317 6.57617 59.829 6.57617C58.849 6.57617 57.923 7.02652 57.052 7.93652C56.217 8.80652 55.546 10.1666 55.038 12.0166C55.002 12.0966 54.965 12.1859 54.929 12.2959V12.5059C54.748 13.1959 54.53 13.7465 54.276 14.1465C54.022 14.5465 53.586 14.7461 52.969 14.7461C52.461 14.7461 52.062 14.636 51.772 14.416C51.518 14.156 51.354 13.8659 51.282 13.5459C51.209 13.2159 51.191 12.8759 51.227 12.5059C51.3 11.7459 51.699 10.7664 52.425 9.56641C53.151 8.33641 54.149 7.28602 55.419 6.41602C56.689 5.50602 58.195 5.05664 59.937 5.05664C61.208 5.05664 62.405 5.37637 63.53 6.02637C64.655 6.64637 65.581 7.59621 66.307 8.86621C67.033 10.1362 67.396 11.6565 67.396 13.4365C67.396 14.8865 67.105 16.2466 66.525 17.5166C65.98 18.7566 65.218 19.7862 64.238 20.6162C63.294 21.4562 62.224 21.9863 61.026 22.1963C60.845 22.2363 60.645 22.2766 60.427 22.3066H59.829C57.832 22.3066 55.909 21.6961 54.058 20.4561C52.207 19.2261 50.701 17.9161 49.539 16.5361C49.431 16.3961 49.34 16.2858 49.267 16.2158C49.195 16.1058 49.104 15.9762 48.995 15.8262C48.964 15.7762 48.934 15.7365 48.905 15.6865ZM13.991 27.0459C15.189 25.6259 17.13 24.2463 19.816 22.9062C22.102 21.7463 23.699 20.7166 24.606 19.8066C25.514 18.8566 25.967 17.8263 25.967 16.6963C25.967 16.0463 25.695 15.4866 25.151 15.0166C24.643 14.5466 24.026 14.3066 23.3 14.3066C22.393 14.3066 21.413 14.5261 20.36 14.9561C19.344 15.3961 17.947 16.0666 16.168 16.9766C14.063 18.0666 12.285 18.8966 10.833 19.4766C9.418 20.0266 8.003 20.2959 6.587 20.2959C5.535 20.2959 4.5 20.0068 3.484 19.4268C2.468 18.8468 1.633 18.0464 0.98 17.0264C0.327 15.9764 0 14.7765 0 13.4365C0 11.9465 0.327 10.6968 0.98 9.67676C1.633 8.66676 2.432 7.84656 3.375 7.22656C4.101 6.75656 4.754 6.32676 5.335 5.92676C5.916 5.52676 6.442 5.15594 6.914 4.83594C7.712 4.25594 8.275 3.87652 8.601 3.68652C8.928 3.50652 9.255 3.41602 9.581 3.41602C10.162 3.41602 10.652 3.6166 11.051 4.0166C11.487 4.3766 11.704 4.86633 11.704 5.48633C11.704 5.99633 11.414 6.4259 10.833 6.7959C10.289 7.1559 9.345 7.6466 8.003 8.2666C7.531 8.4466 7.041 8.66602 6.533 8.91602C6.061 9.13602 5.589 9.36598 5.117 9.62598C4.21 10.096 3.43 10.7166 2.776 11.4766C2.159 12.1966 1.851 13.0366 1.851 13.9766C1.851 14.6666 2.069 15.3963 2.504 16.1562C2.976 16.9162 3.738 17.2959 4.791 17.2959C5.589 17.2959 6.46 17.0963 7.404 16.6963C8.347 16.3063 9.599 15.6659 11.16 14.7959C13.338 13.6359 15.17 12.7665 16.658 12.1865C18.146 11.6065 19.671 11.3164 21.231 11.3164C22.683 11.3164 23.917 11.7059 24.933 12.5059C25.949 13.2759 26.693 14.2159 27.165 15.3359C27.673 16.4259 27.927 17.4259 27.927 18.3359C27.927 19.6059 27.655 20.6759 27.111 21.5459C26.566 22.4159 25.84 23.1664 24.933 23.7764C24.062 24.3564 22.774 25.0861 21.068 25.9561C20.342 26.3561 19.58 26.7761 18.782 27.2061C18.019 27.6061 17.221 28.0564 16.386 28.5664C15.297 29.2564 14.535 29.8159 14.1 30.2559C13.701 30.6959 13.501 31.2866 13.501 32.0566V33.5762C13.501 33.7962 13.428 33.9564 13.283 34.0664C13.174 34.1764 13.029 34.2266 12.848 34.2266C12.666 34.2266 12.503 34.1566 12.358 34.0166C12.249 33.9066 12.194 33.7562 12.194 33.5762V31.4561C12.194 29.9261 12.793 28.4559 13.991 27.0459ZM107.68 22.2559C107.862 22.3959 107.953 22.5964 107.953 22.8564C107.953 23.1464 107.844 23.3461 107.626 23.4561C107.444 23.5561 107.19 23.6664 106.864 23.7764C105.702 24.1364 104.523 24.4461 103.325 24.7061C102.128 24.9561 101.111 25.0859 100.277 25.0859C98.861 25.0859 97.555 24.7564 96.357 24.1064C95.159 23.4164 94.198 22.4764 93.472 21.2764C92.782 20.0764 92.438 18.7165 92.438 17.1865C92.438 15.4865 92.71 14.0161 93.254 12.7861C93.835 11.5461 94.597 10.5168 95.54 9.67676C96.484 8.80676 97.646 8.08609 99.025 7.49609C99.75 7.20609 100.494 6.93652 101.257 6.68652C102.055 6.39652 102.817 6.15656 103.543 5.97656C105.612 5.39656 107.154 4.70625 108.17 3.90625C109.223 3.07625 110.112 2.14672 110.838 1.13672C111.019 0.876719 111.183 0.676133 111.328 0.536133C111.509 0.356133 111.654 0.255859 111.763 0.255859C111.909 0.255859 112.017 0.296211 112.09 0.366211C112.199 0.406211 112.271 0.475938 112.308 0.585938C112.38 0.655938 112.417 0.766016 112.417 0.916016C112.417 1.02602 112.38 1.1459 112.308 1.2959C112.271 1.4359 112.199 1.60613 112.09 1.78613C111.8 2.21613 111.364 2.74621 110.783 3.36621C110.203 3.94621 109.495 4.52645 108.66 5.10645C107.862 5.68645 107.027 6.19598 106.156 6.62598C104.85 7.28598 103.724 7.8266 102.781 8.2666C101.837 8.6966 100.912 9.18633 100.004 9.73633C99.097 10.2763 98.39 10.8566 97.881 11.4766C97.41 12.0566 97.028 12.8364 96.738 13.8164C96.484 14.7564 96.357 15.9364 96.357 17.3564C96.357 18.6564 96.774 19.8365 97.609 20.8965C98.444 21.9465 99.478 22.5759 100.712 22.7959C100.857 22.8359 101.003 22.8663 101.148 22.9062H101.638C102.146 22.9062 102.763 22.8561 103.489 22.7461C104.251 22.5961 104.94 22.4566 105.557 22.3066C105.884 22.2366 106.174 22.1865 106.428 22.1465C106.719 22.0765 106.936 22.0361 107.082 22.0361C107.336 22.0361 107.535 22.1059 107.68 22.2559ZM39.414 16.8066C39.777 16.4066 40.249 16.2158 40.829 16.2158C41.337 16.2158 41.773 16.4066 42.136 16.8066C42.535 17.1766 42.735 17.626 42.735 18.166C42.735 18.676 42.535 19.1361 42.136 19.5361C41.773 19.8961 41.337 20.0762 40.829 20.0762C40.285 20.0762 39.813 19.8961 39.414 19.5361C39.051 19.1361 38.87 18.676 38.87 18.166C38.87 17.626 39.051 17.1766 39.414 16.8066ZM11.541 36.626C11.94 36.266 12.394 36.0859 12.902 36.0859C13.41 36.0859 13.846 36.266 14.209 36.626C14.608 37.026 14.807 37.4959 14.807 38.0459C14.807 38.5459 14.608 38.9867 14.209 39.3467C13.846 39.7467 13.41 39.9463 12.902 39.9463C12.394 39.9463 11.94 39.7467 11.541 39.3467C11.142 38.9867 10.942 38.5459 10.942 38.0459C10.942 37.4959 11.142 37.026 11.541 36.626Z" fill="black"/>
</svg>
