<svg width="113" height="40" viewBox="0 0 113 40" fill="none" xmlns="http://www.w3.org/2000/svg">
<path fill-rule="evenodd" clip-rule="evenodd" d="M70.764 28.5361C70.018 29.4861 69.204 30.346 68.321 31.126C67.414 31.886 66.361 32.5261 65.164 33.0361C63.966 33.5361 62.641 33.7959 61.19 33.7959C58.613 33.7959 56.471 33.1066 54.766 31.7266C53.096 30.3066 51.862 28.7667 51.064 27.0967C50.265 25.3967 49.866 24.1959 49.866 23.5059C49.866 23.1459 49.939 22.7966 50.084 22.4766C50.229 22.1066 50.447 21.8167 50.737 21.5967C51.064 21.3467 51.481 21.2158 51.989 21.2158C52.606 21.2158 53.096 21.3966 53.459 21.7666C53.822 22.1266 54.076 22.5466 54.221 23.0166V23.2363C54.258 23.2663 54.276 23.3265 54.276 23.3965C54.348 23.6565 54.385 23.8461 54.385 23.9961C54.421 24.1361 54.475 24.3367 54.548 24.5967C54.838 25.7967 55.219 26.896 55.691 27.916C56.199 28.936 56.907 29.7866 57.814 30.4766C58.722 31.1266 59.847 31.4561 61.19 31.4561C62.351 31.4561 63.385 31.2161 64.293 30.7461C65.236 30.2361 66.016 29.6363 66.633 28.9463C67.212 28.3363 67.663 27.7262 67.985 27.1162C68.017 27.0362 68.056 26.9667 68.103 26.8867C68.175 26.7267 68.251 26.5966 68.331 26.4766C68.948 25.2866 69.434 23.7963 69.791 21.9863C70.19 19.9163 70.462 17.806 70.607 15.666C70.644 15.236 70.662 14.8358 70.662 14.4658C70.698 14.0658 70.716 13.6862 70.716 13.3262C70.716 12.1962 71.043 10.9868 71.696 9.67676C72.35 8.37676 73.329 7.26645 74.636 6.35645C75.979 5.44645 77.612 4.99609 79.535 4.99609C81.568 4.99609 83.274 5.43664 84.653 6.30664C86.068 7.17664 87.121 8.2466 87.81 9.5166C88.5 10.7466 88.845 11.9061 88.845 12.9961C88.845 13.3261 88.826 13.6368 88.79 13.9268V14.8467C88.718 16.6667 88.736 18.2066 88.845 19.4766C88.983 20.6966 89.355 21.9662 89.959 23.3262C90.041 23.4662 90.123 23.6164 90.206 23.7764C90.968 25.2664 91.893 26.5859 92.982 27.7559C94.107 28.9159 95.359 29.8364 96.738 30.5264C98.117 31.1864 99.533 31.5059 100.984 31.5059C101.674 31.5059 102.345 31.4765 102.999 31.3965C103.688 31.3265 104.396 31.1966 105.122 31.0166C105.848 30.8366 106.592 30.6066 107.354 30.3066C107.717 30.1666 108.025 30.0967 108.279 30.0967C108.533 30.0567 108.733 30.1866 108.878 30.4766C109.023 30.7666 108.987 31.0361 108.769 31.2861C108.551 31.5061 108.316 31.6764 108.061 31.7764C106.719 32.4364 105.448 32.9261 104.251 33.2461C103.089 33.5761 101.982 33.7363 100.93 33.7363C98.244 33.7363 95.958 33.2662 94.071 32.3262C92.22 31.3862 90.804 30.326 89.824 29.166C88.845 28.006 88.046 26.8663 87.429 25.7363C87.042 25.0263 86.799 24.4461 86.698 23.9961C85.982 22.1861 85.518 20.3864 85.306 18.6064C85.088 16.4264 84.979 14.036 84.979 11.416C84.979 10.226 84.544 9.13625 83.673 8.15625C82.802 7.13625 81.423 6.62598 79.535 6.62598C78.047 6.62598 76.85 7.13625 75.942 8.15625C75.035 9.13625 74.582 10.3163 74.582 11.6963C74.582 13.5763 74.509 15.3759 74.364 17.0859C74.219 18.7859 73.983 20.386 73.656 21.876C73.366 23.176 72.985 24.3966 72.513 25.5166C72.077 26.6066 71.515 27.5861 70.825 28.4561C70.806 28.4861 70.785 28.5061 70.764 28.5361ZM48.851 15.6865C48.794 15.6165 48.733 15.5363 48.669 15.4463L47.852 14.3066C46.255 12.0566 44.767 10.1863 43.388 8.69629C42.045 7.17629 40.757 6.41602 39.523 6.41602C38.47 6.41602 37.581 7.0266 36.855 8.2666C36.129 9.4966 35.603 11.1164 35.277 13.1064C34.95 15.0664 34.786 17.2061 34.786 19.5361C34.786 22.1061 35.041 24.2461 35.549 25.9561C36.057 27.6261 36.71 28.8364 37.509 29.6064C38.307 30.3664 39.142 30.7461 40.013 30.7461C41.464 30.7461 42.626 30.2366 43.497 29.2266C44.404 28.2066 45.094 27.1359 45.566 26.0059L45.674 25.7363C45.747 25.6263 45.838 25.516 45.947 25.416C46.055 25.266 46.182 25.1963 46.328 25.1963C46.618 25.1963 46.799 25.3066 46.872 25.5166C46.981 25.7366 46.999 25.9568 46.926 26.1768C46.382 28.7168 45.438 30.6167 44.096 31.8867C42.789 33.1567 41.247 33.7959 39.468 33.7959C37.654 33.7959 36.093 33.1567 34.786 31.8867C33.48 30.6167 32.482 28.9665 31.792 26.9365C31.139 24.9065 30.813 22.7461 30.813 20.4561C30.813 18.1361 31.157 15.7364 31.847 13.2764C32.573 10.8064 33.589 8.75621 34.895 7.11621C36.202 5.44621 37.726 4.61621 39.468 4.61621C40.448 4.61621 41.555 5.10594 42.789 6.08594C44.059 7.02594 45.311 8.22676 46.545 9.67676C47.779 11.0968 48.941 12.5865 50.03 14.1465L50.035 14.1562C50.107 14.2263 50.178 14.316 50.247 14.416C50.465 14.746 50.701 15.0863 50.955 15.4463C51.209 15.7763 51.499 16.1163 51.826 16.4863C52.806 17.5763 53.931 18.4665 55.201 19.1465C56.508 19.8365 57.923 20.1865 59.447 20.1865C61.117 20.1865 62.242 19.5867 62.823 18.3867C63.403 17.1867 63.694 15.526 63.694 13.376C63.694 11.816 63.403 10.2966 62.823 8.80664C62.278 7.31664 61.262 6.57617 59.774 6.57617C58.794 6.57617 57.869 7.02652 56.998 7.93652C56.163 8.80652 55.492 10.1666 54.983 12.0166C54.947 12.0966 54.929 12.1859 54.929 12.2959C54.929 12.3659 54.911 12.4359 54.875 12.5059C54.729 13.1959 54.53 13.7465 54.276 14.1465C54.022 14.5465 53.586 14.7461 52.969 14.7461C52.425 14.7461 52.007 14.636 51.717 14.416C51.463 14.156 51.3 13.8659 51.227 13.5459C51.155 13.2159 51.136 12.8759 51.173 12.5059C51.245 11.7459 51.645 10.7664 52.37 9.56641C53.096 8.33641 54.094 7.26645 55.365 6.35645C56.635 5.44645 58.141 4.99609 59.883 4.99609C61.153 4.99609 62.351 5.32656 63.476 5.97656C64.637 6.62656 65.563 7.59621 66.252 8.86621C66.978 10.1362 67.341 11.6565 67.341 13.4365C67.341 14.8865 67.069 16.2466 66.525 17.5166C65.98 18.7566 65.218 19.7862 64.238 20.6162C63.258 21.4562 62.169 21.9863 60.972 22.1963C60.79 22.2363 60.591 22.2766 60.373 22.3066H59.774C57.778 22.3066 55.854 21.6961 54.004 20.4561C52.153 19.2261 50.646 17.9161 49.485 16.5361C49.376 16.3961 49.286 16.2858 49.213 16.2158C49.14 16.1058 49.05 15.9762 48.941 15.8262C48.909 15.7762 48.879 15.7365 48.851 15.6865ZM13.991 27.0459C15.189 25.6259 17.13 24.2463 19.816 22.9062C22.102 21.7463 23.699 20.7166 24.606 19.8066C25.514 18.8566 25.967 17.8263 25.967 16.6963C25.967 16.0463 25.695 15.4866 25.151 15.0166C24.643 14.5466 24.026 14.3066 23.3 14.3066C22.393 14.3066 21.413 14.5261 20.36 14.9561C19.344 15.3961 17.947 16.0666 16.168 16.9766C14.063 18.0666 12.285 18.8966 10.833 19.4766C9.418 20.0266 8.003 20.2959 6.587 20.2959C5.535 20.2959 4.5 20.0068 3.484 19.4268C2.468 18.8468 1.633 18.0464 0.98 17.0264C0.327 15.9764 0 14.7765 0 13.4365C0 11.9465 0.327 10.6968 0.98 9.67676C1.633 8.66676 2.432 7.84656 3.375 7.22656C4.101 6.75656 4.754 6.32676 5.335 5.92676C5.916 5.52676 6.442 5.15594 6.914 4.83594C7.712 4.25594 8.275 3.87652 8.601 3.68652C8.928 3.50652 9.255 3.41602 9.581 3.41602C10.162 3.41602 10.652 3.6166 11.051 4.0166C11.487 4.3766 11.704 4.86633 11.704 5.48633C11.704 5.99633 11.414 6.4259 10.833 6.7959C10.289 7.1559 9.345 7.6466 8.003 8.2666C7.531 8.4466 7.041 8.66602 6.533 8.91602C6.061 9.13602 5.589 9.36598 5.117 9.62598C4.21 10.096 3.43 10.7166 2.776 11.4766C2.159 12.1966 1.851 13.0366 1.851 13.9766C1.851 14.6666 2.069 15.3963 2.504 16.1562C2.976 16.9162 3.738 17.2959 4.791 17.2959C5.589 17.2959 6.46 17.0963 7.404 16.6963C8.347 16.3063 9.599 15.6659 11.16 14.7959C13.338 13.6359 15.17 12.7665 16.658 12.1865C18.146 11.6065 19.671 11.3164 21.231 11.3164C22.683 11.3164 23.917 11.7059 24.933 12.5059C25.949 13.2759 26.693 14.2159 27.165 15.3359C27.673 16.4259 27.927 17.4259 27.927 18.3359C27.927 19.6059 27.655 20.6759 27.111 21.5459C26.566 22.4159 25.84 23.1664 24.933 23.7764C24.062 24.3564 22.774 25.0861 21.068 25.9561C20.342 26.3561 19.58 26.7761 18.782 27.2061C18.019 27.6061 17.221 28.0564 16.386 28.5664C15.297 29.2564 14.535 29.8159 14.1 30.2559C13.701 30.6959 13.501 31.2866 13.501 32.0566V33.5762C13.501 33.7962 13.428 33.9564 13.283 34.0664C13.174 34.1764 13.029 34.2266 12.848 34.2266C12.666 34.2266 12.503 34.1566 12.358 34.0166C12.249 33.9066 12.194 33.7562 12.194 33.5762V31.4561C12.194 29.9261 12.793 28.4559 13.991 27.0459ZM107.626 22.3066C107.807 22.4566 107.898 22.6562 107.898 22.9062C107.898 23.1962 107.789 23.3959 107.572 23.5059C107.39 23.6159 107.136 23.7259 106.809 23.8359C105.648 24.1959 104.468 24.5059 103.271 24.7559C102.073 25.0159 101.057 25.1367 100.222 25.1367C98.771 25.1367 97.446 24.8163 96.248 24.1562C95.051 23.4663 94.107 22.5262 93.417 21.3262C92.728 20.1262 92.383 18.7661 92.383 17.2461C92.383 15.5061 92.655 14.0161 93.2 12.7861C93.78 11.5461 94.542 10.5363 95.486 9.73633C96.466 8.89633 97.646 8.20602 99.025 7.66602C99.787 7.33602 100.549 7.0459 101.311 6.7959C102.073 6.5359 102.817 6.32672 103.543 6.13672C105.612 5.55672 107.172 4.8566 108.225 4.0166C109.277 3.1866 110.166 2.23652 110.892 1.18652C111.074 0.936523 111.255 0.735938 111.437 0.585938C111.618 0.405937 111.763 0.316406 111.872 0.316406C112.017 0.316406 112.126 0.356758 112.199 0.426758C112.308 0.456758 112.38 0.536484 112.417 0.646484C112.489 0.716484 112.525 0.82582 112.525 0.96582C112.525 1.07582 112.489 1.20668 112.417 1.34668C112.38 1.49668 112.308 1.65594 112.199 1.83594C111.909 2.27594 111.473 2.79602 110.892 3.41602C110.312 3.99602 109.604 4.57625 108.769 5.15625C107.971 5.73625 107.154 6.24652 106.319 6.68652C105.013 7.37652 103.87 7.93598 102.89 8.37598C101.946 8.80598 101.003 9.29668 100.059 9.84668C99.115 10.3867 98.39 10.9464 97.881 11.5264C97.373 12.1064 96.974 12.8764 96.684 13.8164C96.43 14.7564 96.303 15.9562 96.303 17.4062C96.303 18.7162 96.72 19.8963 97.555 20.9463C98.39 21.9963 99.424 22.6364 100.658 22.8564C100.803 22.8864 100.948 22.9258 101.093 22.9658H101.583C102.091 22.9658 102.708 22.9059 103.434 22.7959C104.196 22.6559 104.886 22.5062 105.503 22.3662C105.829 22.2862 106.12 22.2363 106.374 22.1963C106.664 22.1263 106.882 22.0859 107.027 22.0859C107.281 22.0859 107.481 22.1666 107.626 22.3066ZM39.359 16.8066C39.722 16.4066 40.194 16.2158 40.775 16.2158C41.283 16.2158 41.718 16.4066 42.081 16.8066C42.481 17.1766 42.68 17.626 42.68 18.166C42.68 18.676 42.481 19.1361 42.081 19.5361C41.718 19.8961 41.283 20.0762 40.775 20.0762C40.23 20.0762 39.759 19.8961 39.359 19.5361C38.997 19.1361 38.815 18.676 38.815 18.166C38.815 17.626 38.997 17.1766 39.359 16.8066ZM11.541 36.626C11.94 36.266 12.394 36.0859 12.902 36.0859C13.41 36.0859 13.846 36.266 14.209 36.626C14.608 37.026 14.807 37.4959 14.807 38.0459C14.807 38.5459 14.608 38.9867 14.209 39.3467C13.846 39.7467 13.41 39.9463 12.902 39.9463C12.394 39.9463 11.94 39.7467 11.541 39.3467C11.142 38.9867 10.942 38.5459 10.942 38.0459C10.942 37.4959 11.142 37.026 11.541 36.626Z" fill="black"/>
</svg>
