<svg width="113" height="40" viewBox="0 0 113 40" fill="none" xmlns="http://www.w3.org/2000/svg">
<path fill-rule="evenodd" clip-rule="evenodd" d="M70.709 28.5361C69.964 29.4861 69.149 30.346 68.266 31.126C67.359 31.886 66.307 32.5261 65.109 33.0361C63.911 33.5361 62.587 33.7959 61.135 33.7959C58.558 33.7959 56.417 33.1066 54.711 31.7266C53.042 30.3066 51.808 28.7667 51.009 27.0967C50.211 25.3967 49.812 24.1959 49.812 23.5059C49.812 23.1459 49.884 22.7966 50.03 22.4766C50.175 22.1066 50.392 21.8167 50.683 21.5967C51.009 21.3467 51.427 21.2158 51.935 21.2158C52.552 21.2158 53.042 21.3966 53.405 21.7666C53.768 22.1266 54.022 22.5466 54.167 23.0166V23.2363C54.203 23.2663 54.221 23.3265 54.221 23.3965C54.294 23.6565 54.33 23.8461 54.33 23.9961C54.366 24.1361 54.421 24.3367 54.493 24.5967C54.784 25.7967 55.165 26.896 55.637 27.916C56.145 28.936 56.853 29.7866 57.76 30.4766C58.667 31.1266 59.792 31.4561 61.135 31.4561C62.296 31.4561 63.331 31.2161 64.238 30.7461C65.182 30.2361 65.962 29.6363 66.579 28.9463C67.158 28.3363 67.608 27.7262 67.93 27.1162C67.962 27.0462 68.002 26.9667 68.049 26.8867C68.12 26.7367 68.196 26.5966 68.275 26.4766C68.893 25.2866 69.38 23.7768 69.736 21.9268C70.136 19.8568 70.408 17.776 70.553 15.666C70.589 15.236 70.607 14.8358 70.607 14.4658C70.644 14.0658 70.662 13.6862 70.662 13.3262C70.662 12.1662 70.989 10.926 71.642 9.62598C72.295 8.31598 73.275 7.20664 74.582 6.30664C75.924 5.39664 77.558 4.94629 79.481 4.94629C81.513 4.94629 83.219 5.39664 84.598 6.30664C86.014 7.17664 87.066 8.2466 87.756 9.5166C88.445 10.7466 88.79 11.9061 88.79 12.9961C88.79 13.3261 88.772 13.6368 88.736 13.9268C88.736 14.1768 88.718 14.4659 88.681 14.7959C88.645 16.6059 88.681 18.1568 88.79 19.4268C88.929 20.6468 89.303 21.9459 89.911 23.3359C89.991 23.4659 90.071 23.6164 90.151 23.7764C90.913 25.2664 91.839 26.5859 92.927 27.7559C94.053 28.9159 95.305 29.8364 96.684 30.5264C98.063 31.1864 99.478 31.5059 100.93 31.5059C101.62 31.5059 102.291 31.4765 102.944 31.3965C103.634 31.3265 104.341 31.1966 105.067 31.0166C105.793 30.8366 106.537 30.6066 107.299 30.3066C107.662 30.1666 107.971 30.0967 108.225 30.0967C108.479 30.0567 108.678 30.1866 108.824 30.4766C108.969 30.7666 108.932 31.0361 108.715 31.2861C108.497 31.5061 108.261 31.6764 108.007 31.7764C106.664 32.4364 105.394 32.9261 104.196 33.2461C103.035 33.5761 101.928 33.7363 100.876 33.7363C98.19 33.7363 95.903 33.2662 94.016 32.3262C92.165 31.3862 90.75 30.326 89.77 29.166C88.79 28.006 87.992 26.8663 87.375 25.7363C86.988 25.0263 86.745 24.4459 86.644 24.0059C85.927 22.1859 85.463 20.3864 85.251 18.6064C84.998 16.4264 84.87 14.036 84.87 11.416C84.87 10.226 84.435 9.11668 83.564 8.09668C82.729 7.08668 81.368 6.57617 79.481 6.57617C77.993 6.57617 76.795 7.08668 75.888 8.09668C74.981 9.07668 74.527 10.2567 74.527 11.6367C74.527 13.5667 74.454 15.3759 74.309 17.0859C74.164 18.7859 73.928 20.3664 73.602 21.8164C73.311 23.1664 72.93 24.3966 72.458 25.5166C72.023 26.6066 71.46 27.5861 70.771 28.4561C70.751 28.4861 70.73 28.5061 70.709 28.5361ZM48.796 15.6865C48.739 15.6165 48.678 15.5363 48.614 15.4463L47.798 14.3066C46.201 12.0566 44.713 10.1863 43.334 8.69629C41.991 7.17629 40.702 6.41602 39.468 6.41602C38.416 6.41602 37.527 7.0266 36.801 8.2666C36.075 9.4966 35.549 11.1164 35.222 13.1064C34.895 15.0664 34.732 17.2061 34.732 19.5361C34.732 22.1061 34.986 24.2363 35.494 25.9062C36.002 27.5662 36.656 28.8064 37.454 29.6064C38.253 30.3664 39.087 30.7461 39.958 30.7461C41.41 30.7461 42.571 30.2366 43.442 29.2266C44.35 28.1666 45.039 27.0959 45.511 26.0059L45.62 25.7363C45.693 25.6263 45.783 25.516 45.892 25.416C46.001 25.266 46.128 25.1963 46.273 25.1963C46.564 25.1963 46.745 25.3066 46.818 25.5166C46.926 25.7366 46.945 25.9568 46.872 26.1768C46.328 28.7168 45.384 30.6167 44.041 31.8867C42.735 33.1567 41.192 33.7959 39.414 33.7959C37.599 33.7959 36.039 33.1567 34.732 31.8867C33.426 30.6167 32.428 28.9665 31.738 26.9365C31.085 24.9065 30.758 22.7461 30.758 20.4561C30.758 18.1361 31.103 15.7364 31.792 13.2764C32.518 10.8064 33.534 8.75621 34.841 7.11621C36.148 5.44621 37.672 4.61621 39.414 4.61621C40.394 4.61621 41.501 5.10594 42.735 6.08594C44.005 7.02594 45.257 8.22676 46.491 9.67676C47.725 11.0968 48.886 12.5865 49.975 14.1465L49.981 14.1562C50.053 14.2263 50.123 14.316 50.193 14.416C50.411 14.746 50.646 15.0863 50.901 15.4463C51.155 15.7763 51.445 16.1163 51.772 16.4863C52.751 17.5763 53.877 18.4665 55.147 19.1465C56.453 19.8365 57.869 20.1865 59.393 20.1865C61.062 20.1865 62.188 19.5867 62.768 18.3867C63.385 17.1567 63.694 15.486 63.694 13.376C63.694 11.816 63.403 10.3162 62.823 8.86621C62.278 7.37621 61.244 6.62598 59.72 6.62598C58.74 6.62598 57.832 7.06652 56.998 7.93652C56.163 8.80652 55.492 10.1666 54.983 12.0166C54.947 12.0966 54.911 12.1859 54.875 12.2959V12.5059C54.693 13.1959 54.475 13.7465 54.221 14.1465C53.967 14.5465 53.532 14.7461 52.915 14.7461C52.407 14.7461 52.007 14.636 51.717 14.416C51.463 14.156 51.282 13.8867 51.173 13.5967C51.1 13.2767 51.082 12.9264 51.118 12.5664C51.191 11.7664 51.572 10.7664 52.262 9.56641C52.987 8.33641 53.985 7.26645 55.256 6.35645C56.562 5.44645 58.086 4.99609 59.829 4.99609C61.099 4.99609 62.296 5.32656 63.422 5.97656C64.583 6.59656 65.526 7.55621 66.252 8.86621C66.978 10.1362 67.341 11.6565 67.341 13.4365C67.341 14.8865 67.051 16.2466 66.47 17.5166C65.926 18.7566 65.164 19.7862 64.184 20.6162C63.204 21.4562 62.115 21.9863 60.917 22.1963C60.736 22.2363 60.536 22.2766 60.318 22.3066H59.72C57.724 22.3066 55.8 21.6961 53.949 20.4561C52.098 19.2261 50.592 17.9161 49.431 16.5361C49.322 16.3961 49.231 16.2858 49.158 16.2158C49.086 16.1058 48.995 15.9762 48.886 15.8262C48.855 15.7762 48.825 15.7365 48.796 15.6865ZM13.991 27.0459C15.189 25.6259 17.13 24.2463 19.816 22.9062C22.102 21.7463 23.699 20.7166 24.606 19.8066C25.514 18.8566 25.967 17.8263 25.967 16.6963C25.967 16.0463 25.695 15.4866 25.151 15.0166C24.643 14.5466 24.026 14.3066 23.3 14.3066C22.393 14.3066 21.413 14.5261 20.36 14.9561C19.344 15.3961 17.947 16.0666 16.168 16.9766C14.063 18.0666 12.285 18.8966 10.833 19.4766C9.418 20.0266 8.003 20.2959 6.587 20.2959C5.535 20.2959 4.5 20.0068 3.484 19.4268C2.468 18.8468 1.633 18.0464 0.98 17.0264C0.327 15.9764 0 14.7765 0 13.4365C0 11.9465 0.327 10.6968 0.98 9.67676C1.633 8.66676 2.432 7.84656 3.375 7.22656C4.101 6.75656 4.754 6.32676 5.335 5.92676C5.916 5.52676 6.442 5.15594 6.914 4.83594C7.712 4.25594 8.275 3.87652 8.601 3.68652C8.928 3.50652 9.255 3.41602 9.581 3.41602C10.162 3.41602 10.652 3.6166 11.051 4.0166C11.487 4.3766 11.704 4.86633 11.704 5.48633C11.704 5.99633 11.414 6.4259 10.833 6.7959C10.289 7.1559 9.345 7.6466 8.003 8.2666C7.531 8.4466 7.041 8.66602 6.533 8.91602C6.061 9.13602 5.589 9.36598 5.117 9.62598C4.21 10.096 3.43 10.7166 2.776 11.4766C2.159 12.1966 1.851 13.0366 1.851 13.9766C1.851 14.6666 2.069 15.3963 2.504 16.1562C2.976 16.9162 3.738 17.2959 4.791 17.2959C5.589 17.2959 6.46 17.0963 7.404 16.6963C8.347 16.3063 9.599 15.6659 11.16 14.7959C13.338 13.6359 15.17 12.7665 16.658 12.1865C18.146 11.6065 19.671 11.3164 21.231 11.3164C22.683 11.3164 23.917 11.7059 24.933 12.5059C25.949 13.2759 26.693 14.2159 27.165 15.3359C27.673 16.4259 27.927 17.4259 27.927 18.3359C27.927 19.6059 27.655 20.6759 27.111 21.5459C26.566 22.4159 25.84 23.1664 24.933 23.7764C24.062 24.3564 22.774 25.0861 21.068 25.9561C20.342 26.3561 19.58 26.7761 18.782 27.2061C18.019 27.6061 17.221 28.0564 16.386 28.5664C15.297 29.2564 14.535 29.8159 14.1 30.2559C13.701 30.6959 13.501 31.2866 13.501 32.0566V33.5762C13.501 33.7962 13.428 33.9564 13.283 34.0664C13.174 34.1764 13.029 34.2266 12.848 34.2266C12.666 34.2266 12.503 34.1566 12.358 34.0166C12.249 33.9066 12.194 33.7562 12.194 33.5762V31.4561C12.194 29.9261 12.793 28.4559 13.991 27.0459ZM107.517 22.3066C107.699 22.4566 107.789 22.6562 107.789 22.9062C107.789 23.1962 107.68 23.3959 107.463 23.5059C107.281 23.6159 107.027 23.7259 106.7 23.8359C105.539 24.1959 104.36 24.5059 103.162 24.7559C101.964 25.0159 100.948 25.1367 100.113 25.1367C98.698 25.1367 97.391 24.8163 96.194 24.1562C94.996 23.4663 94.034 22.5262 93.309 21.3262C92.619 20.1262 92.274 18.7661 92.274 17.2461C92.274 15.5061 92.565 14.0359 93.145 12.8359C93.726 11.6059 94.488 10.5861 95.432 9.78613C96.412 8.98613 97.627 8.31637 99.079 7.77637C99.805 7.48637 100.549 7.20605 101.311 6.95605C102.109 6.70605 102.872 6.46609 103.597 6.24609C105.666 5.66609 107.227 4.95598 108.279 4.12598C109.332 3.25598 110.239 2.3059 111.001 1.2959C111.183 1.0059 111.364 0.765938 111.546 0.585938C111.727 0.405937 111.872 0.316406 111.981 0.316406C112.126 0.316406 112.235 0.356758 112.308 0.426758C112.417 0.456758 112.489 0.536484 112.525 0.646484C112.598 0.716484 112.634 0.82582 112.634 0.96582C112.634 1.07582 112.598 1.20668 112.525 1.34668C112.489 1.49668 112.417 1.67648 112.308 1.89648C112.017 2.32648 111.582 2.85656 111.001 3.47656C110.42 4.05656 109.731 4.63582 108.932 5.21582C108.134 5.79582 107.299 6.30633 106.428 6.73633C105.158 7.42633 104.033 8.00656 103.053 8.47656C102.073 8.91656 101.093 9.40629 100.113 9.94629C99.134 10.4563 98.371 11.0267 97.827 11.6367C97.319 12.2167 96.92 12.9768 96.629 13.9268C96.339 14.8368 96.194 15.9963 96.194 17.4062C96.194 18.7162 96.611 19.8963 97.446 20.9463C98.281 21.9963 99.315 22.6364 100.549 22.8564C100.694 22.8864 100.839 22.9258 100.984 22.9658H101.474C101.982 22.9658 102.599 22.9059 103.325 22.7959C104.087 22.6559 104.777 22.5062 105.394 22.3662C105.721 22.2862 106.011 22.2363 106.265 22.1963C106.555 22.1263 106.773 22.0859 106.918 22.0859C107.172 22.0859 107.372 22.1666 107.517 22.3066ZM39.305 16.8066C39.668 16.4066 40.14 16.2158 40.72 16.2158C41.228 16.2158 41.664 16.4066 42.027 16.8066C42.426 17.1766 42.626 17.626 42.626 18.166C42.626 18.676 42.426 19.1361 42.027 19.5361C41.664 19.8961 41.228 20.0762 40.72 20.0762C40.176 20.0762 39.704 19.8961 39.305 19.5361C38.942 19.1361 38.761 18.676 38.761 18.166C38.761 17.626 38.942 17.1766 39.305 16.8066ZM11.487 36.626C11.886 36.266 12.339 36.0859 12.848 36.0859C13.356 36.0859 13.791 36.266 14.154 36.626C14.553 37.026 14.753 37.4959 14.753 38.0459C14.753 38.5459 14.553 38.9867 14.154 39.3467C13.791 39.7467 13.356 39.9463 12.848 39.9463C12.339 39.9463 11.886 39.7467 11.487 39.3467C11.087 38.9867 10.888 38.5459 10.888 38.0459C10.888 37.4959 11.087 37.026 11.487 36.626Z" fill="black"/>
</svg>
