<svg width="113" height="40" viewBox="0 0 113 40" fill="none" xmlns="http://www.w3.org/2000/svg">
<path fill-rule="evenodd" clip-rule="evenodd" d="M70.655 28.5361C69.909 29.4861 69.095 30.346 68.212 31.126C67.305 31.886 66.252 32.5261 65.055 33.0361C63.857 33.5361 62.532 33.7959 61.081 33.7959C58.504 33.7959 56.362 33.1066 54.657 31.7266C52.987 30.3066 51.753 28.7667 50.955 27.0967C50.157 25.3967 49.757 24.1959 49.757 23.5059C49.757 23.1459 49.83 22.7966 49.975 22.4766C50.12 22.1066 50.338 21.8167 50.628 21.5967C50.955 21.3467 51.372 21.2158 51.88 21.2158C52.497 21.2158 52.987 21.3966 53.35 21.7666C53.713 22.1266 53.967 22.5466 54.112 23.0166V23.2363C54.149 23.2663 54.167 23.3265 54.167 23.3965C54.239 23.6565 54.276 23.8461 54.276 23.9961C54.312 24.1361 54.366 24.3367 54.439 24.5967C54.729 25.7967 55.11 26.896 55.582 27.916C56.09 28.936 56.798 29.7866 57.705 30.4766C58.613 31.1266 59.738 31.4561 61.081 31.4561C62.242 31.4561 63.276 31.2161 64.184 30.7461C65.127 30.2361 65.908 29.6363 66.525 28.9463C67.103 28.3363 67.554 27.7262 67.876 27.1162C67.908 27.0362 67.947 26.9667 67.994 26.8867C68.066 26.7367 68.141 26.5966 68.221 26.4766C68.838 25.2866 69.325 23.7768 69.682 21.9268C70.081 19.8568 70.353 17.7562 70.499 15.6162C70.535 15.1762 70.553 14.776 70.553 14.416C70.589 14.056 70.607 13.6862 70.607 13.3262C70.607 12.1662 70.934 10.926 71.587 9.62598C72.241 8.31598 73.221 7.20664 74.527 6.30664C75.87 5.39664 77.503 4.94629 79.427 4.94629C81.459 4.94629 83.165 5.39664 84.544 6.30664C85.959 7.17664 87.012 8.2466 87.701 9.5166C88.391 10.7466 88.736 11.9061 88.736 12.9961C88.736 13.3261 88.718 13.6368 88.681 13.9268C88.681 14.1768 88.663 14.4659 88.627 14.7959C88.59 16.6059 88.627 18.1568 88.736 19.4268C88.875 20.6468 89.249 21.9459 89.856 23.3359C89.936 23.4659 90.017 23.6164 90.097 23.7764C90.859 25.2664 91.784 26.5859 92.873 27.7559C93.998 28.9159 95.25 29.8364 96.629 30.5264C98.008 31.1864 99.424 31.5059 100.876 31.5059C101.565 31.5059 102.236 31.4765 102.89 31.3965C103.579 31.3265 104.287 31.1966 105.013 31.0166C105.739 30.8366 106.483 30.6066 107.245 30.3066C107.608 30.1666 107.916 30.0967 108.17 30.0967C108.424 30.0567 108.624 30.1866 108.769 30.4766C108.914 30.7666 108.878 31.0361 108.66 31.2861C108.443 31.5061 108.207 31.6764 107.953 31.7764C106.61 32.4364 105.34 32.9261 104.142 33.2461C102.98 33.5761 101.874 33.7363 100.821 33.7363C98.135 33.7363 95.849 33.2662 93.962 32.3262C92.111 31.3862 90.695 30.326 89.716 29.166C88.736 28.006 87.937 26.8663 87.32 25.7363C86.933 25.0263 86.689 24.4461 86.589 23.9961C85.873 22.1761 85.409 20.3666 85.197 18.5566C84.943 16.3766 84.816 13.996 84.816 11.416C84.816 10.226 84.381 9.11668 83.51 8.09668C82.675 7.08668 81.314 6.57617 79.427 6.57617C77.939 6.57617 76.741 7.08668 75.834 8.09668C74.926 9.07668 74.473 10.2567 74.473 11.6367C74.473 13.5667 74.4 15.3759 74.255 17.0859C74.11 18.7859 73.874 20.3664 73.547 21.8164C73.257 23.1664 72.876 24.3966 72.404 25.5166C71.968 26.6066 71.406 27.5861 70.716 28.4561C70.697 28.4861 70.676 28.5061 70.655 28.5361ZM48.742 15.6865C48.685 15.6165 48.624 15.5363 48.56 15.4463L47.743 14.3066C46.146 12.0566 44.658 10.1863 43.279 8.69629C41.936 7.17629 40.648 6.41602 39.414 6.41602C38.361 6.41602 37.472 7.0266 36.746 8.2666C36.021 9.4966 35.494 11.1164 35.168 13.1064C34.841 15.0664 34.678 17.2061 34.678 19.5361C34.678 22.1061 34.932 24.2363 35.44 25.9062C35.948 27.5662 36.601 28.8064 37.4 29.6064C38.198 30.3664 39.033 30.7461 39.904 30.7461C41.319 30.7461 42.481 30.2366 43.388 29.2266C44.295 28.1666 44.985 27.0959 45.457 26.0059L45.566 25.7363C45.638 25.6263 45.729 25.516 45.838 25.416C45.947 25.266 46.074 25.1963 46.219 25.1963C46.509 25.1963 46.691 25.3066 46.763 25.5166C46.872 25.7366 46.89 25.9568 46.818 26.1768C46.273 28.7168 45.33 30.6167 43.987 31.8867C42.68 33.1567 41.138 33.7959 39.359 33.7959C37.545 33.7959 35.984 33.1567 34.678 31.8867C33.371 30.6167 32.373 28.9665 31.683 26.9365C31.03 24.9065 30.704 22.7461 30.704 20.4561C30.704 18.1361 31.048 15.7364 31.738 13.2764C32.464 10.8064 33.48 8.75621 34.786 7.11621C36.093 5.44621 37.617 4.61621 39.359 4.61621C40.339 4.61621 41.446 5.10594 42.68 6.08594C43.95 7.02594 45.203 8.22676 46.437 9.67676C47.67 11.0968 48.832 12.5865 49.921 14.1465L49.926 14.1562C49.998 14.2263 50.069 14.316 50.138 14.416C50.356 14.746 50.592 15.0863 50.846 15.4463C51.1 15.7763 51.39 16.1163 51.717 16.4863C52.697 17.5763 53.822 18.4665 55.092 19.1465C56.399 19.8365 57.814 20.1865 59.339 20.1865C61.008 20.1865 62.133 19.5867 62.714 18.3867C63.331 17.1567 63.639 15.486 63.639 13.376C63.639 11.816 63.349 10.3162 62.768 8.86621C62.224 7.37621 61.19 6.62598 59.665 6.62598C58.685 6.62598 57.778 7.06652 56.943 7.93652C56.109 8.80652 55.437 10.1666 54.929 12.0166C54.893 12.0966 54.875 12.1859 54.875 12.2959C54.875 12.3659 54.856 12.4359 54.82 12.5059C54.675 13.1959 54.475 13.7465 54.221 14.1465C53.967 14.5465 53.532 14.7461 52.915 14.7461C52.37 14.7461 51.953 14.636 51.663 14.416C51.409 14.156 51.227 13.8867 51.118 13.5967C51.046 13.2767 51.028 12.9264 51.064 12.5664C51.136 11.7664 51.518 10.7664 52.207 9.56641C52.933 8.33641 53.931 7.26645 55.201 6.35645C56.508 5.41645 58.032 4.94629 59.774 4.94629C61.044 4.94629 62.242 5.26676 63.367 5.92676C64.528 6.57676 65.472 7.55621 66.198 8.86621C66.924 10.1362 67.287 11.6565 67.287 13.4365C67.287 14.8865 66.996 16.2466 66.416 17.5166C65.871 18.7566 65.109 19.7862 64.129 20.6162C63.149 21.4562 62.06 21.9863 60.863 22.1963C60.681 22.2363 60.482 22.2766 60.264 22.3066H59.665C57.669 22.3066 55.746 21.6961 53.895 20.4561C52.044 19.2261 50.538 17.9161 49.376 16.5361C49.267 16.3961 49.177 16.2858 49.104 16.2158C49.031 16.1058 48.941 15.9762 48.832 15.8262C48.8 15.7762 48.77 15.7365 48.742 15.6865ZM13.991 27.0459C15.189 25.6259 17.13 24.2463 19.816 22.9062C22.102 21.7463 23.699 20.7166 24.606 19.8066C25.514 18.8566 25.967 17.8263 25.967 16.6963C25.967 16.0463 25.695 15.4866 25.151 15.0166C24.643 14.5466 24.026 14.3066 23.3 14.3066C22.393 14.3066 21.413 14.5261 20.36 14.9561C19.344 15.3961 17.947 16.0666 16.168 16.9766C14.063 18.0666 12.285 18.8966 10.833 19.4766C9.418 20.0266 8.003 20.2959 6.587 20.2959C5.535 20.2959 4.5 20.0068 3.484 19.4268C2.468 18.8468 1.633 18.0464 0.98 17.0264C0.327 15.9764 0 14.7765 0 13.4365C0 11.9465 0.327 10.6968 0.98 9.67676C1.633 8.66676 2.432 7.84656 3.375 7.22656C4.101 6.75656 4.754 6.32676 5.335 5.92676C5.916 5.52676 6.442 5.15594 6.914 4.83594C7.712 4.25594 8.275 3.87652 8.601 3.68652C8.928 3.50652 9.255 3.41602 9.581 3.41602C10.162 3.41602 10.652 3.6166 11.051 4.0166C11.487 4.3766 11.704 4.86633 11.704 5.48633C11.704 5.99633 11.414 6.4259 10.833 6.7959C10.289 7.1559 9.345 7.6466 8.003 8.2666C7.531 8.4466 7.041 8.66602 6.533 8.91602C6.061 9.13602 5.589 9.36598 5.117 9.62598C4.21 10.096 3.43 10.7166 2.776 11.4766C2.159 12.1966 1.851 13.0366 1.851 13.9766C1.851 14.6666 2.069 15.3963 2.504 16.1562C2.976 16.9162 3.738 17.2959 4.791 17.2959C5.589 17.2959 6.46 17.0963 7.404 16.6963C8.347 16.3063 9.599 15.6659 11.16 14.7959C13.338 13.6359 15.17 12.7665 16.658 12.1865C18.146 11.6065 19.671 11.3164 21.231 11.3164C22.683 11.3164 23.917 11.7059 24.933 12.5059C25.949 13.2759 26.693 14.2159 27.165 15.3359C27.673 16.4259 27.927 17.4259 27.927 18.3359C27.927 19.6059 27.655 20.6759 27.111 21.5459C26.566 22.4159 25.84 23.1664 24.933 23.7764C24.062 24.3564 22.774 25.0861 21.068 25.9561C20.342 26.3561 19.58 26.7761 18.782 27.2061C18.019 27.6061 17.221 28.0564 16.386 28.5664C15.297 29.2564 14.535 29.8159 14.1 30.2559C13.701 30.6959 13.501 31.2866 13.501 32.0566V33.5762C13.501 33.7962 13.428 33.9564 13.283 34.0664C13.174 34.1764 13.029 34.2266 12.848 34.2266C12.666 34.2266 12.503 34.1566 12.358 34.0166C12.249 33.9066 12.194 33.7562 12.194 33.5762V31.4561C12.194 29.9261 12.793 28.4559 13.991 27.0459ZM107.463 22.3662C107.644 22.5062 107.735 22.7058 107.735 22.9658C107.735 23.2558 107.626 23.4566 107.408 23.5566C107.227 23.6666 106.973 23.7767 106.646 23.8867C105.485 24.2467 104.305 24.5564 103.108 24.8164C101.91 25.0664 100.894 25.1963 100.059 25.1963C98.607 25.1963 97.283 24.8658 96.085 24.2158C94.887 23.5258 93.944 22.5767 93.254 21.3867C92.565 20.1867 92.22 18.8259 92.22 17.2959C92.22 15.5259 92.51 14.0359 93.091 12.8359C93.671 11.6359 94.452 10.6565 95.432 9.89648C96.412 9.09648 97.627 8.42672 99.079 7.88672C99.841 7.59672 100.603 7.31641 101.365 7.06641C102.128 6.81641 102.872 6.59602 103.597 6.41602C105.666 5.79602 107.227 5.06633 108.279 4.23633C109.368 3.36633 110.293 2.40668 111.056 1.34668C111.273 1.05668 111.473 0.826484 111.654 0.646484C111.836 0.456484 111.981 0.366211 112.09 0.366211C112.235 0.366211 112.344 0.406562 112.417 0.476562C112.525 0.516562 112.598 0.586289 112.634 0.696289C112.707 0.766289 112.743 0.876367 112.743 1.02637C112.743 1.13637 112.707 1.25625 112.634 1.40625C112.598 1.54625 112.525 1.72629 112.417 1.94629C112.126 2.38629 111.691 2.90637 111.11 3.52637C110.529 4.10637 109.84 4.6866 109.041 5.2666C108.243 5.8466 107.426 6.3559 106.592 6.7959C105.321 7.5159 104.178 8.11594 103.162 8.58594C102.182 9.02594 101.184 9.51664 100.168 10.0566C99.152 10.5666 98.371 11.1163 97.827 11.6963C97.283 12.2763 96.865 13.0168 96.575 13.9268C96.284 14.8368 96.139 16.0158 96.139 17.4658C96.139 18.7658 96.557 19.9459 97.391 21.0059C98.226 22.0559 99.26 22.6863 100.494 22.9062C100.64 22.9462 100.785 22.9766 100.93 23.0166H101.42C101.928 23.0166 102.545 22.9664 103.271 22.8564C104.033 22.7064 104.723 22.566 105.34 22.416C105.666 22.346 105.956 22.2859 106.211 22.2559C106.501 22.1859 106.719 22.1465 106.864 22.1465C107.118 22.1465 107.317 22.2162 107.463 22.3662ZM39.251 16.8066C39.614 16.4066 40.085 16.2158 40.666 16.2158C41.174 16.2158 41.61 16.4066 41.972 16.8066C42.372 17.1766 42.571 17.626 42.571 18.166C42.571 18.676 42.372 19.1361 41.972 19.5361C41.61 19.8961 41.174 20.0762 40.666 20.0762C40.122 20.0762 39.65 19.8961 39.251 19.5361C38.888 19.1361 38.706 18.676 38.706 18.166C38.706 17.626 38.888 17.1766 39.251 16.8066ZM11.487 36.626C11.886 36.266 12.339 36.0859 12.848 36.0859C13.356 36.0859 13.791 36.266 14.154 36.626C14.553 37.026 14.753 37.4959 14.753 38.0459C14.753 38.5459 14.553 38.9867 14.154 39.3467C13.791 39.7467 13.356 39.9463 12.848 39.9463C12.339 39.9463 11.886 39.7467 11.487 39.3467C11.087 38.9867 10.888 38.5459 10.888 38.0459C10.888 37.4959 11.087 37.026 11.487 36.626Z" fill="black"/>
</svg>
