<svg width="113" height="40" viewBox="0 0 113 40" fill="none" xmlns="http://www.w3.org/2000/svg">
<path fill-rule="evenodd" clip-rule="evenodd" d="M70.6 28.5361C69.855 29.4861 69.041 30.346 68.158 31.126C67.25 31.886 66.198 32.5261 65 33.0361C63.803 33.5361 62.478 33.7959 61.026 33.7959C58.449 33.7959 56.308 33.1066 54.602 31.7266C52.933 30.3066 51.699 28.7667 50.901 27.0967C50.102 25.3967 49.703 24.1959 49.703 23.5059C49.703 23.1459 49.775 22.7966 49.921 22.4766C50.066 22.1066 50.283 21.8167 50.574 21.5967C50.901 21.3467 51.318 21.2158 51.826 21.2158C52.443 21.2158 52.933 21.3966 53.296 21.7666C53.659 22.1266 53.913 22.5466 54.058 23.0166V23.2363C54.094 23.2663 54.112 23.3265 54.112 23.3965C54.185 23.6565 54.221 23.8461 54.221 23.9961C54.258 24.1361 54.312 24.3367 54.385 24.5967C54.675 25.7967 55.056 26.896 55.528 27.916C56.036 28.936 56.744 29.7866 57.651 30.4766C58.558 31.1266 59.683 31.4561 61.026 31.4561C62.188 31.4561 63.222 31.2161 64.129 30.7461C65.073 30.2361 65.853 29.6363 66.47 28.9463C67.049 28.3363 67.499 27.7262 67.822 27.1162C67.854 27.0362 67.893 26.9667 67.94 26.8867C68.011 26.7367 68.087 26.5966 68.167 26.4766C68.784 25.2866 69.271 23.7768 69.628 21.9268C70.027 19.8568 70.299 17.7562 70.444 15.6162C70.48 15.1762 70.499 14.776 70.499 14.416C70.535 14.016 70.553 13.6364 70.553 13.2764C70.553 12.1464 70.88 10.926 71.533 9.62598C72.186 8.31598 73.166 7.20664 74.473 6.30664C75.815 5.39664 77.449 4.94629 79.372 4.94629C81.405 4.94629 83.11 5.37609 84.489 6.24609C85.905 7.11609 86.939 8.18605 87.592 9.45605C88.282 10.7261 88.627 11.9061 88.627 12.9961V13.8662C88.627 14.1262 88.609 14.4161 88.572 14.7461C88.536 16.5561 88.572 18.1168 88.681 19.4268C88.821 20.6468 89.194 21.9459 89.802 23.3359C89.882 23.4659 89.962 23.6164 90.042 23.7764C90.804 25.2664 91.73 26.5859 92.819 27.7559C93.944 28.9159 95.196 29.8364 96.575 30.5264C97.954 31.1864 99.369 31.5059 100.821 31.5059C101.511 31.5059 102.182 31.4765 102.835 31.3965C103.525 31.3265 104.233 31.1966 104.958 31.0166C105.684 30.8366 106.428 30.6066 107.19 30.3066C107.553 30.1666 107.862 30.0967 108.116 30.0967C108.37 30.0567 108.57 30.1866 108.715 30.4766C108.86 30.7666 108.824 31.0361 108.606 31.2861C108.388 31.5061 108.152 31.6764 107.898 31.7764C106.555 32.4364 105.285 32.9261 104.087 33.2461C102.926 33.5761 101.819 33.7363 100.767 33.7363C98.081 33.7363 95.795 33.2662 93.907 32.3262C92.056 31.3862 90.641 30.326 89.661 29.166C88.681 28.006 87.883 26.8663 87.266 25.7363C86.878 25.0263 86.634 24.4461 86.534 23.9961C85.818 22.1761 85.354 20.3666 85.143 18.5566C84.889 16.3766 84.762 13.996 84.762 11.416C84.762 10.226 84.326 9.11668 83.455 8.09668C82.62 7.08668 81.259 6.57617 79.372 6.57617C77.884 6.57617 76.686 7.08668 75.779 8.09668C74.872 9.07668 74.418 10.2567 74.418 11.6367C74.418 13.5267 74.346 15.3264 74.2 17.0264C74.055 18.7364 73.819 20.3264 73.493 21.8164C73.202 23.1664 72.821 24.3966 72.35 25.5166C71.914 26.6066 71.351 27.5861 70.662 28.4561C70.642 28.4861 70.622 28.5061 70.6 28.5361ZM48.687 15.6865C48.63 15.6165 48.57 15.5363 48.505 15.4463L47.689 14.3066C46.092 12.0566 44.604 10.1863 43.225 8.69629C41.882 7.17629 40.593 6.41602 39.359 6.41602C38.307 6.41602 37.418 7.0266 36.692 8.2666C35.966 9.4966 35.44 11.1164 35.113 13.1064C34.786 15.0664 34.623 17.2061 34.623 19.5361C34.623 22.1061 34.877 24.2363 35.385 25.9062C35.894 27.5662 36.547 28.7859 37.345 29.5459C38.144 30.3059 38.978 30.6963 39.849 30.6963C41.265 30.6963 42.426 30.186 43.334 29.166C44.241 28.156 44.93 27.0959 45.402 26.0059L45.511 25.7363C45.584 25.6263 45.674 25.516 45.783 25.416C45.892 25.266 46.019 25.1963 46.164 25.1963C46.455 25.1963 46.636 25.3066 46.709 25.5166C46.818 25.7366 46.836 25.9568 46.763 26.1768C46.219 28.7168 45.275 30.6167 43.932 31.8867C42.626 33.1567 41.083 33.7959 39.305 33.7959C37.49 33.7959 35.93 33.1567 34.623 31.8867C33.317 30.6167 32.319 28.9665 31.629 26.9365C30.976 24.9065 30.649 22.7461 30.649 20.4561C30.649 18.1361 30.994 15.7364 31.683 13.2764C32.409 10.8064 33.426 8.75621 34.732 7.11621C36.039 5.44621 37.563 4.61621 39.305 4.61621C40.285 4.61621 41.392 5.10594 42.626 6.08594C43.896 7.02594 45.148 8.22676 46.382 9.67676C47.616 11.0968 48.777 12.5865 49.866 14.1465L49.872 14.1562C49.944 14.2263 50.015 14.316 50.084 14.416C50.302 14.746 50.538 15.0863 50.792 15.4463C51.046 15.7763 51.336 16.1163 51.663 16.4863C52.643 17.5763 53.768 18.4665 55.038 19.1465C56.344 19.8365 57.76 20.1865 59.284 20.1865C60.954 20.1865 62.097 19.5867 62.714 18.3867C63.331 17.1567 63.639 15.486 63.639 13.376C63.639 11.816 63.349 10.3162 62.768 8.86621C62.188 7.37621 61.135 6.62598 59.611 6.62598C58.631 6.62598 57.724 7.06652 56.889 7.93652C56.054 8.80652 55.401 10.1666 54.929 12.0166C54.893 12.0966 54.856 12.1859 54.82 12.2959V12.5059C54.639 13.1959 54.421 13.7465 54.167 14.1465C53.913 14.5465 53.477 14.7461 52.86 14.7461C52.316 14.7461 51.899 14.636 51.608 14.416C51.354 14.196 51.173 13.9267 51.064 13.5967C50.991 13.2767 50.973 12.9264 51.009 12.5664C51.082 11.7664 51.463 10.7664 52.153 9.56641C52.878 8.33641 53.877 7.26645 55.147 6.35645C56.453 5.41645 57.978 4.94629 59.72 4.94629C60.99 4.94629 62.206 5.26676 63.367 5.92676C64.528 6.57676 65.454 7.55621 66.143 8.86621C66.869 10.1362 67.232 11.6565 67.232 13.4365C67.232 14.8865 66.96 16.2466 66.416 17.5166C65.871 18.7566 65.109 19.7862 64.129 20.6162C63.149 21.4562 62.042 21.9863 60.808 22.1963C60.627 22.2363 60.427 22.2766 60.21 22.3066H59.611C57.615 22.3066 55.691 21.6961 53.84 20.4561C51.989 19.2261 50.483 17.9161 49.322 16.5361C49.213 16.3961 49.122 16.2858 49.05 16.2158C48.977 16.1058 48.886 15.9762 48.777 15.8262C48.746 15.7762 48.716 15.7365 48.687 15.6865ZM13.991 27.0459C15.189 25.6259 17.13 24.2463 19.816 22.9062C22.102 21.7463 23.699 20.7166 24.606 19.8066C25.514 18.8566 25.967 17.8263 25.967 16.6963C25.967 16.0463 25.695 15.4866 25.151 15.0166C24.643 14.5466 24.026 14.3066 23.3 14.3066C22.393 14.3066 21.413 14.5261 20.36 14.9561C19.344 15.3961 17.947 16.0666 16.168 16.9766C14.063 18.0666 12.285 18.8966 10.833 19.4766C9.418 20.0266 8.003 20.2959 6.587 20.2959C5.535 20.2959 4.5 20.0068 3.484 19.4268C2.468 18.8468 1.633 18.0464 0.98 17.0264C0.327 15.9764 0 14.7765 0 13.4365C0 11.9465 0.327 10.6968 0.98 9.67676C1.633 8.66676 2.432 7.84656 3.375 7.22656C4.101 6.75656 4.754 6.32676 5.335 5.92676C5.916 5.52676 6.442 5.15594 6.914 4.83594C7.712 4.25594 8.275 3.87652 8.601 3.68652C8.928 3.50652 9.255 3.41602 9.581 3.41602C10.162 3.41602 10.652 3.6166 11.051 4.0166C11.487 4.3766 11.704 4.86633 11.704 5.48633C11.704 5.99633 11.414 6.4259 10.833 6.7959C10.289 7.1559 9.345 7.6466 8.003 8.2666C7.531 8.4466 7.041 8.66602 6.533 8.91602C6.061 9.13602 5.589 9.36598 5.117 9.62598C4.21 10.096 3.43 10.7166 2.776 11.4766C2.159 12.1966 1.851 13.0366 1.851 13.9766C1.851 14.6666 2.069 15.3963 2.504 16.1562C2.976 16.9162 3.738 17.2959 4.791 17.2959C5.589 17.2959 6.46 17.0963 7.404 16.6963C8.347 16.3063 9.599 15.6659 11.16 14.7959C13.338 13.6359 15.17 12.7665 16.658 12.1865C18.146 11.6065 19.671 11.3164 21.231 11.3164C22.683 11.3164 23.917 11.7059 24.933 12.5059C25.949 13.2759 26.693 14.2159 27.165 15.3359C27.673 16.4259 27.927 17.4259 27.927 18.3359C27.927 19.6059 27.655 20.6759 27.111 21.5459C26.566 22.4159 25.84 23.1664 24.933 23.7764C24.062 24.3564 22.774 25.0861 21.068 25.9561C20.342 26.3561 19.58 26.7761 18.782 27.2061C18.019 27.6061 17.221 28.0564 16.386 28.5664C15.297 29.2564 14.535 29.8159 14.1 30.2559C13.701 30.6959 13.501 31.2866 13.501 32.0566V33.5762C13.501 33.7962 13.428 33.9564 13.283 34.0664C13.174 34.1764 13.029 34.2266 12.848 34.2266C12.666 34.2266 12.503 34.1566 12.358 34.0166C12.249 33.9066 12.194 33.7562 12.194 33.5762V31.4561C12.194 29.9261 12.793 28.4559 13.991 27.0459ZM107.408 22.3662C107.59 22.5062 107.68 22.7058 107.68 22.9658C107.68 23.2558 107.572 23.4566 107.354 23.5566C107.172 23.6666 106.918 23.7767 106.592 23.8867C105.43 24.2467 104.251 24.5564 103.053 24.8164C101.855 25.0664 100.839 25.1963 100.004 25.1963C98.553 25.1963 97.228 24.8658 96.03 24.2158C94.833 23.5258 93.871 22.5767 93.145 21.3867C92.456 20.1867 92.111 18.8259 92.111 17.2959C92.111 15.5559 92.401 14.0867 92.982 12.8867C93.599 11.6567 94.397 10.6763 95.377 9.94629C96.357 9.18629 97.591 8.5559 99.079 8.0459C99.841 7.7559 100.603 7.48656 101.365 7.22656C102.164 6.97656 102.926 6.75617 103.652 6.57617C105.684 5.95617 107.245 5.21668 108.334 4.34668C109.422 3.47668 110.366 2.49625 111.164 1.40625C111.346 1.11625 111.527 0.876289 111.709 0.696289C111.927 0.516289 112.09 0.426758 112.199 0.426758C112.344 0.426758 112.453 0.456133 112.525 0.536133C112.634 0.566133 112.707 0.646094 112.743 0.746094C112.816 0.826094 112.852 0.936172 112.852 1.07617C112.852 1.18617 112.816 1.31605 112.743 1.45605C112.707 1.60605 112.634 1.76629 112.525 1.94629C112.235 2.41629 111.8 2.96594 111.219 3.58594C110.638 4.16594 109.949 4.74617 109.15 5.32617C108.388 5.90617 107.59 6.41668 106.755 6.84668C105.485 7.57668 104.341 8.17648 103.325 8.64648C102.309 9.11648 101.257 9.62602 100.168 10.166C99.152 10.676 98.353 11.2166 97.772 11.8066C97.228 12.3466 96.793 13.0766 96.466 13.9766C96.176 14.8866 96.03 16.0458 96.03 17.4658C96.03 18.7658 96.448 19.9459 97.283 21.0059C98.154 22.0559 99.206 22.6863 100.44 22.9062C100.585 22.9462 100.73 22.9766 100.876 23.0166H101.365C101.874 23.0166 102.491 22.9664 103.216 22.8564C103.979 22.7064 104.668 22.566 105.285 22.416C105.612 22.346 105.902 22.2859 106.156 22.2559C106.446 22.1859 106.664 22.1465 106.809 22.1465C107.063 22.1465 107.263 22.2162 107.408 22.3662ZM39.196 16.8066C39.559 16.4066 40.031 16.2158 40.612 16.2158C41.12 16.2158 41.555 16.4066 41.918 16.8066C42.317 17.1766 42.517 17.626 42.517 18.166C42.517 18.676 42.317 19.1361 41.918 19.5361C41.555 19.8961 41.12 20.0762 40.612 20.0762C40.067 20.0762 39.595 19.8961 39.196 19.5361C38.833 19.1361 38.652 18.676 38.652 18.166C38.652 17.626 38.833 17.1766 39.196 16.8066ZM11.487 36.626C11.886 36.266 12.339 36.0859 12.848 36.0859C13.356 36.0859 13.791 36.266 14.154 36.626C14.553 37.026 14.753 37.4959 14.753 38.0459C14.753 38.5459 14.553 38.9867 14.154 39.3467C13.791 39.7467 13.356 39.9463 12.848 39.9463C12.339 39.9463 11.886 39.7467 11.487 39.3467C11.087 38.9867 10.888 38.5459 10.888 38.0459C10.888 37.4959 11.087 37.026 11.487 36.626Z" fill="black"/>
</svg>
