<svg width="113" height="40" viewBox="0 0 113 40" fill="none" xmlns="http://www.w3.org/2000/svg">
<path fill-rule="evenodd" clip-rule="evenodd" d="M70.546 28.5361C69.8 29.4861 68.986 30.346 68.103 31.126C67.196 31.886 66.143 32.5261 64.946 33.0361C63.748 33.5361 62.423 33.7959 60.972 33.7959C58.395 33.7959 56.254 33.1066 54.548 31.7266C52.878 30.3066 51.645 28.7667 50.846 27.0967C50.048 25.3967 49.648 24.1959 49.648 23.5059C49.648 23.1459 49.721 22.7966 49.866 22.4766C50.011 22.1066 50.229 21.8167 50.519 21.5967C50.846 21.3467 51.263 21.2158 51.772 21.2158C52.389 21.2158 52.878 21.3966 53.241 21.7666C53.604 22.1266 53.858 22.5466 54.004 23.0166V23.2363C54.04 23.2663 54.058 23.3265 54.058 23.3965C54.131 23.6565 54.167 23.8461 54.167 23.9961C54.203 24.1361 54.258 24.3367 54.33 24.5967C54.621 25.7967 55.002 26.896 55.473 27.916C55.981 28.936 56.689 29.7866 57.597 30.4766C58.504 31.1266 59.629 31.4561 60.972 31.4561C62.133 31.4561 63.167 31.2161 64.075 30.7461C65.018 30.2361 65.799 29.6363 66.416 28.9463C66.994 28.3363 67.445 27.7262 67.767 27.1162C67.799 27.0362 67.838 26.9667 67.885 26.8867C67.957 26.7367 68.032 26.5966 68.112 26.4766C68.729 25.2866 69.216 23.7768 69.573 21.9268C69.972 19.8568 70.245 17.7562 70.39 15.6162C70.426 15.1762 70.444 14.776 70.444 14.416C70.48 14.016 70.499 13.6364 70.499 13.2764C70.499 12.1064 70.825 10.8764 71.478 9.56641C72.132 8.26641 73.112 7.15609 74.418 6.24609C75.761 5.34609 77.394 4.88672 79.318 4.88672C81.35 4.88672 83.056 5.34609 84.435 6.24609C85.85 7.11609 86.885 8.18605 87.538 9.45605C88.228 10.7261 88.572 11.9061 88.572 12.9961V13.8662C88.572 14.1262 88.554 14.4161 88.518 14.7461C88.482 16.5561 88.518 18.1168 88.627 19.4268C88.766 20.6468 89.14 21.9459 89.747 23.3359C89.828 23.4659 89.908 23.6164 89.988 23.7764C90.75 25.2664 91.675 26.5859 92.764 27.7559C93.889 28.9159 95.141 29.8364 96.52 30.5264C97.9 31.1864 99.315 31.5059 100.767 31.5059C101.456 31.5059 102.128 31.4765 102.781 31.3965C103.47 31.3265 104.178 31.1966 104.904 31.0166C105.63 30.8366 106.374 30.6066 107.136 30.3066C107.499 30.1666 107.807 30.0967 108.061 30.0967C108.316 30.0567 108.515 30.1866 108.66 30.4766C108.805 30.7666 108.769 31.0361 108.551 31.2861C108.334 31.5061 108.098 31.6764 107.844 31.7764C106.501 32.4364 105.231 32.9261 104.033 33.2461C102.872 33.5761 101.765 33.7363 100.712 33.7363C98.027 33.7363 95.74 33.2662 93.853 32.3262C92.002 31.3862 90.587 30.326 89.607 29.166C88.627 28.006 87.828 26.8663 87.211 25.7363C86.824 25.0263 86.58 24.4461 86.48 23.9961C85.764 22.1761 85.3 20.3666 85.088 18.5566C84.834 16.3366 84.707 13.956 84.707 11.416C84.707 10.226 84.272 9.11668 83.401 8.09668C82.566 7.04668 81.205 6.5166 79.318 6.5166C77.83 6.5166 76.632 7.0259 75.725 8.0459C74.817 9.0259 74.364 10.2059 74.364 11.5859C74.364 13.5059 74.291 15.3264 74.146 17.0264C74.001 18.7364 73.765 20.3264 73.438 21.8164C73.148 23.1664 72.767 24.3966 72.295 25.5166C71.86 26.6066 71.297 27.5861 70.607 28.4561C70.588 28.4861 70.567 28.5061 70.546 28.5361ZM48.633 15.6865C48.576 15.6165 48.515 15.5363 48.451 15.4463L47.634 14.3066C46.037 12.0566 44.549 10.1863 43.17 8.69629C41.827 7.17629 40.539 6.41602 39.305 6.41602C38.253 6.41602 37.363 7.0266 36.638 8.2666C35.912 9.4966 35.385 11.1164 35.059 13.1064C34.732 15.0664 34.569 17.2061 34.569 19.5361C34.569 22.1061 34.823 24.2363 35.331 25.9062C35.839 27.5662 36.492 28.7859 37.291 29.5459C38.089 30.3059 38.924 30.6963 39.795 30.6963C41.174 30.6963 42.317 30.186 43.225 29.166C44.168 28.156 44.876 27.0959 45.348 26.0059L45.457 25.7363C45.529 25.6263 45.62 25.516 45.729 25.416C45.838 25.266 45.965 25.1963 46.11 25.1963C46.4 25.1963 46.582 25.3066 46.654 25.5166C46.763 25.7366 46.781 25.9568 46.709 26.1768C46.164 28.7168 45.221 30.6167 43.878 31.8867C42.571 33.1567 41.029 33.7959 39.251 33.7959C37.436 33.7959 35.875 33.1567 34.569 31.8867C33.262 30.6167 32.264 28.9665 31.575 26.9365C30.921 24.9065 30.595 22.7461 30.595 20.4561C30.595 18.1361 30.94 15.7364 31.629 13.2764C32.355 10.8064 33.371 8.75621 34.678 7.11621C35.984 5.44621 37.509 4.61621 39.251 4.61621C40.23 4.61621 41.337 5.10594 42.571 6.08594C43.842 7.02594 45.094 8.22676 46.328 9.67676C47.562 11.0968 48.723 12.5865 49.812 14.1465L49.817 14.1562C49.889 14.2263 49.96 14.316 50.03 14.416C50.247 14.746 50.483 15.0863 50.737 15.4463C50.991 15.7763 51.282 16.1163 51.608 16.4863C52.588 17.5763 53.713 18.4665 54.983 19.1465C56.29 19.8365 57.705 20.1865 59.23 20.1865C60.899 20.1865 62.042 19.5867 62.659 18.3867C63.276 17.1567 63.585 15.486 63.585 13.376C63.585 11.816 63.294 10.3162 62.714 8.86621C62.133 7.37621 61.081 6.62598 59.556 6.62598C58.576 6.62598 57.669 7.06652 56.834 7.93652C56.036 8.80652 55.383 10.1666 54.875 12.0166C54.838 12.0966 54.82 12.1859 54.82 12.2959C54.82 12.3659 54.802 12.4359 54.766 12.5059C54.621 13.1959 54.403 13.7465 54.112 14.1465C53.858 14.5465 53.423 14.7461 52.806 14.7461C52.298 14.7461 51.899 14.636 51.608 14.416C51.318 14.196 51.118 13.9267 51.009 13.5967C50.937 13.2767 50.919 12.9264 50.955 12.5664C51.028 11.7664 51.409 10.7664 52.098 9.56641C52.824 8.33641 53.822 7.26645 55.092 6.35645C56.399 5.41645 57.923 4.94629 59.665 4.94629C60.935 4.94629 62.151 5.26676 63.313 5.92676C64.474 6.57676 65.418 7.55621 66.143 8.86621C66.869 10.1362 67.232 11.6565 67.232 13.4365C67.232 14.8865 66.942 16.2466 66.361 17.5166C65.817 18.7566 65.055 19.7862 64.075 20.6162C63.095 21.4562 61.988 21.9863 60.754 22.1963C60.573 22.2363 60.373 22.2766 60.155 22.3066H59.556C57.56 22.3066 55.637 21.6961 53.786 20.4561C51.935 19.2261 50.429 17.9161 49.267 16.5361C49.158 16.3961 49.068 16.2858 48.995 16.2158C48.923 16.1058 48.832 15.9762 48.723 15.8262C48.691 15.7762 48.661 15.7365 48.633 15.6865ZM13.991 27.0459C15.189 25.6259 17.13 24.2463 19.816 22.9062C22.102 21.7463 23.699 20.7166 24.606 19.8066C25.514 18.8566 25.967 17.8263 25.967 16.6963C25.967 16.0463 25.695 15.4866 25.151 15.0166C24.643 14.5466 24.026 14.3066 23.3 14.3066C22.393 14.3066 21.413 14.5261 20.36 14.9561C19.344 15.3961 17.947 16.0666 16.168 16.9766C14.063 18.0666 12.285 18.8966 10.833 19.4766C9.418 20.0266 8.003 20.2959 6.587 20.2959C5.535 20.2959 4.5 20.0068 3.484 19.4268C2.468 18.8468 1.633 18.0464 0.98 17.0264C0.327 15.9764 0 14.7765 0 13.4365C0 11.9465 0.327 10.6968 0.98 9.67676C1.633 8.66676 2.432 7.84656 3.375 7.22656C4.101 6.75656 4.754 6.32676 5.335 5.92676C5.916 5.52676 6.442 5.15594 6.914 4.83594C7.712 4.25594 8.275 3.87652 8.601 3.68652C8.928 3.50652 9.255 3.41602 9.581 3.41602C10.162 3.41602 10.652 3.6166 11.051 4.0166C11.487 4.3766 11.704 4.86633 11.704 5.48633C11.704 5.99633 11.414 6.4259 10.833 6.7959C10.289 7.1559 9.345 7.6466 8.003 8.2666C7.531 8.4466 7.041 8.66602 6.533 8.91602C6.061 9.13602 5.589 9.36598 5.117 9.62598C4.21 10.096 3.43 10.7166 2.776 11.4766C2.159 12.1966 1.851 13.0366 1.851 13.9766C1.851 14.6666 2.069 15.3963 2.504 16.1562C2.976 16.9162 3.738 17.2959 4.791 17.2959C5.589 17.2959 6.46 17.0963 7.404 16.6963C8.347 16.3063 9.599 15.6659 11.16 14.7959C13.338 13.6359 15.17 12.7665 16.658 12.1865C18.146 11.6065 19.671 11.3164 21.231 11.3164C22.683 11.3164 23.917 11.7059 24.933 12.5059C25.949 13.2759 26.693 14.2159 27.165 15.3359C27.673 16.4259 27.927 17.4259 27.927 18.3359C27.927 19.6059 27.655 20.6759 27.111 21.5459C26.566 22.4159 25.84 23.1664 24.933 23.7764C24.062 24.3564 22.774 25.0861 21.068 25.9561C20.342 26.3561 19.58 26.7761 18.782 27.2061C18.019 27.6061 17.221 28.0564 16.386 28.5664C15.297 29.2564 14.535 29.8159 14.1 30.2559C13.701 30.6959 13.501 31.2866 13.501 32.0566V33.5762C13.501 33.7962 13.428 33.9564 13.283 34.0664C13.174 34.1764 13.029 34.2266 12.848 34.2266C12.666 34.2266 12.503 34.1566 12.358 34.0166C12.249 33.9066 12.194 33.7562 12.194 33.5762V31.4561C12.194 29.9261 12.793 28.4559 13.991 27.0459ZM107.299 22.416C107.481 22.566 107.572 22.7666 107.572 23.0166C107.572 23.3066 107.463 23.5062 107.245 23.6162C107.063 23.7262 106.809 23.8363 106.483 23.9463C105.321 24.3063 104.142 24.6162 102.944 24.8662C101.747 25.1162 100.73 25.2461 99.896 25.2461C98.444 25.2461 97.119 24.9266 95.922 24.2666C94.724 23.5766 93.78 22.6365 93.091 21.4365C92.401 20.2365 92.056 18.8764 92.056 17.3564C92.056 15.5764 92.347 14.0867 92.927 12.8867C93.544 11.6967 94.343 10.7259 95.323 10.0059C96.339 9.27586 97.591 8.66625 99.079 8.15625C99.841 7.86625 100.621 7.60648 101.42 7.39648C102.218 7.13648 102.962 6.90652 103.652 6.68652C105.721 6.06652 107.299 5.32605 108.388 4.45605C109.477 3.54605 110.42 2.54605 111.219 1.45605C111.437 1.16605 111.636 0.936094 111.818 0.746094C112.036 0.566094 112.199 0.476562 112.308 0.476562C112.453 0.476562 112.562 0.515937 112.634 0.585938C112.743 0.625937 112.816 0.696641 112.852 0.806641C112.925 0.876641 112.961 0.986719 112.961 1.13672C112.961 1.23672 112.925 1.3666 112.852 1.5166C112.816 1.6566 112.743 1.81586 112.634 2.00586C112.344 2.47586 111.908 3.01672 111.328 3.63672C110.747 4.21672 110.058 4.79598 109.259 5.37598C108.497 5.95598 107.717 6.46625 106.918 6.90625C105.648 7.66625 104.487 8.28586 103.434 8.75586C102.418 9.22586 101.347 9.73637 100.222 10.2764C99.17 10.7864 98.353 11.3164 97.772 11.8564C97.192 12.3964 96.738 13.1261 96.412 14.0361C96.121 14.9361 95.976 16.1066 95.976 17.5166C95.976 18.8266 96.393 20.0066 97.228 21.0566C98.063 22.1066 99.097 22.7458 100.331 22.9658C100.476 22.9958 100.621 23.0364 100.767 23.0664H101.257C101.765 23.0664 102.382 23.0162 103.108 22.9062C103.87 22.7662 104.559 22.6166 105.176 22.4766C105.503 22.3966 105.793 22.3466 106.047 22.3066C106.338 22.2366 106.555 22.1963 106.7 22.1963C106.955 22.1963 107.154 22.276 107.299 22.416ZM39.142 16.8066C39.505 16.4066 39.976 16.2158 40.557 16.2158C41.065 16.2158 41.501 16.4066 41.864 16.8066C42.263 17.1766 42.462 17.626 42.462 18.166C42.462 18.676 42.263 19.1361 41.864 19.5361C41.501 19.8961 41.065 20.0762 40.557 20.0762C40.013 20.0762 39.541 19.8961 39.142 19.5361C38.779 19.1361 38.597 18.676 38.597 18.166C38.597 17.626 38.779 17.1766 39.142 16.8066ZM11.487 36.626C11.886 36.266 12.339 36.0859 12.848 36.0859C13.356 36.0859 13.791 36.266 14.154 36.626C14.553 37.026 14.753 37.4959 14.753 38.0459C14.753 38.5459 14.553 38.9867 14.154 39.3467C13.791 39.7467 13.356 39.9463 12.848 39.9463C12.339 39.9463 11.886 39.7467 11.487 39.3467C11.087 38.9867 10.888 38.5459 10.888 38.0459C10.888 37.4959 11.087 37.026 11.487 36.626Z" fill="black"/>
</svg>
