<svg width="114" height="40" viewBox="0 0 114 40" fill="none" xmlns="http://www.w3.org/2000/svg">
<path fill-rule="evenodd" clip-rule="evenodd" d="M70.491 28.5361C69.746 29.4861 68.932 30.346 68.049 31.126C67.141 31.886 66.089 32.5261 64.891 33.0361C63.694 33.5361 62.369 33.7959 60.917 33.7959C58.341 33.7959 56.199 33.1066 54.493 31.7266C52.824 30.3066 51.59 28.7667 50.792 27.0967C49.993 25.3967 49.594 24.1959 49.594 23.5059C49.594 23.1459 49.667 22.7966 49.812 22.4766C49.957 22.1066 50.175 21.8167 50.465 21.5967C50.792 21.3467 51.209 21.2158 51.717 21.2158C52.334 21.2158 52.824 21.3966 53.187 21.7666C53.55 22.1266 53.804 22.5466 53.949 23.0166V23.2363C53.985 23.2663 54.004 23.3265 54.004 23.3965C54.076 23.6565 54.112 23.8461 54.112 23.9961C54.149 24.1361 54.203 24.3367 54.276 24.5967C54.566 25.7967 54.947 26.896 55.419 27.916C55.927 28.936 56.635 29.7866 57.542 30.4766C58.449 31.1266 59.574 31.4561 60.917 31.4561C62.079 31.4561 63.113 31.2161 64.02 30.7461C64.964 30.2361 65.744 29.6363 66.361 28.9463C66.94 28.3363 67.39 27.7262 67.713 27.1162C67.745 27.0362 67.784 26.9667 67.831 26.8867C67.91 26.7167 67.995 26.5665 68.084 26.4365C68.689 25.2865 69.167 23.7868 69.519 21.9268C69.918 19.8268 70.19 17.6966 70.335 15.5566C70.372 15.1266 70.39 14.7264 70.39 14.3564C70.426 13.9964 70.444 13.6364 70.444 13.2764C70.444 12.1064 70.771 10.8764 71.424 9.56641C72.077 8.26641 73.057 7.15609 74.364 6.24609C75.707 5.34609 77.34 4.88672 79.263 4.88672C81.296 4.88672 83.001 5.34609 84.381 6.24609C85.796 7.11609 86.83 8.18605 87.484 9.45605C88.173 10.6961 88.518 11.8761 88.518 12.9961C88.518 13.2861 88.5 13.5664 88.463 13.8164V14.6865C88.391 16.5065 88.427 18.0662 88.572 19.3662C88.712 20.6262 89.085 21.9459 89.693 23.3359C89.773 23.4659 89.853 23.6164 89.933 23.7764C90.695 25.2664 91.621 26.5859 92.71 27.7559C93.835 28.9159 95.087 29.8364 96.466 30.5264C97.845 31.1864 99.26 31.5059 100.712 31.5059C101.402 31.5059 102.073 31.4765 102.726 31.3965C103.416 31.3265 104.124 31.1966 104.85 31.0166C105.575 30.8366 106.319 30.6066 107.082 30.3066C107.444 30.1666 107.753 30.0967 108.007 30.0967C108.261 30.0567 108.461 30.1866 108.606 30.4766C108.751 30.7666 108.715 31.0361 108.497 31.2861C108.279 31.5061 108.043 31.6764 107.789 31.7764C106.446 32.4364 105.176 32.9261 103.979 33.2461C102.817 33.5761 101.71 33.7363 100.658 33.7363C97.972 33.7363 95.686 33.2662 93.798 32.3262C91.948 31.3862 90.532 30.326 89.552 29.166C88.572 28.006 87.774 26.8663 87.157 25.7363C86.758 25.0063 86.511 24.4161 86.417 23.9561C85.706 22.1261 85.245 20.3061 85.034 18.4961C84.78 16.3161 84.653 13.9462 84.653 11.3662C84.653 10.1662 84.235 9.0659 83.401 8.0459C82.566 7.0259 81.187 6.5166 79.263 6.5166C77.775 6.5166 76.559 7.0259 75.616 8.0459C74.709 9.0259 74.255 10.2059 74.255 11.5859C74.255 13.5059 74.182 15.3264 74.037 17.0264C73.928 18.7364 73.729 20.3264 73.438 21.8164C73.148 23.1264 72.767 24.3358 72.295 25.4658C71.823 26.5858 71.243 27.5861 70.553 28.4561C70.533 28.4861 70.513 28.5061 70.491 28.5361ZM48.579 15.6865C48.521 15.6165 48.461 15.5363 48.396 15.4463L47.58 14.3066C45.983 12.0566 44.495 10.1863 43.116 8.69629C41.773 7.17629 40.484 6.41602 39.251 6.41602C38.198 6.41602 37.309 7.0266 36.583 8.2666C35.857 9.4966 35.331 11.1164 35.004 13.1064C34.678 15.0664 34.514 17.2061 34.514 19.5361C34.514 22.1061 34.768 24.2363 35.277 25.9062C35.821 27.5662 36.474 28.7859 37.236 29.5459C38.035 30.3059 38.851 30.6963 39.686 30.6963C41.102 30.6963 42.263 30.186 43.17 29.166C44.078 28.116 44.767 27.0659 45.239 26.0059L45.402 25.7363C45.475 25.6263 45.566 25.516 45.674 25.416C45.783 25.266 45.91 25.1963 46.055 25.1963C46.346 25.1963 46.527 25.3066 46.6 25.5166C46.709 25.7366 46.727 25.9568 46.654 26.1768C46.11 28.7168 45.166 30.6167 43.823 31.8867C42.481 33.1567 40.938 33.7959 39.196 33.7959C37.382 33.7959 35.821 33.1567 34.514 31.8867C33.208 30.6167 32.21 28.9665 31.52 26.9365C30.867 24.9065 30.54 22.7461 30.54 20.4561C30.54 18.1361 30.885 15.7364 31.575 13.2764C32.301 10.8064 33.317 8.75621 34.623 7.11621C35.93 5.44621 37.454 4.61621 39.196 4.61621C40.176 4.61621 41.283 5.10594 42.517 6.08594C43.787 7.02594 45.039 8.22676 46.273 9.67676C47.507 11.0968 48.669 12.5865 49.757 14.1465L49.763 14.1562C49.835 14.2263 49.906 14.316 49.975 14.416C50.193 14.746 50.429 15.0863 50.683 15.4463C50.937 15.7763 51.227 16.1163 51.554 16.4863C52.534 17.5763 53.659 18.4665 54.929 19.1465C56.236 19.8365 57.651 20.1865 59.175 20.1865C60.881 20.1865 62.042 19.5867 62.659 18.3867C63.276 17.1567 63.585 15.486 63.585 13.376C63.585 11.816 63.294 10.3162 62.714 8.86621C62.133 7.37621 61.062 6.62598 59.502 6.62598C58.522 6.62598 57.615 7.06652 56.78 7.93652C55.981 8.80652 55.346 10.1666 54.875 12.0166C54.838 12.1266 54.802 12.2159 54.766 12.2959V12.5664C54.584 13.2164 54.366 13.7465 54.112 14.1465C53.858 14.5465 53.423 14.7461 52.806 14.7461C52.262 14.7461 51.844 14.636 51.554 14.416C51.3 14.196 51.118 13.9462 51.009 13.6562C50.937 13.3262 50.901 12.9762 50.901 12.6162C50.937 11.7862 51.3 10.7466 51.989 9.5166C52.715 8.2866 53.713 7.20664 54.983 6.30664C56.29 5.35664 57.832 4.88672 59.611 4.88672C60.881 4.88672 62.097 5.21621 63.258 5.86621C64.42 6.51621 65.363 7.49664 66.089 8.80664C66.815 10.1166 67.178 11.6565 67.178 13.4365C67.178 14.8865 66.887 16.2466 66.307 17.5166C65.762 18.7566 65 19.7862 64.02 20.6162C63.04 21.4562 61.934 21.9863 60.7 22.1963C60.518 22.2363 60.318 22.2766 60.101 22.3066H59.502C57.506 22.3066 55.582 21.6961 53.731 20.4561C51.88 19.2261 50.374 17.9161 49.213 16.5361C49.104 16.3961 49.013 16.2858 48.941 16.2158C48.868 16.1058 48.777 15.9762 48.669 15.8262C48.637 15.7762 48.607 15.7365 48.579 15.6865ZM13.991 27.0459C15.189 25.6259 17.13 24.2463 19.816 22.9062C22.102 21.7463 23.699 20.7166 24.606 19.8066C25.514 18.8566 25.967 17.8263 25.967 16.6963C25.967 16.0463 25.695 15.4866 25.151 15.0166C24.643 14.5466 24.026 14.3066 23.3 14.3066C22.393 14.3066 21.413 14.5261 20.36 14.9561C19.344 15.3961 17.947 16.0666 16.168 16.9766C14.063 18.0666 12.285 18.8966 10.833 19.4766C9.418 20.0266 8.003 20.2959 6.587 20.2959C5.535 20.2959 4.5 20.0068 3.484 19.4268C2.468 18.8468 1.633 18.0464 0.98 17.0264C0.327 15.9764 0 14.7765 0 13.4365C0 11.9465 0.327 10.6968 0.98 9.67676C1.633 8.66676 2.432 7.84656 3.375 7.22656C4.101 6.75656 4.754 6.32676 5.335 5.92676C5.916 5.52676 6.442 5.15594 6.914 4.83594C7.712 4.25594 8.275 3.87652 8.601 3.68652C8.928 3.50652 9.255 3.41602 9.581 3.41602C10.162 3.41602 10.652 3.6166 11.051 4.0166C11.487 4.3766 11.704 4.86633 11.704 5.48633C11.704 5.99633 11.414 6.4259 10.833 6.7959C10.289 7.1559 9.345 7.6466 8.003 8.2666C7.531 8.4466 7.041 8.66602 6.533 8.91602C6.061 9.13602 5.589 9.36598 5.117 9.62598C4.21 10.096 3.43 10.7166 2.776 11.4766C2.159 12.1966 1.851 13.0366 1.851 13.9766C1.851 14.6666 2.069 15.3963 2.504 16.1562C2.976 16.9162 3.738 17.2959 4.791 17.2959C5.589 17.2959 6.46 17.0963 7.404 16.6963C8.347 16.3063 9.599 15.6659 11.16 14.7959C13.338 13.6359 15.17 12.7665 16.658 12.1865C18.146 11.6065 19.671 11.3164 21.231 11.3164C22.683 11.3164 23.917 11.7059 24.933 12.5059C25.949 13.2759 26.693 14.2159 27.165 15.3359C27.673 16.4259 27.927 17.4259 27.927 18.3359C27.927 19.6059 27.655 20.6759 27.111 21.5459C26.566 22.4159 25.84 23.1664 24.933 23.7764C24.062 24.3564 22.774 25.0861 21.068 25.9561C20.342 26.3561 19.58 26.7761 18.782 27.2061C18.019 27.6061 17.221 28.0564 16.386 28.5664C15.297 29.2564 14.535 29.8159 14.1 30.2559C13.701 30.6959 13.501 31.2866 13.501 32.0566V33.5762C13.501 33.7962 13.428 33.9564 13.283 34.0664C13.174 34.1764 13.029 34.2266 12.848 34.2266C12.666 34.2266 12.503 34.1566 12.358 34.0166C12.249 33.9066 12.194 33.7562 12.194 33.5762V31.4561C12.194 29.9261 12.793 28.4559 13.991 27.0459ZM107.245 22.416C107.426 22.566 107.517 22.7666 107.517 23.0166C107.517 23.3066 107.408 23.5062 107.19 23.6162C107.009 23.7262 106.755 23.8363 106.428 23.9463C105.267 24.3063 104.087 24.6162 102.89 24.8662C101.692 25.1162 100.676 25.2461 99.841 25.2461C98.39 25.2461 97.065 24.9266 95.867 24.2666C94.67 23.5766 93.708 22.6365 92.982 21.4365C92.292 20.2365 91.948 18.8764 91.948 17.3564C91.948 15.5764 92.256 14.1063 92.873 12.9463C93.526 11.7463 94.343 10.8062 95.323 10.1162C96.303 9.38621 97.573 8.7766 99.134 8.2666C99.896 8.0066 100.658 7.75609 101.42 7.49609C102.218 7.24609 102.98 7.02668 103.706 6.84668C105.739 6.19668 107.299 5.43641 108.388 4.56641C109.477 3.65641 110.457 2.65641 111.328 1.56641C111.546 1.27641 111.745 1.03645 111.927 0.856445C112.108 0.646445 112.271 0.536133 112.417 0.536133C112.562 0.536133 112.671 0.566484 112.743 0.646484C112.852 0.676484 112.925 0.746445 112.961 0.856445C113.034 0.936445 113.07 1.03652 113.07 1.18652C113.07 1.29652 113.034 1.42641 112.961 1.56641C112.888 1.71641 112.798 1.87664 112.689 2.05664C112.398 2.49664 111.963 3.01672 111.382 3.63672C110.838 4.21672 110.185 4.81652 109.422 5.43652C108.66 6.01652 107.88 6.51605 107.082 6.95605C105.775 7.71605 104.596 8.33664 103.543 8.80664C102.491 9.27664 101.402 9.78594 100.277 10.3359C99.188 10.8359 98.353 11.3662 97.772 11.9062C97.192 12.4563 96.72 13.1759 96.357 14.0859C96.03 14.9559 95.867 16.1066 95.867 17.5166C95.867 18.8266 96.284 20.0066 97.119 21.0566C97.99 22.1066 99.043 22.7458 100.277 22.9658C100.422 22.9958 100.567 23.0364 100.712 23.0664H101.202C101.71 23.0664 102.327 23.0162 103.053 22.9062C103.815 22.7662 104.505 22.6166 105.122 22.4766C105.448 22.3966 105.739 22.3466 105.993 22.3066C106.283 22.2366 106.501 22.1963 106.646 22.1963C106.9 22.1963 107.1 22.276 107.245 22.416ZM39.087 16.8066C39.45 16.4066 39.922 16.2158 40.503 16.2158C41.011 16.2158 41.446 16.4066 41.809 16.8066C42.208 17.1766 42.408 17.626 42.408 18.166C42.408 18.676 42.208 19.1361 41.809 19.5361C41.446 19.8961 41.011 20.0762 40.503 20.0762C39.958 20.0762 39.486 19.8961 39.087 19.5361C38.724 19.1361 38.543 18.676 38.543 18.166C38.543 17.626 38.724 17.1766 39.087 16.8066ZM11.487 36.5762C11.886 36.2062 12.339 36.0264 12.848 36.0264C13.356 36.0264 13.791 36.2062 14.154 36.5762C14.553 36.9662 14.753 37.4463 14.753 37.9863C14.753 38.4963 14.553 38.9259 14.154 39.2959C13.791 39.6959 13.356 39.8965 12.848 39.8965C12.339 39.8965 11.886 39.6959 11.487 39.2959C11.087 38.9259 10.888 38.4963 10.888 37.9863C10.888 37.4463 11.087 36.9662 11.487 36.5762Z" fill="black"/>
</svg>
