<svg width="114" height="40" viewBox="0 0 114 40" fill="none" xmlns="http://www.w3.org/2000/svg">
<path fill-rule="evenodd" clip-rule="evenodd" d="M70.437 28.5361C69.691 29.4861 68.877 30.346 67.994 31.126C67.087 31.886 66.035 32.5261 64.837 33.0361C63.639 33.5361 62.315 33.7959 60.863 33.7959C58.286 33.7959 56.145 33.1066 54.439 31.7266C52.77 30.3066 51.536 28.7667 50.737 27.0967C49.939 25.3967 49.539 24.1959 49.539 23.5059C49.539 23.1459 49.612 22.7966 49.757 22.4766C49.902 22.1066 50.12 21.8167 50.411 21.5967C50.737 21.3467 51.155 21.2158 51.663 21.2158C52.28 21.2158 52.77 21.3966 53.133 21.7666C53.495 22.1266 53.75 22.5466 53.895 23.0166V23.2363C53.931 23.2663 53.949 23.3265 53.949 23.3965C54.022 23.6565 54.058 23.8461 54.058 23.9961C54.094 24.1361 54.149 24.3367 54.221 24.5967C54.512 25.7967 54.893 26.896 55.365 27.916C55.873 28.936 56.58 29.7866 57.488 30.4766C58.395 31.1266 59.52 31.4561 60.863 31.4561C62.024 31.4561 63.059 31.2161 63.966 30.7461C64.909 30.2361 65.69 29.6363 66.307 28.9463C66.885 28.3363 67.336 27.7262 67.658 27.1162C67.69 27.0462 67.73 26.9667 67.777 26.8867C67.856 26.7167 67.94 26.5665 68.03 26.4365C68.635 25.2865 69.113 23.7868 69.464 21.9268C69.863 19.8268 70.136 17.6966 70.281 15.5566C70.317 15.1266 70.335 14.7264 70.335 14.3564C70.372 13.9564 70.39 13.5758 70.39 13.2158C70.39 12.0558 70.716 10.8266 71.37 9.5166C72.023 8.2066 73.003 7.10629 74.309 6.19629C75.652 5.28629 77.285 4.83594 79.209 4.83594C81.241 4.83594 82.947 5.28629 84.326 6.19629C85.742 7.10629 86.776 8.18605 87.429 9.45605C88.119 10.6961 88.463 11.8761 88.463 12.9961C88.463 13.2861 88.445 13.5664 88.409 13.8164V14.6865C88.336 16.5065 88.373 18.0662 88.518 19.3662C88.657 20.6262 89.031 21.9459 89.639 23.3359C89.719 23.4659 89.799 23.6164 89.879 23.7764C90.641 25.2664 91.566 26.5859 92.655 27.7559C93.78 28.9159 95.032 29.8364 96.412 30.5264C97.791 31.1864 99.206 31.5059 100.658 31.5059C101.347 31.5059 102.019 31.4765 102.672 31.3965C103.362 31.3265 104.069 31.1966 104.795 31.0166C105.521 30.8366 106.265 30.6066 107.027 30.3066C107.39 30.1666 107.699 30.0967 107.953 30.0967C108.207 30.0567 108.406 30.1866 108.551 30.4766C108.697 30.7666 108.66 31.0361 108.443 31.2861C108.225 31.5061 107.989 31.6764 107.735 31.7764C106.392 32.4364 105.122 32.9261 103.924 33.2461C102.763 33.5761 101.656 33.7363 100.603 33.7363C97.918 33.7363 95.631 33.2662 93.744 32.3262C91.893 31.3862 90.478 30.326 89.498 29.166C88.518 28.006 87.719 26.8663 87.102 25.7363C86.703 25.0063 86.457 24.4161 86.362 23.9561C85.651 22.1261 85.19 20.3061 84.979 18.4961C84.725 16.2861 84.598 13.9062 84.598 11.3662C84.598 10.1662 84.181 9.0659 83.346 8.0459C82.511 6.9959 81.132 6.46582 79.209 6.46582C77.721 6.46582 76.505 6.97633 75.561 7.98633C74.654 8.96633 74.2 10.1464 74.2 11.5264C74.2 13.4864 74.128 15.3264 73.983 17.0264C73.874 18.7364 73.674 20.3264 73.384 21.8164C73.094 23.1264 72.712 24.3358 72.241 25.4658C71.769 26.5858 71.188 27.5861 70.499 28.4561C70.479 28.4861 70.458 28.5061 70.437 28.5361ZM48.524 15.6865C48.467 15.6165 48.406 15.5363 48.342 15.4463L47.525 14.3066C45.928 12.0566 44.44 10.1863 43.061 8.69629C41.718 7.17629 40.43 6.41602 39.196 6.41602C38.144 6.41602 37.254 7.0266 36.529 8.2666C35.803 9.4966 35.277 11.1164 34.95 13.1064C34.623 15.0664 34.46 17.2061 34.46 19.5361C34.46 22.1061 34.714 24.2363 35.222 25.9062C35.766 27.5662 36.42 28.7859 37.182 29.5459C37.98 30.3059 38.797 30.6963 39.632 30.6963C41.011 30.6963 42.154 30.186 43.061 29.166C44.005 28.116 44.713 27.0659 45.184 26.0059L45.348 25.7363C45.42 25.6263 45.511 25.516 45.62 25.416C45.729 25.266 45.856 25.1963 46.001 25.1963C46.291 25.1963 46.473 25.3066 46.545 25.5166C46.654 25.7366 46.672 25.9568 46.6 26.1768C46.055 28.7168 45.112 30.6167 43.769 31.8867C42.426 33.1567 40.884 33.7959 39.142 33.7959C37.327 33.7959 35.766 33.1567 34.46 31.8867C33.153 30.6167 32.155 28.9665 31.466 26.9365C30.813 24.9065 30.486 22.7461 30.486 20.4561C30.486 18.1361 30.831 15.7364 31.52 13.2764C32.246 10.8064 33.262 8.75621 34.569 7.11621C35.875 5.44621 37.4 4.61621 39.142 4.61621C40.122 4.61621 41.228 5.10594 42.462 6.08594C43.733 7.02594 44.985 8.22676 46.219 9.67676C47.453 11.0968 48.614 12.5865 49.703 14.1465L49.708 14.1562C49.781 14.2263 49.851 14.316 49.921 14.416C50.138 14.746 50.374 15.0863 50.628 15.4463C50.882 15.7763 51.173 16.1163 51.499 16.4863C52.479 17.5763 53.604 18.4665 54.875 19.1465C56.181 19.8365 57.597 20.1865 59.121 20.1865C60.827 20.1865 61.988 19.5867 62.605 18.3867C63.222 17.1567 63.53 15.486 63.53 13.376C63.53 11.816 63.24 10.3162 62.659 8.86621C62.079 7.37621 61.008 6.62598 59.447 6.62598C58.468 6.62598 57.578 7.06652 56.78 7.93652C55.981 8.80652 55.328 10.1666 54.82 12.0166C54.784 12.1266 54.766 12.2159 54.766 12.2959C54.766 12.3659 54.748 12.4564 54.711 12.5664C54.566 13.2164 54.348 13.7465 54.058 14.1465C53.804 14.5465 53.368 14.7461 52.751 14.7461C52.243 14.7461 51.844 14.636 51.554 14.416C51.263 14.196 51.064 13.9462 50.955 13.6562C50.882 13.3262 50.846 12.9762 50.846 12.6162C50.882 11.7862 51.245 10.7466 51.935 9.5166C52.661 8.2866 53.659 7.20664 54.929 6.30664C56.236 5.35664 57.778 4.88672 59.556 4.88672C60.827 4.88672 62.042 5.21621 63.204 5.86621C64.365 6.51621 65.309 7.49664 66.035 8.80664C66.797 10.1166 67.178 11.6565 67.178 13.4365C67.178 14.8865 66.887 16.2466 66.307 17.5166C65.726 18.7566 64.946 19.7862 63.966 20.6162C62.986 21.4562 61.879 21.9863 60.645 22.1963C60.464 22.2363 60.264 22.2766 60.046 22.3066H59.447C57.451 22.3066 55.528 21.6961 53.677 20.4561C51.826 19.2261 50.32 17.9161 49.158 16.5361C49.05 16.3961 48.959 16.2858 48.886 16.2158C48.814 16.1058 48.723 15.9762 48.614 15.8262C48.583 15.7762 48.553 15.7365 48.524 15.6865ZM13.991 27.0459C15.189 25.6259 17.13 24.2463 19.816 22.9062C22.102 21.7463 23.699 20.7166 24.606 19.8066C25.514 18.8566 25.967 17.8263 25.967 16.6963C25.967 16.0463 25.695 15.4866 25.151 15.0166C24.643 14.5466 24.026 14.3066 23.3 14.3066C22.393 14.3066 21.413 14.5261 20.36 14.9561C19.344 15.3961 17.947 16.0666 16.168 16.9766C14.063 18.0666 12.285 18.8966 10.833 19.4766C9.418 20.0266 8.003 20.2959 6.587 20.2959C5.535 20.2959 4.5 20.0068 3.484 19.4268C2.468 18.8468 1.633 18.0464 0.98 17.0264C0.327 15.9764 0 14.7765 0 13.4365C0 11.9465 0.327 10.6968 0.98 9.67676C1.633 8.66676 2.432 7.84656 3.375 7.22656C4.101 6.75656 4.754 6.32676 5.335 5.92676C5.916 5.52676 6.442 5.15594 6.914 4.83594C7.712 4.25594 8.275 3.87652 8.601 3.68652C8.928 3.50652 9.255 3.41602 9.581 3.41602C10.162 3.41602 10.652 3.6166 11.051 4.0166C11.487 4.3766 11.704 4.86633 11.704 5.48633C11.704 5.99633 11.414 6.4259 10.833 6.7959C10.289 7.1559 9.345 7.6466 8.003 8.2666C7.531 8.4466 7.041 8.66602 6.533 8.91602C6.061 9.13602 5.589 9.36598 5.117 9.62598C4.21 10.096 3.43 10.7166 2.776 11.4766C2.159 12.1966 1.851 13.0366 1.851 13.9766C1.851 14.6666 2.069 15.3963 2.504 16.1562C2.976 16.9162 3.738 17.2959 4.791 17.2959C5.589 17.2959 6.46 17.0963 7.404 16.6963C8.347 16.3063 9.599 15.6659 11.16 14.7959C13.338 13.6359 15.17 12.7665 16.658 12.1865C18.146 11.6065 19.671 11.3164 21.231 11.3164C22.683 11.3164 23.917 11.7059 24.933 12.5059C25.949 13.2759 26.693 14.2159 27.165 15.3359C27.673 16.4259 27.927 17.4259 27.927 18.3359C27.927 19.6059 27.655 20.6759 27.111 21.5459C26.566 22.4159 25.84 23.1664 24.933 23.7764C24.062 24.3564 22.774 25.0861 21.068 25.9561C20.342 26.3561 19.58 26.7761 18.782 27.2061C18.019 27.6061 17.221 28.0564 16.386 28.5664C15.297 29.2564 14.535 29.8159 14.1 30.2559C13.701 30.6959 13.501 31.2866 13.501 32.0566V33.5762C13.501 33.7962 13.428 33.9564 13.283 34.0664C13.174 34.1764 13.029 34.2266 12.848 34.2266C12.666 34.2266 12.503 34.1566 12.358 34.0166C12.249 33.9066 12.194 33.7562 12.194 33.5762V31.4561C12.194 29.9261 12.793 28.4559 13.991 27.0459ZM107.136 22.4766C107.317 22.6166 107.408 22.8164 107.408 23.0664C107.408 23.3564 107.299 23.556 107.082 23.666C106.9 23.776 106.646 23.8861 106.319 23.9961C105.158 24.3561 103.979 24.6668 102.781 24.9268C101.583 25.1768 100.567 25.3066 99.732 25.3066C98.317 25.3066 96.992 24.9762 95.758 24.3262C94.561 23.6362 93.617 22.6861 92.927 21.4961C92.238 20.2961 91.893 18.9362 91.893 17.4062C91.893 15.5963 92.202 14.1063 92.819 12.9463C93.472 11.7863 94.288 10.856 95.268 10.166C96.284 9.47602 97.573 8.87598 99.134 8.37598C99.896 8.11598 100.676 7.88602 101.474 7.66602C102.273 7.40602 103.017 7.17605 103.706 6.95605C105.775 6.30605 107.354 5.52621 108.443 4.61621C109.531 3.70621 110.511 2.70598 111.382 1.62598C111.636 1.33598 111.854 1.09602 112.036 0.916016C112.217 0.696016 112.38 0.585938 112.525 0.585938C112.671 0.585938 112.78 0.626289 112.852 0.696289C112.961 0.736289 113.034 0.806016 113.07 0.916016C113.142 0.986016 113.179 1.09633 113.179 1.23633C113.179 1.34633 113.142 1.47598 113.07 1.62598C112.997 1.76598 112.907 1.92621 112.798 2.11621C112.507 2.54621 112.072 3.07652 111.491 3.68652C110.947 4.26652 110.293 4.86633 109.531 5.48633C108.769 6.06633 108.007 6.57586 107.245 7.00586C105.938 7.80586 104.741 8.44602 103.652 8.91602C102.599 9.38602 101.492 9.89652 100.331 10.4365C99.206 10.9465 98.335 11.4766 97.718 12.0166C97.137 12.5266 96.666 13.2365 96.303 14.1465C95.976 15.0165 95.813 16.1562 95.813 17.5762C95.813 18.8762 96.23 20.0564 97.065 21.1064C97.9 22.1664 98.934 22.7966 100.168 23.0166C100.313 23.0566 100.458 23.086 100.603 23.126H101.093C101.601 23.126 102.218 23.0658 102.944 22.9658C103.706 22.8158 104.396 22.6764 105.013 22.5264C105.34 22.4564 105.63 22.3962 105.884 22.3662C106.174 22.2862 106.392 22.2559 106.537 22.2559C106.791 22.2559 106.991 22.3266 107.136 22.4766ZM39.033 16.8066C39.396 16.4066 39.868 16.2158 40.448 16.2158C40.956 16.2158 41.392 16.4066 41.755 16.8066C42.154 17.1766 42.354 17.626 42.354 18.166C42.354 18.676 42.154 19.1361 41.755 19.5361C41.392 19.8961 40.956 20.0762 40.448 20.0762C39.904 20.0762 39.432 19.8961 39.033 19.5361C38.67 19.1361 38.488 18.676 38.488 18.166C38.488 17.626 38.67 17.1766 39.033 16.8066ZM11.487 36.5762C11.886 36.2062 12.339 36.0264 12.848 36.0264C13.356 36.0264 13.791 36.2062 14.154 36.5762C14.553 36.9662 14.753 37.4463 14.753 37.9863C14.753 38.4963 14.553 38.9259 14.154 39.2959C13.791 39.6959 13.356 39.8965 12.848 39.8965C12.339 39.8965 11.886 39.6959 11.487 39.2959C11.087 38.9259 10.888 38.4963 10.888 37.9863C10.888 37.4463 11.087 36.9662 11.487 36.5762Z" fill="black"/>
</svg>
