<svg width="114" height="40" viewBox="0 0 114 40" fill="none" xmlns="http://www.w3.org/2000/svg">
<path fill-rule="evenodd" clip-rule="evenodd" d="M70.383 28.5361C69.637 29.4861 68.823 30.346 67.94 31.126C67.033 31.886 65.98 32.5261 64.782 33.0361C63.585 33.5361 62.26 33.7959 60.808 33.7959C58.232 33.7959 56.09 33.1066 54.385 31.7266C52.715 30.3066 51.481 28.7667 50.683 27.0967C49.884 25.3967 49.485 24.1959 49.485 23.5059C49.485 23.1459 49.558 22.7966 49.703 22.4766C49.848 22.1066 50.066 21.8167 50.356 21.5967C50.683 21.3467 51.1 21.2158 51.608 21.2158C52.225 21.2158 52.715 21.3966 53.078 21.7666C53.441 22.1266 53.695 22.5466 53.84 23.0166V23.2363C53.877 23.2663 53.895 23.3265 53.895 23.3965C53.967 23.6565 54.004 23.8461 54.004 23.9961C54.04 24.1361 54.094 24.3367 54.167 24.5967C54.457 25.7967 54.838 26.896 55.31 27.916C55.818 28.936 56.526 29.7866 57.433 30.4766C58.341 31.1266 59.466 31.4561 60.808 31.4561C61.97 31.4561 63.004 31.2161 63.911 30.7461C64.855 30.2361 65.635 29.6363 66.252 28.9463C66.831 28.3363 67.282 27.7262 67.604 27.1162C67.636 27.0362 67.675 26.9667 67.722 26.8867C67.801 26.7167 67.886 26.5665 67.976 26.4365C68.58 25.2865 69.058 23.7868 69.41 21.9268C69.809 19.8268 70.081 17.6966 70.226 15.5566C70.263 15.1266 70.281 14.7264 70.281 14.3564C70.317 13.9564 70.335 13.5758 70.335 13.2158C70.335 12.0558 70.662 10.8266 71.315 9.5166C71.968 8.2066 72.948 7.10629 74.255 6.19629C75.598 5.28629 77.231 4.83594 79.154 4.83594C81.187 4.83594 82.893 5.28629 84.272 6.19629C85.651 7.10629 86.667 8.18605 87.32 9.45605C88.01 10.6961 88.355 11.8761 88.355 12.9961V14.6367C88.282 16.4467 88.318 18.0262 88.463 19.3662C88.603 20.6262 88.976 21.9459 89.584 23.3359C89.664 23.4659 89.744 23.6164 89.824 23.7764C90.587 25.2664 91.512 26.5859 92.601 27.7559C93.726 28.9159 94.978 29.8364 96.357 30.5264C97.736 31.1864 99.152 31.5059 100.603 31.5059C101.293 31.5059 101.964 31.4765 102.618 31.3965C103.307 31.3265 104.015 31.1966 104.741 31.0166C105.467 30.8366 106.211 30.6066 106.973 30.3066C107.336 30.1666 107.644 30.0967 107.898 30.0967C108.152 30.0567 108.352 30.1866 108.497 30.4766C108.642 30.7666 108.606 31.0361 108.388 31.2861C108.17 31.5061 107.934 31.6764 107.68 31.7764C106.338 32.4364 105.067 32.9261 103.87 33.2461C102.708 33.5761 101.601 33.7363 100.549 33.7363C97.863 33.7363 95.577 33.2662 93.69 32.3262C91.839 31.3862 90.423 30.326 89.443 29.166C88.463 28.006 87.665 26.8663 87.048 25.7363C86.649 25.0063 86.402 24.4161 86.308 23.9561C85.597 22.1261 85.136 20.3061 84.925 18.4961C84.671 16.2861 84.544 13.9062 84.544 11.3662C84.544 10.1662 84.126 9.0659 83.292 8.0459C82.457 6.9959 81.078 6.46582 79.154 6.46582C77.666 6.46582 76.451 6.97633 75.507 7.98633C74.6 8.96633 74.146 10.1464 74.146 11.5264C74.146 13.4564 74.073 15.2666 73.928 16.9766C73.819 18.6766 73.62 20.2964 73.329 21.8164C73.039 23.1264 72.658 24.3358 72.186 25.4658C71.714 26.5858 71.134 27.5861 70.444 28.4561L70.383 28.5361ZM48.47 15.6865C48.412 15.6165 48.352 15.5363 48.287 15.4463L47.471 14.3066C45.874 12.0566 44.386 10.1863 43.007 8.69629C41.664 7.17629 40.376 6.41602 39.142 6.41602C38.089 6.41602 37.2 7.0266 36.474 8.2666C35.748 9.4966 35.222 11.1164 34.895 13.1064C34.569 15.0664 34.406 17.2061 34.406 19.5361C34.406 22.1061 34.66 24.2363 35.168 25.9062C35.712 27.5662 36.365 28.7859 37.127 29.5459C37.926 30.2759 38.742 30.6367 39.577 30.6367C40.956 30.6367 42.1 30.1262 43.007 29.1162C43.95 28.0962 44.658 27.0659 45.13 26.0059L45.293 25.7363C45.366 25.6263 45.457 25.516 45.566 25.416C45.674 25.266 45.801 25.1963 45.947 25.1963C46.237 25.1963 46.418 25.3066 46.491 25.5166C46.6 25.7366 46.618 25.9568 46.545 26.1768C46.001 28.7168 45.057 30.6167 43.715 31.8867C42.372 33.1567 40.829 33.7959 39.087 33.7959C37.273 33.7959 35.712 33.1567 34.406 31.8867C33.099 30.6167 32.101 28.9665 31.411 26.9365C30.758 24.9065 30.431 22.7461 30.431 20.4561C30.431 18.1361 30.776 15.7364 31.466 13.2764C32.192 10.8064 33.208 8.75621 34.514 7.11621C35.821 5.44621 37.345 4.61621 39.087 4.61621C40.067 4.61621 41.174 5.10594 42.408 6.08594C43.678 7.02594 44.93 8.22676 46.164 9.67676C47.398 11.0968 48.56 12.5865 49.648 14.1465L49.654 14.1562C49.726 14.2263 49.797 14.316 49.866 14.416C50.084 14.746 50.32 15.0863 50.574 15.4463C50.828 15.7763 51.118 16.1163 51.445 16.4863C52.425 17.5763 53.55 18.4665 54.82 19.1465C56.127 19.8365 57.542 20.1865 59.066 20.1865C60.772 20.1865 61.934 19.5867 62.55 18.3867C63.204 17.1567 63.53 15.486 63.53 13.376C63.53 11.816 63.222 10.3162 62.605 8.86621C62.024 7.37621 60.954 6.62598 59.393 6.62598C58.413 6.62598 57.524 7.06652 56.725 7.93652C55.927 8.80652 55.292 10.1666 54.82 12.0166C54.784 12.1266 54.748 12.2159 54.711 12.2959V12.5664C54.53 13.2164 54.294 13.7465 54.004 14.1465C53.75 14.5465 53.314 14.7461 52.697 14.7461C52.189 14.7461 51.79 14.6458 51.499 14.4658C51.209 14.2558 51.009 13.9762 50.901 13.6562C50.828 13.3262 50.792 12.9762 50.792 12.6162C50.828 11.7862 51.191 10.7466 51.88 9.5166C52.606 8.2866 53.604 7.20664 54.875 6.30664C56.181 5.35664 57.724 4.88672 59.502 4.88672C60.772 4.88672 61.988 5.21621 63.149 5.86621C64.347 6.51621 65.309 7.49664 66.035 8.80664C66.76 10.1166 67.123 11.6565 67.123 13.4365C67.123 14.8865 66.833 16.2466 66.252 17.5166C65.708 18.7566 64.928 19.7862 63.911 20.6162C62.932 21.4562 61.825 21.9863 60.591 22.1963C60.409 22.2363 60.21 22.2766 59.992 22.3066H59.393C57.397 22.3066 55.473 21.6961 53.622 20.4561C51.772 19.2261 50.265 17.9161 49.104 16.5361C48.995 16.3961 48.904 16.2858 48.832 16.2158C48.759 16.1058 48.669 15.9762 48.56 15.8262C48.528 15.7762 48.498 15.7365 48.47 15.6865ZM13.991 27.0459C15.189 25.6259 17.13 24.2463 19.816 22.9062C22.102 21.7463 23.699 20.7166 24.606 19.8066C25.514 18.8566 25.967 17.8263 25.967 16.6963C25.967 16.0463 25.695 15.4866 25.151 15.0166C24.643 14.5466 24.026 14.3066 23.3 14.3066C22.393 14.3066 21.413 14.5261 20.36 14.9561C19.344 15.3961 17.947 16.0666 16.168 16.9766C14.063 18.0666 12.285 18.8966 10.833 19.4766C9.418 20.0266 8.003 20.2959 6.587 20.2959C5.535 20.2959 4.5 20.0068 3.484 19.4268C2.468 18.8468 1.633 18.0464 0.98 17.0264C0.327 15.9764 0 14.7765 0 13.4365C0 11.9465 0.327 10.6968 0.98 9.67676C1.633 8.66676 2.432 7.84656 3.375 7.22656C4.101 6.75656 4.754 6.32676 5.335 5.92676C5.916 5.52676 6.442 5.15594 6.914 4.83594C7.712 4.25594 8.275 3.87652 8.601 3.68652C8.928 3.50652 9.255 3.41602 9.581 3.41602C10.162 3.41602 10.652 3.6166 11.051 4.0166C11.487 4.3766 11.704 4.86633 11.704 5.48633C11.704 5.99633 11.414 6.4259 10.833 6.7959C10.289 7.1559 9.345 7.6466 8.003 8.2666C7.531 8.4466 7.041 8.66602 6.533 8.91602C6.061 9.13602 5.589 9.36598 5.117 9.62598C4.21 10.096 3.43 10.7166 2.776 11.4766C2.159 12.1966 1.851 13.0366 1.851 13.9766C1.851 14.6666 2.069 15.3963 2.504 16.1562C2.976 16.9162 3.738 17.2959 4.791 17.2959C5.589 17.2959 6.46 17.0963 7.404 16.6963C8.347 16.3063 9.599 15.6659 11.16 14.7959C13.338 13.6359 15.17 12.7665 16.658 12.1865C18.146 11.6065 19.671 11.3164 21.231 11.3164C22.683 11.3164 23.917 11.7059 24.933 12.5059C25.949 13.2759 26.693 14.2159 27.165 15.3359C27.673 16.4259 27.927 17.4259 27.927 18.3359C27.927 19.6059 27.655 20.6759 27.111 21.5459C26.566 22.4159 25.84 23.1664 24.933 23.7764C24.062 24.3564 22.774 25.0861 21.068 25.9561C20.342 26.3561 19.58 26.7761 18.782 27.2061C18.019 27.6061 17.221 28.0564 16.386 28.5664C15.297 29.2564 14.535 29.8159 14.1 30.2559C13.701 30.6959 13.501 31.2866 13.501 32.0566V33.5762C13.501 33.7962 13.428 33.9564 13.283 34.0664C13.174 34.1764 13.029 34.2266 12.848 34.2266C12.666 34.2266 12.503 34.1566 12.358 34.0166C12.249 33.9066 12.194 33.7562 12.194 33.5762V31.4561C12.194 29.9261 12.793 28.4559 13.991 27.0459ZM107.082 22.4766C107.263 22.6166 107.354 22.8164 107.354 23.0664C107.354 23.3564 107.245 23.556 107.027 23.666C106.846 23.776 106.592 23.8861 106.265 23.9961C105.104 24.3561 103.924 24.6668 102.726 24.9268C101.529 25.1768 100.513 25.3066 99.678 25.3066C98.226 25.3066 96.902 24.9762 95.704 24.3262C94.506 23.6362 93.544 22.6861 92.819 21.4961C92.129 20.2961 91.784 18.9362 91.784 17.4062C91.784 15.6263 92.111 14.1561 92.764 12.9961C93.417 11.8061 94.234 10.8766 95.214 10.2266C96.23 9.56656 97.537 9.00613 99.134 8.53613C99.896 8.28613 100.676 8.04617 101.474 7.82617C102.309 7.57617 103.071 7.33621 103.761 7.11621C105.793 6.46621 107.354 5.68637 108.443 4.77637C109.568 3.83637 110.584 2.79676 111.491 1.67676C111.709 1.38676 111.908 1.14582 112.09 0.96582C112.308 0.74582 112.489 0.646484 112.634 0.646484C112.78 0.646484 112.888 0.676094 112.961 0.746094C113.07 0.786094 113.142 0.85582 113.179 0.96582C113.251 1.03582 113.288 1.1459 113.288 1.2959C113.288 1.4059 113.251 1.52676 113.179 1.67676C113.106 1.81676 113.015 1.98602 112.907 2.16602C112.616 2.60602 112.181 3.12609 111.6 3.74609C111.056 4.32609 110.402 4.92613 109.64 5.53613C108.914 6.12613 108.17 6.62641 107.408 7.06641C106.102 7.86641 104.904 8.51637 103.815 9.02637C102.726 9.49637 101.565 10.0059 100.331 10.5459C99.206 11.0559 98.335 11.5662 97.718 12.0762C97.101 12.5862 96.611 13.2863 96.248 14.1963C95.885 15.0663 95.704 16.1962 95.704 17.5762C95.704 18.8762 96.121 20.0564 96.956 21.1064C97.827 22.1664 98.879 22.7966 100.113 23.0166C100.259 23.0566 100.404 23.086 100.549 23.126H101.039C101.547 23.126 102.164 23.0658 102.89 22.9658C103.652 22.8158 104.341 22.6764 104.958 22.5264C105.285 22.4564 105.575 22.3962 105.829 22.3662C106.12 22.2862 106.338 22.2559 106.483 22.2559C106.737 22.2559 106.936 22.3266 107.082 22.4766ZM38.978 16.8066C39.341 16.4066 39.813 16.2158 40.394 16.2158C40.902 16.2158 41.337 16.4066 41.7 16.8066C42.1 17.1766 42.299 17.626 42.299 18.166C42.299 18.676 42.1 19.1361 41.7 19.5361C41.337 19.8961 40.902 20.0762 40.394 20.0762C39.849 20.0762 39.378 19.8961 38.978 19.5361C38.615 19.1361 38.434 18.676 38.434 18.166C38.434 17.626 38.615 17.1766 38.978 16.8066ZM11.487 36.5762C11.886 36.2062 12.339 36.0264 12.848 36.0264C13.356 36.0264 13.791 36.2062 14.154 36.5762C14.553 36.9662 14.753 37.4463 14.753 37.9863C14.753 38.4963 14.553 38.9259 14.154 39.2959C13.791 39.6959 13.356 39.8965 12.848 39.8965C12.339 39.8965 11.886 39.6959 11.487 39.2959C11.087 38.9259 10.888 38.4963 10.888 37.9863C10.888 37.4463 11.087 36.9662 11.487 36.5762Z" fill="black"/>
</svg>
