<svg width="114" height="40" viewBox="0 0 114 40" fill="none" xmlns="http://www.w3.org/2000/svg">
<path fill-rule="evenodd" clip-rule="evenodd" d="M70.328 28.5361C69.583 29.4861 68.768 30.346 67.885 31.126C66.978 31.886 65.926 32.5261 64.728 33.0361C63.53 33.5361 62.206 33.7959 60.754 33.7959C58.177 33.7959 56.036 33.1066 54.33 31.7266C52.661 30.3066 51.427 28.7667 50.628 27.0967C49.83 25.3967 49.431 24.1959 49.431 23.5059C49.431 23.1459 49.503 22.7966 49.648 22.4766C49.794 22.1066 50.011 21.8167 50.302 21.5967C50.628 21.3467 51.046 21.2158 51.554 21.2158C52.171 21.2158 52.661 21.3966 53.024 21.7666C53.387 22.1266 53.641 22.5466 53.786 23.0166V23.2363C53.822 23.2663 53.84 23.3265 53.84 23.3965C53.913 23.6565 53.949 23.8461 53.949 23.9961C53.985 24.1361 54.04 24.3367 54.112 24.5967C54.403 25.7967 54.784 26.896 55.256 27.916C55.764 28.936 56.471 29.7866 57.379 30.4766C58.286 31.1266 59.411 31.4561 60.754 31.4561C61.915 31.4561 62.95 31.2161 63.857 30.7461C64.801 30.2361 65.581 29.6363 66.198 28.9463C66.777 28.3363 67.227 27.7262 67.55 27.1162C67.581 27.0362 67.621 26.9667 67.668 26.8867C67.747 26.7167 67.831 26.5665 67.921 26.4365C68.526 25.2865 69.004 23.7868 69.355 21.9268C69.754 19.8268 70.027 17.6759 70.172 15.5059C70.208 15.0659 70.226 14.6666 70.226 14.3066C70.263 13.9466 70.281 13.5758 70.281 13.2158C70.281 12.0558 70.607 10.8266 71.261 9.5166C71.914 8.2066 72.894 7.10629 74.2 6.19629C75.543 5.28629 77.176 4.83594 79.1 4.83594C81.132 4.83594 82.838 5.28629 84.217 6.19629C85.596 7.06629 86.613 8.13625 87.266 9.40625C87.955 10.6762 88.3 11.8761 88.3 12.9961V14.6367C88.228 16.4467 88.264 18.0262 88.409 19.3662C88.548 20.6262 88.922 21.9459 89.53 23.3359C89.61 23.4659 89.69 23.6164 89.77 23.7764C90.532 25.2664 91.458 26.5859 92.546 27.7559C93.671 28.9159 94.924 29.8364 96.303 30.5264C97.682 31.1864 99.097 31.5059 100.549 31.5059C101.238 31.5059 101.91 31.4765 102.563 31.3965C103.253 31.3265 103.96 31.1966 104.686 31.0166C105.412 30.8366 106.156 30.6066 106.918 30.3066C107.281 30.1666 107.59 30.0967 107.844 30.0967C108.098 30.0567 108.297 30.1866 108.443 30.4766C108.588 30.7666 108.551 31.0361 108.334 31.2861C108.116 31.5061 107.88 31.6764 107.626 31.7764C106.283 32.4364 105.013 32.9261 103.815 33.2461C102.654 33.5761 101.547 33.7363 100.494 33.7363C97.809 33.7363 95.522 33.2662 93.635 32.3262C91.784 31.3862 90.369 30.326 89.389 29.166C88.409 28.006 87.611 26.8663 86.994 25.7363C86.593 25.0063 86.346 24.4061 86.253 23.9561C85.542 22.1161 85.081 20.2763 84.87 18.4463C84.616 16.2263 84.489 13.8662 84.489 11.3662C84.489 10.1662 84.072 9.0659 83.237 8.0459C82.403 6.9959 81.023 6.46582 79.1 6.46582C77.612 6.46582 76.396 6.97633 75.453 7.98633C74.545 8.96633 74.092 10.1464 74.092 11.5264C74.092 13.4564 74.019 15.2666 73.874 16.9766C73.765 18.6766 73.565 20.2964 73.275 21.8164C72.985 23.1264 72.604 24.3358 72.132 25.4658C71.66 26.5858 71.079 27.5861 70.39 28.4561C70.37 28.4861 70.35 28.5061 70.328 28.5361ZM48.415 15.6865C48.358 15.6165 48.297 15.5363 48.233 15.4463L47.416 14.3066C45.82 12.0566 44.332 10.1863 42.952 8.69629C41.61 7.17629 40.321 6.41602 39.087 6.41602C38.035 6.41602 37.146 7.0266 36.42 8.2666C35.694 9.4966 35.168 11.1164 34.841 13.1064C34.514 15.0664 34.351 17.2061 34.351 19.5361C34.351 22.1061 34.605 24.2363 35.113 25.9062C35.658 27.5662 36.311 28.7859 37.073 29.5459C37.871 30.2759 38.688 30.6367 39.523 30.6367C40.866 30.6367 42.009 30.1262 42.952 29.1162C43.896 28.0962 44.604 27.0659 45.076 26.0059L45.239 25.7363C45.311 25.6263 45.402 25.516 45.511 25.416C45.62 25.266 45.747 25.1963 45.892 25.1963C46.182 25.1963 46.364 25.3066 46.437 25.5166C46.545 25.7366 46.564 25.9568 46.491 26.1768C45.947 28.7168 45.003 30.6167 43.66 31.8867C42.317 33.1567 40.775 33.7959 39.033 33.7959C37.218 33.7959 35.658 33.1567 34.351 31.8867C33.045 30.6167 32.046 28.9665 31.357 26.9365C30.704 24.9065 30.377 22.7461 30.377 20.4561C30.377 18.1361 30.722 15.7364 31.411 13.2764C32.137 10.8064 33.153 8.75621 34.46 7.11621C35.766 5.44621 37.291 4.61621 39.033 4.61621C40.013 4.61621 41.12 5.10594 42.354 6.08594C43.624 7.02594 44.876 8.22676 46.11 9.67676C47.344 11.0968 48.505 12.5865 49.594 14.1465L49.6 14.1562C49.672 14.2263 49.742 14.316 49.812 14.416C50.03 14.746 50.265 15.0863 50.519 15.4463C50.774 15.7763 51.064 16.1163 51.39 16.4863C52.37 17.5763 53.495 18.4665 54.766 19.1465C56.072 19.8365 57.488 20.1865 59.012 20.1865C60.718 20.1865 61.879 19.5867 62.496 18.3867C63.149 17.1567 63.476 15.486 63.476 13.376C63.476 11.816 63.167 10.3162 62.55 8.86621C61.97 7.37621 60.899 6.62598 59.339 6.62598C58.359 6.62598 57.469 7.06652 56.671 7.93652C55.873 8.80652 55.237 10.1666 54.766 12.0166C54.729 12.1266 54.711 12.2159 54.711 12.2959C54.711 12.3659 54.693 12.4564 54.657 12.5664C54.512 13.2164 54.294 13.7465 54.004 14.1465C53.75 14.5465 53.314 14.7461 52.697 14.7461C52.153 14.7461 51.735 14.6458 51.445 14.4658C51.155 14.2558 50.955 13.9762 50.846 13.6562C50.774 13.3262 50.737 12.9762 50.737 12.6162C50.774 11.7862 51.136 10.7466 51.826 9.5166C52.552 8.2866 53.55 7.19609 54.82 6.24609C56.127 5.30609 57.669 4.83594 59.447 4.83594C60.718 4.83594 61.934 5.17621 63.095 5.86621C64.293 6.51621 65.254 7.49664 65.98 8.80664C66.706 10.1166 67.069 11.6565 67.069 13.4365C67.069 14.8865 66.778 16.2466 66.198 17.5166C65.653 18.7566 64.873 19.7862 63.857 20.6162C62.877 21.4562 61.77 21.9863 60.536 22.1963C60.355 22.2363 60.155 22.2766 59.937 22.3066H59.339C57.342 22.3066 55.419 21.6961 53.568 20.4561C51.717 19.2261 50.211 17.9161 49.05 16.5361C48.941 16.3961 48.85 16.2858 48.777 16.2158C48.705 16.1058 48.614 15.9762 48.505 15.8262C48.474 15.7762 48.444 15.7365 48.415 15.6865ZM13.991 27.0459C15.189 25.6259 17.13 24.2463 19.816 22.9062C22.102 21.7463 23.699 20.7166 24.606 19.8066C25.514 18.8566 25.967 17.8263 25.967 16.6963C25.967 16.0463 25.695 15.4866 25.151 15.0166C24.643 14.5466 24.026 14.3066 23.3 14.3066C22.393 14.3066 21.413 14.5261 20.36 14.9561C19.344 15.3961 17.947 16.0666 16.168 16.9766C14.063 18.0666 12.285 18.8966 10.833 19.4766C9.418 20.0266 8.003 20.2959 6.587 20.2959C5.535 20.2959 4.5 20.0068 3.484 19.4268C2.468 18.8468 1.633 18.0464 0.98 17.0264C0.327 15.9764 0 14.7765 0 13.4365C0 11.9465 0.327 10.6968 0.98 9.67676C1.633 8.66676 2.432 7.84656 3.375 7.22656C4.101 6.75656 4.754 6.32676 5.335 5.92676C5.916 5.52676 6.442 5.15594 6.914 4.83594C7.712 4.25594 8.275 3.87652 8.601 3.68652C8.928 3.50652 9.255 3.41602 9.581 3.41602C10.162 3.41602 10.652 3.6166 11.051 4.0166C11.487 4.3766 11.704 4.86633 11.704 5.48633C11.704 5.99633 11.414 6.4259 10.833 6.7959C10.289 7.1559 9.345 7.6466 8.003 8.2666C7.531 8.4466 7.041 8.66602 6.533 8.91602C6.061 9.13602 5.589 9.36598 5.117 9.62598C4.21 10.096 3.43 10.7166 2.776 11.4766C2.159 12.1966 1.851 13.0366 1.851 13.9766C1.851 14.6666 2.069 15.3963 2.504 16.1562C2.976 16.9162 3.738 17.2959 4.791 17.2959C5.589 17.2959 6.46 17.0963 7.404 16.6963C8.347 16.3063 9.599 15.6659 11.16 14.7959C13.338 13.6359 15.17 12.7665 16.658 12.1865C18.146 11.6065 19.671 11.3164 21.231 11.3164C22.683 11.3164 23.917 11.7059 24.933 12.5059C25.949 13.2759 26.693 14.2159 27.165 15.3359C27.673 16.4259 27.927 17.4259 27.927 18.3359C27.927 19.6059 27.655 20.6759 27.111 21.5459C26.566 22.4159 25.84 23.1664 24.933 23.7764C24.062 24.3564 22.774 25.0861 21.068 25.9561C20.342 26.3561 19.58 26.7761 18.782 27.2061C18.019 27.6061 17.221 28.0564 16.386 28.5664C15.297 29.2564 14.535 29.8159 14.1 30.2559C13.701 30.6959 13.501 31.2866 13.501 32.0566V33.5762C13.501 33.7962 13.428 33.9564 13.283 34.0664C13.174 34.1764 13.029 34.2266 12.848 34.2266C12.666 34.2266 12.503 34.1566 12.358 34.0166C12.249 33.9066 12.194 33.7562 12.194 33.5762V31.4561C12.194 29.9261 12.793 28.4559 13.991 27.0459ZM107.027 22.5264C107.209 22.6764 107.299 22.866 107.299 23.126C107.299 23.416 107.19 23.6166 106.973 23.7266C106.791 23.8366 106.537 23.9459 106.211 24.0459C105.049 24.4159 103.87 24.7266 102.672 24.9766C101.474 25.2266 100.458 25.3564 99.623 25.3564C98.172 25.3564 96.829 25.026 95.595 24.376C94.397 23.686 93.454 22.7459 92.764 21.5459C92.075 20.3459 91.73 18.9858 91.73 17.4658C91.73 15.6458 92.056 14.1561 92.71 12.9961C93.363 11.8361 94.198 10.9459 95.214 10.3359C96.23 9.67594 97.537 9.11648 99.134 8.64648C99.932 8.38648 100.73 8.15652 101.529 7.93652C102.327 7.68652 103.071 7.46613 103.761 7.28613C105.793 6.59613 107.372 5.79672 108.497 4.88672C109.622 3.94672 110.638 2.89656 111.546 1.72656C111.8 1.43656 112.017 1.20637 112.199 1.02637C112.417 0.806367 112.598 0.696289 112.743 0.696289C112.888 0.696289 112.997 0.736641 113.07 0.806641C113.179 0.846641 113.251 0.916367 113.288 1.02637C113.36 1.09637 113.397 1.20668 113.397 1.34668C113.397 1.45668 113.36 1.58656 113.288 1.72656C113.215 1.87656 113.124 2.03582 113.015 2.21582C112.725 2.65582 112.29 3.1859 111.709 3.7959C111.164 4.3759 110.511 4.97668 109.749 5.59668C109.023 6.17668 108.297 6.68621 107.572 7.11621C106.265 7.95621 105.049 8.62672 103.924 9.13672C102.835 9.60672 101.656 10.1162 100.386 10.6562C99.224 11.1662 98.317 11.6765 97.664 12.1865C97.047 12.6565 96.557 13.3263 96.194 14.1963C95.831 15.0663 95.649 16.216 95.649 17.626C95.649 18.936 96.067 20.116 96.902 21.166C97.772 22.216 98.825 22.8564 100.059 23.0664C100.204 23.1064 100.349 23.1468 100.494 23.1768H100.984C101.492 23.1768 102.109 23.1266 102.835 23.0166C103.597 22.8666 104.287 22.7262 104.904 22.5762C105.231 22.5062 105.521 22.456 105.775 22.416C106.065 22.346 106.283 22.3066 106.428 22.3066C106.682 22.3066 106.882 22.3764 107.027 22.5264ZM38.924 16.8066C39.287 16.4066 39.759 16.2158 40.339 16.2158C40.847 16.2158 41.283 16.4066 41.646 16.8066C42.045 17.1766 42.245 17.626 42.245 18.166C42.245 18.676 42.045 19.1361 41.646 19.5361C41.283 19.8961 40.847 20.0762 40.339 20.0762C39.795 20.0762 39.323 19.8961 38.924 19.5361C38.561 19.1361 38.38 18.676 38.38 18.166C38.38 17.626 38.561 17.1766 38.924 16.8066ZM11.487 36.5762C11.886 36.2062 12.339 36.0264 12.848 36.0264C13.356 36.0264 13.791 36.2062 14.154 36.5762C14.553 36.9662 14.753 37.4463 14.753 37.9863C14.753 38.4963 14.553 38.9259 14.154 39.2959C13.791 39.6959 13.356 39.8965 12.848 39.8965C12.339 39.8965 11.886 39.6959 11.487 39.2959C11.087 38.9259 10.888 38.4963 10.888 37.9863C10.888 37.4463 11.087 36.9662 11.487 36.5762Z" fill="black"/>
</svg>
