<svg width="139" height="41" viewBox="0 0 139 41" fill="none" xmlns="http://www.w3.org/2000/svg">
<path fill-rule="evenodd" clip-rule="evenodd" d="M4.355 14.1741L0.817 14.6641C0.563 13.7931 0.363 13.0491 0.218 12.4321C0.073 11.8151 0 10.9801 0 9.9281C0.762 9.6011 1.415 9.34708 1.96 9.16608C2.504 8.94808 3.303 8.76709 4.355 8.62109V5.08313L6.642 4.8111C7.113 4.7381 7.458 4.68409 7.676 4.64709C7.93 4.57509 8.275 4.53809 8.71 4.53809V1.00012C9.581 0.964122 10.253 0.964122 10.725 1.00012C11.233 1.00012 11.904 1.05409 12.739 1.16309C12.811 2.03409 12.83 2.72412 12.793 3.23212C12.757 3.70412 12.666 4.35708 12.521 5.19208L8.71 5.3551V8.8941C7.839 8.9301 7.113 9.00208 6.533 9.11108C5.952 9.18408 5.226 9.23809 4.355 9.27509V10.3631C4.246 10.7631 4.137 11.0891 4.028 11.3431C3.92 11.5971 3.865 11.9421 3.865 12.3781C3.865 12.8491 3.92 13.1941 4.028 13.4121C4.137 13.6301 4.246 13.8841 4.355 14.1741ZM4.355 14.1741C5.807 14.2101 6.95 14.1921 7.785 14.1201C8.656 14.0111 9.908 13.8661 11.541 13.6841L13.065 13.5211V9.98212C13.9 9.94612 14.59 9.89209 15.134 9.81909C15.715 9.74609 16.477 9.69213 17.421 9.65613V6.11713C19.235 6.00813 20.687 5.97212 21.776 6.00812C22.864 6.00812 24.316 6.15309 26.131 6.44409V10.0371L29.669 9.9281C29.706 10.7631 29.76 11.4341 29.833 11.9421C29.905 12.4501 29.942 13.1581 29.942 14.0651H26.457V16.2431C26.457 16.7871 26.421 17.5131 26.349 18.4201H22.864C22.792 19.3281 22.665 20.0541 22.483 20.5981C22.302 21.1421 22.084 21.8681 21.83 22.7761H18.346C18.273 22.9571 18.201 23.1021 18.128 23.2111C18.056 23.2841 18.001 23.4111 17.965 23.5921C17.529 24.4271 17.203 25.0801 16.985 25.5521C16.767 25.9871 16.658 26.6041 16.658 27.4031V31.3771C16.078 31.4491 15.624 31.5041 15.297 31.5401C14.971 31.5401 14.626 31.5221 14.263 31.4861C13.936 31.4491 13.483 31.4131 12.902 31.3771V28.2741C12.902 27.1491 12.957 26.2961 13.065 25.7151C13.174 25.0981 13.319 24.2641 13.501 23.2111L13.555 22.7761H17.094C17.203 22.1951 17.312 21.7591 17.421 21.4691C17.566 21.1421 17.711 20.6891 17.856 20.1081C17.929 19.7811 18.019 19.5091 18.128 19.2911C18.273 19.0741 18.4 18.7831 18.509 18.4201H22.048C22.193 17.5131 22.32 16.8051 22.429 16.2971C22.538 15.7891 22.592 15.0451 22.592 14.0651H26.131V10.5271H23.844C23.373 10.4181 22.973 10.3271 22.647 10.2551C22.32 10.1461 21.848 10.0911 21.231 10.0911C20.505 10.0911 19.888 10.1281 19.38 10.2001C18.909 10.2731 18.255 10.3631 17.421 10.4721V14.0111L13.065 14.3921V17.9301C11.178 18.0761 9.708 18.1841 8.656 18.2571C7.603 18.2931 6.17 18.2751 4.355 18.2031V14.1741ZM39.196 36.2761L35.658 36.7121C35.331 35.9131 35.077 35.2781 34.895 34.8071C34.714 34.3351 34.623 33.6451 34.623 32.7381L34.569 30.6151V27.5121C35.15 27.4391 35.603 27.3851 35.93 27.3481C36.256 27.3121 36.583 27.3121 36.91 27.3481C37.273 27.3851 37.763 27.4211 38.38 27.4571V28.2741C38.488 30.0521 38.597 31.4311 38.706 32.4111C38.815 33.3911 38.978 34.6801 39.196 36.2761ZM47.961 35.8411L48.505 39.3791C46.691 39.7421 45.184 39.9961 43.987 40.1421C42.825 40.2871 41.228 40.3231 39.196 40.2501V36.2761C40.539 36.3851 41.61 36.4581 42.408 36.4941C43.243 36.4941 44.059 36.4401 44.858 36.3311C45.656 36.2221 46.691 36.0591 47.961 35.8411ZM38.38 14.0651H34.841C34.732 12.7951 34.641 11.7061 34.569 10.7991C34.533 9.89213 34.587 8.98409 34.732 8.07709C34.877 7.13309 35.186 5.97208 35.658 4.59308L39.196 4.9201C39.015 6.2261 38.888 7.2971 38.815 8.1311C38.742 8.9661 38.761 9.81912 38.87 10.6901C38.978 11.5611 39.142 12.6861 39.359 14.0651H42.898C43.007 14.9361 43.152 15.6621 43.334 16.2431C43.515 16.7871 43.696 17.5131 43.878 18.4201H47.416C47.562 19.2911 47.689 19.9991 47.798 20.5441C47.943 21.0881 48.088 21.8321 48.233 22.7761H51.772C52.026 25.4251 52.189 27.5661 52.262 29.1991C52.334 30.7961 52.262 33.0101 52.044 35.8411H47.961C48.142 33.0461 48.142 30.8511 47.961 29.2541C47.816 27.6571 47.562 25.4971 47.199 22.7761H43.66C43.588 22.3041 43.497 21.9231 43.388 21.6321C43.315 21.3421 43.225 20.9431 43.116 20.4351C43.043 20.0351 42.952 19.7091 42.844 19.4551C42.771 19.2011 42.698 18.8561 42.626 18.4201H39.087C38.906 17.4771 38.742 16.7511 38.597 16.2431C38.488 15.6981 38.416 14.9731 38.38 14.0651ZM39.196 4.9201V1.05408C41.047 0.945077 42.517 0.891113 43.606 0.891113C44.731 0.891113 46.164 0.927122 47.906 1.00012V4.53809C48.814 4.57509 49.503 4.62909 49.975 4.70209C50.483 4.73809 51.136 4.8111 51.935 4.9201V9.22009C51.971 10.2731 51.989 11.7241 51.989 13.5751C51.372 13.6481 50.901 13.7021 50.574 13.7391H49.539C49.213 13.7021 48.759 13.6481 48.179 13.5751L48.015 11.1801C47.979 10.5991 47.943 9.81911 47.906 8.83911V5.73608C46.636 5.37308 45.602 5.11912 44.803 4.97412C44.041 4.79212 43.243 4.70209 42.408 4.70209C41.61 4.70209 40.539 4.7741 39.196 4.9201ZM69.519 35.8411C69.555 35.1151 69.591 34.5521 69.628 34.1531C69.7 33.7181 69.754 33.1551 69.791 32.4661V31.7041C70.408 31.6311 70.88 31.5951 71.206 31.5951C71.569 31.5951 71.914 31.6131 72.241 31.6491C72.567 31.6851 73.003 31.7401 73.547 31.8121C73.547 32.6831 73.529 33.3551 73.493 33.8271C73.493 34.2981 73.475 34.9701 73.438 35.8411H69.519ZM61.081 35.8411C62.315 35.9861 63.294 36.0951 64.02 36.1681C64.782 36.2401 65.545 36.2581 66.307 36.2221C67.105 36.1861 68.176 36.0591 69.519 35.8411L69.9 39.3791C68.557 39.7791 67.414 40.0511 66.47 40.1961C65.563 40.3411 64.637 40.3411 63.694 40.1961C62.75 40.0511 61.589 39.7791 60.21 39.3791L61.081 35.8411ZM61.353 14.0651C61.135 17.1501 60.954 19.6911 60.808 21.6871C60.7 23.6471 60.645 25.6611 60.645 27.7291C60.681 29.7621 60.827 32.4661 61.081 35.8411H56.671C56.417 32.3571 56.29 29.5991 56.29 27.5661C56.326 25.5341 56.435 23.5561 56.617 21.6321C56.834 19.7091 57.088 17.1861 57.379 14.0651H61.353ZM61.353 14.0651L60.917 10.5271C62.696 10.3821 64.057 10.2911 65 10.2551C65.944 10.2181 67.269 10.2001 68.974 10.2001C69.192 10.9621 69.355 11.5791 69.464 12.0511C69.609 12.5231 69.7 13.1941 69.736 14.0651H73.275C73.348 14.9731 73.402 15.7171 73.438 16.2971C73.475 16.8781 73.493 17.6581 73.493 18.6381V18.9101C72.876 18.9831 72.404 19.0371 72.077 19.0741H71.097C70.771 19.0371 70.299 19.0011 69.682 18.9651C69.646 18.8201 69.628 18.6931 69.628 18.5841V18.1481C69.519 17.2051 69.428 16.4791 69.355 15.9711C69.283 15.4261 69.174 14.7911 69.029 14.0651H66.252C65.164 13.9931 64.329 13.9751 63.748 14.0111C63.167 14.0111 62.369 14.0291 61.353 14.0651ZM90.968 35.8411C91.04 34.9701 91.113 34.2441 91.185 33.6631C91.258 33.0831 91.312 32.3571 91.349 31.4861C91.929 31.4131 92.383 31.3771 92.71 31.3771C93.073 31.3771 93.417 31.3951 93.744 31.4311C94.071 31.4681 94.524 31.5041 95.105 31.5401C95.069 32.4481 95.032 33.1731 94.996 33.7181C94.96 34.2621 94.924 34.9701 94.887 35.8411H90.968ZM82.366 35.8411C83.637 35.9861 84.653 36.0951 85.415 36.1681C86.177 36.2401 86.957 36.2581 87.756 36.2221C88.554 36.1861 89.625 36.0591 90.968 35.8411L91.349 39.3791C90.006 39.7791 88.863 40.0511 87.919 40.1961C86.975 40.3411 86.014 40.3411 85.034 40.1961C84.09 40.0151 82.929 39.7421 81.55 39.3791L82.366 35.8411ZM82.693 14.0651C82.439 17.1501 82.239 19.6911 82.094 21.6871C82.07 22.0151 82.048 22.3441 82.029 22.6751C82.407 22.7441 82.701 22.8151 82.911 22.8841C83.165 22.9211 83.528 22.9391 83.999 22.9391H89.498C89.824 22.9031 90.242 22.8481 90.75 22.7761C90.786 22.1951 90.804 21.7411 90.804 21.4151V19.6721C90.804 18.4021 90.768 17.4221 90.695 16.7331C90.659 16.0071 90.568 15.1181 90.423 14.0651H87.647C86.558 13.9931 85.705 13.9561 85.088 13.9561C84.507 13.9561 83.709 13.9931 82.693 14.0651L82.094 10.5271C83.872 10.3821 85.215 10.2911 86.123 10.2551C87.066 10.2181 88.391 10.2001 90.097 10.2001C90.278 10.9991 90.441 11.6341 90.587 12.1051C90.768 12.5411 90.913 13.1941 91.022 14.0651H94.561C94.778 15.8801 94.924 17.3131 94.996 18.3661C95.069 19.4181 95.105 20.8881 95.105 22.7761C95.105 23.7191 95.087 24.4271 95.051 24.8991C95.014 25.3701 94.942 25.9871 94.833 26.7501H85.959C85.016 26.7501 84.308 26.8041 83.836 26.9131C83.364 26.9851 82.729 27.0941 81.931 27.2401C81.928 27.2011 81.925 27.1631 81.923 27.1251C81.924 27.3261 81.927 27.5271 81.931 27.7291C81.967 29.7981 82.112 32.5021 82.366 35.8411H78.066C77.775 32.3931 77.63 29.6531 77.63 27.6211C77.63 25.5521 77.721 23.5561 77.902 21.6321C78.084 19.7091 78.302 17.1861 78.556 14.0651H82.693ZM134.41 35.8411C134.446 34.9701 134.501 34.2441 134.573 33.6631C134.646 33.0831 134.7 32.3571 134.737 31.4861C135.317 31.4131 135.771 31.3771 136.098 31.3771C136.46 31.3771 136.805 31.3951 137.132 31.4311C137.459 31.4681 137.912 31.5041 138.493 31.5401C138.457 32.4481 138.42 33.1731 138.384 33.7181C138.348 34.2621 138.311 34.9701 138.275 35.8411H134.41ZM125.809 35.8411C127.043 35.9861 128.041 36.0951 128.803 36.1681C129.601 36.2401 130.4 36.2581 131.198 36.2221C131.996 36.1861 133.067 36.0591 134.41 35.8411L134.737 39.3791C133.43 39.7791 132.287 40.0511 131.307 40.1961C130.363 40.3411 129.402 40.3411 128.422 40.1961C127.478 40.0151 126.335 39.7421 124.992 39.3791L125.809 35.8411ZM126.081 14.0651C125.827 17.1501 125.627 19.6911 125.482 21.6871C125.458 22.0151 125.436 22.3441 125.417 22.6751C125.795 22.7441 126.089 22.8151 126.299 22.8841C126.553 22.9211 126.934 22.9391 127.442 22.9391H132.886C133.212 22.9031 133.63 22.8481 134.138 22.7761C134.174 22.1951 134.192 21.7411 134.192 21.4151C134.228 21.0521 134.247 20.5981 134.247 20.0541V19.6721C134.247 18.4021 134.21 17.4221 134.138 16.7331C134.065 16.0071 133.956 15.1181 133.811 14.0651H131.035C129.982 13.9931 129.148 13.9561 128.531 13.9561C127.914 13.9561 127.097 13.9931 126.081 14.0651L125.482 10.5271C127.26 10.3821 128.603 10.2911 129.51 10.2551C130.454 10.2181 131.797 10.2001 133.539 10.2001C133.684 10.9991 133.847 11.6341 134.029 12.1051C134.21 12.5411 134.356 13.1941 134.464 14.0651H137.949C138.166 15.8801 138.311 17.3131 138.384 18.3661C138.493 19.4181 138.529 20.8881 138.493 22.7761C138.493 23.7191 138.475 24.4271 138.438 24.8991C138.402 25.3701 138.348 25.9871 138.275 26.7501H129.402C128.422 26.7501 127.696 26.8041 127.224 26.9131C126.788 26.9851 126.153 27.0941 125.319 27.2401C125.319 27.0141 125.315 26.8101 125.308 26.6281C125.309 26.9931 125.312 27.3601 125.319 27.7291C125.355 29.7981 125.518 32.5021 125.809 35.8411H121.453C121.163 32.3931 121.018 29.6531 121.018 27.6211C121.018 25.5521 121.109 23.5561 121.29 21.6321C121.472 19.7091 121.708 17.1861 121.998 14.0651H126.081ZM103.489 36.0041C103.489 36.4761 103.525 36.8031 103.597 36.9841C103.706 37.1661 103.833 37.4011 103.979 37.6921V37.8011L104.033 37.8551C104.142 38.1091 104.214 38.2911 104.251 38.4001C104.287 38.5081 104.305 38.7081 104.305 38.9981C104.305 39.2891 104.287 39.5061 104.251 39.6521C104.214 39.7601 104.16 39.9421 104.087 40.1961H98.807C98.734 39.9781 98.68 39.7971 98.644 39.6521C98.607 39.5061 98.589 39.2891 98.589 38.9981C98.589 38.8171 98.607 38.6721 98.644 38.5631C98.716 38.4541 98.789 38.3091 98.861 38.1271C98.898 38.0551 98.934 38.0001 98.97 37.9641C99.006 37.8911 99.043 37.8371 99.079 37.8011C99.152 37.4381 99.188 37.1661 99.188 36.9841C99.224 36.7661 99.242 36.4401 99.242 36.0041V20.1621C99.242 18.8561 99.279 17.8401 99.351 17.1141C99.46 16.3521 99.623 15.3361 99.841 14.0651H103.38C103.452 13.2311 103.543 12.5951 103.652 12.1601C103.797 11.6881 103.924 11.0351 104.033 10.2001H107.953C108.896 10.2001 110.239 10.2181 111.981 10.2551C112.126 11.0531 112.235 11.6701 112.308 12.1051C112.417 12.5411 112.544 13.1941 112.689 14.0651H116.173C116.391 15.2991 116.554 16.2791 116.663 17.0051C116.772 17.6951 116.826 18.7111 116.826 20.0541V36.9301C116.862 37.1471 116.935 37.4381 117.044 37.8011C117.08 37.8731 117.116 37.9281 117.153 37.9641C117.189 38.0001 117.225 38.0731 117.262 38.1821C117.334 38.3271 117.389 38.4541 117.425 38.5631C117.498 38.6721 117.534 38.8351 117.534 39.0531C117.534 39.3431 117.516 39.5611 117.479 39.7061C117.479 39.8151 117.443 39.9781 117.371 40.1961H112.09C112.054 39.9781 112.017 39.7971 111.981 39.6521C111.945 39.5061 111.927 39.2891 111.927 38.9981C111.927 38.7081 111.945 38.5081 111.981 38.4001L112.253 37.8551C112.326 37.4921 112.398 37.2201 112.471 37.0391C112.544 36.8571 112.562 36.5121 112.525 36.0041V19.4551C112.525 18.1841 112.471 17.2411 112.362 16.6241C112.253 15.9711 112.09 15.1181 111.872 14.0651H110.13C109.404 14.0291 108.842 14.0111 108.443 14.0111C108.043 14.0111 107.463 14.0291 106.7 14.0651H104.142C103.96 14.9731 103.797 15.7351 103.652 16.3521C103.543 16.9321 103.489 17.7851 103.489 18.9101V36.0041ZM12.467 37.9641C12.467 37.3831 12.539 36.6391 12.684 35.7321C13.592 35.6231 14.318 35.5691 14.862 35.5691C15.443 35.5691 16.168 35.6231 17.039 35.7321C17.148 36.6391 17.203 37.3831 17.203 37.9641C17.203 38.5081 17.148 39.2161 17.039 40.0871C16.132 40.2321 15.388 40.3051 14.807 40.3051C14.263 40.3051 13.555 40.2501 12.684 40.1421C12.575 39.2341 12.503 38.5081 12.467 37.9641Z" fill="black"/>
</svg>
