<svg width="114" height="40" viewBox="0 0 114 40" fill="none" xmlns="http://www.w3.org/2000/svg">
<path fill-rule="evenodd" clip-rule="evenodd" d="M70.273 28.5361C69.528 29.4861 68.714 30.346 67.831 31.126C66.924 31.886 65.871 32.5261 64.674 33.0361C63.476 33.5361 62.151 33.7959 60.7 33.7959C58.123 33.7959 55.981 33.1066 54.276 31.7266C52.606 30.3066 51.372 28.7667 50.574 27.0967C49.775 25.3967 49.376 24.1959 49.376 23.5059C49.376 23.1459 49.449 22.7966 49.594 22.4766C49.739 22.1066 49.957 21.8167 50.247 21.5967C50.574 21.3467 50.991 21.2158 51.499 21.2158C52.116 21.2158 52.606 21.3966 52.969 21.7666C53.332 22.1266 53.586 22.5466 53.731 23.0166V23.2363C53.768 23.2663 53.786 23.3265 53.786 23.3965C53.858 23.6565 53.895 23.8461 53.895 23.9961C53.931 24.1361 53.985 24.3367 54.058 24.5967C54.348 25.7967 54.729 26.896 55.201 27.916C55.709 28.936 56.417 29.7866 57.324 30.4766C58.232 31.1266 59.357 31.4561 60.7 31.4561C61.861 31.4561 62.895 31.2161 63.803 30.7461C64.746 30.2361 65.526 29.6363 66.143 28.9463C66.722 28.3363 67.173 27.7262 67.495 27.1162C67.527 27.0362 67.566 26.9667 67.613 26.8867C67.692 26.7167 67.777 26.5665 67.867 26.4365C68.471 25.2865 68.949 23.7868 69.301 21.9268C69.7 19.7868 69.972 17.6459 70.118 15.5059C70.154 15.0659 70.172 14.6666 70.172 14.3066C70.208 13.9066 70.226 13.526 70.226 13.166C70.226 12.006 70.553 10.7661 71.206 9.45605C71.86 8.15605 72.839 7.04672 74.146 6.13672C75.489 5.23672 77.122 4.77637 79.046 4.77637C81.078 4.77637 82.784 5.23672 84.163 6.13672C85.542 7.04672 86.558 8.13625 87.211 9.40625C87.901 10.6762 88.246 11.8761 88.246 12.9961V13.7666C88.246 13.9766 88.228 14.2562 88.191 14.5762C88.155 16.3962 88.209 17.9764 88.355 19.3164C88.494 20.5664 88.871 21.9167 89.483 23.3467C89.56 23.4767 89.638 23.6264 89.716 23.7764C90.478 25.2664 91.403 26.5859 92.492 27.7559C93.617 28.9159 94.869 29.8364 96.248 30.5264C97.627 31.1864 99.043 31.5059 100.494 31.5059C101.184 31.5059 101.855 31.4765 102.509 31.3965C103.198 31.3265 103.906 31.1966 104.632 31.0166C105.358 30.8366 106.102 30.6066 106.864 30.3066C107.227 30.1666 107.535 30.0967 107.789 30.0967C108.043 30.0567 108.243 30.1866 108.388 30.4766C108.533 30.7666 108.497 31.0361 108.279 31.2861C108.061 31.5061 107.826 31.6764 107.572 31.7764C106.229 32.4364 104.958 32.9261 103.761 33.2461C102.599 33.5761 101.492 33.7363 100.44 33.7363C97.754 33.7363 95.468 33.2662 93.581 32.3262C91.73 31.3862 90.314 30.326 89.334 29.166C88.355 28.006 87.556 26.8663 86.939 25.7363C86.542 25.0063 86.295 24.4158 86.2 23.9658C85.482 22.1158 85.003 20.2863 84.762 18.4463C84.507 16.2263 84.381 13.8662 84.381 11.3662C84.381 10.1662 83.963 9.04633 83.128 7.98633C82.33 6.93633 80.969 6.41602 79.046 6.41602C77.558 6.41602 76.342 6.91652 75.398 7.93652C74.491 8.91652 74.037 10.0966 74.037 11.4766C74.037 13.4366 73.965 15.2666 73.819 16.9766C73.71 18.6766 73.511 20.2766 73.221 21.7666C72.93 23.1066 72.549 24.3358 72.077 25.4658C71.606 26.5858 71.025 27.5861 70.335 28.4561L70.273 28.5361ZM48.361 15.6865C48.304 15.6165 48.243 15.5363 48.179 15.4463L47.362 14.3066C45.765 12.0566 44.277 10.1863 42.898 8.69629C41.555 7.17629 40.267 6.41602 39.033 6.41602C37.98 6.41602 37.091 7.0266 36.365 8.2666C35.639 9.4966 35.113 11.1164 34.786 13.1064C34.46 15.0664 34.297 17.2061 34.297 19.5361C34.297 22.1061 34.551 24.2363 35.059 25.9062C35.603 27.5362 36.256 28.7361 37.019 29.4961C37.817 30.2561 38.634 30.6367 39.468 30.6367C40.811 30.6367 41.954 30.1262 42.898 29.1162C43.842 28.0562 44.549 27.0259 45.021 26.0059L45.184 25.7363C45.257 25.6263 45.348 25.516 45.457 25.416C45.566 25.266 45.693 25.1963 45.838 25.1963C46.128 25.1963 46.31 25.3066 46.382 25.5166C46.491 25.7366 46.509 25.9568 46.437 26.1768C45.892 28.7168 44.949 30.6167 43.606 31.8867C42.263 33.1567 40.72 33.7959 38.978 33.7959C37.164 33.7959 35.603 33.1567 34.297 31.8867C32.99 30.6167 31.992 28.9665 31.302 26.9365C30.649 24.9065 30.323 22.7461 30.323 20.4561C30.323 18.1361 30.667 15.7364 31.357 13.2764C32.083 10.8064 33.099 8.75621 34.406 7.11621C35.712 5.44621 37.236 4.61621 38.978 4.61621C39.958 4.61621 41.065 5.10594 42.299 6.08594C43.569 7.02594 44.822 8.22676 46.055 9.67676C47.289 11.0968 48.451 12.5865 49.539 14.1465L49.545 14.1562C49.617 14.2263 49.688 14.316 49.757 14.416C49.975 14.746 50.211 15.0863 50.465 15.4463C50.719 15.7763 51.009 16.1163 51.336 16.4863C52.316 17.5763 53.441 18.4665 54.711 19.1465C56.018 19.8365 57.433 20.1865 58.958 20.1865C60.663 20.1865 61.843 19.5659 62.496 18.3359C63.149 17.0959 63.476 15.446 63.476 13.376C63.476 11.856 63.167 10.366 62.55 8.91602C61.97 7.42602 60.881 6.68652 59.284 6.68652C58.304 6.68652 57.415 7.11633 56.617 7.98633C55.854 8.82633 55.237 10.1666 54.766 12.0166C54.729 12.1266 54.693 12.2159 54.657 12.2959V12.5664C54.475 13.2164 54.239 13.7465 53.949 14.1465C53.695 14.5465 53.26 14.7461 52.643 14.7461C52.134 14.7461 51.735 14.6458 51.445 14.4658C51.155 14.2558 50.955 13.9961 50.846 13.7061C50.737 13.3761 50.683 13.0368 50.683 12.6768C50.719 11.8068 51.082 10.7466 51.772 9.5166C52.461 8.2866 53.459 7.19609 54.766 6.24609C56.072 5.30609 57.615 4.83594 59.393 4.83594C60.663 4.83594 61.879 5.15641 63.04 5.81641C64.238 6.46641 65.2 7.46664 65.926 8.80664C66.688 10.1166 67.069 11.6565 67.069 13.4365C67.069 14.8865 66.778 16.2466 66.198 17.5166C65.617 18.7566 64.837 19.7862 63.857 20.6162C62.877 21.4562 61.752 21.9863 60.482 22.1963C60.3 22.2363 60.101 22.2766 59.883 22.3066H59.284C57.288 22.3066 55.365 21.6961 53.514 20.4561C51.663 19.2261 50.157 17.9161 48.995 16.5361C48.886 16.3961 48.795 16.2858 48.723 16.2158C48.65 16.1058 48.56 15.9762 48.451 15.8262C48.419 15.7762 48.389 15.7365 48.361 15.6865ZM13.991 27.0459C15.189 25.6259 17.13 24.2463 19.816 22.9062C22.102 21.7463 23.699 20.7166 24.606 19.8066C25.514 18.8566 25.967 17.8263 25.967 16.6963C25.967 16.0463 25.695 15.4866 25.151 15.0166C24.643 14.5466 24.026 14.3066 23.3 14.3066C22.393 14.3066 21.413 14.5261 20.36 14.9561C19.344 15.3961 17.947 16.0666 16.168 16.9766C14.063 18.0666 12.285 18.8966 10.833 19.4766C9.418 20.0266 8.003 20.2959 6.587 20.2959C5.535 20.2959 4.5 20.0068 3.484 19.4268C2.468 18.8468 1.633 18.0464 0.98 17.0264C0.327 15.9764 0 14.7765 0 13.4365C0 11.9465 0.327 10.6968 0.98 9.67676C1.633 8.66676 2.432 7.84656 3.375 7.22656C4.101 6.75656 4.754 6.32676 5.335 5.92676C5.916 5.52676 6.442 5.15594 6.914 4.83594C7.712 4.25594 8.275 3.87652 8.601 3.68652C8.928 3.50652 9.255 3.41602 9.581 3.41602C10.162 3.41602 10.652 3.6166 11.051 4.0166C11.487 4.3766 11.704 4.86633 11.704 5.48633C11.704 5.99633 11.414 6.4259 10.833 6.7959C10.289 7.1559 9.345 7.6466 8.003 8.2666C7.531 8.4466 7.041 8.66602 6.533 8.91602C6.061 9.13602 5.589 9.36598 5.117 9.62598C4.21 10.096 3.43 10.7166 2.776 11.4766C2.159 12.1966 1.851 13.0366 1.851 13.9766C1.851 14.6666 2.069 15.3963 2.504 16.1562C2.976 16.9162 3.738 17.2959 4.791 17.2959C5.589 17.2959 6.46 17.0963 7.404 16.6963C8.347 16.3063 9.599 15.6659 11.16 14.7959C13.338 13.6359 15.17 12.7665 16.658 12.1865C18.146 11.6065 19.671 11.3164 21.231 11.3164C22.683 11.3164 23.917 11.7059 24.933 12.5059C25.949 13.2759 26.693 14.2159 27.165 15.3359C27.673 16.4259 27.927 17.4259 27.927 18.3359C27.927 19.6059 27.655 20.6759 27.111 21.5459C26.566 22.4159 25.84 23.1664 24.933 23.7764C24.062 24.3564 22.774 25.0861 21.068 25.9561C20.342 26.3561 19.58 26.7761 18.782 27.2061C18.019 27.6061 17.221 28.0564 16.386 28.5664C15.297 29.2564 14.535 29.8159 14.1 30.2559C13.701 30.6959 13.501 31.2866 13.501 32.0566V33.5762C13.501 33.7962 13.428 33.9564 13.283 34.0664C13.174 34.1764 13.029 34.2266 12.848 34.2266C12.666 34.2266 12.503 34.1566 12.358 34.0166C12.249 33.9066 12.194 33.7562 12.194 33.5762V31.4561C12.194 29.9261 12.793 28.4559 13.991 27.0459ZM106.918 22.5264C107.1 22.6764 107.19 22.866 107.19 23.126C107.19 23.416 107.082 23.6166 106.864 23.7266C106.682 23.8366 106.428 23.9459 106.102 24.0459C104.94 24.4159 103.761 24.7266 102.563 24.9766C101.365 25.2266 100.349 25.3564 99.515 25.3564C98.063 25.3564 96.738 25.026 95.54 24.376C94.343 23.686 93.381 22.7459 92.655 21.5459C91.966 20.3459 91.621 18.9858 91.621 17.4658C91.621 15.6458 91.948 14.1766 92.601 13.0566C93.29 11.8966 94.143 11.0067 95.159 10.3867C96.176 9.76672 97.518 9.22586 99.188 8.75586C99.95 8.53586 100.73 8.31668 101.529 8.09668C102.364 7.84668 103.126 7.60648 103.815 7.39648C105.848 6.70648 107.426 5.88629 108.551 4.94629C109.676 3.99629 110.711 2.96594 111.654 1.83594C111.908 1.51594 112.126 1.23637 112.308 1.02637C112.525 0.806367 112.707 0.696289 112.852 0.696289C112.997 0.696289 113.106 0.736641 113.179 0.806641C113.288 0.846641 113.36 0.916367 113.397 1.02637C113.469 1.09637 113.505 1.20668 113.505 1.34668C113.505 1.45668 113.469 1.58656 113.397 1.72656C113.324 1.87656 113.233 2.03582 113.124 2.21582C112.834 2.69582 112.398 3.23645 111.818 3.85645C111.273 4.43645 110.638 5.03648 109.912 5.64648C109.187 6.22648 108.443 6.73676 107.68 7.17676C106.41 8.00676 105.212 8.67652 104.087 9.18652C102.962 9.69652 101.747 10.2266 100.44 10.7666C99.242 11.2366 98.317 11.7263 97.664 12.2363C97.01 12.7463 96.484 13.4366 96.085 14.3066C95.722 15.1366 95.54 16.246 95.54 17.626C95.54 18.936 95.958 20.116 96.793 21.166C97.664 22.216 98.716 22.8564 99.95 23.0664C100.095 23.1064 100.24 23.1468 100.386 23.1768H100.876C101.384 23.1768 102.001 23.1266 102.726 23.0166C103.489 22.8666 104.178 22.7262 104.795 22.5762C105.122 22.5062 105.412 22.456 105.666 22.416C105.956 22.346 106.174 22.3066 106.319 22.3066C106.573 22.3066 106.773 22.3764 106.918 22.5264ZM38.87 16.8066C39.232 16.4066 39.704 16.2158 40.285 16.2158C40.793 16.2158 41.228 16.4066 41.591 16.8066C41.991 17.1766 42.19 17.626 42.19 18.166C42.19 18.676 41.991 19.1361 41.591 19.5361C41.228 19.8961 40.793 20.0762 40.285 20.0762C39.741 20.0762 39.269 19.8961 38.87 19.5361C38.507 19.1361 38.325 18.676 38.325 18.166C38.325 17.626 38.507 17.1766 38.87 16.8066ZM11.432 36.5762C11.831 36.2062 12.285 36.0264 12.793 36.0264C13.301 36.0264 13.737 36.2062 14.1 36.5762C14.499 36.9662 14.698 37.4463 14.698 37.9863C14.698 38.4963 14.499 38.9259 14.1 39.2959C13.737 39.6959 13.301 39.8965 12.793 39.8965C12.285 39.8965 11.831 39.6959 11.432 39.2959C11.033 38.9259 10.833 38.4963 10.833 37.9863C10.833 37.4463 11.033 36.9662 11.432 36.5762Z" fill="black"/>
</svg>
