<svg width="114" height="40" viewBox="0 0 114 40" fill="none" xmlns="http://www.w3.org/2000/svg">
<path fill-rule="evenodd" clip-rule="evenodd" d="M70.219 28.5361C69.474 29.4861 68.66 30.346 67.777 31.126C66.869 31.886 65.817 32.5261 64.619 33.0361C63.422 33.5361 62.097 33.7959 60.645 33.7959C58.068 33.7959 55.927 33.1066 54.221 31.7266C52.552 30.3066 51.318 28.7667 50.519 27.0967C49.721 25.3967 49.322 24.1959 49.322 23.5059C49.322 23.1459 49.394 22.7966 49.539 22.4766C49.685 22.1066 49.902 21.8167 50.193 21.5967C50.519 21.3467 50.937 21.2158 51.445 21.2158C52.062 21.2158 52.552 21.3966 52.915 21.7666C53.278 22.1266 53.532 22.5466 53.677 23.0166V23.2363C53.713 23.2663 53.731 23.3265 53.731 23.3965C53.804 23.6565 53.84 23.8461 53.84 23.9961C53.877 24.1361 53.931 24.3367 54.004 24.5967C54.294 25.7967 54.675 26.896 55.147 27.916C55.655 28.936 56.362 29.7866 57.27 30.4766C58.177 31.1266 59.302 31.4561 60.645 31.4561C61.806 31.4561 62.841 31.2161 63.748 30.7461C64.692 30.2361 65.472 29.6363 66.089 28.9463C66.668 28.3363 67.118 27.7262 67.441 27.1162C67.472 27.0362 67.512 26.9667 67.559 26.8867C67.638 26.7167 67.722 26.5665 67.812 26.4365C68.417 25.2865 68.895 23.7868 69.246 21.9268C69.646 19.7868 69.918 17.6459 70.063 15.5059C70.099 15.0659 70.118 14.6666 70.118 14.3066C70.154 13.9066 70.172 13.526 70.172 13.166C70.172 12.006 70.499 10.7661 71.152 9.45605C71.805 8.15605 72.785 7.04672 74.092 6.13672C75.434 5.23672 77.068 4.77637 78.991 4.77637C81.023 4.77637 82.729 5.23672 84.108 6.13672C85.487 7.04672 86.504 8.13625 87.157 9.40625C87.846 10.6762 88.191 11.8761 88.191 12.9961V13.7666C88.191 13.9766 88.173 14.2562 88.137 14.5762C88.101 16.3962 88.155 17.9764 88.3 19.3164C88.44 20.5664 88.816 21.9167 89.428 23.3467C89.506 23.4767 89.584 23.6264 89.661 23.7764C90.423 25.2664 91.349 26.5859 92.438 27.7559C93.563 28.9159 94.815 29.8364 96.194 30.5264C97.573 31.1864 98.988 31.5059 100.44 31.5059C101.13 31.5059 101.801 31.4765 102.454 31.3965C103.144 31.3265 103.852 31.1966 104.577 31.0166C105.303 30.8366 106.047 30.6066 106.809 30.3066C107.172 30.1666 107.481 30.0967 107.735 30.0967C107.989 30.0567 108.188 30.1866 108.334 30.4766C108.479 30.7666 108.443 31.0361 108.225 31.2861C108.007 31.5061 107.771 31.6764 107.517 31.7764C106.174 32.4364 104.904 32.9261 103.706 33.2461C102.545 33.5761 101.438 33.7363 100.386 33.7363C97.7 33.7363 95.414 33.2662 93.526 32.3262C91.675 31.3862 90.26 30.326 89.28 29.166C88.3 28.006 87.502 26.8663 86.885 25.7363C86.487 25.0063 86.241 24.4158 86.145 23.9658C85.428 22.1158 84.948 20.2863 84.707 18.4463C84.453 16.1963 84.326 13.8362 84.326 11.3662C84.326 10.1662 83.909 9.04633 83.074 7.98633C82.275 6.93633 80.933 6.41602 79.046 6.41602C77.521 6.41602 76.287 6.91652 75.344 7.93652C74.436 8.91652 73.983 10.0966 73.983 11.4766C73.983 13.3966 73.91 15.2366 73.765 16.9766C73.656 18.6766 73.456 20.2766 73.166 21.7666C72.876 23.1066 72.495 24.3358 72.023 25.4658C71.551 26.5858 70.97 27.5861 70.281 28.4561C70.261 28.4861 70.241 28.5061 70.219 28.5361ZM48.306 15.6865C48.249 15.6165 48.188 15.5363 48.124 15.4463L47.308 14.3066C45.711 12.0566 44.223 10.1863 42.844 8.69629C41.501 7.17629 40.212 6.41602 38.978 6.41602C37.926 6.41602 37.037 7.0266 36.311 8.2666C35.585 9.4966 35.059 11.1164 34.732 13.1064C34.406 15.0664 34.242 17.2061 34.242 19.5361C34.242 22.1061 34.496 24.2363 35.004 25.9062C35.549 27.5362 36.202 28.7361 36.964 29.4961C37.763 30.2161 38.579 30.5859 39.414 30.5859C40.72 30.5859 41.846 30.0766 42.789 29.0566C43.769 28.0466 44.495 27.0259 44.967 26.0059L45.13 25.7363C45.203 25.6263 45.293 25.516 45.402 25.416C45.511 25.266 45.638 25.1963 45.783 25.1963C46.074 25.1963 46.255 25.3066 46.328 25.5166C46.437 25.7366 46.455 25.9568 46.382 26.1768C45.838 28.7168 44.894 30.6167 43.551 31.8867C42.208 33.1567 40.666 33.7959 38.924 33.7959C37.109 33.7959 35.549 33.1567 34.242 31.8867C32.936 30.6167 31.938 28.9665 31.248 26.9365C30.595 24.9065 30.268 22.7461 30.268 20.4561C30.268 18.1361 30.613 15.7364 31.302 13.2764C32.028 10.8064 33.045 8.75621 34.351 7.11621C35.658 5.44621 37.182 4.61621 38.924 4.61621C39.904 4.61621 41.011 5.10594 42.245 6.08594C43.515 7.02594 44.767 8.22676 46.001 9.67676C47.235 11.0968 48.396 12.5865 49.485 14.1465L49.491 14.1562C49.563 14.2263 49.634 14.316 49.703 14.416C49.921 14.746 50.157 15.0863 50.411 15.4463C50.665 15.7763 50.955 16.1163 51.282 16.4863C52.262 17.5763 53.387 18.4665 54.657 19.1465C55.963 19.8365 57.379 20.1865 58.903 20.1865C60.609 20.1865 61.788 19.5659 62.442 18.3359C63.095 17.0959 63.422 15.446 63.422 13.376C63.422 11.856 63.113 10.366 62.496 8.91602C61.915 7.42602 60.827 6.68652 59.23 6.68652C58.25 6.68652 57.361 7.11633 56.562 7.98633C55.8 8.82633 55.183 10.1666 54.711 12.0166C54.675 12.1266 54.657 12.2159 54.657 12.2959C54.657 12.3659 54.639 12.4564 54.602 12.5664C54.457 13.2164 54.239 13.7465 53.949 14.1465C53.695 14.5465 53.26 14.7461 52.643 14.7461C52.098 14.7461 51.681 14.6458 51.39 14.4658C51.1 14.2558 50.901 13.9961 50.792 13.7061C50.683 13.3761 50.628 13.0368 50.628 12.6768C50.665 11.8068 51.028 10.7466 51.717 9.5166C52.407 8.2866 53.405 7.19609 54.711 6.24609C56.018 5.26609 57.56 4.77637 59.339 4.77637C60.609 4.77637 61.843 5.12641 63.04 5.81641C64.238 6.46641 65.2 7.46664 65.926 8.80664C66.652 10.1166 67.014 11.6565 67.014 13.4365C67.014 14.8865 66.724 16.2466 66.143 17.5166C65.599 18.7566 64.819 19.7862 63.803 20.6162C62.823 21.4562 61.698 21.9863 60.427 22.1963C60.246 22.2363 60.046 22.2766 59.829 22.3066H59.23C57.234 22.3066 55.31 21.6961 53.459 20.4561C51.608 19.2261 50.102 17.9161 48.941 16.5361C48.832 16.3961 48.741 16.2858 48.669 16.2158C48.596 16.1058 48.505 15.9762 48.396 15.8262C48.365 15.7762 48.335 15.7365 48.306 15.6865ZM13.991 27.0459C15.189 25.6259 17.13 24.2463 19.816 22.9062C22.102 21.7463 23.699 20.7166 24.606 19.8066C25.514 18.8566 25.967 17.8263 25.967 16.6963C25.967 16.0463 25.695 15.4866 25.151 15.0166C24.643 14.5466 24.026 14.3066 23.3 14.3066C22.393 14.3066 21.413 14.5261 20.36 14.9561C19.344 15.3961 17.947 16.0666 16.168 16.9766C14.063 18.0666 12.285 18.8966 10.833 19.4766C9.418 20.0266 8.003 20.2959 6.587 20.2959C5.535 20.2959 4.5 20.0068 3.484 19.4268C2.468 18.8468 1.633 18.0464 0.98 17.0264C0.327 15.9764 0 14.7765 0 13.4365C0 11.9465 0.327 10.6968 0.98 9.67676C1.633 8.66676 2.432 7.84656 3.375 7.22656C4.101 6.75656 4.754 6.32676 5.335 5.92676C5.916 5.52676 6.442 5.15594 6.914 4.83594C7.712 4.25594 8.275 3.87652 8.601 3.68652C8.928 3.50652 9.255 3.41602 9.581 3.41602C10.162 3.41602 10.652 3.6166 11.051 4.0166C11.487 4.3766 11.704 4.86633 11.704 5.48633C11.704 5.99633 11.414 6.4259 10.833 6.7959C10.289 7.1559 9.345 7.6466 8.003 8.2666C7.531 8.4466 7.041 8.66602 6.533 8.91602C6.061 9.13602 5.589 9.36598 5.117 9.62598C4.21 10.096 3.43 10.7166 2.776 11.4766C2.159 12.1966 1.851 13.0366 1.851 13.9766C1.851 14.6666 2.069 15.3963 2.504 16.1562C2.976 16.9162 3.738 17.2959 4.791 17.2959C5.589 17.2959 6.46 17.0963 7.404 16.6963C8.347 16.3063 9.599 15.6659 11.16 14.7959C13.338 13.6359 15.17 12.7665 16.658 12.1865C18.146 11.6065 19.671 11.3164 21.231 11.3164C22.683 11.3164 23.917 11.7059 24.933 12.5059C25.949 13.2759 26.693 14.2159 27.165 15.3359C27.673 16.4259 27.927 17.4259 27.927 18.3359C27.927 19.6059 27.655 20.6759 27.111 21.5459C26.566 22.4159 25.84 23.1664 24.933 23.7764C24.062 24.3564 22.774 25.0861 21.068 25.9561C20.342 26.3561 19.58 26.7761 18.782 27.2061C18.019 27.6061 17.221 28.0564 16.386 28.5664C15.297 29.2564 14.535 29.8159 14.1 30.2559C13.701 30.6959 13.501 31.2866 13.501 32.0566V33.5762C13.501 33.7962 13.428 33.9564 13.283 34.0664C13.174 34.1764 13.029 34.2266 12.848 34.2266C12.666 34.2266 12.503 34.1566 12.358 34.0166C12.249 33.9066 12.194 33.7562 12.194 33.5762V31.4561C12.194 29.9261 12.793 28.4559 13.991 27.0459ZM106.864 22.5762C107.045 22.7262 107.136 22.9268 107.136 23.1768C107.136 23.4668 107.027 23.6664 106.809 23.7764C106.628 23.8864 106.374 23.9964 106.047 24.1064C104.886 24.4664 103.706 24.7764 102.509 25.0264C101.311 25.2864 100.295 25.416 99.46 25.416C98.008 25.416 96.666 25.0865 95.432 24.4365C94.234 23.7465 93.29 22.7967 92.601 21.5967C91.911 20.4067 91.566 19.0466 91.566 17.5166C91.566 15.6666 91.893 14.1766 92.546 13.0566C93.236 11.8966 94.089 11.0265 95.105 10.4365C96.158 9.85652 97.518 9.35602 99.188 8.91602C99.986 8.66602 100.785 8.42605 101.583 8.20605C102.382 7.98605 103.126 7.77664 103.815 7.55664C105.848 6.86664 107.426 6.04645 108.551 5.10645C109.713 4.12645 110.765 3.05648 111.709 1.89648C111.963 1.56648 112.199 1.29617 112.417 1.07617C112.634 0.856172 112.816 0.746094 112.961 0.746094C113.106 0.746094 113.215 0.786445 113.288 0.856445C113.396 0.896445 113.469 0.966172 113.505 1.07617C113.578 1.14617 113.614 1.25625 113.614 1.40625C113.614 1.51625 113.578 1.63613 113.505 1.78613C113.433 1.92613 113.342 2.09637 113.233 2.27637C112.943 2.74637 112.507 3.28625 111.927 3.90625C111.382 4.48625 110.747 5.08605 110.021 5.70605C109.295 6.28605 108.57 6.79656 107.844 7.22656C106.573 8.09656 105.358 8.7859 104.196 9.2959C103.071 9.8059 101.837 10.336 100.494 10.876C99.26 11.346 98.299 11.8367 97.609 12.3467C96.956 12.8167 96.43 13.4666 96.03 14.3066C95.668 15.1366 95.486 16.2668 95.486 17.6768C95.486 18.9868 95.903 20.1658 96.738 21.2158C97.609 22.2758 98.662 22.906 99.896 23.126C100.041 23.166 100.186 23.1963 100.331 23.2363H100.821C101.329 23.2363 101.946 23.1764 102.672 23.0664C103.434 22.9264 104.124 22.7767 104.741 22.6367C105.067 22.5667 105.358 22.5066 105.612 22.4766C105.902 22.3966 106.12 22.3662 106.265 22.3662C106.519 22.3662 106.719 22.4362 106.864 22.5762ZM38.815 16.8066C39.178 16.4066 39.65 16.2158 40.23 16.2158C40.739 16.2158 41.174 16.4066 41.537 16.8066C41.936 17.1766 42.136 17.626 42.136 18.166C42.136 18.676 41.936 19.1361 41.537 19.5361C41.174 19.8961 40.739 20.0762 40.23 20.0762C39.686 20.0762 39.214 19.8961 38.815 19.5361C38.452 19.1361 38.271 18.676 38.271 18.166C38.271 17.626 38.452 17.1766 38.815 16.8066ZM11.432 36.5762C11.831 36.2062 12.285 36.0264 12.793 36.0264C13.301 36.0264 13.737 36.2062 14.1 36.5762C14.499 36.9662 14.698 37.4463 14.698 37.9863C14.698 38.4963 14.499 38.9259 14.1 39.2959C13.737 39.6959 13.301 39.8965 12.793 39.8965C12.285 39.8965 11.831 39.6959 11.432 39.2959C11.033 38.9259 10.833 38.4963 10.833 37.9863C10.833 37.4463 11.033 36.9662 11.432 36.5762Z" fill="black"/>
</svg>
