<svg width="114" height="40" viewBox="0 0 114 40" fill="none" xmlns="http://www.w3.org/2000/svg">
<path fill-rule="evenodd" clip-rule="evenodd" d="M70.165 28.5361C69.419 29.4861 68.605 30.346 67.722 31.126C66.815 31.886 65.762 32.5261 64.565 33.0361C63.367 33.5361 62.042 33.7959 60.591 33.7959C58.014 33.7959 55.873 33.1066 54.167 31.7266C52.497 30.3066 51.263 28.7667 50.465 27.0967C49.667 25.3967 49.267 24.1959 49.267 23.5059C49.267 23.1459 49.34 22.7966 49.485 22.4766C49.63 22.1066 49.848 21.8167 50.138 21.5967C50.465 21.3467 50.882 21.2158 51.39 21.2158C52.007 21.2158 52.497 21.3966 52.86 21.7666C53.223 22.1266 53.477 22.5466 53.622 23.0166V23.2363C53.659 23.2663 53.677 23.3265 53.677 23.3965C53.75 23.6565 53.786 23.8461 53.786 23.9961C53.822 24.1361 53.877 24.3367 53.949 24.5967C54.239 25.7967 54.621 26.896 55.092 27.916C55.6 28.936 56.308 29.7866 57.215 30.4766C58.123 31.1266 59.248 31.4561 60.591 31.4561C61.752 31.4561 62.786 31.2161 63.694 30.7461C64.637 30.2361 65.418 29.6363 66.035 28.9463C66.613 28.3363 67.064 27.7262 67.386 27.1162C67.418 27.0462 67.457 26.9667 67.504 26.8867C67.584 26.7167 67.668 26.5665 67.758 26.4365C68.362 25.2865 68.841 23.7868 69.192 21.9268C69.591 19.7868 69.863 17.6263 70.009 15.4463C70.045 15.0463 70.063 14.6666 70.063 14.3066C70.099 13.9066 70.118 13.526 70.118 13.166C70.118 12.006 70.444 10.7661 71.097 9.45605C71.751 8.15605 72.731 7.04672 74.037 6.13672C75.38 5.23672 77.013 4.77637 78.937 4.77637C80.969 4.77637 82.675 5.23672 84.054 6.13672C85.433 7.04672 86.449 8.13625 87.102 9.40625C87.792 10.6762 88.137 11.8761 88.137 12.9961C88.137 13.2861 88.119 13.5466 88.082 13.7666V14.5264C88.046 16.3764 88.101 17.9764 88.246 19.3164C88.386 20.5664 88.762 21.9167 89.374 23.3467C89.452 23.4767 89.529 23.6264 89.607 23.7764C90.369 25.2664 91.294 26.5859 92.383 27.7559C93.508 28.9159 94.76 29.8364 96.139 30.5264C97.518 31.1864 98.934 31.5059 100.386 31.5059C101.075 31.5059 101.747 31.4765 102.4 31.3965C103.089 31.3265 103.797 31.1966 104.523 31.0166C105.249 30.8366 105.993 30.6066 106.755 30.3066C107.118 30.1666 107.426 30.0967 107.68 30.0967C107.934 30.0567 108.134 30.1866 108.279 30.4766C108.424 30.7666 108.388 31.0361 108.17 31.2861C107.953 31.5061 107.717 31.6764 107.463 31.7764C106.12 32.4364 104.85 32.9261 103.652 33.2461C102.491 33.5761 101.384 33.7363 100.331 33.7363C97.646 33.7363 95.359 33.2662 93.472 32.3262C91.621 31.3862 90.206 30.326 89.226 29.166C88.246 28.006 87.447 26.8663 86.83 25.7363C86.431 25.0063 86.185 24.4161 86.09 23.9561C85.373 22.1161 84.894 20.2567 84.653 18.3867C84.399 16.1367 84.272 13.7962 84.272 11.3662C84.272 10.1362 83.854 9.00633 83.019 7.98633C82.221 6.93633 80.878 6.41602 78.991 6.41602C77.467 6.41602 76.233 6.91652 75.289 7.93652C74.382 8.91652 73.928 10.0966 73.928 11.4766C73.928 13.3966 73.856 15.2366 73.71 16.9766C73.602 18.6766 73.402 20.2766 73.112 21.7666C72.821 23.1066 72.44 24.3358 71.968 25.4658C71.497 26.5858 70.916 27.5861 70.226 28.4561C70.207 28.4861 70.186 28.5061 70.165 28.5361ZM48.252 15.6865C48.195 15.6165 48.134 15.5363 48.07 15.4463L47.253 14.3066C45.656 12.0566 44.168 10.1863 42.789 8.69629C41.446 7.17629 40.158 6.41602 38.924 6.41602C37.871 6.41602 36.982 7.0266 36.256 8.2666C35.531 9.4966 35.004 11.1164 34.678 13.1064C34.351 15.0664 34.188 17.2061 34.188 19.5361C34.188 22.1061 34.442 24.2363 34.95 25.9062C35.494 27.5362 36.148 28.7361 36.91 29.4961C37.708 30.2161 38.525 30.5859 39.359 30.5859C40.666 30.5859 41.791 30.0766 42.735 29.0566C43.678 28.0466 44.404 27.0259 44.912 26.0059L45.076 25.7363C45.148 25.6263 45.239 25.516 45.348 25.416C45.457 25.266 45.584 25.1963 45.729 25.1963C46.019 25.1963 46.201 25.3066 46.273 25.5166C46.382 25.7366 46.4 25.9568 46.328 26.1768C45.783 28.7168 44.822 30.6167 43.442 31.8867C42.1 33.1567 40.575 33.7959 38.87 33.7959C37.055 33.7959 35.494 33.1567 34.188 31.8867C32.881 30.6167 31.883 28.9665 31.194 26.9365C30.54 24.9065 30.214 22.7461 30.214 20.4561C30.214 18.1361 30.558 15.7364 31.248 13.2764C31.974 10.8064 32.99 8.75621 34.297 7.11621C35.603 5.44621 37.127 4.61621 38.87 4.61621C39.849 4.61621 40.956 5.10594 42.19 6.08594C43.461 7.02594 44.713 8.22676 45.947 9.67676C47.181 11.0968 48.342 12.5865 49.431 14.1465L49.436 14.1562C49.508 14.2263 49.579 14.316 49.648 14.416C49.866 14.746 50.102 15.0863 50.356 15.4463C50.61 15.7763 50.901 16.1163 51.227 16.4863C52.207 17.5763 53.332 18.4665 54.602 19.1465C55.909 19.8365 57.324 20.1865 58.849 20.1865C60.554 20.1865 61.734 19.5659 62.387 18.3359C63.04 17.0959 63.367 15.446 63.367 13.376C63.367 11.856 63.059 10.366 62.442 8.91602C61.861 7.42602 60.772 6.68652 59.175 6.68652C58.195 6.68652 57.324 7.11633 56.562 7.98633C55.8 8.82633 55.183 10.1666 54.711 12.0166C54.675 12.1266 54.657 12.2159 54.657 12.2959C54.657 12.3659 54.639 12.4564 54.602 12.5664C54.421 13.2164 54.185 13.7465 53.895 14.1465C53.641 14.5465 53.205 14.7461 52.588 14.7461C52.044 14.7461 51.626 14.6458 51.336 14.4658C51.046 14.2558 50.846 13.9961 50.737 13.7061C50.628 13.3761 50.574 13.0368 50.574 12.6768C50.61 11.8068 50.973 10.7466 51.663 9.5166C52.352 8.2466 53.332 7.13629 54.602 6.19629C55.909 5.24629 57.469 4.77637 59.284 4.77637C60.554 4.77637 61.788 5.12641 62.986 5.81641C64.184 6.46641 65.145 7.46664 65.871 8.80664C66.633 10.1166 67.014 11.6565 67.014 13.4365C67.014 14.8865 66.724 16.2466 66.143 17.5166C65.563 18.7566 64.764 19.7862 63.748 20.6162C62.768 21.4562 61.643 21.9863 60.373 22.1963C60.191 22.2363 59.992 22.2766 59.774 22.3066H59.175C57.179 22.3066 55.256 21.6961 53.405 20.4561C51.554 19.2261 50.048 17.9161 48.886 16.5361C48.777 16.3961 48.687 16.2858 48.614 16.2158C48.542 16.1058 48.451 15.9762 48.342 15.8262C48.31 15.7762 48.28 15.7365 48.252 15.6865ZM13.991 27.0459C15.189 25.6259 17.13 24.2463 19.816 22.9062C22.102 21.7463 23.699 20.7166 24.606 19.8066C25.514 18.8566 25.967 17.8263 25.967 16.6963C25.967 16.0463 25.695 15.4866 25.151 15.0166C24.643 14.5466 24.026 14.3066 23.3 14.3066C22.393 14.3066 21.413 14.5261 20.36 14.9561C19.344 15.3961 17.947 16.0666 16.168 16.9766C14.063 18.0666 12.285 18.8966 10.833 19.4766C9.418 20.0266 8.003 20.2959 6.587 20.2959C5.535 20.2959 4.5 20.0068 3.484 19.4268C2.468 18.8468 1.633 18.0464 0.98 17.0264C0.327 15.9764 0 14.7765 0 13.4365C0 11.9465 0.327 10.6968 0.98 9.67676C1.633 8.66676 2.432 7.84656 3.375 7.22656C4.101 6.75656 4.754 6.32676 5.335 5.92676C5.916 5.52676 6.442 5.15594 6.914 4.83594C7.712 4.25594 8.275 3.87652 8.601 3.68652C8.928 3.50652 9.255 3.41602 9.581 3.41602C10.162 3.41602 10.652 3.6166 11.051 4.0166C11.487 4.3766 11.704 4.86633 11.704 5.48633C11.704 5.99633 11.414 6.4259 10.833 6.7959C10.289 7.1559 9.345 7.6466 8.003 8.2666C7.531 8.4466 7.041 8.66602 6.533 8.91602C6.061 9.13602 5.589 9.36598 5.117 9.62598C4.21 10.096 3.43 10.7166 2.776 11.4766C2.159 12.1966 1.851 13.0366 1.851 13.9766C1.851 14.6666 2.069 15.3963 2.504 16.1562C2.976 16.9162 3.738 17.2959 4.791 17.2959C5.589 17.2959 6.46 17.0963 7.404 16.6963C8.347 16.3063 9.599 15.6659 11.16 14.7959C13.338 13.6359 15.17 12.7665 16.658 12.1865C18.146 11.6065 19.671 11.3164 21.231 11.3164C22.683 11.3164 23.917 11.7059 24.933 12.5059C25.949 13.2759 26.693 14.2159 27.165 15.3359C27.673 16.4259 27.927 17.4259 27.927 18.3359C27.927 19.6059 27.655 20.6759 27.111 21.5459C26.566 22.4159 25.84 23.1664 24.933 23.7764C24.062 24.3564 22.774 25.0861 21.068 25.9561C20.342 26.3561 19.58 26.7761 18.782 27.2061C18.019 27.6061 17.221 28.0564 16.386 28.5664C15.297 29.2564 14.535 29.8159 14.1 30.2559C13.701 30.6959 13.501 31.2866 13.501 32.0566V33.5762C13.501 33.7962 13.428 33.9564 13.283 34.0664C13.174 34.1764 13.029 34.2266 12.848 34.2266C12.666 34.2266 12.503 34.1566 12.358 34.0166C12.249 33.9066 12.194 33.7562 12.194 33.5762V31.4561C12.194 29.9261 12.793 28.4559 13.991 27.0459ZM106.755 22.6367C106.936 22.7767 107.027 22.9763 107.027 23.2363C107.027 23.5263 106.918 23.7259 106.7 23.8359C106.519 23.9459 106.265 24.0463 105.938 24.1562C104.777 24.5263 103.597 24.8259 102.4 25.0859C101.202 25.3359 100.186 25.4658 99.351 25.4658C97.9 25.4658 96.575 25.1363 95.377 24.4863C94.18 23.7963 93.218 22.8563 92.492 21.6562C91.802 20.4562 91.458 19.0962 91.458 17.5762C91.458 15.6862 91.802 14.1766 92.492 13.0566C93.182 11.9266 94.053 11.0959 95.105 10.5459C96.158 9.9659 97.518 9.45637 99.188 9.02637C99.986 8.80637 100.785 8.58598 101.583 8.37598C102.418 8.11598 103.18 7.88602 103.87 7.66602C105.866 6.97602 107.444 6.15582 108.606 5.21582C109.767 4.23582 110.838 3.14629 111.818 1.94629C112.072 1.62629 112.308 1.34672 112.525 1.13672C112.743 0.916719 112.925 0.806641 113.07 0.806641C113.215 0.806641 113.324 0.846016 113.397 0.916016C113.505 0.946016 113.578 1.02672 113.614 1.13672C113.687 1.20672 113.723 1.31605 113.723 1.45605C113.723 1.56605 113.687 1.69594 113.614 1.83594C113.542 1.98594 113.451 2.14617 113.342 2.32617C113.052 2.76617 112.616 3.28625 112.036 3.90625C111.491 4.52625 110.856 5.14586 110.13 5.75586C109.404 6.33586 108.697 6.84613 108.007 7.28613C106.7 8.18613 105.467 8.89625 104.305 9.40625C103.18 9.87625 101.928 10.3868 100.549 10.9268C99.279 11.4368 98.299 11.9265 97.609 12.3965C96.92 12.8765 96.375 13.5264 95.976 14.3564C95.577 15.1964 95.377 16.3163 95.377 17.7363C95.377 19.0463 95.795 20.2264 96.629 21.2764C97.5 22.3264 98.553 22.9668 99.787 23.1768C99.932 23.2168 100.077 23.2561 100.222 23.2861H100.712C101.22 23.2861 101.837 23.236 102.563 23.126C103.325 22.976 104.015 22.8365 104.632 22.6865C104.958 22.6165 105.249 22.5664 105.503 22.5264C105.793 22.4564 106.011 22.416 106.156 22.416C106.41 22.416 106.61 22.4867 106.755 22.6367ZM38.761 16.8066C39.124 16.4066 39.595 16.2158 40.176 16.2158C40.684 16.2158 41.12 16.4066 41.483 16.8066C41.882 17.1766 42.081 17.626 42.081 18.166C42.081 18.676 41.882 19.1361 41.483 19.5361C41.12 19.8961 40.684 20.0762 40.176 20.0762C39.632 20.0762 39.16 19.8961 38.761 19.5361C38.398 19.1361 38.216 18.676 38.216 18.166C38.216 17.626 38.398 17.1766 38.761 16.8066ZM11.432 36.5762C11.831 36.2062 12.285 36.0264 12.793 36.0264C13.301 36.0264 13.737 36.2062 14.1 36.5762C14.499 36.9662 14.698 37.4463 14.698 37.9863C14.698 38.4963 14.499 38.9259 14.1 39.2959C13.737 39.6959 13.301 39.8965 12.793 39.8965C12.285 39.8965 11.831 39.6959 11.432 39.2959C11.033 38.9259 10.833 38.4963 10.833 37.9863C10.833 37.4463 11.033 36.9662 11.432 36.5762Z" fill="black"/>
</svg>
