<svg width="114" height="40" viewBox="0 0 114 40" fill="none" xmlns="http://www.w3.org/2000/svg">
<path fill-rule="evenodd" clip-rule="evenodd" d="M70.165 28.5361C69.419 29.4861 68.605 30.346 67.722 31.126C66.815 31.886 65.762 32.5261 64.565 33.0361C63.367 33.5361 62.042 33.7959 60.591 33.7959C58.014 33.7959 55.873 33.1066 54.167 31.7266C52.497 30.3066 51.263 28.7667 50.465 27.0967C49.667 25.3967 49.267 24.1959 49.267 23.5059C49.267 23.1459 49.34 22.7966 49.485 22.4766C49.63 22.1066 49.848 21.8167 50.138 21.5967C50.465 21.3467 50.882 21.2158 51.39 21.2158C52.007 21.2158 52.497 21.3966 52.86 21.7666C53.223 22.1266 53.477 22.5466 53.622 23.0166V23.2363C53.659 23.2663 53.677 23.3265 53.677 23.3965C53.75 23.6565 53.786 23.8461 53.786 23.9961C53.822 24.1361 53.877 24.3367 53.949 24.5967C54.239 25.7967 54.621 26.896 55.092 27.916C55.6 28.936 56.308 29.7866 57.215 30.4766C58.123 31.1266 59.248 31.4561 60.591 31.4561C61.752 31.4561 62.786 31.2161 63.694 30.7461C64.637 30.2361 65.418 29.6363 66.035 28.9463C66.613 28.3363 67.064 27.7262 67.386 27.1162C67.418 27.0462 67.457 26.9667 67.504 26.8867C67.584 26.7167 67.668 26.5665 67.758 26.4365C68.362 25.2865 68.841 23.7868 69.192 21.9268C69.591 19.7868 69.863 17.6263 70.009 15.4463C70.045 15.0163 70.063 14.6159 70.063 14.2559C70.099 13.8559 70.118 13.4664 70.118 13.1064C70.118 11.9464 70.444 10.7162 71.097 9.40625C71.751 8.09625 72.731 6.99594 74.037 6.08594C75.38 5.17594 77.013 4.72656 78.937 4.72656C80.969 4.72656 82.657 5.19672 83.999 6.13672C85.379 7.04672 86.395 8.13625 87.048 9.40625C87.701 10.6762 88.028 11.8761 88.028 12.9961V14.5264C87.992 16.3364 88.046 17.9159 88.191 19.2559C88.33 20.5459 88.719 21.8964 89.358 23.3164C89.441 23.4564 89.524 23.6164 89.607 23.7764C90.369 25.2664 91.294 26.5859 92.383 27.7559C93.508 28.9159 94.76 29.8364 96.139 30.5264C97.518 31.1864 98.934 31.5059 100.386 31.5059C101.075 31.5059 101.747 31.4765 102.4 31.3965C103.089 31.3265 103.797 31.1966 104.523 31.0166C105.249 30.8366 105.993 30.6066 106.755 30.3066C107.118 30.1666 107.426 30.0967 107.68 30.0967C107.934 30.0567 108.134 30.1866 108.279 30.4766C108.424 30.7666 108.388 31.0361 108.17 31.2861C107.953 31.5061 107.717 31.6764 107.463 31.7764C106.12 32.4364 104.85 32.9261 103.652 33.2461C102.491 33.5761 101.384 33.7363 100.331 33.7363C97.646 33.7363 95.359 33.2662 93.472 32.3262C91.621 31.3862 90.206 30.326 89.226 29.166C88.246 28.006 87.447 26.8663 86.83 25.7363C86.431 25.0063 86.185 24.4161 86.09 23.9561C85.373 22.1161 84.894 20.2567 84.653 18.3867C84.362 16.1367 84.217 13.7962 84.217 11.3662C84.217 10.1362 83.8 8.98652 82.965 7.93652C82.167 6.88652 80.824 6.35645 78.937 6.35645C77.449 6.35645 76.233 6.86672 75.289 7.88672C74.346 8.86672 73.874 10.046 73.874 11.416C73.874 13.376 73.801 15.216 73.656 16.916C73.547 18.626 73.348 20.2366 73.057 21.7666C72.767 23.1066 72.386 24.3358 71.914 25.4658C71.478 26.5858 70.916 27.5861 70.226 28.4561C70.207 28.4861 70.186 28.5061 70.165 28.5361ZM48.252 15.6865C48.195 15.6165 48.134 15.5363 48.07 15.4463L47.253 14.3066C45.656 12.0566 44.168 10.1863 42.789 8.69629C41.446 7.17629 40.158 6.41602 38.924 6.41602C37.871 6.41602 36.982 7.0266 36.256 8.2666C35.531 9.4966 35.004 11.1164 34.678 13.1064C34.351 15.0664 34.188 17.2061 34.188 19.5361C34.188 22.1061 34.442 24.2363 34.95 25.9062C35.458 27.5362 36.093 28.7361 36.855 29.4961C37.617 30.2161 38.434 30.5859 39.305 30.5859C40.575 30.5859 41.682 30.0766 42.626 29.0566C43.606 28.0466 44.35 27.0259 44.858 26.0059L44.967 25.7363C45.039 25.6263 45.13 25.516 45.239 25.416C45.348 25.266 45.475 25.1963 45.62 25.1963C45.91 25.1963 46.092 25.3066 46.164 25.5166C46.273 25.7366 46.291 25.9568 46.219 26.1768C45.674 28.6768 44.731 30.5867 43.388 31.8867C42.045 33.1567 40.539 33.7959 38.87 33.7959C37.055 33.7959 35.494 33.1567 34.188 31.8867C32.881 30.6167 31.883 28.9665 31.194 26.9365C30.54 24.9065 30.214 22.7461 30.214 20.4561C30.214 18.1361 30.558 15.7364 31.248 13.2764C31.974 10.8064 32.99 8.75621 34.297 7.11621C35.603 5.44621 37.127 4.61621 38.87 4.61621C39.849 4.61621 40.956 5.10594 42.19 6.08594C43.461 7.02594 44.713 8.22676 45.947 9.67676C47.181 11.0968 48.342 12.5865 49.431 14.1465L49.436 14.1562C49.508 14.2263 49.579 14.316 49.648 14.416C49.866 14.746 50.102 15.0863 50.356 15.4463C50.61 15.7763 50.901 16.1163 51.227 16.4863C52.207 17.5763 53.332 18.4665 54.602 19.1465C55.909 19.8365 57.324 20.1865 58.849 20.1865C60.518 20.1865 61.679 19.5659 62.333 18.3359C63.022 17.0959 63.367 15.446 63.367 13.376C63.367 11.856 63.059 10.366 62.442 8.91602C61.825 7.42602 60.736 6.68652 59.175 6.68652C58.195 6.68652 57.306 7.11633 56.508 7.98633C55.746 8.82633 55.129 10.1666 54.657 12.0166C54.621 12.1266 54.602 12.2159 54.602 12.2959C54.602 12.3659 54.584 12.4564 54.548 12.5664C54.403 13.2164 54.185 13.7663 53.895 14.1963C53.604 14.5963 53.151 14.7959 52.534 14.7959C52.026 14.7959 51.608 14.7064 51.282 14.5264C50.991 14.3064 50.792 14.0361 50.683 13.7061C50.574 13.3761 50.538 13.0368 50.574 12.6768C50.574 11.8368 50.919 10.7866 51.608 9.5166C52.298 8.2466 53.278 7.13629 54.548 6.19629C55.854 5.24629 57.433 4.77637 59.284 4.77637C60.554 4.77637 61.77 5.12641 62.932 5.81641C64.129 6.46641 65.091 7.44586 65.817 8.75586C66.579 10.0559 66.96 11.6165 66.96 13.4365C66.96 14.8865 66.67 16.2466 66.089 17.5166C65.508 18.7566 64.71 19.7862 63.694 20.6162C62.714 21.4562 61.607 21.9863 60.373 22.1963C60.191 22.2363 59.992 22.2766 59.774 22.3066H59.175C57.179 22.3066 55.256 21.6961 53.405 20.4561C51.554 19.2261 50.048 17.9161 48.886 16.5361C48.777 16.3961 48.687 16.2858 48.614 16.2158C48.542 16.1058 48.451 15.9762 48.342 15.8262C48.31 15.7762 48.28 15.7365 48.252 15.6865ZM13.991 27.0459C15.189 25.6259 17.13 24.2463 19.816 22.9062C22.102 21.7463 23.699 20.7166 24.606 19.8066C25.514 18.8566 25.967 17.8263 25.967 16.6963C25.967 16.0463 25.695 15.4866 25.151 15.0166C24.643 14.5466 24.026 14.3066 23.3 14.3066C22.393 14.3066 21.413 14.5261 20.36 14.9561C19.344 15.3961 17.947 16.0666 16.168 16.9766C14.063 18.0666 12.285 18.8966 10.833 19.4766C9.418 20.0266 8.003 20.2959 6.587 20.2959C5.535 20.2959 4.5 20.0068 3.484 19.4268C2.468 18.8468 1.633 18.0464 0.98 17.0264C0.327 15.9764 0 14.7765 0 13.4365C0 11.9465 0.327 10.6968 0.98 9.67676C1.633 8.66676 2.432 7.84656 3.375 7.22656C4.101 6.75656 4.754 6.32676 5.335 5.92676C5.916 5.52676 6.442 5.15594 6.914 4.83594C7.712 4.25594 8.275 3.87652 8.601 3.68652C8.928 3.50652 9.255 3.41602 9.581 3.41602C10.162 3.41602 10.652 3.6166 11.051 4.0166C11.487 4.3766 11.704 4.86633 11.704 5.48633C11.704 5.99633 11.414 6.4259 10.833 6.7959C10.289 7.1559 9.345 7.6466 8.003 8.2666C7.531 8.4466 7.041 8.66602 6.533 8.91602C6.061 9.13602 5.589 9.36598 5.117 9.62598C4.21 10.096 3.43 10.7166 2.776 11.4766C2.159 12.1966 1.851 13.0366 1.851 13.9766C1.851 14.6666 2.069 15.3963 2.504 16.1562C2.976 16.9162 3.738 17.2959 4.791 17.2959C5.589 17.2959 6.46 17.0963 7.404 16.6963C8.347 16.3063 9.599 15.6659 11.16 14.7959C13.338 13.6359 15.17 12.7665 16.658 12.1865C18.146 11.6065 19.671 11.3164 21.231 11.3164C22.683 11.3164 23.917 11.7059 24.933 12.5059C25.949 13.2759 26.693 14.2159 27.165 15.3359C27.673 16.4259 27.927 17.4259 27.927 18.3359C27.927 19.6059 27.655 20.6759 27.111 21.5459C26.566 22.4159 25.84 23.1664 24.933 23.7764C24.062 24.3564 22.774 25.0861 21.068 25.9561C20.342 26.3561 19.58 26.7761 18.782 27.2061C18.019 27.6061 17.221 28.0564 16.386 28.5664C15.297 29.2564 14.535 29.8159 14.1 30.2559C13.701 30.6959 13.501 31.2866 13.501 32.0566V33.5762C13.501 33.7962 13.428 33.9564 13.283 34.0664C13.174 34.1764 13.029 34.2266 12.848 34.2266C12.666 34.2266 12.503 34.1566 12.358 34.0166C12.249 33.9066 12.194 33.7562 12.194 33.5762V31.4561C12.194 29.9261 12.793 28.4559 13.991 27.0459ZM106.7 22.6367C106.882 22.7767 106.973 22.9763 106.973 23.2363C106.973 23.5263 106.864 23.7259 106.646 23.8359C106.465 23.9459 106.211 24.0463 105.884 24.1562C104.723 24.5263 103.543 24.8259 102.345 25.0859C101.148 25.3359 100.132 25.4658 99.297 25.4658C97.845 25.4658 96.502 25.1363 95.268 24.4863C94.071 23.7963 93.127 22.8563 92.438 21.6562C91.748 20.4562 91.403 19.0962 91.403 17.5762C91.403 15.7262 91.748 14.2364 92.438 13.1064C93.127 11.9864 93.998 11.1464 95.051 10.6064C96.103 10.0264 97.482 9.53672 99.188 9.13672C99.986 8.91672 100.803 8.69656 101.638 8.47656C102.472 8.26656 103.216 8.04617 103.87 7.82617C105.902 7.10617 107.499 6.2466 108.66 5.2666C109.822 4.2866 110.892 3.19586 111.872 2.00586C112.163 1.67586 112.417 1.40652 112.634 1.18652C112.852 0.966523 113.034 0.856445 113.179 0.856445C113.324 0.856445 113.433 0.89582 113.505 0.96582C113.614 1.00582 113.687 1.07652 113.723 1.18652C113.796 1.25652 113.832 1.3666 113.832 1.5166C113.832 1.6266 113.796 1.74648 113.723 1.89648C113.651 2.03648 113.56 2.20672 113.451 2.38672C113.161 2.81672 112.743 3.34582 112.199 3.96582C111.654 4.57582 111.019 5.19641 110.293 5.81641C109.568 6.39641 108.86 6.91648 108.17 7.39648C106.864 8.26648 105.63 8.95605 104.468 9.45605C103.307 9.96605 102.001 10.4961 100.549 11.0361C99.242 11.5461 98.244 12.0359 97.555 12.5059C96.865 12.9459 96.321 13.576 95.922 14.416C95.522 15.246 95.323 16.3563 95.323 17.7363C95.323 19.0463 95.74 20.2264 96.575 21.2764C97.446 22.3264 98.498 22.9668 99.732 23.1768C99.878 23.2168 100.023 23.2561 100.168 23.2861H100.658C101.166 23.2861 101.783 23.236 102.509 23.126C103.271 22.976 103.96 22.8365 104.577 22.6865C104.904 22.6165 105.194 22.5664 105.448 22.5264C105.739 22.4564 105.956 22.416 106.102 22.416C106.356 22.416 106.555 22.4867 106.7 22.6367ZM38.761 16.8066C39.124 16.4066 39.595 16.2158 40.176 16.2158C40.684 16.2158 41.12 16.4066 41.483 16.8066C41.882 17.1766 42.081 17.626 42.081 18.166C42.081 18.676 41.882 19.1361 41.483 19.5361C41.12 19.8961 40.684 20.0762 40.176 20.0762C39.632 20.0762 39.16 19.8961 38.761 19.5361C38.398 19.1361 38.216 18.676 38.216 18.166C38.216 17.626 38.398 17.1766 38.761 16.8066ZM11.432 36.5762C11.831 36.2062 12.285 36.0264 12.793 36.0264C13.301 36.0264 13.737 36.2062 14.1 36.5762C14.499 36.9662 14.698 37.4463 14.698 37.9863C14.698 38.4963 14.499 38.9259 14.1 39.2959C13.737 39.6959 13.301 39.8965 12.793 39.8965C12.285 39.8965 11.831 39.6959 11.432 39.2959C11.033 38.9259 10.833 38.4963 10.833 37.9863C10.833 37.4463 11.033 36.9662 11.432 36.5762Z" fill="black"/>
</svg>
