<svg width="114" height="40" viewBox="0 0 114 40" fill="none" xmlns="http://www.w3.org/2000/svg">
<path fill-rule="evenodd" clip-rule="evenodd" d="M70.11 28.5361C69.365 29.4861 68.551 30.346 67.668 31.126C66.76 31.886 65.708 32.5261 64.51 33.0361C63.313 33.5361 61.988 33.7959 60.536 33.7959C57.959 33.7959 55.818 33.1066 54.112 31.7266C52.443 30.3066 51.209 28.7667 50.411 27.0967C49.612 25.3967 49.213 24.1959 49.213 23.5059C49.213 23.1459 49.286 22.7966 49.431 22.4766C49.576 22.1066 49.794 21.8167 50.084 21.5967C50.411 21.3467 50.828 21.2158 51.336 21.2158C51.953 21.2158 52.443 21.3966 52.806 21.7666C53.169 22.1266 53.423 22.5466 53.568 23.0166V23.2363C53.604 23.2663 53.622 23.3265 53.622 23.3965C53.695 23.6565 53.731 23.8461 53.731 23.9961C53.768 24.1361 53.822 24.3367 53.895 24.5967C54.185 25.7967 54.566 26.896 55.038 27.916C55.546 28.936 56.254 29.7866 57.161 30.4766C58.068 31.1266 59.193 31.4561 60.536 31.4561C61.698 31.4561 62.732 31.2161 63.639 30.7461C64.583 30.2361 65.363 29.6363 65.98 28.9463C66.559 28.3363 67.009 27.7262 67.332 27.1162C67.364 27.0362 67.403 26.9667 67.45 26.8867C67.529 26.7167 67.613 26.5665 67.702 26.4365C68.307 25.2865 68.786 23.766 69.138 21.876C69.537 19.736 69.809 17.5863 69.954 15.4463C69.99 15.0163 70.009 14.6159 70.009 14.2559C70.045 13.8559 70.063 13.4664 70.063 13.1064C70.063 11.9464 70.39 10.7162 71.043 9.40625C71.696 8.09625 72.676 6.99594 73.983 6.08594C75.326 5.17594 76.959 4.72656 78.882 4.72656C80.915 4.72656 82.602 5.17594 83.945 6.08594C85.324 6.99594 86.34 8.09625 86.994 9.40625C87.647 10.6762 87.974 11.8761 87.974 12.9961V14.4658C87.937 16.3158 87.992 17.9159 88.137 19.2559C88.276 20.5459 88.665 21.8964 89.303 23.3164C89.386 23.4564 89.469 23.6164 89.552 23.7764C90.314 25.2664 91.24 26.5859 92.329 27.7559C93.454 28.9159 94.706 29.8364 96.085 30.5264C97.464 31.1864 98.879 31.5059 100.331 31.5059C101.021 31.5059 101.692 31.4765 102.345 31.3965C103.035 31.3265 103.743 31.1966 104.468 31.0166C105.194 30.8366 105.938 30.6066 106.7 30.3066C107.063 30.1666 107.372 30.0967 107.626 30.0967C107.88 30.0567 108.08 30.1866 108.225 30.4766C108.37 30.7666 108.334 31.0361 108.116 31.2861C107.898 31.5061 107.662 31.6764 107.408 31.7764C106.065 32.4364 104.795 32.9261 103.597 33.2461C102.436 33.5761 101.329 33.7363 100.277 33.7363C97.591 33.7363 95.305 33.2662 93.417 32.3262C91.566 31.3862 90.151 30.326 89.171 29.166C88.191 28.006 87.393 26.8663 86.776 25.7363C86.377 25.0063 86.13 24.4161 86.036 23.9561C85.319 22.1161 84.839 20.2567 84.598 18.3867C84.308 16.1067 84.163 13.7662 84.163 11.3662C84.163 10.1362 83.745 8.98652 82.911 7.93652C82.112 6.88652 80.769 6.35645 78.882 6.35645C77.394 6.35645 76.178 6.86672 75.235 7.88672C74.291 8.86672 73.819 10.046 73.819 11.416C73.819 13.376 73.747 15.216 73.602 16.916C73.493 18.626 73.293 20.2366 73.003 21.7666C72.712 23.1066 72.331 24.3358 71.86 25.4658C71.424 26.5858 70.862 27.5861 70.172 28.4561C70.152 28.4861 70.132 28.5061 70.11 28.5361ZM48.197 15.6865C48.14 15.6165 48.08 15.5363 48.015 15.4463L47.199 14.3066C45.602 12.0566 44.114 10.1863 42.735 8.69629C41.392 7.17629 40.103 6.41602 38.87 6.41602C37.817 6.41602 36.928 7.0266 36.202 8.2666C35.476 9.4966 34.95 11.1164 34.623 13.1064C34.297 15.0664 34.133 17.2061 34.133 19.5361C34.133 22.1061 34.387 24.2363 34.895 25.9062C35.404 27.5362 36.039 28.7361 36.801 29.4961C37.563 30.2161 38.38 30.5859 39.251 30.5859C40.521 30.5859 41.628 30.0766 42.571 29.0566C43.551 28.0066 44.295 26.9859 44.803 26.0059L44.912 25.7363C44.985 25.6263 45.076 25.516 45.184 25.416C45.293 25.266 45.42 25.1963 45.566 25.1963C45.856 25.1963 46.037 25.3066 46.11 25.5166C46.219 25.7366 46.237 25.9568 46.164 26.1768C45.62 28.6768 44.676 30.5867 43.334 31.8867C41.991 33.1567 40.484 33.7959 38.815 33.7959C37 33.7959 35.44 33.1567 34.133 31.8867C32.827 30.6167 31.829 28.9665 31.139 26.9365C30.486 24.9065 30.159 22.7461 30.159 20.4561C30.159 18.1361 30.504 15.7364 31.194 13.2764C31.919 10.8064 32.936 8.75621 34.242 7.11621C35.549 5.44621 37.073 4.61621 38.815 4.61621C39.795 4.61621 40.902 5.10594 42.136 6.08594C43.406 7.02594 44.658 8.22676 45.892 9.67676C47.126 11.0968 48.287 12.5865 49.376 14.1465L49.382 14.1562C49.454 14.2263 49.525 14.316 49.594 14.416C49.812 14.746 50.048 15.0863 50.302 15.4463C50.556 15.7763 50.846 16.1163 51.173 16.4863C52.153 17.5763 53.278 18.4665 54.548 19.1465C55.854 19.8365 57.27 20.1865 58.794 20.1865C60.464 20.1865 61.625 19.5659 62.278 18.3359C62.968 17.0959 63.313 15.446 63.313 13.376C63.313 11.856 63.004 10.366 62.387 8.91602C61.806 7.42602 60.718 6.68652 59.121 6.68652C58.141 6.68652 57.27 7.11633 56.508 7.98633C55.746 8.82633 55.129 10.1666 54.657 12.0166C54.621 12.1266 54.602 12.2159 54.602 12.2959C54.602 12.3659 54.584 12.4564 54.548 12.5664C54.366 13.2164 54.131 13.7663 53.84 14.1963C53.586 14.5963 53.151 14.7959 52.534 14.7959C51.989 14.7959 51.572 14.7064 51.282 14.5264C50.991 14.3064 50.774 14.0566 50.628 13.7666C50.519 13.4366 50.483 13.0866 50.519 12.7266C50.519 11.8566 50.846 10.7866 51.499 9.5166C52.189 8.2466 53.187 7.13629 54.493 6.19629C55.8 5.21629 57.379 4.72656 59.23 4.72656C60.5 4.72656 61.716 5.06586 62.877 5.75586C64.075 6.41586 65.055 7.40586 65.817 8.75586C66.579 10.0559 66.96 11.6165 66.96 13.4365C66.96 14.8865 66.652 16.2466 66.035 17.5166C65.454 18.7566 64.655 19.7862 63.639 20.6162C62.659 21.4562 61.552 21.9863 60.318 22.1963C60.137 22.2363 59.937 22.2766 59.72 22.3066H59.121C57.125 22.3066 55.201 21.6961 53.35 20.4561C51.499 19.2261 49.993 17.9161 48.832 16.5361C48.723 16.3961 48.632 16.2858 48.56 16.2158C48.487 16.1058 48.396 15.9762 48.287 15.8262C48.256 15.7762 48.226 15.7365 48.197 15.6865ZM13.991 27.0459C15.189 25.6259 17.13 24.2463 19.816 22.9062C22.102 21.7463 23.699 20.7166 24.606 19.8066C25.514 18.8566 25.967 17.8263 25.967 16.6963C25.967 16.0463 25.695 15.4866 25.151 15.0166C24.643 14.5466 24.026 14.3066 23.3 14.3066C22.393 14.3066 21.413 14.5261 20.36 14.9561C19.344 15.3961 17.947 16.0666 16.168 16.9766C14.063 18.0666 12.285 18.8966 10.833 19.4766C9.418 20.0266 8.003 20.2959 6.587 20.2959C5.535 20.2959 4.5 20.0068 3.484 19.4268C2.468 18.8468 1.633 18.0464 0.98 17.0264C0.327 15.9764 0 14.7765 0 13.4365C0 11.9465 0.327 10.6968 0.98 9.67676C1.633 8.66676 2.432 7.84656 3.375 7.22656C4.101 6.75656 4.754 6.32676 5.335 5.92676C5.916 5.52676 6.442 5.15594 6.914 4.83594C7.712 4.25594 8.275 3.87652 8.601 3.68652C8.928 3.50652 9.255 3.41602 9.581 3.41602C10.162 3.41602 10.652 3.6166 11.051 4.0166C11.487 4.3766 11.704 4.86633 11.704 5.48633C11.704 5.99633 11.414 6.4259 10.833 6.7959C10.289 7.1559 9.345 7.6466 8.003 8.2666C7.531 8.4466 7.041 8.66602 6.533 8.91602C6.061 9.13602 5.589 9.36598 5.117 9.62598C4.21 10.096 3.43 10.7166 2.776 11.4766C2.159 12.1966 1.851 13.0366 1.851 13.9766C1.851 14.6666 2.069 15.3963 2.504 16.1562C2.976 16.9162 3.738 17.2959 4.791 17.2959C5.589 17.2959 6.46 17.0963 7.404 16.6963C8.347 16.3063 9.599 15.6659 11.16 14.7959C13.338 13.6359 15.17 12.7665 16.658 12.1865C18.146 11.6065 19.671 11.3164 21.231 11.3164C22.683 11.3164 23.917 11.7059 24.933 12.5059C25.949 13.2759 26.693 14.2159 27.165 15.3359C27.673 16.4259 27.927 17.4259 27.927 18.3359C27.927 19.6059 27.655 20.6759 27.111 21.5459C26.566 22.4159 25.84 23.1664 24.933 23.7764C24.062 24.3564 22.774 25.0861 21.068 25.9561C20.342 26.3561 19.58 26.7761 18.782 27.2061C18.019 27.6061 17.221 28.0564 16.386 28.5664C15.297 29.2564 14.535 29.8159 14.1 30.2559C13.701 30.6959 13.501 31.2866 13.501 32.0566V33.5762C13.501 33.7962 13.428 33.9564 13.283 34.0664C13.174 34.1764 13.029 34.2266 12.848 34.2266C12.666 34.2266 12.503 34.1566 12.358 34.0166C12.249 33.9066 12.194 33.7562 12.194 33.5762V31.4561C12.194 29.9261 12.793 28.4559 13.991 27.0459ZM106.592 22.6865C106.773 22.8365 106.864 23.0361 106.864 23.2861C106.864 23.5761 106.755 23.7767 106.537 23.8867C106.356 23.9967 106.102 24.1058 105.775 24.2158C104.614 24.5758 103.434 24.8867 102.236 25.1367C101.039 25.3967 100.023 25.5166 99.188 25.5166C97.772 25.5166 96.448 25.1961 95.214 24.5361C94.016 23.8461 93.054 22.9061 92.329 21.7061C91.639 20.5161 91.294 19.146 91.294 17.626C91.294 15.736 91.639 14.256 92.329 13.166C93.054 12.036 93.944 11.2063 94.996 10.6562C96.085 10.1162 97.5 9.64609 99.242 9.24609C100.041 9.06609 100.839 8.86648 101.638 8.64648C102.472 8.42648 103.235 8.18652 103.924 7.93652C105.92 7.20652 107.499 6.35598 108.66 5.37598C109.858 4.39598 110.965 3.30621 111.981 2.11621C112.271 1.74621 112.525 1.45633 112.743 1.23633C112.961 1.02633 113.142 0.916016 113.288 0.916016C113.433 0.916016 113.542 0.946367 113.614 1.02637C113.723 1.05637 113.796 1.13633 113.832 1.23633C113.905 1.31633 113.941 1.42641 113.941 1.56641C113.941 1.67641 113.905 1.80629 113.832 1.94629C113.759 2.09629 113.669 2.25652 113.56 2.43652C113.269 2.87652 112.852 3.3966 112.308 4.0166C111.763 4.6366 111.128 5.24621 110.402 5.86621C109.676 6.44621 108.987 6.97629 108.334 7.44629C107.027 8.35629 105.775 9.06641 104.577 9.56641C103.416 10.0764 102.091 10.6065 100.603 11.1465C99.26 11.6165 98.226 12.0964 97.5 12.5664C96.811 12.9964 96.248 13.6358 95.813 14.4658C95.414 15.2658 95.214 16.3761 95.214 17.7861C95.214 19.0961 95.631 20.2762 96.466 21.3262C97.337 22.3762 98.39 23.0163 99.623 23.2363C99.769 23.2663 99.914 23.3067 100.059 23.3467H100.549C101.057 23.3467 101.674 23.2868 102.4 23.1768C103.162 23.0368 103.852 22.8861 104.468 22.7461C104.795 22.6761 105.085 22.6162 105.34 22.5762C105.63 22.5062 105.848 22.4766 105.993 22.4766C106.247 22.4766 106.446 22.5465 106.592 22.6865ZM38.706 16.8066C39.069 16.4066 39.541 16.2158 40.122 16.2158C40.63 16.2158 41.065 16.4066 41.428 16.8066C41.827 17.1766 42.027 17.626 42.027 18.166C42.027 18.676 41.827 19.1361 41.428 19.5361C41.065 19.8961 40.63 20.0762 40.122 20.0762C39.577 20.0762 39.105 19.8961 38.706 19.5361C38.343 19.1361 38.162 18.676 38.162 18.166C38.162 17.626 38.343 17.1766 38.706 16.8066ZM11.432 36.5762C11.831 36.2062 12.285 36.0264 12.793 36.0264C13.301 36.0264 13.737 36.2062 14.1 36.5762C14.499 36.9662 14.698 37.4463 14.698 37.9863C14.698 38.4963 14.499 38.9259 14.1 39.2959C13.737 39.6959 13.301 39.8965 12.793 39.8965C12.285 39.8965 11.831 39.6959 11.432 39.2959C11.033 38.9259 10.833 38.4963 10.833 37.9863C10.833 37.4463 11.033 36.9662 11.432 36.5762Z" fill="black"/>
</svg>
