<svg width="115" height="40" viewBox="0 0 115 40" fill="none" xmlns="http://www.w3.org/2000/svg">
<path fill-rule="evenodd" clip-rule="evenodd" d="M70.056 28.5361C69.31 29.4861 68.496 30.346 67.613 31.126C66.706 31.886 65.653 32.5261 64.456 33.0361C63.258 33.5361 61.934 33.7959 60.482 33.7959C57.905 33.7959 55.764 33.1066 54.058 31.7266C52.389 30.3066 51.155 28.7667 50.356 27.0967C49.558 25.3967 49.158 24.1959 49.158 23.5059C49.158 23.1459 49.231 22.7966 49.376 22.4766C49.521 22.1066 49.739 21.8167 50.03 21.5967C50.356 21.3467 50.774 21.2158 51.282 21.2158C51.899 21.2158 52.389 21.3966 52.751 21.7666C53.114 22.1266 53.368 22.5466 53.514 23.0166V23.2363C53.55 23.2663 53.568 23.3265 53.568 23.3965C53.641 23.6565 53.677 23.8461 53.677 23.9961C53.713 24.1361 53.768 24.3367 53.84 24.5967C54.131 25.7967 54.512 26.896 54.983 27.916C55.492 28.936 56.199 29.7866 57.106 30.4766C58.014 31.1266 59.139 31.4561 60.482 31.4561C61.643 31.4561 62.678 31.2161 63.585 30.7461C64.528 30.2361 65.309 29.6363 65.926 28.9463C66.504 28.3363 66.955 27.7262 67.277 27.1162C67.309 27.0362 67.349 26.9667 67.396 26.8867C67.474 26.7167 67.558 26.5665 67.647 26.4365C68.253 25.2865 68.731 23.766 69.083 21.876C69.482 19.736 69.754 17.5863 69.9 15.4463C69.936 15.0163 69.954 14.6159 69.954 14.2559C69.99 13.8559 70.009 13.4664 70.009 13.1064C70.009 11.9464 70.335 10.7162 70.989 9.40625C71.642 8.09625 72.622 6.99594 73.928 6.08594C75.271 5.17594 76.904 4.72656 78.828 4.72656C80.86 4.72656 82.548 5.17594 83.891 6.08594C85.27 6.99594 86.286 8.09625 86.939 9.40625C87.592 10.6762 87.919 11.8761 87.919 12.9961V14.4658C87.883 16.2858 87.937 17.8759 88.082 19.2559C88.221 20.5459 88.61 21.8964 89.249 23.3164C89.332 23.4564 89.415 23.6164 89.498 23.7764C90.26 25.2664 91.185 26.5859 92.274 27.7559C93.399 28.9159 94.651 29.8364 96.03 30.5264C97.41 31.1864 98.825 31.5059 100.277 31.5059C100.966 31.5059 101.638 31.4765 102.291 31.3965C102.98 31.3265 103.688 31.1966 104.414 31.0166C105.14 30.8366 105.884 30.6066 106.646 30.3066C107.009 30.1666 107.317 30.0967 107.572 30.0967C107.826 30.0567 108.025 30.1866 108.17 30.4766C108.316 30.7666 108.279 31.0361 108.061 31.2861C107.844 31.5061 107.608 31.6764 107.354 31.7764C106.011 32.4364 104.741 32.9261 103.543 33.2461C102.382 33.5761 101.275 33.7363 100.222 33.7363C97.537 33.7363 95.25 33.2662 93.363 32.3262C91.512 31.3862 90.097 30.326 89.117 29.166C88.137 28.006 87.338 26.8663 86.721 25.7363C86.323 25.0063 86.076 24.4161 85.981 23.9561C85.264 22.1161 84.785 20.2567 84.544 18.3867C84.254 16.1067 84.108 13.7662 84.108 11.3662C84.108 10.1362 83.691 8.98652 82.856 7.93652C82.058 6.88652 80.715 6.35645 78.828 6.35645C77.34 6.35645 76.124 6.86672 75.18 7.88672C74.237 8.86672 73.765 10.046 73.765 11.416C73.765 13.346 73.692 15.176 73.547 16.916C73.438 18.626 73.239 20.2366 72.948 21.7666C72.658 23.1066 72.277 24.3358 71.805 25.4658C71.37 26.5858 70.807 27.5861 70.118 28.4561C70.098 28.4861 70.077 28.5061 70.056 28.5361ZM48.143 15.6865C48.086 15.6165 48.025 15.5363 47.961 15.4463L47.144 14.3066C45.547 12.0566 44.059 10.1863 42.68 8.69629C41.337 7.17629 40.049 6.41602 38.815 6.41602C37.763 6.41602 36.873 7.0266 36.148 8.2666C35.422 9.4966 34.895 11.1164 34.569 13.1064C34.242 15.0664 34.079 17.2061 34.079 19.5361C34.079 22.1061 34.333 24.2363 34.841 25.9062C35.349 27.5362 35.984 28.7165 36.746 29.4365C37.509 30.1665 38.325 30.5264 39.196 30.5264C40.43 30.5264 41.537 30.0159 42.517 29.0059C43.497 27.9859 44.241 26.9859 44.749 26.0059L44.858 25.7363C44.93 25.6263 45.021 25.516 45.13 25.416C45.239 25.266 45.366 25.1963 45.511 25.1963C45.801 25.1963 45.983 25.3066 46.055 25.5166C46.164 25.7366 46.182 25.9568 46.11 26.1768C45.566 28.6768 44.622 30.5867 43.279 31.8867C41.936 33.1567 40.43 33.7959 38.761 33.7959C36.946 33.7959 35.385 33.1567 34.079 31.8867C32.772 30.6167 31.774 28.9665 31.085 26.9365C30.431 24.9065 30.105 22.7461 30.105 20.4561C30.105 18.1361 30.45 15.7364 31.139 13.2764C31.865 10.8064 32.881 8.75621 34.188 7.11621C35.494 5.44621 37.019 4.61621 38.761 4.61621C39.741 4.61621 40.847 5.10594 42.081 6.08594C43.352 7.02594 44.604 8.22676 45.838 9.67676C47.072 11.0968 48.233 12.5865 49.322 14.1465L49.328 14.1562C49.4 14.2263 49.47 14.316 49.539 14.416C49.757 14.746 49.993 15.0863 50.247 15.4463C50.501 15.7763 50.792 16.1163 51.118 16.4863C52.098 17.5763 53.223 18.4665 54.493 19.1465C55.8 19.8365 57.215 20.1865 58.74 20.1865C60.409 20.1865 61.589 19.5659 62.278 18.3359C62.968 17.0959 63.313 15.446 63.313 13.376C63.313 11.856 63.004 10.366 62.387 8.91602C61.77 7.42602 60.663 6.68652 59.066 6.68652C58.086 6.68652 57.215 7.11633 56.453 7.98633C55.691 8.82633 55.074 10.1666 54.602 12.0166C54.566 12.1266 54.548 12.2159 54.548 12.2959C54.548 12.3659 54.53 12.4564 54.493 12.5664C54.348 13.2164 54.131 13.7663 53.84 14.1963C53.55 14.5963 53.096 14.7959 52.479 14.7959C51.935 14.7959 51.518 14.7064 51.227 14.5264C50.937 14.3064 50.719 14.0566 50.574 13.7666C50.465 13.4366 50.429 13.0866 50.465 12.7266C50.465 11.8566 50.792 10.7866 51.445 9.5166C52.134 8.2466 53.133 7.13629 54.439 6.19629C55.746 5.21629 57.324 4.72656 59.175 4.72656C60.446 4.72656 61.679 5.06586 62.877 5.75586C64.075 6.41586 65.037 7.40586 65.762 8.75586C66.525 10.0559 66.906 11.6165 66.906 13.4365C66.906 14.8865 66.615 16.2466 66.035 17.5166C65.454 18.7566 64.655 19.7862 63.639 20.6162C62.623 21.4562 61.498 21.9863 60.264 22.1963C60.083 22.2363 59.883 22.2766 59.665 22.3066H59.066C57.07 22.3066 55.147 21.6961 53.296 20.4561C51.445 19.2261 49.939 17.9161 48.777 16.5361C48.669 16.3961 48.578 16.2858 48.505 16.2158C48.433 16.1058 48.342 15.9762 48.233 15.8262C48.202 15.7762 48.172 15.7365 48.143 15.6865ZM13.991 27.0459C15.189 25.6259 17.13 24.2463 19.816 22.9062C22.102 21.7463 23.699 20.7166 24.606 19.8066C25.514 18.8566 25.967 17.8263 25.967 16.6963C25.967 16.0463 25.695 15.4866 25.151 15.0166C24.643 14.5466 24.026 14.3066 23.3 14.3066C22.393 14.3066 21.413 14.5261 20.36 14.9561C19.344 15.3961 17.947 16.0666 16.168 16.9766C14.063 18.0666 12.285 18.8966 10.833 19.4766C9.418 20.0266 8.003 20.2959 6.587 20.2959C5.535 20.2959 4.5 20.0068 3.484 19.4268C2.468 18.8468 1.633 18.0464 0.98 17.0264C0.327 15.9764 0 14.7765 0 13.4365C0 11.9465 0.327 10.6968 0.98 9.67676C1.633 8.66676 2.432 7.84656 3.375 7.22656C4.101 6.75656 4.754 6.32676 5.335 5.92676C5.916 5.52676 6.442 5.15594 6.914 4.83594C7.712 4.25594 8.275 3.87652 8.601 3.68652C8.928 3.50652 9.255 3.41602 9.581 3.41602C10.162 3.41602 10.652 3.6166 11.051 4.0166C11.487 4.3766 11.704 4.86633 11.704 5.48633C11.704 5.99633 11.414 6.4259 10.833 6.7959C10.289 7.1559 9.345 7.6466 8.003 8.2666C7.531 8.4466 7.041 8.66602 6.533 8.91602C6.061 9.13602 5.589 9.36598 5.117 9.62598C4.21 10.096 3.43 10.7166 2.776 11.4766C2.159 12.1966 1.851 13.0366 1.851 13.9766C1.851 14.6666 2.069 15.3963 2.504 16.1562C2.976 16.9162 3.738 17.2959 4.791 17.2959C5.589 17.2959 6.46 17.0963 7.404 16.6963C8.347 16.3063 9.599 15.6659 11.16 14.7959C13.338 13.6359 15.17 12.7665 16.658 12.1865C18.146 11.6065 19.671 11.3164 21.231 11.3164C22.683 11.3164 23.917 11.7059 24.933 12.5059C25.949 13.2759 26.693 14.2159 27.165 15.3359C27.673 16.4259 27.927 17.4259 27.927 18.3359C27.927 19.6059 27.655 20.6759 27.111 21.5459C26.566 22.4159 25.84 23.1664 24.933 23.7764C24.062 24.3564 22.774 25.0861 21.068 25.9561C20.342 26.3561 19.58 26.7761 18.782 27.2061C18.019 27.6061 17.221 28.0564 16.386 28.5664C15.297 29.2564 14.535 29.8159 14.1 30.2559C13.701 30.6959 13.501 31.2866 13.501 32.0566V33.5762C13.501 33.7962 13.428 33.9564 13.283 34.0664C13.174 34.1764 13.029 34.2266 12.848 34.2266C12.666 34.2266 12.503 34.1566 12.358 34.0166C12.249 33.9066 12.194 33.7562 12.194 33.5762V31.4561C12.194 29.9261 12.793 28.4559 13.991 27.0459ZM106.537 22.6865C106.719 22.8365 106.809 23.0361 106.809 23.2861C106.809 23.5761 106.7 23.7767 106.483 23.8867C106.301 23.9967 106.047 24.1058 105.721 24.2158C104.559 24.5758 103.38 24.8867 102.182 25.1367C100.984 25.3967 99.968 25.5166 99.134 25.5166C97.682 25.5166 96.339 25.1961 95.105 24.5361C93.907 23.8461 92.964 22.9061 92.274 21.7061C91.585 20.5161 91.24 19.146 91.24 17.626C91.24 15.736 91.585 14.256 92.274 13.166C93 12.036 93.889 11.2158 94.942 10.7158C96.03 10.2058 97.464 9.76625 99.242 9.40625C100.041 9.18625 100.857 8.98664 101.692 8.80664C102.527 8.58664 103.271 8.35668 103.924 8.09668C105.92 7.37668 107.517 6.51613 108.715 5.53613C109.912 4.52613 111.019 3.39602 112.036 2.16602C112.326 1.80602 112.58 1.5159 112.798 1.2959C113.052 1.0759 113.251 0.96582 113.397 0.96582C113.542 0.96582 113.651 1.00617 113.723 1.07617C113.832 1.11617 113.905 1.1859 113.941 1.2959C114.013 1.3659 114.05 1.47598 114.05 1.62598C114.05 1.72598 114.013 1.85586 113.941 2.00586C113.868 2.14586 113.778 2.30609 113.669 2.49609C113.378 2.92609 112.961 3.45617 112.417 4.07617C111.872 4.68617 111.237 5.30676 110.511 5.92676C109.822 6.50676 109.15 7.02609 108.497 7.49609C107.19 8.40609 105.938 9.13676 104.741 9.67676C103.543 10.1868 102.182 10.7159 100.658 11.2559C99.279 11.7259 98.226 12.1862 97.5 12.6162C96.774 13.0562 96.194 13.6864 95.758 14.5264C95.359 15.3264 95.159 16.4061 95.159 17.7861C95.159 19.0961 95.577 20.2762 96.412 21.3262C97.283 22.3762 98.335 23.0163 99.569 23.2363C99.714 23.2663 99.859 23.3067 100.004 23.3467H100.494C101.003 23.3467 101.62 23.2868 102.345 23.1768C103.108 23.0368 103.797 22.8861 104.414 22.7461C104.741 22.6761 105.031 22.6162 105.285 22.5762C105.575 22.5062 105.793 22.4766 105.938 22.4766C106.192 22.4766 106.392 22.5465 106.537 22.6865ZM38.652 16.8066C39.015 16.4066 39.486 16.2158 40.067 16.2158C40.575 16.2158 41.011 16.4066 41.374 16.8066C41.773 17.1766 41.972 17.626 41.972 18.166C41.972 18.676 41.773 19.1361 41.374 19.5361C41.011 19.8961 40.575 20.0762 40.067 20.0762C39.523 20.0762 39.051 19.8961 38.652 19.5361C38.289 19.1361 38.107 18.676 38.107 18.166C38.107 17.626 38.289 17.1766 38.652 16.8066ZM11.432 36.5762C11.831 36.2062 12.285 36.0264 12.793 36.0264C13.301 36.0264 13.737 36.2062 14.1 36.5762C14.499 36.9662 14.698 37.4463 14.698 37.9863C14.698 38.4963 14.499 38.9259 14.1 39.2959C13.737 39.6959 13.301 39.8965 12.793 39.8965C12.285 39.8965 11.831 39.6959 11.432 39.2959C11.033 38.9259 10.833 38.4963 10.833 37.9863C10.833 37.4463 11.033 36.9662 11.432 36.5762Z" fill="black"/>
</svg>
