<svg width="115" height="39" viewBox="0 0 115 39" fill="none" xmlns="http://www.w3.org/2000/svg">
<path fill-rule="evenodd" clip-rule="evenodd" d="M70.001 27.5361C69.256 28.4861 68.442 29.346 67.559 30.126C66.652 30.886 65.599 31.5261 64.401 32.0361C63.204 32.5361 61.879 32.7959 60.427 32.7959C57.85 32.7959 55.709 32.1066 54.004 30.7266C52.334 29.3066 51.1 27.7667 50.302 26.0967C49.503 24.3967 49.104 23.1959 49.104 22.5059C49.104 22.1459 49.177 21.7966 49.322 21.4766C49.467 21.1066 49.685 20.8167 49.975 20.5967C50.302 20.3467 50.719 20.2158 51.227 20.2158C51.844 20.2158 52.334 20.3966 52.697 20.7666C53.06 21.1266 53.314 21.5466 53.459 22.0166V22.2363C53.495 22.2663 53.514 22.3265 53.514 22.3965C53.586 22.6565 53.622 22.8461 53.622 22.9961C53.659 23.1361 53.713 23.3367 53.786 23.5967C54.076 24.7967 54.457 25.896 54.929 26.916C55.437 27.936 56.145 28.7866 57.052 29.4766C57.959 30.1266 59.085 30.4561 60.427 30.4561C61.589 30.4561 62.623 30.2161 63.53 29.7461C64.474 29.2361 65.254 28.6363 65.871 27.9463C66.45 27.3363 66.9 26.7262 67.223 26.1162C67.255 26.0362 67.294 25.9667 67.341 25.8867C67.42 25.7167 67.504 25.5665 67.593 25.4365C68.198 24.2865 68.677 22.766 69.029 20.876C69.428 18.736 69.7 16.5765 69.845 14.3965C69.882 13.9565 69.9 13.5563 69.9 13.1963C69.936 12.7963 69.954 12.4166 69.954 12.0566C69.954 10.8966 70.281 9.65645 70.934 8.35645C71.587 7.04645 72.567 5.93637 73.874 5.02637C75.217 4.12637 76.85 3.66602 78.773 3.66602C80.806 3.66602 82.493 4.14594 83.836 5.08594C85.179 5.99594 86.177 7.09625 86.83 8.40625C87.52 9.67625 87.865 10.8761 87.865 11.9961V13.416C87.792 15.266 87.828 16.8759 87.974 18.2559C88.147 19.5459 88.554 20.8964 89.194 22.3164C89.277 22.4564 89.36 22.6164 89.443 22.7764C90.206 24.2664 91.131 25.5859 92.22 26.7559C93.345 27.9159 94.597 28.8364 95.976 29.5264C97.355 30.1864 98.771 30.5059 100.222 30.5059C100.912 30.5059 101.583 30.4765 102.236 30.3965C102.926 30.3265 103.634 30.1966 104.36 30.0166C105.085 29.8366 105.829 29.6066 106.592 29.3066C106.955 29.1666 107.263 29.0967 107.517 29.0967C107.771 29.0567 107.971 29.1866 108.116 29.4766C108.261 29.7666 108.225 30.0361 108.007 30.2861C107.789 30.5061 107.553 30.6764 107.299 30.7764C105.956 31.4364 104.686 31.9261 103.489 32.2461C102.327 32.5761 101.22 32.7363 100.168 32.7363C97.482 32.7363 95.196 32.2662 93.309 31.3262C91.458 30.3862 90.042 29.326 89.062 28.166C88.082 27.006 87.284 25.8663 86.667 24.7363C86.267 24.0063 86.02 23.4161 85.926 22.9561C85.21 21.1061 84.731 19.2259 84.489 17.3359C84.199 15.0459 84.054 12.7064 84.054 10.3164C84.054 9.11641 83.637 7.98652 82.802 6.93652C82.003 5.84652 80.661 5.30664 78.773 5.30664C77.285 5.30664 76.07 5.81617 75.126 6.82617C74.182 7.80617 73.71 8.98621 73.71 10.3662C73.71 12.3262 73.638 14.176 73.493 15.916C73.384 17.626 73.184 19.2366 72.894 20.7666C72.604 22.1066 72.222 23.3358 71.751 24.4658C71.315 25.5858 70.753 26.5861 70.063 27.4561C70.043 27.4861 70.023 27.5061 70.001 27.5361ZM48.089 14.6865C48.031 14.6165 47.971 14.5363 47.906 14.4463L47.09 13.3066C45.493 11.0566 44.005 9.18629 42.626 7.69629C41.283 6.17629 39.995 5.41602 38.761 5.41602C37.708 5.41602 36.819 6.0266 36.093 7.2666C35.367 8.4966 34.841 10.1164 34.514 12.1064C34.188 14.0664 34.024 16.2061 34.024 18.5361C34.024 21.1061 34.278 23.2363 34.786 24.9062C35.295 26.5362 35.93 27.7165 36.692 28.4365C37.454 29.1665 38.271 29.5264 39.142 29.5264C40.376 29.5264 41.483 29.0159 42.462 28.0059C43.442 26.9859 44.168 25.9859 44.64 25.0059L44.803 24.7363C44.876 24.6263 44.967 24.516 45.076 24.416C45.184 24.266 45.311 24.1963 45.457 24.1963C45.747 24.1963 45.928 24.3066 46.001 24.5166C46.11 24.7366 46.128 24.9568 46.055 25.1768C45.511 27.6768 44.567 29.5867 43.225 30.8867C41.882 32.1567 40.376 32.7959 38.706 32.7959C36.892 32.7959 35.331 32.1567 34.024 30.8867C32.718 29.6167 31.72 27.9665 31.03 25.9365C30.377 23.9065 30.05 21.7461 30.05 19.4561C30.05 17.1361 30.395 14.7364 31.085 12.2764C31.811 9.80637 32.827 7.75621 34.133 6.11621C35.44 4.44621 36.964 3.61621 38.706 3.61621C39.686 3.61621 40.793 4.10594 42.027 5.08594C43.297 6.02594 44.549 7.22676 45.783 8.67676C47.017 10.0968 48.179 11.5865 49.267 13.1465L49.273 13.1562C49.345 13.2263 49.416 13.316 49.485 13.416C49.703 13.746 49.939 14.0863 50.193 14.4463C50.447 14.7763 50.737 15.1163 51.064 15.4863C52.044 16.5763 53.169 17.4665 54.439 18.1465C55.746 18.8365 57.161 19.1865 58.685 19.1865C60.391 19.1865 61.571 18.5659 62.224 17.3359C62.913 16.0959 63.258 14.446 63.258 12.376C63.258 10.856 62.95 9.36602 62.333 7.91602C61.716 6.42602 60.609 5.68652 59.012 5.68652C58.032 5.68652 57.161 6.11633 56.399 6.98633C55.637 7.82633 55.038 9.1666 54.602 11.0166C54.566 11.1266 54.548 11.2159 54.548 11.2959C54.548 11.3659 54.53 11.4564 54.493 11.5664C54.312 12.2164 54.076 12.7663 53.786 13.1963C53.495 13.5963 53.042 13.7959 52.425 13.7959C51.917 13.7959 51.499 13.7064 51.173 13.5264C50.882 13.3064 50.683 13.0566 50.574 12.7666C50.465 12.4366 50.411 12.0866 50.411 11.7266C50.411 10.8566 50.737 9.7866 51.39 8.5166C52.08 7.2466 53.078 6.13629 54.385 5.19629C55.691 4.21629 57.27 3.72656 59.121 3.72656C60.391 3.72656 61.625 4.06586 62.823 4.75586C64.02 5.41586 64.982 6.40586 65.708 7.75586C66.47 9.05586 66.851 10.6165 66.851 12.4365C66.851 13.8865 66.561 15.2466 65.98 16.5166C65.399 17.7566 64.601 18.7862 63.585 19.6162C62.569 20.4562 61.444 20.9863 60.21 21.1963C60.028 21.2363 59.829 21.2766 59.611 21.3066H59.012C57.016 21.3066 55.092 20.6961 53.241 19.4561C51.39 18.2261 49.884 16.9161 48.723 15.5361C48.614 15.3961 48.523 15.2858 48.451 15.2158C48.378 15.1058 48.287 14.9762 48.179 14.8262C48.147 14.7762 48.117 14.7365 48.089 14.6865ZM13.991 26.0459C15.189 24.6259 17.13 23.2463 19.816 21.9062C22.102 20.7463 23.699 19.7166 24.606 18.8066C25.514 17.8566 25.967 16.8263 25.967 15.6963C25.967 15.0463 25.695 14.4866 25.151 14.0166C24.643 13.5466 24.026 13.3066 23.3 13.3066C22.393 13.3066 21.413 13.5261 20.36 13.9561C19.344 14.3961 17.947 15.0666 16.168 15.9766C14.063 17.0666 12.285 17.8966 10.833 18.4766C9.418 19.0266 8.003 19.2959 6.587 19.2959C5.535 19.2959 4.5 19.0068 3.484 18.4268C2.468 17.8468 1.633 17.0464 0.98 16.0264C0.327 14.9764 0 13.7765 0 12.4365C0 10.9465 0.327 9.69676 0.98 8.67676C1.633 7.66676 2.432 6.84656 3.375 6.22656C4.101 5.75656 4.754 5.32676 5.335 4.92676C5.916 4.52676 6.442 4.15594 6.914 3.83594C7.712 3.25594 8.275 2.87652 8.601 2.68652C8.928 2.50652 9.255 2.41602 9.581 2.41602C10.162 2.41602 10.652 2.6166 11.051 3.0166C11.487 3.3766 11.704 3.86633 11.704 4.48633C11.704 4.99633 11.414 5.4259 10.833 5.7959C10.289 6.1559 9.345 6.6466 8.003 7.2666C7.531 7.4466 7.041 7.66602 6.533 7.91602C6.061 8.13602 5.589 8.36598 5.117 8.62598C4.21 9.09598 3.43 9.71656 2.776 10.4766C2.159 11.1966 1.851 12.0366 1.851 12.9766C1.851 13.6666 2.069 14.3963 2.504 15.1562C2.976 15.9162 3.738 16.2959 4.791 16.2959C5.589 16.2959 6.46 16.0963 7.404 15.6963C8.347 15.3063 9.599 14.6659 11.16 13.7959C13.338 12.6359 15.17 11.7665 16.658 11.1865C18.146 10.6065 19.671 10.3164 21.231 10.3164C22.683 10.3164 23.917 10.7059 24.933 11.5059C25.949 12.2759 26.693 13.2159 27.165 14.3359C27.673 15.4259 27.927 16.4259 27.927 17.3359C27.927 18.6059 27.655 19.6759 27.111 20.5459C26.566 21.4159 25.84 22.1664 24.933 22.7764C24.062 23.3564 22.774 24.0861 21.068 24.9561C20.342 25.3561 19.58 25.7761 18.782 26.2061C18.019 26.6061 17.221 27.0564 16.386 27.5664C15.297 28.2564 14.535 28.8159 14.1 29.2559C13.701 29.6959 13.501 30.2866 13.501 31.0566V32.5762C13.501 32.7962 13.428 32.9564 13.283 33.0664C13.174 33.1764 13.029 33.2266 12.848 33.2266C12.666 33.2266 12.503 33.1566 12.358 33.0166C12.249 32.9066 12.194 32.7562 12.194 32.5762V30.4561C12.194 28.9261 12.793 27.4559 13.991 26.0459ZM106.483 21.7461C106.664 21.8861 106.755 22.0867 106.755 22.3467C106.755 22.6367 106.646 22.8363 106.428 22.9463C106.247 23.0463 105.993 23.1566 105.666 23.2666C104.505 23.6266 103.325 23.9363 102.128 24.1963C100.93 24.4463 99.914 24.5762 99.079 24.5762C97.627 24.5762 96.284 24.2467 95.051 23.5967C93.853 22.9067 92.891 21.9666 92.165 20.7666C91.476 19.5666 91.131 18.2068 91.131 16.6768C91.131 14.7568 91.494 13.256 92.22 12.166C92.946 11.076 93.853 10.2962 94.942 9.82617C96.03 9.31617 97.464 8.8766 99.242 8.5166C100.041 8.3366 100.857 8.13602 101.692 7.91602C102.563 7.69602 103.325 7.4766 103.979 7.2666C105.975 6.4966 107.553 5.61668 108.715 4.59668C109.912 3.57668 111.056 2.45582 112.144 1.21582C112.435 0.89582 112.689 0.62625 112.907 0.40625C113.161 0.14625 113.36 0.0263672 113.505 0.0263672C113.651 0.0263672 113.759 0.0567188 113.832 0.136719C113.941 0.166719 114.013 0.23668 114.05 0.34668C114.122 0.42668 114.159 0.526758 114.159 0.676758C114.159 0.786758 114.122 0.916641 114.05 1.05664C113.977 1.20664 113.886 1.3659 113.778 1.5459C113.487 1.9859 113.07 2.50598 112.525 3.12598C111.981 3.70598 111.346 4.30676 110.62 4.92676C109.931 5.53676 109.277 6.08664 108.66 6.55664C107.354 7.49664 106.084 8.24613 104.85 8.78613C103.616 9.29613 102.236 9.82621 100.712 10.3662C99.297 10.8362 98.226 11.2966 97.5 11.7266C96.774 12.1266 96.176 12.7462 95.704 13.5762C95.268 14.3762 95.051 15.4667 95.051 16.8467C95.051 18.1467 95.486 19.3267 96.357 20.3867C97.228 21.4367 98.281 22.0661 99.515 22.2861C99.66 22.3261 99.805 22.3565 99.95 22.3965H100.44C100.948 22.3965 101.565 22.3463 102.291 22.2363C103.053 22.0863 103.743 21.9459 104.36 21.7959C104.686 21.7259 104.977 21.6767 105.231 21.6367C105.521 21.5667 105.739 21.5264 105.884 21.5264C106.138 21.5264 106.338 21.5961 106.483 21.7461ZM38.597 15.8066C38.96 15.4066 39.432 15.2158 40.013 15.2158C40.521 15.2158 40.956 15.4066 41.319 15.8066C41.718 16.1766 41.918 16.626 41.918 17.166C41.918 17.676 41.718 18.1361 41.319 18.5361C40.956 18.8961 40.521 19.0762 40.013 19.0762C39.468 19.0762 38.997 18.8961 38.597 18.5361C38.234 18.1361 38.053 17.676 38.053 17.166C38.053 16.626 38.234 16.1766 38.597 15.8066ZM11.432 35.5762C11.831 35.2062 12.285 35.0264 12.793 35.0264C13.301 35.0264 13.737 35.2062 14.1 35.5762C14.499 35.9662 14.698 36.4463 14.698 36.9863C14.698 37.4963 14.499 37.9259 14.1 38.2959C13.737 38.6959 13.301 38.8965 12.793 38.8965C12.285 38.8965 11.831 38.6959 11.432 38.2959C11.033 37.9259 10.833 37.4963 10.833 36.9863C10.833 36.4463 11.033 35.9662 11.432 35.5762Z" fill="black"/>
</svg>
