<svg width="115" height="39" viewBox="0 0 115 39" fill="none" xmlns="http://www.w3.org/2000/svg">
<path fill-rule="evenodd" clip-rule="evenodd" d="M69.947 27.5361C69.202 28.4861 68.387 29.346 67.504 30.126C66.597 30.886 65.545 31.5261 64.347 32.0361C63.149 32.5361 61.825 32.7959 60.373 32.7959C57.796 32.7959 55.655 32.1066 53.949 30.7266C52.28 29.3066 51.046 27.7667 50.247 26.0967C49.449 24.3967 49.05 23.1959 49.05 22.5059C49.05 22.1459 49.122 21.7966 49.267 21.4766C49.413 21.1066 49.63 20.8167 49.921 20.5967C50.247 20.3467 50.665 20.2158 51.173 20.2158C51.79 20.2158 52.28 20.3966 52.643 20.7666C53.006 21.1266 53.26 21.5466 53.405 22.0166V22.2363C53.441 22.2663 53.459 22.3265 53.459 22.3965C53.532 22.6565 53.568 22.8461 53.568 22.9961C53.604 23.1361 53.659 23.3367 53.731 23.5967C54.022 24.7967 54.403 25.896 54.875 26.916C55.383 27.936 56.09 28.7866 56.998 29.4766C57.905 30.1266 59.03 30.4561 60.373 30.4561C61.534 30.4561 62.569 30.2161 63.476 29.7461C64.42 29.2361 65.2 28.6363 65.817 27.9463C66.396 27.3363 66.846 26.7262 67.168 26.1162C67.2 26.0362 67.24 25.9667 67.287 25.8867C67.365 25.7167 67.449 25.5665 67.538 25.4365C68.144 24.2865 68.622 22.766 68.974 20.876C69.374 18.736 69.646 16.5765 69.791 14.3965C69.827 13.9565 69.845 13.5563 69.845 13.1963C69.882 12.7963 69.9 12.4166 69.9 12.0566C69.9 10.8966 70.226 9.65645 70.88 8.35645C71.533 7.04645 72.513 5.93637 73.819 5.02637C75.162 4.12637 76.795 3.66602 78.719 3.66602C80.751 3.66602 82.439 4.14594 83.782 5.08594C85.125 5.99594 86.123 7.09625 86.776 8.40625C87.465 9.67625 87.81 10.8761 87.81 11.9961V12.7061C87.81 12.8561 87.792 13.086 87.756 13.416C87.719 15.226 87.774 16.8261 87.919 18.2061C88.093 19.4961 88.502 20.8762 89.146 22.3262C89.227 22.4662 89.308 22.6164 89.389 22.7764C90.151 24.2664 91.077 25.5859 92.165 26.7559C93.29 27.9159 94.542 28.8364 95.922 29.5264C97.301 30.1864 98.716 30.5059 100.168 30.5059C100.857 30.5059 101.529 30.4765 102.182 30.3965C102.872 30.3265 103.579 30.1966 104.305 30.0166C105.031 29.8366 105.775 29.6066 106.537 29.3066C106.9 29.1666 107.209 29.0967 107.463 29.0967C107.717 29.0567 107.916 29.1866 108.061 29.4766C108.207 29.7666 108.17 30.0361 107.953 30.2861C107.735 30.5061 107.499 30.6764 107.245 30.7764C105.902 31.4364 104.632 31.9261 103.434 32.2461C102.273 32.5761 101.166 32.7363 100.113 32.7363C97.428 32.7363 95.141 32.2662 93.254 31.3262C91.403 30.3862 89.988 29.326 89.008 28.166C88.028 27.006 87.23 25.8663 86.613 24.7363C86.215 24.0063 85.969 23.4158 85.874 22.9658C85.15 21.1058 84.652 19.2359 84.381 17.3359C84.09 15.0459 83.945 12.7064 83.945 10.3164C83.945 9.11641 83.546 7.98652 82.747 6.93652C81.949 5.84652 80.606 5.30664 78.719 5.30664C77.231 5.30664 76.015 5.81617 75.071 6.82617C74.128 7.80617 73.656 8.98621 73.656 10.3662C73.656 12.3262 73.583 14.176 73.438 15.916C73.329 17.626 73.13 19.2261 72.839 20.7061C72.549 22.0861 72.168 23.3358 71.696 24.4658C71.261 25.5858 70.698 26.5861 70.009 27.4561C69.989 27.4861 69.968 27.5061 69.947 27.5361ZM48.034 14.6865C47.977 14.6165 47.916 14.5363 47.852 14.4463L47.035 13.3066C45.438 11.0566 43.95 9.18629 42.571 7.69629C41.228 6.17629 39.94 5.41602 38.706 5.41602C37.654 5.41602 36.765 6.0266 36.039 7.2666C35.313 8.4966 34.786 10.1164 34.46 12.1064C34.133 14.0664 33.97 16.2061 33.97 18.5361C33.97 21.1061 34.224 23.2167 34.732 24.8467C35.24 26.4767 35.875 27.6765 36.638 28.4365C37.4 29.1665 38.216 29.5264 39.087 29.5264C40.285 29.5264 41.374 29.0159 42.354 28.0059C43.37 26.9859 44.114 25.9859 44.586 25.0059L44.749 24.7363C44.822 24.6263 44.912 24.516 45.021 24.416C45.13 24.266 45.257 24.1963 45.402 24.1963C45.693 24.1963 45.874 24.3066 45.947 24.5166C46.055 24.7366 46.074 24.9568 46.001 25.1768C45.457 27.6768 44.513 29.5867 43.17 30.8867C41.827 32.1567 40.321 32.7959 38.652 32.7959C36.837 32.7959 35.277 32.1567 33.97 30.8867C32.663 29.6167 31.665 27.9665 30.976 25.9365C30.323 23.9065 29.996 21.7461 29.996 19.4561C29.996 17.1361 30.341 14.7364 31.03 12.2764C31.756 9.80637 32.772 7.75621 34.079 6.11621C35.385 4.44621 36.91 3.61621 38.652 3.61621C39.632 3.61621 40.739 4.10594 41.972 5.08594C43.243 6.02594 44.495 7.22676 45.729 8.67676C46.963 10.0968 48.124 11.5865 49.213 13.1465L49.219 13.1562C49.291 13.2263 49.361 13.316 49.431 13.416C49.648 13.746 49.884 14.0863 50.138 14.4463C50.392 14.7763 50.683 15.1163 51.009 15.4863C51.989 16.5763 53.114 17.4665 54.385 18.1465C55.691 18.8365 57.106 19.1865 58.631 19.1865C60.337 19.1865 61.534 18.5659 62.224 17.3359C62.913 16.0659 63.258 14.416 63.258 12.376C63.258 10.856 62.932 9.36602 62.278 7.91602C61.661 6.46602 60.554 5.73633 58.958 5.73633C57.978 5.73633 57.106 6.15633 56.344 6.98633C55.618 7.82633 55.02 9.1666 54.548 11.0166C54.512 11.1266 54.493 11.2159 54.493 11.2959C54.493 11.3659 54.475 11.4564 54.439 11.5664C54.294 12.2164 54.076 12.7663 53.786 13.1963C53.495 13.5963 53.042 13.7959 52.425 13.7959C51.88 13.7959 51.445 13.7064 51.118 13.5264C50.828 13.3064 50.628 13.0566 50.519 12.7666C50.411 12.4366 50.356 12.0866 50.356 11.7266C50.356 10.8566 50.683 9.7866 51.336 8.5166C52.026 7.2466 53.024 6.11672 54.33 5.13672C55.637 4.15672 57.215 3.66602 59.066 3.66602C60.337 3.66602 61.571 4.01605 62.768 4.70605C63.966 5.39605 64.946 6.40586 65.708 7.75586C66.47 9.05586 66.851 10.6165 66.851 12.4365C66.851 13.8865 66.543 15.2466 65.926 16.5166C65.345 17.7566 64.546 18.7862 63.53 19.6162C62.55 20.4562 61.425 20.9863 60.155 21.1963C59.974 21.2363 59.774 21.2766 59.556 21.3066H58.958C56.961 21.3066 55.038 20.6961 53.187 19.4561C51.336 18.2261 49.83 16.9161 48.669 15.5361C48.56 15.3961 48.469 15.2858 48.396 15.2158C48.324 15.1058 48.233 14.9762 48.124 14.8262C48.093 14.7762 48.063 14.7365 48.034 14.6865ZM13.991 26.0459C15.189 24.6259 17.13 23.2463 19.816 21.9062C22.102 20.7463 23.699 19.7166 24.606 18.8066C25.514 17.8566 25.967 16.8263 25.967 15.6963C25.967 15.0463 25.695 14.4866 25.151 14.0166C24.643 13.5466 24.026 13.3066 23.3 13.3066C22.393 13.3066 21.413 13.5261 20.36 13.9561C19.344 14.3961 17.947 15.0666 16.168 15.9766C14.063 17.0666 12.285 17.8966 10.833 18.4766C9.418 19.0266 8.003 19.2959 6.587 19.2959C5.535 19.2959 4.5 19.0068 3.484 18.4268C2.468 17.8468 1.633 17.0464 0.98 16.0264C0.327 14.9764 0 13.7765 0 12.4365C0 10.9465 0.327 9.69676 0.98 8.67676C1.633 7.66676 2.432 6.84656 3.375 6.22656C4.101 5.75656 4.754 5.32676 5.335 4.92676C5.916 4.52676 6.442 4.15594 6.914 3.83594C7.712 3.25594 8.275 2.87652 8.601 2.68652C8.928 2.50652 9.255 2.41602 9.581 2.41602C10.162 2.41602 10.652 2.6166 11.051 3.0166C11.487 3.3766 11.704 3.86633 11.704 4.48633C11.704 4.99633 11.414 5.4259 10.833 5.7959C10.289 6.1559 9.345 6.6466 8.003 7.2666C7.531 7.4466 7.041 7.66602 6.533 7.91602C6.061 8.13602 5.589 8.36598 5.117 8.62598C4.21 9.09598 3.43 9.71656 2.776 10.4766C2.159 11.1966 1.851 12.0366 1.851 12.9766C1.851 13.6666 2.069 14.3963 2.504 15.1562C2.976 15.9162 3.738 16.2959 4.791 16.2959C5.589 16.2959 6.46 16.0963 7.404 15.6963C8.347 15.3063 9.599 14.6659 11.16 13.7959C13.338 12.6359 15.17 11.7665 16.658 11.1865C18.146 10.6065 19.671 10.3164 21.231 10.3164C22.683 10.3164 23.917 10.7059 24.933 11.5059C25.949 12.2759 26.693 13.2159 27.165 14.3359C27.673 15.4259 27.927 16.4259 27.927 17.3359C27.927 18.6059 27.655 19.6759 27.111 20.5459C26.566 21.4159 25.84 22.1664 24.933 22.7764C24.062 23.3564 22.774 24.0861 21.068 24.9561C20.342 25.3561 19.58 25.7761 18.782 26.2061C18.019 26.6061 17.221 27.0564 16.386 27.5664C15.297 28.2564 14.535 28.8159 14.1 29.2559C13.701 29.6959 13.501 30.2866 13.501 31.0566V32.5762C13.501 32.7962 13.428 32.9564 13.283 33.0664C13.174 33.1764 13.029 33.2266 12.848 33.2266C12.666 33.2266 12.503 33.1566 12.358 33.0166C12.249 32.9066 12.194 32.7562 12.194 32.5762V30.4561C12.194 28.9261 12.793 27.4559 13.991 26.0459ZM106.374 21.7461C106.555 21.8861 106.646 22.0867 106.646 22.3467C106.646 22.6367 106.537 22.8363 106.319 22.9463C106.138 23.0463 105.884 23.1566 105.557 23.2666C104.396 23.6266 103.216 23.9363 102.019 24.1963C100.821 24.4463 99.805 24.5762 98.97 24.5762C97.518 24.5762 96.176 24.2467 94.942 23.5967C93.744 22.9067 92.8 21.9666 92.111 20.7666C91.421 19.5666 91.077 18.2068 91.077 16.6768C91.077 14.7568 91.439 13.2658 92.165 12.2158C92.891 11.1258 93.798 10.346 94.887 9.87598C95.976 9.40598 97.428 8.98598 99.242 8.62598C100.077 8.44598 100.912 8.25617 101.747 8.07617C102.581 7.86617 103.325 7.62598 103.979 7.37598C105.975 6.60598 107.572 5.71605 108.769 4.70605C109.967 3.68605 111.11 2.54637 112.199 1.27637C112.525 0.946367 112.798 0.65625 113.015 0.40625C113.269 0.14625 113.469 0.0263672 113.614 0.0263672C113.759 0.0263672 113.868 0.0567188 113.941 0.136719C114.05 0.166719 114.122 0.23668 114.159 0.34668C114.231 0.42668 114.268 0.526758 114.268 0.676758C114.268 0.786758 114.231 0.916641 114.159 1.05664C114.086 1.20664 113.995 1.3659 113.886 1.5459C113.596 2.0159 113.179 2.56676 112.634 3.17676C112.09 3.75676 111.473 4.35656 110.783 4.97656C110.094 5.59656 109.422 6.13645 108.769 6.60645C107.499 7.55645 106.229 8.29668 104.958 8.84668C103.724 9.38668 102.327 9.92656 100.767 10.4766C99.315 10.9466 98.208 11.3959 97.446 11.8359C96.72 12.2359 96.121 12.8367 95.649 13.6367C95.214 14.3967 94.996 15.4667 94.996 16.8467C94.996 18.1467 95.414 19.3267 96.248 20.3867C97.119 21.4367 98.172 22.0661 99.406 22.2861C99.551 22.3261 99.696 22.3565 99.841 22.3965H100.331C100.839 22.3965 101.456 22.3463 102.182 22.2363C102.944 22.0863 103.634 21.9459 104.251 21.7959C104.577 21.7259 104.868 21.6767 105.122 21.6367C105.412 21.5667 105.63 21.5264 105.775 21.5264C106.029 21.5264 106.229 21.5961 106.374 21.7461ZM38.543 15.8066C38.906 15.4066 39.378 15.2158 39.958 15.2158C40.466 15.2158 40.902 15.4066 41.265 15.8066C41.664 16.1766 41.864 16.626 41.864 17.166C41.864 17.676 41.664 18.1361 41.265 18.5361C40.902 18.8961 40.466 19.0762 39.958 19.0762C39.414 19.0762 38.942 18.8961 38.543 18.5361C38.18 18.1361 37.998 17.676 37.998 17.166C37.998 16.626 38.18 16.1766 38.543 15.8066ZM11.378 35.5762C11.777 35.2062 12.231 35.0264 12.739 35.0264C13.247 35.0264 13.682 35.2062 14.045 35.5762C14.445 35.9662 14.644 36.4463 14.644 36.9863C14.644 37.4963 14.445 37.9259 14.045 38.2959C13.682 38.6959 13.247 38.8965 12.739 38.8965C12.231 38.8965 11.777 38.6959 11.378 38.2959C10.979 37.9259 10.779 37.4963 10.779 36.9863C10.779 36.4463 10.979 35.9662 11.378 35.5762Z" fill="black"/>
</svg>
