<svg width="115" height="39" viewBox="0 0 115 39" fill="none" xmlns="http://www.w3.org/2000/svg">
<path fill-rule="evenodd" clip-rule="evenodd" d="M69.893 27.5361C69.147 28.4861 68.333 29.346 67.45 30.126C66.543 30.886 65.49 31.5261 64.293 32.0361C63.095 32.5361 61.77 32.7959 60.318 32.7959C57.742 32.7959 55.6 32.1066 53.895 30.7266C52.225 29.3066 50.991 27.7667 50.193 26.0967C49.394 24.3967 48.995 23.1959 48.995 22.5059C48.995 22.1459 49.068 21.7966 49.213 21.4766C49.358 21.1066 49.576 20.8167 49.866 20.5967C50.193 20.3467 50.61 20.2158 51.118 20.2158C51.735 20.2158 52.225 20.3966 52.588 20.7666C52.951 21.1266 53.205 21.5466 53.35 22.0166V22.2363C53.387 22.2663 53.405 22.3265 53.405 22.3965C53.477 22.6565 53.514 22.8461 53.514 22.9961C53.55 23.1361 53.604 23.3367 53.677 23.5967C53.967 24.7967 54.348 25.896 54.82 26.916C55.328 27.936 56.036 28.7866 56.943 29.4766C57.85 30.1266 58.976 30.4561 60.318 30.4561C61.48 30.4561 62.514 30.2161 63.422 29.7461C64.365 29.2361 65.145 28.6363 65.762 27.9463C66.341 27.3363 66.792 26.7262 67.114 26.1162C67.146 26.0462 67.185 25.9667 67.232 25.8867C67.311 25.7167 67.395 25.5665 67.484 25.4365C68.089 24.2865 68.568 22.766 68.92 20.876C69.319 18.696 69.591 16.5365 69.736 14.3965C69.773 13.9565 69.791 13.5563 69.791 13.1963C69.827 12.7963 69.845 12.4166 69.845 12.0566C69.845 10.8966 70.172 9.65645 70.825 8.35645C71.478 7.04645 72.458 5.93637 73.765 5.02637C75.108 4.12637 76.741 3.66602 78.664 3.66602C80.697 3.66602 82.384 4.12637 83.727 5.02637C85.07 5.93637 86.068 7.04645 86.721 8.35645C87.375 9.65645 87.701 10.8761 87.701 11.9961V13.3564C87.665 15.2164 87.719 16.8261 87.865 18.2061C88.039 19.4961 88.448 20.8762 89.092 22.3262C89.173 22.4662 89.253 22.6164 89.334 22.7764C90.097 24.2664 91.022 25.5859 92.111 26.7559C93.236 27.9159 94.488 28.8364 95.867 29.5264C97.246 30.1864 98.662 30.5059 100.113 30.5059C100.803 30.5059 101.474 30.4765 102.128 30.3965C102.817 30.3265 103.525 30.1966 104.251 30.0166C104.977 29.8366 105.721 29.6066 106.483 29.3066C106.846 29.1666 107.154 29.0967 107.408 29.0967C107.662 29.0567 107.862 29.1866 108.007 29.4766C108.152 29.7666 108.116 30.0361 107.898 30.2861C107.68 30.5061 107.444 30.6764 107.19 30.7764C105.848 31.4364 104.577 31.9261 103.38 32.2461C102.218 32.5761 101.111 32.7363 100.059 32.7363C97.373 32.7363 95.087 32.2662 93.2 31.3262C91.349 30.3862 89.933 29.326 88.953 28.166C87.974 27.006 87.175 25.8663 86.558 24.7363C86.161 24.0063 85.914 23.4158 85.819 22.9658C85.095 21.1058 84.598 19.2359 84.326 17.3359C84.036 15.0159 83.891 12.6664 83.891 10.3164C83.891 9.07641 83.491 7.93672 82.693 6.88672C81.894 5.82672 80.552 5.30664 78.664 5.30664C77.176 5.30664 75.961 5.81617 75.017 6.82617C74.073 7.80617 73.602 8.98621 73.602 10.3662C73.602 12.3262 73.529 14.1562 73.384 15.8662C73.275 17.5662 73.075 19.1861 72.785 20.7061C72.495 22.0861 72.114 23.3358 71.642 24.4658C71.206 25.5858 70.644 26.5861 69.954 27.4561C69.935 27.4861 69.914 27.5061 69.893 27.5361ZM47.98 14.6865C47.923 14.6165 47.862 14.5363 47.798 14.4463L46.981 13.3066C45.384 11.0566 43.896 9.18629 42.517 7.69629C41.174 6.17629 39.886 5.41602 38.652 5.41602C37.599 5.41602 36.71 6.0266 35.984 7.2666C35.258 8.4966 34.732 10.1164 34.406 12.1064C34.079 14.0664 33.916 16.2061 33.916 18.5361C33.916 21.1061 34.17 23.2167 34.678 24.8467C35.186 26.4767 35.821 27.6765 36.583 28.4365C37.345 29.1665 38.162 29.5264 39.033 29.5264C40.23 29.5264 41.319 29.0159 42.299 28.0059C43.279 26.9559 44.023 25.9559 44.531 25.0059L44.694 24.7363C44.767 24.6263 44.858 24.516 44.967 24.416C45.076 24.266 45.203 24.1963 45.348 24.1963C45.638 24.1963 45.82 24.3066 45.892 24.5166C46.001 24.7366 46.019 24.9568 45.947 25.1768C45.402 27.6768 44.44 29.5867 43.061 30.8867C41.718 32.1567 40.23 32.7959 38.597 32.7959C36.783 32.7959 35.222 32.1567 33.916 30.8867C32.609 29.6167 31.611 27.9665 30.921 25.9365C30.268 23.9065 29.942 21.7461 29.942 19.4561C29.942 17.1361 30.286 14.7364 30.976 12.2764C31.702 9.80637 32.718 7.75621 34.024 6.11621C35.331 4.44621 36.855 3.61621 38.597 3.61621C39.577 3.61621 40.684 4.10594 41.918 5.08594C43.188 6.02594 44.44 7.22676 45.674 8.67676C46.908 10.0968 48.07 11.5865 49.158 13.1465L49.164 13.1562C49.236 13.2263 49.307 13.316 49.376 13.416C49.594 13.746 49.83 14.0863 50.084 14.4463C50.338 14.7763 50.628 15.1163 50.955 15.4863C51.935 16.5763 53.06 17.4665 54.33 18.1465C55.637 18.8365 57.052 19.1865 58.576 19.1865C60.282 19.1865 61.48 18.5659 62.169 17.3359C62.859 16.0659 63.204 14.416 63.204 12.376C63.204 10.856 62.895 9.36602 62.278 7.91602C61.661 6.46602 60.536 5.73633 58.903 5.73633C57.923 5.73633 57.052 6.15633 56.29 6.98633C55.564 7.82633 54.983 9.1666 54.548 11.0166C54.512 11.1266 54.493 11.2159 54.493 11.2959C54.493 11.3659 54.475 11.4564 54.439 11.5664C54.258 12.2164 54.022 12.7663 53.731 13.1963C53.441 13.5963 52.987 13.7959 52.37 13.7959C51.826 13.7959 51.409 13.7064 51.118 13.5264C50.828 13.3464 50.61 13.1064 50.465 12.8164C50.356 12.4864 50.302 12.1461 50.302 11.7861C50.302 10.8761 50.628 9.7866 51.282 8.5166C51.935 7.2066 52.915 6.08672 54.221 5.13672C55.528 4.15672 57.125 3.66602 59.012 3.66602C60.282 3.66602 61.516 4.01605 62.714 4.70605C63.911 5.35605 64.891 6.35629 65.653 7.69629C66.416 9.04629 66.797 10.6165 66.797 12.4365C66.797 13.8865 66.488 15.2466 65.871 16.5166C65.29 17.7566 64.492 18.7862 63.476 19.6162C62.496 20.4562 61.371 20.9863 60.101 21.1963C59.919 21.2363 59.72 21.2766 59.502 21.3066H58.903C56.907 21.3066 54.983 20.6961 53.133 19.4561C51.282 18.2261 49.775 16.9161 48.614 15.5361C48.505 15.3961 48.414 15.2858 48.342 15.2158C48.269 15.1058 48.179 14.9762 48.07 14.8262C48.038 14.7762 48.008 14.7365 47.98 14.6865ZM13.991 26.0459C15.189 24.6259 17.13 23.2463 19.816 21.9062C22.102 20.7463 23.699 19.7166 24.606 18.8066C25.514 17.8566 25.967 16.8263 25.967 15.6963C25.967 15.0463 25.695 14.4866 25.151 14.0166C24.643 13.5466 24.026 13.3066 23.3 13.3066C22.393 13.3066 21.413 13.5261 20.36 13.9561C19.344 14.3961 17.947 15.0666 16.168 15.9766C14.063 17.0666 12.285 17.8966 10.833 18.4766C9.418 19.0266 8.003 19.2959 6.587 19.2959C5.535 19.2959 4.5 19.0068 3.484 18.4268C2.468 17.8468 1.633 17.0464 0.98 16.0264C0.327 14.9764 0 13.7765 0 12.4365C0 10.9465 0.327 9.69676 0.98 8.67676C1.633 7.66676 2.432 6.84656 3.375 6.22656C4.101 5.75656 4.754 5.32676 5.335 4.92676C5.916 4.52676 6.442 4.15594 6.914 3.83594C7.712 3.25594 8.275 2.87652 8.601 2.68652C8.928 2.50652 9.255 2.41602 9.581 2.41602C10.162 2.41602 10.652 2.6166 11.051 3.0166C11.487 3.3766 11.704 3.86633 11.704 4.48633C11.704 4.99633 11.414 5.4259 10.833 5.7959C10.289 6.1559 9.345 6.6466 8.003 7.2666C7.531 7.4466 7.041 7.66602 6.533 7.91602C6.061 8.13602 5.589 8.36598 5.117 8.62598C4.21 9.09598 3.43 9.71656 2.776 10.4766C2.159 11.1966 1.851 12.0366 1.851 12.9766C1.851 13.6666 2.069 14.3963 2.504 15.1562C2.976 15.9162 3.738 16.2959 4.791 16.2959C5.589 16.2959 6.46 16.0963 7.404 15.6963C8.347 15.3063 9.599 14.6659 11.16 13.7959C13.338 12.6359 15.17 11.7665 16.658 11.1865C18.146 10.6065 19.671 10.3164 21.231 10.3164C22.683 10.3164 23.917 10.7059 24.933 11.5059C25.949 12.2759 26.693 13.2159 27.165 14.3359C27.673 15.4259 27.927 16.4259 27.927 17.3359C27.927 18.6059 27.655 19.6759 27.111 20.5459C26.566 21.4159 25.84 22.1664 24.933 22.7764C24.062 23.3564 22.774 24.0861 21.068 24.9561C20.342 25.3561 19.58 25.7761 18.782 26.2061C18.019 26.6061 17.221 27.0564 16.386 27.5664C15.297 28.2564 14.535 28.8159 14.1 29.2559C13.701 29.6959 13.501 30.2866 13.501 31.0566V32.5762C13.501 32.7962 13.428 32.9564 13.283 33.0664C13.174 33.1764 13.029 33.2266 12.848 33.2266C12.666 33.2266 12.503 33.1566 12.358 33.0166C12.249 32.9066 12.194 32.7562 12.194 32.5762V30.4561C12.194 28.9261 12.793 27.4559 13.991 26.0459ZM106.319 21.7959C106.501 21.9459 106.592 22.1465 106.592 22.3965C106.592 22.6865 106.483 22.8861 106.265 22.9961C106.084 23.1061 105.829 23.2162 105.503 23.3262C104.341 23.6862 103.162 23.9961 101.964 24.2461C100.767 24.5061 99.75 24.626 98.916 24.626C97.464 24.626 96.121 24.3065 94.887 23.6465C93.69 22.9565 92.728 22.0164 92.002 20.8164C91.312 19.6164 90.968 18.2563 90.968 16.7363C90.968 14.8163 91.331 13.3264 92.056 12.2764C92.819 11.1864 93.744 10.4163 94.833 9.98633C95.958 9.51633 97.446 9.09633 99.297 8.73633C100.095 8.58633 100.912 8.42609 101.747 8.24609C102.618 8.02609 103.38 7.78613 104.033 7.53613C105.993 6.73613 107.572 5.82641 108.769 4.81641C110.003 3.79641 111.183 2.65672 112.308 1.38672C112.634 1.01672 112.907 0.716055 113.124 0.456055C113.378 0.206055 113.578 0.0761719 113.723 0.0761719C113.868 0.0761719 113.977 0.116523 114.05 0.186523C114.159 0.226523 114.231 0.29625 114.268 0.40625C114.34 0.47625 114.376 0.586562 114.376 0.726562C114.376 0.836562 114.34 0.966211 114.268 1.11621C114.195 1.25621 114.104 1.41645 113.995 1.60645C113.705 2.03645 113.288 2.56676 112.743 3.17676C112.199 3.79676 111.582 4.41637 110.892 5.02637C110.203 5.64637 109.549 6.19602 108.932 6.66602C107.626 7.64602 106.338 8.40629 105.067 8.94629C103.833 9.45629 102.4 9.98637 100.767 10.5264C99.315 11.0064 98.208 11.4567 97.446 11.8867C96.684 12.2867 96.067 12.8865 95.595 13.6865C95.123 14.4465 94.887 15.5165 94.887 16.8965C94.887 18.2065 95.323 19.3865 96.194 20.4365C97.065 21.4865 98.117 22.1267 99.351 22.3467C99.496 22.3767 99.642 22.4161 99.787 22.4561H100.277C100.785 22.4561 101.402 22.3961 102.128 22.2861C102.89 22.1461 103.579 21.9964 104.196 21.8564C104.523 21.7764 104.813 21.7265 105.067 21.6865C105.358 21.6165 105.575 21.5762 105.721 21.5762C105.975 21.5762 106.174 21.6559 106.319 21.7959ZM38.488 15.8066C38.851 15.4066 39.323 15.2158 39.904 15.2158C40.412 15.2158 40.847 15.4066 41.21 15.8066C41.61 16.1766 41.809 16.626 41.809 17.166C41.809 17.676 41.61 18.1361 41.21 18.5361C40.847 18.8961 40.412 19.0762 39.904 19.0762C39.359 19.0762 38.888 18.8961 38.488 18.5361C38.126 18.1361 37.944 17.676 37.944 17.166C37.944 16.626 38.126 16.1766 38.488 15.8066ZM11.378 35.5762C11.777 35.2062 12.231 35.0264 12.739 35.0264C13.247 35.0264 13.682 35.2062 14.045 35.5762C14.445 35.9662 14.644 36.4463 14.644 36.9863C14.644 37.4963 14.445 37.9259 14.045 38.2959C13.682 38.6959 13.247 38.8965 12.739 38.8965C12.231 38.8965 11.777 38.6959 11.378 38.2959C10.979 37.9259 10.779 37.4963 10.779 36.9863C10.779 36.4463 10.979 35.9662 11.378 35.5762Z" fill="black"/>
</svg>
