<svg width="115" height="39" viewBox="0 0 115 39" fill="none" xmlns="http://www.w3.org/2000/svg">
<path fill-rule="evenodd" clip-rule="evenodd" d="M69.838 27.5361C69.093 28.4861 68.278 29.346 67.396 30.126C66.488 30.886 65.436 31.5261 64.238 32.0361C63.04 32.5361 61.716 32.7959 60.264 32.7959C57.687 32.7959 55.546 32.1066 53.84 30.7266C52.171 29.3066 50.937 27.7667 50.138 26.0967C49.34 24.3967 48.941 23.1959 48.941 22.5059C48.941 22.1459 49.013 21.7966 49.158 21.4766C49.304 21.1066 49.521 20.8167 49.812 20.5967C50.138 20.3467 50.556 20.2158 51.064 20.2158C51.681 20.2158 52.171 20.3966 52.534 20.7666C52.897 21.1266 53.151 21.5466 53.296 22.0166V22.2363C53.332 22.2663 53.35 22.3265 53.35 22.3965C53.423 22.6565 53.459 22.8461 53.459 22.9961C53.495 23.1361 53.55 23.3367 53.622 23.5967C53.913 24.7967 54.294 25.896 54.766 26.916C55.274 27.936 55.981 28.7866 56.889 29.4766C57.796 30.1266 58.921 30.4561 60.264 30.4561C61.425 30.4561 62.46 30.2161 63.367 29.7461C64.311 29.2361 65.091 28.6363 65.708 27.9463C66.287 27.3363 66.737 26.7262 67.06 26.1162C67.091 26.0362 67.131 25.9667 67.178 25.8867C67.256 25.7167 67.34 25.5665 67.429 25.4365C68.035 24.2865 68.514 22.766 68.865 20.876C69.265 18.696 69.537 16.5159 69.682 14.3359C69.718 13.9059 69.736 13.5065 69.736 13.1465C69.773 12.7465 69.791 12.3661 69.791 11.9961C69.791 10.8361 70.118 9.6059 70.771 8.2959C71.424 6.9859 72.404 5.88656 73.71 4.97656C75.053 4.06656 76.686 3.61621 78.61 3.61621C80.642 3.61621 82.33 4.08637 83.673 5.02637C85.016 5.93637 86.014 7.04645 86.667 8.35645C87.32 9.65645 87.647 10.8761 87.647 11.9961V13.3564C87.611 15.1764 87.665 16.7765 87.81 18.1465C87.985 19.4765 88.394 20.8762 89.037 22.3262C89.118 22.4662 89.199 22.6164 89.28 22.7764C90.042 24.2664 90.968 25.5859 92.056 26.7559C93.182 27.9159 94.434 28.8364 95.813 29.5264C97.192 30.1864 98.607 30.5059 100.059 30.5059C100.748 30.5059 101.42 30.4765 102.073 30.3965C102.763 30.3265 103.47 30.1966 104.196 30.0166C104.922 29.8366 105.666 29.6066 106.428 29.3066C106.791 29.1666 107.1 29.0967 107.354 29.0967C107.608 29.0567 107.807 29.1866 107.953 29.4766C108.098 29.7666 108.061 30.0361 107.844 30.2861C107.626 30.5061 107.39 30.6764 107.136 30.7764C105.793 31.4364 104.523 31.9261 103.325 32.2461C102.164 32.5761 101.057 32.7363 100.004 32.7363C97.319 32.7363 95.032 32.2662 93.145 31.3262C91.294 30.3862 89.879 29.326 88.899 28.166C87.919 27.006 87.121 25.8663 86.504 24.7363C86.106 24.0063 85.86 23.4158 85.765 22.9658C85.041 21.1058 84.543 19.2359 84.272 17.3359C83.981 15.0159 83.836 12.6664 83.836 10.3164C83.836 9.07641 83.437 7.93672 82.638 6.88672C81.84 5.79672 80.497 5.24609 78.61 5.24609C77.122 5.24609 75.906 5.75637 74.963 6.77637C74.019 7.75637 73.547 8.93641 73.547 10.3164C73.547 12.2764 73.475 14.1262 73.329 15.8662C73.221 17.5662 73.021 19.1861 72.731 20.7061C72.44 22.0861 72.059 23.3358 71.587 24.4658C71.152 25.5858 70.589 26.5861 69.9 27.4561C69.88 27.4861 69.86 27.5061 69.838 27.5361ZM47.925 14.6865C47.868 14.6165 47.807 14.5363 47.743 14.4463L46.926 13.3066C45.33 11.0566 43.842 9.18629 42.462 7.69629C41.12 6.17629 39.831 5.41602 38.597 5.41602C37.545 5.41602 36.656 6.0266 35.93 7.2666C35.204 8.4966 34.678 10.1164 34.351 12.1064C34.024 14.0664 33.861 16.2061 33.861 18.5361C33.861 21.1061 34.115 23.2167 34.623 24.8467C35.131 26.4767 35.766 27.6567 36.529 28.3867C37.291 29.1167 38.107 29.4766 38.978 29.4766C40.14 29.4766 41.21 28.9663 42.19 27.9463C43.206 26.9363 43.969 25.9559 44.477 25.0059L44.64 24.7363C44.713 24.6263 44.803 24.516 44.912 24.416C45.021 24.266 45.148 24.1963 45.293 24.1963C45.584 24.1963 45.765 24.3066 45.838 24.5166C45.947 24.7366 45.965 24.9568 45.892 25.1768C45.348 27.6768 44.386 29.5867 43.007 30.8867C41.664 32.1567 40.176 32.7959 38.543 32.7959C36.728 32.7959 35.168 32.1567 33.861 30.8867C32.554 29.6167 31.557 27.9665 30.867 25.9365C30.214 23.9065 29.887 21.7461 29.887 19.4561C29.887 17.1361 30.232 14.7364 30.921 12.2764C31.647 9.80637 32.663 7.75621 33.97 6.11621C35.277 4.44621 36.801 3.61621 38.543 3.61621C39.523 3.61621 40.63 4.10594 41.864 5.08594C43.134 6.02594 44.386 7.22676 45.62 8.67676C46.854 10.0968 48.015 11.5865 49.104 13.1465L49.11 13.1562C49.182 13.2263 49.252 13.316 49.322 13.416C49.539 13.746 49.775 14.0863 50.03 14.4463C50.283 14.7763 50.574 15.1163 50.901 15.4863C51.88 16.5763 53.006 17.4665 54.276 18.1465C55.582 18.8365 56.998 19.1865 58.522 19.1865C60.228 19.1865 61.425 18.5659 62.115 17.3359C62.841 16.0659 63.204 14.416 63.204 12.376C63.204 10.856 62.877 9.36602 62.224 7.91602C61.607 6.46602 60.482 5.73633 58.849 5.73633C57.869 5.73633 57.016 6.15633 56.29 6.98633C55.564 7.82633 54.965 9.1666 54.493 11.0166C54.457 11.1266 54.439 11.2159 54.439 11.2959C54.439 11.3659 54.421 11.4564 54.385 11.5664C54.239 12.2164 54.022 12.7663 53.731 13.1963C53.441 13.5963 52.987 13.7959 52.37 13.7959C51.826 13.7959 51.39 13.7064 51.064 13.5264C50.774 13.3464 50.556 13.1064 50.411 12.8164C50.302 12.4864 50.247 12.1461 50.247 11.7861C50.247 10.8761 50.574 9.7866 51.227 8.5166C51.88 7.2066 52.86 6.06594 54.167 5.08594C55.473 4.10594 57.07 3.61621 58.958 3.61621C60.228 3.61621 61.462 3.95648 62.659 4.64648C63.893 5.33648 64.891 6.35629 65.653 7.69629C66.416 9.04629 66.797 10.6165 66.797 12.4365C66.797 13.8865 66.488 15.2466 65.871 16.5166C65.29 17.7566 64.492 18.7862 63.476 19.6162C62.46 20.4562 61.317 20.9863 60.046 21.1963C59.865 21.2363 59.665 21.2766 59.447 21.3066H58.849C56.853 21.3066 54.929 20.6961 53.078 19.4561C51.227 18.2261 49.721 16.9161 48.56 15.5361C48.451 15.3961 48.36 15.2858 48.287 15.2158C48.215 15.1058 48.124 14.9762 48.015 14.8262C47.984 14.7762 47.954 14.7365 47.925 14.6865ZM13.991 26.0459C15.189 24.6259 17.13 23.2463 19.816 21.9062C22.102 20.7463 23.699 19.7166 24.606 18.8066C25.514 17.8566 25.967 16.8263 25.967 15.6963C25.967 15.0463 25.695 14.4866 25.151 14.0166C24.643 13.5466 24.026 13.3066 23.3 13.3066C22.393 13.3066 21.413 13.5261 20.36 13.9561C19.344 14.3961 17.947 15.0666 16.168 15.9766C14.063 17.0666 12.285 17.8966 10.833 18.4766C9.418 19.0266 8.003 19.2959 6.587 19.2959C5.535 19.2959 4.5 19.0068 3.484 18.4268C2.468 17.8468 1.633 17.0464 0.98 16.0264C0.327 14.9764 0 13.7765 0 12.4365C0 10.9465 0.327 9.69676 0.98 8.67676C1.633 7.66676 2.432 6.84656 3.375 6.22656C4.101 5.75656 4.754 5.32676 5.335 4.92676C5.916 4.52676 6.442 4.15594 6.914 3.83594C7.712 3.25594 8.275 2.87652 8.601 2.68652C8.928 2.50652 9.255 2.41602 9.581 2.41602C10.162 2.41602 10.652 2.6166 11.051 3.0166C11.487 3.3766 11.704 3.86633 11.704 4.48633C11.704 4.99633 11.414 5.4259 10.833 5.7959C10.289 6.1559 9.345 6.6466 8.003 7.2666C7.531 7.4466 7.041 7.66602 6.533 7.91602C6.061 8.13602 5.589 8.36598 5.117 8.62598C4.21 9.09598 3.43 9.71656 2.776 10.4766C2.159 11.1966 1.851 12.0366 1.851 12.9766C1.851 13.6666 2.069 14.3963 2.504 15.1562C2.976 15.9162 3.738 16.2959 4.791 16.2959C5.589 16.2959 6.46 16.0963 7.404 15.6963C8.347 15.3063 9.599 14.6659 11.16 13.7959C13.338 12.6359 15.17 11.7665 16.658 11.1865C18.146 10.6065 19.671 10.3164 21.231 10.3164C22.683 10.3164 23.917 10.7059 24.933 11.5059C25.949 12.2759 26.693 13.2159 27.165 14.3359C27.673 15.4259 27.927 16.4259 27.927 17.3359C27.927 18.6059 27.655 19.6759 27.111 20.5459C26.566 21.4159 25.84 22.1664 24.933 22.7764C24.062 23.3564 22.774 24.0861 21.068 24.9561C20.342 25.3561 19.58 25.7761 18.782 26.2061C18.019 26.6061 17.221 27.0564 16.386 27.5664C15.297 28.2564 14.535 28.8159 14.1 29.2559C13.701 29.6959 13.501 30.2866 13.501 31.0566V32.5762C13.501 32.7962 13.428 32.9564 13.283 33.0664C13.174 33.1764 13.029 33.2266 12.848 33.2266C12.666 33.2266 12.503 33.1566 12.358 33.0166C12.249 32.9066 12.194 32.7562 12.194 32.5762V30.4561C12.194 28.9261 12.793 27.4559 13.991 26.0459ZM106.211 21.7959C106.392 21.9459 106.483 22.1465 106.483 22.3965C106.483 22.6865 106.374 22.8861 106.156 22.9961C105.975 23.1061 105.721 23.2162 105.394 23.3262C104.233 23.6862 103.053 23.9961 101.855 24.2461C100.658 24.5061 99.642 24.626 98.807 24.626C97.355 24.626 96.012 24.3065 94.778 23.6465C93.581 22.9565 92.637 22.0164 91.948 20.8164C91.258 19.6164 90.913 18.2563 90.913 16.7363C90.913 14.8163 91.276 13.3264 92.002 12.2764C92.764 11.1864 93.69 10.4361 94.778 10.0361C95.903 9.60613 97.41 9.22648 99.297 8.89648L101.801 8.35645C102.636 8.13645 103.38 7.89648 104.033 7.64648C106.029 6.88648 107.626 5.97676 108.824 4.92676C110.058 3.86676 111.237 2.70652 112.362 1.43652C112.689 1.07652 112.979 0.766602 113.233 0.516602C113.487 0.256602 113.687 0.136719 113.832 0.136719C113.977 0.136719 114.086 0.166328 114.159 0.236328C114.268 0.276328 114.34 0.346055 114.376 0.456055C114.449 0.526055 114.485 0.636133 114.485 0.786133C114.485 0.896133 114.449 1.01602 114.376 1.16602C114.304 1.30602 114.213 1.47625 114.104 1.65625C113.814 2.09625 113.396 2.61633 112.852 3.23633C112.308 3.85633 111.691 4.46594 111.001 5.08594C110.348 5.70594 109.713 6.24582 109.096 6.71582C107.789 7.69582 106.501 8.45586 105.231 9.00586C103.96 9.54586 102.491 10.0967 100.821 10.6367C99.333 11.1067 98.19 11.5463 97.391 11.9463C96.629 12.3463 96.012 12.9265 95.54 13.6865C95.069 14.4465 94.833 15.5165 94.833 16.8965C94.833 18.2065 95.25 19.3865 96.085 20.4365C96.956 21.4865 98.008 22.1267 99.242 22.3467C99.388 22.3767 99.533 22.4161 99.678 22.4561H100.168C100.676 22.4561 101.293 22.3961 102.019 22.2861C102.781 22.1461 103.47 21.9964 104.087 21.8564C104.414 21.7764 104.704 21.7265 104.958 21.6865C105.249 21.6165 105.467 21.5762 105.612 21.5762C105.866 21.5762 106.065 21.6559 106.211 21.7959ZM38.434 15.8066C38.797 15.4066 39.269 15.2158 39.849 15.2158C40.358 15.2158 40.793 15.4066 41.156 15.8066C41.555 16.1766 41.755 16.626 41.755 17.166C41.755 17.676 41.555 18.1361 41.156 18.5361C40.793 18.8961 40.358 19.0762 39.849 19.0762C39.305 19.0762 38.833 18.8961 38.434 18.5361C38.071 18.1361 37.89 17.676 37.89 17.166C37.89 16.626 38.071 16.1766 38.434 15.8066ZM11.378 35.5762C11.777 35.2062 12.231 35.0264 12.739 35.0264C13.247 35.0264 13.682 35.2062 14.045 35.5762C14.445 35.9662 14.644 36.4463 14.644 36.9863C14.644 37.4963 14.445 37.9259 14.045 38.2959C13.682 38.6959 13.247 38.8965 12.739 38.8965C12.231 38.8965 11.777 38.6959 11.378 38.2959C10.979 37.9259 10.779 37.4963 10.779 36.9863C10.779 36.4463 10.979 35.9662 11.378 35.5762Z" fill="black"/>
</svg>
