<svg width="140" height="40" viewBox="0 0 140 40" fill="none" xmlns="http://www.w3.org/2000/svg">
<path fill-rule="evenodd" clip-rule="evenodd" d="M4.355 13.065L0.109 13.12C0.073 12.176 0.036 11.468 0 10.997V8.71C0.907 8.71 1.615 8.692 2.123 8.656C2.631 8.619 3.375 8.601 4.355 8.601V4.301H7.676C7.894 4.264 8.238 4.246 8.71 4.246V0H13.011C13.047 0.944 13.047 1.669 13.011 2.177V4.355H8.71V8.601C7.767 8.638 7.041 8.656 6.533 8.656H4.355V10.017C4.355 10.38 4.337 10.652 4.301 10.833V12.358C4.337 12.503 4.355 12.739 4.355 13.065ZM4.355 13.065H7.894C8.692 13.065 9.908 13.047 11.541 13.011H13.065V8.765C14.009 8.728 14.717 8.71 15.189 8.71H17.421V4.409H21.721C22.701 4.409 24.171 4.428 26.131 4.464V8.765L30.377 8.71C30.413 9.654 30.431 10.38 30.431 10.888V13.065H26.185V15.243C26.185 15.715 26.167 16.44 26.131 17.42H21.885C21.885 18.364 21.866 19.09 21.83 19.598C21.83 20.07 21.812 20.796 21.776 21.776H17.529C17.529 21.957 17.511 22.084 17.475 22.157V22.538C17.439 23.3 17.402 23.88 17.366 24.28V30.486H13.065V24.715C13.065 24.171 13.084 23.336 13.12 22.211V21.776H17.366C17.402 21.159 17.421 20.705 17.421 20.415C17.421 20.124 17.439 19.671 17.475 19.054V18.237C17.511 18.056 17.529 17.783 17.529 17.42H21.776C21.812 16.477 21.83 15.769 21.83 15.297C21.866 14.789 21.885 14.045 21.885 13.065H26.131V8.819H23.409C22.828 8.783 22.393 8.765 22.102 8.765H17.421V13.065L13.065 13.12V17.366C11.142 17.402 9.69 17.42 8.71 17.42H4.355V13.065ZM39.196 4.301V0H47.906V4.246C48.85 4.282 49.558 4.301 50.03 4.301H52.207V13.011H47.906V4.409C46.455 4.373 45.366 4.355 44.64 4.355C43.914 4.319 43.188 4.301 42.462 4.301H39.196ZM39.196 34.895L34.95 34.95C34.914 34.006 34.877 33.298 34.841 32.827V30.595L34.786 28.853V26.185H36.42C36.783 26.149 37.146 26.131 37.509 26.131C37.871 26.131 38.398 26.149 39.087 26.185V27.002C39.124 28.744 39.142 30.05 39.142 30.921C39.142 31.792 39.16 33.117 39.196 34.895ZM47.906 34.841L47.961 39.087C46.074 39.123 44.622 39.16 43.606 39.196H39.196V34.895H44.64C45.402 34.895 46.491 34.877 47.906 34.841ZM39.087 13.065H34.841C34.841 11.614 34.823 10.525 34.786 9.799V7.567C34.823 6.805 34.877 5.698 34.95 4.246L39.196 4.301C39.16 5.752 39.142 6.841 39.142 7.567V9.799C39.178 10.525 39.196 11.614 39.196 13.065H43.497V15.243C43.533 15.715 43.569 16.44 43.606 17.42H47.852V19.598C47.888 20.07 47.925 20.796 47.961 21.776H52.207C52.243 24.606 52.262 26.748 52.262 28.199V34.841H47.906C47.943 31.974 47.943 29.814 47.906 28.363C47.906 26.911 47.888 24.715 47.852 21.776H43.551C43.551 21.267 43.533 20.886 43.497 20.632V19.435C43.497 18.999 43.479 18.672 43.442 18.455V17.42H39.196C39.16 16.477 39.142 15.769 39.142 15.297C39.142 14.789 39.124 14.045 39.087 13.065ZM69.682 34.841V30.486H72.404C72.767 30.486 73.293 30.504 73.983 30.54V34.841H69.682ZM60.972 34.841C62.423 34.841 63.512 34.859 64.238 34.895H66.416C67.141 34.895 68.23 34.877 69.682 34.841V39.087C68.266 39.16 67.178 39.196 66.416 39.196H64.184C63.422 39.196 62.333 39.16 60.917 39.087L60.972 34.841ZM61.026 13.065C60.99 16.622 60.954 19.326 60.917 21.177V26.675C60.954 28.526 60.972 31.248 60.972 34.841H56.617C56.58 31.212 56.562 28.49 56.562 26.675C56.562 24.824 56.58 22.991 56.617 21.177C56.653 19.362 56.671 16.658 56.671 13.065H61.026ZM61.026 13.065L60.972 8.819C62.895 8.783 64.329 8.765 65.272 8.765H69.628V10.942C69.664 11.414 69.682 12.122 69.682 13.065H73.983V17.475H69.682V16.767C69.682 15.932 69.664 15.315 69.628 14.916V13.065H61.026ZM91.403 34.841V32.663C91.439 32.155 91.458 31.429 91.458 30.486H95.758C95.758 31.466 95.74 32.21 95.704 32.718V34.841H91.403ZM82.693 34.841C84.145 34.841 85.233 34.859 85.959 34.895H88.137C88.863 34.895 89.951 34.877 91.403 34.841L91.458 39.087C90.006 39.16 88.899 39.196 88.137 39.196H85.905C85.143 39.196 84.054 39.16 82.638 39.087L82.693 34.841ZM82.747 13.065C82.711 16.622 82.675 19.326 82.638 21.177V21.776H91.403V18.509C91.403 17.275 91.385 16.368 91.349 15.787V13.065H82.747L82.693 8.819C84.616 8.783 86.05 8.765 86.994 8.765H91.294C91.331 9.708 91.349 10.434 91.349 10.942C91.385 11.414 91.403 12.122 91.403 13.065H95.704V17.475C95.74 18.418 95.758 19.852 95.758 21.776C95.758 22.755 95.74 23.499 95.704 24.008V26.076H87.266C86.213 26.076 85.433 26.094 84.925 26.131H82.638V26.675C82.638 28.526 82.657 31.248 82.693 34.841H78.338C78.338 31.248 78.32 28.526 78.283 26.675C78.283 24.824 78.302 22.991 78.338 21.177C78.374 19.362 78.392 16.658 78.392 13.065H82.747ZM134.954 34.841V30.486H139.255V34.841H134.954ZM126.244 34.841C127.66 34.841 128.73 34.859 129.456 34.895H131.688C132.414 34.895 133.503 34.877 134.954 34.841V39.087C133.539 39.16 132.45 39.196 131.688 39.196H129.456C128.694 39.196 127.587 39.16 126.135 39.087L126.244 34.841ZM126.299 13.065C126.262 16.622 126.226 19.326 126.19 21.177V21.776H134.9V13.065H126.299L126.19 8.819C128.149 8.783 129.601 8.765 130.545 8.765H134.845C134.882 9.708 134.9 10.434 134.9 10.942C134.936 11.414 134.954 12.122 134.954 13.065H139.201C139.237 15.025 139.255 16.495 139.255 17.475V26.076H130.817C129.764 26.076 128.984 26.094 128.476 26.131H126.19V26.675C126.19 28.526 126.208 31.248 126.244 34.841H121.889C121.853 31.248 121.835 28.526 121.835 26.675V21.177C121.871 19.362 121.907 16.658 121.943 13.065H126.299ZM104.414 15.461V35.712C104.414 35.857 104.432 36.111 104.468 36.474V37.236C104.505 37.345 104.523 37.545 104.523 37.835C104.523 38.125 104.505 38.343 104.468 38.488V39.196H100.004V37.4C100.004 37.291 100.023 37.145 100.059 36.964V16.059C100.095 15.406 100.113 14.408 100.113 13.065H104.414V10.942C104.45 10.47 104.468 9.744 104.468 8.765H113.124V10.888C113.161 11.36 113.179 12.085 113.179 13.065H117.425C117.461 14.372 117.479 15.352 117.479 16.005C117.516 16.622 117.534 17.602 117.534 18.945V37.018C117.57 37.2 117.588 37.345 117.588 37.454V39.196H113.124C113.124 38.906 113.106 38.688 113.07 38.543V37.236C113.106 37.091 113.124 36.873 113.124 36.583V35.766C113.161 35.585 113.179 35.276 113.179 34.841V18.564C113.179 17.366 113.161 16.459 113.124 15.842C113.124 15.188 113.106 14.263 113.07 13.065H104.468C104.468 14.118 104.45 14.916 104.414 15.461ZM13.011 34.841C13.991 34.805 14.717 34.786 15.189 34.786C15.697 34.786 16.422 34.805 17.366 34.841C17.402 35.821 17.421 36.565 17.421 37.073C17.421 37.545 17.402 38.252 17.366 39.196H13.011V34.841Z" fill="black"/>
</svg>
