<svg width="139" height="41" viewBox="0 0 139 41" fill="none" xmlns="http://www.w3.org/2000/svg">
<path fill-rule="evenodd" clip-rule="evenodd" d="M4.355 14.176L0.871 14.716C0.581 13.846 0.363 13.106 0.218 12.486C0.073 11.836 0 10.976 0 9.92596C0.762 9.60596 1.415 9.32597 1.96 9.11597C2.504 8.89597 3.303 8.71598 4.355 8.56598V5.086L6.642 4.75598C7.113 4.68598 7.458 4.62601 7.676 4.59601C7.93 4.55601 8.275 4.51596 8.71 4.48596V0.995972C9.581 0.965972 10.253 0.965972 10.725 0.995972C11.233 0.995972 11.904 1.05595 12.739 1.16595C12.811 2.03595 12.811 2.72596 12.739 3.23596C12.702 3.70596 12.63 4.35598 12.521 5.19598L8.71 5.35596V8.836C7.839 8.876 7.113 8.94597 6.533 9.05597C5.952 9.12597 5.226 9.206 4.355 9.276V10.366C4.21 10.726 4.083 11.036 3.974 11.286C3.901 11.546 3.865 11.906 3.865 12.376C3.865 12.846 3.901 13.196 3.974 13.416C4.083 13.626 4.21 13.886 4.355 14.176ZM4.355 14.176C5.807 14.206 6.95 14.176 7.785 14.066C8.656 13.956 9.908 13.816 11.541 13.626L13.065 13.466V9.98596C13.9 9.94596 14.59 9.89598 15.134 9.81598C15.715 9.74598 16.477 9.69601 17.421 9.65601V6.17596C19.235 6.06596 20.687 6.00598 21.776 6.00598C22.864 6.00598 24.316 6.17597 26.131 6.49597V10.036L29.615 9.98596C29.687 10.776 29.742 11.456 29.778 11.996C29.851 12.506 29.905 13.196 29.942 14.066H26.457C26.494 14.976 26.494 15.696 26.457 16.246C26.457 16.786 26.439 17.516 26.403 18.416H22.919C22.846 19.326 22.701 20.056 22.483 20.596C22.302 21.146 22.084 21.866 21.83 22.776H18.346C18.31 22.956 18.255 23.106 18.183 23.216C18.11 23.286 18.038 23.406 17.965 23.596C17.529 24.426 17.203 25.076 16.985 25.556C16.767 25.986 16.658 26.626 16.658 27.456V31.376C16.078 31.446 15.606 31.5059 15.243 31.5359C14.916 31.5359 14.59 31.526 14.263 31.486C13.936 31.446 13.483 31.416 12.902 31.376V28.326C12.902 27.166 12.957 26.296 13.065 25.716C13.174 25.096 13.319 24.266 13.501 23.216L13.61 22.776H17.094C17.166 22.196 17.275 21.756 17.421 21.466C17.566 21.146 17.711 20.686 17.856 20.106C17.965 19.786 18.074 19.506 18.183 19.296C18.292 19.076 18.419 18.786 18.564 18.416H22.048C22.229 17.516 22.356 16.806 22.429 16.296C22.538 15.786 22.592 15.046 22.592 14.066H26.131V10.586H23.899C23.427 10.436 23.01 10.326 22.647 10.256C22.32 10.146 21.848 10.096 21.231 10.096C20.505 10.096 19.888 10.126 19.38 10.196L17.421 10.526V14.006L13.065 14.446V17.926C11.178 18.076 9.708 18.186 8.656 18.256C7.603 18.296 6.17 18.276 4.355 18.206V14.176ZM39.196 36.2759L35.712 36.7659C35.385 35.9659 35.113 35.336 34.895 34.856C34.678 34.386 34.569 33.716 34.569 32.846V30.666L34.514 27.5159C35.095 27.4359 35.549 27.4059 35.875 27.4059C36.238 27.3659 36.583 27.3659 36.91 27.4059C37.236 27.4059 37.708 27.4359 38.325 27.5159L38.38 28.326C38.452 30.066 38.543 31.436 38.652 32.416C38.797 33.396 38.978 34.6759 39.196 36.2759ZM39.196 4.86597V1.05597C41.047 0.945969 42.517 0.895996 43.606 0.895996C44.731 0.895996 46.164 0.925972 47.906 0.995972V4.48596C48.814 4.55596 49.503 4.62599 49.975 4.70599C50.483 4.73599 51.136 4.79597 51.935 4.86597V13.516C51.354 13.596 50.901 13.646 50.574 13.686C50.247 13.716 49.902 13.736 49.539 13.736C49.213 13.706 48.759 13.646 48.179 13.576C48.106 12.526 48.051 11.726 48.015 11.176C47.979 10.596 47.943 9.816 47.906 8.836V5.73596C46.636 5.37596 45.602 5.11601 44.803 4.97601C44.041 4.79601 43.243 4.70599 42.408 4.70599C41.61 4.70599 40.539 4.75597 39.196 4.86597ZM47.961 35.836C48.142 33.046 48.142 30.846 47.961 29.256C47.779 27.616 47.507 25.466 47.144 22.776H43.66C43.588 22.306 43.497 21.926 43.388 21.636C43.315 21.346 43.225 20.946 43.116 20.436C43.007 20.036 42.898 19.706 42.789 19.456C42.717 19.196 42.644 18.856 42.571 18.416H39.087C38.87 17.476 38.706 16.746 38.597 16.246C38.488 15.696 38.398 14.976 38.325 14.066H34.841C34.732 12.796 34.641 11.706 34.569 10.796C34.533 9.85596 34.587 8.926 34.732 8.026C34.877 7.076 35.204 5.91601 35.712 4.53601L39.196 4.86597C38.978 6.20597 38.833 7.29599 38.761 8.13599C38.724 8.96599 38.742 9.81597 38.815 10.686C38.924 11.566 39.124 12.686 39.414 14.066H42.898C43.007 14.936 43.152 15.666 43.334 16.246C43.515 16.786 43.715 17.516 43.932 18.416H47.416C47.562 19.296 47.707 19.996 47.852 20.546C47.997 21.086 48.124 21.836 48.233 22.776H51.717C52.007 25.426 52.189 27.566 52.262 29.196C52.37 30.796 52.28 33.006 51.989 35.836H47.961ZM39.196 36.2759C40.539 36.4259 41.61 36.496 42.408 36.496C43.243 36.496 44.059 36.436 44.858 36.326C45.656 36.226 46.691 36.056 47.961 35.836L48.505 39.326C46.727 39.726 45.239 39.9959 44.041 40.1459C42.844 40.2859 41.228 40.326 39.196 40.246V36.2759ZM61.081 35.836C62.315 35.986 63.294 36.096 64.02 36.166C64.782 36.236 65.545 36.256 66.307 36.226C67.105 36.186 68.176 36.056 69.519 35.836L69.9 39.326C68.557 39.756 67.414 40.046 66.47 40.196C65.563 40.346 64.619 40.346 63.639 40.196C62.696 40.046 61.534 39.756 60.155 39.326L61.081 35.836ZM61.407 14.066L60.917 10.586C62.659 10.436 64.002 10.346 64.946 10.306C65.926 10.236 67.269 10.196 68.974 10.196C69.192 10.996 69.355 11.636 69.464 12.106C69.609 12.536 69.7 13.196 69.736 14.066H73.221C73.329 14.976 73.384 15.716 73.384 16.296C73.42 16.876 73.438 17.656 73.438 18.636V18.966C72.858 19.006 72.404 19.036 72.077 19.076C71.751 19.106 71.424 19.126 71.097 19.126C70.771 19.096 70.299 19.036 69.682 18.966C69.646 18.816 69.628 18.696 69.628 18.586V18.206C69.519 17.226 69.41 16.476 69.301 15.966C69.228 15.426 69.119 14.796 68.974 14.066H66.252C65.164 13.996 64.329 13.976 63.748 14.006C63.167 14.006 62.387 14.026 61.407 14.066ZM61.407 14.066C61.153 17.146 60.954 19.686 60.808 21.686C60.663 23.646 60.609 25.656 60.645 27.726C60.681 29.796 60.827 32.506 61.081 35.836H56.671C56.417 32.356 56.29 29.596 56.29 27.566C56.29 25.496 56.399 23.516 56.617 21.636C56.834 19.706 57.106 17.186 57.433 14.066H61.407ZM69.519 35.836C69.555 35.116 69.591 34.5559 69.628 34.1559C69.7 33.7159 69.754 33.156 69.791 32.466L69.845 31.706C70.426 31.666 70.88 31.6459 71.206 31.6459C71.569 31.6159 71.896 31.626 72.186 31.706C72.513 31.736 72.966 31.776 73.547 31.816C73.547 32.686 73.529 33.3759 73.493 33.8859C73.456 34.3559 73.42 35.006 73.384 35.836H69.519ZM90.968 35.836C91.04 34.966 91.113 34.246 91.185 33.666C91.258 33.086 91.294 32.356 91.294 31.486C91.911 31.416 92.383 31.376 92.71 31.376C93.036 31.376 93.363 31.396 93.69 31.436C94.016 31.466 94.47 31.5059 95.051 31.5359C95.014 32.4459 94.978 33.176 94.942 33.716C94.905 34.266 94.869 34.966 94.833 35.836H90.968ZM82.366 35.836C83.6 35.986 84.598 36.096 85.36 36.166C86.159 36.236 86.957 36.256 87.756 36.226C88.554 36.186 89.625 36.056 90.968 35.836L91.349 39.326C90.006 39.756 88.863 40.046 87.919 40.196C86.975 40.346 86.014 40.346 85.034 40.196C84.054 40.016 82.874 39.726 81.495 39.326L82.366 35.836ZM82.693 14.066C82.439 17.116 82.221 19.636 82.04 21.636C82.014 21.976 81.992 22.326 81.972 22.676C82.352 22.746 82.646 22.816 82.856 22.886C83.11 22.916 83.473 22.936 83.945 22.936C84.743 22.936 85.415 22.956 85.959 22.996H88.082C88.699 22.996 89.153 22.976 89.443 22.936C89.77 22.906 90.187 22.846 90.695 22.776C90.732 22.196 90.75 21.746 90.75 21.416C90.786 21.056 90.804 20.596 90.804 20.056V19.676C90.804 18.436 90.768 17.456 90.695 16.736C90.623 16.006 90.514 15.116 90.369 14.066H87.647C86.558 13.996 85.705 13.956 85.088 13.956C84.507 13.956 83.709 13.996 82.693 14.066L82.04 10.586C83.818 10.436 85.161 10.346 86.068 10.306C87.012 10.236 88.336 10.196 90.042 10.196C90.224 10.996 90.405 11.636 90.587 12.106C90.768 12.536 90.913 13.196 91.022 14.066H94.506C94.724 15.846 94.869 17.276 94.942 18.366C95.051 19.416 95.087 20.886 95.051 22.776C95.051 23.716 95.032 24.4259 94.996 24.8959C94.96 25.3659 94.905 25.986 94.833 26.746H85.905C84.925 26.746 84.199 26.806 83.727 26.916C83.292 26.986 82.675 27.096 81.876 27.236C81.874 27.196 81.871 27.156 81.868 27.126C81.87 27.326 81.873 27.526 81.876 27.726C81.913 29.796 82.076 32.506 82.366 35.836H78.011C77.721 32.396 77.576 29.656 77.576 27.616C77.576 25.556 77.666 23.556 77.848 21.636C78.029 19.706 78.265 17.186 78.556 14.066H82.693ZM134.356 35.836C134.428 34.966 134.501 34.246 134.573 33.666C134.646 33.086 134.7 32.356 134.737 31.486C135.317 31.416 135.771 31.376 136.098 31.376C136.424 31.376 136.751 31.396 137.077 31.436C137.404 31.466 137.858 31.5059 138.438 31.5359C138.438 32.4459 138.402 33.176 138.33 33.716C138.293 34.266 138.257 34.966 138.221 35.836H134.356ZM125.754 35.836C126.988 35.986 127.986 36.096 128.748 36.166C129.547 36.236 130.345 36.256 131.144 36.226C131.942 36.186 133.013 36.056 134.356 35.836L134.737 39.326C133.43 39.756 132.287 40.046 131.307 40.196C130.363 40.346 129.402 40.346 128.422 40.196C127.442 40.016 126.262 39.726 124.883 39.326L125.754 35.836ZM126.081 14.066C125.827 17.116 125.609 19.636 125.428 21.636C125.403 21.976 125.38 22.326 125.36 22.676C125.739 22.746 126.034 22.816 126.244 22.886C126.498 22.916 126.879 22.936 127.387 22.936C128.186 22.936 128.857 22.956 129.402 22.996H131.47C132.124 22.996 132.595 22.976 132.886 22.936C133.176 22.906 133.575 22.846 134.083 22.776C134.12 22.196 134.138 21.746 134.138 21.416C134.174 21.056 134.192 20.596 134.192 20.056V19.676C134.192 18.436 134.156 17.456 134.083 16.736C134.011 16.006 133.902 15.116 133.757 14.066H131.035C129.946 13.996 129.093 13.956 128.476 13.956C127.895 13.956 127.097 13.996 126.081 14.066L125.482 10.586C127.224 10.436 128.549 10.346 129.456 10.306C130.4 10.236 131.724 10.196 133.43 10.196C133.612 10.996 133.793 11.636 133.974 12.106C134.156 12.536 134.301 13.196 134.41 14.066H137.894C138.112 15.846 138.257 17.276 138.33 18.366C138.438 19.416 138.475 20.886 138.438 22.776C138.438 23.716 138.42 24.4259 138.384 24.8959C138.384 25.3659 138.33 25.986 138.221 26.746H129.293C128.349 26.746 127.641 26.806 127.17 26.916C126.698 26.986 126.063 27.096 125.264 27.236C125.264 27.016 125.26 26.816 125.253 26.626C125.254 26.996 125.258 27.356 125.264 27.726C125.3 29.796 125.464 32.506 125.754 35.836H121.399C121.109 32.396 120.964 29.656 120.964 27.616C120.964 25.556 121.054 23.556 121.236 21.636C121.453 19.706 121.708 17.186 121.998 14.066H126.081ZM103.434 36.006C103.434 36.476 103.47 36.806 103.543 36.986C103.652 37.166 103.779 37.406 103.924 37.696V37.796C103.96 37.796 103.979 37.816 103.979 37.856C104.087 38.106 104.16 38.2859 104.196 38.3959C104.269 38.5059 104.305 38.706 104.305 38.996C104.305 39.286 104.287 39.5059 104.251 39.6559C104.214 39.7559 104.16 39.946 104.087 40.196H98.752C98.68 39.976 98.625 39.7959 98.589 39.6559C98.553 39.5059 98.535 39.286 98.535 38.996C98.535 38.816 98.553 38.676 98.589 38.566C98.625 38.456 98.698 38.306 98.807 38.126C98.843 38.056 98.879 37.996 98.916 37.966C98.952 37.926 98.988 37.876 99.025 37.796C99.097 37.436 99.134 37.166 99.134 36.986C99.17 36.766 99.188 36.436 99.188 36.006V20.166C99.188 18.856 99.242 17.836 99.351 17.116C99.46 16.356 99.623 15.336 99.841 14.066H103.325C103.398 13.226 103.489 12.596 103.597 12.156C103.743 11.686 103.888 11.056 104.033 10.256C105.702 10.216 106.991 10.196 107.898 10.196C108.842 10.196 110.185 10.216 111.927 10.256C112.072 11.056 112.181 11.666 112.253 12.106C112.362 12.536 112.489 13.196 112.634 14.066H116.118C116.336 15.296 116.5 16.276 116.608 17.006C116.717 17.696 116.772 18.706 116.772 20.056V36.006C116.772 36.436 116.79 36.766 116.826 36.986L116.989 37.796C117.026 37.876 117.062 37.926 117.098 37.966C117.135 37.996 117.171 38.076 117.207 38.186C117.316 38.326 117.389 38.456 117.425 38.566C117.498 38.676 117.534 38.836 117.534 39.056C117.534 39.346 117.516 39.556 117.479 39.706C117.479 39.816 117.425 39.976 117.316 40.196H112.036C111.963 39.976 111.908 39.7959 111.872 39.6559V38.996C111.872 38.746 111.89 38.566 111.927 38.456C111.999 38.306 112.09 38.106 112.199 37.856C112.271 37.526 112.344 37.276 112.417 37.096C112.489 36.876 112.525 36.516 112.525 36.006V19.456C112.525 18.186 112.453 17.236 112.308 16.626C112.199 15.966 112.036 15.116 111.818 14.066H110.076C109.35 14.026 108.787 14.006 108.388 14.006C107.989 14.006 107.408 14.026 106.646 14.066H104.087C103.906 14.976 103.743 15.736 103.597 16.356C103.489 16.936 103.434 17.786 103.434 18.906V36.006ZM12.467 37.966C12.467 37.386 12.521 36.636 12.63 35.736C13.537 35.626 14.263 35.566 14.807 35.566C15.388 35.566 16.132 35.626 17.039 35.736C17.148 36.636 17.203 37.386 17.203 37.966C17.203 38.506 17.148 39.216 17.039 40.086C16.132 40.236 15.388 40.306 14.807 40.306C14.263 40.306 13.537 40.2459 12.63 40.1459C12.521 39.2359 12.467 38.506 12.467 37.966Z" fill="black"/>
</svg>
