<svg width="139" height="41" viewBox="0 0 139 41" fill="none" xmlns="http://www.w3.org/2000/svg">
<path fill-rule="evenodd" clip-rule="evenodd" d="M4.355 14.1761L0.925 14.7161C0.635 13.8861 0.399 13.156 0.218 12.536C0.073 11.886 0 11.0161 0 9.92606C0.762 9.60606 1.415 9.32613 1.96 9.11613C2.504 8.85613 3.303 8.65603 4.355 8.51603V5.0861L6.642 4.75614C7.113 4.68614 7.458 4.62611 7.676 4.59611C7.93 4.51611 8.275 4.46606 8.71 4.42606V0.996132C9.581 0.966132 10.253 0.966132 10.725 0.996132C11.233 0.996132 11.904 1.05605 12.739 1.16605C12.775 2.03605 12.775 2.72612 12.739 3.23612C12.702 3.70612 12.612 4.35608 12.467 5.19608L8.71 5.35612V8.78605C7.839 8.85605 7.095 8.94607 6.478 9.05607C5.898 9.12607 5.19 9.1861 4.355 9.2161V10.3061C4.21 10.7061 4.083 11.036 3.974 11.286C3.865 11.546 3.811 11.9061 3.811 12.3761C3.811 12.8461 3.865 13.2161 3.974 13.4661C4.083 13.6861 4.21 13.9161 4.355 14.1761ZM4.355 14.1761C5.771 14.2061 6.914 14.1761 7.785 14.0661C8.656 13.9561 9.908 13.8161 11.541 13.6261L13.065 13.4661V10.036C13.864 9.99605 14.553 9.94614 15.134 9.87614C15.715 9.76614 16.477 9.69604 17.421 9.65604V6.17606C19.235 6.09606 20.687 6.06608 21.776 6.06608C22.864 6.06608 24.316 6.22607 26.131 6.55607V10.036L29.56 9.98612C29.633 10.7761 29.687 11.4561 29.724 11.9961C29.796 12.5061 29.851 13.1961 29.887 14.0661H26.457C26.494 14.9761 26.512 15.6961 26.512 16.2461C26.512 16.7861 26.476 17.5161 26.403 18.4161H22.973C22.901 19.3261 22.756 20.0561 22.538 20.5961C22.356 21.1461 22.12 21.866 21.83 22.776H18.4C18.328 22.956 18.255 23.1061 18.183 23.2161C18.146 23.2861 18.092 23.4061 18.019 23.5961C17.548 24.4261 17.185 25.0761 16.931 25.5561C16.713 26.0261 16.604 26.6561 16.604 27.4561V31.3761C16.023 31.4461 15.57 31.506 15.243 31.536C14.916 31.536 14.572 31.5261 14.209 31.4861C13.882 31.4461 13.446 31.4161 12.902 31.3761V28.3261C12.902 27.1661 12.957 26.2961 13.065 25.7161C13.174 25.0961 13.338 24.2661 13.555 23.2161L13.61 22.776H17.039C17.148 22.196 17.275 21.7561 17.421 21.4661C17.566 21.1461 17.711 20.6861 17.856 20.1061C17.965 19.7861 18.074 19.5061 18.183 19.2961C18.328 19.0761 18.473 18.7861 18.618 18.4161H22.048C22.229 17.5161 22.374 16.8061 22.483 16.2961C22.592 15.7861 22.647 15.0461 22.647 14.0661H26.131V10.636H23.899C23.427 10.486 23.028 10.3861 22.701 10.3061C22.374 10.1961 21.903 10.146 21.286 10.146C20.523 10.146 19.888 10.1861 19.38 10.2561C18.909 10.3261 18.255 10.416 17.421 10.526V14.0061L13.065 14.4461V17.8761C11.178 18.0561 9.708 18.1861 8.656 18.2561C7.603 18.2961 6.17 18.256 4.355 18.146V14.1761ZM39.196 4.86613V1.05607C41.047 0.906068 42.517 0.856034 43.606 0.896034C44.731 0.896034 46.164 0.926132 47.906 0.996132V4.42606C48.814 4.50606 49.503 4.57603 49.975 4.64603C50.483 4.68603 51.118 4.75613 51.88 4.86613V9.16605C51.917 10.2561 51.935 11.706 51.935 13.516C51.354 13.596 50.901 13.6461 50.574 13.6861H49.539C49.213 13.6461 48.759 13.596 48.179 13.516L48.015 11.1261C47.979 10.5461 47.943 9.76605 47.906 8.78605V5.73612C46.636 5.37612 45.602 5.09605 44.803 4.91605C44.041 4.73605 43.243 4.64603 42.408 4.64603C41.61 4.64603 40.539 4.71613 39.196 4.86613ZM47.961 35.8361C48.179 33.0461 48.179 30.8461 47.961 29.2561C47.779 27.6161 47.507 25.466 47.144 22.776H43.715C43.606 22.306 43.497 21.926 43.388 21.636C43.279 21.346 43.17 20.9461 43.061 20.4361C42.989 20.0361 42.898 19.7061 42.789 19.4561C42.717 19.1961 42.626 18.8561 42.517 18.4161H39.087C38.87 17.4761 38.688 16.7461 38.543 16.2461C38.434 15.6961 38.343 14.9761 38.271 14.0661H34.841C34.732 12.7961 34.641 11.7061 34.569 10.7961C34.496 9.85606 34.533 8.9161 34.678 7.9661C34.859 7.0261 35.222 5.86612 35.766 4.48612L39.196 4.86613C38.978 6.17613 38.833 7.25602 38.761 8.13602C38.724 8.96602 38.742 9.81607 38.815 10.6861C38.924 11.5661 39.124 12.6861 39.414 14.0661H42.844C42.952 14.9361 43.098 15.6661 43.279 16.2461C43.497 16.7861 43.715 17.5161 43.932 18.4161H47.362C47.543 19.2961 47.707 19.9961 47.852 20.5461C47.997 21.0861 48.142 21.836 48.287 22.776H51.717C52.007 25.386 52.189 27.5261 52.262 29.1961C52.37 30.8361 52.28 33.0461 51.989 35.8361H47.961ZM39.196 36.276C40.539 36.426 41.628 36.5161 42.462 36.5461C43.297 36.5461 44.096 36.496 44.858 36.386C45.656 36.276 46.691 36.0961 47.961 35.8361L48.56 39.266C46.781 39.706 45.275 39.996 44.041 40.146C42.844 40.286 41.228 40.3261 39.196 40.2461V36.276ZM39.196 36.276L35.766 36.8161C35.404 36.0261 35.113 35.3861 34.895 34.9161C34.678 34.4461 34.569 33.776 34.569 32.906V30.7261L34.514 27.5661C35.095 27.4961 35.549 27.436 35.875 27.406C36.202 27.366 36.529 27.366 36.855 27.406C37.218 27.406 37.69 27.436 38.271 27.516L38.325 28.3261C38.434 30.1061 38.543 31.4861 38.652 32.4661C38.797 33.4461 38.978 34.716 39.196 36.276ZM69.519 35.8361C69.555 35.1561 69.591 34.586 69.628 34.156C69.7 33.716 69.754 33.1561 69.791 32.4661L69.845 31.7061C70.426 31.6661 70.88 31.646 71.206 31.646C71.569 31.646 71.896 31.6661 72.186 31.7061C72.513 31.7361 72.966 31.7961 73.547 31.8661C73.511 32.7061 73.475 33.376 73.438 33.886C73.438 34.356 73.402 35.0061 73.329 35.8361H69.519ZM61.081 35.8361C62.315 35.9861 63.294 36.1161 64.02 36.2261C64.782 36.2961 65.545 36.316 66.307 36.276C67.105 36.206 68.176 36.0561 69.519 35.8361L69.9 39.266C68.593 39.706 67.468 40.0161 66.525 40.1961C65.581 40.3761 64.619 40.3761 63.639 40.1961C62.696 40.0461 61.534 39.746 60.155 39.266L61.081 35.8361ZM61.407 14.0661C61.153 17.1161 60.954 19.636 60.808 21.636C60.663 23.596 60.609 25.6261 60.645 27.7261C60.681 29.7961 60.827 32.5061 61.081 35.8361H56.671C56.381 32.3961 56.236 29.6361 56.236 27.5661C56.272 25.4961 56.399 23.5061 56.617 21.5761C56.871 19.6561 57.143 17.1461 57.433 14.0661H61.407ZM61.407 14.0661L60.917 10.636C62.659 10.486 64.002 10.3861 64.946 10.3061C65.926 10.2361 67.25 10.1961 68.92 10.1961C69.174 10.9961 69.355 11.6361 69.464 12.1061C69.609 12.5361 69.7 13.1961 69.736 14.0661H73.166C73.275 14.9761 73.329 15.7361 73.329 16.3561C73.366 16.9361 73.384 17.7161 73.384 18.6961V18.9661C72.839 19.0361 72.404 19.0961 72.077 19.1261C71.751 19.1661 71.406 19.1861 71.043 19.1861C70.716 19.1461 70.263 19.096 69.682 19.016C69.646 18.876 69.628 18.746 69.628 18.636V18.2061C69.519 17.2561 69.41 16.5161 69.301 15.9661C69.228 15.4261 69.119 14.7961 68.974 14.0661H66.252C65.2 13.9961 64.383 13.9761 63.803 14.0061C63.222 14.0061 62.423 14.0261 61.407 14.0661ZM82.366 35.8361C83.6 35.9861 84.598 36.1161 85.36 36.2261C86.123 36.2961 86.903 36.316 87.701 36.276C88.536 36.206 89.607 36.0561 90.913 35.8361L91.349 39.266C90.006 39.746 88.845 40.0461 87.865 40.1961C86.921 40.3461 85.941 40.3461 84.925 40.1961C83.945 40.0161 82.784 39.706 81.441 39.266L82.366 35.8361ZM82.693 14.0661C82.403 17.1161 82.167 19.636 81.985 21.636C81.96 21.976 81.937 22.3261 81.917 22.6761C82.297 22.7461 82.591 22.816 82.802 22.886C83.056 22.916 83.419 22.9361 83.891 22.9361C84.689 22.9761 85.36 22.9961 85.905 22.9961H88.028C88.681 22.9961 89.153 22.9761 89.443 22.9361C89.734 22.9061 90.133 22.846 90.641 22.776C90.714 22.196 90.75 21.7461 90.75 21.4161V19.7261C90.75 18.4561 90.714 17.4561 90.641 16.7361C90.568 16.0061 90.46 15.1161 90.314 14.0661H87.592C86.54 13.9561 85.705 13.9161 85.088 13.9561C84.507 13.9561 83.709 13.9961 82.693 14.0661L82.04 10.636C83.782 10.456 85.106 10.3461 86.014 10.3061C86.957 10.2761 88.282 10.2561 89.988 10.2561C90.169 11.0161 90.351 11.6361 90.532 12.1061C90.714 12.5361 90.877 13.1961 91.022 14.0661H94.452C94.67 15.8461 94.815 17.2761 94.887 18.3661C94.996 19.4161 95.032 20.886 94.996 22.776C94.996 23.716 94.978 24.426 94.942 24.896C94.942 25.366 94.887 25.9661 94.778 26.6961C93.653 26.7361 92.728 26.7461 92.002 26.7461C91.276 26.7161 90.26 26.6961 88.953 26.6961H85.85C84.87 26.6961 84.145 26.7461 83.673 26.8561C83.237 26.9661 82.62 27.0961 81.822 27.2361C81.822 27.0161 81.818 26.8061 81.811 26.6161C81.812 26.9861 81.815 27.3561 81.822 27.7261C81.858 29.7961 82.04 32.5061 82.366 35.8361H78.011C77.685 32.3961 77.521 29.6561 77.521 27.6161C77.521 25.5561 77.612 23.556 77.793 21.636C78.011 19.676 78.283 17.1461 78.61 14.0661H82.693ZM90.913 35.8361C90.986 34.9661 91.058 34.2461 91.131 33.6661C91.204 33.0861 91.258 32.3561 91.294 31.4861C91.875 31.4161 92.329 31.3761 92.655 31.3761C93.018 31.3361 93.363 31.3561 93.69 31.4361C94.016 31.4661 94.452 31.506 94.996 31.536C94.996 32.446 94.96 33.196 94.887 33.776C94.851 34.316 94.815 35.0061 94.778 35.8361H90.913ZM134.301 35.8361C134.374 34.9661 134.446 34.2461 134.519 33.6661C134.591 33.0861 134.646 32.3561 134.682 31.4861C135.299 31.4161 135.771 31.3761 136.098 31.3761C136.424 31.3361 136.751 31.3561 137.077 31.4361C137.404 31.4661 137.84 31.506 138.384 31.536C138.384 32.446 138.348 33.196 138.275 33.776C138.239 34.316 138.203 35.0061 138.166 35.8361H134.301ZM125.754 35.8361C126.988 35.9861 127.986 36.1161 128.748 36.2261C129.547 36.2961 130.345 36.316 131.144 36.276C131.942 36.206 132.995 36.0561 134.301 35.8361L134.737 39.266C133.43 39.746 132.287 40.0461 131.307 40.1961C130.327 40.3461 129.347 40.3461 128.367 40.1961C127.387 40.0161 126.208 39.706 124.829 39.266L125.754 35.8361ZM126.081 14.0661C125.79 17.1161 125.555 19.636 125.373 21.636C125.348 21.976 125.325 22.3261 125.305 22.6761C125.684 22.7461 125.98 22.816 126.19 22.886C126.444 22.916 126.807 22.9361 127.278 22.9361C128.077 22.9761 128.748 22.9961 129.293 22.9961H131.416C132.069 22.9961 132.541 22.9761 132.831 22.9361C133.122 22.9061 133.539 22.846 134.083 22.776C134.12 22.196 134.138 21.7461 134.138 21.4161V19.7261C134.138 18.4561 134.101 17.4561 134.029 16.7361C133.956 16.0061 133.847 15.1161 133.702 14.0661H130.98C129.928 13.9561 129.093 13.9161 128.476 13.9561C127.895 13.9561 127.097 13.9961 126.081 14.0661L125.428 10.636C127.17 10.456 128.494 10.3461 129.402 10.3061C130.345 10.2761 131.67 10.2561 133.376 10.2561C133.557 11.0161 133.739 11.6361 133.92 12.1061C134.101 12.5361 134.265 13.1961 134.41 14.0661H137.84C138.057 15.8461 138.203 17.2761 138.275 18.3661C138.384 19.4161 138.438 20.886 138.438 22.776C138.438 23.716 138.42 24.426 138.384 24.896C138.348 25.366 138.275 25.9661 138.166 26.6961C137.041 26.7361 136.116 26.7461 135.39 26.7461C134.664 26.7161 133.648 26.6961 132.341 26.6961H129.238C128.258 26.6961 127.532 26.7461 127.061 26.8561C126.625 26.9661 126.008 27.0961 125.21 27.2361C125.21 27.0161 125.206 26.8061 125.199 26.6061C125.2 26.9761 125.203 27.3561 125.21 27.7261C125.246 29.7961 125.428 32.5061 125.754 35.8361H121.399C121.072 32.3961 120.909 29.6561 120.909 27.6161C120.909 25.5561 121 23.556 121.181 21.636C121.399 19.676 121.671 17.1461 121.998 14.0661H126.081ZM103.38 36.0061C103.38 36.5161 103.416 36.856 103.489 37.036C103.597 37.216 103.724 37.4561 103.87 37.7461C103.906 37.7861 103.924 37.7961 103.924 37.7961L103.979 37.8561C104.087 38.1061 104.16 38.3061 104.196 38.4561C104.233 38.5661 104.251 38.7461 104.251 38.9961C104.251 39.2861 104.233 39.506 104.196 39.656C104.16 39.756 104.124 39.9461 104.087 40.1961H98.644C98.571 39.9761 98.516 39.796 98.48 39.656C98.444 39.506 98.426 39.2861 98.426 38.9961C98.426 38.8161 98.444 38.6761 98.48 38.5661C98.553 38.4561 98.644 38.3061 98.752 38.1261C98.789 38.0961 98.825 38.056 98.861 38.016C98.898 37.946 98.916 37.8761 98.916 37.7961C99.025 37.4361 99.079 37.1661 99.079 36.9861C99.115 36.7661 99.134 36.4361 99.134 36.0061V20.1661C99.134 18.8561 99.188 17.8361 99.297 17.1161C99.406 16.3561 99.569 15.3361 99.787 14.0661H103.271C103.343 13.2661 103.452 12.636 103.597 12.156C103.743 11.686 103.888 11.0561 104.033 10.2561C105.702 10.2161 106.991 10.1961 107.898 10.1961C108.805 10.1961 110.112 10.2361 111.818 10.3061C111.999 11.0761 112.144 11.6661 112.253 12.1061C112.362 12.5361 112.471 13.1961 112.58 14.0661H116.064C116.282 15.2961 116.445 16.2761 116.554 17.0061C116.663 17.7261 116.717 18.7461 116.717 20.0561L116.772 36.0061V36.9861C116.808 37.1661 116.881 37.4361 116.989 37.7961C117.026 37.9061 117.062 37.986 117.098 38.016C117.135 38.056 117.171 38.1061 117.207 38.1861C117.316 38.3661 117.389 38.5061 117.425 38.6161C117.498 38.7261 117.534 38.8761 117.534 39.0561C117.534 39.3461 117.516 39.5561 117.479 39.7061C117.479 39.8161 117.425 39.9761 117.316 40.1961H111.981C111.908 39.9761 111.854 39.796 111.818 39.656C111.781 39.506 111.763 39.2861 111.763 38.9961C111.763 38.7461 111.781 38.5661 111.818 38.4561C111.89 38.3061 111.999 38.1061 112.144 37.8561C112.217 37.5261 112.29 37.2761 112.362 37.0961C112.435 36.8761 112.471 36.5161 112.471 36.0061V19.396C112.471 18.166 112.398 17.2361 112.253 16.6261C112.144 15.9661 111.981 15.1161 111.763 14.0661H110.021C109.295 14.0261 108.733 14.0061 108.334 14.0061C107.934 14.0061 107.354 14.0261 106.592 14.0661H104.087C103.906 14.9761 103.743 15.7361 103.597 16.3561C103.452 16.9361 103.38 17.786 103.38 18.906V36.0061ZM12.412 37.906C12.412 37.326 12.485 36.6061 12.63 35.7361C13.537 35.6261 14.263 35.5661 14.807 35.5661C15.388 35.5661 16.114 35.6261 16.985 35.7361C17.13 36.6361 17.203 37.3861 17.203 37.9661C17.203 38.5061 17.13 39.2161 16.985 40.0861C16.114 40.2361 15.388 40.3061 14.807 40.3061C14.227 40.3061 13.501 40.246 12.63 40.146C12.485 39.236 12.412 38.486 12.412 37.906Z" fill="black"/>
</svg>
