<svg width="139" height="41" viewBox="0 0 139 41" fill="none" xmlns="http://www.w3.org/2000/svg">
<path fill-rule="evenodd" clip-rule="evenodd" d="M4.355 14.1761L0.98 14.776C0.653 13.906 0.399 13.156 0.218 12.536C0.073 11.886 0 11.0161 0 9.92606C0.726 9.60606 1.361 9.30607 1.905 9.05607C2.486 8.80607 3.303 8.60609 4.355 8.45609V5.02604L6.642 4.70609C7.113 4.62609 7.476 4.57605 7.73 4.53605C7.984 4.46605 8.311 4.41614 8.71 4.37614V0.996132C9.581 0.926132 10.253 0.906083 10.725 0.946083C11.233 0.986083 11.904 1.0761 12.739 1.2161C12.775 2.0561 12.775 2.72612 12.739 3.23612C12.702 3.70612 12.612 4.35608 12.467 5.19608L8.71 5.35612V8.72611C7.839 8.80611 7.095 8.89614 6.478 9.00614C5.898 9.07614 5.19 9.1461 4.355 9.2161V10.2561C4.21 10.6561 4.083 10.9761 3.974 11.2361C3.865 11.4861 3.811 11.8661 3.811 12.3761C3.811 12.8461 3.865 13.2161 3.974 13.4661C4.083 13.6861 4.21 13.9161 4.355 14.1761ZM4.355 14.1761C5.771 14.2061 6.914 14.1761 7.785 14.0661C8.656 13.9561 9.908 13.8161 11.541 13.6261L13.065 13.4161V10.036C13.864 9.99605 14.553 9.94614 15.134 9.87614C15.715 9.76614 16.477 9.67612 17.421 9.60612V6.22611C19.199 6.11611 20.632 6.07613 21.721 6.11613C22.846 6.11613 24.316 6.27612 26.131 6.60612V10.036L29.506 9.98612C29.578 10.8161 29.651 11.4861 29.724 11.9961C29.796 12.5061 29.851 13.1961 29.887 14.0661H26.457C26.494 14.9361 26.512 15.6661 26.512 16.2461C26.512 16.7861 26.476 17.5161 26.403 18.4161H23.028C22.919 19.3261 22.756 20.0561 22.538 20.5961C22.356 21.1461 22.139 21.866 21.885 22.776H18.455C18.382 22.956 18.31 23.1061 18.237 23.2161C18.165 23.2861 18.092 23.4061 18.019 23.5961C17.548 24.4261 17.185 25.0761 16.931 25.5561C16.677 26.0261 16.549 26.676 16.549 27.516V31.3761C16.005 31.4461 15.551 31.506 15.189 31.536C14.862 31.536 14.535 31.5261 14.209 31.4861C13.882 31.4461 13.428 31.4161 12.848 31.3761V28.3261C12.848 27.2061 12.92 26.3361 13.065 25.7161C13.211 25.0961 13.374 24.2661 13.555 23.2161L13.664 22.776H17.039C17.148 22.196 17.275 21.7561 17.421 21.4661C17.566 21.1461 17.729 20.6861 17.91 20.1061C18.019 19.7861 18.128 19.5061 18.237 19.2961C18.382 19.0761 18.527 18.7861 18.673 18.4161H22.048C22.266 17.5461 22.429 16.8561 22.538 16.3561C22.647 15.8061 22.701 15.0461 22.701 14.0661H26.131V10.6861H23.953C23.481 10.5061 23.064 10.3861 22.701 10.3061C22.374 10.1961 21.903 10.146 21.286 10.146C20.56 10.146 19.943 10.1961 19.435 10.3061C18.927 10.3861 18.255 10.4761 17.421 10.5861V13.9561L13.065 14.4461V17.8761C11.178 18.0561 9.69 18.1861 8.601 18.2561C7.549 18.2961 6.133 18.256 4.355 18.146V14.1761ZM39.196 36.3261L35.821 36.8761C35.422 36.0761 35.113 35.4461 34.895 34.9661C34.678 34.4961 34.569 33.8261 34.569 32.9561L34.514 30.776V27.5661C35.059 27.4961 35.494 27.436 35.821 27.406C36.148 27.366 36.474 27.366 36.801 27.406C37.164 27.406 37.636 27.436 38.216 27.516L38.271 28.3261C38.38 30.1061 38.488 31.506 38.597 32.516C38.742 33.496 38.942 34.7661 39.196 36.3261ZM39.196 4.86613V1.05607C41.047 0.906068 42.517 0.856034 43.606 0.896034C44.731 0.896034 46.164 0.926132 47.906 0.996132V4.37614C48.814 4.44614 49.503 4.51611 49.975 4.59611C50.483 4.66611 51.118 4.75613 51.88 4.86613V9.16605C51.917 10.2561 51.935 11.6861 51.935 13.4661C51.354 13.5361 50.901 13.5961 50.574 13.6261C50.247 13.6661 49.902 13.6861 49.539 13.6861C49.213 13.6461 48.759 13.596 48.179 13.516C48.142 12.466 48.088 11.6661 48.015 11.1261C47.979 10.5461 47.943 9.76605 47.906 8.78605V5.78605C46.636 5.39605 45.602 5.09605 44.803 4.91605C44.041 4.73605 43.243 4.64603 42.408 4.64603C41.61 4.64603 40.539 4.71613 39.196 4.86613ZM47.961 35.8361C48.179 33.0461 48.179 30.8361 47.961 29.1961C47.779 27.5661 47.489 25.426 47.09 22.776H43.715C43.606 22.306 43.497 21.926 43.388 21.636C43.279 21.346 43.17 20.9461 43.061 20.4361C42.952 20.0361 42.844 19.7061 42.735 19.4561C42.662 19.1961 42.571 18.8561 42.462 18.4161H39.087C38.87 17.4761 38.688 16.7461 38.543 16.2461C38.398 15.6961 38.289 14.9761 38.216 14.0661H34.841C34.732 12.7961 34.641 11.7061 34.569 10.7961C34.496 9.85606 34.533 8.9161 34.678 7.9661C34.859 6.9861 35.24 5.80606 35.821 4.42606L39.196 4.86613C38.978 6.13613 38.833 7.20609 38.761 8.07609C38.688 8.91609 38.706 9.78607 38.815 10.6861C38.924 11.5661 39.124 12.6861 39.414 14.0661H42.789C42.934 14.9361 43.116 15.6661 43.334 16.2461C43.551 16.7861 43.751 17.5161 43.932 18.4161H47.362C47.507 19.2961 47.652 19.9961 47.798 20.5461C47.979 21.0861 48.142 21.836 48.287 22.776H51.663C51.989 25.386 52.189 27.5261 52.262 29.1961C52.37 30.8361 52.28 33.0461 51.989 35.8361H47.961ZM39.196 36.3261C40.539 36.4761 41.628 36.5661 42.462 36.6061C43.297 36.6061 44.114 36.5461 44.912 36.4361C45.711 36.2961 46.727 36.0961 47.961 35.8361L48.614 39.2161C46.836 39.6561 45.33 39.956 44.096 40.146C42.862 40.326 41.228 40.3561 39.196 40.2461V36.3261ZM69.464 35.8361C69.537 35.1561 69.591 34.586 69.628 34.156C69.7 33.716 69.754 33.1561 69.791 32.4661L69.845 31.7561C70.426 31.6861 70.88 31.646 71.206 31.646C71.569 31.646 71.896 31.6661 72.186 31.7061C72.513 31.7361 72.948 31.7961 73.493 31.8661C73.493 32.7061 73.475 33.376 73.438 33.886C73.402 34.356 73.366 35.0061 73.329 35.8361H69.464ZM61.081 35.8361C62.315 35.9861 63.294 36.1161 64.02 36.2261C64.782 36.2961 65.545 36.316 66.307 36.276C67.105 36.236 68.158 36.0961 69.464 35.8361L69.9 39.2161C68.593 39.6861 67.468 40.0161 66.525 40.1961C65.581 40.3761 64.619 40.3761 63.639 40.1961C62.659 40.0461 61.48 39.7261 60.101 39.2161L61.081 35.8361ZM61.462 14.0661C61.171 17.0761 60.954 19.5861 60.808 21.5761C60.663 23.5761 60.609 25.6261 60.645 27.7261C60.681 29.8361 60.827 32.5361 61.081 35.8361H56.725C56.399 32.3961 56.236 29.6361 56.236 27.5661C56.272 25.4961 56.399 23.5061 56.617 21.5761C56.871 19.6161 57.161 17.1161 57.488 14.0661H61.462ZM61.462 14.0661L60.863 10.6861C62.641 10.5061 64.002 10.3961 64.946 10.3661C65.889 10.2861 67.196 10.2561 68.865 10.2561C69.119 11.0161 69.319 11.6361 69.464 12.1061C69.609 12.5361 69.7 13.1961 69.736 14.0661H73.166C73.275 14.9761 73.329 15.7361 73.329 16.3561C73.366 16.9361 73.384 17.7161 73.384 18.6961V19.016C72.803 19.056 72.35 19.0961 72.023 19.1261C71.733 19.1661 71.406 19.1861 71.043 19.1861C70.716 19.1461 70.263 19.096 69.682 19.016C69.646 18.876 69.628 18.746 69.628 18.636C69.628 18.526 69.609 18.4061 69.573 18.2561C69.501 17.2761 69.41 16.5161 69.301 15.9661C69.192 15.4261 69.065 14.7961 68.92 14.0661H66.252C65.2 13.9961 64.383 13.9561 63.803 13.9561C63.222 13.9561 62.442 13.9961 61.462 14.0661ZM90.913 35.8361C90.986 34.9661 91.058 34.2461 91.131 33.6661C91.204 33.0861 91.258 32.3561 91.294 31.4861C91.875 31.4161 92.329 31.3761 92.655 31.3761C92.982 31.3361 93.309 31.3561 93.635 31.4361C93.962 31.4661 94.415 31.506 94.996 31.536C94.96 32.446 94.905 33.196 94.833 33.776C94.796 34.316 94.76 35.0061 94.724 35.8361H90.913ZM82.312 35.8361C83.546 35.9861 84.544 36.1161 85.306 36.2261C86.104 36.2961 86.903 36.316 87.701 36.276C88.536 36.236 89.607 36.0961 90.913 35.8361L91.349 39.2161C90.042 39.6861 88.881 40.0161 87.865 40.1961C86.885 40.3461 85.887 40.3461 84.87 40.1961C83.891 40.0161 82.729 39.6861 81.386 39.2161L82.312 35.8361ZM82.693 14.0661C82.403 17.0761 82.167 19.5861 81.985 21.5761C81.952 21.9461 81.922 22.3061 81.896 22.6761C82.26 22.7461 82.543 22.816 82.747 22.886C83.001 22.916 83.364 22.9561 83.836 22.9961H87.974C88.627 22.9961 89.099 22.9761 89.389 22.9361C89.716 22.9061 90.133 22.846 90.641 22.776C90.677 22.196 90.695 21.7461 90.695 21.4161V19.7261C90.695 18.4561 90.659 17.4561 90.587 16.7361C90.514 16.0061 90.405 15.1161 90.26 14.0661H87.592C86.54 13.9561 85.705 13.9161 85.088 13.9561C84.471 13.9561 83.673 13.9961 82.693 14.0661L81.985 10.6861C83.727 10.5061 85.052 10.3961 85.959 10.3661C86.903 10.2861 88.209 10.2561 89.879 10.2561C90.097 11.0161 90.296 11.6361 90.478 12.1061C90.695 12.5361 90.859 13.1961 90.968 14.0661H94.397C94.615 15.8461 94.76 17.2761 94.833 18.3661C94.942 19.4161 94.996 20.886 94.996 22.776C94.996 23.686 94.978 24.386 94.942 24.896C94.905 25.366 94.833 25.9661 94.724 26.6961H85.742C84.798 26.6961 84.09 26.7461 83.618 26.8561C83.183 26.9661 82.566 27.0961 81.767 27.2361C81.767 27.0361 81.764 26.8361 81.758 26.6661C81.758 27.0161 81.761 27.3661 81.767 27.7261C81.804 29.8361 81.985 32.5361 82.312 35.8361H78.011C77.685 32.4261 77.503 29.6861 77.467 27.6161C77.467 25.5161 77.576 23.5061 77.793 21.5761C78.011 19.6161 78.283 17.1161 78.61 14.0661H82.693ZM134.301 35.8361C134.374 34.9661 134.446 34.2461 134.519 33.6661C134.591 33.0861 134.646 32.3561 134.682 31.4861C135.263 31.4161 135.716 31.3761 136.043 31.3761C136.37 31.3361 136.696 31.3561 137.023 31.4361C137.35 31.4661 137.785 31.506 138.33 31.536C138.33 32.446 138.293 33.196 138.221 33.776C138.184 34.316 138.148 35.0061 138.112 35.8361H134.301ZM125.7 35.8361C126.934 35.9861 127.932 36.1161 128.694 36.2261C129.492 36.2961 130.291 36.316 131.089 36.276C131.924 36.236 132.995 36.0961 134.301 35.8361L134.682 39.2161C133.376 39.6861 132.232 40.0161 131.252 40.1961C130.273 40.3461 129.275 40.3461 128.258 40.1961C127.278 40.0161 126.117 39.6861 124.774 39.2161L125.7 35.8361ZM126.081 14.0661C125.79 17.0761 125.555 19.5861 125.373 21.5761C125.34 21.9461 125.31 22.3061 125.284 22.6761C125.648 22.7461 125.931 22.816 126.135 22.886C126.389 22.916 126.752 22.9561 127.224 22.9961H131.361C132.015 22.9961 132.486 22.9761 132.777 22.9361C133.103 22.9061 133.521 22.846 134.029 22.776C134.065 22.196 134.083 21.7461 134.083 21.4161V19.7261C134.083 18.4561 134.047 17.4561 133.974 16.7361C133.902 16.0061 133.793 15.1161 133.648 14.0661H130.98C129.928 13.9561 129.093 13.9161 128.476 13.9561C127.859 13.9561 127.061 13.9961 126.081 14.0661L125.373 10.6861C127.115 10.5061 128.44 10.3961 129.347 10.3661C130.291 10.2861 131.597 10.2561 133.267 10.2561C133.485 11.0161 133.684 11.6361 133.866 12.1061C134.083 12.5361 134.247 13.1961 134.356 14.0661H137.731C137.985 15.8461 138.148 17.2761 138.221 18.3661C138.33 19.4161 138.384 20.886 138.384 22.776C138.384 23.686 138.366 24.386 138.33 24.896C138.293 25.366 138.221 25.9661 138.112 26.6961H129.129C128.186 26.6961 127.478 26.7461 127.006 26.8561C126.571 26.9661 125.954 27.0961 125.155 27.2361C125.155 27.0361 125.152 26.8461 125.146 26.6661C125.146 27.0161 125.149 27.3661 125.155 27.7261C125.192 29.8361 125.373 32.5361 125.7 35.8361H121.345C121.054 32.4261 120.891 29.6861 120.855 27.6161C120.855 25.5161 120.964 23.5061 121.181 21.5761C121.399 19.6161 121.671 17.1161 121.998 14.0661H126.081ZM103.325 36.0061C103.325 36.5161 103.362 36.856 103.434 37.036C103.543 37.216 103.688 37.4561 103.87 37.7461V37.8561C103.906 37.8561 103.924 37.876 103.924 37.906C104.069 38.126 104.16 38.3061 104.196 38.4561C104.233 38.5661 104.251 38.7661 104.251 39.0561C104.251 39.3061 104.233 39.506 104.196 39.656C104.16 39.756 104.106 39.9461 104.033 40.1961H98.589C98.516 39.9761 98.462 39.796 98.426 39.656C98.39 39.506 98.371 39.2861 98.371 38.9961C98.371 38.8161 98.39 38.6761 98.426 38.5661C98.462 38.4561 98.553 38.3261 98.698 38.1861C98.734 38.1061 98.771 38.056 98.807 38.016C98.843 37.946 98.861 37.8761 98.861 37.7961C98.97 37.4761 99.025 37.2061 99.025 36.9861C99.061 36.7661 99.079 36.4361 99.079 36.0061V20.1661C99.079 18.8561 99.134 17.8361 99.242 17.1161C99.351 16.3561 99.533 15.3361 99.787 14.0661H103.216C103.289 13.2661 103.398 12.6461 103.543 12.2161C103.688 11.7461 103.833 11.1061 103.979 10.3061C105.648 10.2761 106.936 10.2561 107.844 10.2561C108.787 10.2561 110.094 10.2761 111.763 10.3061C111.945 11.0761 112.09 11.6661 112.199 12.1061C112.308 12.5361 112.435 13.1961 112.58 14.0661H115.955C116.209 15.2961 116.391 16.2761 116.5 17.0061C116.645 17.7261 116.717 18.7461 116.717 20.0561V36.9861C116.754 37.2061 116.826 37.4761 116.935 37.7961C116.971 37.9061 117.008 37.986 117.044 38.016C117.08 38.056 117.135 38.1061 117.207 38.1861C117.316 38.3661 117.389 38.5061 117.425 38.6161C117.498 38.7261 117.534 38.8761 117.534 39.0561C117.534 39.3461 117.516 39.5561 117.479 39.7061C117.479 39.8161 117.425 39.9761 117.316 40.1961H111.927C111.854 39.9761 111.8 39.796 111.763 39.656C111.727 39.506 111.709 39.3061 111.709 39.0561C111.709 38.7661 111.727 38.5661 111.763 38.4561C111.836 38.3061 111.945 38.1061 112.09 37.8561C112.163 37.5261 112.235 37.2761 112.308 37.0961C112.417 36.8761 112.453 36.5161 112.417 36.0061V19.396C112.417 18.166 112.344 17.2261 112.199 16.5661C112.09 15.9161 111.908 15.0861 111.654 14.0661H109.967C109.241 14.0261 108.678 14.0061 108.279 14.0061C107.88 14.0061 107.299 14.0261 106.537 14.0661H104.033C103.852 14.9761 103.688 15.7361 103.543 16.3561C103.398 16.9361 103.325 17.786 103.325 18.906V36.0061ZM12.412 37.906C12.412 37.326 12.467 36.6061 12.575 35.7361C13.483 35.5861 14.227 35.516 14.807 35.516C15.388 35.516 16.114 35.5861 16.985 35.7361C17.13 36.6361 17.203 37.3861 17.203 37.9661C17.203 38.5061 17.13 39.2161 16.985 40.0861C16.078 40.2361 15.334 40.3061 14.753 40.3061C14.209 40.3061 13.501 40.246 12.63 40.146C12.485 39.236 12.412 38.486 12.412 37.906Z" fill="black"/>
</svg>
