<svg width="139" height="41" viewBox="0 0 139 41" fill="none" xmlns="http://www.w3.org/2000/svg">
<path fill-rule="evenodd" clip-rule="evenodd" d="M4.355 14.2261L0.98 14.776C0.69 13.936 0.454 13.196 0.272 12.536C0.091 11.886 0 11.0161 0 9.92606C0.726 9.56606 1.361 9.27607 1.905 9.05607C2.45 8.80607 3.266 8.58604 4.355 8.40604V5.02604L6.642 4.70609C7.113 4.59609 7.476 4.51612 7.73 4.48612C7.984 4.41612 8.311 4.37614 8.71 4.37614V0.996132C9.545 0.926132 10.216 0.906083 10.725 0.946083C11.233 0.986083 11.886 1.0761 12.684 1.2161C12.757 2.0561 12.757 2.72612 12.684 3.23612C12.648 3.70612 12.557 4.35608 12.412 5.19608L8.71 5.35612V8.67606C7.839 8.74606 7.095 8.83608 6.478 8.94608C5.898 9.05608 5.19 9.12605 4.355 9.16605V10.2561C4.21 10.6161 4.065 10.9461 3.92 11.2361C3.811 11.4861 3.756 11.8561 3.756 12.3261C3.756 12.8361 3.811 13.2161 3.92 13.4661C4.065 13.6861 4.21 13.9361 4.355 14.2261ZM4.355 14.2261C5.771 14.2261 6.914 14.1761 7.785 14.0661C8.656 13.9561 9.908 13.7961 11.541 13.5761L13.065 13.4161V10.036C13.864 9.99605 14.553 9.94614 15.134 9.87614C15.715 9.76614 16.477 9.67612 17.421 9.60612V6.27604C19.199 6.17604 20.651 6.11613 21.776 6.11613C22.901 6.11613 24.352 6.29605 26.131 6.66605V10.0961L29.506 9.98612C29.578 10.8161 29.633 11.4861 29.669 11.9961C29.742 12.5061 29.796 13.1961 29.833 14.0661H26.512C26.548 14.9361 26.548 15.6661 26.512 16.2461C26.512 16.7861 26.476 17.5161 26.403 18.4161H23.082C22.973 19.3261 22.81 20.0561 22.592 20.5961C22.374 21.1461 22.139 21.866 21.885 22.776H18.509C18.437 22.956 18.364 23.1061 18.292 23.2161C18.219 23.2861 18.146 23.4061 18.074 23.5961C17.566 24.4261 17.166 25.0961 16.876 25.6061C16.622 26.0761 16.495 26.716 16.495 27.516V31.3761C15.951 31.4461 15.515 31.506 15.189 31.536C14.862 31.536 14.535 31.5261 14.209 31.4861C13.882 31.4461 13.428 31.3961 12.848 31.3261V28.3261C12.848 27.2061 12.92 26.3361 13.065 25.7161C13.211 25.0961 13.392 24.2661 13.61 23.2161L13.664 22.776H17.039C17.148 22.196 17.275 21.7561 17.421 21.4661C17.566 21.1461 17.729 20.6861 17.91 20.1061C18.019 19.7861 18.146 19.5061 18.292 19.2961C18.437 19.0761 18.582 18.7861 18.727 18.4161H22.102C22.284 17.5461 22.429 16.8561 22.538 16.3561C22.683 15.8061 22.756 15.0461 22.756 14.0661H26.131V10.6861H23.953C23.518 10.5461 23.118 10.4161 22.756 10.3061C22.429 10.1961 21.957 10.146 21.34 10.146C20.578 10.146 19.943 10.1961 19.435 10.3061C18.927 10.3861 18.255 10.486 17.421 10.636V13.9561L13.065 14.4961V17.8261C11.178 18.0061 9.69 18.1261 8.601 18.2061C7.549 18.2761 6.133 18.256 4.355 18.146V14.2261ZM39.196 36.3261L35.821 36.9261C35.458 36.1361 35.15 35.5161 34.895 35.0761C34.678 34.6061 34.569 33.9161 34.569 33.0061L34.514 30.8361V27.5661C35.059 27.4961 35.494 27.436 35.821 27.406C36.148 27.366 36.474 27.366 36.801 27.406C37.127 27.436 37.581 27.4961 38.162 27.5661L38.216 28.386C38.325 30.126 38.452 31.506 38.597 32.516C38.742 33.496 38.942 34.7661 39.196 36.3261ZM39.196 4.80607V1.05607C41.047 0.906068 42.535 0.856034 43.66 0.896034C44.785 0.896034 46.201 0.926132 47.906 0.996132V4.37614C48.814 4.41614 49.503 4.46605 49.975 4.53605C50.483 4.61605 51.118 4.70607 51.88 4.80607V9.11613C51.917 10.1961 51.935 11.6561 51.935 13.4661C51.354 13.5361 50.901 13.5961 50.574 13.6261C50.247 13.6661 49.902 13.6661 49.539 13.6261C49.213 13.5961 48.777 13.5361 48.233 13.4661C48.16 12.4161 48.088 11.6161 48.015 11.0761C47.979 10.4861 47.943 9.72605 47.906 8.78605V5.78605C46.672 5.39605 45.656 5.09605 44.858 4.91605C44.059 4.70605 43.243 4.59611 42.408 4.59611C41.61 4.59611 40.539 4.66607 39.196 4.80607ZM47.961 35.8361C48.179 33.0461 48.179 30.8361 47.961 29.1961C47.779 27.5661 47.471 25.426 47.035 22.776H43.715C43.606 22.306 43.497 21.926 43.388 21.636C43.279 21.346 43.152 20.9461 43.007 20.4361C42.934 20.0361 42.844 19.7061 42.735 19.4561C42.626 19.1961 42.517 18.8561 42.408 18.4161H39.087C38.833 17.4761 38.634 16.7461 38.488 16.2461C38.343 15.6961 38.234 14.9761 38.162 14.0661H34.841C34.732 12.8361 34.641 11.7461 34.569 10.7961C34.496 9.85606 34.533 8.89605 34.678 7.91605C34.859 6.93605 35.24 5.77606 35.821 4.42606L39.196 4.80607C38.978 6.11607 38.833 7.20609 38.761 8.07609C38.688 8.91609 38.706 9.78607 38.815 10.6861C38.924 11.5661 39.124 12.6861 39.414 14.0661H42.789C42.898 14.8961 43.061 15.6061 43.279 16.1861C43.533 16.7661 43.769 17.5161 43.987 18.4161H47.308C47.489 19.2961 47.652 19.9961 47.798 20.5461C47.979 21.0861 48.142 21.836 48.287 22.776H51.663C51.989 25.386 52.189 27.5261 52.262 29.1961C52.37 30.8361 52.28 33.0461 51.989 35.8361H47.961ZM39.196 36.3261C40.539 36.4761 41.628 36.5661 42.462 36.6061C43.297 36.6061 44.114 36.5461 44.912 36.4361C45.711 36.2961 46.727 36.0961 47.961 35.8361L48.614 39.2161C46.836 39.6561 45.33 39.956 44.096 40.146C42.862 40.326 41.228 40.3561 39.196 40.2461V36.3261ZM69.464 35.8361C69.537 35.1561 69.591 34.586 69.628 34.156C69.7 33.716 69.754 33.1561 69.791 32.4661L69.845 31.7561C70.426 31.6861 70.88 31.646 71.206 31.646C71.533 31.646 71.86 31.6661 72.186 31.7061C72.513 31.7361 72.948 31.7961 73.493 31.8661C73.456 32.7061 73.42 33.376 73.384 33.886C73.384 34.356 73.348 35.0061 73.275 35.8361H69.464ZM61.081 35.8361C62.278 35.9861 63.258 36.1161 64.02 36.2261C64.782 36.3261 65.545 36.3661 66.307 36.3261C67.105 36.2561 68.158 36.0961 69.464 35.8361L69.954 39.2161C68.648 39.6861 67.504 40.0161 66.525 40.1961C65.545 40.3761 64.565 40.3761 63.585 40.1961C62.605 40.0161 61.425 39.6861 60.046 39.2161L61.081 35.8361ZM61.462 14.0661C61.171 17.0461 60.935 19.5461 60.754 21.5761C60.609 23.5761 60.554 25.6261 60.591 27.7261C60.627 29.8361 60.79 32.5361 61.081 35.8361H56.725C56.399 32.3961 56.236 29.6361 56.236 27.5661C56.272 25.4661 56.399 23.446 56.617 21.526C56.871 19.566 57.179 17.0761 57.542 14.0661H61.462ZM61.462 14.0661L60.863 10.6861C62.605 10.5461 63.948 10.4361 64.891 10.3661C65.871 10.2861 67.196 10.2561 68.865 10.2561C69.119 11.0161 69.319 11.6361 69.464 12.1061C69.609 12.5361 69.7 13.1961 69.736 14.0661H73.112C73.221 14.9761 73.275 15.7361 73.275 16.3561C73.311 16.9361 73.329 17.7261 73.329 18.7461V19.016C72.785 19.096 72.35 19.1461 72.023 19.1861C71.696 19.2161 71.37 19.2361 71.043 19.2361C70.716 19.1961 70.263 19.1461 69.682 19.0761C69.646 18.9261 69.628 18.8061 69.628 18.6961C69.628 18.5861 69.609 18.4361 69.573 18.2561C69.501 17.2761 69.41 16.5161 69.301 15.9661C69.192 15.4261 69.047 14.7961 68.865 14.0661H66.252C65.2 13.9561 64.383 13.9161 63.803 13.9561C63.222 13.9561 62.442 13.9961 61.462 14.0661ZM90.859 35.8361L91.131 33.6661C91.204 33.0461 91.258 32.3161 91.294 31.4861C91.875 31.4161 92.329 31.3761 92.655 31.3761C92.982 31.3361 93.309 31.3561 93.635 31.4361C93.962 31.4661 94.397 31.506 94.942 31.536C94.905 32.446 94.851 33.196 94.778 33.776C94.742 34.316 94.706 35.0061 94.67 35.8361H90.859ZM82.312 35.8361C83.51 35.9861 84.489 36.1161 85.251 36.2261C86.05 36.3261 86.848 36.3661 87.647 36.3261C88.482 36.2561 89.552 36.0961 90.859 35.8361L91.294 39.2161C90.024 39.6861 88.881 40.0161 87.865 40.1961C86.885 40.3761 85.887 40.3761 84.87 40.1961C83.854 39.9761 82.675 39.6561 81.332 39.2161L82.312 35.8361ZM82.693 14.0661C82.366 17.0461 82.112 19.5461 81.931 21.5761C81.899 21.9261 81.87 22.286 81.845 22.636C82.207 22.736 82.489 22.816 82.693 22.886C82.947 22.916 83.31 22.9561 83.782 22.9961H87.974C88.59 22.9961 89.044 22.9761 89.334 22.9361C89.661 22.9061 90.078 22.846 90.587 22.776C90.623 22.236 90.641 21.7961 90.641 21.4661C90.677 21.1061 90.695 20.6361 90.695 20.0561V19.7261C90.695 18.4561 90.659 17.4561 90.587 16.7361C90.514 16.0061 90.387 15.1161 90.206 14.0661H87.592C86.504 13.9561 85.651 13.9161 85.034 13.9561C84.453 13.9561 83.673 13.9961 82.693 14.0661L81.931 10.6861C83.673 10.5061 84.998 10.3961 85.905 10.3661C86.848 10.3261 88.155 10.3061 89.824 10.3061C90.042 11.0361 90.242 11.6361 90.423 12.1061C90.641 12.5761 90.822 13.2261 90.968 14.0661H94.288C94.542 15.8461 94.724 17.2761 94.833 18.3661C94.942 19.4161 94.978 20.886 94.942 22.776C94.942 23.686 94.924 24.386 94.887 24.896C94.851 25.366 94.778 25.9661 94.67 26.6961H85.687C84.743 26.6961 84.036 26.7461 83.564 26.8561C83.128 26.9361 82.511 27.0561 81.713 27.2361V25.646C81.701 26.326 81.701 27.0261 81.713 27.7261C81.786 29.8361 81.985 32.5361 82.312 35.8361H77.957C77.63 32.4261 77.449 29.6861 77.412 27.6161C77.412 25.5161 77.521 23.486 77.739 21.526C77.993 19.566 78.283 17.0761 78.61 14.0661H82.693ZM134.247 35.8361C134.319 34.9661 134.392 34.2461 134.464 33.6661C134.573 33.0461 134.646 32.3161 134.682 31.4861C135.263 31.4161 135.716 31.3761 136.043 31.3761C136.37 31.3361 136.678 31.3561 136.969 31.4361C137.295 31.4661 137.749 31.506 138.33 31.536C138.293 32.446 138.239 33.196 138.166 33.776C138.13 34.316 138.094 35.0061 138.057 35.8361H134.247ZM125.7 35.8361C126.897 35.9861 127.877 36.1161 128.639 36.2261C129.438 36.3261 130.236 36.3661 131.035 36.3261C131.869 36.2561 132.94 36.0961 134.247 35.8361L134.682 39.2161C133.376 39.6861 132.232 40.0161 131.252 40.1961C130.273 40.3761 129.275 40.3761 128.258 40.1961C127.242 39.9761 126.063 39.6561 124.72 39.2161L125.7 35.8361ZM126.026 14.0661C125.736 17.0461 125.5 19.5461 125.319 21.5761C125.287 21.9261 125.258 22.286 125.233 22.636C125.595 22.736 125.877 22.816 126.081 22.886C126.335 22.916 126.698 22.9561 127.17 22.9961H131.307C131.96 22.9961 132.432 22.9761 132.722 22.9361C133.049 22.9061 133.466 22.846 133.974 22.776C134.011 22.236 134.029 21.7961 134.029 21.4661V19.7261C134.029 18.4561 133.993 17.4561 133.92 16.7361C133.847 16.0061 133.739 15.1161 133.593 14.0661H130.926C129.873 13.9561 129.039 13.9161 128.422 13.9561C127.841 13.9561 127.043 13.9961 126.026 14.0661L125.319 10.6861C127.061 10.5061 128.385 10.3961 129.293 10.3661C130.236 10.3261 131.543 10.3061 133.212 10.3061C133.43 11.0361 133.63 11.6361 133.811 12.1061C134.029 12.5761 134.21 13.2261 134.356 14.0661H137.676C137.93 15.8461 138.094 17.2761 138.166 18.3661C138.275 19.4161 138.33 20.886 138.33 22.776C138.33 23.686 138.311 24.386 138.275 24.896C138.239 25.366 138.166 25.9661 138.057 26.6961H129.075C128.095 26.6961 127.387 26.7461 126.952 26.8561C126.516 26.9361 125.899 27.0561 125.101 27.2361C125.101 27.0361 125.098 26.8461 125.092 26.6661C125.092 27.0161 125.095 27.3661 125.101 27.7261C125.137 29.8361 125.337 32.5361 125.7 35.8361H121.345C121.018 32.4261 120.836 29.6861 120.8 27.6161C120.8 25.5161 120.909 23.486 121.127 21.526C121.345 19.566 121.635 17.0761 121.998 14.0661H126.026ZM103.271 36.0061C103.271 36.5161 103.307 36.856 103.38 37.036C103.489 37.216 103.634 37.4561 103.815 37.7461C103.852 37.7861 103.87 37.8161 103.87 37.8561C103.87 37.8561 103.888 37.876 103.924 37.906C104.033 38.126 104.106 38.3061 104.142 38.4561C104.214 38.5661 104.251 38.7661 104.251 39.0561C104.251 39.3061 104.233 39.506 104.196 39.656C104.16 39.796 104.106 39.9761 104.033 40.1961H98.535C98.426 39.9761 98.353 39.796 98.317 39.656C98.281 39.506 98.262 39.2861 98.262 38.9961C98.262 38.8161 98.281 38.6761 98.317 38.5661C98.39 38.4561 98.48 38.3261 98.589 38.1861C98.625 38.1061 98.662 38.056 98.698 38.016C98.734 37.946 98.771 37.8761 98.807 37.7961C98.916 37.4761 98.97 37.2061 98.97 36.9861C99.006 36.7661 99.025 36.4361 99.025 36.0061V20.1661C99.025 18.8561 99.079 17.8361 99.188 17.1161C99.333 16.3561 99.533 15.3361 99.787 14.0661H103.108C103.216 13.2661 103.343 12.6461 103.489 12.2161C103.634 11.7461 103.797 11.1061 103.979 10.3061C105.612 10.2761 106.882 10.2561 107.789 10.2561C108.733 10.2561 110.039 10.2861 111.709 10.3661C111.854 11.1261 111.981 11.726 112.09 12.156C112.235 12.556 112.38 13.1961 112.525 14.0661H115.901C116.155 15.2661 116.336 16.2461 116.445 17.0061C116.59 17.7261 116.663 18.7461 116.663 20.0561V36.0061C116.663 36.4361 116.681 36.7661 116.717 36.9861C116.754 37.2061 116.826 37.4761 116.935 37.7961C116.971 37.9061 117.008 37.986 117.044 38.016C117.08 38.056 117.116 38.1061 117.153 38.1861C117.298 38.3661 117.389 38.5061 117.425 38.6161C117.498 38.7261 117.534 38.8761 117.534 39.0561C117.534 39.3461 117.516 39.5561 117.479 39.7061L117.316 40.1961H111.872C111.8 39.9761 111.745 39.796 111.709 39.656C111.673 39.506 111.654 39.3061 111.654 39.0561C111.654 38.7661 111.673 38.5661 111.709 38.4561C111.781 38.3061 111.89 38.126 112.036 37.906C112.144 37.586 112.235 37.326 112.308 37.146C112.38 36.926 112.417 36.5461 112.417 36.0061V19.396C112.417 18.166 112.326 17.2261 112.144 16.5661C111.999 15.9161 111.818 15.0861 111.6 14.0661H109.912C109.187 14.0261 108.624 14.0061 108.225 14.0061C107.826 14.0061 107.245 14.0261 106.483 14.0661H104.033C103.815 14.9761 103.634 15.7361 103.489 16.3561C103.343 16.9361 103.271 17.786 103.271 18.906V36.0061ZM12.358 37.906C12.358 37.326 12.43 36.6061 12.575 35.7361C13.483 35.5861 14.227 35.516 14.807 35.516C15.388 35.516 16.096 35.5861 16.931 35.7361C17.076 36.6061 17.148 37.326 17.148 37.906C17.185 38.486 17.13 39.2161 16.985 40.0861C16.078 40.2361 15.334 40.3061 14.753 40.3061C14.172 40.3061 13.446 40.246 12.575 40.146C12.43 39.236 12.358 38.486 12.358 37.906Z" fill="black"/>
</svg>
