<svg width="139" height="41" viewBox="0 0 139 41" fill="none" xmlns="http://www.w3.org/2000/svg">
<path fill-rule="evenodd" clip-rule="evenodd" d="M4.355 14.2261L1.034 14.8261C0.708 13.9961 0.454 13.2461 0.272 12.5961C0.091 11.9061 0 11.0361 0 9.98612C0.726 9.58612 1.361 9.25614 1.905 9.00614C2.45 8.74614 3.266 8.52611 4.355 8.34611V5.02604L6.642 4.64603C7.113 4.57603 7.476 4.50606 7.73 4.42606C7.984 4.35606 8.311 4.31608 8.71 4.31608V0.996132C9.545 0.926132 10.216 0.906083 10.725 0.946083C11.233 0.986083 11.886 1.0761 12.684 1.2161C12.757 2.0561 12.757 2.72612 12.684 3.23612C12.648 3.70612 12.539 4.33602 12.358 5.13602L8.71 5.35612V8.67606C7.839 8.71606 7.095 8.78603 6.478 8.89603C5.898 9.00603 5.19 9.09605 4.355 9.16605V10.1961C4.21 10.5961 4.065 10.9461 3.92 11.2361C3.811 11.4861 3.756 11.8561 3.756 12.3261C3.756 12.8361 3.811 13.2161 3.92 13.4661C4.065 13.6861 4.21 13.9361 4.355 14.2261ZM4.355 14.2261C5.771 14.2261 6.914 14.1761 7.785 14.0661C8.656 13.9561 9.908 13.7961 11.541 13.5761L13.065 13.3561V10.036C13.864 9.99605 14.553 9.94614 15.134 9.87614C15.715 9.76614 16.477 9.67612 17.421 9.60612V6.3361C19.199 6.1861 20.651 6.13606 21.776 6.17606C22.901 6.17606 24.352 6.3561 26.131 6.7161V10.0961L29.452 10.036C29.524 10.836 29.597 11.4861 29.669 11.9961C29.742 12.5061 29.796 13.1961 29.833 14.0661H26.512C26.548 14.9361 26.566 15.6661 26.566 16.2461C26.566 16.7861 26.53 17.5161 26.457 18.4161H23.137C23.028 19.3261 22.864 20.0561 22.647 20.5961C22.429 21.1461 22.175 21.866 21.885 22.776H18.564C18.491 22.956 18.4 23.1061 18.292 23.2161C18.219 23.2861 18.146 23.4061 18.074 23.5961C17.566 24.4661 17.166 25.1361 16.876 25.6061C16.622 26.0761 16.495 26.716 16.495 27.516V31.3761C15.914 31.4461 15.461 31.506 15.134 31.536C14.807 31.536 14.481 31.5261 14.154 31.4861C13.828 31.4461 13.392 31.3961 12.848 31.3261V28.3261C12.848 27.2061 12.92 26.3361 13.065 25.7161C13.211 25.0961 13.392 24.2661 13.61 23.2161L13.719 22.776H17.039C17.148 22.196 17.275 21.7561 17.421 21.4661C17.602 21.1461 17.783 20.6861 17.965 20.1061C18.074 19.7861 18.201 19.5061 18.346 19.2961C18.491 19.0761 18.636 18.7861 18.782 18.4161H22.102C22.32 17.5461 22.483 16.8561 22.592 16.3561C22.737 15.8061 22.81 15.0461 22.81 14.0661H26.131V10.7461H24.008C23.536 10.5961 23.118 10.4761 22.756 10.3661C22.429 10.2561 21.957 10.1961 21.34 10.1961C20.614 10.1961 19.979 10.2561 19.435 10.3661C18.927 10.4361 18.255 10.5461 17.421 10.6861V13.9561L13.065 14.4961V17.8261C11.178 18.0061 9.69 18.1261 8.601 18.2061C7.549 18.2761 6.133 18.256 4.355 18.146V14.2261ZM39.196 36.386L35.875 36.9861C35.476 36.1861 35.15 35.566 34.895 35.136C34.641 34.666 34.514 33.9861 34.514 33.1161V30.886L34.46 27.6161C35.004 27.5161 35.44 27.436 35.766 27.406C36.093 27.366 36.42 27.366 36.746 27.406C37.109 27.436 37.581 27.4961 38.162 27.5661V28.386C38.307 30.166 38.452 31.5561 38.597 32.5761C38.742 33.5561 38.942 34.826 39.196 36.386ZM39.196 4.80607V1.05607C41.047 0.906068 42.535 0.856034 43.66 0.896034C44.785 0.896034 46.201 0.926132 47.906 0.996132V4.31608C48.814 4.39608 49.503 4.46605 49.975 4.53605C50.483 4.61605 51.1 4.70607 51.826 4.80607C51.862 6.55607 51.88 7.98613 51.88 9.11613V13.4161C51.336 13.5161 50.901 13.5961 50.574 13.6261C50.247 13.6661 49.902 13.6661 49.539 13.6261C49.213 13.5961 48.777 13.5361 48.233 13.4661C48.16 12.4161 48.088 11.596 48.015 11.016C47.979 10.436 47.943 9.67611 47.906 8.72611V5.78605C46.672 5.35605 45.656 5.04613 44.858 4.86613C44.059 4.64613 43.243 4.53605 42.408 4.53605C41.61 4.53605 40.539 4.62607 39.196 4.80607ZM47.961 35.8361C48.179 33.0461 48.179 30.8361 47.961 29.1961C47.779 27.5661 47.471 25.426 47.035 22.776H43.715C43.606 22.306 43.497 21.926 43.388 21.636C43.279 21.346 43.152 20.9461 43.007 20.4361C42.898 20.0361 42.789 19.7061 42.68 19.4561C42.571 19.1961 42.462 18.8561 42.354 18.4161H39.087C38.833 17.4761 38.634 16.7461 38.488 16.2461C38.343 15.6961 38.234 14.9761 38.162 14.0661H34.841C34.732 12.8361 34.641 11.7461 34.569 10.7961C34.496 9.81606 34.533 8.83612 34.678 7.85612C34.859 6.87612 35.258 5.71614 35.875 4.37614L39.196 4.80607C38.942 6.07607 38.779 7.15604 38.706 8.02604C38.634 8.89604 38.652 9.78607 38.761 10.6861C38.906 11.5661 39.124 12.6861 39.414 14.0661H42.735C42.88 14.8961 43.061 15.6061 43.279 16.1861C43.533 16.7661 43.769 17.5161 43.987 18.4161H47.308C47.489 19.2961 47.652 19.9961 47.798 20.5461C47.979 21.0861 48.16 21.836 48.342 22.776H51.608C51.971 25.356 52.189 27.476 52.262 29.146C52.37 30.816 52.262 33.0461 51.935 35.8361H47.961ZM39.196 36.386C40.503 36.526 41.573 36.626 42.408 36.656C43.279 36.656 44.114 36.5861 44.912 36.4361C45.711 36.2961 46.727 36.0961 47.961 35.8361L48.669 39.1661C46.89 39.6361 45.366 39.956 44.096 40.146C42.862 40.326 41.228 40.3561 39.196 40.2461V36.386ZM69.464 35.8361C69.537 35.1561 69.591 34.586 69.628 34.156C69.7 33.716 69.754 33.176 69.791 32.516L69.845 31.7561C70.426 31.6861 70.88 31.646 71.206 31.646C71.533 31.646 71.841 31.6861 72.132 31.7561C72.458 31.7961 72.894 31.8261 73.438 31.8661C73.438 32.7061 73.42 33.376 73.384 33.886C73.348 34.356 73.311 35.0061 73.275 35.8361H69.464ZM61.081 35.8361C62.278 36.0261 63.258 36.166 64.02 36.276C64.782 36.346 65.545 36.3661 66.307 36.3261C67.105 36.2561 68.158 36.0961 69.464 35.8361L69.954 39.1661C68.648 39.6661 67.504 40.0161 66.525 40.1961C65.545 40.3761 64.546 40.3761 63.53 40.1961C62.55 40.0161 61.371 39.6661 59.992 39.1661L61.081 35.8361ZM61.462 14.0661C61.171 17.0061 60.935 19.496 60.754 21.526C60.609 23.516 60.554 25.5861 60.591 27.7261C60.627 29.8361 60.79 32.5361 61.081 35.8361H56.725C56.399 32.3961 56.236 29.6361 56.236 27.5661C56.236 25.4661 56.362 23.446 56.617 21.526C56.871 19.566 57.197 17.0761 57.597 14.0661H61.462ZM61.462 14.0661L60.863 10.7461C62.605 10.5661 63.948 10.4561 64.891 10.4161C65.871 10.3461 67.178 10.3061 68.811 10.3061C69.101 11.0361 69.319 11.6361 69.464 12.1061C69.609 12.5361 69.7 13.1961 69.736 14.0661H73.057C73.166 14.9761 73.239 15.7361 73.275 16.3561C73.311 16.9661 73.329 17.7661 73.329 18.7461V19.0761C72.785 19.1061 72.35 19.1661 72.023 19.2361C71.696 19.2761 71.37 19.2761 71.043 19.2361C70.716 19.1961 70.263 19.1461 69.682 19.0761C69.646 18.9661 69.628 18.8561 69.628 18.7461C69.628 18.6061 69.609 18.4561 69.573 18.3161C69.464 17.2961 69.355 16.5161 69.246 15.9661C69.138 15.4261 69.01 14.7961 68.865 14.0661H66.252C65.2 13.9561 64.383 13.9161 63.803 13.9561C63.222 13.9561 62.442 13.9961 61.462 14.0661ZM90.859 35.8361C90.931 34.9661 91.004 34.2461 91.077 33.6661C91.185 33.0461 91.258 32.3161 91.294 31.4861C91.875 31.4161 92.329 31.3761 92.655 31.3761C92.982 31.3361 93.29 31.3561 93.581 31.4361C93.907 31.4661 94.343 31.506 94.887 31.536C94.851 32.446 94.815 33.196 94.778 33.776C94.742 34.316 94.688 35.0061 94.615 35.8361H90.859ZM82.312 35.8361C83.51 36.0261 84.489 36.166 85.251 36.276C86.05 36.346 86.848 36.3661 87.647 36.3261C88.482 36.2561 89.552 36.0961 90.859 35.8361L91.294 39.1661C90.024 39.6661 88.881 40.0161 87.865 40.1961C86.848 40.3761 85.832 40.3761 84.816 40.1961C83.8 39.9761 82.62 39.6361 81.278 39.1661L82.312 35.8361ZM82.693 14.0661C82.366 17.0061 82.094 19.496 81.876 21.526C81.843 21.886 81.814 22.2561 81.788 22.6261C82.141 22.7261 82.425 22.816 82.638 22.886C82.893 22.956 83.255 22.9961 83.727 22.9961H87.919C88.572 22.9961 89.044 22.9761 89.334 22.9361C89.661 22.9061 90.06 22.846 90.532 22.776C90.605 22.236 90.641 21.7961 90.641 21.4661V19.7261C90.641 18.4561 90.605 17.4561 90.532 16.7361C90.46 15.9661 90.333 15.0861 90.151 14.0661H87.538C86.486 13.9561 85.651 13.9161 85.034 13.9561C84.453 13.9561 83.673 13.9961 82.693 14.0661L81.931 10.7461C83.637 10.5661 84.943 10.4561 85.85 10.4161C86.794 10.3461 88.101 10.3061 89.77 10.3061C89.988 11.0761 90.206 11.686 90.423 12.156C90.641 12.596 90.804 13.2261 90.913 14.0661H94.234C94.488 15.8061 94.67 17.2261 94.778 18.3161C94.887 19.3961 94.924 20.886 94.887 22.776C94.887 23.686 94.869 24.386 94.833 24.896C94.796 25.366 94.724 25.956 94.615 26.636C93.526 26.676 92.601 26.6961 91.839 26.6961C91.113 26.6561 90.078 26.636 88.736 26.636H85.578C84.635 26.636 83.945 26.6961 83.51 26.8061C83.074 26.9161 82.475 27.0561 81.713 27.2361C81.677 26.7361 81.659 26.3161 81.659 25.9861L81.658 25.6161C81.646 26.3061 81.646 27.0161 81.659 27.7261C81.731 29.8661 81.949 32.5761 82.312 35.8361H77.957C77.594 32.4261 77.412 29.6761 77.412 27.5661C77.412 25.4661 77.521 23.446 77.739 21.526C77.957 19.566 78.247 17.0761 78.61 14.0661H82.693ZM125.645 35.8361C126.843 36.0261 127.841 36.166 128.639 36.276C129.438 36.346 130.236 36.3661 131.035 36.3261C131.869 36.2561 132.94 36.0961 134.247 35.8361L134.682 39.1661C133.376 39.6661 132.214 40.0161 131.198 40.1961C130.218 40.3761 129.202 40.3761 128.149 40.1961C127.133 39.9761 125.954 39.6361 124.611 39.1661L125.645 35.8361ZM126.026 14.0661C125.736 17.0061 125.482 19.496 125.264 21.526C125.231 21.896 125.201 22.266 125.175 22.636C125.538 22.736 125.823 22.816 126.026 22.886C126.28 22.956 126.643 22.9961 127.115 22.9961H131.307C131.924 22.9961 132.378 22.9761 132.668 22.9361C132.995 22.9061 133.412 22.846 133.92 22.776C133.956 22.236 133.974 21.7961 133.974 21.4661C134.011 21.1061 134.029 20.6361 134.029 20.0561V19.7261C134.029 18.4561 133.974 17.4561 133.866 16.7361C133.793 15.9661 133.684 15.0861 133.539 14.0661H130.926C129.873 13.9561 129.039 13.9161 128.422 13.9561C127.805 13.9561 127.006 13.9961 126.026 14.0661L125.264 10.7461C127.006 10.5661 128.331 10.4561 129.238 10.4161C130.182 10.3461 131.47 10.3061 133.103 10.3061C133.321 11.0761 133.539 11.686 133.757 12.156C133.974 12.596 134.156 13.2261 134.301 14.0661H137.622C137.876 15.8061 138.057 17.2261 138.166 18.3161C138.275 19.3961 138.311 20.886 138.275 22.776C138.275 23.686 138.257 24.386 138.221 24.896C138.184 25.366 138.112 25.956 138.003 26.636C136.914 26.676 135.989 26.6961 135.227 26.6961C134.464 26.6561 133.43 26.636 132.124 26.636H128.966C128.022 26.636 127.315 26.6961 126.843 26.8061C126.407 26.9161 125.809 27.0561 125.046 27.2361C125.046 27.0361 125.043 26.8461 125.037 26.6661C125.037 27.0161 125.04 27.3661 125.046 27.7261C125.119 29.8661 125.319 32.5761 125.645 35.8361H121.29C120.964 32.4261 120.782 29.6761 120.746 27.5661C120.746 25.4661 120.855 23.446 121.072 21.526C121.326 19.566 121.635 17.0761 121.998 14.0661H126.026ZM134.247 35.8361C134.319 34.9661 134.392 34.2461 134.464 33.6661C134.573 33.0461 134.646 32.3161 134.682 31.4861C135.227 31.4161 135.662 31.3761 135.989 31.3761C136.315 31.3361 136.642 31.3561 136.969 31.4361C137.295 31.4661 137.731 31.506 138.275 31.536C138.239 32.446 138.184 33.196 138.112 33.776C138.076 34.316 138.039 35.0061 138.003 35.8361H134.247ZM103.216 36.0561C103.216 36.5261 103.271 36.8761 103.38 37.0961C103.489 37.2761 103.634 37.4961 103.815 37.7461V37.8561C103.852 37.8561 103.87 37.876 103.87 37.906C104.015 38.166 104.106 38.3461 104.142 38.4561C104.214 38.5661 104.251 38.7661 104.251 39.0561C104.251 39.3061 104.233 39.506 104.196 39.656C104.16 39.796 104.087 39.9761 103.979 40.1961H98.426L98.262 39.7061C98.226 39.5561 98.208 39.3461 98.208 39.0561C98.208 38.8761 98.226 38.7261 98.262 38.6161C98.335 38.5061 98.426 38.3661 98.535 38.1861C98.571 38.1061 98.607 38.056 98.644 38.016C98.68 37.946 98.716 37.8961 98.752 37.8561C98.861 37.4961 98.934 37.216 98.97 37.036C99.006 36.816 99.025 36.4961 99.025 36.0561L98.97 20.2161C98.97 18.9061 99.025 17.8761 99.134 17.1161C99.279 16.3561 99.496 15.3361 99.787 14.0661H103.053C103.162 13.2661 103.289 12.6461 103.434 12.2161C103.616 11.7461 103.779 11.1261 103.924 10.3661C105.557 10.3261 106.828 10.3061 107.735 10.3061C108.678 10.3061 109.985 10.3261 111.654 10.3661C111.8 11.1261 111.927 11.726 112.036 12.156C112.181 12.556 112.344 13.1961 112.525 14.0661H115.846C116.1 15.2661 116.282 16.2461 116.391 17.0061C116.536 17.7261 116.608 18.7461 116.608 20.0561V36.0561C116.608 36.4561 116.627 36.7661 116.663 36.9861C116.699 37.2061 116.772 37.4961 116.881 37.8561C116.917 37.9261 116.953 37.986 116.989 38.016C117.062 38.056 117.116 38.1261 117.153 38.2361C117.262 38.3861 117.352 38.5061 117.425 38.6161C117.498 38.7261 117.534 38.8761 117.534 39.0561C117.534 39.3461 117.516 39.5561 117.479 39.7061C117.443 39.8161 117.371 39.9761 117.262 40.1961H111.818C111.745 39.9761 111.673 39.796 111.6 39.656C111.564 39.506 111.546 39.3061 111.546 39.0561C111.546 38.7661 111.582 38.5661 111.654 38.4561C111.727 38.3061 111.836 38.126 111.981 37.906C112.09 37.586 112.181 37.326 112.253 37.146C112.326 36.926 112.362 36.5661 112.362 36.0561V19.396C112.362 18.126 112.271 17.1861 112.09 16.5661C111.945 15.9161 111.763 15.0861 111.546 14.0661H109.858C109.168 14.0261 108.606 14.0061 108.17 14.0061C107.771 14.0061 107.19 14.0261 106.428 14.0661H104.033C103.815 14.9361 103.616 15.6761 103.434 16.2961C103.289 16.9161 103.216 17.786 103.216 18.906V36.0561ZM12.358 37.906C12.358 37.326 12.43 36.6061 12.575 35.7361C13.446 35.5861 14.172 35.516 14.753 35.516C15.334 35.516 16.06 35.5861 16.931 35.7361C17.076 36.6061 17.148 37.326 17.148 37.906C17.148 38.486 17.076 39.2161 16.931 40.0861C16.06 40.2361 15.334 40.3061 14.753 40.3061C14.172 40.3061 13.446 40.246 12.575 40.146C12.43 39.236 12.358 38.486 12.358 37.906Z" fill="black"/>
</svg>
