<svg width="139" height="41" viewBox="0 0 139 41" fill="none" xmlns="http://www.w3.org/2000/svg">
<path fill-rule="evenodd" clip-rule="evenodd" d="M4.355 14.2261L1.089 14.886C0.762 14.046 0.49 13.306 0.272 12.646C0.091 11.956 0 11.0761 0 9.98612C0.69 9.58612 1.307 9.25614 1.851 9.00614C2.432 8.71614 3.266 8.45612 4.355 8.23612V4.97611L6.642 4.59611C7.113 4.51611 7.476 4.46606 7.73 4.42606C7.984 4.35606 8.311 4.30603 8.71 4.26603V0.996132C9.545 0.926132 10.216 0.926132 10.725 0.996132C11.233 1.03613 11.886 1.1061 12.684 1.2161C12.721 2.0561 12.702 2.72612 12.63 3.23612C12.594 3.70612 12.503 4.33602 12.358 5.13602L8.71 5.35612V8.62614C7.839 8.69614 7.095 8.78603 6.478 8.89603C5.898 9.00603 5.19 9.07613 4.355 9.11613V10.146C4.174 10.546 4.01 10.8861 3.865 11.1761C3.756 11.4361 3.702 11.8161 3.702 12.3261C3.702 12.7961 3.756 13.1561 3.865 13.4161C4.01 13.6661 4.174 13.9361 4.355 14.2261ZM4.355 14.2261C5.734 14.2661 6.859 14.2261 7.73 14.1161C8.638 13.9761 9.908 13.776 11.541 13.516L13.065 13.3561V10.0961C13.864 10.0561 14.553 9.99606 15.134 9.92606C15.715 9.81606 16.477 9.70612 17.421 9.60612V6.3361C19.199 6.2261 20.651 6.18611 21.776 6.22611C22.901 6.22611 24.352 6.40603 26.131 6.76603V10.0961L29.397 10.036C29.47 10.836 29.542 11.4861 29.615 11.9961C29.687 12.5061 29.742 13.1961 29.778 14.0661H26.512C26.584 14.9361 26.603 15.6661 26.566 16.2461C26.566 16.7861 26.53 17.5161 26.457 18.4161H23.191C23.082 19.3261 22.901 20.076 22.647 20.656C22.429 21.196 22.175 21.906 21.885 22.776H18.618C18.546 22.956 18.455 23.1061 18.346 23.2161C18.273 23.2861 18.201 23.4061 18.128 23.5961C17.548 24.4661 17.112 25.1361 16.822 25.6061C16.568 26.0761 16.441 26.7361 16.441 27.5661V31.3261C15.896 31.3961 15.461 31.4461 15.134 31.4861C14.807 31.5261 14.481 31.5261 14.154 31.4861C13.828 31.4461 13.392 31.3961 12.848 31.3261V28.3261C12.848 27.2061 12.92 26.3361 13.065 25.7161C13.211 25.0661 13.41 24.206 13.664 23.156L13.719 22.776H16.985C17.094 22.236 17.239 21.7961 17.421 21.4661C17.602 21.1461 17.783 20.7061 17.965 20.1661C18.11 19.7961 18.255 19.5061 18.4 19.2961C18.546 19.0761 18.691 18.7861 18.836 18.4161H22.102C22.32 17.5461 22.483 16.8561 22.592 16.3561C22.737 15.8061 22.81 15.0461 22.81 14.0661H26.131V10.7961H24.008C23.572 10.6161 23.173 10.4761 22.81 10.3661C22.483 10.2561 22.012 10.1961 21.395 10.1961C20.632 10.1961 19.979 10.2561 19.435 10.3661C18.927 10.4361 18.255 10.5461 17.421 10.6861V13.9561L13.065 14.4961V17.766C11.178 17.986 9.69 18.1261 8.601 18.2061C7.549 18.2761 6.133 18.2361 4.355 18.0961V14.2261ZM39.196 36.386L35.93 37.036C35.531 36.236 35.186 35.6261 34.895 35.1861C34.641 34.7161 34.514 34.0461 34.514 33.1761V30.9461L34.46 27.6161C35.004 27.5461 35.44 27.4961 35.766 27.4561C36.093 27.4161 36.42 27.4161 36.746 27.4561C37.073 27.4561 37.527 27.4961 38.107 27.5661L38.162 28.4361C38.271 30.1761 38.398 31.5561 38.543 32.5761C38.688 33.5861 38.906 34.856 39.196 36.386ZM39.196 4.75614V1.05607C41.047 0.906068 42.535 0.856034 43.66 0.896034C44.785 0.896034 46.201 0.926132 47.906 0.996132V4.26603C48.814 4.33603 49.503 4.41612 49.975 4.48612C50.447 4.55612 51.064 4.64614 51.826 4.75614V9.05607C51.862 10.1861 51.88 11.6361 51.88 13.4161C51.336 13.4861 50.901 13.5361 50.574 13.5761C50.247 13.6161 49.921 13.6261 49.594 13.6261C49.267 13.5961 48.814 13.5161 48.233 13.4161C48.16 12.3561 48.088 11.566 48.015 11.016C47.979 10.436 47.943 9.67611 47.906 8.72611V5.84611C46.672 5.37611 45.656 5.04613 44.858 4.86613C44.059 4.64613 43.243 4.53605 42.408 4.53605C41.573 4.53605 40.503 4.61614 39.196 4.75614ZM47.961 35.8361C48.215 33.0861 48.215 30.8661 47.961 29.1961C47.743 27.5261 47.416 25.386 46.981 22.776H43.715C43.606 22.306 43.479 21.926 43.334 21.636C43.225 21.346 43.098 20.9461 42.952 20.4361C42.88 20.0361 42.771 19.7061 42.626 19.4561C42.517 19.1961 42.408 18.8561 42.299 18.4161H39.033C38.779 17.5161 38.579 16.7861 38.434 16.2461C38.289 15.6661 38.18 14.9361 38.107 14.0661H34.841C34.696 12.8361 34.587 11.7461 34.514 10.7961C34.442 9.81606 34.496 8.83612 34.678 7.85612C34.895 6.84612 35.313 5.66608 35.93 4.31608L39.196 4.75614C38.942 6.02614 38.779 7.0961 38.706 7.9661C38.634 8.8361 38.652 9.72602 38.761 10.636C38.87 11.546 39.105 12.6861 39.468 14.0661H42.68C42.825 14.8961 43.025 15.6061 43.279 16.1861C43.533 16.7661 43.769 17.5161 43.987 18.4161H47.253C47.435 19.2961 47.616 19.9961 47.798 20.5461C47.979 21.0861 48.16 21.836 48.342 22.776H51.608C51.971 25.356 52.189 27.4961 52.262 29.1961C52.37 30.8661 52.262 33.0861 51.935 35.8361H47.961ZM39.196 36.386C40.503 36.566 41.573 36.6761 42.408 36.7161C43.279 36.7161 44.114 36.6361 44.912 36.4961C45.747 36.3461 46.763 36.1361 47.961 35.8361L48.669 39.1061C46.926 39.5761 45.42 39.926 44.15 40.146C42.916 40.326 41.265 40.3761 39.196 40.3061V36.386ZM61.516 14.0661L60.863 10.7961C62.569 10.6161 63.893 10.4861 64.837 10.4161C65.817 10.3461 67.123 10.3061 68.757 10.3061C69.047 11.0761 69.265 11.686 69.41 12.156C69.555 12.596 69.682 13.2261 69.791 14.0661H73.003C73.148 14.9361 73.221 15.6961 73.221 16.3561C73.257 16.9661 73.275 17.7861 73.275 18.8061V19.0761C72.731 19.1461 72.295 19.1961 71.968 19.2361C71.678 19.2761 71.37 19.2961 71.043 19.2961C70.716 19.2561 70.263 19.1961 69.682 19.1261C69.646 18.9861 69.609 18.8561 69.573 18.7461V18.3161C69.464 17.3361 69.355 16.566 69.246 16.026C69.138 15.446 68.992 14.7961 68.811 14.0661H66.252C65.2 13.9561 64.383 13.9161 63.803 13.9561C63.222 13.9561 62.46 13.9961 61.516 14.0661ZM61.081 35.8361C62.278 36.0261 63.24 36.166 63.966 36.276C64.728 36.386 65.508 36.426 66.307 36.386C67.105 36.316 68.158 36.1361 69.464 35.8361L69.954 39.1061C68.648 39.6161 67.504 39.9761 66.525 40.1961C65.545 40.4161 64.546 40.4161 63.53 40.1961C62.514 40.0161 61.335 39.6561 59.992 39.1061L61.081 35.8361ZM61.516 14.0661C61.226 17.0061 60.972 19.496 60.754 21.526C60.573 23.516 60.5 25.5861 60.536 27.7261C60.609 29.8661 60.79 32.5761 61.081 35.8361H56.725C56.362 32.4261 56.181 29.6761 56.181 27.5661C56.217 25.4261 56.362 23.3961 56.617 21.4661C56.907 19.5061 57.234 17.0461 57.597 14.0661H61.516ZM69.464 35.8361C69.537 35.1561 69.591 34.586 69.628 34.156C69.7 33.716 69.754 33.176 69.791 32.516L69.845 31.7561C70.426 31.6861 70.88 31.646 71.206 31.646C71.533 31.646 71.841 31.6861 72.132 31.7561C72.458 31.7961 72.894 31.8461 73.438 31.9261C73.402 32.7561 73.366 33.406 73.329 33.886C73.293 34.356 73.257 35.0061 73.221 35.8361H69.464ZM90.804 35.8361C90.913 35.0061 91.004 34.2761 91.077 33.6661C91.185 33.0461 91.258 32.3161 91.294 31.4861C91.839 31.4161 92.274 31.3761 92.601 31.3761C92.927 31.3361 93.254 31.3361 93.581 31.3761C93.907 31.4161 94.325 31.4861 94.833 31.5961C94.833 32.4661 94.796 33.196 94.724 33.776C94.688 34.316 94.633 35.0061 94.561 35.8361H90.804ZM82.257 35.8361C83.455 36.0261 84.435 36.166 85.197 36.276C85.996 36.386 86.812 36.426 87.647 36.386C88.482 36.316 89.534 36.1361 90.804 35.8361L91.294 39.1061C90.024 39.6561 88.881 40.0161 87.865 40.1961C86.848 40.3761 85.814 40.3761 84.762 40.1961C83.709 39.9761 82.511 39.6161 81.169 39.1061L82.257 35.8361ZM82.638 14.0661C82.312 16.9661 82.04 19.4361 81.822 21.4661C81.788 21.8461 81.757 22.2361 81.731 22.6161C82.086 22.7261 82.37 22.816 82.584 22.886C82.838 22.956 83.201 22.9961 83.673 22.9961C84.471 22.9961 85.161 23.0161 85.742 23.0461H87.865C88.518 23.0461 88.99 23.0261 89.28 22.9961C89.607 22.9161 90.024 22.846 90.532 22.776C90.568 22.236 90.587 21.7961 90.587 21.4661V19.7261C90.587 18.4561 90.55 17.4561 90.478 16.7361C90.405 15.9661 90.278 15.0861 90.097 14.0661H87.538C86.486 13.9561 85.651 13.9161 85.034 13.9561C84.417 13.9561 83.618 13.9961 82.638 14.0661L81.876 10.7961C83.582 10.6161 84.889 10.5061 85.796 10.4761C86.74 10.3961 88.028 10.3661 89.661 10.3661C89.915 11.0861 90.151 11.686 90.369 12.156C90.587 12.596 90.768 13.2261 90.913 14.0661H94.18C94.434 15.8061 94.615 17.2361 94.724 18.3661C94.833 19.4561 94.887 20.926 94.887 22.776C94.887 23.686 94.851 24.3761 94.778 24.8461C94.742 25.3161 94.67 25.916 94.561 26.636H85.524C84.58 26.636 83.891 26.6961 83.455 26.8061C83.019 26.9161 82.421 27.0561 81.659 27.2361C81.622 26.7361 81.604 26.3161 81.604 25.9861V25.6061C81.592 26.3061 81.592 27.0161 81.604 27.7261C81.677 29.8661 81.894 32.5761 82.257 35.8361H77.902C77.539 32.4261 77.358 29.6761 77.358 27.5661C77.358 25.4661 77.467 23.4261 77.685 21.4661C77.939 19.5061 78.247 17.0461 78.61 14.0661H82.638ZM134.192 35.8361C134.265 35.0061 134.337 34.2761 134.41 33.6661C134.519 33.0461 134.591 32.3161 134.628 31.4861C135.208 31.4161 135.662 31.3761 135.989 31.3761C136.315 31.3361 136.624 31.3361 136.914 31.3761C137.241 31.4161 137.676 31.4861 138.221 31.5961C138.184 32.4661 138.13 33.196 138.057 33.776C138.021 34.316 137.985 35.0061 137.949 35.8361H134.192ZM125.645 35.8361C126.807 36.0261 127.787 36.166 128.585 36.276C129.383 36.386 130.182 36.426 130.98 36.386C131.815 36.316 132.886 36.1361 134.192 35.8361L134.682 39.1061C133.376 39.6561 132.214 40.0161 131.198 40.1961C130.182 40.3761 129.148 40.3761 128.095 40.1961C127.079 39.9761 125.899 39.6161 124.556 39.1061L125.645 35.8361ZM126.026 14.0661C125.7 16.9661 125.428 19.4361 125.21 21.4661C125.175 21.8561 125.145 22.246 125.118 22.636C125.483 22.736 125.767 22.816 125.972 22.886C126.226 22.956 126.589 22.9961 127.061 22.9961C127.823 22.9961 128.494 23.0161 129.075 23.0461H131.252C131.869 23.0461 132.323 23.0261 132.613 22.9961C132.94 22.9161 133.357 22.846 133.866 22.776C133.902 22.236 133.92 21.7961 133.92 21.4661C133.956 21.1061 133.974 20.6561 133.974 20.1061V19.7261C133.974 18.4561 133.92 17.4561 133.811 16.7361C133.739 15.9661 133.63 15.0861 133.484 14.0661H130.871C129.819 13.9561 128.984 13.9161 128.367 13.9561C127.787 13.9561 127.006 13.9961 126.026 14.0661L125.264 10.7961C126.97 10.6161 128.276 10.5061 129.184 10.4761C130.127 10.3961 131.416 10.3661 133.049 10.3661C133.267 11.0861 133.484 11.686 133.702 12.156C133.92 12.596 134.101 13.2261 134.247 14.0661H137.513C137.803 15.8061 138.003 17.2361 138.112 18.3661C138.221 19.4561 138.257 20.926 138.221 22.776C138.221 23.686 138.203 24.3761 138.166 24.8461C138.13 25.3161 138.039 25.916 137.894 26.636H128.857C127.914 26.636 127.224 26.6961 126.788 26.8061C126.353 26.9161 125.754 27.0561 124.992 27.2361C124.992 27.0361 124.989 26.8361 124.983 26.6661C124.983 27.0161 124.986 27.3661 124.992 27.7261C125.065 29.8661 125.282 32.5761 125.645 35.8361H121.29C120.927 32.4261 120.728 29.6761 120.691 27.5661C120.691 25.4661 120.818 23.4261 121.072 21.4661C121.326 19.5061 121.635 17.0461 121.998 14.0661H126.026ZM103.162 36.0561C103.162 36.5661 103.216 36.9161 103.325 37.0961C103.434 37.2761 103.579 37.5061 103.761 37.7961C103.797 37.8361 103.815 37.876 103.815 37.906H103.87C104.015 38.166 104.106 38.3461 104.142 38.4561C104.178 38.5661 104.196 38.7661 104.196 39.0561C104.196 39.3461 104.178 39.5561 104.142 39.7061C104.106 39.8161 104.051 39.9961 103.979 40.2461H98.371C98.262 40.0361 98.19 39.8561 98.154 39.7061C98.117 39.5561 98.099 39.3461 98.099 39.0561C98.099 38.8761 98.117 38.7261 98.154 38.6161C98.226 38.5061 98.335 38.3661 98.48 38.1861C98.516 38.1061 98.553 38.056 98.589 38.016C98.625 37.986 98.662 37.9261 98.698 37.8561C98.807 37.5261 98.879 37.256 98.916 37.036C98.952 36.816 98.97 36.4961 98.97 36.0561L98.916 20.2161C98.916 18.9061 98.97 17.8761 99.079 17.1161C99.224 16.3161 99.442 15.2961 99.732 14.0661H102.999C103.108 13.2661 103.235 12.6461 103.38 12.2161C103.561 11.7761 103.743 11.1661 103.924 10.3661C105.521 10.3261 106.773 10.3061 107.68 10.3061C108.624 10.3061 109.912 10.3461 111.546 10.4161C111.727 11.1461 111.89 11.726 112.036 12.156C112.181 12.596 112.326 13.2261 112.471 14.0661H115.737C116.028 15.2661 116.227 16.2461 116.336 17.0061C116.481 17.7261 116.554 18.7461 116.554 20.0561L116.608 36.0561V37.036C116.645 37.256 116.717 37.5261 116.826 37.8561C116.899 37.9261 116.953 37.986 116.989 38.016C117.026 38.056 117.062 38.1261 117.098 38.2361C117.244 38.3861 117.352 38.5061 117.425 38.6161C117.498 38.7261 117.534 38.8861 117.534 39.1061C117.534 39.3961 117.516 39.6161 117.479 39.7561C117.443 39.8661 117.371 40.0361 117.262 40.2461H111.763C111.654 40.0361 111.582 39.8561 111.546 39.7061C111.509 39.5561 111.491 39.3461 111.491 39.0561C111.491 38.7961 111.527 38.6161 111.6 38.5061C111.673 38.3661 111.781 38.166 111.927 37.906C112.036 37.616 112.126 37.366 112.199 37.146C112.308 36.926 112.344 36.5661 112.308 36.0561V19.396C112.308 18.126 112.217 17.166 112.036 16.516C111.89 15.866 111.691 15.0461 111.437 14.0661H109.804C109.114 14.0261 108.551 14.0061 108.116 14.0061C107.717 13.9761 107.136 13.9961 106.374 14.0661H103.979C103.761 14.9361 103.561 15.6761 103.38 16.2961C103.235 16.8761 103.162 17.746 103.162 18.906V36.0561ZM12.303 37.906C12.303 37.326 12.376 36.6061 12.521 35.7361C13.428 35.5861 14.172 35.516 14.753 35.516C15.334 35.476 16.06 35.5361 16.931 35.6761C17.076 36.5861 17.148 37.326 17.148 37.906C17.148 38.486 17.076 39.2161 16.931 40.0861C16.023 40.2361 15.279 40.3061 14.698 40.3061C14.118 40.3461 13.392 40.2661 12.521 40.0861C12.376 39.2161 12.303 38.486 12.303 37.906Z" fill="black"/>
</svg>
