<svg width="139" height="41" viewBox="0 0 139 41" fill="none" xmlns="http://www.w3.org/2000/svg">
<path fill-rule="evenodd" clip-rule="evenodd" d="M4.355 14.2261L1.143 14.886C0.78 14.046 0.49 13.306 0.272 12.646C0.091 11.956 0 11.0761 0 9.98612C0.69 9.58612 1.307 9.23608 1.851 8.94608C2.432 8.65608 3.266 8.40607 4.355 8.18607V4.97611L6.642 4.59611C7.113 4.51611 7.476 4.44614 7.73 4.37614C7.984 4.30614 8.311 4.2461 8.71 4.2161V0.996132C9.545 0.926132 10.216 0.926132 10.725 0.996132C11.233 1.03613 11.868 1.1061 12.63 1.2161C12.702 2.0561 12.702 2.72612 12.63 3.23612C12.594 3.70612 12.485 4.33602 12.303 5.13602L8.71 5.35612V8.56608C7.839 8.63608 7.095 8.7261 6.478 8.8361C5.898 8.9461 5.19 9.03613 4.355 9.11613V10.146C4.174 10.506 4.01 10.8361 3.865 11.1261C3.756 11.4161 3.702 11.8161 3.702 12.3261C3.702 12.7961 3.756 13.1561 3.865 13.4161C4.01 13.6661 4.174 13.9361 4.355 14.2261ZM4.355 14.2261C5.734 14.2661 6.859 14.2261 7.73 14.1161C8.638 13.9761 9.908 13.776 11.541 13.516L13.065 13.3061V10.0961C13.864 10.0561 14.553 9.99606 15.134 9.92606C15.715 9.81606 16.477 9.70612 17.421 9.60612V6.38602C19.199 6.27602 20.651 6.22611 21.776 6.22611C22.901 6.22611 24.352 6.42609 26.131 6.82609V10.146L29.343 10.036C29.452 10.836 29.542 11.4861 29.615 11.9961C29.687 12.5061 29.742 13.1961 29.778 14.0661H26.566C26.603 14.9361 26.603 15.6661 26.566 16.2461C26.566 16.7861 26.53 17.5161 26.457 18.4161H23.246C23.137 19.3261 22.955 20.076 22.701 20.656C22.483 21.196 22.211 21.906 21.885 22.776H18.673C18.564 22.956 18.473 23.1061 18.4 23.2161C18.328 23.2861 18.237 23.4061 18.128 23.5961C17.548 24.4661 17.112 25.156 16.822 25.656C16.531 26.136 16.386 26.7661 16.386 27.5661V31.3261C15.842 31.3961 15.406 31.4461 15.08 31.4861C14.789 31.5261 14.481 31.5261 14.154 31.4861C13.828 31.4461 13.392 31.3961 12.848 31.3261V28.3261C12.848 27.2061 12.92 26.3361 13.065 25.7161C13.211 25.0661 13.41 24.206 13.664 23.156L13.773 22.776H16.985C17.094 22.236 17.239 21.7961 17.421 21.4661C17.602 21.1461 17.783 20.7061 17.965 20.1661C18.11 19.7961 18.255 19.5061 18.4 19.2961C18.582 19.0761 18.745 18.7861 18.89 18.4161H22.102C22.356 17.5461 22.538 16.8561 22.647 16.3561C22.792 15.8061 22.864 15.0461 22.864 14.0661H26.131V10.8561H24.062C23.627 10.6761 23.227 10.5261 22.864 10.4161C22.502 10.2761 22.012 10.1961 21.395 10.1961C20.669 10.1961 20.034 10.2561 19.489 10.3661C18.945 10.4761 18.255 10.5961 17.421 10.7461V13.9561L13.065 14.5561V17.766C11.178 17.986 9.69 18.1261 8.601 18.2061C7.549 18.2761 6.133 18.2361 4.355 18.0961V14.2261ZM39.196 36.386C40.503 36.566 41.573 36.6761 42.408 36.7161C43.279 36.7161 44.114 36.6361 44.912 36.4961C45.747 36.3461 46.763 36.1361 47.961 35.8361L48.723 39.0561C46.981 39.5561 45.475 39.926 44.205 40.146C42.934 40.326 41.265 40.3761 39.196 40.3061V36.386ZM39.196 36.386L35.984 37.036C35.549 36.276 35.186 35.6761 34.895 35.2461C34.641 34.7661 34.514 34.0961 34.514 33.2261L34.46 30.9461V27.6161C34.968 27.5461 35.385 27.4961 35.712 27.4561C36.039 27.4161 36.365 27.4161 36.692 27.4561C37.055 27.4561 37.509 27.5161 38.053 27.6161L38.107 28.4361C38.216 30.1761 38.343 31.5561 38.488 32.5761C38.67 33.5861 38.906 34.856 39.196 36.386ZM39.196 4.75614V1.05607C41.047 0.906068 42.535 0.856034 43.66 0.896034C44.822 0.896034 46.237 0.926132 47.906 0.996132V4.2161C48.814 4.2861 49.503 4.35606 49.975 4.42606C50.447 4.50606 51.064 4.61614 51.826 4.75614V9.05607C51.862 10.1461 51.88 11.5761 51.88 13.3561C51.336 13.4661 50.901 13.5361 50.574 13.5761C50.247 13.6161 49.921 13.6161 49.594 13.5761C49.267 13.5361 48.814 13.4861 48.233 13.4161C48.16 12.3561 48.088 11.5461 48.015 10.9661C47.979 10.3861 47.943 9.63611 47.906 8.72611V5.84611C46.672 5.37611 45.656 5.02607 44.858 4.80607C44.059 4.59607 43.243 4.48612 42.408 4.48612C41.573 4.48612 40.503 4.57614 39.196 4.75614ZM47.961 35.8361C48.215 33.0861 48.215 30.8661 47.961 29.1961C47.743 27.5261 47.398 25.386 46.926 22.776H43.715C43.606 22.306 43.479 21.926 43.334 21.636C43.225 21.346 43.098 20.9461 42.952 20.4361C42.844 20.0361 42.735 19.7061 42.626 19.4561C42.517 19.1961 42.408 18.8561 42.299 18.4161H39.033C38.779 17.5161 38.561 16.7861 38.38 16.2461C38.234 15.6661 38.126 14.9361 38.053 14.0661H34.841C34.696 12.8361 34.587 11.7461 34.514 10.7961C34.442 9.81606 34.496 8.83612 34.678 7.85612C34.895 6.84612 35.331 5.64603 35.984 4.26603L39.196 4.75614C38.942 6.02614 38.761 7.0961 38.652 7.9661C38.579 8.8361 38.597 9.72602 38.706 10.636C38.851 11.546 39.105 12.6861 39.468 14.0661H42.68C42.825 14.8961 43.025 15.6061 43.279 16.1861C43.533 16.7661 43.787 17.5161 44.041 18.4161H47.253C47.435 19.2961 47.616 19.9961 47.798 20.5461C47.979 21.0861 48.16 21.836 48.342 22.776H51.554C51.953 25.356 52.189 27.4961 52.262 29.1961C52.37 30.8661 52.262 33.0861 51.935 35.8361H47.961ZM69.464 35.8361C69.537 35.1561 69.591 34.586 69.628 34.156C69.7 33.716 69.754 33.176 69.791 32.516L69.845 31.7561C70.426 31.6861 70.88 31.646 71.206 31.646C71.533 31.646 71.841 31.6861 72.132 31.7561C72.458 31.7961 72.876 31.8461 73.384 31.9261C73.384 32.7561 73.366 33.406 73.329 33.886C73.293 34.356 73.239 35.0061 73.166 35.8361H69.464ZM61.081 35.8361C62.278 36.0261 63.24 36.166 63.966 36.276C64.728 36.386 65.508 36.426 66.307 36.386C67.105 36.316 68.158 36.1361 69.464 35.8361L69.954 39.0561C68.684 39.5961 67.541 39.9761 66.525 40.1961C65.545 40.4161 64.528 40.4161 63.476 40.1961C62.46 40.0161 61.28 39.6361 59.937 39.0561L61.081 35.8361ZM61.516 14.0661C61.226 16.9661 60.972 19.4361 60.754 21.4661C60.573 23.5061 60.5 25.5861 60.536 27.7261C60.609 29.8661 60.79 32.5761 61.081 35.8361H56.725C56.362 32.4261 56.181 29.6761 56.181 27.5661C56.217 25.4261 56.362 23.3761 56.617 21.4161C56.907 19.4561 57.252 17.0061 57.651 14.0661H61.516ZM61.516 14.0661L60.863 10.8561C62.569 10.6761 63.893 10.5461 64.837 10.4761C65.817 10.3961 67.123 10.3661 68.757 10.3661C69.047 11.0861 69.265 11.686 69.41 12.156C69.555 12.596 69.682 13.2261 69.791 14.0661H73.003C73.112 14.9361 73.184 15.6961 73.221 16.3561C73.257 16.9661 73.275 17.7861 73.275 18.8061V19.1261C72.731 19.1961 72.295 19.2561 71.968 19.2961C71.678 19.3261 71.37 19.3461 71.043 19.3461C70.716 19.3061 70.263 19.2361 69.682 19.1261C69.646 19.0161 69.609 18.9061 69.573 18.8061V18.3161C69.464 17.3361 69.355 16.566 69.246 16.026C69.138 15.446 68.992 14.7961 68.811 14.0661H66.252C65.2 13.9561 64.383 13.9161 63.803 13.9561C63.222 13.9561 62.46 13.9961 61.516 14.0661ZM82.257 35.8361C83.419 36.0261 84.399 36.166 85.197 36.276C85.996 36.386 86.794 36.426 87.592 36.386C88.427 36.316 89.498 36.1361 90.804 35.8361L91.294 39.0561C90.024 39.6361 88.863 40.0161 87.81 40.1961C86.794 40.3761 85.76 40.3761 84.707 40.1961C83.655 39.9761 82.457 39.5961 81.114 39.0561L82.257 35.8361ZM90.804 35.8361C90.913 35.0061 91.004 34.2761 91.077 33.6661C91.185 33.0461 91.258 32.3161 91.294 31.4861C91.839 31.4161 92.274 31.3761 92.601 31.3761C92.927 31.3361 93.236 31.3361 93.526 31.3761C93.853 31.4161 94.288 31.4861 94.833 31.5961C94.796 32.4661 94.742 33.196 94.67 33.776C94.633 34.316 94.579 35.0061 94.506 35.8361H90.804ZM82.638 14.0661C82.312 16.9661 82.04 19.4361 81.822 21.4661C81.787 21.8561 81.757 22.246 81.73 22.636C82.06 22.736 82.326 22.816 82.53 22.886C82.784 22.956 83.147 22.9961 83.618 22.9961C84.417 22.9961 85.106 23.0161 85.687 23.0461H87.81C88.463 23.0461 88.935 23.0261 89.226 22.9961C89.552 22.9161 89.97 22.846 90.478 22.776C90.514 22.236 90.532 21.7961 90.532 21.4661C90.568 21.1061 90.587 20.6561 90.587 20.1061V19.7261C90.587 18.4561 90.532 17.4561 90.423 16.7361C90.351 15.9661 90.224 15.0861 90.042 14.0661H87.538C86.486 13.9561 85.651 13.9161 85.034 13.9561C84.417 13.9561 83.618 13.9961 82.638 14.0661L81.876 10.8561C83.546 10.6361 84.834 10.5061 85.742 10.4761C86.685 10.3961 87.974 10.3661 89.607 10.3661C89.861 11.0861 90.097 11.686 90.314 12.156C90.532 12.596 90.732 13.2261 90.913 14.0661H94.125C94.379 15.8061 94.561 17.2361 94.67 18.3661C94.815 19.4561 94.869 20.926 94.833 22.776C94.833 23.686 94.815 24.3761 94.778 24.8461C94.742 25.3161 94.651 25.916 94.506 26.636H85.469C84.526 26.636 83.836 26.6961 83.401 26.8061C82.965 26.9161 82.366 27.0561 81.604 27.2361C81.602 27.2061 81.599 27.166 81.597 27.136C81.598 27.326 81.601 27.5261 81.604 27.7261C81.64 29.8661 81.858 32.5761 82.257 35.8361H77.902C77.539 32.4661 77.34 29.7261 77.303 27.6161C77.303 25.4761 77.43 23.4261 77.685 21.4661C77.939 19.4761 78.247 17.0061 78.61 14.0661H82.638ZM134.138 35.8361C134.247 35.0061 134.337 34.2761 134.41 33.6661C134.519 33.0461 134.591 32.3161 134.628 31.4861C135.172 31.4161 135.608 31.3761 135.934 31.3761C136.261 31.3361 136.588 31.3361 136.914 31.3761C137.241 31.4161 137.658 31.4861 138.166 31.5961C138.13 32.4661 138.076 33.196 138.003 33.776C137.967 34.316 137.93 35.0061 137.894 35.8361H134.138ZM125.591 35.8361C126.788 36.0261 127.768 36.166 128.531 36.276C129.329 36.386 130.146 36.426 130.98 36.386C131.815 36.316 132.868 36.1361 134.138 35.8361L134.628 39.0561C133.357 39.6361 132.214 40.0161 131.198 40.1961C130.182 40.3761 129.148 40.3761 128.095 40.1961C127.043 39.9761 125.845 39.5961 124.502 39.0561L125.591 35.8361ZM126.026 14.0661C125.663 16.9661 125.373 19.4361 125.155 21.4661C125.121 21.8461 125.091 22.2361 125.064 22.6261C125.419 22.7261 125.704 22.816 125.917 22.886C126.172 22.956 126.534 22.9961 127.006 22.9961C127.768 22.9961 128.44 23.0161 129.02 23.0461H131.198C131.851 23.0461 132.323 23.0261 132.613 22.9961C132.94 22.9161 133.339 22.846 133.811 22.776C133.884 22.236 133.92 21.7961 133.92 21.4661V19.7261C133.92 18.4561 133.884 17.4561 133.811 16.7361C133.739 15.9661 133.612 15.0861 133.43 14.0661H130.871C129.819 13.9561 128.984 13.9161 128.367 13.9561C127.787 13.9561 127.006 13.9961 126.026 14.0661L125.21 10.8561C126.916 10.6361 128.222 10.5061 129.129 10.4761C130.073 10.3961 131.343 10.3661 132.94 10.3661C133.194 11.0861 133.43 11.686 133.648 12.156C133.902 12.596 134.101 13.2261 134.247 14.0661H137.459C137.749 15.8061 137.949 17.2361 138.057 18.3661C138.166 19.4561 138.203 20.926 138.166 22.776C138.166 23.686 138.148 24.3761 138.112 24.8461C138.076 25.3161 137.985 25.916 137.84 26.636H128.803C127.859 26.636 127.17 26.6961 126.734 26.8061C126.299 26.9161 125.7 27.0561 124.938 27.2361C124.938 27.0361 124.935 26.8461 124.929 26.6661C124.929 27.0161 124.932 27.3661 124.938 27.7261C125.01 29.8661 125.228 32.5761 125.591 35.8361H121.236C120.873 32.4661 120.691 29.7261 120.691 27.6161C120.691 25.4761 120.8 23.4261 121.018 21.4661C121.272 19.4761 121.599 17.0061 121.998 14.0661H126.026ZM103.108 36.0561C103.108 36.5661 103.162 36.9161 103.271 37.0961C103.38 37.2761 103.543 37.5061 103.761 37.7961V37.906C103.797 37.906 103.815 37.9261 103.815 37.9661C103.96 38.1861 104.051 38.3461 104.087 38.4561C104.16 38.5661 104.196 38.7661 104.196 39.0561C104.196 39.3461 104.178 39.5561 104.142 39.7061C104.106 39.8161 104.051 39.9961 103.979 40.2461H98.317C98.208 40.0361 98.135 39.8561 98.099 39.7061C98.063 39.5561 98.045 39.3461 98.045 39.0561C98.045 38.8761 98.063 38.7261 98.099 38.6161C98.172 38.5061 98.281 38.3661 98.426 38.1861C98.462 38.1061 98.498 38.056 98.535 38.016C98.571 37.986 98.607 37.9261 98.644 37.8561C98.752 37.5261 98.825 37.256 98.861 37.036C98.898 36.816 98.916 36.4961 98.916 36.0561V20.2161C98.916 18.9061 98.97 17.8761 99.079 17.1161C99.224 16.3161 99.442 15.2961 99.732 14.0661H102.944C103.053 13.2661 103.18 12.6461 103.325 12.2161C103.507 11.7761 103.688 11.1761 103.87 10.4161C105.503 10.3861 106.773 10.3661 107.68 10.3661C108.588 10.3661 109.858 10.3861 111.491 10.4161C111.673 11.1761 111.836 11.7761 111.981 12.2161C112.126 12.6161 112.29 13.2261 112.471 14.0661H115.683C115.973 15.2661 116.191 16.2461 116.336 17.0061C116.481 17.7261 116.554 18.7461 116.554 20.0561V36.0561C116.554 36.4961 116.572 36.816 116.608 37.036C116.645 37.256 116.717 37.5261 116.826 37.8561C116.862 37.9261 116.899 37.986 116.935 38.016C117.008 38.056 117.062 38.1261 117.098 38.2361C117.244 38.3861 117.352 38.5061 117.425 38.6161C117.498 38.7261 117.534 38.8861 117.534 39.1061C117.534 39.3961 117.516 39.6161 117.479 39.7561C117.443 39.8661 117.371 40.0361 117.262 40.2461H111.709C111.6 40.0361 111.527 39.8561 111.491 39.7061C111.455 39.5561 111.437 39.3461 111.437 39.0561C111.437 38.7961 111.473 38.6161 111.546 38.5061C111.618 38.3661 111.727 38.166 111.872 37.906C111.981 37.616 112.072 37.3861 112.144 37.2061C112.253 36.9861 112.308 36.6061 112.308 36.0561V19.396C112.308 18.126 112.217 17.166 112.036 16.516C111.854 15.866 111.636 15.0461 111.382 14.0661H109.804C109.078 14.0261 108.497 14.0061 108.061 14.0061C107.662 13.9761 107.082 13.9961 106.319 14.0661H103.979C103.761 14.9361 103.561 15.6761 103.38 16.2961C103.198 16.8761 103.108 17.746 103.108 18.906V36.0561ZM12.249 37.906C12.249 37.326 12.339 36.6061 12.521 35.7361C13.392 35.5461 14.118 35.4561 14.698 35.4561C15.316 35.4561 16.041 35.5361 16.876 35.6761C17.058 36.5861 17.148 37.326 17.148 37.906C17.148 38.486 17.076 39.2161 16.931 40.0861C16.023 40.2361 15.279 40.3061 14.698 40.3061C14.118 40.3461 13.392 40.2661 12.521 40.0861C12.376 39.2161 12.285 38.486 12.249 37.906Z" fill="black"/>
</svg>
