<svg width="139" height="41" viewBox="0 0 139 41" fill="none" xmlns="http://www.w3.org/2000/svg">
<path fill-rule="evenodd" clip-rule="evenodd" d="M4.355 14.2261L1.198 14.9361C0.798 14.1061 0.49 13.336 0.272 12.646C0.091 11.956 0 11.0761 0 9.98612C0.69 9.58612 1.307 9.23608 1.851 8.94608C2.432 8.62608 3.266 8.34602 4.355 8.13602V4.97611L6.642 4.53605C7.113 4.46605 7.476 4.39608 7.73 4.31608C7.984 4.24608 8.311 4.19604 8.71 4.15604V0.996132C9.545 0.926132 10.216 0.926132 10.725 0.996132C11.233 1.03613 11.868 1.1061 12.63 1.2161C12.702 2.0561 12.702 2.72612 12.63 3.23612C12.594 3.70612 12.485 4.33602 12.303 5.13602L8.71 5.35612V8.51603C7.839 8.58603 7.095 8.6961 6.478 8.8361C5.861 8.9461 5.154 9.03613 4.355 9.11613V10.0961C4.174 10.4861 4.01 10.8361 3.865 11.1261C3.756 11.3761 3.702 11.7761 3.702 12.3261C3.702 12.7961 3.756 13.1761 3.865 13.4661C4.01 13.7161 4.174 13.9761 4.355 14.2261ZM4.355 14.2261C5.734 14.2661 6.859 14.2061 7.73 14.0661C8.638 13.9161 9.908 13.736 11.541 13.516L13.065 13.3061V10.0961C13.828 10.0561 14.499 9.99606 15.08 9.92606C15.697 9.81606 16.477 9.70612 17.421 9.60612V6.44608C19.199 6.29608 20.651 6.24604 21.776 6.27604C22.901 6.27604 24.352 6.47614 26.131 6.87614V10.146L29.288 10.036C29.397 10.836 29.488 11.5061 29.56 12.0561C29.633 12.5561 29.687 13.2261 29.724 14.0661H26.566C26.603 14.9361 26.621 15.6661 26.621 16.2461C26.621 16.7861 26.566 17.5161 26.457 18.4161H23.3C23.191 19.3261 23.01 20.076 22.756 20.656C22.502 21.196 22.211 21.906 21.885 22.776H18.727C18.618 22.956 18.509 23.1061 18.4 23.2161C18.328 23.2861 18.255 23.4061 18.183 23.5961C17.566 24.4661 17.112 25.156 16.822 25.656C16.531 26.136 16.386 26.7861 16.386 27.6161V31.3261C15.842 31.3961 15.406 31.4461 15.08 31.4861C14.753 31.5261 14.426 31.5261 14.1 31.4861C13.773 31.4461 13.356 31.3961 12.848 31.3261V28.386C12.848 27.226 12.92 26.3361 13.065 25.7161C13.211 25.0661 13.41 24.206 13.664 23.156L13.773 22.776H16.985C17.094 22.236 17.239 21.7961 17.421 21.4661C17.602 21.1461 17.802 20.7061 18.019 20.1661C18.165 19.7961 18.31 19.5061 18.455 19.2961C18.636 19.0761 18.8 18.7861 18.945 18.4161H22.102C22.356 17.5461 22.556 16.8561 22.701 16.3561C22.846 15.8061 22.919 15.0461 22.919 14.0661H26.131V10.906H24.062C23.627 10.726 23.227 10.5861 22.864 10.4761C22.538 10.3261 22.048 10.2561 21.395 10.2561C20.669 10.2561 20.034 10.3061 19.489 10.4161C18.945 10.4861 18.255 10.6161 17.421 10.7961V13.9561L13.065 14.5561V17.7161C11.178 17.9661 9.69 18.1261 8.601 18.2061C7.513 18.2761 6.097 18.2361 4.355 18.0961V14.2261ZM39.196 36.4361L36.039 37.0961C35.567 36.3261 35.186 35.7361 34.895 35.2961C34.641 34.8261 34.514 34.156 34.514 33.286L34.46 30.9961L34.406 27.6761C34.95 27.5661 35.385 27.4961 35.712 27.4561C36.039 27.4161 36.365 27.4161 36.692 27.4561C37.019 27.4561 37.454 27.5161 37.998 27.6161L38.053 28.4361C38.198 30.2161 38.343 31.6161 38.488 32.6261C38.67 33.6461 38.906 34.9161 39.196 36.4361ZM39.196 4.70609V1.05607C41.047 0.906068 42.535 0.856034 43.66 0.896034C44.822 0.896034 46.237 0.926132 47.906 0.996132V4.15604C48.814 4.26604 49.503 4.35606 49.975 4.42606C50.447 4.50606 51.046 4.59609 51.772 4.70609C51.808 6.44609 51.826 7.87614 51.826 9.00614V13.3561C51.318 13.4261 50.901 13.5061 50.574 13.5761C50.247 13.6161 49.921 13.6161 49.594 13.5761C49.267 13.5361 48.814 13.4861 48.233 13.4161C48.16 12.3561 48.088 11.5461 48.015 10.9661C47.979 10.3861 47.943 9.61606 47.906 8.67606V5.84611C46.672 5.37611 45.656 5.02607 44.858 4.80607C44.059 4.55607 43.243 4.42606 42.408 4.42606C41.573 4.42606 40.503 4.51609 39.196 4.70609ZM47.961 35.8361C48.215 33.0861 48.215 30.8661 47.961 29.1961C47.743 27.4961 47.398 25.356 46.926 22.776H43.715C43.606 22.306 43.479 21.926 43.334 21.636C43.225 21.346 43.098 20.9461 42.952 20.4361C42.844 20.0361 42.717 19.7061 42.571 19.4561C42.462 19.1961 42.354 18.8561 42.245 18.4161H39.033C38.779 17.5161 38.561 16.7861 38.38 16.2461C38.234 15.6661 38.107 14.9361 37.998 14.0661H34.841C34.696 12.8361 34.587 11.7261 34.514 10.7461C34.442 9.76613 34.496 8.78607 34.678 7.80607C34.895 6.78607 35.349 5.60603 36.039 4.26603L39.196 4.70609C38.906 5.97609 38.724 7.0561 38.652 7.9661C38.579 8.8361 38.597 9.72602 38.706 10.636C38.851 11.546 39.105 12.6861 39.468 14.0661H42.626C42.807 14.8961 43.025 15.6061 43.279 16.1861C43.533 16.7661 43.787 17.5161 44.041 18.4161H47.199C47.416 19.2961 47.616 19.9961 47.798 20.5461C48.015 21.0861 48.215 21.836 48.396 22.776H51.554C51.953 25.316 52.207 27.436 52.316 29.146C52.425 30.846 52.298 33.0861 51.935 35.8361H47.961ZM39.196 36.4361C40.503 36.6261 41.573 36.726 42.408 36.766C43.279 36.766 44.114 36.6961 44.912 36.5461C45.747 36.3661 46.763 36.1361 47.961 35.8361L48.723 38.9961C46.981 39.5461 45.475 39.926 44.205 40.146C42.934 40.326 41.265 40.3761 39.196 40.3061V36.4361ZM61.081 35.8361C62.278 36.0261 63.24 36.166 63.966 36.276C64.728 36.386 65.508 36.426 66.307 36.386C67.105 36.316 68.158 36.1361 69.464 35.8361L69.954 38.9961C68.684 39.5761 67.541 39.9761 66.525 40.1961C65.545 40.4161 64.528 40.4161 63.476 40.1961C62.46 40.0161 61.262 39.6161 59.883 38.9961L61.081 35.8361ZM61.571 14.0661C61.244 16.9361 60.972 19.3861 60.754 21.4161C60.573 23.4461 60.5 25.5561 60.536 27.7261C60.609 29.9061 60.79 32.6061 61.081 35.8361H56.725C56.362 32.4261 56.181 29.656 56.181 27.516C56.181 25.366 56.326 23.3361 56.617 21.4161L57.705 14.0661H61.571ZM69.464 35.8361C69.537 35.1561 69.591 34.586 69.628 34.156C69.7 33.716 69.754 33.176 69.791 32.516L69.9 31.8161C70.444 31.7361 70.88 31.7061 71.206 31.7061C71.533 31.6661 71.841 31.6861 72.132 31.7561C72.458 31.7961 72.876 31.8461 73.384 31.9261C73.348 32.7561 73.311 33.4261 73.275 33.9361C73.239 34.4061 73.202 35.0461 73.166 35.8361H69.464ZM61.571 14.0661L60.863 10.906C62.569 10.686 63.893 10.5461 64.837 10.4761C65.817 10.3961 67.105 10.3661 68.702 10.3661C69.029 11.0861 69.265 11.686 69.41 12.156C69.555 12.596 69.682 13.2261 69.791 14.0661H72.948C73.057 14.9361 73.13 15.6961 73.166 16.3561C73.202 17.0061 73.221 17.8361 73.221 18.8561V19.1261C72.712 19.1961 72.295 19.2761 71.968 19.3461C71.678 19.3861 71.351 19.3861 70.989 19.3461C70.662 19.3061 70.226 19.2561 69.682 19.1861C69.646 19.0361 69.609 18.9061 69.573 18.8061V18.3661C69.464 17.3461 69.337 16.566 69.192 16.026C69.083 15.446 68.938 14.7961 68.757 14.0661H66.252C65.236 13.9561 64.438 13.9161 63.857 13.9561C63.276 13.9561 62.514 13.9961 61.571 14.0661ZM82.257 35.8361C83.419 36.0261 84.381 36.166 85.143 36.276C85.941 36.386 86.758 36.426 87.592 36.386C88.427 36.316 89.498 36.1361 90.804 35.8361L91.294 38.9961C90.024 39.5761 88.863 39.9761 87.81 40.1961C86.794 40.3761 85.742 40.3761 84.653 40.1961C83.6 39.9761 82.403 39.5761 81.06 38.9961L82.257 35.8361ZM90.804 35.8361C90.877 35.0061 90.95 34.2761 91.022 33.6661C91.131 33.0461 91.204 32.3161 91.24 31.4861C91.821 31.4161 92.256 31.3761 92.546 31.3761C92.873 31.3361 93.2 31.3361 93.526 31.3761C93.853 31.4161 94.27 31.4861 94.778 31.5961C94.742 32.4661 94.688 33.196 94.615 33.776C94.579 34.316 94.524 35.0061 94.452 35.8361H90.804ZM82.638 14.0661C82.312 16.9361 82.04 19.3861 81.822 21.4161C81.778 21.8261 81.74 22.236 81.706 22.646C82.022 22.746 82.278 22.826 82.475 22.886C82.729 22.956 83.092 22.9961 83.564 22.9961C84.362 23.0261 85.052 23.0461 85.633 23.0461H87.81C88.463 23.0461 88.935 23.0261 89.226 22.9961C89.552 22.9161 89.951 22.846 90.423 22.776C90.496 22.236 90.532 21.7961 90.532 21.4661V19.786C90.532 18.516 90.478 17.4961 90.369 16.7361C90.296 15.9661 90.169 15.0861 89.988 14.0661H87.484C86.467 13.9561 85.651 13.9161 85.034 13.9561C84.417 13.9561 83.618 13.9961 82.638 14.0661L81.822 10.906C83.491 10.686 84.78 10.5461 85.687 10.4761C86.631 10.3961 87.919 10.3661 89.552 10.3661C89.806 11.0861 90.042 11.686 90.26 12.156C90.514 12.596 90.714 13.2261 90.859 14.0661H94.071C94.325 15.8061 94.506 17.2361 94.615 18.3661C94.76 19.4561 94.815 20.926 94.778 22.776C94.778 23.686 94.76 24.3761 94.724 24.8461C94.688 25.3161 94.597 25.8961 94.452 26.5861C93.399 26.6261 92.492 26.636 91.73 26.636C90.968 26.606 89.915 26.5861 88.572 26.5861H85.36C84.417 26.5861 83.727 26.6561 83.292 26.8061C82.893 26.9161 82.312 27.0561 81.55 27.2361C81.55 27.0461 81.547 26.8761 81.542 26.7061C81.541 27.0461 81.544 27.3861 81.55 27.7261C81.622 29.9061 81.858 32.6061 82.257 35.8361H77.902C77.503 32.4661 77.285 29.7061 77.249 27.5661C77.249 25.4261 77.376 23.3761 77.63 21.4161C77.92 19.4561 78.265 17.0061 78.664 14.0661H82.638ZM125.591 35.8361C126.752 36.0261 127.732 36.166 128.531 36.276C129.329 36.386 130.127 36.426 130.926 36.386C131.761 36.316 132.831 36.1361 134.138 35.8361L134.628 38.9961C133.357 39.5761 132.196 39.9761 131.144 40.1961C130.127 40.3761 129.075 40.3761 127.986 40.1961C126.934 39.9761 125.736 39.5761 124.393 38.9961L125.591 35.8361ZM134.138 35.8361C134.21 35.0061 134.301 34.2761 134.41 33.6661C134.519 33.0461 134.591 32.3161 134.628 31.4861C135.172 31.4161 135.608 31.3761 135.934 31.3761C136.261 31.3361 136.569 31.3361 136.86 31.3761C137.186 31.4161 137.604 31.4861 138.112 31.5961C138.076 32.4661 138.021 33.196 137.949 33.776C137.912 34.316 137.876 35.0061 137.84 35.8361H134.138ZM126.026 14.0661C125.663 16.9361 125.373 19.3861 125.155 21.4161C125.112 21.8161 125.074 22.2261 125.041 22.6261C125.381 22.7361 125.655 22.816 125.863 22.886C126.117 22.956 126.48 22.9961 126.952 22.9961C127.714 23.0261 128.385 23.0461 128.966 23.0461H131.144C131.797 23.0461 132.269 23.0261 132.559 22.9961C132.886 22.9161 133.303 22.846 133.811 22.776C133.847 22.236 133.866 21.7961 133.866 21.4661V19.786C133.866 18.516 133.829 17.4961 133.757 16.7361C133.684 15.9661 133.539 15.0861 133.321 14.0661H130.817C129.801 13.9561 128.984 13.9161 128.367 13.9561C127.75 13.9561 126.97 13.9961 126.026 14.0661L125.155 10.906C126.861 10.686 128.168 10.5461 129.075 10.4761C129.982 10.3961 131.253 10.3661 132.886 10.3661C133.14 11.0861 133.376 11.686 133.593 12.156C133.847 12.596 134.047 13.2261 134.192 14.0661H137.404C137.694 15.8061 137.894 17.2361 138.003 18.3661C138.112 19.4561 138.166 20.926 138.166 22.776C138.166 23.686 138.13 24.3761 138.057 24.8461C138.021 25.3161 137.93 25.8961 137.785 26.5861C136.733 26.6261 135.825 26.636 135.063 26.636C134.301 26.606 133.249 26.5861 131.906 26.5861H128.694C127.787 26.5861 127.115 26.6561 126.68 26.8061C126.244 26.9161 125.645 27.0561 124.883 27.2361C124.883 27.0461 124.88 26.8761 124.875 26.7061C124.875 27.0461 124.877 27.3861 124.883 27.7261C124.956 29.9061 125.192 32.6061 125.591 35.8361H121.236C120.836 32.4661 120.637 29.7061 120.637 27.5661C120.637 25.4261 120.764 23.3761 121.018 21.4161C121.272 19.4561 121.599 17.0061 121.998 14.0661H126.026ZM103.053 36.0561C103.053 36.5661 103.108 36.926 103.216 37.146C103.325 37.326 103.489 37.5461 103.706 37.7961C103.743 37.8361 103.761 37.876 103.761 37.906L103.815 37.9661C103.96 38.1861 104.051 38.3661 104.087 38.5061C104.16 38.6161 104.196 38.7961 104.196 39.0561C104.196 39.3461 104.178 39.5561 104.142 39.7061C104.106 39.8161 104.033 39.9961 103.924 40.2461H98.262C98.154 40.0361 98.063 39.8561 97.99 39.7061C97.954 39.5561 97.936 39.3461 97.936 39.0561C97.936 38.8761 97.954 38.7261 97.99 38.6161C98.063 38.5061 98.172 38.3661 98.317 38.1861C98.39 38.1461 98.444 38.1061 98.48 38.0761C98.516 37.9961 98.553 37.9261 98.589 37.8561C98.698 37.5261 98.771 37.256 98.807 37.036C98.843 36.816 98.861 36.4961 98.861 36.0561V20.2161C98.861 18.9061 98.916 17.8761 99.025 17.1161C99.17 16.3161 99.406 15.2961 99.732 14.0661H102.89C102.999 13.3061 103.144 12.706 103.325 12.266C103.507 11.796 103.688 11.1761 103.87 10.4161C105.467 10.3861 106.719 10.3661 107.626 10.3661C108.533 10.3661 109.804 10.3961 111.437 10.4761C111.618 11.1961 111.781 11.7761 111.927 12.2161C112.072 12.6161 112.235 13.2261 112.417 14.0661H115.574C115.901 15.2661 116.137 16.2461 116.282 17.0061C116.427 17.7261 116.5 18.7461 116.5 20.0561V36.0561C116.5 36.4961 116.518 36.816 116.554 37.036C116.59 37.256 116.663 37.5261 116.772 37.8561C116.844 37.9661 116.899 38.0361 116.935 38.0761C116.971 38.1061 117.026 38.1661 117.098 38.2361C117.244 38.3861 117.352 38.5061 117.425 38.6161C117.498 38.7261 117.534 38.8861 117.534 39.1061C117.534 39.3961 117.516 39.6161 117.479 39.7561C117.443 39.8661 117.371 40.0361 117.262 40.2461H111.654C111.546 40.0361 111.473 39.8561 111.437 39.7061C111.4 39.5561 111.382 39.3461 111.382 39.0561C111.382 38.7961 111.419 38.6161 111.491 38.5061C111.564 38.3661 111.673 38.166 111.818 37.906C111.927 37.616 112.017 37.3861 112.09 37.2061C112.199 36.9861 112.253 36.6061 112.253 36.0561V19.396C112.253 18.126 112.163 17.166 111.981 16.516C111.8 15.866 111.582 15.0461 111.328 14.0661H109.749C109.023 14.0261 108.443 14.0061 108.007 14.0061C107.608 13.9761 107.027 13.9961 106.265 14.0661H103.924C103.706 14.9361 103.507 15.6761 103.325 16.2961C103.144 16.8761 103.053 17.746 103.053 18.906V36.0561ZM12.249 37.906C12.249 37.296 12.321 36.5661 12.467 35.7361C13.374 35.5461 14.118 35.4561 14.698 35.4561C15.279 35.4561 16.005 35.5361 16.876 35.6761C17.058 36.5861 17.148 37.326 17.148 37.906C17.148 38.486 17.058 39.2161 16.876 40.0861C16.005 40.2361 15.261 40.3061 14.644 40.3061C14.063 40.3461 13.356 40.2661 12.521 40.0861C12.339 39.2161 12.249 38.486 12.249 37.906Z" fill="black"/>
</svg>
