<svg width="139" height="41" viewBox="0 0 139 41" fill="none" xmlns="http://www.w3.org/2000/svg">
<path fill-rule="evenodd" clip-rule="evenodd" d="M4.355 14.2261C5.734 14.2661 6.859 14.2061 7.73 14.0661C8.638 13.9161 9.908 13.7161 11.541 13.4661L13.065 13.2461V10.146C13.828 10.076 14.499 9.99606 15.08 9.92606C15.697 9.81606 16.477 9.70612 17.421 9.60612V6.44608C19.199 6.33608 20.651 6.27604 21.776 6.27604C22.937 6.27604 24.389 6.49607 26.131 6.93607V10.146L29.288 10.036C29.361 10.836 29.433 11.5061 29.506 12.0561C29.615 12.5561 29.687 13.2261 29.724 14.0661H26.566C26.639 14.9361 26.657 15.6661 26.621 16.2461C26.621 16.8261 26.566 17.5461 26.457 18.4161H23.354C23.246 19.3261 23.064 20.076 22.81 20.656C22.556 21.196 22.247 21.906 21.885 22.776H18.727C18.654 22.956 18.564 23.1061 18.455 23.2161C18.382 23.2861 18.292 23.4061 18.183 23.5961C17.566 24.4661 17.094 25.156 16.767 25.656C16.477 26.136 16.332 26.7861 16.332 27.6161V31.3261C15.787 31.3961 15.352 31.4461 15.025 31.4861C14.735 31.5261 14.426 31.5261 14.1 31.4861C13.773 31.4461 13.356 31.3961 12.848 31.3261V28.386C12.848 27.226 12.92 26.3361 13.065 25.7161C13.211 25.0661 13.428 24.206 13.719 23.156L13.828 22.776H16.931C17.076 22.236 17.239 21.7961 17.421 21.4661C17.602 21.1461 17.802 20.7061 18.019 20.1661C18.165 19.7961 18.31 19.5061 18.455 19.2961C18.636 19.0761 18.818 18.7861 18.999 18.4161H22.157C22.411 17.5461 22.61 16.8561 22.756 16.3561C22.901 15.8061 22.973 15.0461 22.973 14.0661H26.131V10.906H24.062C23.663 10.726 23.282 10.5861 22.919 10.4761C22.556 10.3261 22.066 10.2561 21.449 10.2561C20.723 10.2561 20.088 10.3061 19.544 10.4161C18.999 10.5261 18.292 10.6561 17.421 10.7961V13.9561L13.065 14.5561V17.7161C11.178 17.9261 9.69 18.076 8.601 18.146C7.513 18.216 6.097 18.2061 4.355 18.0961V14.2261ZM4.355 14.2261L1.198 14.9361C0.835 14.1361 0.544 13.3961 0.327 12.7061C0.109 12.0161 0 11.1061 0 9.98612C0.69 9.54612 1.307 9.18603 1.851 8.89603C2.432 8.56603 3.266 8.29609 4.355 8.07609V4.97611L6.642 4.53605C7.113 4.42605 7.476 4.33603 7.73 4.26603C7.984 4.19603 8.311 4.15604 8.71 4.15604V0.996132C9.545 0.926132 10.198 0.926132 10.67 0.996132C11.178 1.03613 11.831 1.1061 12.63 1.2161C12.702 2.0561 12.702 2.72612 12.63 3.23612C12.557 3.70612 12.43 4.33602 12.249 5.13602L8.71 5.35612V8.45609C7.839 8.56609 7.095 8.6961 6.478 8.8361C5.861 8.9461 5.154 9.01607 4.355 9.05607V10.036C4.174 10.436 4.01 10.7761 3.865 11.0761C3.72 11.3661 3.647 11.756 3.647 12.266C3.647 12.776 3.72 13.1761 3.865 13.4661C4.01 13.7161 4.174 13.9761 4.355 14.2261ZM39.196 4.70609V1.05607C41.011 0.906068 42.499 0.856034 43.66 0.896034C44.822 0.896034 46.237 0.926132 47.906 0.996132V4.15604C48.814 4.22604 49.503 4.30614 49.975 4.37614C50.447 4.44614 51.046 4.55609 51.772 4.70609V9.00614C51.808 10.1261 51.826 11.5761 51.826 13.3561C51.318 13.4261 50.901 13.486 50.574 13.516C50.247 13.556 49.921 13.5761 49.594 13.5761C49.267 13.5361 48.832 13.4661 48.287 13.3561C48.179 12.3061 48.088 11.486 48.015 10.906C47.979 10.326 47.943 9.58606 47.906 8.67606V5.89603C46.709 5.39603 45.693 5.02607 44.858 4.80607C44.059 4.55607 43.243 4.42606 42.408 4.42606C41.573 4.42606 40.503 4.51609 39.196 4.70609ZM47.961 35.8361C48.251 33.0861 48.269 30.8661 48.015 29.1961C47.761 27.4961 47.38 25.356 46.872 22.776H43.715C43.606 22.306 43.479 21.926 43.334 21.636C43.188 21.346 43.043 20.9461 42.898 20.4361C42.789 20.0361 42.662 19.7061 42.517 19.4561C42.408 19.1961 42.299 18.8561 42.19 18.4161H39.033C38.742 17.5161 38.507 16.7861 38.325 16.2461C38.18 15.6661 38.053 14.9361 37.944 14.0661H34.841C34.696 12.8661 34.569 11.7761 34.46 10.7961C34.387 9.78606 34.46 8.76613 34.678 7.74613C34.895 6.73613 35.349 5.5561 36.039 4.2161L39.196 4.70609C38.906 5.97609 38.706 7.0561 38.597 7.9661C38.525 8.8361 38.561 9.74607 38.706 10.6861C38.851 11.5961 39.105 12.7261 39.468 14.0661H42.626C42.771 14.8961 42.971 15.6061 43.225 16.1861C43.515 16.7661 43.787 17.5161 44.041 18.4161H47.199C47.416 19.2961 47.616 19.9961 47.798 20.5461C48.015 21.0861 48.215 21.836 48.396 22.776H51.554C51.917 25.316 52.153 27.436 52.262 29.146C52.407 30.846 52.298 33.0861 51.935 35.8361H47.961ZM39.196 36.4361C40.503 36.6261 41.573 36.726 42.408 36.766C43.279 36.766 44.114 36.6961 44.912 36.5461C45.747 36.4061 46.763 36.1661 47.961 35.8361L48.777 38.9961C47.035 39.5461 45.511 39.926 44.205 40.146C42.934 40.326 41.265 40.3761 39.196 40.3061V36.4361ZM39.196 36.4361L36.039 37.146C35.603 36.386 35.24 35.7861 34.95 35.3461C34.66 34.8761 34.514 34.226 34.514 33.396L34.46 31.0461L34.406 27.6761C34.95 27.6061 35.367 27.546 35.658 27.516C35.984 27.436 36.311 27.4161 36.638 27.4561C36.964 27.4961 37.4 27.5461 37.944 27.6161L37.998 28.4961C38.144 30.2361 38.307 31.6261 38.488 32.6861C38.67 33.6961 38.906 34.9561 39.196 36.4361ZM61.135 35.8361C62.26 36.0261 63.204 36.1861 63.966 36.3261C64.728 36.4361 65.508 36.456 66.307 36.386C67.105 36.316 68.158 36.1361 69.464 35.8361L70.009 38.9961C68.702 39.5761 67.541 39.9761 66.525 40.1961C65.508 40.4161 64.474 40.4161 63.422 40.1961C62.405 39.9761 61.226 39.5761 59.883 38.9961L61.135 35.8361ZM61.571 14.0661C61.244 16.8961 60.972 19.3461 60.754 21.4161C60.536 23.4461 60.446 25.5561 60.482 27.7261C60.554 29.9061 60.772 32.6061 61.135 35.8361H56.725C56.326 32.4261 56.127 29.656 56.127 27.516C56.163 25.366 56.326 23.3161 56.617 21.3561C56.943 19.3961 57.306 16.9661 57.705 14.0661H61.571ZM69.464 35.8361C69.537 35.1561 69.591 34.586 69.628 34.156C69.7 33.716 69.773 33.176 69.845 32.516L69.9 31.8161C70.444 31.7361 70.88 31.7061 71.206 31.7061C71.533 31.6661 71.841 31.6861 72.132 31.7561C72.458 31.7961 72.858 31.8661 73.329 31.9761C73.329 32.7761 73.311 33.4261 73.275 33.9361C73.239 34.4061 73.184 35.0461 73.112 35.8361H69.464ZM61.571 14.0661L60.863 10.906C62.532 10.726 63.839 10.596 64.782 10.526C65.762 10.456 67.051 10.4161 68.648 10.4161C68.974 11.1061 69.21 11.686 69.355 12.156C69.537 12.596 69.682 13.2261 69.791 14.0661H72.894C73.039 14.9361 73.13 15.6961 73.166 16.3561C73.202 17.0061 73.221 17.8361 73.221 18.8561V19.1261C72.676 19.2361 72.241 19.3061 71.914 19.3461C71.624 19.3861 71.315 19.396 70.989 19.396C70.662 19.366 70.226 19.2961 69.682 19.1861L69.573 18.8561V18.3661C69.464 17.3861 69.337 16.606 69.192 16.026C69.083 15.446 68.92 14.7961 68.702 14.0661H66.252C65.236 13.9561 64.438 13.9161 63.857 13.9561C63.276 13.9561 62.514 13.9961 61.571 14.0661ZM90.75 35.8361C90.859 35.0061 90.95 34.2761 91.022 33.6661C91.131 33.0461 91.204 32.3161 91.24 31.4861C91.784 31.3761 92.22 31.3261 92.546 31.3261C92.873 31.3261 93.182 31.3361 93.472 31.3761C93.798 31.4161 94.216 31.4861 94.724 31.5961C94.724 32.4661 94.688 33.196 94.615 33.776C94.542 34.316 94.47 35.0061 94.397 35.8361H90.75ZM82.203 35.8361C83.364 36.0261 84.344 36.1861 85.143 36.3261C85.941 36.4361 86.758 36.456 87.592 36.386C88.427 36.316 89.48 36.1361 90.75 35.8361L91.294 38.9961C90.024 39.5761 88.863 39.9761 87.81 40.1961C86.758 40.4161 85.687 40.4161 84.598 40.1961C83.546 39.9461 82.348 39.5461 81.005 38.9961L82.203 35.8361ZM82.638 14.0661C82.275 16.8961 81.985 19.3461 81.767 21.4161C81.724 21.8161 81.686 22.226 81.653 22.636C81.958 22.736 82.214 22.816 82.421 22.886C82.675 22.956 83.056 22.9961 83.564 22.9961C84.326 23.0261 84.998 23.0461 85.578 23.0461H87.756C88.409 23.0461 88.881 23.0261 89.171 22.9961C89.498 22.9561 89.915 22.886 90.423 22.776C90.46 22.236 90.478 21.7961 90.478 21.4661C90.514 21.1061 90.532 20.6561 90.532 20.1061V19.786C90.532 18.516 90.478 17.4961 90.369 16.7361C90.296 15.9661 90.151 15.0861 89.933 14.0661H87.484C86.431 13.9561 85.596 13.9161 84.979 13.9561C84.399 13.9561 83.618 13.9961 82.638 14.0661L81.767 10.906C83.437 10.686 84.725 10.566 85.633 10.526C86.576 10.456 87.865 10.4161 89.498 10.4161C89.752 11.1061 89.988 11.686 90.206 12.156C90.46 12.596 90.677 13.2261 90.859 14.0661H93.962C94.252 15.8061 94.452 17.2361 94.561 18.3661C94.706 19.4561 94.778 20.926 94.778 22.776C94.778 23.686 94.742 24.3761 94.67 24.8461C94.633 25.3161 94.542 25.8961 94.397 26.5861H85.306C84.362 26.5861 83.673 26.6561 83.237 26.8061C82.802 26.9161 82.221 27.0561 81.495 27.2361C81.495 27.0461 81.493 26.8661 81.488 26.7061C81.487 27.0461 81.489 27.3861 81.495 27.7261C81.568 29.9061 81.804 32.6061 82.203 35.8361H77.848C77.449 32.4661 77.249 29.7061 77.249 27.5661C77.249 25.4261 77.376 23.3761 77.63 21.4161C77.92 19.4161 78.265 16.9661 78.664 14.0661H82.638ZM134.083 35.8361C134.192 35.0061 134.283 34.2761 134.356 33.6661C134.464 33.0461 134.537 32.3161 134.573 31.4861C135.118 31.3761 135.553 31.3261 135.88 31.3261C136.206 31.3261 136.515 31.3361 136.805 31.3761C137.132 31.4161 137.549 31.4861 138.057 31.5961C138.057 32.4661 138.021 33.196 137.949 33.776C137.876 34.316 137.821 35.0061 137.785 35.8361H134.083ZM125.536 35.8361C126.698 36.0261 127.678 36.1861 128.476 36.3261C129.275 36.4361 130.091 36.456 130.926 36.386C131.761 36.316 132.813 36.1361 134.083 35.8361L134.628 38.9961C133.357 39.5761 132.196 39.9761 131.144 40.1961C130.091 40.4161 129.02 40.4161 127.932 40.1961C126.879 39.9461 125.682 39.5461 124.339 38.9961L125.536 35.8361ZM125.972 14.0661C125.609 16.8961 125.319 19.3461 125.101 21.4161C125.058 21.8161 125.02 22.2261 124.986 22.6261C125.326 22.7361 125.601 22.816 125.809 22.886C126.026 22.956 126.389 22.9961 126.897 22.9961C127.66 23.0261 128.331 23.0461 128.912 23.0461H131.089C131.742 23.0461 132.214 23.0261 132.505 22.9961C132.831 22.9561 133.249 22.886 133.757 22.776C133.793 22.236 133.811 21.7961 133.811 21.4661C133.847 21.1061 133.866 20.6561 133.866 20.1061V19.786C133.866 18.516 133.811 17.4961 133.702 16.7361C133.63 15.9661 133.485 15.0861 133.267 14.0661H130.817C129.764 13.9561 128.93 13.9161 128.313 13.9561C127.732 13.9561 126.952 13.9961 125.972 14.0661L125.101 10.906C126.807 10.686 128.113 10.566 129.02 10.526C129.928 10.456 131.198 10.4161 132.831 10.4161C133.085 11.1061 133.321 11.686 133.539 12.156C133.793 12.596 134.011 13.2261 134.192 14.0661H137.295C137.622 15.8061 137.84 17.2361 137.949 18.3661C138.057 19.4561 138.112 20.926 138.112 22.776C138.112 23.686 138.076 24.3761 138.003 24.8461C137.967 25.3161 137.876 25.8961 137.731 26.5861H128.639C127.696 26.5861 127.006 26.6561 126.571 26.8061C126.135 26.9161 125.555 27.0561 124.829 27.2361V25.8561C124.818 26.4761 124.818 27.0961 124.829 27.7261C124.901 29.9061 125.137 32.6061 125.536 35.8361H121.236C120.8 32.4661 120.582 29.7061 120.582 27.5661C120.582 25.4261 120.709 23.3761 120.964 21.4161C121.254 19.4161 121.599 16.9661 121.998 14.0661H125.972ZM103.053 36.0561C103.017 36.6061 103.053 36.966 103.162 37.146C103.307 37.326 103.489 37.5661 103.706 37.8561V37.906C103.743 37.906 103.779 37.9261 103.815 37.9661C103.96 38.1861 104.051 38.3661 104.087 38.5061C104.16 38.6161 104.196 38.7961 104.196 39.0561C104.196 39.3461 104.16 39.5561 104.087 39.7061C104.051 39.8161 103.997 39.9961 103.924 40.2461H98.154C98.045 40.0361 97.972 39.8561 97.936 39.7061C97.9 39.5561 97.881 39.3461 97.881 39.0561C97.881 38.8761 97.9 38.7261 97.936 38.6161C98.008 38.5061 98.117 38.3661 98.262 38.1861C98.299 38.1461 98.335 38.1061 98.371 38.0761C98.444 37.9961 98.498 37.9261 98.535 37.8561C98.644 37.5261 98.716 37.256 98.752 37.036C98.789 36.816 98.807 36.4961 98.807 36.0561V20.2161C98.807 18.9061 98.879 17.8761 99.025 17.1161C99.17 16.3161 99.388 15.2961 99.678 14.0661H102.835C102.944 13.3061 103.089 12.706 103.271 12.266C103.452 11.796 103.634 11.1961 103.815 10.4761C105.412 10.4361 106.664 10.4161 107.572 10.4161C108.479 10.4161 109.749 10.4361 111.382 10.4761C111.564 11.1961 111.727 11.7761 111.872 12.2161C112.054 12.6161 112.235 13.2261 112.417 14.0661H115.52C115.846 15.2661 116.082 16.2461 116.227 17.0061C116.372 17.7261 116.445 18.7461 116.445 20.0561L116.5 36.0561V37.036C116.536 37.256 116.627 37.5261 116.772 37.8561C116.808 37.9661 116.844 38.0361 116.881 38.0761C116.953 38.1061 117.008 38.1661 117.044 38.2361C117.225 38.3861 117.352 38.5061 117.425 38.6161C117.498 38.7261 117.534 38.8861 117.534 39.1061C117.534 39.3961 117.516 39.6161 117.479 39.7561C117.443 39.8661 117.371 40.0361 117.262 40.2461H111.546C111.473 40.0361 111.4 39.8561 111.328 39.7061C111.292 39.5561 111.273 39.3461 111.273 39.0561C111.273 38.7961 111.31 38.6161 111.382 38.5061C111.491 38.3661 111.618 38.1861 111.763 37.9661C111.872 37.6761 111.981 37.4161 112.09 37.2061C112.199 36.9861 112.235 36.6061 112.199 36.0561V19.396C112.199 18.126 112.108 17.166 111.927 16.516C111.745 15.866 111.527 15.0461 111.273 14.0661H109.695C108.969 14.0261 108.388 14.0061 107.953 14.0061C107.553 13.9761 106.991 13.9961 106.265 14.0661H103.924L103.271 16.2961C103.126 16.8761 103.053 17.746 103.053 18.906V36.0561ZM12.194 37.906C12.194 37.296 12.285 36.5661 12.467 35.7361C13.338 35.5461 14.063 35.4561 14.644 35.4561C15.261 35.4561 16.005 35.5361 16.876 35.6761C17.021 36.5461 17.094 37.296 17.094 37.906C17.13 38.486 17.058 39.2161 16.876 40.0861C16.005 40.2661 15.261 40.3561 14.644 40.3561C14.063 40.3561 13.338 40.2661 12.467 40.0861C12.321 39.2161 12.231 38.486 12.194 37.906Z" fill="black"/>
</svg>
