<svg width="139" height="41" viewBox="0 0 139 41" fill="none" xmlns="http://www.w3.org/2000/svg">
<path fill-rule="evenodd" clip-rule="evenodd" d="M4.355 14.2261L1.252 14.9861C0.853 14.1561 0.544 13.3961 0.327 12.7061C0.109 12.0161 0 11.126 0 10.036C0.653 9.56605 1.27 9.18603 1.851 8.89603C2.432 8.56603 3.266 8.27604 4.355 8.02604V4.91605L6.642 4.48612C7.113 4.41612 7.476 4.33603 7.73 4.26603C7.984 4.19603 8.311 4.13612 8.71 4.10612V0.996132C9.545 0.926132 10.198 0.926132 10.67 0.996132C11.178 1.03613 11.831 1.12604 12.63 1.27604C12.702 2.06604 12.702 2.72612 12.63 3.23612C12.557 3.70612 12.43 4.33602 12.249 5.13602L8.71 5.35612V8.40604C7.839 8.51604 7.095 8.63605 6.478 8.78605C5.861 8.89605 5.154 8.98607 4.355 9.05607V10.036C4.174 10.396 4.01 10.7461 3.865 11.0761C3.72 11.3661 3.647 11.756 3.647 12.266C3.647 12.776 3.72 13.1761 3.865 13.4661C4.01 13.7161 4.174 13.9761 4.355 14.2261ZM4.355 14.2261C5.734 14.2661 6.859 14.2061 7.73 14.0661C8.638 13.9161 9.908 13.7161 11.541 13.4661L13.065 13.2461V10.146C13.828 10.076 14.499 9.99606 15.08 9.92606C15.697 9.81606 16.477 9.70612 17.421 9.60612V6.49613C19.163 6.35613 20.614 6.2961 21.776 6.3361C22.937 6.3361 24.389 6.55612 26.131 6.98612V10.146L29.234 10.0961C29.306 10.8561 29.379 11.5061 29.452 12.0561C29.56 12.5561 29.633 13.2261 29.669 14.0661H26.566C26.639 14.9361 26.657 15.6661 26.621 16.2461C26.621 16.8261 26.584 17.5461 26.512 18.4161H23.409C23.3 19.3261 23.1 20.076 22.81 20.656C22.556 21.196 22.247 21.906 21.885 22.776H18.782C18.709 22.956 18.618 23.1061 18.509 23.2161C18.4 23.2861 18.31 23.4061 18.237 23.5961C17.584 24.4661 17.094 25.156 16.767 25.656C16.441 26.166 16.277 26.8261 16.277 27.6161V31.3261C15.769 31.3961 15.352 31.4461 15.025 31.4861C14.698 31.5261 14.372 31.5261 14.045 31.4861C13.755 31.4461 13.338 31.3961 12.793 31.3261V28.386C12.793 27.226 12.884 26.3361 13.065 25.7161C13.247 25.0661 13.465 24.206 13.719 23.156L13.828 22.776H16.931C17.076 22.236 17.239 21.7961 17.421 21.4661C17.638 21.1461 17.856 20.7061 18.074 20.1661C18.219 19.7961 18.364 19.5061 18.509 19.2961C18.691 19.0761 18.872 18.7861 19.054 18.4161H22.157C22.411 17.5461 22.61 16.8561 22.756 16.3561C22.901 15.8061 22.973 15.0461 22.973 14.0661H26.131V10.9661H24.116C23.717 10.7761 23.336 10.6161 22.973 10.4761C22.61 10.3261 22.102 10.2561 21.449 10.2561C20.723 10.2561 20.088 10.3261 19.544 10.4761C18.999 10.5861 18.292 10.7061 17.421 10.8561V13.9561L13.065 14.6061V17.656C11.178 17.916 9.69 18.076 8.601 18.146C7.513 18.216 6.097 18.2061 4.355 18.0961V14.2261ZM39.196 36.4961L36.093 37.2061C35.621 36.4361 35.222 35.836 34.895 35.406C34.605 34.936 34.46 34.2761 34.46 33.4461V31.1061L34.406 27.6761C34.914 27.6061 35.313 27.546 35.603 27.516C35.93 27.436 36.256 27.4161 36.583 27.4561C36.946 27.4961 37.382 27.5661 37.89 27.6761L37.998 28.4961C38.107 30.2361 38.253 31.6261 38.434 32.6861C38.615 33.6961 38.87 34.9661 39.196 36.4961ZM39.196 4.70609V1.05607C41.011 0.906068 42.499 0.856034 43.66 0.896034C44.822 0.896034 46.237 0.926132 47.906 0.996132V4.10612C48.814 4.17612 49.503 4.26614 49.975 4.37614C50.447 4.44614 51.046 4.55609 51.772 4.70609V9.00614C51.808 10.1261 51.826 11.5661 51.826 13.3061C51.318 13.4161 50.901 13.486 50.574 13.516C50.247 13.556 49.921 13.556 49.594 13.516C49.267 13.486 48.832 13.4261 48.287 13.3561C48.215 12.3061 48.142 11.486 48.07 10.906C47.997 10.326 47.943 9.58606 47.906 8.67606V5.89603C46.709 5.39603 45.693 5.00614 44.858 4.75614C44.059 4.50614 43.243 4.37614 42.408 4.37614C41.573 4.37614 40.503 4.48609 39.196 4.70609ZM47.961 35.8361C48.251 33.0861 48.269 30.8661 48.015 29.1961C47.761 27.4961 47.362 25.356 46.818 22.776H43.715C43.606 22.306 43.479 21.926 43.334 21.636C43.188 21.346 43.043 20.9461 42.898 20.4361C42.789 20.0361 42.662 19.7061 42.517 19.4561C42.372 19.1961 42.245 18.8561 42.136 18.4161H39.033C38.742 17.5161 38.507 16.7861 38.325 16.2461C38.144 15.6661 37.998 14.9361 37.89 14.0661H34.841C34.696 12.8661 34.569 11.7761 34.46 10.7961C34.387 9.78606 34.46 8.76613 34.678 7.74613C34.895 6.69613 35.367 5.49604 36.093 4.15604L39.196 4.70609C38.906 5.93609 38.706 7.00605 38.597 7.91605C38.525 8.78605 38.561 9.69602 38.706 10.636C38.851 11.576 39.105 12.7261 39.468 14.0661H42.571C42.753 14.8961 42.971 15.6061 43.225 16.1861C43.515 16.7661 43.805 17.5161 44.096 18.4161H47.144C47.362 19.2961 47.58 19.9961 47.798 20.5461C48.015 21.0861 48.215 21.836 48.396 22.776H51.499C51.899 25.316 52.153 27.436 52.262 29.146C52.407 30.846 52.28 33.0861 51.88 35.8361H47.961ZM39.196 36.4961C40.503 36.6761 41.573 36.7861 42.408 36.8161C43.279 36.8161 44.132 36.7461 44.967 36.6061C45.801 36.4261 46.799 36.1661 47.961 35.8361L48.832 38.9461C47.09 39.4861 45.566 39.886 44.259 40.146C42.952 40.356 41.265 40.4161 39.196 40.3061V36.4961ZM61.571 14.0661L60.863 10.9661C62.532 10.7461 63.839 10.596 64.782 10.526C65.762 10.456 67.051 10.4161 68.648 10.4161C68.974 11.1061 69.21 11.686 69.355 12.156C69.537 12.596 69.682 13.2261 69.791 14.0661H72.839C72.985 14.9361 73.075 15.6961 73.112 16.3561C73.148 17.0061 73.166 17.856 73.166 18.906V19.1861C72.658 19.2561 72.241 19.326 71.914 19.396C71.624 19.436 71.315 19.436 70.989 19.396C70.662 19.366 70.226 19.3061 69.682 19.2361C69.646 19.0961 69.609 18.9661 69.573 18.8561V18.4161C69.428 17.4061 69.283 16.606 69.138 16.026C69.029 15.446 68.884 14.7961 68.702 14.0661H66.252C65.236 13.9561 64.438 13.9161 63.857 13.9561C63.276 13.9561 62.514 13.9961 61.571 14.0661ZM69.41 35.8361C69.519 35.1561 69.591 34.586 69.628 34.156C69.7 33.716 69.773 33.176 69.845 32.516L69.9 31.8161C70.444 31.7361 70.88 31.7061 71.206 31.7061C71.533 31.6661 71.841 31.6861 72.132 31.7561C72.422 31.8261 72.821 31.9061 73.329 31.9761C73.293 32.7761 73.257 33.4261 73.221 33.9361C73.184 34.4061 73.148 35.0461 73.112 35.8361H69.41ZM61.135 35.8361C62.26 36.0561 63.204 36.2261 63.966 36.3261C64.728 36.4361 65.508 36.4761 66.307 36.4361C67.105 36.3661 68.14 36.1661 69.41 35.8361L70.009 38.9461C68.738 39.5561 67.577 39.9761 66.525 40.1961C65.508 40.4161 64.474 40.4161 63.422 40.1961C62.369 39.9761 61.171 39.5561 59.829 38.9461L61.135 35.8361ZM61.571 14.0661C61.244 16.8961 60.972 19.3461 60.754 21.4161C60.536 23.4461 60.446 25.5561 60.482 27.7261C60.554 29.9061 60.772 32.6061 61.135 35.8361H56.725C56.326 32.4261 56.127 29.656 56.127 27.516C56.163 25.366 56.326 23.3161 56.617 21.3561C56.943 19.3661 57.324 16.9361 57.76 14.0661H61.571ZM82.203 35.8361C83.328 36.0561 84.29 36.2261 85.088 36.3261C85.887 36.4361 86.703 36.4761 87.538 36.4361C88.409 36.3661 89.48 36.1661 90.75 35.8361L91.294 38.9461C90.024 39.5561 88.845 39.9761 87.756 40.1961C86.703 40.4161 85.633 40.4161 84.544 40.1961C83.455 39.9461 82.257 39.5261 80.951 38.9461L82.203 35.8361ZM90.75 35.8361C90.859 35.0061 90.95 34.2761 91.022 33.6661C91.131 33.0461 91.204 32.3161 91.24 31.4861C91.784 31.3761 92.22 31.3261 92.546 31.3261C92.873 31.3261 93.182 31.3361 93.472 31.3761C93.798 31.4161 94.216 31.4861 94.724 31.5961C94.688 32.4661 94.633 33.196 94.561 33.776C94.488 34.316 94.434 35.0061 94.397 35.8361H90.75ZM82.638 14.0661C82.275 16.8561 81.967 19.2961 81.713 21.3561C81.669 21.7761 81.63 22.2061 81.596 22.6261C81.937 22.7361 82.212 22.816 82.421 22.886C82.638 22.956 83.001 23.0161 83.51 23.0461H87.701C88.355 23.0461 88.845 23.0261 89.171 22.9961C89.498 22.9561 89.897 22.886 90.369 22.776C90.405 22.236 90.423 21.7961 90.423 21.4661C90.46 21.1061 90.478 20.6561 90.478 20.1061V19.786C90.478 18.516 90.423 17.4961 90.314 16.7361C90.242 15.9361 90.097 15.0461 89.879 14.0661H87.484C86.431 13.9561 85.596 13.9161 84.979 13.9561C84.362 13.9561 83.582 13.9961 82.638 14.0661L81.767 10.9661C83.437 10.7461 84.725 10.596 85.633 10.526C86.54 10.456 87.792 10.4161 89.389 10.4161C89.643 11.1461 89.897 11.726 90.151 12.156C90.441 12.596 90.659 13.2261 90.804 14.0661H93.907C94.234 15.7761 94.452 17.1861 94.561 18.3161C94.706 19.4361 94.76 20.926 94.724 22.776C94.724 23.686 94.688 24.3761 94.615 24.8461C94.579 25.3161 94.488 25.8961 94.343 26.5861H85.197C84.29 26.5861 83.618 26.6561 83.183 26.8061C82.747 26.9161 82.167 27.0561 81.441 27.2361V25.906C81.43 26.526 81.43 27.156 81.441 27.786C81.513 29.966 81.767 32.6461 82.203 35.8361H77.848C77.412 32.4661 77.195 29.7061 77.195 27.5661C77.195 25.3861 77.322 23.3161 77.576 21.3561C77.866 19.3661 78.229 16.9361 78.664 14.0661H82.638ZM134.083 35.8361C134.156 35.0061 134.247 34.2761 134.356 33.6661C134.464 33.0461 134.537 32.3161 134.573 31.4861C135.118 31.3761 135.553 31.3261 135.88 31.3261C136.206 31.3261 136.515 31.3361 136.805 31.3761C137.132 31.4161 137.549 31.4861 138.057 31.5961C138.021 32.4661 137.967 33.196 137.894 33.776C137.821 34.316 137.749 35.0061 137.676 35.8361H134.083ZM125.536 35.8361C126.661 36.0561 127.623 36.2261 128.422 36.3261C129.22 36.4361 130.037 36.4761 130.871 36.4361C131.742 36.3661 132.813 36.1661 134.083 35.8361L134.628 38.9461C133.357 39.5561 132.178 39.9761 131.089 40.1961C130.037 40.4161 128.966 40.4161 127.877 40.1961C126.788 39.9461 125.591 39.5261 124.284 38.9461L125.536 35.8361ZM125.972 14.0661C125.609 16.8561 125.3 19.2961 125.046 21.3561C125.002 21.7761 124.963 22.2061 124.929 22.6261C125.236 22.7361 125.492 22.816 125.7 22.886C125.954 22.956 126.317 23.0161 126.788 23.0461H131.035C131.688 23.0461 132.16 23.0261 132.45 22.9961C132.777 22.9561 133.194 22.886 133.702 22.776C133.739 22.236 133.757 21.7961 133.757 21.4661C133.793 21.1061 133.811 20.6561 133.811 20.1061V19.786C133.811 18.516 133.757 17.4961 133.648 16.7361C133.575 15.9361 133.43 15.0461 133.212 14.0661H130.763C129.746 13.9561 128.93 13.9161 128.313 13.9561C127.696 13.9561 126.916 13.9961 125.972 14.0661L125.101 10.9661C126.734 10.7461 128.004 10.596 128.912 10.526C129.855 10.456 131.125 10.4161 132.722 10.4161C132.976 11.1461 133.23 11.726 133.484 12.156C133.775 12.596 133.993 13.2261 134.138 14.0661H137.241C137.531 15.7761 137.731 17.1861 137.84 18.3161C137.985 19.4361 138.057 20.926 138.057 22.776C138.057 23.686 138.021 24.3761 137.949 24.8461C137.912 25.3161 137.821 25.8961 137.676 26.5861H128.531C127.623 26.5861 126.952 26.6561 126.516 26.8061C126.081 26.9161 125.5 27.0561 124.774 27.2361V25.9161C124.764 26.5361 124.764 27.156 124.774 27.786C124.847 29.966 125.101 32.6461 125.536 35.8361H121.181C120.746 32.4661 120.528 29.7061 120.528 27.5661C120.528 25.3861 120.655 23.3161 120.909 21.3561C121.199 19.3661 121.562 16.9361 121.998 14.0661H125.972ZM102.999 36.0561C102.962 36.6061 102.999 36.966 103.108 37.146C103.253 37.326 103.434 37.5661 103.652 37.8561C103.688 37.8961 103.706 37.9261 103.706 37.9661H103.761C103.906 38.2161 104.015 38.3961 104.087 38.5061C104.16 38.6161 104.196 38.8161 104.196 39.1061C104.196 39.3661 104.16 39.5561 104.087 39.7061C104.051 39.8161 103.979 39.9961 103.87 40.2461H98.099C97.99 40.0361 97.9 39.8561 97.827 39.7061C97.791 39.5561 97.772 39.3461 97.772 39.0561C97.772 38.8761 97.809 38.7261 97.881 38.6161C97.954 38.5061 98.063 38.3861 98.208 38.2361C98.244 38.1661 98.281 38.1061 98.317 38.0761C98.39 37.9961 98.444 37.946 98.48 37.906C98.589 37.586 98.662 37.3061 98.698 37.0961C98.734 36.8761 98.752 36.5261 98.752 36.0561V20.276C98.752 18.966 98.825 17.9161 98.97 17.1161C99.115 16.3161 99.351 15.2961 99.678 14.0661H102.781C102.89 13.3061 103.035 12.706 103.216 12.266C103.398 11.836 103.597 11.2361 103.815 10.4761C105.376 10.4361 106.61 10.4161 107.517 10.4161C108.424 10.4161 109.695 10.456 111.328 10.526C111.509 11.216 111.673 11.7761 111.818 12.2161C111.999 12.6161 112.181 13.2261 112.362 14.0661H115.465C115.792 15.2661 116.028 16.2461 116.173 17.0061C116.318 17.7261 116.391 18.7461 116.391 20.0561L116.445 36.0561C116.445 36.4961 116.463 36.8361 116.5 37.0961C116.536 37.3061 116.608 37.586 116.717 37.906C116.79 37.986 116.844 38.0361 116.881 38.0761C116.953 38.1061 117.008 38.1661 117.044 38.2361C117.189 38.3861 117.298 38.5061 117.371 38.6161C117.479 38.7261 117.534 38.8861 117.534 39.1061C117.534 39.3961 117.516 39.6161 117.479 39.7561C117.443 39.8661 117.352 40.0361 117.207 40.2461H111.491C111.419 40.0361 111.346 39.8561 111.273 39.7061C111.237 39.5561 111.219 39.3661 111.219 39.1061C111.219 38.8161 111.255 38.6161 111.328 38.5061C111.4 38.3661 111.527 38.1861 111.709 37.9661C111.854 37.6761 111.963 37.4161 112.036 37.2061C112.144 36.9861 112.199 36.6061 112.199 36.0561V19.396C112.199 18.096 112.09 17.1161 111.872 16.4561C111.691 15.8061 111.455 15.0061 111.164 14.0661H109.64C108.914 14.0261 108.334 14.0061 107.898 14.0061C107.499 13.9761 106.936 13.9961 106.211 14.0661H103.924C103.67 14.8961 103.452 15.6261 103.271 16.2461C103.089 16.8561 102.999 17.746 102.999 18.906V36.0561ZM12.194 37.906C12.194 37.296 12.285 36.5661 12.467 35.7361C13.338 35.5461 14.063 35.4561 14.644 35.4561C15.261 35.4261 15.987 35.4961 16.822 35.6761C17.003 36.5461 17.094 37.296 17.094 37.906C17.094 38.486 17.021 39.2161 16.876 40.0861C15.969 40.2661 15.207 40.3561 14.59 40.3561C14.009 40.3561 13.301 40.2661 12.467 40.0861C12.285 39.2161 12.194 38.486 12.194 37.906Z" fill="black"/>
</svg>
