<svg width="140" height="40" viewBox="0 0 140 40" fill="none" xmlns="http://www.w3.org/2000/svg">
<path fill-rule="evenodd" clip-rule="evenodd" d="M4.355 13.065L0.109 13.174C0.073 12.231 0.036 11.505 0 10.997V8.765C0.907 8.692 1.615 8.638 2.123 8.601C2.631 8.565 3.375 8.547 4.355 8.547V4.30099L6.642 4.246H8.71V0H13.011V2.177C13.011 2.649 12.993 3.375 12.957 4.355H8.71V8.601C7.767 8.601 7.041 8.61901 6.533 8.65601H4.355V9.96201C4.319 10.325 4.301 10.597 4.301 10.779V12.412C4.301 12.557 4.319 12.775 4.355 13.065ZM4.355 13.065H7.894C8.692 13.065 9.908 13.047 11.541 13.011L13.065 12.956V8.765H15.189C15.697 8.728 16.441 8.71001 17.421 8.71001V4.464H21.776C22.756 4.464 24.207 4.48201 26.131 4.51801V8.765H30.377V13.065H26.185V17.42H21.939C21.939 18.364 21.921 19.09 21.885 19.598C21.848 20.07 21.812 20.796 21.776 21.776H17.584C17.548 21.957 17.529 22.084 17.529 22.157V22.538C17.457 23.3 17.402 23.88 17.366 24.28C17.33 24.679 17.312 25.278 17.312 26.076V30.486H13.065V24.715C13.065 24.171 13.084 23.336 13.12 22.211V21.776H17.366C17.366 21.159 17.384 20.705 17.421 20.415C17.457 20.124 17.475 19.671 17.475 19.054C17.511 18.691 17.529 18.418 17.529 18.237C17.566 18.056 17.584 17.783 17.584 17.42H21.83V15.297C21.866 14.789 21.885 14.045 21.885 13.065H26.131V8.819H22.157C21.866 8.783 21.413 8.765 20.796 8.765C20.07 8.765 19.507 8.783 19.108 8.819H17.421V13.065L13.065 13.12V17.366C11.142 17.366 9.69 17.384 8.71 17.42C7.73 17.42 6.279 17.402 4.355 17.366V13.065ZM39.196 4.30099V0H47.906V4.246H50.03C50.538 4.246 51.263 4.26399 52.207 4.30099V13.011H47.961C47.925 11.958 47.906 11.16 47.906 10.616V4.409C46.491 4.373 45.402 4.33699 44.64 4.30099C43.914 4.26399 43.188 4.246 42.462 4.246C41.737 4.246 40.648 4.26399 39.196 4.30099ZM39.196 34.895L34.95 35.004C34.914 34.061 34.877 33.353 34.841 32.881C34.805 32.373 34.786 31.647 34.786 30.704V26.185H39.087V30.976C39.124 31.847 39.16 33.153 39.196 34.895ZM47.906 34.841L48.015 39.087C46.092 39.123 44.622 39.16 43.606 39.196H39.196V34.895C40.648 34.932 41.737 34.95 42.462 34.95H44.64C45.402 34.913 46.491 34.877 47.906 34.841ZM39.087 13.065H34.841C34.841 11.65 34.823 10.561 34.786 9.799V7.51199C34.823 6.74999 34.877 5.662 34.95 4.246L39.196 4.30099C39.16 5.71599 39.142 6.805 39.142 7.567V9.799C39.142 10.525 39.178 11.614 39.251 13.065H43.442C43.479 14.009 43.497 14.735 43.497 15.243C43.533 15.715 43.569 16.44 43.606 17.42H47.852V19.598C47.888 20.07 47.925 20.796 47.961 21.776H52.207C52.243 24.606 52.262 26.766 52.262 28.254C52.262 29.705 52.243 31.901 52.207 34.841H47.906C47.943 31.974 47.943 29.814 47.906 28.363C47.87 26.911 47.834 24.715 47.798 21.776H43.551C43.551 21.267 43.533 20.886 43.497 20.632V19.435C43.461 18.999 43.442 18.672 43.442 18.455C43.442 18.237 43.424 17.892 43.388 17.42H39.196C39.16 16.477 39.124 15.769 39.087 15.297V13.065ZM60.972 34.841C62.387 34.877 63.458 34.895 64.184 34.895H66.416C67.141 34.895 68.23 34.877 69.682 34.841L69.736 39.087C68.285 39.123 67.178 39.16 66.416 39.196C65.653 39.232 64.891 39.232 64.129 39.196C63.403 39.16 62.315 39.123 60.863 39.087L60.972 34.841ZM61.026 13.065C60.99 16.622 60.954 19.326 60.917 21.177V26.675C60.917 28.526 60.935 31.248 60.972 34.841H56.617C56.58 31.248 56.562 28.526 56.562 26.675C56.562 24.824 56.58 22.991 56.617 21.177C56.653 19.326 56.689 16.622 56.725 13.065H61.026ZM69.682 34.841V30.54C70.408 30.504 70.952 30.486 71.315 30.486C71.678 30.486 72.023 30.504 72.35 30.54H73.983C73.983 31.484 73.965 32.21 73.928 32.718V34.841H69.682ZM61.026 13.065L60.972 8.819H65.272C66.252 8.783 67.686 8.765 69.573 8.765C69.609 9.744 69.628 10.47 69.628 10.942C69.664 11.414 69.682 12.122 69.682 13.065H73.928V17.475C73.239 17.511 72.712 17.529 72.35 17.529H69.682V16.767C69.646 15.932 69.628 15.315 69.628 14.916C69.628 14.481 69.609 13.864 69.573 13.065H61.026ZM91.403 34.841V32.663C91.403 32.155 91.421 31.429 91.458 30.486H95.704C95.704 31.466 95.686 32.21 95.649 32.718V34.841H91.403ZM82.693 34.841C84.108 34.877 85.179 34.895 85.905 34.895H88.082C88.845 34.895 89.951 34.877 91.403 34.841L91.458 39.087C90.006 39.123 88.899 39.16 88.137 39.196C87.375 39.232 86.613 39.232 85.85 39.196C85.088 39.16 83.999 39.123 82.584 39.087L82.693 34.841ZM82.747 13.065C82.711 16.622 82.675 19.326 82.638 21.177C82.615 22.355 82.599 23.541 82.591 24.735C82.599 24.52 82.615 24.26 82.638 23.953V21.776H84.87C85.742 21.812 86.395 21.83 86.83 21.83H90.042C90.333 21.794 90.768 21.776 91.349 21.776V15.733C91.349 15.116 91.331 14.227 91.294 13.065H82.747L82.638 8.819H86.939C87.919 8.783 89.353 8.765 91.24 8.765C91.276 9.744 91.294 10.47 91.294 10.942C91.331 11.414 91.367 12.122 91.403 13.065H95.595C95.631 14.989 95.649 16.44 95.649 17.42C95.686 18.4 95.704 19.852 95.704 21.776V24.008C95.704 24.479 95.686 25.169 95.649 26.076H87.211C86.159 26.076 85.379 26.094 84.87 26.131H82.638C82.638 25.645 82.622 25.291 82.589 25.071C82.586 25.604 82.584 26.139 82.584 26.675C82.62 28.526 82.657 31.248 82.693 34.841H78.338C78.302 31.248 78.283 28.526 78.283 26.675V21.177L78.447 13.065H82.747ZM134.9 34.841V32.663C134.936 32.155 134.954 31.429 134.954 30.486H139.201V34.841H134.9ZM126.244 34.841C127.66 34.877 128.73 34.895 129.456 34.895H131.634C132.396 34.895 133.484 34.877 134.9 34.841L134.954 39.087C133.539 39.123 132.45 39.16 131.688 39.196C130.926 39.232 130.164 39.232 129.402 39.196C128.639 39.16 127.533 39.123 126.081 39.087L126.244 34.841ZM126.244 13.065C126.208 16.622 126.172 19.326 126.135 21.177V21.776H128.422C129.256 21.812 129.892 21.83 130.327 21.83H133.593C133.884 21.794 134.319 21.776 134.9 21.776V18.564C134.9 17.293 134.882 16.35 134.845 15.733V13.065H126.244L126.19 8.819H130.49C131.47 8.783 132.904 8.765 134.791 8.765C134.791 9.744 134.809 10.47 134.845 10.942C134.882 11.414 134.9 12.122 134.9 13.065H139.146C139.182 14.989 139.201 16.44 139.201 17.42C139.237 18.4 139.255 19.852 139.255 21.776C139.255 22.755 139.237 23.499 139.201 24.008V26.076H130.708C129.692 26.076 128.912 26.094 128.367 26.131H126.135V26.675C126.135 28.526 126.172 31.248 126.244 34.841H121.889C121.816 31.248 121.78 28.526 121.78 26.675C121.78 24.824 121.798 22.991 121.835 21.177C121.871 19.326 121.907 16.622 121.943 13.065H126.244ZM104.36 15.461V35.712C104.396 35.857 104.414 36.111 104.414 36.474V36.583L104.468 36.637V39.196H99.95C99.95 38.906 99.932 38.688 99.896 38.543V37.4C99.932 37.291 99.95 37.145 99.95 36.964V36.855C99.986 36.783 100.004 36.71 100.004 36.637V16.059C100.041 15.406 100.077 14.408 100.113 13.065H104.36V10.997C104.396 10.488 104.432 9.744 104.468 8.765H108.715C109.658 8.765 111.092 8.783 113.015 8.819C113.052 9.726 113.07 10.416 113.07 10.888C113.106 11.36 113.124 12.085 113.124 13.065H117.371C117.407 14.372 117.425 15.352 117.425 16.005C117.461 16.622 117.479 17.602 117.479 18.945V36.637C117.516 36.746 117.534 36.819 117.534 36.855V37.454C117.57 37.563 117.588 37.708 117.588 37.889V38.543C117.588 38.688 117.57 38.906 117.534 39.196H113.07C113.034 38.906 113.015 38.688 113.015 38.543V37.291C113.052 37.145 113.07 36.928 113.07 36.637V35.766C113.106 35.585 113.124 35.276 113.124 34.841V18.564C113.124 17.33 113.106 16.404 113.07 15.787C113.07 15.17 113.052 14.263 113.015 13.065H104.468C104.432 14.081 104.396 14.88 104.36 15.461ZM12.957 36.964C12.957 36.456 12.975 35.748 13.011 34.841C13.991 34.805 14.717 34.786 15.189 34.786C15.697 34.786 16.422 34.805 17.366 34.841V39.196H13.011C12.975 38.216 12.957 37.472 12.957 36.964Z" fill="black"/>
</svg>
