<svg width="139" height="41" viewBox="0 0 139 41" fill="none" xmlns="http://www.w3.org/2000/svg">
<path fill-rule="evenodd" clip-rule="evenodd" d="M4.355 14.2261L1.307 14.9861C0.907 14.1961 0.581 13.4461 0.327 12.7561C0.109 12.0361 0 11.126 0 10.036C0.653 9.566 1.27 9.16605 1.851 8.83605C2.432 8.51605 3.266 8.22606 4.355 7.96606V4.91601L6.642 4.48608C7.113 4.37608 7.476 4.28606 7.73 4.21606C7.984 4.13606 8.311 4.08601 8.71 4.04601V0.996087C9.545 0.926087 10.198 0.926087 10.67 0.996087C11.178 1.03609 11.813 1.12599 12.575 1.27599C12.648 2.10599 12.648 2.75608 12.575 3.23608C12.539 3.70608 12.412 4.31605 12.194 5.08605L8.71 5.35607V8.406C7.839 8.476 7.095 8.58607 6.478 8.72607C5.861 8.87607 5.154 8.9661 4.355 9.0061V9.98608C4.174 10.3861 3.992 10.726 3.811 11.016C3.666 11.306 3.593 11.726 3.593 12.266C3.593 12.776 3.666 13.1761 3.811 13.4661C3.992 13.7161 4.174 13.9761 4.355 14.2261ZM4.355 14.2261C5.698 14.2661 6.823 14.206 7.73 14.066C8.638 13.916 9.908 13.7161 11.541 13.4661L13.065 13.196V10.146C13.828 10.106 14.499 10.036 15.08 9.92602C15.697 9.81602 16.477 9.70607 17.421 9.60607V6.55602C19.163 6.40602 20.614 6.35598 21.776 6.38598C22.937 6.38598 24.389 6.60601 26.131 7.04601V10.196L29.179 10.0961C29.288 10.8561 29.379 11.506 29.452 12.056C29.524 12.556 29.597 13.226 29.669 14.066H26.621C26.657 14.936 26.675 15.6661 26.675 16.2461C26.675 16.8261 26.621 17.546 26.512 18.416H23.463C23.354 19.326 23.155 20.076 22.864 20.656C22.574 21.196 22.247 21.906 21.885 22.776H18.836C18.727 22.956 18.618 23.1061 18.509 23.2161C18.437 23.3161 18.346 23.466 18.237 23.646C17.584 24.516 17.076 25.2061 16.713 25.7161C16.386 26.1861 16.223 26.836 16.223 27.676V31.326C15.715 31.396 15.297 31.4461 14.971 31.4861C14.68 31.5261 14.372 31.5261 14.045 31.4861C13.719 31.4461 13.301 31.396 12.793 31.326V28.386C12.793 27.226 12.884 26.3361 13.065 25.7161C13.247 25.0661 13.483 24.206 13.773 23.156L13.882 22.776H16.931C17.076 22.236 17.239 21.7961 17.421 21.4661C17.638 21.1461 17.856 20.706 18.074 20.166C18.219 19.796 18.382 19.506 18.564 19.296C18.745 19.076 18.927 18.786 19.108 18.416H22.157C22.447 17.546 22.665 16.8561 22.81 16.3561C22.955 15.8061 23.028 15.046 23.028 14.066H26.131V11.016H24.116C23.717 10.796 23.336 10.636 22.973 10.526C22.61 10.386 22.12 10.306 21.503 10.306C20.778 10.306 20.124 10.3661 19.544 10.4761C18.999 10.5861 18.292 10.726 17.421 10.906V13.956L13.065 14.6061V17.656C11.214 17.916 9.726 18.076 8.601 18.146C7.513 18.216 6.097 18.186 4.355 18.036V14.2261ZM39.196 36.4961L36.148 37.2561C35.639 36.4961 35.222 35.896 34.895 35.456C34.605 34.986 34.46 34.3361 34.46 33.4961L34.406 31.156V27.7261C34.914 27.6161 35.313 27.546 35.603 27.516C35.93 27.436 36.256 27.416 36.583 27.456C36.91 27.496 37.345 27.566 37.89 27.676L37.944 28.4961C38.089 30.2661 38.253 31.6861 38.434 32.7361C38.615 33.7561 38.87 35.0061 39.196 36.4961ZM39.196 4.64599V1.10607C41.011 0.896072 42.499 0.796052 43.66 0.836052C44.858 0.876052 46.273 0.926087 47.906 0.996087V4.04601C48.777 4.12601 49.449 4.21603 49.921 4.31603C50.429 4.39603 51.028 4.50599 51.717 4.64599C51.753 6.35599 51.772 7.78604 51.772 8.94604C51.808 10.076 51.826 11.526 51.826 13.306C51.318 13.376 50.901 13.446 50.574 13.516C50.247 13.556 49.921 13.556 49.594 13.516C49.267 13.486 48.832 13.416 48.287 13.306C48.215 12.246 48.142 11.4361 48.07 10.8561C48.033 10.2761 47.979 9.52609 47.906 8.62609V5.95605C46.709 5.37605 45.693 4.9761 44.858 4.7561C44.059 4.5061 43.243 4.37609 42.408 4.37609C41.573 4.37609 40.503 4.46599 39.196 4.64599ZM47.961 35.8361C48.251 33.0861 48.269 30.846 48.015 29.146C47.761 27.436 47.362 25.316 46.818 22.776H43.769C43.624 22.306 43.479 21.926 43.334 21.636C43.188 21.346 43.025 20.946 42.844 20.436C42.735 20.036 42.608 19.706 42.462 19.456C42.354 19.196 42.227 18.856 42.081 18.416H39.033C38.742 17.516 38.488 16.7861 38.271 16.2461C38.089 15.6661 37.962 14.936 37.89 14.066H34.841C34.696 12.866 34.569 11.776 34.46 10.796C34.387 9.78601 34.46 8.74604 34.678 7.69604C34.895 6.64604 35.385 5.44607 36.148 4.10607L39.196 4.64599C38.906 5.88599 38.706 6.95607 38.597 7.85607C38.488 8.76607 38.507 9.69598 38.652 10.636C38.833 11.576 39.105 12.726 39.468 14.066H42.517C42.698 14.896 42.934 15.606 43.225 16.186C43.515 16.766 43.805 17.516 44.096 18.416H47.144C47.362 19.296 47.58 19.996 47.798 20.546C48.015 21.086 48.233 21.836 48.451 22.776H51.499C51.899 25.276 52.153 27.406 52.262 29.146C52.407 30.886 52.28 33.1161 51.88 35.8361H47.961ZM39.196 36.4961C40.466 36.6761 41.537 36.786 42.408 36.816C43.315 36.856 44.168 36.7861 44.967 36.6061C45.801 36.4261 46.799 36.1661 47.961 35.8361L48.832 38.886C47.126 39.466 45.602 39.886 44.259 40.146C42.952 40.356 41.265 40.416 39.196 40.306V36.4961ZM61.625 14.066L60.863 11.016C62.532 10.796 63.839 10.6561 64.782 10.5861C65.726 10.5061 66.996 10.4761 68.593 10.4761C68.92 11.1261 69.174 11.686 69.355 12.156C69.537 12.596 69.682 13.226 69.791 14.066H72.839C72.985 14.936 73.057 15.716 73.057 16.406C73.094 17.056 73.112 17.896 73.112 18.906V19.186C72.604 19.296 72.204 19.386 71.914 19.456C71.624 19.496 71.315 19.496 70.989 19.456C70.662 19.416 70.226 19.3461 69.682 19.2361L69.573 18.906V18.416C69.428 17.406 69.283 16.606 69.138 16.026C69.029 15.446 68.865 14.796 68.648 14.066H66.252C65.236 13.956 64.438 13.916 63.857 13.956C63.276 13.956 62.532 13.996 61.625 14.066ZM61.135 35.8361C62.26 36.0561 63.204 36.236 63.966 36.386C64.728 36.496 65.508 36.516 66.307 36.436C67.105 36.366 68.14 36.1661 69.41 35.8361L70.009 38.886C68.738 39.506 67.577 39.946 66.525 40.196C65.508 40.446 64.456 40.446 63.367 40.196C62.315 39.976 61.117 39.546 59.774 38.886L61.135 35.8361ZM61.625 14.066C61.262 16.856 60.972 19.2961 60.754 21.3561C60.536 23.3961 60.446 25.5161 60.482 27.7261C60.554 29.9461 60.772 32.6461 61.135 35.8361H56.725C56.326 32.4661 56.127 29.686 56.127 27.516C56.163 25.336 56.326 23.266 56.617 21.306C56.943 19.306 57.342 16.896 57.814 14.066H61.625ZM69.41 35.8361L69.682 34.206C69.754 33.776 69.809 33.226 69.845 32.576L69.9 31.816C70.444 31.736 70.88 31.706 71.206 31.706C71.533 31.706 71.841 31.736 72.132 31.816C72.422 31.846 72.803 31.9061 73.275 31.9761C73.275 32.7761 73.257 33.426 73.221 33.936C73.184 34.406 73.13 35.0461 73.057 35.8361H69.41ZM90.695 35.8361C90.804 35.0061 90.913 34.276 91.022 33.666C91.131 33.046 91.204 32.3161 91.24 31.4861C91.784 31.3761 92.202 31.326 92.492 31.326C92.819 31.286 93.127 31.3061 93.417 31.3761C93.744 31.4161 94.161 31.4861 94.67 31.5961C94.633 32.4261 94.579 33.156 94.506 33.776C94.434 34.356 94.379 35.0461 94.343 35.8361H90.695ZM82.149 35.8361C83.31 36.0561 84.29 36.236 85.088 36.386C85.887 36.496 86.703 36.516 87.538 36.436C88.373 36.366 89.425 36.1661 90.695 35.8361L91.294 38.886C90.024 39.546 88.845 39.976 87.756 40.196C86.703 40.416 85.614 40.416 84.489 40.196C83.401 39.946 82.203 39.506 80.896 38.886L82.149 35.8361ZM82.638 14.066C82.239 16.856 81.913 19.2961 81.659 21.3561C81.614 21.7761 81.574 22.2061 81.54 22.6261C81.882 22.7361 82.158 22.826 82.366 22.936C82.584 23.016 82.947 23.046 83.455 23.046H87.647C88.336 23.046 88.826 23.0261 89.117 22.9961C89.443 22.9561 89.843 22.886 90.314 22.776C90.387 22.236 90.423 21.7961 90.423 21.4661V19.786C90.423 18.516 90.369 17.4961 90.26 16.7361C90.187 15.9361 90.042 15.046 89.824 14.066H87.429C86.413 13.916 85.596 13.866 84.979 13.906C84.362 13.936 83.582 13.996 82.638 14.066L81.713 11.016C83.382 10.766 84.671 10.6161 85.578 10.5861C86.486 10.5061 87.738 10.4761 89.334 10.4761C89.589 11.1661 89.843 11.726 90.097 12.156C90.387 12.596 90.623 13.226 90.804 14.066H93.853C94.18 15.776 94.397 17.186 94.506 18.316C94.651 19.436 94.706 20.926 94.67 22.776C94.67 23.686 94.651 24.3761 94.615 24.8461C94.579 25.3161 94.47 25.876 94.288 26.536H85.143C84.235 26.536 83.564 26.6061 83.128 26.7461C82.693 26.8961 82.13 27.0561 81.441 27.2361C81.405 26.7361 81.386 26.3161 81.386 25.9861V25.8561C81.376 26.4661 81.376 27.0961 81.386 27.7261C81.459 29.9461 81.713 32.6461 82.149 35.8361H77.848C77.412 32.5061 77.176 29.746 77.14 27.566C77.14 25.386 77.285 23.306 77.576 21.306C77.866 19.306 78.229 16.896 78.664 14.066H82.638ZM134.029 35.8361C134.138 35.0061 134.247 34.276 134.356 33.666C134.464 33.046 134.537 32.3161 134.573 31.4861C135.081 31.3761 135.499 31.326 135.825 31.326C136.152 31.286 136.46 31.3061 136.751 31.3761C137.077 31.4161 137.495 31.4861 138.003 31.5961C137.967 32.4261 137.912 33.156 137.84 33.776C137.767 34.356 137.694 35.0461 137.622 35.8361H134.029ZM125.482 35.8361C126.643 36.0561 127.623 36.236 128.422 36.386C129.22 36.496 130.037 36.516 130.871 36.436C131.706 36.366 132.759 36.1661 134.029 35.8361L134.573 38.886C133.339 39.546 132.178 39.976 131.089 40.196C130.037 40.416 128.948 40.416 127.823 40.196C126.734 39.946 125.536 39.506 124.23 38.886L125.482 35.8361ZM125.972 14.066C125.573 16.856 125.246 19.2961 124.992 21.3561C124.947 21.7761 124.907 22.2061 124.873 22.6261C125.18 22.7361 125.438 22.826 125.645 22.936C125.899 23.016 126.262 23.046 126.734 23.046H130.98C131.634 23.046 132.124 23.0261 132.45 22.9961C132.777 22.9561 133.176 22.886 133.648 22.776C133.72 22.236 133.757 21.7961 133.757 21.4661V19.786C133.757 18.516 133.702 17.4961 133.593 16.7361C133.521 15.9361 133.376 15.046 133.158 14.066H130.763C129.746 13.916 128.93 13.866 128.313 13.906C127.696 13.936 126.916 13.996 125.972 14.066L125.046 11.016C126.68 10.766 127.95 10.6161 128.857 10.5861C129.801 10.5061 131.071 10.4761 132.668 10.4761C132.922 11.1661 133.176 11.726 133.43 12.156C133.72 12.596 133.956 13.226 134.138 14.066H137.186C137.477 15.776 137.694 17.186 137.84 18.316C137.985 19.436 138.039 20.926 138.003 22.776C138.003 23.686 137.967 24.3761 137.894 24.8461C137.858 25.3161 137.767 25.876 137.622 26.536H128.476C127.532 26.536 126.843 26.6061 126.407 26.7461C126.008 26.8961 125.446 27.0561 124.72 27.2361V25.8561C124.71 26.4761 124.71 27.0961 124.72 27.7261C124.792 29.9461 125.046 32.6461 125.482 35.8361H121.181C120.746 32.5061 120.51 29.746 120.474 27.566C120.474 25.386 120.619 23.306 120.909 21.306C121.199 19.306 121.562 16.896 121.998 14.066H125.972ZM102.944 36.1161C102.908 36.6261 102.944 36.986 103.053 37.206C103.198 37.386 103.38 37.6061 103.597 37.8561C103.634 37.8961 103.652 37.9261 103.652 37.9661C103.688 37.9661 103.724 37.986 103.761 38.016C103.906 38.236 103.997 38.3961 104.033 38.5061C104.106 38.6161 104.142 38.8161 104.142 39.1061C104.142 39.3661 104.124 39.556 104.087 39.706C104.051 39.816 103.979 39.9961 103.87 40.2461H98.045C97.9 40.0361 97.809 39.8661 97.772 39.7561C97.736 39.6161 97.718 39.3961 97.718 39.1061C97.718 38.9261 97.736 38.776 97.772 38.676C97.845 38.566 97.972 38.4161 98.154 38.2361C98.19 38.1661 98.226 38.106 98.262 38.076C98.335 37.996 98.39 37.946 98.426 37.906C98.535 37.586 98.607 37.3061 98.644 37.0961C98.68 36.8761 98.698 36.5461 98.698 36.1161V20.276C98.698 18.966 98.771 17.9161 98.916 17.1161C99.061 16.3161 99.315 15.296 99.678 14.066H102.726C102.835 13.306 102.98 12.706 103.162 12.266C103.38 11.836 103.579 11.256 103.761 10.526C105.358 10.486 106.61 10.4761 107.517 10.4761C108.424 10.4761 109.658 10.486 111.219 10.526C111.437 11.256 111.618 11.8161 111.763 12.2161C111.945 12.6161 112.126 13.226 112.308 14.066H115.356C115.719 15.266 115.973 16.2461 116.118 17.0061C116.3 17.7661 116.391 18.786 116.391 20.056V36.1161C116.391 36.5161 116.409 36.8361 116.445 37.0961C116.481 37.3061 116.572 37.586 116.717 37.906C116.754 37.986 116.79 38.036 116.826 38.076C116.899 38.106 116.971 38.186 117.044 38.286C117.189 38.436 117.298 38.566 117.371 38.676C117.479 38.776 117.534 38.9261 117.534 39.1061C117.534 39.3961 117.516 39.6161 117.479 39.7561C117.443 39.8661 117.352 40.0361 117.207 40.2461H111.437C111.364 40.0361 111.292 39.856 111.219 39.706C111.183 39.556 111.164 39.3661 111.164 39.1061C111.164 38.8161 111.201 38.6161 111.273 38.5061C111.346 38.3661 111.473 38.1861 111.654 37.9661C111.8 37.6761 111.908 37.4361 111.981 37.2561C112.09 37.0361 112.144 36.6561 112.144 36.1161V19.3461C112.144 18.0761 112.036 17.116 111.818 16.456C111.636 15.806 111.4 15.006 111.11 14.066H109.586C108.86 13.996 108.279 13.956 107.844 13.956C107.444 13.956 106.882 13.996 106.156 14.066H103.87C103.616 14.896 103.398 15.6261 103.216 16.2461C103.035 16.8561 102.944 17.746 102.944 18.906V36.1161ZM12.14 37.906C12.14 37.296 12.231 36.5661 12.412 35.7361C13.283 35.5161 14.027 35.406 14.644 35.406C15.261 35.406 15.987 35.496 16.822 35.676C17.003 36.546 17.094 37.296 17.094 37.906C17.094 38.486 17.003 39.2161 16.822 40.0861C15.951 40.2661 15.207 40.3561 14.59 40.3561C14.009 40.3561 13.301 40.2661 12.467 40.0861C12.249 39.2161 12.14 38.486 12.14 37.906Z" fill="black"/>
</svg>
