<svg width="138" height="41" viewBox="0 0 138 41" fill="none" xmlns="http://www.w3.org/2000/svg">
<path fill-rule="evenodd" clip-rule="evenodd" d="M4.355 14.2261L1.361 15.046C0.925 14.246 0.581 13.506 0.327 12.816C0.109 12.086 0 11.166 0 10.036C0.653 9.566 1.27 9.16605 1.851 8.83605C2.432 8.47605 3.266 8.16601 4.355 7.91601V4.91601L6.642 4.42602C7.113 4.31602 7.476 4.226 7.73 4.156C7.984 4.086 8.311 4.02609 8.71 3.99609V0.996087C9.545 0.926087 10.198 0.926087 10.67 0.996087C11.178 1.03609 11.813 1.12599 12.575 1.27599C12.648 2.10599 12.648 2.75608 12.575 3.23608C12.503 3.70608 12.376 4.31605 12.194 5.08605L8.71 5.35607V8.34606C7.839 8.42606 7.095 8.52602 6.478 8.67602C5.861 8.81602 5.154 8.9261 4.355 9.0061V9.92602C4.137 10.326 3.956 10.686 3.811 11.016C3.666 11.306 3.593 11.726 3.593 12.266C3.593 12.776 3.666 13.1761 3.811 13.4661C3.956 13.7161 4.137 13.9761 4.355 14.2261ZM4.355 14.2261C5.698 14.2661 6.823 14.206 7.73 14.066C8.638 13.916 9.908 13.706 11.541 13.416L13.065 13.196V10.146C13.828 10.106 14.499 10.036 15.08 9.92602C15.697 9.81602 16.477 9.70607 17.421 9.60607V6.60607C19.163 6.46607 20.614 6.38598 21.776 6.38598C22.937 6.38598 24.389 6.62606 26.131 7.09606V10.196L29.125 10.0961C29.234 10.8561 29.325 11.506 29.397 12.056C29.506 12.556 29.578 13.226 29.615 14.066H26.621C26.693 14.936 26.711 15.6661 26.675 16.2461C26.675 16.8261 26.621 17.546 26.512 18.416H23.518C23.409 19.326 23.209 20.076 22.919 20.656C22.629 21.196 22.284 21.906 21.885 22.776H18.89C18.782 22.956 18.673 23.1061 18.564 23.2161C18.491 23.3161 18.4 23.466 18.292 23.646C17.602 24.516 17.076 25.2061 16.713 25.7161C16.386 26.1861 16.223 26.836 16.223 27.676V31.326C15.715 31.396 15.297 31.4461 14.971 31.4861C14.644 31.5261 14.318 31.5261 13.991 31.4861C13.701 31.4461 13.301 31.396 12.793 31.326V28.386C12.793 27.226 12.884 26.3361 13.065 25.7161C13.247 25.0661 13.483 24.206 13.773 23.156L13.882 22.776H16.876C17.021 22.236 17.203 21.7961 17.421 21.4661C17.638 21.1461 17.856 20.706 18.074 20.166C18.255 19.796 18.437 19.506 18.618 19.296C18.8 19.076 18.981 18.786 19.163 18.416H22.157C22.447 17.546 22.665 16.8561 22.81 16.3561C22.991 15.8061 23.082 15.046 23.082 14.066H26.131V11.076H24.171C23.772 10.856 23.391 10.676 23.028 10.526C22.665 10.386 22.157 10.306 21.503 10.306C20.778 10.306 20.124 10.386 19.544 10.526C18.999 10.636 18.292 10.7761 17.421 10.9661V13.956L13.065 14.6061V17.6061C11.214 17.8961 9.726 18.076 8.601 18.146C7.476 18.216 6.061 18.186 4.355 18.036V14.2261ZM39.196 36.4961L36.202 37.306C35.694 36.546 35.277 35.946 34.95 35.516C34.623 35.046 34.46 34.386 34.46 33.556L34.406 31.2161L34.351 27.7261C34.859 27.6161 35.258 27.546 35.549 27.516C35.875 27.476 36.202 27.476 36.529 27.516C36.855 27.516 37.291 27.566 37.835 27.676L37.89 28.546C38.035 30.286 38.198 31.6861 38.38 32.7361C38.597 33.7861 38.87 35.0461 39.196 36.4961ZM39.196 4.64599V1.10607C41.011 0.896072 42.499 0.796052 43.66 0.836052C44.858 0.876052 46.273 0.926087 47.906 0.996087V3.99609C48.777 4.10609 49.449 4.21603 49.921 4.31603C50.429 4.39603 51.028 4.50599 51.717 4.64599V8.89599C51.753 10.056 51.772 11.5061 51.772 13.2461C51.3 13.3561 50.901 13.4261 50.574 13.4661C50.247 13.5061 49.921 13.516 49.594 13.516C49.267 13.486 48.832 13.416 48.287 13.306C48.215 12.246 48.142 11.4361 48.07 10.8561C48.033 10.2761 47.979 9.52609 47.906 8.62609V5.95605C46.709 5.37605 45.693 4.95605 44.858 4.70605C44.059 4.44605 43.243 4.31603 42.408 4.31603C41.573 4.31603 40.503 4.42599 39.196 4.64599ZM47.961 35.8361C48.287 33.0861 48.306 30.846 48.015 29.146C47.725 27.436 47.308 25.316 46.763 22.776H43.769C43.624 22.306 43.479 21.926 43.334 21.636C43.188 21.346 43.025 20.946 42.844 20.436C42.735 20.036 42.608 19.706 42.462 19.456C42.317 19.196 42.172 18.856 42.027 18.416H39.033C38.706 17.516 38.452 16.7861 38.271 16.2461C38.089 15.6661 37.944 14.936 37.835 14.066H34.841C34.696 12.866 34.569 11.7561 34.46 10.7461C34.351 9.72609 34.406 8.69599 34.623 7.64599C34.877 6.58599 35.404 5.40607 36.202 4.10607L39.196 4.64599C38.87 5.88599 38.652 6.95607 38.543 7.85607C38.47 8.76607 38.507 9.69598 38.652 10.636C38.797 11.576 39.087 12.726 39.523 14.066H42.517C42.698 14.896 42.934 15.606 43.225 16.186C43.515 16.766 43.805 17.516 44.096 18.416H47.09C47.344 19.296 47.58 19.996 47.798 20.546C48.015 21.086 48.233 21.836 48.451 22.776H51.445C51.88 25.276 52.153 27.406 52.262 29.146C52.407 30.886 52.28 33.1161 51.88 35.8361H47.961ZM39.196 36.4961C40.466 36.7161 41.537 36.8361 42.408 36.8761C43.315 36.8761 44.168 36.806 44.967 36.656C45.801 36.476 46.799 36.2061 47.961 35.8361L48.886 38.8361C47.144 39.4561 45.602 39.886 44.259 40.146C42.952 40.356 41.265 40.416 39.196 40.306V36.4961ZM61.625 14.066C61.262 16.826 60.954 19.236 60.7 21.306C60.482 23.376 60.409 25.5161 60.482 27.7261C60.554 29.9461 60.772 32.6461 61.135 35.8361H56.725C56.29 32.4661 56.072 29.686 56.072 27.516C56.109 25.336 56.29 23.266 56.617 21.306C56.98 19.306 57.397 16.896 57.869 14.066H61.625ZM61.625 14.066L60.863 11.076C62.496 10.856 63.784 10.706 64.728 10.636C65.708 10.526 66.978 10.4761 68.539 10.4761C68.902 11.1661 69.174 11.726 69.355 12.156C69.537 12.596 69.682 13.226 69.791 14.066H72.785C72.93 14.936 73.021 15.716 73.057 16.406C73.094 17.056 73.112 17.9161 73.112 18.9661V19.2361C72.604 19.3061 72.204 19.386 71.914 19.456C71.624 19.496 71.315 19.5061 70.989 19.5061C70.662 19.4761 70.226 19.396 69.682 19.296C69.646 19.146 69.609 19.016 69.573 18.906V18.4761C69.428 17.4261 69.283 16.606 69.138 16.026C68.992 15.446 68.811 14.796 68.593 14.066H66.252C65.236 13.956 64.438 13.916 63.857 13.956C63.276 13.956 62.532 13.996 61.625 14.066ZM69.41 35.8361L69.682 34.206C69.754 33.776 69.809 33.226 69.845 32.576L69.9 31.8661C70.444 31.7561 70.88 31.706 71.206 31.706C71.533 31.706 71.841 31.736 72.132 31.816C72.422 31.846 72.803 31.926 73.275 32.026C73.239 32.796 73.202 33.426 73.166 33.936C73.13 34.406 73.075 35.0461 73.003 35.8361H69.41ZM61.135 35.8361C62.26 36.0561 63.204 36.236 63.966 36.386C64.728 36.496 65.508 36.516 66.307 36.436C67.105 36.366 68.14 36.1661 69.41 35.8361L70.009 38.8361C68.738 39.4861 67.577 39.946 66.525 40.196C65.508 40.446 64.456 40.446 63.367 40.196C62.278 39.976 61.062 39.5261 59.72 38.8361L61.135 35.8361ZM90.695 35.8361C90.804 35.0061 90.913 34.276 91.022 33.666C91.131 33.046 91.204 32.3161 91.24 31.4861C91.748 31.3761 92.165 31.326 92.492 31.326C92.819 31.286 93.127 31.3061 93.417 31.3761C93.744 31.4161 94.143 31.4861 94.615 31.5961C94.579 32.4261 94.524 33.156 94.452 33.776C94.415 34.356 94.361 35.0461 94.288 35.8361H90.695ZM82.149 35.8361C83.274 36.0561 84.235 36.236 85.034 36.386C85.832 36.496 86.649 36.516 87.484 36.436C88.355 36.366 89.425 36.1661 90.695 35.8361L91.294 38.8361C90.024 39.4861 88.845 39.946 87.756 40.196C86.667 40.416 85.56 40.416 84.435 40.196C83.346 39.946 82.149 39.4861 80.842 38.8361L82.149 35.8361ZM82.638 14.066C82.239 16.826 81.913 19.236 81.659 21.306C81.604 21.746 81.558 22.196 81.518 22.636C81.845 22.736 82.11 22.836 82.312 22.936C82.53 23.016 82.893 23.046 83.401 23.046C84.126 23.046 84.798 23.0661 85.415 23.1061H87.647C88.3 23.1061 88.772 23.086 89.062 23.046L90.314 22.776C90.351 22.236 90.369 21.7961 90.369 21.4661C90.405 21.1061 90.423 20.6561 90.423 20.1061V19.786C90.423 18.516 90.369 17.4961 90.26 16.7361C90.151 15.9361 89.988 15.046 89.77 14.066H87.429C86.413 13.916 85.596 13.866 84.979 13.906C84.362 13.936 83.582 13.996 82.638 14.066L81.659 11.076C83.328 10.816 84.616 10.6561 85.524 10.5861C86.431 10.5061 87.683 10.4761 89.28 10.4761C89.534 11.1661 89.806 11.726 90.097 12.156C90.387 12.596 90.623 13.226 90.804 14.066H93.798C94.125 15.776 94.343 17.186 94.452 18.316C94.597 19.436 94.67 20.926 94.67 22.776C94.67 23.686 94.633 24.3761 94.561 24.8461C94.524 25.3161 94.415 25.876 94.234 26.536H85.088C84.145 26.536 83.455 26.6061 83.019 26.7461C82.62 26.8961 82.076 27.0561 81.386 27.2361C81.38 27.1361 81.373 27.0461 81.368 26.9661C81.372 27.2161 81.378 27.4661 81.386 27.7261C81.459 29.9461 81.713 32.6461 82.149 35.8361H77.793C77.358 32.5061 77.122 29.746 77.086 27.566C77.086 25.386 77.231 23.306 77.521 21.306C77.848 19.306 78.229 16.896 78.664 14.066H82.638ZM133.974 35.8361C134.083 35.0061 134.192 34.276 134.301 33.666C134.41 33.046 134.501 32.3161 134.573 31.4861C135.081 31.3761 135.499 31.326 135.825 31.326C136.152 31.286 136.46 31.3061 136.751 31.3761C137.041 31.4161 137.44 31.4861 137.949 31.5961C137.912 32.4261 137.858 33.156 137.785 33.776C137.713 34.356 137.64 35.0461 137.567 35.8361H133.974ZM125.482 35.8361C126.607 36.0561 127.569 36.236 128.367 36.386C129.166 36.496 129.982 36.516 130.817 36.436C131.688 36.366 132.74 36.1661 133.974 35.8361L134.573 38.8361C133.339 39.4861 132.178 39.946 131.089 40.196C130 40.416 128.893 40.416 127.768 40.196C126.68 39.946 125.464 39.4861 124.121 38.8361L125.482 35.8361ZM125.972 14.066C125.573 16.826 125.246 19.236 124.992 21.306C124.938 21.746 124.89 22.196 124.849 22.636C125.143 22.746 125.39 22.836 125.591 22.936C125.845 23.016 126.208 23.046 126.68 23.046C127.442 23.046 128.131 23.0661 128.748 23.1061H130.926C131.615 23.1061 132.105 23.086 132.396 23.046C132.722 22.976 133.122 22.886 133.593 22.776C133.666 22.236 133.702 21.7961 133.702 21.4661V19.786C133.702 18.516 133.648 17.4961 133.539 16.7361C133.466 15.9361 133.321 15.046 133.103 14.066H130.708C129.692 13.916 128.875 13.866 128.258 13.906C127.678 13.936 126.916 13.996 125.972 14.066L124.992 11.076C126.625 10.816 127.895 10.6561 128.803 10.5861C129.746 10.5061 130.998 10.4761 132.559 10.4761C132.849 11.1661 133.122 11.726 133.376 12.156C133.666 12.596 133.902 13.226 134.083 14.066H137.077C137.404 15.776 137.64 17.186 137.785 18.316C137.93 19.436 137.985 20.926 137.949 22.776C137.949 23.686 137.912 24.3761 137.84 24.8461C137.803 25.3161 137.713 25.876 137.567 26.536H128.367C127.46 26.536 126.788 26.6061 126.353 26.7461C125.954 26.8961 125.391 27.0561 124.665 27.2361V26.0961C124.656 26.6361 124.656 27.1761 124.665 27.7261C124.738 29.9461 125.01 32.6461 125.482 35.8361H121.127C120.691 32.5061 120.455 29.746 120.419 27.566C120.419 25.386 120.564 23.306 120.855 21.306C121.181 19.306 121.562 16.896 121.998 14.066H125.972ZM102.89 36.1161C102.853 36.6561 102.89 37.016 102.999 37.206C103.144 37.386 103.343 37.6061 103.597 37.8561C103.634 37.8961 103.652 37.9261 103.652 37.9661C103.652 37.9661 103.67 37.986 103.706 38.016C103.888 38.236 103.997 38.3961 104.033 38.5061C104.106 38.6161 104.142 38.8161 104.142 39.1061C104.142 39.3661 104.106 39.556 104.033 39.706C103.997 39.816 103.942 39.9961 103.87 40.2461H97.936C97.827 40.0361 97.736 39.8661 97.664 39.7561C97.627 39.6161 97.609 39.3961 97.609 39.1061C97.609 38.9261 97.646 38.776 97.718 38.676C97.791 38.566 97.9 38.4161 98.045 38.2361C98.117 38.1661 98.172 38.106 98.208 38.076C98.281 38.036 98.335 37.986 98.371 37.906C98.48 37.586 98.553 37.3061 98.589 37.0961C98.625 36.8761 98.644 36.5461 98.644 36.1161V20.276C98.644 18.966 98.716 17.9161 98.861 17.1161C99.043 16.3161 99.297 15.296 99.623 14.066H102.672C102.781 13.306 102.926 12.706 103.108 12.266C103.325 11.836 103.543 11.256 103.761 10.526C105.321 10.486 106.555 10.4761 107.463 10.4761C108.37 10.4761 109.604 10.5061 111.164 10.5861C111.382 11.2661 111.564 11.8161 111.709 12.2161C111.89 12.6161 112.09 13.226 112.308 14.066H115.302C115.665 15.266 115.919 16.2461 116.064 17.0061C116.245 17.7661 116.336 18.786 116.336 20.056V36.1161C116.336 36.5461 116.354 36.8761 116.391 37.0961C116.427 37.3061 116.518 37.586 116.663 37.906C116.735 37.986 116.79 38.036 116.826 38.076C116.899 38.106 116.953 38.186 116.989 38.286C117.171 38.436 117.298 38.566 117.371 38.676C117.479 38.776 117.534 38.9261 117.534 39.1061C117.534 39.3961 117.516 39.6161 117.479 39.7561C117.443 39.8661 117.352 40.0361 117.207 40.2461H111.382C111.273 40.0361 111.201 39.856 111.164 39.706C111.128 39.556 111.11 39.3661 111.11 39.1061C111.11 38.8561 111.146 38.676 111.219 38.566C111.292 38.416 111.419 38.2161 111.6 37.9661C111.745 37.7061 111.872 37.4761 111.981 37.2561C112.09 37.0361 112.126 36.6561 112.09 36.1161V19.3461C112.09 18.0761 111.981 17.116 111.763 16.456C111.582 15.806 111.346 15.006 111.056 14.066H109.531C108.805 13.996 108.225 13.956 107.789 13.956C107.39 13.956 106.828 13.996 106.102 14.066H103.87C103.579 14.896 103.343 15.6261 103.162 16.2461C102.98 16.8561 102.89 17.746 102.89 18.906V36.1161ZM12.14 37.906C12.14 37.296 12.231 36.5661 12.412 35.7361C13.283 35.5161 14.009 35.406 14.59 35.406C15.207 35.406 15.951 35.496 16.822 35.676C17.003 36.546 17.094 37.296 17.094 37.906C17.094 38.486 17.003 39.2161 16.822 40.0861C15.951 40.2661 15.207 40.3561 14.59 40.3561C13.973 40.3561 13.247 40.2661 12.412 40.0861C12.231 39.2161 12.14 38.486 12.14 37.906Z" fill="black"/>
</svg>
