<svg width="138" height="41" viewBox="0 0 138 41" fill="none" xmlns="http://www.w3.org/2000/svg">
<path fill-rule="evenodd" clip-rule="evenodd" d="M4.355 14.286L1.415 15.0961C0.944 14.2661 0.581 13.506 0.327 12.816C0.109 12.086 0 11.166 0 10.036C0.653 9.526 1.252 9.116 1.796 8.786C2.377 8.426 3.23 8.11607 4.355 7.85607V4.91601L6.642 4.42602C7.113 4.31602 7.476 4.226 7.73 4.156C7.984 4.046 8.311 3.97603 8.71 3.93603V0.996087C9.509 0.926087 10.162 0.926087 10.67 0.996087C11.178 1.03609 11.813 1.12599 12.575 1.27599C12.648 2.10599 12.648 2.75608 12.575 3.23608C12.503 3.70608 12.358 4.31605 12.14 5.08605L8.71 5.35607V8.29601C7.876 8.40601 7.132 8.52602 6.478 8.67602C5.861 8.81602 5.154 8.9261 4.355 9.0061V9.92602C4.137 10.286 3.938 10.6361 3.756 10.9661C3.611 11.2561 3.539 11.6661 3.539 12.2161C3.539 12.7561 3.611 13.1761 3.756 13.4661C3.938 13.7161 4.137 13.996 4.355 14.286ZM4.355 14.286C5.698 14.286 6.823 14.206 7.73 14.066C8.638 13.916 9.908 13.706 11.541 13.416L13.065 13.136V10.196C13.828 10.126 14.499 10.036 15.08 9.92602C15.697 9.81602 16.477 9.70607 17.421 9.60607V6.60607C19.163 6.46607 20.614 6.40604 21.776 6.44604C22.937 6.44604 24.389 6.676 26.131 7.156V10.196L29.07 10.0961C29.179 10.8561 29.27 11.506 29.343 12.056C29.452 12.556 29.542 13.226 29.615 14.066H26.621C26.693 14.936 26.711 15.6661 26.675 16.2461C26.675 16.8261 26.621 17.546 26.512 18.416H23.572C23.463 19.326 23.246 20.076 22.919 20.656C22.629 21.196 22.284 21.906 21.885 22.776H18.945C18.836 22.956 18.727 23.1061 18.618 23.2161C18.509 23.3161 18.4 23.466 18.292 23.646C17.602 24.516 17.076 25.2061 16.713 25.7161C16.35 26.2261 16.168 26.8961 16.168 27.7261V31.326C15.66 31.396 15.243 31.4461 14.916 31.4861C14.626 31.5261 14.318 31.5261 13.991 31.4861C13.664 31.4461 13.265 31.376 12.793 31.266V28.386C12.793 27.226 12.884 26.3361 13.065 25.7161C13.247 25.0661 13.483 24.206 13.773 23.156L13.936 22.776H16.876C17.021 22.236 17.203 21.7961 17.421 21.4661C17.638 21.1461 17.874 20.706 18.128 20.166C18.273 19.836 18.437 19.5661 18.618 19.3461C18.836 19.0961 19.036 18.786 19.217 18.416H22.211C22.502 17.546 22.719 16.8561 22.864 16.3561C23.046 15.8061 23.137 15.046 23.137 14.066H26.131V11.1261H24.171C23.808 10.9061 23.427 10.7261 23.028 10.5861C22.665 10.4361 22.175 10.3661 21.558 10.3661C20.796 10.3661 20.124 10.416 19.544 10.526C18.999 10.636 18.292 10.7761 17.421 10.9661V13.956L13.065 14.666V17.6061C11.214 17.8561 9.726 18.036 8.601 18.146C7.476 18.216 6.061 18.186 4.355 18.036V14.286ZM39.196 36.546L36.256 37.3661C35.712 36.6061 35.277 36.006 34.95 35.566C34.623 35.136 34.46 34.4761 34.46 33.6061L34.406 31.266L34.351 27.786C34.859 27.676 35.258 27.606 35.549 27.566C35.875 27.496 36.202 27.476 36.529 27.516C36.855 27.546 37.273 27.6161 37.781 27.7261L37.835 28.546C37.98 30.326 38.144 31.736 38.325 32.796C38.543 33.806 38.833 35.056 39.196 36.546ZM39.196 4.59606V1.10607C41.011 0.896072 42.499 0.796052 43.66 0.836052C44.858 0.836052 46.273 0.896087 47.906 0.996087V3.93603C48.777 4.04603 49.449 4.15598 49.921 4.26598C50.429 4.33598 51.028 4.44606 51.717 4.59606V8.89599C51.753 10.056 51.772 11.5061 51.772 13.2461C51.263 13.3261 50.846 13.3961 50.519 13.4661C50.229 13.5061 49.921 13.5061 49.594 13.4661C49.267 13.4261 48.85 13.3561 48.342 13.2461C48.233 12.1961 48.142 11.376 48.07 10.796C48.033 10.216 47.979 9.47603 47.906 8.56603V5.95605C46.745 5.37605 45.747 4.95605 44.912 4.70605C44.114 4.41605 43.279 4.26598 42.408 4.26598C41.573 4.26598 40.503 4.37606 39.196 4.59606ZM47.961 35.8361C48.287 33.0861 48.306 30.846 48.015 29.146C47.725 27.406 47.289 25.276 46.709 22.776H43.769C43.624 22.306 43.461 21.926 43.279 21.636C43.134 21.346 42.989 20.946 42.844 20.436C42.698 20.036 42.553 19.706 42.408 19.456C42.263 19.196 42.118 18.856 41.972 18.416H39.033C38.706 17.516 38.434 16.7861 38.216 16.2461C38.035 15.6661 37.89 14.936 37.781 14.066H34.841C34.696 12.906 34.569 11.816 34.46 10.796C34.351 9.74601 34.406 8.69599 34.623 7.64599C34.877 6.55599 35.422 5.35601 36.256 4.04601L39.196 4.59606C38.87 5.82606 38.652 6.89602 38.543 7.80602C38.47 8.71602 38.507 9.65598 38.652 10.636C38.797 11.576 39.087 12.726 39.523 14.066H42.462C42.644 14.866 42.88 15.576 43.17 16.186C43.497 16.806 43.823 17.546 44.15 18.416H47.09C47.344 19.256 47.58 19.966 47.798 20.546C48.015 21.086 48.233 21.836 48.451 22.776H51.445C51.88 25.276 52.153 27.406 52.262 29.146C52.407 30.886 52.28 33.1161 51.88 35.8361H47.961ZM39.196 36.546C40.466 36.766 41.537 36.896 42.408 36.926C43.315 36.926 44.186 36.836 45.021 36.656C45.856 36.476 46.836 36.2061 47.961 35.8361L48.886 38.776C47.181 39.436 45.656 39.886 44.313 40.146C42.971 40.356 41.265 40.416 39.196 40.306V36.546ZM69.41 35.8361C69.482 35.1861 69.555 34.646 69.628 34.206C69.736 33.776 69.809 33.226 69.845 32.576L69.9 31.8661C70.444 31.7561 70.862 31.706 71.152 31.706C71.478 31.706 71.787 31.736 72.077 31.816C72.404 31.846 72.803 31.926 73.275 32.026C73.239 32.796 73.202 33.426 73.166 33.936C73.13 34.406 73.075 35.0461 73.003 35.8361H69.41ZM61.135 35.8361C62.26 36.0561 63.204 36.236 63.966 36.386C64.728 36.496 65.508 36.5261 66.307 36.4961C67.105 36.4261 68.14 36.2061 69.41 35.8361L70.009 38.776C68.775 39.466 67.631 39.946 66.579 40.196C65.526 40.446 64.438 40.446 63.313 40.196C62.224 39.976 61.026 39.506 59.72 38.776L61.135 35.8361ZM61.679 14.066C61.28 16.786 60.954 19.196 60.7 21.306C60.482 23.376 60.391 25.536 60.427 27.786C60.5 29.996 60.736 32.6861 61.135 35.8361H56.725C56.29 32.4661 56.072 29.686 56.072 27.516C56.109 25.296 56.29 23.2161 56.617 21.2561C56.98 19.2561 57.397 16.856 57.869 14.066H61.679ZM61.679 14.066L60.863 11.1261C62.496 10.8761 63.784 10.706 64.728 10.636C65.708 10.526 66.978 10.4761 68.539 10.4761C68.902 11.1661 69.174 11.726 69.355 12.156C69.537 12.596 69.682 13.226 69.791 14.066H72.731C72.876 14.936 72.966 15.716 73.003 16.406C73.039 17.096 73.057 17.9461 73.057 18.9661V19.2361C72.585 19.3461 72.186 19.4361 71.86 19.5061C71.569 19.5461 71.261 19.5461 70.934 19.5061C70.644 19.4761 70.226 19.396 69.682 19.296L69.573 18.9661V18.4761C69.428 17.4561 69.283 16.646 69.138 16.026C68.992 15.406 68.811 14.756 68.593 14.066H66.252C65.236 13.916 64.438 13.866 63.857 13.906C63.276 13.936 62.55 13.996 61.679 14.066ZM82.638 14.066C82.239 16.786 81.894 19.196 81.604 21.306C81.553 21.726 81.508 22.146 81.47 22.566C81.784 22.716 82.046 22.826 82.257 22.936C82.511 23.016 82.874 23.046 83.346 23.046C84.072 23.046 84.743 23.0661 85.36 23.1061H87.592C88.246 23.1061 88.736 23.086 89.062 23.046C89.389 22.976 89.788 22.886 90.26 22.776C90.296 22.266 90.314 21.8361 90.314 21.4661C90.351 21.1061 90.369 20.6561 90.369 20.1061V19.786C90.369 18.516 90.314 17.4961 90.206 16.7361C90.097 15.9361 89.933 15.046 89.716 14.066H87.375C86.395 13.916 85.596 13.866 84.979 13.906C84.362 13.906 83.582 13.956 82.638 14.066L81.659 11.1261C83.292 10.8761 84.562 10.706 85.469 10.636C86.377 10.566 87.611 10.526 89.171 10.526C89.462 11.176 89.752 11.7461 90.042 12.2161C90.333 12.6461 90.568 13.266 90.75 14.066H93.744C94.071 15.776 94.307 17.186 94.452 18.316C94.597 19.436 94.651 20.926 94.615 22.776C94.615 23.686 94.579 24.3761 94.506 24.8461C94.47 25.3161 94.379 25.8561 94.234 26.4761C93.182 26.5161 92.256 26.536 91.458 26.536C90.659 26.496 89.589 26.4761 88.246 26.4761H84.979C84.072 26.4761 83.401 26.546 82.965 26.696C82.566 26.836 82.022 27.036 81.332 27.296C81.325 27.196 81.319 27.106 81.313 27.016C81.317 27.276 81.324 27.526 81.332 27.786C81.405 29.996 81.677 32.6861 82.149 35.8361H77.793C77.322 32.5061 77.086 29.746 77.086 27.566C77.086 25.356 77.231 23.2461 77.521 21.2561C77.848 19.2561 78.229 16.856 78.664 14.066H82.638ZM82.149 35.8361C83.237 36.0561 84.181 36.236 84.979 36.386C85.814 36.496 86.649 36.5261 87.484 36.4961C88.355 36.4261 89.407 36.2061 90.641 35.8361L91.24 38.776C90.006 39.466 88.845 39.946 87.756 40.196C86.667 40.416 85.56 40.396 84.435 40.146C83.31 39.886 82.076 39.436 80.733 38.776L82.149 35.8361ZM90.641 35.8361C90.75 35.0061 90.859 34.276 90.968 33.666C91.113 33.006 91.204 32.2861 91.24 31.4861C91.748 31.3761 92.147 31.326 92.438 31.326C92.764 31.286 93.073 31.3061 93.363 31.3761C93.69 31.4161 94.107 31.4861 94.615 31.5961C94.579 32.4261 94.524 33.156 94.452 33.776C94.379 34.356 94.307 35.0461 94.234 35.8361H90.641ZM125.972 14.066C125.536 16.786 125.192 19.196 124.938 21.306C124.886 21.736 124.84 22.1561 124.8 22.5961C125.091 22.7261 125.337 22.836 125.536 22.936C125.79 23.016 126.153 23.046 126.625 23.046C127.387 23.046 128.077 23.0661 128.694 23.1061H130.871C131.561 23.1061 132.051 23.086 132.341 23.046C132.668 22.976 133.067 22.886 133.539 22.776C133.612 22.266 133.648 21.8361 133.648 21.4661C133.684 21.1061 133.702 20.6561 133.702 20.1061V19.786C133.702 18.516 133.648 17.4961 133.539 16.7361C133.43 15.9361 133.267 15.046 133.049 14.066H130.708C129.692 13.916 128.875 13.866 128.258 13.906C127.641 13.906 126.879 13.956 125.972 14.066L124.938 11.1261C126.571 10.8761 127.841 10.706 128.748 10.636C129.692 10.566 130.944 10.526 132.505 10.526C132.795 11.176 133.085 11.7461 133.376 12.2161C133.666 12.6461 133.902 13.266 134.083 14.066H137.023C137.35 15.776 137.586 17.186 137.731 18.316C137.876 19.436 137.93 20.926 137.894 22.776C137.894 23.686 137.876 24.3761 137.84 24.8461C137.803 25.3161 137.694 25.8561 137.513 26.4761C136.497 26.5161 135.589 26.536 134.791 26.536C133.993 26.496 132.922 26.4761 131.579 26.4761H128.313C127.369 26.4761 126.698 26.546 126.299 26.696C125.899 26.836 125.355 27.036 124.665 27.296C124.633 26.836 124.615 26.4361 124.612 26.0961C124.602 26.6561 124.602 27.216 124.611 27.786C124.684 29.996 124.956 32.6861 125.428 35.8361H121.127C120.655 32.5061 120.401 29.746 120.365 27.566C120.365 25.356 120.51 23.2461 120.8 21.2561C121.127 19.2561 121.526 16.856 121.998 14.066H125.972ZM133.974 35.8361C134.083 35.0061 134.192 34.276 134.301 33.666C134.41 33.006 134.483 32.2861 134.519 31.4861C135.063 31.3761 135.481 31.326 135.771 31.326C136.098 31.286 136.406 31.3061 136.696 31.3761C137.023 31.4161 137.422 31.4861 137.894 31.5961C137.858 32.4261 137.803 33.156 137.731 33.776C137.658 34.356 137.586 35.0461 137.513 35.8361H133.974ZM125.428 35.8361C126.553 36.0561 127.514 36.236 128.313 36.386C129.111 36.496 129.928 36.5261 130.763 36.4961C131.634 36.4261 132.704 36.2061 133.974 35.8361L134.573 38.776C133.339 39.466 132.16 39.946 131.035 40.196C129.946 40.416 128.839 40.396 127.714 40.146C126.589 39.886 125.373 39.436 124.067 38.776L125.428 35.8361ZM102.835 36.1161C102.799 36.6561 102.853 37.0361 102.999 37.2561C103.144 37.4361 103.325 37.656 103.543 37.906L103.597 37.9661C103.634 37.9661 103.67 37.986 103.706 38.016L104.033 38.5061C104.106 38.6161 104.142 38.8161 104.142 39.1061C104.142 39.3661 104.106 39.556 104.033 39.706C103.997 39.856 103.924 40.0361 103.815 40.2461H97.881C97.736 40.0361 97.646 39.8661 97.609 39.7561C97.573 39.6161 97.555 39.3961 97.555 39.1061C97.555 38.9261 97.573 38.776 97.609 38.676C97.682 38.566 97.809 38.4161 97.99 38.2361C98.063 38.1661 98.117 38.106 98.154 38.076C98.19 38.036 98.244 37.986 98.317 37.906C98.462 37.586 98.535 37.3061 98.535 37.0961C98.571 36.8761 98.589 36.5461 98.589 36.1161V20.276C98.589 18.966 98.662 17.9161 98.807 17.1161C98.988 16.3161 99.26 15.296 99.623 14.066H102.563C102.708 13.306 102.872 12.706 103.053 12.266C103.271 11.836 103.507 11.2661 103.761 10.5861C105.285 10.5061 106.501 10.4761 107.408 10.4761C108.316 10.4761 109.549 10.5061 111.11 10.5861C111.328 11.2661 111.527 11.8161 111.709 12.2161C111.89 12.6161 112.072 13.226 112.253 14.066H115.247C115.61 15.226 115.864 16.2061 116.01 17.0061C116.191 17.7661 116.282 18.8061 116.282 20.1061L116.336 36.1161C116.336 36.5461 116.354 36.8761 116.391 37.0961C116.427 37.3061 116.518 37.586 116.663 37.906C116.699 37.986 116.735 38.036 116.772 38.076C116.844 38.106 116.917 38.186 116.989 38.286C117.171 38.436 117.298 38.566 117.371 38.676C117.479 38.776 117.534 38.9261 117.534 39.1061C117.534 39.3961 117.498 39.6161 117.425 39.7561C117.389 39.8661 117.316 40.0361 117.207 40.2461H111.328C111.219 40.0361 111.128 39.856 111.056 39.706C111.019 39.556 111.001 39.3661 111.001 39.1061C111.001 38.8561 111.037 38.676 111.11 38.566C111.219 38.416 111.364 38.236 111.546 38.016C111.691 37.726 111.818 37.4761 111.927 37.2561C112.036 37.0361 112.09 36.6561 112.09 36.1161V19.3461C112.09 18.0761 111.981 17.116 111.763 16.456C111.546 15.806 111.273 15.006 110.947 14.066H109.477C108.751 13.996 108.17 13.956 107.735 13.956C107.336 13.956 106.773 13.996 106.047 14.066H103.815C103.561 14.896 103.325 15.6261 103.108 16.2461C102.926 16.8561 102.835 17.746 102.835 18.906V36.1161ZM12.086 37.906C12.086 37.296 12.176 36.546 12.358 35.676C13.229 35.496 13.973 35.406 14.59 35.406C15.207 35.406 15.932 35.496 16.767 35.676C16.985 36.546 17.094 37.296 17.094 37.906C17.094 38.486 16.985 39.196 16.767 40.036C15.932 40.246 15.207 40.3561 14.59 40.3561C13.973 40.3561 13.247 40.2661 12.412 40.0861C12.194 39.2161 12.086 38.486 12.086 37.906Z" fill="black"/>
</svg>
