<svg width="138" height="41" viewBox="0 0 138 41" fill="none" xmlns="http://www.w3.org/2000/svg">
<path fill-rule="evenodd" clip-rule="evenodd" d="M4.355 14.286C5.698 14.316 6.823 14.2661 7.73 14.1161C8.638 13.9361 9.908 13.6861 11.541 13.3561L13.065 13.0861V10.196C13.791 10.126 14.463 10.036 15.08 9.92602C15.697 9.81602 16.477 9.70607 17.421 9.60607V6.66601C19.163 6.51601 20.614 6.44604 21.776 6.44604C22.973 6.44604 24.425 6.69605 26.131 7.20605V10.2561L29.07 10.146C29.179 10.876 29.27 11.506 29.343 12.056C29.452 12.556 29.524 13.226 29.56 14.066H26.675C26.711 14.936 26.73 15.6661 26.73 16.2461C26.73 16.8261 26.675 17.546 26.566 18.416H23.627C23.518 19.326 23.3 20.076 22.973 20.656C22.683 21.196 22.32 21.906 21.885 22.776H18.999C18.89 22.956 18.782 23.1061 18.673 23.2161C18.564 23.3161 18.455 23.466 18.346 23.646C17.62 24.516 17.058 25.2061 16.658 25.7161C16.295 26.2261 16.114 26.8961 16.114 27.7261V31.326C15.642 31.396 15.243 31.4461 14.916 31.4861C14.59 31.5261 14.263 31.5261 13.936 31.4861C13.646 31.4461 13.265 31.376 12.793 31.266V28.386C12.793 27.226 12.884 26.3361 13.065 25.7161C13.247 25.0661 13.501 24.206 13.828 23.156L13.936 22.776H16.876C17.021 22.236 17.203 21.7961 17.421 21.4661C17.638 21.1461 17.874 20.706 18.128 20.166C18.31 19.836 18.491 19.5661 18.673 19.3461C18.89 19.0961 19.09 18.786 19.271 18.416H22.211C22.502 17.546 22.719 16.8561 22.864 16.3561C23.046 15.8061 23.137 15.046 23.137 14.066H26.131V11.1261H24.225C23.826 10.9061 23.445 10.7261 23.082 10.5861C22.719 10.4361 22.211 10.3661 21.558 10.3661C20.832 10.3661 20.179 10.4361 19.598 10.5861C19.017 10.6861 18.292 10.836 17.421 11.016V13.956L13.065 14.666V17.546C11.214 17.836 9.726 18.036 8.601 18.146C7.476 18.216 6.061 18.186 4.355 18.036V14.286ZM4.355 14.286L1.415 15.0961C0.98 14.3061 0.635 13.536 0.381 12.816C0.127 12.086 0 11.166 0 10.036C0.617 9.526 1.216 9.09607 1.796 8.72607C2.377 8.36607 3.23 8.05602 4.355 7.80602V4.86608L6.642 4.37609C7.113 4.26609 7.476 4.17607 7.73 4.10607C7.984 4.02607 8.311 3.97603 8.71 3.93603V0.996087C9.509 0.926087 10.162 0.926087 10.67 0.996087C11.178 1.03609 11.795 1.12599 12.521 1.27599C12.63 2.10599 12.648 2.75608 12.575 3.23608C12.503 3.70608 12.358 4.31605 12.14 5.08605L8.71 5.35607V8.23608C7.876 8.34608 7.132 8.47609 6.478 8.62609C5.825 8.76609 5.117 8.87604 4.355 8.94604V9.87609C4.137 10.2761 3.938 10.6361 3.756 10.9661C3.611 11.2561 3.539 11.6661 3.539 12.2161C3.539 12.7561 3.611 13.1761 3.756 13.4661C3.938 13.7561 4.137 14.026 4.355 14.286ZM39.196 36.546L36.256 37.3661C35.712 36.6361 35.258 36.0561 34.895 35.6261C34.569 35.1861 34.406 34.5561 34.406 33.7161V31.266L34.351 27.786C34.823 27.676 35.204 27.606 35.494 27.566C35.821 27.496 36.148 27.476 36.474 27.516C36.801 27.546 37.218 27.6161 37.726 27.7261L37.835 28.546C37.98 30.326 38.144 31.736 38.325 32.796C38.543 33.846 38.833 35.096 39.196 36.546ZM39.196 4.59606V1.10607C41.011 0.896072 42.517 0.796052 43.715 0.836052C44.912 0.836052 46.31 0.896087 47.906 0.996087V3.93603C48.777 4.01603 49.449 4.10606 49.921 4.21606C50.429 4.28606 51.009 4.41606 51.663 4.59606C51.699 6.26606 51.717 7.67605 51.717 8.83605C51.753 9.99605 51.772 11.456 51.772 13.196L50.519 13.4661C50.229 13.5061 49.921 13.5061 49.594 13.4661C49.267 13.4261 48.85 13.3561 48.342 13.2461C48.233 12.1961 48.142 11.376 48.07 10.796C48.033 10.216 47.979 9.47603 47.906 8.56603V6.0061C46.745 5.3961 45.747 4.95605 44.912 4.70605C44.114 4.41605 43.279 4.26598 42.408 4.26598C41.537 4.26598 40.466 4.37606 39.196 4.59606ZM47.961 35.8361C48.287 33.0861 48.306 30.846 48.015 29.146C47.725 27.406 47.289 25.276 46.709 22.776H43.769C43.624 22.306 43.461 21.926 43.279 21.636C43.134 21.346 42.971 20.946 42.789 20.436C42.644 20.036 42.499 19.706 42.354 19.456C42.208 19.196 42.063 18.856 41.918 18.416H39.033C38.67 17.516 38.38 16.7861 38.162 16.2461C37.98 15.6661 37.835 14.936 37.726 14.066H34.841C34.66 12.906 34.514 11.816 34.406 10.796C34.333 9.74601 34.406 8.69599 34.623 7.64599C34.877 6.55599 35.422 5.33609 36.256 3.99609L39.196 4.59606C38.87 5.82606 38.652 6.89602 38.543 7.80602C38.434 8.71602 38.452 9.65598 38.597 10.636C38.779 11.576 39.087 12.726 39.523 14.066H42.462C42.644 14.866 42.88 15.576 43.17 16.186C43.497 16.806 43.823 17.546 44.15 18.416H47.035C47.289 19.256 47.525 19.966 47.743 20.546C47.997 21.086 48.251 21.836 48.505 22.776H51.39C51.862 25.246 52.153 27.366 52.262 29.146C52.407 30.886 52.262 33.1161 51.826 35.8361H47.961ZM39.196 36.546C40.466 36.766 41.537 36.896 42.408 36.926C43.315 36.926 44.186 36.836 45.021 36.656C45.856 36.476 46.836 36.2061 47.961 35.8361L48.941 38.776C47.235 39.396 45.693 39.8361 44.313 40.0861C42.971 40.3461 41.265 40.416 39.196 40.306V36.546ZM61.135 35.8361C62.224 36.0561 63.149 36.236 63.911 36.386C64.674 36.526 65.454 36.5661 66.252 36.4961C67.087 36.4261 68.14 36.2061 69.41 35.8361L70.063 38.776C68.793 39.466 67.613 39.946 66.525 40.196C65.472 40.446 64.401 40.446 63.313 40.196C62.224 39.946 61.008 39.466 59.665 38.776L61.135 35.8361ZM61.679 14.066C61.28 16.786 60.954 19.1861 60.7 21.2561C60.482 23.3161 60.391 25.4761 60.427 27.7261C60.5 29.9761 60.736 32.6861 61.135 35.8361H56.725C56.29 32.4661 56.072 29.686 56.072 27.516C56.109 25.296 56.29 23.196 56.617 21.196C56.98 19.196 57.415 16.826 57.923 14.066H61.679ZM61.679 14.066L60.863 11.1261C62.496 10.9061 63.784 10.766 64.728 10.686C65.672 10.586 66.924 10.526 68.484 10.526C68.847 11.176 69.119 11.726 69.301 12.156C69.519 12.596 69.682 13.226 69.791 14.066H72.731C72.876 14.936 72.966 15.716 73.003 16.406C73.039 17.096 73.057 17.966 73.057 19.016V19.296C72.549 19.396 72.15 19.4761 71.86 19.5061C71.569 19.5461 71.261 19.566 70.934 19.566C70.607 19.526 70.19 19.4561 69.682 19.3461C69.646 19.1961 69.609 19.0761 69.573 18.9661V18.526C69.428 17.476 69.265 16.646 69.083 16.026C68.938 15.406 68.757 14.756 68.539 14.066H66.252C65.272 13.916 64.492 13.866 63.911 13.906C63.331 13.936 62.587 13.996 61.679 14.066ZM69.41 35.8361C69.482 35.1861 69.555 34.646 69.628 34.206C69.736 33.776 69.809 33.226 69.845 32.576L69.9 31.8661C70.444 31.7561 70.862 31.706 71.152 31.706C71.478 31.706 71.787 31.736 72.077 31.816C72.368 31.886 72.749 31.956 73.221 32.026C73.184 32.826 73.148 33.466 73.112 33.936C73.075 34.406 73.021 35.0461 72.948 35.8361H69.41ZM90.641 35.8361C90.75 35.0461 90.859 34.316 90.968 33.666C91.077 33.006 91.167 32.2861 91.24 31.4861C91.748 31.3761 92.147 31.326 92.438 31.326C92.764 31.286 93.073 31.3061 93.363 31.3761C93.69 31.4161 94.089 31.4861 94.561 31.5961C94.524 32.4261 94.47 33.156 94.397 33.776C94.325 34.356 94.252 35.0461 94.18 35.8361H90.641ZM82.094 35.8361C83.219 36.0561 84.181 36.236 84.979 36.386C85.778 36.526 86.594 36.5661 87.429 36.4961C88.3 36.4261 89.371 36.2061 90.641 35.8361L91.24 38.776C90.006 39.466 88.826 39.946 87.701 40.196C86.613 40.446 85.487 40.446 84.326 40.196C83.201 39.906 81.985 39.436 80.679 38.776L82.094 35.8361ZM82.638 14.066C82.203 16.746 81.858 19.1461 81.604 21.2561C81.55 21.6961 81.502 22.1361 81.461 22.5861C81.755 22.7261 82.002 22.836 82.203 22.936C82.457 23.016 82.82 23.046 83.292 23.046C84.018 23.086 84.689 23.1061 85.306 23.1061H87.538C88.228 23.1061 88.718 23.086 89.008 23.046C89.334 22.976 89.734 22.886 90.206 22.776C90.278 22.266 90.314 21.8361 90.314 21.4661C90.351 21.1061 90.369 20.666 90.369 20.166V19.8361C90.369 18.5261 90.314 17.4961 90.206 16.7361C90.097 15.9361 89.915 15.046 89.661 14.066H87.375C86.358 13.916 85.542 13.866 84.925 13.906C84.308 13.906 83.546 13.956 82.638 14.066L81.604 11.1261C83.237 10.8761 84.507 10.706 85.415 10.636C86.322 10.566 87.556 10.526 89.117 10.526C89.407 11.176 89.697 11.7461 89.988 12.2161C90.278 12.6461 90.532 13.266 90.75 14.066H93.635C93.998 15.736 94.252 17.146 94.397 18.316C94.542 19.436 94.597 20.926 94.561 22.776C94.561 23.686 94.524 24.3761 94.452 24.8461C94.415 25.3161 94.325 25.8561 94.18 26.4761H84.925C84.018 26.4761 83.346 26.546 82.911 26.696C82.511 26.836 81.967 27.036 81.278 27.296C81.278 27.116 81.275 26.946 81.271 26.786C81.27 27.096 81.272 27.4161 81.278 27.7261C81.35 29.9761 81.622 32.6861 82.094 35.8361H77.793C77.322 32.5061 77.068 29.746 77.031 27.566C77.031 25.356 77.176 23.2461 77.467 21.2561C77.793 19.2161 78.211 16.826 78.719 14.066H82.638ZM125.917 14.066C125.482 16.746 125.137 19.1461 124.883 21.2561C124.829 21.6961 124.782 22.1461 124.742 22.5861C125.035 22.7261 125.281 22.836 125.482 22.936C125.736 23.016 126.099 23.046 126.571 23.046C127.333 23.086 128.022 23.1061 128.639 23.1061H130.871C131.525 23.1061 132.015 23.086 132.341 23.046C132.668 22.976 133.067 22.886 133.539 22.776C133.575 22.266 133.593 21.8361 133.593 21.4661C133.63 21.1061 133.648 20.666 133.648 20.166V19.8361C133.648 18.5261 133.593 17.4961 133.484 16.7361C133.376 15.9361 133.212 15.046 132.995 14.066H130.654C129.674 13.916 128.875 13.866 128.258 13.906C127.641 13.906 126.861 13.956 125.917 14.066L124.938 11.1261C126.534 10.8761 127.787 10.706 128.694 10.636C129.637 10.566 130.871 10.526 132.396 10.526C132.722 11.176 133.031 11.7461 133.321 12.2161C133.612 12.6461 133.847 13.266 134.029 14.066H136.969C137.295 15.736 137.531 17.146 137.676 18.316C137.821 19.436 137.894 20.926 137.894 22.776C137.894 23.686 137.858 24.3761 137.785 24.8461C137.749 25.3161 137.64 25.8561 137.459 26.4761H128.204C127.297 26.4761 126.625 26.546 126.19 26.696C125.79 26.836 125.264 27.036 124.611 27.296C124.605 27.206 124.599 27.116 124.594 27.036C124.598 27.266 124.603 27.4961 124.611 27.7261C124.684 29.9761 124.956 32.6861 125.428 35.8361H121.072C120.601 32.5061 120.347 29.746 120.31 27.566C120.31 25.356 120.474 23.2461 120.8 21.2561C121.127 19.2161 121.526 16.826 121.998 14.066H125.917ZM133.92 35.8361C134.029 35.0461 134.138 34.316 134.247 33.666C134.392 33.006 134.483 32.2861 134.519 31.4861C135.027 31.3761 135.426 31.326 135.716 31.326C136.043 31.286 136.352 31.3061 136.642 31.3761C136.969 31.4161 137.368 31.4861 137.84 31.5961C137.803 32.4261 137.749 33.156 137.676 33.776C137.604 34.356 137.531 35.0461 137.459 35.8361H133.92ZM125.428 35.8361C126.516 36.0561 127.46 36.236 128.258 36.386C129.093 36.526 129.928 36.5661 130.763 36.4961C131.634 36.4261 132.686 36.2061 133.92 35.8361L134.573 38.776C133.339 39.466 132.16 39.946 131.035 40.196C129.946 40.446 128.821 40.446 127.66 40.196C126.534 39.906 125.319 39.436 124.012 38.776L125.428 35.8361ZM102.781 36.1161C102.745 36.6561 102.799 37.0361 102.944 37.2561C103.089 37.4361 103.289 37.656 103.543 37.906V38.016H103.652C103.833 38.236 103.96 38.416 104.033 38.566C104.106 38.676 104.142 38.8561 104.142 39.1061C104.142 39.3961 104.106 39.6161 104.033 39.7561C103.997 39.8661 103.924 40.0361 103.815 40.2461H97.827C97.682 40.0361 97.573 39.8661 97.5 39.7561C97.464 39.6161 97.446 39.3961 97.446 39.1061C97.446 38.9261 97.482 38.776 97.555 38.676C97.627 38.566 97.754 38.4161 97.936 38.2361C97.972 38.1961 98.008 38.1661 98.045 38.1261C98.117 38.0561 98.19 37.986 98.262 37.906C98.408 37.616 98.498 37.366 98.535 37.146C98.571 36.896 98.589 36.5461 98.589 36.1161L98.535 20.276C98.535 18.966 98.625 17.9161 98.807 17.1161C98.988 16.3161 99.26 15.296 99.623 14.066H102.509C102.654 13.336 102.835 12.756 103.053 12.326C103.271 11.886 103.489 11.3061 103.706 10.5861C105.231 10.5461 106.446 10.526 107.354 10.526C108.261 10.526 109.495 10.566 111.056 10.636C111.273 11.326 111.473 11.866 111.654 12.266C111.836 12.666 112.036 13.266 112.253 14.066H115.139C115.538 15.226 115.828 16.2061 116.01 17.0061C116.191 17.7661 116.282 18.8061 116.282 20.1061V36.1161C116.282 36.5461 116.3 36.896 116.336 37.146C116.372 37.366 116.463 37.616 116.608 37.906C116.681 38.016 116.735 38.0961 116.772 38.1261C116.844 38.1661 116.917 38.216 116.989 38.286C117.171 38.436 117.298 38.566 117.371 38.676C117.479 38.776 117.534 38.946 117.534 39.166C117.534 39.456 117.498 39.6561 117.425 39.7561C117.389 39.8661 117.298 40.0361 117.153 40.2461H111.273C111.164 40.0361 111.074 39.8661 111.001 39.7561C110.965 39.6161 110.947 39.3961 110.947 39.1061C110.947 38.8561 110.983 38.676 111.056 38.566C111.164 38.416 111.31 38.236 111.491 38.016C111.636 37.726 111.763 37.496 111.872 37.306C112.017 37.096 112.072 36.6961 112.036 36.1161V19.3461C112.036 18.0761 111.927 17.116 111.709 16.456C111.491 15.776 111.219 14.976 110.892 14.066H109.422C108.733 13.996 108.17 13.956 107.735 13.956C107.299 13.956 106.719 13.996 105.993 14.066H103.815C103.525 14.896 103.271 15.6261 103.053 16.2461C102.872 16.8561 102.781 17.746 102.781 18.906V36.1161ZM12.031 37.8561C12.031 37.2361 12.14 36.516 12.358 35.676C13.229 35.496 13.973 35.406 14.59 35.406C15.207 35.366 15.932 35.456 16.767 35.676C16.949 36.516 17.039 37.2361 17.039 37.8561C17.076 38.4761 16.985 39.196 16.767 40.036C15.896 40.246 15.152 40.3561 14.535 40.3561C13.918 40.3561 13.192 40.2661 12.358 40.0861C12.176 39.2161 12.067 38.4761 12.031 37.8561Z" fill="black"/>
</svg>
