<svg width="138" height="41" viewBox="0 0 138 41" fill="none" xmlns="http://www.w3.org/2000/svg">
<path fill-rule="evenodd" clip-rule="evenodd" d="M4.355 14.286L1.47 15.156C0.998 14.356 0.635 13.5961 0.381 12.8661C0.127 12.1461 0 11.196 0 10.036C0.617 9.526 1.216 9.09607 1.796 8.72607C2.377 8.33607 3.23 8.00609 4.355 7.74609V4.86608L6.642 4.37609C7.113 4.26609 7.476 4.17607 7.73 4.10607C7.984 3.99607 8.311 3.92598 8.71 3.88598V0.996087C9.509 0.926087 10.162 0.926087 10.67 0.996087C11.178 1.03609 11.795 1.12599 12.521 1.27599C12.63 2.10599 12.63 2.75608 12.521 3.23608C12.448 3.70608 12.303 4.31605 12.086 5.08605L8.71 5.35607V8.18603C7.876 8.29603 7.132 8.43609 6.478 8.62609C5.825 8.76609 5.117 8.87604 4.355 8.94604V9.81603C4.137 10.216 3.938 10.586 3.756 10.906C3.575 11.236 3.484 11.6661 3.484 12.2161C3.484 12.7561 3.575 13.1761 3.756 13.4661C3.938 13.7561 4.137 14.026 4.355 14.286ZM4.355 14.286C5.698 14.316 6.823 14.2661 7.73 14.1161C8.638 13.9361 9.908 13.6861 11.541 13.3561L13.065 13.0861V10.196C13.791 10.126 14.463 10.036 15.08 9.92602C15.697 9.81602 16.477 9.70607 17.421 9.60607V6.71606C19.163 6.53606 20.614 6.46609 21.776 6.49609C22.973 6.49609 24.425 6.7561 26.131 7.2561V10.2561L29.016 10.146C29.125 10.876 29.216 11.506 29.288 12.056C29.397 12.556 29.488 13.226 29.56 14.066H26.675C26.748 14.936 26.766 15.6661 26.73 16.2461C26.73 16.8261 26.675 17.546 26.566 18.416H23.681C23.572 19.326 23.354 20.076 23.028 20.656C22.701 21.196 22.32 21.906 21.885 22.776H19.054C18.945 22.956 18.818 23.1061 18.673 23.2161C18.564 23.3161 18.455 23.466 18.346 23.646C17.62 24.516 17.058 25.226 16.658 25.766C16.259 26.276 16.06 26.9361 16.06 27.7261V31.326C15.588 31.396 15.189 31.4461 14.862 31.4861C14.572 31.5261 14.263 31.5261 13.936 31.4861C13.646 31.4461 13.265 31.376 12.793 31.266V28.386C12.793 27.226 12.884 26.3361 13.065 25.7161C13.247 25.0661 13.501 24.206 13.828 23.156L13.991 22.776H16.822C17.003 22.236 17.203 21.7961 17.421 21.4661C17.638 21.1461 17.892 20.706 18.183 20.166C18.328 19.836 18.509 19.5661 18.727 19.3461C18.945 19.0961 19.144 18.786 19.326 18.416H22.211C22.538 17.546 22.774 16.8561 22.919 16.3561C23.1 15.8061 23.191 15.046 23.191 14.066H26.131V11.176H24.225C23.862 10.966 23.481 10.776 23.082 10.636C22.719 10.456 22.229 10.3661 21.612 10.3661C20.85 10.3661 20.179 10.4361 19.598 10.5861C19.017 10.6861 18.292 10.856 17.421 11.076V13.956L13.065 14.666V17.546C11.214 17.836 9.726 18.036 8.601 18.146C7.476 18.216 6.061 18.186 4.355 18.036V14.286ZM39.196 36.6061C40.466 36.8161 41.537 36.9461 42.408 36.9861C43.315 36.9861 44.186 36.8961 45.021 36.7161C45.856 36.5261 46.836 36.2361 47.961 35.8361L48.941 38.7261C47.271 39.3761 45.747 39.8361 44.368 40.0861C42.989 40.3461 41.265 40.416 39.196 40.306V36.6061ZM39.196 36.6061L36.311 37.416C35.766 36.696 35.313 36.116 34.95 35.676C34.587 35.246 34.406 34.606 34.406 33.776L34.351 31.326L34.297 27.786C34.805 27.676 35.204 27.606 35.494 27.566C35.821 27.496 36.148 27.476 36.474 27.516C36.801 27.546 37.2 27.6161 37.672 27.7261L37.781 28.5961C37.926 30.3461 38.107 31.7561 38.325 32.8461C38.543 33.8961 38.833 35.1561 39.196 36.6061ZM39.196 4.536V1.10607C41.011 0.896072 42.517 0.796052 43.715 0.836052C44.912 0.836052 46.31 0.896087 47.906 0.996087V3.88598C48.777 3.95598 49.449 4.046 49.921 4.156C50.429 4.266 51.009 4.396 51.663 4.536V8.83605C51.699 9.99605 51.717 11.456 51.717 13.196C51.245 13.306 50.846 13.376 50.519 13.416C50.229 13.446 49.921 13.446 49.594 13.416C49.267 13.376 48.85 13.306 48.342 13.196C48.233 12.146 48.142 11.3261 48.07 10.7461C48.033 10.1661 47.979 9.43603 47.906 8.56603V6.0061C46.745 5.3961 45.747 4.93599 44.912 4.64599C44.114 4.35599 43.279 4.21606 42.408 4.21606C41.537 4.21606 40.466 4.316 39.196 4.536ZM47.961 35.8361C48.324 33.0861 48.342 30.846 48.015 29.146C47.725 27.406 47.271 25.276 46.654 22.776H43.769C43.624 22.306 43.461 21.926 43.279 21.636C43.134 21.346 42.971 20.946 42.789 20.436C42.644 20.036 42.481 19.706 42.299 19.456C42.154 19.196 42.009 18.856 41.864 18.416H39.033C38.67 17.516 38.38 16.7861 38.162 16.2461C37.944 15.6661 37.781 14.936 37.672 14.066H34.841C34.66 12.906 34.514 11.7961 34.406 10.7461C34.297 9.69609 34.369 8.63605 34.623 7.58605C34.877 6.49605 35.44 5.28603 36.311 3.93603L39.196 4.536C38.833 5.776 38.597 6.86602 38.488 7.80602C38.416 8.71602 38.452 9.65598 38.597 10.636C38.779 11.576 39.087 12.726 39.523 14.066H42.408C42.59 14.866 42.844 15.576 43.17 16.186C43.497 16.806 43.823 17.546 44.15 18.416H47.035C47.289 19.256 47.525 19.966 47.743 20.546C47.997 21.086 48.251 21.836 48.505 22.776H51.39C51.862 25.246 52.153 27.366 52.262 29.146C52.407 30.886 52.262 33.1161 51.826 35.8361H47.961ZM69.41 35.8361C69.482 35.1861 69.555 34.646 69.628 34.206C69.736 33.776 69.809 33.226 69.845 32.576L69.9 31.8661C70.444 31.7561 70.862 31.706 71.152 31.706C71.478 31.706 71.787 31.736 72.077 31.816C72.368 31.886 72.749 31.9761 73.221 32.0861C73.184 32.8461 73.148 33.466 73.112 33.936C73.075 34.406 73.021 35.0461 72.948 35.8361H69.41ZM61.135 35.8361C62.224 36.0561 63.149 36.236 63.911 36.386C64.674 36.526 65.454 36.5661 66.252 36.4961C67.087 36.4261 68.14 36.2061 69.41 35.8361L70.063 38.7261C68.829 39.4561 67.668 39.946 66.579 40.196C65.49 40.446 64.383 40.446 63.258 40.196C62.169 39.946 60.954 39.4561 59.611 38.7261L61.135 35.8361ZM61.679 14.066C61.28 16.746 60.954 19.1461 60.7 21.2561C60.446 23.3161 60.355 25.4761 60.427 27.7261C60.5 29.9761 60.736 32.6861 61.135 35.8361H56.725C56.254 32.4661 56.018 29.676 56.018 27.456C56.054 25.246 56.254 23.136 56.617 21.146C57.016 19.146 57.469 16.786 57.978 14.066H61.679ZM61.679 14.066L60.863 11.176C62.46 10.926 63.73 10.766 64.674 10.686C65.653 10.586 66.924 10.526 68.484 10.526C68.847 11.176 69.119 11.726 69.301 12.156C69.519 12.596 69.682 13.226 69.791 14.066H72.676C72.821 14.936 72.912 15.716 72.948 16.406C72.985 17.096 73.003 17.966 73.003 19.016V19.296C72.531 19.396 72.15 19.496 71.86 19.566C71.569 19.596 71.261 19.596 70.934 19.566C70.607 19.526 70.19 19.4561 69.682 19.3461L69.573 19.016V18.526C69.428 17.476 69.265 16.646 69.083 16.026C68.938 15.406 68.757 14.756 68.539 14.066H66.252C65.272 13.916 64.492 13.866 63.911 13.906C63.331 13.936 62.587 13.996 61.679 14.066ZM90.587 35.8361C90.732 35.0461 90.859 34.316 90.968 33.666C91.077 33.006 91.167 32.2861 91.24 31.4861C91.712 31.3761 92.111 31.326 92.438 31.326C92.764 31.286 93.073 31.3061 93.363 31.3761C93.653 31.4161 94.034 31.4861 94.506 31.5961C94.47 32.4261 94.415 33.156 94.343 33.776C94.27 34.356 94.198 35.0461 94.125 35.8361H90.587ZM82.094 35.8361C83.183 36.0561 84.126 36.236 84.925 36.386C85.76 36.526 86.594 36.5661 87.429 36.4961C88.3 36.4261 89.353 36.2061 90.587 35.8361L91.24 38.7261C90.006 39.4561 88.826 39.946 87.701 40.196C86.613 40.446 85.487 40.446 84.326 40.196C83.165 39.906 81.931 39.4161 80.624 38.7261L82.094 35.8361ZM82.638 14.066C82.203 16.716 81.84 19.096 81.55 21.196C81.494 21.656 81.446 22.1161 81.404 22.5861C81.699 22.7261 81.947 22.836 82.149 22.936C82.403 23.016 82.766 23.046 83.237 23.046C83.963 23.086 84.635 23.1061 85.251 23.1061H87.484C88.173 23.1061 88.681 23.086 89.008 23.046C89.334 22.976 89.716 22.886 90.151 22.776C90.224 22.266 90.26 21.8361 90.26 21.4661C90.296 21.1061 90.314 20.666 90.314 20.166V19.8361C90.314 18.5261 90.26 17.4961 90.151 16.7361C90.042 15.9361 89.861 15.046 89.607 14.066H87.375C86.358 13.916 85.542 13.866 84.925 13.906C84.308 13.906 83.546 13.956 82.638 14.066L81.604 11.176C83.201 10.926 84.453 10.766 85.36 10.686C86.268 10.616 87.502 10.5861 89.062 10.5861C89.353 11.1961 89.643 11.7461 89.933 12.2161C90.26 12.6461 90.514 13.266 90.695 14.066H93.581C93.944 15.736 94.198 17.146 94.343 18.316C94.488 19.436 94.542 20.926 94.506 22.776C94.506 23.686 94.47 24.3761 94.397 24.8461C94.361 25.3161 94.27 25.8561 94.125 26.4761H84.816C83.909 26.4761 83.255 26.546 82.856 26.696C82.457 26.836 81.913 27.036 81.223 27.296C81.223 27.116 81.221 26.946 81.216 26.786C81.215 27.116 81.218 27.456 81.223 27.786C81.296 30.036 81.586 32.7161 82.094 35.8361H77.739C77.267 32.5361 77.013 29.776 76.977 27.566C76.977 25.316 77.14 23.196 77.467 21.196C77.793 19.166 78.211 16.786 78.719 14.066H82.638ZM133.92 35.8361C134.029 35.0461 134.138 34.316 134.247 33.666C134.356 33.006 134.446 32.2861 134.519 31.4861C135.027 31.3761 135.426 31.326 135.716 31.326C136.043 31.286 136.352 31.3061 136.642 31.3761C136.969 31.4161 137.35 31.4861 137.785 31.5961C137.749 32.4261 137.694 33.156 137.622 33.776C137.549 34.356 137.477 35.0461 137.404 35.8361H133.92ZM125.373 35.8361C126.462 36.0561 127.405 36.236 128.204 36.386C129.039 36.526 129.873 36.5661 130.708 36.4961C131.579 36.4261 132.65 36.2061 133.92 35.8361L134.519 38.7261C133.321 39.4561 132.16 39.946 131.035 40.196C129.91 40.446 128.766 40.446 127.605 40.196C126.444 39.906 125.21 39.4161 123.903 38.7261L125.373 35.8361ZM125.917 14.066C125.482 16.716 125.119 19.096 124.829 21.196C124.774 21.656 124.726 22.1261 124.686 22.5861C124.98 22.7261 125.227 22.836 125.428 22.936C125.682 23.016 126.044 23.046 126.516 23.046C127.242 23.086 127.914 23.1061 128.531 23.1061H130.817C131.47 23.1061 131.96 23.086 132.287 23.046C132.613 22.976 133.013 22.886 133.484 22.776C133.521 22.266 133.539 21.8361 133.539 21.4661C133.575 21.1061 133.593 20.666 133.593 20.166V19.8361C133.593 18.5261 133.539 17.4961 133.43 16.7361C133.321 15.9361 133.158 15.046 132.94 14.066H130.654C129.637 13.916 128.821 13.866 128.204 13.906C127.587 13.906 126.825 13.956 125.917 14.066L124.883 11.176C126.48 10.926 127.732 10.766 128.639 10.686C129.583 10.616 130.817 10.5861 132.341 10.5861C132.632 11.1961 132.922 11.7461 133.212 12.2161C133.539 12.6461 133.811 13.266 134.029 14.066H136.86C137.223 15.736 137.477 17.146 137.622 18.316C137.767 19.436 137.84 20.926 137.84 22.776C137.84 23.686 137.803 24.3761 137.731 24.8461C137.694 25.3161 137.586 25.8561 137.404 26.4761H128.149C127.242 26.4761 126.571 26.546 126.135 26.696C125.736 26.836 125.21 27.036 124.556 27.296C124.549 27.206 124.543 27.106 124.538 27.026C124.542 27.276 124.548 27.526 124.556 27.786C124.629 30.036 124.901 32.7161 125.373 35.8361H121.072C120.564 32.5361 120.292 29.776 120.256 27.566C120.256 25.316 120.419 23.196 120.746 21.196C121.072 19.166 121.49 16.786 121.998 14.066H125.917ZM102.726 36.1161C102.69 36.6961 102.745 37.0761 102.89 37.2561C103.035 37.4361 103.235 37.656 103.489 37.906C103.525 37.946 103.543 37.986 103.543 38.016C103.579 38.016 103.616 38.036 103.652 38.076C103.833 38.256 103.96 38.416 104.033 38.566C104.106 38.676 104.142 38.8561 104.142 39.1061C104.142 39.3961 104.106 39.6161 104.033 39.7561C103.96 39.8661 103.87 40.0361 103.761 40.2461H97.718C97.609 40.0361 97.518 39.8661 97.446 39.7561C97.41 39.6161 97.391 39.3961 97.391 39.1061C97.391 38.9261 97.428 38.776 97.5 38.676C97.573 38.566 97.7 38.4161 97.881 38.2361C97.918 38.1961 97.954 38.1661 97.99 38.1261C98.063 38.0561 98.135 37.986 98.208 37.906C98.353 37.616 98.444 37.366 98.48 37.146C98.516 36.896 98.535 36.5461 98.535 36.1161L98.48 20.276C98.48 18.966 98.571 17.9161 98.752 17.1161C98.934 16.3161 99.206 15.296 99.569 14.066H102.454C102.599 13.336 102.781 12.756 102.999 12.326C103.216 11.886 103.452 11.326 103.706 10.636C105.194 10.566 106.392 10.526 107.299 10.526C108.207 10.526 109.422 10.566 110.947 10.636C111.201 11.326 111.419 11.866 111.6 12.266C111.781 12.666 111.981 13.266 112.199 14.066H115.084C115.483 15.226 115.774 16.2061 115.955 17.0061C116.137 17.7661 116.227 18.8061 116.227 20.1061V36.1161C116.227 36.5461 116.245 36.896 116.282 37.146C116.354 37.366 116.463 37.616 116.608 37.906C116.645 38.016 116.699 38.0961 116.772 38.1261C116.844 38.1661 116.899 38.216 116.935 38.286C117.153 38.436 117.298 38.566 117.371 38.676C117.479 38.776 117.534 38.946 117.534 39.166C117.534 39.456 117.498 39.6561 117.425 39.7561C117.389 39.8661 117.298 40.0361 117.153 40.2461H111.219C111.11 40.0361 111.019 39.8661 110.947 39.7561C110.91 39.6161 110.892 39.3961 110.892 39.1061C110.892 38.8561 110.929 38.676 111.001 38.566C111.11 38.416 111.255 38.236 111.437 38.016C111.582 37.766 111.709 37.526 111.818 37.306C111.963 37.096 112.036 36.6961 112.036 36.1161V19.3461C112.036 18.0761 111.908 17.116 111.654 16.456C111.437 15.776 111.164 14.976 110.838 14.066H109.368C108.678 13.996 108.116 13.956 107.68 13.956C107.245 13.956 106.664 13.996 105.938 14.066H103.815C103.525 14.896 103.271 15.6261 103.053 16.2461C102.835 16.8561 102.726 17.746 102.726 18.906V36.1161ZM12.031 37.8561C12.031 37.2361 12.14 36.516 12.358 35.676C13.192 35.456 13.918 35.3461 14.535 35.3461C15.152 35.3461 15.878 35.456 16.713 35.676C16.931 36.516 17.039 37.2361 17.039 37.8561C17.076 38.4761 16.985 39.196 16.767 40.036C15.896 40.246 15.152 40.3561 14.535 40.3561C13.918 40.3561 13.192 40.2661 12.358 40.0861C12.14 39.2161 12.031 38.4761 12.031 37.8561Z" fill="black"/>
</svg>
