<svg width="138" height="41" viewBox="0 0 138 41" fill="none" xmlns="http://www.w3.org/2000/svg">
<path fill-rule="evenodd" clip-rule="evenodd" d="M4.355 14.286C5.662 14.316 6.769 14.246 7.676 14.066C8.62 13.886 9.908 13.6461 11.541 13.3561L13.065 13.026V10.196C13.791 10.166 14.463 10.0961 15.08 9.98608C15.697 9.83608 16.477 9.70607 17.421 9.60607V6.76598C19.126 6.58598 20.578 6.51602 21.776 6.55602C22.973 6.55602 24.425 6.80603 26.131 7.31603V10.2561L28.962 10.146C29.07 10.876 29.179 11.506 29.288 12.056C29.397 12.596 29.47 13.266 29.506 14.066H26.675C26.748 14.936 26.766 15.6661 26.73 16.2461C26.73 16.8261 26.675 17.546 26.566 18.416H23.735C23.627 19.326 23.391 20.076 23.028 20.656C22.701 21.236 22.32 21.936 21.885 22.776H19.108C18.963 22.956 18.836 23.1061 18.727 23.2161C18.618 23.3161 18.509 23.466 18.4 23.646C17.602 24.516 17.003 25.226 16.604 25.766C16.241 26.276 16.06 26.946 16.06 27.786V31.266C15.588 31.376 15.189 31.4461 14.862 31.4861C14.572 31.5261 14.263 31.5261 13.936 31.4861C13.61 31.4461 13.211 31.376 12.739 31.266V28.436C12.739 27.236 12.848 26.316 13.065 25.656C13.283 25.006 13.555 24.176 13.882 23.156L13.991 22.776H16.822C17.003 22.236 17.203 21.7961 17.421 21.4661C17.674 21.1461 17.929 20.706 18.183 20.166C18.364 19.836 18.564 19.5661 18.782 19.3461C18.999 19.0961 19.199 18.786 19.38 18.416H22.211C22.538 17.546 22.792 16.8561 22.973 16.3561C23.155 15.8061 23.246 15.046 23.246 14.066H26.131V11.2361H24.28C23.881 10.9761 23.5 10.776 23.137 10.636C22.774 10.486 22.266 10.416 21.612 10.416C20.886 10.416 20.215 10.486 19.598 10.636C19.017 10.746 18.292 10.9061 17.421 11.1261V13.956L13.065 14.7161V17.546C11.214 17.836 9.726 18.036 8.601 18.146C7.476 18.216 6.061 18.1661 4.355 17.9861V14.286ZM4.355 14.286L1.524 15.156C1.052 14.396 0.671 13.646 0.381 12.926C0.127 12.156 0 11.2161 0 10.0961C0.617 9.54606 1.216 9.09607 1.796 8.72607C2.377 8.33607 3.23 7.98604 4.355 7.69604V4.86608L6.642 4.31603C7.113 4.21603 7.476 4.12601 7.73 4.04601C7.984 3.93601 8.311 3.86604 8.71 3.82604V0.996087C9.509 0.926087 10.162 0.926087 10.67 0.996087C11.178 1.03609 11.795 1.14604 12.521 1.32604C12.594 2.12604 12.594 2.75608 12.521 3.23608C12.448 3.70608 12.303 4.31605 12.086 5.08605L8.71 5.35607V8.18603C7.876 8.25603 7.132 8.38603 6.478 8.56603C5.825 8.71603 5.117 8.81599 4.355 8.89599V9.81603C4.137 10.216 3.938 10.586 3.756 10.906C3.575 11.196 3.484 11.6361 3.484 12.2161C3.484 12.7561 3.575 13.1761 3.756 13.4661C3.938 13.7561 4.137 14.026 4.355 14.286ZM47.961 35.8361C48.324 33.1161 48.342 30.886 48.015 29.146C47.725 27.366 47.253 25.246 46.6 22.776H43.769C43.624 22.306 43.461 21.926 43.279 21.636C43.134 21.346 42.952 20.946 42.735 20.436C42.59 20.036 42.444 19.706 42.299 19.456C42.154 19.196 41.991 18.856 41.809 18.416H38.978C38.652 17.516 38.38 16.766 38.162 16.186C37.944 15.606 37.781 14.896 37.672 14.066H34.841C34.66 12.906 34.514 11.7961 34.406 10.7461C34.297 9.69609 34.369 8.626 34.623 7.536C34.914 6.446 35.494 5.24603 36.365 3.93603L39.196 4.536C38.833 5.736 38.597 6.80609 38.488 7.74609C38.38 8.65609 38.416 9.60605 38.597 10.5861C38.779 11.5661 39.087 12.726 39.523 14.066H42.354C42.571 14.866 42.844 15.576 43.17 16.186C43.497 16.806 43.842 17.546 44.205 18.416H47.035C47.289 19.256 47.543 19.966 47.798 20.546C48.051 21.086 48.287 21.836 48.505 22.776H51.336C51.844 25.246 52.171 27.366 52.316 29.146C52.461 30.926 52.298 33.1561 51.826 35.8361H47.961ZM39.196 36.6061C40.466 36.8161 41.537 36.9461 42.408 36.9861C43.315 37.0161 44.186 36.946 45.021 36.766C45.892 36.546 46.872 36.2361 47.961 35.8361L48.995 38.676C47.289 39.366 45.747 39.856 44.368 40.146C43.025 40.396 41.301 40.446 39.196 40.306V36.6061ZM39.196 36.6061L36.365 37.4761C35.785 36.7461 35.313 36.1661 34.95 35.7361C34.587 35.2961 34.406 34.666 34.406 33.826L34.351 31.3761L34.297 27.8361C34.768 27.6961 35.15 27.606 35.44 27.566C35.766 27.496 36.093 27.476 36.42 27.516C36.746 27.546 37.164 27.636 37.672 27.786L37.726 28.5961C37.908 30.3761 38.089 31.7961 38.271 32.8461C38.488 33.8961 38.797 35.1561 39.196 36.6061ZM39.196 4.536V1.10607C41.011 0.896072 42.517 0.796052 43.715 0.836052C44.912 0.836052 46.31 0.896087 47.906 0.996087V3.82604C48.777 3.93604 49.449 4.046 49.921 4.156C50.429 4.226 51.009 4.356 51.663 4.536V8.83605C51.699 9.99605 51.717 11.436 51.717 13.136C51.245 13.246 50.846 13.336 50.519 13.416C50.229 13.446 49.921 13.446 49.594 13.416C49.267 13.376 48.85 13.306 48.342 13.196C48.269 12.146 48.197 11.3261 48.124 10.7461C48.051 10.1661 47.979 9.41598 47.906 8.51598V6.0061C46.745 5.3961 45.747 4.93599 44.912 4.64599C44.114 4.35599 43.279 4.21606 42.408 4.21606C41.537 4.21606 40.466 4.316 39.196 4.536ZM69.355 35.8361L69.628 34.206C69.736 33.776 69.809 33.226 69.845 32.576L69.954 31.8661C70.462 31.7961 70.862 31.7561 71.152 31.7561C71.478 31.7261 71.787 31.736 72.077 31.816C72.368 31.886 72.731 31.9761 73.166 32.0861C73.166 32.8461 73.13 33.4861 73.057 33.9861C73.021 34.4661 72.966 35.0761 72.894 35.8361H69.355ZM61.135 35.8361C62.224 36.0961 63.149 36.296 63.911 36.436C64.674 36.586 65.454 36.626 66.252 36.546C67.087 36.476 68.121 36.2361 69.355 35.8361L70.063 38.676C68.829 39.396 67.668 39.906 66.579 40.196C65.49 40.486 64.383 40.486 63.258 40.196C62.133 39.946 60.899 39.436 59.556 38.676L61.135 35.8361ZM61.734 14.066C61.298 16.716 60.954 19.096 60.7 21.196C60.446 23.306 60.355 25.496 60.427 27.786C60.5 30.036 60.736 32.7161 61.135 35.8361H56.725C56.254 32.5061 56.018 29.726 56.018 27.516C56.054 25.266 56.254 23.136 56.617 21.146L58.032 14.066H61.734ZM61.734 14.066L60.863 11.2361C62.46 10.9761 63.73 10.8161 64.674 10.7461C65.653 10.6361 66.906 10.5861 68.43 10.5861C68.829 11.1961 69.119 11.7461 69.301 12.2161C69.519 12.6461 69.682 13.266 69.791 14.066H72.622C72.803 14.936 72.912 15.736 72.948 16.456C72.985 17.146 73.003 18.006 73.003 19.016V19.3461C72.531 19.4561 72.15 19.5461 71.86 19.6161C71.569 19.6561 71.261 19.6561 70.934 19.6161C70.607 19.5861 70.19 19.506 69.682 19.396C69.646 19.256 69.609 19.126 69.573 19.016V18.526C69.392 17.476 69.228 16.646 69.083 16.026C68.938 15.406 68.738 14.756 68.484 14.066H66.252C65.272 13.916 64.492 13.866 63.911 13.906C63.331 13.936 62.605 13.996 61.734 14.066ZM82.094 35.8361C83.183 36.0961 84.126 36.296 84.925 36.436C85.723 36.586 86.558 36.626 87.429 36.546C88.3 36.476 89.353 36.2361 90.587 35.8361L91.24 38.676C90.006 39.436 88.826 39.946 87.701 40.196C86.576 40.446 85.433 40.446 84.272 40.196C83.11 39.906 81.876 39.396 80.57 38.676L82.094 35.8361ZM82.638 14.066C82.167 16.716 81.786 19.096 81.495 21.196C81.44 21.656 81.392 22.1261 81.352 22.5861C81.646 22.7261 81.893 22.836 82.094 22.936C82.348 23.016 82.711 23.0661 83.183 23.1061H87.484C88.137 23.1061 88.627 23.086 88.953 23.046C89.28 22.976 89.679 22.886 90.151 22.776C90.224 22.266 90.26 21.8361 90.26 21.4661V19.8361C90.26 18.5661 90.206 17.5361 90.097 16.7361C89.988 15.8961 89.806 15.006 89.552 14.066H87.32C86.34 13.916 85.542 13.866 84.925 13.906C84.308 13.906 83.546 13.956 82.638 14.066L81.55 11.2361C83.147 10.9461 84.399 10.766 85.306 10.686C86.213 10.616 87.429 10.5861 88.953 10.5861C89.28 11.2361 89.589 11.7761 89.879 12.2161C90.206 12.6461 90.478 13.266 90.695 14.066H93.526C93.889 15.736 94.143 17.146 94.288 18.316C94.47 19.436 94.542 20.926 94.506 22.776C94.506 23.686 94.47 24.3761 94.397 24.8461C94.361 25.2761 94.252 25.806 94.071 26.426C93.054 26.456 92.129 26.4761 91.294 26.4761C90.496 26.4461 89.425 26.426 88.082 26.426H84.762C83.854 26.426 83.201 26.516 82.802 26.696C82.403 26.836 81.876 27.036 81.223 27.296C81.216 27.206 81.21 27.106 81.205 27.026C81.209 27.276 81.215 27.526 81.223 27.786C81.296 30.036 81.586 32.7161 82.094 35.8361H77.739C77.231 32.5361 76.959 29.776 76.922 27.566C76.922 25.316 77.086 23.196 77.412 21.196C77.775 19.166 78.211 16.786 78.719 14.066H82.638ZM90.587 35.8361C90.695 35.0461 90.804 34.316 90.913 33.666C91.058 33.006 91.149 32.2861 91.185 31.4861C91.694 31.3761 92.093 31.326 92.383 31.326C92.71 31.286 93.018 31.3061 93.309 31.3761C93.635 31.4161 94.016 31.4861 94.452 31.5961C94.415 32.4261 94.361 33.156 94.288 33.776C94.216 34.356 94.143 35.0461 94.071 35.8361H90.587ZM133.866 35.8361C133.974 35.0461 134.083 34.316 134.192 33.666C134.337 33.006 134.446 32.2861 134.519 31.4861C134.991 31.3761 135.372 31.326 135.662 31.326C135.989 31.286 136.297 31.3061 136.588 31.3761C136.914 31.4161 137.313 31.4861 137.785 31.5961C137.713 32.4261 137.64 33.156 137.567 33.776C137.495 34.356 137.422 35.0461 137.35 35.8361H133.866ZM125.373 35.8361C126.462 36.0961 127.405 36.296 128.204 36.436C129.039 36.586 129.873 36.626 130.708 36.546C131.579 36.476 132.632 36.2361 133.866 35.8361L134.519 38.676C133.321 39.436 132.142 39.946 130.98 40.196C129.855 40.446 128.712 40.446 127.551 40.196C126.389 39.906 125.155 39.396 123.849 38.676L125.373 35.8361ZM125.917 14.066C125.446 16.716 125.065 19.096 124.774 21.196C124.719 21.656 124.671 22.1261 124.631 22.5861C124.925 22.7261 125.172 22.836 125.373 22.936C125.627 23.016 125.99 23.0661 126.462 23.1061H130.763C131.416 23.1061 131.906 23.086 132.232 23.046C132.559 22.976 132.958 22.886 133.43 22.776C133.503 22.266 133.539 21.8361 133.539 21.4661V19.8361C133.539 18.5661 133.484 17.5361 133.376 16.7361C133.267 15.8961 133.085 15.006 132.831 14.066H130.599C129.619 13.916 128.821 13.866 128.204 13.906C127.587 13.906 126.825 13.956 125.917 14.066L124.829 11.2361C126.426 10.9461 127.678 10.766 128.585 10.686C129.492 10.616 130.726 10.5861 132.287 10.5861C132.577 11.2361 132.868 11.7761 133.158 12.2161C133.484 12.6461 133.757 13.266 133.974 14.066H136.805C137.168 15.736 137.422 17.146 137.567 18.316C137.749 19.436 137.821 20.926 137.785 22.776C137.785 23.686 137.749 24.3761 137.676 24.8461C137.64 25.2761 137.531 25.806 137.35 26.426C136.333 26.456 135.408 26.4761 134.573 26.4761C133.775 26.4461 132.704 26.426 131.361 26.426H128.041C127.133 26.426 126.48 26.516 126.081 26.696C125.682 26.836 125.155 27.036 124.502 27.296C124.495 27.196 124.489 27.106 124.484 27.016C124.488 27.276 124.494 27.526 124.502 27.786C124.575 30.036 124.865 32.7161 125.373 35.8361H121.018C120.51 32.5361 120.238 29.776 120.201 27.566C120.201 25.316 120.365 23.196 120.691 21.196C121.054 19.166 121.49 16.786 121.998 14.066H125.917ZM102.672 36.1161C102.636 36.6961 102.69 37.096 102.835 37.306C102.98 37.496 103.198 37.696 103.489 37.906V38.016C103.525 38.016 103.561 38.036 103.597 38.076C103.779 38.286 103.906 38.456 103.979 38.566C104.051 38.676 104.087 38.876 104.087 39.166C104.087 39.416 104.051 39.6161 103.979 39.7561C103.942 39.8661 103.87 40.0361 103.761 40.2461H97.664C97.518 40.0661 97.41 39.9061 97.337 39.7561C97.301 39.6161 97.283 39.3961 97.283 39.1061C97.283 38.9261 97.319 38.776 97.391 38.676C97.464 38.566 97.609 38.436 97.827 38.286C97.863 38.216 97.9 38.1661 97.936 38.1261C98.008 38.0561 98.063 37.9961 98.099 37.9661C98.281 37.6361 98.39 37.366 98.426 37.146C98.462 36.926 98.48 36.5861 98.48 36.1161L98.426 20.326C98.426 19.016 98.516 17.9461 98.698 17.1161C98.879 16.2761 99.17 15.266 99.569 14.066H102.4C102.545 13.336 102.726 12.756 102.944 12.326C103.198 11.886 103.434 11.326 103.652 10.636C105.176 10.596 106.374 10.5861 107.245 10.5861C108.152 10.5861 109.368 10.616 110.892 10.686C111.146 11.346 111.364 11.866 111.546 12.266C111.727 12.666 111.945 13.266 112.199 14.066H115.03C115.429 15.226 115.719 16.2061 115.901 17.0061C116.082 17.7661 116.173 18.8061 116.173 20.1061V36.1161C116.173 36.5461 116.191 36.896 116.227 37.146C116.3 37.366 116.409 37.6361 116.554 37.9661C116.627 38.0361 116.681 38.0961 116.717 38.1261C116.79 38.1661 116.862 38.216 116.935 38.286C117.116 38.436 117.262 38.566 117.371 38.676C117.479 38.776 117.534 38.946 117.534 39.166C117.534 39.456 117.498 39.666 117.425 39.816C117.389 39.926 117.298 40.0661 117.153 40.2461H111.164C111.056 40.0661 110.965 39.9061 110.892 39.7561C110.82 39.6161 110.783 39.416 110.783 39.166C110.783 38.876 110.838 38.676 110.947 38.566C111.056 38.416 111.201 38.236 111.382 38.016C111.564 37.766 111.709 37.526 111.818 37.306C111.927 37.096 111.981 36.6961 111.981 36.1161V19.3461C111.981 18.0361 111.854 17.056 111.6 16.406C111.382 15.756 111.092 14.976 110.729 14.066H109.314C108.624 13.996 108.061 13.956 107.626 13.956C107.19 13.956 106.61 13.996 105.884 14.066H103.761C103.47 14.866 103.216 15.5861 102.999 16.2461C102.781 16.8561 102.672 17.746 102.672 18.906V36.1161ZM11.977 37.8561C11.977 37.2361 12.086 36.516 12.303 35.676C13.174 35.456 13.918 35.3461 14.535 35.3461C15.152 35.3461 15.878 35.4461 16.713 35.6261C16.931 36.4961 17.039 37.2361 17.039 37.8561C17.039 38.4761 16.931 39.196 16.713 40.036C15.878 40.246 15.152 40.3561 14.535 40.3561C13.918 40.3961 13.192 40.3061 12.358 40.0861C12.14 39.2161 12.013 38.4761 11.977 37.8561Z" fill="black"/>
</svg>
