<svg width="138" height="41" viewBox="0 0 138 41" fill="none" xmlns="http://www.w3.org/2000/svg">
<path fill-rule="evenodd" clip-rule="evenodd" d="M4.355 14.286L1.579 15.206C1.071 14.406 0.671 13.646 0.381 12.926C0.127 12.156 0 11.2161 0 10.0961C0.617 9.50606 1.216 9.03602 1.796 8.67602C2.377 8.27602 3.23 7.93599 4.355 7.64599V4.86608L6.642 4.31603C7.113 4.17603 7.476 4.06609 7.73 3.99609C8.021 3.88609 8.347 3.81599 8.71 3.77599V0.996087C9.509 0.896087 10.162 0.876038 10.67 0.946038C11.178 1.01604 11.795 1.14604 12.521 1.32604C12.594 2.12604 12.594 2.75608 12.521 3.23608C12.448 3.70608 12.285 4.31605 12.031 5.08605L8.71 5.35607V8.13598C7.876 8.23598 7.132 8.38603 6.478 8.56603C5.825 8.71603 5.117 8.81599 4.355 8.89599V9.76598C4.137 10.166 3.92 10.5261 3.702 10.8561C3.52 11.1761 3.43 11.616 3.43 12.156C3.43 12.736 3.52 13.1761 3.702 13.4661C3.92 13.7561 4.137 14.026 4.355 14.286ZM4.355 14.286C5.662 14.316 6.769 14.246 7.676 14.066C8.62 13.886 9.908 13.626 11.541 13.306L13.065 13.026V10.2561C13.791 10.1861 14.463 10.0961 15.08 9.98608C15.697 9.83608 16.477 9.69601 17.421 9.54601V6.76598C19.126 6.62598 20.578 6.55602 21.776 6.55602C22.973 6.55602 24.425 6.82608 26.131 7.36608V10.2561L28.907 10.146C29.016 10.906 29.125 11.5661 29.234 12.1061C29.343 12.6161 29.433 13.266 29.506 14.066H26.675C26.748 14.896 26.784 15.6261 26.784 16.2461C26.784 16.8261 26.711 17.546 26.566 18.416H23.79C23.681 19.326 23.445 20.076 23.082 20.656C22.756 21.236 22.374 21.936 21.939 22.776H19.108C18.999 22.956 18.89 23.1061 18.782 23.2161C18.673 23.3161 18.546 23.466 18.4 23.646C17.602 24.516 17.003 25.226 16.604 25.766C16.205 26.276 16.005 26.946 16.005 27.786V31.266C15.533 31.376 15.134 31.4461 14.807 31.4861C14.517 31.5261 14.209 31.5261 13.882 31.4861C13.592 31.4461 13.211 31.376 12.739 31.266V28.436C12.739 27.276 12.848 26.3661 13.065 25.7161C13.283 25.0261 13.555 24.176 13.882 23.156L14.045 22.776H16.822C17.003 22.236 17.203 21.7961 17.421 21.4661C17.674 21.1461 17.929 20.706 18.183 20.166C18.364 19.836 18.564 19.5661 18.782 19.3461C18.999 19.0961 19.235 18.786 19.489 18.416H22.266C22.592 17.586 22.846 16.8961 23.028 16.3561C23.209 15.8061 23.3 15.046 23.3 14.066H26.131V11.286H24.28C23.917 11.036 23.536 10.836 23.137 10.686C22.774 10.506 22.284 10.416 21.667 10.416C20.905 10.416 20.215 10.486 19.598 10.636C19.017 10.776 18.292 10.9461 17.421 11.1261V13.906L13.065 14.7161V17.4961C11.214 17.7861 9.708 17.9861 8.547 18.0961C7.422 18.2061 6.025 18.1661 4.355 17.9861V14.286ZM39.196 36.6061L36.42 37.526C35.803 36.836 35.313 36.2761 34.95 35.8361C34.587 35.3661 34.406 34.716 34.406 33.886L34.351 31.436L34.297 27.8361C34.768 27.7261 35.15 27.636 35.44 27.566C35.73 27.496 36.039 27.496 36.365 27.566C36.692 27.606 37.109 27.676 37.617 27.786L37.672 28.5961C37.853 30.3761 38.053 31.816 38.271 32.906C38.488 33.956 38.797 35.1861 39.196 36.6061ZM39.196 4.48608V1.10607C41.011 0.896072 42.517 0.796052 43.715 0.836052C44.912 0.836052 46.31 0.896087 47.906 0.996087V3.77599C48.777 3.88599 49.449 3.99607 49.921 4.10607C50.429 4.21607 50.991 4.33608 51.608 4.48608C51.645 6.15608 51.663 7.586 51.663 8.786C51.699 9.986 51.717 11.436 51.717 13.136C51.245 13.246 50.846 13.336 50.519 13.416C50.229 13.446 49.921 13.446 49.594 13.416C49.267 13.376 48.868 13.286 48.396 13.136C48.287 12.086 48.197 11.266 48.124 10.686C48.051 10.106 47.979 9.38598 47.906 8.51598V6.06603C46.781 5.40603 45.801 4.93599 44.967 4.64599C44.132 4.31599 43.279 4.156 42.408 4.156C41.537 4.156 40.466 4.26608 39.196 4.48608ZM47.961 35.8361C48.324 33.1161 48.342 30.886 48.015 29.146C47.725 27.366 47.235 25.246 46.545 22.776H43.769C43.624 22.306 43.461 21.926 43.279 21.636C43.098 21.346 42.916 20.946 42.735 20.436C42.59 20.036 42.426 19.706 42.245 19.456C42.1 19.196 41.954 18.856 41.809 18.416H38.978C38.615 17.516 38.325 16.766 38.107 16.186C37.89 15.606 37.726 14.896 37.617 14.066H34.841C34.66 12.936 34.514 11.856 34.406 10.796C34.297 9.70601 34.369 8.626 34.623 7.536C34.914 6.406 35.512 5.19598 36.42 3.88598L39.196 4.48608C38.833 5.71608 38.597 6.80609 38.488 7.74609C38.38 8.65609 38.416 9.60605 38.597 10.5861C38.779 11.5661 39.087 12.726 39.523 14.066H42.354C42.535 14.866 42.807 15.576 43.17 16.186C43.533 16.806 43.878 17.546 44.205 18.416H46.981C47.271 19.256 47.543 19.966 47.798 20.546C48.051 21.086 48.306 21.836 48.56 22.776H51.336C51.844 25.206 52.171 27.326 52.316 29.146C52.461 30.926 52.298 33.1561 51.826 35.8361H47.961ZM39.196 36.6061C40.466 36.8561 41.537 37.006 42.408 37.036C43.315 37.036 44.186 36.946 45.021 36.766C45.892 36.546 46.872 36.2361 47.961 35.8361L49.05 38.6161C47.344 39.3461 45.801 39.856 44.422 40.146C43.043 40.396 41.301 40.446 39.196 40.306V36.6061ZM69.355 35.8361L69.628 34.206C69.736 33.776 69.809 33.226 69.845 32.576L69.954 31.926C70.462 31.816 70.862 31.7561 71.152 31.7561C71.478 31.7261 71.787 31.736 72.077 31.816C72.368 31.886 72.731 31.9761 73.166 32.0861C73.13 32.8461 73.094 33.4861 73.057 33.9861C73.021 34.4661 72.948 35.0761 72.839 35.8361H69.355ZM61.135 35.8361C62.224 36.0961 63.149 36.296 63.911 36.436C64.674 36.586 65.454 36.626 66.252 36.546C67.087 36.476 68.121 36.2361 69.355 35.8361L70.063 38.6161C68.829 39.3761 67.668 39.906 66.579 40.196C65.49 40.486 64.365 40.486 63.204 40.196C62.079 39.946 60.863 39.4161 59.556 38.6161L61.135 35.8361ZM61.734 14.066C61.298 16.676 60.954 19.036 60.7 21.146C60.446 23.246 60.337 25.4461 60.373 27.7261C60.446 30.0161 60.7 32.7161 61.135 35.8361H56.78C56.272 32.5061 56.018 29.706 56.018 27.456C56.054 25.206 56.254 23.0861 56.617 21.0861C57.016 19.0961 57.488 16.746 58.032 14.066H61.734ZM61.734 14.066L60.808 11.286C62.442 11.036 63.73 10.8561 64.674 10.7461C65.617 10.6361 66.851 10.5861 68.375 10.5861C68.775 11.1961 69.083 11.7461 69.301 12.2161C69.519 12.6461 69.682 13.266 69.791 14.066H72.567C72.749 14.936 72.858 15.736 72.894 16.456C72.93 17.146 72.948 18.026 72.948 19.076V19.3461C72.477 19.4561 72.095 19.5461 71.805 19.6161C71.515 19.6561 71.206 19.676 70.88 19.676C70.589 19.636 70.19 19.546 69.682 19.396C69.646 19.296 69.609 19.186 69.573 19.076C69.573 18.926 69.555 18.7661 69.519 18.5861C69.374 17.5361 69.21 16.696 69.029 16.076C68.884 15.426 68.684 14.756 68.43 14.066H66.252C65.272 13.916 64.492 13.866 63.911 13.906C63.331 13.906 62.605 13.956 61.734 14.066ZM90.532 35.8361C90.677 35.0461 90.804 34.316 90.913 33.666C91.058 33.006 91.149 32.2861 91.185 31.4861C91.694 31.3761 92.093 31.326 92.383 31.326C92.71 31.286 93.018 31.3061 93.309 31.3761C93.599 31.4161 93.98 31.4861 94.452 31.5961C94.415 32.4261 94.343 33.156 94.234 33.776C94.161 34.356 94.089 35.0461 94.016 35.8361H90.532ZM82.04 35.8361C83.128 36.0961 84.072 36.296 84.87 36.436C85.705 36.586 86.558 36.626 87.429 36.546C88.3 36.476 89.334 36.2361 90.532 35.8361L91.24 38.6161C90.042 39.3761 88.863 39.906 87.701 40.196C86.54 40.446 85.379 40.436 84.217 40.146C83.056 39.856 81.822 39.3461 80.515 38.6161L82.04 35.8361ZM82.638 14.066C82.167 16.676 81.786 19.036 81.495 21.146C81.43 21.616 81.374 22.096 81.327 22.576C81.596 22.716 81.834 22.836 82.04 22.936C82.294 23.016 82.657 23.0661 83.128 23.1061H87.429C88.082 23.1061 88.572 23.086 88.899 23.046C89.226 22.976 89.625 22.886 90.097 22.776C90.169 22.266 90.206 21.846 90.206 21.526C90.242 21.156 90.26 20.706 90.26 20.166V19.8361C90.26 18.5661 90.187 17.5361 90.042 16.7361C89.933 15.8961 89.752 15.006 89.498 14.066H87.32C86.34 13.916 85.542 13.866 84.925 13.906C84.308 13.906 83.546 13.956 82.638 14.066L81.495 11.286C83.092 10.996 84.344 10.8161 85.251 10.7461C86.159 10.6761 87.375 10.636 88.899 10.636C89.226 11.256 89.552 11.7761 89.879 12.2161C90.206 12.6461 90.478 13.266 90.695 14.066H93.472C93.835 15.736 94.089 17.146 94.234 18.316C94.415 19.436 94.488 20.926 94.452 22.776C94.452 23.646 94.415 24.316 94.343 24.786C94.307 25.266 94.198 25.806 94.016 26.426H84.707C83.8 26.426 83.147 26.516 82.747 26.696C82.348 26.836 81.822 27.036 81.169 27.296C81.163 27.216 81.157 27.136 81.152 27.056C81.156 27.276 81.161 27.5061 81.169 27.7261C81.241 30.0161 81.531 32.7161 82.04 35.8361H77.739C77.195 32.5361 76.922 29.776 76.922 27.566C76.922 25.316 77.086 23.176 77.412 21.146C77.775 19.106 78.211 16.746 78.719 14.066H82.638ZM125.319 35.8361C126.407 36.0961 127.351 36.296 128.149 36.436C128.984 36.586 129.819 36.626 130.654 36.546C131.525 36.476 132.577 36.2361 133.811 35.8361L134.519 38.6161C133.285 39.3761 132.087 39.906 130.926 40.196C129.801 40.446 128.658 40.436 127.496 40.146C126.335 39.856 125.101 39.3461 123.794 38.6161L125.319 35.8361ZM125.917 14.066C125.446 16.676 125.065 19.036 124.774 21.146C124.709 21.616 124.652 22.096 124.605 22.576C124.876 22.716 125.113 22.836 125.319 22.936C125.573 23.016 125.936 23.0661 126.407 23.1061H130.708C131.361 23.1061 131.851 23.086 132.178 23.046C132.505 22.976 132.904 22.886 133.376 22.776C133.448 22.266 133.484 21.846 133.484 21.526C133.521 21.156 133.539 20.706 133.539 20.166V19.8361C133.539 18.5661 133.466 17.5361 133.321 16.7361C133.212 15.8961 133.031 15.006 132.777 14.066H130.599C129.619 13.916 128.821 13.866 128.204 13.906C127.587 13.906 126.825 13.956 125.917 14.066L124.774 11.286C126.371 10.996 127.623 10.8161 128.531 10.7461C129.438 10.6761 130.654 10.636 132.178 10.636C132.505 11.256 132.831 11.7761 133.158 12.2161C133.484 12.6461 133.757 13.266 133.974 14.066H136.751C137.114 15.736 137.368 17.146 137.513 18.316C137.694 19.436 137.767 20.926 137.731 22.776C137.731 23.646 137.694 24.316 137.622 24.786C137.586 25.266 137.477 25.806 137.295 26.426H127.932C127.061 26.426 126.426 26.516 126.026 26.696C125.627 26.836 125.101 27.036 124.448 27.296C124.442 27.216 124.437 27.136 124.432 27.056C124.435 27.276 124.441 27.5061 124.448 27.7261C124.52 30.0161 124.811 32.7161 125.319 35.8361H121.018C120.474 32.5361 120.201 29.776 120.201 27.566C120.201 25.316 120.365 23.176 120.691 21.146C121.054 19.106 121.49 16.746 121.998 14.066H125.917ZM133.811 35.8361C133.956 35.0461 134.083 34.316 134.192 33.666C134.337 33.006 134.428 32.2861 134.464 31.4861C134.972 31.3761 135.372 31.326 135.662 31.326C135.989 31.286 136.297 31.3061 136.588 31.3761C136.878 31.4161 137.259 31.4861 137.731 31.5961C137.694 32.4261 137.622 33.156 137.513 33.776C137.44 34.356 137.368 35.0461 137.295 35.8361H133.811ZM102.618 36.1161C102.581 36.6961 102.636 37.096 102.781 37.306C102.962 37.496 103.18 37.7061 103.434 37.9661C103.47 37.9961 103.489 38.016 103.489 38.016C103.525 38.016 103.561 38.036 103.597 38.076C103.779 38.286 103.906 38.456 103.979 38.566C104.051 38.676 104.087 38.876 104.087 39.166C104.087 39.416 104.051 39.6161 103.979 39.7561C103.942 39.8661 103.87 40.0361 103.761 40.2461H97.609C97.464 40.0661 97.355 39.9061 97.283 39.7561C97.246 39.6161 97.228 39.3961 97.228 39.1061C97.228 38.9261 97.264 38.776 97.337 38.676C97.41 38.566 97.537 38.436 97.718 38.286C97.791 38.216 97.845 38.1661 97.881 38.1261C97.954 38.0561 98.008 37.9961 98.045 37.9661C98.226 37.6361 98.335 37.366 98.371 37.146C98.408 36.926 98.426 36.5861 98.426 36.1161V20.326C98.426 19.016 98.516 17.9461 98.698 17.1161C98.879 16.2761 99.17 15.266 99.569 14.066H102.345C102.491 13.336 102.672 12.756 102.89 12.326C103.144 11.886 103.398 11.346 103.652 10.686C105.14 10.616 106.319 10.5861 107.19 10.5861C108.098 10.5861 109.314 10.616 110.838 10.686C111.092 11.346 111.31 11.866 111.491 12.266C111.709 12.666 111.927 13.266 112.144 14.066H114.921C115.356 15.226 115.665 16.2061 115.846 17.0061C116.028 17.7661 116.118 18.8061 116.118 20.1061L116.173 36.1161C116.173 36.5461 116.191 36.896 116.227 37.146C116.264 37.366 116.372 37.6361 116.554 37.9661C116.59 38.0361 116.645 38.0961 116.717 38.1261C116.79 38.1661 116.862 38.216 116.935 38.286C117.116 38.436 117.262 38.566 117.371 38.676C117.479 38.776 117.534 38.946 117.534 39.166C117.534 39.456 117.498 39.666 117.425 39.816C117.389 39.926 117.298 40.0661 117.153 40.2461H111.11C110.965 40.0661 110.856 39.9061 110.783 39.7561C110.747 39.6161 110.729 39.416 110.729 39.166C110.729 38.876 110.783 38.676 110.892 38.566C111.001 38.416 111.146 38.256 111.328 38.076C111.509 37.786 111.654 37.526 111.763 37.306C111.909 37.096 111.963 36.6961 111.927 36.1161V19.3461C111.927 18.0361 111.8 17.056 111.546 16.406C111.328 15.756 111.037 14.976 110.675 14.066H109.314C108.588 13.996 108.007 13.956 107.572 13.956C107.136 13.956 106.555 13.996 105.829 14.066H103.761C103.434 14.866 103.162 15.5861 102.944 16.2461C102.726 16.8561 102.618 17.746 102.618 18.906V36.1161ZM11.977 37.8561C11.977 37.2361 12.086 36.516 12.303 35.676C13.138 35.456 13.864 35.3461 14.481 35.3461C15.134 35.3461 15.878 35.4461 16.713 35.6261C16.931 36.4961 17.039 37.2361 17.039 37.8561C17.039 38.4761 16.931 39.196 16.713 40.036C15.878 40.246 15.134 40.3561 14.481 40.3561C13.864 40.3961 13.138 40.3061 12.303 40.0861C12.086 39.2161 11.977 38.4761 11.977 37.8561Z" fill="black"/>
</svg>
