<svg width="138" height="41" viewBox="0 0 138 41" fill="none" xmlns="http://www.w3.org/2000/svg">
<path fill-rule="evenodd" clip-rule="evenodd" d="M4.355 14.286L1.633 15.266C1.125 14.466 0.726 13.686 0.436 12.926C0.145 12.156 0 11.2161 0 10.0961C0.581 9.50606 1.161 9.01609 1.742 8.62609C2.359 8.22609 3.23 7.87605 4.355 7.58605V4.80602L6.642 4.26598C7.113 4.15598 7.476 4.04603 7.73 3.93603C8.021 3.82603 8.347 3.75607 8.71 3.72607V0.996087C9.509 0.896087 10.162 0.876038 10.67 0.946038C11.178 1.01604 11.777 1.14604 12.467 1.32604C12.575 2.12604 12.575 2.75608 12.467 3.23608C12.394 3.70608 12.249 4.30599 12.031 5.02599L8.71 5.35607V8.07604C7.876 8.18604 7.132 8.33598 6.478 8.51598C5.825 8.65598 5.117 8.76605 4.355 8.83605V9.70605C4.101 10.106 3.883 10.4861 3.702 10.8561C3.52 11.1761 3.43 11.616 3.43 12.156C3.43 12.736 3.52 13.1761 3.702 13.4661C3.883 13.7561 4.101 14.026 4.355 14.286ZM4.355 14.286C5.662 14.316 6.769 14.246 7.676 14.066C8.62 13.886 9.908 13.626 11.541 13.306L13.065 12.9761V10.2561C13.791 10.1861 14.463 10.0961 15.08 9.98608C15.697 9.83608 16.477 9.69601 17.421 9.54601V6.82604C19.126 6.64604 20.578 6.56607 21.776 6.60607C22.973 6.60607 24.425 6.87602 26.131 7.42602V10.306L28.853 10.196C28.998 10.926 29.125 11.5661 29.234 12.1061C29.343 12.6161 29.415 13.266 29.452 14.066H26.73C26.802 14.896 26.82 15.6261 26.784 16.2461C26.784 16.8261 26.73 17.546 26.621 18.416H23.844C23.699 19.326 23.445 20.076 23.082 20.656C22.756 21.236 22.374 21.936 21.939 22.776H19.163C19.054 22.956 18.927 23.1061 18.782 23.2161C18.673 23.3161 18.564 23.466 18.455 23.646C17.62 24.556 16.985 25.276 16.549 25.826C16.15 26.336 15.951 26.986 15.951 27.786V31.266C15.515 31.376 15.134 31.4461 14.807 31.4861C14.517 31.5261 14.209 31.5261 13.882 31.4861C13.592 31.4461 13.211 31.376 12.739 31.266V28.436C12.739 27.276 12.848 26.3661 13.065 25.7161C13.283 25.0261 13.573 24.176 13.936 23.156L14.045 22.776H16.822C16.967 22.236 17.166 21.7961 17.421 21.4661C17.674 21.1461 17.947 20.706 18.237 20.166C18.419 19.836 18.618 19.5661 18.836 19.3461C19.054 19.0961 19.29 18.786 19.544 18.416H22.266C22.592 17.586 22.846 16.8961 23.028 16.3561C23.246 15.8061 23.354 15.046 23.354 14.066H26.131V11.3461H24.334C23.971 11.0861 23.59 10.876 23.191 10.686C22.828 10.506 22.32 10.416 21.667 10.416C20.941 10.416 20.27 10.486 19.653 10.636C19.036 10.776 18.292 10.966 17.421 11.176V13.906L13.065 14.7161V17.4961C11.214 17.7861 9.708 17.9861 8.547 18.0961C7.422 18.2061 6.025 18.1661 4.355 17.9861V14.286ZM39.196 36.656L36.474 37.5861C35.857 36.8961 35.349 36.326 34.95 35.896C34.551 35.426 34.351 34.7861 34.351 33.9861V31.4861L34.297 27.8361C34.732 27.7261 35.095 27.6561 35.385 27.6161C35.712 27.5461 36.039 27.526 36.365 27.566C36.692 27.606 37.091 27.676 37.563 27.786L37.617 28.656C37.799 30.396 37.998 31.816 38.216 32.906C38.47 33.986 38.797 35.246 39.196 36.656ZM39.196 4.48608V1.10607C41.011 0.896072 42.517 0.796052 43.715 0.836052C44.949 0.836052 46.346 0.896087 47.906 0.996087V3.72607C48.777 3.82607 49.449 3.93601 49.921 4.04601C50.429 4.15601 50.991 4.30608 51.608 4.48608C51.645 6.15608 51.663 7.586 51.663 8.786C51.699 9.946 51.717 11.3761 51.717 13.0861C51.245 13.2261 50.846 13.336 50.519 13.416C50.229 13.446 49.921 13.446 49.594 13.416C49.267 13.336 48.868 13.246 48.396 13.136C48.287 12.086 48.197 11.266 48.124 10.686C48.051 10.106 47.979 9.38598 47.906 8.51598V6.06603C46.781 5.37603 45.801 4.88606 44.967 4.59606C44.132 4.26606 43.279 4.10607 42.408 4.10607C41.537 4.10607 40.466 4.22608 39.196 4.48608ZM47.961 35.8361C48.324 33.1161 48.342 30.886 48.015 29.146C47.689 27.366 47.199 25.246 46.545 22.776H43.769C43.624 22.306 43.461 21.926 43.279 21.636C43.098 21.346 42.898 20.946 42.68 20.436C42.535 20.036 42.372 19.706 42.19 19.456C42.045 19.196 41.9 18.856 41.755 18.416H38.978C38.615 17.516 38.307 16.766 38.053 16.186C37.835 15.606 37.672 14.896 37.563 14.066H34.841C34.66 12.936 34.514 11.856 34.406 10.796C34.297 9.70601 34.369 8.60607 34.623 7.47607C34.914 6.35607 35.531 5.13604 36.474 3.82604L39.196 4.48608C38.833 5.68608 38.579 6.75604 38.434 7.69604C38.325 8.63604 38.361 9.60605 38.543 10.5861C38.724 11.5661 39.069 12.726 39.577 14.066H42.299C42.517 14.866 42.807 15.576 43.17 16.186C43.533 16.806 43.878 17.546 44.205 18.416H46.981C47.235 19.256 47.489 19.966 47.743 20.546C48.033 21.086 48.306 21.836 48.56 22.776H51.282C51.826 25.206 52.171 27.326 52.316 29.146C52.461 30.926 52.28 33.1561 51.772 35.8361H47.961ZM39.196 36.656C40.43 36.916 41.501 37.0561 42.408 37.0961C43.315 37.0961 44.186 36.986 45.021 36.766C45.892 36.546 46.872 36.2361 47.961 35.8361L49.05 38.566C47.38 39.286 45.838 39.7961 44.422 40.0861C43.043 40.3761 41.301 40.446 39.196 40.306V36.656ZM61.734 14.066C61.298 16.646 60.935 19.006 60.645 21.146C60.391 23.246 60.3 25.4461 60.373 27.7261C60.446 30.0161 60.7 32.7161 61.135 35.8361H56.78C56.272 32.5061 56.018 29.706 56.018 27.456C56.054 25.206 56.254 23.0861 56.617 21.0861C57.016 19.0561 57.506 16.716 58.086 14.066H61.734ZM61.734 14.066L60.808 11.3461C62.405 11.0561 63.676 10.876 64.619 10.796C65.599 10.686 66.851 10.636 68.375 10.636C68.775 11.256 69.083 11.7761 69.301 12.2161C69.519 12.6461 69.682 13.266 69.791 14.066H72.567C72.712 14.936 72.803 15.736 72.839 16.456C72.912 17.146 72.948 18.026 72.948 19.076V19.396C72.477 19.506 72.095 19.596 71.805 19.676C71.515 19.706 71.206 19.706 70.88 19.676C70.589 19.636 70.19 19.566 69.682 19.456C69.646 19.306 69.609 19.186 69.573 19.076C69.573 18.926 69.555 18.7661 69.519 18.5861C69.374 17.5361 69.21 16.696 69.029 16.076C68.884 15.426 68.684 14.756 68.43 14.066H66.252C65.272 13.916 64.492 13.866 63.911 13.906C63.331 13.906 62.605 13.956 61.734 14.066ZM69.355 35.8361L69.628 34.206C69.736 33.776 69.809 33.2461 69.845 32.6261L69.954 31.926C70.462 31.816 70.862 31.7561 71.152 31.7561C71.478 31.7261 71.769 31.7561 72.023 31.8661C72.313 31.9361 72.676 32.0161 73.112 32.0861C73.112 32.8461 73.075 33.4861 73.003 33.9861C72.966 34.4661 72.912 35.0761 72.839 35.8361H69.355ZM61.135 35.8361C62.224 36.0961 63.149 36.3161 63.911 36.4961C64.674 36.6361 65.454 36.6761 66.252 36.6061C67.087 36.4961 68.121 36.2361 69.355 35.8361L70.063 38.566C68.865 39.366 67.704 39.906 66.579 40.196C65.49 40.486 64.365 40.486 63.204 40.196C62.042 39.946 60.808 39.396 59.502 38.566L61.135 35.8361ZM90.532 35.8361C90.677 35.0461 90.804 34.316 90.913 33.666C91.058 33.006 91.149 32.2861 91.185 31.4861C91.694 31.3761 92.093 31.326 92.383 31.326C92.71 31.286 93.018 31.3061 93.309 31.3761C93.599 31.4161 93.962 31.4861 94.397 31.5961C94.361 32.4261 94.288 33.156 94.18 33.776C94.107 34.356 94.034 35.0461 93.962 35.8361H90.532ZM82.04 35.8361C83.092 36.0961 84.018 36.3161 84.816 36.4961C85.651 36.6361 86.504 36.6761 87.375 36.6061C88.246 36.4961 89.298 36.2361 90.532 35.8361L91.24 38.566C90.042 39.366 88.863 39.906 87.701 40.196C86.54 40.446 85.36 40.436 84.163 40.146C82.965 39.856 81.731 39.326 80.461 38.566L82.04 35.8361ZM82.638 14.066C82.13 16.646 81.731 19.006 81.441 21.146C81.375 21.616 81.319 22.096 81.272 22.576C81.542 22.716 81.78 22.836 81.985 22.936C82.239 23.046 82.602 23.1061 83.074 23.1061C83.8 23.1061 84.471 23.116 85.088 23.156H87.375C88.064 23.156 88.572 23.116 88.899 23.046C89.226 22.976 89.607 22.886 90.042 22.776C90.115 22.266 90.151 21.846 90.151 21.526C90.187 21.156 90.206 20.706 90.206 20.166V19.8361C90.206 18.5661 90.133 17.5361 89.988 16.7361C89.879 15.8961 89.697 15.006 89.443 14.066H87.32C86.34 13.916 85.524 13.866 84.87 13.906C84.254 13.906 83.51 13.956 82.638 14.066L81.495 11.3461C83.056 11.0561 84.29 10.876 85.197 10.796C86.104 10.686 87.32 10.636 88.845 10.636C89.171 11.256 89.498 11.7761 89.824 12.2161C90.151 12.6461 90.423 13.266 90.641 14.066H93.417C93.78 15.696 94.034 17.0961 94.18 18.2561C94.361 19.4161 94.434 20.926 94.397 22.776C94.397 23.646 94.361 24.316 94.288 24.786C94.252 25.266 94.143 25.806 93.962 26.426H84.598C83.727 26.426 83.092 26.516 82.693 26.696C82.294 26.836 81.767 27.036 81.114 27.296C81.108 27.206 81.102 27.126 81.097 27.036C81.101 27.286 81.106 27.536 81.114 27.786C81.187 30.066 81.495 32.7561 82.04 35.8361H77.685C77.176 32.5361 76.904 29.766 76.868 27.516C76.868 25.266 77.031 23.1161 77.358 21.0861C77.721 19.0561 78.174 16.716 78.719 14.066H82.638ZM125.319 35.8361C126.371 36.0961 127.297 36.3161 128.095 36.4961C128.93 36.6361 129.783 36.6761 130.654 36.6061C131.525 36.4961 132.577 36.2361 133.811 35.8361L134.519 38.566C133.285 39.366 132.087 39.906 130.926 40.196C129.801 40.446 128.639 40.436 127.442 40.146C126.244 39.856 125.01 39.326 123.74 38.566L125.319 35.8361ZM125.917 14.066C125.409 16.646 125.01 19.006 124.72 21.146C124.655 21.616 124.598 22.096 124.551 22.576C124.821 22.716 125.058 22.836 125.264 22.936C125.518 23.046 125.863 23.1061 126.299 23.1061C127.061 23.1061 127.75 23.116 128.367 23.156H130.654C131.343 23.156 131.851 23.116 132.178 23.046C132.505 22.976 132.886 22.886 133.321 22.776C133.394 22.266 133.43 21.846 133.43 21.526C133.466 21.156 133.484 20.706 133.484 20.166V19.8361C133.484 18.5661 133.412 17.5361 133.267 16.7361C133.158 15.8961 132.976 15.006 132.722 14.066H130.545C129.565 13.916 128.766 13.866 128.149 13.906C127.532 13.906 126.788 13.956 125.917 14.066L124.72 11.3461C126.317 11.0561 127.569 10.876 128.476 10.796C129.383 10.686 130.599 10.636 132.124 10.636C132.45 11.256 132.777 11.7761 133.103 12.2161C133.43 12.6461 133.702 13.266 133.92 14.066H136.642C137.041 15.696 137.313 17.0961 137.459 18.2561C137.64 19.4161 137.713 20.926 137.676 22.776C137.676 23.646 137.64 24.316 137.567 24.786C137.531 25.266 137.422 25.806 137.241 26.426H127.877C126.97 26.426 126.317 26.516 125.917 26.696C125.518 26.836 125.01 27.036 124.393 27.296C124.387 27.206 124.381 27.126 124.376 27.036C124.38 27.286 124.385 27.536 124.393 27.786C124.466 30.066 124.774 32.7561 125.319 35.8361H120.964C120.419 32.5361 120.147 29.766 120.147 27.516C120.147 25.266 120.31 23.1161 120.637 21.0861C121 19.0561 121.453 16.716 121.998 14.066H125.917ZM133.811 35.8361C133.92 35.0461 134.047 34.316 134.192 33.666C134.337 33.006 134.428 32.2861 134.464 31.4861C134.936 31.3761 135.317 31.326 135.608 31.326C135.934 31.286 136.243 31.3061 136.533 31.3761C136.86 31.4161 137.241 31.4861 137.676 31.5961C137.64 32.4261 137.567 33.156 137.459 33.776C137.386 34.356 137.313 35.0461 137.241 35.8361H133.811ZM102.563 36.166C102.527 36.716 102.581 37.096 102.726 37.306C102.908 37.496 103.144 37.7061 103.434 37.9661V38.076H103.543C103.761 38.286 103.906 38.456 103.979 38.566C104.051 38.676 104.087 38.876 104.087 39.166C104.087 39.416 104.051 39.6161 103.979 39.7561C103.942 39.8661 103.852 40.0361 103.706 40.2461H97.5C97.355 40.0661 97.246 39.926 97.174 39.816C97.137 39.666 97.119 39.456 97.119 39.166C97.119 38.976 97.156 38.8361 97.228 38.7261C97.301 38.6161 97.446 38.476 97.664 38.286C97.736 38.216 97.791 38.1661 97.827 38.1261C97.9 38.0961 97.954 38.0361 97.99 37.9661C98.172 37.6761 98.281 37.416 98.317 37.206C98.353 36.946 98.371 36.606 98.371 36.166V20.326C98.371 19.016 98.462 17.9461 98.644 17.1161C98.825 16.2761 99.134 15.266 99.569 14.066H102.291C102.436 13.336 102.618 12.7761 102.835 12.3761C103.089 11.9461 103.343 11.376 103.597 10.686C105.085 10.656 106.265 10.636 107.136 10.636C108.043 10.636 109.259 10.6761 110.783 10.7461C111.037 11.3961 111.255 11.926 111.437 12.326C111.654 12.686 111.89 13.266 112.144 14.066H114.866C115.302 15.226 115.61 16.2061 115.792 17.0061C116.01 17.7661 116.118 18.8061 116.118 20.1061V36.166C116.118 36.606 116.137 36.946 116.173 37.206C116.245 37.416 116.354 37.6761 116.5 37.9661C116.572 38.0361 116.645 38.0961 116.717 38.1261C116.79 38.1661 116.844 38.2361 116.881 38.3461C117.098 38.4561 117.262 38.566 117.371 38.676C117.479 38.776 117.534 38.946 117.534 39.166C117.534 39.456 117.498 39.666 117.425 39.816C117.389 39.926 117.28 40.0661 117.098 40.2461H111.056C110.91 40.0661 110.802 39.9061 110.729 39.7561C110.693 39.6161 110.675 39.416 110.675 39.166C110.675 38.906 110.711 38.7261 110.783 38.6161C110.892 38.4761 111.056 38.286 111.273 38.076C111.455 37.816 111.6 37.5861 111.709 37.3661C111.854 37.1461 111.927 36.746 111.927 36.166V19.3461C111.927 18.0361 111.8 17.056 111.546 16.406C111.292 15.716 110.983 14.936 110.62 14.066H109.259C108.533 13.996 107.953 13.956 107.517 13.956C107.082 13.956 106.501 13.996 105.775 14.066H103.761C103.434 14.866 103.144 15.5861 102.89 16.2461C102.672 16.8561 102.563 17.746 102.563 18.906V36.166ZM11.922 37.8561C11.922 37.2361 12.049 36.516 12.303 35.676C13.138 35.456 13.864 35.3461 14.481 35.3461C15.134 35.3161 15.86 35.4061 16.658 35.6261C16.912 36.4961 17.039 37.2361 17.039 37.8561C17.039 38.4761 16.931 39.196 16.713 40.036C15.842 40.246 15.098 40.3561 14.481 40.3561C13.864 40.3961 13.138 40.3061 12.303 40.0861C12.086 39.2161 11.958 38.4761 11.922 37.8561Z" fill="black"/>
</svg>
