<svg width="138" height="41" viewBox="0 0 138 41" fill="none" xmlns="http://www.w3.org/2000/svg">
<path fill-rule="evenodd" clip-rule="evenodd" d="M4.355 14.2859L1.633 15.2658C1.125 14.4958 0.726 13.7359 0.436 12.9759C0.145 12.2159 0 11.2559 0 10.0959C0.581 9.50591 1.161 9.01594 1.742 8.62594C2.359 8.18594 3.23 7.82585 4.355 7.53585V4.80587L6.642 4.21591C7.113 4.10591 7.476 4.01588 7.73 3.93588C8.021 3.82588 8.347 3.75592 8.71 3.72592V0.995936C9.509 0.895936 10.162 0.875887 10.67 0.945887C11.178 1.01589 11.777 1.14589 12.467 1.32589C12.575 2.12589 12.575 2.75593 12.467 3.23593C12.394 3.70593 12.231 4.30584 11.977 5.02584L8.71 5.35592V8.02584C7.876 8.13584 7.132 8.2759 6.478 8.4559C5.825 8.6359 5.117 8.7659 4.355 8.8359V9.65585C4.101 10.0958 3.865 10.4759 3.647 10.7959C3.466 11.1259 3.375 11.5758 3.375 12.1558C3.375 12.7358 3.466 13.1759 3.647 13.4659C3.865 13.7559 4.101 14.0259 4.355 14.2859ZM4.355 14.2859C5.662 14.3159 6.769 14.2459 7.676 14.0659C8.62 13.8859 9.908 13.6259 11.541 13.3059L13.065 12.9759V10.2559C13.791 10.1859 14.463 10.0959 15.08 9.98593C15.733 9.83593 16.513 9.69586 17.421 9.54586V6.87594C19.126 6.69594 20.578 6.62586 21.776 6.66586C23.01 6.66586 24.461 6.93592 26.131 7.47592V10.3059L28.853 10.1959C28.962 10.9259 29.07 11.5659 29.179 12.1059C29.288 12.6159 29.379 13.2659 29.452 14.0659H26.73C26.802 14.8959 26.82 15.6259 26.784 16.2459C26.784 16.8259 26.73 17.5459 26.621 18.4159H23.899C23.754 19.3259 23.5 20.0758 23.137 20.6558C22.81 21.2358 22.411 21.9358 21.939 22.7758H19.217C19.108 22.9558 18.981 23.1059 18.836 23.2159C18.727 23.3159 18.6 23.4658 18.455 23.6458C17.62 24.5558 16.985 25.2759 16.549 25.8259C16.15 26.3359 15.951 27.0059 15.951 27.8359V31.2658C15.479 31.3758 15.08 31.4659 14.753 31.5359C14.463 31.5759 14.154 31.5759 13.828 31.5359C13.537 31.4659 13.174 31.3758 12.739 31.2658V28.4359C12.739 27.2759 12.848 26.3659 13.065 25.7159C13.283 25.0259 13.573 24.1758 13.936 23.1558L14.1 22.7758H16.767C16.949 22.2358 17.166 21.7959 17.421 21.4659C17.674 21.1459 17.947 20.7059 18.237 20.1659C18.455 19.8359 18.673 19.5659 18.89 19.3459C19.108 19.0959 19.344 18.7859 19.598 18.4159H22.266C22.629 17.5859 22.901 16.8959 23.082 16.3559C23.264 15.8059 23.354 15.0459 23.354 14.0659H26.131V11.3459H24.334C23.971 11.0859 23.59 10.8859 23.191 10.7459C22.828 10.5659 22.338 10.4759 21.721 10.4759C20.959 10.4759 20.27 10.5459 19.653 10.6859C19.036 10.8359 18.292 11.0159 17.421 11.2359V13.9058L13.065 14.7758V17.4359C11.214 17.7659 9.708 17.9859 8.547 18.0959C7.422 18.2059 6.025 18.1659 4.355 17.9859V14.2859ZM39.196 36.6558L36.474 37.6358C35.857 36.9458 35.349 36.3859 34.95 35.9459C34.551 35.4759 34.351 34.8459 34.351 34.0459L34.297 31.5359L34.242 27.8958C34.714 27.7458 35.095 27.6559 35.385 27.6159C35.676 27.5459 35.984 27.5259 36.311 27.5659C36.638 27.6059 37.037 27.6959 37.509 27.8359L37.617 28.6558C37.799 30.4358 37.998 31.8659 38.216 32.9559C38.47 34.0459 38.797 35.2758 39.196 36.6558ZM39.196 4.48593V1.10592C41.011 0.855921 42.517 0.745853 43.715 0.785853C44.949 0.815853 46.346 0.895936 47.906 0.995936V3.72592C48.777 3.82592 49.449 3.93586 49.921 4.04586C50.429 4.15586 50.991 4.30593 51.608 4.48593V8.72592C51.645 9.92592 51.663 11.3759 51.663 13.0859C51.227 13.1959 50.846 13.2859 50.519 13.3559C50.229 13.3959 49.921 13.3959 49.594 13.3559C49.267 13.3259 48.868 13.2259 48.396 13.0859C48.287 12.0359 48.197 11.2158 48.124 10.6358C48.051 10.0558 47.979 9.3259 47.906 8.4559V6.06588C46.781 5.37588 45.801 4.88591 44.967 4.59591C44.132 4.26591 43.279 4.10592 42.408 4.10592C41.537 4.10592 40.466 4.22593 39.196 4.48593ZM48.015 35.8359C48.378 33.1159 48.378 30.8659 48.015 29.0859C47.689 27.3159 47.181 25.2058 46.491 22.7758H43.823C43.642 22.3058 43.461 21.9258 43.279 21.6358C43.098 21.3058 42.898 20.9059 42.68 20.4359C42.535 20.0759 42.372 19.7659 42.19 19.5059C42.009 19.2159 41.846 18.8559 41.7 18.4159H38.978C38.615 17.5159 38.307 16.7659 38.053 16.1859C37.835 15.6059 37.654 14.8959 37.509 14.0659H34.841C34.66 12.9359 34.496 11.8359 34.351 10.7459C34.242 9.65594 34.333 8.54587 34.623 7.42587C34.914 6.29587 35.531 5.08584 36.474 3.77584L39.196 4.48593C38.797 5.64593 38.543 6.71589 38.434 7.69589C38.325 8.63589 38.361 9.6059 38.543 10.5859C38.724 11.5659 39.069 12.7259 39.577 14.0659H42.245C42.462 14.8659 42.753 15.5759 43.116 16.1859C43.515 16.8059 43.896 17.5459 44.259 18.4159H46.926C47.217 19.2559 47.489 19.9659 47.743 20.5459C48.033 21.0859 48.306 21.8358 48.56 22.7758H51.282C51.826 25.2058 52.171 27.3258 52.316 29.1458C52.461 30.9258 52.28 33.1559 51.772 35.8359H48.015ZM39.196 36.6558C40.43 36.9158 41.501 37.0559 42.408 37.0959C43.352 37.1259 44.241 37.0359 45.076 36.8159C45.91 36.6059 46.89 36.2759 48.015 35.8359L49.104 38.5659C47.435 39.2859 45.892 39.7959 44.477 40.0859C43.061 40.3759 41.301 40.4459 39.196 40.3059V36.6558ZM69.355 35.8359C69.464 35.2259 69.555 34.6958 69.628 34.2658C69.736 33.7858 69.809 33.2459 69.845 32.6259L69.954 31.9259C70.462 31.8159 70.862 31.7559 71.152 31.7559C71.478 31.7559 71.769 31.7959 72.023 31.8659C72.313 31.9359 72.676 32.0258 73.112 32.1358C73.075 32.8658 73.021 33.4859 72.948 33.9859C72.912 34.4659 72.858 35.0759 72.785 35.8359H69.355ZM61.135 35.8359C62.188 36.0959 63.095 36.3159 63.857 36.4959C64.655 36.6359 65.454 36.6759 66.252 36.6059C67.087 36.4959 68.121 36.2359 69.355 35.8359L70.118 38.5659C68.884 39.3659 67.704 39.9059 66.579 40.1959C65.454 40.4859 64.311 40.4859 63.149 40.1959C61.988 39.9059 60.754 39.3659 59.447 38.5659L61.135 35.8359ZM61.788 14.0659C61.317 16.6459 60.935 19.0058 60.645 21.1458C60.391 23.2458 60.3 25.4659 60.373 27.7859C60.446 30.0659 60.7 32.7559 61.135 35.8359H56.78C56.236 32.5059 55.963 29.7059 55.963 27.4559C56 25.2059 56.217 23.0859 56.617 21.0859C57.052 19.0559 57.56 16.7159 58.141 14.0659H61.788ZM61.788 14.0659L60.808 11.3459C62.405 11.0859 63.676 10.9059 64.619 10.7959C65.599 10.6859 66.833 10.6358 68.321 10.6358C68.757 11.2558 69.083 11.7759 69.301 12.2159C69.519 12.6459 69.682 13.2659 69.791 14.0659H72.513C72.694 14.9359 72.803 15.7359 72.839 16.4559C72.876 17.1859 72.894 18.0759 72.894 19.1259V19.3958C72.458 19.5058 72.095 19.5959 71.805 19.6759C71.515 19.7459 71.206 19.7659 70.88 19.7259C70.589 19.6859 70.19 19.5959 69.682 19.4559L69.573 19.1259C69.573 18.9859 69.555 18.8158 69.519 18.6358C69.374 17.5458 69.21 16.6959 69.029 16.0759C68.847 15.4259 68.629 14.7559 68.375 14.0659H66.252C65.272 13.9159 64.492 13.8658 63.911 13.9058C63.331 13.9058 62.623 13.9559 61.788 14.0659ZM90.478 35.8359C90.623 35.0459 90.768 34.3159 90.913 33.6659C91.058 33.0059 91.149 32.2859 91.185 31.4859C91.657 31.3759 92.038 31.3058 92.329 31.2658C92.655 31.2358 92.964 31.2459 93.254 31.3259C93.544 31.3959 93.907 31.4859 94.343 31.5959C94.307 32.4259 94.252 33.1558 94.18 33.7758C94.107 34.3858 94.016 35.0759 93.907 35.8359H90.478ZM82.04 35.8359C83.092 36.0959 84.018 36.3159 84.816 36.4959C85.651 36.6359 86.504 36.6759 87.375 36.6059C88.246 36.4959 89.28 36.2359 90.478 35.8359L91.24 38.5659C90.042 39.3659 88.845 39.9059 87.647 40.1959C86.486 40.4859 85.306 40.4859 84.108 40.1959C82.911 39.8659 81.677 39.3259 80.406 38.5659L82.04 35.8359ZM82.638 14.0659C82.13 16.6059 81.713 18.9459 81.386 21.0859C81.32 21.5759 81.262 22.0759 81.215 22.5759C81.486 22.7159 81.725 22.8359 81.931 22.9359C82.185 23.0459 82.548 23.1059 83.019 23.1059C83.745 23.1059 84.435 23.1158 85.088 23.1558H87.32C88.01 23.1558 88.518 23.1159 88.845 23.0459C89.171 22.9759 89.57 22.8858 90.042 22.7758C90.115 22.2658 90.151 21.8458 90.151 21.5258V19.8359C90.151 18.5659 90.097 17.5359 89.988 16.7359C89.879 15.8959 89.679 15.0059 89.389 14.0659H87.266C86.286 13.8859 85.487 13.8159 84.87 13.8459C84.254 13.8859 83.51 13.9559 82.638 14.0659L81.441 11.3459C83.001 11.0559 84.235 10.8759 85.143 10.7959C86.05 10.7259 87.266 10.6859 88.79 10.6859C89.117 11.2659 89.443 11.7759 89.77 12.2159C90.133 12.6459 90.423 13.2659 90.641 14.0659H93.309C93.708 15.6959 93.98 17.0959 94.125 18.2559C94.307 19.4159 94.397 20.9258 94.397 22.7758C94.397 23.6458 94.361 24.3159 94.288 24.7859C94.216 25.2659 94.089 25.7859 93.907 26.3659C92.927 26.4059 92.02 26.4259 91.185 26.4259C90.351 26.3859 89.244 26.3659 87.865 26.3659H84.544C83.637 26.3659 82.983 26.4558 82.584 26.6358C82.185 26.8258 81.677 27.0359 81.06 27.2959C81.053 27.2059 81.048 27.1259 81.043 27.0359C81.046 27.2859 81.052 27.5359 81.06 27.7859C81.132 30.0659 81.459 32.7559 82.04 35.8359H77.685C77.14 32.5759 76.85 29.8159 76.814 27.5659C76.814 25.2759 76.995 23.1159 77.358 21.0859C77.721 19.0559 78.174 16.7159 78.719 14.0659H82.638ZM133.757 35.8359C133.902 35.0459 134.029 34.3159 134.138 33.6659C134.283 33.0059 134.392 32.2859 134.464 31.4859C134.936 31.3759 135.317 31.3058 135.608 31.2658C135.934 31.2358 136.243 31.2459 136.533 31.3259C136.823 31.3959 137.186 31.4859 137.622 31.5959C137.586 32.4259 137.513 33.1558 137.404 33.7758C137.332 34.3858 137.259 35.0759 137.186 35.8359H133.757ZM125.264 35.8359C126.317 36.0959 127.26 36.3159 128.095 36.4959C128.93 36.6359 129.783 36.6759 130.654 36.6059C131.525 36.4959 132.559 36.2359 133.757 35.8359L134.464 38.5659C133.267 39.3659 132.087 39.9059 130.926 40.1959C129.765 40.4859 128.585 40.4859 127.387 40.1959C126.19 39.8659 124.938 39.3259 123.631 38.5659L125.264 35.8359ZM125.863 14.0659C125.391 16.6059 124.992 18.9459 124.665 21.0859C124.598 21.5759 124.541 22.0759 124.494 22.5759C124.765 22.7159 125.003 22.8359 125.21 22.9359C125.428 23.0459 125.772 23.1059 126.244 23.1059C127.006 23.1059 127.696 23.1158 128.313 23.1558H130.599C131.289 23.1558 131.797 23.1159 132.124 23.0459C132.45 22.9759 132.831 22.8858 133.267 22.7758C133.339 22.2658 133.376 21.8458 133.376 21.5258C133.412 21.1558 133.43 20.7059 133.43 20.1659V19.8359C133.43 18.5659 133.357 17.5359 133.212 16.7359C133.103 15.8959 132.922 15.0059 132.668 14.0659H130.545C129.565 13.8859 128.766 13.8159 128.149 13.8459C127.532 13.8859 126.77 13.9559 125.863 14.0659L124.72 11.3459C126.28 11.0559 127.514 10.8759 128.422 10.7959C129.329 10.7259 130.527 10.6859 132.015 10.6859C132.378 11.2659 132.722 11.7759 133.049 12.2159C133.376 12.6459 133.648 13.2659 133.866 14.0659H136.588C136.987 15.6959 137.259 17.0959 137.404 18.2559C137.586 19.4159 137.658 20.9258 137.622 22.7758C137.622 23.6458 137.586 24.3159 137.513 24.7859C137.477 25.2659 137.368 25.7859 137.186 26.3659C136.206 26.4059 135.299 26.4259 134.464 26.4259C133.63 26.3859 132.523 26.3659 131.144 26.3659H127.768C126.897 26.3659 126.262 26.4558 125.863 26.6358C125.464 26.8258 124.956 27.0359 124.339 27.2959C124.333 27.2059 124.327 27.1259 124.322 27.0459C124.325 27.2859 124.331 27.5359 124.339 27.7859C124.411 30.0659 124.72 32.7559 125.264 35.8359H120.964C120.383 32.5759 120.092 29.8159 120.092 27.5659C120.092 25.2759 120.274 23.1159 120.637 21.0859C121 19.0559 121.453 16.7159 121.998 14.0659H125.863ZM102.509 36.1659C102.472 36.7459 102.527 37.1459 102.672 37.3659C102.853 37.5459 103.089 37.7459 103.38 37.9659C103.416 37.9959 103.434 38.0359 103.434 38.0759C103.47 38.0759 103.507 38.0959 103.543 38.1259C103.724 38.3059 103.852 38.4559 103.924 38.5659C104.033 38.6759 104.087 38.8759 104.087 39.1659C104.087 39.4159 104.051 39.6159 103.979 39.7559C103.906 39.8659 103.815 40.0359 103.706 40.2459H97.446C97.301 40.0659 97.192 39.9259 97.119 39.8159C97.083 39.6659 97.065 39.4559 97.065 39.1659C97.065 38.9759 97.101 38.8359 97.174 38.7259C97.246 38.6159 97.391 38.4759 97.609 38.2859C97.646 38.2159 97.7 38.1659 97.772 38.1259C97.845 38.0959 97.9 38.0359 97.936 37.9659C98.117 37.6759 98.226 37.4159 98.262 37.2059C98.299 36.9459 98.317 36.6059 98.317 36.1659V20.3259C98.317 19.0159 98.408 17.9459 98.589 17.1159C98.771 16.2759 99.079 15.2659 99.515 14.0659H102.236C102.382 13.3359 102.581 12.7759 102.835 12.3759C103.089 11.9459 103.343 11.3959 103.597 10.7459C105.049 10.6759 106.211 10.6358 107.082 10.6358C107.989 10.6358 109.205 10.6759 110.729 10.7459C110.983 11.3959 111.201 11.9259 111.382 12.3259C111.6 12.6859 111.836 13.2659 112.09 14.0659H114.812C115.247 15.2259 115.556 16.2059 115.737 17.0059C115.955 17.8059 116.064 18.8359 116.064 20.1059V36.1659C116.064 36.6059 116.082 36.9459 116.118 37.2059C116.191 37.4159 116.3 37.6759 116.445 37.9659C116.518 38.0359 116.59 38.0959 116.663 38.1259C116.735 38.1659 116.808 38.2359 116.881 38.3459C117.098 38.4859 117.262 38.6159 117.371 38.7259C117.479 38.8359 117.534 38.9759 117.534 39.1659C117.534 39.4559 117.498 39.6659 117.425 39.8159C117.389 39.9259 117.28 40.0659 117.098 40.2459H110.947C110.838 40.0659 110.747 39.9059 110.675 39.7559C110.638 39.6159 110.62 39.4159 110.62 39.1659C110.62 38.9059 110.656 38.7259 110.729 38.6159C110.838 38.4759 111.001 38.2859 111.219 38.0759C111.4 37.8159 111.546 37.5859 111.654 37.3659C111.8 37.1459 111.872 36.7459 111.872 36.1659V19.2959C111.872 18.0259 111.745 17.0558 111.491 16.4058C111.237 15.7158 110.929 14.9359 110.566 14.0659H109.205C108.479 13.9959 107.898 13.9559 107.463 13.9559C107.027 13.9559 106.446 13.9959 105.721 14.0659H103.706C103.38 14.8659 103.089 15.5859 102.835 16.2459C102.618 16.8559 102.509 17.7458 102.509 18.9058V36.1659ZM11.922 37.9058C11.922 37.2558 12.031 36.5159 12.249 35.6759C13.084 35.4259 13.809 35.2959 14.426 35.2959C15.08 35.2959 15.824 35.4059 16.658 35.6259C16.876 36.4559 16.985 37.2059 16.985 37.8559C17.021 38.4759 16.912 39.1959 16.658 40.0359C15.824 40.2459 15.08 40.3559 14.426 40.3559C13.809 40.3959 13.102 40.3059 12.303 40.0859C12.049 39.2559 11.922 38.5258 11.922 37.9058Z" fill="black"/>
</svg>
