<svg width="138" height="41" viewBox="0 0 138 41" fill="none" xmlns="http://www.w3.org/2000/svg">
<path fill-rule="evenodd" clip-rule="evenodd" d="M4.355 14.2859C5.625 14.3159 6.732 14.2459 7.676 14.0659C8.62 13.8859 9.908 13.6159 11.541 13.2459L13.065 12.9259V10.3059C13.755 10.2359 14.426 10.1259 15.08 9.98593C15.733 9.83593 16.513 9.69586 17.421 9.54586V6.93588C19.126 6.71588 20.578 6.62586 21.776 6.66586C23.01 6.66586 24.461 6.95585 26.131 7.53585V10.3059L28.798 10.1959C28.907 10.9259 29.016 11.5659 29.125 12.1059C29.27 12.6159 29.361 13.2659 29.397 14.0659H26.73C26.802 14.8959 26.838 15.6259 26.838 16.2459C26.838 16.8559 26.766 17.5859 26.621 18.4159H23.953C23.808 19.3259 23.554 20.0758 23.191 20.6558C22.828 21.2358 22.411 21.9358 21.939 22.7758H19.271C19.126 22.9558 18.981 23.1059 18.836 23.2159C18.727 23.3159 18.618 23.4658 18.509 23.6458C17.638 24.5558 16.985 25.2759 16.549 25.8259C16.114 26.3359 15.896 27.0059 15.896 27.8359V31.2658C15.461 31.3758 15.08 31.4659 14.753 31.5359C14.463 31.5759 14.154 31.5759 13.828 31.5359C13.537 31.4659 13.174 31.3758 12.739 31.2658V28.4359C12.739 27.2759 12.848 26.3659 13.065 25.7159C13.283 25.0259 13.573 24.1758 13.936 23.1558L14.1 22.7758H16.767C16.949 22.2358 17.166 21.7959 17.421 21.4659C17.674 21.1459 17.965 20.7059 18.292 20.1659C18.473 19.8359 18.673 19.5659 18.89 19.3459C19.144 19.0959 19.398 18.7859 19.653 18.4159H22.266C22.629 17.5859 22.901 16.8959 23.082 16.3559C23.3 15.8059 23.409 15.0459 23.409 14.0659H26.131V11.3958H24.389C24.026 11.1458 23.645 10.9259 23.246 10.7459C22.883 10.5659 22.374 10.4759 21.721 10.4759C20.995 10.4759 20.324 10.5459 19.707 10.6859C19.09 10.8359 18.328 11.0359 17.421 11.2859V13.9058L13.065 14.7758V17.4359C11.214 17.7659 9.708 17.9859 8.547 18.0959C7.422 18.1659 6.025 18.1159 4.355 17.9259V14.2859ZM4.355 14.2859L1.688 15.3159C1.143 14.5159 0.726 13.7359 0.436 12.9759C0.145 12.2159 0 11.2559 0 10.0959C0.581 9.50591 1.161 9.00588 1.742 8.56588C2.359 8.13588 3.23 7.76592 4.355 7.47592V4.80587L6.642 4.21591C7.113 4.06591 7.476 3.95583 7.73 3.88583C8.021 3.77583 8.347 3.70586 8.71 3.66586V0.995936C9.509 0.895936 10.144 0.875887 10.616 0.945887C11.124 1.01589 11.741 1.14589 12.467 1.32589C12.539 2.12589 12.539 2.75593 12.467 3.23593C12.394 3.70593 12.231 4.30584 11.977 5.02584L8.71 5.35592V7.96591C7.876 8.07591 7.113 8.22585 6.424 8.40585C5.771 8.58585 5.081 8.7259 4.355 8.8359V9.65585C4.101 10.0558 3.865 10.4359 3.647 10.7959C3.466 11.1259 3.375 11.5758 3.375 12.1558C3.375 12.7358 3.466 13.1958 3.647 13.5158C3.865 13.8158 4.101 14.0659 4.355 14.2859ZM39.196 4.42587V1.10592C40.974 0.855921 42.481 0.745853 43.715 0.785853C44.949 0.815853 46.346 0.895936 47.906 0.995936V3.66586C48.777 3.77586 49.449 3.88594 49.921 3.99594C50.429 4.10594 50.973 4.24587 51.554 4.42587C51.59 6.06587 51.608 7.49592 51.608 8.72592C51.645 9.92592 51.663 11.3658 51.663 13.0258C51.227 13.1758 50.846 13.2859 50.519 13.3559C50.229 13.3959 49.921 13.3959 49.594 13.3559C49.267 13.3259 48.868 13.2259 48.396 13.0859C48.287 12.0359 48.197 11.2158 48.124 10.6358C48.051 10.0558 47.979 9.3259 47.906 8.4559V6.11593C46.781 5.39593 45.801 4.86585 44.967 4.53585C44.132 4.21585 43.279 4.04586 42.408 4.04586C41.537 4.04586 40.466 4.17587 39.196 4.42587ZM48.015 35.8359C48.378 33.1159 48.378 30.8659 48.015 29.0859C47.689 27.3159 47.162 25.2058 46.437 22.7758H43.823C43.642 22.3058 43.442 21.9258 43.225 21.6358C43.043 21.3058 42.862 20.9059 42.68 20.4359C42.499 20.0759 42.317 19.7659 42.136 19.5059C41.991 19.2159 41.827 18.8559 41.646 18.4159H38.978C38.579 17.5159 38.253 16.7659 37.998 16.1859C37.781 15.6059 37.599 14.8959 37.454 14.0659H34.841C34.66 12.9359 34.496 11.8359 34.351 10.7459C34.242 9.65594 34.333 8.54587 34.623 7.42587C34.914 6.26587 35.549 5.04584 36.529 3.77584L39.196 4.42587C38.797 5.62587 38.525 6.69584 38.38 7.64584C38.271 8.58584 38.307 9.5659 38.488 10.5859C38.706 11.5959 39.069 12.7559 39.577 14.0659H42.245C42.462 14.8659 42.753 15.5759 43.116 16.1859C43.515 16.8059 43.896 17.5459 44.259 18.4159H46.926C47.217 19.2559 47.489 19.9659 47.743 20.5459C48.033 21.0859 48.324 21.8358 48.614 22.7758H51.227C51.772 25.1658 52.116 27.2958 52.262 29.1458C52.443 30.9558 52.28 33.1959 51.772 35.8359H48.015ZM39.196 36.7159C40.43 36.9659 41.501 37.1158 42.408 37.1458C43.352 37.1458 44.241 37.0359 45.076 36.8159C45.947 36.6059 46.926 36.2759 48.015 35.8359L49.104 38.5059C47.435 39.2659 45.892 39.7959 44.477 40.0859C43.061 40.3759 41.301 40.4459 39.196 40.3059V36.7159ZM39.196 36.7159L36.529 37.6959C35.875 37.0059 35.349 36.4359 34.95 36.0059C34.551 35.5359 34.351 34.8959 34.351 34.0959L34.297 31.5959L34.242 27.8958C34.678 27.7858 35.041 27.6959 35.331 27.6159C35.658 27.5459 35.966 27.5259 36.256 27.5659C36.583 27.6059 36.982 27.6959 37.454 27.8359L37.563 28.6558C37.744 30.4358 37.944 31.8659 38.162 32.9559C38.416 34.0459 38.761 35.2959 39.196 36.7159ZM61.19 35.8359C62.206 36.0959 63.095 36.3159 63.857 36.4959C64.655 36.6359 65.454 36.6759 66.252 36.6059C67.087 36.5259 68.121 36.2759 69.355 35.8359L70.118 38.5059C68.884 39.3059 67.704 39.8659 66.579 40.1959C65.454 40.5259 64.311 40.5259 63.149 40.1959C61.988 39.9059 60.736 39.3459 59.393 38.5059L61.19 35.8359ZM61.788 14.0659C61.317 16.6059 60.935 18.9459 60.645 21.0859C60.391 23.1959 60.3 25.4059 60.373 27.7259C60.446 30.0559 60.718 32.7559 61.19 35.8359H56.78C56.236 32.5359 55.963 29.7459 55.963 27.4559C56 25.1659 56.217 23.0259 56.617 21.0359C57.052 19.0059 57.578 16.6759 58.195 14.0659H61.788ZM61.788 14.0659L60.808 11.3958C62.405 11.1058 63.676 10.9259 64.619 10.8559C65.563 10.7459 66.778 10.6859 68.266 10.6859C68.702 11.2659 69.029 11.7759 69.246 12.2159C69.501 12.6459 69.682 13.2659 69.791 14.0659H72.458C72.64 14.9359 72.749 15.7359 72.785 16.4559C72.858 17.1859 72.894 18.0759 72.894 19.1259V19.4559C72.422 19.5659 72.041 19.6559 71.751 19.7259C71.497 19.7659 71.206 19.7659 70.88 19.7259C70.553 19.6859 70.154 19.6159 69.682 19.5059C69.646 19.3659 69.609 19.2359 69.573 19.1259C69.573 18.9859 69.555 18.8158 69.519 18.6358C69.374 17.5858 69.21 16.7359 69.029 16.0759C68.847 15.4259 68.611 14.7559 68.321 14.0659H66.252C65.309 13.9159 64.546 13.8658 63.966 13.9058C63.385 13.9058 62.659 13.9559 61.788 14.0659ZM69.355 35.8359C69.464 35.2259 69.555 34.6958 69.628 34.2658C69.736 33.7858 69.827 33.2459 69.9 32.6259L69.954 31.9259C70.462 31.8159 70.862 31.7559 71.152 31.7559C71.478 31.7559 71.769 31.7959 72.023 31.8659C72.313 31.9359 72.658 32.0258 73.057 32.1358C73.057 32.8658 73.021 33.4859 72.948 33.9859C72.912 34.4659 72.858 35.0759 72.785 35.8359H69.355ZM90.478 35.8359C90.623 35.0459 90.75 34.3159 90.859 33.6659C91.004 33.0059 91.113 32.2859 91.185 31.4859C91.657 31.3359 92.038 31.2658 92.329 31.2658C92.655 31.2358 92.964 31.2459 93.254 31.3259C93.544 31.3959 93.907 31.4859 94.343 31.5959C94.27 32.4259 94.198 33.1558 94.125 33.7758C94.053 34.3858 93.962 35.0759 93.853 35.8359H90.478ZM81.985 35.8359C83.038 36.0959 83.963 36.3159 84.762 36.4959C85.596 36.6359 86.449 36.6759 87.32 36.6059C88.228 36.5259 89.28 36.2759 90.478 35.8359L91.24 38.5059C90.042 39.3459 88.845 39.9059 87.647 40.1959C86.486 40.4859 85.288 40.4859 84.054 40.1959C82.856 39.8659 81.604 39.3059 80.298 38.5059L81.985 35.8359ZM82.638 14.0659C82.13 16.6059 81.713 18.9459 81.386 21.0859C81.31 21.5859 81.244 22.0859 81.189 22.5959C81.448 22.7259 81.677 22.8359 81.876 22.9359C82.13 23.0459 82.493 23.1059 82.965 23.1059C83.691 23.1359 84.381 23.1558 85.034 23.1558H87.32C87.974 23.1558 88.463 23.1359 88.79 23.1059C89.153 23.0259 89.552 22.9158 89.988 22.7758C90.06 22.2658 90.097 21.8458 90.097 21.5258C90.133 21.1558 90.151 20.7059 90.151 20.1659V19.8858C90.151 18.5858 90.078 17.5359 89.933 16.7359C89.824 15.8959 89.625 15.0059 89.334 14.0659H87.266C86.286 13.8859 85.487 13.8159 84.87 13.8459C84.254 13.8859 83.51 13.9559 82.638 14.0659L81.386 11.3958C82.947 11.1058 84.181 10.9259 85.088 10.8559C85.996 10.7459 87.193 10.6859 88.681 10.6859C89.044 11.2659 89.389 11.7759 89.716 12.2159C90.078 12.6459 90.369 13.2659 90.587 14.0659H93.254C93.653 15.6959 93.944 17.0959 94.125 18.2559C94.307 19.4159 94.379 20.9258 94.343 22.7758C94.343 23.6458 94.307 24.3159 94.234 24.7859C94.198 25.2659 94.071 25.7859 93.853 26.3659H84.435C83.564 26.3659 82.929 26.4558 82.53 26.6358C82.13 26.8258 81.622 27.0359 81.005 27.2959C81.005 26.9859 80.999 26.7059 80.986 26.4559C80.985 26.8959 80.991 27.3359 81.005 27.7859C81.114 30.1059 81.441 32.7959 81.985 35.8359H77.685C77.104 32.5759 76.795 29.7958 76.759 27.5158C76.759 25.2258 76.941 23.0659 77.303 21.0359C77.703 19.0059 78.193 16.6759 78.773 14.0659H82.638ZM133.757 35.8359C133.866 35.0459 133.993 34.3159 134.138 33.6659C134.283 33.0059 134.374 32.2859 134.41 31.4859C134.882 31.3359 135.263 31.2658 135.553 31.2658C135.88 31.2358 136.188 31.2459 136.479 31.3259C136.769 31.3959 137.132 31.4859 137.567 31.5959C137.531 32.4259 137.459 33.1558 137.35 33.7758C137.277 34.3858 137.204 35.0759 137.132 35.8359H133.757ZM125.264 35.8359C126.317 36.0959 127.242 36.3159 128.041 36.4959C128.875 36.6359 129.728 36.6759 130.599 36.6059C131.47 36.5259 132.523 36.2759 133.757 35.8359L134.464 38.5059C133.267 39.3459 132.069 39.9059 130.871 40.1959C129.71 40.4859 128.512 40.4859 127.278 40.1959C126.081 39.8659 124.847 39.3059 123.577 38.5059L125.264 35.8359ZM125.863 14.0659C125.355 16.6059 124.938 18.9459 124.611 21.0859C124.543 21.5759 124.486 22.0759 124.438 22.5759C124.71 22.7159 124.949 22.8359 125.155 22.9359C125.373 23.0459 125.718 23.1059 126.19 23.1059C126.916 23.1359 127.605 23.1558 128.258 23.1558H130.545C131.234 23.1558 131.742 23.1359 132.069 23.1059C132.396 23.0259 132.795 22.9158 133.267 22.7758C133.339 22.2658 133.376 21.8458 133.376 21.5258V19.8858C133.376 18.5858 133.303 17.5359 133.158 16.7359C133.049 15.8959 132.868 15.0059 132.613 14.0659H130.49C129.547 13.8859 128.748 13.8159 128.095 13.8459C127.478 13.8859 126.734 13.9559 125.863 14.0659L124.665 11.3958C126.226 11.1058 127.46 10.9259 128.367 10.8559C129.275 10.7459 130.472 10.6859 131.96 10.6859C132.287 11.2659 132.632 11.7759 132.995 12.2159C133.357 12.6459 133.648 13.2659 133.866 14.0659H136.533C136.932 15.6959 137.204 17.0959 137.35 18.2559C137.531 19.4159 137.622 20.9258 137.622 22.7758C137.622 23.6458 137.586 24.3159 137.513 24.7859C137.44 25.2659 137.313 25.7859 137.132 26.3659H127.714C126.843 26.3659 126.208 26.4558 125.809 26.6358C125.409 26.8258 124.901 27.0359 124.284 27.2959C124.278 27.2059 124.272 27.1259 124.267 27.0459C124.271 27.2859 124.276 27.5359 124.284 27.7859C124.357 30.1059 124.684 32.7959 125.264 35.8359H120.909C120.365 32.5759 120.074 29.7958 120.038 27.5158C120.038 25.2258 120.22 23.0659 120.582 21.0359C120.982 19.0059 121.453 16.6759 121.998 14.0659H125.863ZM102.454 36.1659C102.418 36.7459 102.472 37.1459 102.618 37.3659C102.799 37.5459 103.053 37.7658 103.38 38.0158V38.0759C103.416 38.0759 103.452 38.0959 103.489 38.1259C103.706 38.3059 103.852 38.4759 103.924 38.6159C103.997 38.7259 104.033 38.9059 104.033 39.1659C104.033 39.4159 103.997 39.6159 103.924 39.7559C103.888 39.8659 103.797 40.0359 103.652 40.2459H97.391C97.246 40.0659 97.137 39.9259 97.065 39.8159C96.992 39.6659 96.956 39.4559 96.956 39.1659C96.956 38.9759 96.992 38.8359 97.065 38.7259C97.174 38.6159 97.337 38.4759 97.555 38.2859C97.591 38.2559 97.646 38.2159 97.718 38.1859C97.791 38.1059 97.845 38.0359 97.881 37.9659C98.063 37.6759 98.172 37.4159 98.208 37.2059C98.244 36.9459 98.262 36.6059 98.262 36.1659V20.3259C98.262 19.0159 98.353 17.9459 98.535 17.1159C98.752 16.2759 99.079 15.2659 99.515 14.0659H102.182C102.327 13.3759 102.527 12.8159 102.781 12.3759C103.035 11.9459 103.289 11.3959 103.543 10.7459C105.031 10.7059 106.211 10.6859 107.082 10.6859C107.989 10.6859 109.168 10.7259 110.62 10.7959C110.91 11.4159 111.146 11.9259 111.328 12.3259C111.546 12.6859 111.8 13.2659 112.09 14.0659H114.703C115.175 15.2259 115.501 16.2059 115.683 17.0059C115.901 17.8059 116.01 18.8359 116.01 20.1059V36.1659C116.01 36.6059 116.028 36.9459 116.064 37.2059C116.137 37.4159 116.264 37.6759 116.445 37.9659C116.518 38.0759 116.59 38.1459 116.663 38.1859C116.735 38.2159 116.808 38.2759 116.881 38.3459C117.098 38.4859 117.262 38.6159 117.371 38.7259C117.479 38.8359 117.534 38.9759 117.534 39.1659C117.534 39.4559 117.498 39.6659 117.425 39.8159C117.389 39.9259 117.28 40.0659 117.098 40.2459H110.892C110.783 40.0659 110.693 39.9059 110.62 39.7559C110.548 39.6159 110.511 39.4159 110.511 39.1659C110.511 38.9059 110.566 38.7259 110.675 38.6159C110.783 38.4759 110.947 38.2859 111.164 38.0759C111.346 37.8159 111.509 37.5859 111.654 37.3659C111.8 37.1459 111.854 36.7459 111.818 36.1659V19.2959C111.818 18.0259 111.691 17.0558 111.437 16.4058C111.183 15.7158 110.856 14.9359 110.457 14.0659H109.15C108.424 13.9959 107.844 13.9559 107.408 13.9559C106.973 13.9559 106.392 13.9959 105.666 14.0659H103.706C103.343 14.8659 103.035 15.5859 102.781 16.2459C102.563 16.8559 102.454 17.7458 102.454 18.9058V36.1659ZM11.868 37.8559C11.868 37.2059 11.995 36.4759 12.249 35.6759C13.084 35.4259 13.809 35.2959 14.426 35.2959C15.08 35.2959 15.824 35.4059 16.658 35.6259C16.876 36.4559 16.985 37.2059 16.985 37.8559C17.021 38.4759 16.912 39.1959 16.658 40.0359C15.824 40.2859 15.08 40.4159 14.426 40.4159C13.809 40.4159 13.084 40.3059 12.249 40.0859C12.031 39.2559 11.904 38.5059 11.868 37.8559Z" fill="black"/>
</svg>
