<svg width="140" height="40" viewBox="0 0 140 40" fill="none" xmlns="http://www.w3.org/2000/svg">
<path fill-rule="evenodd" clip-rule="evenodd" d="M4.355 13.065L0.163 13.174C0.127 12.267 0.091 11.559 0.054 11.051C0.018 10.507 0 9.744 0 8.765C0.907 8.692 1.615 8.638 2.123 8.601C2.631 8.565 3.375 8.529 4.355 8.492V4.30099L6.642 4.246C7.113 4.21 7.458 4.192 7.676 4.192H8.71V0H10.833C11.342 0 12.067 0.0180009 13.011 0.0540009V2.177C13.011 2.649 12.993 3.35699 12.957 4.30099L8.71 4.355V8.547C7.767 8.547 7.041 8.565 6.533 8.601H4.355V9.908C4.319 10.271 4.283 10.543 4.246 10.724V12.412C4.283 12.557 4.319 12.775 4.355 13.065ZM4.355 13.065C5.916 13.102 7.095 13.102 7.894 13.065C8.692 13.029 9.908 12.993 11.541 12.956H13.065V8.765H15.189C15.697 8.728 16.441 8.71001 17.421 8.71001V4.51801C19.308 4.48201 20.741 4.464 21.721 4.464C22.737 4.464 24.207 4.5 26.131 4.573V8.765H30.323V10.888C30.359 11.396 30.377 12.122 30.377 13.065H26.185V17.42H21.993C21.993 18.364 21.975 19.09 21.939 19.598L21.776 21.776H17.584C17.584 21.957 17.566 22.084 17.529 22.157V22.538C17.457 23.336 17.384 23.935 17.312 24.334C17.275 24.697 17.257 25.296 17.257 26.131V30.486H13.011V27.219C13.011 26.094 13.029 25.26 13.065 24.715C13.102 24.171 13.138 23.336 13.174 22.211V21.776H17.366C17.366 21.159 17.384 20.705 17.421 20.415C17.457 20.124 17.493 19.671 17.529 19.054V18.237C17.566 18.056 17.602 17.783 17.638 17.42H21.83C21.866 16.477 21.885 15.769 21.885 15.297C21.921 14.789 21.939 14.045 21.939 13.065H26.131V8.873H23.463C22.919 8.837 22.483 8.819 22.157 8.819C21.866 8.783 21.431 8.765 20.85 8.765C20.124 8.765 19.562 8.783 19.163 8.819C18.763 8.819 18.183 8.837 17.421 8.873V13.065L13.065 13.12V17.312C11.142 17.348 9.69 17.384 8.71 17.42C7.73 17.42 6.279 17.402 4.355 17.366V13.065ZM39.196 4.246V0H47.906V4.192C48.85 4.192 49.558 4.21 50.03 4.246H52.207V12.956C51.518 12.956 50.991 12.975 50.628 13.011H49.539C49.177 13.011 48.65 12.993 47.961 12.956C47.961 11.904 47.943 11.105 47.906 10.561V4.409C46.491 4.337 45.402 4.30099 44.64 4.30099C43.914 4.26399 43.17 4.246 42.408 4.246H39.196ZM39.196 34.95L35.004 35.004L34.841 32.936C34.805 32.427 34.786 31.702 34.786 30.758V26.185H39.033V27.002C39.033 28.744 39.051 30.068 39.087 30.976C39.124 31.883 39.16 33.208 39.196 34.95ZM47.906 34.841L48.015 39.033C46.128 39.105 44.676 39.16 43.66 39.196C42.644 39.232 41.156 39.232 39.196 39.196V34.95H44.64C45.402 34.913 46.491 34.877 47.906 34.841ZM39.033 13.065H34.841C34.805 11.65 34.786 10.561 34.786 9.799V7.51199C34.823 6.74999 34.895 5.643 35.004 4.192L39.196 4.246C39.16 5.698 39.124 6.805 39.087 7.567V9.799L39.251 13.065H43.442C43.442 14.009 43.461 14.735 43.497 15.243C43.533 15.715 43.569 16.44 43.606 17.42H47.798C47.834 18.364 47.87 19.09 47.906 19.598C47.943 20.07 47.961 20.796 47.961 21.776H52.153C52.225 24.606 52.262 26.766 52.262 28.254C52.298 29.705 52.28 31.901 52.207 34.841H47.906C47.943 31.974 47.943 29.814 47.906 28.363L47.743 21.776H43.551C43.551 21.267 43.533 20.886 43.497 20.632C43.497 20.378 43.479 19.979 43.442 19.435C43.442 18.999 43.424 18.672 43.388 18.455C43.388 18.237 43.37 17.892 43.334 17.42H39.196L39.033 15.297V13.065ZM60.972 34.841C62.387 34.877 63.458 34.913 64.184 34.95H66.361C67.123 34.913 68.212 34.877 69.628 34.841L69.736 39.033C68.285 39.105 67.178 39.16 66.416 39.196C65.653 39.232 64.891 39.232 64.129 39.196C63.367 39.16 62.26 39.105 60.808 39.033L60.972 34.841ZM61.081 13.065C61.008 16.586 60.954 19.271 60.917 21.122V26.729C60.917 28.58 60.935 31.284 60.972 34.841H56.617C56.58 31.248 56.562 28.526 56.562 26.675C56.562 24.788 56.58 22.937 56.617 21.122C56.653 19.271 56.707 16.586 56.78 13.065H61.081ZM61.081 13.065L60.972 8.873C62.895 8.837 64.329 8.819 65.272 8.819H69.519C69.591 9.763 69.628 10.47 69.628 10.942C69.664 11.414 69.682 12.122 69.682 13.065H73.874C73.91 13.973 73.928 14.662 73.928 15.134V17.529C73.239 17.529 72.712 17.547 72.35 17.584H71.261C70.898 17.547 70.372 17.529 69.682 17.529V16.822C69.646 15.951 69.609 15.315 69.573 14.916C69.573 14.481 69.555 13.864 69.519 13.065H61.081ZM69.628 34.841C69.664 34.042 69.682 33.444 69.682 33.044V31.357L69.736 30.54H71.315C71.678 30.504 72.023 30.504 72.35 30.54H73.928V34.841H69.628ZM91.349 34.841C91.385 33.897 91.403 33.171 91.403 32.663V30.486H95.649V32.718C95.649 33.19 95.631 33.897 95.595 34.841H91.349ZM82.693 34.841C84.072 34.877 85.125 34.913 85.85 34.95H88.082C88.845 34.913 89.933 34.877 91.349 34.841L91.458 39.033C90.006 39.105 88.899 39.16 88.137 39.196C87.375 39.232 86.594 39.232 85.796 39.196C85.034 39.16 83.927 39.105 82.475 39.033L82.693 34.841ZM82.747 13.065C82.675 16.586 82.62 19.271 82.584 21.122V21.776C83.056 21.776 83.419 21.794 83.673 21.83H90.042C90.333 21.794 90.75 21.776 91.294 21.776V20.306C91.331 19.979 91.349 19.525 91.349 18.945V18.564C91.349 17.33 91.331 16.404 91.294 15.787C91.294 15.134 91.276 14.227 91.24 13.065H82.747L82.584 8.873C84.507 8.837 85.941 8.819 86.885 8.819H91.185C91.222 9.763 91.258 10.47 91.294 10.942C91.331 11.414 91.349 12.122 91.349 13.065H95.54C95.577 14.989 95.595 16.44 95.595 17.42C95.631 18.4 95.649 19.852 95.649 21.776V24.008C95.649 24.479 95.631 25.169 95.595 26.076H87.102C86.086 26.076 85.324 26.094 84.816 26.131H82.584V26.729C82.584 28.58 82.62 31.284 82.693 34.841H78.338C78.265 31.248 78.229 28.526 78.229 26.675C78.229 24.788 78.247 22.937 78.283 21.122C78.32 19.271 78.374 16.586 78.447 13.065H82.747ZM126.19 34.841C127.605 34.877 128.676 34.913 129.402 34.95H131.579C132.341 34.913 133.448 34.877 134.9 34.841L134.954 39.033C133.539 39.105 132.432 39.16 131.634 39.196C130.871 39.232 130.091 39.232 129.293 39.196C128.531 39.16 127.442 39.105 126.026 39.033L126.19 34.841ZM126.244 13.065C126.208 16.586 126.172 19.271 126.135 21.122C126.131 21.34 126.127 21.558 126.123 21.776C126.61 21.777 126.977 21.795 127.224 21.83H133.539C133.829 21.794 134.265 21.776 134.845 21.776V18.564C134.845 17.33 134.827 16.404 134.791 15.787C134.791 15.134 134.773 14.227 134.737 13.065H126.244L126.135 8.873C128.059 8.837 129.492 8.819 130.436 8.819H134.682C134.718 9.763 134.755 10.47 134.791 10.942C134.827 11.414 134.864 12.122 134.9 13.065H139.092C139.128 14.989 139.146 16.44 139.146 17.42C139.182 18.4 139.201 19.852 139.201 21.776C139.201 22.755 139.182 23.499 139.146 24.008V26.076H130.654C129.601 26.076 128.821 26.094 128.313 26.131H126.081C126.081 26.33 126.081 26.529 126.081 26.729C126.081 28.58 126.117 31.284 126.19 34.841H121.835C121.762 31.248 121.726 28.526 121.726 26.675C121.726 24.788 121.744 22.937 121.78 21.122C121.853 19.271 121.907 16.586 121.943 13.065H126.244ZM134.9 34.841V32.663C134.936 32.155 134.954 31.429 134.954 30.486H139.201C139.201 31.466 139.182 32.21 139.146 32.718V34.841H134.9ZM104.305 15.461V35.712C104.341 35.857 104.378 36.111 104.414 36.474V36.637C104.45 36.928 104.468 37.145 104.468 37.291V38.543C104.468 38.652 104.45 38.869 104.414 39.196H99.896C99.859 38.906 99.841 38.688 99.841 38.543V37.454C99.841 37.345 99.859 37.2 99.896 37.018V36.855C99.932 36.783 99.95 36.71 99.95 36.637V18.999C99.95 17.693 99.968 16.713 100.004 16.059C100.041 15.406 100.077 14.408 100.113 13.065H104.305V10.997C104.341 10.488 104.378 9.763 104.414 8.819H112.961C112.997 9.726 113.015 10.434 113.015 10.942C113.052 11.414 113.088 12.122 113.124 13.065H117.316C117.352 14.372 117.371 15.352 117.371 16.005C117.407 16.622 117.425 17.602 117.425 18.945V35.766C117.425 35.948 117.443 36.238 117.479 36.637V36.855C117.479 36.891 117.498 36.964 117.534 37.073V37.454C117.57 37.563 117.588 37.726 117.588 37.944V38.597C117.588 38.706 117.57 38.906 117.534 39.196H113.015C112.979 38.906 112.961 38.688 112.961 38.543V37.291C112.997 37.145 113.015 36.928 113.015 36.637C113.052 36.238 113.07 35.948 113.07 35.766V18.564C113.07 17.33 113.052 16.404 113.015 15.787C113.015 15.17 112.997 14.263 112.961 13.065H104.414C104.378 14.081 104.341 14.88 104.305 15.461ZM12.957 34.841C13.936 34.805 14.68 34.786 15.189 34.786C15.697 34.786 16.422 34.805 17.366 34.841V39.196H12.957V34.841Z" fill="black"/>
</svg>
