<svg width="138" height="41" viewBox="0 0 138 41" fill="none" xmlns="http://www.w3.org/2000/svg">
<path fill-rule="evenodd" clip-rule="evenodd" d="M4.355 14.2859L1.742 15.3159C1.198 14.5559 0.762 13.7958 0.436 13.0258C0.145 12.2358 0 11.2658 0 10.1458C0.581 9.49584 1.161 8.94583 1.742 8.51583C2.359 8.07583 3.23 7.71587 4.355 7.42587V4.80587L6.642 4.15585C7.113 4.04585 7.476 3.93589 7.73 3.82589C8.021 3.72589 8.347 3.64593 8.71 3.61593V0.995936C9.509 0.895936 10.144 0.875887 10.616 0.945887C11.124 1.01589 11.723 1.14589 12.412 1.32589C12.521 2.12589 12.521 2.75593 12.412 3.23593C12.339 3.70593 12.176 4.30584 11.922 5.02584L8.71 5.35592V7.96591C7.876 8.07591 7.113 8.22585 6.424 8.40585C5.771 8.58585 5.081 8.71585 4.355 8.78585V9.60592C4.101 9.99592 3.865 10.3859 3.647 10.7459C3.466 11.0759 3.375 11.5259 3.375 12.1059C3.375 12.7259 3.466 13.1958 3.647 13.5158C3.865 13.8158 4.101 14.0659 4.355 14.2859ZM4.355 14.2859C5.625 14.3559 6.732 14.3059 7.676 14.1159C8.62 13.9059 9.908 13.6159 11.541 13.2459L13.065 12.9259V10.3059C13.755 10.2359 14.426 10.1259 15.08 9.98593C15.733 9.83593 16.513 9.69586 17.421 9.54586V6.93588C19.126 6.75588 20.578 6.67591 21.776 6.71591C23.01 6.71591 24.461 7.0059 26.131 7.5859V10.3659L28.744 10.1959C28.889 10.9259 29.016 11.5659 29.125 12.1059C29.234 12.6159 29.325 13.2659 29.397 14.0659H26.784C26.857 14.8959 26.875 15.6259 26.838 16.2459C26.838 16.8559 26.766 17.5859 26.621 18.4159H24.008C23.862 19.3259 23.59 20.0758 23.191 20.6558C22.828 21.2358 22.411 21.9358 21.939 22.7758H19.326C19.181 22.9558 19.036 23.1059 18.89 23.2159C18.782 23.3159 18.654 23.4658 18.509 23.6458C17.638 24.5558 16.967 25.2759 16.495 25.8259C16.06 26.3659 15.842 27.0558 15.842 27.8958V31.2658C15.406 31.3758 15.025 31.4659 14.698 31.5359C14.408 31.5759 14.118 31.5759 13.828 31.5359C13.537 31.4659 13.174 31.3758 12.739 31.2658V28.4359C12.739 27.2759 12.848 26.3659 13.065 25.7159C13.283 25.0259 13.592 24.1758 13.991 23.1558L14.154 22.7758H16.767C16.949 22.2358 17.166 21.7959 17.421 21.4659C17.711 21.1459 18.001 20.7059 18.292 20.1659C18.509 19.8359 18.727 19.5659 18.945 19.3459C19.199 19.0959 19.453 18.7859 19.707 18.4159H22.32C22.683 17.5859 22.955 16.8959 23.137 16.3559C23.354 15.8059 23.463 15.0459 23.463 14.0659H26.131V11.4559H24.389C24.062 11.1659 23.699 10.9259 23.3 10.7459C22.901 10.5659 22.374 10.4759 21.721 10.4759C20.995 10.4759 20.324 10.5659 19.707 10.7459C19.09 10.8859 18.328 11.0759 17.421 11.2859V13.9058L13.065 14.7758V17.3858C11.214 17.7158 9.708 17.9259 8.547 18.0359C7.422 18.1459 6.025 18.1159 4.355 17.9259V14.2859ZM39.196 36.7159L36.583 37.6959C35.93 37.0359 35.385 36.4959 34.95 36.0559C34.551 35.5859 34.351 34.9558 34.351 34.1558L34.297 31.5959L34.242 27.8958C34.678 27.7858 35.041 27.6959 35.331 27.6159C35.621 27.5459 35.93 27.5459 36.256 27.6159C36.583 27.6559 36.982 27.7259 37.454 27.8359L37.509 28.7059C37.69 30.4559 37.908 31.8859 38.162 33.0059C38.416 34.0959 38.761 35.3359 39.196 36.7159ZM39.196 4.42587V1.10592C40.974 0.855921 42.481 0.745853 43.715 0.785853C44.985 0.815853 46.382 0.895936 47.906 0.995936V3.61593C48.777 3.72593 49.449 3.84594 49.921 3.99594C50.429 4.10594 50.973 4.24587 51.554 4.42587C51.59 6.06587 51.608 7.47587 51.608 8.67587C51.645 9.87587 51.663 11.3258 51.663 13.0258C51.227 13.1358 50.846 13.2259 50.519 13.3059C50.229 13.3759 49.921 13.3959 49.594 13.3559C49.267 13.2859 48.886 13.1959 48.451 13.0859C48.306 12.0359 48.197 11.2158 48.124 10.6358C48.051 10.0158 47.979 9.2959 47.906 8.4559V6.11593C46.818 5.39593 45.838 4.86585 44.967 4.53585C44.132 4.21585 43.261 4.04586 42.354 4.04586C41.483 4.04586 40.43 4.17587 39.196 4.42587ZM48.015 35.8359C48.378 33.1159 48.378 30.8659 48.015 29.0859C47.689 27.2759 47.162 25.1658 46.437 22.7758H43.823C43.642 22.3058 43.442 21.9258 43.225 21.6358C43.043 21.3058 42.844 20.9059 42.626 20.4359C42.481 20.0759 42.317 19.7659 42.136 19.5059C41.954 19.2159 41.773 18.8559 41.591 18.4159H38.978C38.579 17.5159 38.253 16.7659 37.998 16.1859C37.744 15.6059 37.563 14.8959 37.454 14.0659H34.841C34.623 12.9759 34.46 11.8859 34.351 10.7959C34.242 9.67586 34.333 8.54587 34.623 7.42587C34.914 6.26587 35.567 5.02592 36.583 3.72592L39.196 4.42587C38.797 5.58587 38.525 6.66584 38.38 7.64584C38.271 8.58584 38.307 9.5659 38.488 10.5859C38.706 11.5959 39.069 12.7559 39.577 14.0659H42.19C42.444 14.8659 42.753 15.5759 43.116 16.1859C43.515 16.8059 43.896 17.5459 44.259 18.4159H46.872C47.199 19.2559 47.489 19.9659 47.743 20.5459C48.033 21.0859 48.324 21.8358 48.614 22.7758H51.227C51.772 25.1658 52.116 27.2958 52.262 29.1458C52.443 30.9558 52.28 33.1959 51.772 35.8359H48.015ZM39.196 36.7159C40.43 36.9659 41.501 37.1158 42.408 37.1458C43.352 37.1858 44.241 37.0959 45.076 36.8759C45.947 36.6259 46.926 36.2759 48.015 35.8359L49.158 38.4559C47.489 39.2559 45.928 39.7959 44.477 40.0859C43.061 40.3759 41.301 40.4459 39.196 40.3059V36.7159ZM69.355 35.8359C69.464 35.2259 69.555 34.6958 69.628 34.2658C69.736 33.7858 69.827 33.2459 69.9 32.6259L69.954 31.9259C70.462 31.8159 70.862 31.7559 71.152 31.7559C71.478 31.7559 71.769 31.7959 72.023 31.8659C72.313 31.9359 72.658 32.0258 73.057 32.1358C73.021 32.9058 72.966 33.5159 72.894 33.9859C72.858 34.4659 72.803 35.0759 72.731 35.8359H69.355ZM61.19 35.8359C62.206 36.1359 63.095 36.3659 63.857 36.5459C64.619 36.6959 65.418 36.7258 66.252 36.6558C67.087 36.5458 68.121 36.2759 69.355 35.8359L70.118 38.4559C68.92 39.2859 67.74 39.8659 66.579 40.1959C65.454 40.5259 64.293 40.5259 63.095 40.1959C61.934 39.9059 60.7 39.3259 59.393 38.4559L61.19 35.8359ZM61.843 14.0659C61.335 16.5659 60.935 18.8959 60.645 21.0359C60.355 23.1759 60.246 25.4259 60.318 27.7859C60.391 30.1059 60.681 32.7959 61.19 35.8359H56.78C56.236 32.5359 55.963 29.7459 55.963 27.4559C56 25.1659 56.217 23.0159 56.617 20.9759C57.052 18.9459 57.578 16.6459 58.195 14.0659H61.843ZM61.843 14.0659L60.808 11.4559C62.369 11.1659 63.621 10.9659 64.565 10.8559C65.545 10.7459 66.778 10.6859 68.266 10.6859C68.702 11.2659 69.029 11.7759 69.246 12.2159C69.501 12.6459 69.682 13.2659 69.791 14.0659H72.404C72.622 14.9359 72.749 15.7359 72.785 16.4559C72.821 17.1859 72.839 18.0959 72.839 19.1859V19.4559C72.404 19.5659 72.041 19.6559 71.751 19.7259C71.46 19.7959 71.152 19.8159 70.825 19.7859C70.535 19.7459 70.154 19.6559 69.682 19.5059C69.646 19.3959 69.609 19.2959 69.573 19.1859C69.573 19.0359 69.555 18.8759 69.519 18.6959C69.337 17.6059 69.156 16.7359 68.974 16.0759C68.793 15.4259 68.575 14.7559 68.321 14.0659H66.252C65.309 13.9159 64.546 13.8658 63.966 13.9058C63.385 13.9058 62.678 13.9559 61.843 14.0659ZM90.478 35.8359C90.623 35.0759 90.75 34.3759 90.859 33.7159C91.004 33.0259 91.113 32.2859 91.185 31.4859C91.657 31.3359 92.038 31.2658 92.329 31.2658C92.619 31.2358 92.909 31.2459 93.2 31.3259C93.49 31.3959 93.853 31.4859 94.288 31.5959C94.252 32.4259 94.18 33.1558 94.071 33.7758C93.998 34.3858 93.926 35.0759 93.853 35.8359H90.478ZM81.985 35.8359C83.001 36.1359 83.927 36.3659 84.762 36.5459C85.596 36.6959 86.449 36.7258 87.32 36.6558C88.191 36.5458 89.244 36.2759 90.478 35.8359L91.24 38.4559C90.042 39.3259 88.845 39.9059 87.647 40.1959C86.449 40.4859 85.233 40.4658 83.999 40.1458C82.802 39.8158 81.55 39.2559 80.243 38.4559L81.985 35.8359ZM82.638 14.0659C82.094 16.5659 81.659 18.8959 81.332 21.0359C81.263 21.5459 81.204 22.0559 81.156 22.5759C81.429 22.7159 81.669 22.8259 81.876 22.9359C82.094 23.0459 82.439 23.1059 82.911 23.1059C83.637 23.1359 84.326 23.1558 84.979 23.1558H87.266C87.955 23.1558 88.463 23.1359 88.79 23.1059C89.117 23.0259 89.498 22.9158 89.933 22.7758C90.006 22.2658 90.042 21.8458 90.042 21.5258C90.078 21.1558 90.097 20.7259 90.097 20.2159V19.8858C90.097 18.5858 90.024 17.5159 89.879 16.6759C89.77 15.8459 89.57 14.9759 89.28 14.0659H87.266C86.286 13.8859 85.487 13.8159 84.87 13.8459C84.254 13.8859 83.51 13.9559 82.638 14.0659L81.386 11.4559C82.947 11.1259 84.163 10.9259 85.034 10.8559C85.941 10.7459 87.139 10.6859 88.627 10.6859C88.99 11.3059 89.353 11.8358 89.716 12.2658C90.078 12.6658 90.369 13.2659 90.587 14.0659H93.2C93.635 15.6959 93.926 17.0959 94.071 18.2559C94.252 19.4159 94.325 20.9258 94.288 22.7758C94.288 23.6458 94.252 24.3159 94.18 24.7859C94.143 25.2659 94.016 25.7859 93.798 26.3659H84.381C83.51 26.3659 82.874 26.4558 82.475 26.6358C82.076 26.8258 81.586 27.0359 81.005 27.2959C81 27.2159 80.994 27.1459 80.989 27.0659C80.992 27.3059 80.998 27.5459 81.005 27.7859C81.078 30.1059 81.405 32.7959 81.985 35.8359H77.63C77.049 32.5759 76.759 29.7958 76.759 27.5158C76.759 25.2258 76.941 23.0659 77.303 21.0359C77.703 18.9659 78.193 16.6459 78.773 14.0659H82.638ZM125.863 14.0659C125.355 16.5659 124.938 18.8959 124.611 21.0359C124.533 21.5459 124.466 22.0659 124.41 22.5959C124.671 22.7259 124.901 22.8359 125.101 22.9359C125.319 23.0459 125.663 23.1059 126.135 23.1059C126.861 23.1359 127.551 23.1558 128.204 23.1558H130.49C131.18 23.1558 131.688 23.1359 132.015 23.1059C132.341 23.0259 132.74 22.9158 133.212 22.7758C133.285 22.2658 133.321 21.8458 133.321 21.5258C133.357 21.1558 133.376 20.7259 133.376 20.2159V19.8858C133.376 18.5858 133.303 17.5159 133.158 16.6759C133.013 15.8459 132.813 14.9759 132.559 14.0659H130.49C129.51 13.8859 128.712 13.8159 128.095 13.8459C127.478 13.8859 126.734 13.9559 125.863 14.0659L124.611 11.4559C126.172 11.1259 127.405 10.9259 128.313 10.8559C129.22 10.7459 130.4 10.6859 131.851 10.6859C132.214 11.3059 132.577 11.8358 132.94 12.2658C133.303 12.6658 133.593 13.2659 133.811 14.0659H136.424C136.86 15.6959 137.168 17.0959 137.35 18.2559C137.531 19.4159 137.604 20.9258 137.567 22.7758C137.567 23.6458 137.531 24.3159 137.459 24.7859C137.386 25.2659 137.259 25.7859 137.077 26.3659H127.605C126.734 26.3659 126.099 26.4558 125.7 26.6358C125.337 26.8258 124.847 27.0359 124.23 27.2959C124.224 27.2159 124.219 27.1259 124.214 27.0559C124.217 27.2959 124.222 27.5359 124.23 27.7859C124.302 30.1059 124.629 32.7959 125.21 35.8359H120.909C120.328 32.5759 120.02 29.7958 119.984 27.5158C119.984 25.2258 120.165 23.0659 120.528 21.0359C120.927 18.9659 121.417 16.6459 121.998 14.0659H125.863ZM125.21 35.8359C126.262 36.1359 127.188 36.3659 127.986 36.5459C128.821 36.6959 129.674 36.7258 130.545 36.6558C131.452 36.5458 132.505 36.2759 133.702 35.8359L134.464 38.4559C133.267 39.3259 132.069 39.9059 130.871 40.1959C129.71 40.4859 128.512 40.4658 127.278 40.1458C126.044 39.8158 124.792 39.2559 123.522 38.4559L125.21 35.8359ZM133.702 35.8359C133.847 35.0759 133.993 34.3759 134.138 33.7159C134.283 33.0259 134.374 32.2859 134.41 31.4859C134.882 31.3359 135.263 31.2658 135.553 31.2658C135.88 31.2358 136.188 31.2459 136.479 31.3259C136.769 31.3959 137.114 31.4859 137.513 31.5959C137.477 32.4259 137.404 33.1558 137.295 33.7758C137.223 34.3858 137.15 35.0759 137.077 35.8359H133.702ZM102.4 36.1659C102.364 36.7459 102.436 37.1459 102.618 37.3659C102.799 37.5459 103.035 37.7658 103.325 38.0158L103.38 38.0759C103.416 38.0759 103.452 38.0959 103.489 38.1259C103.706 38.3459 103.852 38.5059 103.924 38.6159C103.997 38.7259 104.033 38.9059 104.033 39.1659C104.033 39.4559 103.997 39.6559 103.924 39.7559C103.888 39.8659 103.797 40.0359 103.652 40.2459H97.283C97.137 40.0659 97.028 39.9259 96.956 39.8159C96.883 39.6659 96.847 39.4559 96.847 39.1659C96.847 38.9759 96.883 38.8359 96.956 38.7259C97.065 38.6159 97.228 38.4759 97.446 38.2859C97.518 38.2559 97.591 38.2159 97.664 38.1859C97.736 38.1059 97.791 38.0558 97.827 38.0158C98.008 37.6958 98.117 37.4159 98.154 37.2059C98.19 36.9859 98.208 36.6359 98.208 36.1659V20.3759C98.208 19.0759 98.299 18.0059 98.48 17.1659C98.698 16.2959 99.043 15.2659 99.515 14.0659H102.128C102.273 13.3759 102.472 12.8159 102.726 12.3759C102.98 11.9459 103.253 11.4159 103.543 10.7959C104.995 10.7259 106.156 10.6859 107.027 10.6859C107.934 10.6859 109.114 10.7259 110.566 10.7959C110.856 11.4559 111.11 11.9759 111.328 12.3759C111.546 12.7359 111.781 13.3059 112.036 14.0659H114.649C115.12 15.2259 115.447 16.2059 115.628 17.0059C115.846 17.8059 115.955 18.8359 115.955 20.1059L116.01 36.1659C116.01 36.6059 116.028 36.9459 116.064 37.2059C116.137 37.4159 116.245 37.6958 116.391 38.0158C116.463 38.0958 116.536 38.1459 116.608 38.1859C116.681 38.2159 116.754 38.2759 116.826 38.3459C117.044 38.4859 117.207 38.6159 117.316 38.7259C117.461 38.8359 117.534 38.9959 117.534 39.2159C117.534 39.5059 117.498 39.7059 117.425 39.8159C117.389 39.9259 117.28 40.0659 117.098 40.2459H110.838C110.729 40.0659 110.638 39.9259 110.566 39.8159C110.493 39.6659 110.457 39.4559 110.457 39.1659C110.457 38.9059 110.511 38.7259 110.62 38.6159C110.729 38.4759 110.892 38.3059 111.11 38.1259C111.292 37.8759 111.455 37.6359 111.6 37.4159C111.745 37.2059 111.818 36.7859 111.818 36.1659V19.2959C111.818 17.9859 111.673 17.0059 111.382 16.3559C111.128 15.6959 110.802 14.9359 110.402 14.0659H109.096C108.37 13.9959 107.789 13.9559 107.354 13.9559C106.918 13.9559 106.338 13.9959 105.612 14.0659H103.652C103.325 14.8259 103.035 15.5359 102.781 16.1859C102.527 16.8459 102.4 17.7458 102.4 18.9058V36.1659ZM11.868 37.8559C11.868 37.2059 11.977 36.4759 12.194 35.6759C13.029 35.4259 13.773 35.2959 14.426 35.2959C15.08 35.2959 15.806 35.4059 16.604 35.6259C16.858 36.4559 16.985 37.2059 16.985 37.8559C16.985 38.4759 16.876 39.1959 16.658 40.0359C15.824 40.2859 15.08 40.4159 14.426 40.4159C13.773 40.4159 13.047 40.3059 12.249 40.0859C11.995 39.2559 11.868 38.5059 11.868 37.8559Z" fill="black"/>
</svg>
