<svg width="138" height="41" viewBox="0 0 138 41" fill="none" xmlns="http://www.w3.org/2000/svg">
<path fill-rule="evenodd" clip-rule="evenodd" d="M4.355 14.3359C5.625 14.3759 6.732 14.3059 7.676 14.1159C8.62 13.9059 9.908 13.596 11.541 13.196L13.065 12.8659V10.3061C13.755 10.2361 14.426 10.1261 15.08 9.98606C15.733 9.83606 16.513 9.69612 17.421 9.54612V6.98606C19.09 6.80606 20.542 6.71604 21.776 6.71604C23.01 6.71604 24.461 7.02597 26.131 7.64597V10.3659L28.689 10.196C28.834 10.926 28.962 11.5659 29.07 12.1059C29.179 12.6159 29.27 13.2661 29.343 14.0661H26.784C26.857 14.8961 26.875 15.6261 26.838 16.2461C26.838 16.8561 26.766 17.586 26.621 18.416H24.062C23.917 19.326 23.645 20.076 23.246 20.656C22.883 21.236 22.447 21.9361 21.939 22.7761H19.38C19.235 22.9561 19.09 23.106 18.945 23.216C18.836 23.316 18.709 23.466 18.564 23.646C17.656 24.556 16.967 25.2759 16.495 25.8259C16.023 26.3659 15.787 27.056 15.787 27.896V31.2661C15.388 31.3761 15.025 31.4661 14.698 31.5361C14.408 31.5761 14.1 31.5761 13.773 31.5361C13.483 31.4661 13.12 31.356 12.684 31.216V28.436C12.684 27.276 12.811 26.366 13.065 25.716C13.319 25.026 13.628 24.176 13.991 23.156L14.154 22.7761H16.713C16.931 22.2361 17.166 21.796 17.421 21.466C17.711 21.146 18.001 20.706 18.292 20.166C18.509 19.836 18.745 19.5659 18.999 19.3459C19.253 19.0959 19.507 18.786 19.761 18.416H22.32C22.683 17.586 22.973 16.8959 23.191 16.3559C23.409 15.8059 23.518 15.0461 23.518 14.0661H26.131V11.5061H24.443C24.08 11.2161 23.699 10.9761 23.3 10.7961C22.937 10.6161 22.429 10.5261 21.776 10.5261C21.014 10.5261 20.324 10.5961 19.707 10.7461C19.09 10.8861 18.328 11.0859 17.421 11.3459V13.906L13.065 14.8259V17.386C11.214 17.716 9.708 17.9261 8.547 18.0361C7.386 18.1461 5.988 18.116 4.355 17.926V14.3359ZM4.355 14.3359L1.796 15.376C1.216 14.606 0.762 13.8459 0.436 13.0859C0.145 12.2859 0 11.306 0 10.146C0.544 9.49597 1.107 8.94609 1.688 8.51609C2.305 8.03609 3.194 7.64614 4.355 7.31614V4.75608L6.642 4.15598C7.113 4.01598 7.476 3.8861 7.73 3.7761C8.021 3.6661 8.347 3.59613 8.71 3.55613V0.99607C9.472 0.89607 10.108 0.876021 10.616 0.946021C11.124 1.01602 11.723 1.16595 12.412 1.37595C12.521 2.14595 12.521 2.75606 12.412 3.23606C12.339 3.70606 12.176 4.3061 11.922 5.0261L8.71 5.35593V7.91599C7.876 8.02599 7.113 8.16592 6.424 8.34592C5.771 8.52592 5.081 8.67611 4.355 8.78611V9.54612C4.101 9.98612 3.865 10.3861 3.647 10.7461C3.43 11.0761 3.321 11.5259 3.321 12.1059C3.321 12.7259 3.43 13.1961 3.647 13.5161C3.865 13.8161 4.101 14.0859 4.355 14.3359ZM39.196 36.716C40.43 37.006 41.501 37.166 42.408 37.206C43.352 37.206 44.241 37.096 45.076 36.876C45.947 36.656 46.926 36.3159 48.015 35.8359L49.158 38.396C47.525 39.196 45.983 39.7559 44.531 40.0859C43.079 40.4159 41.301 40.4861 39.196 40.3061V36.716ZM48.015 35.8359C48.414 33.1159 48.433 30.8659 48.07 29.0859C47.707 27.2759 47.144 25.1661 46.382 22.7761H43.823C43.642 22.3061 43.442 21.926 43.225 21.636C43.043 21.306 42.844 20.906 42.626 20.436C42.444 20.076 42.263 19.7661 42.081 19.5061C41.9 19.2161 41.718 18.856 41.537 18.416H38.978C38.543 17.516 38.198 16.766 37.944 16.186C37.69 15.606 37.509 14.8961 37.4 14.0661H34.841C34.623 12.9761 34.442 11.8661 34.297 10.7461C34.188 9.61607 34.278 8.49594 34.569 7.36594C34.895 6.20594 35.585 4.97599 36.638 3.66599L39.196 4.37595C38.761 5.57595 38.488 6.66597 38.38 7.64597C38.271 8.58597 38.307 9.56591 38.488 10.5859C38.706 11.5959 39.069 12.7561 39.577 14.0661H42.19C42.408 14.8261 42.717 15.536 43.116 16.186C43.515 16.806 43.914 17.546 44.313 18.416H46.872C47.162 19.256 47.453 19.9661 47.743 20.5461C48.033 21.0861 48.324 21.8361 48.614 22.7761H51.173C51.753 25.1661 52.116 27.296 52.262 29.146C52.443 30.956 52.28 33.1959 51.772 35.8359H48.015ZM39.196 36.716L36.638 37.7461C35.948 37.0961 35.385 36.5459 34.95 36.1159C34.551 35.6759 34.351 35.0561 34.351 34.2661L34.297 31.646L34.188 27.946C34.623 27.806 34.986 27.6959 35.277 27.6159C35.603 27.5459 35.912 27.5459 36.202 27.6159C36.529 27.6559 36.928 27.746 37.4 27.896L37.454 28.706C37.672 30.486 37.908 31.9361 38.162 33.0661C38.416 34.1561 38.761 35.366 39.196 36.716ZM39.196 4.37595V1.10593C40.974 0.855933 42.481 0.746109 43.715 0.786109C44.985 0.816109 46.382 0.89607 47.906 0.99607V3.55613C48.777 3.66613 49.449 3.79601 49.921 3.93601C50.429 4.04601 50.973 4.19595 51.554 4.37595V8.676C51.59 9.876 51.608 11.3061 51.608 12.9761C51.209 13.1261 50.846 13.2261 50.519 13.3061C50.229 13.3361 49.921 13.3361 49.594 13.3061C49.267 13.2661 48.886 13.1761 48.451 13.0261C48.342 11.9761 48.233 11.1659 48.124 10.5859C48.051 9.99591 47.979 9.27598 47.906 8.40598V6.11594C46.818 5.39594 45.838 4.86611 44.967 4.53611C44.132 4.17611 43.261 3.99607 42.354 3.99607C41.483 3.99607 40.43 4.12595 39.196 4.37595ZM61.843 14.0661L60.808 11.5061C62.369 11.2161 63.621 11.016 64.565 10.906C65.545 10.766 66.76 10.686 68.212 10.686C68.684 11.266 69.029 11.776 69.246 12.216C69.501 12.646 69.682 13.2661 69.791 14.0661H72.404C72.585 14.9361 72.694 15.7561 72.731 16.5161C72.767 17.2361 72.785 18.126 72.785 19.186V19.5061C72.386 19.6161 72.041 19.7061 71.751 19.7861C71.46 19.8561 71.152 19.8759 70.825 19.8359C70.535 19.7959 70.154 19.7061 69.682 19.5661C69.646 19.4161 69.609 19.296 69.573 19.186C69.573 19.036 69.555 18.876 69.519 18.696C69.337 17.606 69.156 16.7359 68.974 16.0759C68.793 15.4259 68.557 14.7561 68.266 14.0661H66.252C65.309 13.8861 64.546 13.8159 63.966 13.8459C63.385 13.8859 62.678 13.9561 61.843 14.0661ZM69.301 35.8359C69.446 35.2259 69.555 34.6961 69.628 34.2661C69.736 33.7861 69.827 33.246 69.9 32.626L69.954 31.976C70.462 31.826 70.862 31.7561 71.152 31.7561C71.442 31.7561 71.733 31.7959 72.023 31.8659C72.313 31.9359 72.658 32.046 73.057 32.196C73.021 32.916 72.966 33.5161 72.894 33.9861C72.858 34.4661 72.785 35.0759 72.676 35.8359H69.301ZM61.843 14.0661C61.335 16.5361 60.935 18.8561 60.645 21.0361C60.355 23.1761 60.246 25.4261 60.318 27.7861C60.391 30.1061 60.681 32.7959 61.19 35.8359H56.78C56.199 32.5359 55.909 29.746 55.909 27.456C55.945 25.136 56.181 22.956 56.617 20.926C57.088 18.896 57.633 16.6061 58.25 14.0661H61.843ZM61.19 35.8359C62.206 36.1359 63.095 36.3661 63.857 36.5461C64.619 36.6961 65.418 36.726 66.252 36.656C67.087 36.546 68.103 36.2759 69.301 35.8359L70.118 38.396C68.92 39.266 67.74 39.866 66.579 40.196C65.454 40.526 64.293 40.526 63.095 40.196C61.897 39.906 60.645 39.306 59.339 38.396L61.19 35.8359ZM81.985 35.8359C83.001 36.1359 83.909 36.3661 84.707 36.5461C85.542 36.6961 86.395 36.726 87.266 36.656C88.173 36.546 89.226 36.2759 90.423 35.8359L91.185 38.396C90.024 39.266 88.845 39.866 87.647 40.196C86.449 40.486 85.215 40.466 83.945 40.146C82.711 39.816 81.459 39.236 80.189 38.396L81.985 35.8359ZM82.638 14.0661C82.094 16.5361 81.659 18.8561 81.332 21.0361C81.256 21.5361 81.19 22.0461 81.136 22.5561C81.395 22.7061 81.623 22.836 81.822 22.936C82.04 23.046 82.384 23.116 82.856 23.156H87.211C87.901 23.156 88.409 23.1359 88.736 23.1059C89.062 23.0259 89.462 22.9161 89.933 22.7761C90.006 22.3061 90.042 21.8861 90.042 21.5261C90.078 21.1561 90.097 20.726 90.097 20.216V19.886C90.097 18.586 90.024 17.516 89.879 16.676C89.734 15.846 89.516 14.9761 89.226 14.0661H87.211C86.268 13.8861 85.469 13.8159 84.816 13.8459C84.199 13.8859 83.473 13.9561 82.638 14.0661L81.332 11.5061C82.893 11.1761 84.108 10.976 84.979 10.906C85.887 10.796 87.084 10.7461 88.572 10.7461C88.935 11.3261 89.298 11.8361 89.661 12.2661C90.024 12.7061 90.333 13.3061 90.587 14.0661H93.145C93.581 15.6961 93.871 17.0961 94.016 18.2561C94.198 19.4161 94.288 20.9261 94.288 22.7761C94.288 23.6461 94.252 24.3161 94.18 24.7861C94.107 25.2661 93.962 25.7661 93.744 26.3161C92.8 26.3461 91.893 26.3659 91.022 26.3659C90.187 26.3359 89.08 26.3161 87.701 26.3161H84.272C83.401 26.3161 82.766 26.4059 82.366 26.5859C82.003 26.7659 81.531 27.0061 80.951 27.2961C80.946 27.2261 80.94 27.1459 80.935 27.0759C80.938 27.3159 80.944 27.5461 80.951 27.7861C81.023 30.1061 81.368 32.7959 81.985 35.8359H77.63C77.049 32.5759 76.741 29.7961 76.705 27.5161C76.705 25.2261 76.904 23.046 77.303 20.976C77.703 18.906 78.193 16.6061 78.773 14.0661H82.638ZM90.423 35.8359C90.568 35.0759 90.714 34.356 90.859 33.666C91.004 32.976 91.113 32.2461 91.185 31.4861C91.621 31.3361 91.984 31.2661 92.274 31.2661C92.601 31.2361 92.909 31.2459 93.2 31.3259C93.49 31.3959 93.835 31.4859 94.234 31.5959C94.198 32.4259 94.125 33.1561 94.016 33.7761C93.944 34.3861 93.871 35.0759 93.798 35.8359H90.423ZM125.863 14.0661C125.319 16.5361 124.883 18.8561 124.556 21.0361C124.48 21.5361 124.415 22.0461 124.36 22.5561C124.62 22.7061 124.848 22.836 125.046 22.936C125.264 23.046 125.609 23.116 126.081 23.156H130.436C131.125 23.156 131.634 23.1359 131.96 23.1059C132.323 23.0259 132.722 22.9161 133.158 22.7761C133.23 22.3061 133.267 21.8861 133.267 21.5261C133.303 21.1561 133.321 20.726 133.321 20.216V19.886C133.321 18.586 133.249 17.516 133.103 16.676C132.958 15.846 132.759 14.9761 132.505 14.0661H130.436C129.492 13.8861 128.712 13.8159 128.095 13.8459C127.478 13.8859 126.734 13.9561 125.863 14.0661L124.556 11.5061C126.117 11.1761 127.351 10.976 128.258 10.906C129.166 10.796 130.345 10.7461 131.797 10.7461C132.16 11.3261 132.523 11.8361 132.886 12.2661C133.249 12.7061 133.557 13.3061 133.811 14.0661H136.37C136.805 15.6961 137.114 17.0961 137.295 18.2561C137.477 19.4161 137.549 20.9261 137.513 22.7761C137.513 23.6461 137.477 24.3161 137.404 24.7861C137.332 25.2661 137.186 25.7661 136.969 26.3161C136.025 26.3461 135.118 26.3659 134.247 26.3659C133.412 26.3359 132.305 26.3161 130.926 26.3161H127.551C126.68 26.3161 126.044 26.4059 125.645 26.5859C125.246 26.7659 124.756 27.0061 124.175 27.2961C124.169 27.2161 124.164 27.1361 124.159 27.0561C124.162 27.2961 124.168 27.5461 124.175 27.7861C124.248 30.1061 124.593 32.7959 125.21 35.8359H120.855C120.274 32.5759 119.965 29.7961 119.929 27.5161C119.929 25.2261 120.129 23.046 120.528 20.976C120.927 18.906 121.417 16.6061 121.998 14.0661H125.863ZM133.648 35.8359C133.793 35.0759 133.938 34.356 134.083 33.666C134.228 32.976 134.337 32.2461 134.41 31.4861C134.882 31.3361 135.263 31.2661 135.553 31.2661C135.844 31.2361 136.134 31.2459 136.424 31.3259C136.715 31.3959 137.059 31.4859 137.459 31.5959C137.422 32.4259 137.35 33.1561 137.241 33.7761C137.168 34.3861 137.096 35.0759 137.023 35.8359H133.648ZM125.21 35.8359C126.226 36.1359 127.151 36.3661 127.986 36.5461C128.821 36.6961 129.674 36.726 130.545 36.656C131.416 36.546 132.45 36.2759 133.648 35.8359L134.464 38.396C133.267 39.266 132.069 39.866 130.871 40.196C129.674 40.486 128.44 40.466 127.17 40.146C125.936 39.816 124.684 39.236 123.413 38.396L125.21 35.8359ZM102.345 36.166C102.309 36.786 102.382 37.206 102.563 37.416C102.745 37.606 102.98 37.7961 103.271 38.0161C103.307 38.0561 103.325 38.096 103.325 38.126H103.434C103.652 38.346 103.797 38.5059 103.87 38.6159C103.979 38.7259 104.033 38.926 104.033 39.216C104.033 39.466 103.997 39.6661 103.924 39.8161C103.852 39.9261 103.761 40.0661 103.652 40.2461H97.228C97.083 40.0661 96.974 39.9261 96.902 39.8161C96.829 39.6661 96.793 39.456 96.793 39.166C96.793 38.976 96.829 38.8361 96.902 38.7261C97.01 38.6161 97.174 38.4859 97.391 38.3459C97.464 38.2759 97.518 38.216 97.555 38.186C97.627 38.106 97.7 38.0561 97.772 38.0161C97.954 37.7261 98.063 37.4761 98.099 37.2561C98.135 37.0061 98.154 36.636 98.154 36.166V20.376C98.154 19.076 98.262 18.006 98.48 17.166C98.698 16.296 99.025 15.2661 99.46 14.0661H102.019C102.2 13.3761 102.418 12.836 102.672 12.436C102.962 11.996 103.253 11.4561 103.543 10.7961C104.958 10.7261 106.102 10.686 106.973 10.686C107.88 10.686 109.06 10.7459 110.511 10.8559C110.802 11.4659 111.056 11.976 111.273 12.376C111.491 12.736 111.727 13.3061 111.981 14.0661H114.594C115.066 15.1861 115.411 16.1661 115.628 17.0061C115.846 17.8061 115.955 18.8359 115.955 20.1059V36.166C115.955 36.606 115.973 36.946 116.01 37.206C116.082 37.456 116.209 37.7261 116.391 38.0161C116.463 38.0961 116.536 38.146 116.608 38.186C116.681 38.216 116.754 38.2759 116.826 38.3459C117.044 38.4859 117.207 38.6161 117.316 38.7261C117.461 38.8361 117.534 38.996 117.534 39.216C117.534 39.506 117.498 39.7061 117.425 39.8161C117.352 39.9261 117.244 40.0661 117.098 40.2461H110.783C110.675 40.0661 110.584 39.9261 110.511 39.8161C110.439 39.6661 110.402 39.466 110.402 39.216C110.402 38.926 110.457 38.7259 110.566 38.6159C110.675 38.4759 110.838 38.306 111.056 38.126C111.237 37.876 111.4 37.636 111.546 37.416C111.691 37.206 111.763 36.786 111.763 36.166V19.2961C111.763 17.9861 111.618 17.0059 111.328 16.3559C111.074 15.6659 110.747 14.8961 110.348 14.0661H109.041C108.316 13.9961 107.735 13.956 107.299 13.956C106.864 13.956 106.283 13.9961 105.557 14.0661H103.652C103.289 14.8261 102.98 15.536 102.726 16.186C102.472 16.846 102.345 17.746 102.345 18.906V36.166ZM11.813 37.8559C11.813 37.2059 11.94 36.476 12.194 35.676C13.029 35.426 13.755 35.2961 14.372 35.2961C15.025 35.2561 15.769 35.366 16.604 35.626C16.858 36.456 16.985 37.2059 16.985 37.8559C16.985 38.4759 16.858 39.1961 16.604 40.0361C15.769 40.2861 15.025 40.416 14.372 40.416C13.755 40.416 13.029 40.3059 12.194 40.0859C11.94 39.2559 11.813 38.5059 11.813 37.8559Z" fill="black"/>
</svg>
