<svg width="138" height="41" viewBox="0 0 138 41" fill="none" xmlns="http://www.w3.org/2000/svg">
<path fill-rule="evenodd" clip-rule="evenodd" d="M4.355 14.3359L1.851 15.376C1.27 14.606 0.817 13.8459 0.49 13.0859C0.163 12.2859 0 11.306 0 10.146C0.544 9.49597 1.107 8.94609 1.688 8.51609C2.305 8.03609 3.194 7.62608 4.355 7.25608V4.75608L6.642 4.10593C7.113 3.95593 7.476 3.8461 7.73 3.7761C8.021 3.6661 8.347 3.57608 8.71 3.50608V0.99607C9.472 0.89607 10.108 0.876021 10.616 0.946021C11.124 1.01602 11.723 1.16595 12.412 1.37595C12.521 2.14595 12.521 2.75606 12.412 3.23606C12.339 3.70606 12.158 4.3061 11.868 5.0261L8.71 5.35593V7.85593C7.876 7.96593 7.113 8.13592 6.424 8.34592C5.771 8.52592 5.081 8.65605 4.355 8.72605V9.54612C4.065 9.94612 3.811 10.326 3.593 10.686C3.412 11.056 3.321 11.5259 3.321 12.1059C3.321 12.6859 3.412 13.136 3.593 13.466C3.811 13.796 4.065 14.0859 4.355 14.3359ZM4.355 14.3359C5.625 14.3759 6.732 14.3059 7.676 14.1159C8.62 13.9059 9.908 13.596 11.541 13.196L13.065 12.8659V10.3061C13.755 10.2361 14.426 10.1261 15.08 9.98606C15.733 9.83606 16.513 9.69612 17.421 9.54612V7.04612C19.09 6.82612 20.542 6.73609 21.776 6.76609C23.01 6.76609 24.461 7.07602 26.131 7.69602V10.3659L28.635 10.2561C28.78 10.9461 28.907 11.5659 29.016 12.1059C29.161 12.6159 29.27 13.2661 29.343 14.0661H26.784C26.857 14.8961 26.875 15.6261 26.838 16.2461C26.838 16.8561 26.784 17.586 26.675 18.416H24.116C23.971 19.326 23.699 20.076 23.3 20.656C22.901 21.236 22.447 21.9361 21.939 22.7761H19.435C19.29 22.9561 19.144 23.106 18.999 23.216C18.854 23.316 18.709 23.466 18.564 23.646C17.656 24.556 16.967 25.296 16.495 25.876C16.023 26.426 15.787 27.096 15.787 27.896V31.2661C15.352 31.3761 14.971 31.4661 14.644 31.5361C14.354 31.5761 14.063 31.5761 13.773 31.5361C13.483 31.4661 13.12 31.356 12.684 31.216V28.436C12.684 27.276 12.811 26.366 13.065 25.716C13.319 25.026 13.646 24.176 14.045 23.156L14.209 22.7761H16.713C16.894 22.2661 17.13 21.8461 17.421 21.5261C17.711 21.1561 18.019 20.726 18.346 20.216C18.564 19.856 18.8 19.5659 19.054 19.3459C19.308 19.0959 19.562 18.786 19.816 18.416H22.32C22.719 17.586 23.01 16.8959 23.191 16.3559C23.409 15.8059 23.518 15.0461 23.518 14.0661H26.131V11.5661H24.443C24.116 11.2661 23.754 11.0359 23.354 10.8559C22.955 10.6359 22.429 10.5261 21.776 10.5261C21.05 10.5261 20.36 10.6161 19.707 10.7961C19.09 10.9461 18.328 11.146 17.421 11.396V13.906L13.065 14.8259V17.3359C11.214 17.6959 9.708 17.9261 8.547 18.0361C7.386 18.1461 5.988 18.116 4.355 17.926V14.3359ZM39.196 36.7661L36.692 37.7961C35.966 37.1461 35.385 36.606 34.95 36.166C34.514 35.736 34.297 35.1161 34.297 34.3161L34.242 31.706L34.188 27.946C34.623 27.806 34.986 27.716 35.277 27.676C35.567 27.606 35.857 27.5859 36.148 27.6159C36.474 27.6559 36.873 27.746 37.345 27.896L37.454 28.706C37.636 30.486 37.853 31.9361 38.107 33.0661C38.361 34.1561 38.724 35.3861 39.196 36.7661ZM39.196 4.37595V1.10593C40.974 0.855933 42.481 0.746109 43.715 0.786109C44.985 0.816109 46.382 0.89607 47.906 0.99607V3.50608C48.777 3.64608 49.449 3.77596 49.921 3.88596C50.392 3.99596 50.937 4.15595 51.554 4.37595V8.62595C51.59 9.85595 51.608 11.3061 51.608 12.9761C51.209 13.1261 50.846 13.2261 50.519 13.3061C50.229 13.3361 49.921 13.3361 49.594 13.3061C49.304 13.2261 48.923 13.1361 48.451 13.0261C48.342 11.9761 48.233 11.1659 48.124 10.5859C48.051 9.96591 47.979 9.23598 47.906 8.40598V6.176C46.818 5.406 45.838 4.84606 44.967 4.48606C44.132 4.12606 43.261 3.93601 42.354 3.93601C41.483 3.93601 40.43 4.08595 39.196 4.37595ZM48.015 35.8359C48.414 33.1159 48.414 30.8659 48.015 29.0859C47.652 27.2759 47.09 25.1661 46.328 22.7761H43.823C43.642 22.3061 43.442 21.926 43.225 21.636C43.043 21.306 42.825 20.906 42.571 20.436C42.426 20.076 42.245 19.7661 42.027 19.5061C41.846 19.2161 41.664 18.856 41.483 18.416H38.978C38.543 17.516 38.198 16.766 37.944 16.186C37.69 15.606 37.49 14.8961 37.345 14.0661H34.841C34.623 12.9761 34.442 11.8661 34.297 10.7461C34.188 9.61607 34.278 8.47614 34.569 7.31614C34.895 6.15614 35.603 4.91594 36.692 3.61594L39.196 4.37595C38.761 5.53595 38.47 6.60591 38.325 7.58591C38.216 8.52591 38.253 9.52591 38.434 10.5859C38.652 11.5959 39.051 12.7561 39.632 14.0661H42.136C42.39 14.8261 42.717 15.536 43.116 16.186C43.515 16.806 43.914 17.546 44.313 18.416H46.818C47.144 19.256 47.453 19.9661 47.743 20.5461C48.033 21.0861 48.324 21.8361 48.614 22.7761H51.173C51.753 25.1661 52.116 27.296 52.262 29.146C52.443 30.956 52.262 33.1959 51.717 35.8359H48.015ZM39.196 36.7661C40.43 37.0161 41.501 37.166 42.408 37.206C43.352 37.236 44.259 37.146 45.13 36.926C46.001 36.676 46.963 36.3159 48.015 35.8359L49.213 38.3459C47.58 39.1759 46.019 39.7559 44.531 40.0859C43.079 40.4159 41.301 40.5059 39.196 40.3559V36.7661ZM61.19 35.8359C62.206 36.1359 63.095 36.3661 63.857 36.5461C64.619 36.7261 65.418 36.786 66.252 36.716C67.087 36.606 68.103 36.3159 69.301 35.8359L70.118 38.3459C68.956 39.2559 67.795 39.866 66.633 40.196C65.472 40.526 64.274 40.526 63.04 40.196C61.843 39.906 60.591 39.2859 59.284 38.3459L61.19 35.8359ZM61.843 14.0661C61.371 16.5361 60.972 18.8561 60.645 21.0361C60.355 23.1761 60.246 25.4261 60.318 27.7861C60.391 30.1061 60.681 32.7959 61.19 35.8359H56.78C56.199 32.5359 55.909 29.746 55.909 27.456C55.945 25.136 56.181 22.956 56.617 20.926C57.088 18.896 57.651 16.6061 58.304 14.0661H61.843ZM69.301 35.8359C69.446 35.2259 69.555 34.6961 69.628 34.2661C69.736 33.7861 69.827 33.246 69.9 32.626L69.954 31.976C70.462 31.826 70.862 31.7561 71.152 31.7561C71.442 31.7561 71.714 31.816 71.968 31.926C72.259 31.996 72.604 32.086 73.003 32.196C72.966 32.916 72.912 33.5161 72.839 33.9861C72.803 34.4661 72.749 35.0759 72.676 35.8359H69.301ZM61.843 14.0661L60.808 11.5661C62.369 11.2361 63.621 11.016 64.565 10.906C65.508 10.796 66.706 10.7461 68.158 10.7461C68.629 11.3261 68.992 11.8361 69.246 12.2661C69.501 12.6661 69.7 13.2661 69.845 14.0661H72.35C72.531 14.9361 72.64 15.7561 72.676 16.5161C72.749 17.2361 72.785 18.1461 72.785 19.2361V19.5061C72.35 19.6561 71.987 19.7659 71.696 19.8359C71.442 19.8759 71.152 19.8759 70.825 19.8359C70.535 19.7959 70.154 19.7061 69.682 19.5661L69.573 19.2361C69.537 19.0961 69.519 18.9261 69.519 18.7461C69.337 17.6261 69.138 16.7359 68.92 16.0759C68.738 15.4259 68.502 14.7561 68.212 14.0661H66.252C65.309 13.8861 64.546 13.8159 63.966 13.8459C63.385 13.8859 62.678 13.9561 61.843 14.0661ZM90.423 35.8359C90.568 35.0759 90.714 34.356 90.859 33.666C91.004 32.976 91.113 32.2461 91.185 31.4861C91.621 31.3361 91.984 31.2661 92.274 31.2661C92.601 31.2361 92.891 31.2459 93.145 31.3259C93.436 31.3959 93.798 31.506 94.234 31.646C94.161 32.446 94.071 33.1561 93.962 33.7761C93.889 34.3861 93.817 35.0759 93.744 35.8359H90.423ZM81.931 35.8359C82.947 36.1359 83.872 36.3661 84.707 36.5461C85.542 36.7261 86.395 36.786 87.266 36.716C88.173 36.606 89.226 36.3159 90.423 35.8359L91.185 38.3459C90.024 39.2559 88.826 39.866 87.592 40.196C86.395 40.486 85.161 40.466 83.891 40.146C82.657 39.816 81.405 39.2159 80.134 38.3459L81.931 35.8359ZM82.584 14.0661C82.04 16.4961 81.604 18.806 81.278 20.976C81.2 21.496 81.133 22.0161 81.078 22.5561C81.338 22.7061 81.568 22.836 81.767 22.936C81.985 23.046 82.33 23.116 82.802 23.156C83.528 23.156 84.217 23.176 84.87 23.216H87.157C87.846 23.216 88.355 23.1759 88.681 23.1059C89.044 23.0259 89.443 22.9161 89.879 22.7761C89.951 22.3061 89.988 21.8861 89.988 21.5261C90.024 21.1561 90.042 20.726 90.042 20.216V19.886C90.042 18.586 89.97 17.516 89.824 16.676C89.679 15.846 89.462 14.9761 89.171 14.0661H87.211C86.268 13.8861 85.469 13.8159 84.816 13.8459C84.199 13.8859 83.455 13.9561 82.584 14.0661L81.278 11.5661C82.838 11.1961 84.054 10.976 84.925 10.906C85.832 10.796 87.012 10.7461 88.463 10.7461C88.863 11.3261 89.244 11.8361 89.607 12.2661C89.97 12.7061 90.278 13.3061 90.532 14.0661H93.036C93.508 15.6661 93.835 17.0561 94.016 18.2561C94.198 19.4561 94.27 20.9561 94.234 22.7761C94.234 23.6461 94.198 24.3161 94.125 24.7861C94.053 25.2661 93.907 25.7661 93.69 26.3161H84.217C83.346 26.3161 82.711 26.4059 82.312 26.5859C81.949 26.7659 81.477 27.0061 80.896 27.2961C80.891 27.2161 80.885 27.1361 80.88 27.0561C80.883 27.2961 80.889 27.5461 80.896 27.7861C80.969 30.1461 81.314 32.8259 81.931 35.8359H77.63C77.013 32.6059 76.686 29.8361 76.65 27.5161C76.65 25.1861 76.85 23.016 77.249 20.976C77.648 18.906 78.156 16.6061 78.773 14.0661H82.584ZM133.648 35.8359C133.793 35.0759 133.938 34.356 134.083 33.666C134.228 32.976 134.337 32.2461 134.41 31.4861C134.845 31.3361 135.208 31.2661 135.499 31.2661C135.825 31.2361 136.116 31.2459 136.37 31.3259C136.66 31.3959 137.023 31.506 137.459 31.646C137.386 32.446 137.295 33.1561 137.186 33.7761C137.114 34.3861 137.041 35.0759 136.969 35.8359H133.648ZM125.155 35.8359C126.172 36.1359 127.097 36.3661 127.932 36.5461C128.766 36.7261 129.619 36.786 130.49 36.716C131.398 36.606 132.45 36.3159 133.648 35.8359L134.41 38.3459C133.249 39.2559 132.051 39.866 130.817 40.196C129.619 40.486 128.385 40.466 127.115 40.146C125.881 39.816 124.629 39.2159 123.359 38.3459L125.155 35.8359ZM125.863 14.0661C125.282 16.4961 124.829 18.806 124.502 20.976C124.424 21.496 124.357 22.0161 124.302 22.5461C124.562 22.7061 124.792 22.836 124.992 22.936C125.21 23.046 125.555 23.116 126.026 23.156C126.752 23.156 127.442 23.176 128.095 23.216H130.436C131.089 23.216 131.579 23.1759 131.906 23.1059C132.269 23.0259 132.668 22.9161 133.103 22.7761C133.176 22.3061 133.212 21.8861 133.212 21.5261C133.249 21.1561 133.267 20.726 133.267 20.216V19.886C133.267 18.586 133.194 17.516 133.049 16.676C132.904 15.846 132.686 14.9761 132.396 14.0661H130.436C129.492 13.8861 128.694 13.8159 128.041 13.8459C127.424 13.8859 126.698 13.9561 125.863 14.0661L124.556 11.5661C126.081 11.1961 127.278 10.976 128.149 10.906C129.057 10.796 130.236 10.7461 131.688 10.7461C132.087 11.3261 132.468 11.8361 132.831 12.2661C133.23 12.7061 133.539 13.3061 133.757 14.0661H136.315C136.751 15.6661 137.059 17.0561 137.241 18.2561C137.422 19.4561 137.495 20.9561 137.459 22.7761C137.459 23.6461 137.422 24.3161 137.35 24.7861C137.277 25.2661 137.132 25.7661 136.914 26.3161H127.442C126.571 26.3161 125.936 26.4059 125.536 26.5859C125.173 26.7659 124.702 27.0061 124.121 27.2961C124.115 27.2161 124.11 27.1261 124.105 27.0461C124.108 27.2961 124.113 27.5361 124.121 27.7861C124.23 30.1461 124.575 32.8259 125.155 35.8359H120.855C120.238 32.6059 119.911 29.8361 119.875 27.5161C119.875 25.1861 120.074 23.016 120.474 20.976C120.873 18.906 121.381 16.6061 121.998 14.0661H125.863ZM102.291 36.166C102.255 36.786 102.327 37.206 102.509 37.416C102.69 37.606 102.944 37.7961 103.271 38.0161C103.307 38.0561 103.325 38.096 103.325 38.126C103.362 38.126 103.398 38.146 103.434 38.186C103.652 38.366 103.797 38.5059 103.87 38.6159C103.979 38.7259 104.033 38.926 104.033 39.216C104.033 39.466 103.997 39.6661 103.924 39.8161C103.852 39.9261 103.743 40.0661 103.597 40.2461H97.174C96.992 40.0661 96.865 39.9261 96.793 39.8161C96.72 39.6661 96.684 39.456 96.684 39.166C96.684 38.976 96.738 38.8361 96.847 38.7261C96.956 38.6161 97.119 38.4859 97.337 38.3459C97.373 38.2759 97.428 38.216 97.5 38.186C97.573 38.146 97.646 38.0961 97.718 38.0161C97.9 37.7261 98.008 37.4761 98.045 37.2561C98.117 37.0061 98.154 36.636 98.154 36.166L98.099 20.376C98.099 19.076 98.208 18.006 98.426 17.166C98.644 16.296 98.988 15.2661 99.46 14.0661H101.964C102.109 13.3761 102.327 12.836 102.618 12.436C102.908 11.996 103.198 11.4659 103.489 10.8559C104.904 10.7759 106.047 10.7461 106.918 10.7461C107.826 10.7461 109.005 10.7759 110.457 10.8559C110.747 11.4659 111.001 11.976 111.219 12.376C111.437 12.736 111.691 13.3061 111.981 14.0661H114.485C114.993 15.1861 115.356 16.1661 115.574 17.0061C115.792 17.8061 115.901 18.8359 115.901 20.1059V36.166C115.901 36.636 115.919 37.0061 115.955 37.2561C116.028 37.4761 116.155 37.7261 116.336 38.0161C116.409 38.0961 116.481 38.146 116.554 38.186C116.663 38.216 116.754 38.2759 116.826 38.3459C117.044 38.4859 117.207 38.6161 117.316 38.7261C117.461 38.8361 117.534 38.996 117.534 39.216C117.534 39.506 117.498 39.7061 117.425 39.8161C117.352 39.9261 117.225 40.0661 117.044 40.2461H110.729C110.584 40.0661 110.475 39.9261 110.402 39.8161C110.366 39.6661 110.348 39.466 110.348 39.216C110.348 38.966 110.402 38.776 110.511 38.676C110.62 38.526 110.783 38.346 111.001 38.126C111.219 37.876 111.4 37.636 111.546 37.416C111.691 37.206 111.745 36.786 111.709 36.166V19.2961C111.709 17.9861 111.564 17.0059 111.273 16.3559C111.019 15.6659 110.675 14.8961 110.239 14.0661H108.987C108.297 13.9961 107.717 13.956 107.245 13.956C106.773 13.916 106.192 13.9561 105.503 14.0661H103.652C103.253 14.8261 102.926 15.536 102.672 16.186C102.418 16.806 102.291 17.716 102.291 18.906V36.166ZM11.759 37.8559C11.759 37.2059 11.904 36.476 12.194 35.676C12.993 35.386 13.719 35.2461 14.372 35.2461C15.025 35.2461 15.751 35.366 16.549 35.626C16.84 36.456 16.985 37.2059 16.985 37.8559C16.985 38.4759 16.858 39.1961 16.604 40.0361C15.769 40.2861 15.025 40.416 14.372 40.416C13.719 40.416 12.993 40.2861 12.194 40.0361C11.94 39.2361 11.795 38.5059 11.759 37.8559Z" fill="black"/>
</svg>
