<svg width="138" height="41" viewBox="0 0 138 41" fill="none" xmlns="http://www.w3.org/2000/svg">
<path fill-rule="evenodd" clip-rule="evenodd" d="M4.355 14.3359L1.851 15.426C1.27 14.666 0.817 13.8859 0.49 13.0859C0.163 12.2859 0 11.306 0 10.146C0.544 9.49597 1.107 8.92603 1.688 8.45603C2.305 7.98603 3.194 7.56603 4.355 7.20603V4.75608L6.642 4.10593C7.113 3.95593 7.476 3.82605 7.73 3.72605C8.021 3.61605 8.347 3.53608 8.71 3.50608V0.99607C9.472 0.89607 10.108 0.876021 10.616 0.946021C11.124 1.01602 11.723 1.16595 12.412 1.37595C12.521 2.14595 12.521 2.75606 12.412 3.23606C12.303 3.70606 12.122 4.3061 11.868 5.0261L8.71 5.35593V7.80613C7.876 7.94613 7.113 8.11612 6.424 8.29612C5.771 8.47612 5.081 8.62605 4.355 8.72605V9.49607C4.065 9.89607 3.811 10.276 3.593 10.636C3.375 10.996 3.266 11.4859 3.266 12.1059C3.266 12.6859 3.375 13.136 3.593 13.466C3.811 13.796 4.065 14.0859 4.355 14.3359ZM4.355 14.3359C5.625 14.3759 6.732 14.2861 7.676 14.0661C8.62 13.8461 9.908 13.556 11.541 13.196L13.065 12.8161V10.3659C13.755 10.2559 14.426 10.1261 15.08 9.98606C15.733 9.83606 16.513 9.69612 17.421 9.54612V7.04612C19.09 6.86612 20.542 6.7859 21.776 6.8259C23.046 6.8259 24.498 7.13607 26.131 7.74607V10.3659L28.635 10.2561C28.744 10.9461 28.853 11.5659 28.962 12.1059C29.107 12.6459 29.216 13.3061 29.288 14.0661H26.784C26.893 14.8961 26.929 15.6261 26.893 16.2461C26.893 16.8561 26.82 17.586 26.675 18.416H24.171C24.026 19.326 23.754 20.076 23.354 20.656C22.955 21.236 22.483 21.9361 21.939 22.7761H19.435C19.326 22.9561 19.199 23.106 19.054 23.216C18.909 23.316 18.763 23.466 18.618 23.646C17.674 24.556 16.949 25.296 16.441 25.876C15.969 26.426 15.733 27.116 15.733 27.946V31.2661C15.334 31.3761 14.971 31.4661 14.644 31.5361C14.354 31.5761 14.045 31.5761 13.719 31.5361C13.428 31.4661 13.084 31.356 12.684 31.216V28.4961C12.684 27.2961 12.811 26.366 13.065 25.716C13.319 25.026 13.646 24.176 14.045 23.156L14.209 22.7761H16.713C16.894 22.2661 17.13 21.8461 17.421 21.5261C17.711 21.1561 18.019 20.726 18.346 20.216C18.564 19.856 18.8 19.5659 19.054 19.3459C19.308 19.0959 19.58 18.786 19.87 18.416H22.32C22.719 17.586 23.028 16.8959 23.246 16.3559C23.463 15.8059 23.572 15.0461 23.572 14.0661H26.131V11.5661H24.498C24.171 11.2661 23.808 11.0359 23.409 10.8559C23.01 10.6759 22.483 10.5859 21.83 10.5859C21.068 10.5859 20.36 10.6759 19.707 10.8559C19.09 10.9959 18.328 11.176 17.421 11.396V13.906L13.065 14.8259V17.3359C11.214 17.6959 9.708 17.9261 8.547 18.0361C7.386 18.1461 5.988 18.116 4.355 17.926V14.3359ZM39.196 36.7661L36.692 37.8559C36.002 37.2059 35.422 36.6561 34.95 36.2261C34.514 35.7861 34.297 35.166 34.297 34.376L34.242 31.7561L34.188 28.0061C34.587 27.8561 34.932 27.746 35.222 27.676C35.512 27.606 35.821 27.5859 36.148 27.6159C36.474 27.6559 36.855 27.746 37.291 27.896L37.4 28.7661C37.581 30.5461 37.799 31.9959 38.053 33.1159C38.343 34.2059 38.724 35.4261 39.196 36.7661ZM39.196 4.31614V1.10593C40.974 0.855933 42.481 0.746109 43.715 0.786109C44.985 0.816109 46.382 0.89607 47.906 0.99607V3.50608C48.777 3.61608 49.449 3.73596 49.921 3.88596C50.392 3.99596 50.919 4.13614 51.499 4.31614C51.536 5.95614 51.554 7.38595 51.554 8.62595C51.59 9.85595 51.608 11.286 51.608 12.926C51.209 13.066 50.846 13.1761 50.519 13.2461C50.229 13.3261 49.921 13.3361 49.594 13.3061C49.304 13.2261 48.923 13.1261 48.451 12.9761C48.342 11.9261 48.233 11.1061 48.124 10.5261C48.051 9.9461 47.979 9.21592 47.906 8.34592V6.176C46.818 5.406 45.838 4.84606 44.967 4.48606C44.132 4.12606 43.261 3.93601 42.354 3.93601C41.483 3.93601 40.43 4.06614 39.196 4.31614ZM48.015 35.8359C48.414 33.1159 48.414 30.8461 48.015 29.0361C47.652 27.2261 47.09 25.1361 46.328 22.7761H43.823C43.642 22.3061 43.442 21.926 43.225 21.636C43.007 21.306 42.789 20.906 42.571 20.436C42.39 20.076 42.19 19.7661 41.972 19.5061C41.791 19.2161 41.61 18.856 41.428 18.416H38.978C38.543 17.516 38.18 16.766 37.89 16.186C37.636 15.606 37.436 14.8961 37.291 14.0661H34.841C34.623 12.9761 34.442 11.8661 34.297 10.7461C34.188 9.61607 34.278 8.47614 34.569 7.31614C34.895 6.11614 35.603 4.88594 36.692 3.61594L39.196 4.31614C38.761 5.48614 38.47 6.55611 38.325 7.53611C38.216 8.51611 38.253 9.52591 38.434 10.5859C38.652 11.5959 39.051 12.7561 39.632 14.0661H42.081C42.335 14.8261 42.662 15.536 43.061 16.186C43.497 16.806 43.914 17.546 44.313 18.416H46.818C47.144 19.256 47.453 19.9661 47.743 20.5461C48.07 21.0861 48.378 21.8361 48.669 22.7761H51.118C51.735 25.1361 52.134 27.2359 52.316 29.0859C52.497 30.9459 52.298 33.1959 51.717 35.8359H48.015ZM39.196 36.7661C40.43 37.0561 41.501 37.2161 42.408 37.2561C43.352 37.2961 44.259 37.186 45.13 36.926C46.001 36.676 46.963 36.3159 48.015 35.8359L49.267 38.3459C47.598 39.1759 46.019 39.7559 44.531 40.0859C43.079 40.4159 41.301 40.5059 39.196 40.3559V36.7661ZM61.897 14.0661C61.389 16.4961 60.972 18.806 60.645 20.976C60.318 23.116 60.191 25.3861 60.264 27.7861C60.373 30.1461 60.681 32.8259 61.19 35.8359H56.78C56.199 32.5359 55.909 29.726 55.909 27.406C55.945 25.076 56.181 22.9059 56.617 20.8659C57.088 18.8359 57.651 16.5661 58.304 14.0661H61.897ZM61.897 14.0661L60.808 11.5661C62.333 11.2661 63.567 11.076 64.51 10.966C65.49 10.816 66.706 10.7461 68.158 10.7461C68.629 11.3261 68.992 11.8361 69.246 12.2661C69.501 12.6661 69.7 13.2661 69.845 14.0661H72.295C72.513 14.9361 72.64 15.7561 72.676 16.5161C72.712 17.2761 72.731 18.1861 72.731 19.2361V19.5661C72.331 19.6761 71.987 19.7659 71.696 19.8359C71.442 19.9059 71.152 19.926 70.825 19.886C70.535 19.856 70.154 19.7659 69.682 19.6159C69.646 19.4759 69.609 19.3461 69.573 19.2361C69.537 19.0961 69.519 18.9261 69.519 18.7461C69.337 17.6561 69.138 16.786 68.92 16.136C68.738 15.446 68.502 14.7561 68.212 14.0661H66.252C65.309 13.8861 64.546 13.8159 63.966 13.8459C63.385 13.8859 62.696 13.9561 61.897 14.0661ZM61.19 35.8359C62.169 36.1359 63.04 36.3661 63.803 36.5461C64.601 36.7261 65.418 36.786 66.252 36.716C67.087 36.606 68.103 36.3159 69.301 35.8359L70.172 38.3459C68.974 39.2559 67.777 39.866 66.579 40.196C65.418 40.526 64.22 40.526 62.986 40.196C61.788 39.866 60.554 39.2559 59.284 38.3459L61.19 35.8359ZM69.301 35.8359C69.446 35.2259 69.555 34.6961 69.628 34.2661C69.736 33.7861 69.827 33.246 69.9 32.626L70.009 31.976C70.48 31.866 70.862 31.8161 71.152 31.8161C71.442 31.7761 71.714 31.816 71.968 31.926C72.259 31.996 72.604 32.086 73.003 32.196C72.966 32.916 72.912 33.5361 72.839 34.0461C72.803 34.5161 72.731 35.1159 72.622 35.8359H69.301ZM90.369 35.8359C90.514 35.0759 90.659 34.356 90.804 33.666C90.986 32.976 91.095 32.2461 91.131 31.4861C91.603 31.3361 91.984 31.2661 92.274 31.2661C92.565 31.2361 92.855 31.2459 93.145 31.3259C93.436 31.3959 93.78 31.506 94.18 31.646C94.143 32.446 94.071 33.1561 93.962 33.7761C93.853 34.3861 93.762 35.0759 93.69 35.8359H90.369ZM81.931 35.8359C82.911 36.1359 83.818 36.3661 84.653 36.5461C85.487 36.7261 86.358 36.786 87.266 36.716C88.173 36.606 89.207 36.3159 90.369 35.8359L91.185 38.3459C90.024 39.2559 88.826 39.866 87.592 40.196C86.358 40.526 85.106 40.526 83.836 40.196C82.602 39.836 81.35 39.2159 80.08 38.3459L81.931 35.8359ZM82.584 14.0661C82.04 16.4561 81.586 18.746 81.223 20.926C81.143 21.456 81.075 21.9961 81.019 22.5461C81.281 22.7061 81.512 22.836 81.713 22.936C81.931 23.046 82.275 23.116 82.747 23.156C83.437 23.156 84.126 23.176 84.816 23.216H87.157C87.846 23.216 88.355 23.1759 88.681 23.1059C89.008 23.0259 89.389 22.9161 89.824 22.7761C89.897 22.3061 89.933 21.8861 89.933 21.5261C89.97 21.1561 89.988 20.726 89.988 20.216V19.886C89.988 18.616 89.915 17.5661 89.77 16.7361C89.661 15.8661 89.443 14.9761 89.117 14.0661H87.157C86.213 13.8861 85.433 13.8159 84.816 13.8459C84.199 13.8859 83.455 13.9561 82.584 14.0661L81.278 11.5661C82.802 11.2361 83.999 11.036 84.87 10.966C85.778 10.856 86.957 10.7961 88.409 10.7961C88.808 11.3461 89.189 11.8361 89.552 12.2661C89.951 12.7061 90.278 13.3061 90.532 14.0661H92.982C93.454 15.6661 93.78 17.0561 93.962 18.2561C94.143 19.4561 94.216 20.9561 94.18 22.7761C94.18 23.6461 94.143 24.3161 94.071 24.7861C93.998 25.2661 93.853 25.7561 93.635 26.2561C92.692 26.2961 91.784 26.3161 90.913 26.3161C90.078 26.2761 88.953 26.2561 87.538 26.2561H84.163C83.292 26.2561 82.657 26.3659 82.257 26.5859C81.894 26.7659 81.423 27.0061 80.842 27.2961C80.836 27.2161 80.831 27.1361 80.826 27.0561C80.829 27.2961 80.835 27.5461 80.842 27.7861C80.951 30.1461 81.314 32.8259 81.931 35.8359H77.576C76.959 32.6059 76.632 29.8361 76.596 27.5161C76.596 25.1861 76.795 22.996 77.195 20.926C77.63 18.856 78.156 16.5661 78.773 14.0661H82.584ZM133.593 35.8359C133.739 35.0759 133.884 34.356 134.029 33.666C134.21 32.976 134.319 32.2461 134.356 31.4861C134.827 31.3361 135.208 31.2661 135.499 31.2661C135.789 31.2361 136.079 31.2459 136.37 31.3259C136.66 31.3959 137.005 31.506 137.404 31.646C137.368 32.446 137.295 33.1561 137.186 33.7761C137.077 34.3861 136.987 35.0759 136.914 35.8359H133.593ZM125.155 35.8359C126.135 36.1359 127.043 36.3661 127.877 36.5461C128.712 36.7261 129.565 36.786 130.436 36.716C131.343 36.606 132.396 36.3159 133.593 35.8359L134.41 38.3459C133.249 39.2559 132.051 39.866 130.817 40.196C129.583 40.526 128.331 40.526 127.061 40.196C125.827 39.836 124.575 39.2159 123.304 38.3459L125.155 35.8359ZM125.809 14.0661C125.264 16.4561 124.811 18.746 124.448 20.926C124.368 21.456 124.3 21.9961 124.244 22.5461C124.506 22.7061 124.737 22.836 124.938 22.936C125.155 23.046 125.5 23.116 125.972 23.156C126.661 23.156 127.351 23.176 128.041 23.216H130.381C131.071 23.216 131.579 23.1759 131.906 23.1059C132.232 23.0259 132.613 22.9161 133.049 22.7761C133.122 22.3061 133.158 21.8861 133.158 21.5261C133.194 21.1561 133.212 20.726 133.212 20.216V19.886C133.212 18.616 133.14 17.5661 132.995 16.7361C132.886 15.8661 132.668 14.9761 132.341 14.0661H130.381C129.438 13.8861 128.658 13.8159 128.041 13.8459C127.424 13.8859 126.68 13.9561 125.809 14.0661L124.502 11.5661C126.026 11.2361 127.224 11.036 128.095 10.966C129.002 10.856 130.182 10.7961 131.634 10.7961C132.033 11.3461 132.414 11.8361 132.777 12.2661C133.176 12.7061 133.503 13.3061 133.757 14.0661H136.206C136.678 15.6661 137.005 17.0561 137.186 18.2561C137.368 19.4561 137.44 20.9561 137.404 22.7761C137.404 23.6461 137.368 24.3161 137.295 24.7861C137.223 25.2661 137.077 25.7561 136.86 26.2561C135.916 26.2961 135.009 26.3161 134.138 26.3161C133.303 26.2761 132.178 26.2561 130.763 26.2561H127.387C126.516 26.2561 125.881 26.3659 125.482 26.5859C125.119 26.7659 124.647 27.0061 124.067 27.2961C124.061 27.2161 124.056 27.1361 124.051 27.0661C124.054 27.3061 124.06 27.5461 124.067 27.7861C124.175 30.1461 124.538 32.8259 125.155 35.8359H120.8C120.183 32.6059 119.857 29.8361 119.82 27.5161C119.82 25.1861 120.02 22.996 120.419 20.926C120.855 18.856 121.381 16.5661 121.998 14.0661H125.809ZM102.236 36.166C102.2 36.786 102.273 37.206 102.454 37.416C102.636 37.636 102.89 37.8559 103.216 38.0759C103.253 38.1059 103.271 38.126 103.271 38.126C103.307 38.126 103.343 38.146 103.38 38.186C103.634 38.366 103.797 38.5059 103.87 38.6159C103.979 38.7259 104.033 38.926 104.033 39.216C104.033 39.466 103.997 39.6661 103.924 39.8161C103.852 39.9261 103.743 40.0661 103.597 40.2461H97.119C96.938 40.0661 96.811 39.9261 96.738 39.8161C96.666 39.6661 96.629 39.456 96.629 39.166C96.629 38.976 96.666 38.8361 96.738 38.7261C96.847 38.6161 97.028 38.4859 97.283 38.3459C97.319 38.2759 97.373 38.216 97.446 38.186C97.518 38.146 97.591 38.0961 97.664 38.0161C97.845 37.7261 97.954 37.4761 97.99 37.2561C98.063 37.0061 98.099 36.636 98.099 36.166L98.045 20.376C98.045 19.076 98.154 18.006 98.371 17.166C98.589 16.296 98.952 15.2661 99.46 14.0661H101.91C102.055 13.3761 102.273 12.836 102.563 12.436C102.853 11.996 103.162 11.4659 103.489 10.8559C104.868 10.7759 105.993 10.7461 106.864 10.7461C107.771 10.7461 108.932 10.796 110.348 10.906C110.675 11.486 110.947 11.976 111.164 12.376C111.419 12.736 111.673 13.3061 111.927 14.0661H114.431C114.939 15.1861 115.302 16.1661 115.52 17.0061C115.737 17.8061 115.846 18.8359 115.846 20.1059L115.901 36.166C115.901 36.636 115.919 37.0061 115.955 37.2561C116.028 37.4761 116.155 37.7261 116.336 38.0161C116.409 38.0961 116.481 38.146 116.554 38.186C116.627 38.216 116.699 38.2759 116.772 38.3459C117.026 38.4859 117.207 38.6161 117.316 38.7261C117.461 38.8361 117.534 38.996 117.534 39.216C117.534 39.506 117.498 39.7061 117.425 39.8161C117.352 39.9261 117.225 40.0661 117.044 40.2461H110.675C110.529 40.0661 110.42 39.9261 110.348 39.8161C110.275 39.6661 110.239 39.466 110.239 39.216C110.239 38.966 110.293 38.776 110.402 38.676C110.548 38.526 110.729 38.346 110.947 38.126C111.164 37.906 111.346 37.6961 111.491 37.4761C111.636 37.2161 111.709 36.786 111.709 36.166V19.2961C111.709 17.9861 111.564 17.0059 111.273 16.3559C110.983 15.6659 110.62 14.8961 110.185 14.0661H108.932C108.243 13.9961 107.662 13.956 107.19 13.956C106.719 13.916 106.138 13.9561 105.448 14.0661H103.597C103.235 14.8261 102.908 15.536 102.618 16.186C102.364 16.806 102.236 17.716 102.236 18.906V36.166ZM11.759 37.8559C11.759 37.2059 11.886 36.476 12.14 35.676C12.975 35.386 13.719 35.2461 14.372 35.2461C15.025 35.2461 15.751 35.366 16.549 35.626C16.804 36.426 16.931 37.1461 16.931 37.7961C16.967 38.4561 16.84 39.1961 16.549 40.0361C15.751 40.2861 15.025 40.416 14.372 40.416C13.719 40.416 12.993 40.2861 12.194 40.0361C11.904 39.2361 11.759 38.5059 11.759 37.8559Z" fill="black"/>
</svg>
