<svg width="138" height="41" viewBox="0 0 138 41" fill="none" xmlns="http://www.w3.org/2000/svg">
<path fill-rule="evenodd" clip-rule="evenodd" d="M4.355 14.3359L1.905 15.4761C1.325 14.7161 0.853 13.936 0.49 13.136C0.163 12.346 0 11.346 0 10.146C0.544 9.45597 1.107 8.87598 1.688 8.40598C2.305 7.93598 3.194 7.51598 4.355 7.15598V4.75608L6.642 4.04612C7.113 3.90612 7.476 3.77599 7.73 3.66599C8.021 3.55599 8.347 3.48602 8.71 3.44602V0.99607C9.472 0.89607 10.108 0.876021 10.616 0.946021C11.124 1.01602 11.704 1.16595 12.358 1.37595C12.467 2.14595 12.467 2.75606 12.358 3.23606C12.285 3.70606 12.104 4.28605 11.813 4.97605L8.71 5.35593V7.74607C7.912 7.89607 7.168 8.07612 6.478 8.29612C5.789 8.47612 5.081 8.606 4.355 8.676V9.43601C4.065 9.87601 3.811 10.276 3.593 10.636C3.375 10.996 3.266 11.4661 3.266 12.0561C3.266 12.6661 3.375 13.136 3.593 13.466C3.811 13.796 4.065 14.0859 4.355 14.3359ZM4.355 14.3359C5.589 14.3759 6.678 14.2861 7.621 14.0661C8.601 13.8461 9.908 13.536 11.541 13.136L13.065 12.8161V10.3659C13.755 10.2859 14.426 10.1861 15.08 10.0361C15.733 9.85611 16.513 9.69612 17.421 9.54612V7.09592C19.09 6.87592 20.542 6.7859 21.776 6.8259C23.046 6.8259 24.498 7.15613 26.131 7.80613V10.416L28.581 10.2561C28.726 10.9461 28.853 11.5659 28.962 12.1059C29.107 12.6459 29.216 13.3061 29.288 14.0661H26.838C26.911 14.8961 26.929 15.6261 26.893 16.2461C26.893 16.8561 26.82 17.586 26.675 18.416H24.225C24.08 19.326 23.79 20.076 23.354 20.656C22.955 21.236 22.483 21.9361 21.939 22.7761H19.489C19.344 22.9561 19.199 23.106 19.054 23.216C18.909 23.316 18.763 23.466 18.618 23.646C17.674 24.586 16.949 25.336 16.441 25.876C15.932 26.426 15.678 27.116 15.678 27.946V31.2661C15.279 31.3761 14.934 31.4661 14.644 31.5361C14.354 31.5761 14.045 31.5761 13.719 31.5361C13.428 31.4661 13.084 31.356 12.684 31.216V28.4961C12.684 27.2961 12.811 26.366 13.065 25.716C13.319 25.026 13.664 24.176 14.1 23.156L14.263 22.7761H16.658C16.876 22.2661 17.13 21.8461 17.421 21.5261C17.711 21.1561 18.038 20.726 18.4 20.216C18.618 19.886 18.854 19.5959 19.108 19.3459C19.362 19.0959 19.634 18.786 19.925 18.416H22.374C22.774 17.586 23.082 16.8959 23.3 16.3559C23.518 15.8059 23.627 15.0461 23.627 14.0661H26.131V11.6159H24.498C24.171 11.3259 23.808 11.086 23.409 10.906C23.01 10.686 22.483 10.5859 21.83 10.5859C21.104 10.5859 20.415 10.6759 19.761 10.8559C19.108 10.9959 18.328 11.196 17.421 11.456V13.906L13.065 14.886V17.2761C11.214 17.6361 9.708 17.8961 8.547 18.0361C7.386 18.1461 5.988 18.096 4.355 17.876V14.3359ZM48.015 35.8359C48.451 33.1159 48.469 30.8461 48.07 29.0361C47.67 27.2261 47.072 25.1361 46.273 22.7761H43.823C43.642 22.3061 43.442 21.926 43.225 21.636C43.007 21.306 42.771 20.906 42.517 20.436C42.372 20.076 42.19 19.7661 41.972 19.5061C41.791 19.2161 41.591 18.856 41.374 18.416H38.978C38.507 17.516 38.126 16.766 37.835 16.186C37.581 15.606 37.382 14.8961 37.236 14.0661H34.841C34.623 13.0161 34.442 11.9261 34.297 10.7961C34.151 9.63612 34.242 8.45608 34.569 7.25608C34.895 6.06608 35.621 4.82613 36.746 3.55613L39.196 4.31614C38.761 5.48614 38.47 6.55611 38.325 7.53611C38.18 8.51611 38.216 9.52591 38.434 10.5859C38.652 11.5959 39.051 12.7561 39.632 14.0661H42.081C42.335 14.8261 42.662 15.536 43.061 16.186C43.497 16.846 43.932 17.586 44.368 18.416H46.763C47.126 19.216 47.453 19.9061 47.743 20.4861C48.07 21.0661 48.378 21.8361 48.669 22.7761H51.118C51.735 25.1361 52.134 27.256 52.316 29.146C52.497 30.996 52.298 33.2259 51.717 35.8359H48.015ZM39.196 36.8161C40.394 37.1161 41.464 37.2761 42.408 37.3061C43.352 37.3061 44.259 37.2061 45.13 36.9861C46.001 36.7261 46.963 36.3459 48.015 35.8359L49.267 38.2861C47.634 39.1661 46.074 39.7559 44.586 40.0859C43.098 40.4159 41.301 40.5059 39.196 40.3559V36.8161ZM39.196 36.8161L36.746 37.906C36.021 37.256 35.422 36.7161 34.95 36.2761C34.514 35.8361 34.297 35.226 34.297 34.426L34.242 31.8161L34.188 28.0061C34.587 27.8561 34.932 27.746 35.222 27.676C35.512 27.606 35.803 27.606 36.093 27.676C36.42 27.716 36.801 27.806 37.236 27.946L37.345 28.7661C37.563 30.5461 37.799 31.9959 38.053 33.1159C38.343 34.2459 38.724 35.4761 39.196 36.8161ZM39.196 4.31614V1.10593C40.974 0.855933 42.499 0.746109 43.769 0.786109C45.039 0.786109 46.418 0.85607 47.906 0.99607V3.44602C48.777 3.55602 49.449 3.6859 49.921 3.8259C50.392 3.9359 50.919 4.10614 51.499 4.31614C51.499 5.91614 51.518 7.33614 51.554 8.56614C51.59 9.79614 51.608 11.256 51.608 12.926C51.173 13.066 50.81 13.1761 50.519 13.2461C50.229 13.2861 49.921 13.2861 49.594 13.2461C49.304 13.2161 48.941 13.1261 48.505 12.9761C48.36 11.9261 48.233 11.1061 48.124 10.5261C48.051 9.9061 47.979 9.18592 47.906 8.34592V6.176C46.854 5.376 45.892 4.796 45.021 4.426C44.186 4.066 43.315 3.88596 42.408 3.88596C41.501 3.88596 40.43 4.02614 39.196 4.31614ZM61.19 35.8359C62.169 36.1359 63.04 36.3859 63.803 36.6059C64.601 36.7859 65.418 36.816 66.252 36.716C67.087 36.606 68.103 36.3159 69.301 35.8359L70.172 38.2861C68.974 39.1961 67.777 39.836 66.579 40.196C65.418 40.556 64.22 40.556 62.986 40.196C61.752 39.866 60.5 39.2361 59.23 38.2861L61.19 35.8359ZM69.301 35.8359C69.41 35.2259 69.519 34.6961 69.628 34.2661C69.736 33.7861 69.827 33.266 69.9 32.686L70.009 31.976C70.48 31.866 70.862 31.8161 71.152 31.8161C71.442 31.7761 71.714 31.816 71.968 31.926C72.259 31.996 72.585 32.1061 72.948 32.2461C72.912 32.9361 72.858 33.5361 72.785 34.0461C72.749 34.5161 72.694 35.1159 72.622 35.8359H69.301ZM61.897 14.0661C61.389 16.4561 60.972 18.746 60.645 20.926C60.318 23.106 60.191 25.3861 60.264 27.7861C60.337 30.1461 60.645 32.8259 61.19 35.8359H56.78C56.163 32.5759 55.873 29.776 55.909 27.456C55.945 25.096 56.199 22.9059 56.671 20.8659C57.143 18.8059 57.705 16.5361 58.359 14.0661H61.897ZM61.897 14.0661L60.808 11.6159C62.333 11.2859 63.567 11.076 64.51 10.966C65.49 10.856 66.688 10.7961 68.103 10.7961C68.611 11.3461 68.992 11.8361 69.246 12.2661C69.501 12.6661 69.7 13.2661 69.845 14.0661H72.241C72.458 14.9361 72.585 15.7561 72.622 16.5161C72.694 17.2761 72.731 18.2061 72.731 19.2961V19.5661C72.331 19.7061 71.987 19.816 71.696 19.886C71.406 19.966 71.116 19.976 70.825 19.946C70.535 19.876 70.154 19.7659 69.682 19.6159C69.646 19.5059 69.609 19.3961 69.573 19.2961C69.537 19.1461 69.519 18.9661 69.519 18.7461C69.337 17.6561 69.138 16.7659 68.92 16.0759C68.738 15.3859 68.484 14.7161 68.158 14.0661H66.252C65.309 13.8861 64.546 13.8159 63.966 13.8459C63.385 13.8859 62.696 13.9561 61.897 14.0661ZM90.369 35.8359C90.514 35.0759 90.659 34.356 90.804 33.666C90.986 32.976 91.095 32.2461 91.131 31.4861C91.566 31.3361 91.929 31.2661 92.22 31.2661C92.546 31.2361 92.837 31.2459 93.091 31.3259C93.381 31.3959 93.726 31.506 94.125 31.646C94.089 32.446 94.016 33.1561 93.907 33.7761C93.835 34.3861 93.744 35.0759 93.635 35.8359H90.369ZM81.931 35.8359C82.911 36.1359 83.818 36.3859 84.653 36.6059C85.487 36.7859 86.34 36.816 87.211 36.716C88.119 36.606 89.171 36.3159 90.369 35.8359L91.185 38.2861C90.024 39.2361 88.826 39.866 87.592 40.196C86.358 40.526 85.088 40.506 83.782 40.146C82.511 39.776 81.259 39.1661 80.025 38.2861L81.931 35.8359ZM82.584 14.0661C82.003 16.4561 81.531 18.746 81.169 20.926C81.089 21.456 81.02 21.9961 80.964 22.5461C81.226 22.7061 81.458 22.8561 81.659 22.9961C81.876 23.1061 82.221 23.156 82.693 23.156C83.382 23.156 84.072 23.176 84.762 23.216H87.102C87.792 23.216 88.3 23.1759 88.627 23.1059C88.99 23.0259 89.389 22.9161 89.824 22.7761C89.897 22.3061 89.933 21.8861 89.933 21.5261C89.97 21.1561 89.988 20.726 89.988 20.216V19.886C89.988 18.616 89.915 17.5661 89.77 16.7361C89.625 15.8661 89.389 14.9761 89.062 14.0661H87.157C86.213 13.8861 85.433 13.8159 84.816 13.8459C84.199 13.8459 83.455 13.9161 82.584 14.0661L81.223 11.6159C82.747 11.2859 83.945 11.076 84.816 10.966C85.723 10.856 86.903 10.7961 88.355 10.7961C88.754 11.3461 89.135 11.8361 89.498 12.2661C89.897 12.7061 90.224 13.3061 90.478 14.0661H92.927C93.399 15.6661 93.726 17.0561 93.907 18.2561C94.089 19.4561 94.18 20.9561 94.18 22.7761C94.18 23.6461 94.143 24.3161 94.071 24.7861C93.998 25.2661 93.835 25.7561 93.581 26.2561C92.673 26.2961 91.784 26.3161 90.913 26.3161C90.042 26.2761 88.899 26.2561 87.484 26.2561H84.054C83.219 26.2561 82.602 26.3659 82.203 26.5859C81.84 26.7659 81.368 27.0259 80.787 27.3459C80.782 27.2659 80.777 27.196 80.772 27.126C80.776 27.346 80.781 27.5661 80.787 27.7861C80.896 30.1761 81.278 32.8659 81.931 35.8359H77.576C76.922 32.6059 76.578 29.8361 76.541 27.5161C76.541 25.1561 76.759 22.9359 77.195 20.8659C77.63 18.8059 78.156 16.5361 78.773 14.0661H82.584ZM125.101 35.8359C126.117 36.1359 127.043 36.3859 127.877 36.6059C128.712 36.7859 129.565 36.816 130.436 36.716C131.343 36.606 132.396 36.3159 133.593 35.8359L134.41 38.2861C133.249 39.2361 132.051 39.866 130.817 40.196C129.583 40.526 128.313 40.506 127.006 40.146C125.736 39.776 124.484 39.1661 123.25 38.2861L125.101 35.8359ZM125.809 14.0661C125.228 16.4561 124.756 18.746 124.393 20.926C124.313 21.456 124.245 21.9961 124.189 22.5461C124.451 22.7061 124.682 22.8561 124.883 22.9961C125.101 23.1061 125.446 23.156 125.917 23.156C126.607 23.156 127.297 23.176 127.986 23.216H130.327C131.017 23.216 131.525 23.1759 131.851 23.1059C132.178 23.0259 132.559 22.9161 132.995 22.7761C133.103 22.3061 133.158 21.8861 133.158 21.5261V19.886C133.158 18.616 133.085 17.5661 132.94 16.7361C132.831 15.8661 132.613 14.9761 132.287 14.0661H130.381C129.438 13.8861 128.639 13.8159 127.986 13.8459C127.369 13.8459 126.643 13.9161 125.809 14.0661L124.448 11.6159C125.972 11.2859 127.17 11.076 128.041 10.966C128.948 10.856 130.127 10.7961 131.579 10.7961C131.978 11.3461 132.359 11.8361 132.722 12.2661C133.122 12.7061 133.448 13.3061 133.702 14.0661H136.152C136.624 15.6661 136.95 17.0561 137.132 18.2561C137.313 19.4561 137.386 20.9561 137.35 22.7761C137.35 23.6461 137.313 24.3161 137.241 24.7861C137.168 25.2661 137.023 25.7561 136.805 26.2561C135.898 26.2961 135.009 26.3161 134.138 26.3161C133.267 26.2761 132.124 26.2561 130.708 26.2561H127.278C126.407 26.2561 125.79 26.3659 125.428 26.5859C125.065 26.7659 124.593 27.0259 124.012 27.3459C124.007 27.2659 124.002 27.196 123.997 27.126C124 27.346 124.005 27.5661 124.012 27.7861C124.121 30.1761 124.484 32.8659 125.101 35.8359H120.8C120.147 32.6059 119.802 29.8361 119.766 27.5161C119.766 25.1561 119.984 22.9359 120.419 20.8659C120.855 18.8059 121.381 16.5361 121.998 14.0661H125.809ZM133.593 35.8359C133.739 35.0759 133.884 34.356 134.029 33.666C134.174 32.976 134.283 32.2461 134.356 31.4861C134.791 31.3361 135.154 31.2661 135.444 31.2661C135.771 31.2361 136.061 31.2459 136.315 31.3259C136.606 31.3959 136.95 31.506 137.35 31.646C137.313 32.446 137.241 33.1561 137.132 33.7761C137.023 34.3861 136.932 35.0759 136.86 35.8359H133.593ZM102.182 36.2261C102.146 36.8361 102.218 37.2561 102.4 37.4761C102.581 37.6561 102.853 37.8559 103.216 38.0759C103.253 38.1059 103.271 38.126 103.271 38.126C103.307 38.126 103.343 38.146 103.38 38.186C103.597 38.366 103.743 38.5059 103.815 38.6159C103.924 38.7259 103.979 38.926 103.979 39.216C103.979 39.466 103.942 39.6661 103.87 39.8161C103.797 39.9261 103.688 40.0661 103.543 40.2461H97.01C96.829 40.0661 96.702 39.9261 96.629 39.8161C96.557 39.7061 96.52 39.506 96.52 39.216C96.52 39.036 96.575 38.8861 96.684 38.7761C96.793 38.6761 96.956 38.5259 97.174 38.3459C97.246 38.2759 97.319 38.216 97.391 38.186C97.464 38.146 97.537 38.0961 97.609 38.0161C97.791 37.7261 97.9 37.4761 97.936 37.2561C98.008 37.0061 98.045 36.6561 98.045 36.2261L97.99 20.376C97.99 19.076 98.099 18.006 98.317 17.166C98.571 16.296 98.934 15.2661 99.406 14.0661H101.855C102.001 13.3761 102.218 12.836 102.509 12.436C102.835 11.996 103.144 11.486 103.434 10.906C104.85 10.836 105.993 10.7961 106.864 10.7961C107.735 10.7961 108.878 10.836 110.293 10.906C110.62 11.526 110.892 12.016 111.11 12.376C111.364 12.736 111.636 13.3061 111.927 14.0661H114.322C114.866 15.1861 115.247 16.1661 115.465 17.0061C115.683 17.8061 115.792 18.856 115.792 20.166L115.846 36.2261C115.846 36.6561 115.864 37.0061 115.901 37.2561C115.973 37.4761 116.1 37.7261 116.282 38.0161C116.354 38.0961 116.427 38.146 116.5 38.186C116.608 38.216 116.699 38.286 116.772 38.396C117.026 38.506 117.207 38.6161 117.316 38.7261C117.461 38.8361 117.534 38.996 117.534 39.216C117.534 39.506 117.498 39.7061 117.425 39.8161C117.352 39.9261 117.225 40.0661 117.044 40.2461H110.62C110.475 40.0661 110.366 39.9261 110.293 39.8161C110.221 39.6661 110.185 39.466 110.185 39.216C110.185 38.966 110.239 38.776 110.348 38.676C110.493 38.526 110.675 38.366 110.892 38.186C111.11 37.926 111.292 37.6961 111.437 37.4761C111.582 37.2561 111.654 36.8361 111.654 36.2261V19.2961C111.654 17.9861 111.509 17.0059 111.219 16.3559C110.929 15.6659 110.566 14.8961 110.13 14.0661H108.878C108.188 13.9961 107.608 13.956 107.136 13.956C106.664 13.916 106.084 13.9561 105.394 14.0661H103.597C103.198 14.8261 102.853 15.536 102.563 16.186C102.309 16.806 102.182 17.716 102.182 18.906V36.2261ZM11.704 37.8559C11.704 37.2059 11.85 36.456 12.14 35.626C12.938 35.366 13.664 35.2461 14.318 35.2461C15.007 35.2461 15.751 35.366 16.549 35.626C16.804 36.426 16.931 37.1461 16.931 37.7961C16.967 38.4561 16.84 39.1761 16.549 39.9761C15.751 40.2661 15.007 40.416 14.318 40.416C13.664 40.416 12.938 40.2861 12.14 40.0361C11.886 39.2361 11.741 38.5059 11.704 37.8559Z" fill="black"/>
</svg>
