<svg width="138" height="41" viewBox="0 0 138 41" fill="none" xmlns="http://www.w3.org/2000/svg">
<path fill-rule="evenodd" clip-rule="evenodd" d="M4.355 14.3359L1.96 15.4761C1.343 14.7561 0.853 13.996 0.49 13.196C0.163 12.356 0 11.366 0 10.196C0.508 9.47602 1.071 8.87598 1.688 8.40598C2.305 7.89598 3.194 7.45592 4.355 7.09592V4.70603L6.642 4.04612C7.113 3.90612 7.476 3.77599 7.73 3.66599C8.021 3.52599 8.347 3.43597 8.71 3.39597V0.99607C9.472 0.89607 10.108 0.876021 10.616 0.946021C11.124 1.01602 11.704 1.16595 12.358 1.37595C12.467 2.14595 12.467 2.75606 12.358 3.23606C12.285 3.70606 12.104 4.28605 11.813 4.97605L8.71 5.35593V7.69602C7.912 7.84602 7.15 8.02606 6.424 8.23606C5.734 8.42606 5.045 8.566 4.355 8.676V9.43601C4.065 9.83601 3.793 10.2159 3.539 10.5859C3.321 10.9459 3.212 11.4361 3.212 12.0561C3.212 12.6661 3.321 13.1561 3.539 13.5161C3.793 13.8461 4.065 14.1159 4.355 14.3359ZM4.355 14.3359C5.589 14.3759 6.678 14.2861 7.621 14.0661C8.601 13.8461 9.908 13.536 11.541 13.136L13.065 12.7561V10.3659C13.719 10.2859 14.372 10.1861 15.025 10.0361C15.715 9.85611 16.513 9.69612 17.421 9.54612V7.15598C19.09 6.93598 20.542 6.84595 21.776 6.87595C23.046 6.87595 24.498 7.20593 26.131 7.85593V10.416L28.526 10.2561C28.671 10.9461 28.798 11.5659 28.907 12.1059C29.052 12.6459 29.161 13.3061 29.234 14.0661H26.838C26.911 14.8961 26.929 15.6261 26.893 16.2461C26.893 16.8561 26.82 17.586 26.675 18.416H24.28C24.135 19.326 23.844 20.086 23.409 20.706C22.973 21.286 22.483 21.9761 21.939 22.7761H19.544C19.398 22.9561 19.253 23.106 19.108 23.216C18.963 23.316 18.818 23.466 18.673 23.646C17.656 24.586 16.894 25.356 16.386 25.936C15.914 26.476 15.678 27.1661 15.678 28.0061V31.216C15.279 31.356 14.916 31.4661 14.59 31.5361C14.299 31.5761 14.009 31.5761 13.719 31.5361C13.428 31.4661 13.084 31.356 12.684 31.216V28.4961C12.684 27.2961 12.811 26.346 13.065 25.656C13.319 24.976 13.664 24.136 14.1 23.156L14.263 22.7761H16.658C16.876 22.2661 17.13 21.8461 17.421 21.5261C17.747 21.1561 18.074 20.726 18.4 20.216C18.618 19.886 18.854 19.5959 19.108 19.3459C19.398 19.0959 19.689 18.786 19.979 18.416H22.374C22.774 17.586 23.082 16.8959 23.3 16.3559C23.554 15.8059 23.681 15.0461 23.681 14.0661H26.131V11.666H24.552C24.225 11.376 23.862 11.126 23.463 10.906C23.064 10.686 22.538 10.5859 21.885 10.5859C21.122 10.5859 20.415 10.6759 19.761 10.8559C19.108 11.0359 18.328 11.2561 17.421 11.5061V13.906L13.065 14.886V17.2761C11.214 17.6361 9.708 17.8961 8.547 18.0361C7.386 18.1461 5.988 18.096 4.355 17.876V14.3359ZM39.196 4.31614V1.10593C40.974 0.855933 42.499 0.746109 43.769 0.786109C45.039 0.786109 46.418 0.85607 47.906 0.99607V3.39597C48.777 3.53597 49.449 3.6859 49.921 3.8259C50.392 3.9359 50.919 4.10614 51.499 4.31614V8.56614C51.536 9.79614 51.554 11.2359 51.554 12.8659C51.155 13.0159 50.81 13.126 50.519 13.196C50.229 13.266 49.921 13.2861 49.594 13.2461C49.304 13.1761 48.941 13.066 48.505 12.926C48.36 11.866 48.233 11.0561 48.124 10.4761C48.051 9.89605 47.979 9.18592 47.906 8.34592V6.22605C46.854 5.39605 45.892 4.796 45.021 4.426C44.186 4.026 43.315 3.8259 42.408 3.8259C41.501 3.8259 40.43 3.99614 39.196 4.31614ZM48.015 35.8359C48.451 33.1559 48.469 30.8861 48.07 29.0361C47.67 27.1861 47.054 25.0961 46.219 22.7761H43.823C43.642 22.3061 43.442 21.926 43.225 21.636C43.007 21.306 42.771 20.906 42.517 20.436C42.335 20.076 42.136 19.7661 41.918 19.5061C41.737 19.2161 41.537 18.856 41.319 18.416H38.924C38.488 17.516 38.126 16.766 37.835 16.186C37.581 15.576 37.363 14.8661 37.182 14.0661H34.841C34.623 13.0161 34.442 11.9061 34.297 10.7461C34.151 9.58607 34.242 8.40603 34.569 7.20603C34.932 6.00603 35.676 4.77608 36.801 3.50608L39.196 4.31614C38.724 5.44614 38.416 6.49605 38.271 7.47605C38.162 8.45605 38.216 9.4761 38.434 10.5261C38.652 11.5761 39.051 12.7561 39.632 14.0661H42.027C42.281 14.8261 42.626 15.536 43.061 16.186C43.497 16.846 43.932 17.586 44.368 18.416H46.763C47.09 19.216 47.416 19.9061 47.743 20.4861C48.07 21.0661 48.378 21.8361 48.669 22.7761H51.064C51.717 25.1361 52.134 27.256 52.316 29.146C52.497 30.996 52.298 33.2259 51.717 35.8359H48.015ZM39.196 36.8161C40.394 37.1161 41.464 37.2761 42.408 37.3061C43.352 37.3461 44.259 37.2361 45.13 36.9861C46.037 36.7261 46.999 36.3459 48.015 35.8359L49.322 38.2361C47.689 39.1061 46.128 39.7259 44.64 40.0859C43.152 40.4159 41.337 40.5059 39.196 40.3559V36.8161ZM39.196 36.8161L36.801 37.966C36.039 37.306 35.422 36.7659 34.95 36.3259C34.514 35.8959 34.297 35.2761 34.297 34.4761L34.242 31.8659L34.133 28.0061C34.533 27.8561 34.877 27.746 35.168 27.676C35.458 27.606 35.766 27.606 36.093 27.676C36.42 27.716 36.783 27.806 37.182 27.946L37.291 28.7661C37.509 30.5461 37.744 31.9959 37.998 33.1159C38.289 34.2459 38.688 35.4761 39.196 36.8161ZM61.952 14.0661C61.407 16.4261 60.972 18.706 60.645 20.926C60.318 23.106 60.191 25.3861 60.264 27.7861C60.337 30.1761 60.645 32.8659 61.19 35.8359H56.78C56.163 32.5759 55.854 29.776 55.854 27.456C55.891 25.096 56.145 22.9059 56.617 20.8659C57.125 18.8059 57.724 16.5361 58.413 14.0661H61.952ZM61.952 14.0661L60.808 11.666C62.333 11.346 63.567 11.1261 64.51 11.0161C65.454 10.8761 66.633 10.7961 68.049 10.7961C68.557 11.3461 68.938 11.8361 69.192 12.2661C69.482 12.7061 69.7 13.3061 69.845 14.0661H72.241C72.422 14.9361 72.531 15.7561 72.567 16.5161C72.64 17.2761 72.676 18.2061 72.676 19.2961V19.6159C72.277 19.7259 71.932 19.816 71.642 19.886C71.388 19.966 71.097 19.976 70.771 19.946C70.48 19.906 70.118 19.816 69.682 19.676C69.646 19.526 69.609 19.3961 69.573 19.2961C69.537 19.1461 69.519 18.9861 69.519 18.8061C69.301 17.6761 69.083 16.7659 68.865 16.0759C68.684 15.3859 68.448 14.7161 68.158 14.0661H66.252C65.345 13.8861 64.601 13.8159 64.02 13.8459C63.44 13.8859 62.75 13.9561 61.952 14.0661ZM69.301 35.8359C69.41 35.2259 69.519 34.6961 69.628 34.2661C69.736 33.7861 69.827 33.266 69.9 32.686L70.009 31.976C70.48 31.866 70.862 31.8161 71.152 31.8161C71.442 31.7761 71.714 31.816 71.968 31.926C72.259 31.996 72.585 32.1061 72.948 32.2461C72.912 32.9361 72.858 33.5361 72.785 34.0461C72.749 34.5161 72.676 35.1159 72.567 35.8359H69.301ZM61.19 35.8359C62.169 36.1659 63.04 36.4259 63.803 36.6059C64.601 36.7859 65.418 36.8361 66.252 36.7661C67.087 36.6561 68.103 36.3459 69.301 35.8359L70.172 38.2361C69.01 39.1761 67.831 39.836 66.633 40.196C65.436 40.556 64.22 40.556 62.986 40.196C61.752 39.866 60.482 39.2161 59.175 38.2361L61.19 35.8359ZM82.584 14.0661C82.003 16.4261 81.531 18.706 81.169 20.926C81.08 21.456 81.005 21.9961 80.942 22.5361C81.179 22.7061 81.399 22.8561 81.604 22.9961C81.822 23.1061 82.167 23.156 82.638 23.156C83.328 23.196 84.018 23.216 84.707 23.216H87.048C87.738 23.216 88.246 23.1759 88.572 23.1059C88.935 23.0259 89.334 22.9161 89.77 22.7761C89.843 22.3061 89.879 21.8861 89.879 21.5261C89.915 21.1561 89.933 20.726 89.933 20.216V19.946C89.933 18.636 89.861 17.546 89.716 16.676C89.57 15.806 89.334 14.9361 89.008 14.0661H87.157C86.213 13.8861 85.415 13.8159 84.762 13.8459C84.145 13.8459 83.419 13.9161 82.584 14.0661L81.223 11.666C82.711 11.306 83.891 11.0861 84.762 11.0161C85.669 10.9061 86.83 10.8559 88.246 10.8559C88.681 11.3959 89.099 11.8859 89.498 12.3259C89.897 12.7259 90.224 13.3061 90.478 14.0661H92.873C93.345 15.6661 93.671 17.0561 93.853 18.2561C94.071 19.4561 94.161 20.9561 94.125 22.7761C94.125 23.6461 94.089 24.3161 94.016 24.7861C93.944 25.2261 93.798 25.7161 93.581 26.2561H83.999C83.128 26.2561 82.511 26.3659 82.149 26.5859C81.786 26.7659 81.314 27.0259 80.733 27.3459C80.733 27.0559 80.727 26.7761 80.715 26.5261C80.714 26.9361 80.72 27.3561 80.733 27.7861C80.842 30.1761 81.223 32.8659 81.876 35.8359H77.576C76.922 32.6059 76.578 29.8361 76.541 27.5161C76.541 25.1561 76.759 22.9359 77.195 20.8659C77.63 18.8059 78.174 16.5361 78.828 14.0661H82.584ZM90.314 35.8359C90.496 35.0759 90.659 34.356 90.804 33.666C90.95 32.976 91.058 32.2461 91.131 31.4861C91.566 31.3361 91.929 31.2661 92.22 31.2661C92.51 31.2361 92.8 31.2459 93.091 31.3259C93.381 31.3959 93.708 31.506 94.071 31.646C94.034 32.446 93.962 33.1561 93.853 33.7761C93.78 34.3861 93.69 35.0759 93.581 35.8359H90.314ZM81.876 35.8359C82.856 36.1659 83.763 36.4259 84.598 36.6059C85.433 36.7859 86.304 36.8361 87.211 36.7661C88.119 36.6561 89.153 36.3459 90.314 35.8359L91.185 38.2361C90.024 39.2161 88.808 39.866 87.538 40.196C86.304 40.526 85.034 40.506 83.727 40.146C82.457 39.776 81.205 39.1461 79.971 38.2361L81.876 35.8359ZM133.539 35.8359C133.684 35.0759 133.829 34.356 133.974 33.666C134.156 32.976 134.283 32.2461 134.356 31.4861C134.791 31.3361 135.154 31.2661 135.444 31.2661C135.735 31.2361 136.025 31.2459 136.315 31.3259C136.606 31.3959 136.932 31.506 137.295 31.646C137.259 32.446 137.186 33.1561 137.077 33.7761C136.969 34.3861 136.878 35.0759 136.805 35.8359H133.539ZM125.101 35.8359C126.081 36.1659 126.988 36.4259 127.823 36.6059C128.658 36.7859 129.529 36.8361 130.436 36.7661C131.343 36.6561 132.378 36.3459 133.539 35.8359L134.41 38.2361C133.249 39.2161 132.033 39.866 130.763 40.196C129.529 40.526 128.258 40.506 126.952 40.146C125.682 39.776 124.411 39.1461 123.141 38.2361L125.101 35.8359ZM125.809 14.0661C125.228 16.4261 124.756 18.706 124.393 20.926C124.303 21.466 124.226 22.0161 124.163 22.5661C124.414 22.7261 124.635 22.8661 124.829 22.9961C125.046 23.1061 125.373 23.156 125.809 23.156C126.534 23.196 127.242 23.216 127.932 23.216H130.273C130.962 23.216 131.47 23.1759 131.797 23.1059C132.16 23.0259 132.559 22.9161 132.995 22.7761C133.067 22.3061 133.103 21.8861 133.103 21.5261C133.14 21.1561 133.158 20.726 133.158 20.216V19.946C133.158 18.636 133.085 17.546 132.94 16.676C132.795 15.806 132.559 14.9361 132.232 14.0661H130.327C129.42 13.8861 128.639 13.8159 127.986 13.8459C127.369 13.8459 126.643 13.9161 125.809 14.0661L124.393 11.666C125.917 11.306 127.115 11.0861 127.986 11.0161C128.893 10.9061 130.055 10.8559 131.47 10.8559C131.869 11.3959 132.269 11.8859 132.668 12.3259C133.067 12.7259 133.412 13.3061 133.702 14.0661H136.098C136.569 15.6661 136.896 17.0561 137.077 18.2561C137.259 19.4561 137.35 20.9561 137.35 22.7761C137.35 23.6461 137.313 24.3161 137.241 24.7861C137.168 25.2261 137.005 25.7161 136.751 26.2561H127.224C126.353 26.2561 125.736 26.3659 125.373 26.5859C125.01 26.7659 124.538 27.0259 123.958 27.3459C123.953 27.2759 123.948 27.206 123.943 27.136C123.947 27.346 123.951 27.5661 123.958 27.7861C124.067 30.1761 124.448 32.8659 125.101 35.8359H120.746C120.092 32.6059 119.748 29.8361 119.711 27.5161C119.711 25.1561 119.929 22.9359 120.365 20.8659C120.8 18.8059 121.345 16.5361 121.998 14.0661H125.809ZM102.128 36.2261C102.091 36.8361 102.164 37.2561 102.345 37.4761C102.563 37.6561 102.835 37.8559 103.162 38.0759C103.198 38.1059 103.216 38.146 103.216 38.186H103.325C103.579 38.396 103.743 38.566 103.815 38.676C103.924 38.776 103.979 38.966 103.979 39.216C103.979 39.466 103.942 39.6661 103.87 39.8161C103.797 39.9261 103.688 40.0661 103.543 40.2461H96.956C96.774 40.1061 96.647 39.9759 96.575 39.8659C96.502 39.7259 96.466 39.506 96.466 39.216C96.466 39.036 96.502 38.8861 96.575 38.7761C96.684 38.6761 96.865 38.5259 97.119 38.3459C97.192 38.3059 97.264 38.2761 97.337 38.2361C97.41 38.1661 97.482 38.1059 97.555 38.0759C97.736 37.7859 97.845 37.5261 97.881 37.3061C97.954 37.0561 97.99 36.6961 97.99 36.2261L97.936 20.436C97.936 19.126 98.045 18.036 98.262 17.166C98.516 16.256 98.898 15.2261 99.406 14.0661H101.801C101.946 13.4161 102.164 12.8861 102.454 12.4861C102.781 12.0561 103.108 11.526 103.434 10.906C104.813 10.836 105.938 10.7961 106.809 10.7961C107.68 10.7961 108.824 10.856 110.239 10.966C110.566 11.546 110.838 12.016 111.056 12.376C111.31 12.736 111.582 13.3061 111.872 14.0661H114.268C114.812 15.1861 115.193 16.1661 115.411 17.0061C115.665 17.8061 115.792 18.856 115.792 20.166V36.2261C115.792 36.6561 115.81 37.0061 115.846 37.2561C115.919 37.5061 116.064 37.7859 116.282 38.0759C116.354 38.1459 116.427 38.1961 116.5 38.2361C116.572 38.2761 116.663 38.326 116.772 38.396C116.989 38.506 117.171 38.6161 117.316 38.7261C117.461 38.8361 117.534 38.996 117.534 39.216C117.534 39.506 117.498 39.7259 117.425 39.8659C117.352 39.9759 117.225 40.1061 117.044 40.2461H110.566C110.421 40.1061 110.312 39.9561 110.239 39.8161C110.166 39.6661 110.13 39.466 110.13 39.216C110.13 38.966 110.185 38.776 110.293 38.676C110.402 38.526 110.584 38.366 110.838 38.186C111.056 37.926 111.237 37.6961 111.382 37.4761C111.564 37.2561 111.636 36.8361 111.6 36.2261V19.2961C111.6 17.9461 111.455 16.9461 111.164 16.2961C110.874 15.6061 110.493 14.8661 110.021 14.0661H108.824C108.134 13.9961 107.553 13.956 107.082 13.956C106.61 13.916 106.029 13.9561 105.34 14.0661H103.543C103.18 14.7961 102.853 15.476 102.563 16.136C102.273 16.786 102.128 17.716 102.128 18.906V36.2261ZM11.704 37.8559C11.704 37.1659 11.831 36.426 12.086 35.626C12.92 35.366 13.664 35.2461 14.318 35.2461C14.971 35.2061 15.697 35.3161 16.495 35.5661C16.785 36.4061 16.931 37.1461 16.931 37.7961C16.931 38.4561 16.804 39.1761 16.549 39.9761C15.715 40.2661 14.971 40.416 14.318 40.416C13.664 40.446 12.938 40.3261 12.14 40.0361C11.85 39.2361 11.704 38.5059 11.704 37.8559Z" fill="black"/>
</svg>
