<svg width="138" height="41" viewBox="0 0 138 41" fill="none" xmlns="http://www.w3.org/2000/svg">
<path fill-rule="evenodd" clip-rule="evenodd" d="M4.355 14.336L2.014 15.5362C1.361 14.7762 0.853 13.9961 0.49 13.1961C0.163 12.3561 0 11.3661 0 10.1961C0.508 9.47613 1.071 8.85604 1.688 8.34604C2.305 7.84604 3.194 7.40623 4.355 7.04623V4.70614L6.642 3.99618C7.113 3.84618 7.476 3.72606 7.73 3.61606C8.021 3.50606 8.347 3.41603 8.71 3.33603V0.996183C9.472 0.896183 10.108 0.876134 10.616 0.946134C11.124 1.01613 11.704 1.16607 12.358 1.37607C12.467 2.14607 12.467 2.75617 12.358 3.23617C12.249 3.70617 12.049 4.28616 11.759 4.97616L8.71 5.35605V7.69613C7.912 7.80613 7.15 7.96612 6.424 8.18612C5.734 8.40612 5.045 8.56611 4.355 8.67611V9.38608C4.065 9.81608 3.793 10.216 3.539 10.586C3.321 10.946 3.212 11.4362 3.212 12.0562C3.212 12.6662 3.321 13.1562 3.539 13.5162C3.793 13.8462 4.065 14.116 4.355 14.336ZM4.355 14.336C5.589 14.376 6.678 14.2863 7.621 14.0663C8.601 13.8463 9.908 13.516 11.541 13.086L13.065 12.7562V10.3661C13.719 10.2861 14.372 10.1862 15.025 10.0362C15.715 9.85622 16.513 9.69623 17.421 9.54623V7.20614C19.09 6.98614 20.542 6.89612 21.776 6.93612C23.046 6.93612 24.498 7.2561 26.131 7.9161V10.4161L28.472 10.3062C28.617 10.9662 28.762 11.566 28.907 12.106C29.052 12.646 29.143 13.3063 29.179 14.0663H26.838C26.947 14.8963 26.984 15.6262 26.947 16.2462C26.947 16.8562 26.875 17.5861 26.73 18.4161H24.334C24.189 19.3261 23.899 20.0861 23.463 20.7061C23.028 21.2861 22.52 21.9762 21.939 22.7762H19.598C19.453 22.9562 19.308 23.1062 19.163 23.2162C19.017 23.3162 18.854 23.4661 18.673 23.6461C17.656 24.5861 16.894 25.3561 16.386 25.9361C15.878 26.4761 15.624 27.1662 15.624 28.0062V31.2162C15.225 31.3562 14.88 31.4662 14.59 31.5362C14.299 31.5762 13.991 31.5762 13.664 31.5362C13.374 31.4662 13.047 31.3562 12.684 31.2162V28.4962C12.684 27.2962 12.811 26.3461 13.065 25.6561C13.319 24.9761 13.664 24.1361 14.1 23.1561L14.318 22.7762H16.658C16.876 22.2662 17.13 21.8462 17.421 21.5262C17.747 21.1562 18.074 20.7262 18.4 20.2162C18.654 19.8862 18.909 19.596 19.163 19.346C19.453 19.096 19.743 18.7861 20.034 18.4161H22.374C22.81 17.5861 23.137 16.896 23.354 16.356C23.572 15.806 23.681 15.0463 23.681 14.0663H26.131V11.7262H24.552C24.225 11.3962 23.862 11.1462 23.463 10.9662C23.064 10.7462 22.538 10.6361 21.885 10.6361C21.159 10.6361 20.451 10.7261 19.761 10.9061C19.108 11.0561 18.328 11.2663 17.421 11.5663V13.9061L13.065 14.8861V17.2262C11.214 17.6262 9.69 17.8962 8.492 18.0362C7.331 18.1462 5.952 18.0961 4.355 17.8761V14.336ZM39.196 4.2662V1.10605C40.974 0.816046 42.499 0.696163 43.769 0.726163C45.039 0.766163 46.418 0.856183 47.906 0.996183V3.33603C48.777 3.48603 49.449 3.63621 49.921 3.77621C50.392 3.88621 50.901 4.0462 51.445 4.2662C51.481 5.8662 51.499 7.29625 51.499 8.56625C51.536 9.79625 51.554 11.2361 51.554 12.8661C51.155 13.0161 50.81 13.1261 50.519 13.1961C50.229 13.2661 49.921 13.2862 49.594 13.2462C49.304 13.1762 48.941 13.0661 48.505 12.9261C48.36 11.8661 48.233 11.0562 48.124 10.4762C48.051 9.85616 47.979 9.12623 47.906 8.29623V6.22616C46.854 5.39616 45.892 4.79611 45.021 4.42611C44.186 4.02611 43.315 3.82602 42.408 3.82602C41.501 3.82602 40.43 3.9762 39.196 4.2662ZM48.015 35.836C48.451 33.156 48.469 30.8862 48.07 29.0362C47.67 27.1862 47.054 25.0962 46.219 22.7762H43.878C43.66 22.3062 43.442 21.9261 43.225 21.6361C43.007 21.3061 42.771 20.9061 42.517 20.4361C42.335 20.0761 42.136 19.7662 41.918 19.5062C41.7 19.2162 41.501 18.8561 41.319 18.4161H38.924C38.452 17.5161 38.071 16.7661 37.781 16.1861C37.527 15.5761 37.327 14.8663 37.182 14.0663H34.841C34.623 13.0163 34.442 11.9062 34.297 10.7462C34.151 9.58618 34.242 8.40614 34.569 7.20614C34.932 5.97614 35.694 4.71613 36.855 3.44613L39.196 4.2662C38.724 5.3962 38.416 6.46616 38.271 7.47616C38.126 8.45616 38.162 9.47621 38.38 10.5262C38.634 11.5762 39.051 12.7563 39.632 14.0663H41.972C42.263 14.8263 42.626 15.5361 43.061 16.1861C43.497 16.8461 43.932 17.5861 44.368 18.4161H46.709C47.072 19.2161 47.416 19.9062 47.743 20.4862C48.07 21.0662 48.396 21.8362 48.723 22.7762H51.064C51.717 25.0962 52.134 27.206 52.316 29.086C52.497 30.976 52.28 33.226 51.663 35.836H48.015ZM39.196 36.8162C40.394 37.1462 41.464 37.3261 42.408 37.3661C43.388 37.4061 44.313 37.2962 45.184 37.0362C46.055 36.7462 46.999 36.346 48.015 35.836L49.322 38.1861C47.725 39.0861 46.164 39.726 44.64 40.086C43.152 40.416 41.337 40.506 39.196 40.356V36.8162ZM39.196 36.8162L36.855 38.0162C36.093 37.3662 35.458 36.8161 34.95 36.3861C34.478 35.9461 34.242 35.346 34.242 34.586L34.188 31.9261L34.133 28.0562C34.533 27.8762 34.877 27.7461 35.168 27.6761C35.458 27.6061 35.748 27.6061 36.039 27.6761C36.365 27.7161 36.746 27.8061 37.182 27.9461L37.291 28.8163C37.509 30.5963 37.744 32.0461 37.998 33.1761C38.289 34.2961 38.688 35.5162 39.196 36.8162ZM61.19 35.836C62.169 36.166 63.04 36.426 63.803 36.606C64.601 36.786 65.418 36.8362 66.252 36.7662C67.087 36.6562 68.103 36.346 69.301 35.836L70.172 38.1861C69.01 39.1661 67.831 39.8361 66.633 40.1961C65.436 40.5561 64.202 40.5561 62.932 40.1961C61.698 39.8661 60.427 39.1961 59.121 38.1861L61.19 35.836ZM69.301 35.836C69.41 35.256 69.519 34.7362 69.628 34.2662C69.736 33.7862 69.827 33.2661 69.9 32.6861L70.009 32.0262C70.48 31.8862 70.862 31.8163 71.152 31.8163C71.442 31.8163 71.714 31.8662 71.968 31.9762C72.222 32.0462 72.531 32.1362 72.894 32.2462C72.858 32.9362 72.803 33.5362 72.731 34.0462C72.694 34.5162 72.622 35.116 72.513 35.836H69.301ZM61.952 14.0663L60.808 11.7262C62.296 11.3962 63.512 11.176 64.456 11.076C65.436 10.926 66.633 10.856 68.049 10.856C68.557 11.366 68.938 11.8362 69.192 12.2662C69.482 12.7062 69.7 13.3063 69.845 14.0663H72.186C72.404 14.9363 72.531 15.7763 72.567 16.5663C72.64 17.3363 72.676 18.256 72.676 19.346V19.6161C72.277 19.7661 71.932 19.8761 71.642 19.9461C71.388 20.0161 71.097 20.0362 70.771 19.9962C70.48 19.9662 70.118 19.8762 69.682 19.7262C69.646 19.5862 69.609 19.456 69.573 19.346C69.537 19.196 69.519 19.0162 69.519 18.8062C69.301 17.6762 69.083 16.766 68.865 16.076C68.684 15.386 68.43 14.7163 68.103 14.0663H66.252C65.345 13.8863 64.601 13.816 64.02 13.846C63.44 13.886 62.75 13.9563 61.952 14.0663ZM61.952 14.0663C61.407 16.4263 60.954 18.6961 60.591 20.8661C60.264 23.0461 60.137 25.3562 60.21 27.7862C60.318 30.1762 60.645 32.866 61.19 35.836H56.78C56.163 32.576 55.854 29.7661 55.854 27.4061C55.891 25.0461 56.145 22.8463 56.617 20.8163C57.125 18.7463 57.742 16.4963 58.468 14.0663H61.952ZM82.584 14.0663C82.003 16.3863 81.513 18.6561 81.114 20.8661C81.023 21.4161 80.946 21.9662 80.882 22.5362C81.121 22.7062 81.343 22.8562 81.55 22.9962C81.767 23.1062 82.112 23.1561 82.584 23.1561C83.274 23.1961 83.963 23.2162 84.653 23.2162H86.994C87.719 23.2162 88.246 23.176 88.572 23.106C88.899 23.026 89.28 22.9162 89.716 22.7762C89.824 22.3062 89.879 21.8862 89.879 21.5262V19.9461C89.879 18.6361 89.806 17.5461 89.661 16.6761C89.516 15.8061 89.28 14.9363 88.953 14.0663H87.102C86.195 13.8463 85.415 13.7562 84.762 13.7962C84.145 13.8262 83.419 13.9163 82.584 14.0663L81.169 11.7262C82.657 11.3662 83.836 11.1262 84.707 11.0162C85.614 10.9062 86.776 10.856 88.191 10.856C88.627 11.396 89.044 11.886 89.443 12.326C89.843 12.726 90.187 13.3063 90.478 14.0663H92.819C93.29 15.6263 93.617 17.0262 93.798 18.2562C94.016 19.4562 94.107 20.9562 94.071 22.7762C94.071 23.6462 94.034 24.3162 93.962 24.7862C93.889 25.2262 93.744 25.6961 93.526 26.2061C92.583 26.2461 91.675 26.2562 90.804 26.2562C89.933 26.2262 88.79 26.2061 87.375 26.2061H83.891C83.056 26.2061 82.457 26.3162 82.094 26.5362C81.731 26.7462 81.278 27.026 80.733 27.346C80.709 27.006 80.685 26.6961 80.661 26.4061C80.659 26.8661 80.665 27.3262 80.679 27.7862C80.787 30.1762 81.187 32.866 81.876 35.836H77.521C76.868 32.646 76.523 29.8662 76.487 27.5162C76.487 25.1562 76.705 22.9361 77.14 20.8661C77.576 18.7661 78.138 16.4963 78.828 14.0663H82.584ZM81.876 35.836C82.856 36.166 83.763 36.426 84.598 36.606C85.433 36.786 86.304 36.8362 87.211 36.7662C88.119 36.6562 89.153 36.346 90.314 35.836L91.185 38.1861C90.024 39.1661 88.808 39.8361 87.538 40.1961C86.304 40.5261 85.034 40.5061 83.727 40.1461C82.421 39.7761 81.132 39.1261 79.862 38.1861L81.876 35.836ZM90.314 35.836C90.46 35.076 90.605 34.3561 90.75 33.6661C90.931 32.9761 91.058 32.2462 91.131 31.4862C91.566 31.3362 91.929 31.2462 92.22 31.2162C92.51 31.1762 92.782 31.216 93.036 31.326C93.327 31.396 93.671 31.5061 94.071 31.6461C93.998 32.4461 93.907 33.176 93.798 33.826C93.726 34.446 93.635 35.116 93.526 35.836H90.314ZM133.484 35.836C133.666 35.076 133.829 34.3561 133.974 33.6661C134.156 32.9761 134.283 32.2462 134.356 31.4862C134.755 31.3362 135.1 31.2462 135.39 31.2162C135.716 31.1762 136.007 31.216 136.261 31.326C136.551 31.396 136.878 31.5061 137.241 31.6461C137.205 32.4461 137.132 33.176 137.023 33.826C136.914 34.446 136.823 35.116 136.751 35.836H133.484ZM125.046 35.836C126.026 36.166 126.934 36.426 127.768 36.606C128.639 36.786 129.51 36.8362 130.381 36.7662C131.289 36.6562 132.323 36.346 133.484 35.836L134.356 38.1861C133.23 39.1661 132.033 39.8361 130.763 40.1961C129.492 40.5261 128.204 40.5061 126.897 40.1461C125.591 39.7761 124.321 39.1261 123.087 38.1861L125.046 35.836ZM125.809 14.0663C125.192 16.3863 124.702 18.6561 124.339 20.8661C124.248 21.4161 124.17 21.9662 124.107 22.5362C124.345 22.7062 124.567 22.8562 124.774 22.9962C124.992 23.1062 125.319 23.1561 125.754 23.1561C126.48 23.1961 127.188 23.2162 127.877 23.2162H130.218C130.908 23.2162 131.416 23.176 131.742 23.106C132.105 23.026 132.505 22.9162 132.94 22.7762C133.013 22.3062 133.049 21.8862 133.049 21.5262C133.085 21.1562 133.103 20.7262 133.103 20.2162V19.9461C133.103 18.6361 133.031 17.5461 132.886 16.6761C132.74 15.8061 132.505 14.9363 132.178 14.0663H130.327C129.383 13.8463 128.603 13.7562 127.986 13.7962C127.369 13.8262 126.643 13.9163 125.809 14.0663L124.393 11.7262C125.881 11.3662 127.061 11.1262 127.932 11.0162C128.839 10.9062 130 10.856 131.416 10.856C131.815 11.396 132.214 11.886 132.613 12.326C133.049 12.726 133.394 13.3063 133.648 14.0663H135.989C136.497 15.6263 136.842 17.0262 137.023 18.2562C137.241 19.4562 137.332 20.9562 137.295 22.7762C137.295 23.6462 137.259 24.3162 137.186 24.7862C137.114 25.2262 136.95 25.6961 136.696 26.2061C135.789 26.2461 134.882 26.2562 133.974 26.2562C133.103 26.2262 131.978 26.2061 130.599 26.2061H127.115C126.28 26.2061 125.663 26.3162 125.264 26.5362C124.901 26.7462 124.448 27.026 123.903 27.346C123.898 27.276 123.893 27.2061 123.889 27.1361C123.892 27.3461 123.897 27.5662 123.903 27.7862C124.012 30.1762 124.393 32.866 125.046 35.836H120.746C120.056 32.646 119.711 29.8662 119.711 27.5162C119.711 25.1562 119.929 22.9361 120.365 20.8661C120.8 18.7661 121.345 16.4963 121.998 14.0663H125.809ZM102.073 36.2262C102.037 36.8362 102.109 37.2562 102.291 37.4762C102.509 37.6962 102.799 37.896 103.162 38.076C103.198 38.106 103.216 38.1461 103.216 38.1861C103.253 38.1861 103.289 38.1962 103.325 38.2362C103.579 38.4162 103.743 38.5661 103.815 38.6761C103.924 38.7761 103.979 38.9662 103.979 39.2162C103.979 39.4662 103.942 39.6662 103.87 39.8162C103.797 39.9262 103.688 40.0662 103.543 40.2462H96.902C96.72 40.1062 96.575 39.9761 96.466 39.8661C96.393 39.7261 96.357 39.5062 96.357 39.2162C96.357 39.0362 96.412 38.8862 96.52 38.7762C96.629 38.6762 96.811 38.526 97.065 38.346C97.137 38.306 97.21 38.2762 97.283 38.2362C97.355 38.1662 97.428 38.106 97.5 38.076C97.682 37.786 97.791 37.5262 97.827 37.3062C97.9 37.0562 97.936 36.6962 97.936 36.2262V20.4361C97.936 19.1261 98.045 18.0361 98.262 17.1661C98.48 16.2561 98.861 15.2263 99.406 14.0663H101.747C101.892 13.4163 102.128 12.8862 102.454 12.4862C102.781 12.0562 103.089 11.5462 103.38 10.9662C104.759 10.8862 105.884 10.856 106.755 10.856C107.626 10.856 108.769 10.8862 110.185 10.9662C110.511 11.5462 110.783 12.0161 111.001 12.3761C111.255 12.7361 111.546 13.3063 111.872 14.0663H114.213C114.757 15.1863 115.139 16.1662 115.356 17.0062C115.61 17.8362 115.737 18.8961 115.737 20.1661V36.2262C115.737 36.6562 115.774 37.0062 115.846 37.2562C115.919 37.5062 116.046 37.786 116.227 38.076C116.3 38.146 116.372 38.1962 116.445 38.2362C116.554 38.2762 116.645 38.3261 116.717 38.3961C116.971 38.5461 117.171 38.6762 117.316 38.7762C117.461 38.8862 117.534 39.0362 117.534 39.2162C117.534 39.5062 117.498 39.7261 117.425 39.8661C117.352 39.9761 117.207 40.1062 116.989 40.2462H110.511C110.366 40.1062 110.239 39.9562 110.13 39.8162C110.058 39.6662 110.021 39.4662 110.021 39.2162C110.021 38.9662 110.076 38.7761 110.185 38.6761C110.33 38.5261 110.529 38.3661 110.783 38.1861C111.001 37.9661 111.183 37.7462 111.328 37.5262C111.509 37.2762 111.6 36.8362 111.6 36.2262V19.2362C111.6 17.9262 111.437 16.9462 111.11 16.2962C110.82 15.6062 110.439 14.8663 109.967 14.0663H108.824C108.098 13.9963 107.499 13.9561 107.027 13.9561C106.555 13.9161 105.975 13.9563 105.285 14.0663H103.543C103.144 14.7963 102.799 15.4761 102.509 16.1361C102.218 16.7861 102.073 17.7161 102.073 18.9061V36.2262ZM11.65 37.856C11.65 37.166 11.795 36.4261 12.086 35.6261C12.884 35.3361 13.61 35.1861 14.263 35.1861C14.953 35.1861 15.697 35.3162 16.495 35.5662C16.785 36.4062 16.931 37.1462 16.931 37.7962C16.931 38.4562 16.785 39.1762 16.495 39.9762C15.697 40.2662 14.953 40.4161 14.263 40.4161C13.61 40.4461 12.884 40.3262 12.086 40.0362C11.831 39.2362 11.686 38.506 11.65 37.856Z" fill="black"/>
</svg>
