<svg width="138" height="41" viewBox="0 0 138 41" fill="none" xmlns="http://www.w3.org/2000/svg">
<path fill-rule="evenodd" clip-rule="evenodd" d="M4.355 14.336C5.589 14.406 6.678 14.3361 7.621 14.1161C8.601 13.8661 9.908 13.516 11.541 13.086L13.065 12.7061V10.4161C13.719 10.3061 14.372 10.1862 15.025 10.0362C15.715 9.85622 16.513 9.69623 17.421 9.54623V7.20614C19.054 6.98614 20.505 6.89612 21.776 6.93612C23.046 6.93612 24.498 7.29621 26.131 8.02621V10.4762L28.417 10.3062C28.599 10.9662 28.744 11.566 28.853 12.106C28.998 12.646 29.107 13.3063 29.179 14.0663H26.893C26.965 14.8963 26.984 15.6262 26.947 16.2462C26.947 16.8562 26.875 17.5861 26.73 18.4161H24.443C24.262 19.3261 23.935 20.0861 23.463 20.7061C23.028 21.2861 22.52 21.9762 21.939 22.7762H19.653C19.507 22.9562 19.344 23.1062 19.163 23.2162C19.017 23.3162 18.872 23.4661 18.727 23.6461C17.674 24.5861 16.876 25.3561 16.332 25.9361C15.824 26.4761 15.57 27.1662 15.57 28.0062V31.2162C15.207 31.3562 14.862 31.4662 14.535 31.5362C14.245 31.5762 13.955 31.5762 13.664 31.5362C13.374 31.4662 13.029 31.3562 12.63 31.2162V28.4962C12.63 27.2962 12.775 26.3461 13.065 25.6561C13.356 24.9761 13.719 24.1361 14.154 23.1561L14.318 22.7762H16.604C16.858 22.2662 17.13 21.8462 17.421 21.5262C17.747 21.1562 18.092 20.7262 18.455 20.2162C18.673 19.8862 18.927 19.596 19.217 19.346C19.507 19.096 19.798 18.7861 20.088 18.4161H22.374C22.81 17.5861 23.137 16.896 23.354 16.356C23.608 15.806 23.735 15.0463 23.735 14.0663H26.131V11.7762H24.606C24.28 11.4562 23.917 11.1762 23.518 10.9662C23.118 10.7462 22.592 10.6361 21.939 10.6361C21.177 10.6361 20.451 10.7261 19.761 10.9061C19.108 11.0861 18.328 11.3063 17.421 11.5663V13.9061L13.065 14.9361V17.2262C11.214 17.6262 9.69 17.8962 8.492 18.0362C7.331 18.1462 5.952 18.0961 4.355 17.8761V14.336ZM4.355 14.336L2.069 15.5362C1.415 14.8062 0.907 14.0462 0.544 13.2462C0.181 12.4162 0 11.3961 0 10.1961C0.508 9.47613 1.071 8.85604 1.688 8.34604C2.305 7.80604 3.194 7.35617 4.355 6.98617V4.70614L6.642 3.99618C7.113 3.81618 7.476 3.66624 7.73 3.55624C8.021 3.44624 8.347 3.35622 8.71 3.28622V0.996183C9.472 0.896183 10.108 0.876134 10.616 0.946134C11.124 1.01613 11.686 1.18612 12.303 1.43612C12.448 2.16612 12.467 2.75617 12.358 3.23617C12.249 3.70617 12.049 4.28616 11.759 4.97616L8.71 5.35605V7.64608C7.912 7.78608 7.15 7.96612 6.424 8.18612C5.734 8.36612 5.045 8.51607 4.355 8.62607V9.32602C4.065 9.76602 3.793 10.186 3.539 10.586C3.284 10.946 3.157 11.4362 3.157 12.0562C3.157 12.6662 3.284 13.1562 3.539 13.5162C3.793 13.8462 4.065 14.116 4.355 14.336ZM48.015 35.836C48.487 33.156 48.505 30.8862 48.07 29.0362C47.67 27.1862 47.035 25.0962 46.164 22.7762H43.878C43.66 22.3062 43.424 21.9261 43.17 21.6361C42.952 21.3061 42.717 20.9061 42.462 20.4361C42.281 20.0761 42.081 19.7662 41.864 19.5062C41.646 19.2162 41.446 18.8561 41.265 18.4161H38.924C38.452 17.5161 38.071 16.7661 37.781 16.1861C37.49 15.5761 37.273 14.8663 37.127 14.0663H34.841C34.587 13.0163 34.387 11.9062 34.242 10.7462C34.097 9.58618 34.206 8.40614 34.569 7.20614C34.932 5.97614 35.712 4.71613 36.91 3.44613L39.196 4.2662C38.724 5.3962 38.416 6.46616 38.271 7.47616C38.126 8.45616 38.162 9.47621 38.38 10.5262C38.634 11.5762 39.051 12.7563 39.632 14.0663H41.972C42.227 14.8263 42.571 15.5361 43.007 16.1861C43.479 16.8461 43.95 17.5861 44.422 18.4161H46.709C47.072 19.2161 47.416 19.9062 47.743 20.4862C48.07 21.0662 48.396 21.8362 48.723 22.7762H51.009C51.699 25.0962 52.134 27.206 52.316 29.086C52.497 30.976 52.28 33.226 51.663 35.836H48.015ZM39.196 36.8761C40.394 37.1661 41.464 37.3261 42.408 37.3661C43.388 37.4061 44.313 37.2962 45.184 37.0362C46.055 36.7862 46.999 36.386 48.015 35.836L49.376 38.1261C47.743 39.0661 46.164 39.726 44.64 40.086C43.152 40.446 41.337 40.536 39.196 40.356V36.8761ZM39.196 36.8761L36.91 38.0162C36.111 37.4062 35.458 36.8761 34.95 36.4361C34.478 36.0061 34.242 35.4061 34.242 34.6461L34.188 31.9261L34.133 28.0562C34.496 27.9062 34.823 27.8062 35.113 27.7262C35.404 27.6162 35.694 27.6061 35.984 27.6761C36.311 27.7161 36.692 27.8162 37.127 28.0062L37.236 28.8163C37.454 30.5963 37.708 32.0662 37.998 33.2262C38.289 34.3562 38.688 35.5661 39.196 36.8761ZM39.196 4.2662V1.10605C40.974 0.816046 42.499 0.696163 43.769 0.726163C45.076 0.766163 46.455 0.856183 47.906 0.996183V3.28622C48.777 3.43622 49.449 3.57616 49.921 3.72616C50.392 3.86616 50.901 4.0462 51.445 4.2662C51.445 5.8262 51.463 7.2462 51.499 8.5162C51.536 9.7462 51.554 11.1763 51.554 12.8163C51.155 12.9963 50.81 13.1261 50.519 13.1961C50.229 13.2261 49.921 13.2261 49.594 13.1961C49.304 13.1561 48.941 13.0461 48.505 12.8661C48.396 11.8161 48.287 10.9961 48.179 10.4161C48.07 9.8361 47.979 9.12623 47.906 8.29623V6.22616C46.854 5.39616 45.892 4.77607 45.021 4.37607C44.186 3.97607 43.297 3.77621 42.354 3.77621C41.446 3.77621 40.394 3.9362 39.196 4.2662ZM69.246 35.836C69.392 35.256 69.519 34.7362 69.628 34.2662C69.736 33.7862 69.827 33.2661 69.9 32.6861L70.009 32.0262C70.48 31.8862 70.862 31.8163 71.152 31.8163C71.442 31.8163 71.714 31.8662 71.968 31.9762C72.222 32.0462 72.531 32.1562 72.894 32.3062C72.858 32.9962 72.803 33.5762 72.731 34.0462C72.694 34.5162 72.622 35.116 72.513 35.836H69.246ZM61.19 35.836C62.169 36.166 63.04 36.4361 63.803 36.6561C64.565 36.8361 65.363 36.8762 66.198 36.7662C67.069 36.6562 68.085 36.346 69.246 35.836L70.172 38.1261C69.01 39.1461 67.831 39.8361 66.633 40.1961C65.436 40.5561 64.202 40.5561 62.932 40.1961C61.661 39.8661 60.391 39.1761 59.121 38.1261L61.19 35.836ZM61.952 14.0663C61.407 16.3863 60.954 18.6561 60.591 20.8661C60.264 23.0461 60.137 25.3562 60.21 27.7862C60.318 30.1762 60.645 32.866 61.19 35.836H56.78C56.127 32.576 55.818 29.7661 55.854 27.4061C55.891 25.0461 56.163 22.8262 56.671 20.7662C57.179 18.6962 57.778 16.4563 58.468 14.0663H61.952ZM61.952 14.0663L60.808 11.7762C62.296 11.4162 63.512 11.176 64.456 11.076C65.436 10.926 66.615 10.856 67.994 10.856C68.539 11.366 68.938 11.8362 69.192 12.2662C69.482 12.7062 69.7 13.3063 69.845 14.0663H72.132C72.35 14.9363 72.477 15.7763 72.513 16.5663C72.585 17.3363 72.622 18.256 72.622 19.346V19.6761C72.259 19.7861 71.932 19.8862 71.642 19.9962C71.388 20.0762 71.097 20.0862 70.771 20.0562C70.48 19.9762 70.118 19.8762 69.682 19.7262C69.646 19.5862 69.609 19.456 69.573 19.346C69.537 19.196 69.519 19.036 69.519 18.856C69.301 17.726 69.083 16.8261 68.865 16.1361C68.648 15.4061 68.375 14.7163 68.049 14.0663H66.252C65.345 13.8863 64.601 13.816 64.02 13.846C63.44 13.886 62.75 13.9563 61.952 14.0663ZM82.584 14.0663C81.967 16.3563 81.477 18.6063 81.114 20.8163C81.02 21.3963 80.94 21.9763 80.875 22.5663C81.096 22.7263 81.303 22.8662 81.495 22.9962C81.713 23.1062 82.058 23.1762 82.53 23.2162H86.994C87.683 23.2162 88.191 23.176 88.518 23.106C88.881 23.026 89.28 22.9162 89.716 22.7762C89.788 22.3062 89.824 21.8862 89.824 21.5262C89.861 21.1562 89.879 20.7462 89.879 20.2762V19.9461C89.879 18.6361 89.788 17.5461 89.607 16.6761C89.462 15.8061 89.226 14.9363 88.899 14.0663H87.102C86.195 13.8463 85.415 13.7562 84.762 13.7962C84.145 13.8262 83.419 13.9163 82.584 14.0663L81.114 11.7762C82.602 11.3762 83.782 11.146 84.653 11.076C85.56 10.966 86.721 10.9061 88.137 10.9061C88.572 11.4161 88.99 11.886 89.389 12.326C89.824 12.726 90.169 13.3063 90.423 14.0663H92.71C93.218 15.6263 93.563 17.0262 93.744 18.2562C93.962 19.4562 94.071 20.9562 94.071 22.7762C94.071 23.6462 94.016 24.3162 93.907 24.7862C93.835 25.2262 93.69 25.6961 93.472 26.2061C92.565 26.2461 91.657 26.2562 90.75 26.2562C89.879 26.2262 88.736 26.2061 87.32 26.2061H83.836C83.001 26.2061 82.403 26.3162 82.04 26.5362C81.677 26.7462 81.223 27.026 80.679 27.346C80.674 27.276 80.669 27.2161 80.665 27.1561C80.668 27.3661 80.672 27.5762 80.679 27.7862C80.787 30.2162 81.187 32.906 81.876 35.836H77.521C76.832 32.646 76.469 29.8662 76.432 27.5162C76.432 25.1162 76.65 22.8863 77.086 20.8163C77.558 18.7063 78.138 16.4563 78.828 14.0663H82.584ZM90.26 35.836C90.441 35.116 90.605 34.4062 90.75 33.7162C90.931 32.9962 91.058 32.2462 91.131 31.4862C91.53 31.3362 91.875 31.2462 92.165 31.2162C92.492 31.1762 92.782 31.216 93.036 31.326C93.327 31.396 93.653 31.5061 94.016 31.6461C93.98 32.4461 93.907 33.176 93.798 33.826C93.69 34.446 93.581 35.116 93.472 35.836H90.26ZM81.876 35.836C82.82 36.166 83.709 36.4361 84.544 36.6561C85.379 36.8361 86.25 36.8762 87.157 36.7662C88.064 36.6562 89.099 36.346 90.26 35.836L91.185 38.1261C90.024 39.1461 88.808 39.8361 87.538 40.1961C86.268 40.5261 84.979 40.5061 83.673 40.1461C82.366 39.7761 81.078 39.1061 79.808 38.1261L81.876 35.836ZM133.484 35.836C133.63 35.116 133.775 34.4062 133.92 33.7162C134.101 32.9962 134.228 32.2462 134.301 31.4862C134.737 31.3362 135.1 31.2462 135.39 31.2162C135.68 31.1762 135.952 31.216 136.206 31.326C136.497 31.396 136.823 31.5061 137.186 31.6461C137.15 32.4461 137.077 33.176 136.969 33.826C136.86 34.446 136.769 35.116 136.696 35.836H133.484ZM125.046 35.836C125.99 36.166 126.879 36.4361 127.714 36.6561C128.585 36.8361 129.474 36.8762 130.381 36.7662C131.289 36.6562 132.323 36.346 133.484 35.836L134.356 38.1261C133.23 39.1461 132.033 39.8361 130.763 40.1961C129.492 40.5261 128.186 40.5061 126.843 40.1461C125.536 39.7761 124.266 39.1061 123.032 38.1261L125.046 35.836ZM125.809 14.0663C125.192 16.3563 124.684 18.6063 124.284 20.8163C124.191 21.3763 124.113 21.9562 124.049 22.5362C124.289 22.7062 124.513 22.8562 124.72 22.9962C124.938 23.1062 125.264 23.1762 125.7 23.2162H130.164C130.853 23.2162 131.361 23.176 131.688 23.106C132.051 23.026 132.45 22.9162 132.886 22.7762C132.958 22.3062 132.995 21.8862 132.995 21.5262C133.031 21.1562 133.049 20.7462 133.049 20.2762V19.9461C133.049 18.6361 132.976 17.5461 132.831 16.6761C132.686 15.8061 132.45 14.9363 132.124 14.0663H130.273C129.365 13.8463 128.585 13.7562 127.932 13.7962C127.315 13.8262 126.607 13.9163 125.809 14.0663L124.339 11.7762C125.827 11.3762 127.006 11.146 127.877 11.076C128.785 10.966 129.928 10.9061 131.307 10.9061C131.742 11.4161 132.16 11.886 132.559 12.326C132.995 12.726 133.357 13.3063 133.648 14.0663H135.934C136.442 15.6263 136.787 17.0262 136.969 18.2562C137.186 19.4562 137.277 20.9562 137.241 22.7762C137.241 23.6462 137.204 24.3162 137.132 24.7862C137.059 25.2262 136.896 25.6961 136.642 26.2061C135.735 26.2461 134.827 26.2562 133.92 26.2562C133.049 26.2262 131.906 26.2061 130.49 26.2061H127.006C126.172 26.2061 125.573 26.3162 125.21 26.5362C124.847 26.7462 124.393 27.026 123.849 27.346C123.844 27.276 123.839 27.2061 123.835 27.1361C123.838 27.3561 123.842 27.5662 123.849 27.7862C123.958 30.2162 124.357 32.906 125.046 35.836H120.691C120.038 32.646 119.693 29.8662 119.657 27.5162C119.657 25.1162 119.875 22.8863 120.31 20.8163C120.782 18.7063 121.345 16.4563 121.998 14.0663H125.809ZM102.019 36.2262C101.982 36.8762 102.055 37.3062 102.236 37.5262C102.454 37.7062 102.745 37.9061 103.108 38.1261L103.162 38.1861C103.198 38.1861 103.235 38.1962 103.271 38.2362C103.525 38.4162 103.706 38.5661 103.815 38.6761C103.924 38.7761 103.979 38.9762 103.979 39.2662C103.979 39.5262 103.924 39.7062 103.815 39.8162C103.743 39.9262 103.634 40.0662 103.489 40.2462H96.793C96.611 40.1062 96.484 39.9761 96.412 39.8661C96.339 39.7261 96.303 39.5062 96.303 39.2162C96.303 39.0362 96.357 38.8862 96.466 38.7762C96.575 38.6762 96.756 38.5461 97.01 38.3961C97.047 38.3261 97.101 38.2762 97.174 38.2362C97.283 38.1662 97.373 38.106 97.446 38.076C97.627 37.786 97.736 37.5262 97.772 37.3062C97.845 37.0562 97.881 36.6962 97.881 36.2262V20.4361C97.881 19.1261 97.99 18.0361 98.208 17.1661C98.462 16.2561 98.843 15.2263 99.351 14.0663H101.692C101.837 13.4163 102.073 12.8862 102.4 12.4862C102.726 12.0562 103.053 11.5462 103.38 10.9662C104.723 10.8862 105.829 10.856 106.7 10.856C107.608 10.856 108.751 10.9062 110.13 11.0162C110.457 11.5962 110.747 12.0661 111.001 12.4361C111.255 12.7961 111.527 13.3363 111.818 14.0663H114.104C114.649 15.1863 115.048 16.1662 115.302 17.0062C115.556 17.8362 115.683 18.8961 115.683 20.1661L115.737 36.2262C115.737 36.6562 115.756 37.0062 115.792 37.2562C115.864 37.5062 116.01 37.786 116.227 38.076C116.3 38.146 116.372 38.1962 116.445 38.2362C116.554 38.2762 116.645 38.3261 116.717 38.3961C116.971 38.5461 117.171 38.6762 117.316 38.7762C117.461 38.8862 117.534 39.0562 117.534 39.2662C117.534 39.5562 117.498 39.7561 117.425 39.8661C117.352 39.9761 117.207 40.1062 116.989 40.2462H110.457C110.275 40.1062 110.148 39.9761 110.076 39.8661C110.003 39.7261 109.967 39.5262 109.967 39.2662C109.967 38.9762 110.021 38.7761 110.13 38.6761C110.275 38.5261 110.475 38.3661 110.729 38.1861C110.947 37.9661 111.128 37.7462 111.273 37.5262C111.455 37.3062 111.546 36.8762 111.546 36.2262V19.2362C111.546 17.9262 111.382 16.9462 111.056 16.2962C110.765 15.6062 110.384 14.8663 109.912 14.0663H108.769C108.043 13.9963 107.444 13.9561 106.973 13.9561C106.501 13.9161 105.92 13.9563 105.231 14.0663H103.543C103.108 14.7963 102.745 15.4761 102.454 16.1361C102.164 16.7861 102.019 17.7161 102.019 18.9061V36.2262ZM11.65 37.856C11.65 37.166 11.795 36.4261 12.086 35.6261C12.884 35.3361 13.61 35.1861 14.263 35.1861C14.953 35.1861 15.697 35.3162 16.495 35.5662C16.785 36.4062 16.931 37.1462 16.931 37.7962C16.931 38.4562 16.785 39.1762 16.495 39.9762C15.697 40.2662 14.953 40.4161 14.263 40.4161C13.61 40.4461 12.884 40.3262 12.086 40.0362C11.795 39.2362 11.65 38.506 11.65 37.856Z" fill="black"/>
</svg>
