<svg width="138" height="41" viewBox="0 0 138 41" fill="none" xmlns="http://www.w3.org/2000/svg">
<path fill-rule="evenodd" clip-rule="evenodd" d="M4.355 14.336L2.069 15.586C1.415 14.866 0.907 14.0862 0.544 13.2462C0.181 12.4162 0 11.3961 0 10.1961C0.472 9.43613 1.016 8.80623 1.633 8.29623C2.286 7.78623 3.194 7.33612 4.355 6.93612V4.64609L6.642 3.93612C7.113 3.79612 7.476 3.66624 7.73 3.55624C8.021 3.41624 8.347 3.32622 8.71 3.28622V0.996183C9.472 0.896183 10.108 0.876134 10.616 0.946134C11.124 1.01613 11.686 1.18612 12.303 1.43612C12.412 2.16612 12.412 2.75617 12.303 3.23617C12.231 3.70617 12.031 4.28616 11.704 4.97616L8.71 5.35605V7.58603C7.912 7.73603 7.15 7.91608 6.424 8.13608C5.734 8.34608 5.045 8.51607 4.355 8.62607V9.32602C4.028 9.72602 3.738 10.1262 3.484 10.5262C3.266 10.8862 3.157 11.3762 3.157 11.9962C3.157 12.6462 3.266 13.1562 3.484 13.5162C3.738 13.8462 4.028 14.116 4.355 14.336ZM4.355 14.336C5.553 14.406 6.642 14.3361 7.621 14.1161C8.601 13.8661 9.908 13.516 11.541 13.086L13.065 12.7061V10.4161C13.719 10.3461 14.372 10.2162 15.025 10.0362C15.715 9.85622 16.513 9.69623 17.421 9.54623V7.25619C19.054 7.04619 20.505 6.95617 21.776 6.98617C23.082 6.98617 24.534 7.35602 26.131 8.07602V10.4762L28.417 10.3062C28.562 10.9662 28.708 11.566 28.853 12.106C28.998 12.646 29.089 13.3063 29.125 14.0663H26.893C26.965 14.8963 26.984 15.6262 26.947 16.2462C26.947 16.8562 26.875 17.5861 26.73 18.4161H24.498C24.316 19.3261 23.99 20.0861 23.518 20.7061C23.082 21.2861 22.556 21.9762 21.939 22.7762H19.707C19.562 22.9562 19.398 23.1062 19.217 23.2162C19.072 23.3162 18.909 23.4661 18.727 23.6461C17.674 24.5861 16.876 25.3561 16.332 25.9361C15.787 26.5161 15.515 27.2262 15.515 28.0562V31.2162C15.152 31.3562 14.826 31.4662 14.535 31.5362C14.245 31.5762 13.955 31.5762 13.664 31.5362C13.374 31.4662 13.029 31.3562 12.63 31.2162V28.4962C12.63 27.2962 12.775 26.3461 13.065 25.6561C13.356 24.9761 13.719 24.1361 14.154 23.1561L14.372 22.7762H16.604C16.822 22.2662 17.094 21.8462 17.421 21.5262C17.747 21.1562 18.092 20.7262 18.455 20.2162C18.709 19.8862 18.981 19.596 19.271 19.346C19.562 19.096 19.852 18.7861 20.142 18.4161H22.429C22.864 17.5861 23.191 16.896 23.409 16.356C23.663 15.806 23.79 15.0463 23.79 14.0663H26.131V11.7762H24.606C24.316 11.4562 23.953 11.1762 23.518 10.9662C23.118 10.7462 22.592 10.6361 21.939 10.6361C21.213 10.6361 20.505 10.7261 19.816 10.9061C19.126 11.0861 18.328 11.3261 17.421 11.6161V13.9061L13.065 14.9361V17.1661C11.214 17.5661 9.69 17.8362 8.492 17.9862C7.331 18.1262 5.952 18.076 4.355 17.826V14.336ZM39.196 36.8761L36.91 38.076C36.111 37.456 35.458 36.9262 34.95 36.4962C34.478 36.0562 34.242 35.4561 34.242 34.6961L34.188 31.9762L34.133 28.0562C34.496 27.9062 34.823 27.8062 35.113 27.7262C35.404 27.6562 35.694 27.6562 35.984 27.7262C36.311 27.7662 36.674 27.8562 37.073 28.0062L37.182 28.8163C37.4 30.5963 37.654 32.0662 37.944 33.2262C38.271 34.3562 38.688 35.5661 39.196 36.8761ZM39.196 4.21615V1.10605C40.974 0.816046 42.499 0.696163 43.769 0.726163C45.076 0.766163 46.455 0.856183 47.906 0.996183V3.28622C48.777 3.39622 49.449 3.5261 49.921 3.6661C50.392 3.8161 50.901 3.99615 51.445 4.21615C51.445 5.80615 51.463 7.2462 51.499 8.5162C51.536 9.7462 51.554 11.1763 51.554 12.8163C51.155 12.9563 50.81 13.0661 50.519 13.1361C50.229 13.2161 49.921 13.2261 49.594 13.1961C49.304 13.1261 48.959 13.0161 48.56 12.8661C48.414 11.8161 48.287 10.9961 48.179 10.4161C48.07 9.7961 47.979 9.09623 47.906 8.29623V6.27621C46.89 5.40621 45.947 4.77607 45.076 4.37607C44.205 3.97607 43.297 3.77621 42.354 3.77621C41.446 3.77621 40.394 3.92615 39.196 4.21615ZM48.015 35.836C48.487 33.156 48.505 30.8862 48.07 29.0362C47.634 27.1462 46.981 25.0662 46.11 22.7762H43.878C43.66 22.3062 43.424 21.9261 43.17 21.6361C42.952 21.3061 42.717 20.9061 42.462 20.4361C42.281 20.0761 42.063 19.7662 41.809 19.5062C41.591 19.2162 41.392 18.8561 41.21 18.4161H38.924C38.452 17.5161 38.053 16.7661 37.726 16.1861C37.436 15.5761 37.218 14.8663 37.073 14.0663H34.841C34.587 13.0463 34.387 11.9562 34.242 10.7962C34.097 9.60623 34.206 8.38609 34.569 7.15609C34.932 5.91609 35.712 4.66609 36.91 3.39609L39.196 4.21615C38.724 5.33615 38.398 6.40611 38.216 7.42611C38.071 8.43611 38.107 9.47621 38.325 10.5262C38.579 11.5762 39.033 12.7563 39.686 14.0663H41.918C42.208 14.8263 42.571 15.5361 43.007 16.1861C43.479 16.8461 43.95 17.5861 44.422 18.4161H46.654C47.017 19.2161 47.362 19.9062 47.689 20.4862C48.051 21.0662 48.396 21.8362 48.723 22.7762H51.009C51.699 25.0962 52.134 27.2261 52.316 29.1461C52.497 31.0361 52.28 33.266 51.663 35.836H48.015ZM39.196 36.8761C40.394 37.2061 41.464 37.3861 42.408 37.4161C43.388 37.4561 44.313 37.346 45.184 37.096C46.055 36.806 46.999 36.386 48.015 35.836L49.376 38.1261C47.779 39.0361 46.219 39.686 44.694 40.086C43.17 40.446 41.337 40.536 39.196 40.356V36.8761ZM69.246 35.836C69.392 35.256 69.519 34.7362 69.628 34.2662C69.736 33.7862 69.827 33.2661 69.9 32.6861L70.009 32.0262C70.48 31.8862 70.862 31.8163 71.152 31.8163C71.442 31.8163 71.714 31.8662 71.968 31.9762C72.222 32.0462 72.513 32.1562 72.839 32.3062C72.803 32.9962 72.749 33.5762 72.676 34.0462C72.64 34.5162 72.567 35.116 72.458 35.836H69.246ZM61.19 35.836C62.133 36.166 62.986 36.4361 63.748 36.6561C64.546 36.8361 65.363 36.8762 66.198 36.7662C67.069 36.6562 68.085 36.346 69.246 35.836L70.226 38.1261C69.065 39.1061 67.867 39.7961 66.633 40.1961C65.399 40.5961 64.147 40.5961 62.877 40.1961C61.607 39.8361 60.337 39.1461 59.066 38.1261L61.19 35.836ZM62.006 14.0663C61.425 16.3563 60.954 18.6063 60.591 20.8163C60.264 23.0263 60.137 25.3562 60.21 27.7862C60.282 30.2162 60.609 32.906 61.19 35.836H56.78C56.127 32.606 55.818 29.7961 55.854 27.4061C55.891 25.0061 56.163 22.7761 56.671 20.7061C57.179 18.6361 57.796 16.4263 58.522 14.0663H62.006ZM62.006 14.0663L60.808 11.7762C62.296 11.4562 63.512 11.2361 64.456 11.1261C65.399 10.9761 66.561 10.9061 67.94 10.9061C68.484 11.4161 68.902 11.886 69.192 12.326C69.482 12.726 69.7 13.3063 69.845 14.0663H72.077C72.331 14.9363 72.477 15.7763 72.513 16.5663C72.585 17.3363 72.622 18.2761 72.622 19.3961V19.6761C72.222 19.8161 71.878 19.9262 71.587 19.9962C71.333 20.0762 71.061 20.0862 70.771 20.0562C70.48 20.0162 70.118 19.9262 69.682 19.7862C69.646 19.6362 69.609 19.5061 69.573 19.3961C69.537 19.2561 69.519 19.076 69.519 18.856C69.301 17.726 69.083 16.8261 68.865 16.1361C68.648 15.4061 68.375 14.7163 68.049 14.0663H66.252C65.345 13.8863 64.601 13.816 64.02 13.846C63.44 13.886 62.768 13.9563 62.006 14.0663ZM90.26 35.836C90.441 35.116 90.605 34.4062 90.75 33.7162C90.931 32.9962 91.058 32.2462 91.131 31.4862C91.53 31.3362 91.875 31.2462 92.165 31.2162C92.456 31.1762 92.728 31.216 92.982 31.326C93.272 31.396 93.599 31.5061 93.962 31.6461C93.926 32.4461 93.853 33.176 93.744 33.826C93.635 34.446 93.526 35.116 93.417 35.836H90.26ZM81.822 35.836C82.766 36.166 83.655 36.4361 84.489 36.6561C85.36 36.8361 86.25 36.8762 87.157 36.7662C88.064 36.6562 89.099 36.346 90.26 35.836L91.185 38.1261C90.024 39.1461 88.808 39.8361 87.538 40.1961C86.268 40.5561 84.961 40.5361 83.618 40.1461C82.275 39.7461 80.987 39.0661 79.753 38.1261L81.822 35.836ZM82.584 14.0663C81.967 16.3163 81.459 18.5663 81.06 20.8163C80.965 21.3963 80.885 21.9763 80.82 22.5663C81.041 22.7263 81.248 22.8662 81.441 22.9962C81.659 23.1062 82.003 23.1762 82.475 23.2162C83.165 23.2162 83.854 23.2262 84.544 23.2662H86.939C87.629 23.2662 88.137 23.2261 88.463 23.1561C88.826 23.0461 89.226 22.9162 89.661 22.7762C89.734 22.3062 89.77 21.8862 89.77 21.5262C89.806 21.1562 89.824 20.7462 89.824 20.2762V19.9461C89.824 18.6361 89.752 17.5461 89.607 16.6761C89.462 15.8061 89.207 14.9363 88.845 14.0663H87.102C86.159 13.8463 85.36 13.7562 84.707 13.7962C84.09 13.8262 83.382 13.9163 82.584 14.0663L81.114 11.7762C82.566 11.4162 83.727 11.176 84.598 11.076C85.506 10.966 86.649 10.9061 88.028 10.9061C88.463 11.4161 88.899 11.886 89.334 12.326C89.77 12.726 90.133 13.3063 90.423 14.0663H92.655C93.163 15.6263 93.526 17.0262 93.744 18.2562C93.962 19.4562 94.053 20.9562 94.016 22.7762C94.016 23.6462 93.962 24.3162 93.853 24.7862C93.78 25.2262 93.635 25.6961 93.417 26.2061H83.782C82.911 26.2061 82.294 26.3162 81.931 26.5362C81.604 26.7462 81.169 27.026 80.624 27.346C80.619 27.276 80.614 27.2061 80.61 27.1361C80.613 27.3461 80.618 27.5662 80.624 27.7862C80.733 30.2162 81.132 32.906 81.822 35.836H77.521C76.795 32.646 76.414 29.8662 76.378 27.5162C76.378 25.1162 76.614 22.8662 77.086 20.7662C77.558 18.6562 78.138 16.4263 78.828 14.0663H82.584ZM125.754 14.0663C125.137 16.3163 124.629 18.5663 124.23 20.8163C124.137 21.3863 124.058 21.9562 123.994 22.5362C124.199 22.7062 124.405 22.8562 124.611 22.9962C124.865 23.1062 125.21 23.1762 125.645 23.2162C126.335 23.2162 127.024 23.2262 127.714 23.2662H130.109C130.835 23.2662 131.361 23.2261 131.688 23.1561C132.015 23.0461 132.396 22.9162 132.831 22.7762C132.904 22.3062 132.94 21.8862 132.94 21.5262C132.976 21.1562 132.995 20.7462 132.995 20.2762V19.9461C132.995 18.6361 132.922 17.5461 132.777 16.6761C132.632 15.8061 132.396 14.9363 132.069 14.0663H130.273C129.365 13.8463 128.585 13.7562 127.932 13.7962C127.315 13.8262 126.589 13.9163 125.754 14.0663L124.284 11.7762C125.736 11.4162 126.916 11.176 127.823 11.076C128.73 10.966 129.873 10.9061 131.252 10.9061C131.688 11.4161 132.105 11.886 132.505 12.326C132.94 12.726 133.303 13.3063 133.593 14.0663H135.88C136.352 15.6263 136.696 17.0262 136.914 18.2562C137.132 19.4562 137.223 20.9562 137.186 22.7762C137.186 23.6462 137.15 24.3162 137.077 24.7862C137.005 25.2262 136.842 25.6961 136.588 26.2061H126.952C126.117 26.2061 125.518 26.3162 125.155 26.5362C124.792 26.7462 124.339 27.026 123.794 27.346C123.789 27.276 123.784 27.2061 123.78 27.1361C123.783 27.3561 123.788 27.5662 123.794 27.7862C123.903 30.2162 124.302 32.906 124.992 35.836H120.691C120.002 32.646 119.639 29.8662 119.603 27.5162C119.603 25.1162 119.82 22.8662 120.256 20.7662C120.728 18.6562 121.308 16.4263 121.998 14.0663H125.754ZM133.43 35.836C133.612 35.116 133.775 34.4062 133.92 33.7162C134.101 32.9962 134.228 32.2462 134.301 31.4862C134.7 31.3362 135.045 31.2462 135.335 31.2162C135.662 31.1762 135.952 31.216 136.206 31.326C136.497 31.396 136.823 31.5061 137.186 31.6461C137.114 32.4461 137.023 33.176 136.914 33.826C136.805 34.446 136.696 35.116 136.588 35.836H133.43ZM124.992 35.836C125.936 36.166 126.825 36.4361 127.66 36.6561C128.531 36.8361 129.42 36.8762 130.327 36.7662C131.234 36.6562 132.269 36.346 133.43 35.836L134.356 38.1261C133.23 39.1461 132.015 39.8361 130.708 40.1961C129.438 40.5561 128.131 40.5361 126.788 40.1461C125.482 39.7461 124.194 39.0661 122.923 38.1261L124.992 35.836ZM101.964 36.2262C101.928 36.8762 102.001 37.3062 102.182 37.5262C102.4 37.7062 102.708 37.9061 103.108 38.1261C103.144 38.1661 103.162 38.1962 103.162 38.2362H103.271C103.525 38.4162 103.688 38.5661 103.761 38.6761C103.87 38.7761 103.924 38.9762 103.924 39.2662C103.924 39.5262 103.888 39.7062 103.815 39.8162C103.743 39.9262 103.634 40.0662 103.489 40.2462H96.738C96.557 40.1062 96.412 39.9761 96.303 39.8661C96.23 39.7261 96.194 39.5062 96.194 39.2162C96.194 39.0362 96.248 38.8862 96.357 38.7762C96.466 38.6762 96.647 38.5461 96.902 38.3961C96.974 38.3261 97.047 38.2762 97.119 38.2362C97.228 38.1962 97.319 38.146 97.391 38.076C97.573 37.816 97.682 37.5662 97.718 37.3062C97.791 37.0562 97.827 36.6962 97.827 36.2262V20.4361C97.827 19.1261 97.936 18.0361 98.154 17.1661C98.408 16.2561 98.807 15.2263 99.351 14.0663H101.638C101.783 13.4163 102.019 12.8862 102.345 12.4862C102.672 12.0862 102.999 11.5962 103.325 11.0162C104.668 10.9462 105.775 10.9061 106.646 10.9061C107.553 10.9061 108.678 10.9462 110.021 11.0162C110.384 11.5962 110.693 12.0661 110.947 12.4361C111.201 12.7961 111.491 13.3363 111.818 14.0663H114.05C114.594 15.1863 114.993 16.1662 115.247 17.0062C115.501 17.8362 115.628 18.8961 115.628 20.1661L115.683 36.2262C115.683 36.6962 115.701 37.0562 115.737 37.3062C115.81 37.5662 115.955 37.816 116.173 38.076C116.245 38.146 116.318 38.1962 116.391 38.2362C116.5 38.2762 116.608 38.3261 116.717 38.3961C116.971 38.5461 117.171 38.6762 117.316 38.7762C117.461 38.8862 117.534 39.0562 117.534 39.2662C117.534 39.5562 117.498 39.7561 117.425 39.8661C117.352 39.9761 117.207 40.1062 116.989 40.2462H110.402C110.221 40.1062 110.094 39.9761 110.021 39.8661C109.949 39.7261 109.912 39.5262 109.912 39.2662C109.912 39.0162 109.967 38.8362 110.076 38.7262C110.221 38.5762 110.42 38.4162 110.675 38.2362C110.929 37.9862 111.128 37.7462 111.273 37.5262C111.455 37.3062 111.527 36.8762 111.491 36.2262V19.2362C111.491 17.9262 111.328 16.9362 111.001 16.2462C110.711 15.5562 110.312 14.8263 109.804 14.0663H108.715C107.989 13.9963 107.39 13.9561 106.918 13.9561C106.446 13.9161 105.866 13.9563 105.176 14.0663H103.489C103.089 14.7963 102.726 15.4761 102.4 16.1361C102.109 16.7861 101.964 17.7161 101.964 18.9061V36.2262ZM11.596 37.856C11.596 37.166 11.741 36.4261 12.031 35.6261C12.83 35.3361 13.573 35.1861 14.263 35.1861C14.953 35.1561 15.678 35.2762 16.441 35.5662C16.731 36.3662 16.876 37.1162 16.876 37.7962C16.912 38.4562 16.785 39.1762 16.495 39.9762C15.66 40.2662 14.898 40.4161 14.209 40.4161C13.555 40.4461 12.848 40.3262 12.086 40.0362C11.795 39.2362 11.632 38.506 11.596 37.856Z" fill="black"/>
</svg>
