<svg width="138" height="41" viewBox="0 0 138 41" fill="none" xmlns="http://www.w3.org/2000/svg">
<path fill-rule="evenodd" clip-rule="evenodd" d="M4.355 14.336L2.123 15.586C1.47 14.866 0.944 14.0862 0.544 13.2462C0.181 12.4162 0 11.3961 0 10.1961C0.472 9.43613 1.016 8.80623 1.633 8.29623C2.286 7.74623 3.194 7.27607 4.355 6.87607V4.64609L6.642 3.88608C7.113 3.73608 7.476 3.61619 7.73 3.50619C8.021 3.35619 8.347 3.26617 8.71 3.23617V0.996183C9.472 0.896183 10.108 0.876134 10.616 0.946134C11.124 1.01613 11.686 1.18612 12.303 1.43612C12.412 2.16612 12.412 2.75617 12.303 3.23617C12.194 3.70617 11.977 4.28616 11.65 4.97616L8.71 5.35605V7.53622C7.912 7.67622 7.15 7.85602 6.424 8.07602C5.734 8.29602 5.045 8.45625 4.355 8.56625V9.27621C4.028 9.70621 3.738 10.1262 3.484 10.5262C3.23 10.8862 3.103 11.3762 3.103 11.9962C3.103 12.6462 3.23 13.1562 3.484 13.5162C3.738 13.8462 4.028 14.116 4.355 14.336ZM4.355 14.336C5.553 14.406 6.642 14.3361 7.621 14.1161C8.601 13.8661 9.908 13.5062 11.541 13.0262L13.065 12.6461V10.4161C13.719 10.3461 14.372 10.2162 15.025 10.0362C15.715 9.85622 16.513 9.69623 17.421 9.54623V7.31625C19.054 7.05625 20.505 6.95617 21.776 6.98617C23.082 6.98617 24.534 7.36608 26.131 8.13608V10.4762L28.363 10.3062C28.508 10.9662 28.653 11.566 28.798 12.106C28.943 12.646 29.052 13.3063 29.125 14.0663H26.893C27.002 14.8963 27.038 15.6262 27.002 16.2462C27.002 16.8562 26.911 17.5861 26.73 18.4161H24.552C24.371 19.3261 24.044 20.0861 23.572 20.7061C23.1 21.2861 22.556 21.9762 21.939 22.7762H19.761C19.58 22.9562 19.398 23.1062 19.217 23.2162C19.072 23.3162 18.927 23.4661 18.782 23.6461C17.693 24.5861 16.876 25.3561 16.332 25.9361C15.787 26.5161 15.515 27.2262 15.515 28.0562V31.2162C15.116 31.3562 14.771 31.4662 14.481 31.5362C14.19 31.5762 13.9 31.5762 13.61 31.5362C13.319 31.4662 12.993 31.3562 12.63 31.2162V28.4962C12.63 27.2962 12.775 26.3461 13.065 25.6561C13.356 24.9761 13.737 24.1361 14.209 23.1561L14.372 22.7762H16.604C16.822 22.2662 17.094 21.8462 17.421 21.5262C17.747 21.1562 18.11 20.7262 18.509 20.2162C18.763 19.8862 19.036 19.596 19.326 19.346C19.616 19.096 19.907 18.7861 20.197 18.4161H22.429C22.864 17.5861 23.209 16.896 23.463 16.356C23.717 15.806 23.844 15.0463 23.844 14.0663H26.131V11.836H24.661C24.334 11.506 23.971 11.2362 23.572 11.0162C23.173 10.7962 22.647 10.6861 21.993 10.6861C21.231 10.6861 20.505 10.7762 19.816 10.9662C19.126 11.1462 18.328 11.3761 17.421 11.6661V13.9061L13.065 14.9361V17.1661C11.214 17.5661 9.69 17.8362 8.492 17.9862C7.331 18.1262 5.952 18.076 4.355 17.826V14.336ZM39.196 36.9261L36.964 38.1261C36.166 37.5061 35.512 36.9862 35.004 36.5462C34.496 36.1162 34.242 35.5162 34.242 34.7562L34.188 32.0262L34.079 28.106C34.442 27.926 34.768 27.8062 35.059 27.7262C35.349 27.6562 35.639 27.6562 35.93 27.7262C36.256 27.7662 36.619 27.8562 37.019 28.0062L37.127 28.8761C37.382 30.6561 37.654 32.1162 37.944 33.2862C38.234 34.4062 38.652 35.6261 39.196 36.9261ZM39.196 4.21615V1.10605C40.974 0.816046 42.499 0.696163 43.769 0.726163C45.076 0.766163 46.455 0.856183 47.906 0.996183V3.23617C48.777 3.37617 49.449 3.5261 49.921 3.6661C50.392 3.8161 50.882 3.99615 51.39 4.21615C51.427 5.77615 51.445 7.18614 51.445 8.45614C51.481 9.72614 51.499 11.1662 51.499 12.7562C51.136 12.9362 50.81 13.0661 50.519 13.1361C50.229 13.2161 49.921 13.2261 49.594 13.1961C49.304 13.1261 48.959 12.9963 48.56 12.8163C48.414 11.7563 48.287 10.9461 48.179 10.3661C48.07 9.74606 47.979 9.03617 47.906 8.23617V6.27621C46.89 5.40621 45.947 4.77607 45.076 4.37607C44.205 3.93607 43.297 3.72616 42.354 3.72616C41.446 3.72616 40.394 3.88615 39.196 4.21615ZM48.015 35.836C48.487 33.156 48.505 30.8862 48.07 29.0362C47.634 27.1462 46.981 25.0662 46.11 22.7762H43.878C43.66 22.3062 43.424 21.9261 43.17 21.6361C42.952 21.3061 42.698 20.9061 42.408 20.4361C42.227 20.0761 42.027 19.7662 41.809 19.5062C41.591 19.2162 41.374 18.8561 41.156 18.4161H38.924C38.416 17.5161 38.017 16.7661 37.726 16.1861C37.436 15.5761 37.2 14.8663 37.019 14.0663H34.841C34.587 13.0463 34.387 11.9462 34.242 10.7462C34.097 9.54618 34.206 8.33604 34.569 7.09604C34.932 5.86604 35.73 4.61603 36.964 3.33603L39.196 4.21615C38.688 5.33615 38.361 6.40611 38.216 7.42611C38.071 8.40611 38.107 9.43621 38.325 10.5262C38.579 11.5762 39.033 12.7563 39.686 14.0663H41.918C42.172 14.8263 42.535 15.5361 43.007 16.1861C43.479 16.8461 43.95 17.5861 44.422 18.4161H46.654C47.017 19.2161 47.362 19.9062 47.689 20.4862C48.051 21.0662 48.414 21.8362 48.777 22.7762H50.955C51.681 25.0662 52.134 27.166 52.316 29.086C52.497 31.016 52.28 33.266 51.663 35.836H48.015ZM39.196 36.9261C40.394 37.2161 41.464 37.3861 42.408 37.4161C43.388 37.4561 44.313 37.346 45.184 37.096C46.092 36.806 47.035 36.386 48.015 35.836L49.431 38.076C47.834 39.016 46.255 39.686 44.694 40.086C43.17 40.446 41.337 40.536 39.196 40.356V36.9261ZM62.006 14.0663C61.425 16.3163 60.954 18.5462 60.591 20.7662C60.228 22.9762 60.083 25.3162 60.155 27.7862C60.264 30.2162 60.609 32.906 61.19 35.836H56.78C56.127 32.606 55.8 29.7961 55.8 27.4061C55.836 25.0061 56.109 22.7761 56.617 20.7061C57.161 18.6361 57.814 16.4263 58.576 14.0663H62.006ZM62.006 14.0663L60.808 11.836C62.26 11.466 63.458 11.2361 64.401 11.1261C65.381 10.9761 66.561 10.9061 67.94 10.9061C68.484 11.4161 68.902 11.886 69.192 12.326C69.482 12.726 69.7 13.3063 69.845 14.0663H72.077C72.295 14.9363 72.422 15.7763 72.458 16.5663C72.531 17.3663 72.567 18.3161 72.567 19.3961V19.7262C72.204 19.8362 71.878 19.9462 71.587 20.0562C71.333 20.1262 71.061 20.146 70.771 20.106C70.48 20.036 70.118 19.9262 69.682 19.7862C69.646 19.6762 69.609 19.5461 69.573 19.3961C69.537 19.2561 69.519 19.0961 69.519 18.9061C69.301 17.7461 69.065 16.8261 68.811 16.1361C68.593 15.4061 68.321 14.7163 67.994 14.0663H66.252C65.345 13.8863 64.601 13.816 64.02 13.846C63.44 13.886 62.768 13.9563 62.006 14.0663ZM69.246 35.836C69.392 35.256 69.519 34.7362 69.628 34.2662C69.736 33.7862 69.827 33.2661 69.9 32.6861L70.009 32.0262C70.48 31.8862 70.862 31.8163 71.152 31.8163C71.442 31.8163 71.714 31.8662 71.968 31.9762C72.222 32.0462 72.513 32.1562 72.839 32.3062C72.803 32.9962 72.749 33.5762 72.676 34.0462C72.604 34.5162 72.531 35.116 72.458 35.836H69.246ZM61.19 35.836C62.133 36.166 62.986 36.4361 63.748 36.6561C64.546 36.8761 65.363 36.9262 66.198 36.8162C67.069 36.7162 68.085 36.386 69.246 35.836L70.226 38.076C69.065 39.086 67.867 39.7961 66.633 40.1961C65.399 40.5961 64.129 40.5961 62.823 40.1961C61.552 39.8361 60.282 39.126 59.012 38.076L61.19 35.836ZM90.206 35.836C90.387 35.116 90.568 34.4062 90.75 33.7162C90.931 32.9962 91.058 32.2462 91.131 31.4862C91.53 31.3362 91.875 31.2462 92.165 31.2162C92.456 31.1762 92.728 31.216 92.982 31.326C93.272 31.396 93.599 31.5061 93.962 31.6461C93.889 32.4461 93.798 33.176 93.69 33.826C93.581 34.446 93.472 35.116 93.363 35.836H90.206ZM81.822 35.836C82.766 36.166 83.655 36.4361 84.489 36.6561C85.324 36.8761 86.195 36.9262 87.102 36.8162C88.046 36.7162 89.08 36.386 90.206 35.836L91.185 38.076C90.024 39.126 88.79 39.8361 87.484 40.1961C86.213 40.5561 84.907 40.5361 83.564 40.1461C82.221 39.7461 80.933 39.056 79.699 38.076L81.822 35.836ZM82.584 14.0663C81.931 16.3163 81.405 18.5462 81.005 20.7662C80.91 21.3462 80.83 21.9362 80.765 22.5362C80.972 22.7062 81.179 22.8562 81.386 22.9962C81.604 23.1062 81.949 23.1762 82.421 23.2162C83.11 23.2162 83.8 23.2262 84.489 23.2662H86.885C87.611 23.2662 88.137 23.2261 88.463 23.1561C88.826 23.0461 89.207 22.9162 89.607 22.7762C89.716 22.3062 89.77 21.8862 89.77 21.5262C89.806 21.1562 89.824 20.7462 89.824 20.2762V19.9461C89.824 18.6361 89.734 17.5461 89.552 16.6761C89.407 15.8061 89.153 14.9363 88.79 14.0663H87.048C86.141 13.8463 85.36 13.7562 84.707 13.7962C84.09 13.8262 83.382 13.9163 82.584 14.0663L81.06 11.836C82.511 11.436 83.673 11.1961 84.544 11.1261C85.451 11.0161 86.594 10.9662 87.974 10.9662C88.409 11.4362 88.845 11.886 89.28 12.326C89.752 12.726 90.115 13.3063 90.369 14.0663H92.601C93.109 15.6263 93.472 17.0262 93.69 18.2562C93.907 19.4562 93.998 20.9562 93.962 22.7762C93.962 23.6462 93.926 24.3162 93.853 24.7862C93.78 25.2262 93.617 25.6761 93.363 26.1461C92.456 26.1861 91.548 26.2061 90.641 26.2061C89.734 26.1661 88.59 26.1461 87.211 26.1461H83.673C82.838 26.1461 82.239 26.2762 81.876 26.5362C81.513 26.7462 81.078 27.026 80.57 27.346C80.565 27.276 80.56 27.2061 80.556 27.1361C80.559 27.3561 80.563 27.5662 80.57 27.7862C80.679 30.2562 81.096 32.936 81.822 35.836H77.467C76.777 32.646 76.414 29.8561 76.378 27.4561C76.378 25.0661 76.614 22.8262 77.086 20.7662C77.558 18.6562 78.138 16.4263 78.828 14.0663H82.584ZM133.43 35.836C133.575 35.116 133.739 34.4062 133.92 33.7162C134.101 32.9962 134.228 32.2462 134.301 31.4862C134.7 31.3362 135.045 31.2462 135.335 31.2162C135.626 31.1762 135.898 31.216 136.152 31.326C136.442 31.396 136.769 31.5061 137.132 31.6461C137.059 32.4461 136.969 33.176 136.86 33.826C136.751 34.446 136.642 35.116 136.533 35.836H133.43ZM124.992 35.836C125.936 36.166 126.825 36.4361 127.66 36.6561C128.531 36.8761 129.42 36.9262 130.327 36.8162C131.234 36.7162 132.269 36.386 133.43 35.836L134.356 38.076C133.23 39.126 132.015 39.8361 130.708 40.1961C129.402 40.5561 128.077 40.5361 126.734 40.1461C125.391 39.7461 124.103 39.056 122.869 38.076L124.992 35.836ZM125.754 14.0663C125.137 16.3163 124.629 18.5462 124.23 20.7662C124.124 21.3562 124.035 21.9462 123.962 22.5562C124.16 22.7162 124.359 22.8562 124.556 22.9962C124.774 23.1062 125.119 23.1762 125.591 23.2162C126.28 23.2162 126.97 23.2262 127.66 23.2662H130.055C130.781 23.2662 131.307 23.2261 131.634 23.1561C131.997 23.0461 132.378 22.9162 132.777 22.7762C132.886 22.3062 132.94 21.8862 132.94 21.5262C132.976 21.1562 132.995 20.7462 132.995 20.2762V19.9461C132.995 18.6361 132.904 17.5461 132.722 16.6761C132.577 15.8061 132.341 14.9363 132.015 14.0663H130.218C129.311 13.8463 128.531 13.7562 127.877 13.7962C127.26 13.8262 126.553 13.9163 125.754 14.0663L124.23 11.836C125.682 11.436 126.861 11.1961 127.768 11.1261C128.676 11.0161 129.801 10.9662 131.144 10.9662C131.615 11.4362 132.069 11.886 132.505 12.326C132.94 12.726 133.285 13.3063 133.539 14.0663H135.771C136.279 15.6263 136.642 17.0262 136.86 18.2562C137.077 19.4562 137.168 20.9562 137.132 22.7762C137.132 23.6462 137.096 24.3162 137.023 24.7862C136.95 25.2262 136.787 25.6761 136.533 26.1461C135.626 26.1861 134.718 26.2061 133.811 26.2061C132.94 26.1661 131.797 26.1461 130.381 26.1461H126.843C126.008 26.1461 125.409 26.2762 125.046 26.5362C124.72 26.7462 124.284 27.026 123.74 27.346C123.735 27.276 123.731 27.2061 123.726 27.1461C123.729 27.3561 123.734 27.5662 123.74 27.7862C123.849 30.2562 124.266 32.936 124.992 35.836H120.637C119.947 32.646 119.584 29.8561 119.548 27.4561C119.548 25.0661 119.784 22.8262 120.256 20.7662C120.728 18.6562 121.308 16.4263 121.998 14.0663H125.754ZM101.91 36.2262C101.874 36.8762 101.964 37.3062 102.182 37.5262C102.4 37.7462 102.69 37.9461 103.053 38.1261C103.089 38.1661 103.108 38.1962 103.108 38.2362H103.216C103.507 38.4162 103.688 38.5661 103.761 38.6761C103.87 38.7761 103.924 38.9762 103.924 39.2662C103.924 39.5262 103.888 39.7062 103.815 39.8162C103.743 39.9262 103.616 40.0662 103.434 40.2462H96.684C96.466 40.1062 96.321 39.9761 96.248 39.8661C96.176 39.7261 96.139 39.5062 96.139 39.2162C96.139 39.0362 96.194 38.8862 96.303 38.7762C96.412 38.6762 96.593 38.5461 96.847 38.3961C96.92 38.3261 96.992 38.2762 97.065 38.2362C97.174 38.1962 97.246 38.146 97.283 38.076C97.5 37.816 97.627 37.5662 97.664 37.3062C97.736 37.0562 97.772 36.6962 97.772 36.2262V20.4361C97.772 19.1261 97.9 18.0361 98.154 17.1661C98.408 16.2561 98.807 15.2263 99.351 14.0663H101.583C101.728 13.4163 101.964 12.8862 102.291 12.4862C102.654 12.0862 102.999 11.5962 103.325 11.0162C104.668 10.9462 105.775 10.9061 106.646 10.9061C107.517 10.9061 108.624 10.966 109.967 11.076C110.33 11.616 110.638 12.0661 110.892 12.4361C111.146 12.7961 111.437 13.3363 111.763 14.0663H113.995C114.54 15.1863 114.939 16.1662 115.193 17.0062C115.483 17.8362 115.628 18.8961 115.628 20.1661V36.2262C115.628 36.6962 115.665 37.0562 115.737 37.3062C115.81 37.5662 115.937 37.816 116.118 38.076C116.227 38.146 116.318 38.1962 116.391 38.2362C116.5 38.2762 116.59 38.3261 116.663 38.3961C116.953 38.5461 117.171 38.6762 117.316 38.7762C117.461 38.8862 117.534 39.0562 117.534 39.2662C117.534 39.5562 117.498 39.7561 117.425 39.8661C117.352 39.9761 117.207 40.1062 116.989 40.2462H110.293C110.148 40.1062 110.039 39.9761 109.967 39.8661C109.894 39.7261 109.858 39.5262 109.858 39.2662C109.858 39.0162 109.912 38.8362 110.021 38.7262C110.166 38.5762 110.366 38.4162 110.62 38.2362C110.874 38.0162 111.074 37.796 111.219 37.586C111.4 37.326 111.491 36.8762 111.491 36.2262V19.2362C111.491 17.9262 111.328 16.9362 111.001 16.2462C110.675 15.5562 110.257 14.8263 109.749 14.0663H108.66C107.934 13.9963 107.336 13.9561 106.864 13.9561C106.392 13.9161 105.811 13.9563 105.122 14.0663H103.489C103.053 14.7963 102.672 15.4761 102.345 16.1361C102.055 16.7861 101.91 17.7161 101.91 18.9061V36.2262ZM11.596 37.856C11.596 37.166 11.741 36.4261 12.031 35.6261C12.83 35.3361 13.555 35.1861 14.209 35.1861C14.898 35.1561 15.642 35.2762 16.441 35.5662C16.731 36.3662 16.876 37.1162 16.876 37.7962C16.912 38.4562 16.767 39.1762 16.441 39.9762C15.642 40.2662 14.898 40.4161 14.209 40.4161C13.555 40.4461 12.83 40.3262 12.031 40.0362C11.741 39.2362 11.596 38.506 11.596 37.856Z" fill="black"/>
</svg>
