<svg width="140" height="41" viewBox="0 0 140 41" fill="none" xmlns="http://www.w3.org/2000/svg">
<path fill-rule="evenodd" clip-rule="evenodd" d="M4.355 14.1202L0.218 14.2291C0.145 13.3211 0.091 12.6141 0.054 12.1051C0.018 11.5611 0 10.7811 0 9.76514C0.907 9.69214 1.597 9.63814 2.069 9.60114C2.577 9.52914 3.339 9.47415 4.355 9.43815V5.30114L6.642 5.19215H7.676C7.894 5.15515 8.238 5.13714 8.71 5.13714V1.00014H10.833C11.342 1.00014 12.067 1.01815 13.011 1.05415C13.011 1.96215 12.993 2.66915 12.957 3.17715C12.957 3.64915 12.938 4.35714 12.902 5.30114L8.71 5.35514V9.49213C7.767 9.49213 7.041 9.51116 6.533 9.54716C6.025 9.58316 5.299 9.60114 4.355 9.60114V10.9081C4.319 11.2711 4.283 11.5432 4.246 11.7242V13.4121C4.283 13.5571 4.319 13.7932 4.355 14.1202ZM4.355 14.1202C5.916 14.1202 7.095 14.1021 7.894 14.0651C8.692 14.0291 9.908 13.9932 11.541 13.9562L13.065 13.9021V9.76514H15.189C15.697 9.72814 16.441 9.71015 17.421 9.71015V5.57314C19.308 5.53614 20.741 5.51815 21.721 5.51815C22.737 5.51815 24.207 5.55514 26.131 5.62714V9.76514H30.268V11.8881C30.304 12.3961 30.323 13.1221 30.323 14.0651H26.185C26.222 15.0091 26.24 15.7351 26.24 16.2431C26.24 16.7151 26.222 17.4401 26.185 18.4201H22.048C22.048 19.3641 22.012 20.0902 21.939 20.5982C21.903 21.1062 21.848 21.8321 21.776 22.7761H17.638C17.638 22.9571 17.62 23.0841 17.584 23.1571V23.5382L17.257 25.3341C17.221 25.7331 17.203 26.3321 17.203 27.1311V31.4311C16.513 31.4681 15.987 31.4862 15.624 31.4862H14.59C14.227 31.4862 13.701 31.4681 13.011 31.4311V28.2192C13.011 27.0942 13.029 26.2602 13.065 25.7152C13.102 25.1352 13.138 24.3002 13.174 23.2112V22.7761H17.312C17.348 22.1591 17.384 21.7051 17.421 21.4151C17.457 21.1241 17.493 20.6711 17.529 20.0541C17.566 19.6911 17.584 19.4181 17.584 19.2371C17.62 19.0561 17.656 18.7831 17.693 18.4201H21.83C21.866 17.4771 21.903 16.7692 21.939 16.2972C21.975 15.7892 21.993 15.0451 21.993 14.0651H26.131V9.92814H23.463C22.919 9.89214 22.502 9.87315 22.211 9.87315C21.921 9.83715 21.467 9.81913 20.85 9.81913C20.124 9.81913 19.562 9.83715 19.163 9.87315C18.763 9.87315 18.183 9.89214 17.421 9.92814V14.0651L13.065 14.1741V18.3121C11.142 18.3481 9.69 18.3841 8.71 18.4201C7.73 18.4201 6.279 18.4022 4.355 18.3662V14.1202ZM47.906 35.8411L48.07 39.9782C46.182 40.0872 44.731 40.1601 43.715 40.1961C42.698 40.2321 41.192 40.2321 39.196 40.1961V35.9501C40.612 35.9861 41.7 36.0042 42.462 36.0042H44.694C45.457 35.9682 46.527 35.9131 47.906 35.8411ZM39.196 35.9501L35.059 36.0592C34.986 35.1512 34.914 34.4622 34.841 33.9902C34.805 33.5182 34.786 32.7921 34.786 31.8121V27.2402C35.476 27.2032 35.984 27.1852 36.311 27.1852H37.4C37.763 27.1852 38.289 27.2032 38.978 27.2402V28.0561C39.015 29.7981 39.033 31.1232 39.033 32.0302L39.196 35.9501ZM39.196 5.24615V1.00014C41.12 0.964145 42.571 0.964145 43.551 1.00014H47.906V5.13714C48.85 5.13714 49.558 5.15515 50.03 5.19215C50.538 5.19215 51.245 5.21015 52.153 5.24615V9.60114C52.189 10.5811 52.207 12.0332 52.207 13.9562H47.961C47.961 12.9042 47.943 12.1051 47.906 11.5611V5.46415C46.491 5.35515 45.402 5.28215 44.64 5.24615C43.914 5.21015 43.17 5.19215 42.408 5.19215C41.682 5.19215 40.612 5.21015 39.196 5.24615ZM38.978 14.0651H34.841C34.805 12.6501 34.768 11.5611 34.732 10.7991C34.732 10.0371 34.75 9.27515 34.786 8.51215C34.859 7.71415 34.95 6.58914 35.059 5.13714L39.196 5.24615C39.16 6.66215 39.124 7.75015 39.087 8.51215V10.7441C39.124 11.5071 39.178 12.6141 39.251 14.0651H43.388C43.424 14.9731 43.461 15.6801 43.497 16.1881L43.66 18.4201H47.798C47.834 19.3641 47.87 20.0902 47.906 20.5982C47.943 21.0702 47.979 21.7961 48.015 22.7761H52.153C52.225 25.5701 52.262 27.7111 52.262 29.1991C52.298 30.6871 52.28 32.9011 52.207 35.8411H47.906C47.979 33.0101 47.979 30.8511 47.906 29.3631L47.743 22.7761H43.606C43.569 22.2671 43.533 21.8861 43.497 21.6321C43.497 21.3781 43.479 20.9792 43.442 20.4352C43.406 19.9992 43.37 19.6721 43.334 19.4551C43.334 19.2371 43.315 18.8921 43.279 18.4201H39.142C39.105 17.4771 39.069 16.7511 39.033 16.2431C38.997 15.7351 38.978 15.0091 38.978 14.0651ZM61.081 14.0651L60.972 9.92814C62.859 9.89214 64.274 9.87315 65.218 9.87315C66.198 9.83715 67.631 9.81913 69.519 9.81913C69.555 10.7631 69.591 11.4881 69.628 11.9971C69.664 12.4681 69.682 13.1581 69.682 14.0651H73.819C73.856 14.9731 73.874 15.6801 73.874 16.1881V18.5292C73.184 18.5662 72.658 18.5841 72.295 18.5841H69.682V17.8222C69.646 16.9512 69.609 16.3151 69.573 15.9161C69.573 15.4811 69.555 14.8641 69.519 14.0651H66.252C65.091 14.0291 64.22 14.0291 63.639 14.0651H61.081ZM61.081 14.0651C61.008 17.5491 60.954 20.2172 60.917 22.0682C60.881 23.9192 60.863 25.7881 60.863 27.6751C60.899 29.5621 60.935 32.2841 60.972 35.8411H56.617C56.544 32.2481 56.508 29.5261 56.508 27.6751L56.617 22.0682C56.689 20.2172 56.762 17.5491 56.834 14.0651H61.081ZM60.972 35.8411C62.387 35.8771 63.458 35.9131 64.184 35.9501H66.361C67.123 35.9501 68.212 35.9131 69.628 35.8411L69.736 39.9782C68.321 40.0872 67.214 40.1601 66.416 40.1961C65.653 40.2321 64.873 40.2321 64.075 40.1961C63.313 40.1601 62.206 40.0872 60.754 39.9782L60.972 35.8411ZM69.628 35.8411C69.664 35.0791 69.682 34.4982 69.682 34.0992V32.3572L69.736 31.5401H72.35C72.712 31.5401 73.239 31.5581 73.928 31.5951C73.928 32.5381 73.91 33.2641 73.874 33.7721V35.8411H69.628ZM91.349 35.8411V33.6632C91.385 33.1192 91.403 32.3932 91.403 31.4862H92.982C93.345 31.4492 93.708 31.4492 94.071 31.4862H95.595V33.7181C95.595 34.2261 95.577 34.9341 95.54 35.8411H91.349ZM82.638 35.8411C84.054 35.8771 85.125 35.9131 85.85 35.9501H88.082C88.845 35.9501 89.933 35.9131 91.349 35.8411L91.403 39.9782C89.988 40.0872 88.881 40.1601 88.082 40.1961C87.32 40.2321 86.54 40.2321 85.742 40.1961C84.979 40.1601 83.872 40.0872 82.421 39.9782L82.638 35.8411ZM82.747 14.0651C82.675 17.5491 82.62 20.2172 82.584 22.0682C82.58 22.2862 82.576 22.5052 82.572 22.7242C83.023 22.7592 83.372 22.7951 83.618 22.8301H89.988C90.278 22.7941 90.714 22.7761 91.294 22.7761V19.5642C91.294 18.3302 91.276 17.4041 91.24 16.7871C91.24 16.1341 91.222 15.2271 91.185 14.0651H87.919C86.758 14.0291 85.887 14.0291 85.306 14.0651H82.747L82.584 9.92814C84.471 9.89214 85.887 9.87315 86.83 9.87315C87.81 9.83715 89.226 9.81913 91.077 9.81913C91.149 10.7631 91.204 11.4881 91.24 11.9971C91.276 12.4681 91.312 13.1581 91.349 14.0651H95.486C95.522 15.9891 95.559 17.4401 95.595 18.4201C95.631 19.4001 95.649 20.8521 95.649 22.7761C95.649 23.7551 95.631 24.4811 95.595 24.9531C95.595 25.4251 95.577 26.1141 95.54 27.0221H87.048C86.032 27.0221 85.27 27.0401 84.762 27.0761C84.254 27.0761 83.51 27.0941 82.53 27.1311C82.53 27.3121 82.53 27.4941 82.53 27.6751C82.53 29.5621 82.566 32.2841 82.638 35.8411H78.283C78.211 32.2481 78.174 29.5261 78.174 27.6751C78.174 25.7881 78.193 23.9192 78.229 22.0682C78.302 20.2172 78.374 17.5491 78.447 14.0651H82.747ZM134.845 35.8411V33.6632C134.882 33.1192 134.918 32.3932 134.954 31.4862H136.479C136.842 31.4492 137.205 31.4492 137.567 31.4862H139.146C139.146 32.4662 139.128 33.2101 139.092 33.7181V35.8411H134.845ZM126.244 14.0651C126.172 17.5491 126.117 20.2172 126.081 22.0682C126.077 22.2862 126.073 22.5052 126.069 22.7242C126.555 22.7592 126.923 22.7951 127.17 22.8301H133.484C133.775 22.7941 134.21 22.7761 134.791 22.7761V19.5642C134.791 18.3302 134.773 17.4041 134.737 16.7871C134.737 16.1341 134.718 15.2271 134.682 14.0651H131.416C130.254 14.0291 129.383 14.0291 128.803 14.0651H126.244L126.081 9.92814C128.004 9.89214 129.438 9.87315 130.381 9.87315C131.325 9.83715 132.74 9.81913 134.628 9.81913C134.664 10.7631 134.7 11.4881 134.737 11.9971C134.773 12.4681 134.809 13.1581 134.845 14.0651H138.983C139.055 15.9891 139.092 17.4401 139.092 18.4201C139.128 19.4001 139.146 20.8521 139.146 22.7761C139.146 23.7551 139.128 24.4811 139.092 24.9531V27.0221H130.545C129.529 27.0221 128.766 27.0401 128.258 27.0761C127.75 27.0761 127.006 27.0941 126.026 27.1311C126.026 27.3121 126.026 27.4941 126.026 27.6751C126.063 29.5621 126.117 32.2841 126.19 35.8411H121.835L121.671 27.6751C121.671 25.7881 121.689 23.9192 121.726 22.0682C121.798 20.2172 121.871 17.5491 121.943 14.0651H126.244ZM126.19 35.8411C127.569 35.8771 128.621 35.9131 129.347 35.9501H131.579C132.341 35.9501 133.43 35.9131 134.845 35.8411L134.954 39.9782C133.539 40.0872 132.432 40.1601 131.634 40.1961C130.835 40.2321 130.037 40.2321 129.238 40.1961C128.476 40.1601 127.387 40.0872 125.972 39.9782L126.19 35.8411ZM104.251 18.9101V36.7662C104.287 36.9122 104.323 37.1472 104.36 37.4742V37.5831L104.414 37.6372V38.2911C104.45 38.4001 104.468 38.5991 104.468 38.8891C104.468 39.1801 104.45 39.3981 104.414 39.5431V40.1961H99.787C99.787 39.9421 99.769 39.7421 99.732 39.5971V38.4541C99.769 38.3451 99.805 38.2001 99.841 38.0181V37.8551C99.841 37.7831 99.859 37.7102 99.896 37.6372V36.7662C99.932 36.5852 99.95 36.2951 99.95 35.8951L99.896 19.9992C99.896 18.6932 99.914 17.7132 99.95 17.0592C99.986 16.3702 100.023 15.3721 100.059 14.0651H104.196C104.233 13.1581 104.269 12.4681 104.305 11.9971C104.341 11.4881 104.378 10.7631 104.414 9.81913H108.606C109.586 9.81913 111.019 9.83715 112.907 9.87315C112.943 10.7441 112.961 11.4341 112.961 11.9421C112.997 12.4141 113.034 13.1221 113.07 14.0651H117.207C117.28 15.3361 117.316 16.3151 117.316 17.0051C117.352 17.6581 117.371 18.6381 117.371 19.9451V36.7662C117.407 36.9482 117.425 37.2382 117.425 37.6372C117.461 37.7462 117.479 37.8191 117.479 37.8551V38.0732C117.516 38.2542 117.534 38.4002 117.534 38.5082C117.57 38.6172 117.588 38.7621 117.588 38.9441C117.588 39.2341 117.57 39.4521 117.534 39.5971V40.1961H112.961C112.925 39.9421 112.907 39.7421 112.907 39.5971V38.2911C112.907 38.1451 112.925 37.9282 112.961 37.6372C112.997 37.2742 113.015 37.0021 113.015 36.8211C113.052 36.6031 113.07 36.2951 113.07 35.8951V19.5091C113.07 18.3121 113.052 17.4041 113.015 16.7871C112.979 16.1701 112.925 15.2631 112.852 14.0651H104.414C104.378 15.0811 104.341 15.8802 104.305 16.4612C104.269 17.0052 104.251 17.8221 104.251 18.9101ZM12.902 37.9641C12.902 37.4561 12.92 36.7481 12.957 35.8411C13.936 35.8051 14.68 35.7861 15.189 35.7861H17.312C17.348 36.7661 17.366 37.5101 17.366 38.0181C17.366 38.5271 17.348 39.2521 17.312 40.1961H15.134C14.626 40.2321 13.9 40.2321 12.957 40.1961C12.92 39.2161 12.902 38.4721 12.902 37.9641Z" fill="black"/>
</svg>
