<svg width="138" height="41" viewBox="0 0 138 41" fill="none" xmlns="http://www.w3.org/2000/svg">
<path fill-rule="evenodd" clip-rule="evenodd" d="M4.355 14.396L2.178 15.646C1.488 14.916 0.944 14.1362 0.544 13.3062C0.181 12.4662 0 11.4562 0 10.2562C0.472 9.45616 1.016 8.78614 1.633 8.23614C2.25 7.69614 3.157 7.22598 4.355 6.82598V4.64605L6.642 3.88604C7.077 3.70604 7.44 3.5561 7.73 3.4461C8.057 3.3061 8.384 3.21608 8.71 3.17608V0.996146C9.436 0.856146 10.053 0.836097 10.561 0.946097C11.069 1.0161 11.632 1.18609 12.249 1.43609C12.394 2.19609 12.412 2.81618 12.303 3.28618C12.194 3.75618 11.977 4.30607 11.65 4.91607L8.71 5.29619V7.47613C7.912 7.62613 7.15 7.82598 6.424 8.07598C5.698 8.29598 5.008 8.45621 4.355 8.56621V9.21612C4.028 9.65612 3.738 10.0761 3.484 10.4761C3.23 10.8361 3.103 11.3461 3.103 11.9961C3.103 12.6461 3.23 13.1562 3.484 13.5162C3.738 13.8862 4.028 14.176 4.355 14.396ZM4.355 14.396C5.553 14.426 6.642 14.3162 7.621 14.0662C8.601 13.8162 9.908 13.4662 11.541 13.0262L13.065 12.596L13.12 17.116C11.269 17.546 9.726 17.8361 8.492 17.9861C7.295 18.0961 5.916 18.036 4.355 17.826V14.396ZM19.816 22.7762C19.634 22.9562 19.453 23.1162 19.271 23.2662C19.126 23.3762 18.963 23.5161 18.782 23.6961C17.693 24.6461 16.858 25.4061 16.277 25.9861C15.733 26.5661 15.461 27.276 15.461 28.106V31.2161C15.098 31.3561 14.771 31.4662 14.481 31.5362C14.19 31.5762 13.9 31.5561 13.61 31.4861C13.319 31.4161 12.993 31.3061 12.63 31.1561V28.5462C12.63 27.3462 12.775 26.4061 13.065 25.7161C13.356 24.9861 13.737 24.1361 14.209 23.1561L14.426 22.7762H16.549C16.804 22.2662 17.094 21.8462 17.421 21.5262C17.783 21.1562 18.146 20.7261 18.509 20.2161C18.763 19.8861 19.036 19.616 19.326 19.396C19.653 19.146 19.961 18.8161 20.251 18.4161H22.429C22.901 17.6261 23.264 16.9461 23.518 16.4061C23.772 15.8261 23.899 15.0462 23.899 14.0662H26.131V11.886H24.661C24.371 11.566 24.008 11.286 23.572 11.076C23.173 10.816 22.647 10.6861 21.993 10.6861C21.267 10.6861 20.56 10.7962 19.87 11.0162C19.181 11.1962 18.364 11.4361 17.421 11.7261V13.846L13.12 14.9861L13.065 10.4761C13.682 10.3661 14.336 10.2162 15.025 10.0362C15.715 9.85619 16.513 9.67615 17.421 9.49615V7.36602C19.054 7.11602 20.505 7.00619 21.776 7.04619C23.082 7.04619 24.534 7.42609 26.131 8.18609V10.5262L28.308 10.366C28.453 11.016 28.599 11.6161 28.744 12.1561C28.889 12.7061 28.998 13.3362 29.07 14.0662H26.947C27.02 14.8662 27.038 15.5861 27.002 16.2461C27.002 16.8961 26.929 17.6261 26.784 18.4161H24.606C24.425 19.2961 24.098 20.0361 23.627 20.6561C23.155 21.2661 22.61 21.9762 21.993 22.7762H19.816ZM39.196 4.15606V1.16607C40.938 0.836068 42.462 0.696126 43.769 0.726126C45.112 0.766126 46.491 0.856146 47.906 0.996146V3.17608C48.741 3.32608 49.394 3.46602 49.866 3.61602C50.374 3.75602 50.882 3.93606 51.39 4.15606C51.39 5.71606 51.409 7.13606 51.445 8.40606C51.481 9.67606 51.499 11.1262 51.499 12.7562C51.136 12.9062 50.81 13.016 50.519 13.086C50.229 13.156 49.921 13.176 49.594 13.136C49.304 13.066 48.959 12.9562 48.56 12.8162C48.414 11.7562 48.287 10.946 48.179 10.366C48.106 9.74602 48.015 9.03614 47.906 8.23614V6.33599C46.89 5.39599 45.947 4.71621 45.076 4.31621C44.205 3.88621 43.297 3.66607 42.354 3.66607C41.446 3.66607 40.394 3.82606 39.196 4.15606ZM48.015 35.836C48.523 33.156 48.542 30.8661 48.07 28.9861C47.634 27.0961 46.963 25.0262 46.055 22.7762H43.878C43.66 22.3362 43.424 21.956 43.17 21.636C42.916 21.306 42.662 20.9061 42.408 20.4361C42.19 20.0761 41.972 19.7461 41.755 19.4561C41.537 19.1661 41.319 18.8161 41.102 18.4161H38.924C38.416 17.5161 37.998 16.7661 37.672 16.1861C37.382 15.5761 37.146 14.8662 36.964 14.0662H34.786C34.569 13.0462 34.369 11.9461 34.188 10.7461C34.042 9.54615 34.151 8.336 34.514 7.096C34.914 5.826 35.748 4.55618 37.019 3.28618L39.196 4.15606C38.688 5.28606 38.343 6.35602 38.162 7.36602C38.017 8.38602 38.071 9.43618 38.325 10.5262C38.579 11.6162 39.033 12.7962 39.686 14.0662H41.864C42.154 14.7962 42.535 15.4961 43.007 16.1861C43.515 16.8461 44.005 17.5861 44.477 18.4161H46.6C46.999 19.2161 47.38 19.9262 47.743 20.5462C48.106 21.1262 48.451 21.8662 48.777 22.7762H50.955C51.645 25.0662 52.098 27.166 52.316 29.086C52.534 31.016 52.298 33.266 51.608 35.836H48.015ZM39.196 36.9261C40.358 37.2561 41.428 37.4361 42.408 37.4761C43.388 37.5061 44.313 37.406 45.184 37.146C46.092 36.856 47.035 36.426 48.015 35.836L49.485 38.0162C47.888 38.9962 46.31 39.686 44.749 40.086C43.188 40.446 41.337 40.536 39.196 40.356V36.9261ZM39.196 36.9261L37.019 38.1861C36.184 37.5661 35.494 37.0561 34.95 36.6561C34.442 36.2261 34.188 35.626 34.188 34.856L34.133 32.086L34.079 28.106C34.442 27.966 34.75 27.8562 35.004 27.7862C35.295 27.6762 35.585 27.6561 35.875 27.7261C36.202 27.7661 36.565 27.8762 36.964 28.0562L37.073 28.876C37.327 30.656 37.599 32.1162 37.89 33.2862C38.216 34.4462 38.652 35.6561 39.196 36.9261ZM61.244 35.836C62.151 36.206 62.986 36.4961 63.748 36.7161C64.546 36.8961 65.381 36.9262 66.252 36.8162C67.123 36.7162 68.121 36.386 69.246 35.836L70.226 38.0162C69.101 39.0662 67.904 39.7961 66.633 40.1961C65.399 40.5961 64.129 40.5961 62.823 40.1961C61.516 39.8361 60.228 39.1062 58.958 38.0162L61.244 35.836ZM69.246 35.836C69.392 35.256 69.519 34.7562 69.628 34.3162C69.773 33.8462 69.882 33.3161 69.954 32.7361L70.063 32.086C70.462 31.936 70.807 31.866 71.097 31.866C71.388 31.826 71.66 31.8661 71.914 31.9761C72.168 32.0861 72.458 32.216 72.785 32.356C72.749 33.006 72.694 33.586 72.622 34.096C72.585 34.566 72.513 35.156 72.404 35.836H69.246ZM62.06 14.0662C61.444 16.2762 60.954 18.5162 60.591 20.7662C60.228 22.9762 60.083 25.3162 60.155 27.7862C60.264 30.2562 60.627 32.936 61.244 35.836H56.834C56.109 32.606 55.764 29.7961 55.8 27.4061C55.836 24.9761 56.127 22.7261 56.671 20.6561C57.215 18.5861 57.869 16.3862 58.631 14.0662H62.06ZM62.06 14.0662L60.754 11.886C62.242 11.526 63.458 11.2861 64.401 11.1761C65.345 11.0361 66.506 10.9661 67.885 10.9661C68.43 11.4361 68.847 11.886 69.138 12.326C69.464 12.726 69.7 13.3062 69.845 14.0662H72.023C72.241 14.9362 72.368 15.7762 72.404 16.5662C72.477 17.3662 72.513 18.3261 72.513 19.4561V19.7261C72.15 19.8761 71.841 19.996 71.587 20.106C71.333 20.176 71.043 20.1961 70.716 20.1661C70.426 20.0861 70.063 19.976 69.628 19.836C69.591 19.686 69.555 19.5661 69.519 19.4561C69.519 19.3061 69.501 19.1261 69.464 18.9061C69.246 17.7861 69.029 16.856 68.811 16.136C68.593 15.406 68.303 14.7162 67.94 14.0662H66.252C65.381 13.8462 64.655 13.7562 64.075 13.7962C63.494 13.8262 62.823 13.9162 62.06 14.0662ZM90.206 35.836C90.387 35.116 90.55 34.3861 90.695 33.6661C90.877 32.9361 91.004 32.1961 91.077 31.4361C91.476 31.2861 91.821 31.2161 92.111 31.2161C92.401 31.1761 92.673 31.216 92.927 31.326C93.218 31.396 93.544 31.506 93.907 31.646C93.835 32.416 93.744 33.1162 93.635 33.7762C93.526 34.4262 93.417 35.116 93.309 35.836H90.206ZM81.767 35.836C82.711 36.206 83.6 36.4961 84.435 36.7161C85.306 36.8961 86.195 36.9262 87.102 36.8162C88.01 36.7162 89.044 36.386 90.206 35.836L91.131 38.0162C90.042 39.0662 88.826 39.7961 87.484 40.1961C86.177 40.5561 84.852 40.536 83.51 40.146C82.167 39.746 80.878 39.0362 79.644 38.0162L81.767 35.836ZM82.584 14.0662C81.931 16.2762 81.405 18.5162 81.005 20.7662C80.901 21.3462 80.813 21.9262 80.741 22.5162C80.938 22.7462 81.135 22.9162 81.332 23.0462C81.55 23.1562 81.894 23.2161 82.366 23.2161C83.056 23.2461 83.745 23.2662 84.435 23.2662H86.83C87.556 23.2662 88.082 23.2261 88.409 23.1561C88.772 23.0861 89.153 22.9562 89.552 22.7762C89.661 22.3362 89.716 21.936 89.716 21.576C89.752 21.216 89.77 20.7762 89.77 20.2762V19.9961C89.77 18.6961 89.679 17.5861 89.498 16.6761C89.353 15.7761 89.099 14.8962 88.736 14.0662H87.048C86.141 13.8462 85.36 13.7562 84.707 13.7962C84.09 13.8262 83.382 13.9162 82.584 14.0662L81.005 11.886C82.457 11.486 83.618 11.236 84.489 11.126C85.397 11.016 86.54 10.9661 87.919 10.9661C88.355 11.4661 88.79 11.946 89.226 12.376C89.697 12.776 90.078 13.3362 90.369 14.0662H92.546C93.054 15.5862 93.417 16.9661 93.635 18.2061C93.853 19.4361 93.944 20.9562 93.907 22.7762C93.907 23.6062 93.871 24.2661 93.798 24.7361C93.726 25.2061 93.563 25.676 93.309 26.146H83.618C82.784 26.146 82.185 26.2561 81.822 26.4761C81.459 26.6961 81.023 26.986 80.515 27.346C80.51 27.276 80.506 27.206 80.502 27.146C80.504 27.356 80.509 27.5762 80.515 27.7862C80.624 30.2562 81.042 32.936 81.767 35.836H77.467C76.741 32.686 76.36 29.9062 76.324 27.5162C76.324 25.0762 76.559 22.8161 77.031 20.7061C77.503 18.6061 78.12 16.3862 78.882 14.0662H82.584ZM133.376 35.836C133.557 35.116 133.72 34.3861 133.866 33.6661C134.047 32.9361 134.174 32.1961 134.247 31.4361C134.646 31.2861 134.991 31.2161 135.281 31.2161C135.571 31.1761 135.844 31.216 136.098 31.326C136.388 31.396 136.715 31.506 137.077 31.646C137.005 32.416 136.914 33.1162 136.805 33.7762C136.696 34.4262 136.588 35.116 136.479 35.836H133.376ZM124.938 35.836C125.881 36.206 126.77 36.4961 127.605 36.7161C128.476 36.8961 129.365 36.9262 130.273 36.8162C131.18 36.7162 132.214 36.386 133.376 35.836L134.301 38.0162C133.176 39.0662 131.96 39.7961 130.654 40.1961C129.347 40.5561 128.022 40.536 126.68 40.146C125.337 39.746 124.048 39.0362 122.814 38.0162L124.938 35.836ZM125.754 14.0662C125.101 16.2762 124.575 18.5162 124.175 20.7662C124.071 21.3362 123.983 21.9262 123.911 22.5162C124.108 22.7462 124.305 22.9162 124.502 23.0462C124.72 23.1562 125.065 23.2161 125.536 23.2161C126.226 23.2461 126.916 23.2662 127.605 23.2662H130C130.726 23.2662 131.253 23.2261 131.579 23.1561C131.942 23.0861 132.323 22.9562 132.722 22.7762C132.831 22.3362 132.886 21.936 132.886 21.576C132.922 21.216 132.94 20.7762 132.94 20.2762V19.9961C132.94 18.6961 132.849 17.5861 132.668 16.6761C132.523 15.7761 132.269 14.8962 131.906 14.0662H130.218C129.311 13.8462 128.531 13.7562 127.877 13.7962C127.26 13.8262 126.553 13.9162 125.754 14.0662L124.175 11.886C125.627 11.486 126.788 11.236 127.66 11.126C128.567 11.016 129.71 10.9661 131.089 10.9661C131.525 11.4661 131.96 11.946 132.396 12.376C132.868 12.776 133.249 13.3362 133.539 14.0662H135.716C136.225 15.5862 136.588 16.9661 136.805 18.2061C137.023 19.4361 137.114 20.9562 137.077 22.7762C137.077 23.6062 137.041 24.2661 136.969 24.7361C136.896 25.2061 136.733 25.676 136.479 26.146H126.788C125.954 26.146 125.355 26.2561 124.992 26.4761C124.629 26.6961 124.194 26.986 123.685 27.346C123.68 27.276 123.676 27.206 123.672 27.146C123.674 27.356 123.679 27.5762 123.685 27.7862C123.794 30.2562 124.212 32.936 124.938 35.836H120.637C119.911 32.686 119.53 29.9062 119.494 27.5162C119.494 25.0762 119.73 22.8161 120.201 20.7061C120.673 18.6061 121.29 16.3862 122.052 14.0662H125.754ZM101.855 36.2762C101.819 36.9262 101.91 37.366 102.128 37.586C102.345 37.766 102.636 37.9661 102.999 38.1861C103.035 38.2161 103.071 38.2361 103.108 38.2361C103.144 38.2361 103.18 38.2562 103.216 38.2862C103.47 38.4762 103.652 38.6161 103.761 38.7261C103.87 38.8361 103.924 39.0162 103.924 39.2662C103.924 39.5262 103.87 39.726 103.761 39.866C103.688 39.976 103.579 40.1061 103.434 40.2461H96.575C96.393 40.1061 96.248 39.976 96.139 39.866C96.067 39.756 96.03 39.5562 96.03 39.2662C96.03 39.0862 96.085 38.946 96.194 38.836C96.303 38.726 96.502 38.576 96.793 38.396C96.865 38.366 96.938 38.3262 97.01 38.2862C97.083 38.2162 97.156 38.166 97.228 38.126C97.446 37.836 97.573 37.586 97.609 37.366C97.682 37.116 97.718 36.7462 97.718 36.2762V20.4861C97.718 19.1861 97.845 18.0761 98.099 17.1661C98.353 16.2561 98.752 15.2262 99.297 14.0662H101.474C101.656 13.4462 101.91 12.9362 102.236 12.5362C102.599 12.1062 102.944 11.616 103.271 11.076C104.614 10.996 105.721 10.9661 106.592 10.9661C107.463 10.9661 108.57 10.996 109.912 11.076C110.275 11.656 110.584 12.1261 110.838 12.4861C111.092 12.8161 111.382 13.3362 111.709 14.0662H113.886C114.467 15.1562 114.884 16.1362 115.139 17.0062C115.429 17.8362 115.574 18.8961 115.574 20.1661V36.2762C115.574 36.7162 115.61 37.0562 115.683 37.3062C115.756 37.5662 115.901 37.836 116.118 38.126C116.191 38.196 116.264 38.2562 116.336 38.2862C116.445 38.3262 116.554 38.3861 116.663 38.4561C116.917 38.5661 117.116 38.6762 117.262 38.7762C117.407 38.8862 117.479 39.0562 117.479 39.2662C117.479 39.5562 117.443 39.756 117.371 39.866C117.298 39.976 117.153 40.1061 116.935 40.2461H110.239C110.094 40.1061 109.967 39.976 109.858 39.866C109.785 39.726 109.749 39.5262 109.749 39.2662C109.749 39.0162 109.822 38.8361 109.967 38.7261C110.112 38.5761 110.312 38.4161 110.566 38.2361C110.82 38.0161 111.019 37.796 111.164 37.586C111.346 37.366 111.437 36.9262 111.437 36.2762V19.2361C111.437 17.8961 111.273 16.8961 110.947 16.2461C110.62 15.5561 110.203 14.8262 109.695 14.0662H108.606C107.88 13.9562 107.281 13.9061 106.809 13.9061C106.338 13.9061 105.757 13.9562 105.067 14.0662H103.434C102.999 14.7562 102.618 15.446 102.291 16.136C102.001 16.786 101.855 17.7161 101.855 18.9061V36.2762ZM11.541 37.7962C11.541 37.1162 11.686 36.386 11.977 35.626C12.775 35.296 13.519 35.136 14.209 35.136C14.898 35.136 15.624 35.2762 16.386 35.5662C16.713 36.3662 16.876 37.1162 16.876 37.7962C16.876 38.4862 16.731 39.2161 16.441 39.9761C15.642 40.3061 14.898 40.4661 14.209 40.4661C13.519 40.4661 12.793 40.3262 12.031 40.0362C11.704 39.2362 11.541 38.4862 11.541 37.7962Z" fill="black"/>
</svg>
