<svg width="138" height="41" viewBox="0 0 138 41" fill="none" xmlns="http://www.w3.org/2000/svg">
<path fill-rule="evenodd" clip-rule="evenodd" d="M4.355 14.396C5.553 14.426 6.642 14.3162 7.621 14.0662C8.601 13.8162 9.908 13.4662 11.541 13.0262L13.065 12.596L13.12 17.116C11.269 17.546 9.726 17.8361 8.492 17.9861C7.295 18.0961 5.916 18.036 4.355 17.826V14.396ZM4.355 14.396L2.232 15.6961C1.506 14.9761 0.944 14.196 0.544 13.356C0.181 12.486 0 11.4562 0 10.2562C0.472 9.45616 1.016 8.78614 1.633 8.23614C2.25 7.65614 3.157 7.16617 4.355 6.76617V4.64605L6.642 3.82598C7.077 3.68598 7.44 3.5561 7.73 3.4461C8.057 3.3061 8.384 3.19603 8.71 3.12603V0.996146C9.436 0.856146 10.053 0.836097 10.561 0.946097C11.069 1.0161 11.632 1.18609 12.249 1.43609C12.394 2.19609 12.412 2.81618 12.303 3.28618C12.194 3.75618 11.958 4.30607 11.596 4.91607L8.71 5.29619V7.47613C7.912 7.62613 7.15 7.80618 6.424 8.02618C5.698 8.23618 5.008 8.42621 4.355 8.56621V9.21612C4.028 9.61612 3.72 10.0161 3.43 10.4161C3.176 10.8161 3.049 11.3461 3.049 11.9961C3.049 12.6461 3.176 13.1562 3.43 13.5162C3.72 13.8862 4.028 14.176 4.355 14.396ZM19.816 22.7762C19.671 22.9562 19.507 23.1162 19.326 23.2662C19.181 23.3762 19.017 23.5161 18.836 23.6961C17.711 24.6461 16.858 25.4061 16.277 25.9861C15.697 26.5661 15.406 27.276 15.406 28.106V31.2161C15.043 31.3561 14.717 31.4662 14.426 31.5362C14.172 31.5762 13.9 31.5561 13.61 31.4861C13.319 31.4161 12.993 31.3061 12.63 31.1561V28.5462C12.63 27.3462 12.775 26.4061 13.065 25.7161C13.356 24.9861 13.737 24.1361 14.209 23.1561L14.426 22.7762H16.549C16.804 22.2662 17.094 21.8462 17.421 21.5262C17.783 21.1562 18.146 20.7261 18.509 20.2161C18.8 19.8861 19.09 19.616 19.38 19.396C19.671 19.146 19.979 18.8161 20.306 18.4161H22.429C22.901 17.6261 23.264 16.9461 23.518 16.4061C23.772 15.8261 23.899 15.0462 23.899 14.0662H26.131V11.9461H24.715C24.425 11.5761 24.062 11.286 23.627 11.076C23.227 10.816 22.701 10.6861 22.048 10.6861C21.286 10.6861 20.56 10.7962 19.87 11.0162C19.181 11.1962 18.364 11.4361 17.421 11.7261V13.846L13.12 14.9861L13.065 10.4761C13.682 10.3661 14.336 10.2162 15.025 10.0362C15.715 9.85619 16.513 9.67615 17.421 9.49615V7.36602C19.054 7.15602 20.505 7.056 21.776 7.096C23.082 7.096 24.534 7.47614 26.131 8.23614V10.5262L28.254 10.366C28.435 11.016 28.599 11.6161 28.744 12.1561C28.889 12.7061 28.998 13.3362 29.07 14.0662H26.947C27.02 14.8662 27.038 15.5861 27.002 16.2461C27.002 16.8961 26.929 17.6261 26.784 18.4161H24.661C24.479 19.2961 24.135 20.0361 23.627 20.6561C23.155 21.2661 22.61 21.9762 21.993 22.7762H19.816ZM39.196 36.9261L37.073 38.2361C36.202 37.6161 35.494 37.1161 34.95 36.7161C34.442 36.2761 34.188 35.6761 34.188 34.9161L34.133 32.136L34.079 28.106C34.406 27.966 34.714 27.8562 35.004 27.7862C35.295 27.6762 35.585 27.6561 35.875 27.7261C36.202 27.7661 36.565 27.8762 36.964 28.0562L37.073 28.876C37.291 30.656 37.563 32.1162 37.89 33.2862C38.216 34.4462 38.652 35.6561 39.196 36.9261ZM39.196 4.15606V1.16607C40.938 0.836068 42.462 0.696126 43.769 0.726126C45.112 0.766126 46.491 0.856146 47.906 0.996146V3.12603C48.741 3.26603 49.394 3.4162 49.866 3.5562C50.374 3.7062 50.882 3.90606 51.39 4.15606C51.39 5.71606 51.409 7.13606 51.445 8.40606C51.481 9.67606 51.499 11.1061 51.499 12.7061C51.136 12.8861 50.81 13.016 50.519 13.086C50.229 13.156 49.921 13.176 49.594 13.136C49.304 13.066 48.959 12.9362 48.56 12.7562C48.414 11.7062 48.287 10.8862 48.179 10.3062C48.106 9.6962 48.015 9.00614 47.906 8.23614V6.33599C46.89 5.39599 45.947 4.71621 45.076 4.31621C44.205 3.88621 43.297 3.66607 42.354 3.66607C41.446 3.66607 40.394 3.82606 39.196 4.15606ZM48.015 35.836C48.523 33.156 48.542 30.8661 48.07 28.9861C47.634 27.0961 46.945 25.0262 46.001 22.7762H43.878C43.66 22.3362 43.424 21.956 43.17 21.636C42.916 21.306 42.662 20.9061 42.408 20.4361C42.19 20.0761 41.954 19.7461 41.7 19.4561C41.483 19.1661 41.265 18.8161 41.047 18.4161H38.924C38.416 17.5161 37.998 16.7661 37.672 16.1861C37.345 15.5761 37.109 14.8662 36.964 14.0662H34.786C34.569 13.0462 34.369 11.9461 34.188 10.7461C34.042 9.54615 34.151 8.31619 34.514 7.04619C34.914 5.77619 35.766 4.51618 37.073 3.28618L39.196 4.15606C38.688 5.24606 38.343 6.31602 38.162 7.36602C38.017 8.38602 38.071 9.43618 38.325 10.5262C38.579 11.6162 39.033 12.7962 39.686 14.0662H41.809C42.1 14.7962 42.499 15.4961 43.007 16.1861C43.515 16.8461 44.005 17.5861 44.477 18.4161H46.6C46.999 19.2161 47.38 19.9262 47.743 20.5462C48.106 21.1262 48.451 21.8662 48.777 22.7762H50.901C51.626 25.0662 52.098 27.166 52.316 29.086C52.534 31.016 52.298 33.266 51.608 35.836H48.015ZM39.196 36.9261C40.358 37.2961 41.428 37.4962 42.408 37.5262C43.388 37.5662 44.313 37.436 45.184 37.146C46.092 36.856 47.035 36.426 48.015 35.836L49.485 37.9661C47.888 38.9761 46.31 39.686 44.749 40.086C43.188 40.446 41.337 40.536 39.196 40.356V36.9261ZM69.246 35.836C69.392 35.256 69.519 34.7562 69.628 34.3162C69.773 33.8462 69.882 33.3161 69.954 32.7361L70.063 32.086C70.462 31.936 70.807 31.866 71.097 31.866C71.388 31.826 71.66 31.8661 71.914 31.9761C72.168 32.0861 72.458 32.216 72.785 32.356C72.749 33.006 72.694 33.586 72.622 34.096C72.549 34.566 72.458 35.156 72.35 35.836H69.246ZM61.244 35.836C62.151 36.206 62.986 36.4961 63.748 36.7161C64.546 36.8961 65.381 36.9262 66.252 36.8162C67.123 36.7162 68.121 36.386 69.246 35.836L70.226 37.9661C69.101 39.0561 67.904 39.7961 66.633 40.1961C65.399 40.5961 64.129 40.5961 62.823 40.1961C61.516 39.8361 60.228 39.0861 58.958 37.9661L61.244 35.836ZM62.06 14.0662C61.444 16.2762 60.954 18.5162 60.591 20.7662C60.228 22.9762 60.083 25.3162 60.155 27.7862C60.264 30.2562 60.627 32.936 61.244 35.836H56.834C56.109 32.606 55.764 29.7961 55.8 27.4061C55.836 24.9761 56.127 22.7261 56.671 20.6561C57.215 18.5461 57.869 16.3562 58.631 14.0662H62.06ZM62.06 14.0662L60.754 11.9461C62.242 11.5761 63.458 11.3261 64.401 11.1761C65.345 11.0361 66.488 10.9661 67.831 10.9661C68.412 11.4361 68.847 11.886 69.138 12.326C69.464 12.726 69.7 13.3062 69.845 14.0662H71.968C72.222 14.9362 72.368 15.7762 72.404 16.5662C72.477 17.3662 72.513 18.3261 72.513 19.4561V19.7862C72.15 19.9262 71.841 20.036 71.587 20.106C71.333 20.176 71.043 20.1961 70.716 20.1661C70.426 20.1261 70.063 20.016 69.628 19.836C69.591 19.726 69.555 19.5961 69.519 19.4561C69.519 19.3061 69.501 19.1261 69.464 18.9061C69.246 17.7861 69.029 16.856 68.811 16.136C68.593 15.406 68.303 14.7162 67.94 14.0662H66.252C65.381 13.8462 64.655 13.7562 64.075 13.7962C63.494 13.8262 62.823 13.9162 62.06 14.0662ZM90.151 35.836C90.369 35.116 90.55 34.3861 90.695 33.6661C90.877 32.9361 91.004 32.1961 91.077 31.4361C91.476 31.2861 91.821 31.2161 92.111 31.2161C92.401 31.1761 92.673 31.216 92.927 31.326C93.218 31.396 93.526 31.506 93.853 31.646C93.817 32.416 93.744 33.1162 93.635 33.7762C93.526 34.4262 93.399 35.116 93.254 35.836H90.151ZM81.767 35.836C82.675 36.206 83.546 36.4961 84.381 36.7161C85.251 36.8961 86.141 36.9262 87.048 36.8162C87.992 36.7162 89.026 36.386 90.151 35.836L91.131 37.9661C90.042 39.0561 88.826 39.7961 87.484 40.1961C86.177 40.5561 84.834 40.536 83.455 40.146C82.112 39.746 80.824 39.0161 79.59 37.9661L81.767 35.836ZM82.584 14.0662C81.931 16.2462 81.386 18.4561 80.951 20.7061C80.845 21.3061 80.757 21.9062 80.687 22.5162C80.884 22.7462 81.081 22.9162 81.278 23.0462C81.495 23.1562 81.84 23.2161 82.312 23.2161C83.001 23.2461 83.709 23.2662 84.435 23.2662H86.83C87.52 23.2662 88.028 23.2261 88.355 23.1561C88.718 23.0861 89.117 22.9562 89.552 22.7762C89.625 22.3362 89.661 21.936 89.661 21.576C89.697 21.216 89.716 20.7762 89.716 20.2762V19.9961C89.716 18.6961 89.625 17.5861 89.443 16.6761C89.298 15.7761 89.044 14.8962 88.681 14.0662H87.048C86.141 13.8462 85.36 13.7562 84.707 13.7962C84.09 13.8262 83.382 13.9162 82.584 14.0662L81.005 11.9461C82.421 11.5461 83.564 11.2861 84.435 11.1761C85.342 11.0761 86.486 11.0162 87.865 11.0162C88.3 11.4862 88.736 11.946 89.171 12.376C89.643 12.776 90.042 13.3362 90.369 14.0662H92.492C93 15.5862 93.363 16.9661 93.581 18.2061C93.835 19.4361 93.944 20.9562 93.907 22.7762C93.907 23.6062 93.853 24.2661 93.744 24.7361C93.671 25.2061 93.508 25.676 93.254 26.146H83.51C82.711 26.146 82.13 26.2561 81.767 26.4761C81.405 26.6961 80.987 26.986 80.515 27.346C80.506 27.226 80.498 27.1061 80.489 26.9861C80.495 27.2461 80.503 27.5162 80.515 27.7862C80.624 30.2562 81.042 32.936 81.767 35.836H77.467C76.705 32.686 76.305 29.9062 76.269 27.5162C76.269 25.0762 76.505 22.8161 76.977 20.7061C77.485 18.5661 78.12 16.3562 78.882 14.0662H82.584ZM133.321 35.836C133.503 35.116 133.684 34.3861 133.866 33.6661C134.047 32.9361 134.174 32.1961 134.247 31.4361C134.646 31.2861 134.991 31.2161 135.281 31.2161C135.571 31.1761 135.844 31.216 136.098 31.326C136.388 31.396 136.696 31.506 137.023 31.646C136.987 32.416 136.896 33.1162 136.751 33.7762C136.642 34.4262 136.533 35.116 136.424 35.836H133.321ZM124.938 35.836C125.845 36.206 126.716 36.4961 127.551 36.7161C128.422 36.8961 129.311 36.9262 130.218 36.8162C131.162 36.7162 132.196 36.386 133.321 35.836L134.301 37.9661C133.176 39.0561 131.96 39.7961 130.654 40.1961C129.347 40.5561 128.004 40.536 126.625 40.146C125.246 39.746 123.958 39.0161 122.76 37.9661L124.938 35.836ZM125.754 14.0662C125.065 16.2462 124.52 18.4561 124.121 20.7061C124.015 21.3061 123.927 21.9062 123.857 22.5162C124.054 22.7462 124.251 22.9162 124.448 23.0462C124.665 23.1562 125.01 23.2161 125.482 23.2161C126.172 23.2461 126.861 23.2662 127.551 23.2662H130C130.69 23.2662 131.198 23.2261 131.525 23.1561C131.888 23.0861 132.287 22.9562 132.722 22.7762C132.795 22.3362 132.831 21.936 132.831 21.576C132.868 21.216 132.886 20.7762 132.886 20.2762V19.9961C132.886 18.6961 132.795 17.5861 132.613 16.6761C132.468 15.7761 132.214 14.8962 131.851 14.0662H130.164C129.293 13.8462 128.531 13.7562 127.877 13.7962C127.26 13.8262 126.553 13.9162 125.754 14.0662L124.175 11.9461C125.591 11.5461 126.734 11.2861 127.605 11.1761C128.512 11.0761 129.637 11.0162 130.98 11.0162C131.452 11.4862 131.906 11.946 132.341 12.376C132.813 12.776 133.194 13.3362 133.484 14.0662H135.662C136.17 15.5862 136.533 16.9661 136.751 18.2061C137.005 19.4361 137.114 20.9562 137.077 22.7762C137.077 23.6062 137.023 24.2661 136.914 24.7361C136.842 25.2061 136.678 25.676 136.424 26.146H126.68C125.845 26.146 125.246 26.2561 124.883 26.4761C124.564 26.6861 124.159 26.9762 123.668 27.3162C123.672 27.4762 123.678 27.6262 123.685 27.7862C123.794 30.2562 124.212 32.936 124.938 35.836H120.582C119.857 32.686 119.476 29.9062 119.439 27.5162C119.439 25.0762 119.675 22.8161 120.147 20.7061C120.655 18.5661 121.29 16.3562 122.052 14.0662H125.754ZM101.801 36.2762C101.765 36.9262 101.855 37.366 102.073 37.586C102.291 37.766 102.599 37.9661 102.999 38.1861C103.035 38.2161 103.053 38.2361 103.053 38.2361C103.089 38.2361 103.126 38.2562 103.162 38.2862C103.452 38.4762 103.652 38.6161 103.761 38.7261C103.87 38.8361 103.924 39.0162 103.924 39.2662C103.924 39.5262 103.87 39.726 103.761 39.866C103.688 39.976 103.579 40.1061 103.434 40.2461H96.52C96.303 40.1061 96.158 39.976 96.085 39.866C96.012 39.756 95.976 39.5562 95.976 39.2662C95.976 39.0862 96.03 38.946 96.139 38.836C96.248 38.726 96.448 38.576 96.738 38.396C96.811 38.366 96.883 38.3262 96.956 38.2862C97.028 38.2162 97.101 38.166 97.174 38.126C97.391 37.836 97.537 37.586 97.609 37.366C97.682 37.116 97.718 36.7462 97.718 36.2762L97.664 20.4861C97.664 19.1861 97.791 18.0761 98.045 17.1661C98.299 16.2561 98.716 15.2262 99.297 14.0662H101.42C101.601 13.4462 101.855 12.9362 102.182 12.5362C102.545 12.1062 102.908 11.616 103.271 11.076C104.577 10.996 105.666 10.9661 106.537 10.9661C107.408 10.9661 108.515 11.016 109.858 11.126C110.221 11.666 110.529 12.1261 110.783 12.4861C111.074 12.8161 111.382 13.3362 111.709 14.0662H113.832C114.413 15.1562 114.83 16.1362 115.084 17.0062C115.374 17.8362 115.52 18.8961 115.52 20.1661L115.574 36.2762C115.574 36.7162 115.592 37.0562 115.628 37.3062C115.701 37.5662 115.846 37.836 116.064 38.126C116.173 38.196 116.264 38.2562 116.336 38.2862C116.445 38.3262 116.554 38.3861 116.663 38.4561C116.917 38.5661 117.116 38.6762 117.262 38.7762C117.407 38.8862 117.479 39.0562 117.479 39.2662C117.479 39.5562 117.443 39.756 117.371 39.866C117.298 39.976 117.153 40.1061 116.935 40.2461H110.185C110.039 40.1061 109.912 39.976 109.804 39.866C109.731 39.726 109.695 39.5262 109.695 39.2662C109.695 39.0162 109.767 38.8361 109.912 38.7261C110.058 38.5761 110.257 38.4161 110.511 38.2361C110.765 38.0161 110.983 37.796 111.164 37.586C111.346 37.366 111.419 36.9262 111.382 36.2762V19.2361C111.382 17.8961 111.219 16.8961 110.892 16.2461C110.566 15.5561 110.148 14.8262 109.64 14.0662H108.551C107.862 13.9562 107.263 13.9061 106.755 13.9061C106.283 13.9061 105.702 13.9562 105.013 14.0662H103.434C102.999 14.7562 102.618 15.446 102.291 16.136C101.964 16.786 101.801 17.7161 101.801 18.9061V36.2762ZM11.487 37.7962C11.487 37.1162 11.65 36.386 11.977 35.626C12.775 35.296 13.519 35.136 14.209 35.136C14.898 35.136 15.624 35.2762 16.386 35.5662C16.713 36.3662 16.876 37.1162 16.876 37.7962C16.876 38.4862 16.731 39.2161 16.441 39.9761C15.642 40.3061 14.898 40.4661 14.209 40.4661C13.519 40.4661 12.793 40.3262 12.031 40.0362C11.704 39.2362 11.523 38.4862 11.487 37.7962Z" fill="black"/>
</svg>
