<svg width="138" height="41" viewBox="0 0 138 41" fill="none" xmlns="http://www.w3.org/2000/svg">
<path fill-rule="evenodd" clip-rule="evenodd" d="M4.355 14.396L2.286 15.6961C1.561 14.9761 0.998 14.196 0.599 13.356C0.2 12.486 0 11.4562 0 10.2562C0.436 9.41616 0.962 8.72609 1.579 8.18609C2.232 7.60609 3.157 7.11612 4.355 6.71612V4.596L6.642 3.82598C7.077 3.64598 7.44 3.50605 7.73 3.39605C8.057 3.24605 8.384 3.14621 8.71 3.06621V0.996146C9.436 0.856146 10.053 0.836097 10.561 0.946097C11.069 1.0161 11.632 1.18609 12.249 1.43609C12.394 2.19609 12.394 2.81618 12.249 3.28618C12.14 3.75618 11.922 4.30607 11.596 4.91607L8.71 5.29619V7.42608C7.912 7.56608 7.15 7.76618 6.424 8.02618C5.698 8.23618 5.008 8.40617 4.355 8.51617V9.16607C4.028 9.60607 3.72 10.0161 3.43 10.4161C3.176 10.8161 3.049 11.3261 3.049 11.9461C3.049 12.6361 3.176 13.1562 3.43 13.5162C3.72 13.8862 4.028 14.176 4.355 14.396ZM4.355 14.396C5.553 14.426 6.642 14.3162 7.621 14.0662C8.601 13.8162 9.908 13.4461 11.541 12.9761L13.065 12.5362L13.12 17.116C11.269 17.516 9.726 17.7861 8.492 17.9261C7.295 18.0761 5.916 18.036 4.355 17.826V14.396ZM19.87 22.7762C19.725 22.9562 19.562 23.1162 19.38 23.2662C19.199 23.3762 19.017 23.5161 18.836 23.6961C17.711 24.6461 16.84 25.4061 16.223 25.9861C15.642 26.5661 15.352 27.276 15.352 28.106V31.2161C15.025 31.3561 14.717 31.4662 14.426 31.5362C14.136 31.5762 13.846 31.5561 13.555 31.4861C13.265 31.4161 12.957 31.3061 12.63 31.1561V28.5462C12.63 27.3462 12.775 26.4061 13.065 25.7161C13.356 24.9861 13.755 24.1361 14.263 23.1561L14.481 22.7762H16.549C16.804 22.2662 17.094 21.8462 17.421 21.5262C17.783 21.1562 18.165 20.7261 18.564 20.2161C18.818 19.8861 19.09 19.616 19.38 19.396C19.707 19.146 20.034 18.8161 20.36 18.4161H22.483C22.955 17.6261 23.318 16.9461 23.572 16.4061C23.826 15.8261 23.953 15.0462 23.953 14.0662H26.131V11.9961H24.715C24.425 11.6361 24.062 11.346 23.627 11.126C23.227 10.876 22.701 10.7461 22.048 10.7461C21.286 10.7461 20.56 10.856 19.87 11.076C19.181 11.256 18.364 11.4862 17.421 11.7762V13.846L13.12 14.9861L13.065 10.4761C13.682 10.3661 14.336 10.2162 15.025 10.0362C15.715 9.85619 16.513 9.67615 17.421 9.49615V7.42608C19.054 7.16608 20.505 7.056 21.776 7.096C23.082 7.096 24.534 7.49619 26.131 8.29619V10.5262L28.199 10.366C28.381 11.016 28.544 11.6161 28.689 12.1561C28.834 12.7061 28.943 13.3362 29.016 14.0662H26.947C27.056 14.8662 27.093 15.5861 27.056 16.2461C27.056 16.8961 26.965 17.6261 26.784 18.4161H24.715C24.498 19.2961 24.135 20.0361 23.627 20.6561C23.155 21.2661 22.61 21.9762 21.993 22.7762H19.87ZM39.196 4.15606V1.16607C40.938 0.836068 42.462 0.696126 43.769 0.726126C45.112 0.766126 46.491 0.856146 47.906 0.996146V3.06621C48.741 3.21621 49.394 3.3762 49.866 3.5562C50.374 3.7062 50.864 3.90606 51.336 4.15606C51.372 5.68606 51.39 7.09606 51.39 8.40606C51.427 9.67606 51.445 11.1061 51.445 12.7061C51.118 12.8861 50.81 13.016 50.519 13.086C50.229 13.156 49.921 13.176 49.594 13.136C49.304 13.066 48.977 12.9362 48.614 12.7562C48.433 11.7062 48.287 10.8862 48.179 10.3062C48.106 9.6962 48.015 8.98609 47.906 8.18609V6.33599C46.926 5.39599 45.983 4.70617 45.076 4.26617C44.205 3.82617 43.297 3.61602 42.354 3.61602C41.446 3.61602 40.394 3.79606 39.196 4.15606ZM48.015 35.836C48.523 33.156 48.542 30.8661 48.07 28.9861C47.634 27.0961 46.945 25.0262 46.001 22.7762H43.878C43.66 22.3362 43.424 21.956 43.17 21.636C42.916 21.306 42.644 20.9061 42.354 20.4361C42.136 20.0761 41.9 19.7461 41.646 19.4561C41.428 19.1661 41.21 18.8161 40.993 18.4161H38.924C38.38 17.5161 37.944 16.7661 37.617 16.1861C37.291 15.5761 37.055 14.8662 36.91 14.0662H34.786C34.569 13.0862 34.369 11.9761 34.188 10.7461C34.042 9.50615 34.151 8.25614 34.514 6.98614C34.914 5.71614 35.785 4.46614 37.127 3.23614L39.196 4.15606C38.652 5.24606 38.307 6.29621 38.162 7.31621C38.017 8.33621 38.071 9.40618 38.325 10.5262C38.579 11.6162 39.033 12.7962 39.686 14.0662H41.809C42.1 14.7962 42.499 15.4961 43.007 16.1861C43.515 16.8461 44.005 17.5861 44.477 18.4161H46.6C46.963 19.2161 47.326 19.9262 47.689 20.5462C48.088 21.1262 48.469 21.8662 48.832 22.7762H50.901C51.626 25.0262 52.098 27.126 52.316 29.086C52.534 31.016 52.298 33.266 51.608 35.836H48.015ZM39.196 36.9861C40.358 37.3061 41.428 37.4962 42.408 37.5262C43.388 37.5662 44.332 37.436 45.239 37.146C46.146 36.856 47.072 36.426 48.015 35.836L49.539 37.9061C47.943 38.9261 46.346 39.6362 44.749 40.0362C43.188 40.4362 41.337 40.536 39.196 40.356V36.9861ZM39.196 36.9861L37.127 38.2862C36.256 37.6762 35.549 37.1662 35.004 36.7662C34.46 36.3262 34.188 35.7361 34.188 34.9661L34.133 32.1961L34.024 28.1661C34.387 27.9861 34.696 27.8562 34.95 27.7862C35.24 27.6762 35.531 27.6561 35.821 27.7261C36.148 27.8061 36.51 27.9062 36.91 28.0562L37.019 28.9261C37.273 30.7061 37.545 32.176 37.835 33.336C38.162 34.496 38.615 35.7161 39.196 36.9861ZM62.06 14.0662L60.754 11.9961C62.206 11.5961 63.403 11.3261 64.347 11.1761C65.327 11.0361 66.488 10.9661 67.831 10.9661C68.412 11.4361 68.847 11.886 69.138 12.326C69.464 12.726 69.7 13.3062 69.845 14.0662H71.914C72.168 14.9362 72.313 15.786 72.35 16.626C72.422 17.426 72.458 18.3661 72.458 19.4561V19.7862C72.132 19.9262 71.823 20.0561 71.533 20.1661C71.279 20.2361 71.007 20.2561 70.716 20.2161C70.426 20.1461 70.063 20.036 69.628 19.886L69.519 19.4561C69.519 19.3061 69.501 19.1461 69.464 18.9661C69.246 17.8061 69.01 16.856 68.757 16.136C68.539 15.406 68.248 14.7162 67.885 14.0662H66.252C65.381 13.8462 64.655 13.7562 64.075 13.7962C63.494 13.8262 62.823 13.9162 62.06 14.0662ZM69.246 35.836C69.392 35.256 69.519 34.7562 69.628 34.3162C69.773 33.8462 69.882 33.3161 69.954 32.7361L70.063 32.086C70.462 31.936 70.807 31.866 71.097 31.866C71.388 31.826 71.66 31.8661 71.914 31.9761C72.168 32.0861 72.458 32.216 72.785 32.356C72.749 33.006 72.694 33.586 72.622 34.096C72.549 34.566 72.458 35.156 72.35 35.836H69.246ZM61.244 35.836C62.151 36.206 62.986 36.4961 63.748 36.7161C64.546 36.9261 65.381 36.986 66.252 36.876C67.123 36.766 68.121 36.426 69.246 35.836L70.226 37.9061C69.101 39.0361 67.904 39.7961 66.633 40.1961C65.399 40.5961 64.111 40.5961 62.768 40.1961C61.462 39.8361 60.173 39.0661 58.903 37.9061L61.244 35.836ZM62.06 14.0662C61.444 16.2462 60.935 18.4561 60.536 20.7061C60.173 22.9161 60.028 25.2762 60.101 27.7862C60.21 30.2562 60.591 32.936 61.244 35.836H56.834C56.109 32.606 55.746 29.7961 55.746 27.4061C55.782 24.9761 56.072 22.706 56.617 20.596C57.197 18.496 57.887 16.3162 58.685 14.0662H62.06ZM90.151 35.836L90.695 33.6661C90.877 32.9361 91.004 32.1961 91.077 31.4361C91.476 31.2861 91.821 31.2161 92.111 31.2161C92.401 31.1761 92.673 31.216 92.927 31.326C93.182 31.396 93.49 31.506 93.853 31.646C93.78 32.416 93.69 33.1162 93.581 33.7762C93.472 34.4262 93.363 35.116 93.254 35.836H90.151ZM81.767 35.836C82.675 36.206 83.546 36.4961 84.381 36.7161C85.251 36.9261 86.141 36.986 87.048 36.876C87.992 36.766 89.026 36.426 90.151 35.836L91.131 37.9061C90.042 39.0361 88.826 39.7961 87.484 40.1961C86.141 40.5561 84.78 40.536 83.401 40.146C82.022 39.706 80.733 38.9661 79.535 37.9061L81.767 35.836ZM82.584 14.0662C81.894 16.2062 81.332 18.4061 80.896 20.6561C80.789 21.2661 80.699 21.8762 80.629 22.5062C80.86 22.7362 81.077 22.9162 81.278 23.0462C81.495 23.1562 81.822 23.2161 82.257 23.2161C82.947 23.2461 83.655 23.2662 84.381 23.2662H86.776C87.502 23.2662 88.028 23.2261 88.355 23.1561C88.718 23.0861 89.099 22.9562 89.498 22.7762C89.607 22.3362 89.661 21.936 89.661 21.576C89.697 21.216 89.716 20.7762 89.716 20.2762V19.9961C89.716 18.6961 89.625 17.5861 89.443 16.6761C89.262 15.7761 88.99 14.8962 88.627 14.0662H86.994C86.123 13.8462 85.36 13.7562 84.707 13.7962C84.054 13.8262 83.346 13.9162 82.584 14.0662L80.951 11.9961C82.403 11.5661 83.564 11.2861 84.435 11.1761C85.306 11.0761 86.413 11.0162 87.756 11.0162C88.228 11.4862 88.699 11.946 89.171 12.376C89.643 12.776 90.024 13.3362 90.314 14.0662H92.383C92.964 15.5862 93.363 16.9661 93.581 18.2061C93.798 19.4361 93.889 20.9562 93.853 22.7762C93.853 23.6062 93.798 24.2661 93.69 24.7361C93.617 25.2061 93.454 25.656 93.2 26.096C92.329 26.136 91.421 26.146 90.478 26.146C89.57 26.116 88.409 26.096 86.994 26.096H83.455C82.62 26.096 82.022 26.2261 81.659 26.4761C81.332 26.6961 80.933 26.986 80.461 27.346C80.452 27.226 80.443 27.1061 80.435 26.9861C80.441 27.2561 80.449 27.5162 80.461 27.7862C80.57 30.2862 81.005 32.976 81.767 35.836H77.412C76.65 32.686 76.251 29.8861 76.215 27.4561C76.215 25.0261 76.469 22.7561 76.977 20.6561C77.485 18.5161 78.12 16.3162 78.882 14.0662H82.584ZM133.321 35.836C133.503 35.116 133.684 34.3861 133.866 33.6661C134.047 32.9361 134.174 32.1961 134.247 31.4361C134.646 31.2861 134.973 31.2161 135.227 31.2161C135.517 31.1761 135.789 31.216 136.043 31.326C136.333 31.396 136.642 31.506 136.969 31.646C136.932 32.416 136.842 33.1162 136.696 33.7762C136.588 34.4262 136.479 35.116 136.37 35.836H133.321ZM124.883 35.836C125.79 36.206 126.68 36.4961 127.551 36.7161C128.422 36.9261 129.311 36.986 130.218 36.876C131.162 36.766 132.196 36.426 133.321 35.836L134.301 37.9061C133.176 39.0361 131.942 39.7961 130.599 40.1961C129.293 40.5561 127.95 40.536 126.571 40.146C125.192 39.706 123.885 38.9661 122.651 37.9061L124.883 35.836ZM125.754 14.0662C125.065 16.2062 124.502 18.4061 124.067 20.6561C123.959 21.2661 123.869 21.8862 123.798 22.5162C123.996 22.7462 124.194 22.9162 124.393 23.0462C124.611 23.1562 124.956 23.2161 125.428 23.2161C126.081 23.2461 126.77 23.2662 127.496 23.2662H129.946C130.636 23.2662 131.144 23.2261 131.47 23.1561C131.833 23.0861 132.232 22.9562 132.668 22.7762C132.74 22.3362 132.777 21.936 132.777 21.576C132.813 21.216 132.831 20.7762 132.831 20.2762V19.9961C132.831 18.6961 132.74 17.5861 132.559 16.6761C132.414 15.7761 132.16 14.8962 131.797 14.0662H130.164C129.256 13.8462 128.476 13.7562 127.823 13.7962C127.206 13.8262 126.516 13.9162 125.754 14.0662L124.121 11.9961C125.536 11.5661 126.68 11.2861 127.551 11.1761C128.458 11.0761 129.583 11.0162 130.926 11.0162C131.398 11.4862 131.869 11.946 132.341 12.376C132.813 12.776 133.194 13.3362 133.484 14.0662H135.553C136.098 15.5862 136.479 16.9661 136.696 18.2061C136.95 19.4361 137.059 20.9562 137.023 22.7762C137.023 23.6062 136.969 24.2661 136.86 24.7361C136.787 25.2061 136.624 25.656 136.37 26.096C135.499 26.136 134.591 26.146 133.648 26.146C132.74 26.116 131.579 26.096 130.164 26.096H126.625C125.79 26.096 125.192 26.2261 124.829 26.4761C124.502 26.6961 124.103 26.986 123.631 27.346C123.624 27.296 123.617 27.2461 123.61 27.1961C123.615 27.3861 123.622 27.5862 123.631 27.7862C123.74 30.2862 124.157 32.976 124.883 35.836H120.582C119.82 32.686 119.421 29.8861 119.385 27.4561C119.385 25.0261 119.639 22.7561 120.147 20.6561C120.655 18.5161 121.29 16.3162 122.052 14.0662H125.754ZM101.747 36.2762C101.71 36.9262 101.801 37.366 102.019 37.586C102.236 37.796 102.545 37.9961 102.944 38.1861C102.98 38.2161 103.017 38.2562 103.053 38.2862H103.162C103.452 38.4762 103.652 38.6161 103.761 38.7261C103.87 38.8361 103.924 39.0162 103.924 39.2662C103.924 39.5262 103.87 39.726 103.761 39.866C103.688 39.976 103.561 40.1061 103.38 40.2461H96.466C96.248 40.1061 96.085 39.976 95.976 39.866C95.903 39.756 95.867 39.5562 95.867 39.2662C95.867 39.0862 95.922 38.946 96.03 38.836C96.176 38.726 96.375 38.576 96.629 38.396C96.702 38.366 96.774 38.3262 96.847 38.2862C96.956 38.2162 97.047 38.166 97.119 38.126C97.373 37.876 97.518 37.616 97.555 37.366C97.627 37.116 97.664 36.7462 97.664 36.2762L97.609 20.4861C97.609 19.1861 97.736 18.0761 97.99 17.1661C98.281 16.2561 98.716 15.2262 99.297 14.0662H101.365C101.547 13.4462 101.819 12.9362 102.182 12.5362C102.545 12.1462 102.908 11.666 103.271 11.126C104.541 11.016 105.612 10.9661 106.483 10.9661C107.354 10.9661 108.443 11.016 109.749 11.126C110.148 11.666 110.475 12.1261 110.729 12.4861C111.019 12.8161 111.328 13.3362 111.654 14.0662H113.778C114.358 15.1562 114.776 16.1362 115.03 17.0062C115.32 17.8362 115.465 18.8961 115.465 20.1661L115.52 36.2762C115.52 36.7162 115.556 37.076 115.628 37.366C115.701 37.616 115.846 37.876 116.064 38.126C116.137 38.196 116.227 38.2562 116.336 38.2862C116.445 38.3262 116.536 38.3861 116.608 38.4561C116.899 38.5661 117.116 38.6762 117.262 38.7762C117.407 38.8862 117.479 39.0562 117.479 39.2662C117.479 39.5562 117.443 39.756 117.371 39.866C117.298 39.976 117.153 40.1061 116.935 40.2461H110.13C109.985 40.1061 109.858 39.976 109.749 39.866C109.676 39.726 109.64 39.5262 109.64 39.2662C109.64 39.0162 109.713 38.8361 109.858 38.7261C110.003 38.5761 110.203 38.4362 110.457 38.2862C110.711 38.0762 110.929 37.856 111.11 37.636C111.292 37.386 111.382 36.9262 111.382 36.2762V19.2361C111.382 17.8961 111.201 16.8761 110.838 16.1861C110.511 15.4961 110.076 14.7962 109.531 14.0662H108.497C107.807 13.9562 107.209 13.9061 106.7 13.9061C106.229 13.9061 105.648 13.9562 104.958 14.0662H103.434C102.962 14.7562 102.563 15.446 102.236 16.136C101.91 16.786 101.747 17.7161 101.747 18.9061V36.2762ZM11.487 37.7962C11.487 37.1162 11.65 36.386 11.977 35.626C12.739 35.296 13.465 35.136 14.154 35.136C14.844 35.096 15.588 35.2462 16.386 35.5662C16.713 36.3662 16.876 37.1162 16.876 37.7962C16.876 38.4862 16.713 39.2161 16.386 39.9761C15.588 40.3061 14.844 40.4661 14.154 40.4661C13.501 40.4661 12.775 40.3262 11.977 40.0362C11.65 39.2362 11.487 38.4862 11.487 37.7962Z" fill="black"/>
</svg>
