<svg width="137" height="41" viewBox="0 0 137 41" fill="none" xmlns="http://www.w3.org/2000/svg">
<path fill-rule="evenodd" clip-rule="evenodd" d="M4.355 14.396L2.286 15.7562C1.561 15.0262 0.998 14.226 0.599 13.356C0.2 12.486 0 11.4562 0 10.2562C0.436 9.41616 0.962 8.71604 1.579 8.13604C2.232 7.54604 3.157 7.05607 4.355 6.66607V4.596L6.642 3.77618C7.077 3.63618 7.44 3.48599 7.73 3.33599C8.057 3.19599 8.384 3.10621 8.71 3.06621V0.996146C9.436 0.856146 10.053 0.836097 10.561 0.946097C11.069 1.0161 11.632 1.18609 12.249 1.43609C12.358 2.19609 12.358 2.81618 12.249 3.28618C12.14 3.75618 11.904 4.30607 11.541 4.91607L8.71 5.29619V7.36602C7.912 7.51602 7.15 7.71612 6.424 7.96612C5.698 8.22612 5.008 8.40617 4.355 8.51617V9.11602C3.992 9.54602 3.684 9.96602 3.43 10.366C3.176 10.766 3.049 11.2861 3.049 11.9461C3.049 12.6361 3.176 13.1562 3.43 13.5162C3.684 13.8862 3.992 14.176 4.355 14.396ZM4.355 14.396C5.516 14.426 6.587 14.3162 7.567 14.0662C8.583 13.8162 9.908 13.4461 11.541 12.9761L13.065 12.5362L13.12 17.0562C11.269 17.4962 9.726 17.7861 8.492 17.9261C7.295 18.0761 5.916 18.0262 4.355 17.7662V14.396ZM19.925 22.7762C19.743 22.9562 19.562 23.1162 19.38 23.2662C19.235 23.3762 19.072 23.5161 18.89 23.6961C17.729 24.6461 16.84 25.4262 16.223 26.0462C15.642 26.6262 15.352 27.3261 15.352 28.1661V31.2161C14.989 31.3561 14.662 31.4662 14.372 31.5362C14.118 31.5762 13.846 31.5561 13.555 31.4861C13.265 31.4161 12.957 31.3061 12.63 31.1561V28.5462C12.63 27.3462 12.775 26.4061 13.065 25.7161C13.356 24.9861 13.755 24.1361 14.263 23.1561L14.481 22.7762H16.549C16.767 22.2662 17.058 21.8462 17.421 21.5262C17.783 21.1562 18.165 20.7261 18.564 20.2161C18.854 19.8861 19.144 19.616 19.435 19.396C19.761 19.146 20.088 18.8161 20.415 18.4161H22.483C22.955 17.6261 23.318 16.9461 23.572 16.4061C23.862 15.8261 24.008 15.0462 24.008 14.0662H26.131V11.9961H24.715C24.461 11.6361 24.116 11.346 23.681 11.126C23.282 10.876 22.737 10.7461 22.048 10.7461C21.322 10.7461 20.596 10.856 19.87 11.076C19.181 11.256 18.364 11.506 17.421 11.836V13.846L13.12 15.0462L13.065 10.4761C13.682 10.3961 14.336 10.276 15.025 10.096C15.715 9.876 16.513 9.67615 17.421 9.49615V7.47613C19.054 7.22613 20.523 7.11606 21.83 7.15606C23.137 7.15606 24.57 7.546 26.131 8.346V10.5262L28.199 10.366C28.345 11.016 28.49 11.6161 28.635 12.1561C28.816 12.7061 28.943 13.3362 29.016 14.0662H26.947C27.056 14.8662 27.093 15.5861 27.056 16.2461C27.056 16.8961 26.965 17.6261 26.784 18.4161H24.77C24.552 19.2961 24.189 20.0361 23.681 20.6561C23.209 21.2661 22.647 21.9762 21.993 22.7762H19.925ZM39.196 36.9861L37.127 38.346C36.256 37.726 35.549 37.2162 35.004 36.8162C34.46 36.3862 34.188 35.7862 34.188 35.0262L34.133 32.2461L34.024 28.1661C34.387 27.9861 34.696 27.8562 34.95 27.7862C35.24 27.7162 35.531 27.7162 35.821 27.7862C36.148 27.8162 36.492 27.926 36.855 28.106L36.964 28.9261C37.218 30.7061 37.509 32.196 37.835 33.396C38.162 34.556 38.615 35.7461 39.196 36.9861ZM39.196 4.10601V1.16607C40.938 0.836068 42.462 0.696126 43.769 0.726126C45.112 0.766126 46.491 0.856146 47.906 0.996146V3.06621C48.741 3.21621 49.394 3.35616 49.866 3.50616C50.374 3.64616 50.864 3.84601 51.336 4.10601C51.372 5.66601 51.39 7.09606 51.39 8.40606C51.427 9.67606 51.445 11.1061 51.445 12.7061C51.118 12.8461 50.81 12.976 50.519 13.086C50.229 13.156 49.921 13.156 49.594 13.086C49.304 13.016 48.977 12.9062 48.614 12.7562C48.433 11.7062 48.287 10.8762 48.179 10.2562C48.106 9.63616 48.015 8.94609 47.906 8.18609V6.38604C46.926 5.40604 45.983 4.70617 45.076 4.26617C44.205 3.82617 43.297 3.61602 42.354 3.61602C41.446 3.61602 40.394 3.77601 39.196 4.10601ZM48.015 35.836C48.523 33.156 48.542 30.8661 48.07 28.9861C47.598 27.0561 46.89 24.9862 45.947 22.7762H43.878C43.66 22.3362 43.424 21.956 43.17 21.636C42.916 21.306 42.644 20.9061 42.354 20.4361C42.136 20.0761 41.9 19.7461 41.646 19.4561C41.428 19.1661 41.192 18.8161 40.938 18.4161H38.924C38.38 17.5161 37.944 16.7661 37.617 16.1861C37.291 15.5761 37.037 14.8662 36.855 14.0662H34.786C34.569 13.0862 34.369 11.9761 34.188 10.7461C34.042 9.50615 34.151 8.25614 34.514 6.98614C34.914 5.68614 35.785 4.41608 37.127 3.17608L39.196 4.10601C38.652 5.19601 38.289 6.26621 38.107 7.31621C37.962 8.33621 38.017 9.40618 38.271 10.5262C38.525 11.6162 39.015 12.7962 39.741 14.0662H41.755C42.081 14.7962 42.499 15.4961 43.007 16.1861C43.515 16.8461 44.023 17.5861 44.531 18.4161H46.545C46.945 19.2161 47.326 19.9262 47.689 20.5462C48.088 21.1262 48.469 21.8662 48.832 22.7762H50.901C51.626 25.0262 52.098 27.126 52.316 29.086C52.534 31.046 52.298 33.296 51.608 35.836H48.015ZM39.196 36.9861C40.358 37.3461 41.428 37.546 42.408 37.586C43.388 37.616 44.332 37.4961 45.239 37.2061C46.146 36.8761 47.072 36.426 48.015 35.836L49.539 37.9061C47.979 38.9261 46.4 39.6362 44.803 40.0362C43.206 40.4362 41.337 40.536 39.196 40.356V36.9861ZM61.244 35.836C62.115 36.206 62.95 36.4961 63.748 36.7161C64.546 36.9261 65.381 36.986 66.252 36.876C67.123 36.766 68.121 36.426 69.246 35.836L70.281 37.9061C69.156 38.9961 67.94 39.7561 66.633 40.1961C65.363 40.6361 64.057 40.6361 62.714 40.1961C61.407 39.7961 60.119 39.0361 58.849 37.9061L61.244 35.836ZM62.115 14.0662C61.462 16.2062 60.935 18.4061 60.536 20.6561C60.173 22.9061 60.028 25.2762 60.101 27.7862C60.21 30.2862 60.591 32.976 61.244 35.836H56.834C56.109 32.646 55.746 29.8361 55.746 27.4061C55.782 24.9361 56.072 22.666 56.617 20.596C57.197 18.496 57.905 16.3162 58.74 14.0662H62.115ZM69.246 35.836C69.392 35.256 69.519 34.7562 69.628 34.3162C69.773 33.8462 69.882 33.3161 69.954 32.7361L70.063 32.086C70.462 31.936 70.807 31.866 71.097 31.866C71.388 31.826 71.66 31.8661 71.914 31.9761C72.168 32.0861 72.44 32.216 72.731 32.356C72.694 33.006 72.64 33.586 72.567 34.096C72.495 34.566 72.404 35.156 72.295 35.836H69.246ZM62.115 14.0662L60.754 11.9961C62.206 11.6361 63.403 11.3761 64.347 11.2361C65.29 11.0861 66.434 11.0162 67.777 11.0162C68.357 11.4862 68.811 11.926 69.138 12.326C69.464 12.726 69.7 13.3062 69.845 14.0662H71.914C72.168 14.9362 72.313 15.786 72.35 16.626C72.422 17.426 72.458 18.3862 72.458 19.5062V19.7862C72.095 19.9662 71.787 20.1061 71.533 20.2161C71.279 20.2861 71.007 20.3062 70.716 20.2762C70.426 20.1962 70.063 20.076 69.628 19.886C69.591 19.786 69.555 19.6562 69.519 19.5062C69.519 19.3662 69.501 19.1861 69.464 18.9661C69.246 17.8061 69.01 16.856 68.757 16.136C68.539 15.406 68.248 14.7162 67.885 14.0662H66.252C65.381 13.8462 64.655 13.7562 64.075 13.7962C63.494 13.8262 62.841 13.9162 62.115 14.0662ZM90.151 35.836L90.695 33.6661C90.877 32.9361 91.004 32.1961 91.077 31.4361C91.476 31.2861 91.802 31.2161 92.056 31.2161C92.347 31.1761 92.619 31.216 92.873 31.326C93.163 31.396 93.472 31.506 93.798 31.646C93.726 32.416 93.635 33.1162 93.526 33.7762C93.417 34.4262 93.309 35.116 93.2 35.836H90.151ZM81.713 35.836C82.62 36.206 83.491 36.4961 84.326 36.7161C85.197 36.9261 86.104 36.986 87.048 36.876C87.992 36.766 89.026 36.426 90.151 35.836L91.131 37.9061C90.042 39.0361 88.826 39.7961 87.484 40.1961C86.141 40.5961 84.762 40.576 83.346 40.146C81.967 39.706 80.661 38.9661 79.427 37.9061L81.713 35.836ZM82.584 14.0662C81.894 16.2062 81.332 18.4061 80.896 20.6561C80.78 21.2561 80.683 21.8661 80.605 22.4861C80.811 22.7261 81.017 22.9162 81.223 23.0462C81.441 23.1562 81.767 23.2161 82.203 23.2161C82.893 23.2461 83.6 23.2862 84.326 23.3162H86.721C87.447 23.3162 87.974 23.2861 88.3 23.2161C88.663 23.1061 89.044 22.9562 89.443 22.7762C89.552 22.3362 89.607 21.936 89.607 21.576C89.643 21.216 89.661 20.7762 89.661 20.2762V19.9961C89.661 18.6961 89.57 17.5861 89.389 16.6761C89.244 15.7761 88.972 14.8962 88.572 14.0662H86.994C86.086 13.8462 85.306 13.7562 84.653 13.7962C84.036 13.8262 83.346 13.9162 82.584 14.0662L80.951 11.9961C82.366 11.5961 83.51 11.3461 84.381 11.2361C85.251 11.0861 86.358 11.0162 87.701 11.0162C88.173 11.4862 88.645 11.946 89.117 12.376C89.589 12.776 89.988 13.3362 90.314 14.0662H92.329C92.909 15.5862 93.309 16.9661 93.526 18.2061C93.744 19.4361 93.835 20.9562 93.798 22.7762C93.798 23.6062 93.762 24.2661 93.69 24.7361C93.617 25.2061 93.436 25.656 93.145 26.096H83.401C82.566 26.096 81.967 26.2261 81.604 26.4761C81.278 26.6961 80.878 26.986 80.406 27.346C80.398 27.226 80.39 27.1161 80.381 26.9961C80.387 27.2561 80.395 27.5262 80.406 27.7862C80.515 30.2862 80.951 32.976 81.713 35.836H77.412C76.65 32.686 76.251 29.8861 76.215 27.4561C76.215 25.0261 76.469 22.7561 76.977 20.6561C77.485 18.5161 78.12 16.3162 78.882 14.0662H82.584ZM133.267 35.836L133.811 33.6661C134.029 32.9361 134.174 32.1961 134.247 31.4361C134.61 31.2861 134.936 31.2161 135.227 31.2161C135.517 31.1761 135.789 31.216 136.043 31.326C136.333 31.396 136.624 31.506 136.914 31.646C136.878 32.416 136.787 33.1162 136.642 33.7762C136.533 34.4262 136.424 35.116 136.315 35.836H133.267ZM124.883 35.836C125.79 36.206 126.661 36.4961 127.496 36.7161C128.367 36.9261 129.256 36.986 130.164 36.876C131.107 36.766 132.142 36.426 133.267 35.836L134.301 37.9061C133.176 39.0361 131.942 39.7961 130.599 40.1961C129.256 40.5961 127.895 40.576 126.516 40.146C125.137 39.706 123.831 38.9661 122.597 37.9061L124.883 35.836ZM125.7 14.0662C125.01 16.2062 124.448 18.4061 124.012 20.6561C123.904 21.2661 123.814 21.8862 123.743 22.5162C123.942 22.7462 124.14 22.9162 124.339 23.0462C124.557 23.1562 124.901 23.2161 125.373 23.2161C126.026 23.2461 126.716 23.2862 127.442 23.3162H129.892C130.581 23.3162 131.107 23.2861 131.47 23.2161C131.833 23.1061 132.214 22.9562 132.613 22.7762C132.722 22.3362 132.777 21.936 132.777 21.576C132.813 21.216 132.831 20.7762 132.831 20.2762V19.9961C132.831 18.6961 132.74 17.5861 132.559 16.6761C132.378 15.7761 132.105 14.8962 131.742 14.0662H130.109C129.238 13.8462 128.476 13.7562 127.823 13.7962C127.206 13.8262 126.498 13.9162 125.7 14.0662L124.067 11.9961C125.482 11.5961 126.625 11.3461 127.496 11.2361C128.404 11.0861 129.529 11.0162 130.871 11.0162C131.343 11.4862 131.815 11.946 132.287 12.376C132.759 12.776 133.14 13.3362 133.43 14.0662H135.499C136.043 15.5862 136.424 16.9661 136.642 18.2061C136.896 19.4361 137.005 20.9562 136.969 22.7762C136.969 23.6062 136.914 24.2661 136.805 24.7361C136.733 25.2061 136.569 25.656 136.315 26.096H126.516C125.718 26.096 125.137 26.2261 124.774 26.4761C124.448 26.6961 124.048 26.986 123.577 27.346C123.57 27.296 123.563 27.2461 123.556 27.1961C123.561 27.3861 123.568 27.5862 123.577 27.7862C123.685 30.2862 124.121 32.976 124.883 35.836H120.582C119.784 32.686 119.367 29.8861 119.33 27.4561C119.33 25.0261 119.584 22.7561 120.092 20.6561C120.601 18.5161 121.254 16.3162 122.052 14.0662H125.7ZM101.692 36.2762C101.656 36.9262 101.747 37.366 101.964 37.586C102.218 37.796 102.545 37.9961 102.944 38.1861C102.98 38.2161 102.999 38.2562 102.999 38.2862H103.162C103.416 38.4762 103.597 38.6161 103.706 38.7261C103.815 38.8361 103.87 39.0162 103.87 39.2662C103.87 39.5262 103.833 39.726 103.761 39.866C103.688 39.976 103.561 40.1061 103.38 40.2461H96.357C96.176 40.1061 96.03 39.976 95.922 39.866C95.849 39.756 95.813 39.5562 95.813 39.2662C95.813 39.0862 95.867 38.946 95.976 38.836C96.085 38.726 96.284 38.576 96.575 38.396C96.647 38.366 96.72 38.3262 96.793 38.2862C96.902 38.2562 96.992 38.196 97.065 38.126C97.319 37.876 97.464 37.616 97.5 37.366C97.573 37.116 97.609 36.7462 97.609 36.2762L97.555 20.4861C97.555 19.1861 97.682 18.0761 97.936 17.1661C98.226 16.2561 98.68 15.2262 99.297 14.0662H101.311C101.492 13.4462 101.765 12.9362 102.128 12.5362C102.491 12.1462 102.853 11.666 103.216 11.126C104.523 11.056 105.594 11.0162 106.428 11.0162C107.299 11.0162 108.388 11.0761 109.695 11.1761C110.094 11.6861 110.42 12.1261 110.675 12.4861C110.965 12.8161 111.292 13.3362 111.654 14.0662H113.669C114.286 15.1562 114.739 16.1362 115.03 17.0062C115.32 17.8362 115.465 18.8961 115.465 20.1661V36.2762C115.465 36.7462 115.501 37.116 115.574 37.366C115.647 37.616 115.792 37.876 116.01 38.126C116.118 38.196 116.209 38.2562 116.282 38.2862C116.391 38.3262 116.5 38.3861 116.608 38.4561C116.899 38.5661 117.116 38.6762 117.262 38.7762C117.407 38.8862 117.479 39.0562 117.479 39.2662C117.479 39.5562 117.443 39.756 117.371 39.866C117.298 39.976 117.153 40.1061 116.935 40.2461H110.076C109.894 40.1061 109.767 39.976 109.695 39.866C109.622 39.726 109.586 39.5262 109.586 39.2662C109.586 39.0562 109.658 38.8862 109.804 38.7762C109.949 38.6362 110.148 38.4762 110.402 38.2862C110.656 38.0762 110.874 37.856 111.056 37.636C111.237 37.386 111.328 36.9262 111.328 36.2762V19.2361C111.328 17.8961 111.146 16.8761 110.783 16.1861C110.457 15.4961 110.021 14.7962 109.477 14.0662H108.443C107.753 13.9562 107.154 13.9061 106.646 13.9061C106.174 13.9061 105.594 13.9562 104.904 14.0662H103.38C102.944 14.7562 102.545 15.446 102.182 16.136C101.855 16.786 101.692 17.7161 101.692 18.9061V36.2762ZM11.432 37.7962C11.432 37.1162 11.596 36.386 11.922 35.626C12.721 35.296 13.465 35.136 14.154 35.136C14.844 35.096 15.57 35.2462 16.332 35.5662C16.658 36.3262 16.822 37.0762 16.822 37.7962C16.858 38.4862 16.713 39.2161 16.386 39.9761C15.588 40.3061 14.844 40.4661 14.154 40.4661C13.465 40.4661 12.739 40.3262 11.977 40.0362C11.65 39.2362 11.469 38.4862 11.432 37.7962Z" fill="black"/>
</svg>
