<svg width="137" height="41" viewBox="0 0 137 41" fill="none" xmlns="http://www.w3.org/2000/svg">
<path fill-rule="evenodd" clip-rule="evenodd" d="M4.355 14.396L2.341 15.7562C1.615 15.0662 1.034 14.2861 0.599 13.4161C0.2 12.5361 0 11.4862 0 10.2562C0.436 9.41616 0.962 8.71604 1.579 8.13604C2.232 7.54604 3.157 7.04601 4.355 6.60601V4.596L6.642 3.77618C7.077 3.59618 7.44 3.43618 7.73 3.28618C8.057 3.14618 8.384 3.04617 8.71 3.01617V0.996146C9.436 0.856146 10.053 0.836097 10.561 0.946097C11.069 1.0161 11.614 1.19614 12.194 1.48614C12.339 2.21614 12.358 2.81618 12.249 3.28618C12.14 3.75618 11.904 4.30607 11.541 4.91607L8.71 5.29619V7.31621C7.912 7.49621 7.15 7.71612 6.424 7.96612C5.698 8.18612 5.008 8.34611 4.355 8.45611V9.11602C3.992 9.50602 3.666 9.92602 3.375 10.366C3.121 10.766 2.994 11.2861 2.994 11.9461C2.994 12.6361 3.121 13.1562 3.375 13.5162C3.666 13.8862 3.992 14.176 4.355 14.396ZM4.355 14.396C5.516 14.466 6.587 14.376 7.567 14.116C8.583 13.826 9.908 13.4261 11.541 12.9261L13.065 12.4861L13.12 17.0562C11.269 17.4962 9.726 17.7861 8.492 17.9261C7.295 18.0761 5.916 18.0262 4.355 17.7662V14.396ZM19.979 22.7762C19.798 22.9562 19.616 23.1162 19.435 23.2662C19.253 23.3762 19.072 23.5161 18.89 23.6961C17.729 24.6461 16.84 25.4262 16.223 26.0462C15.606 26.6262 15.297 27.3261 15.297 28.1661V31.2161C14.971 31.3561 14.662 31.4662 14.372 31.5362C14.082 31.5762 13.791 31.5561 13.501 31.4861C13.247 31.4161 12.938 31.3061 12.575 31.1561V28.5462C12.575 27.3462 12.739 26.4061 13.065 25.7161C13.392 24.9861 13.809 24.1361 14.318 23.1561L14.535 22.7762H16.495C16.749 22.2662 17.058 21.8462 17.421 21.5262C17.783 21.1562 18.183 20.7261 18.618 20.2161C18.872 19.8861 19.163 19.616 19.489 19.396C19.816 19.146 20.142 18.8161 20.469 18.4161H22.483C22.991 17.6261 23.373 16.9461 23.627 16.4061C23.917 15.8261 24.062 15.0462 24.062 14.0662H26.131V12.0562H24.77C24.516 11.6862 24.171 11.376 23.735 11.126C23.3 10.876 22.756 10.7461 22.102 10.7461C21.34 10.7461 20.596 10.856 19.87 11.076C19.181 11.286 18.364 11.546 17.421 11.836V13.846L13.12 15.0462L13.065 10.5262C13.682 10.4162 14.336 10.276 15.025 10.096C15.715 9.876 16.513 9.67615 17.421 9.49615V7.47613C19.017 7.22613 20.469 7.11606 21.776 7.15606C23.118 7.18606 24.57 7.60606 26.131 8.40606V10.586L28.145 10.366C28.326 11.016 28.49 11.6161 28.635 12.1561C28.78 12.7061 28.889 13.3362 28.962 14.0662H27.002C27.074 14.8662 27.093 15.5861 27.056 16.2461C27.056 16.8961 26.965 17.6261 26.784 18.4161H24.824C24.606 19.2961 24.244 20.0361 23.735 20.6561C23.227 21.2661 22.647 21.9762 21.993 22.7762H19.979ZM39.196 37.0362L37.182 38.396C36.275 37.786 35.549 37.276 35.004 36.876C34.46 36.436 34.188 35.856 34.188 35.136L34.079 32.3062L34.024 28.1661C34.351 28.0161 34.641 27.906 34.895 27.836C35.186 27.726 35.476 27.7162 35.766 27.7862C36.093 27.8162 36.438 27.926 36.801 28.106L36.91 28.9261C37.164 30.7061 37.454 32.196 37.781 33.396C38.144 34.556 38.615 35.7662 39.196 37.0362ZM39.196 4.10601V1.16607C40.938 0.836068 42.481 0.696126 43.823 0.726126C45.166 0.766126 46.527 0.856146 47.906 0.996146V3.01617C48.741 3.15617 49.394 3.32616 49.866 3.50616C50.374 3.64616 50.864 3.84601 51.336 4.10601C51.336 5.62601 51.354 7.046 51.39 8.346C51.427 9.616 51.445 11.056 51.445 12.646C51.118 12.836 50.81 12.9562 50.519 13.0262C50.229 13.1062 49.921 13.126 49.594 13.086C49.304 13.016 48.977 12.8861 48.614 12.7061C48.469 11.6561 48.342 10.8362 48.233 10.2562C48.124 9.63616 48.015 8.94609 47.906 8.18609V6.38604C46.926 5.40604 45.983 4.70617 45.076 4.26617C44.205 3.79617 43.297 3.5562 42.354 3.5562C41.41 3.5562 40.358 3.73601 39.196 4.10601ZM48.015 35.836C48.56 33.156 48.578 30.8661 48.07 28.9861C47.598 27.0561 46.872 24.9862 45.892 22.7762H43.878C43.66 22.3362 43.406 21.956 43.116 21.636C42.862 21.306 42.59 20.9061 42.299 20.4361C42.081 20.0761 41.846 19.7461 41.591 19.4561C41.374 19.1661 41.138 18.8161 40.884 18.4161H38.924C38.343 17.5161 37.89 16.7661 37.563 16.1861C37.236 15.5761 36.982 14.8662 36.801 14.0662H34.786C34.533 13.0862 34.315 11.9761 34.133 10.7461C33.988 9.50615 34.115 8.23609 34.514 6.93609C34.914 5.62609 35.803 4.35603 37.182 3.12603L39.196 4.10601C38.652 5.15601 38.289 6.20616 38.107 7.25616C37.962 8.31616 38.017 9.40618 38.271 10.5262C38.525 11.6162 39.015 12.7962 39.741 14.0662H41.7C42.027 14.7962 42.444 15.4961 42.952 16.1861C43.497 16.8461 44.023 17.5861 44.531 18.4161H46.545C46.945 19.2161 47.326 19.9262 47.689 20.5462C48.088 21.1262 48.469 21.8662 48.832 22.7762H50.846C51.608 25.0262 52.098 27.126 52.316 29.086C52.534 31.046 52.298 33.296 51.608 35.836H48.015ZM39.196 37.0362C40.358 37.3662 41.428 37.566 42.408 37.636C43.388 37.676 44.332 37.5462 45.239 37.2562C46.146 36.9262 47.072 36.456 48.015 35.836L49.594 37.856C48.033 38.906 46.437 39.656 44.803 40.086C43.206 40.486 41.337 40.576 39.196 40.356V37.0362ZM69.192 35.836C69.374 35.256 69.519 34.7562 69.628 34.3162C69.773 33.8462 69.882 33.3161 69.954 32.7361L70.063 32.086C70.462 31.936 70.807 31.866 71.097 31.866C71.388 31.826 71.66 31.8661 71.914 31.9761C72.168 32.0861 72.44 32.2261 72.731 32.4161C72.694 33.0661 72.64 33.626 72.567 34.096C72.495 34.566 72.404 35.156 72.295 35.836H69.192ZM61.244 35.836C62.115 36.206 62.932 36.5162 63.694 36.7662C64.492 36.9862 65.327 37.0361 66.198 36.9261C67.105 36.7861 68.103 36.426 69.192 35.836L70.281 37.856C69.156 38.976 67.94 39.7561 66.633 40.1961C65.363 40.6361 64.057 40.6361 62.714 40.1961C61.371 39.7961 60.083 39.016 58.849 37.856L61.244 35.836ZM62.115 14.0662C61.462 16.1662 60.935 18.3661 60.536 20.6561C60.173 22.9061 60.028 25.2762 60.101 27.7862C60.21 30.2862 60.591 32.976 61.244 35.836H56.834C56.072 32.646 55.709 29.8361 55.746 27.4061C55.782 24.9361 56.09 22.6462 56.671 20.5462C57.252 18.4362 57.941 16.2762 58.74 14.0662H62.115ZM62.115 14.0662L60.754 12.0562C62.206 11.6562 63.403 11.3761 64.347 11.2361C65.29 11.0861 66.416 11.0162 67.722 11.0162C68.339 11.4862 68.811 11.926 69.138 12.326C69.464 12.726 69.7 13.3062 69.845 14.0662H71.86C72.114 14.9362 72.259 15.786 72.295 16.626C72.368 17.426 72.404 18.3862 72.404 19.5062V19.836C72.077 19.976 71.787 20.1061 71.533 20.2161C71.279 20.2861 71.007 20.3062 70.716 20.2762C70.426 20.1962 70.063 20.0861 69.628 19.9461L69.519 19.5062C69.519 19.3662 69.501 19.1962 69.464 19.0162C69.246 17.8562 69.01 16.9161 68.757 16.1861C68.502 15.4261 68.194 14.7162 67.831 14.0662H66.252C65.381 13.8462 64.655 13.7562 64.075 13.7962C63.494 13.8262 62.841 13.9162 62.115 14.0662ZM90.097 35.836C90.314 35.156 90.514 34.4461 90.695 33.7161C90.877 32.9561 91.004 32.1961 91.077 31.4361C91.439 31.2861 91.766 31.2161 92.056 31.2161C92.347 31.1761 92.619 31.216 92.873 31.326C93.127 31.396 93.417 31.506 93.744 31.646C93.708 32.416 93.617 33.1162 93.472 33.7762C93.363 34.4262 93.254 35.116 93.145 35.836H90.097ZM81.713 35.836C82.584 36.206 83.455 36.5162 84.326 36.7662C85.197 36.9862 86.086 37.0361 86.994 36.9261C87.937 36.7861 88.972 36.426 90.097 35.836L91.131 37.856C90.042 39.016 88.808 39.7961 87.429 40.1961C86.086 40.5961 84.707 40.576 83.292 40.146C81.913 39.706 80.606 38.946 79.372 37.856L81.713 35.836ZM82.584 14.0662C81.858 16.1662 81.278 18.3661 80.842 20.6561C80.726 21.2561 80.629 21.8661 80.551 22.4861C80.757 22.7261 80.963 22.9162 81.169 23.0462C81.386 23.1562 81.713 23.2262 82.149 23.2662C82.838 23.2662 83.546 23.2862 84.272 23.3162H86.667C87.393 23.3162 87.937 23.2861 88.3 23.2161C88.663 23.1061 89.044 22.9562 89.443 22.7762C89.516 22.3362 89.552 21.936 89.552 21.576C89.589 21.216 89.607 20.796 89.607 20.326V19.9961C89.607 18.6961 89.516 17.5861 89.334 16.6761C89.189 15.7761 88.917 14.8962 88.518 14.0662H86.994C86.086 13.8462 85.306 13.7562 84.653 13.7962C84.036 13.8262 83.346 13.9162 82.584 14.0662L80.896 12.0562C82.312 11.6162 83.455 11.3461 84.326 11.2361C85.197 11.1261 86.304 11.076 87.647 11.076C88.119 11.506 88.59 11.946 89.062 12.376C89.57 12.776 89.97 13.3362 90.26 14.0662H92.274C92.855 15.5862 93.254 16.9661 93.472 18.2061C93.726 19.4361 93.835 20.9562 93.798 22.7762C93.798 23.6062 93.744 24.2661 93.635 24.7361C93.563 25.2061 93.381 25.656 93.091 26.096H83.292C82.493 26.096 81.913 26.2261 81.55 26.4761C81.223 26.6961 80.824 26.986 80.352 27.346C80.341 27.196 80.332 27.046 80.324 26.896C80.329 27.206 80.339 27.526 80.352 27.836C80.461 30.346 80.915 33.006 81.713 35.836H77.412C76.614 32.716 76.197 29.9261 76.16 27.4561C76.16 24.9861 76.414 22.706 76.922 20.596C77.467 18.456 78.12 16.2762 78.882 14.0662H82.584ZM133.267 35.836C133.448 35.156 133.63 34.4461 133.811 33.7161C133.993 32.9561 134.12 32.1961 134.192 31.4361C134.591 31.2861 134.918 31.2161 135.172 31.2161C135.462 31.1761 135.735 31.216 135.989 31.326C136.279 31.396 136.588 31.506 136.914 31.646C136.842 32.416 136.733 33.1162 136.588 33.7762C136.479 34.4262 136.37 35.116 136.261 35.836H133.267ZM124.829 35.836C125.736 36.206 126.607 36.5162 127.442 36.7662C128.313 36.9862 129.22 37.0361 130.164 36.9261C131.107 36.7861 132.142 36.426 133.267 35.836L134.247 37.856C133.158 39.016 131.942 39.7961 130.599 40.1961C129.256 40.5961 127.877 40.576 126.462 40.146C125.046 39.706 123.74 38.946 122.542 37.856L124.829 35.836ZM125.7 14.0662C125.01 16.1662 124.448 18.3661 124.012 20.6561C123.892 21.2761 123.793 21.9062 123.715 22.5462C123.905 22.7562 124.095 22.9262 124.284 23.0462C124.502 23.1562 124.829 23.2262 125.264 23.2662C125.954 23.2662 126.661 23.2862 127.387 23.3162H129.837C130.563 23.3162 131.089 23.2861 131.416 23.2161C131.779 23.1061 132.16 22.9562 132.559 22.7762C132.668 22.3362 132.722 21.936 132.722 21.576C132.759 21.216 132.777 20.796 132.777 20.326V19.9961C132.777 18.6961 132.686 17.5861 132.505 16.6761C132.323 15.7761 132.051 14.8962 131.688 14.0662H130.109C129.238 13.8462 128.476 13.7562 127.823 13.7962C127.17 13.8262 126.462 13.9162 125.7 14.0662L124.012 12.0562C125.428 11.6162 126.571 11.3461 127.442 11.2361C128.349 11.1261 129.456 11.076 130.763 11.076C131.271 11.506 131.761 11.946 132.232 12.376C132.704 12.776 133.103 13.3362 133.43 14.0662H135.39C135.971 15.5862 136.37 16.9661 136.588 18.2061C136.842 19.4361 136.95 20.9562 136.914 22.7762C136.914 23.6062 136.86 24.2661 136.751 24.7361C136.678 25.2061 136.515 25.656 136.261 26.096H126.462C125.627 26.096 125.028 26.2261 124.665 26.4761C124.339 26.6961 123.958 26.986 123.522 27.346C123.513 27.226 123.504 27.0961 123.496 26.9861C123.501 27.2661 123.51 27.546 123.522 27.836C123.631 30.346 124.067 33.006 124.829 35.836H120.528C119.73 32.716 119.312 29.9261 119.276 27.4561C119.276 24.9861 119.53 22.706 120.038 20.596C120.582 18.456 121.254 16.2762 122.052 14.0662H125.7ZM101.638 36.2762C101.601 36.9662 101.692 37.416 101.91 37.636C102.164 37.816 102.491 38.0161 102.89 38.2361C102.926 38.2761 102.962 38.2862 102.999 38.2862C103.035 38.2862 103.071 38.306 103.108 38.346C103.398 38.486 103.597 38.6161 103.706 38.7261C103.815 38.8361 103.87 39.036 103.87 39.326C103.87 39.576 103.815 39.756 103.706 39.866C103.634 39.976 103.507 40.1061 103.325 40.2461H96.303C96.085 40.1061 95.922 39.976 95.813 39.866C95.74 39.756 95.704 39.5562 95.704 39.2662C95.704 39.0862 95.758 38.946 95.867 38.836C96.012 38.726 96.23 38.5961 96.52 38.4561C96.593 38.3861 96.666 38.3262 96.738 38.2862C96.847 38.2562 96.938 38.196 97.01 38.126C97.264 37.876 97.41 37.616 97.446 37.366C97.518 37.116 97.555 36.7462 97.555 36.2762L97.5 20.4861C97.5 19.1861 97.627 18.0761 97.881 17.1661C98.172 16.2561 98.625 15.2262 99.242 14.0662H101.257C101.438 13.4462 101.71 12.9362 102.073 12.5362C102.436 12.1462 102.817 11.6861 103.216 11.1761C104.487 11.0761 105.539 11.0162 106.374 11.0162C107.245 11.0162 108.334 11.0761 109.64 11.1761C110.039 11.7261 110.384 12.1762 110.675 12.5362C110.965 12.8662 111.273 13.3762 111.6 14.0662H113.614C114.231 15.1562 114.685 16.1362 114.975 17.0062C115.266 17.8362 115.411 18.8961 115.411 20.1661L115.465 36.2762C115.465 36.7462 115.483 37.116 115.52 37.366C115.592 37.616 115.756 37.876 116.01 38.126C116.082 38.196 116.173 38.2562 116.282 38.2862C116.391 38.3262 116.5 38.3861 116.608 38.4561C116.899 38.5661 117.116 38.6762 117.262 38.7762C117.407 38.8862 117.479 39.066 117.479 39.326C117.479 39.616 117.443 39.8161 117.371 39.9261C117.298 39.9961 117.153 40.1061 116.935 40.2461H110.021C109.84 40.1061 109.695 39.976 109.586 39.866C109.513 39.756 109.477 39.576 109.477 39.326C109.477 39.066 109.549 38.8862 109.695 38.7762C109.84 38.6362 110.076 38.4762 110.402 38.2862C110.656 38.0762 110.874 37.856 111.056 37.636C111.237 37.416 111.31 36.9662 111.273 36.2762V19.2361C111.273 17.8961 111.092 16.8761 110.729 16.1861C110.402 15.4961 109.967 14.7962 109.422 14.0662H108.388C107.699 13.9562 107.1 13.9061 106.592 13.9061C106.12 13.9061 105.539 13.9562 104.85 14.0662H103.38C102.908 14.7562 102.491 15.446 102.128 16.136C101.801 16.786 101.638 17.7161 101.638 18.9061V36.2762ZM11.432 37.7962C11.432 37.1162 11.596 36.386 11.922 35.626C12.684 35.256 13.41 35.076 14.1 35.076C14.826 35.076 15.57 35.2462 16.332 35.5662C16.658 36.3262 16.822 37.0762 16.822 37.7962C16.858 38.4862 16.713 39.2161 16.386 39.9761C15.588 40.3061 14.844 40.4661 14.154 40.4661C13.465 40.4661 12.721 40.3262 11.922 40.0362C11.596 39.2362 11.432 38.4862 11.432 37.7962Z" fill="black"/>
</svg>
