<svg width="137" height="41" viewBox="0 0 137 41" fill="none" xmlns="http://www.w3.org/2000/svg">
<path fill-rule="evenodd" clip-rule="evenodd" d="M4.355 14.3961L2.395 15.8062C1.633 15.1162 1.034 14.3361 0.599 13.4661C0.2 12.5561 0 11.4862 0 10.2562C0.436 9.41618 0.962 8.71606 1.579 8.13607C2.232 7.51607 3.157 6.98623 4.355 6.55623V4.59603L6.642 3.72615C7.077 3.53615 7.44 3.39621 7.73 3.28621C8.057 3.14621 8.384 3.03613 8.71 2.95613V0.996173C9.436 0.856173 10.053 0.836124 10.561 0.946124C11.069 1.01612 11.614 1.19616 12.194 1.48616C12.339 2.21616 12.339 2.81621 12.194 3.28621C12.086 3.75621 11.85 4.30609 11.487 4.91609L8.71 5.29622V7.25618C7.912 7.44618 7.15 7.65609 6.424 7.91609C5.698 8.16609 5.008 8.34613 4.355 8.45613V9.05623C3.992 9.49623 3.666 9.92605 3.375 10.366C3.121 10.766 2.994 11.2861 2.994 11.9461C2.994 12.6361 3.121 13.1562 3.375 13.5162C3.666 13.8862 3.992 14.1761 4.355 14.3961ZM4.355 14.3961C5.516 14.4661 6.587 14.376 7.567 14.116C8.583 13.826 9.908 13.4261 11.541 12.9261L13.065 12.4862L13.12 17.0062C11.269 17.4762 9.726 17.7861 8.492 17.9261C7.259 18.0761 5.879 18.0262 4.355 17.7662V14.3961ZM20.034 22.7762C19.852 22.9562 19.671 23.1162 19.489 23.2662C19.308 23.3762 19.126 23.5161 18.945 23.6961C17.711 24.6461 16.785 25.4262 16.168 26.0462C15.551 26.6262 15.243 27.3261 15.243 28.1661V31.1561C14.916 31.3361 14.608 31.4662 14.318 31.5362C14.063 31.5762 13.791 31.5562 13.501 31.4862C13.211 31.4162 12.902 31.3061 12.575 31.1561V28.5462C12.575 27.3462 12.739 26.3861 13.065 25.6561C13.392 24.9361 13.809 24.0961 14.318 23.1561L14.535 22.7762H16.495C16.749 22.2662 17.058 21.8462 17.421 21.5262C17.783 21.1562 18.183 20.7261 18.618 20.2161C18.909 19.8861 19.217 19.6161 19.544 19.3961C19.87 19.1461 20.197 18.8161 20.523 18.4161H22.483C22.991 17.6261 23.373 16.9461 23.627 16.4061C23.917 15.8261 24.062 15.0462 24.062 14.0662H26.131V12.106H24.77C24.516 11.746 24.171 11.4361 23.735 11.1761C23.336 10.9261 22.792 10.7962 22.102 10.7962C21.376 10.7962 20.651 10.9061 19.925 11.1261C19.199 11.3061 18.364 11.5661 17.421 11.8861V13.846L13.12 15.0462L13.065 10.5262C13.682 10.4162 14.336 10.276 15.025 10.096C15.715 9.87603 16.513 9.67617 17.421 9.49617V7.53621C19.017 7.27621 20.469 7.16613 21.776 7.20613C23.118 7.20613 24.57 7.62613 26.131 8.45613V10.586L28.09 10.4161C28.272 11.0361 28.435 11.6161 28.581 12.1561C28.762 12.7061 28.889 13.3362 28.962 14.0662H27.002C27.111 14.8662 27.147 15.5862 27.111 16.2462C27.111 16.8962 27.02 17.6261 26.838 18.4161H24.879C24.661 19.2961 24.298 20.0561 23.79 20.7061C23.282 21.3261 22.683 22.0162 21.993 22.7762H20.034ZM39.196 37.0362L37.236 38.3961C36.329 37.8161 35.585 37.3261 35.004 36.9261C34.424 36.4961 34.133 35.9161 34.133 35.1861L34.079 32.3062L34.024 28.2161C34.351 28.0361 34.641 27.906 34.895 27.836C35.186 27.726 35.476 27.7162 35.766 27.7862C36.057 27.8162 36.383 27.926 36.746 28.106L36.91 28.9862C37.164 30.7562 37.454 32.2461 37.781 33.4461C38.107 34.6061 38.579 35.8062 39.196 37.0362ZM39.196 4.04622V1.16609C40.938 0.796094 42.481 0.656153 43.823 0.726153C45.166 0.766153 46.527 0.856173 47.906 0.996173V2.95613C48.741 3.10613 49.394 3.26612 49.866 3.44612C50.374 3.59612 50.846 3.79622 51.282 4.04622C51.318 5.57622 51.354 6.98622 51.39 8.29622C51.427 9.60622 51.445 11.0561 51.445 12.6461C51.118 12.8361 50.81 12.9562 50.519 13.0262C50.229 13.1062 49.921 13.126 49.594 13.086C49.304 13.016 48.977 12.8861 48.614 12.7061C48.469 11.6561 48.342 10.8161 48.233 10.1961C48.124 9.58612 48.015 8.89606 47.906 8.13607V6.38607C46.926 5.40606 45.983 4.68614 45.076 4.21614C44.205 3.73614 43.297 3.50618 42.354 3.50618C41.41 3.50618 40.358 3.68622 39.196 4.04622ZM48.015 35.836C48.56 33.196 48.578 30.9062 48.07 28.9862C47.598 27.0562 46.872 24.9862 45.892 22.7762H43.932C43.678 22.3362 43.406 21.9561 43.116 21.6361C42.862 21.3061 42.59 20.9061 42.299 20.4361C42.081 20.0761 41.846 19.7461 41.591 19.4561C41.337 19.1661 41.083 18.8161 40.829 18.4161H38.87C38.325 17.5161 37.871 16.7461 37.509 16.1361C37.182 15.5161 36.928 14.8262 36.746 14.0662H34.786C34.533 13.0862 34.315 11.9762 34.133 10.7462C33.988 9.50617 34.115 8.23611 34.514 6.93611C34.95 5.62611 35.857 4.35606 37.236 3.12606L39.196 4.04622C38.652 5.13622 38.289 6.20618 38.107 7.25618C37.926 8.27618 37.962 9.34615 38.216 10.4762C38.507 11.5962 39.015 12.7962 39.741 14.0662H41.7C42.027 14.7962 42.444 15.4961 42.952 16.1861C43.497 16.8461 44.023 17.5861 44.531 18.4161H46.491C46.926 19.2161 47.326 19.9262 47.689 20.5462C48.088 21.1262 48.487 21.8662 48.886 22.7762H50.846C51.608 24.9862 52.098 27.096 52.316 29.086C52.534 31.046 52.28 33.296 51.554 35.836H48.015ZM39.196 37.0362C40.358 37.4062 41.428 37.6061 42.408 37.6361C43.424 37.6761 44.386 37.5462 45.293 37.2562C46.201 36.9262 47.108 36.456 48.015 35.836L49.594 37.7962C48.033 38.8862 46.455 39.656 44.858 40.086C43.261 40.486 41.374 40.576 39.196 40.356V37.0362ZM62.115 14.0662C61.462 16.1662 60.935 18.346 60.536 20.596C60.137 22.846 59.992 25.2462 60.101 27.7862C60.21 30.2862 60.591 32.976 61.244 35.836H56.834C56.072 32.646 55.709 29.816 55.746 27.346C55.782 24.876 56.09 22.5962 56.671 20.4862C57.252 18.3862 57.959 16.2462 58.794 14.0662H62.115ZM62.115 14.0662L60.754 12.106C62.169 11.706 63.349 11.4362 64.293 11.2862C65.272 11.1462 66.416 11.076 67.722 11.076C68.339 11.506 68.811 11.9461 69.138 12.3761C69.464 12.7761 69.7 13.3362 69.845 14.0662H71.805C72.059 14.9362 72.222 15.7861 72.295 16.6261C72.368 17.4561 72.404 18.4362 72.404 19.5662V19.836C72.077 20.016 71.787 20.1662 71.533 20.2762C71.279 20.3462 71.007 20.366 70.716 20.326C70.426 20.256 70.063 20.1261 69.628 19.9461C69.591 19.8361 69.555 19.7062 69.519 19.5662C69.519 19.4162 69.501 19.2362 69.464 19.0162C69.246 17.8562 69.01 16.9161 68.757 16.1861C68.502 15.4261 68.176 14.7162 67.777 14.0662H66.252C65.381 13.8462 64.655 13.7562 64.075 13.7962C63.494 13.8262 62.841 13.9162 62.115 14.0662ZM69.192 35.836C69.374 35.296 69.519 34.7862 69.628 34.3162C69.773 33.8462 69.882 33.3162 69.954 32.7362L70.063 32.1361C70.462 31.9561 70.807 31.866 71.097 31.866C71.388 31.866 71.642 31.9262 71.86 32.0262C72.114 32.1362 72.386 32.2661 72.676 32.4161C72.64 33.0661 72.585 33.626 72.513 34.096C72.44 34.566 72.35 35.156 72.241 35.836H69.192ZM61.244 35.836C62.115 36.206 62.932 36.5162 63.694 36.7662C64.492 36.9862 65.327 37.0361 66.198 36.9261C67.105 36.8161 68.103 36.456 69.192 35.836L70.281 37.7962C69.156 38.9662 67.94 39.7561 66.633 40.1961C65.363 40.6361 64.038 40.6361 62.659 40.1961C61.317 39.7961 60.028 38.9962 58.794 37.7962L61.244 35.836ZM90.097 35.836C90.278 35.156 90.46 34.4461 90.641 33.7161C90.859 32.9561 91.004 32.1961 91.077 31.4361C91.439 31.2861 91.766 31.1961 92.056 31.1561C92.347 31.1261 92.619 31.1562 92.873 31.2662C93.127 31.3762 93.399 31.5061 93.69 31.6461C93.653 32.4161 93.563 33.136 93.417 33.826C93.309 34.476 93.2 35.156 93.091 35.836H90.097ZM81.713 35.836C82.584 36.206 83.437 36.5162 84.272 36.7662C85.143 36.9862 86.05 37.0361 86.994 36.9261C87.937 36.8161 88.972 36.456 90.097 35.836L91.131 37.7962C90.042 38.9662 88.808 39.7561 87.429 40.1961C86.086 40.5961 84.707 40.5761 83.292 40.1461C81.876 39.7061 80.552 38.9262 79.318 37.7962L81.713 35.836ZM82.584 14.0662C81.858 16.1362 81.278 18.316 80.842 20.596C80.719 21.226 80.618 21.8762 80.538 22.5362C80.73 22.7562 80.922 22.9262 81.114 23.0462C81.332 23.1562 81.659 23.2262 82.094 23.2662C82.747 23.2662 83.455 23.2862 84.217 23.3162H86.667C87.393 23.3162 87.919 23.2861 88.246 23.2161C88.609 23.1061 88.99 22.9562 89.389 22.7762C89.498 22.3362 89.552 21.936 89.552 21.576C89.589 21.216 89.607 20.796 89.607 20.326V19.9962C89.607 18.6962 89.516 17.5861 89.334 16.6761C89.153 15.7761 88.863 14.8962 88.463 14.0662H86.939C86.068 13.8162 85.306 13.7162 84.653 13.7962C84.036 13.8262 83.346 13.9162 82.584 14.0662L80.842 12.106C82.257 11.666 83.401 11.3962 84.272 11.2862C85.143 11.1462 86.231 11.076 87.538 11.076C88.046 11.506 88.536 11.9461 89.008 12.3761C89.516 12.7761 89.933 13.3362 90.26 14.0662H92.22C92.8 15.5562 93.2 16.9361 93.417 18.2061C93.671 19.4361 93.78 20.9562 93.744 22.7762C93.744 23.6062 93.69 24.2662 93.581 24.7362C93.508 25.1662 93.327 25.6062 93.036 26.0462C92.202 26.0762 91.312 26.096 90.369 26.096C89.425 26.056 88.246 26.0462 86.83 26.0462H83.237C82.403 26.0462 81.822 26.1661 81.495 26.4261C81.177 26.6661 80.791 26.9662 80.335 27.3162C80.34 27.4762 80.345 27.6262 80.352 27.7862C80.461 30.3262 80.915 33.006 81.713 35.836H77.358C76.559 32.716 76.142 29.9261 76.106 27.4561C76.106 24.9861 76.36 22.6862 76.868 20.5462C77.412 18.4062 78.084 16.2462 78.882 14.0662H82.584ZM133.212 35.836C133.394 35.156 133.575 34.4461 133.757 33.7161C133.974 32.9561 134.12 32.1961 134.192 31.4361C134.555 31.2861 134.882 31.1961 135.172 31.1561C135.462 31.1261 135.735 31.1562 135.989 31.2662C136.243 31.3762 136.533 31.5061 136.86 31.6461C136.787 32.4161 136.678 33.136 136.533 33.826C136.424 34.476 136.315 35.156 136.206 35.836H133.212ZM124.829 35.836C125.7 36.206 126.571 36.5162 127.442 36.7662C128.313 36.9862 129.202 37.0361 130.109 36.9261C131.053 36.8161 132.087 36.456 133.212 35.836L134.247 37.7962C133.158 38.9662 131.924 39.7561 130.545 40.1961C129.202 40.5961 127.823 40.5761 126.407 40.1461C124.992 39.7061 123.667 38.9262 122.433 37.7962L124.829 35.836ZM125.7 14.0662C124.974 16.1362 124.393 18.316 123.958 20.596C123.835 21.226 123.734 21.8762 123.654 22.5362C123.846 22.7562 124.038 22.9262 124.23 23.0462C124.448 23.1562 124.774 23.2262 125.21 23.2662C125.899 23.2662 126.607 23.2862 127.333 23.3162H129.783C130.508 23.3162 131.035 23.2861 131.361 23.2161C131.724 23.1061 132.105 22.9562 132.505 22.7762C132.613 22.3362 132.668 21.936 132.668 21.576C132.704 21.216 132.722 20.796 132.722 20.326V19.9962C132.722 18.6962 132.632 17.5861 132.45 16.6761C132.269 15.7761 131.997 14.8962 131.634 14.0662H130.055C129.184 13.8162 128.422 13.7162 127.768 13.7962C127.151 13.8262 126.462 13.9162 125.7 14.0662L124.012 12.106C125.391 11.666 126.516 11.3962 127.387 11.2862C128.295 11.1462 129.402 11.076 130.708 11.076C131.18 11.506 131.652 11.9461 132.124 12.3761C132.632 12.7761 133.049 13.3362 133.376 14.0662H135.335C135.916 15.5562 136.315 16.9361 136.533 18.2061C136.787 19.4361 136.896 20.9562 136.86 22.7762C136.86 23.6062 136.805 24.2662 136.696 24.7362C136.624 25.1662 136.46 25.6062 136.206 26.0462C135.335 26.0762 134.428 26.096 133.484 26.096C132.541 26.056 131.361 26.0462 129.946 26.0462H126.353C125.555 26.0462 124.974 26.1661 124.611 26.4261C124.284 26.6761 123.903 26.986 123.468 27.346C123.46 27.226 123.451 27.1162 123.443 27.0062C123.448 27.2662 123.457 27.5262 123.468 27.7862C123.577 30.3262 124.03 33.006 124.829 35.836H120.528C119.73 32.716 119.312 29.9261 119.276 27.4561C119.24 24.9861 119.494 22.6862 120.038 20.5462C120.582 18.4062 121.254 16.2462 122.052 14.0662H125.7ZM101.583 36.2762C101.547 36.9662 101.638 37.4161 101.855 37.6361C102.109 37.8561 102.454 38.0562 102.89 38.2362C102.926 38.2762 102.944 38.2862 102.944 38.2862C102.98 38.2862 103.035 38.306 103.108 38.346C103.398 38.486 103.597 38.6162 103.706 38.7262C103.815 38.8362 103.87 39.036 103.87 39.326C103.87 39.576 103.815 39.756 103.706 39.866C103.634 39.976 103.507 40.1062 103.325 40.2462H96.248C96.03 40.1462 95.867 40.0361 95.758 39.9261C95.686 39.7761 95.649 39.5562 95.649 39.2662C95.649 39.0862 95.704 38.946 95.813 38.836C95.922 38.726 96.139 38.5961 96.466 38.4561C96.539 38.3861 96.611 38.3262 96.684 38.2862C96.793 38.2562 96.883 38.1961 96.956 38.1261C97.21 37.8761 97.355 37.616 97.391 37.366C97.464 37.116 97.5 36.7462 97.5 36.2762L97.446 20.4862C97.446 19.1862 97.591 18.0761 97.881 17.1661C98.172 16.2261 98.625 15.1862 99.242 14.0662H101.202C101.384 13.4462 101.656 12.9362 102.019 12.5362C102.418 12.1462 102.799 11.6861 103.162 11.1761C104.432 11.1061 105.503 11.076 106.374 11.076C107.245 11.076 108.316 11.1262 109.586 11.2362C109.985 11.7462 110.33 12.1762 110.62 12.5362C110.91 12.8662 111.237 13.3762 111.6 14.0662H113.56C114.177 15.1562 114.63 16.1362 114.921 17.0062C115.211 17.8762 115.356 18.9261 115.356 20.1661L115.411 36.2762C115.411 36.7462 115.447 37.116 115.52 37.366C115.592 37.616 115.737 37.8761 115.955 38.1261C116.064 38.1961 116.173 38.2562 116.282 38.2862C116.391 38.3262 116.481 38.3861 116.554 38.4561C116.881 38.5961 117.116 38.726 117.262 38.836C117.407 38.946 117.479 39.106 117.479 39.326C117.479 39.616 117.443 39.8161 117.371 39.9261C117.298 40.0361 117.135 40.1462 116.881 40.2462H109.967C109.785 40.1462 109.64 40.0361 109.531 39.9261C109.459 39.7761 109.422 39.576 109.422 39.326C109.422 39.066 109.495 38.8862 109.64 38.7762C109.785 38.6362 110.021 38.4762 110.348 38.2862C110.602 38.1062 110.82 37.9061 111.001 37.6961C111.183 37.4361 111.273 36.9662 111.273 36.2762V19.1861C111.273 17.8761 111.092 16.8761 110.729 16.1861C110.366 15.4961 109.894 14.7962 109.314 14.0662H108.334C107.644 13.9562 107.045 13.9061 106.537 13.9061C106.065 13.9061 105.485 13.9562 104.795 14.0662H103.38C102.872 14.7562 102.436 15.4461 102.073 16.1361C101.747 16.7861 101.583 17.7161 101.583 18.9061V36.2762ZM11.378 37.7962C11.378 37.1162 11.559 36.3861 11.922 35.6261C12.684 35.2561 13.41 35.076 14.1 35.076C14.826 35.076 15.57 35.2262 16.332 35.5162C16.658 36.3162 16.822 37.0762 16.822 37.7962C16.858 38.4862 16.695 39.2162 16.332 39.9762C15.57 40.3062 14.826 40.4661 14.1 40.4661C13.41 40.5061 12.684 40.3562 11.922 40.0362C11.596 39.2362 11.414 38.4862 11.378 37.7962Z" fill="black"/>
</svg>
