<svg width="137" height="41" viewBox="0 0 137 41" fill="none" xmlns="http://www.w3.org/2000/svg">
<path fill-rule="evenodd" clip-rule="evenodd" d="M4.355 14.3961C5.516 14.4661 6.587 14.376 7.567 14.116C8.583 13.826 9.908 13.4261 11.541 12.9261L13.065 12.4361L13.12 17.0062C11.269 17.4762 9.726 17.7861 8.492 17.9261C7.259 18.0761 5.879 18.0262 4.355 17.7662V14.3961ZM4.355 14.3961L2.45 15.866C1.688 15.136 1.089 14.3361 0.653 13.4661C0.218 12.5561 0 11.5062 0 10.3062C0.399 9.43623 0.925 8.69601 1.579 8.07601C2.232 7.45601 3.157 6.93617 4.355 6.49617V4.53621L6.642 3.72615C7.077 3.53615 7.44 3.37616 7.73 3.23616C8.057 3.08616 8.384 2.97608 8.71 2.90608V0.996173C9.436 0.856173 10.053 0.836124 10.561 0.946124C11.069 1.01612 11.614 1.19616 12.194 1.48616C12.339 2.21616 12.339 2.81621 12.194 3.28621C12.086 3.75621 11.85 4.30609 11.487 4.91609L8.71 5.29622V7.25618C7.912 7.40618 7.132 7.60604 6.369 7.85604C5.644 8.11604 4.972 8.29608 4.355 8.40608V9.00618C3.992 9.43618 3.666 9.87623 3.375 10.3062C3.085 10.7062 2.94 11.2561 2.94 11.9461C2.94 12.6361 3.085 13.176 3.375 13.576C3.666 13.936 3.992 14.2061 4.355 14.3961ZM20.088 22.7762C19.907 22.9562 19.725 23.1162 19.544 23.2662C19.362 23.3762 19.163 23.5161 18.945 23.6961C17.711 24.6461 16.785 25.4262 16.168 26.0462C15.551 26.6562 15.243 27.3861 15.243 28.2161V31.1561C14.916 31.3361 14.608 31.4662 14.318 31.5362C14.027 31.5762 13.737 31.5562 13.446 31.4862C13.192 31.4162 12.902 31.3061 12.575 31.1561V28.5462C12.575 27.3462 12.739 26.3861 13.065 25.6561C13.392 24.9361 13.828 24.0961 14.372 23.1561L14.535 22.7762H16.495C16.749 22.2662 17.058 21.8462 17.421 21.5262C17.82 21.1562 18.219 20.7261 18.618 20.2161C18.909 19.8861 19.217 19.6161 19.544 19.3961C19.907 19.1461 20.251 18.8161 20.578 18.4161H22.483C22.991 17.6261 23.391 16.9461 23.681 16.4061C23.971 15.8261 24.116 15.0462 24.116 14.0662H26.131V12.1561H24.824C24.57 11.7561 24.225 11.4361 23.79 11.1761C23.354 10.9261 22.81 10.7962 22.157 10.7962C21.395 10.7962 20.651 10.9061 19.925 11.1261C19.199 11.3461 18.364 11.6161 17.421 11.9461V13.846L13.12 15.096L13.065 10.5262C13.646 10.4162 14.281 10.276 14.971 10.096C15.697 9.87603 16.513 9.67617 17.421 9.49617V7.58602C19.017 7.33602 20.469 7.22618 21.776 7.25618C23.118 7.25618 24.57 7.67619 26.131 8.51619V10.586L28.036 10.4161C28.218 11.0361 28.381 11.6161 28.526 12.1561C28.708 12.7061 28.834 13.3362 28.907 14.0662H27.002C27.111 14.8662 27.147 15.5862 27.111 16.2462C27.111 16.8962 27.02 17.6261 26.838 18.4161H24.933C24.715 19.2961 24.334 20.0561 23.79 20.7061C23.282 21.3261 22.683 22.0162 21.993 22.7762H20.088ZM39.196 37.0362L37.291 38.4561C36.347 37.8761 35.585 37.3862 35.004 36.9862C34.424 36.5462 34.133 35.9662 34.133 35.2462L34.079 32.356L33.97 28.2161C34.297 28.0361 34.587 27.906 34.841 27.836C35.131 27.726 35.422 27.7162 35.712 27.7862C36.039 27.8162 36.383 27.9461 36.746 28.1661L36.855 28.9862C37.109 30.7562 37.4 32.2461 37.726 33.4461C38.089 34.6461 38.579 35.8362 39.196 37.0362ZM39.196 4.04622V1.16609C40.938 0.796094 42.481 0.656153 43.823 0.726153C45.166 0.766153 46.527 0.856173 47.906 0.996173V2.90608C48.741 3.08608 49.394 3.26612 49.866 3.44612C50.374 3.59612 50.846 3.79622 51.282 4.04622C51.318 5.57622 51.336 6.98622 51.336 8.29622C51.372 9.60622 51.39 11.036 51.39 12.596C51.1 12.776 50.81 12.9262 50.519 13.0262C50.229 13.1062 49.921 13.1062 49.594 13.0262C49.304 12.9562 48.977 12.8361 48.614 12.6461C48.469 11.5961 48.342 10.7761 48.233 10.1961C48.124 9.58612 48.015 8.89606 47.906 8.13607V6.44612C46.926 5.42612 45.983 4.68614 45.076 4.21614C44.205 3.73614 43.297 3.50618 42.354 3.50618C41.41 3.50618 40.358 3.68622 39.196 4.04622ZM48.015 35.836C48.56 33.196 48.578 30.9062 48.07 28.9862C47.598 27.0262 46.854 24.9562 45.838 22.7762H43.932C43.678 22.3362 43.406 21.9561 43.116 21.6361C42.862 21.3061 42.571 20.9061 42.245 20.4361C42.027 20.0761 41.791 19.7461 41.537 19.4561C41.283 19.1661 41.047 18.8161 40.829 18.4161H38.87C38.325 17.5161 37.871 16.7461 37.509 16.1361C37.182 15.5161 36.928 14.8262 36.746 14.0662H34.786C34.533 13.0862 34.315 11.9762 34.133 10.7462C33.988 9.47617 34.115 8.18606 34.514 6.87606C34.95 5.57606 35.875 4.30624 37.291 3.06624L39.196 4.04622C38.615 5.09622 38.234 6.15613 38.053 7.20613C37.908 8.25613 37.962 9.34615 38.216 10.4762C38.507 11.5962 39.015 12.7962 39.741 14.0662H41.646C41.972 14.7962 42.408 15.4961 42.952 16.1861C43.497 16.8461 44.041 17.5861 44.586 18.4161H46.491C46.89 19.2161 47.289 19.9262 47.689 20.5462C48.088 21.1262 48.487 21.8662 48.886 22.7762H50.792C51.59 24.9862 52.098 27.096 52.316 29.086C52.534 31.046 52.28 33.296 51.554 35.836H48.015ZM39.196 37.0362C40.358 37.4362 41.428 37.6561 42.408 37.6961C43.424 37.7261 44.386 37.5862 45.293 37.2562C46.201 36.9262 47.108 36.456 48.015 35.836L49.648 37.7462C48.088 38.8362 46.491 39.5962 44.858 40.0362C43.261 40.4662 41.374 40.576 39.196 40.356V37.0362ZM62.169 14.0662C61.48 16.1362 60.935 18.316 60.536 20.596C60.137 22.846 59.992 25.2462 60.101 27.7862C60.21 30.3262 60.591 33.006 61.244 35.836H56.834C56.072 32.646 55.691 29.816 55.691 27.346C55.727 24.876 56.036 22.5962 56.617 20.4862C57.234 18.3862 57.978 16.2462 58.849 14.0662H62.169ZM62.169 14.0662L60.754 12.1561C62.169 11.7561 63.349 11.486 64.293 11.346C65.236 11.166 66.361 11.076 67.668 11.076C68.285 11.506 68.757 11.9461 69.083 12.3761C69.446 12.7761 69.7 13.3362 69.845 14.0662H71.751C72.041 14.9362 72.204 15.7861 72.241 16.6261C72.313 17.4561 72.35 18.4362 72.35 19.5662V19.8861C72.023 20.0361 71.733 20.1662 71.478 20.2762C71.261 20.3462 70.989 20.366 70.662 20.326C70.372 20.286 70.027 20.1762 69.628 19.9962L69.519 19.5662C69.519 19.4162 69.501 19.256 69.464 19.076C69.21 17.876 68.956 16.9161 68.702 16.1861C68.448 15.4261 68.14 14.7162 67.777 14.0662H66.252C65.418 13.8462 64.71 13.7562 64.129 13.7962C63.548 13.8262 62.895 13.9162 62.169 14.0662ZM69.192 35.836C69.374 35.296 69.519 34.7862 69.628 34.3162C69.773 33.8462 69.882 33.3162 69.954 32.7362L70.063 32.1361C70.462 31.9561 70.807 31.866 71.097 31.866C71.388 31.866 71.642 31.9262 71.86 32.0262C72.114 32.1362 72.386 32.2661 72.676 32.4161C72.64 33.0661 72.585 33.626 72.513 34.096C72.44 34.566 72.331 35.156 72.186 35.836H69.192ZM61.244 35.836C62.115 36.236 62.932 36.5662 63.694 36.8162C64.492 37.0362 65.327 37.0962 66.198 36.9862C67.105 36.8362 68.103 36.456 69.192 35.836L70.281 37.7462C69.192 38.9462 67.994 39.7561 66.688 40.1961C65.381 40.6361 64.038 40.6361 62.659 40.1961C61.28 39.7961 59.974 38.9762 58.74 37.7462L61.244 35.836ZM90.042 35.836C90.26 35.156 90.46 34.4461 90.641 33.7161C90.822 32.9561 90.968 32.1961 91.077 31.4361C91.439 31.2861 91.748 31.1961 92.002 31.1561C92.292 31.1261 92.565 31.1562 92.819 31.2662C93.109 31.3762 93.399 31.5061 93.69 31.6461C93.617 32.4161 93.508 33.136 93.363 33.826C93.254 34.476 93.145 35.156 93.036 35.836H90.042ZM81.659 35.836C82.53 36.236 83.401 36.5662 84.272 36.8162C85.143 37.0362 86.05 37.0962 86.994 36.9862C87.937 36.8362 88.953 36.456 90.042 35.836L91.131 37.7462C90.042 38.9462 88.808 39.7561 87.429 40.1961C86.05 40.5961 84.635 40.5761 83.183 40.1461C81.767 39.7061 80.461 38.9062 79.263 37.7462L81.659 35.836ZM82.584 14.0662C81.822 16.0962 81.223 18.2562 80.787 20.5462C80.663 21.1962 80.561 21.8562 80.481 22.5362C80.674 22.7462 80.867 22.9262 81.06 23.0462C81.278 23.1562 81.604 23.2262 82.04 23.2662C82.693 23.3062 83.401 23.3162 84.163 23.3162H86.613C87.338 23.3162 87.865 23.2861 88.191 23.2161C88.554 23.1061 88.935 22.9562 89.334 22.7762C89.443 22.3362 89.498 21.936 89.498 21.576C89.534 21.216 89.552 20.796 89.552 20.326V20.0562C89.552 18.7062 89.462 17.5861 89.28 16.6761C89.099 15.7361 88.808 14.8662 88.409 14.0662H86.939C86.068 13.8162 85.306 13.7162 84.653 13.7962C83.999 13.8262 83.31 13.9162 82.584 14.0662L80.842 12.1561C82.221 11.7261 83.346 11.456 84.217 11.346C85.088 11.196 86.177 11.1261 87.484 11.1261C87.992 11.5661 88.5 11.9761 89.008 12.3761C89.516 12.7761 89.933 13.3362 90.26 14.0662H92.165C92.746 15.5562 93.145 16.9361 93.363 18.2061C93.617 19.4361 93.726 20.9562 93.69 22.7762C93.69 23.6062 93.635 24.2662 93.526 24.7362C93.454 25.1662 93.272 25.6062 92.982 26.0462H83.128C82.33 26.0462 81.767 26.1661 81.441 26.4261C81.114 26.6761 80.733 26.986 80.298 27.346C80.29 27.296 80.284 27.2461 80.277 27.1961C80.282 27.3961 80.289 27.5862 80.298 27.7862C80.406 30.3262 80.86 33.006 81.659 35.836H77.358C76.523 32.716 76.088 29.9261 76.051 27.4561C76.051 24.9861 76.324 22.6862 76.868 20.5462C77.412 18.4062 78.102 16.2462 78.937 14.0662H82.584ZM133.158 35.836C133.376 35.156 133.575 34.4461 133.757 33.7161C133.974 32.9561 134.12 32.1961 134.192 31.4361C134.555 31.2861 134.864 31.1961 135.118 31.1561C135.408 31.1261 135.68 31.1562 135.934 31.2662C136.225 31.3762 136.515 31.5061 136.805 31.6461C136.733 32.4161 136.624 33.136 136.479 33.826C136.37 34.476 136.261 35.156 136.152 35.836H133.158ZM124.829 35.836C125.663 36.236 126.516 36.5662 127.387 36.8162C128.258 37.0362 129.166 37.0962 130.109 36.9862C131.053 36.8362 132.069 36.456 133.158 35.836L134.247 37.7462C133.158 38.9462 131.924 39.7561 130.545 40.1961C129.166 40.5961 127.75 40.5761 126.299 40.1461C124.883 39.7061 123.577 38.9062 122.379 37.7462L124.829 35.836ZM125.7 14.0662C124.974 16.0962 124.375 18.2562 123.903 20.5462C123.782 21.1862 123.682 21.8262 123.603 22.4862C123.777 22.7262 123.968 22.9162 124.175 23.0462C124.393 23.1562 124.72 23.2262 125.155 23.2662C125.845 23.3062 126.553 23.3162 127.278 23.3162H129.728C130.454 23.3162 130.98 23.2861 131.307 23.2161C131.67 23.1061 132.051 22.9562 132.45 22.7762C132.559 22.3362 132.613 21.936 132.613 21.576C132.65 21.216 132.668 20.796 132.668 20.326V20.0562C132.668 18.7062 132.577 17.5861 132.396 16.6761C132.214 15.7361 131.942 14.8662 131.579 14.0662H130.055C129.184 13.8162 128.422 13.7162 127.768 13.7962C127.151 13.8262 126.462 13.9162 125.7 14.0662L123.958 12.1561C125.337 11.7261 126.462 11.456 127.333 11.346C128.24 11.196 129.329 11.1261 130.599 11.1261C131.107 11.5661 131.615 11.9761 132.124 12.3761C132.632 12.7761 133.049 13.3362 133.376 14.0662H135.281C135.862 15.5562 136.279 16.9361 136.533 18.2061C136.787 19.4361 136.878 20.9562 136.805 22.7762C136.805 23.6062 136.751 24.2662 136.642 24.7362C136.569 25.1662 136.406 25.6062 136.152 26.0462H126.299C125.464 26.0462 124.883 26.1661 124.556 26.4261C124.23 26.6761 123.849 26.986 123.413 27.346C123.405 27.226 123.396 27.1062 123.388 26.9962C123.393 27.2562 123.402 27.5262 123.413 27.7862C123.522 30.3262 123.994 33.006 124.829 35.836H120.474C119.675 32.716 119.258 29.9261 119.221 27.4561C119.221 24.9861 119.476 22.6862 119.984 20.5462C120.528 18.4062 121.218 16.2462 122.052 14.0662H125.7ZM101.529 36.2762C101.492 36.9662 101.583 37.4161 101.801 37.6361C102.055 37.8561 102.4 38.0562 102.835 38.2362C102.872 38.2762 102.908 38.306 102.944 38.346H103.053C103.343 38.526 103.543 38.6762 103.652 38.7762C103.797 38.8862 103.87 39.066 103.87 39.326C103.87 39.576 103.815 39.756 103.706 39.866C103.634 39.976 103.507 40.1062 103.325 40.2462H96.139C95.922 40.1462 95.758 40.0361 95.649 39.9261C95.577 39.7761 95.54 39.5562 95.54 39.2662C95.54 39.0862 95.595 38.946 95.704 38.836C95.849 38.726 96.067 38.5961 96.357 38.4561C96.466 38.4161 96.557 38.386 96.629 38.346C96.738 38.276 96.829 38.2161 96.902 38.1861C97.156 37.9261 97.301 37.6761 97.337 37.4161C97.41 37.1661 97.446 36.7862 97.446 36.2762V20.5462C97.446 19.2362 97.573 18.1161 97.827 17.1661C98.117 16.2261 98.589 15.1862 99.242 14.0662H101.148C101.329 13.4862 101.601 12.996 101.964 12.596C102.364 12.196 102.763 11.7261 103.162 11.1761C104.396 11.1061 105.448 11.076 106.319 11.076C107.19 11.076 108.261 11.1262 109.531 11.2362C109.931 11.7462 110.275 12.1762 110.566 12.5362C110.856 12.8662 111.183 13.3762 111.546 14.0662H113.451C114.104 15.1562 114.576 16.1362 114.866 17.0062C115.157 17.8762 115.302 18.9261 115.302 20.1661L115.356 36.2762C115.356 36.7462 115.393 37.1261 115.465 37.4161C115.538 37.6761 115.701 37.9261 115.955 38.1861C116.064 38.2561 116.155 38.306 116.227 38.346C116.336 38.386 116.445 38.4161 116.554 38.4561C116.844 38.5961 117.062 38.726 117.207 38.836C117.389 38.946 117.479 39.106 117.479 39.326C117.479 39.616 117.443 39.8161 117.371 39.9261C117.298 40.0361 117.135 40.1462 116.881 40.2462H109.912C109.731 40.1462 109.586 40.0361 109.477 39.9261C109.404 39.7761 109.368 39.576 109.368 39.326C109.368 39.066 109.441 38.8862 109.586 38.7762C109.731 38.6362 109.967 38.4762 110.293 38.2862C110.548 38.1062 110.765 37.9061 110.947 37.6961C111.164 37.4361 111.255 36.9662 111.219 36.2762V19.1861C111.219 17.8361 111.037 16.8261 110.675 16.1361C110.312 15.4461 109.84 14.7562 109.259 14.0662H108.334C107.608 13.9562 106.991 13.9061 106.483 13.9061C106.011 13.9061 105.43 13.9562 104.741 14.0662H103.325C102.853 14.7162 102.436 15.386 102.073 16.076C101.71 16.766 101.529 17.7161 101.529 18.9061V36.2762ZM11.378 37.7962C11.378 37.0762 11.541 36.3461 11.868 35.6261C12.666 35.2561 13.41 35.076 14.1 35.076C14.789 35.046 15.515 35.1862 16.277 35.5162C16.64 36.3162 16.822 37.0762 16.822 37.7962C16.822 38.4862 16.658 39.2162 16.332 39.9762C15.533 40.3062 14.789 40.4661 14.1 40.4661C13.41 40.5061 12.684 40.3562 11.922 40.0362C11.559 39.2362 11.378 38.4862 11.378 37.7962Z" fill="black"/>
</svg>
