<svg width="137" height="41" viewBox="0 0 137 41" fill="none" xmlns="http://www.w3.org/2000/svg">
<path fill-rule="evenodd" clip-rule="evenodd" d="M4.355 14.3959C5.48 14.4659 6.551 14.3759 7.567 14.1159C8.583 13.8259 9.908 13.4159 11.541 12.8659L13.065 12.4359L13.12 16.9459C11.269 17.4259 9.726 17.7459 8.492 17.9259C7.259 18.0759 5.879 18.006 4.355 17.716V14.3959ZM4.355 14.3959L2.504 15.8659C1.706 15.1759 1.089 14.396 0.653 13.516C0.218 12.616 0 11.546 0 10.306C0.399 9.40604 0.925 8.63601 1.579 8.02601C2.232 7.40601 3.157 6.86587 4.355 6.38587V4.53602L6.642 3.6659C7.077 3.4859 7.44 3.32591 7.73 3.17591C8.057 3.03591 8.384 2.92583 8.71 2.84583V0.995981C9.436 0.855981 10.053 0.835932 10.561 0.945932C11.069 1.01593 11.596 1.19597 12.14 1.48597C12.285 2.21597 12.303 2.81602 12.194 3.28602C12.086 3.75602 11.831 4.28585 11.432 4.86585L8.71 5.29603V7.20594C7.948 7.35594 7.186 7.56584 6.424 7.85584C5.662 8.11584 4.972 8.29589 4.355 8.40589V9.00599C3.992 9.40599 3.666 9.81599 3.375 10.256C3.085 10.686 2.94 11.2359 2.94 11.8859C2.94 12.6159 3.085 13.1758 3.375 13.5758C3.666 13.9358 3.992 14.2059 4.355 14.3959ZM20.142 22.776C19.961 22.956 19.761 23.116 19.544 23.266C19.362 23.376 19.181 23.5159 18.999 23.6959C17.729 24.6759 16.767 25.4758 16.114 26.0958C15.497 26.6758 15.189 27.386 15.189 28.216V31.1559C14.862 31.3359 14.553 31.466 14.263 31.536C14.009 31.576 13.737 31.556 13.446 31.486C13.156 31.416 12.866 31.3059 12.575 31.1559V28.546C12.575 27.346 12.739 26.3859 13.065 25.6559C13.392 24.9359 13.828 24.0959 14.372 23.1559L14.59 22.776H16.441C16.731 22.266 17.058 21.846 17.421 21.526C17.82 21.156 18.237 20.726 18.673 20.216C18.963 19.926 19.271 19.6559 19.598 19.3959C19.961 19.1459 20.306 18.8159 20.632 18.4159H22.538C23.046 17.6259 23.445 16.9459 23.735 16.4059C24.026 15.8259 24.171 15.046 24.171 14.066H26.131V12.216H24.824C24.606 11.816 24.28 11.486 23.844 11.236C23.409 10.976 22.846 10.8558 22.157 10.8558C21.431 10.8558 20.687 10.9659 19.925 11.1759C19.199 11.3959 18.364 11.666 17.421 11.996V13.8458L13.12 15.0958L13.065 10.526C13.646 10.456 14.281 10.3058 14.971 10.0958C15.697 9.87583 16.513 9.67598 17.421 9.49598V7.64588C19.017 7.35588 20.469 7.22599 21.776 7.25599C23.118 7.25599 24.57 7.69605 26.131 8.56605V10.6359L27.982 10.4159C28.163 11.0359 28.345 11.6159 28.526 12.1559C28.708 12.7059 28.834 13.336 28.907 14.066H27.056C27.129 14.866 27.147 15.586 27.111 16.246C27.111 16.896 27.02 17.6259 26.838 18.4159H24.988C24.77 19.2959 24.389 20.0559 23.844 20.7059C23.3 21.3259 22.683 22.016 21.993 22.776H20.142ZM39.196 37.0958L37.345 38.506C36.365 37.926 35.585 37.436 35.004 37.036C34.424 36.606 34.133 36.026 34.133 35.296L34.079 32.4159L33.97 28.276C34.297 28.056 34.587 27.9058 34.841 27.8358C35.095 27.7258 35.367 27.716 35.658 27.786C35.984 27.856 36.329 27.9859 36.692 28.1659L36.801 28.986C37.055 30.796 37.363 32.306 37.726 33.496C38.089 34.666 38.579 35.8558 39.196 37.0958ZM39.196 3.99598V1.1659C40.938 0.795902 42.481 0.635912 43.823 0.675912C45.203 0.705912 46.564 0.815981 47.906 0.995981V2.84583C48.741 3.03583 49.394 3.21588 49.866 3.39588C50.374 3.53588 50.846 3.73598 51.282 3.99598C51.282 5.51598 51.3 6.93597 51.336 8.23597C51.372 9.54597 51.39 10.9958 51.39 12.5958C51.064 12.7758 50.755 12.906 50.465 12.976C50.211 13.046 49.921 13.066 49.594 13.026C49.304 12.956 48.995 12.8359 48.669 12.6459C48.487 11.5959 48.342 10.7659 48.233 10.1459C48.124 9.52588 48.015 8.83581 47.906 8.07581V6.44593C46.963 5.39593 46.037 4.62589 45.13 4.15589C44.259 3.68589 43.334 3.44593 42.354 3.44593C41.41 3.44593 40.358 3.63598 39.196 3.99598ZM48.015 35.8358C48.596 33.1958 48.632 30.906 48.124 28.986C47.616 27.026 46.836 24.956 45.783 22.776H43.932C43.678 22.336 43.406 21.9559 43.116 21.6359C42.862 21.3059 42.571 20.9059 42.245 20.4359C42.027 20.0759 41.773 19.7459 41.483 19.4559C41.228 19.1659 40.993 18.8159 40.775 18.4159H38.87C38.289 17.5159 37.817 16.7459 37.454 16.1359C37.127 15.5159 36.873 14.826 36.692 14.066H34.786C34.533 13.126 34.315 12.016 34.133 10.746C33.952 9.47598 34.079 8.18586 34.514 6.87586C34.95 5.53586 35.894 4.246 37.345 3.016L39.196 3.99598C38.615 5.08598 38.234 6.15594 38.053 7.20594C37.871 8.25594 37.926 9.34596 38.216 10.476C38.507 11.596 39.015 12.796 39.741 14.066H41.646C41.972 14.796 42.408 15.4959 42.952 16.1859C43.497 16.8759 44.041 17.6259 44.586 18.4159H46.437C46.872 19.1859 47.289 19.876 47.689 20.486C48.088 21.106 48.487 21.866 48.886 22.776H50.792C51.59 24.986 52.098 27.0958 52.316 29.0858C52.534 31.0858 52.28 33.3358 51.554 35.8358H48.015ZM39.196 37.0958C40.321 37.4558 41.392 37.6559 42.408 37.6959C43.424 37.7259 44.386 37.606 45.293 37.306C46.201 36.986 47.108 36.4958 48.015 35.8358L49.703 37.6959C48.142 38.8159 46.545 39.596 44.912 40.036C43.279 40.466 41.374 40.5758 39.196 40.3558V37.0958ZM61.244 35.8358C62.115 36.2358 62.932 36.566 63.694 36.816C64.492 37.036 65.327 37.096 66.198 36.986C67.105 36.836 68.103 36.4558 69.192 35.8358L70.281 37.6959C69.192 38.8859 67.994 39.7259 66.688 40.1959C65.381 40.6659 64.038 40.686 62.659 40.246C61.28 39.816 59.956 38.9659 58.685 37.6959L61.244 35.8358ZM62.169 14.066C61.48 16.096 60.935 18.256 60.536 20.546C60.137 22.826 59.974 25.246 60.046 27.786C60.155 30.326 60.554 33.0058 61.244 35.8358H56.834C56.036 32.6858 55.655 29.8558 55.691 27.3458C55.727 24.8458 56.054 22.5359 56.671 20.4359C57.288 18.3259 58.032 16.206 58.903 14.066H62.169ZM69.192 35.8358C69.337 35.2958 69.482 34.786 69.628 34.316C69.773 33.846 69.882 33.336 69.954 32.796L70.063 32.1359C70.462 31.9559 70.807 31.8659 71.097 31.8659C71.388 31.8659 71.642 31.926 71.86 32.026C72.114 32.136 72.368 32.286 72.622 32.466C72.585 33.086 72.531 33.6258 72.458 34.0958C72.386 34.5658 72.295 35.1558 72.186 35.8358H69.192ZM62.169 14.066L60.754 12.216C62.169 11.776 63.349 11.4858 64.293 11.3458C65.236 11.1958 66.343 11.1259 67.613 11.1259C68.266 11.5259 68.757 11.9459 69.083 12.3759C69.446 12.7759 69.7 13.336 69.845 14.066H71.751C72.005 14.936 72.168 15.8059 72.241 16.6759C72.313 17.5159 72.35 18.4959 72.35 19.6159V19.8859C72.023 20.0759 71.733 20.2158 71.478 20.3258C71.224 20.3958 70.952 20.4159 70.662 20.3759C70.372 20.3059 70.027 20.176 69.628 19.996C69.591 19.886 69.555 19.7659 69.519 19.6159C69.519 19.4759 69.501 19.2958 69.464 19.0758C69.21 17.8758 68.956 16.8959 68.702 16.1359C68.448 15.3759 68.121 14.686 67.722 14.066H66.252C65.418 13.846 64.71 13.756 64.129 13.796C63.548 13.826 62.895 13.916 62.169 14.066ZM90.042 35.8358C90.224 35.1558 90.405 34.446 90.587 33.716C90.804 32.956 90.968 32.1959 91.077 31.4359C91.403 31.2859 91.712 31.1959 92.002 31.1559C92.292 31.1259 92.565 31.156 92.819 31.266C93.073 31.376 93.345 31.5059 93.635 31.6459C93.563 32.4159 93.454 33.1358 93.309 33.8258C93.2 34.4758 93.091 35.1558 92.982 35.8358H90.042ZM81.659 35.8358C82.493 36.2358 83.346 36.566 84.217 36.816C85.088 37.036 85.996 37.096 86.939 36.986C87.883 36.836 88.917 36.4558 90.042 35.8358L91.131 37.6959C90.042 38.9259 88.79 39.7559 87.375 40.1959C85.996 40.5959 84.58 40.5759 83.128 40.1459C81.713 39.6659 80.406 38.8559 79.209 37.6959L81.659 35.8358ZM82.584 14.066C81.822 16.066 81.205 18.216 80.733 20.546C80.612 21.176 80.512 21.826 80.433 22.486C80.607 22.726 80.798 22.916 81.005 23.046C81.223 23.196 81.55 23.266 81.985 23.266C82.638 23.306 83.346 23.316 84.108 23.316H86.558C87.284 23.316 87.828 23.286 88.191 23.216C88.554 23.106 88.935 22.956 89.334 22.776C89.407 22.336 89.462 21.9358 89.498 21.5758C89.534 21.2158 89.552 20.7958 89.552 20.3258V20.056C89.552 18.706 89.443 17.5859 89.226 16.6759C89.044 15.7359 88.754 14.866 88.355 14.066H86.885C86.05 13.816 85.306 13.706 84.653 13.736C83.999 13.776 83.31 13.886 82.584 14.066L80.787 12.216C82.167 11.746 83.292 11.4558 84.163 11.3458C85.034 11.1958 86.123 11.1259 87.429 11.1259C87.937 11.5659 88.445 11.9759 88.953 12.3759C89.462 12.7759 89.879 13.336 90.206 14.066H92.056C92.673 15.556 93.109 16.9359 93.363 18.2059C93.617 19.4359 93.726 20.956 93.69 22.776C93.69 23.606 93.635 24.266 93.526 24.736C93.417 25.166 93.218 25.586 92.927 25.986C92.093 26.026 91.204 26.046 90.26 26.046C89.316 26.006 88.119 25.986 86.667 25.986H83.074C82.275 25.986 81.713 26.1359 81.386 26.4259C81.06 26.6759 80.679 27.0059 80.243 27.4059C80.235 27.2959 80.227 27.176 80.219 27.066C80.224 27.326 80.232 27.5758 80.243 27.8358C80.352 30.3758 80.824 33.0458 81.659 35.8358H77.358C76.523 32.7158 76.088 29.9259 76.051 27.4559C76.051 24.9559 76.324 22.626 76.868 20.486C77.412 18.346 78.102 16.206 78.937 14.066H82.584ZM133.158 35.8358C133.339 35.1558 133.521 34.446 133.702 33.716C133.92 32.956 134.083 32.1959 134.192 31.4359C134.519 31.2859 134.827 31.1959 135.118 31.1559C135.408 31.1259 135.68 31.156 135.934 31.266C136.188 31.376 136.46 31.5059 136.751 31.6459C136.678 32.4159 136.569 33.1358 136.424 33.8258C136.315 34.4758 136.206 35.1558 136.098 35.8358H133.158ZM124.774 35.8358C125.609 36.2358 126.462 36.566 127.333 36.816C128.204 37.036 129.111 37.096 130.055 36.986C130.998 36.836 132.033 36.4558 133.158 35.8358L134.247 37.6959C133.158 38.9259 131.906 39.7559 130.49 40.1959C129.111 40.5959 127.696 40.5759 126.244 40.1459C124.829 39.6659 123.522 38.8559 122.325 37.6959L124.774 35.8358ZM125.7 14.066C124.938 16.066 124.321 18.216 123.849 20.546C123.728 21.176 123.628 21.826 123.549 22.486C123.723 22.726 123.914 22.916 124.121 23.046C124.339 23.196 124.665 23.266 125.101 23.266C125.754 23.306 126.462 23.316 127.224 23.316H129.674C130.4 23.316 130.944 23.286 131.307 23.216C131.67 23.106 132.051 22.956 132.45 22.776C132.523 22.336 132.577 21.9358 132.613 21.5758C132.65 21.2158 132.668 20.7958 132.668 20.3258V20.056C132.668 18.706 132.559 17.5859 132.341 16.6759C132.16 15.7359 131.869 14.866 131.47 14.066H130C129.166 13.816 128.422 13.706 127.768 13.736C127.115 13.776 126.426 13.886 125.7 14.066L123.903 12.216C125.282 11.746 126.407 11.4558 127.278 11.3458C128.149 11.1958 129.238 11.1259 130.545 11.1259C131.053 11.5659 131.561 11.9759 132.069 12.3759C132.577 12.7759 132.995 13.336 133.321 14.066H135.172C135.789 15.556 136.225 16.9359 136.479 18.2059C136.733 19.4359 136.842 20.956 136.805 22.776C136.805 23.606 136.751 24.266 136.642 24.736C136.533 25.166 136.333 25.586 136.043 25.986C135.208 26.026 134.319 26.046 133.376 26.046C132.432 26.006 131.234 25.986 129.783 25.986H126.19C125.391 25.986 124.829 26.1359 124.502 26.4259C124.175 26.6759 123.794 27.0059 123.359 27.4059C123.351 27.2859 123.343 27.176 123.334 27.066C123.34 27.316 123.348 27.5758 123.359 27.8358C123.468 30.3758 123.94 33.0458 124.774 35.8358H120.474C119.639 32.7158 119.203 29.9259 119.167 27.4559C119.167 24.9559 119.439 22.626 119.984 20.486C120.528 18.346 121.218 16.206 122.052 14.066H125.7ZM101.474 36.3258C101.438 37.0158 101.547 37.4759 101.801 37.6959C102.055 37.9059 102.4 38.096 102.835 38.236C102.872 38.276 102.89 38.3058 102.89 38.3458H103.053C103.343 38.5258 103.543 38.676 103.652 38.776C103.761 38.886 103.815 39.0658 103.815 39.3258C103.815 39.5758 103.761 39.7559 103.652 39.8659C103.579 39.9759 103.452 40.106 103.271 40.246H96.085C95.867 40.146 95.704 40.0359 95.595 39.9259C95.522 39.8159 95.486 39.6158 95.486 39.3258C95.486 39.1458 95.54 38.9959 95.649 38.8859C95.795 38.7759 96.012 38.6359 96.303 38.4559C96.375 38.4159 96.466 38.3858 96.575 38.3458C96.684 38.2758 96.774 38.2159 96.847 38.1859C97.101 37.9259 97.246 37.6759 97.283 37.4159C97.355 37.1659 97.391 36.8058 97.391 36.3258V20.546C97.391 19.236 97.537 18.1159 97.827 17.1659C98.117 16.2259 98.571 15.186 99.188 14.066H101.093C101.275 13.486 101.547 12.9958 101.91 12.5958C102.309 12.1958 102.708 11.746 103.108 11.236C104.341 11.166 105.394 11.1259 106.265 11.1259C107.136 11.1259 108.188 11.176 109.422 11.286C109.858 11.796 110.221 12.216 110.511 12.536C110.802 12.866 111.146 13.376 111.546 14.066H113.397C114.05 15.156 114.522 16.136 114.812 17.006C115.139 17.876 115.302 18.946 115.302 20.216V36.3258C115.302 36.7658 115.338 37.1259 115.411 37.4159C115.483 37.6759 115.647 37.9259 115.901 38.1859C116.01 38.2559 116.118 38.3058 116.227 38.3458C116.336 38.3858 116.445 38.436 116.554 38.506C116.844 38.616 117.062 38.7258 117.207 38.8358C117.389 38.9458 117.479 39.1058 117.479 39.3258C117.479 39.6158 117.443 39.8159 117.371 39.9259C117.298 40.0359 117.135 40.146 116.881 40.246H109.858C109.676 40.146 109.531 40.0359 109.422 39.9259C109.314 39.7759 109.259 39.5758 109.259 39.3258C109.259 39.0658 109.332 38.886 109.477 38.776C109.658 38.636 109.912 38.4858 110.239 38.3458C110.493 38.1258 110.711 37.9059 110.892 37.6959C111.11 37.4759 111.201 37.0158 111.164 36.3258V19.1859C111.164 17.8359 110.983 16.8259 110.62 16.1359C110.257 15.4459 109.785 14.756 109.205 14.066H108.279C107.553 13.956 106.936 13.9059 106.428 13.9059C105.956 13.9059 105.376 13.956 104.686 14.066H103.325C102.817 14.716 102.382 15.3858 102.019 16.0758C101.656 16.7658 101.474 17.7159 101.474 18.9059V36.3258ZM11.323 37.796C11.323 37.076 11.505 36.326 11.868 35.566C12.63 35.246 13.356 35.0758 14.045 35.0758C14.771 35.0458 15.515 35.186 16.277 35.516C16.64 36.316 16.822 37.076 16.822 37.796C16.822 38.486 16.64 39.1959 16.277 39.9259C15.515 40.2859 14.771 40.466 14.045 40.466C13.356 40.506 12.63 40.356 11.868 40.036C11.541 39.236 11.36 38.486 11.323 37.796Z" fill="black"/>
</svg>
