<svg width="137" height="41" viewBox="0 0 137 41" fill="none" xmlns="http://www.w3.org/2000/svg">
<path fill-rule="evenodd" clip-rule="evenodd" d="M4.355 14.3959C5.48 14.4659 6.551 14.356 7.567 14.066C8.583 13.776 9.908 13.3759 11.541 12.8659L13.065 12.3759L13.12 16.9459C11.269 17.4259 9.726 17.7459 8.492 17.9259C7.259 18.0759 5.879 18.006 4.355 17.716V14.3959ZM4.355 14.3959L2.504 15.9159C1.706 15.2259 1.089 14.426 0.653 13.516C0.218 12.616 0 11.546 0 10.306C0.399 9.40604 0.925 8.63601 1.579 8.02601C2.232 7.36601 3.157 6.80582 4.355 6.33582V4.53602L6.642 3.6659C7.077 3.4459 7.44 3.26586 7.73 3.12586C8.057 2.97586 8.384 2.88583 8.71 2.84583V0.995981C9.436 0.855981 10.053 0.835932 10.561 0.945932C11.069 1.01593 11.596 1.19597 12.14 1.48597C12.285 2.21597 12.285 2.81602 12.14 3.28602C12.031 3.75602 11.795 4.28585 11.432 4.86585L8.71 5.29603V7.15589C7.948 7.33589 7.186 7.54604 6.424 7.80604C5.662 8.05604 4.972 8.25589 4.355 8.40589V8.94593C3.992 9.38593 3.647 9.81599 3.321 10.256C3.03 10.656 2.885 11.1959 2.885 11.8859C2.885 12.6159 3.03 13.1758 3.321 13.5758C3.647 13.9358 3.992 14.2059 4.355 14.3959ZM20.197 22.776C19.979 22.956 19.78 23.116 19.598 23.266C19.417 23.376 19.217 23.5159 18.999 23.6959C17.729 24.6759 16.767 25.4758 16.114 26.0958C15.461 26.7158 15.134 27.436 15.134 28.276V31.1559C14.844 31.3359 14.553 31.466 14.263 31.536C13.973 31.576 13.682 31.556 13.392 31.486C13.138 31.416 12.866 31.3059 12.575 31.1559V28.5958C12.575 27.3658 12.739 26.3859 13.065 25.6559C13.392 24.9359 13.828 24.0959 14.372 23.1559L14.59 22.776H16.441C16.731 22.266 17.058 21.846 17.421 21.526C17.82 21.156 18.237 20.726 18.673 20.216C18.963 19.926 19.29 19.6559 19.653 19.3959C20.015 19.1459 20.36 18.8159 20.687 18.4159H22.538C23.046 17.6259 23.445 16.9459 23.735 16.4059C24.062 15.8259 24.225 15.046 24.225 14.066H26.131V12.216H24.879C24.625 11.816 24.28 11.486 23.844 11.236C23.409 10.976 22.864 10.8558 22.211 10.8558C21.449 10.8558 20.687 10.9659 19.925 11.1759C19.199 11.3959 18.364 11.666 17.421 11.996V13.8458L13.12 15.0958L13.065 10.5858C13.646 10.4758 14.281 10.3058 14.971 10.0958C15.697 9.87583 16.513 9.67598 17.421 9.49598V7.64588C19.017 7.38588 20.487 7.27605 21.83 7.31605C23.173 7.31605 24.606 7.74586 26.131 8.62586V10.6359L27.982 10.4159C28.163 11.0359 28.326 11.636 28.472 12.216C28.653 12.756 28.78 13.376 28.853 14.066H27.056C27.165 14.866 27.201 15.586 27.165 16.246C27.165 16.896 27.056 17.6259 26.838 18.4159H25.042C24.824 19.2959 24.443 20.0559 23.899 20.7059C23.354 21.3259 22.719 22.016 21.993 22.776H20.197ZM39.196 3.99598V1.1659C40.938 0.795902 42.481 0.635912 43.823 0.675912C45.203 0.705912 46.564 0.815981 47.906 0.995981V2.84583C48.741 2.99583 49.394 3.15582 49.866 3.33582C50.374 3.48582 50.828 3.70598 51.227 3.99598C51.263 5.48598 51.3 6.89597 51.336 8.23597C51.372 9.54597 51.39 10.976 51.39 12.536C51.064 12.726 50.755 12.866 50.465 12.976C50.211 13.046 49.921 13.046 49.594 12.976C49.304 12.906 48.995 12.7758 48.669 12.5958C48.487 11.5458 48.342 10.7259 48.233 10.1459C48.124 9.52588 48.015 8.83581 47.906 8.07581V6.44593C46.963 5.39593 46.037 4.62589 45.13 4.15589C44.259 3.68589 43.334 3.44593 42.354 3.44593C41.41 3.44593 40.358 3.63598 39.196 3.99598ZM48.015 35.8358C48.596 33.1958 48.632 30.8859 48.124 28.9259C47.616 26.9659 46.818 24.916 45.729 22.776H43.932C43.678 22.336 43.406 21.9559 43.116 21.6359C42.825 21.3059 42.535 20.9059 42.245 20.4359C41.991 20.0759 41.737 19.7459 41.483 19.4559C41.228 19.1659 40.974 18.8159 40.72 18.4159H38.87C38.289 17.5159 37.817 16.7459 37.454 16.1359C37.091 15.5159 36.819 14.826 36.638 14.066H34.786C34.533 13.126 34.315 12.016 34.133 10.746C33.952 9.47598 34.079 8.16581 34.514 6.82581C34.95 5.48581 35.894 4.19594 37.345 2.95594L39.196 3.99598C38.615 5.04598 38.234 6.11594 38.053 7.20594C37.871 8.25594 37.926 9.34596 38.216 10.476C38.507 11.596 39.015 12.796 39.741 14.066H41.591C41.918 14.796 42.354 15.4959 42.898 16.1859C43.479 16.8759 44.041 17.6259 44.586 18.4159H46.437C46.872 19.1859 47.289 19.876 47.689 20.486C48.124 21.106 48.542 21.866 48.941 22.776H50.737C51.572 24.956 52.098 27.0558 52.316 29.0858C52.57 31.0858 52.316 33.3358 51.554 35.8358H48.015ZM39.196 37.0958C40.321 37.4958 41.392 37.706 42.408 37.746C43.424 37.786 44.386 37.636 45.293 37.306C46.201 36.986 47.108 36.4958 48.015 35.8358L49.703 37.6959C48.179 38.8159 46.582 39.596 44.912 40.036C43.279 40.466 41.374 40.5758 39.196 40.3558V37.0958ZM39.196 37.0958L37.345 38.566C36.402 37.986 35.621 37.4958 35.004 37.0958C34.424 36.6958 34.133 36.1158 34.133 35.3458L34.024 32.466L33.97 28.276C34.26 28.096 34.533 27.9458 34.786 27.8358C35.077 27.7258 35.367 27.716 35.658 27.786C35.948 27.856 36.275 27.9859 36.638 28.1659L36.746 29.036C37.037 30.816 37.363 32.306 37.726 33.496C38.089 34.696 38.579 35.8958 39.196 37.0958ZM69.192 35.8358C69.337 35.2958 69.482 34.786 69.628 34.316C69.773 33.846 69.882 33.336 69.954 32.796L70.118 32.1359C70.48 31.9959 70.807 31.9259 71.097 31.9259C71.388 31.8859 71.642 31.926 71.86 32.026C72.114 32.136 72.368 32.286 72.622 32.466C72.585 33.086 72.531 33.6459 72.458 34.1559C72.386 34.6259 72.277 35.1858 72.132 35.8358H69.192ZM61.244 35.8358C62.079 36.2358 62.895 36.566 63.694 36.816C64.492 37.036 65.327 37.096 66.198 36.986C67.105 36.836 68.103 36.4558 69.192 35.8358L70.335 37.6959C69.246 38.8859 68.031 39.7259 66.688 40.1959C65.345 40.6659 63.984 40.6659 62.605 40.1959C61.226 39.7559 59.919 38.9259 58.685 37.6959L61.244 35.8358ZM62.224 14.066C61.498 16.066 60.917 18.206 60.482 20.486C60.083 22.776 59.937 25.206 60.046 27.786C60.155 30.356 60.554 33.0458 61.244 35.8358H56.834C56.036 32.6858 55.655 29.8558 55.691 27.3458C55.727 24.8458 56.054 22.5359 56.671 20.4359C57.288 18.2959 58.032 16.166 58.903 14.066H62.224ZM62.224 14.066L60.754 12.216C62.133 11.816 63.294 11.5459 64.238 11.3959C65.218 11.2159 66.343 11.1259 67.613 11.1259C68.266 11.5259 68.757 11.9459 69.083 12.3759C69.446 12.7759 69.7 13.336 69.845 14.066H71.696C71.987 14.936 72.15 15.8059 72.186 16.6759C72.259 17.5159 72.295 18.4959 72.295 19.6159V19.9459C72.005 20.1259 71.733 20.2759 71.478 20.3759C71.224 20.4559 70.952 20.4659 70.662 20.4359C70.372 20.3659 70.027 20.236 69.628 20.056L69.519 19.6159C69.519 19.4759 69.501 19.3059 69.464 19.1259C69.21 17.9259 68.938 16.9459 68.648 16.1859C68.394 15.3859 68.067 14.686 67.668 14.066H66.252C65.418 13.846 64.71 13.756 64.129 13.796C63.548 13.826 62.913 13.916 62.224 14.066ZM82.584 14.066C81.822 16.066 81.205 18.206 80.733 20.486C80.597 21.146 80.484 21.826 80.397 22.506C80.566 22.736 80.751 22.916 80.951 23.046C81.169 23.196 81.495 23.266 81.931 23.266C82.584 23.306 83.292 23.316 84.054 23.316H86.504C87.23 23.316 87.774 23.286 88.137 23.216C88.5 23.106 88.881 22.956 89.28 22.776C89.389 22.336 89.443 21.9358 89.443 21.5758C89.48 21.2158 89.498 20.7958 89.498 20.3258V20.056C89.498 18.746 89.407 17.6259 89.226 16.6759C89.044 15.7359 88.736 14.866 88.3 14.066H86.885C86.014 13.816 85.251 13.706 84.598 13.736C83.981 13.776 83.31 13.886 82.584 14.066L80.733 12.216C82.112 11.776 83.237 11.5059 84.108 11.3959C84.979 11.2559 86.05 11.1759 87.32 11.1759C87.865 11.5759 88.391 11.9759 88.899 12.3759C89.407 12.7759 89.843 13.336 90.206 14.066H92.002C92.619 15.556 93.054 16.9359 93.309 18.2059C93.563 19.4359 93.671 20.956 93.635 22.776C93.635 23.606 93.581 24.266 93.472 24.736C93.399 25.166 93.218 25.586 92.927 25.986C92.093 26.026 91.185 26.046 90.206 26.046C89.262 26.006 88.064 25.986 86.613 25.986H83.019C82.221 25.986 81.659 26.1359 81.332 26.4259C81.005 26.6759 80.624 27.0059 80.189 27.4059C80.181 27.3059 80.174 27.1958 80.166 27.0958C80.172 27.3258 80.179 27.556 80.189 27.786C80.298 30.356 80.787 33.0458 81.659 35.8358H77.303C76.469 32.7558 76.033 29.9659 75.997 27.4559C75.997 24.9559 76.269 22.626 76.814 20.486C77.394 18.316 78.102 16.166 78.937 14.066H82.584ZM89.988 35.8358C90.206 35.1558 90.405 34.446 90.587 33.716C90.804 32.956 90.95 32.1959 91.022 31.4359C91.385 31.2859 91.694 31.1959 91.948 31.1559C92.238 31.1259 92.51 31.156 92.764 31.266C93.054 31.376 93.327 31.5059 93.581 31.6459C93.544 32.4159 93.454 33.1358 93.309 33.8258C93.2 34.4758 93.073 35.1558 92.927 35.8358H89.988ZM81.659 35.8358C82.493 36.2358 83.346 36.566 84.217 36.816C85.088 37.036 85.996 37.096 86.939 36.986C87.883 36.836 88.899 36.4558 89.988 35.8358L91.131 37.6959C90.042 38.9259 88.79 39.7559 87.375 40.1959C85.996 40.6359 84.58 40.6159 83.128 40.1459C81.677 39.6659 80.352 38.8559 79.154 37.6959L81.659 35.8358ZM133.103 35.8358C133.321 35.1558 133.521 34.446 133.702 33.716C133.92 32.956 134.065 32.1959 134.138 31.4359C134.501 31.2859 134.809 31.1959 135.063 31.1559C135.354 31.1259 135.626 31.156 135.88 31.266C136.134 31.376 136.406 31.5059 136.696 31.6459C136.624 32.4159 136.515 33.1358 136.37 33.8258C136.261 34.4758 136.152 35.1558 136.043 35.8358H133.103ZM124.774 35.8358C125.609 36.2358 126.462 36.566 127.333 36.816C128.204 37.036 129.111 37.096 130.055 36.986C130.998 36.836 132.015 36.4558 133.103 35.8358L134.192 37.6959C133.14 38.9259 131.906 39.7559 130.49 40.1959C129.111 40.6359 127.696 40.6159 126.244 40.1459C124.792 39.6659 123.468 38.8559 122.27 37.6959L124.774 35.8358ZM125.645 14.066C124.883 16.066 124.266 18.206 123.794 20.486C123.67 21.136 123.568 21.806 123.489 22.476C123.664 22.726 123.857 22.916 124.067 23.046C124.284 23.196 124.611 23.266 125.046 23.266C125.7 23.306 126.407 23.316 127.17 23.316H129.619C130.345 23.316 130.89 23.286 131.252 23.216C131.615 23.106 131.996 22.956 132.396 22.776C132.505 22.336 132.559 21.9358 132.559 21.5758C132.595 21.2158 132.613 20.7958 132.613 20.3258V20.056C132.613 18.746 132.505 17.6259 132.287 16.6759C132.105 15.7359 131.815 14.866 131.416 14.066H130C129.129 13.816 128.367 13.706 127.714 13.736C127.097 13.776 126.407 13.886 125.645 14.066L123.849 12.216C125.228 11.776 126.353 11.5059 127.224 11.3959C128.095 11.2559 129.166 11.1759 130.436 11.1759C130.98 11.5759 131.507 11.9759 132.015 12.3759C132.523 12.7759 132.958 13.336 133.321 14.066H135.118C135.735 15.556 136.17 16.9359 136.424 18.2059C136.678 19.4359 136.787 20.956 136.751 22.776C136.751 23.606 136.696 24.266 136.588 24.736C136.515 25.166 136.315 25.586 135.989 25.986C135.19 26.026 134.301 26.046 133.321 26.046C132.378 26.006 131.18 25.986 129.728 25.986H126.135C125.3 25.986 124.72 26.1359 124.393 26.4259C124.103 26.6759 123.74 27.0059 123.304 27.4059C123.296 27.2959 123.289 27.1958 123.281 27.0858C123.287 27.3158 123.294 27.556 123.304 27.786C123.413 30.356 123.903 33.0458 124.774 35.8358H120.419C119.584 32.7558 119.149 29.9659 119.113 27.4559C119.113 24.9559 119.385 22.626 119.929 20.486C120.474 18.316 121.181 16.166 122.052 14.066H125.645ZM101.42 36.3258C101.384 37.0158 101.492 37.4759 101.747 37.6959C102.001 37.9059 102.345 38.106 102.781 38.286C102.817 38.326 102.853 38.3458 102.89 38.3458C102.926 38.3458 102.962 38.3659 102.999 38.3959C103.325 38.5459 103.543 38.676 103.652 38.776C103.761 38.886 103.815 39.0658 103.815 39.3258C103.815 39.5758 103.761 39.7559 103.652 39.8659C103.579 39.9759 103.452 40.106 103.271 40.246H96.03C95.776 40.146 95.595 40.0359 95.486 39.9259C95.414 39.8159 95.377 39.6158 95.377 39.3258C95.377 39.1458 95.432 38.9959 95.54 38.8859C95.686 38.7759 95.922 38.6359 96.248 38.4559C96.321 38.4159 96.393 38.3858 96.466 38.3458C96.575 38.2758 96.684 38.2159 96.793 38.1859C97.047 37.9259 97.192 37.6759 97.228 37.4159C97.301 37.1659 97.337 36.8058 97.337 36.3258V20.546C97.337 19.236 97.482 18.1159 97.772 17.1659C98.063 16.2259 98.535 15.186 99.188 14.066H100.984C101.202 13.486 101.511 12.9958 101.91 12.5958C102.309 12.1958 102.708 11.746 103.108 11.236C104.341 11.166 105.376 11.1259 106.211 11.1259C107.082 11.1259 108.134 11.176 109.368 11.286C109.804 11.796 110.166 12.216 110.457 12.536C110.783 12.866 111.128 13.376 111.491 14.066H113.342C113.995 15.156 114.467 16.136 114.757 17.006C115.084 17.876 115.247 18.946 115.247 20.216L115.302 36.3258C115.302 36.7658 115.338 37.1259 115.411 37.4159C115.483 37.6759 115.647 37.9259 115.901 38.1859C116.01 38.2559 116.1 38.3058 116.173 38.3458C116.282 38.3858 116.391 38.436 116.5 38.506C116.826 38.616 117.062 38.7258 117.207 38.8358C117.389 38.9458 117.479 39.1058 117.479 39.3258C117.479 39.6158 117.443 39.8159 117.371 39.9259C117.298 40.0359 117.135 40.146 116.881 40.246H109.804C109.586 40.146 109.422 40.0359 109.314 39.9259C109.241 39.7759 109.205 39.5758 109.205 39.3258C109.205 39.0658 109.277 38.886 109.422 38.776C109.604 38.636 109.858 38.4858 110.185 38.3458C110.439 38.1658 110.656 37.966 110.838 37.746C111.056 37.496 111.164 37.0158 111.164 36.3258V19.1859C111.164 17.8359 110.965 16.8259 110.566 16.1359C110.203 15.4459 109.713 14.756 109.096 14.066H108.225C107.499 13.956 106.882 13.9059 106.374 13.9059C105.902 13.9059 105.321 13.956 104.632 14.066H103.271C102.763 14.716 102.327 15.3858 101.964 16.0758C101.601 16.7658 101.42 17.7159 101.42 18.9059V36.3258ZM11.269 37.796C11.269 37.076 11.45 36.326 11.813 35.566C12.612 35.206 13.356 35.026 14.045 35.026C14.771 35.026 15.497 35.186 16.223 35.516C16.586 36.276 16.767 37.016 16.767 37.746C16.804 38.476 16.64 39.1959 16.277 39.9259C15.515 40.2859 14.771 40.466 14.045 40.466C13.356 40.506 12.63 40.356 11.868 40.036C11.505 39.236 11.305 38.486 11.269 37.796Z" fill="black"/>
</svg>
