<svg width="137" height="41" viewBox="0 0 137 41" fill="none" xmlns="http://www.w3.org/2000/svg">
<path fill-rule="evenodd" clip-rule="evenodd" d="M4.355 14.4459C5.48 14.4859 6.551 14.356 7.567 14.066C8.583 13.776 9.908 13.3759 11.541 12.8659L13.065 12.3759L13.12 16.8959C11.269 17.4059 9.726 17.7459 8.492 17.9259C7.259 18.0759 5.879 18.006 4.355 17.716V14.4459ZM4.355 14.4459L2.559 15.9159C1.76 15.2259 1.125 14.426 0.653 13.516C0.218 12.616 0 11.546 0 10.306C0.399 9.40604 0.907 8.62595 1.524 7.96595C2.178 7.31595 3.121 6.75601 4.355 6.27601V4.53602L6.642 3.61585C7.077 3.43585 7.44 3.26586 7.73 3.12586C8.057 2.94586 8.384 2.83603 8.71 2.79603V0.995981C9.4 0.855981 9.999 0.835932 10.507 0.945932C11.051 1.01593 11.596 1.19597 12.14 1.48597C12.285 2.21597 12.285 2.81602 12.14 3.28602C12.031 3.75602 11.777 4.28585 11.378 4.86585L8.71 5.29603V7.09583C7.948 7.27583 7.186 7.51604 6.424 7.80604C5.662 8.05604 4.972 8.23583 4.355 8.34583V8.89588C3.956 9.32588 3.611 9.76593 3.321 10.1959C3.03 10.6359 2.885 11.1959 2.885 11.8859C2.885 12.5759 3.03 13.126 3.321 13.516C3.611 13.916 3.956 14.2259 4.355 14.4459ZM20.197 22.776C20.015 22.956 19.816 23.116 19.598 23.266C19.417 23.376 19.235 23.5159 19.054 23.6959C17.747 24.6759 16.749 25.4758 16.06 26.0958C15.406 26.7158 15.08 27.436 15.08 28.276V31.1559C14.789 31.3359 14.499 31.466 14.209 31.536C13.955 31.576 13.682 31.556 13.392 31.486C13.138 31.416 12.866 31.2858 12.575 31.1058V28.5958C12.575 27.3658 12.739 26.3859 13.065 25.6559C13.392 24.9359 13.846 24.0959 14.426 23.1559L14.644 22.776H16.441C16.695 22.306 17.021 21.886 17.421 21.526C17.82 21.156 18.255 20.746 18.727 20.276C19.017 19.946 19.326 19.6559 19.653 19.3959C20.015 19.1459 20.378 18.8159 20.741 18.4159H22.538C23.082 17.6259 23.5 16.9459 23.79 16.4059C24.116 15.8259 24.28 15.046 24.28 14.066H26.131V12.266H24.879C24.661 11.866 24.334 11.546 23.899 11.286C23.463 10.996 22.901 10.8558 22.211 10.8558C21.485 10.8558 20.741 10.976 19.979 11.236C19.217 11.456 18.364 11.726 17.421 12.056V13.8458L13.12 15.1559L13.065 10.5858C13.646 10.4758 14.281 10.3058 14.971 10.0958C15.697 9.87583 16.513 9.67598 17.421 9.49598V7.69593C19.017 7.40593 20.487 7.27605 21.83 7.31605C23.173 7.35605 24.606 7.80591 26.131 8.67591V10.6359L27.927 10.476C28.109 11.056 28.272 11.636 28.417 12.216C28.599 12.756 28.744 13.376 28.853 14.066H27.056C27.165 14.866 27.201 15.586 27.165 16.246C27.165 16.896 27.074 17.6259 26.893 18.4159H25.096C24.879 19.2959 24.479 20.0559 23.899 20.7059C23.354 21.3259 22.719 22.016 21.993 22.776H20.197ZM39.196 37.1459L37.4 38.6159C36.42 38.0359 35.621 37.5459 35.004 37.1459C34.387 36.7459 34.079 36.1859 34.079 35.4559L34.024 32.516L33.916 28.276C34.242 28.096 34.533 27.9659 34.786 27.8959C35.041 27.7859 35.313 27.7658 35.603 27.8358C35.93 27.8758 36.256 28.006 36.583 28.216L36.692 29.036C36.982 30.816 37.309 32.316 37.672 33.556C38.035 34.756 38.543 35.9459 39.196 37.1459ZM39.196 3.99598V1.1659C40.938 0.795902 42.481 0.635912 43.823 0.675912C45.203 0.705912 46.564 0.815981 47.906 0.995981V2.79603C48.741 2.94603 49.394 3.10602 49.866 3.28602C50.338 3.46602 50.792 3.70598 51.227 3.99598C51.263 5.48598 51.282 6.89597 51.282 8.23597C51.318 9.54597 51.336 10.976 51.336 12.536C51.046 12.726 50.755 12.866 50.465 12.976C50.211 13.046 49.939 13.046 49.648 12.976C49.358 12.906 49.031 12.7758 48.669 12.5958C48.487 11.5458 48.342 10.7058 48.233 10.0958C48.124 9.47583 48.015 8.80581 47.906 8.07581V6.49598C46.963 5.40598 46.037 4.62589 45.13 4.15589C44.259 3.64589 43.334 3.39588 42.354 3.39588C41.41 3.39588 40.358 3.59598 39.196 3.99598ZM48.015 35.8358C48.596 33.1958 48.614 30.8859 48.07 28.9259C47.562 26.9659 46.781 24.916 45.729 22.776H43.932C43.678 22.336 43.406 21.9559 43.116 21.6359C42.825 21.3059 42.517 20.9059 42.19 20.4359C41.972 20.0759 41.718 19.7459 41.428 19.4559C41.174 19.1659 40.92 18.8159 40.666 18.4159H38.87C38.289 17.5159 37.799 16.7459 37.4 16.1359C37.037 15.5159 36.765 14.826 36.583 14.066H34.786C34.533 13.126 34.315 12.016 34.133 10.746C33.952 9.43598 34.079 8.116 34.514 6.766C34.95 5.426 35.912 4.15594 37.4 2.95594L39.196 3.99598C38.579 5.00598 38.18 6.06589 37.998 7.15589C37.817 8.20589 37.871 9.30596 38.162 10.476C38.452 11.596 38.997 12.796 39.795 14.066H41.537C41.9 14.756 42.354 15.4659 42.898 16.1859C43.479 16.8759 44.059 17.6259 44.64 18.4159H46.382C46.854 19.1859 47.289 19.876 47.689 20.486C48.124 21.106 48.542 21.866 48.941 22.776H50.737C51.572 24.956 52.098 27.0558 52.316 29.0858C52.57 31.0858 52.298 33.3358 51.499 35.8358H48.015ZM39.196 37.1459C40.321 37.5059 41.392 37.726 42.408 37.796C43.424 37.836 44.386 37.6959 45.293 37.3659C46.237 37.0059 47.144 36.4958 48.015 35.8358L49.757 37.6359C48.197 38.7959 46.582 39.596 44.912 40.036C43.279 40.466 41.374 40.5959 39.196 40.4159V37.1459ZM69.192 35.8358C69.337 35.2958 69.482 34.786 69.628 34.316C69.773 33.846 69.882 33.336 69.954 32.796L70.118 32.1359C70.48 31.9959 70.789 31.9259 71.043 31.9259C71.333 31.8859 71.587 31.9358 71.805 32.0858C72.059 32.1958 72.313 32.316 72.567 32.466C72.531 33.086 72.477 33.6459 72.404 34.1559C72.331 34.6259 72.241 35.1858 72.132 35.8358H69.192ZM62.224 14.066L60.754 12.266C62.133 11.836 63.294 11.5459 64.238 11.3959C65.182 11.2559 66.289 11.1759 67.559 11.1759C68.212 11.5759 68.72 11.9759 69.083 12.3759C69.446 12.7759 69.718 13.336 69.9 14.066H71.642C71.932 14.936 72.095 15.8059 72.132 16.6759C72.204 17.5159 72.241 18.5159 72.241 19.6759V19.9459C71.95 20.1259 71.678 20.2759 71.424 20.3759C71.206 20.4559 70.952 20.4659 70.662 20.4359C70.372 20.3659 70.027 20.236 69.628 20.056C69.591 19.946 69.555 19.8159 69.519 19.6759C69.482 19.5259 69.464 19.3459 69.464 19.1259C69.21 17.9259 68.938 16.9459 68.648 16.1859C68.394 15.3859 68.067 14.686 67.668 14.066H66.252C65.418 13.816 64.71 13.716 64.129 13.796C63.548 13.826 62.913 13.916 62.224 14.066ZM62.224 14.066C61.534 16.026 60.972 18.166 60.536 20.486C60.101 22.776 59.937 25.206 60.046 27.786C60.155 30.356 60.554 33.0458 61.244 35.8358H56.834C56.036 32.6858 55.637 29.8558 55.637 27.3458C55.673 24.8458 56 22.5259 56.617 20.3759C57.27 18.2359 58.05 16.136 58.958 14.066H62.224ZM61.244 35.8358C62.079 36.2358 62.895 36.566 63.694 36.816C64.492 37.076 65.327 37.146 66.198 37.036C67.105 36.896 68.103 36.4958 69.192 35.8358L70.335 37.6359C69.246 38.8759 68.031 39.7259 66.688 40.1959C65.345 40.6659 63.966 40.6659 62.55 40.1959C61.171 39.7559 59.865 38.9059 58.631 37.6359L61.244 35.8358ZM89.988 35.8358C90.206 35.1558 90.405 34.4259 90.587 33.6659C90.804 32.9059 90.95 32.1559 91.022 31.4359C91.385 31.2859 91.694 31.1959 91.948 31.1559C92.238 31.1259 92.51 31.156 92.764 31.266C93.018 31.376 93.29 31.5259 93.581 31.7059C93.508 32.4259 93.399 33.1358 93.254 33.8258C93.145 34.4758 93.018 35.1558 92.873 35.8358H89.988ZM81.604 35.8358C82.439 36.2358 83.292 36.566 84.163 36.816C85.034 37.076 85.941 37.146 86.885 37.036C87.865 36.896 88.899 36.4958 89.988 35.8358L91.077 37.6359C90.024 38.9059 88.79 39.7559 87.375 40.1959C85.959 40.6359 84.526 40.6159 83.074 40.1459C81.622 39.6659 80.298 38.8359 79.1 37.6359L81.604 35.8358ZM82.53 14.066C81.767 16.026 81.15 18.166 80.679 20.486C80.545 21.136 80.434 21.796 80.347 22.476C80.515 22.726 80.698 22.916 80.896 23.046C81.114 23.196 81.441 23.266 81.876 23.266C82.53 23.306 83.237 23.3359 83.999 23.3759H86.504C87.23 23.3759 87.774 23.316 88.137 23.216C88.5 23.106 88.863 22.956 89.226 22.776C89.334 22.376 89.389 21.9959 89.389 21.6359C89.425 21.2359 89.443 20.7958 89.443 20.3258V20.056C89.443 18.746 89.353 17.6259 89.171 16.6759C88.99 15.7359 88.681 14.866 88.246 14.066H86.885C86.014 13.816 85.251 13.706 84.598 13.736C83.981 13.776 83.292 13.886 82.53 14.066L80.733 12.266C82.076 11.796 83.183 11.5059 84.054 11.3959C84.925 11.2559 85.996 11.1759 87.266 11.1759C87.81 11.5759 88.336 11.9959 88.845 12.4359C89.389 12.8359 89.824 13.376 90.151 14.066H91.948C92.565 15.516 93 16.8959 93.254 18.2059C93.508 19.4759 93.617 20.996 93.581 22.776C93.581 23.606 93.526 24.266 93.417 24.736C93.345 25.166 93.163 25.586 92.873 25.986H82.911C82.112 25.986 81.55 26.1159 81.223 26.3659C80.933 26.6259 80.57 26.9659 80.134 27.4059C80.126 27.2959 80.119 27.1858 80.111 27.0858C80.116 27.3358 80.124 27.5858 80.134 27.8358C80.279 30.4158 80.769 33.0858 81.604 35.8358H77.303C76.432 32.7558 75.979 29.9659 75.942 27.4559C75.942 24.9159 76.215 22.5759 76.759 20.4359C77.34 18.2559 78.066 16.136 78.937 14.066H82.53ZM124.72 35.8358C125.555 36.2358 126.407 36.566 127.278 36.816C128.149 37.076 129.057 37.146 130 37.036C130.98 36.896 132.015 36.4958 133.103 35.8358L134.192 37.6359C133.14 38.9059 131.906 39.7559 130.49 40.1959C129.075 40.6359 127.623 40.6159 126.135 40.1459C124.684 39.6659 123.359 38.8359 122.161 37.6359L124.72 35.8358ZM133.103 35.8358C133.285 35.1558 133.484 34.4259 133.702 33.6659C133.92 32.9059 134.065 32.1559 134.138 31.4359C134.464 31.2859 134.773 31.1959 135.063 31.1559C135.354 31.1259 135.626 31.156 135.88 31.266C136.134 31.376 136.388 31.5259 136.642 31.7059C136.606 32.4259 136.515 33.1358 136.37 33.8258C136.225 34.4758 136.098 35.1558 135.989 35.8358H133.103ZM125.645 14.066C124.883 16.026 124.266 18.166 123.794 20.486C123.66 21.136 123.55 21.796 123.463 22.476C123.631 22.726 123.814 22.916 124.012 23.046C124.23 23.196 124.556 23.266 124.992 23.266C125.645 23.306 126.353 23.3359 127.115 23.3759H129.565C130.327 23.3759 130.871 23.316 131.198 23.216C131.561 23.106 131.942 22.956 132.341 22.776C132.45 22.376 132.505 21.9959 132.505 21.6359C132.541 21.2359 132.559 20.7958 132.559 20.3258V20.056C132.559 18.746 132.45 17.6259 132.232 16.6759C132.051 15.7359 131.761 14.866 131.361 14.066H129.946C129.111 13.816 128.367 13.706 127.714 13.736C127.061 13.776 126.371 13.886 125.645 14.066L123.794 12.266C125.173 11.796 126.299 11.5059 127.17 11.3959C128.041 11.2559 129.111 11.1759 130.381 11.1759C130.926 11.5759 131.452 11.9959 131.96 12.4359C132.505 12.8359 132.94 13.376 133.267 14.066H135.063C135.68 15.516 136.116 16.8959 136.37 18.2059C136.624 19.4759 136.733 20.996 136.696 22.776C136.696 23.606 136.642 24.266 136.533 24.736C136.46 25.166 136.261 25.586 135.934 25.986H126.026C125.228 25.986 124.665 26.1159 124.339 26.3659C124.012 26.6259 123.649 26.9659 123.25 27.4059C123.242 27.2959 123.234 27.1858 123.226 27.0758C123.232 27.3258 123.239 27.5858 123.25 27.8358C123.359 30.4158 123.849 33.0858 124.72 35.8358H120.419C119.548 32.7558 119.094 29.9659 119.058 27.4559C119.058 24.9159 119.33 22.5759 119.875 20.4359C120.455 18.2559 121.181 16.136 122.052 14.066H125.645ZM101.365 36.3258C101.329 37.0158 101.438 37.4759 101.692 37.6959C101.946 37.9059 102.291 38.106 102.726 38.286L102.835 38.3458C102.872 38.3458 102.926 38.3659 102.999 38.3959C103.289 38.5459 103.489 38.676 103.597 38.776C103.743 38.886 103.815 39.0658 103.815 39.3258C103.815 39.5758 103.761 39.7759 103.652 39.9259C103.579 40.0359 103.434 40.146 103.216 40.246H95.976C95.722 40.146 95.54 40.0359 95.432 39.9259C95.359 39.8159 95.323 39.6158 95.323 39.3258C95.323 39.1458 95.377 38.9959 95.486 38.8859C95.631 38.7759 95.867 38.6359 96.194 38.4559C96.266 38.4159 96.339 38.3858 96.412 38.3458C96.52 38.3058 96.629 38.2559 96.738 38.1859C96.992 37.9259 97.137 37.6759 97.174 37.4159C97.246 37.1659 97.283 36.8058 97.283 36.3258V20.546C97.283 19.236 97.428 18.1159 97.718 17.1659C98.008 16.2259 98.498 15.186 99.188 14.066H100.93C101.148 13.486 101.456 12.9958 101.855 12.5958C102.255 12.1958 102.654 11.756 103.053 11.286C104.287 11.216 105.321 11.1759 106.156 11.1759C107.027 11.1759 108.08 11.2358 109.314 11.3458C109.749 11.8158 110.112 12.216 110.402 12.536C110.729 12.866 111.074 13.376 111.437 14.066H113.233C113.923 15.116 114.413 16.096 114.703 17.006C115.03 17.876 115.193 18.946 115.193 20.216L115.247 36.3258C115.247 36.8058 115.284 37.1659 115.356 37.4159C115.429 37.6759 115.592 37.9259 115.846 38.1859C115.955 38.2559 116.064 38.3058 116.173 38.3458C116.282 38.3858 116.391 38.436 116.5 38.506C116.826 38.616 117.062 38.7258 117.207 38.8358C117.389 38.9458 117.479 39.1058 117.479 39.3258C117.479 39.6158 117.425 39.8159 117.316 39.9259C117.244 40.0359 117.08 40.146 116.826 40.246H109.749C109.531 40.146 109.368 40.0359 109.259 39.9259C109.187 39.7759 109.15 39.5758 109.15 39.3258C109.15 39.1058 109.223 38.9458 109.368 38.8358C109.549 38.6858 109.804 38.5258 110.13 38.3458C110.384 38.1658 110.62 37.966 110.838 37.746C111.056 37.496 111.146 37.0158 111.11 36.3258V19.1859C111.11 17.8359 110.91 16.8259 110.511 16.1359C110.148 15.4459 109.658 14.756 109.041 14.066H108.17C107.444 13.956 106.828 13.9059 106.319 13.9059C105.848 13.8659 105.267 13.916 104.577 14.066H103.271C102.763 14.716 102.309 15.3858 101.91 16.0758C101.547 16.7358 101.365 17.6759 101.365 18.9059V36.3258ZM11.269 37.796C11.269 37.076 11.45 36.326 11.813 35.566C12.575 35.206 13.301 35.026 13.991 35.026C14.717 35.026 15.461 35.186 16.223 35.516C16.586 36.276 16.767 37.016 16.767 37.746C16.804 38.476 16.64 39.1959 16.277 39.9259C15.515 40.2859 14.771 40.466 14.045 40.466C13.319 40.506 12.594 40.346 11.868 39.976C11.469 39.216 11.269 38.486 11.269 37.796Z" fill="black"/>
</svg>
