<svg width="140" height="41" viewBox="0 0 140 41" fill="none" xmlns="http://www.w3.org/2000/svg">
<path fill-rule="evenodd" clip-rule="evenodd" d="M4.355 14.1202L0.272 14.2291C0.2 13.3211 0.127 12.6142 0.054 12.1052C0.018 11.5612 0 10.7812 0 9.76516C0.871 9.69216 1.561 9.61917 2.069 9.54717C2.577 9.47417 3.339 9.42015 4.355 9.38415V5.24615L6.642 5.19216C7.113 5.15516 7.458 5.13717 7.676 5.13717C7.894 5.10117 8.238 5.08315 8.71 5.08315V1.00014H10.779C11.287 1.00014 12.013 1.01816 12.957 1.05416C12.993 1.96216 12.993 2.66915 12.957 3.17715C12.957 3.64915 12.938 4.35717 12.902 5.30117L8.71 5.35516V9.43816C7.767 9.47416 7.041 9.51117 6.533 9.54717H4.355V10.8532C4.319 11.2162 4.283 11.5072 4.246 11.7242C4.21 11.9062 4.192 12.1961 4.192 12.5951C4.192 12.9581 4.21 13.2312 4.246 13.4122C4.283 13.5572 4.319 13.7932 4.355 14.1202ZM4.355 14.1202C5.916 14.1202 7.095 14.1021 7.894 14.0651C8.692 14.0291 9.908 13.9932 11.541 13.9562L13.065 13.9022V9.81915C13.973 9.78315 14.68 9.76516 15.189 9.76516C15.697 9.72816 16.441 9.71017 17.421 9.71017V5.57317H21.721C22.737 5.57317 24.207 5.60915 26.131 5.68215V9.81915L30.214 9.76516C30.25 10.6722 30.268 11.3801 30.268 11.8881C30.304 12.3961 30.323 13.1221 30.323 14.0651H26.24V16.2432C26.24 16.7512 26.222 17.4772 26.185 18.4202H22.102C22.102 19.3642 22.066 20.0902 21.993 20.5982C21.921 21.1062 21.848 21.8321 21.776 22.7761H17.693C17.693 22.9571 17.674 23.0842 17.638 23.1572C17.638 23.2292 17.62 23.3562 17.584 23.5382L17.257 25.3342C17.221 25.7332 17.203 26.3322 17.203 27.1312V31.4311C16.513 31.4681 15.987 31.4862 15.624 31.4862H14.535C14.209 31.4862 13.701 31.4681 13.011 31.4311V28.2192C13.011 27.0942 13.029 26.2602 13.065 25.7152C13.102 25.1352 13.156 24.3002 13.229 23.2112V22.7761H17.312C17.348 22.1591 17.384 21.7052 17.421 21.4152C17.457 21.1242 17.493 20.6712 17.529 20.0542C17.566 19.6912 17.602 19.4181 17.638 19.2371C17.674 19.0561 17.711 18.7832 17.747 18.4202H21.83L21.993 16.2972C22.03 15.7892 22.048 15.0451 22.048 14.0651H26.131V9.98217H23.518C22.973 9.94617 22.538 9.91016 22.211 9.87316C21.921 9.83716 21.485 9.81915 20.905 9.81915C20.179 9.81915 19.616 9.83716 19.217 9.87316C18.818 9.87316 18.219 9.89215 17.421 9.92815V14.0651L13.065 14.1742V18.2572C11.142 18.3302 9.69 18.3662 8.71 18.3662H4.355V14.1202ZM47.906 35.8411L48.07 39.9242C46.219 40.0332 44.767 40.1232 43.715 40.1962C42.698 40.2322 41.192 40.2322 39.196 40.1962V35.9502C40.612 35.9862 41.7 36.0222 42.462 36.0592C43.225 36.0592 43.969 36.0402 44.694 36.0042C45.457 35.9682 46.527 35.9131 47.906 35.8411ZM38.924 14.0651H34.841C34.805 12.6501 34.768 11.5612 34.732 10.7992C34.732 10.0002 34.75 9.22015 34.786 8.45815C34.859 7.66015 34.968 6.53515 35.113 5.08315L39.196 5.19216C39.124 6.60716 39.069 7.69615 39.033 8.45815C39.033 9.22015 39.051 10.0002 39.087 10.7992C39.124 11.5612 39.178 12.6501 39.251 14.0651H43.334C43.37 14.9731 43.406 15.6802 43.442 16.1882C43.515 16.6962 43.588 17.4402 43.66 18.4202H47.743C47.779 19.3642 47.816 20.0902 47.852 20.5982C47.925 21.0702 47.979 21.7961 48.015 22.7761H52.098C52.171 25.5701 52.225 27.7112 52.262 29.1992C52.298 30.6872 52.28 32.9011 52.207 35.8411H47.906C47.979 33.0101 47.979 30.8512 47.906 29.3632C47.87 27.8752 47.798 25.6791 47.689 22.7761H43.606C43.569 22.2671 43.533 21.8862 43.497 21.6322C43.461 21.3782 43.424 20.9792 43.388 20.4352C43.388 19.9992 43.37 19.6722 43.334 19.4552C43.297 19.2372 43.279 18.8922 43.279 18.4202H39.142C39.105 17.4772 39.069 16.7512 39.033 16.2432C38.997 15.7352 38.96 15.0091 38.924 14.0651ZM39.196 5.19216V1.00014C41.083 0.964145 42.535 0.964145 43.551 1.00014H47.906V5.08315C48.85 5.11915 49.558 5.15516 50.03 5.19216H52.153V13.9022C51.499 13.9382 50.991 13.9562 50.628 13.9562H49.539C49.177 13.9562 48.65 13.9382 47.961 13.9022C47.961 12.8492 47.943 12.0512 47.906 11.5072V5.46416C46.491 5.35516 45.402 5.28215 44.64 5.24615C43.914 5.17415 43.17 5.13717 42.408 5.13717C41.682 5.13717 40.612 5.15516 39.196 5.19216ZM39.196 35.9502L35.113 36.1132C35.004 35.2062 34.914 34.5162 34.841 34.0442C34.805 33.5732 34.786 32.8471 34.786 31.8671L34.732 30.0162V27.2402H36.311C36.674 27.2032 37.019 27.1852 37.345 27.1852C37.708 27.1852 38.234 27.2032 38.924 27.2402V28.0561C38.96 29.7981 38.997 31.1232 39.033 32.0302C39.069 32.9372 39.124 34.2442 39.196 35.9502ZM69.628 35.8411C69.664 35.0791 69.682 34.4982 69.682 34.0992C69.682 33.6632 69.7 33.0832 69.736 32.3572V31.5402H72.35C72.712 31.5402 73.221 31.5581 73.874 31.5951V33.7721C73.874 34.2441 73.856 34.9341 73.819 35.8411H69.628ZM61.026 35.8411C62.405 35.8771 63.458 35.9132 64.184 35.9502C64.909 35.9862 65.635 36.0042 66.361 36.0042C67.123 35.9682 68.212 35.9131 69.628 35.8411L69.736 39.9242C68.321 40.0692 67.214 40.1602 66.416 40.1962C65.653 40.2322 64.873 40.2322 64.075 40.1962C63.276 40.1602 62.169 40.0692 60.754 39.9242L61.026 35.8411ZM61.081 14.0651C61.008 17.5131 60.954 20.1812 60.917 22.0682C60.881 23.9192 60.863 25.7882 60.863 27.6752C60.899 29.5622 60.954 32.2841 61.026 35.8411H56.617C56.544 32.2481 56.508 29.5081 56.508 27.6211C56.508 25.7331 56.544 23.8822 56.617 22.0682C56.689 20.2172 56.762 17.5491 56.834 14.0651H61.081ZM61.081 14.0651L60.972 9.98217C62.859 9.94617 64.274 9.92815 65.218 9.92815C66.198 9.89215 67.613 9.87316 69.464 9.87316C69.537 10.7812 69.591 11.4882 69.628 11.9972C69.664 12.4682 69.682 13.1581 69.682 14.0651H73.819V16.1882C73.856 16.6602 73.874 17.3682 73.874 18.3122V18.5842C73.184 18.5842 72.658 18.6021 72.295 18.6381H71.261C70.898 18.6381 70.372 18.6202 69.682 18.5842V17.8762C69.646 17.0052 69.609 16.3522 69.573 15.9162C69.537 15.4812 69.501 14.8641 69.464 14.0651H66.252C65.091 14.0291 64.22 14.0291 63.639 14.0651H61.081ZM91.294 35.8411C91.331 34.8971 91.349 34.1712 91.349 33.6632C91.385 33.1192 91.403 32.3932 91.403 31.4862C92.093 31.4492 92.619 31.4311 92.982 31.4311C93.345 31.4311 93.69 31.4492 94.016 31.4862H95.595C95.595 32.4662 95.577 33.2102 95.54 33.7182V35.8411H91.294ZM82.638 35.8411C84.018 35.8771 85.07 35.9132 85.796 35.9502C86.558 35.9862 87.302 36.0042 88.028 36.0042C88.79 35.9682 89.879 35.9131 91.294 35.8411L91.403 39.9242C89.988 40.0692 88.881 40.1602 88.082 40.1962C87.32 40.2322 86.522 40.2322 85.687 40.1962C84.889 40.1602 83.782 40.0692 82.366 39.9242L82.638 35.8411ZM82.747 14.0651C82.638 17.5131 82.566 20.1812 82.53 22.0682C82.525 22.2862 82.521 22.5052 82.517 22.7242C83.003 22.7592 83.352 22.7952 83.564 22.8302H89.933C90.224 22.8302 90.659 22.8121 91.24 22.7761V19.5642C91.24 18.3302 91.222 17.4042 91.185 16.7872C91.185 16.1342 91.167 15.2271 91.131 14.0651H87.919C86.758 14.0291 85.869 14.0291 85.251 14.0651H82.747L82.53 9.98217C84.453 9.91017 85.887 9.87316 86.83 9.87316H91.022C91.095 10.7812 91.149 11.4882 91.185 11.9972C91.258 12.4682 91.312 13.1581 91.349 14.0651H95.432C95.504 15.9891 95.54 17.4402 95.54 18.4202C95.577 19.4002 95.595 20.8521 95.595 22.7761C95.595 23.7551 95.577 24.4811 95.54 24.9531C95.54 25.4251 95.522 26.1141 95.486 27.0221H86.994C85.941 27.0221 85.161 27.0402 84.653 27.0762C84.145 27.0762 83.419 27.0942 82.475 27.1312C82.475 27.3122 82.475 27.4942 82.475 27.6752C82.475 29.5622 82.53 32.2841 82.638 35.8411H78.283C78.211 32.2841 78.156 29.5622 78.12 27.6752C78.12 25.7882 78.156 23.9192 78.229 22.0682C78.302 20.2172 78.374 17.5491 78.447 14.0651H82.747ZM126.244 14.0651C126.172 17.5131 126.099 20.1812 126.026 22.0682C126.02 22.3562 126.015 22.6452 126.01 22.9342C126.015 22.8662 126.02 22.7952 126.026 22.7212C126.498 22.7572 126.843 22.7942 127.061 22.8302H133.484C133.775 22.8302 134.192 22.8121 134.737 22.7761V19.5642C134.737 18.3302 134.718 17.4042 134.682 16.7872C134.682 16.1342 134.664 15.2271 134.628 14.0651H131.416C130.254 14.0291 129.383 14.0291 128.803 14.0651H126.244L126.026 9.98217C127.95 9.91017 129.383 9.87316 130.327 9.87316H134.519C134.591 10.7812 134.646 11.4882 134.682 11.9972C134.755 12.4682 134.809 13.1581 134.845 14.0651H138.928C139.001 15.9891 139.037 17.4402 139.037 18.4202C139.074 19.4002 139.092 20.8521 139.092 22.7761C139.092 23.7551 139.074 24.4811 139.037 24.9531V27.0221H130.49C129.438 27.0221 128.658 27.0402 128.149 27.0762C127.678 27.0762 126.952 27.0942 125.972 27.1312C125.972 27.3122 125.972 27.4942 125.972 27.6752C126.008 29.5622 126.063 32.2841 126.135 35.8411H121.78C121.708 32.2841 121.671 29.5622 121.671 27.6752C121.671 25.7882 121.689 23.9192 121.726 22.0682C121.798 20.2172 121.871 17.5491 121.943 14.0651H126.244ZM134.791 35.8411C134.827 34.8971 134.845 34.1712 134.845 33.6632C134.882 33.1192 134.9 32.3932 134.9 31.4862C135.589 31.4492 136.116 31.4311 136.479 31.4311C136.842 31.4311 137.186 31.4492 137.513 31.4862H139.092C139.092 32.4662 139.074 33.2102 139.037 33.7182V35.8411H134.791ZM126.135 35.8411C127.514 35.8771 128.567 35.9132 129.293 35.9502C130.055 35.9862 130.799 36.0042 131.525 36.0042C132.287 35.9682 133.376 35.9131 134.791 35.8411L134.9 39.9242C133.521 40.0692 132.432 40.1602 131.634 40.1962C130.835 40.2322 130.037 40.2322 129.238 40.1962C128.44 40.1602 127.315 40.0692 125.863 39.9242L126.135 35.8411ZM104.196 18.9101V36.7662C104.233 36.9122 104.287 37.1662 104.36 37.5282V37.6922C104.396 37.9462 104.414 38.1452 104.414 38.2912C104.45 38.4002 104.468 38.5992 104.468 38.8892C104.468 39.1802 104.45 39.3981 104.414 39.5431V40.1962H99.732C99.696 39.9422 99.678 39.7422 99.678 39.5972V38.4542C99.714 38.3452 99.75 38.2002 99.787 38.0182V37.8552C99.787 37.7832 99.805 37.7102 99.841 37.6372V36.8212C99.878 36.6032 99.896 36.2952 99.896 35.8952V17.0592C99.932 16.3702 99.986 15.3721 100.059 14.0651H104.142C104.178 13.1581 104.214 12.4682 104.251 11.9972C104.287 11.5252 104.323 10.8172 104.36 9.87316H112.852C112.888 10.7812 112.925 11.4702 112.961 11.9422C112.997 12.4142 113.034 13.1221 113.07 14.0651H117.153C117.225 15.3361 117.28 16.3151 117.316 17.0051C117.352 17.6581 117.371 18.6382 117.371 19.9452V36.8212C117.371 37.0022 117.389 37.2742 117.425 37.6372V37.8552C117.461 37.8912 117.479 37.9642 117.479 38.0732C117.516 38.2542 117.534 38.4002 117.534 38.5082C117.57 38.6172 117.588 38.7621 117.588 38.9441C117.588 39.2341 117.57 39.4522 117.534 39.5972V40.1962H112.852C112.852 39.9422 112.834 39.7422 112.798 39.5972V38.2912C112.834 38.1452 112.87 37.9282 112.907 37.6372C112.943 37.2742 112.961 37.0022 112.961 36.8212C112.997 36.6392 113.015 36.3312 113.015 35.8952V19.5091C113.015 18.3121 112.997 17.4042 112.961 16.7872C112.925 16.1342 112.87 15.2271 112.798 14.0651H104.414C104.341 15.0811 104.287 15.8802 104.251 16.4612C104.214 17.0052 104.196 17.8221 104.196 18.9101ZM12.902 37.9642C12.902 37.4562 12.92 36.7481 12.957 35.8411C13.9 35.7681 14.626 35.7322 15.134 35.7322C15.642 35.7322 16.368 35.7502 17.312 35.7862C17.348 36.7662 17.366 37.5102 17.366 38.0182C17.366 38.5272 17.348 39.2522 17.312 40.1962C16.332 40.2322 15.588 40.2501 15.08 40.2501C14.572 40.2501 13.864 40.2322 12.957 40.1962C12.92 39.2162 12.902 38.4722 12.902 37.9642Z" fill="black"/>
</svg>
