<svg width="137" height="41" viewBox="0 0 137 41" fill="none" xmlns="http://www.w3.org/2000/svg">
<path fill-rule="evenodd" clip-rule="evenodd" d="M4.355 14.4459L2.613 15.966C1.778 15.286 1.125 14.4858 0.653 13.5758C0.218 12.6658 0 11.576 0 10.306C0.363 9.40604 0.871 8.62595 1.524 7.96595C2.178 7.31595 3.121 6.73596 4.355 6.22596V4.48597L6.642 3.61585C7.077 3.39585 7.44 3.21605 7.73 3.06605C8.057 2.92605 8.384 2.81598 8.71 2.74598V0.995981C9.4 0.855981 9.999 0.835932 10.507 0.945932C11.051 1.01593 11.596 1.21603 12.14 1.54603C12.285 2.23603 12.285 2.81602 12.14 3.28602C12.031 3.75602 11.777 4.28585 11.378 4.86585L8.71 5.29603V7.04603C7.948 7.22603 7.186 7.45598 6.424 7.74598C5.662 8.00598 4.972 8.20583 4.355 8.34583V8.89588C3.956 9.32588 3.593 9.76593 3.266 10.1959C2.976 10.6359 2.831 11.1959 2.831 11.8859C2.831 12.5759 2.976 13.126 3.266 13.516C3.593 13.916 3.956 14.2259 4.355 14.4459ZM4.355 14.4459C5.48 14.4859 6.551 14.356 7.567 14.066C8.583 13.776 9.908 13.356 11.541 12.816L13.065 12.3258L13.12 16.8959C11.269 17.4059 9.708 17.7459 8.438 17.9259C7.204 18.0759 5.843 18.006 4.355 17.716V14.4459ZM20.251 22.776C20.07 22.956 19.87 23.116 19.653 23.266C19.471 23.376 19.271 23.5159 19.054 23.6959C17.747 24.6759 16.749 25.4758 16.06 26.0958C15.406 26.7158 15.08 27.436 15.08 28.276V31.1559C14.789 31.3359 14.499 31.466 14.209 31.536C13.955 31.576 13.682 31.556 13.392 31.486C13.102 31.416 12.811 31.2858 12.521 31.1058V28.5958C12.521 27.3658 12.702 26.3859 13.065 25.6559C13.428 24.9359 13.882 24.0959 14.426 23.1559L14.644 22.776H16.386C16.677 22.306 17.021 21.886 17.421 21.526C17.82 21.156 18.255 20.746 18.727 20.276C19.017 19.946 19.344 19.6559 19.707 19.3959C20.07 19.1459 20.451 18.8159 20.85 18.4159H22.538C23.082 17.6259 23.5 16.9459 23.79 16.4059C24.116 15.8259 24.28 15.046 24.28 14.066H26.131V12.3258H24.933C24.679 11.9258 24.334 11.5958 23.899 11.3458C23.463 11.0558 22.919 10.9059 22.266 10.9059C21.503 10.9059 20.741 11.016 19.979 11.236C19.217 11.456 18.364 11.7458 17.421 12.1058V13.8458L13.12 15.1559L13.065 10.5858C13.646 10.4758 14.281 10.3058 14.971 10.0958C15.697 9.87583 16.513 9.67598 17.421 9.49598V7.74598C18.981 7.45598 20.433 7.33585 21.776 7.36585C23.155 7.36585 24.606 7.82596 26.131 8.72596V10.6359L27.873 10.476L28.417 12.216C28.599 12.756 28.726 13.376 28.798 14.066H27.056C27.165 14.866 27.201 15.586 27.165 16.246C27.165 16.896 27.074 17.6259 26.893 18.4159H25.151C24.933 19.2959 24.534 20.0559 23.953 20.7059C23.409 21.3259 22.756 22.016 21.993 22.776H20.251ZM39.196 37.1459L37.454 38.6759C36.438 38.1259 35.621 37.656 35.004 37.256C34.387 36.816 34.079 36.236 34.079 35.516L34.024 32.5758L33.916 28.3258C34.206 28.1058 34.478 27.9659 34.732 27.8959C35.022 27.7859 35.313 27.7658 35.603 27.8358C35.894 27.8758 36.202 28.006 36.529 28.216L36.692 29.036C36.982 30.846 37.309 32.356 37.672 33.556C38.035 34.756 38.543 35.9459 39.196 37.1459ZM39.196 3.93592V1.1659C40.938 0.795902 42.481 0.635912 43.823 0.675912C45.203 0.705912 46.564 0.815981 47.906 0.995981V2.74598C48.741 2.92598 49.394 3.10602 49.866 3.28602C50.338 3.43602 50.792 3.64592 51.227 3.93592C51.227 5.42592 51.245 6.84592 51.282 8.18592C51.318 9.52592 51.336 10.966 51.336 12.486C51.046 12.706 50.755 12.8459 50.465 12.9259C50.211 12.9959 49.939 13.016 49.648 12.976C49.358 12.906 49.031 12.756 48.669 12.536C48.523 11.486 48.378 10.6758 48.233 10.0958C48.124 9.47583 48.015 8.78601 47.906 8.02601V6.49598C46.963 5.40598 46.037 4.61584 45.13 4.10584C44.259 3.59584 43.334 3.33582 42.354 3.33582C41.41 3.33582 40.358 3.53592 39.196 3.93592ZM48.015 35.8358C48.632 33.1958 48.669 30.8859 48.124 28.9259C47.58 26.9659 46.763 24.916 45.674 22.776H43.932C43.678 22.336 43.406 21.9559 43.116 21.6359C42.825 21.3059 42.517 20.9059 42.19 20.4359C41.936 20.0759 41.664 19.7459 41.374 19.4559C41.12 19.1659 40.866 18.8159 40.612 18.4159H38.87C38.253 17.5159 37.763 16.7459 37.4 16.1359C37.037 15.5159 36.746 14.826 36.529 14.066H34.786C34.533 13.126 34.297 12.016 34.079 10.746C33.897 9.43598 34.024 8.116 34.46 6.766C34.932 5.396 35.93 4.10589 37.454 2.90589L39.196 3.93592C38.579 4.99592 38.18 6.06589 37.998 7.15589C37.817 8.20589 37.871 9.30596 38.162 10.476C38.452 11.596 38.997 12.796 39.795 14.066H41.537C41.864 14.756 42.317 15.4659 42.898 16.1859C43.479 16.8759 44.059 17.6259 44.64 18.4159H46.382C46.818 19.1859 47.253 19.876 47.689 20.486C48.124 21.106 48.542 21.866 48.941 22.776H50.683C51.554 24.956 52.098 27.0558 52.316 29.0858C52.57 31.0858 52.298 33.3358 51.499 35.8358H48.015ZM39.196 37.1459C40.321 37.5459 41.392 37.766 42.408 37.796C43.424 37.836 44.386 37.6959 45.293 37.3659C46.237 37.0359 47.144 36.5258 48.015 35.8358L49.757 37.5858C48.233 38.7458 46.636 39.556 44.967 40.036C43.297 40.506 41.374 40.6359 39.196 40.4159V37.1459ZM69.138 35.8358C69.319 35.2958 69.482 34.786 69.628 34.316C69.773 33.846 69.882 33.336 69.954 32.796L70.118 32.1959C70.48 32.0159 70.789 31.9259 71.043 31.9259C71.333 31.8859 71.587 31.9358 71.805 32.0858C72.059 32.1958 72.313 32.336 72.567 32.516C72.531 33.096 72.477 33.6459 72.404 34.1559C72.331 34.6259 72.222 35.1858 72.077 35.8358H69.138ZM61.244 35.8358C62.079 36.2358 62.895 36.566 63.694 36.816C64.492 37.076 65.327 37.146 66.198 37.036C67.105 36.896 68.085 36.4958 69.138 35.8358L70.335 37.5858C69.246 38.8558 68.031 39.7259 66.688 40.1959C65.345 40.6659 63.966 40.6659 62.55 40.1959C61.135 39.7559 59.81 38.8858 58.576 37.5858L61.244 35.8358ZM62.224 14.066C61.534 16.026 60.972 18.166 60.536 20.486C60.101 22.776 59.937 25.206 60.046 27.786C60.155 30.356 60.554 33.0458 61.244 35.8358H56.834C56 32.6858 55.6 29.8558 55.637 27.3458C55.673 24.8058 56.018 22.4859 56.671 20.3759C57.324 18.2359 58.105 16.136 59.012 14.066H62.224ZM62.224 14.066L60.754 12.3258C62.133 11.8858 63.294 11.5959 64.238 11.4559C65.182 11.2659 66.27 11.1759 67.504 11.1759C68.194 11.5759 68.72 11.9759 69.083 12.3759C69.446 12.7759 69.718 13.336 69.9 14.066H71.642C71.896 14.936 72.059 15.8059 72.132 16.6759C72.204 17.5459 72.241 18.5459 72.241 19.6759V19.996C71.95 20.176 71.678 20.3259 71.424 20.4359C71.206 20.5059 70.952 20.526 70.662 20.486C70.372 20.416 70.027 20.2858 69.628 20.1058L69.519 19.6759C69.482 19.5259 69.464 19.3459 69.464 19.1259C69.21 17.9259 68.938 16.9459 68.648 16.1859C68.394 15.3859 68.049 14.686 67.613 14.066H66.252C65.418 13.816 64.71 13.716 64.129 13.796C63.548 13.826 62.913 13.916 62.224 14.066ZM89.933 35.8358C90.151 35.1558 90.369 34.4259 90.587 33.6659C90.804 32.9059 90.95 32.1559 91.022 31.4359C91.349 31.2859 91.657 31.1959 91.948 31.1559C92.238 31.1259 92.51 31.156 92.764 31.266C93.018 31.376 93.272 31.5259 93.526 31.7059C93.454 32.4259 93.345 33.1358 93.2 33.8258C93.091 34.4758 92.964 35.1558 92.819 35.8358H89.933ZM81.604 35.8358C82.439 36.2358 83.292 36.566 84.163 36.816C85.034 37.076 85.941 37.146 86.885 37.036C87.865 36.896 88.881 36.4958 89.933 35.8358L91.077 37.5858C90.024 38.8558 88.79 39.7259 87.375 40.1959C85.959 40.6359 84.507 40.6159 83.019 40.1459C81.531 39.6659 80.189 38.8158 78.991 37.5858L81.604 35.8358ZM82.53 14.066C81.767 15.986 81.132 18.1159 80.624 20.4359C80.489 21.1059 80.377 21.776 80.29 22.466C80.459 22.726 80.643 22.916 80.842 23.046C81.06 23.196 81.386 23.286 81.822 23.316C82.475 23.316 83.183 23.3359 83.945 23.3759H86.449C87.175 23.3759 87.719 23.316 88.082 23.216C88.445 23.106 88.826 22.956 89.226 22.776C89.334 22.376 89.389 21.9959 89.389 21.6359C89.425 21.2359 89.443 20.7958 89.443 20.3258V20.056C89.443 18.746 89.334 17.6259 89.117 16.6759C88.935 15.7359 88.627 14.866 88.191 14.066H86.83C85.996 13.816 85.251 13.706 84.598 13.736C83.945 13.776 83.255 13.886 82.53 14.066L80.679 12.3258C82.022 11.8558 83.128 11.5659 83.999 11.4559C84.87 11.3059 85.941 11.236 87.211 11.236C87.756 11.596 88.282 11.9959 88.79 12.4359C89.334 12.8359 89.788 13.376 90.151 14.066H91.893C92.51 15.516 92.946 16.8959 93.2 18.2059C93.49 19.4759 93.617 20.996 93.581 22.776C93.581 23.606 93.526 24.266 93.417 24.736C93.309 25.166 93.109 25.5659 92.819 25.9359C91.984 25.9659 91.077 25.986 90.097 25.986C89.153 25.956 87.955 25.9359 86.504 25.9359H82.856C82.058 25.9359 81.495 26.0759 81.169 26.3659C80.842 26.6259 80.479 26.9659 80.08 27.4059C80.07 27.2759 80.062 27.146 80.055 27.016C80.06 27.286 80.068 27.5558 80.08 27.8358C80.225 30.4158 80.733 33.0858 81.604 35.8358H77.303C76.432 32.7558 75.979 29.9659 75.942 27.4559C75.906 24.9159 76.178 22.5759 76.759 20.4359C77.34 18.2559 78.066 16.136 78.937 14.066H82.53ZM133.049 35.8358C133.267 35.1558 133.466 34.4259 133.648 33.6659C133.866 32.9059 134.029 32.1559 134.138 31.4359C134.464 31.2859 134.755 31.1959 135.009 31.1559C135.299 31.1259 135.571 31.156 135.825 31.266C136.079 31.376 136.352 31.5259 136.642 31.7059C136.569 32.4259 136.46 33.1358 136.315 33.8258C136.17 34.4758 136.043 35.1558 135.934 35.8358H133.049ZM124.72 35.8358C125.518 36.2358 126.353 36.566 127.224 36.816C128.131 37.076 129.057 37.146 130 37.036C130.944 36.896 131.96 36.4958 133.049 35.8358L134.192 37.5858C133.14 38.8558 131.888 39.7259 130.436 40.1959C129.02 40.6359 127.569 40.6159 126.081 40.1459C124.629 39.6659 123.304 38.8158 122.107 37.5858L124.72 35.8358ZM125.645 14.066C124.847 15.986 124.212 18.1159 123.74 20.4359C123.605 21.1059 123.493 21.776 123.406 22.466C123.571 22.726 123.738 22.916 123.903 23.046C124.121 23.196 124.466 23.286 124.938 23.316C125.591 23.316 126.299 23.3359 127.061 23.3759H129.51C130.273 23.3759 130.835 23.316 131.198 23.216C131.561 23.106 131.924 22.956 132.287 22.776C132.396 22.376 132.45 21.9959 132.45 21.6359C132.486 21.2359 132.505 20.7958 132.505 20.3258V20.056C132.505 18.746 132.396 17.6259 132.178 16.6759C131.996 15.7359 131.706 14.866 131.307 14.066H129.946C129.111 13.816 128.367 13.706 127.714 13.736C127.061 13.776 126.371 13.886 125.645 14.066L123.794 12.3258C125.137 11.8558 126.244 11.5659 127.115 11.4559C127.986 11.3059 129.039 11.236 130.273 11.236C130.817 11.596 131.361 11.9959 131.906 12.4359C132.45 12.8359 132.904 13.376 133.267 14.066H134.954C135.608 15.516 136.061 16.8959 136.315 18.2059C136.569 19.4759 136.678 20.996 136.642 22.776C136.642 23.606 136.588 24.266 136.479 24.736C136.406 25.166 136.206 25.5659 135.88 25.9359C135.081 25.9659 134.192 25.986 133.212 25.986C132.232 25.956 131.017 25.9359 129.565 25.9359H125.917C125.155 25.9359 124.611 26.0759 124.284 26.3659C123.958 26.6259 123.595 26.9659 123.196 27.4059C123.188 27.2959 123.18 27.1958 123.173 27.0858C123.178 27.3358 123.186 27.5858 123.196 27.8358C123.304 30.4158 123.812 33.0858 124.72 35.8358H120.365C119.494 32.7558 119.04 29.9659 119.004 27.4559C119.004 24.9159 119.294 22.5759 119.875 20.4359C120.455 18.2559 121.181 16.136 122.052 14.066H125.645ZM101.311 36.3258C101.275 37.0558 101.384 37.526 101.638 37.746C101.892 37.966 102.255 38.146 102.726 38.286C102.763 38.326 102.799 38.3659 102.835 38.3959H102.944C103.271 38.5459 103.489 38.676 103.597 38.776C103.743 38.886 103.815 39.0859 103.815 39.3759C103.815 39.5959 103.761 39.7759 103.652 39.9259C103.543 40.0359 103.398 40.146 103.216 40.246H95.867C95.649 40.146 95.486 40.0359 95.377 39.9259C95.268 39.8159 95.214 39.6158 95.214 39.3258C95.214 39.1458 95.268 38.9959 95.377 38.8859C95.522 38.7759 95.758 38.656 96.085 38.506C96.194 38.436 96.284 38.3858 96.357 38.3458C96.466 38.3058 96.575 38.2559 96.684 38.1859C96.938 37.9659 97.083 37.726 97.119 37.476C97.192 37.186 97.228 36.8058 97.228 36.3258V20.546C97.228 19.236 97.373 18.1159 97.664 17.1659C97.99 16.2259 98.48 15.186 99.134 14.066H100.876C101.093 13.486 101.402 13.0159 101.801 12.6459C102.236 12.2459 102.654 11.796 103.053 11.286C104.251 11.216 105.267 11.1759 106.102 11.1759C106.973 11.1759 108.025 11.2358 109.259 11.3458C109.695 11.8158 110.058 12.216 110.348 12.536C110.675 12.866 111.037 13.376 111.437 14.066H113.179C113.868 15.116 114.376 16.096 114.703 17.006C115.03 17.876 115.193 18.946 115.193 20.216V36.3258C115.193 36.8058 115.229 37.186 115.302 37.476C115.374 37.726 115.556 37.9659 115.846 38.1859C115.955 38.2559 116.064 38.3058 116.173 38.3458C116.282 38.3858 116.391 38.436 116.5 38.506C116.826 38.616 117.062 38.7258 117.207 38.8358C117.389 38.9458 117.479 39.1058 117.479 39.3258C117.479 39.6158 117.425 39.8159 117.316 39.9259C117.244 40.0359 117.08 40.146 116.826 40.246H109.64C109.459 40.146 109.314 40.0359 109.205 39.9259C109.132 39.7759 109.096 39.5959 109.096 39.3759C109.096 39.1259 109.168 38.9458 109.314 38.8358C109.495 38.6858 109.749 38.5258 110.076 38.3458C110.366 38.1658 110.602 37.966 110.783 37.746C111.001 37.496 111.092 37.0158 111.056 36.3258V19.1859C111.056 17.8359 110.856 16.8259 110.457 16.1359C110.094 15.4059 109.604 14.716 108.987 14.066H108.116C107.39 13.956 106.773 13.9059 106.265 13.9059C105.793 13.8659 105.212 13.916 104.523 14.066H103.271C102.726 14.716 102.255 15.3858 101.855 16.0758C101.492 16.7358 101.311 17.6759 101.311 18.9059V36.3258ZM11.214 37.796C11.214 37.076 11.414 36.326 11.813 35.566C12.575 35.206 13.301 35.026 13.991 35.026C14.717 34.986 15.461 35.156 16.223 35.516C16.586 36.276 16.767 37.016 16.767 37.746C16.804 38.476 16.622 39.1959 16.223 39.9259C15.461 40.2859 14.717 40.466 13.991 40.466C13.301 40.506 12.575 40.346 11.813 39.976C11.45 39.216 11.251 38.486 11.214 37.796Z" fill="black"/>
</svg>
