<svg width="137" height="41" viewBox="0 0 137 41" fill="none" xmlns="http://www.w3.org/2000/svg">
<path fill-rule="evenodd" clip-rule="evenodd" d="M4.355 14.4459C5.48 14.5159 6.551 14.4059 7.567 14.1159C8.583 13.7959 9.908 13.356 11.541 12.816L13.065 12.3258L13.12 16.8458C11.269 17.3458 9.708 17.6959 8.438 17.8759C7.204 18.0259 5.843 17.966 4.355 17.716V14.4459ZM4.355 14.4459L2.668 15.966C1.833 15.316 1.18 14.5359 0.708 13.6259C0.236 12.6859 0 11.5959 0 10.3659C0.363 9.38585 0.871 8.5659 1.524 7.9159C2.178 7.2559 3.121 6.67591 4.355 6.17591V4.48597L6.642 3.55604C7.077 3.33604 7.44 3.156 7.73 3.016C8.057 2.866 8.384 2.75592 8.71 2.68592V0.995981C9.4 0.855981 9.999 0.835932 10.507 0.945932C11.015 1.01593 11.541 1.21603 12.086 1.54603C12.267 2.23603 12.285 2.81602 12.14 3.28602C11.995 3.75602 11.723 4.28585 11.323 4.86585L8.71 5.29603V6.98597C7.948 7.16597 7.186 7.40593 6.424 7.69593C5.662 7.98593 4.972 8.18603 4.355 8.29603V8.83582C3.956 9.27582 3.593 9.70588 3.266 10.1459C2.976 10.5859 2.831 11.1458 2.831 11.8358C2.831 12.5558 2.976 13.126 3.266 13.516C3.593 13.916 3.956 14.2259 4.355 14.4459ZM20.306 22.776C20.124 22.956 19.925 23.116 19.707 23.266C19.526 23.376 19.326 23.5159 19.108 23.6959C17.765 24.6759 16.749 25.4959 16.06 26.1459C15.37 26.7659 15.025 27.4958 15.025 28.3258V31.1559C14.735 31.3359 14.445 31.466 14.154 31.536C13.9 31.576 13.628 31.556 13.338 31.486C13.084 31.416 12.811 31.2858 12.521 31.1058V28.5958C12.521 27.3658 12.702 26.3859 13.065 25.6559C13.428 24.9359 13.9 24.0959 14.481 23.1559L14.698 22.776H16.386C16.677 22.306 17.021 21.886 17.421 21.526C17.856 21.156 18.292 20.746 18.727 20.276C19.054 19.946 19.398 19.6559 19.761 19.3959C20.124 19.1459 20.505 18.8159 20.905 18.4159H22.592C23.137 17.6259 23.554 16.9459 23.844 16.4059C24.171 15.8259 24.334 15.046 24.334 14.066H26.131V12.3759H24.933C24.715 11.9459 24.389 11.5958 23.953 11.3458C23.518 11.0558 22.955 10.9059 22.266 10.9059C21.54 10.9059 20.796 11.036 20.034 11.286C19.271 11.506 18.4 11.7959 17.421 12.1559V13.8458L13.12 15.1559L13.065 10.6359C13.646 10.4859 14.281 10.3058 14.971 10.0958C15.697 9.87583 16.513 9.67598 17.421 9.49598V7.80604C18.981 7.51604 20.433 7.38591 21.776 7.42591C23.155 7.42591 24.606 7.87602 26.131 8.78602V10.6859L27.818 10.476C28.036 11.056 28.218 11.636 28.363 12.216C28.544 12.756 28.689 13.376 28.798 14.066H27.111C27.22 14.866 27.256 15.606 27.22 16.296C27.22 16.946 27.111 17.6559 26.893 18.4159H25.205C24.988 19.2959 24.588 20.0559 24.008 20.7059C23.427 21.3259 22.756 22.016 21.993 22.776H20.306ZM39.196 3.93592V1.1659C40.902 0.795902 42.444 0.635912 43.823 0.675912C45.239 0.705912 46.6 0.815981 47.906 0.995981V2.68592C48.741 2.86592 49.394 3.04597 49.866 3.23597C50.338 3.41597 50.774 3.64592 51.173 3.93592C51.209 5.39592 51.245 6.78587 51.282 8.13587C51.318 9.47587 51.336 10.926 51.336 12.486C51.046 12.666 50.755 12.8159 50.465 12.9259C50.211 12.9959 49.939 12.9959 49.648 12.9259C49.358 12.8459 49.05 12.726 48.723 12.536C48.542 11.486 48.378 10.656 48.233 10.036C48.124 9.41602 48.015 8.74601 47.906 8.02601V6.49598C46.999 5.40598 46.092 4.61584 45.184 4.10584C44.277 3.59584 43.334 3.33582 42.354 3.33582C41.374 3.33582 40.321 3.53592 39.196 3.93592ZM48.015 35.8358C48.632 33.1958 48.669 30.8859 48.124 28.9259C47.58 26.9359 46.745 24.876 45.62 22.776H43.932C43.678 22.336 43.388 21.9559 43.061 21.6359C42.771 21.3059 42.462 20.9059 42.136 20.4359C41.918 20.0759 41.664 19.7459 41.374 19.4559C41.083 19.1659 40.811 18.8159 40.557 18.4159H38.87C38.253 17.5159 37.744 16.7459 37.345 16.1359C36.982 15.5159 36.692 14.826 36.474 14.066H34.786C34.496 13.156 34.26 12.056 34.079 10.746C33.897 9.43598 34.024 8.09595 34.46 6.71595C34.932 5.33595 35.948 4.04583 37.509 2.84583L39.196 3.93592C38.579 4.95592 38.162 6.00583 37.944 7.09583C37.763 8.18583 37.817 9.30596 38.107 10.476C38.434 11.636 38.997 12.836 39.795 14.066H41.483C41.846 14.756 42.317 15.4659 42.898 16.1859C43.479 16.8759 44.059 17.6259 44.64 18.4159H46.328C46.799 19.1859 47.253 19.876 47.689 20.486C48.124 21.106 48.56 21.866 48.995 22.776H50.683C51.518 24.916 52.062 27.006 52.316 29.036C52.57 31.066 52.298 33.3358 51.499 35.8358H48.015ZM39.196 37.1459C40.321 37.5459 41.392 37.7858 42.408 37.8558C43.424 37.8958 44.386 37.7459 45.293 37.4159C46.237 37.0559 47.144 36.5258 48.015 35.8358L49.812 37.526C48.287 38.726 46.672 39.556 44.967 40.036C43.297 40.506 41.374 40.6359 39.196 40.4159V37.1459ZM39.196 37.1459L37.509 38.726C36.492 38.186 35.658 37.706 35.004 37.306C34.387 36.876 34.079 36.296 34.079 35.566L34.024 32.6259L33.916 28.3258C34.206 28.1458 34.478 28.0059 34.732 27.8959C34.986 27.7859 35.258 27.7658 35.549 27.8358C35.839 27.9058 36.148 28.036 36.474 28.216L36.638 29.0858C36.928 30.8658 37.254 32.3758 37.617 33.6058C38.017 34.8058 38.543 35.9859 39.196 37.1459ZM69.138 35.8358C69.319 35.2958 69.482 34.786 69.628 34.316C69.773 33.846 69.9 33.336 70.009 32.796L70.118 32.1959C70.48 32.0159 70.789 31.9259 71.043 31.9259C71.333 31.8859 71.587 31.9358 71.805 32.0858C72.059 32.1958 72.295 32.336 72.513 32.516C72.477 33.136 72.422 33.6859 72.35 34.1559C72.277 34.6259 72.168 35.1858 72.023 35.8358H69.138ZM61.298 35.8358C62.097 36.2758 62.877 36.6259 63.639 36.8759C64.438 37.1259 65.29 37.186 66.198 37.036C67.105 36.896 68.085 36.4958 69.138 35.8358L70.335 37.526C69.283 38.836 68.067 39.7259 66.688 40.1959C65.345 40.6659 63.948 40.6659 62.496 40.1959C61.081 39.7559 59.756 38.876 58.522 37.526L61.298 35.8358ZM62.278 14.066C61.552 15.986 60.954 18.1159 60.482 20.4359C60.046 22.7259 59.883 25.166 59.992 27.786C60.101 30.396 60.536 33.0858 61.298 35.8358H56.834C56 32.6858 55.6 29.8558 55.637 27.3458C55.673 24.8058 56.018 22.4658 56.671 20.3258C57.324 18.1858 58.123 16.096 59.066 14.066H62.278ZM62.278 14.066L60.754 12.3759C62.097 11.9459 63.24 11.656 64.184 11.506C65.164 11.326 66.27 11.236 67.504 11.236C68.194 11.596 68.72 11.9759 69.083 12.3759C69.446 12.7759 69.718 13.336 69.9 14.066H71.587C71.878 14.936 72.041 15.8059 72.077 16.6759C72.15 17.5459 72.186 18.566 72.186 19.726V19.996C71.932 20.176 71.678 20.3259 71.424 20.4359C71.17 20.5459 70.898 20.576 70.607 20.546C70.353 20.466 70.027 20.3258 69.628 20.1058C69.591 19.9958 69.555 19.876 69.519 19.726C69.482 19.586 69.464 19.3959 69.464 19.1859C69.174 17.9859 68.884 16.9859 68.593 16.1859C68.339 15.3859 67.994 14.686 67.559 14.066H66.252C65.418 13.816 64.71 13.716 64.129 13.796C63.548 13.826 62.932 13.916 62.278 14.066ZM81.604 35.8358C82.403 36.2758 83.237 36.6259 84.108 36.8759C84.979 37.1259 85.887 37.186 86.83 37.036C87.81 36.896 88.845 36.4958 89.933 35.8358L91.077 37.526C90.024 38.836 88.772 39.7259 87.32 40.1959C85.905 40.6359 84.453 40.6159 82.965 40.1459C81.477 39.6359 80.134 38.766 78.937 37.526L81.604 35.8358ZM82.53 14.066C81.731 15.956 81.078 18.0559 80.57 20.3759C80.429 21.0759 80.314 21.776 80.225 22.496C80.231 22.466 80.237 22.4259 80.243 22.3959C80.388 22.6859 80.57 22.906 80.787 23.046C81.005 23.196 81.332 23.286 81.767 23.316C82.421 23.316 83.128 23.3359 83.891 23.3759H86.395C87.121 23.3759 87.665 23.336 88.028 23.266C88.391 23.156 88.772 22.996 89.171 22.776C89.28 22.376 89.334 21.9959 89.334 21.6359C89.371 21.2359 89.389 20.8159 89.389 20.3759V20.056C89.389 18.746 89.28 17.6259 89.062 16.6759C88.881 15.6959 88.572 14.826 88.137 14.066H86.83C85.996 13.816 85.251 13.706 84.598 13.736C83.945 13.776 83.255 13.886 82.53 14.066L80.624 12.3759C81.967 11.8659 83.074 11.5659 83.945 11.4559C84.816 11.3059 85.887 11.236 87.157 11.236L88.79 12.4359C89.334 12.8359 89.788 13.376 90.151 14.066H91.839C92.456 15.516 92.891 16.8959 93.145 18.2059C93.436 19.4759 93.563 20.996 93.526 22.776C93.526 23.606 93.472 24.266 93.363 24.736C93.254 25.166 93.054 25.5659 92.764 25.9359C91.966 25.9659 91.077 25.986 90.097 25.986C89.117 25.956 87.901 25.9359 86.449 25.9359H82.747C81.985 25.9359 81.441 26.0759 81.114 26.3659C80.787 26.6259 80.425 26.9659 80.025 27.4059C80.017 27.2859 80.009 27.166 80.002 27.046C80.007 27.286 80.015 27.536 80.025 27.786C80.171 30.396 80.697 33.0858 81.604 35.8358H77.249C76.378 32.7558 75.924 29.9659 75.888 27.4559C75.888 24.9159 76.178 22.5559 76.759 20.3759C77.34 18.2059 78.066 16.096 78.937 14.066H82.53ZM89.933 35.8358C90.151 35.1858 90.369 34.476 90.587 33.716C90.804 32.916 90.95 32.1559 91.022 31.4359C91.349 31.2459 91.639 31.1559 91.893 31.1559C92.183 31.1259 92.456 31.156 92.71 31.266C92.964 31.376 93.218 31.5259 93.472 31.7059C93.399 32.4259 93.29 33.1358 93.145 33.8258C93.036 34.4758 92.909 35.1558 92.764 35.8358H89.933ZM132.995 35.8358C133.212 35.1858 133.43 34.476 133.648 33.716C133.866 32.916 134.011 32.1559 134.083 31.4359C134.41 31.2459 134.718 31.1559 135.009 31.1559C135.299 31.1259 135.553 31.156 135.771 31.266C136.025 31.376 136.297 31.5259 136.588 31.7059C136.515 32.4259 136.406 33.1358 136.261 33.8258C136.116 34.4758 135.989 35.1558 135.88 35.8358H132.995ZM124.665 35.8358C125.464 36.2758 126.299 36.6259 127.17 36.8759C128.077 37.1259 129.002 37.186 129.946 37.036C130.926 36.896 131.942 36.4958 132.995 35.8358L134.192 37.526C133.14 38.836 131.888 39.7259 130.436 40.1959C129.02 40.6359 127.551 40.6159 126.026 40.1459C124.538 39.6359 123.214 38.766 122.052 37.526L124.665 35.8358ZM125.645 14.066C124.847 15.956 124.194 18.0559 123.685 20.3759C123.547 21.0559 123.434 21.7559 123.345 22.4559C123.513 22.7159 123.681 22.916 123.849 23.046C124.067 23.196 124.411 23.286 124.883 23.316C125.5 23.316 126.19 23.3359 126.952 23.3759H129.51C130.236 23.3759 130.781 23.336 131.144 23.266C131.507 23.156 131.869 22.996 132.232 22.776C132.341 22.376 132.414 21.9959 132.45 21.6359C132.486 21.2359 132.505 20.8159 132.505 20.3759V20.056C132.505 18.746 132.396 17.6259 132.178 16.6759C131.996 15.6959 131.688 14.826 131.252 14.066H129.892C129.057 13.816 128.313 13.706 127.66 13.736C127.043 13.776 126.371 13.886 125.645 14.066L123.74 12.3759C125.083 11.8659 126.19 11.5659 127.061 11.4559C127.932 11.3059 128.984 11.236 130.218 11.236L131.851 12.4359C132.396 12.8359 132.849 13.376 133.212 14.066H134.9C135.553 15.516 136.007 16.8959 136.261 18.2059C136.515 19.4759 136.624 20.996 136.588 22.776C136.588 23.606 136.533 24.266 136.424 24.736C136.352 25.166 136.152 25.5659 135.825 25.9359C135.027 25.9659 134.138 25.986 133.158 25.986C132.178 25.956 130.962 25.9359 129.51 25.9359H125.863C125.065 25.9359 124.502 26.0759 124.175 26.3659C123.885 26.6259 123.54 26.9659 123.141 27.4059C123.134 27.3059 123.126 27.2058 123.119 27.1058C123.124 27.3258 123.131 27.556 123.141 27.786C123.286 30.396 123.794 33.0858 124.665 35.8358H120.365C119.457 32.7558 118.986 29.9659 118.949 27.4559C118.949 24.9159 119.24 22.5559 119.82 20.3759C120.401 18.2059 121.145 16.096 122.052 14.066H125.645ZM101.257 36.3258C101.22 37.0558 101.329 37.526 101.583 37.746C101.874 37.966 102.236 38.1658 102.672 38.3458C102.745 38.3858 102.781 38.3959 102.781 38.3959H102.944C103.271 38.5759 103.489 38.7258 103.597 38.8358C103.743 38.9058 103.815 39.0859 103.815 39.3759C103.815 39.6359 103.761 39.8159 103.652 39.9259C103.543 40.0359 103.398 40.146 103.216 40.246H95.813C95.559 40.146 95.377 40.0359 95.268 39.9259C95.196 39.8159 95.159 39.6158 95.159 39.3258C95.159 39.1458 95.214 38.9959 95.323 38.8859C95.468 38.7759 95.704 38.656 96.03 38.506C96.139 38.436 96.23 38.3858 96.303 38.3458C96.412 38.3058 96.52 38.276 96.629 38.236C96.883 37.986 97.047 37.726 97.119 37.476C97.192 37.216 97.228 36.8358 97.228 36.3258L97.174 20.5958C97.174 19.2958 97.319 18.166 97.609 17.226C97.936 16.246 98.444 15.186 99.134 14.066H100.821C101.039 13.486 101.347 13.0159 101.747 12.6459C102.182 12.2459 102.599 11.8158 102.999 11.3458C104.196 11.2658 105.212 11.236 106.047 11.236C106.918 11.236 107.953 11.2859 109.15 11.3959C109.622 11.8659 110.003 12.2658 110.293 12.5958C110.62 12.9258 110.983 13.416 111.382 14.066H113.07C113.796 15.116 114.322 16.096 114.649 17.006C114.975 17.876 115.139 18.946 115.139 20.216V36.3258C115.139 36.8058 115.175 37.186 115.247 37.476C115.356 37.726 115.538 37.986 115.792 38.236C115.901 38.276 116.01 38.3058 116.118 38.3458C116.227 38.3858 116.336 38.436 116.445 38.506C116.772 38.616 117.026 38.7258 117.207 38.8358C117.389 38.9458 117.479 39.1259 117.479 39.3759C117.479 39.6659 117.425 39.866 117.316 39.976C117.244 40.046 117.08 40.146 116.826 40.246H109.586C109.404 40.146 109.259 40.0359 109.15 39.9259C109.041 39.8159 108.987 39.6359 108.987 39.3759C108.987 39.1259 109.078 38.9458 109.259 38.8358C109.441 38.6858 109.695 38.5459 110.021 38.3959C110.312 38.2159 110.548 38.016 110.729 37.796C110.947 37.546 111.056 37.0558 111.056 36.3258V19.1859C111.056 17.8059 110.856 16.7658 110.457 16.0758C110.058 15.3858 109.549 14.716 108.932 14.066H108.061C107.372 13.956 106.773 13.9059 106.265 13.9059C105.757 13.8659 105.158 13.916 104.468 14.066H103.216C102.672 14.686 102.2 15.336 101.801 16.026C101.438 16.716 101.257 17.6759 101.257 18.9059V36.3258ZM11.214 37.796C11.214 37.076 11.396 36.326 11.759 35.566C12.521 35.206 13.265 35.026 13.991 35.026C14.717 34.986 15.443 35.156 16.168 35.516C16.568 36.276 16.767 37.016 16.767 37.746C16.767 38.476 16.586 39.1959 16.223 39.9259C15.461 40.3259 14.717 40.526 13.991 40.526C13.265 40.526 12.539 40.346 11.813 39.976C11.414 39.216 11.214 38.486 11.214 37.796Z" fill="black"/>
</svg>
