<svg width="137" height="41" viewBox="0 0 137 41" fill="none" xmlns="http://www.w3.org/2000/svg">
<path fill-rule="evenodd" clip-rule="evenodd" d="M4.355 14.4459C5.444 14.5159 6.496 14.4059 7.513 14.1159C8.565 13.7959 9.908 13.336 11.541 12.756L13.065 12.266L13.12 16.8458C11.269 17.3458 9.708 17.6959 8.438 17.8759C7.204 18.0259 5.843 17.9459 4.355 17.6559V14.4459ZM4.355 14.4459L2.722 16.026C1.851 15.336 1.18 14.5359 0.708 13.6259C0.236 12.6859 0 11.5959 0 10.3659C0.363 9.38585 0.871 8.5659 1.524 7.9159C2.178 7.2259 3.121 6.62585 4.355 6.11585V4.48597L6.642 3.50599C7.077 3.32599 7.44 3.156 7.73 3.016C8.057 2.836 8.384 2.70587 8.71 2.63587V0.995981C9.4 0.855981 9.999 0.835932 10.507 0.945932C11.015 1.01593 11.541 1.21603 12.086 1.54603C12.231 2.23603 12.231 2.81602 12.086 3.28602C11.977 3.75602 11.723 4.28585 11.323 4.86585L8.71 5.29603V6.98597C7.948 7.16597 7.168 7.40593 6.369 7.69593C5.607 7.94593 4.936 8.14603 4.355 8.29603V8.78602C3.956 9.21602 3.593 9.67588 3.266 10.1459C2.94 10.5859 2.776 11.1458 2.776 11.8358C2.776 12.5558 2.94 13.1358 3.266 13.5758C3.593 13.9758 3.956 14.2659 4.355 14.4459ZM20.36 22.776C20.142 22.956 19.925 23.116 19.707 23.266C19.526 23.376 19.326 23.5159 19.108 23.6959C17.765 24.6759 16.731 25.4959 16.005 26.1459C15.316 26.7659 14.971 27.4958 14.971 28.3258V31.1559C14.717 31.3359 14.445 31.466 14.154 31.536C13.9 31.576 13.628 31.556 13.338 31.486C13.084 31.416 12.811 31.2858 12.521 31.1058V28.5958C12.521 27.3658 12.702 26.3859 13.065 25.6559C13.428 24.9359 13.9 24.0959 14.481 23.1559L14.698 22.776H16.386C16.677 22.306 17.021 21.886 17.421 21.526C17.856 21.156 18.31 20.746 18.782 20.276C19.108 19.946 19.453 19.6559 19.816 19.3959C20.179 19.1459 20.56 18.8159 20.959 18.4159H22.592C23.137 17.6259 23.572 16.9459 23.899 16.4059C24.225 15.8259 24.389 15.046 24.389 14.066H26.131V12.4359H24.988C24.77 11.9959 24.425 11.6358 23.953 11.3458C23.518 11.0558 22.973 10.9059 22.32 10.9059C21.558 10.9059 20.796 11.036 20.034 11.286C19.271 11.506 18.4 11.7959 17.421 12.1559V13.8458L13.12 15.2059L13.065 10.6359C13.61 10.5259 14.245 10.3659 14.971 10.1459C15.697 9.89588 16.513 9.67598 17.421 9.49598V7.80604C18.981 7.51604 20.433 7.38591 21.776 7.42591C23.155 7.45591 24.606 7.93582 26.131 8.83582V10.6859L27.764 10.476C27.982 11.056 28.181 11.636 28.363 12.216C28.544 12.756 28.671 13.376 28.744 14.066H27.111C27.22 14.866 27.256 15.606 27.22 16.296C27.22 16.946 27.111 17.6559 26.893 18.4159H25.26C25.042 19.2959 24.625 20.0559 24.008 20.7059C23.427 21.3259 22.756 22.016 21.993 22.776H20.36ZM48.015 35.8358C48.632 33.1958 48.669 30.8859 48.124 28.9259C47.58 26.9359 46.745 24.876 45.62 22.776H43.932C43.678 22.336 43.388 21.9559 43.061 21.6359C42.771 21.3059 42.462 20.9059 42.136 20.4359C41.882 20.0759 41.61 19.7459 41.319 19.4559C41.065 19.1659 40.793 18.8159 40.503 18.4159H38.87C38.216 17.5159 37.69 16.7459 37.291 16.1359C36.928 15.5159 36.656 14.826 36.474 14.066H34.786C34.496 13.156 34.26 12.056 34.079 10.746C33.897 9.43598 34.024 8.09595 34.46 6.71595C34.932 5.33595 35.966 4.02603 37.563 2.79603L39.196 3.88587C38.579 4.90587 38.162 5.95603 37.944 7.04603C37.763 8.13603 37.817 9.27596 38.107 10.476C38.434 11.636 38.997 12.836 39.795 14.066H41.428C41.791 14.756 42.263 15.4659 42.844 16.1859C43.461 16.8759 44.078 17.6259 44.694 18.4159H46.328C46.799 19.1859 47.253 19.876 47.689 20.486C48.124 21.106 48.56 21.866 48.995 22.776H50.628C51.499 24.916 52.062 27.0258 52.316 29.0858C52.57 31.1258 52.298 33.3758 51.499 35.8358H48.015ZM39.196 3.88587V1.1659C40.902 0.795902 42.444 0.635912 43.823 0.675912C45.239 0.705912 46.6 0.815981 47.906 0.995981V2.63587C48.741 2.81587 49.394 2.99591 49.866 3.17591C50.338 3.35591 50.774 3.59587 51.173 3.88587C51.209 5.37587 51.245 6.78587 51.282 8.13587C51.318 9.47587 51.336 10.9059 51.336 12.4359C51.046 12.6459 50.755 12.8159 50.465 12.9259C50.211 12.9959 49.939 12.9959 49.648 12.9259C49.358 12.8459 49.05 12.706 48.723 12.486C48.542 11.436 48.378 10.616 48.233 10.036C48.124 9.41602 48.015 8.74601 47.906 8.02601V6.55604C46.999 5.42604 46.092 4.61584 45.184 4.10584C44.277 3.55584 43.334 3.28602 42.354 3.28602C41.374 3.28602 40.321 3.48587 39.196 3.88587ZM39.196 37.2059C40.321 37.6059 41.392 37.8359 42.408 37.9059C43.424 37.9459 44.404 37.7859 45.348 37.4159C46.291 37.0559 47.181 36.5258 48.015 35.8358L49.812 37.476C48.324 38.706 46.727 39.556 45.021 40.036C43.315 40.506 41.374 40.6359 39.196 40.4159V37.2059ZM39.196 37.2059L37.563 38.726C36.51 38.216 35.658 37.7659 35.004 37.3659C34.387 36.9259 34.079 36.3459 34.079 35.6259L33.97 32.6259L33.916 28.3258C34.17 28.1458 34.424 28.0059 34.678 27.8959C34.968 27.7859 35.258 27.7658 35.549 27.8358C35.839 27.9058 36.148 28.056 36.474 28.276L36.583 29.0858C36.873 30.8658 37.2 32.3758 37.563 33.6058C37.962 34.8458 38.507 36.0359 39.196 37.2059ZM62.278 14.066C61.552 15.956 60.954 18.0559 60.482 20.3759C60.046 22.7059 59.883 25.166 59.992 27.786C60.101 30.396 60.536 33.0858 61.298 35.8358H56.834C56 32.7158 55.6 29.8858 55.637 27.3458C55.673 24.7758 56.018 22.416 56.671 20.276C57.324 18.126 58.123 16.066 59.066 14.066H62.278ZM62.278 14.066L60.754 12.4359C62.097 11.9559 63.24 11.656 64.184 11.506C65.127 11.326 66.216 11.236 67.45 11.236C68.14 11.596 68.666 11.9759 69.029 12.3759C69.428 12.7759 69.718 13.336 69.9 14.066H71.533C71.823 14.936 72.005 15.8059 72.077 16.6759C72.15 17.5459 72.186 18.566 72.186 19.726V20.056C71.896 20.236 71.624 20.376 71.37 20.486C71.152 20.566 70.898 20.576 70.607 20.546C70.317 20.466 69.99 20.3459 69.628 20.1659L69.519 19.726C69.482 19.586 69.464 19.3959 69.464 19.1859C69.174 17.9859 68.884 16.9859 68.593 16.1859C68.339 15.3859 67.994 14.686 67.559 14.066H66.252C65.454 13.816 64.764 13.716 64.184 13.796C63.603 13.826 62.968 13.916 62.278 14.066ZM61.298 35.8358C62.097 36.2758 62.877 36.6259 63.639 36.8759C64.438 37.1259 65.29 37.2058 66.198 37.0958C67.105 36.9458 68.085 36.5258 69.138 35.8358L70.335 37.476C69.283 38.776 68.067 39.6859 66.688 40.1959C65.345 40.7059 63.948 40.726 62.496 40.246C61.044 39.776 59.72 38.856 58.522 37.476L61.298 35.8358ZM69.138 35.8358C69.319 35.2958 69.482 34.786 69.628 34.316C69.773 33.846 69.9 33.336 70.009 32.796L70.118 32.1959C70.48 32.0159 70.789 31.9259 71.043 31.9259C71.333 31.8859 71.587 31.9358 71.805 32.0858C72.059 32.1958 72.295 32.336 72.513 32.516C72.477 33.136 72.404 33.6859 72.295 34.1559C72.222 34.6259 72.132 35.1858 72.023 35.8358H69.138ZM82.53 14.066C81.731 15.956 81.078 18.0559 80.57 20.3759C80.431 21.0659 80.317 21.756 80.229 22.476C80.367 22.726 80.535 22.916 80.733 23.046C80.951 23.196 81.278 23.286 81.713 23.316C82.366 23.356 83.074 23.3759 83.836 23.3759H86.34C87.102 23.3759 87.665 23.336 88.028 23.266C88.391 23.156 88.754 22.996 89.117 22.776C89.226 22.376 89.28 21.9959 89.28 21.6359C89.316 21.2359 89.334 20.8159 89.334 20.3759V20.1058C89.334 18.7658 89.226 17.6259 89.008 16.6759C88.826 15.6959 88.518 14.826 88.082 14.066H86.83C85.996 13.816 85.251 13.706 84.598 13.736C83.945 13.776 83.255 13.886 82.53 14.066L80.624 12.4359C81.931 11.9259 83.019 11.616 83.891 11.506C84.762 11.366 85.814 11.286 87.048 11.286C87.629 11.656 88.191 12.0359 88.736 12.4359C89.28 12.8359 89.734 13.376 90.097 14.066H91.73C92.383 15.516 92.837 16.8959 93.091 18.2059C93.381 19.4759 93.508 20.996 93.472 22.776C93.472 23.606 93.417 24.266 93.309 24.736C93.236 25.166 93.036 25.5659 92.71 25.9359H82.693C81.894 25.9359 81.332 26.0759 81.005 26.3659C80.715 26.6259 80.388 26.9659 80.025 27.4059C80.019 27.3559 80.012 27.316 80.006 27.266C80.011 27.456 80.018 27.6458 80.025 27.8358C80.134 30.4558 80.642 33.1158 81.55 35.8358H77.249C76.342 32.7958 75.87 29.9959 75.834 27.4559C75.834 24.8759 76.124 22.5058 76.705 20.3258C77.322 18.1458 78.084 16.066 78.991 14.066H82.53ZM89.879 35.8358C90.133 35.1858 90.351 34.476 90.532 33.716C90.75 32.916 90.913 32.1559 91.022 31.4359C91.349 31.2459 91.639 31.1559 91.893 31.1559C92.183 31.1259 92.456 31.156 92.71 31.266C92.964 31.376 93.218 31.5259 93.472 31.7059C93.399 32.4259 93.29 33.1358 93.145 33.8258C93 34.4758 92.855 35.1558 92.71 35.8358H89.879ZM81.55 35.8358C82.348 36.2758 83.183 36.6259 84.054 36.8759C84.961 37.1259 85.887 37.2058 86.83 37.0958C87.81 36.9458 88.826 36.5258 89.879 35.8358L91.077 37.476C90.024 38.816 88.772 39.7259 87.32 40.1959C85.905 40.6359 84.435 40.6159 82.911 40.1459C81.423 39.6359 80.08 38.746 78.882 37.476L81.55 35.8358ZM132.995 35.8358C133.212 35.1858 133.43 34.476 133.648 33.716C133.866 32.916 134.011 32.1559 134.083 31.4359C134.41 31.2459 134.7 31.1559 134.954 31.1559C135.245 31.1259 135.517 31.156 135.771 31.266C136.025 31.376 136.279 31.5259 136.533 31.7059C136.46 32.4259 136.352 33.1358 136.206 33.8258C136.061 34.4758 135.934 35.1558 135.825 35.8358H132.995ZM124.665 35.8358C125.464 36.2758 126.299 36.6259 127.17 36.8759C128.041 37.1259 128.948 37.2058 129.892 37.0958C130.871 36.9458 131.906 36.5258 132.995 35.8358L134.138 37.476C133.122 38.816 131.888 39.7259 130.436 40.1959C128.984 40.6359 127.496 40.6159 125.972 40.1459C124.484 39.6359 123.141 38.746 121.943 37.476L124.665 35.8358ZM125.645 14.066C124.811 15.956 124.139 18.0559 123.631 20.3759C123.493 21.0559 123.38 21.7559 123.291 22.4559C123.459 22.7159 123.627 22.916 123.794 23.046C124.012 23.196 124.339 23.286 124.774 23.316C125.428 23.356 126.135 23.3759 126.897 23.3759H129.456C130.182 23.3759 130.726 23.336 131.089 23.266C131.452 23.156 131.815 22.996 132.178 22.776C132.323 22.376 132.396 21.9959 132.396 21.6359C132.432 21.2359 132.45 20.8159 132.45 20.3759V20.1058C132.45 18.7658 132.341 17.6259 132.124 16.6759C131.942 15.6959 131.634 14.826 131.198 14.066H129.892C129.057 13.816 128.313 13.706 127.66 13.736C127.006 13.776 126.335 13.886 125.645 14.066L123.685 12.4359C125.028 11.9259 126.135 11.616 127.006 11.506C127.877 11.366 128.93 11.286 130.164 11.286C130.708 11.656 131.252 12.0359 131.797 12.4359C132.378 12.8359 132.831 13.376 133.158 14.066H134.845C135.499 15.516 135.952 16.8959 136.206 18.2059C136.497 19.4759 136.606 20.996 136.533 22.776C136.533 23.606 136.479 24.266 136.37 24.736C136.297 25.166 136.098 25.5659 135.771 25.9359H125.754C124.992 25.9359 124.448 26.0759 124.121 26.3659C123.831 26.6259 123.486 26.9659 123.087 27.4059C123.079 27.2959 123.072 27.1958 123.064 27.0858C123.069 27.3358 123.077 27.5858 123.087 27.8358C123.232 30.4558 123.758 33.1158 124.665 35.8358H120.31C119.403 32.7958 118.931 29.9959 118.895 27.4559C118.895 24.8759 119.185 22.5058 119.766 20.3258C120.383 18.1458 121.145 16.066 122.052 14.066H125.645ZM101.202 36.3258C101.166 37.0558 101.275 37.526 101.529 37.746C101.819 37.966 102.2 38.1658 102.672 38.3458C102.708 38.3858 102.745 38.3959 102.781 38.3959C102.817 38.3959 102.853 38.4159 102.89 38.4559C103.216 38.5959 103.434 38.7258 103.543 38.8358C103.688 38.9458 103.761 39.1259 103.761 39.3759C103.761 39.6359 103.706 39.8159 103.597 39.9259C103.525 40.0359 103.38 40.146 103.162 40.246H95.758C95.504 40.146 95.323 40.0359 95.214 39.9259C95.105 39.8159 95.051 39.6158 95.051 39.3258C95.051 39.1458 95.123 38.9959 95.268 38.8859C95.414 38.7759 95.649 38.656 95.976 38.506C96.049 38.476 96.139 38.4359 96.248 38.3959C96.357 38.3259 96.466 38.276 96.575 38.236C96.829 37.986 96.992 37.726 97.065 37.476C97.137 37.216 97.174 36.8358 97.174 36.3258L97.119 20.5958C97.119 19.2958 97.264 18.166 97.555 17.226C97.881 16.246 98.408 15.186 99.134 14.066H100.767C100.984 13.516 101.293 13.0459 101.692 12.6459C102.128 12.2459 102.563 11.8158 102.999 11.3458C104.196 11.2658 105.212 11.236 106.047 11.236C106.882 11.236 107.898 11.2859 109.096 11.3959C109.568 11.8659 109.967 12.2658 110.293 12.5958C110.62 12.9258 110.983 13.416 111.382 14.066H113.015C113.741 15.116 114.268 16.096 114.594 17.006C114.921 17.876 115.084 18.946 115.084 20.216L115.139 36.3258C115.139 36.8058 115.175 37.186 115.247 37.476C115.32 37.726 115.483 37.986 115.737 38.236C115.883 38.306 116.01 38.3659 116.118 38.3959C116.227 38.4359 116.336 38.476 116.445 38.506C116.772 38.616 117.026 38.7258 117.207 38.8358C117.389 38.9458 117.479 39.1259 117.479 39.3759C117.479 39.6659 117.425 39.866 117.316 39.976C117.244 40.046 117.08 40.146 116.826 40.246H109.531C109.35 40.146 109.205 40.0359 109.096 39.9259C108.987 39.8159 108.932 39.6359 108.932 39.3759C108.932 39.1259 109.005 38.9458 109.15 38.8358C109.332 38.6858 109.604 38.5459 109.967 38.3959C110.257 38.2159 110.511 38.016 110.729 37.796C110.947 37.546 111.037 37.0558 111.001 36.3258V19.1859C111.001 17.8059 110.802 16.7658 110.402 16.0758C110.003 15.3858 109.477 14.716 108.824 14.066H108.007C107.317 13.956 106.719 13.9059 106.211 13.9059C105.702 13.8659 105.104 13.916 104.414 14.066H103.216C102.672 14.686 102.2 15.336 101.801 16.026C101.402 16.716 101.202 17.6759 101.202 18.9059V36.3258ZM11.16 37.746C11.16 37.016 11.36 36.296 11.759 35.566C12.521 35.166 13.265 34.966 13.991 34.966C14.717 34.966 15.443 35.156 16.168 35.516C16.568 36.276 16.767 37.016 16.767 37.746C16.767 38.476 16.586 39.1959 16.223 39.9259C15.461 40.3259 14.717 40.526 13.991 40.526C13.265 40.526 12.521 40.346 11.759 39.976C11.396 39.216 11.196 38.476 11.16 37.746Z" fill="black"/>
</svg>
