<svg width="137" height="41" viewBox="0 0 137 41" fill="none" xmlns="http://www.w3.org/2000/svg">
<path fill-rule="evenodd" clip-rule="evenodd" d="M4.355 14.446L2.722 16.0759C1.887 15.3859 1.216 14.596 0.708 13.686C0.236 12.736 0 11.636 0 10.366C0.363 9.38596 0.871 8.54595 1.524 7.85595C2.178 7.16595 3.121 6.56616 4.355 6.06616V4.48608L6.642 3.5061C7.077 3.2861 7.44 3.10605 7.73 2.95605C8.057 2.77605 8.384 2.66598 8.71 2.63598V0.99609C9.4 0.85609 9.999 0.836041 10.507 0.946041C11.015 1.01604 11.541 1.21614 12.086 1.54614C12.231 2.23614 12.231 2.81613 12.086 3.28613C11.977 3.75613 11.704 4.28596 11.269 4.86596L8.71 5.29614V6.93603C7.948 7.11603 7.168 7.35599 6.369 7.64599C5.607 7.93599 4.936 8.13608 4.355 8.23608V8.78613C3.956 9.21613 3.593 9.65594 3.266 10.0959C2.94 10.5259 2.776 11.1059 2.776 11.8359C2.776 12.5559 2.94 13.1359 3.266 13.5759C3.593 13.9759 3.956 14.266 4.355 14.446ZM4.355 14.446C5.444 14.516 6.496 14.406 7.513 14.116C8.565 13.796 9.908 13.3361 11.541 12.7561L13.065 12.2661L13.12 16.7861C11.269 17.3361 9.708 17.696 8.438 17.876C7.204 18.026 5.843 17.946 4.355 17.656V14.446ZM20.415 22.7761C20.197 22.9561 19.979 23.1161 19.761 23.2661C19.58 23.3761 19.38 23.516 19.163 23.696C17.783 24.676 16.731 25.496 16.005 26.146C15.316 26.766 14.971 27.516 14.971 28.386V31.156C14.68 31.336 14.39 31.4661 14.1 31.5361C13.846 31.6161 13.573 31.6161 13.283 31.5361C13.029 31.4361 12.775 31.286 12.521 31.106V28.5959C12.521 27.3659 12.702 26.386 13.065 25.656C13.428 24.936 13.918 24.096 14.535 23.156L14.753 22.7761H16.332C16.658 22.3061 17.021 21.8861 17.421 21.5261C17.856 21.1561 18.31 20.7461 18.782 20.2761C19.108 19.9461 19.453 19.656 19.816 19.396C20.215 19.146 20.614 18.816 21.014 18.416H22.592C23.173 17.626 23.627 16.946 23.953 16.406C24.28 15.826 24.443 15.0462 24.443 14.0662H26.131V12.436H24.988C24.77 12.036 24.443 11.686 24.008 11.396C23.572 11.106 23.01 10.9661 22.32 10.9661C21.558 10.9661 20.796 11.0859 20.034 11.3459C19.271 11.5659 18.4 11.8561 17.421 12.2161V13.8459L13.12 15.2061L13.065 10.636C13.61 10.526 14.245 10.366 14.971 10.146C15.733 9.89599 16.549 9.67609 17.421 9.49609V7.85595C18.981 7.56595 20.451 7.44607 21.83 7.47607C23.209 7.47607 24.643 7.94599 26.131 8.89599V10.686L27.764 10.5261C27.945 11.0761 28.127 11.6361 28.308 12.2161C28.49 12.7561 28.635 13.3762 28.744 14.0662H27.111C27.22 14.8662 27.256 15.6061 27.22 16.2961C27.22 16.9461 27.129 17.656 26.947 18.416H25.314C25.096 19.296 24.679 20.0561 24.062 20.7061C23.481 21.3261 22.792 22.0161 21.993 22.7761H20.415ZM39.196 3.88598V1.16601C40.902 0.766012 42.444 0.596022 43.823 0.676022C45.239 0.706022 46.6 0.81609 47.906 0.99609V2.63598C48.741 2.81598 49.394 2.99602 49.866 3.17602C50.338 3.35602 50.774 3.59598 51.173 3.88598C51.173 5.33598 51.191 6.75598 51.227 8.13598C51.263 9.47598 51.282 10.906 51.282 12.436C51.028 12.616 50.755 12.756 50.465 12.866C50.211 12.936 49.939 12.956 49.648 12.926C49.358 12.846 49.05 12.7061 48.723 12.4861C48.542 11.4361 48.378 10.5961 48.233 9.98608C48.124 9.36608 48.015 8.69606 47.906 7.96606V6.55615C46.999 5.42615 46.092 4.59614 45.184 4.04614C44.277 3.50614 43.334 3.23608 42.354 3.23608C41.374 3.23608 40.321 3.44598 39.196 3.88598ZM39.196 37.2061L37.563 38.7761C36.51 38.2761 35.658 37.816 35.004 37.416C34.351 36.986 34.024 36.4261 34.024 35.7361L33.97 32.686L33.861 28.386C34.151 28.166 34.424 28.006 34.678 27.896C34.932 27.786 35.204 27.7659 35.494 27.8359C35.785 27.9059 36.093 28.0561 36.42 28.2761L36.529 29.0859C36.855 30.9059 37.2 32.426 37.563 33.666C37.962 34.856 38.507 36.0361 39.196 37.2061ZM48.07 35.8359C48.687 33.1959 48.705 30.866 48.124 28.876C47.58 26.876 46.727 24.8461 45.566 22.7761H43.987C43.696 22.3361 43.388 21.956 43.061 21.636C42.771 21.266 42.444 20.866 42.081 20.436C41.864 20.106 41.61 19.7961 41.319 19.5061C41.029 19.1861 40.739 18.816 40.448 18.416H38.87C38.216 17.516 37.69 16.746 37.291 16.136C36.928 15.516 36.638 14.8262 36.42 14.0662H34.786C34.496 13.1562 34.242 12.0561 34.024 10.7461C33.843 9.40609 33.988 8.03601 34.46 6.66601C34.932 5.28601 35.966 3.99614 37.563 2.79614L39.196 3.88598C38.543 4.90598 38.126 5.95614 37.944 7.04614C37.763 8.13614 37.817 9.27607 38.107 10.4761C38.434 11.6361 38.997 12.8362 39.795 14.0662H41.428C41.791 14.7562 42.263 15.466 42.844 16.186C43.461 16.876 44.078 17.626 44.694 18.416H46.273C46.781 19.186 47.253 19.8761 47.689 20.4861C48.124 21.1061 48.56 21.8661 48.995 22.7761H50.628C51.499 24.9161 52.062 27.0259 52.316 29.0859C52.57 31.1259 52.28 33.3759 51.445 35.8359H48.07ZM39.196 37.2061C40.321 37.6361 41.392 37.876 42.408 37.906C43.461 37.946 44.44 37.7961 45.348 37.4761C46.291 37.1161 47.199 36.5659 48.07 35.8359L49.866 37.4761C48.342 38.7061 46.727 39.5561 45.021 40.0361C43.315 40.5061 41.374 40.636 39.196 40.416V37.2061ZM69.138 35.8359C69.319 35.3359 69.482 34.846 69.628 34.376C69.773 33.866 69.9 33.3361 70.009 32.7961L70.118 32.196C70.48 32.016 70.789 31.926 71.043 31.926C71.333 31.926 71.587 31.996 71.805 32.136C72.023 32.246 72.259 32.3959 72.513 32.5759C72.44 33.1559 72.368 33.686 72.295 34.156C72.222 34.626 72.114 35.1859 71.968 35.8359H69.138ZM61.298 35.8359C62.06 36.2759 62.841 36.636 63.639 36.926C64.438 37.186 65.29 37.2359 66.198 37.0959C67.105 36.9459 68.085 36.5259 69.138 35.8359L70.39 37.4761C69.301 38.7761 68.067 39.686 66.688 40.196C65.309 40.706 63.893 40.706 62.442 40.196C61.026 39.726 59.702 38.8161 58.468 37.4761L61.298 35.8359ZM62.333 14.0662C61.571 15.9162 60.954 18.026 60.482 20.376C60.046 22.706 59.883 25.1859 59.992 27.8359C60.101 30.4559 60.536 33.1159 61.298 35.8359H56.834C55.963 32.7159 55.546 29.8859 55.582 27.3459C55.618 24.7759 55.981 22.4161 56.671 20.2761C57.361 18.1261 58.177 16.0662 59.121 14.0662H62.333ZM62.333 14.0662L60.754 12.436C62.097 11.996 63.24 11.6861 64.184 11.5061C65.127 11.3261 66.198 11.2361 67.396 11.2361C68.121 11.5961 68.666 11.976 69.029 12.376C69.428 12.776 69.718 13.3362 69.9 14.0662H71.478C71.769 14.9362 71.95 15.8261 72.023 16.7361C72.095 17.6061 72.132 18.6161 72.132 19.7861V20.0561C71.878 20.2361 71.624 20.3761 71.37 20.4861C71.152 20.5961 70.898 20.6359 70.607 20.5959C70.317 20.5259 69.99 20.376 69.628 20.166C69.591 20.056 69.555 19.9261 69.519 19.7861C69.482 19.6361 69.464 19.4561 69.464 19.2361C69.174 18.0061 68.884 16.986 68.593 16.186C68.303 15.386 67.94 14.6862 67.504 14.0662H66.252C65.454 13.8162 64.764 13.7161 64.184 13.7961C63.603 13.8261 62.986 13.9162 62.333 14.0662ZM81.55 35.8359C82.348 36.2759 83.183 36.636 84.054 36.926C84.925 37.186 85.85 37.2359 86.83 37.0959C87.81 36.9459 88.826 36.5259 89.879 35.8359L91.077 37.4761C90.024 38.8161 88.772 39.726 87.32 40.196C85.869 40.666 84.381 40.646 82.856 40.146C81.332 39.636 79.989 38.7461 78.828 37.4761L81.55 35.8359ZM82.53 14.0662C81.695 15.9162 81.023 18.026 80.515 20.376C80.377 21.056 80.264 21.7561 80.176 22.4561C80.343 22.7161 80.511 22.9161 80.679 23.0461C80.896 23.1961 81.223 23.2862 81.659 23.3162C82.312 23.3562 83.019 23.376 83.782 23.376H86.34C87.066 23.376 87.611 23.3361 87.974 23.2661C88.336 23.1561 88.699 22.9961 89.062 22.7761C89.207 22.3761 89.28 21.996 89.28 21.636C89.316 21.236 89.334 20.816 89.334 20.376V20.106C89.334 18.766 89.226 17.626 89.008 16.676C88.826 15.696 88.518 14.8262 88.082 14.0662H86.776C85.941 13.7762 85.197 13.6661 84.544 13.7361C83.927 13.7761 83.255 13.8862 82.53 14.0662L80.57 12.436C81.913 11.956 83.019 11.6561 83.891 11.5061C84.762 11.3661 85.796 11.2861 86.994 11.2861C87.574 11.6561 88.137 12.036 88.681 12.436C89.262 12.836 89.734 13.3762 90.097 14.0662H91.675C92.365 15.4762 92.837 16.846 93.091 18.146C93.381 19.456 93.49 20.9961 93.417 22.7761C93.417 23.6061 93.363 24.2661 93.254 24.7361C93.182 25.1661 92.982 25.556 92.655 25.876C91.857 25.916 90.968 25.936 89.988 25.936C89.008 25.896 87.774 25.876 86.286 25.876H82.638C81.84 25.876 81.278 26.0262 80.951 26.3162C80.661 26.6062 80.334 26.966 79.971 27.406C79.963 27.296 79.955 27.1859 79.948 27.0859C79.953 27.3359 79.961 27.5859 79.971 27.8359C80.116 30.4559 80.642 33.1159 81.55 35.8359H77.249C76.305 32.7959 75.815 29.9961 75.779 27.4561C75.779 24.8761 76.07 22.5059 76.65 20.3259C77.267 18.1459 78.047 16.0662 78.991 14.0662H82.53ZM89.879 35.8359C90.097 35.1859 90.314 34.4761 90.532 33.7161C90.75 32.9161 90.913 32.156 91.022 31.436C91.312 31.246 91.585 31.136 91.839 31.106C92.129 31.066 92.401 31.1261 92.655 31.2661C92.909 31.3761 93.163 31.5261 93.417 31.7061C93.345 32.4261 93.236 33.1359 93.091 33.8259C92.946 34.5159 92.819 35.1859 92.71 35.8359H89.879ZM132.94 35.8359C133.158 35.1859 133.376 34.4761 133.593 33.7161C133.811 32.9161 133.974 32.156 134.083 31.436C134.41 31.246 134.7 31.136 134.954 31.106C135.245 31.066 135.499 31.1261 135.716 31.2661C135.971 31.3761 136.225 31.5261 136.479 31.7061C136.406 32.4261 136.297 33.1359 136.152 33.8259C136.043 34.5159 135.916 35.1859 135.771 35.8359H132.94ZM124.611 35.8359C125.409 36.2759 126.244 36.636 127.115 36.926C128.022 37.186 128.948 37.2359 129.892 37.0959C130.871 36.9459 131.888 36.5259 132.94 35.8359L134.138 37.4761C133.122 38.8161 131.869 39.726 130.381 40.196C128.93 40.666 127.442 40.646 125.917 40.146C124.429 39.636 123.087 38.7461 121.889 37.4761L124.611 35.8359ZM125.591 14.0662C124.792 15.9162 124.139 18.026 123.631 20.376C123.48 21.066 123.356 21.7761 123.26 22.4961C123.419 22.7361 123.579 22.9261 123.74 23.0461C123.958 23.1961 124.284 23.2862 124.72 23.3162C125.373 23.3562 126.099 23.376 126.897 23.376H129.402C130.127 23.376 130.672 23.3361 131.035 23.2661C131.398 23.1561 131.779 22.9961 132.178 22.7761C132.287 22.3761 132.341 21.996 132.341 21.636C132.378 21.236 132.396 20.816 132.396 20.376V20.106C132.396 18.766 132.287 17.626 132.069 16.676C131.888 15.696 131.579 14.8262 131.144 14.0662H129.837C129.039 13.7762 128.313 13.6661 127.66 13.7361C127.006 13.7761 126.317 13.8862 125.591 14.0662L123.631 12.436C124.974 11.956 126.081 11.6561 126.952 11.5061C127.823 11.3661 128.857 11.2861 130.055 11.2861C130.636 11.6561 131.198 12.036 131.742 12.436C132.323 12.836 132.795 13.3762 133.158 14.0662H134.737C135.426 15.4762 135.898 16.846 136.152 18.146C136.442 19.456 136.569 20.9961 136.533 22.7761C136.533 23.6061 136.479 24.2661 136.37 24.7361C136.261 25.1661 136.043 25.556 135.716 25.876C134.918 25.916 134.029 25.936 133.049 25.936C132.069 25.896 130.853 25.876 129.402 25.876H125.7C124.901 25.876 124.339 26.0262 124.012 26.3162C123.722 26.6062 123.395 26.966 123.032 27.406C123.024 27.296 123.017 27.1959 123.009 27.0859C123.014 27.3359 123.022 27.5859 123.032 27.8359C123.177 30.4559 123.704 33.1159 124.611 35.8359H120.31C119.367 32.7959 118.877 29.9961 118.84 27.4561C118.84 24.8761 119.149 22.5059 119.766 20.3259C120.383 18.1459 121.145 16.0662 122.052 14.0662H125.591ZM101.148 36.3259C101.148 37.0959 101.275 37.5861 101.529 37.7961C101.783 38.0161 102.146 38.1959 102.618 38.3459C102.69 38.3859 102.726 38.396 102.726 38.396C102.763 38.396 102.817 38.4161 102.89 38.4561C103.216 38.5961 103.434 38.7259 103.543 38.8359C103.688 38.9459 103.761 39.126 103.761 39.376C103.761 39.636 103.706 39.816 103.597 39.926C103.489 40.036 103.343 40.1461 103.162 40.2461H95.649C95.395 40.1461 95.214 40.036 95.105 39.926C95.032 39.816 94.996 39.6159 94.996 39.3259C94.996 39.1459 95.051 38.996 95.159 38.886C95.305 38.776 95.559 38.6561 95.922 38.5061C95.994 38.4761 96.085 38.436 96.194 38.396C96.303 38.326 96.393 38.2761 96.466 38.2361C96.756 37.9861 96.938 37.7261 97.01 37.4761C97.083 37.2161 97.119 36.8359 97.119 36.3259L97.065 20.5959C97.065 19.2959 97.228 18.1661 97.555 17.2261C97.881 16.2461 98.39 15.1862 99.079 14.0662H100.712C100.93 13.5162 101.257 13.046 101.692 12.646C102.128 12.246 102.563 11.836 102.999 11.396C104.16 11.286 105.158 11.2361 105.993 11.2361C106.828 11.2361 107.844 11.3061 109.041 11.4561C109.513 11.8861 109.912 12.2659 110.239 12.5959C110.566 12.9259 110.929 13.4162 111.328 14.0662H112.961C113.687 15.1162 114.213 16.0961 114.54 17.0061C114.866 17.9161 115.03 18.9861 115.03 20.2161L115.084 36.3259C115.084 36.8059 115.12 37.1861 115.193 37.4761C115.266 37.7261 115.447 37.9861 115.737 38.2361C115.846 38.3061 115.955 38.366 116.064 38.396C116.173 38.436 116.3 38.4761 116.445 38.5061C116.772 38.6561 117.026 38.776 117.207 38.886C117.389 38.996 117.479 39.166 117.479 39.376C117.479 39.666 117.425 39.8661 117.316 39.9761C117.244 40.0461 117.062 40.1461 116.772 40.2461H109.477C109.295 40.1461 109.15 40.036 109.041 39.926C108.932 39.816 108.878 39.636 108.878 39.376C108.878 39.126 108.951 38.9459 109.096 38.8359C109.277 38.6859 109.549 38.546 109.912 38.396C110.203 38.216 110.457 38.0161 110.675 37.7961C110.892 37.5461 110.983 37.0559 110.947 36.3259V19.126C110.947 17.786 110.747 16.7659 110.348 16.0759C109.949 15.3859 109.422 14.7162 108.769 14.0662H107.953C107.263 13.9562 106.664 13.906 106.156 13.906C105.648 13.866 105.049 13.9162 104.36 14.0662H103.162C102.618 14.6862 102.146 15.3361 101.747 16.0261C101.347 16.7161 101.148 17.676 101.148 18.906V36.3259ZM11.16 37.7961C11.16 37.0361 11.342 36.2962 11.704 35.5662C12.467 35.1662 13.211 34.9661 13.936 34.9661C14.662 34.9661 15.406 35.1561 16.168 35.5161C16.531 36.2361 16.713 36.9861 16.713 37.7461C16.749 38.4761 16.568 39.196 16.168 39.926C15.443 40.326 14.698 40.5261 13.936 40.5261C13.211 40.5261 12.485 40.3461 11.759 39.9761C11.36 39.2561 11.16 38.5261 11.16 37.7961Z" fill="black"/>
</svg>
