<svg width="137" height="41" viewBox="0 0 137 41" fill="none" xmlns="http://www.w3.org/2000/svg">
<path fill-rule="evenodd" clip-rule="evenodd" d="M4.355 14.446L2.776 16.0759C1.905 15.4259 1.216 14.626 0.708 13.686C0.236 12.736 0 11.636 0 10.366C0.327 9.38596 0.817 8.54595 1.47 7.85595C2.159 7.13595 3.121 6.5161 4.355 6.0061V4.42602L6.642 3.44604C7.077 3.26604 7.44 3.10605 7.73 2.95605C8.057 2.77605 8.384 2.65592 8.71 2.57592V0.99609C9.4 0.85609 9.999 0.836041 10.507 0.946041C11.015 1.01604 11.523 1.21614 12.031 1.54614C12.213 2.23614 12.231 2.81613 12.086 3.28613C11.94 3.75613 11.668 4.26615 11.269 4.80615L8.71 5.29614V6.87597C7.948 7.05597 7.168 7.29593 6.369 7.58593C5.607 7.87593 4.936 8.09608 4.355 8.23608V8.72607C3.92 9.16607 3.539 9.61594 3.212 10.0959C2.922 10.5259 2.776 11.1059 2.776 11.8359C2.776 12.5559 2.922 13.1359 3.212 13.5759C3.539 13.9759 3.92 14.266 4.355 14.446ZM4.355 14.446C5.444 14.516 6.496 14.406 7.513 14.116C8.565 13.796 9.908 13.3361 11.541 12.7561L13.065 12.2161L13.12 16.7861C11.269 17.3361 9.708 17.696 8.438 17.876C7.204 18.026 5.843 17.946 4.355 17.656V14.446ZM20.469 22.7761C20.251 22.9561 20.034 23.1161 19.816 23.2661C19.598 23.3761 19.38 23.516 19.163 23.696C17.783 24.716 16.731 25.5561 16.005 26.2061C15.279 26.8261 14.916 27.546 14.916 28.386V31.156C14.662 31.336 14.39 31.4661 14.1 31.5361C13.846 31.6161 13.573 31.6161 13.283 31.5361C13.029 31.4361 12.775 31.286 12.521 31.106V28.5959C12.521 27.3659 12.702 26.386 13.065 25.656C13.428 24.936 13.918 24.096 14.535 23.156L14.753 22.7761H16.332C16.622 22.3061 16.985 21.8861 17.421 21.5261C17.856 21.1561 18.328 20.7461 18.836 20.2761C19.163 19.9461 19.507 19.656 19.87 19.396C20.27 19.146 20.669 18.816 21.068 18.416H22.592C23.173 17.626 23.627 16.946 23.953 16.406C24.28 15.826 24.443 15.0462 24.443 14.0662H26.131V12.4861H25.042C24.824 12.0561 24.479 11.686 24.008 11.396C23.572 11.106 23.01 10.9661 22.32 10.9661C21.594 10.9661 20.832 11.0859 20.034 11.3459C19.271 11.5959 18.4 11.9061 17.421 12.2661V13.8459L13.12 15.2061L13.065 10.636C13.61 10.526 14.245 10.366 14.971 10.146C15.733 9.89599 16.549 9.67609 17.421 9.49609V7.91601C18.981 7.58601 20.451 7.44607 21.83 7.47607C23.209 7.51607 24.643 8.00604 26.131 8.94604V10.7461L27.709 10.5261C27.891 11.0761 28.072 11.6361 28.254 12.2161C28.472 12.7561 28.617 13.3762 28.689 14.0662H27.165C27.274 14.8662 27.31 15.6061 27.274 16.2961C27.274 16.9461 27.165 17.656 26.947 18.416H25.369C25.151 19.296 24.734 20.0561 24.116 20.7061C23.5 21.3261 22.792 22.0161 21.993 22.7761H20.469ZM39.196 37.2561L37.617 38.8359C36.565 38.3259 35.694 37.8761 35.004 37.4761C34.351 37.0361 34.024 36.4761 34.024 35.7861L33.97 32.7361L33.861 28.386C34.115 28.166 34.369 28.016 34.623 27.946C34.877 27.836 35.15 27.816 35.44 27.896C35.766 27.926 36.075 28.0561 36.365 28.2761L36.529 29.146C36.819 30.926 37.164 32.426 37.563 33.666C37.962 34.896 38.507 36.0961 39.196 37.2561ZM39.196 3.82592V1.16601C40.902 0.766012 42.462 0.596022 43.878 0.676022C45.293 0.706022 46.636 0.81609 47.906 0.99609V2.57592C48.741 2.75592 49.394 2.94597 49.866 3.12597C50.338 3.30597 50.755 3.53592 51.118 3.82592C51.155 5.31592 51.191 6.73592 51.227 8.07592C51.263 9.41592 51.282 10.856 51.282 12.376C51.028 12.596 50.755 12.756 50.465 12.866C50.211 12.936 49.939 12.936 49.648 12.866C49.358 12.796 49.05 12.6661 48.723 12.4861C48.542 11.4361 48.378 10.5961 48.233 9.98608C48.124 9.36608 48.015 8.69606 47.906 7.96606V6.55615C46.999 5.39615 46.092 4.55614 45.184 4.04614C44.277 3.50614 43.334 3.23608 42.354 3.23608C41.374 3.23608 40.321 3.43592 39.196 3.82592ZM48.07 35.8359C48.687 33.1959 48.705 30.866 48.124 28.876C47.543 26.876 46.672 24.8461 45.511 22.7761H43.987C43.696 22.3361 43.388 21.956 43.061 21.636C42.771 21.266 42.444 20.866 42.081 20.436C41.827 20.106 41.555 19.7961 41.265 19.5061C40.974 19.1861 40.684 18.816 40.394 18.416H38.87C38.216 17.516 37.69 16.746 37.291 16.136C36.892 15.516 36.583 14.8262 36.365 14.0662H34.786C34.496 13.1562 34.242 12.0561 34.024 10.7461C33.843 9.40609 33.988 8.03601 34.46 6.66601C34.932 5.24601 35.984 3.93609 37.617 2.74609L39.196 3.82592C38.543 4.84592 38.107 5.91614 37.89 7.04614C37.708 8.13614 37.763 9.27607 38.053 10.4761C38.38 11.6361 38.978 12.8362 39.849 14.0662H41.374C41.773 14.7562 42.263 15.466 42.844 16.186C43.461 16.876 44.078 17.626 44.694 18.416H46.273C46.745 19.186 47.199 19.8761 47.634 20.4861C48.106 21.1061 48.578 21.8661 49.05 22.7761H50.574C51.481 24.8761 52.062 26.9661 52.316 29.0361C52.57 31.1061 52.28 33.3759 51.445 35.8359H48.07ZM39.196 37.2561C40.285 37.6561 41.356 37.8961 42.408 37.9661C43.461 37.9961 44.44 37.8361 45.348 37.4761C46.291 37.1161 47.199 36.5659 48.07 35.8359L49.921 37.416C48.396 38.656 46.763 39.5261 45.021 40.0361C43.315 40.5061 41.374 40.636 39.196 40.416V37.2561ZM69.138 35.8359C69.319 35.3359 69.482 34.846 69.628 34.376C69.773 33.866 69.9 33.3559 70.009 32.8459L70.118 32.196C70.48 32.016 70.789 31.926 71.043 31.926C71.333 31.926 71.587 31.996 71.805 32.136C72.023 32.246 72.241 32.3959 72.458 32.5759C72.422 33.1559 72.35 33.686 72.241 34.156C72.168 34.626 72.077 35.1859 71.968 35.8359H69.138ZM61.298 35.8359C62.06 36.2759 62.841 36.636 63.639 36.926C64.438 37.186 65.29 37.2359 66.198 37.0959C67.105 36.9459 68.085 36.5259 69.138 35.8359L70.39 37.416C69.337 38.766 68.103 39.686 66.688 40.196C65.309 40.706 63.893 40.706 62.442 40.196C60.99 39.726 59.647 38.796 58.413 37.416L61.298 35.8359ZM62.333 14.0662C61.571 15.9162 60.954 18.0059 60.482 20.3259C60.01 22.6459 59.829 25.1361 59.937 27.7861C60.083 30.4361 60.536 33.1159 61.298 35.8359H56.834C55.963 32.7159 55.546 29.8661 55.582 27.2961C55.618 24.7161 55.981 22.3561 56.671 20.2161C57.361 18.0761 58.195 16.0262 59.175 14.0662H62.333ZM62.333 14.0662L60.754 12.4861C62.06 12.0161 63.186 11.7062 64.129 11.5662C65.109 11.3762 66.198 11.2861 67.396 11.2861C68.121 11.6561 68.666 12.036 69.029 12.436C69.428 12.796 69.718 13.3362 69.9 14.0662H71.478C71.769 14.9362 71.95 15.8261 72.023 16.7361C72.095 17.6061 72.132 18.6161 72.132 19.7861V20.106C71.878 20.286 71.624 20.4361 71.37 20.5461C71.152 20.6561 70.898 20.6659 70.607 20.5959C70.317 20.5259 69.99 20.3961 69.628 20.2161L69.519 19.7861C69.482 19.6361 69.464 19.4561 69.464 19.2361C69.174 18.0061 68.884 16.986 68.593 16.186C68.303 15.386 67.94 14.6862 67.504 14.0662H66.252C65.454 13.8162 64.764 13.7161 64.184 13.7961C63.603 13.8261 62.986 13.9162 62.333 14.0662ZM89.879 35.8359C90.097 35.1859 90.314 34.4761 90.532 33.7161C90.75 32.9161 90.913 32.156 91.022 31.436C91.312 31.246 91.585 31.136 91.839 31.106C92.129 31.066 92.401 31.1261 92.655 31.2661C92.909 31.3761 93.145 31.5261 93.363 31.7061C93.29 32.4261 93.182 33.1359 93.036 33.8259C92.891 34.5159 92.764 35.1859 92.655 35.8359H89.879ZM81.55 35.8359C82.312 36.2759 83.128 36.636 83.999 36.926C84.907 37.186 85.832 37.2359 86.776 37.0959C87.756 36.9459 88.79 36.5259 89.879 35.8359L91.077 37.416C90.024 38.796 88.754 39.726 87.266 40.196C85.814 40.666 84.326 40.646 82.802 40.146C81.278 39.636 79.935 38.726 78.773 37.416L81.55 35.8359ZM82.53 14.0662C81.695 15.8762 81.023 17.9659 80.515 20.3259C80.361 21.0259 80.236 21.7461 80.138 22.4861C80.3 22.7361 80.462 22.936 80.624 23.106C80.842 23.246 81.169 23.3162 81.604 23.3162C82.257 23.3562 82.983 23.396 83.782 23.426H86.286C87.012 23.426 87.556 23.3761 87.919 23.2661C88.318 23.1561 88.699 22.9961 89.062 22.7761C89.171 22.3761 89.226 21.996 89.226 21.636C89.262 21.236 89.28 20.816 89.28 20.376V20.106C89.28 18.766 89.171 17.626 88.953 16.676C88.772 15.696 88.463 14.8262 88.028 14.0662H86.776C85.941 13.7762 85.197 13.6661 84.544 13.7361C83.891 13.7761 83.219 13.8862 82.53 14.0662L80.57 12.4861C81.876 11.9761 82.965 11.6561 83.836 11.5061C84.707 11.3661 85.742 11.2861 86.939 11.2861C87.52 11.6561 88.082 12.036 88.627 12.436C89.207 12.836 89.679 13.3762 90.042 14.0662H91.621C92.31 15.4762 92.782 16.846 93.036 18.146C93.327 19.456 93.454 20.9961 93.417 22.7761C93.417 23.6061 93.363 24.2661 93.254 24.7361C93.145 25.1661 92.927 25.556 92.601 25.876C91.802 25.916 90.913 25.936 89.933 25.936C88.953 25.896 87.719 25.876 86.231 25.876H82.53C81.767 25.876 81.223 26.0262 80.896 26.3162C80.606 26.6062 80.279 26.966 79.917 27.406C79.909 27.306 79.902 27.1959 79.894 27.0959C79.899 27.3359 79.906 27.5859 79.917 27.8359C80.062 30.4859 80.606 33.1559 81.55 35.8359H77.195C76.287 32.7959 75.815 29.976 75.779 27.406C75.743 24.826 76.033 22.4461 76.65 20.2761C77.267 18.0961 78.047 16.0262 78.991 14.0662H82.53ZM132.94 35.8359C133.158 35.1859 133.376 34.4761 133.593 33.7161C133.811 32.9161 133.974 32.156 134.083 31.436C134.374 31.246 134.646 31.136 134.9 31.106C135.19 31.066 135.462 31.1261 135.716 31.2661C135.971 31.3761 136.206 31.5261 136.424 31.7061C136.352 32.4261 136.243 33.1359 136.098 33.8259C135.989 34.5159 135.862 35.1859 135.716 35.8359H132.94ZM124.611 35.8359C125.373 36.2759 126.19 36.636 127.061 36.926C127.968 37.186 128.893 37.2359 129.837 37.0959C130.817 36.9459 131.851 36.5259 132.94 35.8359L134.138 37.416C133.122 38.796 131.869 39.726 130.381 40.196C128.893 40.666 127.387 40.646 125.863 40.146C124.339 39.636 122.996 38.726 121.835 37.416L124.611 35.8359ZM125.591 14.0662C124.756 15.8762 124.085 17.9659 123.577 20.3259C123.423 21.0259 123.297 21.7461 123.2 22.4861C123.362 22.7361 123.523 22.936 123.685 23.106C123.903 23.246 124.23 23.3162 124.665 23.3162C125.319 23.3562 126.044 23.396 126.843 23.426H129.347C130.073 23.426 130.617 23.3761 130.98 23.2661C131.38 23.1561 131.761 22.9961 132.124 22.7761C132.232 22.3761 132.287 21.996 132.287 21.636C132.323 21.236 132.341 20.816 132.341 20.376V20.106C132.341 18.766 132.232 17.626 132.015 16.676C131.833 15.696 131.525 14.8262 131.089 14.0662H129.837C129.002 13.7762 128.258 13.6661 127.605 13.7361C126.952 13.7761 126.28 13.8862 125.591 14.0662L123.631 12.4861C124.938 11.9761 126.026 11.6561 126.897 11.5061C127.768 11.3661 128.803 11.2861 130 11.2861C130.581 11.6561 131.144 12.036 131.688 12.436C132.269 12.836 132.741 13.3762 133.103 14.0662H134.682C135.372 15.4762 135.844 16.846 136.098 18.146C136.388 19.456 136.515 20.9961 136.479 22.7761C136.479 23.6061 136.424 24.2661 136.315 24.7361C136.206 25.1661 135.989 25.556 135.662 25.876C134.864 25.916 133.974 25.936 132.995 25.936C132.015 25.896 130.781 25.876 129.293 25.876H125.591C124.829 25.876 124.284 26.0262 123.958 26.3162C123.667 26.6062 123.341 26.966 122.978 27.406C122.971 27.306 122.963 27.2059 122.956 27.0959C122.961 27.3459 122.968 27.5859 122.978 27.8359C123.123 30.4859 123.667 33.1559 124.611 35.8359H120.256C119.348 32.7959 118.877 29.976 118.84 27.406C118.804 24.826 119.094 22.4461 119.711 20.2761C120.328 18.0961 121.109 16.0262 122.052 14.0662H125.591ZM101.093 36.386C101.093 37.116 101.22 37.5861 101.474 37.7961C101.728 38.0161 102.109 38.1959 102.618 38.3459C102.654 38.3859 102.69 38.4161 102.726 38.4561H102.835C103.198 38.5961 103.434 38.7259 103.543 38.8359C103.688 38.9459 103.761 39.126 103.761 39.376C103.761 39.636 103.706 39.816 103.597 39.926C103.489 40.036 103.325 40.1461 103.108 40.2461H95.595C95.341 40.1461 95.159 40.0461 95.051 39.9761C94.942 39.8661 94.887 39.666 94.887 39.376C94.887 39.196 94.96 39.056 95.105 38.946C95.25 38.836 95.486 38.6861 95.813 38.5061C95.922 38.4761 96.03 38.436 96.139 38.396C96.248 38.366 96.339 38.3061 96.412 38.2361C96.702 38.0161 96.883 37.7861 96.956 37.5261C97.028 37.2361 97.065 36.856 97.065 36.386L97.01 20.5959C97.01 19.2959 97.174 18.1661 97.5 17.2261C97.827 16.2461 98.353 15.1862 99.079 14.0662H100.658C100.876 13.5162 101.202 13.0661 101.638 12.7061C102.073 12.3061 102.509 11.866 102.944 11.396C104.106 11.326 105.104 11.2861 105.938 11.2861C106.809 11.2861 107.826 11.3461 108.987 11.4561C109.459 11.9261 109.858 12.326 110.185 12.646C110.511 12.936 110.892 13.4162 111.328 14.0662H112.852C113.614 15.1162 114.159 16.0961 114.485 17.0061C114.848 17.9161 115.03 18.9861 115.03 20.2161V36.386C115.03 36.856 115.066 37.2361 115.139 37.5261C115.247 37.7861 115.429 38.0161 115.683 38.2361C115.828 38.3061 115.955 38.366 116.064 38.396C116.173 38.436 116.282 38.4862 116.391 38.5662C116.754 38.6762 117.026 38.776 117.207 38.886C117.389 38.996 117.479 39.166 117.479 39.376C117.479 39.666 117.425 39.8661 117.316 39.9761C117.244 40.0461 117.062 40.1461 116.772 40.2461H109.422C109.205 40.1461 109.041 40.036 108.932 39.926C108.86 39.816 108.824 39.636 108.824 39.376C108.824 39.166 108.896 38.996 109.041 38.886C109.223 38.746 109.495 38.576 109.858 38.396C110.148 38.256 110.402 38.076 110.62 37.856C110.838 37.606 110.947 37.116 110.947 36.386V19.126C110.947 17.786 110.729 16.7659 110.293 16.0759C109.894 15.3559 109.368 14.6862 108.715 14.0662H107.898C107.209 13.9562 106.61 13.906 106.102 13.906C105.594 13.866 104.995 13.9162 104.305 14.0662H103.162C102.618 14.6862 102.128 15.3361 101.692 16.0261C101.293 16.7161 101.093 17.676 101.093 18.906V36.386ZM11.106 37.7961C11.106 37.0361 11.305 36.2962 11.704 35.5662C12.467 35.1662 13.211 34.9661 13.936 34.9661C14.662 34.9361 15.388 35.1161 16.114 35.5161C16.513 36.2361 16.713 36.9861 16.713 37.7461C16.749 38.4761 16.568 39.196 16.168 39.926C15.406 40.326 14.662 40.5261 13.936 40.5261C13.211 40.5261 12.485 40.3461 11.759 39.9761C11.36 39.2561 11.142 38.5261 11.106 37.7961Z" fill="black"/>
</svg>
