<svg width="137" height="41" viewBox="0 0 137 41" fill="none" xmlns="http://www.w3.org/2000/svg">
<path fill-rule="evenodd" clip-rule="evenodd" d="M4.355 14.446C5.444 14.516 6.496 14.406 7.513 14.116C8.565 13.796 9.908 13.3261 11.541 12.7061L13.065 12.156L13.12 16.7361C11.269 17.2761 9.708 17.6359 8.438 17.8259C7.168 18.0059 5.807 17.946 4.355 17.656V14.446ZM4.355 14.446L2.831 16.136C1.924 15.476 1.216 14.6861 0.708 13.7361C0.236 12.7561 0 11.636 0 10.366C0.327 9.34596 0.817 8.49615 1.47 7.80615C2.159 7.07615 3.121 6.46605 4.355 5.95605V4.42602L6.642 3.44604C7.077 3.23604 7.458 3.046 7.785 2.906C8.111 2.726 8.42 2.59612 8.71 2.52612V0.99609C9.4 0.81609 9.999 0.785992 10.507 0.895992C11.015 0.995992 11.523 1.21614 12.031 1.54614C12.213 2.23614 12.231 2.81613 12.086 3.28613C11.94 3.75613 11.65 4.26615 11.214 4.80615L8.71 5.29614V6.82592C7.948 7.00592 7.168 7.25593 6.369 7.58593C5.607 7.87593 4.936 8.09608 4.355 8.23608V8.67602C3.92 9.11602 3.539 9.56613 3.212 10.0361C2.885 10.5061 2.722 11.0861 2.722 11.7761C2.722 12.5361 2.885 13.1359 3.212 13.5759C3.539 13.9759 3.92 14.266 4.355 14.446ZM20.523 22.7761C20.306 22.9561 20.088 23.1161 19.87 23.2661C19.653 23.3761 19.435 23.516 19.217 23.696C17.765 24.716 16.677 25.5561 15.951 26.2061C15.225 26.8261 14.862 27.546 14.862 28.386V31.106C14.608 31.326 14.336 31.4661 14.045 31.5361C13.791 31.6161 13.537 31.6161 13.283 31.5361C13.029 31.4361 12.775 31.286 12.521 31.106V28.5959C12.521 27.4059 12.702 26.426 13.065 25.656C13.428 24.896 13.918 24.066 14.535 23.156L14.807 22.7761H16.332C16.622 22.3061 16.985 21.8861 17.421 21.5261C17.856 21.1561 18.328 20.7461 18.836 20.2761C19.163 19.9461 19.526 19.656 19.925 19.396C20.324 19.146 20.723 18.816 21.122 18.416H22.647C23.227 17.656 23.681 16.986 24.008 16.406C24.334 15.826 24.498 15.0462 24.498 14.0662H26.131V12.5361H25.042C24.86 12.1061 24.534 11.7461 24.062 11.4561C23.627 11.1261 23.064 10.9661 22.374 10.9661C21.612 10.9661 20.832 11.0859 20.034 11.3459C19.271 11.5959 18.4 11.9259 17.421 12.3259V13.7961L13.12 15.2061L13.065 10.686C13.61 10.546 14.245 10.366 14.971 10.146C15.733 9.89599 16.549 9.65603 17.421 9.43603V7.96606C18.981 7.64606 20.451 7.49613 21.83 7.53613C23.209 7.53613 24.643 8.0261 26.131 9.0061V10.7461L27.655 10.5261C27.873 11.1061 28.072 11.6661 28.254 12.2161C28.435 12.7561 28.581 13.3762 28.689 14.0662H27.165C27.274 14.8262 27.31 15.5561 27.274 16.2461C27.274 16.9361 27.165 17.656 26.947 18.416H25.423C25.205 19.296 24.788 20.0561 24.171 20.7061C23.554 21.3561 22.846 22.0461 22.048 22.7761H20.523ZM39.196 37.2561L37.672 38.886C36.583 38.386 35.694 37.9261 35.004 37.5261C34.351 37.0961 34.024 36.5259 34.024 35.8359L33.97 32.7961L33.861 28.386C34.115 28.206 34.369 28.056 34.623 27.946C34.877 27.836 35.15 27.816 35.44 27.896C35.73 27.966 36.021 28.0961 36.311 28.2761L36.474 29.146C36.765 30.926 37.109 32.4461 37.509 33.7161C37.908 34.9561 38.47 36.1361 39.196 37.2561ZM39.196 3.82592V1.16601C40.902 0.766012 42.462 0.596022 43.878 0.676022C45.293 0.706022 46.636 0.81609 47.906 0.99609V2.52612C48.741 2.70612 49.394 2.90597 49.866 3.12597C50.338 3.30597 50.755 3.53592 51.118 3.82592C51.155 5.28592 51.191 6.69592 51.227 8.07592C51.263 9.41592 51.282 10.856 51.282 12.376C51.028 12.596 50.755 12.756 50.465 12.866C50.211 12.936 49.939 12.936 49.648 12.866C49.358 12.796 49.068 12.646 48.777 12.436C48.56 11.376 48.378 10.546 48.233 9.92602C48.124 9.30602 48.015 8.65606 47.906 7.96606V6.60595C47.035 5.40595 46.128 4.53609 45.184 3.99609C44.277 3.44609 43.334 3.17602 42.354 3.17602C41.374 3.17602 40.321 3.39592 39.196 3.82592ZM48.07 35.8359C48.687 33.2259 48.705 30.926 48.124 28.926C47.543 26.896 46.672 24.8461 45.511 22.7761H43.987C43.696 22.3361 43.388 21.956 43.061 21.636C42.735 21.266 42.408 20.866 42.081 20.436C41.791 20.106 41.501 19.7961 41.21 19.5061C40.92 19.1861 40.63 18.816 40.339 18.416H38.815C38.162 17.516 37.636 16.746 37.236 16.136C36.837 15.476 36.529 14.7962 36.311 14.0662H34.786C34.496 13.1962 34.242 12.0861 34.024 10.7461C33.843 9.40609 33.988 8.02595 34.46 6.60595C34.968 5.19595 36.039 3.88603 37.672 2.68603L39.196 3.82592C38.543 4.84592 38.107 5.89608 37.89 6.98608C37.708 8.07608 37.763 9.21601 38.053 10.416C38.38 11.616 38.978 12.8362 39.849 14.0662H41.374C41.737 14.7562 42.227 15.466 42.844 16.186C43.497 16.876 44.114 17.626 44.694 18.416H46.219C46.727 19.186 47.199 19.8761 47.634 20.4861C48.106 21.1061 48.578 21.8661 49.05 22.7761H50.574C51.481 24.8761 52.062 26.9661 52.316 29.0361C52.57 31.1061 52.28 33.3759 51.445 35.8359H48.07ZM39.196 37.2561C40.285 37.6961 41.356 37.9261 42.408 37.9661C43.461 37.9961 44.459 37.8361 45.402 37.4761C46.346 37.1161 47.235 36.5659 48.07 35.8359L49.921 37.366C48.433 38.636 46.818 39.5261 45.076 40.0361C43.37 40.5061 41.41 40.636 39.196 40.416V37.2561ZM61.298 35.8359C62.06 36.2759 62.841 36.636 63.639 36.926C64.438 37.186 65.29 37.256 66.198 37.146C67.105 37.006 68.085 36.5659 69.138 35.8359L70.39 37.366C69.337 38.746 68.103 39.686 66.688 40.196C65.309 40.706 63.875 40.706 62.387 40.196C60.935 39.726 59.593 38.776 58.359 37.366L61.298 35.8359ZM69.138 35.8359C69.319 35.3359 69.482 34.846 69.628 34.376C69.773 33.866 69.9 33.3559 70.009 32.8459L70.118 32.2461C70.48 32.0261 70.789 31.926 71.043 31.926C71.333 31.926 71.587 31.996 71.805 32.136C72.023 32.246 72.241 32.3959 72.458 32.5759C72.386 33.1559 72.313 33.686 72.241 34.156C72.168 34.626 72.059 35.1859 71.914 35.8359H69.138ZM62.333 14.0662C61.571 15.8762 60.954 17.9659 60.482 20.3259C60.01 22.6459 59.829 25.1361 59.937 27.7861C60.046 30.4361 60.5 33.1159 61.298 35.8359H56.889C55.981 32.7159 55.546 29.8661 55.582 27.2961C55.618 24.7161 55.981 22.3561 56.671 20.2161C57.361 18.0361 58.214 15.9862 59.23 14.0662H62.333ZM62.333 14.0662L60.7 12.5361C62.042 12.0661 63.186 11.7462 64.129 11.5662C65.073 11.3762 66.143 11.2861 67.341 11.2861C68.067 11.6561 68.629 12.036 69.029 12.436C69.428 12.836 69.718 13.3762 69.9 14.0662H71.424C71.714 14.9362 71.896 15.8261 71.968 16.7361C72.041 17.6061 72.077 18.6359 72.077 19.8359V20.106C71.823 20.286 71.569 20.4361 71.315 20.5461C71.097 20.6561 70.843 20.686 70.553 20.656C70.299 20.576 69.99 20.4361 69.628 20.2161C69.591 20.1061 69.555 19.9759 69.519 19.8359C69.482 19.6859 69.446 19.5061 69.41 19.2961C69.156 18.0561 68.865 17.0461 68.539 16.2461C68.248 15.4061 67.885 14.6862 67.45 14.0662H66.252C65.454 13.8162 64.764 13.7061 64.184 13.7361C63.603 13.7761 62.986 13.8862 62.333 14.0662ZM89.824 35.8359C90.078 35.1859 90.314 34.4761 90.532 33.7161C90.75 32.9161 90.913 32.156 91.022 31.436C91.312 31.246 91.585 31.136 91.839 31.106C92.129 31.066 92.383 31.1261 92.601 31.2661C92.855 31.3761 93.091 31.5261 93.309 31.7061C93.236 32.4261 93.127 33.1359 92.982 33.8259C92.873 34.5159 92.746 35.1859 92.601 35.8359H89.824ZM81.495 35.8359C82.257 36.2759 83.074 36.636 83.945 36.926C84.852 37.186 85.796 37.256 86.776 37.146C87.756 37.006 88.772 36.5659 89.824 35.8359L91.077 37.366C90.06 38.746 88.808 39.686 87.32 40.196C85.832 40.666 84.308 40.646 82.747 40.146C81.223 39.596 79.88 38.676 78.719 37.366L81.495 35.8359ZM82.53 14.0662C81.695 15.8462 81.005 17.9161 80.461 20.2761C80.31 20.9761 80.186 21.686 80.09 22.416C80.233 22.696 80.392 22.916 80.57 23.106C80.787 23.246 81.114 23.3162 81.55 23.3162C82.203 23.3562 82.929 23.396 83.727 23.426H86.231C86.994 23.426 87.556 23.3761 87.919 23.2661C88.282 23.1561 88.645 22.9961 89.008 22.7761C89.117 22.3761 89.189 21.996 89.226 21.636C89.262 21.266 89.28 20.856 89.28 20.376V20.106C89.28 18.766 89.171 17.626 88.953 16.676C88.736 15.696 88.409 14.8262 87.974 14.0662H86.776C85.941 13.7762 85.197 13.6661 84.544 13.7361C83.891 13.7761 83.219 13.8862 82.53 14.0662L80.515 12.5361C81.822 12.0361 82.911 11.7062 83.782 11.5662C84.653 11.4162 85.669 11.3459 86.83 11.3459C87.447 11.6659 88.046 12.036 88.627 12.436C89.207 12.836 89.679 13.3762 90.042 14.0662H91.566C92.256 15.4762 92.728 16.846 92.982 18.146C93.272 19.456 93.399 20.9961 93.363 22.7761C93.363 23.5761 93.309 24.206 93.2 24.676C93.091 25.116 92.873 25.516 92.546 25.876H82.475C81.713 25.876 81.169 26.0262 80.842 26.3162C80.552 26.6062 80.225 26.966 79.862 27.406C79.855 27.306 79.847 27.1959 79.84 27.0959C79.845 27.3359 79.852 27.5859 79.862 27.8359C80.007 30.4859 80.552 33.1559 81.495 35.8359H77.195C76.251 32.7959 75.761 29.976 75.725 27.406C75.725 24.826 76.033 22.4461 76.65 20.2761C77.267 18.0561 78.047 15.9862 78.991 14.0662H82.53ZM124.556 35.8359C125.319 36.2759 126.135 36.636 127.006 36.926C127.914 37.186 128.857 37.256 129.837 37.146C130.817 37.006 131.833 36.5659 132.886 35.8359L134.138 37.366C133.085 38.746 131.815 39.686 130.327 40.196C128.875 40.666 127.369 40.646 125.809 40.146C124.284 39.596 122.941 38.676 121.78 37.366L124.556 35.8359ZM132.886 35.8359C133.103 35.1859 133.321 34.4761 133.539 33.7161C133.793 32.9161 133.956 32.156 134.029 31.436C134.356 31.246 134.646 31.136 134.9 31.106C135.154 31.066 135.408 31.1261 135.662 31.2661C135.916 31.3761 136.152 31.5261 136.37 31.7061C136.297 32.4261 136.188 33.1359 136.043 33.8259C135.934 34.5159 135.807 35.1859 135.662 35.8359H132.886ZM125.591 14.0662C124.756 15.8462 124.067 17.9161 123.522 20.2761C123.367 20.9961 123.24 21.7261 123.142 22.4861C123.305 22.7361 123.468 22.936 123.631 23.106C123.849 23.246 124.175 23.3162 124.611 23.3162C125.264 23.3562 125.99 23.396 126.788 23.426H129.293C130.055 23.426 130.617 23.3761 130.98 23.2661C131.343 23.1561 131.706 22.9961 132.069 22.7761C132.178 22.3761 132.251 21.996 132.287 21.636C132.323 21.266 132.341 20.856 132.341 20.376V20.106C132.341 18.766 132.232 17.626 132.015 16.676C131.797 15.696 131.452 14.8262 130.98 14.0662H129.783C128.984 13.7762 128.258 13.6661 127.605 13.7361C126.952 13.7761 126.28 13.8862 125.591 14.0662L123.577 12.5361C124.883 12.0361 125.954 11.7062 126.788 11.5662C127.66 11.4162 128.694 11.3459 129.892 11.3459C130.508 11.6659 131.089 12.036 131.634 12.436C132.214 12.836 132.704 13.3762 133.103 14.0662H134.628C135.317 15.4762 135.789 16.846 136.043 18.146C136.333 19.456 136.46 20.9961 136.424 22.7761C136.424 23.5761 136.37 24.206 136.261 24.676C136.152 25.116 135.934 25.516 135.608 25.876H125.536C124.774 25.876 124.23 26.0262 123.903 26.3162C123.613 26.6062 123.286 26.966 122.923 27.406C122.916 27.296 122.908 27.1959 122.901 27.0859C122.905 27.3359 122.913 27.5859 122.923 27.8359C123.068 30.4859 123.613 33.1559 124.556 35.8359H120.256C119.312 32.7959 118.822 29.976 118.786 27.406C118.75 24.826 119.04 22.4461 119.657 20.2761C120.31 18.0561 121.109 15.9862 122.052 14.0662H125.591ZM101.039 36.386C101.039 37.116 101.166 37.5861 101.42 37.7961C101.71 38.0161 102.091 38.216 102.563 38.396C102.599 38.436 102.636 38.4561 102.672 38.4561H102.835C103.198 38.5961 103.434 38.7259 103.543 38.8359C103.688 38.9459 103.761 39.126 103.761 39.376C103.761 39.636 103.706 39.816 103.597 39.926C103.489 40.036 103.325 40.1461 103.108 40.2461H95.54C95.286 40.1761 95.105 40.0861 94.996 39.9761C94.887 39.8661 94.833 39.666 94.833 39.376C94.833 39.196 94.887 39.056 94.996 38.946C95.141 38.836 95.395 38.6861 95.758 38.5061C95.867 38.4761 95.976 38.436 96.085 38.396C96.194 38.366 96.284 38.3061 96.357 38.2361C96.647 38.0161 96.829 37.7861 96.902 37.5261C96.974 37.2361 97.01 36.856 97.01 36.386L96.956 20.5959C96.956 19.2959 97.119 18.146 97.446 17.166C97.809 16.186 98.353 15.1562 99.079 14.0662H100.603C100.821 13.5162 101.148 13.0661 101.583 12.7061C102.019 12.3061 102.472 11.8861 102.944 11.4561C104.069 11.3461 105.049 11.2861 105.884 11.2861C106.755 11.2861 107.771 11.3661 108.932 11.5061C109.404 11.9461 109.804 12.326 110.13 12.646C110.457 12.936 110.838 13.4162 111.273 14.0662H112.798C113.56 15.1162 114.104 16.0961 114.431 17.0061C114.794 17.9161 114.975 18.9861 114.975 20.2161V36.386C114.975 36.856 115.012 37.2361 115.084 37.5261C115.193 37.7861 115.393 38.0161 115.683 38.2361C115.792 38.3061 115.901 38.366 116.01 38.396C116.155 38.436 116.282 38.4862 116.391 38.5662C116.754 38.6762 117.026 38.776 117.207 38.886C117.389 38.996 117.479 39.166 117.479 39.376C117.479 39.666 117.425 39.8661 117.316 39.9761C117.244 40.0861 117.062 40.1761 116.772 40.2461H109.368C109.15 40.1761 108.987 40.0861 108.878 39.9761C108.769 39.8361 108.715 39.636 108.715 39.376C108.715 39.166 108.805 38.996 108.987 38.886C109.168 38.746 109.441 38.5961 109.804 38.4561C110.094 38.2761 110.348 38.076 110.566 37.856C110.82 37.606 110.929 37.116 110.892 36.386V19.126C110.892 17.786 110.675 16.7659 110.239 16.0759C109.84 15.3559 109.295 14.6862 108.606 14.0662H107.844C107.154 13.9562 106.555 13.906 106.047 13.906C105.539 13.866 104.94 13.9162 104.251 14.0662H103.162C102.581 14.6862 102.073 15.3361 101.638 16.0261C101.238 16.7161 101.039 17.676 101.039 18.906V36.386ZM11.106 37.7961C11.106 37.0361 11.305 36.2962 11.704 35.5662C12.43 35.1662 13.156 34.9661 13.882 34.9661C14.644 34.9361 15.388 35.0961 16.114 35.4561C16.513 36.2261 16.713 36.9861 16.713 37.7461C16.749 38.4761 16.568 39.196 16.168 39.926C15.406 40.326 14.644 40.5261 13.882 40.5261C13.156 40.5561 12.43 40.3761 11.704 39.9761C11.305 39.2561 11.106 38.5261 11.106 37.7961Z" fill="black"/>
</svg>
