<svg width="137" height="41" viewBox="0 0 137 41" fill="none" xmlns="http://www.w3.org/2000/svg">
<path fill-rule="evenodd" clip-rule="evenodd" d="M4.355 14.446L2.885 16.136C1.978 15.476 1.27 14.6861 0.762 13.7361C0.254 12.7961 0 11.686 0 10.416C0.327 9.36601 0.817 8.47609 1.47 7.74609C2.159 7.02609 3.121 6.40599 4.355 5.89599V4.42602L6.642 3.39599C7.077 3.17599 7.458 2.99594 7.785 2.84594C8.111 2.66594 8.42 2.54606 8.71 2.46606V0.99609C9.4 0.81609 9.999 0.785992 10.507 0.895992C11.015 0.995992 11.523 1.23594 12.031 1.59594C12.176 2.25594 12.176 2.81613 12.031 3.28613C11.922 3.75613 11.65 4.26615 11.214 4.80615L8.71 5.29614V6.76611C7.948 6.98611 7.168 7.24613 6.369 7.53613C5.607 7.82613 4.936 8.03603 4.355 8.18603V8.67602C3.92 9.11602 3.539 9.56613 3.212 10.0361C2.885 10.4761 2.722 11.0561 2.722 11.7761C2.722 12.5361 2.885 13.1359 3.212 13.5759C3.539 13.9759 3.92 14.266 4.355 14.446ZM4.355 14.446C5.408 14.516 6.46 14.3962 7.513 14.0662C8.565 13.7362 9.908 13.2861 11.541 12.7061L13.065 12.156L13.12 16.7361C11.269 17.2761 9.708 17.6359 8.438 17.8259C7.168 18.0059 5.807 17.926 4.355 17.606V14.446ZM20.578 22.7761C20.36 22.9561 20.142 23.1161 19.925 23.2661C19.707 23.3761 19.471 23.516 19.217 23.696C17.765 24.716 16.658 25.5561 15.896 26.2061C15.17 26.8261 14.807 27.566 14.807 28.436V31.106C14.59 31.326 14.336 31.4661 14.045 31.5361C13.791 31.6161 13.519 31.6161 13.229 31.5361C12.975 31.4361 12.721 31.286 12.467 31.106V28.656C12.467 27.416 12.666 26.426 13.065 25.656C13.465 24.896 13.973 24.066 14.59 23.156L14.807 22.7761H16.277C16.604 22.3061 16.985 21.8861 17.421 21.5261C17.892 21.1561 18.364 20.7461 18.836 20.2761C19.199 19.9461 19.58 19.656 19.979 19.396C20.378 19.146 20.778 18.816 21.177 18.416H22.647C23.227 17.656 23.681 16.986 24.008 16.406C24.371 15.826 24.552 15.0462 24.552 14.0662H26.131V12.5959H25.096C24.879 12.1259 24.534 11.7461 24.062 11.4561C23.627 11.1661 23.064 11.0161 22.374 11.0161C21.649 11.0161 20.886 11.146 20.088 11.396C19.29 11.656 18.4 11.9559 17.421 12.3259V13.7961L13.12 15.2661L13.065 10.686C13.61 10.586 14.245 10.396 14.971 10.146C15.733 9.89599 16.549 9.65603 17.421 9.43603V7.96606C18.945 7.67606 20.397 7.54593 21.776 7.58593C23.191 7.58593 24.643 8.07615 26.131 9.05615V10.7461L27.601 10.5261C27.818 11.1061 28.018 11.6861 28.199 12.2661C28.417 12.8161 28.562 13.4162 28.635 14.0662H27.165C27.274 14.8262 27.31 15.5561 27.274 16.2461C27.274 16.9361 27.165 17.656 26.947 18.416H25.478C25.26 19.296 24.824 20.0561 24.171 20.7061C23.554 21.3561 22.846 22.0461 22.048 22.7761H20.578ZM39.196 37.2561L37.726 38.946C36.601 38.436 35.694 37.9859 35.004 37.5859C34.351 37.1459 34.024 36.586 34.024 35.896L33.916 32.8459L33.807 28.436C34.061 28.216 34.315 28.056 34.569 27.946C34.823 27.836 35.095 27.816 35.385 27.896C35.676 27.966 35.966 28.1059 36.256 28.3259L36.42 29.146C36.746 30.956 37.109 32.4861 37.509 33.7161C37.908 34.9561 38.47 36.1361 39.196 37.2561ZM39.196 3.82592V1.16601C40.902 0.766012 42.462 0.596022 43.878 0.676022C45.293 0.706022 46.636 0.81609 47.906 0.99609V2.46606C48.741 2.65606 49.394 2.84616 49.866 3.06616C50.338 3.24616 50.755 3.50592 51.118 3.82592C51.118 5.24592 51.136 6.64612 51.173 8.02612C51.209 9.40612 51.227 10.8359 51.227 12.3259C51.009 12.5359 50.755 12.7062 50.465 12.8162C50.211 12.8862 49.939 12.906 49.648 12.866C49.358 12.796 49.068 12.646 48.777 12.436C48.596 11.376 48.433 10.546 48.287 9.92602C48.142 9.30602 48.015 8.63601 47.906 7.91601V6.60595C47.035 5.40595 46.128 4.53609 45.184 3.99609C44.277 3.44609 43.334 3.17602 42.354 3.17602C41.374 3.17602 40.321 3.39592 39.196 3.82592ZM39.196 37.2561C40.285 37.6961 41.356 37.9461 42.408 38.0161C43.461 38.0561 44.459 37.8961 45.402 37.5261C46.346 37.1661 47.235 36.6059 48.07 35.8359L49.975 37.3061C48.487 38.6161 46.872 39.5261 45.13 40.0361C43.388 40.5361 41.41 40.666 39.196 40.416V37.2561ZM48.07 35.8359C48.723 33.2259 48.741 30.906 48.124 28.876C47.543 26.836 46.654 24.8061 45.457 22.7761H43.987C43.696 22.3361 43.388 21.956 43.061 21.636C42.735 21.266 42.39 20.866 42.027 20.436C41.773 20.106 41.483 19.7961 41.156 19.5061C40.866 19.1861 40.575 18.816 40.285 18.416H38.815C38.162 17.516 37.617 16.746 37.182 16.136C36.783 15.476 36.474 14.7962 36.256 14.0662H34.786C34.496 13.1962 34.242 12.0861 34.024 10.7461C33.807 9.36609 33.952 7.96615 34.46 6.55615C34.968 5.13615 36.057 3.82598 37.726 2.63598L39.196 3.82592C38.507 4.80592 38.053 5.86608 37.835 6.98608C37.654 8.07608 37.726 9.21601 38.053 10.416C38.38 11.616 38.978 12.8362 39.849 14.0662H41.319C41.718 14.7562 42.227 15.466 42.844 16.186C43.497 16.876 44.132 17.626 44.749 18.416H46.219C46.727 19.186 47.217 19.8761 47.689 20.4861C48.16 21.1061 48.614 21.8661 49.05 22.7761H50.519C51.463 24.8761 52.062 26.9859 52.316 29.0859C52.606 31.1559 52.316 33.4059 51.445 35.8359H48.07ZM62.387 14.0662L60.7 12.5959C62.042 12.1259 63.186 11.796 64.129 11.616C65.073 11.436 66.125 11.3459 67.287 11.3459C68.049 11.6659 68.629 12.036 69.029 12.436C69.428 12.836 69.718 13.3762 69.9 14.0662H71.37C71.696 14.9362 71.896 15.8261 71.968 16.7361C72.041 17.6361 72.077 18.6759 72.077 19.8359V20.166C71.823 20.346 71.569 20.4859 71.315 20.5959C71.097 20.7059 70.843 20.7461 70.553 20.7061C70.299 20.6361 69.99 20.4861 69.628 20.2761C69.591 20.1261 69.555 19.9759 69.519 19.8359C69.482 19.6859 69.446 19.5061 69.41 19.2961C69.119 18.0561 68.829 17.0461 68.539 16.2461C68.248 15.4061 67.867 14.6862 67.396 14.0662H66.252C65.454 13.8162 64.764 13.7061 64.184 13.7361C63.603 13.7761 63.004 13.8862 62.387 14.0662ZM62.387 14.0662C61.589 15.8462 60.954 17.9161 60.482 20.2761C60.01 22.6261 59.829 25.1559 59.937 27.8359C60.046 30.4859 60.5 33.1559 61.298 35.8359H56.889C55.945 32.7559 55.492 29.9259 55.528 27.3459C55.564 24.7359 55.945 22.336 56.671 20.166C57.397 17.986 58.25 15.9562 59.23 14.0662H62.387ZM61.298 35.8359C62.06 36.3159 62.841 36.6961 63.639 36.9861C64.438 37.2361 65.29 37.296 66.198 37.146C67.105 37.006 68.067 36.5659 69.083 35.8359L70.39 37.3061C69.337 38.6861 68.103 39.656 66.688 40.196C65.309 40.736 63.875 40.7561 62.387 40.2461C60.899 39.7461 59.556 38.7661 58.359 37.3061L61.298 35.8359ZM69.083 35.8359C69.301 35.3359 69.482 34.846 69.628 34.376C69.773 33.866 69.9 33.3559 70.009 32.8459L70.172 32.2461C70.499 32.0661 70.789 31.9761 71.043 31.9761C71.333 31.9361 71.587 31.996 71.805 32.136C72.023 32.246 72.222 32.416 72.404 32.626C72.368 33.176 72.295 33.6961 72.186 34.2061C72.114 34.6761 72.005 35.2259 71.86 35.8359H69.083ZM81.495 35.8359C82.257 36.3159 83.074 36.6961 83.945 36.9861C84.852 37.2361 85.796 37.296 86.776 37.146C87.756 37.006 88.772 36.5659 89.824 35.8359L91.077 37.3061C90.06 38.7261 88.79 39.686 87.266 40.196C85.778 40.666 84.254 40.646 82.693 40.146C81.169 39.596 79.826 38.6561 78.664 37.3061L81.495 35.8359ZM82.53 14.0662C81.659 15.8062 80.951 17.8761 80.406 20.2761C80.256 20.9761 80.132 21.686 80.035 22.416C80.178 22.696 80.338 22.916 80.515 23.106C80.733 23.246 81.06 23.336 81.495 23.376C82.149 23.376 82.874 23.396 83.673 23.426H86.177C86.939 23.426 87.502 23.3761 87.865 23.2661C88.228 23.1561 88.59 22.9961 88.953 22.7761C89.099 22.3761 89.171 21.996 89.171 21.636C89.207 21.266 89.226 20.856 89.226 20.376V20.106C89.226 18.806 89.117 17.656 88.899 16.676C88.681 15.666 88.355 14.7962 87.919 14.0662H86.721C85.923 13.7762 85.197 13.6661 84.544 13.7361C83.891 13.7761 83.219 13.8862 82.53 14.0662L80.461 12.5959C81.767 12.0559 82.856 11.7062 83.727 11.5662C84.598 11.4162 85.614 11.3459 86.776 11.3459C87.393 11.7059 87.992 12.0861 88.572 12.4861C89.153 12.8461 89.643 13.3762 90.042 14.0662H91.512C92.202 15.4762 92.692 16.846 92.982 18.146C93.272 19.456 93.381 20.9961 93.309 22.7761C93.309 23.5761 93.254 24.206 93.145 24.676C93.036 25.116 92.819 25.4959 92.492 25.8259C91.73 25.8559 90.841 25.876 89.824 25.876C88.845 25.846 87.611 25.8259 86.123 25.8259H82.366C81.604 25.8259 81.078 25.9862 80.787 26.3162C80.497 26.6062 80.171 26.966 79.808 27.406C79.8 27.306 79.793 27.1959 79.785 27.0959C79.79 27.3359 79.798 27.5859 79.808 27.8359C79.953 30.4859 80.515 33.1559 81.495 35.8359H77.195C76.215 32.8259 75.707 30.0361 75.67 27.4561C75.67 24.8461 75.979 22.4261 76.596 20.2161C77.249 18.0061 78.047 15.9562 78.991 14.0662H82.53ZM89.824 35.8359C90.042 35.1859 90.26 34.4761 90.478 33.7161C90.732 32.9161 90.895 32.156 90.968 31.436C91.258 31.246 91.53 31.136 91.784 31.106C92.075 31.066 92.347 31.1261 92.601 31.2661C92.855 31.3761 93.091 31.5261 93.309 31.7061C93.236 32.4261 93.127 33.1359 92.982 33.8259C92.837 34.5159 92.692 35.1859 92.546 35.8359H89.824ZM125.591 14.0662C124.72 15.8062 124.012 17.8761 123.468 20.2761C123.313 20.9961 123.186 21.7261 123.088 22.4861C123.251 22.7361 123.414 22.936 123.577 23.106C123.794 23.246 124.121 23.336 124.556 23.376C125.173 23.376 125.881 23.396 126.68 23.426H129.238C130 23.426 130.563 23.3761 130.926 23.2661C131.289 23.1561 131.652 22.9961 132.015 22.7761C132.124 22.3761 132.196 21.996 132.232 21.636C132.269 21.266 132.287 20.856 132.287 20.376V20.106C132.287 18.806 132.178 17.656 131.96 16.676C131.742 15.666 131.398 14.7962 130.926 14.0662H129.783C128.984 13.7762 128.258 13.6661 127.605 13.7361C126.952 13.7761 126.28 13.8862 125.591 14.0662L123.522 12.5959C124.829 12.0559 125.899 11.7062 126.734 11.5662C127.605 11.4162 128.639 11.3459 129.837 11.3459C130.418 11.7059 130.998 12.0861 131.579 12.4861C132.196 12.8461 132.686 13.3762 133.049 14.0662H134.519C135.245 15.4762 135.735 16.846 135.989 18.146C136.279 19.456 136.406 20.9961 136.37 22.7761C136.37 23.5761 136.315 24.206 136.206 24.676C136.098 25.116 135.88 25.4959 135.553 25.8259C134.791 25.8559 133.902 25.876 132.886 25.876C131.869 25.846 130.636 25.8259 129.184 25.8259H125.428C124.665 25.8259 124.139 25.9862 123.849 26.3162C123.558 26.6062 123.232 26.966 122.869 27.406C122.862 27.306 122.854 27.1959 122.847 27.0959C122.851 27.3359 122.859 27.5859 122.869 27.8359C123.014 30.4859 123.577 33.1559 124.556 35.8359H120.201C119.258 32.8259 118.768 30.0361 118.732 27.4561C118.695 24.8461 119.004 22.4261 119.657 20.2161C120.31 18.0061 121.109 15.9562 122.052 14.0662H125.591ZM124.556 35.8359C125.282 36.3159 126.099 36.6961 127.006 36.9861C127.914 37.2361 128.857 37.296 129.837 37.146C130.817 37.006 131.815 36.5659 132.831 35.8359L134.083 37.3061C133.067 38.7261 131.815 39.686 130.327 40.196C128.839 40.666 127.315 40.646 125.754 40.146C124.194 39.596 122.833 38.6561 121.671 37.3061L124.556 35.8359ZM132.831 35.8359C133.085 35.1859 133.321 34.4761 133.539 33.7161C133.757 32.9161 133.92 32.156 134.029 31.436C134.319 31.246 134.591 31.136 134.845 31.106C135.136 31.066 135.39 31.1261 135.608 31.2661C135.862 31.3761 136.098 31.5261 136.315 31.7061C136.243 32.4261 136.134 33.1359 135.989 33.8259C135.88 34.5159 135.753 35.1859 135.608 35.8359H132.831ZM100.984 36.386C100.984 37.146 101.111 37.636 101.365 37.856C101.656 38.076 102.055 38.256 102.563 38.396C102.599 38.436 102.636 38.4561 102.672 38.4561C102.708 38.4561 102.745 38.4761 102.781 38.5061C103.144 38.6561 103.38 38.776 103.489 38.886C103.634 38.966 103.706 39.146 103.706 39.436C103.706 39.656 103.652 39.816 103.543 39.926C103.434 40.036 103.289 40.1461 103.108 40.2461H95.432C95.178 40.1761 94.996 40.0861 94.887 39.9761C94.778 39.8661 94.724 39.666 94.724 39.376C94.724 39.196 94.796 39.056 94.942 38.946C95.087 38.836 95.341 38.7062 95.704 38.5662C95.813 38.4862 95.922 38.436 96.03 38.396C96.139 38.366 96.23 38.3261 96.303 38.2861C96.593 38.0361 96.774 37.7861 96.847 37.5261C96.92 37.2761 96.956 36.896 96.956 36.386L96.902 20.656C96.902 19.346 97.065 18.2061 97.391 17.2261C97.754 16.2061 98.299 15.1562 99.025 14.0662H100.549C100.767 13.5162 101.093 13.0661 101.529 12.7061C102.001 12.3061 102.454 11.8861 102.89 11.4561C104.015 11.3761 104.995 11.3459 105.829 11.3459C106.7 11.3459 107.699 11.3961 108.824 11.5061C109.332 11.9461 109.749 12.326 110.076 12.646C110.439 12.936 110.838 13.4162 111.273 14.0662H112.743C113.505 15.1162 114.05 16.0961 114.376 17.0061C114.739 17.9161 114.921 18.9861 114.921 20.2161L114.975 36.386C114.975 36.856 115.012 37.2361 115.084 37.5261C115.157 37.7861 115.338 38.0361 115.628 38.2861C115.774 38.3261 115.901 38.366 116.01 38.396C116.118 38.436 116.245 38.4862 116.391 38.5662C116.717 38.6762 116.971 38.776 117.153 38.886C117.371 38.996 117.479 39.166 117.479 39.376C117.479 39.666 117.425 39.8661 117.316 39.9761C117.244 40.0861 117.062 40.1761 116.772 40.2461H109.314C109.096 40.1761 108.932 40.0861 108.824 39.9761C108.715 39.8361 108.66 39.656 108.66 39.436C108.66 39.176 108.751 38.996 108.932 38.886C109.114 38.746 109.386 38.5961 109.749 38.4561C110.039 38.2761 110.293 38.076 110.511 37.856C110.765 37.606 110.874 37.116 110.838 36.386V19.126C110.838 17.746 110.62 16.7161 110.185 16.0261C109.785 15.3361 109.241 14.6862 108.551 14.0662H107.789C107.1 13.9562 106.501 13.906 105.993 13.906C105.485 13.866 104.886 13.9162 104.196 14.0662H103.108C102.527 14.6462 102.019 15.2961 101.583 16.0261C101.184 16.7161 100.984 17.676 100.984 18.906V36.386ZM11.051 37.7961C11.051 37.0361 11.251 36.2962 11.65 35.5662C12.412 35.1362 13.156 34.916 13.882 34.916C14.608 34.916 15.352 35.0961 16.114 35.4561C16.513 36.2261 16.713 36.9861 16.713 37.7461C16.713 38.4761 16.513 39.196 16.114 39.926C15.388 40.326 14.644 40.5261 13.882 40.5261C13.156 40.5561 12.43 40.3761 11.704 39.9761C11.305 39.2561 11.087 38.5261 11.051 37.7961Z" fill="black"/>
</svg>
