<svg width="137" height="41" viewBox="0 0 137 41" fill="none" xmlns="http://www.w3.org/2000/svg">
<path fill-rule="evenodd" clip-rule="evenodd" d="M4.355 14.446C5.408 14.516 6.46 14.3962 7.513 14.0662C8.565 13.7362 9.908 13.266 11.541 12.646L13.065 12.106L13.12 16.676C11.269 17.256 9.708 17.6359 8.438 17.8259C7.168 18.0059 5.807 17.926 4.355 17.606V14.446ZM4.355 14.446L2.94 16.186C1.996 15.536 1.27 14.7361 0.762 13.7961C0.254 12.8161 0 11.686 0 10.416C0.327 9.36601 0.817 8.47609 1.47 7.74609C2.159 7.02609 3.121 6.38594 4.355 5.84594V4.42602L6.642 3.39599C7.077 3.17599 7.458 2.97614 7.785 2.79614C8.111 2.61614 8.42 2.48601 8.71 2.41601V0.99609C9.4 0.81609 9.999 0.785992 10.507 0.895992C11.015 0.995992 11.523 1.23594 12.031 1.59594C12.176 2.25594 12.176 2.81613 12.031 3.28613C11.886 3.75613 11.596 4.26615 11.16 4.80615L8.71 5.29614V6.76611C7.948 6.95611 7.168 7.20613 6.369 7.53613C5.607 7.82613 4.936 8.03603 4.355 8.18603V8.62597C3.92 9.05597 3.52 9.50608 3.157 9.98608C2.831 10.4561 2.668 11.0561 2.668 11.7761C2.668 12.5361 2.831 13.1359 3.157 13.5759C3.52 13.9759 3.92 14.266 4.355 14.446ZM20.578 22.7761C20.36 22.9561 20.142 23.1161 19.925 23.2661C19.707 23.3761 19.489 23.516 19.271 23.696C17.783 24.716 16.658 25.5561 15.896 26.2061C15.17 26.8561 14.807 27.606 14.807 28.436V31.106C14.553 31.326 14.281 31.4661 13.991 31.5361C13.737 31.6161 13.483 31.6161 13.229 31.5361C12.975 31.4361 12.721 31.286 12.467 31.106V28.656C12.467 27.416 12.666 26.426 13.065 25.656C13.465 24.896 13.973 24.066 14.59 23.156L14.862 22.7761H16.277C16.604 22.3061 16.985 21.8861 17.421 21.5261C17.892 21.1561 18.382 20.7461 18.89 20.2761C19.217 19.9461 19.58 19.656 19.979 19.396C20.378 19.146 20.796 18.816 21.231 18.416H22.647C23.264 17.656 23.735 16.986 24.062 16.406C24.425 15.826 24.606 15.0462 24.606 14.0662H26.131V12.646H25.096C24.915 12.176 24.588 11.7961 24.116 11.5061C23.681 11.1761 23.118 11.0161 22.429 11.0161C21.667 11.0161 20.886 11.146 20.088 11.396C19.29 11.656 18.4 11.976 17.421 12.376V13.7961L13.12 15.2661L13.065 10.686C13.61 10.586 14.245 10.396 14.971 10.146C15.733 9.89599 16.549 9.65603 17.421 9.43603V8.02612C18.945 7.69612 20.397 7.54593 21.776 7.58593C23.191 7.62593 24.643 8.13596 26.131 9.11596V10.7461L27.546 10.5261C27.764 11.1061 27.964 11.6861 28.145 12.2661C28.363 12.8161 28.526 13.4162 28.635 14.0662H27.165C27.31 14.8262 27.365 15.5561 27.328 16.2461C27.292 16.9361 27.165 17.656 26.947 18.416H25.532C25.278 19.296 24.842 20.0561 24.225 20.7061C23.608 21.3561 22.883 22.0461 22.048 22.7761H20.578ZM39.196 3.77612V1.16601C40.902 0.766012 42.462 0.596022 43.878 0.676022C45.293 0.706022 46.636 0.81609 47.906 0.99609V2.41601C48.741 2.63601 49.394 2.83611 49.866 3.01611C50.338 3.19611 50.755 3.44612 51.118 3.77612C51.118 5.22612 51.136 6.64612 51.173 8.02612C51.209 9.40612 51.227 10.8359 51.227 12.3259C51.009 12.5359 50.755 12.7062 50.465 12.8162C50.211 12.8862 49.939 12.8862 49.648 12.8162C49.358 12.7362 49.068 12.596 48.777 12.376C48.596 11.326 48.433 10.486 48.287 9.87597C48.142 9.25597 48.015 8.60601 47.906 7.91601V6.60595C47.035 5.40595 46.128 4.53609 45.184 3.99609C44.277 3.41609 43.334 3.12597 42.354 3.12597C41.374 3.12597 40.321 3.33612 39.196 3.77612ZM48.07 35.8359C48.723 33.2259 48.741 30.906 48.124 28.876C47.543 26.836 46.636 24.8061 45.402 22.7761H43.987C43.696 22.3361 43.388 21.956 43.061 21.636C42.735 21.266 42.39 20.866 42.027 20.436C41.737 20.106 41.446 19.7961 41.156 19.5061C40.866 19.1861 40.575 18.816 40.285 18.416H38.815C38.126 17.516 37.581 16.746 37.182 16.136C36.783 15.476 36.474 14.7962 36.256 14.0662H34.786C34.496 13.1962 34.242 12.0861 34.024 10.7461C33.807 9.36609 33.952 7.96615 34.46 6.55615C34.968 5.09615 36.075 3.79598 37.781 2.63598L39.196 3.77612C38.507 4.75612 38.053 5.80603 37.835 6.93603C37.654 8.05603 37.726 9.21601 38.053 10.416C38.38 11.616 38.978 12.8362 39.849 14.0662H41.265C41.664 14.7562 42.19 15.466 42.844 16.186C43.497 16.876 44.132 17.626 44.749 18.416H46.164C46.709 19.186 47.217 19.8761 47.689 20.4861C48.16 21.1061 48.614 21.8661 49.05 22.7761H50.519C51.463 24.8761 52.062 26.9859 52.316 29.0859C52.606 31.1559 52.316 33.4059 51.445 35.8359H48.07ZM39.196 37.3061C40.285 37.7461 41.356 37.9959 42.408 38.0759C43.461 38.1059 44.459 37.9459 45.402 37.5859C46.346 37.1859 47.235 36.6059 48.07 35.8359L49.975 37.2561C48.487 38.5961 46.872 39.5261 45.13 40.0361C43.388 40.5361 41.41 40.666 39.196 40.416V37.3061ZM39.196 37.3061L37.781 38.9961C36.656 38.4861 35.748 38.036 35.059 37.636C34.369 37.236 34.024 36.6961 34.024 36.0061L33.916 32.906L33.807 28.436C34.061 28.216 34.315 28.056 34.569 27.946C34.823 27.836 35.095 27.816 35.385 27.896C35.676 27.966 35.966 28.1059 36.256 28.3259L36.365 29.196C36.692 30.976 37.055 32.5061 37.454 33.7761C37.89 35.0061 38.47 36.1861 39.196 37.3061ZM62.387 14.0662C61.589 15.8062 60.935 17.8761 60.427 20.2761C59.956 22.6261 59.774 25.1559 59.883 27.8359C60.028 30.4859 60.5 33.1559 61.298 35.8359H56.889C55.945 32.7559 55.492 29.9061 55.528 27.2961C55.564 24.6761 55.945 22.306 56.671 20.166C57.397 17.986 58.268 15.9562 59.284 14.0662H62.387ZM62.387 14.0662L60.7 12.646C62.006 12.146 63.131 11.796 64.075 11.616C65.055 11.436 66.125 11.3459 67.287 11.3459C68.049 11.6659 68.629 12.036 69.029 12.436C69.428 12.836 69.718 13.3762 69.9 14.0662H71.315C71.642 14.9362 71.841 15.8261 71.914 16.7361C71.987 17.6361 72.023 18.696 72.023 19.886V20.166C71.805 20.376 71.569 20.546 71.315 20.656C71.097 20.766 70.843 20.7761 70.553 20.7061C70.299 20.6361 69.99 20.4861 69.628 20.2761C69.591 20.1661 69.555 20.036 69.519 19.886C69.482 19.746 69.446 19.5659 69.41 19.3459C69.119 18.0759 68.811 17.0461 68.484 16.2461C68.194 15.4061 67.831 14.6862 67.396 14.0662H66.252C65.454 13.8162 64.764 13.7061 64.184 13.7361C63.603 13.7761 63.004 13.8862 62.387 14.0662ZM61.298 35.8359C62.06 36.3159 62.841 36.6961 63.639 36.9861C64.438 37.2361 65.29 37.296 66.198 37.146C67.105 37.006 68.067 36.5659 69.083 35.8359L70.39 37.2561C69.374 38.6761 68.158 39.656 66.742 40.196C65.327 40.736 63.857 40.7561 62.333 40.2461C60.845 39.7461 59.502 38.7461 58.304 37.2561L61.298 35.8359ZM69.083 35.8359C69.301 35.3359 69.482 34.846 69.628 34.376C69.773 33.866 69.9 33.3559 70.009 32.8459L70.172 32.2461C70.499 32.0661 70.789 31.9761 71.043 31.9761C71.333 31.9361 71.587 31.996 71.805 32.136C72.023 32.246 72.222 32.416 72.404 32.626C72.331 33.176 72.259 33.6961 72.186 34.2061C72.114 34.6761 72.005 35.2259 71.86 35.8359H69.083ZM89.77 35.8359C90.024 35.1859 90.26 34.4761 90.478 33.7161C90.732 32.9161 90.895 32.156 90.968 31.436C91.258 31.246 91.53 31.136 91.784 31.106C92.075 31.066 92.329 31.1261 92.546 31.2661C92.8 31.3761 93.036 31.5261 93.254 31.7061C93.182 32.4261 93.073 33.1359 92.927 33.8259C92.782 34.5159 92.637 35.1859 92.492 35.8359H89.77ZM81.495 35.8359C82.221 36.3159 83.019 36.6961 83.891 36.9861C84.798 37.2361 85.742 37.296 86.721 37.146C87.738 37.006 88.754 36.5659 89.77 35.8359L91.077 37.2561C90.06 38.7061 88.79 39.686 87.266 40.196C85.778 40.666 84.235 40.646 82.638 40.146C81.078 39.596 79.717 38.6361 78.556 37.2561L81.495 35.8359ZM82.53 14.0662C81.659 15.8062 80.951 17.8761 80.406 20.2761C80.241 20.9861 80.108 21.7161 80.006 22.4661C80.142 22.7261 80.294 22.936 80.461 23.106C80.679 23.246 81.005 23.336 81.441 23.376C82.058 23.376 82.766 23.396 83.564 23.426H86.177C86.903 23.426 87.447 23.3761 87.81 23.2661C88.209 23.1561 88.59 22.9961 88.953 22.7761C89.062 22.3761 89.117 21.996 89.117 21.636C89.153 21.266 89.171 20.856 89.171 20.376V20.106C89.171 18.806 89.062 17.656 88.845 16.676C88.627 15.666 88.3 14.7962 87.865 14.0662H86.721C85.923 13.7762 85.197 13.6661 84.544 13.7361C83.891 13.7761 83.219 13.8862 82.53 14.0662L80.461 12.646C81.731 12.106 82.802 11.756 83.673 11.616C84.544 11.466 85.56 11.396 86.721 11.396C87.338 11.726 87.937 12.0861 88.518 12.4861C89.099 12.8461 89.589 13.3762 89.988 14.0662H91.403C92.129 15.4762 92.637 16.846 92.927 18.146C93.218 19.456 93.345 20.9961 93.309 22.7761C93.309 23.5761 93.254 24.206 93.145 24.676C93.036 25.116 92.8 25.4959 92.438 25.8259C91.675 25.8559 90.786 25.876 89.77 25.876C88.79 25.846 87.556 25.8259 86.068 25.8259H82.312C81.55 25.8259 81.023 25.9862 80.733 26.3162C80.443 26.6062 80.134 26.966 79.808 27.406C79.797 27.336 79.788 27.266 79.779 27.196C79.787 27.406 79.796 27.6259 79.808 27.8359C79.953 30.5259 80.515 33.1959 81.495 35.8359H77.14C76.16 32.8259 75.652 30.016 75.616 27.406C75.616 24.786 75.942 22.3961 76.596 20.2161C77.249 18.0061 78.047 15.9562 78.991 14.0662H82.53ZM132.831 35.8359C133.049 35.1859 133.267 34.4761 133.484 33.7161C133.739 32.9161 133.92 32.156 134.029 31.436C134.319 31.246 134.591 31.136 134.845 31.106C135.1 31.066 135.354 31.1261 135.608 31.2661C135.862 31.3761 136.098 31.5261 136.315 31.7061C136.243 32.4261 136.134 33.1359 135.989 33.8259C135.844 34.5159 135.698 35.1859 135.553 35.8359H132.831ZM125.591 14.0662C124.684 15.8062 123.958 17.8761 123.413 20.2761C123.262 20.9761 123.139 21.686 123.042 22.416C123.185 22.696 123.345 22.916 123.522 23.106C123.74 23.246 124.067 23.336 124.502 23.376C125.119 23.376 125.827 23.396 126.625 23.426H129.184C129.946 23.426 130.508 23.3761 130.871 23.2661C131.234 23.1561 131.597 22.9961 131.96 22.7761C132.105 22.3761 132.178 21.996 132.178 21.636C132.214 21.266 132.232 20.856 132.232 20.376V20.106C132.232 18.806 132.124 17.656 131.906 16.676C131.688 15.666 131.343 14.7962 130.871 14.0662H129.728C128.93 13.7762 128.204 13.6661 127.551 13.7361C126.897 13.7761 126.244 13.8862 125.591 14.0662L123.468 12.646C124.774 12.106 125.845 11.756 126.68 11.616C127.551 11.466 128.567 11.396 129.728 11.396C130.345 11.726 130.944 12.0861 131.525 12.4861C132.142 12.8461 132.65 13.3762 133.049 14.0662H134.464C135.19 15.4762 135.698 16.846 135.989 18.146C136.279 19.456 136.388 20.9961 136.315 22.7761C136.315 23.5761 136.261 24.206 136.152 24.676C136.043 25.116 135.825 25.4959 135.499 25.8259C134.737 25.8559 133.847 25.876 132.831 25.876C131.815 25.846 130.563 25.8259 129.075 25.8259H125.373C124.611 25.8259 124.067 25.9862 123.74 26.3162C123.45 26.6062 123.141 26.966 122.814 27.406C122.807 27.306 122.799 27.1959 122.792 27.0959C122.797 27.3359 122.804 27.5859 122.814 27.8359C122.96 30.5259 123.522 33.1959 124.502 35.8359H120.201C119.221 32.8259 118.713 30.016 118.677 27.406C118.677 24.786 118.986 22.3961 119.603 20.2161C120.256 18.0061 121.072 15.9562 122.052 14.0662H125.591ZM124.502 35.8359C125.264 36.3159 126.081 36.6961 126.952 36.9861C127.859 37.2361 128.803 37.296 129.783 37.146C130.763 37.006 131.779 36.5659 132.831 35.8359L134.083 37.2561C133.067 38.7061 131.797 39.686 130.273 40.196C128.785 40.666 127.26 40.646 125.7 40.146C124.139 39.596 122.778 38.6361 121.617 37.2561L124.502 35.8359ZM100.93 36.386C100.93 37.146 101.057 37.636 101.311 37.856C101.601 38.076 102.001 38.256 102.509 38.396C102.545 38.436 102.581 38.4561 102.618 38.4561C102.654 38.4561 102.708 38.4761 102.781 38.5061C103.144 38.6561 103.38 38.776 103.489 38.886C103.634 38.966 103.706 39.146 103.706 39.436C103.706 39.656 103.652 39.816 103.543 39.926C103.434 40.036 103.271 40.1461 103.053 40.2461H95.377C95.123 40.1761 94.942 40.0861 94.833 39.9761C94.724 39.8661 94.67 39.666 94.67 39.376C94.67 39.196 94.742 39.056 94.887 38.946C95.032 38.836 95.286 38.7062 95.649 38.5662C95.722 38.4862 95.813 38.436 95.922 38.396C96.03 38.366 96.139 38.3261 96.248 38.2861C96.539 38.0361 96.72 37.7861 96.793 37.5261C96.865 37.2761 96.902 36.896 96.902 36.386V20.656C96.902 19.346 97.065 18.2061 97.391 17.2261C97.718 16.2061 98.262 15.1562 99.025 14.0662H100.44C100.694 13.5162 101.039 13.0661 101.474 12.7061L102.89 11.5061C104.015 11.3961 104.995 11.3459 105.829 11.3459C106.664 11.3459 107.644 11.4162 108.769 11.5662C109.277 11.9562 109.695 12.326 110.021 12.646C110.384 12.936 110.783 13.4162 111.219 14.0662H112.634C113.433 15.1162 113.995 16.0961 114.322 17.0061C114.685 17.9161 114.866 18.9861 114.866 20.2161L114.921 36.386C114.921 36.856 114.957 37.2361 115.03 37.5261C115.139 37.7861 115.338 38.0361 115.628 38.2861C115.737 38.3261 115.846 38.366 115.955 38.396C116.1 38.436 116.227 38.4862 116.336 38.5662C116.699 38.6762 116.971 38.776 117.153 38.886C117.371 38.996 117.479 39.166 117.479 39.376C117.479 39.666 117.425 39.8661 117.316 39.9761C117.244 40.0861 117.062 40.1761 116.772 40.2461H109.259C109.041 40.1761 108.878 40.0861 108.769 39.9761C108.66 39.8361 108.606 39.656 108.606 39.436C108.606 39.176 108.697 38.996 108.878 38.886C109.06 38.746 109.332 38.5961 109.695 38.4561C110.021 38.3061 110.293 38.106 110.511 37.856C110.729 37.606 110.838 37.116 110.838 36.386V19.126C110.838 17.746 110.62 16.7161 110.185 16.0261C109.749 15.3361 109.187 14.6862 108.497 14.0662H107.789C107.063 13.9562 106.446 13.906 105.938 13.906C105.43 13.866 104.831 13.9162 104.142 14.0662H103.108C102.527 14.6462 102.019 15.2961 101.583 16.0261C101.148 16.7161 100.93 17.676 100.93 18.906V36.386ZM10.997 37.7961C10.997 37.0361 11.214 36.2962 11.65 35.5662C12.376 35.1362 13.102 34.916 13.828 34.916C14.59 34.916 15.334 35.0961 16.06 35.4561C16.495 36.2261 16.713 36.9861 16.713 37.7461C16.713 38.4761 16.513 39.196 16.114 39.926C15.388 40.326 14.644 40.5261 13.882 40.5261C13.12 40.5561 12.376 40.3761 11.65 39.9761C11.251 39.2561 11.033 38.5261 10.997 37.7961Z" fill="black"/>
</svg>
