<svg width="137" height="41" viewBox="0 0 137 41" fill="none" xmlns="http://www.w3.org/2000/svg">
<path fill-rule="evenodd" clip-rule="evenodd" d="M4.355 14.446L2.994 16.2461C2.051 15.5861 1.307 14.7761 0.762 13.7961C0.254 12.8161 0 11.686 0 10.416C0.29 9.36601 0.78 8.47609 1.47 7.74609C2.159 6.98609 3.121 6.33613 4.355 5.78613V4.37597L6.642 3.33593C7.077 3.12593 7.458 2.94614 7.785 2.79614C8.111 2.61614 8.42 2.46595 8.71 2.35595V0.99609C9.4 0.81609 9.999 0.785992 10.507 0.895992C11.015 0.995992 11.505 1.23594 11.977 1.59594C12.158 2.25594 12.176 2.81613 12.031 3.28613C11.886 3.75613 11.596 4.26615 11.16 4.80615L8.71 5.29614V6.71606C7.948 6.89606 7.168 7.15607 6.369 7.47607C5.571 7.76607 4.9 7.98598 4.355 8.13598V8.56616C3.92 9.00616 3.52 9.45602 3.157 9.92602C2.831 10.396 2.668 11.0161 2.668 11.7761C2.668 12.5361 2.831 13.1359 3.157 13.5759C3.52 14.0059 3.92 14.306 4.355 14.446ZM4.355 14.446C5.408 14.556 6.46 14.446 7.513 14.116C8.565 13.756 9.908 13.266 11.541 12.646L13.065 12.106L13.12 16.676C11.269 17.256 9.708 17.6359 8.438 17.8259C7.168 18.0059 5.807 17.926 4.355 17.606V14.446ZM20.632 22.7761C20.415 22.9561 20.197 23.1161 19.979 23.2661C19.761 23.3761 19.526 23.516 19.271 23.696C17.783 24.716 16.658 25.5561 15.896 26.2061C15.134 26.8561 14.753 27.6161 14.753 28.4961V31.106C14.535 31.326 14.281 31.4661 13.991 31.5361C13.737 31.6161 13.465 31.6161 13.174 31.5361C12.92 31.4361 12.684 31.286 12.467 31.106V28.656C12.467 27.416 12.666 26.426 13.065 25.656C13.465 24.896 13.991 24.066 14.644 23.156L14.862 22.7761H16.277C16.604 22.3061 16.985 21.8861 17.421 21.5261C17.892 21.1561 18.382 20.7461 18.89 20.2761C19.253 19.9461 19.634 19.656 20.034 19.396C20.433 19.146 20.85 18.816 21.286 18.416H22.647C23.264 17.656 23.735 16.986 24.062 16.406C24.425 15.826 24.606 15.0462 24.606 14.0662H26.131V12.7061H25.151C24.969 12.2361 24.643 11.8562 24.171 11.5662C23.699 11.2362 23.118 11.0759 22.429 11.0759C21.703 11.0759 20.923 11.1961 20.088 11.4561C19.29 11.7061 18.4 12.036 17.421 12.436V13.7961L13.12 15.2661L13.065 10.686C13.573 10.586 14.209 10.396 14.971 10.146C15.733 9.89599 16.549 9.65603 17.421 9.43603V8.07592C18.945 7.74592 20.415 7.60599 21.83 7.64599C23.246 7.64599 24.679 8.14601 26.131 9.16601V10.7961L27.492 10.5859C27.746 11.1259 27.964 11.6861 28.145 12.2661C28.363 12.8161 28.508 13.4162 28.581 14.0662H27.22C27.328 14.8262 27.365 15.5561 27.328 16.2461C27.328 16.9361 27.22 17.656 27.002 18.416H25.586C25.332 19.296 24.879 20.0561 24.225 20.7061C23.608 21.3561 22.883 22.0461 22.048 22.7761H20.632ZM39.196 37.3061L37.835 39.0561C36.674 38.5461 35.73 38.096 35.004 37.696C34.315 37.296 33.97 36.7461 33.97 36.0561L33.916 32.9561L33.807 28.4961C34.024 28.2361 34.26 28.056 34.514 27.946C34.768 27.836 35.041 27.816 35.331 27.896C35.621 27.966 35.912 28.1059 36.202 28.3259L36.365 29.196C36.656 31.016 37.019 32.5559 37.454 33.8259C37.89 35.0559 38.47 36.2261 39.196 37.3061ZM39.196 3.77612V1.16601C40.902 0.766012 42.462 0.596022 43.878 0.676022C45.33 0.706022 46.672 0.81609 47.906 0.99609V2.35595C48.741 2.57595 49.394 2.79611 49.866 3.01611C50.338 3.19611 50.737 3.44612 51.064 3.77612L51.173 7.96606C51.209 9.34606 51.227 10.7761 51.227 12.2661C51.009 12.4861 50.755 12.6461 50.465 12.7561C50.211 12.8661 49.939 12.8862 49.648 12.8162C49.358 12.7362 49.068 12.596 48.777 12.376C48.596 11.326 48.433 10.486 48.287 9.87597C48.142 9.25597 48.015 8.58595 47.906 7.85595V6.66601C47.035 5.42601 46.128 4.51603 45.184 3.93603C44.277 3.35603 43.315 3.06616 42.299 3.06616C41.319 3.06616 40.285 3.30612 39.196 3.77612ZM48.07 35.8359C48.723 33.2259 48.741 30.906 48.124 28.876C47.543 26.806 46.636 24.7761 45.402 22.7761H43.987C43.696 22.3361 43.388 21.956 43.061 21.636C42.735 21.266 42.372 20.866 41.972 20.436C41.718 20.106 41.428 19.7961 41.102 19.5061C40.811 19.1861 40.521 18.816 40.23 18.416H38.815C38.126 17.516 37.563 16.746 37.127 16.136C36.728 15.476 36.42 14.7962 36.202 14.0662H34.786C34.46 13.1962 34.188 12.0861 33.97 10.7461C33.789 9.36609 33.952 7.94609 34.46 6.49609C34.968 5.04609 36.093 3.73592 37.835 2.57592L39.196 3.77612C38.507 4.75612 38.053 5.80603 37.835 6.93603C37.617 8.05603 37.672 9.21601 37.998 10.416C38.361 11.616 38.978 12.8362 39.849 14.0662H41.265C41.664 14.7562 42.19 15.466 42.844 16.186C43.497 16.876 44.132 17.626 44.749 18.416H46.164C46.672 19.186 47.162 19.8761 47.634 20.4861C48.142 21.1061 48.632 21.8661 49.104 22.7761H50.465C51.445 24.8461 52.062 26.9361 52.316 29.0361C52.606 31.1361 52.298 33.4059 51.39 35.8359H48.07ZM39.196 37.3061C40.285 37.7861 41.356 38.0359 42.408 38.0759C43.461 38.1059 44.459 37.9459 45.402 37.5859C46.346 37.1859 47.235 36.6059 48.07 35.8359L50.03 37.2061C48.542 38.5461 46.908 39.4861 45.13 40.0361C43.388 40.5361 41.41 40.666 39.196 40.416V37.3061ZM61.298 35.8359C62.024 36.3159 62.786 36.6961 63.585 36.9861C64.383 37.2761 65.236 37.3461 66.143 37.2061C67.087 37.0161 68.067 36.5659 69.083 35.8359L70.444 37.2061C69.392 38.6561 68.14 39.656 66.688 40.196C65.272 40.736 63.803 40.736 62.278 40.196C60.79 39.686 59.447 38.6861 58.25 37.2061L61.298 35.8359ZM62.442 14.0662C61.607 15.8062 60.935 17.8561 60.427 20.2161C59.956 22.5761 59.774 25.1159 59.883 27.8359C60.028 30.5259 60.5 33.1959 61.298 35.8359H56.889C55.945 32.7559 55.492 29.9061 55.528 27.2961C55.564 24.6761 55.945 22.286 56.671 20.106C57.397 17.926 58.286 15.9162 59.339 14.0662H62.442ZM69.083 35.8359C69.301 35.3359 69.482 34.846 69.628 34.376C69.773 33.866 69.9 33.3559 70.009 32.8459L70.172 32.2461C70.499 32.0661 70.789 31.9761 71.043 31.9761C71.333 31.9361 71.569 31.996 71.751 32.136C71.968 32.286 72.168 32.446 72.35 32.626C72.313 33.206 72.241 33.7361 72.132 34.2061C72.059 34.6761 71.95 35.2259 71.805 35.8359H69.083ZM62.442 14.0662L60.7 12.7061C62.006 12.1961 63.131 11.856 64.075 11.666C65.018 11.486 66.071 11.396 67.232 11.396C67.994 11.686 68.575 12.036 68.974 12.436C69.41 12.836 69.718 13.3762 69.9 14.0662H71.315C71.606 14.9362 71.787 15.8461 71.86 16.7861C71.968 17.6961 72.023 18.726 72.023 19.886V20.2161C71.769 20.3961 71.533 20.546 71.315 20.656C71.097 20.766 70.843 20.7961 70.553 20.7661C70.263 20.6861 69.954 20.5459 69.628 20.3259L69.519 19.886C69.482 19.746 69.446 19.5659 69.41 19.3459C69.119 18.0759 68.811 17.0461 68.484 16.2461C68.194 15.4061 67.813 14.6862 67.341 14.0662H66.252C65.49 13.8162 64.819 13.7061 64.238 13.7361C63.657 13.7761 63.059 13.8862 62.442 14.0662ZM89.77 35.8359C89.988 35.2259 90.206 34.5161 90.423 33.7161C90.677 32.9161 90.859 32.156 90.968 31.436C91.258 31.246 91.53 31.136 91.784 31.106C92.038 31.066 92.292 31.1261 92.546 31.2661C92.8 31.3761 93.018 31.5261 93.2 31.7061C93.127 32.4261 93.018 33.1359 92.873 33.8259C92.728 34.5159 92.583 35.1859 92.438 35.8359H89.77ZM81.441 35.8359C82.167 36.3159 82.983 36.6961 83.891 36.9861C84.798 37.2761 85.742 37.3461 86.721 37.2061C87.701 37.0161 88.718 36.5659 89.77 35.8359L91.077 37.2061C90.06 38.6861 88.79 39.686 87.266 40.196C85.742 40.706 84.181 40.686 82.584 40.146C81.023 39.596 79.662 38.6161 78.501 37.2061L81.441 35.8359ZM82.53 14.0662C81.622 15.7762 80.896 17.8261 80.352 20.2161C80.184 20.9461 80.049 21.6861 79.946 22.4561C80.084 22.7161 80.237 22.926 80.406 23.106C80.624 23.246 80.951 23.336 81.386 23.376C82.003 23.406 82.729 23.426 83.564 23.426H86.123C86.885 23.426 87.447 23.3761 87.81 23.2661C88.173 23.1561 88.536 22.9961 88.899 22.7761C89.008 22.3761 89.08 21.996 89.117 21.636C89.153 21.266 89.171 20.866 89.171 20.436V20.166C89.171 18.816 89.044 17.656 88.79 16.676C88.572 15.666 88.246 14.7962 87.81 14.0662H86.667C85.869 13.7762 85.143 13.6661 84.489 13.7361C83.836 13.7761 83.183 13.8862 82.53 14.0662L80.406 12.7061C81.677 12.1561 82.747 11.816 83.618 11.666C84.489 11.486 85.487 11.396 86.613 11.396C87.23 11.726 87.846 12.0861 88.463 12.4861C89.08 12.8461 89.589 13.3762 89.988 14.0662H91.349C92.075 15.4462 92.583 16.806 92.873 18.146C93.163 19.456 93.29 20.9961 93.254 22.7761C93.254 23.5761 93.2 24.206 93.091 24.676C92.982 25.116 92.746 25.4761 92.383 25.7661C91.657 25.8061 90.768 25.8259 89.716 25.8259C88.699 25.7859 87.465 25.7661 86.014 25.7661H82.257C81.495 25.7661 80.969 25.9361 80.679 26.2561C80.388 26.5861 80.08 26.966 79.753 27.406C79.743 27.336 79.734 27.266 79.725 27.196C79.732 27.406 79.742 27.6259 79.753 27.8359C79.898 30.5259 80.461 33.1959 81.441 35.8359H77.14C76.16 32.8259 75.652 30.016 75.616 27.406C75.58 24.786 75.888 22.376 76.541 20.166C77.195 17.946 78.029 15.9162 79.046 14.0662H82.53ZM132.777 35.8359C133.031 35.2259 133.267 34.5161 133.484 33.7161C133.739 32.9161 133.92 32.156 134.029 31.436C134.283 31.246 134.537 31.136 134.791 31.106C135.081 31.066 135.335 31.1261 135.553 31.2661C135.807 31.3761 136.043 31.5261 136.261 31.7061C136.188 32.4261 136.079 33.1359 135.934 33.8259C135.789 34.5159 135.626 35.1859 135.444 35.8359H132.777ZM124.502 35.8359C125.228 36.3159 126.026 36.6961 126.897 36.9861C127.805 37.2761 128.748 37.3461 129.728 37.2061C130.744 37.0161 131.761 36.5659 132.777 35.8359L134.083 37.2061C133.067 38.6861 131.797 39.686 130.273 40.196C128.785 40.706 127.242 40.686 125.645 40.146C124.085 39.596 122.724 38.6161 121.562 37.2061L124.502 35.8359ZM125.536 14.0662C124.665 15.7762 123.958 17.8261 123.413 20.2161C123.245 20.9461 123.108 21.6961 123.002 22.4561C123.11 22.7161 123.265 22.926 123.468 23.106C123.685 23.246 124.012 23.336 124.448 23.376C125.065 23.406 125.772 23.426 126.571 23.426H129.129C129.892 23.426 130.454 23.3761 130.817 23.2661C131.216 23.1561 131.579 22.9961 131.906 22.7761C132.051 22.3761 132.124 21.996 132.124 21.636C132.16 21.266 132.178 20.866 132.178 20.436V20.166C132.178 18.816 132.069 17.656 131.851 16.676C131.634 15.666 131.289 14.7962 130.817 14.0662H129.728C128.93 13.7762 128.204 13.6661 127.551 13.7361C126.897 13.7761 126.226 13.8862 125.536 14.0662L123.468 12.7061C124.702 12.1561 125.754 11.816 126.625 11.666C127.496 11.486 128.512 11.396 129.674 11.396C130.291 11.726 130.89 12.0861 131.47 12.4861C132.087 12.8461 132.595 13.3762 132.995 14.0662H134.41C135.1 15.4462 135.589 16.806 135.88 18.146C136.206 19.456 136.333 20.9961 136.261 22.7761C136.261 23.5761 136.206 24.206 136.098 24.676C135.989 25.116 135.771 25.4761 135.444 25.7661C134.682 25.8061 133.793 25.8259 132.777 25.8259C131.761 25.7859 130.508 25.7661 129.02 25.7661H125.264C124.502 25.7661 123.976 25.9361 123.685 26.2561C123.395 26.5861 123.087 26.966 122.76 27.406C122.753 27.306 122.746 27.206 122.739 27.106C122.743 27.346 122.75 27.5859 122.76 27.8359C122.905 30.5259 123.486 33.1959 124.502 35.8359H120.147C119.167 32.8259 118.659 30.016 118.623 27.406C118.623 24.786 118.949 22.376 119.603 20.166C120.256 17.946 121.072 15.9162 122.052 14.0662H125.536ZM100.876 36.386C100.876 37.146 101.003 37.656 101.257 37.906C101.547 38.126 101.964 38.286 102.509 38.396C102.545 38.436 102.581 38.4761 102.618 38.5061H102.726C103.126 38.6561 103.38 38.776 103.489 38.886C103.634 38.996 103.706 39.176 103.706 39.436C103.706 39.686 103.652 39.8661 103.543 39.9761C103.434 40.0461 103.271 40.1461 103.053 40.2461H95.323C95.032 40.1761 94.833 40.0861 94.724 39.9761C94.615 39.8661 94.561 39.666 94.561 39.376C94.561 39.196 94.633 39.056 94.778 38.946C94.924 38.836 95.196 38.7062 95.595 38.5662C95.668 38.5262 95.758 38.4861 95.867 38.4561C95.976 38.3861 96.085 38.3261 96.194 38.2861C96.484 38.0761 96.666 37.8359 96.738 37.5859C96.811 37.2959 96.847 36.896 96.847 36.386V20.656C96.847 19.346 97.01 18.2061 97.337 17.2261C97.7 16.2061 98.262 15.1562 99.025 14.0662H100.386C100.64 13.5562 100.984 13.1261 101.42 12.7561C101.892 12.3561 102.364 11.9461 102.835 11.5061C103.96 11.4361 104.94 11.396 105.775 11.396C106.61 11.396 107.59 11.4562 108.715 11.5662C109.223 11.9962 109.64 12.3761 109.967 12.7061C110.33 12.9961 110.747 13.4462 111.219 14.0662H112.58C113.378 15.1162 113.959 16.0961 114.322 17.0061C114.685 17.9161 114.866 18.9861 114.866 20.2161V36.386C114.866 36.856 114.903 37.2361 114.975 37.5261C115.084 37.8161 115.284 38.0761 115.574 38.2861C115.719 38.3661 115.846 38.4161 115.955 38.4561C116.064 38.4861 116.191 38.5262 116.336 38.5662C116.699 38.6762 116.971 38.776 117.153 38.886C117.371 38.996 117.479 39.176 117.479 39.436C117.479 39.726 117.425 39.9261 117.316 40.0361C117.244 40.1061 117.044 40.1761 116.717 40.2461H109.205C108.987 40.1761 108.805 40.0861 108.66 39.9761C108.551 39.8661 108.497 39.686 108.497 39.436C108.497 39.176 108.588 38.996 108.769 38.886C108.987 38.746 109.277 38.5961 109.64 38.4561C109.967 38.3061 110.239 38.126 110.457 37.906C110.711 37.656 110.82 37.146 110.783 36.386V19.126C110.783 17.746 110.566 16.7161 110.13 16.0261C109.695 15.2961 109.114 14.6462 108.388 14.0662H107.735C107.009 13.9562 106.392 13.906 105.884 13.906C105.376 13.866 104.777 13.9162 104.087 14.0662H103.053C102.472 14.6462 101.964 15.2961 101.529 16.0261C101.093 16.7161 100.876 17.676 100.876 18.906V36.386ZM10.997 37.7461C10.997 36.9861 11.196 36.2562 11.596 35.5662C12.358 35.1362 13.102 34.916 13.828 34.916C14.59 34.876 15.334 35.0561 16.06 35.4561C16.459 36.1861 16.658 36.926 16.658 37.696C16.695 38.456 16.495 39.196 16.06 39.926C15.334 40.326 14.59 40.5261 13.828 40.5261C13.102 40.5561 12.376 40.3761 11.65 39.9761C11.251 39.2561 11.033 38.5061 10.997 37.7461Z" fill="black"/>
</svg>
