<svg width="137" height="41" viewBox="0 0 137 41" fill="none" xmlns="http://www.w3.org/2000/svg">
<path fill-rule="evenodd" clip-rule="evenodd" d="M4.355 14.4961L2.994 16.2461C2.051 15.5861 1.307 14.7762 0.762 13.7962C0.254 12.8162 0 11.6861 0 10.4161C0.29 9.32605 0.762 8.42608 1.415 7.69608C2.105 6.93608 3.085 6.27612 4.355 5.73612V4.37601L6.642 3.33597C7.077 3.08597 7.458 2.88613 7.785 2.74613C8.111 2.55613 8.42 2.43599 8.71 2.35599V0.99613C9.364 0.81613 9.944 0.786032 10.452 0.896032C10.997 0.996032 11.505 1.23598 11.977 1.59598C12.158 2.25598 12.158 2.81617 11.977 3.28617C11.831 3.75617 11.541 4.26619 11.106 4.80619L8.71 5.29618V6.66605C7.984 6.87605 7.204 7.15611 6.369 7.47611C5.571 7.76611 4.9 7.98602 4.355 8.13602V8.5662C3.92 9.0062 3.52 9.45606 3.157 9.92606C2.795 10.3961 2.613 10.9961 2.613 11.7261C2.613 12.5261 2.795 13.136 3.157 13.576C3.52 14.006 3.92 14.3161 4.355 14.4961ZM4.355 14.4961C5.408 14.5761 6.46 14.446 7.513 14.116C8.565 13.756 9.908 13.266 11.541 12.646L13.065 12.0562L13.12 16.6761C11.269 17.2261 9.69 17.606 8.384 17.826C7.113 18.006 5.771 17.926 4.355 17.606V14.4961ZM20.687 22.7762C20.469 22.9562 20.233 23.1161 19.979 23.2661C19.761 23.3761 19.544 23.5161 19.326 23.6961C17.802 24.7161 16.64 25.5661 15.842 26.2561C15.08 26.9161 14.698 27.6561 14.698 28.4961V31.106C14.481 31.326 14.245 31.4662 13.991 31.5362C13.737 31.6162 13.465 31.6162 13.174 31.5362C12.92 31.4362 12.684 31.2662 12.467 31.0462V28.656C12.467 27.416 12.666 26.426 13.065 25.656C13.465 24.896 13.991 24.066 14.644 23.156L14.916 22.7762H16.277C16.604 22.3062 16.985 21.8862 17.421 21.5262C17.892 21.1562 18.4 20.7462 18.945 20.2762C19.271 19.9762 19.634 19.7061 20.034 19.4561C20.469 19.1661 20.905 18.8161 21.34 18.4161H22.701C23.318 17.6561 23.79 16.986 24.116 16.406C24.479 15.826 24.661 15.0462 24.661 14.0662H26.131V12.7061H25.151C24.969 12.2361 24.643 11.8562 24.171 11.5662C23.735 11.2362 23.173 11.076 22.483 11.076C21.721 11.076 20.923 11.1961 20.088 11.4561C19.29 11.7061 18.4 12.0361 17.421 12.4361V13.7962L13.12 15.3162L13.065 10.7461C13.573 10.5961 14.209 10.396 14.971 10.146C15.733 9.89603 16.549 9.65607 17.421 9.43607V8.07596C18.945 7.74596 20.415 7.60603 21.83 7.64603C23.246 7.67603 24.679 8.2061 26.131 9.2161V10.7962L27.492 10.586C27.709 11.126 27.909 11.6861 28.09 12.2661C28.308 12.8161 28.472 13.4162 28.581 14.0662H27.22C27.365 14.8262 27.419 15.5561 27.383 16.2461C27.347 16.9361 27.22 17.6561 27.002 18.4161H25.641C25.387 19.2961 24.933 20.0561 24.28 20.7061C23.627 21.3561 22.883 22.0462 22.048 22.7762H20.687ZM39.196 37.366L37.835 39.0562C36.71 38.5762 35.785 38.1461 35.059 37.7461C34.333 37.3461 33.97 36.806 33.97 36.116L33.916 32.9561L33.807 28.4961C34.024 28.2761 34.26 28.1061 34.514 28.0061C34.768 27.8561 35.022 27.8361 35.277 27.9461C35.567 28.0161 35.857 28.166 36.148 28.386L36.311 29.2561C36.638 31.0361 37 32.556 37.4 33.826C37.835 35.056 38.434 36.236 39.196 37.366ZM39.196 3.72611V1.16605C40.902 0.766052 42.462 0.586003 43.878 0.616003C45.33 0.656003 46.672 0.78613 47.906 0.99613V2.35599C48.741 2.54599 49.394 2.74609 49.866 2.95609C50.338 3.14609 50.737 3.39611 51.064 3.72611L51.173 7.9661C51.209 9.3461 51.227 10.7761 51.227 12.2661C50.973 12.4861 50.719 12.6461 50.465 12.7561C50.211 12.8661 49.939 12.8862 49.648 12.8162C49.358 12.7062 49.086 12.536 48.832 12.326C48.614 11.266 48.433 10.4362 48.287 9.8162C48.142 9.2062 48.015 8.54599 47.906 7.85599V6.66605C47.072 5.42605 46.182 4.51607 45.239 3.93607C44.332 3.35607 43.37 3.0662 42.354 3.0662C41.337 3.0662 40.285 3.28611 39.196 3.72611ZM48.07 35.836C48.723 33.226 48.741 30.906 48.124 28.876C47.543 26.806 46.618 24.7762 45.348 22.7762H43.987C43.696 22.3362 43.37 21.956 43.007 21.636C42.68 21.266 42.335 20.8661 41.972 20.4361C41.682 20.1061 41.374 19.7961 41.047 19.5061C40.757 19.1861 40.466 18.8161 40.176 18.4161H38.815C38.126 17.5161 37.563 16.746 37.127 16.136C36.692 15.476 36.365 14.7962 36.148 14.0662H34.786C34.46 13.2262 34.188 12.1261 33.97 10.7461C33.789 9.36613 33.952 7.94613 34.46 6.49613C34.968 5.04613 36.093 3.72616 37.835 2.52616L39.196 3.72611C38.507 4.70611 38.053 5.75601 37.835 6.87601C37.617 8.00601 37.672 9.18605 37.998 10.4161C38.361 11.6161 38.978 12.8362 39.849 14.0662H41.21C41.61 14.7162 42.136 15.4261 42.789 16.1861C43.479 16.9161 44.15 17.6561 44.803 18.4161H46.164C46.672 19.1461 47.162 19.8361 47.634 20.4861C48.142 21.1061 48.632 21.8662 49.104 22.7762H50.465C51.445 24.8462 52.062 26.9362 52.316 29.0362C52.606 31.1362 52.298 33.406 51.39 35.836H48.07ZM39.196 37.366C40.285 37.796 41.356 38.056 42.408 38.126C43.461 38.166 44.459 37.986 45.402 37.586C46.382 37.186 47.271 36.606 48.07 35.836L50.03 37.2061C48.578 38.5461 46.963 39.4862 45.184 40.0362C43.406 40.5362 41.41 40.666 39.196 40.416V37.366ZM62.442 14.0662C61.607 15.7762 60.935 17.8261 60.427 20.2161C59.919 22.5761 59.72 25.116 59.829 27.836C59.974 30.526 60.464 33.196 61.298 35.836H56.889C55.945 32.756 55.492 29.9062 55.528 27.2962C55.564 24.6462 55.945 22.2362 56.671 20.0562C57.397 17.8762 58.286 15.8762 59.339 14.0662H62.442ZM62.442 14.0662L60.7 12.7061C61.97 12.1961 63.077 11.8561 64.02 11.6661C65 11.4861 66.053 11.396 67.178 11.396C67.976 11.686 68.575 12.0361 68.974 12.4361C69.41 12.8361 69.718 13.3762 69.9 14.0662H71.261C71.587 14.9362 71.787 15.8462 71.86 16.7862C71.932 17.6962 71.968 18.726 71.968 19.886V20.2161C71.751 20.4361 71.515 20.5961 71.261 20.7061C71.043 20.8161 70.789 20.8361 70.499 20.7661C70.245 20.6861 69.954 20.546 69.628 20.326C69.591 20.216 69.555 20.0861 69.519 19.9461C69.482 19.7661 69.446 19.566 69.41 19.346C69.119 18.116 68.811 17.0761 68.484 16.2461C68.194 15.3761 67.795 14.6462 67.287 14.0662H66.252C65.49 13.7762 64.819 13.6661 64.238 13.7361C63.657 13.7761 63.059 13.8862 62.442 14.0662ZM69.083 35.836C69.265 35.336 69.428 34.846 69.573 34.376C69.754 33.866 69.9 33.356 70.009 32.846L70.172 32.3062C70.499 32.0862 70.789 31.9761 71.043 31.9761C71.297 31.9361 71.533 31.996 71.751 32.136C71.968 32.286 72.168 32.446 72.35 32.626C72.313 33.206 72.241 33.7361 72.132 34.2061C72.059 34.6761 71.95 35.226 71.805 35.836H69.083ZM61.298 35.836C62.024 36.316 62.786 36.6961 63.585 36.9861C64.383 37.2761 65.236 37.3461 66.143 37.2061C67.087 37.0561 68.067 36.606 69.083 35.836L70.444 37.2061C69.428 38.6561 68.194 39.6561 66.742 40.1961C65.29 40.7361 63.803 40.7361 62.278 40.1961C60.79 39.6861 59.447 38.6861 58.25 37.2061L61.298 35.836ZM81.441 35.836C82.167 36.316 82.965 36.6961 83.836 36.9861C84.743 37.2761 85.687 37.3461 86.667 37.2061C87.683 37.0561 88.699 36.606 89.716 35.836L91.022 37.2061C90.042 38.6561 88.79 39.6561 87.266 40.1961C85.742 40.7061 84.181 40.686 82.584 40.146C80.987 39.556 79.608 38.5761 78.447 37.2061L81.441 35.836ZM82.53 14.0662C81.622 15.7362 80.896 17.7661 80.352 20.1661C80.18 20.9261 80.04 21.6961 79.933 22.4861C80.06 22.7461 80.199 22.946 80.352 23.106C80.57 23.246 80.896 23.336 81.332 23.376C81.949 23.406 82.675 23.4261 83.51 23.4261H86.068C86.83 23.4261 87.393 23.3761 87.756 23.2661C88.155 23.1561 88.518 22.9962 88.845 22.7762C88.99 22.4162 89.062 22.0461 89.062 21.6861C89.099 21.2861 89.117 20.8661 89.117 20.4361V20.1661C89.117 18.8161 89.008 17.6561 88.79 16.6761C88.572 15.6661 88.228 14.7962 87.756 14.0662H86.667C85.869 13.7762 85.143 13.6461 84.489 13.6861C83.836 13.7161 83.183 13.8462 82.53 14.0662L80.352 12.7061C81.622 12.1561 82.693 11.8161 83.564 11.6661C84.435 11.5261 85.433 11.4561 86.558 11.4561C87.175 11.7461 87.792 12.0861 88.409 12.4861C89.026 12.8861 89.534 13.4162 89.933 14.0662H91.294C92.02 15.4462 92.528 16.806 92.819 18.146C93.145 19.456 93.272 20.9962 93.2 22.7762C93.2 23.5762 93.145 24.2061 93.036 24.6761C92.927 25.1161 92.692 25.4761 92.329 25.7661C91.603 25.8061 90.714 25.826 89.661 25.826C88.645 25.786 87.393 25.7661 85.905 25.7661H82.149C81.423 25.7661 80.915 25.9361 80.624 26.2561C80.334 26.5461 80.025 26.9461 79.699 27.4561C79.692 27.3661 79.685 27.2661 79.679 27.1761C79.683 27.3961 79.69 27.616 79.699 27.836C79.844 30.556 80.425 33.226 81.441 35.836H77.086C76.106 32.826 75.598 30.016 75.561 27.406C75.525 24.756 75.834 22.326 76.487 20.106C77.176 17.896 78.029 15.8762 79.046 14.0662H82.53ZM89.716 35.836C89.97 35.226 90.206 34.5161 90.423 33.7161C90.677 32.8861 90.859 32.1161 90.968 31.4361C91.258 31.2461 91.53 31.136 91.784 31.106C92.038 31.066 92.274 31.1261 92.492 31.2661C92.746 31.3761 92.982 31.5261 93.2 31.7061C93.127 32.4261 93 33.136 92.819 33.826C92.673 34.516 92.528 35.186 92.383 35.836H89.716ZM132.777 35.836C132.995 35.226 133.23 34.5161 133.484 33.7161C133.739 32.8861 133.902 32.1161 133.974 31.4361C134.265 31.2461 134.537 31.136 134.791 31.106C135.045 31.066 135.281 31.1261 135.499 31.2661C135.753 31.3761 135.989 31.5261 136.206 31.7061C136.134 32.4261 136.025 33.136 135.88 33.826C135.735 34.516 135.571 35.186 135.39 35.836H132.777ZM124.448 35.836C125.173 36.316 125.99 36.6961 126.897 36.9861C127.805 37.2761 128.748 37.3461 129.728 37.2061C130.708 37.0561 131.724 36.606 132.777 35.836L134.083 37.2061C133.067 38.6561 131.797 39.6561 130.273 40.1961C128.748 40.7061 127.188 40.686 125.591 40.146C123.994 39.556 122.633 38.5761 121.508 37.2061L124.448 35.836ZM125.536 14.0662C124.629 15.7362 123.903 17.7661 123.359 20.1661C123.192 20.8961 123.056 21.6461 122.95 22.4161C123.058 22.7061 123.213 22.936 123.413 23.106C123.631 23.246 123.958 23.336 124.393 23.376C125.01 23.406 125.718 23.4261 126.516 23.4261H129.075C129.837 23.4261 130.4 23.3761 130.763 23.2661C131.162 23.1561 131.543 22.9962 131.906 22.7762C132.015 22.4162 132.069 22.0461 132.069 21.6861C132.105 21.2861 132.124 20.8661 132.124 20.4361V20.1661C132.124 18.8161 132.015 17.6561 131.797 16.6761C131.579 15.6661 131.234 14.7962 130.763 14.0662H129.674C128.875 13.7762 128.149 13.6461 127.496 13.6861C126.843 13.7161 126.19 13.8462 125.536 14.0662L123.413 12.7061C124.647 12.1561 125.7 11.8161 126.571 11.6661C127.442 11.5261 128.44 11.4561 129.565 11.4561C130.218 11.7461 130.853 12.0861 131.47 12.4861C132.087 12.8861 132.595 13.4162 132.995 14.0662H134.301C135.027 15.4462 135.535 16.806 135.825 18.146C136.152 19.456 136.297 20.9962 136.261 22.7762C136.261 23.5762 136.188 24.2061 136.043 24.6761C135.934 25.1161 135.716 25.4761 135.39 25.7661C134.628 25.8061 133.739 25.826 132.722 25.826C131.706 25.786 130.454 25.7661 128.966 25.7661H125.21C124.448 25.7661 123.921 25.9361 123.631 26.2561C123.341 26.5461 123.032 26.9461 122.706 27.4561C122.699 27.3661 122.693 27.2761 122.686 27.1861C122.691 27.3961 122.697 27.616 122.706 27.836C122.851 30.556 123.431 33.226 124.448 35.836H120.147C119.131 32.826 118.604 30.016 118.568 27.406C118.568 24.756 118.895 22.326 119.548 20.106C120.201 17.896 121.036 15.8762 122.052 14.0662H125.536ZM100.821 36.386C100.821 37.146 100.948 37.656 101.202 37.906C101.492 38.126 101.91 38.3061 102.454 38.4561C102.491 38.4861 102.527 38.5061 102.563 38.5061H102.726C103.089 38.6561 103.343 38.776 103.489 38.886C103.634 38.996 103.706 39.1761 103.706 39.4361C103.706 39.6861 103.652 39.8661 103.543 39.9761C103.434 40.0861 103.253 40.1761 102.999 40.2461H95.214C94.96 40.1761 94.778 40.0861 94.67 39.9761C94.561 39.8661 94.506 39.666 94.506 39.376C94.506 39.196 94.579 39.0561 94.724 38.9461C94.869 38.8361 95.123 38.7062 95.486 38.5662C95.595 38.5262 95.704 38.4861 95.813 38.4561C95.922 38.3861 96.03 38.3262 96.139 38.2862C96.43 38.0762 96.611 37.836 96.684 37.586C96.756 37.296 96.793 36.896 96.793 36.386V20.656C96.793 19.346 96.956 18.2061 97.283 17.2261C97.646 16.2061 98.226 15.1562 99.025 14.0662H100.331C100.585 13.5562 100.948 13.1261 101.42 12.7561C101.892 12.3561 102.364 11.9562 102.835 11.5662C103.924 11.4562 104.886 11.396 105.721 11.396C106.555 11.396 107.535 11.466 108.66 11.616C109.132 12.016 109.549 12.3761 109.912 12.7061C110.312 12.9961 110.729 13.4462 111.164 14.0662H112.525C113.324 15.0862 113.905 16.0661 114.268 17.0061C114.63 17.9161 114.812 19.0062 114.812 20.2762L114.866 36.386C114.866 36.856 114.903 37.2362 114.975 37.5262C115.048 37.8162 115.247 38.0762 115.574 38.2862C115.683 38.3662 115.792 38.4161 115.901 38.4561C116.046 38.4861 116.173 38.5262 116.282 38.5662C116.681 38.6762 116.971 38.776 117.153 38.886C117.371 38.996 117.479 39.1761 117.479 39.4361C117.479 39.7261 117.425 39.9262 117.316 40.0362C117.207 40.1062 117.008 40.1761 116.717 40.2461H109.15C108.896 40.1761 108.715 40.0861 108.606 39.9761C108.497 39.8661 108.443 39.6861 108.443 39.4361C108.443 39.1761 108.533 38.996 108.715 38.886C108.932 38.746 109.223 38.6161 109.586 38.5061C109.912 38.3661 110.185 38.166 110.402 37.906C110.656 37.656 110.765 37.146 110.729 36.386V19.126C110.729 17.746 110.493 16.7162 110.021 16.0262C109.586 15.2962 109.023 14.6462 108.334 14.0662H107.68C106.955 13.9562 106.338 13.906 105.829 13.906C105.321 13.866 104.723 13.9162 104.033 14.0662H103.053C102.436 14.6462 101.91 15.2962 101.474 16.0262C101.039 16.7162 100.821 17.676 100.821 18.906V36.386ZM10.942 37.7461C10.942 36.9861 11.16 36.2361 11.596 35.5161C12.321 35.1161 13.065 34.916 13.828 34.916C14.59 34.876 15.316 35.0561 16.005 35.4561C16.441 36.1861 16.658 36.9261 16.658 37.6961C16.695 38.4561 16.495 39.176 16.06 39.866C15.334 40.306 14.59 40.5262 13.828 40.5262C13.102 40.5562 12.376 40.3761 11.65 39.9761C11.214 39.2561 10.979 38.5061 10.942 37.7461Z" fill="black"/>
</svg>
