<svg width="140" height="41" viewBox="0 0 140 41" fill="none" xmlns="http://www.w3.org/2000/svg">
<path fill-rule="evenodd" clip-rule="evenodd" d="M4.355 14.1198L0.327 14.2828C0.218 13.3758 0.127 12.6498 0.054 12.1048C0.018 11.5608 0 10.7808 0 9.76483C0.871 9.65583 1.561 9.56482 2.069 9.49182C2.577 9.41982 3.339 9.36483 4.355 9.32883V5.24582L6.642 5.13684H7.676C7.894 5.10084 8.238 5.06483 8.71 5.02783V0.999817H10.779C11.287 0.999817 12.013 1.01783 12.957 1.05383V3.17682C12.957 3.64882 12.92 4.35684 12.848 5.30084L8.71 5.35483V9.38382C7.803 9.41982 7.077 9.45582 6.533 9.49182C6.025 9.52882 5.299 9.54684 4.355 9.54684V10.7988C4.319 11.1978 4.283 11.4878 4.246 11.6698C4.21 11.8508 4.192 12.1418 4.192 12.5408C4.192 12.9398 4.21 13.2308 4.246 13.4118C4.283 13.5568 4.319 13.7928 4.355 14.1198ZM4.355 14.1198C5.879 14.1198 7.041 14.1018 7.839 14.0648C8.674 14.0288 9.908 13.9748 11.541 13.9018L13.065 13.8478V9.81882C13.973 9.81882 14.68 9.80083 15.189 9.76483C15.697 9.72783 16.441 9.70984 17.421 9.70984V5.62683C19.308 5.59083 20.741 5.57285 21.721 5.57285C22.737 5.57285 24.207 5.62684 26.131 5.73584V9.81882H30.159C30.196 10.6898 30.214 11.3798 30.214 11.8878C30.25 12.3958 30.268 13.1218 30.268 14.0648H26.24V18.4198H22.157C22.157 19.3638 22.12 20.0898 22.048 20.5978C21.975 21.1058 21.885 21.8318 21.776 22.7758H17.747C17.711 22.9568 17.674 23.0838 17.638 23.1568V23.5378C17.457 24.3358 17.33 24.9528 17.257 25.3888C17.185 25.7878 17.148 26.3868 17.148 27.1848V31.4308C16.459 31.4678 15.932 31.4858 15.57 31.4858H14.535C14.172 31.4858 13.664 31.4678 13.011 31.4308V28.2188C13.011 27.0938 13.029 26.2598 13.065 25.7148C13.102 25.1348 13.156 24.2998 13.229 23.2108V22.7758H17.312C17.348 22.1588 17.384 21.7048 17.421 21.4148C17.457 21.1238 17.511 20.6708 17.584 20.0538C17.62 19.7268 17.656 19.4728 17.693 19.2908C17.729 19.0738 17.765 18.7828 17.802 18.4198H21.885C21.921 17.4768 21.957 16.7688 21.993 16.2968C22.03 15.7888 22.048 15.0448 22.048 14.0648H26.131V10.0368H23.518C22.973 9.96383 22.556 9.92783 22.266 9.92783C21.975 9.89183 21.522 9.87283 20.905 9.87283C20.179 9.87283 19.616 9.89183 19.217 9.92783C18.818 9.92783 18.219 9.94584 17.421 9.98184V14.0648L13.065 14.1738V18.2568C11.142 18.2928 9.69 18.3298 8.71 18.3658C7.73 18.3658 6.279 18.3478 4.355 18.3118V14.1198ZM39.196 5.19183V0.999817C41.083 0.963817 42.535 0.944824 43.551 0.944824C44.567 0.944824 46.019 0.963817 47.906 0.999817V5.02783C48.85 5.06483 49.558 5.10084 50.03 5.13684C50.538 5.13684 51.245 5.15483 52.153 5.19183V13.9018C51.463 13.9018 50.937 13.9198 50.574 13.9558H49.539C49.177 13.9198 48.669 13.9018 48.015 13.9018C47.979 12.8488 47.943 12.0508 47.906 11.5068V5.46384C46.527 5.35484 45.457 5.28182 44.694 5.24582C43.969 5.17382 43.225 5.13684 42.462 5.13684C41.7 5.13684 40.612 5.15483 39.196 5.19183ZM39.196 36.0038L35.168 36.1678C35.022 35.2598 34.914 34.5708 34.841 34.0988C34.768 33.6268 34.732 32.9188 34.732 31.9758V27.2938C35.422 27.2578 35.93 27.2398 36.256 27.2398C36.619 27.2028 36.982 27.2028 37.345 27.2398H38.87L38.924 28.0558C38.96 29.8338 38.997 31.1768 39.033 32.0848C39.069 32.9918 39.124 34.2978 39.196 36.0038ZM47.906 35.8408L48.124 39.8688C46.237 40.0148 44.767 40.1228 43.715 40.1958C42.698 40.2318 41.192 40.2318 39.196 40.1958V36.0038C40.612 36.0398 41.7 36.0588 42.462 36.0588C43.225 36.0588 43.969 36.0398 44.694 36.0038C45.457 35.9678 46.527 35.9128 47.906 35.8408ZM38.87 14.0648H34.841C34.805 12.6858 34.768 11.5968 34.732 10.7988C34.732 9.99983 34.75 9.20184 34.786 8.40384C34.859 7.60484 34.986 6.49782 35.168 5.08282L39.196 5.19183C39.124 6.60683 39.069 7.69582 39.033 8.45782C39.033 9.21982 39.051 9.99983 39.087 10.7988C39.124 11.5608 39.178 12.6498 39.251 14.0648H43.334C43.37 14.9728 43.406 15.6978 43.442 16.2428C43.515 16.7508 43.588 17.4768 43.66 18.4198H47.743C47.779 19.3278 47.816 20.0348 47.852 20.5438C47.925 21.0518 47.979 21.7958 48.015 22.7758H52.098C52.171 25.5698 52.225 27.7288 52.262 29.2538C52.298 30.7418 52.262 32.9368 52.153 35.8408H47.906C47.979 33.0098 47.979 30.8508 47.906 29.3628C47.87 27.8378 47.779 25.6428 47.634 22.7758H43.606C43.569 22.2668 43.533 21.8858 43.497 21.6318C43.461 21.3778 43.424 20.9788 43.388 20.4348C43.352 19.9988 43.315 19.6718 43.279 19.4548C43.279 19.2368 43.261 18.8918 43.225 18.4198H39.142C39.069 17.4768 39.015 16.7508 38.978 16.2428C38.942 15.7348 38.906 15.0088 38.87 14.0648ZM69.628 35.8408V34.0988C69.664 33.6628 69.7 33.0828 69.736 32.3568V31.5398H71.261C71.624 31.5398 71.968 31.5578 72.295 31.5948H73.874C73.874 32.5378 73.856 33.2638 73.819 33.7718V35.8408H69.628ZM61.026 35.8408C62.405 35.8768 63.458 35.9128 64.184 35.9498C64.909 35.9858 65.635 36.0038 66.361 36.0038C67.123 35.9678 68.212 35.9128 69.628 35.8408L69.736 39.8688C68.357 40.0148 67.269 40.1228 66.47 40.1958C65.672 40.2688 64.855 40.2688 64.02 40.1958C63.222 40.1598 62.115 40.0508 60.7 39.8688L61.026 35.8408ZM61.135 14.0648C61.026 17.5128 60.954 20.1808 60.917 22.0678C60.881 23.9188 60.863 25.8058 60.863 27.7288C60.863 29.6168 60.917 32.3198 61.026 35.8408H56.617C56.544 32.2838 56.508 29.5618 56.508 27.6748C56.508 25.7518 56.544 23.8638 56.617 22.0128C56.689 20.1618 56.78 17.5128 56.889 14.0648H61.135ZM61.135 14.0648L60.972 10.0368C62.859 9.96383 64.274 9.92783 65.218 9.92783C66.198 9.89183 67.595 9.87283 69.41 9.87283C69.519 10.7808 69.591 11.4878 69.628 11.9968C69.664 12.4678 69.682 13.1578 69.682 14.0648H73.765C73.801 14.9728 73.819 15.6798 73.819 16.1878V18.5838C73.166 18.6198 72.658 18.6558 72.295 18.6928H71.206C70.88 18.6558 70.372 18.6378 69.682 18.6378V17.8758C69.646 17.0048 69.609 16.3518 69.573 15.9158C69.537 15.4438 69.501 14.8268 69.464 14.0648H66.252C65.091 14.0288 64.22 14.0288 63.639 14.0648H61.135ZM91.294 35.8408C91.294 34.8968 91.312 34.1708 91.349 33.6628C91.385 33.1188 91.403 32.3928 91.403 31.4858C92.093 31.4488 92.601 31.4308 92.927 31.4308C93.29 31.4308 93.653 31.4488 94.016 31.4858H95.54C95.54 32.4658 95.522 33.2098 95.486 33.7178V35.8408H91.294ZM82.638 35.8408C84.018 35.8768 85.07 35.9128 85.796 35.9498C86.522 35.9858 87.266 36.0038 88.028 36.0038C88.79 35.9678 89.879 35.9128 91.294 35.8408L91.403 39.8688C89.988 40.0508 88.881 40.1598 88.082 40.1958C87.284 40.2318 86.467 40.2318 85.633 40.1958C84.834 40.1228 83.727 40.0148 82.312 39.8688L82.638 35.8408ZM82.747 14.0648C82.638 17.5128 82.548 20.1808 82.475 22.0678C82.466 22.5518 82.457 23.0388 82.45 23.5278C82.467 23.3088 82.475 23.0398 82.475 22.7208C82.947 22.7568 83.292 22.7938 83.51 22.8298H89.933C90.224 22.8298 90.641 22.8118 91.185 22.7758C91.222 22.1588 91.24 21.6868 91.24 21.3598V19.5638C91.24 18.3298 91.222 17.4038 91.185 16.7868C91.149 16.1338 91.113 15.2268 91.077 14.0648H87.865C86.74 14.0288 85.869 14.0108 85.251 14.0108C84.671 14.0108 83.836 14.0288 82.747 14.0648L82.53 10.0368C84.417 9.96383 85.832 9.92783 86.776 9.92783C87.719 9.89183 89.117 9.87283 90.968 9.87283C91.04 10.7808 91.095 11.4878 91.131 11.9968C91.204 12.4678 91.258 13.1578 91.294 14.0648H95.377C95.45 15.9518 95.486 17.4038 95.486 18.4198C95.522 19.3998 95.54 20.8518 95.54 22.7758V24.9528C95.54 25.4248 95.522 26.0958 95.486 26.9668C94.252 27.0038 93.309 27.0218 92.655 27.0218C92.038 26.9848 91.095 26.9668 89.824 26.9668H86.885C85.869 26.9668 85.106 26.9848 84.598 27.0218C84.09 27.0578 83.365 27.1118 82.421 27.1848C82.421 27.3658 82.421 27.5468 82.421 27.7288C82.457 29.6168 82.53 32.3198 82.638 35.8408H78.283C78.174 32.2838 78.12 29.5618 78.12 27.6748C78.12 25.7518 78.138 23.8638 78.174 22.0128C78.247 20.1618 78.338 17.5128 78.447 14.0648H82.747ZM134.791 35.8408C134.791 34.8968 134.809 34.1708 134.845 33.6628C134.882 33.1188 134.9 32.3928 134.9 31.4858C135.589 31.4488 136.098 31.4308 136.424 31.4308C136.787 31.4308 137.15 31.4488 137.513 31.4858H139.037C139.037 32.4658 139.019 33.2098 138.983 33.7178V35.8408H134.791ZM126.135 35.8408C127.514 35.8768 128.567 35.9128 129.293 35.9498C130.055 35.9858 130.799 36.0038 131.525 36.0038C132.287 35.9678 133.376 35.9128 134.791 35.8408L134.9 39.8688C133.521 40.0508 132.414 40.1598 131.579 40.1958C130.781 40.2318 129.964 40.2318 129.129 40.1958C128.331 40.1228 127.224 40.0148 125.809 39.8688L126.135 35.8408ZM126.244 14.0648C126.135 17.5128 126.045 20.1808 125.972 22.0678C125.963 22.5508 125.954 23.0368 125.947 23.5258C125.964 23.3068 125.972 23.0388 125.972 22.7208C126.444 22.7568 126.788 22.7938 127.006 22.8298H133.43C133.72 22.8298 134.138 22.8118 134.682 22.7758C134.718 22.1588 134.737 21.6868 134.737 21.3598V19.5638C134.737 18.3298 134.718 17.4038 134.682 16.7868C134.646 16.1338 134.61 15.2268 134.573 14.0648H131.361C130.236 14.0288 129.365 14.0108 128.748 14.0108C128.168 14.0108 127.333 14.0288 126.244 14.0648L126.026 10.0368C127.914 9.96383 129.329 9.92783 130.273 9.92783C131.216 9.89183 132.613 9.87283 134.464 9.87283C134.537 10.7808 134.591 11.4878 134.628 11.9968C134.7 12.4678 134.755 13.1578 134.791 14.0648H138.874C138.947 15.9518 138.983 17.4038 138.983 18.4198C139.019 19.3998 139.037 20.8518 139.037 22.7758V24.9528C139.037 25.4248 139.019 26.0958 138.983 26.9668C137.749 27.0038 136.805 27.0218 136.152 27.0218C135.535 26.9848 134.591 26.9668 133.321 26.9668H130.381C129.365 26.9668 128.603 26.9848 128.095 27.0218C127.587 27.0578 126.861 27.1118 125.917 27.1848C125.917 27.3658 125.917 27.5468 125.917 27.7288C125.954 29.6168 126.026 32.3198 126.135 35.8408H121.78C121.671 32.2838 121.617 29.5618 121.617 27.6748C121.617 25.7518 121.635 23.8638 121.671 22.0128C121.744 20.1618 121.835 17.5128 121.943 14.0648H126.244ZM104.142 35.8948C104.142 36.2948 104.16 36.5848 104.196 36.7658C104.233 36.9478 104.269 37.2018 104.305 37.5278V37.6368L104.36 37.6918C104.396 37.9458 104.414 38.1448 104.414 38.2908V39.5428C104.414 39.6878 104.396 39.9058 104.36 40.1958H99.678C99.642 39.9418 99.605 39.7418 99.569 39.5968V38.4538C99.605 38.3448 99.642 38.1998 99.678 38.0178C99.714 37.9458 99.732 37.8908 99.732 37.8548V37.6368C99.769 37.2738 99.787 37.0018 99.787 36.8208C99.823 36.6028 99.841 36.2948 99.841 35.8948V19.9988C99.841 18.6928 99.859 17.7128 99.896 17.0588C99.932 16.3698 99.986 15.3718 100.059 14.0648H104.087C104.124 13.1578 104.16 12.4678 104.196 11.9968C104.269 11.5248 104.323 10.8168 104.36 9.87283H108.551C109.495 9.87283 110.892 9.89183 112.743 9.92783C112.816 10.7988 112.87 11.4698 112.907 11.9418C112.943 12.4138 112.979 13.1218 113.015 14.0648H117.098C117.171 15.3358 117.225 16.3148 117.262 17.0048C117.298 17.6578 117.316 18.6558 117.316 19.9988V36.8208C117.316 37.0018 117.334 37.2738 117.371 37.6368C117.407 37.7458 117.425 37.8188 117.425 37.8548C117.425 37.8908 117.443 37.9638 117.479 38.0728C117.516 38.2538 117.534 38.3998 117.534 38.5078C117.57 38.6168 117.588 38.7618 117.588 38.9438C117.588 39.2338 117.57 39.4518 117.534 39.5968C117.534 39.7418 117.516 39.9418 117.479 40.1958H112.798C112.798 39.9418 112.78 39.7418 112.743 39.5968V38.2908C112.78 38.1448 112.816 37.9458 112.852 37.6918C112.888 37.2928 112.907 37.0018 112.907 36.8208C112.943 36.6388 112.961 36.3308 112.961 35.8948V19.5088C112.961 18.3118 112.943 17.4038 112.907 16.7868C112.87 16.1338 112.816 15.2268 112.743 14.0648H104.36C104.323 15.0808 104.269 15.8798 104.196 16.4608C104.16 17.0048 104.142 17.8218 104.142 18.9098V35.8948ZM12.848 37.9638C12.848 37.4558 12.866 36.7298 12.902 35.7858C13.882 35.7498 14.626 35.7318 15.134 35.7318C15.642 35.7318 16.35 35.7498 17.257 35.7858C17.33 36.7658 17.366 37.5098 17.366 38.0178C17.366 38.5268 17.33 39.2338 17.257 40.1418C16.314 40.2138 15.588 40.2498 15.08 40.2498C14.572 40.2498 13.846 40.2318 12.902 40.1958C12.866 39.2158 12.848 38.4718 12.848 37.9638Z" fill="black"/>
</svg>
