<svg width="137" height="41" viewBox="0 0 137 41" fill="none" xmlns="http://www.w3.org/2000/svg">
<path fill-rule="evenodd" clip-rule="evenodd" d="M4.355 14.4961C5.408 14.5761 6.46 14.446 7.513 14.116C8.565 13.756 9.908 13.246 11.541 12.596L13.065 12.0562L13.12 16.626C11.305 17.206 9.745 17.6059 8.438 17.8259C7.132 18.0059 5.771 17.926 4.355 17.606V14.4961ZM4.355 14.4961L3.049 16.2961C2.069 15.6461 1.307 14.826 0.762 13.846C0.254 12.866 0 11.726 0 10.416C0.29 9.32602 0.762 8.406 1.415 7.646C2.105 6.876 3.085 6.22604 4.355 5.68604V4.37598L6.642 3.28614C7.077 3.06614 7.458 2.86604 7.785 2.68604C8.111 2.50604 8.42 2.37616 8.71 2.30616V0.996098C9.364 0.816098 9.944 0.786 10.452 0.896C10.997 0.996 11.505 1.23595 11.977 1.59595C12.158 2.28595 12.158 2.86594 11.977 3.33594C11.831 3.77594 11.541 4.24611 11.106 4.75611L8.71 5.29615V6.60596C7.984 6.82596 7.204 7.09603 6.369 7.42603C5.571 7.71603 4.9 7.94599 4.355 8.13599V8.51612C3.883 8.94612 3.466 9.41603 3.103 9.92603C2.776 10.396 2.613 10.9961 2.613 11.7261C2.613 12.5261 2.776 13.1359 3.103 13.5759C3.466 14.0059 3.883 14.3161 4.355 14.4961ZM20.741 22.7761C20.523 22.9561 20.288 23.1161 20.034 23.2661C19.816 23.4061 19.58 23.5761 19.326 23.7561C17.802 24.7761 16.64 25.6061 15.842 26.2561C15.08 26.9161 14.698 27.6561 14.698 28.4961V31.106C14.481 31.326 14.227 31.4661 13.936 31.5361C13.682 31.6161 13.428 31.6161 13.174 31.5361C12.92 31.4361 12.684 31.2661 12.467 31.0461V28.656C12.467 27.416 12.666 26.426 13.065 25.656C13.465 24.896 13.991 24.066 14.644 23.156L14.916 22.7761H16.223C16.549 22.3061 16.949 21.8861 17.421 21.5261C17.892 21.1561 18.4 20.7461 18.945 20.2761C19.308 19.9761 19.689 19.7061 20.088 19.4561C20.523 19.1661 20.959 18.816 21.395 18.416H22.701C23.318 17.656 23.808 16.986 24.171 16.406C24.534 15.826 24.715 15.0462 24.715 14.0662H26.131V12.7561H25.205C25.024 12.2861 24.697 11.8862 24.225 11.5662C23.754 11.2362 23.173 11.0759 22.483 11.0759C21.758 11.0759 20.977 11.2161 20.142 11.5061C19.308 11.7561 18.4 12.0861 17.421 12.4861V13.7961L13.12 15.3162L13.065 10.7461C13.573 10.5961 14.209 10.396 14.971 10.146C15.733 9.896 16.549 9.65604 17.421 9.43604V8.13599C18.945 7.80599 20.415 7.65605 21.83 7.69605C23.246 7.69605 24.679 8.22613 26.131 9.27613V10.7961L27.437 10.5859C27.655 11.1259 27.855 11.6861 28.036 12.2661C28.254 12.8161 28.417 13.4162 28.526 14.0662H27.22C27.365 14.8262 27.419 15.5561 27.383 16.2461C27.347 16.9361 27.22 17.656 27.002 18.416H25.695C25.441 19.296 24.988 20.0561 24.334 20.7061C23.681 21.3561 22.919 22.0461 22.048 22.7761H20.741ZM39.196 37.366L37.89 39.106C36.728 38.636 35.785 38.1961 35.059 37.7961C34.333 37.4061 33.97 36.856 33.97 36.166L33.861 33.0061L33.752 28.4961C33.97 28.2761 34.206 28.1061 34.46 28.0061C34.714 27.8961 34.986 27.876 35.277 27.946C35.567 28.016 35.839 28.166 36.093 28.386L36.256 29.2561C36.583 31.0361 36.964 32.5559 37.4 33.8259C37.835 35.0959 38.434 36.276 39.196 37.366ZM39.196 3.72608V1.21607C40.902 0.786068 42.462 0.585971 43.878 0.615971C45.33 0.655971 46.672 0.786098 47.906 0.996098V2.30616C48.705 2.52616 49.34 2.74606 49.812 2.95606C50.32 3.14606 50.737 3.39608 51.064 3.72608C51.064 5.13608 51.082 6.55607 51.118 7.96607C51.155 9.34607 51.173 10.7661 51.173 12.2161C50.955 12.4661 50.719 12.6461 50.465 12.7561C50.211 12.8361 49.939 12.8361 49.648 12.7561C49.358 12.6861 49.086 12.5359 48.832 12.3259C48.614 11.2659 48.433 10.4362 48.287 9.81617C48.179 9.20617 48.051 8.54596 47.906 7.85596V6.71607C47.072 5.40607 46.182 4.46599 45.239 3.88599C44.332 3.30599 43.37 3.01612 42.354 3.01612C41.337 3.01612 40.285 3.24608 39.196 3.72608ZM48.07 35.8359C48.759 33.2259 48.777 30.906 48.124 28.876C47.507 26.806 46.564 24.7761 45.293 22.7761H43.987C43.696 22.3361 43.37 21.956 43.007 21.636C42.68 21.266 42.335 20.866 41.972 20.436C41.682 20.106 41.374 19.7961 41.047 19.5061C40.72 19.1861 40.412 18.816 40.122 18.416H38.815C38.089 17.516 37.509 16.746 37.073 16.136C36.674 15.476 36.347 14.7962 36.093 14.0662H34.786C34.46 13.2262 34.188 12.1261 33.97 10.7461C33.752 9.3261 33.897 7.89605 34.406 6.44605C34.95 4.99605 36.111 3.66607 37.89 2.46607L39.196 3.72608C38.47 4.70608 37.998 5.75598 37.781 6.87598C37.563 8.00598 37.617 9.18602 37.944 10.416C38.307 11.616 38.96 12.8362 39.904 14.0662H41.21C41.61 14.7162 42.136 15.426 42.789 16.186C43.479 16.916 44.15 17.656 44.803 18.416H46.11C46.654 19.146 47.162 19.8361 47.634 20.4861C48.142 21.1061 48.632 21.8661 49.104 22.7761H50.411C51.427 24.8461 52.062 26.9361 52.316 29.0361C52.606 31.1361 52.298 33.4059 51.39 35.8359H48.07ZM39.196 37.366C40.249 37.836 41.301 38.096 42.354 38.126C43.442 38.166 44.459 37.996 45.402 37.636C46.382 37.236 47.271 36.6359 48.07 35.8359L50.084 37.146C48.632 38.526 46.999 39.4861 45.184 40.0361C43.406 40.5361 41.41 40.666 39.196 40.416V37.366ZM69.083 35.8359C69.265 35.3359 69.446 34.846 69.628 34.376C69.809 33.896 69.936 33.406 70.009 32.906L70.172 32.3062C70.499 32.0862 70.789 31.9761 71.043 31.9761C71.297 31.9361 71.533 31.996 71.751 32.136C71.968 32.286 72.15 32.466 72.295 32.686C72.259 33.226 72.186 33.7361 72.077 34.2061C72.005 34.6761 71.896 35.2259 71.751 35.8359H69.083ZM61.298 35.8359C62.024 36.3159 62.786 36.6961 63.585 36.9861C64.383 37.2761 65.236 37.3461 66.143 37.2061C67.087 37.0561 68.067 36.6059 69.083 35.8359L70.444 37.146C69.428 38.636 68.194 39.656 66.742 40.196C65.29 40.736 63.803 40.736 62.278 40.196C60.754 39.686 59.393 38.676 58.195 37.146L61.298 35.8359ZM62.442 14.0662C61.607 15.7362 60.935 17.766 60.427 20.166C59.919 22.556 59.72 25.1159 59.829 27.8359C59.974 30.5259 60.464 33.1959 61.298 35.8359H56.889C55.909 32.7559 55.437 29.9061 55.473 27.2961C55.51 24.6461 55.909 22.2362 56.671 20.0562C57.433 17.8762 58.341 15.8762 59.393 14.0662H62.442ZM62.442 14.0662L60.7 12.7561C61.97 12.2461 63.077 11.9061 64.02 11.7261C64.964 11.5461 66.016 11.4561 67.178 11.4561C67.94 11.7461 68.539 12.0861 68.974 12.4861C69.41 12.8461 69.718 13.3762 69.9 14.0662H71.206C71.533 14.9362 71.733 15.8461 71.805 16.7861C71.878 17.6961 71.914 18.746 71.914 19.946V20.2761C71.696 20.4561 71.478 20.6161 71.261 20.7661C71.043 20.8661 70.789 20.8862 70.499 20.8162C70.245 20.7462 69.954 20.596 69.628 20.376L69.519 19.946C69.482 19.796 69.446 19.616 69.41 19.396C69.119 18.126 68.811 17.0761 68.484 16.2461C68.158 15.3761 67.758 14.6462 67.287 14.0662H66.252C65.49 13.7762 64.819 13.6661 64.238 13.7361C63.657 13.7761 63.059 13.8862 62.442 14.0662ZM89.716 35.8359C89.97 35.2259 90.206 34.5161 90.423 33.7161C90.677 32.8861 90.859 32.116 90.968 31.436C91.222 31.246 91.476 31.136 91.73 31.106C92.02 31.066 92.274 31.1261 92.492 31.2661C92.746 31.3761 92.964 31.5261 93.145 31.7061C93.073 32.3961 92.946 33.0959 92.764 33.8259C92.619 34.5159 92.474 35.1859 92.329 35.8359H89.716ZM81.386 35.8359C82.112 36.3159 82.929 36.6961 83.836 36.9861C84.743 37.2761 85.687 37.3461 86.667 37.2061C87.683 37.0561 88.699 36.6059 89.716 35.8359L91.022 37.146C90.042 38.636 88.772 39.656 87.211 40.196C85.687 40.706 84.126 40.686 82.53 40.146C80.933 39.556 79.554 38.566 78.392 37.146L81.386 35.8359ZM82.53 14.0662C81.622 15.6962 80.878 17.726 80.298 20.166C80.131 20.896 79.994 21.646 79.889 22.416C79.994 22.706 80.131 22.936 80.298 23.106C80.515 23.286 80.842 23.376 81.278 23.376C81.894 23.406 82.62 23.4461 83.455 23.4861H86.014C86.776 23.4861 87.338 23.4262 87.701 23.3162C88.101 23.1762 88.482 22.9961 88.845 22.7761C88.953 22.4161 89.026 22.046 89.062 21.686C89.099 21.286 89.117 20.866 89.117 20.436V20.166C89.117 18.816 88.99 17.656 88.736 16.676C88.518 15.666 88.173 14.7962 87.701 14.0662H86.667C85.869 13.7762 85.143 13.646 84.489 13.686C83.836 13.716 83.183 13.8462 82.53 14.0662L80.352 12.7561C81.586 12.2161 82.638 11.8661 83.51 11.7261C84.381 11.5461 85.379 11.4561 86.504 11.4561C87.121 11.7461 87.738 12.0861 88.355 12.4861C89.008 12.8861 89.534 13.4162 89.933 14.0662H91.24C91.966 15.4462 92.474 16.806 92.764 18.146C93.091 19.456 93.236 20.9961 93.2 22.7761C93.2 23.5761 93.127 24.206 92.982 24.676C92.873 25.116 92.637 25.4761 92.274 25.7661H82.094C81.332 25.7661 80.806 25.9361 80.515 26.2561C80.261 26.5461 79.971 26.9461 79.644 27.4561C79.638 27.3661 79.631 27.266 79.624 27.176C79.629 27.396 79.635 27.6159 79.644 27.8359C79.79 30.5559 80.37 33.2259 81.386 35.8359H77.086C76.07 32.8659 75.543 30.056 75.507 27.406C75.507 24.756 75.834 22.326 76.487 20.106C77.176 17.896 78.029 15.8762 79.046 14.0662H82.53ZM132.722 35.8359C132.976 35.2259 133.212 34.5161 133.43 33.7161C133.684 32.8861 133.866 32.116 133.974 31.436C134.229 31.246 134.483 31.136 134.737 31.106C135.027 31.066 135.281 31.1261 135.499 31.2661C135.753 31.3761 135.971 31.5261 136.152 31.7061C136.079 32.3961 135.971 33.0959 135.825 33.8259C135.68 34.5159 135.517 35.1859 135.335 35.8359H132.722ZM124.448 35.8359C125.137 36.3159 125.936 36.6961 126.843 36.9861C127.75 37.2761 128.694 37.3461 129.674 37.2061C130.69 37.0561 131.706 36.6059 132.722 35.8359L134.029 37.146C133.049 38.636 131.779 39.656 130.218 40.196C128.694 40.706 127.133 40.686 125.536 40.146C123.94 39.556 122.56 38.566 121.399 37.146L124.448 35.8359ZM125.536 14.0662C124.629 15.6962 123.885 17.726 123.304 20.166C123.136 20.906 123.002 21.656 122.899 22.426C123.007 22.706 123.16 22.936 123.359 23.106C123.577 23.286 123.885 23.376 124.284 23.376C124.901 23.406 125.627 23.4461 126.462 23.4861H129.075C129.801 23.4861 130.345 23.4262 130.708 23.3162C131.107 23.1762 131.488 22.9961 131.851 22.7761C131.96 22.4161 132.033 22.046 132.069 21.686C132.105 21.286 132.124 20.866 132.124 20.436V20.166C132.124 18.816 131.996 17.656 131.742 16.676C131.525 15.666 131.18 14.7962 130.708 14.0662H129.674C128.875 13.7762 128.149 13.646 127.496 13.686C126.843 13.716 126.19 13.8462 125.536 14.0662L123.359 12.7561C124.593 12.2161 125.645 11.8661 126.516 11.7261C127.387 11.5461 128.385 11.4561 129.51 11.4561C130.164 11.7461 130.799 12.0861 131.416 12.4861C132.033 12.8861 132.541 13.4162 132.94 14.0662H134.247C134.972 15.4462 135.481 16.806 135.771 18.146C136.098 19.456 136.243 20.9961 136.206 22.7761C136.206 23.5761 136.134 24.206 135.989 24.676C135.88 25.116 135.662 25.4761 135.335 25.7661H125.101C124.339 25.7661 123.812 25.9361 123.522 26.2561C123.277 26.5361 122.998 26.916 122.686 27.406C122.691 27.546 122.698 27.6859 122.706 27.8359C122.851 30.5559 123.431 33.2259 124.448 35.8359H120.092C119.076 32.8659 118.55 30.056 118.514 27.406C118.514 24.756 118.84 22.326 119.494 20.106C120.183 17.896 121.036 15.8762 122.052 14.0662H125.536ZM100.767 36.436C100.767 37.206 100.912 37.696 101.202 37.906C101.492 38.126 101.892 38.3061 102.4 38.4561C102.472 38.4861 102.527 38.5061 102.563 38.5061C102.599 38.5061 102.636 38.5262 102.672 38.5662C103.071 38.6762 103.343 38.776 103.489 38.886C103.634 38.996 103.706 39.176 103.706 39.436C103.706 39.686 103.634 39.8661 103.489 39.9761C103.38 40.0861 103.216 40.1761 102.999 40.2461H95.159C94.869 40.1761 94.67 40.1061 94.561 40.0361C94.452 39.9261 94.397 39.726 94.397 39.436C94.397 39.256 94.47 39.1061 94.615 38.9961C94.796 38.8861 95.069 38.7462 95.432 38.5662C95.54 38.5262 95.649 38.4861 95.758 38.4561C95.867 38.4161 95.976 38.3661 96.085 38.2861C96.375 38.0761 96.557 37.8359 96.629 37.5859C96.738 37.2959 96.793 36.916 96.793 36.436L96.738 20.656C96.738 19.346 96.92 18.2061 97.283 17.2261C97.646 16.2061 98.208 15.1562 98.97 14.0662H100.277C100.531 13.5562 100.894 13.1261 101.365 12.7561C101.837 12.3561 102.309 11.9562 102.781 11.5662C103.87 11.4862 104.831 11.4561 105.666 11.4561C106.501 11.4561 107.463 11.506 108.551 11.616C109.06 12.016 109.495 12.3761 109.858 12.7061C110.257 12.9961 110.675 13.4462 111.11 14.0662H112.417C113.251 15.0862 113.85 16.0661 114.213 17.0061C114.576 17.9161 114.757 19.0061 114.757 20.2761L114.812 36.436C114.812 36.916 114.848 37.2959 114.921 37.5859C115.03 37.8359 115.229 38.0761 115.52 38.2861C115.665 38.3661 115.792 38.4161 115.901 38.4561C116.046 38.4861 116.173 38.546 116.282 38.616C116.681 38.686 116.971 38.776 117.153 38.886C117.371 38.996 117.479 39.176 117.479 39.436C117.479 39.726 117.425 39.9261 117.316 40.0361C117.207 40.1061 117.008 40.1761 116.717 40.2461H109.096C108.842 40.1761 108.66 40.0861 108.551 39.9761C108.443 39.8661 108.388 39.686 108.388 39.436C108.388 39.216 108.479 39.056 108.66 38.946C108.842 38.796 109.132 38.6561 109.531 38.5061C109.858 38.3661 110.13 38.166 110.348 37.906C110.602 37.656 110.729 37.166 110.729 36.436V19.126C110.729 17.746 110.493 16.7161 110.021 16.0261C109.549 15.2961 108.969 14.6462 108.279 14.0662H107.626C106.936 13.9162 106.319 13.846 105.775 13.846C105.267 13.846 104.668 13.9162 103.979 14.0662H103.053C102.436 14.6462 101.892 15.2961 101.42 16.0261C100.984 16.7161 100.767 17.676 100.767 18.906V36.436ZM10.942 37.7461C10.942 36.9861 11.16 36.2361 11.596 35.5161C12.321 35.0761 13.047 34.856 13.773 34.856C14.535 34.856 15.279 35.0561 16.005 35.4561C16.441 36.1861 16.658 36.926 16.658 37.696C16.695 38.456 16.495 39.176 16.06 39.866C15.334 40.306 14.59 40.5261 13.828 40.5261C13.065 40.5561 12.321 40.3761 11.596 39.9761C11.16 39.2561 10.942 38.5061 10.942 37.7461Z" fill="black"/>
</svg>
