<svg width="137" height="41" viewBox="0 0 137 41" fill="none" xmlns="http://www.w3.org/2000/svg">
<path fill-rule="evenodd" clip-rule="evenodd" d="M4.355 14.496C5.371 14.576 6.406 14.4459 7.458 14.1159C8.547 13.7559 9.908 13.2459 11.541 12.5959L13.065 11.996L13.12 16.6259C11.305 17.2059 9.745 17.6059 8.438 17.8259C7.132 18.0059 5.771 17.9161 4.355 17.5461V14.496ZM4.355 14.496L3.103 16.2961C2.123 15.6761 1.361 14.8859 0.817 13.9059C0.272 12.8859 0 11.746 0 10.476C0.29 9.34601 0.762 8.40593 1.415 7.64593C2.105 6.84593 3.085 6.17591 4.355 5.62591V4.37591L6.642 3.28607C7.077 3.03607 7.458 2.81592 7.785 2.63592C8.111 2.45592 8.42 2.32604 8.71 2.25604V0.996028C9.364 0.816028 9.944 0.785931 10.452 0.895931C10.997 0.995931 11.487 1.23588 11.922 1.59588C12.104 2.28588 12.122 2.86587 11.977 3.33587C11.831 3.77587 11.523 4.24604 11.051 4.75604L8.71 5.29608V6.55609C7.984 6.76609 7.204 7.0459 6.369 7.3659C5.571 7.6959 4.9 7.93586 4.355 8.07586V8.45599C3.883 8.89599 3.466 9.36591 3.103 9.87591C2.74 10.3459 2.559 10.966 2.559 11.726C2.559 12.526 2.74 13.1359 3.103 13.5759C3.466 14.0059 3.883 14.316 4.355 14.496ZM20.796 22.7761C20.542 22.9561 20.306 23.116 20.088 23.266C19.87 23.406 19.634 23.576 19.38 23.756C17.82 24.776 16.64 25.606 15.842 26.256C15.043 26.916 14.644 27.6761 14.644 28.5461V31.1059C14.426 31.3259 14.19 31.4661 13.936 31.5361C13.682 31.6161 13.41 31.6161 13.12 31.5361C12.866 31.4361 12.648 31.2661 12.467 31.0461V28.6559C12.467 27.4159 12.666 26.4259 13.065 25.6559C13.465 24.8959 14.009 24.0659 14.698 23.1559L14.971 22.7761H16.223C16.549 22.3061 16.949 21.8861 17.421 21.5261C17.929 21.1561 18.437 20.7461 18.945 20.2761C19.308 19.9761 19.707 19.706 20.142 19.456C20.578 19.166 21.014 18.816 21.449 18.416H22.701C23.354 17.656 23.862 16.9859 24.225 16.4059C24.588 15.8259 24.77 15.0461 24.77 14.0661H26.131V12.8161H25.205C25.06 12.3061 24.752 11.9059 24.28 11.6159C23.808 11.2859 23.227 11.1259 22.538 11.1259C21.776 11.1259 20.977 11.2661 20.142 11.5661C19.308 11.8161 18.4 12.1461 17.421 12.5361V13.7961L13.12 15.3161L13.065 10.746C13.573 10.636 14.209 10.456 14.971 10.196C15.733 9.90598 16.549 9.65597 17.421 9.43597V8.18597C18.945 7.85597 20.415 7.71603 21.83 7.74603C23.246 7.74603 24.679 8.27586 26.131 9.32586V10.8559L27.383 10.5859C27.601 11.1259 27.818 11.686 28.036 12.266C28.254 12.816 28.417 13.4161 28.526 14.0661H27.274C27.383 14.8261 27.419 15.556 27.383 16.246C27.383 16.936 27.256 17.656 27.002 18.416H25.75C25.496 19.296 25.024 20.056 24.334 20.706C23.681 21.356 22.919 22.0461 22.048 22.7761H20.796ZM48.07 35.8359C48.759 33.2259 48.777 30.8861 48.124 28.8161C47.507 26.7461 46.564 24.7361 45.293 22.7761H44.041C43.715 22.3361 43.37 21.9559 43.007 21.6359C42.68 21.2659 42.317 20.866 41.918 20.436C41.628 20.106 41.319 19.796 40.993 19.506C40.702 19.186 40.394 18.816 40.067 18.416H38.815C38.089 17.516 37.509 16.7459 37.073 16.1359C36.638 15.4759 36.293 14.7961 36.039 14.0661H34.786C34.46 13.2261 34.188 12.126 33.97 10.746C33.752 9.32603 33.897 7.89598 34.406 6.44598C34.95 4.95598 36.129 3.636 37.944 2.466L39.196 3.66595C38.47 4.64595 37.998 5.71591 37.781 6.87591C37.563 8.00591 37.617 9.18595 37.944 10.416C38.307 11.616 38.96 12.8361 39.904 14.0661H41.156C41.555 14.7161 42.1 15.426 42.789 16.186C43.479 16.916 44.15 17.656 44.803 18.416H46.11C46.654 19.146 47.162 19.836 47.634 20.486C48.142 21.106 48.65 21.8661 49.158 22.7761H50.411C51.427 24.8061 52.062 26.8961 52.316 29.0361C52.606 31.1761 52.298 33.4459 51.39 35.8359H48.07ZM39.196 37.3659L37.944 39.166C36.746 38.686 35.785 38.2559 35.059 37.8559C34.333 37.4559 33.97 36.916 33.97 36.226L33.861 33.0661L33.752 28.5461C33.97 28.2961 34.188 28.106 34.406 28.006C34.66 27.896 34.932 27.876 35.222 27.946C35.512 28.016 35.785 28.1659 36.039 28.3859L36.202 29.256C36.529 31.066 36.91 32.6059 37.345 33.8859C37.817 35.1559 38.434 36.3159 39.196 37.3659ZM39.196 37.3659C40.249 37.8359 41.319 38.106 42.408 38.186C43.497 38.216 44.513 38.0359 45.457 37.6359C46.4 37.2359 47.271 36.6359 48.07 35.8359L50.138 37.0959C48.65 38.5059 46.999 39.4861 45.184 40.0361C43.406 40.5361 41.41 40.666 39.196 40.416V37.3659ZM39.196 3.66595V1.216C40.902 0.745999 42.481 0.545902 43.932 0.615902C45.384 0.655902 46.709 0.786028 47.906 0.996028V2.25604C48.705 2.46604 49.34 2.68594 49.812 2.90594C50.32 3.08594 50.719 3.33595 51.009 3.66595L51.118 7.91595C51.155 9.29595 51.173 10.726 51.173 12.216C50.955 12.436 50.719 12.596 50.465 12.706C50.211 12.816 49.939 12.836 49.648 12.756C49.358 12.686 49.086 12.526 48.832 12.266C48.614 11.216 48.433 10.386 48.287 9.76605C48.179 9.14605 48.051 8.49609 47.906 7.80609V6.716C47.072 5.406 46.182 4.46592 45.239 3.88592C44.332 3.30592 43.37 3.01605 42.354 3.01605C41.337 3.01605 40.285 3.23595 39.196 3.66595ZM61.298 35.8359C62.024 36.3459 62.786 36.7461 63.585 37.0361C64.383 37.3261 65.236 37.406 66.143 37.256C67.087 37.076 68.067 36.6059 69.083 35.8359L70.444 37.0959C69.428 38.5759 68.194 39.616 66.742 40.196C65.29 40.776 63.784 40.796 62.224 40.246C60.7 39.706 59.339 38.6559 58.141 37.0959L61.298 35.8359ZM62.496 14.0661L60.7 12.8161C61.97 12.3061 63.077 11.9561 64.02 11.7761C64.964 11.5661 65.998 11.456 67.123 11.456C67.922 11.746 68.539 12.086 68.974 12.486C69.41 12.846 69.718 13.3761 69.9 14.0661H71.152C71.515 14.9361 71.733 15.8461 71.805 16.7861C71.878 17.7261 71.914 18.786 71.914 19.946V20.2761C71.696 20.4861 71.478 20.656 71.261 20.766C71.043 20.866 70.789 20.9059 70.499 20.8659C70.245 20.7959 69.954 20.6359 69.628 20.3759C69.591 20.2759 69.555 20.146 69.519 19.996C69.482 19.816 69.446 19.6159 69.41 19.3959C69.083 18.1259 68.757 17.076 68.43 16.246C68.14 15.376 67.74 14.6461 67.232 14.0661H66.252C65.49 13.7761 64.819 13.666 64.238 13.736C63.657 13.776 63.077 13.8861 62.496 14.0661ZM62.496 14.0661C61.625 15.6961 60.935 17.7159 60.427 20.1059C59.919 22.5059 59.72 25.0759 59.829 27.8359C59.974 30.5559 60.464 33.2259 61.298 35.8359H56.889C55.909 32.7959 55.437 29.9461 55.473 27.2961C55.51 24.6061 55.909 22.176 56.671 19.996C57.433 17.826 58.359 15.8461 59.447 14.0661H62.496ZM69.083 35.8359L69.628 34.426C69.809 33.916 69.936 33.4059 70.009 32.9059L70.172 32.3061C70.499 32.0861 70.789 31.976 71.043 31.976C71.297 31.976 71.533 32.046 71.751 32.196C71.968 32.306 72.15 32.466 72.295 32.686C72.259 33.226 72.186 33.736 72.077 34.206C72.005 34.676 71.878 35.2259 71.696 35.8359H69.083ZM81.386 35.8359C82.076 36.3459 82.874 36.7461 83.782 37.0361C84.689 37.3261 85.633 37.406 86.613 37.256C87.629 37.076 88.645 36.6059 89.661 35.8359L91.022 37.0959C90.042 38.6159 88.772 39.656 87.211 40.196C85.651 40.706 84.054 40.6859 82.421 40.1459C80.824 39.5559 79.463 38.5459 78.338 37.0959L81.386 35.8359ZM89.661 35.8359C89.915 35.2259 90.169 34.516 90.423 33.716C90.677 32.886 90.859 32.116 90.968 31.436C91.222 31.246 91.476 31.1359 91.73 31.1059C91.984 31.0359 92.22 31.066 92.438 31.216C92.692 31.356 92.909 31.526 93.091 31.706C93.018 32.396 92.909 33.0959 92.764 33.8259C92.619 34.5559 92.456 35.2259 92.274 35.8359H89.661ZM82.53 14.0661C81.586 15.6961 80.824 17.7159 80.243 20.1059C80.073 20.8559 79.936 21.6259 79.833 22.4059C79.939 22.7059 80.076 22.9359 80.243 23.1059C80.461 23.2859 80.787 23.3759 81.223 23.3759C81.84 23.4059 82.566 23.446 83.401 23.486H86.014C86.776 23.486 87.338 23.4261 87.701 23.3161C88.064 23.1761 88.427 22.9961 88.79 22.7761C88.899 22.4161 88.972 22.046 89.008 21.686C89.044 21.286 89.062 20.866 89.062 20.436V20.166C89.062 18.816 88.935 17.6359 88.681 16.6259C88.463 15.6059 88.119 14.7561 87.647 14.0661H86.613C85.85 13.7361 85.143 13.616 84.489 13.686C83.836 13.716 83.183 13.8461 82.53 14.0661L80.298 12.8161C81.531 12.2361 82.584 11.866 83.455 11.726C84.326 11.576 85.324 11.506 86.449 11.506C87.066 11.796 87.683 12.1461 88.3 12.5361C88.953 12.9061 89.498 13.4161 89.933 14.0661H91.185C91.911 15.4461 92.419 16.8059 92.71 18.1459C93.036 19.4559 93.182 20.9961 93.145 22.7761C93.145 23.5761 93.091 24.206 92.982 24.676C92.873 25.116 92.637 25.466 92.274 25.716C91.512 25.756 90.605 25.766 89.552 25.766C88.536 25.736 87.284 25.716 85.796 25.716H81.985C81.259 25.716 80.751 25.876 80.461 26.206C80.182 26.526 79.903 26.9159 79.624 27.3959C79.63 27.5459 79.637 27.6859 79.644 27.8359C79.79 30.5559 80.37 33.2259 81.386 35.8359H77.086C76.033 32.8659 75.489 30.0559 75.453 27.4059C75.453 24.7559 75.797 22.3259 76.487 20.1059C77.176 17.8559 78.029 15.8461 79.046 14.0661H82.53ZM132.668 35.8359C132.922 35.2259 133.176 34.516 133.43 33.716C133.684 32.886 133.866 32.116 133.974 31.436C134.229 31.246 134.483 31.1359 134.737 31.1059C134.991 31.0359 135.227 31.066 135.444 31.216C135.698 31.356 135.916 31.526 136.098 31.706C136.025 32.396 135.916 33.0959 135.771 33.8259C135.626 34.5559 135.462 35.2259 135.281 35.8359H132.668ZM124.393 35.8359C125.119 36.3459 125.917 36.7461 126.788 37.0361C127.696 37.3261 128.639 37.406 129.619 37.256C130.636 37.076 131.652 36.6059 132.668 35.8359L134.029 37.0959C133.049 38.6159 131.779 39.656 130.218 40.196C128.658 40.706 127.061 40.6859 125.428 40.1459C123.831 39.5559 122.47 38.5459 121.345 37.0959L124.393 35.8359ZM125.536 14.0661C124.593 15.6961 123.831 17.7159 123.25 20.1059C123.08 20.8559 122.943 21.626 122.84 22.416C122.946 22.706 123.082 22.9359 123.25 23.1059C123.468 23.2859 123.794 23.3759 124.23 23.3759C124.847 23.4059 125.573 23.446 126.407 23.486H129.02C129.783 23.486 130.345 23.4261 130.708 23.3161C131.071 23.1761 131.434 22.9961 131.797 22.7761C131.942 22.4161 132.015 22.046 132.015 21.686C132.051 21.286 132.069 20.866 132.069 20.436V20.166C132.069 18.816 131.942 17.6359 131.688 16.6259C131.47 15.6059 131.125 14.7561 130.654 14.0661H129.619C128.857 13.7361 128.149 13.616 127.496 13.686C126.843 13.716 126.19 13.8461 125.536 14.0661L123.304 12.8161C124.538 12.2361 125.591 11.866 126.462 11.726C127.333 11.576 128.331 11.506 129.456 11.506C130.073 11.796 130.69 12.1461 131.307 12.5361C131.96 12.9061 132.505 13.4161 132.94 14.0661H134.192C134.918 15.4461 135.426 16.8059 135.716 18.1459C136.043 19.4559 136.188 20.9961 136.152 22.7761C136.152 23.5761 136.098 24.206 135.989 24.676C135.88 25.116 135.644 25.466 135.281 25.716C134.555 25.756 133.666 25.766 132.613 25.766C131.561 25.736 130.291 25.716 128.803 25.716H124.992C124.266 25.716 123.758 25.876 123.468 26.206C123.223 26.526 122.943 26.9159 122.631 27.4059C122.637 27.5459 122.643 27.6859 122.651 27.8359C122.796 30.5559 123.377 33.2259 124.393 35.8359H120.092C119.04 32.8659 118.496 30.0559 118.459 27.4059C118.459 24.7559 118.804 22.3259 119.494 20.1059C120.183 17.8559 121.036 15.8461 122.052 14.0661H125.536ZM100.712 36.436C100.712 37.206 100.857 37.706 101.148 37.966C101.438 38.186 101.855 38.346 102.4 38.456C102.436 38.486 102.472 38.506 102.509 38.506C102.545 38.506 102.599 38.5261 102.672 38.5661C103.071 38.7061 103.325 38.836 103.434 38.946C103.579 39.016 103.652 39.176 103.652 39.436C103.652 39.686 103.597 39.866 103.489 39.976C103.38 40.086 103.216 40.176 102.999 40.246H95.105C94.815 40.176 94.615 40.1061 94.506 40.0361C94.397 39.9261 94.343 39.726 94.343 39.436C94.343 39.256 94.415 39.106 94.561 38.996C94.706 38.886 94.978 38.7461 95.377 38.5661C95.486 38.5261 95.595 38.486 95.704 38.456C95.813 38.416 95.922 38.3859 96.03 38.3459C96.321 38.0959 96.502 37.8359 96.575 37.5859C96.684 37.3259 96.738 36.946 96.738 36.436L96.684 20.706C96.684 19.396 96.865 18.236 97.228 17.226C97.591 16.206 98.172 15.1561 98.97 14.0661H100.222C100.476 13.5561 100.839 13.126 101.311 12.756C101.783 12.356 102.273 11.9759 102.781 11.6159C103.87 11.5059 104.813 11.456 105.612 11.456C106.446 11.456 107.408 11.526 108.497 11.666C109.005 12.066 109.441 12.416 109.804 12.706C110.203 12.996 110.638 13.4461 111.11 14.0661H112.362C113.197 15.0861 113.796 16.066 114.159 17.006C114.522 17.946 114.703 19.0361 114.703 20.2761L114.757 36.436C114.757 36.916 114.794 37.2959 114.866 37.5859C114.975 37.8359 115.193 38.0959 115.52 38.3459C115.628 38.3859 115.737 38.416 115.846 38.456C115.991 38.486 116.137 38.5459 116.282 38.6159C116.645 38.7259 116.935 38.836 117.153 38.946C117.371 39.056 117.479 39.216 117.479 39.436C117.479 39.726 117.425 39.9261 117.316 40.0361C117.207 40.1061 117.008 40.176 116.717 40.246H108.987C108.769 40.176 108.606 40.086 108.497 39.976C108.388 39.866 108.334 39.686 108.334 39.436C108.334 39.216 108.424 39.056 108.606 38.946C108.787 38.796 109.078 38.656 109.477 38.506C109.804 38.366 110.094 38.186 110.348 37.966C110.602 37.706 110.711 37.206 110.675 36.436V19.0759C110.675 17.6959 110.439 16.656 109.967 15.966C109.495 15.286 108.914 14.6461 108.225 14.0661H107.572C106.882 13.9161 106.265 13.8459 105.721 13.8459C105.212 13.8459 104.614 13.9161 103.924 14.0661H102.999C102.382 14.6061 101.837 15.246 101.365 15.966C100.93 16.696 100.712 17.6759 100.712 18.9059V36.436ZM10.888 37.746C10.888 36.986 11.106 36.236 11.541 35.516C12.267 35.076 13.011 34.8559 13.773 34.8559C14.535 34.8559 15.279 35.056 16.005 35.456C16.441 36.186 16.658 36.926 16.658 37.696C16.658 38.456 16.441 39.1759 16.005 39.8659C15.316 40.3059 14.59 40.5261 13.828 40.5261C13.065 40.5561 12.321 40.376 11.596 39.976C11.16 39.256 10.924 38.506 10.888 37.746Z" fill="black"/>
</svg>
