<svg width="137" height="41" viewBox="0 0 137 41" fill="none" xmlns="http://www.w3.org/2000/svg">
<path fill-rule="evenodd" clip-rule="evenodd" d="M4.355 14.496L3.157 16.3559C2.141 15.6959 1.361 14.8859 0.817 13.9059C0.272 12.8859 0 11.746 0 10.476C0.254 9.34601 0.726 8.38587 1.415 7.58587C2.105 6.78587 3.085 6.11586 4.355 5.57586V4.3161L6.642 3.23602C7.077 3.01602 7.458 2.81592 7.785 2.63592C8.111 2.41592 8.42 2.26598 8.71 2.19598V0.996028C9.364 0.816028 9.944 0.785931 10.452 0.895931C10.997 0.995931 11.487 1.25594 11.922 1.65594C12.104 2.30594 12.104 2.86587 11.922 3.33587C11.777 3.77587 11.469 4.24604 10.997 4.75604L8.71 5.29608V6.55609C7.984 6.73609 7.204 6.9861 6.369 7.3161C5.571 7.6461 4.9 7.89586 4.355 8.07586V8.45599C3.883 8.89599 3.466 9.36591 3.103 9.87591C2.74 10.3459 2.559 10.966 2.559 11.726C2.559 12.526 2.74 13.1359 3.103 13.5759C3.466 14.0059 3.883 14.316 4.355 14.496ZM4.355 14.496C5.371 14.576 6.406 14.4459 7.458 14.1159C8.547 13.7559 9.908 13.2459 11.541 12.5959L13.065 11.996L13.12 16.5661C11.305 17.1861 9.745 17.6059 8.438 17.8259C7.132 18.0059 5.771 17.9161 4.355 17.5461V14.496ZM20.85 22.7761C20.596 22.9561 20.342 23.116 20.088 23.266C19.87 23.406 19.634 23.576 19.38 23.756C17.82 24.776 16.622 25.6261 15.787 26.3161C14.989 26.9661 14.59 27.7161 14.59 28.5461V31.1059C14.372 31.3259 14.136 31.4661 13.882 31.5361C13.628 31.6161 13.374 31.6161 13.12 31.5361C12.866 31.4361 12.63 31.2661 12.412 31.0461V28.6559C12.412 27.4159 12.63 26.4259 13.065 25.6559C13.501 24.8959 14.045 24.0659 14.698 23.1559L14.971 22.7761H16.223C16.549 22.3061 16.949 21.8861 17.421 21.5261C17.929 21.1561 18.455 20.7461 18.999 20.2761C19.362 19.9761 19.761 19.706 20.197 19.456C20.632 19.166 21.068 18.816 21.503 18.416H22.701C23.354 17.656 23.862 16.9859 24.225 16.4059C24.625 15.8259 24.824 15.0461 24.824 14.0661H26.131V12.8659H25.26C25.078 12.3559 24.752 11.9459 24.28 11.6159C23.808 11.2859 23.227 11.1259 22.538 11.1259C21.776 11.1259 20.977 11.2661 20.142 11.5661C19.308 11.8161 18.4 12.1559 17.421 12.5959V13.7961L13.12 15.3759L13.065 10.746C13.573 10.636 14.209 10.456 14.971 10.196C15.733 9.90598 16.549 9.65597 17.421 9.43597V8.23602C18.909 7.87602 20.36 7.71603 21.776 7.74603C23.227 7.78603 24.679 8.33592 26.131 9.38592V10.8559L27.328 10.6359C27.582 11.1459 27.8 11.686 27.982 12.266C28.199 12.816 28.363 13.4161 28.472 14.0661H27.274C27.419 14.8261 27.474 15.556 27.437 16.246C27.401 16.936 27.274 17.656 27.056 18.416H25.804C25.55 19.296 25.078 20.056 24.389 20.706C23.735 21.356 22.955 22.0461 22.048 22.7761H20.85ZM39.196 37.416L37.998 39.216C36.801 38.746 35.821 38.3059 35.059 37.9059C34.297 37.5059 33.916 36.9859 33.916 36.3259L33.861 33.1159L33.752 28.5461C33.934 28.2961 34.151 28.106 34.406 28.006C34.66 27.896 34.932 27.876 35.222 27.946C35.512 28.016 35.785 28.186 36.039 28.436L36.148 29.3061C36.51 31.0861 36.91 32.6059 37.345 33.8859C37.781 35.1559 38.398 36.326 39.196 37.416ZM39.196 3.66595V1.216C40.902 0.745999 42.481 0.545902 43.932 0.615902C45.384 0.655902 46.709 0.786028 47.906 0.996028V2.19598C48.705 2.41598 49.34 2.63588 49.812 2.84588C50.32 3.06588 50.719 3.33595 51.009 3.66595L51.118 7.91595C51.155 9.29595 51.173 10.7059 51.173 12.1559C50.955 12.4159 50.719 12.596 50.465 12.706C50.211 12.816 49.939 12.836 49.648 12.756C49.358 12.646 49.086 12.486 48.832 12.266C48.65 11.216 48.487 10.386 48.342 9.76605L47.906 7.80609V6.716C47.072 5.406 46.182 4.46592 45.239 3.88592C44.332 3.26592 43.37 2.95599 42.354 2.95599C41.337 2.95599 40.285 3.19595 39.196 3.66595ZM48.07 35.8359C48.759 33.2259 48.777 30.8861 48.124 28.8161C47.507 26.7461 46.545 24.7361 45.239 22.7761H44.041C43.715 22.3361 43.37 21.9559 43.007 21.6359C42.68 21.2659 42.317 20.866 41.918 20.436C41.628 20.106 41.319 19.796 40.993 19.506C40.666 19.186 40.339 18.816 40.013 18.416H38.815C38.089 17.516 37.49 16.7459 37.019 16.1359C36.583 15.4759 36.256 14.7961 36.039 14.0661H34.786C34.46 13.2261 34.188 12.126 33.97 10.746C33.752 9.32603 33.897 7.87592 34.406 6.38592C34.95 4.90592 36.148 3.57595 37.998 2.41595L39.196 3.66595C38.47 4.61595 37.998 5.66586 37.781 6.82586C37.563 7.94586 37.617 9.1259 37.944 10.3659C38.307 11.5959 38.96 12.8361 39.904 14.0661H41.102C41.537 14.7161 42.1 15.426 42.789 16.186C43.479 16.916 44.168 17.656 44.858 18.416H46.055C46.6 19.146 47.126 19.836 47.634 20.486C48.142 21.106 48.65 21.8661 49.158 22.7761H50.356C51.409 24.8061 52.062 26.8961 52.316 29.0361C52.606 31.1761 52.28 33.4459 51.336 35.8359H48.07ZM39.196 37.416C40.249 37.896 41.319 38.166 42.408 38.236C43.497 38.276 44.513 38.096 45.457 37.696C46.437 37.256 47.308 36.6359 48.07 35.8359L50.138 37.0361C48.687 38.4561 47.054 39.4561 45.239 40.0361C43.424 40.5761 41.41 40.706 39.196 40.416V37.416ZM61.298 35.8359C62.024 36.3459 62.786 36.7461 63.585 37.0361C64.383 37.3261 65.236 37.406 66.143 37.256C67.087 37.116 68.049 36.6359 69.029 35.8359L70.444 37.0361C69.464 38.5661 68.23 39.616 66.742 40.196C65.29 40.776 63.784 40.796 62.224 40.246C60.663 39.706 59.284 38.6361 58.086 37.0361L61.298 35.8359ZM62.496 14.0661L60.7 12.8659C61.934 12.3259 63.022 11.9561 63.966 11.7761C64.946 11.5661 65.98 11.456 67.069 11.456C67.904 11.746 68.539 12.086 68.974 12.486C69.41 12.846 69.718 13.3761 69.9 14.0661H71.152C71.478 14.9361 71.678 15.8461 71.751 16.7861C71.823 17.7261 71.86 18.806 71.86 19.996V20.3259C71.678 20.5059 71.478 20.6661 71.261 20.8161C71.043 20.9261 70.789 20.9459 70.499 20.8659C70.245 20.7959 69.954 20.656 69.628 20.436C69.591 20.326 69.555 20.1961 69.519 20.0561C69.482 19.8761 69.446 19.676 69.41 19.456C69.083 18.146 68.757 17.076 68.43 16.246C68.103 15.376 67.704 14.6461 67.232 14.0661H66.252C65.49 13.7761 64.819 13.666 64.238 13.736C63.657 13.776 63.077 13.8861 62.496 14.0661ZM69.029 35.8359C69.246 35.3659 69.446 34.896 69.628 34.426C69.809 33.916 69.936 33.4059 70.009 32.9059L70.172 32.3061C70.499 32.0861 70.789 31.976 71.043 31.976C71.297 31.976 71.515 32.046 71.696 32.196C71.914 32.336 72.114 32.506 72.295 32.686C72.222 33.226 72.132 33.736 72.023 34.206C71.95 34.676 71.841 35.2259 71.696 35.8359H69.029ZM62.496 14.0661C61.625 15.6661 60.917 17.6759 60.373 20.1059C59.865 22.5059 59.683 25.0759 59.829 27.8359C59.974 30.5559 60.464 33.2259 61.298 35.8359H56.889C55.909 32.7959 55.437 29.9461 55.473 27.2961C55.51 24.6061 55.909 22.176 56.671 19.996C57.433 17.786 58.377 15.8061 59.502 14.0661H62.496ZM89.661 35.8359C89.915 35.2259 90.169 34.516 90.423 33.716C90.677 32.886 90.859 32.116 90.968 31.436C91.222 31.246 91.476 31.1359 91.73 31.1059C91.984 31.0359 92.22 31.066 92.438 31.216C92.692 31.356 92.909 31.526 93.091 31.706C92.982 32.396 92.855 33.0959 92.71 33.8259C92.565 34.5559 92.401 35.2259 92.22 35.8359H89.661ZM82.53 14.0661C81.586 15.6661 80.824 17.6759 80.243 20.1059C80.057 20.8759 79.909 21.656 79.797 22.456C79.9 22.726 80.031 22.9359 80.189 23.1059C80.406 23.2859 80.733 23.396 81.169 23.426C81.786 23.426 82.511 23.446 83.346 23.486H85.959C86.721 23.486 87.284 23.4261 87.647 23.3161C88.046 23.1761 88.409 22.9961 88.736 22.7761C88.881 22.4161 88.953 22.046 88.953 21.686C88.99 21.286 89.008 20.866 89.008 20.436V20.166C89.008 18.816 88.881 17.6359 88.627 16.6259C88.409 15.6059 88.064 14.7561 87.592 14.0661H86.613C85.85 13.7361 85.125 13.616 84.435 13.686C83.782 13.716 83.147 13.8461 82.53 14.0661L80.298 12.8659C81.495 12.2859 82.53 11.9261 83.401 11.7761C84.272 11.5961 85.251 11.506 86.34 11.506C86.994 11.796 87.647 12.1461 88.3 12.5361C88.953 12.9061 89.48 13.4161 89.879 14.0661H91.077C91.839 15.4061 92.383 16.7459 92.71 18.0959C93.036 19.4359 93.163 20.9961 93.091 22.7761C93.091 23.5761 93.036 24.206 92.927 24.676C92.819 25.116 92.583 25.466 92.22 25.716C91.494 25.756 90.605 25.766 89.552 25.766C88.5 25.736 87.23 25.716 85.742 25.716H81.931C81.205 25.716 80.697 25.876 80.406 26.206C80.116 26.536 79.844 26.946 79.59 27.456C79.582 27.396 79.573 27.3361 79.565 27.2761C79.572 27.4661 79.58 27.6459 79.59 27.8359C79.735 30.5959 80.334 33.2659 81.386 35.8359H77.031C76.015 32.8659 75.489 30.0559 75.453 27.4059C75.416 24.7159 75.743 22.2661 76.432 20.0561C77.122 17.8061 77.993 15.8061 79.046 14.0661H82.53ZM81.386 35.8359C82.076 36.3459 82.874 36.7461 83.782 37.0361C84.689 37.3261 85.633 37.406 86.613 37.256C87.629 37.116 88.645 36.6359 89.661 35.8359L91.022 37.0361C90.042 38.5961 88.772 39.656 87.211 40.196C85.651 40.706 84.054 40.6859 82.421 40.1459C80.787 39.5559 79.408 38.5261 78.283 37.0361L81.386 35.8359ZM132.668 35.8359C132.922 35.2259 133.176 34.516 133.43 33.716C133.684 32.886 133.866 32.116 133.974 31.436C134.229 31.246 134.483 31.1359 134.737 31.1059C134.991 31.0359 135.227 31.066 135.444 31.216C135.698 31.356 135.898 31.526 136.043 31.706C135.971 32.396 135.862 33.0959 135.716 33.8259C135.571 34.5559 135.408 35.2259 135.227 35.8359H132.668ZM124.393 35.8359C125.083 36.3459 125.881 36.7461 126.788 37.0361C127.696 37.3261 128.639 37.406 129.619 37.256C130.636 37.116 131.652 36.6359 132.668 35.8359L134.029 37.0361C133.049 38.5961 131.779 39.656 130.218 40.196C128.658 40.706 127.061 40.6859 125.428 40.1459C123.794 39.5559 122.415 38.5261 121.29 37.0361L124.393 35.8359ZM125.536 14.0661C124.593 15.6661 123.831 17.6759 123.25 20.1059C123.064 20.8759 122.916 21.656 122.804 22.456C122.907 22.726 123.038 22.9359 123.196 23.1059C123.413 23.2859 123.74 23.396 124.175 23.426C124.792 23.426 125.518 23.446 126.353 23.486H128.966C129.728 23.486 130.291 23.4261 130.654 23.3161C131.053 23.1761 131.416 22.9961 131.742 22.7761C131.888 22.4161 131.96 22.046 131.96 21.686C131.996 21.286 132.015 20.866 132.015 20.436V20.166C132.015 18.816 131.888 17.6359 131.634 16.6259C131.416 15.6059 131.053 14.7561 130.545 14.0661H129.619C128.821 13.7361 128.095 13.616 127.442 13.686C126.788 13.716 126.153 13.8461 125.536 14.0661L123.25 12.8659C124.484 12.2859 125.518 11.9261 126.353 11.7761C127.224 11.5961 128.222 11.506 129.347 11.506C130 11.796 130.654 12.1461 131.307 12.5361C131.96 12.9061 132.486 13.4161 132.886 14.0661H134.083C134.845 15.4061 135.39 16.7459 135.716 18.0959C136.043 19.4359 136.17 20.9961 136.098 22.7761C136.098 23.5761 136.043 24.206 135.934 24.676C135.825 25.116 135.589 25.466 135.227 25.716C134.501 25.756 133.612 25.766 132.559 25.766C131.507 25.736 130.236 25.716 128.748 25.716H124.938C124.212 25.716 123.704 25.876 123.413 26.206C123.135 26.526 122.856 26.9159 122.577 27.3959C122.583 27.5459 122.589 27.6859 122.597 27.8359C122.742 30.5959 123.341 33.2659 124.393 35.8359H120.038C119.022 32.8659 118.496 30.0559 118.459 27.4059C118.423 24.7159 118.75 22.2661 119.439 20.0561C120.129 17.8061 121 15.8061 122.052 14.0661H125.536ZM100.658 36.436C100.658 37.206 100.803 37.706 101.093 37.966C101.384 38.186 101.801 38.346 102.345 38.456C102.418 38.486 102.472 38.5261 102.509 38.5661H102.618C103.017 38.7061 103.289 38.836 103.434 38.946C103.579 39.016 103.652 39.196 103.652 39.486C103.652 39.706 103.597 39.866 103.489 39.976C103.38 40.086 103.198 40.176 102.944 40.246H94.996C94.742 40.176 94.542 40.1061 94.397 40.0361C94.288 39.9261 94.234 39.726 94.234 39.436C94.234 39.256 94.307 39.106 94.452 38.996C94.633 38.886 94.924 38.7659 95.323 38.6159C95.395 38.5459 95.486 38.486 95.595 38.456C95.74 38.416 95.867 38.3859 95.976 38.3459C96.266 38.1259 96.448 37.8959 96.52 37.6359C96.629 37.3459 96.684 36.946 96.684 36.436L96.629 20.706C96.629 19.396 96.811 18.236 97.174 17.226C97.537 16.206 98.135 15.1561 98.97 14.0661H100.168C100.422 13.5561 100.785 13.126 101.257 12.756C101.765 12.396 102.273 12.0159 102.781 11.6159C103.833 11.5059 104.777 11.456 105.612 11.456C106.446 11.456 107.39 11.526 108.443 11.666C108.951 12.066 109.386 12.416 109.749 12.706C110.148 12.996 110.584 13.4461 111.056 14.0661H112.308C113.142 15.0861 113.741 16.066 114.104 17.006C114.503 17.946 114.703 19.0361 114.703 20.2761V36.436C114.703 36.916 114.739 37.2959 114.812 37.5859C114.921 37.8759 115.139 38.1259 115.465 38.3459C115.61 38.3859 115.737 38.416 115.846 38.456C115.991 38.486 116.118 38.5459 116.227 38.6159C116.627 38.7259 116.935 38.836 117.153 38.946C117.371 39.056 117.479 39.216 117.479 39.436C117.479 39.726 117.425 39.9261 117.316 40.0361C117.207 40.1061 116.989 40.176 116.663 40.246H108.932C108.715 40.176 108.533 40.086 108.388 39.976C108.279 39.866 108.225 39.706 108.225 39.486C108.225 39.236 108.316 39.056 108.497 38.946C108.715 38.796 109.023 38.656 109.422 38.506C109.749 38.396 110.039 38.216 110.293 37.966C110.548 37.706 110.656 37.206 110.62 36.436V19.0759C110.62 17.6959 110.384 16.656 109.912 15.966C109.441 15.246 108.842 14.6061 108.116 14.0661H107.517C106.828 13.9161 106.211 13.8459 105.666 13.8459C105.158 13.8459 104.559 13.9161 103.87 14.0661H102.999C102.382 14.6061 101.837 15.246 101.365 15.966C100.894 16.696 100.658 17.6759 100.658 18.9059V36.436ZM10.888 37.746C10.888 36.986 11.106 36.236 11.541 35.516C12.267 35.076 13.011 34.8559 13.773 34.8559C14.535 34.8259 15.261 35.026 15.951 35.456C16.422 36.186 16.658 36.926 16.658 37.696C16.658 38.456 16.441 39.1759 16.005 39.8659C15.279 40.3059 14.535 40.5261 13.773 40.5261C13.011 40.5561 12.285 40.376 11.596 39.976C11.124 39.256 10.888 38.506 10.888 37.746Z" fill="black"/>
</svg>
