<svg width="137" height="41" viewBox="0 0 137 41" fill="none" xmlns="http://www.w3.org/2000/svg">
<path fill-rule="evenodd" clip-rule="evenodd" d="M4.355 14.496C5.371 14.576 6.406 14.4261 7.458 14.0661C8.547 13.7061 9.908 13.1961 11.541 12.5361L13.065 11.946L13.12 16.5661C11.305 17.1461 9.745 17.546 8.438 17.766C7.132 17.946 5.771 17.8761 4.355 17.5461V14.496ZM4.355 14.496L3.212 16.3559C2.196 15.7359 1.397 14.936 0.817 13.956C0.272 12.936 0 11.776 0 10.476C0.254 9.30601 0.726 8.34587 1.415 7.58587C2.105 6.78587 3.085 6.076 4.355 5.466V4.3161L6.642 3.23602C7.077 2.97602 7.458 2.75586 7.785 2.57586C8.111 2.39586 8.42 2.25593 8.71 2.14593V0.996028C9.364 0.816028 9.944 0.785931 10.452 0.895931C10.96 0.995931 11.45 1.25594 11.922 1.65594C12.104 2.30594 12.104 2.86587 11.922 3.33587C11.777 3.77587 11.469 4.24604 10.997 4.75604L8.71 5.29608V6.49603C7.984 6.71603 7.204 6.9861 6.369 7.3161C5.571 7.6461 4.9 7.87606 4.355 8.02606V8.40594C3.883 8.83594 3.448 9.3061 3.049 9.8161C2.686 10.2861 2.504 10.906 2.504 11.666C2.504 12.506 2.686 13.1359 3.049 13.5759C3.448 14.0059 3.883 14.316 4.355 14.496ZM20.905 22.7761C20.651 22.9561 20.397 23.116 20.142 23.266C19.925 23.406 19.689 23.576 19.435 23.756C17.838 24.776 16.622 25.6261 15.787 26.3161C14.953 26.9661 14.535 27.7259 14.535 28.5959V31.1059C14.354 31.3259 14.136 31.4661 13.882 31.5361C13.628 31.6161 13.374 31.6161 13.12 31.5361C12.866 31.4361 12.63 31.2661 12.412 31.0461V28.706C12.412 27.436 12.63 26.4259 13.065 25.6559C13.501 24.8959 14.063 24.0659 14.753 23.1559L15.025 22.7761H16.168C16.531 22.3061 16.949 21.8861 17.421 21.5261C17.929 21.1561 18.455 20.7461 18.999 20.2761C19.362 19.9761 19.761 19.706 20.197 19.456C20.669 19.166 21.122 18.816 21.558 18.416H22.756C23.409 17.656 23.917 16.9859 24.28 16.4059C24.643 15.8259 24.824 15.0461 24.824 14.0661H26.131V12.926H25.26C25.115 12.416 24.806 11.996 24.334 11.666C23.862 11.306 23.282 11.1259 22.592 11.1259C21.83 11.1259 21.032 11.2661 20.197 11.5661C19.362 11.8561 18.437 12.1959 17.421 12.5959V13.7961L13.12 15.3759L13.065 10.7961C13.573 10.6561 14.209 10.456 14.971 10.196C15.733 9.90598 16.549 9.65597 17.421 9.43597V8.23602C18.909 7.91602 20.378 7.76609 21.83 7.80609C23.282 7.80609 24.715 8.34597 26.131 9.43597V10.8559L27.274 10.6359C27.528 11.1459 27.764 11.686 27.982 12.266C28.199 12.846 28.363 13.4461 28.472 14.0661H27.274C27.419 14.8261 27.474 15.5761 27.437 16.2961C27.401 16.9861 27.274 17.696 27.056 18.416H25.859C25.605 19.296 25.133 20.056 24.443 20.706C23.754 21.356 22.955 22.0461 22.048 22.7761H20.905ZM48.07 35.8359C48.795 33.2259 48.832 30.8861 48.179 28.8161C47.525 26.7161 46.527 24.6961 45.184 22.7761H44.041C43.715 22.3361 43.37 21.9559 43.007 21.6359C42.644 21.2659 42.263 20.866 41.864 20.436C41.573 20.106 41.265 19.796 40.938 19.506C40.612 19.186 40.285 18.816 39.958 18.416H38.815C38.053 17.516 37.436 16.7459 36.964 16.1359C36.529 15.4759 36.202 14.7961 35.984 14.0661H34.786C34.46 13.2661 34.17 12.156 33.916 10.746C33.698 9.32603 33.861 7.87592 34.406 6.38592C34.95 4.86592 36.166 3.52589 38.053 2.35589L39.196 3.66595C38.47 4.61595 37.98 5.66586 37.726 6.82586C37.509 7.94586 37.581 9.14595 37.944 10.416C38.307 11.656 38.96 12.8661 39.904 14.0661H41.102C41.501 14.7161 42.045 15.426 42.735 16.186C43.461 16.916 44.168 17.656 44.858 18.416H46.055C46.6 19.146 47.126 19.836 47.634 20.486C48.179 21.106 48.687 21.8661 49.158 22.7761H50.356C51.372 24.8061 52.026 26.8961 52.316 29.0361C52.643 31.1761 52.316 33.4459 51.336 35.8359H48.07ZM39.196 37.416L38.053 39.266C36.819 38.796 35.821 38.366 35.059 37.966C34.297 37.566 33.916 37.0359 33.916 36.3859L33.861 33.176L33.752 28.5461C33.934 28.3261 34.133 28.1661 34.351 28.0561C34.605 27.9061 34.877 27.896 35.168 28.006C35.458 28.076 35.73 28.216 35.984 28.436L36.148 29.3061C36.474 31.0861 36.855 32.626 37.291 33.936C37.763 35.206 38.398 36.366 39.196 37.416ZM39.196 3.66595V1.216C40.866 0.745999 42.426 0.545902 43.878 0.615902C45.366 0.655902 46.709 0.786028 47.906 0.996028V2.14593C48.705 2.35593 49.34 2.57608 49.812 2.79608C50.32 3.01608 50.719 3.30595 51.009 3.66595C51.009 5.04595 51.028 6.44589 51.064 7.85589C51.136 9.27589 51.173 10.7059 51.173 12.1559C50.955 12.3759 50.719 12.5359 50.465 12.6459C50.211 12.7559 49.939 12.776 49.648 12.706C49.358 12.636 49.104 12.466 48.886 12.216C48.669 11.166 48.487 10.326 48.342 9.70599C48.197 9.09599 48.051 8.45609 47.906 7.80609V6.76605C47.108 5.42605 46.237 4.44586 45.293 3.82586C44.35 3.21586 43.37 2.90594 42.354 2.90594C41.337 2.90594 40.285 3.15595 39.196 3.66595ZM39.196 37.416C40.249 37.896 41.319 38.166 42.408 38.236C43.497 38.276 44.513 38.096 45.457 37.696C46.437 37.296 47.308 36.6759 48.07 35.8359L50.193 36.986C48.741 38.436 47.09 39.4561 45.239 40.0361C43.424 40.5761 41.41 40.706 39.196 40.416V37.416ZM62.55 14.0661L60.7 12.926C61.934 12.376 63.022 12.0159 63.966 11.8359C64.909 11.6159 65.944 11.506 67.069 11.506C67.867 11.756 68.484 12.086 68.92 12.486C69.392 12.846 69.718 13.3761 69.9 14.0661H71.097C71.424 14.9361 71.624 15.8461 71.696 16.7861C71.805 17.7261 71.86 18.806 71.86 19.996V20.3259C71.642 20.5459 71.424 20.7259 71.206 20.8659C70.989 20.9759 70.753 20.996 70.499 20.926C70.245 20.856 69.954 20.686 69.628 20.436C69.591 20.326 69.555 20.1961 69.519 20.0561C69.482 19.8761 69.446 19.676 69.41 19.456C69.083 18.186 68.757 17.116 68.43 16.246C68.103 15.376 67.686 14.6461 67.178 14.0661H66.252C65.49 13.7761 64.819 13.666 64.238 13.736C63.657 13.776 63.095 13.8861 62.55 14.0661ZM61.353 35.8359C62.006 36.3459 62.732 36.7659 63.53 37.0959C64.365 37.3859 65.236 37.4561 66.143 37.3061C67.087 37.1261 68.049 36.6359 69.029 35.8359L70.499 36.986C69.482 38.546 68.23 39.616 66.742 40.196C65.254 40.776 63.73 40.776 62.169 40.196C60.609 39.656 59.248 38.576 58.086 36.986L61.353 35.8359ZM62.55 14.0661C61.643 15.6661 60.917 17.6759 60.373 20.1059C59.865 22.5059 59.665 25.0759 59.774 27.8359C59.919 30.5959 60.446 33.2659 61.353 35.8359H56.889C55.873 32.7959 55.383 29.9461 55.419 27.2961C55.492 24.6061 55.909 22.156 56.671 19.946C57.469 17.726 58.413 15.7761 59.502 14.0661H62.55ZM69.029 35.8359C69.246 35.3659 69.446 34.896 69.628 34.426C69.809 33.916 69.954 33.4059 70.063 32.9059L70.226 32.3061C70.517 32.1161 70.789 32.0261 71.043 32.0261C71.297 31.9961 71.515 32.046 71.696 32.196C71.914 32.336 72.095 32.516 72.241 32.736C72.204 33.246 72.132 33.756 72.023 34.266C71.95 34.736 71.823 35.2559 71.642 35.8359H69.029ZM89.607 35.8359C89.897 35.2259 90.169 34.516 90.423 33.716C90.677 32.886 90.841 32.116 90.913 31.436C91.167 31.216 91.421 31.0861 91.675 31.0461C91.929 31.0161 92.165 31.066 92.383 31.216C92.637 31.356 92.855 31.526 93.036 31.706C92.964 32.396 92.837 33.0959 92.655 33.8259C92.51 34.5559 92.347 35.2259 92.165 35.8359H89.607ZM82.53 14.0661C81.55 15.6261 80.769 17.6261 80.189 20.0561C80.002 20.8361 79.852 21.636 79.741 22.456C79.848 22.726 79.997 22.9359 80.189 23.1059C80.406 23.2859 80.715 23.396 81.114 23.426C81.731 23.426 82.457 23.446 83.292 23.486H85.905C86.667 23.486 87.23 23.4261 87.592 23.3161C87.992 23.2161 88.373 23.0261 88.736 22.7761C88.845 22.4161 88.917 22.046 88.953 21.686C88.99 21.286 89.008 20.866 89.008 20.436V20.166C89.008 18.856 88.881 17.696 88.627 16.676C88.373 15.626 88.01 14.7561 87.538 14.0661H86.613C85.814 13.7361 85.088 13.616 84.435 13.686C83.782 13.716 83.147 13.8461 82.53 14.0661L80.243 12.926C81.441 12.306 82.475 11.9261 83.346 11.7761C84.217 11.6361 85.197 11.5661 86.286 11.5661C86.939 11.8161 87.592 12.1461 88.246 12.5361C88.899 12.9061 89.443 13.4161 89.879 14.0661H91.022C91.784 15.4061 92.329 16.7459 92.655 18.0959C92.982 19.4359 93.127 20.9961 93.091 22.7761C93.091 23.5761 93.018 24.206 92.873 24.676C92.764 25.116 92.528 25.466 92.165 25.716H81.876C81.114 25.716 80.588 25.876 80.298 26.206C80.044 26.536 79.79 26.946 79.535 27.456C79.527 27.396 79.518 27.3361 79.511 27.2761C79.517 27.4561 79.525 27.6459 79.535 27.8359C79.681 30.5959 80.279 33.2659 81.332 35.8359H77.031C75.979 32.8659 75.434 30.0559 75.398 27.4059C75.362 24.7159 75.688 22.246 76.378 19.996C77.104 17.746 77.993 15.7761 79.046 14.0661H82.53ZM81.332 35.8359C82.022 36.3459 82.82 36.7659 83.727 37.0959C84.635 37.3859 85.596 37.4561 86.613 37.3061C87.629 37.1261 88.627 36.6359 89.607 35.8359L91.022 36.986C90.042 38.576 88.754 39.656 87.157 40.196C85.596 40.736 83.999 40.7259 82.366 40.1459C80.733 39.5259 79.354 38.476 78.229 36.986L81.332 35.8359ZM132.613 35.8359C132.868 35.2259 133.122 34.516 133.376 33.716C133.63 32.886 133.811 32.116 133.92 31.436C134.174 31.216 134.428 31.0861 134.682 31.0461C134.936 31.0161 135.172 31.066 135.39 31.216C135.644 31.356 135.862 31.526 136.043 31.706C135.934 32.396 135.807 33.0959 135.662 33.8259C135.517 34.5559 135.354 35.2259 135.172 35.8359H132.613ZM124.339 35.8359C125.028 36.3459 125.827 36.7659 126.734 37.0959C127.641 37.3859 128.603 37.4561 129.619 37.3061C130.636 37.1261 131.634 36.6359 132.613 35.8359L134.029 36.986C133.049 38.576 131.761 39.656 130.164 40.196C128.603 40.736 127.006 40.7259 125.373 40.1459C123.74 39.5259 122.343 38.476 121.181 36.986L124.339 35.8359ZM125.482 14.0661C124.538 15.6261 123.776 17.6261 123.196 20.0561C123.009 20.8361 122.859 21.636 122.748 22.456C122.85 22.726 122.982 22.9359 123.141 23.1059C123.359 23.2859 123.685 23.396 124.121 23.426C124.738 23.426 125.464 23.446 126.299 23.486H128.912C129.674 23.486 130.236 23.4261 130.599 23.3161C130.998 23.2161 131.361 23.0261 131.688 22.7761C131.833 22.4161 131.906 22.046 131.906 21.686C131.942 21.286 131.96 20.866 131.96 20.436V20.166C131.96 18.856 131.833 17.696 131.579 16.676C131.361 15.626 130.998 14.7561 130.49 14.0661H129.565C128.803 13.7361 128.095 13.616 127.442 13.686C126.788 13.716 126.135 13.8461 125.482 14.0661L123.25 12.926C124.448 12.306 125.464 11.9261 126.299 11.7761C127.17 11.6361 128.168 11.5661 129.293 11.5661C129.946 11.8161 130.599 12.1461 131.252 12.5361C131.906 12.9061 132.45 13.4161 132.886 14.0661H134.029C134.791 15.4061 135.335 16.7459 135.662 18.0959C135.989 19.4359 136.116 20.9961 136.043 22.7761C136.043 23.5761 135.989 24.206 135.88 24.676C135.771 25.116 135.517 25.466 135.118 25.716H124.829C124.103 25.716 123.595 25.876 123.304 26.206C123.05 26.536 122.796 26.946 122.542 27.456C122.534 27.396 122.525 27.3361 122.518 27.2761C122.524 27.4661 122.532 27.6459 122.542 27.8359C122.687 30.5959 123.286 33.2659 124.339 35.8359H120.038C118.986 32.8659 118.441 30.0559 118.405 27.4059C118.369 24.7159 118.695 22.246 119.385 19.996C120.111 17.746 121 15.7761 122.052 14.0661H125.482ZM100.603 36.436C100.603 37.236 100.748 37.746 101.039 37.966C101.329 38.186 101.765 38.366 102.345 38.506C102.382 38.546 102.418 38.5661 102.454 38.5661H102.618C103.017 38.7061 103.289 38.836 103.434 38.946C103.579 39.016 103.652 39.196 103.652 39.486C103.652 39.706 103.579 39.866 103.434 39.976C103.325 40.086 103.162 40.176 102.944 40.246H94.942C94.651 40.176 94.452 40.1061 94.343 40.0361C94.234 39.9261 94.18 39.726 94.18 39.436C94.18 39.256 94.252 39.106 94.397 38.996C94.542 38.886 94.815 38.7659 95.214 38.6159C95.323 38.5459 95.432 38.486 95.54 38.456C95.686 38.416 95.813 38.3859 95.922 38.3459C96.248 38.1259 96.448 37.8959 96.52 37.6359C96.593 37.3459 96.629 36.946 96.629 36.436L96.575 20.706C96.575 19.396 96.756 18.236 97.119 17.226C97.518 16.206 98.117 15.1561 98.916 14.0661H100.113C100.367 13.5561 100.73 13.126 101.202 12.756C101.71 12.396 102.218 12.036 102.726 11.666C103.779 11.566 104.723 11.506 105.557 11.506C106.392 11.506 107.336 11.576 108.388 11.726C108.896 12.086 109.35 12.416 109.749 12.706C110.148 12.996 110.584 13.4461 111.056 14.0661H112.199C113.07 15.0861 113.687 16.066 114.05 17.006C114.449 17.946 114.649 19.0361 114.649 20.2761L114.703 36.436C114.703 36.916 114.739 37.2959 114.812 37.5859C114.921 37.8759 115.139 38.1259 115.465 38.3459C115.574 38.3859 115.683 38.416 115.792 38.456C115.937 38.486 116.082 38.5459 116.227 38.6159C116.627 38.7259 116.935 38.836 117.153 38.946C117.371 39.056 117.479 39.216 117.479 39.436C117.479 39.726 117.425 39.9261 117.316 40.0361C117.207 40.1061 116.989 40.176 116.663 40.246H108.878C108.66 40.176 108.479 40.086 108.334 39.976C108.225 39.866 108.17 39.706 108.17 39.486C108.17 39.236 108.261 39.056 108.443 38.946C108.66 38.796 108.969 38.6761 109.368 38.5661C109.731 38.4161 110.021 38.216 110.239 37.966C110.493 37.706 110.62 37.206 110.62 36.436V19.0759C110.62 17.6959 110.366 16.656 109.858 15.966C109.386 15.246 108.787 14.6061 108.061 14.0661H107.463C106.773 13.9161 106.156 13.8459 105.612 13.8459C105.104 13.8459 104.505 13.9161 103.815 14.0661H102.944C102.327 14.6061 101.783 15.246 101.311 15.966C100.839 16.696 100.603 17.6759 100.603 18.9059V36.436ZM10.833 37.746C10.833 36.986 11.051 36.236 11.487 35.516C12.213 35.076 12.957 34.8559 13.719 34.8559C14.517 34.8259 15.261 35.026 15.951 35.456C16.386 36.146 16.604 36.896 16.604 37.696C16.64 38.456 16.441 39.1759 16.005 39.8659C15.279 40.3459 14.535 40.5759 13.773 40.5759C13.011 40.5759 12.267 40.376 11.541 39.976C11.106 39.256 10.87 38.506 10.833 37.746Z" fill="black"/>
</svg>
