<svg width="136" height="41" viewBox="0 0 136 41" fill="none" xmlns="http://www.w3.org/2000/svg">
<path fill-rule="evenodd" clip-rule="evenodd" d="M4.355 14.496C5.371 14.576 6.406 14.4261 7.458 14.0661C8.547 13.7061 9.908 13.1961 11.541 12.5361L13.065 11.946L13.12 16.516C11.305 17.136 9.726 17.546 8.384 17.766C7.077 17.946 5.734 17.8761 4.355 17.5461V14.496ZM4.355 14.496L3.212 16.4059C2.196 15.7859 1.397 14.976 0.817 13.956C0.272 12.936 0 11.776 0 10.476C0.254 9.30601 0.726 8.33607 1.415 7.53607C2.105 6.73607 3.085 6.02594 4.355 5.40594V4.3161L6.642 3.17596C7.077 2.92596 7.458 2.70606 7.785 2.52606C8.111 2.34606 8.42 2.21593 8.71 2.14593V0.996028C9.364 0.816028 9.944 0.785931 10.452 0.895931C10.96 0.995931 11.432 1.25594 11.868 1.65594C12.086 2.30594 12.104 2.86587 11.922 3.33587C11.777 3.77587 11.45 4.24604 10.942 4.75604L8.71 5.29608V6.44598C7.984 6.66598 7.204 6.93604 6.369 7.25604C5.535 7.58604 4.863 7.84606 4.355 8.02606V8.34588C3.883 8.81588 3.448 9.3061 3.049 9.8161C2.686 10.2861 2.504 10.906 2.504 11.666C2.504 12.506 2.686 13.1559 3.049 13.6259C3.448 14.0659 3.883 14.356 4.355 14.496ZM20.959 22.7761C20.705 22.9561 20.451 23.116 20.197 23.266C19.943 23.406 19.689 23.576 19.435 23.756C17.838 24.776 16.622 25.6261 15.787 26.3161C14.953 26.9661 14.535 27.7259 14.535 28.5959V31.1059C14.318 31.3259 14.082 31.4661 13.828 31.5361C13.573 31.6161 13.319 31.6161 13.065 31.5361C12.811 31.4361 12.594 31.2661 12.412 31.0461V28.706C12.412 27.436 12.63 26.4259 13.065 25.6559C13.501 24.8959 14.063 24.0659 14.753 23.1559L15.025 22.7761H16.168C16.531 22.3061 16.949 21.8861 17.421 21.5261C17.929 21.1561 18.473 20.7461 19.054 20.2761C19.417 19.9761 19.816 19.706 20.251 19.456C20.723 19.166 21.177 18.816 21.612 18.416H22.756C23.409 17.656 23.917 16.9859 24.28 16.4059C24.679 15.8259 24.879 15.0461 24.879 14.0661H26.131V12.926H25.314C25.133 12.416 24.806 11.996 24.334 11.666C23.862 11.346 23.282 11.176 22.592 11.176C21.83 11.176 21.032 11.3259 20.197 11.6159C19.362 11.8659 18.437 12.2159 17.421 12.6459V13.7961L13.12 15.3759L13.065 10.7961C13.537 10.6561 14.154 10.456 14.916 10.196C15.715 9.90598 16.549 9.65597 17.421 9.43597V8.29608C18.909 7.93608 20.378 7.76609 21.83 7.80609C23.282 7.84609 24.715 8.40603 26.131 9.49603V10.9059L27.274 10.6359C27.492 11.1459 27.709 11.686 27.927 12.266C28.145 12.846 28.308 13.4461 28.417 14.0661H27.328C27.437 14.8261 27.474 15.5761 27.437 16.2961C27.437 16.9861 27.31 17.696 27.056 18.416H25.913C25.659 19.296 25.169 20.056 24.443 20.706C23.754 21.356 22.955 22.0461 22.048 22.7761H20.959ZM39.196 37.476L38.053 39.3259C36.819 38.8559 35.821 38.416 35.059 38.016C34.297 37.616 33.916 37.096 33.916 36.436L33.807 33.226L33.698 28.5959C33.879 28.3459 34.097 28.1661 34.351 28.0561C34.605 27.9061 34.859 27.896 35.113 28.006C35.404 28.076 35.676 28.216 35.93 28.436L36.093 29.3061C36.456 31.1261 36.855 32.686 37.291 33.986C37.763 35.256 38.398 36.426 39.196 37.476ZM39.196 3.6159V1.216C40.866 0.745999 42.444 0.545902 43.932 0.615902C45.42 0.655902 46.745 0.786028 47.906 0.996028V2.14593C48.705 2.35593 49.34 2.57608 49.812 2.79608C50.32 2.97608 50.701 3.2459 50.955 3.6159L51.064 7.80609C51.1 9.21609 51.118 10.6559 51.118 12.1059C50.937 12.3559 50.719 12.5359 50.465 12.6459C50.211 12.7559 49.939 12.776 49.648 12.706C49.358 12.636 49.104 12.466 48.886 12.216C48.669 11.166 48.487 10.326 48.342 9.70599C48.197 9.05599 48.051 8.40603 47.906 7.74603V6.76605C47.108 5.42605 46.237 4.44586 45.293 3.82586C44.35 3.21586 43.37 2.90594 42.354 2.90594C41.337 2.90594 40.285 3.1459 39.196 3.6159ZM48.07 35.8359C48.795 33.2259 48.832 30.8861 48.179 28.8161C47.525 26.7161 46.527 24.6961 45.184 22.7761H44.041C43.715 22.3361 43.37 21.9559 43.007 21.6359C42.644 21.2659 42.263 20.866 41.864 20.436C41.573 20.106 41.247 19.796 40.884 19.506C40.557 19.186 40.23 18.816 39.904 18.416H38.815C38.053 17.516 37.436 16.7459 36.964 16.1359C36.529 15.4759 36.184 14.7961 35.93 14.0661H34.786C34.46 13.2661 34.17 12.156 33.916 10.746C33.698 9.29603 33.861 7.82587 34.406 6.33587C34.95 4.80587 36.166 3.46609 38.053 2.30609L39.196 3.6159C38.434 4.5559 37.944 5.60605 37.726 6.76605C37.509 7.93605 37.581 9.14595 37.944 10.416C38.307 11.656 38.96 12.8661 39.904 14.0661H41.047C41.483 14.7161 42.045 15.426 42.735 16.186C43.461 16.916 44.168 17.656 44.858 18.416H46.001C46.582 19.146 47.126 19.836 47.634 20.486C48.179 21.106 48.705 21.8661 49.213 22.7761H50.302C51.354 24.7761 52.026 26.8561 52.316 29.0361C52.643 31.1761 52.316 33.4459 51.336 35.8359H48.07ZM39.196 37.476C40.249 37.946 41.319 38.2161 42.408 38.2861C43.497 38.3261 44.513 38.146 45.457 37.746C46.437 37.306 47.308 36.6759 48.07 35.8359L50.193 36.986C48.777 38.436 47.144 39.4561 45.293 40.0361C43.442 40.5761 41.41 40.706 39.196 40.416V37.476ZM61.353 35.8359C62.006 36.3459 62.732 36.7659 63.53 37.0959C64.365 37.3859 65.236 37.4561 66.143 37.3061C67.087 37.1261 68.049 36.6359 69.029 35.8359L70.499 36.986C69.482 38.546 68.23 39.616 66.742 40.196C65.254 40.776 63.712 40.776 62.115 40.196C60.554 39.656 59.193 38.576 58.032 36.986L61.353 35.8359ZM62.55 14.0661C61.643 15.6261 60.917 17.6261 60.373 20.0561C59.865 22.4461 59.665 25.0459 59.774 27.8359C59.919 30.5959 60.446 33.2659 61.353 35.8359H56.889C55.873 32.7959 55.383 29.926 55.419 27.236C55.455 24.556 55.873 22.126 56.671 19.946C57.469 17.726 58.431 15.7761 59.556 14.0661H62.55ZM69.029 35.8359C69.246 35.3659 69.446 34.896 69.628 34.426C69.809 33.916 69.954 33.4059 70.063 32.9059L70.226 32.3559C70.517 32.1359 70.789 32.0261 71.043 32.0261C71.297 31.9961 71.515 32.046 71.696 32.196C71.914 32.336 72.095 32.516 72.241 32.736C72.168 33.246 72.077 33.756 71.968 34.266C71.896 34.736 71.787 35.2559 71.642 35.8359H69.029ZM62.55 14.0661L60.7 12.926C61.934 12.376 63.022 12.0159 63.966 11.8359C64.909 11.6159 65.926 11.506 67.014 11.506C67.849 11.756 68.484 12.086 68.92 12.486C69.392 12.846 69.718 13.3761 69.9 14.0661H71.043C71.406 14.9361 71.624 15.8659 71.696 16.8459C71.769 17.7859 71.805 18.8561 71.805 20.0561V20.3759C71.624 20.5959 71.424 20.7659 71.206 20.8659C70.989 20.9759 70.734 20.996 70.444 20.926C70.19 20.856 69.918 20.706 69.628 20.486C69.591 20.376 69.555 20.2559 69.519 20.1059C69.482 19.9259 69.446 19.726 69.41 19.506C69.083 18.206 68.738 17.116 68.375 16.246C68.049 15.376 67.631 14.6461 67.123 14.0661H66.252C65.526 13.7761 64.873 13.666 64.293 13.736C63.712 13.776 63.131 13.8861 62.55 14.0661ZM89.607 35.8359C89.861 35.2259 90.115 34.516 90.369 33.716C90.623 32.886 90.804 32.116 90.913 31.436C91.167 31.216 91.421 31.0861 91.675 31.0461C91.929 31.0161 92.165 31.066 92.383 31.216C92.637 31.356 92.837 31.526 92.982 31.706C92.909 32.396 92.782 33.0959 92.601 33.8259C92.456 34.5559 92.31 35.2259 92.165 35.8359H89.607ZM82.53 14.0661C81.55 15.5861 80.751 17.566 80.134 19.996C79.948 20.776 79.799 21.5759 79.687 22.3959C79.691 22.3759 79.695 22.3559 79.699 22.3359C79.808 22.6659 79.953 22.9159 80.134 23.1059C80.352 23.2859 80.661 23.396 81.06 23.426C81.677 23.466 82.403 23.486 83.237 23.486H85.85C86.649 23.486 87.23 23.4261 87.592 23.3161C87.992 23.2161 88.355 23.0261 88.681 22.7761C88.826 22.4161 88.899 22.046 88.899 21.686C88.935 21.286 88.953 20.866 88.953 20.436V20.216C88.953 18.876 88.826 17.696 88.572 16.676C88.355 15.626 87.992 14.7561 87.484 14.0661H86.558C85.796 13.7361 85.088 13.616 84.435 13.686C83.782 13.716 83.147 13.8461 82.53 14.0661L80.189 12.926C81.423 12.346 82.457 11.9759 83.292 11.8359C84.163 11.6559 85.143 11.5661 86.231 11.5661C86.885 11.8161 87.538 12.1461 88.191 12.5361C88.845 12.9061 89.389 13.4161 89.824 14.0661H90.968C91.766 15.4061 92.31 16.7459 92.601 18.0959C92.927 19.4359 93.073 20.9961 93.036 22.7761C93.036 23.5761 92.964 24.206 92.819 24.676C92.71 25.116 92.474 25.4459 92.111 25.6559C91.385 25.6959 90.496 25.716 89.443 25.716C88.391 25.676 87.121 25.6559 85.633 25.6559H81.767C81.042 25.6559 80.534 25.846 80.243 26.206C79.989 26.536 79.735 26.946 79.481 27.456C79.472 27.396 79.464 27.3361 79.457 27.2761C79.463 27.4561 79.471 27.6459 79.481 27.8359C79.626 30.6359 80.243 33.2959 81.332 35.8359H77.031C75.942 32.9059 75.38 30.0859 75.344 27.4059C75.344 24.6759 75.688 22.216 76.378 19.996C77.104 17.746 78.011 15.7761 79.1 14.0661H82.53ZM81.332 35.8359C82.022 36.3459 82.82 36.7659 83.727 37.0959C84.635 37.3859 85.578 37.4561 86.558 37.3061C87.574 37.1261 88.59 36.6359 89.607 35.8359L91.022 36.986C90.042 38.546 88.754 39.616 87.157 40.196C85.596 40.736 83.981 40.7259 82.312 40.1459C80.679 39.5259 79.281 38.476 78.12 36.986L81.332 35.8359ZM132.613 35.8359C132.868 35.2259 133.122 34.516 133.376 33.716C133.63 32.886 133.811 32.116 133.92 31.436C134.174 31.216 134.428 31.0861 134.682 31.0461C134.936 31.0161 135.172 31.066 135.39 31.216C135.608 31.356 135.807 31.526 135.989 31.706C135.88 32.396 135.753 33.0959 135.608 33.8259C135.462 34.5559 135.299 35.2259 135.118 35.8359H132.613ZM124.339 35.8359C124.992 36.3459 125.772 36.7659 126.68 37.0959C127.623 37.3859 128.585 37.4561 129.565 37.3061C130.581 37.1261 131.597 36.6359 132.613 35.8359L133.974 36.986C133.031 38.546 131.761 39.616 130.164 40.196C128.567 40.736 126.934 40.7259 125.264 40.1459C123.631 39.5259 122.252 38.476 121.127 36.986L124.339 35.8359ZM125.482 14.0661C124.502 15.5861 123.722 17.566 123.141 19.996C122.951 20.796 122.8 21.606 122.688 22.436C122.792 22.716 122.925 22.9359 123.087 23.1059C123.304 23.2859 123.631 23.396 124.067 23.426C124.684 23.466 125.409 23.486 126.244 23.486H128.857C129.619 23.486 130.182 23.4261 130.545 23.3161C130.944 23.2161 131.307 23.0261 131.634 22.7761C131.779 22.4161 131.869 22.046 131.906 21.686C131.942 21.286 131.96 20.866 131.96 20.436V20.216C131.96 18.876 131.833 17.696 131.579 16.676C131.325 15.626 130.944 14.7561 130.436 14.0661H129.565C128.803 13.7361 128.077 13.616 127.387 13.686C126.734 13.716 126.099 13.8461 125.482 14.0661L123.196 12.926C124.393 12.346 125.409 11.9759 126.244 11.8359C127.115 11.6559 128.095 11.5661 129.184 11.5661C129.873 11.8161 130.545 12.1461 131.198 12.5361C131.851 12.9061 132.396 13.4161 132.831 14.0661H133.974C134.737 15.4061 135.281 16.7459 135.608 18.0959C135.934 19.4359 136.061 20.9961 135.989 22.7761C135.989 23.5761 135.934 24.206 135.825 24.676C135.716 25.116 135.462 25.4459 135.063 25.6559C134.374 25.6959 133.503 25.716 132.45 25.716C131.398 25.676 130.109 25.6559 128.585 25.6559H124.774C124.048 25.6559 123.54 25.846 123.25 26.206C122.996 26.536 122.742 26.946 122.488 27.456C122.48 27.396 122.472 27.3361 122.464 27.2861C122.47 27.4661 122.478 27.6459 122.488 27.8359C122.633 30.6359 123.25 33.2959 124.339 35.8359H119.984C118.931 32.9059 118.387 30.0859 118.35 27.4059C118.314 24.6759 118.659 22.216 119.385 19.996C120.111 17.746 121 15.7761 122.052 14.0661H125.482ZM100.549 36.436C100.549 37.236 100.694 37.766 100.984 38.016C101.311 38.236 101.747 38.396 102.291 38.506C102.364 38.546 102.418 38.5661 102.454 38.5661C102.491 38.5661 102.527 38.5759 102.563 38.6159C102.999 38.7259 103.289 38.836 103.434 38.946C103.579 39.056 103.652 39.236 103.652 39.486C103.652 39.706 103.579 39.866 103.434 39.976C103.325 40.086 103.144 40.176 102.89 40.246H94.887C94.597 40.176 94.379 40.1061 94.234 40.0361C94.125 39.9261 94.071 39.726 94.071 39.436C94.071 39.256 94.143 39.106 94.288 38.996C94.47 38.886 94.76 38.7659 95.159 38.6159C95.268 38.5759 95.377 38.546 95.486 38.506C95.631 38.436 95.758 38.3859 95.867 38.3459C96.194 38.1259 96.393 37.8959 96.466 37.6359C96.539 37.3459 96.575 36.946 96.575 36.436L96.52 20.706C96.52 19.396 96.702 18.236 97.065 17.226C97.464 16.206 98.081 15.1561 98.916 14.0661H100.059C100.313 13.5961 100.694 13.1761 101.202 12.8161C101.71 12.4161 102.218 12.036 102.726 11.666C103.743 11.566 104.668 11.506 105.503 11.506C106.338 11.506 107.281 11.576 108.334 11.726C108.842 12.126 109.295 12.466 109.695 12.756C110.094 13.016 110.529 13.4461 111.001 14.0661H112.144C113.015 15.0861 113.632 16.066 113.995 17.006C114.395 17.946 114.594 19.0361 114.594 20.2761L114.649 36.436C114.649 36.916 114.685 37.2959 114.757 37.5859C114.866 37.8759 115.084 38.1259 115.411 38.3459C115.556 38.4159 115.683 38.476 115.792 38.506C115.937 38.546 116.082 38.5759 116.227 38.6159C116.627 38.7259 116.935 38.836 117.153 38.946C117.371 39.056 117.479 39.216 117.479 39.436C117.479 39.726 117.425 39.9261 117.316 40.0361C117.207 40.1061 116.989 40.176 116.663 40.246H108.824C108.606 40.176 108.424 40.086 108.279 39.976C108.17 39.866 108.116 39.706 108.116 39.486C108.116 39.236 108.207 39.056 108.388 38.946C108.606 38.796 108.914 38.6761 109.314 38.5661C109.676 38.4161 109.985 38.236 110.239 38.016C110.493 37.766 110.602 37.236 110.566 36.436V19.0759C110.566 17.6959 110.312 16.656 109.804 15.966C109.332 15.246 108.733 14.6061 108.007 14.0661H107.408C106.719 13.9161 106.102 13.8459 105.557 13.8459C105.049 13.8459 104.45 13.9161 103.761 14.0661H102.944C102.291 14.6061 101.728 15.246 101.257 15.966C100.785 16.696 100.549 17.6759 100.549 18.9059V36.436ZM10.779 37.746C10.779 36.946 11.015 36.206 11.487 35.516C12.213 35.046 12.957 34.8061 13.719 34.8061C14.481 34.8061 15.225 35.026 15.951 35.456C16.386 36.146 16.604 36.896 16.604 37.696C16.64 38.456 16.422 39.1759 15.951 39.8659C15.261 40.3459 14.517 40.5759 13.719 40.5759C12.957 40.5759 12.231 40.376 11.541 39.976C11.069 39.256 10.815 38.506 10.779 37.746Z" fill="black"/>
</svg>
