<svg width="136" height="41" viewBox="0 0 136 41" fill="none" xmlns="http://www.w3.org/2000/svg">
<path fill-rule="evenodd" clip-rule="evenodd" d="M4.355 14.496L3.266 16.456C2.25 15.846 1.452 15.026 0.871 14.006C0.29 12.956 0 11.776 0 10.476C0.218 9.30601 0.671 8.33607 1.361 7.53607C2.087 6.69607 3.085 5.97589 4.355 5.35589V4.26605L6.642 3.12591C7.077 2.90591 7.458 2.70606 7.785 2.52606C8.111 2.30606 8.42 2.16587 8.71 2.08587V0.996028C9.364 0.816028 9.944 0.79598 10.452 0.94598C10.96 1.05598 11.432 1.28594 11.868 1.65594C12.049 2.30594 12.049 2.86587 11.868 3.33587C11.723 3.77587 11.414 4.24604 10.942 4.75604L8.71 5.29608V6.38592C7.984 6.60592 7.204 6.89604 6.369 7.25604C5.535 7.58604 4.863 7.826 4.355 7.966V8.34588C3.847 8.78588 3.393 9.25605 2.994 9.76605C2.631 10.276 2.45 10.906 2.45 11.666C2.45 12.466 2.631 13.1059 2.994 13.5759C3.393 14.0459 3.847 14.356 4.355 14.496ZM4.355 14.496C5.335 14.606 6.369 14.4859 7.458 14.1159C8.547 13.7159 9.908 13.176 11.541 12.486L13.065 11.8859L13.12 16.516C11.305 17.136 9.726 17.546 8.384 17.766C7.077 17.946 5.734 17.856 4.355 17.496V14.496ZM20.959 22.7761C20.741 22.9561 20.505 23.116 20.251 23.266C19.997 23.406 19.743 23.576 19.489 23.756C17.82 24.776 16.568 25.6261 15.733 26.3161C14.898 27.0061 14.481 27.7659 14.481 28.5959V31.0461C14.299 31.2661 14.082 31.4361 13.828 31.5361C13.573 31.6161 13.319 31.6161 13.065 31.5361C12.811 31.4361 12.594 31.2661 12.412 31.0461V28.706C12.412 27.436 12.63 26.4259 13.065 25.6559C13.501 24.8659 14.082 24.0059 14.807 23.1059L15.08 22.7761H16.168C16.495 22.3361 16.912 21.9359 17.421 21.5759C17.929 21.1759 18.473 20.7659 19.054 20.3259C19.453 19.9959 19.87 19.706 20.306 19.456C20.741 19.166 21.195 18.816 21.667 18.416H22.756C23.445 17.656 23.971 16.9859 24.334 16.4059C24.734 15.8259 24.933 15.0461 24.933 14.0661H26.131V12.976H25.314C25.169 12.466 24.86 12.056 24.389 11.726C23.917 11.366 23.336 11.176 22.647 11.176C21.885 11.176 21.068 11.3259 20.197 11.6159C19.362 11.9059 18.437 12.266 17.421 12.706V13.7961L13.12 15.426L13.065 10.7961C13.537 10.6861 14.154 10.506 14.916 10.256C15.715 9.96604 16.549 9.69597 17.421 9.43597V8.34588C18.909 7.98588 20.378 7.82589 21.83 7.85589C23.282 7.89589 24.715 8.45608 26.131 9.54608V10.9059L27.22 10.6359C27.474 11.1459 27.709 11.686 27.927 12.266C28.145 12.846 28.308 13.4461 28.417 14.0661H27.328C27.474 14.8261 27.528 15.5761 27.492 16.2961C27.455 16.9861 27.31 17.696 27.056 18.416H25.967C25.713 19.296 25.223 20.076 24.498 20.766C23.808 21.416 22.991 22.0861 22.048 22.7761H20.959ZM48.07 35.8359C48.795 33.2659 48.814 30.9261 48.124 28.8161C47.471 26.7161 46.473 24.6961 45.13 22.7761H44.041C43.715 22.3361 43.37 21.9559 43.007 21.6359C42.644 21.2659 42.245 20.866 41.809 20.436C41.519 20.106 41.192 19.796 40.829 19.506C40.503 19.186 40.176 18.816 39.849 18.416H38.761C37.998 17.546 37.382 16.7859 36.91 16.1359C36.474 15.4459 36.129 14.7561 35.875 14.0661H34.786C34.424 13.2661 34.133 12.156 33.916 10.746C33.698 9.29603 33.861 7.80606 34.406 6.27606C34.986 4.75606 36.22 3.43609 38.107 2.30609L39.196 3.6159C38.434 4.5159 37.926 5.556 37.672 6.716C37.454 7.876 37.527 9.0959 37.89 10.3659C38.253 11.6359 38.942 12.8661 39.958 14.0661H40.993C41.428 14.7161 42.009 15.426 42.735 16.186C43.461 16.916 44.186 17.656 44.912 18.416H46.001C46.545 19.146 47.09 19.836 47.634 20.486C48.179 21.106 48.705 21.8661 49.213 22.7761H50.302C51.354 24.7761 52.026 26.8561 52.316 29.0361C52.643 31.2161 52.316 33.4859 51.336 35.8359H48.07ZM39.196 37.476C40.249 37.986 41.319 38.2759 42.408 38.3459C43.497 38.3859 44.531 38.186 45.511 37.746C46.491 37.306 47.344 36.6759 48.07 35.8359L50.247 36.926C48.795 38.386 47.144 39.396 45.293 39.976C43.479 40.556 41.446 40.726 39.196 40.466V37.476ZM39.196 37.476L38.107 39.3759C36.873 38.9059 35.857 38.4759 35.059 38.0759C34.297 37.6759 33.916 37.146 33.916 36.496L33.807 33.2861L33.698 28.5959C33.879 28.3459 34.079 28.1661 34.297 28.0561C34.551 27.9461 34.823 27.926 35.113 28.006C35.404 28.076 35.658 28.236 35.875 28.496L36.039 29.3659C36.402 31.1359 36.801 32.686 37.236 33.986C37.708 35.256 38.361 36.426 39.196 37.476ZM39.196 3.6159V1.216C40.866 0.745999 42.444 0.545902 43.932 0.615902C45.42 0.655902 46.745 0.786028 47.906 0.996028V2.08587C48.705 2.30587 49.34 2.52603 49.812 2.74603C50.283 2.95603 50.665 3.2459 50.955 3.6159L51.064 7.80609C51.1 9.21609 51.118 10.6559 51.118 12.1059C50.937 12.3559 50.719 12.5359 50.465 12.6459C50.211 12.7559 49.939 12.776 49.648 12.706C49.394 12.596 49.14 12.4159 48.886 12.1559C48.669 11.1059 48.487 10.2759 48.342 9.65594C48.197 9.03594 48.051 8.40603 47.906 7.74603V6.76605C47.108 5.42605 46.237 4.44586 45.293 3.82586C44.35 3.17586 43.352 2.84588 42.299 2.84588C41.283 2.84588 40.249 3.1059 39.196 3.6159ZM69.029 35.8359C69.246 35.3659 69.446 34.896 69.628 34.426C69.809 33.916 69.954 33.4059 70.063 32.9059L70.226 32.3559C70.517 32.1359 70.789 32.0261 71.043 32.0261C71.297 31.9961 71.515 32.046 71.696 32.196C71.914 32.336 72.077 32.516 72.186 32.736C72.15 33.286 72.077 33.786 71.968 34.266C71.86 34.736 71.733 35.2559 71.587 35.8359H69.029ZM61.353 35.8359C62.006 36.3459 62.732 36.7659 63.53 37.0959C64.329 37.4159 65.2 37.5059 66.143 37.3659C67.087 37.1859 68.049 36.6759 69.029 35.8359L70.499 36.926C69.519 38.486 68.266 39.576 66.742 40.196C65.254 40.816 63.712 40.836 62.115 40.246C60.554 39.666 59.175 38.566 57.978 36.926L61.353 35.8359ZM62.55 14.0661C61.679 15.5861 60.954 17.566 60.373 19.996C59.829 22.426 59.629 25.0459 59.774 27.8359C59.919 30.5959 60.446 33.2659 61.353 35.8359H56.889C55.873 32.8259 55.383 29.9761 55.419 27.2961C55.455 24.5761 55.873 22.1059 56.671 19.8859C57.469 17.6759 58.449 15.7361 59.611 14.0661H62.55ZM62.55 14.0661L60.7 12.976C61.897 12.436 62.968 12.0659 63.911 11.8859C64.891 11.6659 65.908 11.5661 66.96 11.5661C67.831 11.8161 68.484 12.1461 68.92 12.5361C69.355 12.9061 69.7 13.4161 69.954 14.0661H70.989C71.351 14.8961 71.569 15.8061 71.642 16.7861C71.751 17.7661 71.805 18.8561 71.805 20.0561V20.3759C71.624 20.5959 71.424 20.776 71.206 20.926C70.989 21.036 70.734 21.056 70.444 20.976C70.19 20.906 69.918 20.746 69.628 20.486C69.591 20.376 69.537 20.2559 69.464 20.1059C69.428 19.9259 69.41 19.726 69.41 19.506C69.083 18.206 68.738 17.116 68.375 16.246C68.049 15.376 67.631 14.6461 67.123 14.0661H66.252C65.526 13.7761 64.873 13.666 64.293 13.736C63.712 13.776 63.131 13.8861 62.55 14.0661ZM89.552 35.8359C89.843 35.2559 90.115 34.556 90.369 33.716C90.623 32.886 90.804 32.116 90.913 31.436C91.167 31.216 91.421 31.0861 91.675 31.0461C91.929 31.0161 92.165 31.066 92.383 31.216C92.601 31.326 92.782 31.506 92.927 31.756C92.855 32.416 92.728 33.0959 92.546 33.8259C92.401 34.5559 92.256 35.2259 92.111 35.8359H89.552ZM81.332 35.8359C81.985 36.3459 82.766 36.7659 83.673 37.0959C84.58 37.4159 85.542 37.5059 86.558 37.3659C87.574 37.1859 88.572 36.6759 89.552 35.8359L91.022 36.926C90.042 38.526 88.754 39.616 87.157 40.196C85.56 40.736 83.927 40.7259 82.257 40.1459C80.588 39.5259 79.191 38.456 78.066 36.926L81.332 35.8359ZM82.475 14.0661C81.495 15.5561 80.697 17.536 80.08 19.996C79.893 20.776 79.744 21.5759 79.633 22.3959C79.637 22.3759 79.64 22.3559 79.644 22.3359C79.753 22.6659 79.898 22.9159 80.08 23.1059C80.298 23.2859 80.606 23.396 81.005 23.426C81.622 23.466 82.348 23.5061 83.183 23.5361H85.85C86.613 23.5361 87.175 23.4859 87.538 23.3759C87.937 23.2259 88.3 23.0261 88.627 22.7761C88.772 22.4161 88.845 22.046 88.845 21.686C88.881 21.286 88.899 20.886 88.899 20.486V20.216C88.899 18.876 88.772 17.696 88.518 16.676C88.3 15.626 87.937 14.7561 87.429 14.0661H86.558C85.796 13.7361 85.07 13.616 84.381 13.686C83.727 13.716 83.092 13.8461 82.475 14.0661L80.189 12.976C81.386 12.396 82.403 12.0359 83.237 11.8859C84.108 11.7059 85.07 11.6159 86.123 11.6159C86.812 11.8359 87.484 12.1461 88.137 12.5361C88.826 12.9061 89.389 13.4161 89.824 14.0661H90.913C91.712 15.4061 92.274 16.7659 92.601 18.1459C92.927 19.4959 93.054 21.0361 92.982 22.7761C92.982 23.5761 92.909 24.1859 92.764 24.6259C92.655 25.0659 92.419 25.4059 92.056 25.6559C91.367 25.6959 90.478 25.716 89.389 25.716C88.336 25.676 87.066 25.6559 85.578 25.6559H81.713C80.987 25.6559 80.479 25.846 80.189 26.206C79.935 26.536 79.681 26.946 79.427 27.456L79.394 26.996C79.401 27.276 79.412 27.5559 79.427 27.8359C79.608 30.6359 80.243 33.2959 81.332 35.8359H76.977C75.888 32.9059 75.326 30.0859 75.289 27.4059C75.289 24.6759 75.652 22.196 76.378 19.946C77.104 17.696 78.011 15.7361 79.1 14.0661H82.475ZM132.559 35.8359C132.813 35.2559 133.067 34.556 133.321 33.716C133.612 32.886 133.811 32.116 133.92 31.436C134.138 31.216 134.374 31.0861 134.628 31.0461C134.882 31.0161 135.118 31.066 135.335 31.216C135.589 31.326 135.789 31.506 135.934 31.756C135.862 32.416 135.735 33.0959 135.553 33.8259C135.408 34.5559 135.245 35.2259 135.063 35.8359H132.559ZM124.284 35.8359C124.938 36.3459 125.718 36.7659 126.625 37.0959C127.569 37.4159 128.549 37.5059 129.565 37.3659C130.581 37.1859 131.579 36.6759 132.559 35.8359L133.974 36.926C133.031 38.526 131.761 39.616 130.164 40.196C128.567 40.736 126.934 40.7259 125.264 40.1459C123.595 39.5259 122.197 38.456 121.072 36.926L124.284 35.8359ZM125.482 14.0661C124.502 15.5561 123.704 17.536 123.087 19.996C122.897 20.796 122.746 21.606 122.634 22.436C122.738 22.716 122.871 22.9359 123.032 23.1059C123.25 23.2859 123.577 23.396 124.012 23.426C124.593 23.466 125.319 23.5061 126.19 23.5361H128.803C129.565 23.5361 130.127 23.4859 130.49 23.3759C130.89 23.2259 131.271 23.0261 131.634 22.7761C131.742 22.4161 131.815 22.046 131.851 21.686C131.888 21.286 131.906 20.886 131.906 20.486V20.216C131.906 18.876 131.779 17.696 131.525 16.676C131.271 15.626 130.89 14.7561 130.381 14.0661H129.51C128.748 13.7361 128.041 13.616 127.387 13.686C126.734 13.716 126.099 13.8461 125.482 14.0661L123.141 12.976C124.339 12.396 125.355 12.0359 126.19 11.8859C127.061 11.7059 128.041 11.6159 129.129 11.6159C129.819 11.8359 130.49 12.1461 131.144 12.5361C131.797 12.9061 132.341 13.4161 132.777 14.0661H133.866C134.664 15.4061 135.227 16.7659 135.553 18.1459C135.88 19.4959 136.025 21.0361 135.989 22.7761C135.989 23.5761 135.916 24.1859 135.771 24.6259C135.662 25.0659 135.408 25.4059 135.009 25.6559C134.319 25.6959 133.448 25.716 132.396 25.716C131.343 25.676 130.055 25.6559 128.531 25.6559H124.665C123.94 25.6559 123.45 25.846 123.196 26.206C122.941 26.536 122.687 26.946 122.433 27.456C122.425 27.396 122.417 27.3361 122.409 27.2761C122.415 27.4661 122.423 27.6459 122.433 27.8359C122.579 30.6359 123.196 33.2959 124.284 35.8359H119.984C118.895 32.9059 118.332 30.0859 118.296 27.4059C118.26 24.6759 118.604 22.196 119.33 19.946C120.056 17.696 120.964 15.7361 122.052 14.0661H125.482ZM100.494 36.436C100.494 37.236 100.64 37.766 100.93 38.016C101.257 38.236 101.71 38.396 102.291 38.506C102.327 38.546 102.364 38.5759 102.4 38.6159H102.563C102.962 38.7259 103.235 38.836 103.38 38.946C103.525 39.056 103.597 39.236 103.597 39.486C103.597 39.746 103.543 39.9261 103.434 40.0361C103.325 40.1061 103.144 40.1961 102.89 40.3061H94.833C94.506 40.2361 94.288 40.1461 94.18 40.0361C94.071 39.9261 94.016 39.726 94.016 39.436C94.016 39.256 94.089 39.106 94.234 38.996C94.415 38.886 94.706 38.7659 95.105 38.6159C95.214 38.5759 95.323 38.546 95.432 38.506C95.577 38.476 95.704 38.4159 95.813 38.3459C96.139 38.1659 96.339 37.9259 96.412 37.6359C96.484 37.3459 96.52 36.946 96.52 36.436L96.466 20.706C96.466 19.396 96.647 18.236 97.01 17.226C97.41 16.166 98.045 15.1161 98.916 14.0661H100.004C100.259 13.5961 100.64 13.1761 101.148 12.8161C101.656 12.4461 102.164 12.086 102.672 11.726C103.688 11.616 104.614 11.5661 105.448 11.5661C106.283 11.5661 107.209 11.6361 108.225 11.7761C108.769 12.1461 109.241 12.466 109.64 12.756C110.039 13.046 110.493 13.4861 111.001 14.0661H112.09C112.961 15.0861 113.578 16.066 113.941 17.006C114.34 17.946 114.54 19.0361 114.54 20.2761L114.594 36.436C114.594 36.946 114.63 37.3459 114.703 37.6359C114.812 37.9259 115.03 38.1659 115.356 38.3459C115.501 38.4159 115.647 38.476 115.792 38.506C115.937 38.546 116.064 38.5759 116.173 38.6159C116.608 38.7259 116.935 38.836 117.153 38.946C117.371 39.056 117.479 39.236 117.479 39.486C117.479 39.776 117.425 39.9759 117.316 40.0859C117.207 40.1559 116.989 40.2361 116.663 40.3061H108.769C108.515 40.2361 108.334 40.1461 108.225 40.0361C108.116 39.9261 108.061 39.746 108.061 39.486C108.061 39.266 108.152 39.106 108.334 38.996C108.551 38.856 108.86 38.7061 109.259 38.5661C109.622 38.4561 109.931 38.276 110.185 38.016C110.439 37.766 110.548 37.236 110.511 36.436V19.0759C110.511 17.6959 110.257 16.646 109.749 15.916C109.277 15.186 108.66 14.5761 107.898 14.0661H107.354C106.664 13.9161 106.047 13.8459 105.503 13.8459C104.995 13.8159 104.396 13.8861 103.706 14.0661H102.944C102.291 14.6061 101.71 15.246 101.202 15.966C100.73 16.656 100.494 17.6359 100.494 18.9059V36.436ZM10.779 37.746C10.779 36.946 11.015 36.206 11.487 35.516C12.176 35.046 12.902 34.8061 13.664 34.8061C14.463 34.7661 15.207 34.9659 15.896 35.4059C16.368 36.1359 16.604 36.896 16.604 37.696C16.64 38.456 16.422 39.1759 15.951 39.8659C15.225 40.3459 14.481 40.5759 13.719 40.5759C12.957 40.6159 12.213 40.396 11.487 39.926C11.051 39.236 10.815 38.506 10.779 37.746Z" fill="black"/>
</svg>
