<svg width="136" height="41" viewBox="0 0 136 41" fill="none" xmlns="http://www.w3.org/2000/svg">
<path fill-rule="evenodd" clip-rule="evenodd" d="M4.355 14.496L3.321 16.456C2.268 15.846 1.452 15.026 0.871 14.006C0.29 12.996 0 11.816 0 10.476C0.218 9.30601 0.671 8.31601 1.361 7.47601C2.087 6.64601 3.085 5.91608 4.355 5.29608V4.26605L6.642 3.12591C7.077 2.86591 7.458 2.656 7.785 2.466C8.111 2.256 8.42 2.10607 8.71 2.03607V0.996028C9.364 0.816028 9.944 0.79598 10.452 0.94598C10.96 1.05598 11.432 1.28594 11.868 1.65594C12.049 2.30594 12.049 2.86587 11.868 3.33587C11.723 3.77587 11.396 4.24604 10.888 4.75604L8.71 5.29608V6.33587C7.984 6.55587 7.204 6.84599 6.369 7.20599C5.535 7.53599 4.863 7.786 4.355 7.966V8.29608C3.847 8.72608 3.393 9.20599 2.994 9.70599C2.631 10.216 2.45 10.876 2.45 11.666C2.45 12.466 2.631 13.1059 2.994 13.5759C3.393 14.0459 3.847 14.356 4.355 14.496ZM4.355 14.496C5.335 14.606 6.369 14.4859 7.458 14.1159C8.547 13.7159 9.908 13.176 11.541 12.486L13.065 11.8859L13.12 16.456C11.305 17.116 9.726 17.546 8.384 17.766C7.077 17.946 5.734 17.856 4.355 17.496V14.496ZM21.014 22.7761C20.759 22.9561 20.505 23.116 20.251 23.266C20.034 23.406 19.78 23.576 19.489 23.756C17.82 24.776 16.549 25.6261 15.678 26.3161C14.844 27.0061 14.426 27.7859 14.426 28.6559V31.0461C14.245 31.2661 14.027 31.4361 13.773 31.5361C13.519 31.6161 13.265 31.6161 13.011 31.5361C12.793 31.4361 12.594 31.2661 12.412 31.0461V28.706C12.412 27.436 12.63 26.4259 13.065 25.6559C13.501 24.8659 14.082 24.0059 14.807 23.1059L15.08 22.7761H16.114C16.477 22.3361 16.912 21.9359 17.421 21.5759C17.929 21.1759 18.473 20.7659 19.054 20.3259C19.453 19.9959 19.87 19.706 20.306 19.456C20.778 19.166 21.249 18.816 21.721 18.416H22.756C23.445 17.656 23.99 16.9859 24.389 16.4059C24.788 15.8259 24.988 15.0461 24.988 14.0661H26.131V13.0261H25.369C25.223 12.4861 24.897 12.056 24.389 11.726C23.917 11.366 23.336 11.176 22.647 11.176C21.885 11.176 21.068 11.3259 20.197 11.6159C19.362 11.9059 18.437 12.286 17.421 12.756V13.7961L13.12 15.426L13.065 10.8559C13.537 10.7059 14.154 10.506 14.916 10.256C15.715 9.96604 16.549 9.69597 17.421 9.43597V8.40594C18.909 8.03594 20.378 7.87595 21.83 7.91595C23.282 7.91595 24.715 8.47589 26.131 9.60589V10.9059L27.165 10.686C27.419 11.166 27.655 11.686 27.873 12.266C28.09 12.846 28.254 13.4461 28.363 14.0661H27.328C27.474 14.8261 27.528 15.5761 27.492 16.2961C27.455 16.9861 27.328 17.696 27.111 18.416H26.022C25.768 19.296 25.278 20.076 24.552 20.766C23.826 21.416 22.991 22.0861 22.048 22.7761H21.014ZM39.196 37.476L38.162 39.3759C36.892 38.9459 35.857 38.546 35.059 38.186C34.26 37.786 33.861 37.2559 33.861 36.6059L33.807 33.2861L33.698 28.5959C33.843 28.3859 34.042 28.2159 34.297 28.1059C34.551 27.9659 34.805 27.926 35.059 28.006C35.349 28.076 35.603 28.236 35.821 28.496L35.984 29.3659C36.347 31.1359 36.765 32.686 37.236 33.986C37.708 35.296 38.361 36.456 39.196 37.476ZM39.196 3.55609V1.216C40.866 0.745999 42.444 0.545902 43.932 0.615902C45.42 0.655902 46.745 0.786028 47.906 0.996028V2.03607C48.705 2.25607 49.34 2.46597 49.812 2.68597C50.283 2.90597 50.665 3.19609 50.955 3.55609C50.955 4.93609 50.973 6.35609 51.009 7.80609C51.082 9.21609 51.118 10.6361 51.118 12.0561C50.937 12.3061 50.719 12.4859 50.465 12.5959C50.211 12.7059 49.939 12.7259 49.648 12.6459C49.394 12.5759 49.14 12.4159 48.886 12.1559C48.669 11.1059 48.487 10.2759 48.342 9.65594C48.197 9.00594 48.051 8.36603 47.906 7.74603V6.82586C47.108 5.44586 46.237 4.44586 45.293 3.82586C44.35 3.17586 43.352 2.84588 42.299 2.84588C41.283 2.84588 40.249 3.08609 39.196 3.55609ZM48.07 35.8359C48.832 33.2659 48.868 30.9261 48.179 28.8161C47.489 26.6761 46.455 24.6661 45.076 22.7761H44.041C43.715 22.3361 43.352 21.9559 42.952 21.6359C42.59 21.2659 42.208 20.866 41.809 20.436C41.519 20.106 41.192 19.796 40.829 19.506C40.503 19.186 40.158 18.816 39.795 18.416H38.761C37.998 17.546 37.382 16.7859 36.91 16.1359C36.438 15.4459 36.075 14.7561 35.821 14.0661H34.786C34.424 13.2661 34.115 12.156 33.861 10.746C33.643 9.29603 33.825 7.80606 34.406 6.27606C34.986 4.75606 36.238 3.41604 38.162 2.25604L39.196 3.55609C38.434 4.50609 37.926 5.556 37.672 6.716C37.454 7.876 37.527 9.0959 37.89 10.3659C38.253 11.6359 38.942 12.8661 39.958 14.0661H40.993C41.428 14.7161 42.009 15.426 42.735 16.186C43.461 16.916 44.186 17.656 44.912 18.416H45.947C46.527 19.146 47.09 19.836 47.634 20.486C48.179 21.106 48.705 21.8661 49.213 22.7761H50.247C51.336 24.7761 52.026 26.8561 52.316 29.0361C52.643 31.2161 52.298 33.4859 51.282 35.8359H48.07ZM39.196 37.476C40.249 37.986 41.319 38.2759 42.408 38.3459C43.497 38.3859 44.531 38.1961 45.511 37.7961C46.491 37.3661 47.344 36.7159 48.07 35.8359L50.247 36.8759C48.832 38.3659 47.199 39.396 45.348 39.976C43.497 40.556 41.446 40.726 39.196 40.466V37.476ZM69.029 35.8359C69.246 35.3659 69.446 34.896 69.628 34.426C69.809 33.916 69.954 33.4059 70.063 32.9059L70.226 32.3559C70.517 32.1359 70.789 32.0261 71.043 32.0261C71.297 31.9961 71.515 32.066 71.696 32.246C71.878 32.396 72.041 32.5761 72.186 32.7961C72.114 33.2961 72.023 33.786 71.914 34.266C71.841 34.736 71.714 35.2559 71.533 35.8359H69.029ZM61.353 35.8359C62.006 36.3459 62.732 36.7659 63.53 37.0959C64.329 37.4159 65.2 37.5059 66.143 37.3659C67.087 37.1859 68.049 36.6759 69.029 35.8359L70.499 36.8759C69.519 38.4759 68.266 39.576 66.742 40.196C65.254 40.816 63.712 40.836 62.115 40.246C60.518 39.666 59.121 38.5459 57.923 36.8759L61.353 35.8359ZM62.605 14.0661C61.698 15.5561 60.954 17.536 60.373 19.996C59.829 22.426 59.629 25.0459 59.774 27.8359C59.919 30.6359 60.446 33.2959 61.353 35.8359H56.889C55.836 32.8259 55.328 29.966 55.365 27.236C55.437 24.516 55.873 22.0459 56.671 19.8359C57.506 17.6259 58.504 15.6961 59.665 14.0661H62.605ZM62.605 14.0661L60.7 13.0261C61.897 12.4861 62.968 12.1059 63.911 11.8859C64.855 11.6659 65.871 11.5661 66.96 11.5661C67.795 11.8161 68.43 12.1461 68.865 12.5361C69.337 12.9061 69.7 13.4161 69.954 14.0661H70.989C71.351 14.8961 71.569 15.8061 71.642 16.7861C71.714 17.7661 71.751 18.8759 71.751 20.1059V20.436C71.569 20.656 71.37 20.816 71.152 20.926C70.97 21.036 70.734 21.0661 70.444 21.0361C70.19 20.9561 69.918 20.7961 69.628 20.5461C69.591 20.4361 69.537 20.306 69.464 20.166C69.428 19.976 69.41 19.7861 69.41 19.5661C69.083 18.2561 68.738 17.1661 68.375 16.2961C68.013 15.3861 67.577 14.6461 67.069 14.0661H66.252C65.526 13.7761 64.873 13.666 64.293 13.736C63.712 13.776 63.149 13.8861 62.605 14.0661ZM89.552 35.8359C89.843 35.2559 90.115 34.556 90.369 33.716C90.623 32.886 90.804 32.116 90.913 31.436C91.131 31.216 91.367 31.0861 91.621 31.0461C91.875 31.0161 92.111 31.066 92.329 31.216C92.583 31.326 92.782 31.506 92.927 31.756C92.819 32.416 92.673 33.0959 92.492 33.8259C92.347 34.5559 92.202 35.2259 92.056 35.8359H89.552ZM81.278 35.8359C81.931 36.3459 82.711 36.7659 83.618 37.0959C84.562 37.4159 85.542 37.5059 86.558 37.3659C87.574 37.1859 88.572 36.6759 89.552 35.8359L91.022 36.8759C90.042 38.5059 88.754 39.616 87.157 40.196C85.56 40.736 83.909 40.7259 82.203 40.1459C80.534 39.5259 79.136 38.4359 78.011 36.8759L81.278 35.8359ZM82.475 14.0661C81.495 15.5561 80.697 17.536 80.08 19.996C79.89 20.796 79.739 21.606 79.627 22.436C79.731 22.716 79.864 22.9359 80.025 23.1059C80.243 23.2859 80.552 23.396 80.951 23.426C81.568 23.466 82.294 23.5061 83.128 23.5361H85.796C86.558 23.5361 87.121 23.4859 87.484 23.3759C87.883 23.2259 88.246 23.0261 88.572 22.7761C88.718 22.4161 88.808 22.046 88.845 21.686C88.881 21.286 88.899 20.886 88.899 20.486V20.216C88.899 18.876 88.772 17.696 88.518 16.676C88.264 15.626 87.883 14.7561 87.375 14.0661H86.558C85.796 13.7361 85.07 13.616 84.381 13.686C83.727 13.716 83.092 13.8461 82.475 14.0661L80.134 13.0261C81.332 12.4161 82.348 12.0359 83.183 11.8859C84.054 11.7059 85.016 11.6159 86.068 11.6159C86.758 11.8359 87.429 12.1461 88.082 12.5361C88.772 12.9061 89.353 13.4161 89.824 14.0661H90.859C91.657 15.3761 92.22 16.7159 92.546 18.0959C92.873 19.4759 93 21.0361 92.927 22.7761C92.927 23.5761 92.873 24.1859 92.764 24.6259C92.655 25.0659 92.401 25.4059 92.002 25.6559H81.604C80.915 25.6559 80.425 25.846 80.134 26.206C79.892 26.526 79.649 26.9059 79.406 27.3859C79.412 27.5359 79.419 27.6859 79.427 27.8359C79.572 30.6359 80.189 33.2959 81.278 35.8359H76.977C75.888 32.9059 75.326 30.0859 75.289 27.4059C75.253 24.6759 75.598 22.196 76.324 19.946C77.049 17.656 77.975 15.6961 79.1 14.0661H82.475ZM132.505 35.8359C132.795 35.2559 133.067 34.556 133.321 33.716C133.575 32.886 133.757 32.116 133.866 31.436C134.12 31.216 134.374 31.0861 134.628 31.0461C134.882 31.0161 135.118 31.066 135.335 31.216C135.553 31.326 135.735 31.506 135.88 31.756C135.807 32.416 135.68 33.0959 135.499 33.8259C135.354 34.5559 135.19 35.2259 135.009 35.8359H132.505ZM124.284 35.8359C124.938 36.3459 125.718 36.7659 126.625 37.0959C127.532 37.4159 128.494 37.5059 129.51 37.3659C130.527 37.1859 131.525 36.6759 132.505 35.8359L133.974 36.8759C133.031 38.5059 131.742 39.616 130.109 40.196C128.512 40.736 126.861 40.7259 125.155 40.1459C123.486 39.5259 122.107 38.4359 121.018 36.8759L124.284 35.8359ZM125.482 14.0661C124.466 15.5561 123.649 17.536 123.032 19.996C122.842 20.796 122.691 21.606 122.579 22.436C122.683 22.716 122.816 22.9359 122.978 23.1059C123.196 23.2859 123.522 23.396 123.958 23.426C124.538 23.466 125.264 23.5061 126.135 23.5361H128.748C129.547 23.5361 130.127 23.4859 130.49 23.3759C130.89 23.2259 131.253 23.0261 131.579 22.7761C131.724 22.4161 131.797 22.046 131.797 21.686C131.833 21.286 131.851 20.886 131.851 20.486V20.216C131.851 18.876 131.724 17.696 131.47 16.676C131.216 15.626 130.835 14.7561 130.327 14.0661H129.51C128.748 13.7361 128.041 13.616 127.387 13.686C126.734 13.716 126.099 13.8461 125.482 14.0661L123.087 13.0261C124.284 12.4161 125.3 12.0359 126.135 11.8859C127.006 11.7059 127.968 11.6159 129.02 11.6159C129.71 11.8359 130.4 12.1461 131.089 12.5361C131.779 12.9061 132.341 13.4161 132.777 14.0661H133.811C134.61 15.3761 135.172 16.7159 135.499 18.0959C135.825 19.4759 135.971 21.0361 135.934 22.7761C135.934 23.5761 135.862 24.1859 135.716 24.6259C135.608 25.0659 135.354 25.4059 134.954 25.6559H124.611C123.885 25.6559 123.377 25.846 123.087 26.206C122.833 26.536 122.597 26.946 122.379 27.456C122.371 27.396 122.363 27.3361 122.355 27.2861C122.361 27.4661 122.369 27.6459 122.379 27.8359C122.524 30.6359 123.159 33.2959 124.284 35.8359H119.929C118.84 32.9059 118.278 30.0859 118.242 27.4059C118.205 24.6759 118.55 22.196 119.276 19.946C120.038 17.656 120.964 15.6961 122.052 14.0661H125.482ZM100.44 36.436C100.44 37.276 100.585 37.796 100.876 38.016C101.202 38.236 101.656 38.4161 102.236 38.5661C102.309 38.5961 102.364 38.6159 102.4 38.6159H102.509C102.944 38.7259 103.235 38.836 103.38 38.946C103.525 39.056 103.597 39.236 103.597 39.486C103.597 39.746 103.525 39.9261 103.38 40.0361C103.271 40.1061 103.108 40.1961 102.89 40.3061H94.724C94.434 40.2361 94.216 40.1461 94.071 40.0361C93.962 39.9261 93.907 39.726 93.907 39.436C93.907 39.256 93.98 39.106 94.125 38.996C94.307 38.886 94.615 38.7659 95.051 38.6159C95.159 38.5759 95.268 38.546 95.377 38.506C95.486 38.476 95.613 38.4159 95.758 38.3459C96.085 38.1659 96.284 37.9259 96.357 37.6359C96.43 37.3459 96.466 36.946 96.466 36.436L96.412 20.706C96.412 19.396 96.611 18.236 97.01 17.226C97.41 16.166 98.027 15.1161 98.861 14.0661H99.896C100.186 13.5961 100.585 13.1761 101.093 12.8161C101.601 12.4461 102.128 12.086 102.672 11.726C103.688 11.616 104.596 11.5661 105.394 11.5661C106.229 11.5661 107.154 11.6361 108.17 11.7761C108.715 12.1461 109.187 12.466 109.586 12.756C109.985 13.046 110.439 13.4861 110.947 14.0661H111.981C112.888 15.0861 113.542 16.066 113.941 17.006C114.34 17.946 114.54 19.0361 114.54 20.2761V36.436C114.54 36.946 114.594 37.3459 114.703 37.6359C114.812 37.9259 115.03 38.1659 115.356 38.3459C115.501 38.4159 115.628 38.476 115.737 38.506C115.883 38.546 116.028 38.5759 116.173 38.6159C116.608 38.7259 116.935 38.836 117.153 38.946C117.371 39.056 117.479 39.236 117.479 39.486C117.479 39.776 117.425 39.9759 117.316 40.0859C117.207 40.1559 116.971 40.2361 116.608 40.3061H108.715C108.461 40.2361 108.261 40.1461 108.116 40.0361C108.007 39.9261 107.953 39.746 107.953 39.486C107.953 39.266 108.061 39.106 108.279 38.996C108.497 38.856 108.805 38.7061 109.205 38.5661C109.568 38.4561 109.876 38.276 110.13 38.016C110.42 37.766 110.548 37.236 110.511 36.436V19.0759C110.511 17.6959 110.257 16.646 109.749 15.916C109.241 15.186 108.606 14.5761 107.844 14.0661H107.299C106.61 13.9161 105.993 13.8459 105.448 13.8459C104.94 13.8159 104.341 13.8861 103.652 14.0661H102.89C102.236 14.6061 101.656 15.246 101.148 15.966C100.676 16.656 100.44 17.6359 100.44 18.9059V36.436ZM10.725 37.746C10.725 36.946 10.96 36.206 11.432 35.516C12.158 35.046 12.902 34.8061 13.664 34.8061C14.463 34.7661 15.207 34.9659 15.896 35.4059C16.368 36.1359 16.604 36.896 16.604 37.696C16.64 38.456 16.422 39.1759 15.951 39.8659C15.225 40.3459 14.463 40.5759 13.664 40.5759C12.902 40.6159 12.176 40.396 11.487 39.926C11.015 39.236 10.761 38.506 10.725 37.746Z" fill="black"/>
</svg>
