<svg width="136" height="41" viewBox="0 0 136 41" fill="none" xmlns="http://www.w3.org/2000/svg">
<path fill-rule="evenodd" clip-rule="evenodd" d="M4.355 14.496L3.375 16.516C2.286 15.896 1.452 15.0861 0.871 14.0661C0.29 13.0161 0 11.8361 0 10.5261C0.218 9.29606 0.671 8.25596 1.361 7.42596C2.087 6.58596 3.085 5.86603 4.355 5.24603V4.26605L6.642 3.0661C7.077 2.8161 7.458 2.59595 7.785 2.41595C8.111 2.23595 8.42 2.08601 8.71 1.97601V0.996028C9.364 0.816028 9.944 0.79598 10.452 0.94598C10.96 1.05598 11.432 1.28594 11.868 1.65594C12.049 2.30594 12.049 2.86587 11.868 3.33587C11.723 3.77587 11.396 4.22599 10.888 4.70599L8.71 5.29608V6.33587C7.984 6.55587 7.204 6.84599 6.369 7.20599C5.535 7.53599 4.863 7.786 4.355 7.966V8.23602C3.847 8.71602 3.393 9.20599 2.994 9.70599C2.631 10.216 2.45 10.8559 2.45 11.6159C2.45 12.4459 2.631 13.1059 2.994 13.5759C3.393 14.0459 3.847 14.356 4.355 14.496ZM4.355 14.496C5.335 14.606 6.369 14.4859 7.458 14.1159C8.547 13.7159 9.908 13.176 11.541 12.486L13.065 11.8359L13.12 16.456C11.305 17.076 9.726 17.496 8.384 17.716C7.077 17.926 5.734 17.856 4.355 17.496V14.496ZM21.068 22.7761C20.814 22.9561 20.56 23.116 20.306 23.266C20.052 23.406 19.798 23.576 19.544 23.756C17.838 24.806 16.549 25.6759 15.678 26.3659C14.807 27.0559 14.372 27.8159 14.372 28.6559V31.0461C14.227 31.2661 14.027 31.4361 13.773 31.5361C13.519 31.6161 13.265 31.6161 13.011 31.5361C12.757 31.4361 12.557 31.2661 12.412 31.0461V28.706C12.412 27.436 12.63 26.4259 13.065 25.6559C13.501 24.8659 14.082 24.0059 14.807 23.1059L15.134 22.7761H16.114C16.477 22.3361 16.912 21.9359 17.421 21.5759C17.965 21.1759 18.527 20.7659 19.108 20.3259C19.507 19.9959 19.925 19.706 20.36 19.456C20.832 19.166 21.304 18.816 21.776 18.416H22.81C23.5 17.656 24.026 16.9859 24.389 16.4059C24.788 15.8259 24.988 15.0461 24.988 14.0661H26.131V13.0859H25.369C25.223 12.5359 24.915 12.1061 24.443 11.7761C23.971 11.4161 23.373 11.236 22.647 11.236C21.921 11.236 21.122 11.376 20.251 11.666C19.38 11.956 18.437 12.326 17.421 12.756V13.7961L13.12 15.426L13.065 10.8559C13.537 10.7059 14.154 10.506 14.916 10.256C15.715 9.96604 16.549 9.69597 17.421 9.43597V8.40594C18.909 8.03594 20.378 7.87595 21.83 7.91595C23.282 7.94595 24.715 8.52594 26.131 9.65594V10.9059L27.111 10.686C27.365 11.166 27.601 11.686 27.818 12.266C28.072 12.846 28.254 13.4461 28.363 14.0661H27.328C27.474 14.8261 27.528 15.5761 27.492 16.2961C27.492 16.9861 27.365 17.696 27.111 18.416H26.076C25.822 19.296 25.332 20.076 24.606 20.766C23.881 21.416 23.028 22.0861 22.048 22.7761H21.068ZM39.196 3.55609V1.216C40.866 0.745999 42.444 0.545902 43.932 0.615902C45.42 0.655902 46.745 0.786028 47.906 0.996028V1.97601C48.705 2.19601 49.34 2.43597 49.812 2.68597C50.283 2.90597 50.646 3.19609 50.901 3.55609C50.937 4.90609 50.973 6.29603 51.009 7.74603C51.046 9.20603 51.064 10.6361 51.064 12.0561C50.919 12.3061 50.719 12.4859 50.465 12.5959C50.211 12.7059 49.939 12.7259 49.648 12.6459C49.394 12.5359 49.158 12.3759 48.941 12.1559C48.687 11.1059 48.487 10.2759 48.342 9.65594L47.906 7.69598V6.82586C47.144 5.40586 46.273 4.39606 45.293 3.77606C44.35 3.12606 43.352 2.79608 42.299 2.79608C41.283 2.79608 40.249 3.04609 39.196 3.55609ZM39.196 37.5261C40.212 38.0361 41.265 38.3259 42.354 38.3959C43.479 38.4359 44.531 38.2361 45.511 37.7961C46.491 37.3661 47.344 36.7159 48.07 35.8359L50.302 36.8161C48.886 38.3461 47.235 39.396 45.348 39.976C43.497 40.556 41.446 40.726 39.196 40.466V37.5261ZM39.196 37.5261L38.216 39.436C36.91 38.996 35.857 38.596 35.059 38.236C34.26 37.836 33.861 37.3059 33.861 36.6559L33.807 33.3359L33.643 28.6559C33.825 28.3959 34.024 28.2159 34.242 28.1059C34.496 27.9659 34.75 27.9461 35.004 28.0561C35.295 28.1261 35.567 28.276 35.821 28.496L35.984 29.3659C36.347 31.1759 36.765 32.7361 37.236 34.0461C37.708 35.3461 38.361 36.5161 39.196 37.5261ZM48.07 35.8359C48.832 33.2659 48.868 30.9261 48.179 28.8161C47.489 26.6761 46.455 24.6661 45.076 22.7761H44.041C43.715 22.3361 43.352 21.9559 42.952 21.6359C42.59 21.2659 42.208 20.866 41.809 20.436C41.483 20.106 41.138 19.796 40.775 19.506C40.448 19.186 40.122 18.816 39.795 18.416H38.761C37.998 17.546 37.363 16.7859 36.855 16.1359C36.383 15.4459 36.039 14.7561 35.821 14.0661H34.786C34.424 13.3061 34.115 12.196 33.861 10.746C33.643 9.25603 33.825 7.74601 34.406 6.22601C34.986 4.70601 36.256 3.35598 38.216 2.19598L39.196 3.55609C38.398 4.46609 37.871 5.516 37.617 6.716C37.4 7.876 37.472 9.0959 37.835 10.3659C38.234 11.6359 38.942 12.8661 39.958 14.0661H40.938C41.41 14.7161 42.009 15.426 42.735 16.186C43.461 16.916 44.186 17.656 44.912 18.416H45.947C46.527 19.146 47.09 19.836 47.634 20.486C48.179 21.106 48.723 21.8661 49.267 22.7761H50.247C51.336 24.7361 52.026 26.8261 52.316 29.0361C52.643 31.2161 52.298 33.4859 51.282 35.8359H48.07ZM61.353 35.8359C62.006 36.3859 62.732 36.8159 63.53 37.1459C64.329 37.4359 65.2 37.5059 66.143 37.3659C67.087 37.1859 68.049 36.6759 69.029 35.8359L70.499 36.8161C69.555 38.4561 68.321 39.576 66.797 40.196C65.272 40.816 63.694 40.836 62.06 40.246C60.464 39.666 59.085 38.5261 57.923 36.8161L61.353 35.8359ZM69.029 35.8359C69.246 35.3659 69.446 34.896 69.628 34.426C69.809 33.916 69.954 33.426 70.063 32.956L70.226 32.3559C70.517 32.1359 70.789 32.0261 71.043 32.0261C71.297 31.9961 71.515 32.066 71.696 32.246C71.878 32.396 72.023 32.5761 72.132 32.7961C72.095 33.2961 72.023 33.786 71.914 34.266C71.805 34.736 71.678 35.2559 71.533 35.8359H69.029ZM62.605 14.0661C61.698 15.5561 60.954 17.516 60.373 19.946C59.829 22.376 59.611 25.0059 59.72 27.8359C59.865 30.6359 60.409 33.2959 61.353 35.8359H56.889C55.836 32.8259 55.328 29.966 55.365 27.236C55.401 24.516 55.836 22.0459 56.671 19.8359C57.506 17.5859 58.504 15.6661 59.665 14.0661H62.605ZM62.605 14.0661L60.7 13.0859C61.897 12.5059 62.968 12.126 63.911 11.946C64.855 11.726 65.853 11.6159 66.906 11.6159C67.777 11.8359 68.43 12.1461 68.865 12.5361C69.337 12.9061 69.7 13.4161 69.954 14.0661H70.934C71.297 14.8961 71.515 15.8259 71.587 16.8459C71.696 17.8259 71.751 18.9059 71.751 20.1059V20.436C71.569 20.656 71.37 20.836 71.152 20.976C70.934 21.086 70.698 21.1061 70.444 21.0361C70.19 20.9561 69.918 20.7961 69.628 20.5461C69.591 20.4361 69.537 20.306 69.464 20.166C69.428 19.976 69.41 19.7861 69.41 19.5661C69.047 18.2561 68.684 17.1661 68.321 16.2961C67.994 15.3861 67.559 14.6461 67.014 14.0661H66.252C65.526 13.7761 64.873 13.666 64.293 13.736C63.712 13.776 63.149 13.8861 62.605 14.0661ZM89.552 35.8359C89.806 35.2559 90.06 34.556 90.314 33.716C90.605 32.886 90.804 32.116 90.913 31.436C91.131 31.216 91.367 31.0861 91.621 31.0461C91.875 31.0161 92.111 31.066 92.329 31.216C92.546 31.326 92.728 31.506 92.873 31.756C92.8 32.416 92.673 33.0959 92.492 33.8259C92.31 34.5559 92.147 35.2259 92.002 35.8359H89.552ZM81.278 35.8359C81.931 36.3859 82.711 36.8159 83.618 37.1459C84.526 37.4359 85.487 37.5059 86.504 37.3659C87.556 37.1859 88.572 36.6759 89.552 35.8359L91.022 36.8161C90.042 38.4861 88.736 39.616 87.102 40.196C85.506 40.736 83.854 40.7059 82.149 40.0859C80.479 39.4659 79.082 38.3861 77.957 36.8161L81.278 35.8359ZM82.475 14.0661C81.495 15.5161 80.697 17.476 80.08 19.946C79.871 20.766 79.707 21.606 79.585 22.476C79.687 22.746 79.816 22.9659 79.971 23.1559C80.189 23.3359 80.497 23.426 80.896 23.426C81.513 23.466 82.257 23.5061 83.128 23.5361H85.742C86.54 23.5361 87.121 23.4859 87.484 23.3759C87.883 23.2259 88.246 23.0261 88.572 22.7761C88.718 22.4161 88.79 22.046 88.79 21.686C88.826 21.286 88.845 20.886 88.845 20.486V20.216C88.845 18.876 88.718 17.6759 88.463 16.6259C88.209 15.5759 87.828 14.7161 87.32 14.0661H86.504C85.778 13.7361 85.07 13.616 84.381 13.686C83.727 13.716 83.092 13.8461 82.475 14.0661L80.08 13.0859C81.278 12.4659 82.294 12.0659 83.128 11.8859C83.999 11.7059 84.961 11.6159 86.014 11.6159C86.703 11.8659 87.393 12.1761 88.082 12.5361C88.772 12.9061 89.334 13.4161 89.77 14.0661H90.75C91.585 15.3761 92.165 16.7159 92.492 18.0959C92.819 19.4759 92.964 21.0361 92.927 22.7761C92.927 23.5761 92.855 24.1859 92.71 24.6259C92.601 25.0659 92.347 25.3859 91.948 25.6059C91.258 25.6459 90.369 25.6559 89.28 25.6559C88.228 25.6259 86.939 25.6059 85.415 25.6059H81.55C80.824 25.6059 80.334 25.7859 80.08 26.1459C79.826 26.5159 79.59 26.946 79.372 27.456C79.364 27.396 79.356 27.3461 79.349 27.2861C79.355 27.4661 79.363 27.6559 79.372 27.8359C79.517 30.6659 80.152 33.3359 81.278 35.8359H76.977C75.852 32.9059 75.271 30.0659 75.235 27.3459C75.198 24.6259 75.543 22.1359 76.269 19.8859C77.031 17.6059 77.975 15.6661 79.1 14.0661H82.475ZM132.505 35.8359C132.759 35.2559 133.013 34.556 133.267 33.716C133.557 32.886 133.757 32.116 133.866 31.436C134.083 31.216 134.319 31.0861 134.573 31.0461C134.827 31.0161 135.063 31.066 135.281 31.216C135.499 31.326 135.68 31.506 135.825 31.756C135.753 32.416 135.626 33.0959 135.444 33.8259C135.299 34.5559 135.136 35.2259 134.954 35.8359H132.505ZM124.23 35.8359C124.883 36.3859 125.663 36.8159 126.571 37.1459C127.514 37.4359 128.494 37.5059 129.51 37.3659C130.527 37.1859 131.525 36.6759 132.505 35.8359L133.974 36.8161C133.031 38.4861 131.742 39.616 130.109 40.196C128.476 40.736 126.807 40.7059 125.101 40.0859C123.431 39.4659 122.034 38.3861 120.909 36.8161L124.23 35.8359ZM125.482 14.0661C124.466 15.5161 123.649 17.476 123.032 19.946C122.832 20.736 122.671 21.5459 122.551 22.3759C122.626 22.6859 122.75 22.9459 122.923 23.1559C123.141 23.3359 123.468 23.426 123.903 23.426C124.484 23.466 125.21 23.5061 126.081 23.5361H128.694C129.492 23.5361 130.073 23.4859 130.436 23.3759C130.835 23.2259 131.198 23.0261 131.525 22.7761C131.67 22.4161 131.742 22.046 131.742 21.686C131.779 21.286 131.797 20.886 131.797 20.486V20.216C131.797 18.876 131.67 17.6759 131.416 16.6259C131.162 15.5759 130.781 14.7161 130.273 14.0661H129.456C128.73 13.7361 128.022 13.616 127.333 13.686C126.68 13.716 126.063 13.8461 125.482 14.0661L123.087 13.0859C124.248 12.4659 125.246 12.0659 126.081 11.8859C126.952 11.7059 127.914 11.6159 128.966 11.6159C129.656 11.8659 130.345 12.1761 131.035 12.5361C131.724 12.9061 132.287 13.4161 132.722 14.0661H133.757C134.555 15.3761 135.118 16.7159 135.444 18.0959C135.807 19.4759 135.952 21.0361 135.88 22.7761C135.88 23.5761 135.807 24.1859 135.662 24.6259C135.553 25.0659 135.299 25.3859 134.9 25.6059C134.21 25.6459 133.321 25.6559 132.232 25.6559C131.18 25.6259 129.892 25.6059 128.367 25.6059H124.502C123.776 25.6059 123.286 25.7859 123.032 26.1459C122.778 26.5159 122.542 26.946 122.325 27.456C122.317 27.396 122.309 27.3461 122.301 27.2861C122.308 27.4661 122.316 27.6559 122.325 27.8359C122.47 30.6659 123.105 33.3359 124.23 35.8359H119.929C118.804 32.9059 118.223 30.0659 118.187 27.3459C118.187 24.6259 118.55 22.1359 119.276 19.8859C120.002 17.6059 120.927 15.6661 122.052 14.0661H125.482ZM100.386 36.496C100.386 37.296 100.531 37.8159 100.821 38.0759C101.148 38.2859 101.62 38.4561 102.236 38.5661C102.273 38.5961 102.309 38.6159 102.345 38.6159H102.509C102.944 38.7659 103.235 38.886 103.38 38.996C103.525 39.066 103.597 39.236 103.597 39.486C103.597 39.746 103.525 39.9261 103.38 40.0361C103.271 40.1061 103.089 40.1961 102.835 40.3061H94.67C94.343 40.2361 94.125 40.1559 94.016 40.0859C93.907 39.9759 93.853 39.776 93.853 39.486C93.853 39.306 93.926 39.1661 94.071 39.0561C94.252 38.9461 94.542 38.7959 94.942 38.6159C95.051 38.5759 95.159 38.546 95.268 38.506C95.414 38.476 95.54 38.4359 95.649 38.3959C96.012 38.1859 96.23 37.946 96.303 37.696C96.375 37.406 96.412 37.006 96.412 36.496V20.766C96.412 19.456 96.593 18.276 96.956 17.226C97.355 16.166 97.99 15.1161 98.861 14.0661H99.841C100.132 13.5961 100.531 13.1761 101.039 12.8161C101.583 12.4461 102.109 12.1061 102.618 11.7761C103.634 11.6661 104.541 11.6159 105.34 11.6159C106.174 11.6159 107.1 11.6859 108.116 11.8359C108.66 12.1559 109.132 12.466 109.531 12.756C109.967 13.046 110.439 13.4861 110.947 14.0661H111.927C112.834 15.0861 113.487 16.066 113.886 17.006C114.286 17.946 114.485 19.0361 114.485 20.2761L114.54 36.496C114.54 36.966 114.576 37.3459 114.649 37.6359C114.757 37.9259 114.975 38.1859 115.302 38.3959C115.447 38.4359 115.592 38.476 115.737 38.506C115.883 38.546 116.028 38.596 116.173 38.676C116.572 38.746 116.881 38.836 117.098 38.946C117.352 39.056 117.479 39.236 117.479 39.486C117.479 39.776 117.425 39.9759 117.316 40.0859C117.207 40.1559 116.971 40.2361 116.608 40.3061H108.66C108.406 40.2361 108.207 40.1461 108.061 40.0361C107.953 39.9261 107.898 39.746 107.898 39.486C107.898 39.266 108.007 39.106 108.225 38.996C108.443 38.856 108.751 38.7259 109.15 38.6159C109.513 38.4759 109.822 38.276 110.076 38.016C110.366 37.766 110.493 37.256 110.457 36.496V19.0759C110.457 17.6559 110.203 16.606 109.695 15.916C109.187 15.186 108.551 14.5761 107.789 14.0661H107.299C106.573 13.9161 105.938 13.8459 105.394 13.8459C104.886 13.8159 104.287 13.8861 103.597 14.0661H102.89C102.2 14.5761 101.601 15.186 101.093 15.916C100.621 16.646 100.386 17.6359 100.386 18.9059V36.496ZM10.725 37.746C10.725 36.946 10.96 36.206 11.432 35.516C12.122 35.046 12.848 34.8061 13.61 34.8061C14.408 34.7661 15.152 34.9659 15.842 35.4059C16.35 36.1359 16.604 36.896 16.604 37.696C16.604 38.456 16.368 39.1759 15.896 39.8659C15.207 40.3459 14.463 40.5759 13.664 40.5759C12.902 40.6159 12.176 40.396 11.487 39.926C11.015 39.236 10.761 38.506 10.725 37.746Z" fill="black"/>
</svg>
