<svg width="136" height="41" viewBox="0 0 136 41" fill="none" xmlns="http://www.w3.org/2000/svg">
<path fill-rule="evenodd" clip-rule="evenodd" d="M4.355 14.5561L3.43 16.516C2.341 15.936 1.488 15.1161 0.871 14.0661C0.29 13.0161 0 11.8361 0 10.5261C0.218 9.29606 0.671 8.25596 1.361 7.42596C2.051 6.55596 3.049 5.80598 4.355 5.19598V4.26605L6.642 3.0661C7.077 2.8161 7.458 2.59595 7.785 2.41595C8.111 2.19595 8.42 2.03596 8.71 1.92596V0.996028C9.327 0.816028 9.89 0.79598 10.398 0.94598C10.942 1.05598 11.414 1.30599 11.813 1.70599C12.031 2.32599 12.049 2.86587 11.868 3.33587C11.686 3.77587 11.342 4.22599 10.833 4.70599L8.71 5.29608V6.27606C7.984 6.49606 7.204 6.78594 6.369 7.15594C5.535 7.47594 4.863 7.73595 4.355 7.91595V8.23602C3.847 8.67602 3.393 9.16599 2.994 9.70599C2.595 10.216 2.395 10.8559 2.395 11.6159C2.395 12.4459 2.595 13.1059 2.994 13.5759C3.393 14.0459 3.847 14.3761 4.355 14.5561ZM4.355 14.5561C5.335 14.6261 6.369 14.4859 7.458 14.1159C8.547 13.7159 9.908 13.156 11.541 12.436L13.065 11.8359L13.12 16.4059C11.305 17.0559 9.726 17.496 8.384 17.716C7.077 17.926 5.734 17.856 4.355 17.496V14.5561ZM21.122 22.7761C20.868 22.9561 20.614 23.116 20.36 23.266C20.106 23.406 19.834 23.576 19.544 23.756C17.838 24.806 16.549 25.6759 15.678 26.3659C14.807 27.0559 14.372 27.8159 14.372 28.6559V31.0461C14.19 31.2661 13.973 31.4361 13.719 31.5361C13.501 31.6161 13.265 31.6161 13.011 31.5361C12.757 31.4361 12.539 31.246 12.358 30.996V28.706C12.358 27.436 12.594 26.4259 13.065 25.6559C13.537 24.8659 14.136 24.0059 14.862 23.1059L15.134 22.7761H16.114C16.477 22.3361 16.912 21.9359 17.421 21.5759C17.965 21.1759 18.527 20.7659 19.108 20.3259C19.507 19.9959 19.943 19.706 20.415 19.456C20.886 19.166 21.358 18.816 21.83 18.416H22.81C23.5 17.656 24.044 16.9859 24.443 16.4059C24.842 15.8259 25.042 15.0461 25.042 14.0661H26.131V13.1359H25.423C25.278 12.5959 24.951 12.1461 24.443 11.7761C23.971 11.4161 23.391 11.236 22.701 11.236C21.939 11.236 21.122 11.396 20.251 11.726C19.38 12.016 18.437 12.3761 17.421 12.8161V13.7961L13.12 15.476L13.065 10.8559C13.537 10.7059 14.154 10.506 14.916 10.256C15.715 9.96604 16.549 9.69597 17.421 9.43597V8.45599C18.872 8.09599 20.342 7.936 21.83 7.966C23.318 7.966 24.752 8.54599 26.131 9.70599V10.966L27.056 10.686C27.347 11.166 27.601 11.686 27.818 12.266C28.036 12.846 28.199 13.4461 28.308 14.0661H27.383C27.528 14.8261 27.582 15.5761 27.546 16.2961C27.51 16.9861 27.365 17.696 27.111 18.416H26.131C25.877 19.296 25.369 20.076 24.606 20.766C23.881 21.416 23.028 22.0861 22.048 22.7761H21.122ZM39.196 37.5261L38.271 39.486C36.964 39.056 35.894 38.6561 35.059 38.2861C34.26 37.8961 33.861 37.366 33.861 36.716L33.752 33.3959L33.643 28.6559C33.789 28.3959 33.97 28.2159 34.188 28.1059C34.442 27.9659 34.714 27.9461 35.004 28.0561C35.295 28.1261 35.549 28.2961 35.766 28.5461L35.93 29.416C36.293 31.196 36.71 32.7361 37.182 34.0461C37.69 35.3461 38.361 36.5161 39.196 37.5261ZM39.196 37.5261C40.212 38.0361 41.265 38.3259 42.354 38.3959C43.479 38.4359 44.531 38.2361 45.511 37.7961C46.491 37.3661 47.344 36.7159 48.07 35.8359L50.356 36.766C48.941 38.326 47.289 39.4161 45.402 40.0361C43.515 40.6161 41.446 40.756 39.196 40.466V37.5261ZM48.07 35.8359C48.832 33.2659 48.868 30.9261 48.179 28.8161C47.489 26.6761 46.437 24.6661 45.021 22.7761H44.041C43.715 22.3361 43.352 21.9559 42.952 21.6359C42.59 21.2659 42.19 20.866 41.755 20.436C41.464 20.106 41.138 19.796 40.775 19.506C40.412 19.186 40.067 18.816 39.741 18.416H38.761C37.962 17.546 37.327 16.7859 36.855 16.1359C36.383 15.4459 36.021 14.7561 35.766 14.0661H34.786C34.424 13.3061 34.115 12.196 33.861 10.746C33.643 9.25603 33.825 7.74601 34.406 6.22601C34.986 4.66601 36.275 3.30593 38.271 2.14593L39.196 3.50604C38.398 4.44604 37.871 5.516 37.617 6.716C37.4 7.876 37.472 9.0959 37.835 10.3659C38.234 11.6359 38.942 12.8661 39.958 14.0661H40.938C41.374 14.6861 41.954 15.3759 42.68 16.1359L44.967 18.416H45.892C46.509 19.146 47.09 19.836 47.634 20.486C48.179 21.106 48.723 21.8661 49.267 22.7761H50.193C51.318 24.7361 52.026 26.8261 52.316 29.0361C52.643 31.2161 52.298 33.4859 51.282 35.8359H48.07ZM39.196 3.50604V1.216C40.866 0.745999 42.444 0.545902 43.932 0.615902C45.457 0.655902 46.781 0.786028 47.906 0.996028V1.92596C48.705 2.17596 49.34 2.41592 49.812 2.63592C50.283 2.84592 50.646 3.14604 50.901 3.50604L51.009 7.74603C51.046 9.16603 51.064 10.586 51.064 11.996C50.919 12.286 50.719 12.4859 50.465 12.5959C50.211 12.7059 49.939 12.7259 49.648 12.6459C49.394 12.5359 49.158 12.3559 48.941 12.1059C48.723 11.0559 48.523 10.2159 48.342 9.60589C48.197 8.94589 48.051 8.31598 47.906 7.69598V6.82586C47.144 5.40586 46.273 4.37601 45.293 3.72601C44.35 3.06601 43.352 2.74603 42.299 2.74603C41.283 2.74603 40.249 2.99604 39.196 3.50604ZM62.605 14.0661L60.7 13.1359C61.861 12.5559 62.913 12.156 63.857 11.946C64.837 11.726 65.835 11.6159 66.851 11.6159C67.758 11.8359 68.43 12.1461 68.865 12.5361C69.337 12.9061 69.7 13.4161 69.954 14.0661H70.88C71.243 14.8961 71.46 15.8259 71.533 16.8459C71.642 17.8259 71.696 18.926 71.696 20.166V20.486C71.551 20.706 71.37 20.8861 71.152 21.0361C70.934 21.1461 70.698 21.1559 70.444 21.0859C70.19 21.0159 69.918 20.8559 69.628 20.5959C69.591 20.4859 69.537 20.366 69.464 20.216C69.428 20.036 69.41 19.8161 69.41 19.5661C69.047 18.2561 68.684 17.1661 68.321 16.2961C67.994 15.3861 67.559 14.6461 67.014 14.0661H66.252C65.526 13.7361 64.873 13.616 64.293 13.686C63.712 13.756 63.149 13.8861 62.605 14.0661ZM62.605 14.0661C61.698 15.5161 60.954 17.476 60.373 19.946C59.792 22.376 59.574 25.0059 59.72 27.8359C59.865 30.6359 60.409 33.2959 61.353 35.8359H56.889C55.836 32.8259 55.328 29.966 55.365 27.236C55.401 24.486 55.836 21.9961 56.671 19.7861C57.506 17.5661 58.522 15.6661 59.72 14.0661H62.605ZM61.353 35.8359C61.97 36.3859 62.678 36.8159 63.476 37.1459C64.311 37.4759 65.2 37.5459 66.143 37.3659C67.087 37.1859 68.031 36.6759 68.974 35.8359L70.553 36.766C69.573 38.436 68.303 39.576 66.742 40.196C65.218 40.816 63.639 40.816 62.006 40.196C60.409 39.616 59.03 38.476 57.869 36.766L61.353 35.8359ZM68.974 35.8359C69.228 35.3659 69.446 34.896 69.628 34.426C69.809 33.916 69.954 33.426 70.063 32.956L70.226 32.3559C70.517 32.1359 70.771 32.0261 70.989 32.0261C71.243 31.9961 71.46 32.066 71.642 32.246C71.86 32.396 72.023 32.5761 72.132 32.7961C72.059 33.2961 71.968 33.786 71.86 34.266C71.787 34.736 71.66 35.2559 71.478 35.8359H68.974ZM89.498 35.8359C89.788 35.2559 90.06 34.556 90.314 33.716C90.605 32.846 90.804 32.086 90.913 31.436C91.131 31.216 91.367 31.0861 91.621 31.0461C91.875 31.0161 92.111 31.066 92.329 31.216C92.546 31.326 92.71 31.506 92.819 31.756C92.746 32.416 92.619 33.0959 92.438 33.8259C92.292 34.5559 92.129 35.2259 91.948 35.8359H89.498ZM81.278 35.8359C81.894 36.3859 82.657 36.8159 83.564 37.1459C84.507 37.4759 85.487 37.5459 86.504 37.3659C87.52 37.1859 88.518 36.6759 89.498 35.8359L90.968 36.766C90.024 38.476 88.736 39.616 87.102 40.196C85.469 40.776 83.8 40.7559 82.094 40.1459C80.425 39.4859 79.027 38.366 77.902 36.766L81.278 35.8359ZM82.475 14.0661C81.459 15.4761 80.642 17.4259 80.025 19.8859C79.826 20.6859 79.666 21.5059 79.546 22.3359C79.621 22.6759 79.744 22.9459 79.917 23.1559C80.134 23.3359 80.443 23.446 80.842 23.486C81.459 23.486 82.203 23.5061 83.074 23.5361H85.687C86.486 23.5361 87.066 23.4859 87.429 23.3759C87.828 23.2259 88.191 23.0261 88.518 22.7761C88.663 22.4461 88.754 22.086 88.79 21.686C88.826 21.286 88.845 20.886 88.845 20.486V20.216C88.845 18.876 88.699 17.6759 88.409 16.6259C88.155 15.5759 87.774 14.7161 87.266 14.0661H86.504C85.742 13.7361 85.034 13.616 84.381 13.686C83.727 13.716 83.092 13.8461 82.475 14.0661L80.08 13.1359C81.241 12.4859 82.239 12.086 83.074 11.946C83.945 11.756 84.889 11.666 85.905 11.666C86.631 11.886 87.338 12.1959 88.028 12.5959C88.718 12.9559 89.298 13.4461 89.77 14.0661H90.695C91.53 15.3761 92.111 16.7159 92.438 18.0959C92.8 19.4759 92.946 21.0361 92.873 22.7761C92.873 23.5761 92.8 24.1859 92.655 24.6259C92.546 25.0659 92.292 25.3859 91.893 25.6059C91.24 25.6459 90.369 25.6559 89.28 25.6559C88.191 25.6259 86.885 25.6059 85.36 25.6059H81.495C80.769 25.6059 80.279 25.7859 80.025 26.1459C79.771 26.4759 79.535 26.916 79.318 27.456C79.31 27.396 79.302 27.3461 79.294 27.2861C79.3 27.4661 79.308 27.6559 79.318 27.8359C79.463 30.6659 80.116 33.3359 81.278 35.8359H76.922C75.797 32.9359 75.217 30.1259 75.18 27.4059C75.18 24.6459 75.543 22.1359 76.269 19.8859C77.031 17.6059 77.975 15.6661 79.1 14.0661H82.475ZM132.45 35.8359C132.741 35.2559 133.013 34.556 133.267 33.716C133.557 32.846 133.757 32.086 133.866 31.436C134.083 31.216 134.319 31.0861 134.573 31.0461C134.827 31.0161 135.063 31.066 135.281 31.216C135.499 31.326 135.662 31.506 135.771 31.756C135.698 32.416 135.571 33.0959 135.39 33.8259C135.245 34.5559 135.081 35.2259 134.9 35.8359H132.45ZM124.23 35.8359C124.847 36.3859 125.609 36.8159 126.516 37.1459C127.46 37.4759 128.44 37.5459 129.456 37.3659C130.472 37.1859 131.47 36.6759 132.45 35.8359L133.92 36.766C133.013 38.476 131.742 39.616 130.109 40.196C128.476 40.776 126.807 40.7559 125.101 40.1459C123.395 39.4859 121.98 38.366 120.855 36.766L124.23 35.8359ZM125.428 14.0661C124.411 15.4761 123.595 17.4259 122.978 19.8859C122.778 20.6859 122.619 21.5059 122.499 22.3359C122.573 22.6759 122.696 22.9459 122.869 23.1559C123.087 23.3359 123.395 23.446 123.794 23.486C124.411 23.486 125.155 23.5061 126.026 23.5361H128.639C129.438 23.5361 130.019 23.4859 130.381 23.3759C130.781 23.2259 131.144 23.0261 131.47 22.7761C131.615 22.4461 131.706 22.086 131.742 21.686C131.779 21.286 131.797 20.886 131.797 20.486V20.216C131.797 18.876 131.67 17.6759 131.416 16.6259C131.162 15.5759 130.763 14.7161 130.218 14.0661H129.456C128.694 13.7361 127.986 13.616 127.333 13.686C126.68 13.716 126.044 13.8461 125.428 14.0661L123.032 13.1359C124.194 12.4859 125.192 12.086 126.026 11.946C126.897 11.756 127.841 11.666 128.857 11.666C129.583 11.886 130.291 12.1959 130.98 12.5959C131.67 12.9559 132.251 13.4461 132.722 14.0661H133.648C134.483 15.3761 135.063 16.7159 135.39 18.0959C135.753 19.4759 135.898 21.0361 135.825 22.7761C135.825 23.5761 135.753 24.1859 135.608 24.6259C135.499 25.0659 135.245 25.3859 134.845 25.6059C134.192 25.6459 133.321 25.6559 132.232 25.6559C131.144 25.6259 129.837 25.6059 128.313 25.6059H124.448C123.722 25.6059 123.232 25.7859 122.978 26.1459C122.724 26.4759 122.488 26.916 122.27 27.456C122.262 27.396 122.254 27.3461 122.247 27.2861C122.253 27.4661 122.261 27.6559 122.27 27.8359C122.415 30.6659 123.068 33.3359 124.23 35.8359H119.875C118.75 32.9359 118.169 30.1259 118.133 27.4059C118.133 24.6459 118.496 22.1359 119.221 19.8859C119.984 17.6059 120.927 15.6661 122.052 14.0661H125.428ZM100.331 36.496C100.331 37.296 100.494 37.8159 100.821 38.0759C101.148 38.2859 101.601 38.4561 102.182 38.5661C102.255 38.5961 102.309 38.6159 102.345 38.6159C102.382 38.6159 102.418 38.636 102.454 38.676C102.89 38.776 103.18 38.886 103.325 38.996C103.507 39.066 103.597 39.2561 103.597 39.5461C103.597 39.7561 103.525 39.9261 103.38 40.0361C103.271 40.1461 103.089 40.2361 102.835 40.3061H94.615C94.288 40.2361 94.053 40.1559 93.907 40.0859C93.798 39.9759 93.744 39.776 93.744 39.486C93.744 39.306 93.817 39.1661 93.962 39.0561C94.143 38.9461 94.452 38.816 94.887 38.676C94.996 38.596 95.105 38.546 95.214 38.506C95.359 38.476 95.486 38.4359 95.595 38.3959C95.958 38.1859 96.176 37.946 96.248 37.696C96.321 37.406 96.357 37.006 96.357 36.496V20.766C96.357 19.456 96.557 18.276 96.956 17.226C97.355 16.166 97.99 15.1161 98.861 14.0661H99.787C100.077 13.5961 100.476 13.1761 100.984 12.8161C101.529 12.4461 102.073 12.1061 102.618 11.7761C103.597 11.6661 104.487 11.6159 105.285 11.6159C106.12 11.6159 107.045 11.6859 108.061 11.8359C108.606 12.1959 109.078 12.5261 109.477 12.8161C109.912 13.0661 110.384 13.4861 110.892 14.0661H111.818C112.761 15.0461 113.433 16.026 113.832 17.006C114.231 17.946 114.431 19.0361 114.431 20.2761L114.485 36.496C114.485 36.966 114.522 37.3459 114.594 37.6359C114.703 37.9259 114.939 38.1859 115.302 38.3959C115.447 38.4359 115.592 38.476 115.737 38.506C115.883 38.546 116.01 38.596 116.118 38.676C116.554 38.746 116.881 38.836 117.098 38.946C117.352 39.056 117.479 39.236 117.479 39.486C117.479 39.776 117.407 39.9759 117.262 40.0859C117.153 40.1559 116.935 40.2361 116.608 40.3061H108.606C108.352 40.2361 108.152 40.1461 108.007 40.0361C107.898 39.9261 107.844 39.7561 107.844 39.5461C107.844 39.2861 107.934 39.106 108.116 38.996C108.334 38.856 108.66 38.7259 109.096 38.6159C109.459 38.5059 109.767 38.3259 110.021 38.0759C110.312 37.8159 110.439 37.296 110.402 36.496V19.0759C110.402 17.6559 110.148 16.606 109.64 15.916C109.132 15.186 108.479 14.5761 107.68 14.0661H107.245C106.519 13.9161 105.884 13.8459 105.34 13.8459C104.831 13.8159 104.233 13.8861 103.543 14.0661H102.89C102.2 14.5761 101.601 15.186 101.093 15.916C100.585 16.646 100.331 17.6359 100.331 18.9059V36.496ZM10.67 37.746C10.67 36.946 10.924 36.206 11.432 35.516C12.122 35.006 12.848 34.756 13.61 34.756C14.408 34.756 15.152 34.9659 15.842 35.4059C16.314 36.0959 16.549 36.8359 16.549 37.6359C16.586 38.4359 16.368 39.1759 15.896 39.8659C15.207 40.3459 14.463 40.5759 13.664 40.5759C12.866 40.6159 12.122 40.396 11.432 39.926C10.96 39.236 10.706 38.506 10.67 37.746Z" fill="black"/>
</svg>
