<svg width="136" height="41" viewBox="0 0 136 41" fill="none" xmlns="http://www.w3.org/2000/svg">
<path fill-rule="evenodd" clip-rule="evenodd" d="M4.355 14.5561L3.43 16.5661C2.341 15.9561 1.488 15.1359 0.871 14.1159C0.29 13.0659 0 11.8661 0 10.5261C0.181 9.29606 0.617 8.25596 1.307 7.42596C2.032 6.55596 3.049 5.78592 4.355 5.13592V4.216L6.642 3.01605C7.077 2.75605 7.458 2.54589 7.785 2.35589C8.148 2.14589 8.456 1.99596 8.71 1.92596V0.996028C9.327 0.786028 9.89 0.745931 10.398 0.895931C10.942 1.03593 11.414 1.30599 11.813 1.70599C12.031 2.32599 12.049 2.86587 11.868 3.33587C11.686 3.77587 11.342 4.22599 10.833 4.70599L8.71 5.29608V6.22601C7.984 6.44601 7.204 6.73588 6.369 7.09588C5.535 7.45588 4.863 7.73595 4.355 7.91595V8.18597C3.847 8.62597 3.393 9.11594 2.994 9.65594C2.595 10.1659 2.395 10.8159 2.395 11.6159C2.395 12.4459 2.595 13.1059 2.994 13.5759C3.393 14.0459 3.847 14.3761 4.355 14.5561ZM4.355 14.5561C5.335 14.6261 6.369 14.4859 7.458 14.1159C8.547 13.7159 9.908 13.156 11.541 12.436L13.065 11.7761L13.12 16.4059C11.305 17.0559 9.726 17.496 8.384 17.716C7.041 17.926 5.698 17.856 4.355 17.496V14.5561ZM21.177 22.7761C20.923 22.9561 20.651 23.116 20.36 23.266C20.106 23.406 19.852 23.576 19.598 23.756C17.856 24.806 16.531 25.6759 15.624 26.3659C14.753 27.0559 14.318 27.836 14.318 28.706V31.0461C14.172 31.2661 13.973 31.4361 13.719 31.5361C13.465 31.6161 13.211 31.6161 12.957 31.5361C12.739 31.4361 12.539 31.246 12.358 30.996V28.706C12.358 27.476 12.594 26.4559 13.065 25.6559C13.537 24.8659 14.136 24.0059 14.862 23.1059L15.189 22.7761H16.06C16.459 22.3361 16.912 21.9359 17.421 21.5759C17.965 21.1759 18.546 20.7659 19.163 20.3259C19.562 19.9959 19.997 19.706 20.469 19.456C20.941 19.166 21.413 18.816 21.885 18.416H22.81C23.536 17.696 24.098 17.046 24.498 16.456C24.897 15.846 25.096 15.0461 25.096 14.0661H26.131V13.1359H25.423C25.314 12.5959 25.006 12.1461 24.498 11.7761C24.026 11.4161 23.427 11.236 22.701 11.236C21.975 11.236 21.159 11.396 20.251 11.726C19.38 12.016 18.437 12.3959 17.421 12.8659V13.736L13.12 15.476L13.065 10.8559C13.537 10.7059 14.154 10.506 14.916 10.256C15.715 9.96604 16.549 9.67592 17.421 9.38592V8.51605C18.872 8.11605 20.342 7.936 21.83 7.966C23.318 8.006 24.752 8.6261 26.131 9.8161V10.966L27.056 10.686C27.31 11.196 27.546 11.7459 27.764 12.3259C27.982 12.8659 28.163 13.4461 28.308 14.0661H27.383C27.528 14.7961 27.582 15.516 27.546 16.246C27.51 16.966 27.365 17.696 27.111 18.416H26.24C25.949 19.296 25.423 20.076 24.661 20.766C23.899 21.416 23.046 22.0861 22.102 22.7761H21.177ZM39.196 3.50604V1.216C40.866 0.745999 42.444 0.545902 43.932 0.615902C45.457 0.655902 46.781 0.786028 47.906 0.996028V1.92596C48.705 2.14596 49.34 2.37592 49.812 2.63592C50.283 2.84592 50.646 3.14604 50.901 3.50604C50.901 4.84604 50.919 6.24598 50.955 7.69598C51.028 9.14598 51.064 10.586 51.064 11.996C50.919 12.246 50.719 12.4361 50.465 12.5361C50.211 12.6461 49.939 12.6659 49.648 12.5959C49.394 12.5259 49.158 12.3559 48.941 12.1059C48.723 11.0559 48.523 10.2159 48.342 9.60589C48.197 8.94589 48.051 8.31598 47.906 7.69598V6.87591C47.144 5.42591 46.273 4.37601 45.293 3.72601C44.35 3.06601 43.352 2.74603 42.299 2.74603C41.283 2.74603 40.249 2.99604 39.196 3.50604ZM39.196 37.5859L38.271 39.5461C36.964 39.1061 35.894 38.7059 35.059 38.3459C34.26 37.9459 33.861 37.416 33.861 36.766L33.752 33.446L33.643 28.6559C33.789 28.3959 33.97 28.2159 34.188 28.1059C34.442 27.9659 34.696 27.9461 34.95 28.0561C35.24 28.1261 35.494 28.2961 35.712 28.5461L35.875 29.416C36.238 31.196 36.656 32.7559 37.127 34.0959C37.636 35.4059 38.325 36.5659 39.196 37.5859ZM48.07 35.8359C48.868 33.2659 48.904 30.906 48.179 28.766C47.489 26.626 46.418 24.6261 44.967 22.7761H44.041C43.715 22.3361 43.352 21.9559 42.952 21.6359C42.59 21.2659 42.19 20.866 41.755 20.436C41.428 20.106 41.083 19.796 40.72 19.506C40.358 19.186 40.013 18.816 39.686 18.416H38.761C37.962 17.546 37.309 16.7859 36.801 16.1359C36.329 15.4459 35.966 14.7561 35.712 14.0661H34.786C34.424 13.3061 34.115 12.196 33.861 10.746C33.607 9.25603 33.77 7.73596 34.351 6.17596C34.968 4.61596 36.275 3.26593 38.271 2.14593L39.196 3.50604C38.398 4.41604 37.871 5.46595 37.617 6.66595C37.363 7.82595 37.436 9.0559 37.835 10.3659C38.234 11.6359 38.942 12.8661 39.958 14.0661H40.884C41.356 14.6861 41.972 15.3759 42.735 16.1359C43.497 16.8959 44.241 17.656 44.967 18.416H45.892C46.473 19.146 47.035 19.836 47.58 20.486C48.16 21.106 48.723 21.8661 49.267 22.7761H50.193C51.318 24.7361 52.026 26.8261 52.316 29.0361C52.643 31.2161 52.298 33.4859 51.282 35.8359H48.07ZM39.196 37.5859C40.212 38.0959 41.265 38.386 42.354 38.456C43.479 38.486 44.531 38.2859 45.511 37.8559C46.527 37.4159 47.38 36.7459 48.07 35.8359L50.356 36.766C48.941 38.286 47.289 39.366 45.402 39.976C43.515 40.596 41.446 40.756 39.196 40.466V37.5859ZM68.974 35.8359C69.228 35.3659 69.446 34.896 69.628 34.426C69.809 33.916 69.954 33.426 70.063 32.956L70.226 32.416C70.517 32.156 70.771 32.0261 70.989 32.0261C71.243 31.9961 71.46 32.066 71.642 32.246C71.86 32.396 72.005 32.5959 72.077 32.8459C72.041 33.3159 71.968 33.786 71.86 34.266C71.751 34.736 71.624 35.2559 71.478 35.8359H68.974ZM62.659 14.0661C61.716 15.4761 60.954 17.4259 60.373 19.8859C59.792 22.3559 59.574 25.0059 59.72 27.8359C59.865 30.6659 60.409 33.3359 61.353 35.8359H56.943C55.818 32.8259 55.274 29.966 55.31 27.236C55.383 24.486 55.836 21.9961 56.671 19.7861C57.542 17.5361 58.576 15.6261 59.774 14.0661H62.659ZM62.659 14.0661L60.645 13.1359C61.843 12.5559 62.913 12.176 63.857 11.996C64.801 11.776 65.799 11.666 66.851 11.666C67.722 11.856 68.394 12.1461 68.865 12.5361C69.337 12.9061 69.7 13.4161 69.954 14.0661H70.825C71.224 14.8961 71.46 15.8259 71.533 16.8459C71.606 17.8259 71.642 18.926 71.642 20.166V20.486C71.497 20.706 71.315 20.8861 71.097 21.0361C70.916 21.1461 70.698 21.1559 70.444 21.0859C70.19 21.0159 69.918 20.8559 69.628 20.5959C69.591 20.4859 69.537 20.366 69.464 20.216C69.428 20.036 69.392 19.8359 69.355 19.6159C69.029 18.2759 68.684 17.1661 68.321 16.2961C67.958 15.3861 67.504 14.6461 66.96 14.0661H66.252C65.526 13.7361 64.873 13.616 64.293 13.686C63.712 13.716 63.167 13.8461 62.659 14.0661ZM61.353 35.8359C61.97 36.3859 62.678 36.8159 63.476 37.1459C64.311 37.4759 65.2 37.566 66.143 37.416C67.087 37.236 68.031 36.7159 68.974 35.8359L70.553 36.766C69.573 38.436 68.303 39.576 66.742 40.196C65.218 40.816 63.639 40.816 62.006 40.196C60.373 39.616 58.976 38.476 57.814 36.766L61.353 35.8359ZM89.498 35.8359C89.788 35.2559 90.06 34.556 90.314 33.716C90.605 32.846 90.804 32.086 90.913 31.436C91.095 31.216 91.312 31.0861 91.566 31.0461C91.821 31.0161 92.056 31.066 92.274 31.216C92.492 31.326 92.673 31.506 92.819 31.756C92.71 32.416 92.565 33.0959 92.383 33.8259C92.238 34.5559 92.075 35.2259 91.893 35.8359H89.498ZM81.223 35.8359C81.84 36.3859 82.602 36.8159 83.51 37.1459C84.453 37.4759 85.433 37.566 86.449 37.416C87.502 37.236 88.518 36.7159 89.498 35.8359L90.968 36.766C90.06 38.436 88.772 39.576 87.102 40.196C85.469 40.776 83.782 40.7559 82.04 40.1459C80.334 39.4859 78.937 38.366 77.848 36.766L81.223 35.8359ZM82.475 14.0661C81.459 15.4461 80.624 17.3859 79.971 19.8859C79.772 20.6859 79.612 21.5059 79.493 22.3359C79.567 22.6759 79.69 22.9459 79.862 23.1559C80.08 23.3359 80.388 23.446 80.787 23.486C81.405 23.486 82.149 23.5061 83.019 23.5361H85.687C86.449 23.5361 87.03 23.4859 87.429 23.3759C87.828 23.2259 88.173 23.0261 88.463 22.7761C88.609 22.4461 88.699 22.106 88.736 21.746C88.772 21.346 88.79 20.926 88.79 20.486V20.216C88.79 18.876 88.663 17.6759 88.409 16.6259C88.155 15.5759 87.756 14.7161 87.211 14.0661H86.504C85.742 13.7361 85.016 13.616 84.326 13.686C83.673 13.716 83.056 13.8461 82.475 14.0661L80.025 13.1359C81.187 12.5259 82.185 12.126 83.019 11.946C83.891 11.756 84.834 11.666 85.85 11.666C86.576 11.886 87.284 12.1959 87.974 12.5959C88.699 12.9559 89.28 13.4461 89.716 14.0661H90.641C91.476 15.3761 92.056 16.7159 92.383 18.0959C92.746 19.4759 92.891 21.0361 92.819 22.7761C92.819 23.5361 92.746 24.1559 92.601 24.6259C92.492 25.0659 92.238 25.3859 91.839 25.6059H81.386C80.697 25.6059 80.225 25.7859 79.971 26.1459C79.717 26.4759 79.481 26.916 79.263 27.456C79.254 27.396 79.245 27.326 79.237 27.266C79.244 27.476 79.252 27.6859 79.263 27.8959C79.445 30.7259 80.098 33.3759 81.223 35.8359H76.922C75.761 32.9359 75.162 30.1059 75.126 27.3459C75.126 24.5859 75.507 22.0859 76.269 19.8359C77.031 17.5459 77.975 15.6261 79.1 14.0661H82.475ZM124.175 35.8359C124.792 36.3859 125.555 36.8159 126.462 37.1459C127.405 37.4759 128.385 37.566 129.402 37.416C130.454 37.236 131.47 36.7159 132.45 35.8359L133.92 36.766C132.976 38.436 131.688 39.576 130.055 40.196C128.422 40.776 126.734 40.7559 124.992 40.1459C123.286 39.4859 121.889 38.366 120.8 36.766L124.175 35.8359ZM132.45 35.8359C132.704 35.2559 132.958 34.556 133.212 33.716C133.503 32.846 133.72 32.086 133.866 31.436C134.047 31.216 134.265 31.0861 134.519 31.0461C134.773 31.0161 135.009 31.066 135.227 31.216C135.444 31.326 135.626 31.506 135.771 31.756C135.662 32.416 135.517 33.0959 135.335 33.8259C135.19 34.5559 135.027 35.2259 134.845 35.8359H132.45ZM125.428 14.0661C124.411 15.4461 123.577 17.3859 122.923 19.8859C122.724 20.6859 122.564 21.5059 122.445 22.3359C122.519 22.6759 122.642 22.9459 122.814 23.1559C123.032 23.3359 123.341 23.446 123.74 23.486C124.321 23.486 125.046 23.5061 125.917 23.5361H128.639C129.402 23.5361 129.964 23.4859 130.327 23.3759C130.726 23.2259 131.089 23.0261 131.416 22.7761C131.561 22.4461 131.652 22.106 131.688 21.746C131.724 21.346 131.742 20.926 131.742 20.486V20.216C131.742 18.876 131.615 17.6759 131.361 16.6259C131.107 15.5759 130.708 14.7161 130.164 14.0661H129.402C128.676 13.7361 127.968 13.616 127.278 13.686C126.625 13.716 126.008 13.8461 125.428 14.0661L122.978 13.1359C124.139 12.5259 125.137 12.126 125.972 11.946C126.843 11.756 127.787 11.666 128.803 11.666C129.529 11.886 130.236 12.1959 130.926 12.5959C131.652 12.9559 132.232 13.4461 132.668 14.0661H133.593C134.428 15.3761 135.009 16.7159 135.335 18.0959C135.698 19.4759 135.844 21.0361 135.771 22.7761C135.771 23.5361 135.698 24.1559 135.553 24.6259C135.444 25.0659 135.19 25.3859 134.791 25.6059H124.339C123.649 25.6059 123.177 25.7859 122.923 26.1459C122.669 26.4759 122.433 26.916 122.216 27.456C122.207 27.396 122.198 27.336 122.19 27.266C122.197 27.476 122.205 27.6859 122.216 27.8959C122.397 30.7259 123.05 33.3759 124.175 35.8359H119.875C118.713 32.9359 118.115 30.1059 118.078 27.3459C118.078 24.5859 118.459 22.0859 119.221 19.8359C119.984 17.5459 120.927 15.6261 122.052 14.0661H125.428ZM100.277 36.496C100.277 37.326 100.44 37.8559 100.767 38.0759C101.093 38.2859 101.547 38.4561 102.128 38.5661C102.2 38.5961 102.255 38.636 102.291 38.676H102.454C102.89 38.776 103.18 38.886 103.325 38.996C103.507 39.066 103.597 39.2561 103.597 39.5461C103.597 39.7561 103.525 39.9261 103.38 40.0361C103.235 40.1461 103.035 40.2361 102.781 40.3061H94.506C94.216 40.2361 93.998 40.1559 93.853 40.0859C93.708 39.9759 93.635 39.776 93.635 39.486C93.635 39.306 93.726 39.1661 93.907 39.0561C94.089 38.9461 94.397 38.816 94.833 38.676C94.942 38.596 95.051 38.546 95.159 38.506C95.305 38.476 95.432 38.4359 95.54 38.3959C95.903 38.2159 96.121 37.986 96.194 37.696C96.303 37.406 96.357 37.006 96.357 36.496L96.303 20.766C96.303 19.456 96.502 18.276 96.902 17.226C97.301 16.166 97.936 15.1161 98.807 14.0661H99.732C100.023 13.5961 100.422 13.1959 100.93 12.8659C101.474 12.5059 102.019 12.1559 102.563 11.8359C103.543 11.7259 104.432 11.666 105.231 11.666C106.065 11.666 106.973 11.7459 107.953 11.8859C108.533 12.2159 109.023 12.5261 109.422 12.8161C109.858 13.0661 110.33 13.4861 110.838 14.0661H111.763C112.671 15.0461 113.324 16.026 113.723 17.006C114.159 17.946 114.376 19.0361 114.376 20.2761L114.431 36.496C114.431 36.966 114.485 37.366 114.594 37.696C114.703 37.986 114.921 38.2159 115.247 38.3959C115.393 38.4359 115.538 38.476 115.683 38.506C115.828 38.546 115.973 38.596 116.118 38.676C116.554 38.746 116.881 38.836 117.098 38.946C117.352 39.056 117.479 39.236 117.479 39.486C117.479 39.776 117.407 39.9759 117.262 40.0859C117.153 40.1559 116.935 40.2361 116.608 40.3061H108.551C108.297 40.2361 108.098 40.1461 107.953 40.0361C107.807 39.9261 107.735 39.7561 107.735 39.5461C107.735 39.2861 107.844 39.106 108.061 38.996C108.279 38.856 108.606 38.7259 109.041 38.6159C109.441 38.5059 109.767 38.3259 110.021 38.0759C110.312 37.8159 110.439 37.296 110.402 36.496V19.0759C110.402 17.6559 110.13 16.5859 109.586 15.8659C109.078 15.1359 108.424 14.5361 107.626 14.0661H107.19C106.501 13.9161 105.884 13.8459 105.34 13.8459C104.795 13.8159 104.178 13.8861 103.489 14.0661H102.835C102.146 14.5761 101.547 15.186 101.039 15.916C100.531 16.646 100.277 17.6359 100.277 18.9059V36.496ZM10.67 37.746C10.67 36.946 10.906 36.206 11.378 35.516C12.067 35.006 12.811 34.756 13.61 34.756C14.408 34.716 15.152 34.9359 15.842 35.4059C16.314 36.0959 16.549 36.8359 16.549 37.6359C16.586 38.4359 16.368 39.1759 15.896 39.8659C15.17 40.3459 14.408 40.5759 13.61 40.5759C12.848 40.6159 12.122 40.396 11.432 39.926C10.924 39.236 10.67 38.506 10.67 37.746Z" fill="black"/>
</svg>
