<svg width="139" height="41" viewBox="0 0 139 41" fill="none" xmlns="http://www.w3.org/2000/svg">
<path fill-rule="evenodd" clip-rule="evenodd" d="M4.355 14.1198C5.879 14.1198 7.041 14.1018 7.839 14.0648C8.674 14.0288 9.908 13.9748 11.541 13.9018L13.065 13.8478V9.81882C13.973 9.81882 14.68 9.80083 15.189 9.76483C15.697 9.72783 16.441 9.69182 17.421 9.65582V5.68182C19.308 5.64482 20.759 5.62683 21.776 5.62683C22.792 5.62683 24.244 5.68183 26.131 5.79083V9.81882H30.159C30.159 10.7258 30.177 11.4338 30.214 11.9418C30.25 12.4138 30.268 13.1218 30.268 14.0648H26.24C26.276 14.9728 26.294 15.6978 26.294 16.2428C26.294 16.7508 26.276 17.4768 26.24 18.4198H22.211C22.175 19.3638 22.12 20.0898 22.048 20.5978C21.975 21.1058 21.903 21.8318 21.83 22.7758H17.802C17.765 22.9568 17.729 23.0838 17.693 23.1568C17.693 23.2288 17.674 23.3558 17.638 23.5378C17.457 24.3358 17.312 24.9528 17.203 25.3888C17.13 25.7878 17.094 26.3868 17.094 27.1848V31.4308C16.441 31.4678 15.932 31.4858 15.57 31.4858H14.481C14.154 31.4858 13.664 31.4678 13.011 31.4308V28.2188C13.011 27.1308 13.029 26.2958 13.065 25.7148C13.102 25.1348 13.156 24.2998 13.229 23.2108L13.283 22.7758H17.312C17.348 22.1588 17.384 21.7048 17.421 21.4148C17.493 21.1238 17.548 20.6708 17.584 20.0538C17.62 19.7268 17.656 19.4728 17.693 19.2908C17.765 19.0738 17.82 18.7828 17.856 18.4198H21.885C21.957 17.5128 22.012 16.8048 22.048 16.2968C22.084 15.7888 22.102 15.0448 22.102 14.0648H26.131V10.0368H23.572C23.028 9.99983 22.592 9.96383 22.266 9.92783C21.975 9.89183 21.54 9.87283 20.959 9.87283C20.233 9.87283 19.653 9.89183 19.217 9.92783C18.818 9.96383 18.219 9.99983 17.421 10.0368V14.0108L13.065 14.2288V18.2028C11.142 18.2748 9.672 18.3298 8.656 18.3658C7.676 18.3658 6.242 18.3478 4.355 18.3118V14.1198ZM4.355 14.1198L0.327 14.3368C0.218 13.4298 0.127 12.7038 0.054 12.1598C0.018 11.5788 0 10.7988 0 9.81882C0.871 9.67382 1.561 9.56482 2.069 9.49182C2.577 9.38382 3.339 9.31084 4.355 9.27484V5.24582L6.642 5.13684C7.113 5.10084 7.458 5.08282 7.676 5.08282C7.93 5.04682 8.275 5.02783 8.71 5.02783V0.999817C9.618 0.963817 10.307 0.963817 10.779 0.999817C11.287 0.999817 12.013 1.01783 12.957 1.05383C12.957 1.96183 12.938 2.66882 12.902 3.17682C12.902 3.64882 12.884 4.35684 12.848 5.30084L8.71 5.35483V9.38382C7.803 9.38382 7.077 9.40184 6.533 9.43784C6.025 9.47384 5.299 9.51084 4.355 9.54684V10.7988C4.319 11.1618 4.264 11.4518 4.192 11.6698C4.156 11.8508 4.137 12.1418 4.137 12.5408C4.137 12.9398 4.156 13.2308 4.192 13.4118C4.264 13.5568 4.319 13.7928 4.355 14.1198ZM39.196 36.0038L35.168 36.2218C35.059 35.3148 34.95 34.6248 34.841 34.1528C34.768 33.6808 34.732 32.9738 34.732 32.0298V27.2938C35.385 27.2578 35.875 27.2398 36.202 27.2398C36.565 27.2028 36.928 27.2028 37.291 27.2398C37.654 27.2398 38.18 27.2578 38.87 27.2938V28.1108C38.906 29.8528 38.942 31.1768 38.978 32.0848C39.051 32.9918 39.124 34.2978 39.196 36.0038ZM47.906 35.8408L48.179 39.8688C46.291 40.0148 44.822 40.1228 43.769 40.1958C42.717 40.2318 41.192 40.2318 39.196 40.1958V36.0038C40.612 36.0768 41.7 36.1128 42.462 36.1128C43.225 36.1128 43.969 36.0948 44.694 36.0588C45.457 35.9858 46.527 35.9128 47.906 35.8408ZM38.87 14.0648H34.841C34.805 12.6858 34.768 11.5968 34.732 10.7988C34.732 9.99983 34.75 9.20184 34.786 8.40384C34.859 7.56884 34.986 6.44383 35.168 5.02783L39.196 5.19183C39.124 6.57083 39.069 7.65982 39.033 8.45782C38.997 9.21982 38.997 9.99983 39.033 10.7988C39.105 11.5608 39.178 12.6498 39.251 14.0648H43.279C43.315 14.9728 43.37 15.6978 43.442 16.2428C43.551 16.7508 43.642 17.4768 43.715 18.4198H47.689C47.761 19.3278 47.816 20.0348 47.852 20.5438C47.925 21.0518 47.997 21.7958 48.07 22.7758H52.044C52.153 25.5338 52.225 27.6748 52.262 29.1988C52.298 30.7238 52.262 32.9368 52.153 35.8408H47.906C47.979 33.0098 47.979 30.8508 47.906 29.3628C47.87 27.8378 47.779 25.6428 47.634 22.7758H43.606C43.569 22.2668 43.533 21.8858 43.497 21.6318C43.461 21.3778 43.424 20.9788 43.388 20.4348C43.352 19.9988 43.315 19.6718 43.279 19.4548C43.243 19.2368 43.206 18.8918 43.17 18.4198H39.142C39.069 17.4768 38.997 16.7508 38.924 16.2428C38.888 15.7348 38.87 15.0088 38.87 14.0648ZM39.196 5.19183V0.999817C41.083 0.963817 42.535 0.944824 43.551 0.944824C44.567 0.944824 46.019 0.963817 47.906 0.999817V5.02783C48.85 5.02783 49.558 5.04682 50.03 5.08282C50.538 5.11882 51.227 5.15483 52.098 5.19183C52.134 7.04283 52.153 8.47582 52.153 9.49182V13.8478C51.463 13.8838 50.937 13.9198 50.574 13.9558H49.539C49.177 13.9198 48.669 13.8838 48.015 13.8478C47.979 12.7948 47.943 11.9968 47.906 11.4518V5.51782C46.527 5.37282 45.457 5.26383 44.694 5.19183C43.969 5.11883 43.225 5.08282 42.462 5.08282C41.7 5.08282 40.612 5.11883 39.196 5.19183ZM61.135 14.0648C61.026 17.4768 60.935 20.1258 60.863 22.0128C60.827 23.8638 60.808 25.7518 60.808 27.6748C60.845 29.5988 60.917 32.3198 61.026 35.8408H56.671C56.562 32.2838 56.508 29.5618 56.508 27.6748C56.508 25.7518 56.544 23.8638 56.617 22.0128C56.689 20.1258 56.798 17.4768 56.943 14.0648H61.135ZM61.026 35.8408C62.369 35.9128 63.403 35.9678 64.129 36.0038H66.361C67.123 35.9678 68.212 35.9128 69.628 35.8408L69.791 39.8688C68.375 40.0148 67.25 40.1228 66.416 40.1958C65.617 40.2688 64.801 40.2688 63.966 40.1958C63.167 40.1228 62.06 40.0148 60.645 39.8688L61.026 35.8408ZM69.628 35.8408V34.0988C69.664 33.6628 69.7 33.0828 69.736 32.3568V31.5948C70.426 31.5578 70.934 31.5398 71.261 31.5398C71.624 31.5398 71.968 31.5578 72.295 31.5948H73.819V33.7718C73.819 34.2438 73.801 34.9338 73.765 35.8408H69.628ZM61.135 14.0648L60.917 10.0368C62.804 9.99983 64.22 9.98184 65.164 9.98184C66.143 9.94584 67.559 9.92783 69.41 9.92783C69.482 10.7988 69.537 11.4878 69.573 11.9968C69.646 12.4678 69.682 13.1578 69.682 14.0648H73.71C73.747 14.9728 73.765 15.6798 73.765 16.1878C73.801 16.6958 73.819 17.4218 73.819 18.3658V18.6378C73.13 18.6378 72.604 18.6558 72.241 18.6928H71.206C70.88 18.6928 70.372 18.6738 69.682 18.6378V18.3118C69.682 18.2028 69.664 18.0758 69.628 17.9298C69.591 17.0228 69.555 16.3518 69.519 15.9158C69.482 15.4438 69.446 14.8268 69.41 14.0648H66.252C65.091 14.0288 64.22 14.0108 63.639 14.0108C63.059 14.0108 62.224 14.0288 61.135 14.0648ZM82.747 14.0648C82.638 17.4768 82.548 20.1258 82.475 22.0128C82.466 22.2488 82.457 22.4858 82.449 22.7228C82.906 22.7578 83.242 22.7948 83.455 22.8298H89.879C90.169 22.8298 90.587 22.8118 91.131 22.7758C91.167 22.1588 91.185 21.6868 91.185 21.3598V19.5638C91.185 18.3298 91.167 17.3858 91.131 16.7328C91.131 16.0798 91.095 15.1898 91.022 14.0648H87.865C86.703 14.0288 85.832 14.0108 85.251 14.0108C84.671 14.0108 83.836 14.0288 82.747 14.0648L82.475 10.0368C84.362 9.99983 85.778 9.98184 86.721 9.98184C87.665 9.94584 89.062 9.92783 90.913 9.92783C90.986 10.8348 91.058 11.5248 91.131 11.9968C91.204 12.4678 91.258 13.1578 91.294 14.0648H95.268C95.377 15.9518 95.45 17.4038 95.486 18.4198C95.522 19.3998 95.522 20.8518 95.486 22.7758V24.9528C95.486 25.4248 95.468 26.0958 95.432 26.9668H86.83C85.814 26.9668 85.052 26.9848 84.544 27.0218C84.036 27.0578 83.328 27.1118 82.421 27.1848C82.396 26.8448 82.38 26.5608 82.372 26.3348C82.368 26.7798 82.366 27.2258 82.366 27.6748C82.403 29.5988 82.475 32.3198 82.584 35.8408H78.229C78.12 32.2838 78.066 29.5618 78.066 27.6748C78.066 25.7518 78.102 23.8638 78.174 22.0128C78.247 20.1258 78.338 17.4768 78.447 14.0648H82.747ZM82.584 35.8408C83.963 35.9128 85.016 35.9678 85.742 36.0038H88.028C88.79 35.9678 89.861 35.9128 91.24 35.8408L91.403 39.8688C90.024 40.0148 88.917 40.1228 88.082 40.1958C87.248 40.2688 86.413 40.2688 85.578 40.1958C84.78 40.1228 83.673 40.0148 82.257 39.8688L82.584 35.8408ZM91.24 35.8408C91.276 34.8968 91.312 34.1708 91.349 33.6628C91.385 33.1188 91.403 32.3928 91.403 31.4858C92.093 31.4488 92.601 31.4308 92.927 31.4308C93.29 31.4308 93.635 31.4488 93.962 31.4858H95.486C95.486 32.4658 95.468 33.2098 95.432 33.7178V35.8408H91.24ZM134.737 35.8408C134.773 34.8968 134.809 34.1708 134.845 33.6628C134.882 33.1188 134.9 32.3928 134.9 31.4858C135.553 31.4488 136.061 31.4308 136.424 31.4308C136.787 31.4308 137.132 31.4488 137.459 31.4858H138.983C138.983 32.4658 138.965 33.2098 138.928 33.7178V35.8408H134.737ZM126.19 14.0648C126.117 17.4768 126.045 20.1258 125.972 22.0128C125.963 22.2488 125.954 22.4858 125.946 22.7228C126.403 22.7588 126.738 22.7948 126.952 22.8298H133.376C133.666 22.8298 134.083 22.8118 134.628 22.7758C134.664 22.1588 134.682 21.6868 134.682 21.3598V19.5638C134.682 18.3298 134.664 17.3858 134.628 16.7328C134.591 16.0798 134.555 15.1898 134.519 14.0648H131.361C130.2 14.0288 129.329 14.0108 128.748 14.0108C128.168 14.0108 127.315 14.0288 126.19 14.0648L125.972 10.0368C127.859 9.99983 129.275 9.98184 130.218 9.98184C131.162 9.94584 132.541 9.92783 134.356 9.92783C134.428 10.8348 134.501 11.5248 134.573 11.9968C134.646 12.4678 134.718 13.1578 134.791 14.0648H138.765C138.874 15.9518 138.947 17.4038 138.983 18.4198C139.019 19.3998 139.019 20.8518 138.983 22.7758V24.9528C138.983 25.4248 138.965 26.0958 138.928 26.9668H130.327C129.311 26.9668 128.549 26.9848 128.041 27.0218C127.532 27.0578 126.807 27.1118 125.863 27.1848C125.863 27.3478 125.863 27.5108 125.863 27.6748C125.899 29.5988 125.972 32.3198 126.081 35.8408H121.726C121.617 32.2838 121.562 29.5618 121.562 27.6748C121.562 25.7518 121.599 23.8638 121.671 22.0128C121.744 20.1258 121.835 17.4768 121.943 14.0648H126.19ZM126.081 35.8408C127.46 35.9128 128.512 35.9678 129.238 36.0038H131.525C132.287 35.9678 133.357 35.9128 134.737 35.8408L134.9 39.8688C133.484 40.0148 132.359 40.1228 131.525 40.1958C130.726 40.2688 129.91 40.2688 129.075 40.1958C128.277 40.1228 127.17 40.0148 125.754 39.8688L126.081 35.8408ZM104.087 35.8948C104.087 36.2948 104.106 36.5848 104.142 36.7658C104.178 36.9478 104.233 37.2018 104.305 37.5278V37.6918C104.341 37.9818 104.36 38.1818 104.36 38.2908C104.396 38.3998 104.414 38.5988 104.414 38.8888V39.5428C104.414 39.6878 104.396 39.9058 104.36 40.1958H99.623C99.587 39.9418 99.551 39.7418 99.515 39.5968V38.4538C99.551 38.3448 99.587 38.1998 99.623 38.0178V37.8548C99.66 37.7828 99.678 37.7278 99.678 37.6918C99.714 37.2928 99.732 37.0018 99.732 36.8208C99.769 36.6388 99.787 36.3308 99.787 35.8948V20.0538C99.787 18.7468 99.805 17.7488 99.841 17.0588C99.878 16.3698 99.95 15.3718 100.059 14.0648H104.033C104.069 13.1578 104.106 12.4678 104.142 11.9968C104.214 11.5248 104.269 10.8348 104.305 9.92783H112.689C112.761 10.7988 112.816 11.4698 112.852 11.9418L113.015 14.0648H116.989C117.098 15.3358 117.171 16.3148 117.207 17.0048C117.244 17.6578 117.262 18.6558 117.262 19.9988V36.8208C117.298 37.0018 117.334 37.2928 117.371 37.6918V37.8548C117.407 37.8908 117.425 37.9638 117.425 38.0728C117.461 38.2538 117.498 38.3998 117.534 38.5078C117.57 38.6168 117.588 38.7618 117.588 38.9438C117.588 39.2338 117.57 39.4518 117.534 39.5968C117.534 39.7418 117.516 39.9418 117.479 40.1958H112.743C112.743 39.9418 112.725 39.7418 112.689 39.5968V38.2908C112.725 38.1448 112.761 37.9458 112.798 37.6918C112.834 37.3288 112.87 37.0568 112.907 36.8748C112.943 36.6568 112.961 36.3308 112.961 35.8948V19.5088C112.961 18.2748 112.925 17.3498 112.852 16.7328C112.816 16.1158 112.761 15.2268 112.689 14.0648H104.36C104.287 15.0448 104.214 15.8248 104.142 16.4058C104.106 16.9868 104.087 17.8218 104.087 18.9098V35.8948ZM12.848 37.9638C12.848 37.4558 12.866 36.7298 12.902 35.7858C13.846 35.7498 14.572 35.7318 15.08 35.7318C15.624 35.7318 16.35 35.7498 17.257 35.7858C17.294 36.7298 17.312 37.4738 17.312 38.0178C17.312 38.5268 17.294 39.2338 17.257 40.1418C16.314 40.2138 15.57 40.2498 15.025 40.2498C14.517 40.2498 13.809 40.2318 12.902 40.1958C12.866 39.2158 12.848 38.4718 12.848 37.9638Z" fill="black"/>
</svg>
