<svg width="136" height="41" viewBox="0 0 136 41" fill="none" xmlns="http://www.w3.org/2000/svg">
<path fill-rule="evenodd" clip-rule="evenodd" d="M4.355 14.5561C5.299 14.6261 6.315 14.4859 7.404 14.1159C8.529 13.7159 9.908 13.1559 11.541 12.4359L13.065 11.776L13.12 16.3559C11.305 17.0459 9.726 17.496 8.384 17.716C7.041 17.926 5.698 17.8359 4.355 17.4359V14.5561ZM4.355 14.5561L3.484 16.5661C2.395 15.9861 1.542 15.1759 0.925 14.1159C0.308 13.0659 0 11.866 0 10.526C0.181 9.29603 0.617 8.23587 1.307 7.36587C2.032 6.49587 3.049 5.73584 4.355 5.08584V4.21597L6.642 3.01602C7.077 2.75602 7.458 2.52606 7.785 2.30606C8.148 2.08606 8.456 1.94587 8.71 1.86587V0.996001C9.327 0.786001 9.89 0.745903 10.398 0.895903C10.942 1.0359 11.414 1.30596 11.813 1.70596C11.995 2.32596 11.995 2.86584 11.813 3.33584C11.668 3.77584 11.323 4.22596 10.779 4.70596L8.71 5.29605V6.17593C7.984 6.38593 7.186 6.69585 6.315 7.09585C5.48 7.45585 4.827 7.71586 4.355 7.85586V8.13589C3.847 8.60589 3.375 9.11591 2.94 9.65591C2.54 10.1659 2.341 10.8159 2.341 11.6159C2.341 12.4459 2.54 13.1259 2.94 13.6259C3.375 14.1059 3.847 14.4061 4.355 14.5561ZM21.231 22.776C20.977 22.956 20.705 23.116 20.415 23.266C20.161 23.406 19.888 23.576 19.598 23.756C17.856 24.806 16.531 25.6959 15.624 26.4259C14.717 27.1159 14.263 27.876 14.263 28.706V31.046C14.118 31.266 13.918 31.436 13.664 31.536C13.446 31.616 13.211 31.616 12.957 31.536C12.702 31.436 12.503 31.246 12.358 30.996V28.706C12.358 27.476 12.594 26.4559 13.065 25.6559C13.537 24.8659 14.154 24.0059 14.916 23.1059L15.189 22.776H16.06C16.459 22.336 16.912 21.9358 17.421 21.5758C17.965 21.1758 18.546 20.7658 19.163 20.3258C19.562 19.9958 19.997 19.706 20.469 19.456C20.977 19.166 21.467 18.8159 21.939 18.4159H22.81C23.536 17.6959 24.098 17.046 24.498 16.456C24.933 15.846 25.151 15.0461 25.151 14.0661H26.131V13.196H25.423C25.314 12.646 25.006 12.1958 24.498 11.8358C24.026 11.4658 23.445 11.286 22.756 11.286C21.993 11.286 21.159 11.456 20.251 11.776C19.38 12.066 18.437 12.4459 17.421 12.9259V13.736L13.12 15.476L13.065 10.9059C13.501 10.7659 14.118 10.546 14.916 10.256C15.715 9.96601 16.549 9.67589 17.421 9.38589V8.56607C18.872 8.16607 20.342 7.98603 21.83 8.02603C23.318 8.05603 24.752 8.67588 26.131 9.87588V10.966L27.002 10.6859C27.256 11.1959 27.492 11.7458 27.709 12.3258C27.964 12.8658 28.145 13.4461 28.254 14.0661H27.383C27.528 14.7961 27.582 15.516 27.546 16.246C27.546 16.966 27.401 17.6959 27.111 18.4159H26.294C26.004 19.2959 25.478 20.076 24.715 20.766C23.953 21.416 23.082 22.086 22.102 22.776H21.231ZM39.196 37.5858L38.325 39.5959C36.982 39.1659 35.894 38.7659 35.059 38.3959C34.26 37.9959 33.861 37.4959 33.861 36.8759L33.752 33.496L33.643 28.706C33.789 28.456 33.97 28.2559 34.188 28.1059C34.406 27.9659 34.66 27.9461 34.95 28.0561C35.24 28.1261 35.476 28.296 35.658 28.546L35.821 29.4159C36.22 31.2359 36.656 32.8059 37.127 34.1559C37.636 35.4559 38.325 36.6058 39.196 37.5858ZM39.196 3.50601V1.21597C40.866 0.705971 42.444 0.496069 43.932 0.566069C45.457 0.636069 46.781 0.786001 47.906 0.996001V1.86587C48.705 2.08587 49.34 2.32583 49.812 2.57583C50.283 2.79583 50.628 3.10601 50.846 3.50601C50.882 4.84601 50.919 6.24595 50.955 7.69595C51.028 9.14595 51.064 10.586 51.064 11.996C50.919 12.246 50.719 12.436 50.465 12.536C50.211 12.646 49.939 12.6659 49.648 12.5959C49.394 12.4859 49.158 12.3061 48.941 12.0561C48.723 10.9961 48.523 10.166 48.342 9.54605C48.197 8.89605 48.051 8.2559 47.906 7.6459V6.87588C47.144 5.42588 46.273 4.37598 45.293 3.72598C44.35 3.03598 43.352 2.68594 42.299 2.68594C41.283 2.68594 40.249 2.95601 39.196 3.50601ZM39.196 37.5858C40.212 38.0958 41.283 38.386 42.408 38.456C43.533 38.526 44.586 38.3459 45.566 37.9059C46.545 37.4359 47.38 36.7458 48.07 35.8358L50.411 36.716C48.995 38.276 47.326 39.366 45.402 39.976C43.515 40.596 41.446 40.756 39.196 40.466V37.5858ZM48.07 35.8358C48.868 33.2658 48.904 30.906 48.179 28.766C47.489 26.626 46.4 24.626 44.912 22.776H44.096C43.733 22.336 43.352 21.9559 42.952 21.6359C42.553 21.2659 42.136 20.8659 41.7 20.4359C41.41 20.1059 41.065 19.796 40.666 19.506C40.303 19.186 39.958 18.8159 39.632 18.4159H38.761C37.962 17.5459 37.309 16.7859 36.801 16.1359C36.293 15.4459 35.912 14.7561 35.658 14.0661H34.786C34.424 13.3061 34.115 12.196 33.861 10.746C33.607 9.256 33.77 7.73593 34.351 6.17593C34.968 4.57593 36.293 3.21584 38.325 2.08584L39.196 3.50601C38.398 4.37601 37.871 5.40586 37.617 6.60586C37.363 7.80586 37.436 9.05587 37.835 10.3659C38.234 11.6359 38.942 12.8661 39.958 14.0661H40.829C41.301 14.6861 41.918 15.3759 42.68 16.1359C43.479 16.8959 44.241 17.6559 44.967 18.4159H45.838C46.455 19.1459 47.035 19.836 47.58 20.486C48.16 21.106 48.741 21.866 49.322 22.776H50.193C51.318 24.696 52.026 26.786 52.316 29.036C52.643 31.246 52.298 33.5158 51.282 35.8358H48.07ZM68.974 35.8358C69.228 35.4058 69.446 34.9359 69.628 34.4259C69.809 33.9159 69.954 33.426 70.063 32.956L70.226 32.4159C70.517 32.1559 70.771 32.026 70.989 32.026C71.243 32.026 71.46 32.106 71.642 32.246C71.86 32.396 72.005 32.5959 72.077 32.8459C72.005 33.3159 71.914 33.786 71.805 34.266C71.733 34.736 71.606 35.2558 71.424 35.8358H68.974ZM62.659 14.0661C61.716 15.4461 60.954 17.3658 60.373 19.8358C59.792 22.3058 59.574 24.9758 59.72 27.8358C59.865 30.6658 60.409 33.3358 61.353 35.8358H56.943C55.818 32.8658 55.274 29.996 55.31 27.236C55.383 24.486 55.836 21.976 56.671 19.726C57.542 17.476 58.594 15.5861 59.829 14.0661H62.659ZM61.353 35.8358C61.97 36.3858 62.678 36.836 63.476 37.206C64.311 37.526 65.2 37.6059 66.143 37.4159C67.087 37.2359 68.031 36.7158 68.974 35.8358L70.553 36.716C69.609 38.386 68.357 39.546 66.797 40.196C65.236 40.846 63.621 40.866 61.952 40.246C60.318 39.636 58.921 38.456 57.76 36.716L61.353 35.8358ZM62.659 14.0661L60.645 13.196C61.843 12.616 62.913 12.216 63.857 11.996C64.801 11.776 65.781 11.6659 66.797 11.6659C67.704 11.8559 68.394 12.146 68.865 12.536C69.337 12.906 69.7 13.4161 69.954 14.0661H70.825C71.188 14.8961 71.406 15.8259 71.478 16.8459C71.587 17.8559 71.642 18.986 71.642 20.216V20.486C71.497 20.746 71.315 20.9458 71.097 21.0858C70.916 21.1958 70.68 21.2159 70.39 21.1459C70.136 21.0659 69.882 20.9059 69.628 20.6559C69.591 20.5459 69.537 20.416 69.464 20.276C69.428 20.086 69.392 19.8759 69.355 19.6159C69.029 18.3159 68.684 17.206 68.321 16.296C67.958 15.386 67.504 14.6461 66.96 14.0661H66.252C65.563 13.7361 64.928 13.6159 64.347 13.6859C63.766 13.7159 63.204 13.8461 62.659 14.0661ZM81.223 35.8358C81.84 36.3858 82.602 36.836 83.51 37.206C84.453 37.526 85.433 37.6059 86.449 37.4159C87.502 37.2359 88.5 36.7158 89.443 35.8358L90.968 36.716C90.06 38.416 88.772 39.576 87.102 40.196C85.433 40.776 83.727 40.7559 81.985 40.1459C80.279 39.4859 78.882 38.346 77.793 36.716L81.223 35.8358ZM89.443 35.8358C89.734 35.2558 90.006 34.556 90.26 33.716C90.55 32.846 90.768 32.0859 90.913 31.4359C91.095 31.2159 91.312 31.086 91.566 31.046C91.821 30.976 92.056 31.0159 92.274 31.1559C92.492 31.3059 92.655 31.506 92.764 31.756C92.655 32.416 92.51 33.1159 92.329 33.8859C92.183 34.6059 92.02 35.2558 91.839 35.8358H89.443ZM82.475 14.0661C81.423 15.4061 80.57 17.3358 79.917 19.8358C79.715 20.6458 79.554 21.4761 79.434 22.3161C79.507 22.6661 79.632 22.9459 79.808 23.1559C80.025 23.3359 80.334 23.446 80.733 23.486C81.314 23.516 82.04 23.536 82.911 23.536H85.633C86.395 23.536 86.975 23.4859 87.375 23.3759C87.774 23.2259 88.137 23.026 88.463 22.776C88.609 22.446 88.681 22.106 88.681 21.746C88.718 21.346 88.736 20.926 88.736 20.486V20.276C88.736 18.896 88.609 17.6759 88.355 16.6259C88.101 15.5759 87.701 14.7161 87.157 14.0661H86.449C85.723 13.7061 85.016 13.5559 84.326 13.6259C83.673 13.7059 83.056 13.8461 82.475 14.0661L80.025 13.196C81.15 12.536 82.13 12.146 82.965 11.996C83.836 11.816 84.78 11.726 85.796 11.726C86.522 11.906 87.23 12.1959 87.919 12.5959C88.645 12.9559 89.244 13.4461 89.716 14.0661H90.587C91.421 15.3761 92.002 16.7159 92.329 18.0959C92.692 19.4759 92.855 21.036 92.819 22.776C92.819 23.536 92.746 24.1559 92.601 24.6259C92.456 25.0659 92.183 25.3661 91.784 25.5561C91.131 25.5861 90.26 25.6059 89.171 25.6059C88.082 25.5659 86.776 25.5561 85.251 25.5561H81.332C80.606 25.5561 80.116 25.7359 79.862 26.0959C79.644 26.4559 79.427 26.916 79.209 27.456C79.201 27.396 79.193 27.336 79.185 27.286C79.192 27.466 79.199 27.6458 79.209 27.8358C79.39 30.7058 80.062 33.3758 81.223 35.8358H76.922C75.761 32.9358 75.162 30.1059 75.126 27.3459C75.09 24.5859 75.453 22.066 76.215 19.786C77.013 17.496 77.993 15.5861 79.154 14.0661H82.475ZM132.396 35.8358C132.686 35.2558 132.958 34.556 133.212 33.716C133.503 32.846 133.702 32.0859 133.811 31.4359C134.029 31.2159 134.265 31.086 134.519 31.046C134.773 30.976 135.009 31.0159 135.227 31.1559C135.444 31.3059 135.608 31.506 135.716 31.756C135.608 32.416 135.462 33.1159 135.281 33.8859C135.136 34.6059 134.972 35.2558 134.791 35.8358H132.396ZM124.175 35.8358C124.756 36.3858 125.518 36.836 126.462 37.206C127.405 37.526 128.385 37.6059 129.402 37.4159C130.454 37.2359 131.452 36.7158 132.396 35.8358L133.92 36.716C132.976 38.416 131.67 39.576 130 40.196C128.367 40.776 126.68 40.7559 124.938 40.1459C123.232 39.4859 121.816 38.346 120.691 36.716L124.175 35.8358ZM125.428 14.0661C124.375 15.4061 123.522 17.3358 122.869 19.8358C122.667 20.6458 122.506 21.4761 122.386 22.3161C122.46 22.6661 122.585 22.9459 122.76 23.1559C122.978 23.3359 123.286 23.446 123.685 23.486C124.266 23.516 124.992 23.536 125.863 23.536H128.585C129.347 23.536 129.928 23.4859 130.327 23.3759C130.726 23.2259 131.071 23.026 131.361 22.776C131.507 22.446 131.597 22.106 131.634 21.746C131.67 21.346 131.688 20.926 131.688 20.486V20.276C131.688 18.896 131.561 17.6759 131.307 16.6259C131.053 15.5759 130.636 14.7161 130.055 14.0661H129.402C128.676 13.7061 127.968 13.5559 127.278 13.6259C126.625 13.7059 126.008 13.8461 125.428 14.0661L122.923 13.196C124.085 12.536 125.083 12.146 125.917 11.996C126.752 11.816 127.696 11.726 128.748 11.726C129.474 11.906 130.182 12.1959 130.871 12.5959C131.597 12.9559 132.196 13.4461 132.668 14.0661H133.539C134.374 15.3761 134.954 16.7159 135.281 18.0959C135.644 19.4759 135.789 21.036 135.716 22.776C135.716 23.536 135.644 24.1559 135.499 24.6259C135.39 25.0659 135.136 25.3661 134.737 25.5561C134.083 25.5861 133.212 25.6059 132.124 25.6059C131.035 25.5659 129.728 25.5561 128.204 25.5561H124.284C123.558 25.5561 123.068 25.7359 122.814 26.0959C122.56 26.4559 122.343 26.916 122.161 27.456C122.153 27.396 122.145 27.346 122.138 27.286C122.144 27.466 122.152 27.6558 122.161 27.8358C122.343 30.7058 123.014 33.3758 124.175 35.8358H119.875C118.677 32.9358 118.06 30.1059 118.024 27.3459C118.024 24.5859 118.405 22.066 119.167 19.786C119.929 17.496 120.891 15.5861 122.052 14.0661H125.428ZM100.222 36.496C100.222 37.326 100.386 37.8759 100.712 38.1259C101.039 38.3459 101.511 38.5059 102.128 38.6159C102.2 38.6559 102.255 38.6759 102.291 38.6759H102.454C102.89 38.7759 103.18 38.886 103.325 38.996C103.47 39.106 103.543 39.2861 103.543 39.5461C103.543 39.7561 103.47 39.926 103.325 40.036C103.216 40.146 103.035 40.2361 102.781 40.3061H94.452C94.125 40.2361 93.889 40.1558 93.744 40.0858C93.635 39.9758 93.581 39.776 93.581 39.486C93.581 39.306 93.671 39.1661 93.853 39.0561C94.034 38.9461 94.343 38.8159 94.778 38.6759C94.887 38.6359 94.996 38.5961 95.105 38.5661C95.25 38.4861 95.377 38.4359 95.486 38.3959C95.849 38.2159 96.067 37.986 96.139 37.696C96.248 37.406 96.303 37.006 96.303 36.496L96.248 20.766C96.248 19.456 96.448 18.276 96.847 17.226C97.246 16.166 97.9 15.1161 98.807 14.0661H99.678C99.968 13.6261 100.386 13.2259 100.93 12.8659C101.474 12.5059 102.019 12.1558 102.563 11.8358C103.507 11.7258 104.378 11.6659 105.176 11.6659C106.011 11.6659 106.918 11.7459 107.898 11.8859C108.479 12.2159 108.969 12.5261 109.368 12.8161C109.804 13.0661 110.293 13.4861 110.838 14.0661H111.709C112.616 15.0461 113.288 16.026 113.723 17.006C114.159 17.986 114.376 19.076 114.376 20.276V36.496C114.376 36.966 114.431 37.366 114.54 37.696C114.649 37.986 114.884 38.2159 115.247 38.3959C115.393 38.4759 115.538 38.5261 115.683 38.5661C115.828 38.5961 115.973 38.6359 116.118 38.6759C116.554 38.7759 116.881 38.886 117.098 38.996C117.352 39.106 117.479 39.266 117.479 39.486C117.479 39.776 117.407 39.9758 117.262 40.0858C117.153 40.1558 116.935 40.2361 116.608 40.3061H108.497C108.207 40.2361 107.989 40.146 107.844 40.036C107.735 39.926 107.68 39.7561 107.68 39.5461C107.68 39.2861 107.789 39.106 108.007 38.996C108.225 38.856 108.551 38.7259 108.987 38.6159C109.386 38.5059 109.713 38.3258 109.967 38.0758C110.257 37.8158 110.384 37.296 110.348 36.496V19.016C110.348 17.636 110.076 16.5859 109.531 15.8659C109.023 15.1359 108.37 14.5361 107.572 14.0661H107.136C106.446 13.9161 105.829 13.8459 105.285 13.8459C104.741 13.8159 104.124 13.8861 103.434 14.0661H102.835C102.146 14.5761 101.529 15.1859 100.984 15.9159C100.476 16.6459 100.222 17.6359 100.222 18.9059V36.496ZM10.616 37.696C10.616 36.896 10.87 36.166 11.378 35.516C12.067 35.006 12.811 34.756 13.61 34.756C14.408 34.716 15.134 34.9359 15.787 35.4059C16.295 36.0959 16.549 36.8359 16.549 37.6359C16.586 38.4359 16.35 39.1759 15.842 39.8659C15.152 40.3459 14.408 40.5758 13.61 40.5758C12.811 40.6158 12.086 40.3959 11.432 39.9259C10.924 39.2359 10.652 38.486 10.616 37.696Z" fill="black"/>
</svg>
