<svg width="136" height="41" viewBox="0 0 136 41" fill="none" xmlns="http://www.w3.org/2000/svg">
<path fill-rule="evenodd" clip-rule="evenodd" d="M4.355 14.5561L3.539 16.6259C2.413 16.0459 1.542 15.2259 0.925 14.1759C0.308 13.0859 0 11.866 0 10.526C0.181 9.29603 0.617 8.23587 1.307 7.36587C2.032 6.46587 3.049 5.68603 4.355 5.02603V4.21597L6.642 2.95596C7.077 2.70596 7.458 2.48606 7.785 2.30606C8.148 2.08606 8.456 1.92607 8.71 1.81607V0.996001C9.327 0.786001 9.89 0.745903 10.398 0.895903C10.942 1.0359 11.396 1.30596 11.759 1.70596C11.977 2.32596 11.995 2.86584 11.813 3.33584C11.632 3.77584 11.287 4.22596 10.779 4.70596L8.71 5.29605V6.11587C7.984 6.37587 7.186 6.67605 6.315 7.04605C5.48 7.40605 4.827 7.67586 4.355 7.85586V8.13589C3.811 8.56589 3.339 9.05586 2.94 9.60586C2.54 10.1059 2.341 10.7759 2.341 11.6159C2.341 12.4459 2.54 13.1259 2.94 13.6259C3.339 14.1059 3.811 14.4061 4.355 14.5561ZM4.355 14.5561C5.299 14.6261 6.315 14.4661 7.404 14.0661C8.529 13.6661 9.908 13.1059 11.541 12.3759L13.065 11.726L13.12 16.3559C11.305 17.0459 9.726 17.496 8.384 17.716C7.041 17.926 5.698 17.8359 4.355 17.4359V14.5561ZM21.286 22.776C20.995 22.956 20.723 23.116 20.469 23.266C20.215 23.406 19.943 23.576 19.653 23.756C17.874 24.806 16.531 25.6959 15.624 26.4259C14.717 27.1159 14.263 27.896 14.263 28.766V31.046C14.118 31.266 13.918 31.436 13.664 31.536C13.41 31.616 13.156 31.616 12.902 31.536C12.684 31.436 12.503 31.246 12.358 30.996V28.766C12.358 27.496 12.594 26.4559 13.065 25.6559C13.537 24.8659 14.154 24.0059 14.916 23.1059L15.243 22.776H16.06C16.422 22.336 16.876 21.9358 17.421 21.5758C17.965 21.1758 18.546 20.7658 19.163 20.3258C19.598 19.9958 20.052 19.706 20.523 19.456C21.032 19.166 21.522 18.8159 21.993 18.4159H22.81C23.572 17.6959 24.153 17.046 24.552 16.456C24.951 15.846 25.151 15.0461 25.151 14.0661H26.131V13.246H25.478C25.369 12.706 25.06 12.2459 24.552 11.8859C24.08 11.4859 23.481 11.286 22.756 11.286C22.03 11.286 21.213 11.456 20.306 11.776C19.398 12.066 18.437 12.4459 17.421 12.9259V13.736L13.12 15.536L13.065 10.9059C13.501 10.7659 14.118 10.546 14.916 10.256C15.715 9.96601 16.549 9.67589 17.421 9.38589V8.56607C18.872 8.20607 20.342 8.03583 21.83 8.07583C23.318 8.07583 24.752 8.69593 26.131 9.92593V11.016L26.947 10.746C27.201 11.216 27.437 11.7458 27.655 12.3258C27.909 12.9058 28.109 13.4861 28.254 14.0661H27.437C27.582 14.7961 27.637 15.516 27.601 16.246C27.564 16.966 27.419 17.6959 27.165 18.4159H26.349C26.022 19.2959 25.478 20.076 24.715 20.766C23.953 21.416 23.082 22.086 22.102 22.776H21.286ZM39.196 37.5858C40.212 38.1258 41.283 38.436 42.408 38.506C43.533 38.546 44.586 38.3459 45.566 37.9059C46.545 37.4359 47.38 36.7458 48.07 35.8358L50.411 36.6559C49.031 38.2559 47.38 39.366 45.457 39.976C43.533 40.596 41.446 40.756 39.196 40.466V37.5858ZM39.196 37.5858L38.38 39.6559C37.037 39.2159 35.93 38.816 35.059 38.456C34.224 38.056 33.807 37.5459 33.807 36.9259L33.752 33.5561L33.589 28.706C33.734 28.456 33.916 28.2759 34.133 28.1659C34.387 28.0159 34.641 27.9861 34.895 28.0561C35.186 28.1261 35.422 28.3059 35.603 28.5959L35.821 29.476C36.184 31.246 36.619 32.8059 37.127 34.1559C37.636 35.4559 38.325 36.6058 39.196 37.5858ZM39.196 3.44595V1.21597C40.866 0.705971 42.462 0.496069 43.987 0.566069C45.511 0.636069 46.818 0.786001 47.906 0.996001V1.81607C48.705 2.06607 49.34 2.32583 49.812 2.57583C50.283 2.79583 50.628 3.08595 50.846 3.44595C50.882 4.79595 50.919 6.1859 50.955 7.6459C50.991 9.0959 51.009 10.526 51.009 11.946C50.901 12.196 50.719 12.396 50.465 12.536C50.211 12.646 49.939 12.6659 49.648 12.5959C49.394 12.4859 49.158 12.3061 48.941 12.0561C48.723 10.9961 48.523 10.166 48.342 9.54605C48.197 8.89605 48.051 8.2559 47.906 7.6459V6.87588C47.144 5.42588 46.273 4.35592 45.293 3.66592C44.35 2.97592 43.352 2.63589 42.299 2.63589C41.283 2.63589 40.249 2.90595 39.196 3.44595ZM48.07 35.8358C48.868 33.2658 48.904 30.906 48.179 28.766C47.453 26.586 46.364 24.586 44.912 22.776H44.096C43.733 22.336 43.352 21.9559 42.952 21.6359C42.553 21.2659 42.136 20.8659 41.7 20.4359C41.374 20.1059 41.029 19.796 40.666 19.506C40.303 19.186 39.94 18.8159 39.577 18.4159H38.761C37.926 17.5459 37.254 16.7859 36.746 16.1359C36.275 15.4459 35.894 14.7561 35.603 14.0661H34.786C34.424 13.3061 34.115 12.1759 33.861 10.6859C33.607 9.20594 33.77 7.67587 34.351 6.11587C34.968 4.51587 36.311 3.15604 38.38 2.03604L39.196 3.44595C38.361 4.35595 37.817 5.40586 37.563 6.60586C37.309 7.80586 37.382 9.05587 37.781 10.3659C38.18 11.6359 38.924 12.8661 40.013 14.0661H40.829C41.301 14.6861 41.918 15.3759 42.68 16.1359C43.479 16.8959 44.259 17.6559 45.021 18.4159H45.838C46.455 19.1459 47.054 19.836 47.634 20.486C48.215 21.106 48.777 21.866 49.322 22.776H50.138C51.3 24.696 52.044 26.786 52.37 29.036C52.697 31.246 52.316 33.5158 51.227 35.8358H48.07ZM68.974 35.8358C69.228 35.4058 69.446 34.9359 69.628 34.4259C69.809 33.9159 69.954 33.426 70.063 32.956L70.281 32.4159C70.535 32.1959 70.771 32.0858 70.989 32.0858C71.243 32.0458 71.46 32.1161 71.642 32.3061C71.823 32.4461 71.95 32.6259 72.023 32.8459C71.987 33.3159 71.914 33.8061 71.805 34.3161C71.696 34.7861 71.551 35.2958 71.37 35.8358H68.974ZM62.714 14.0661L60.645 13.246C61.806 12.666 62.859 12.2661 63.803 12.0561C64.782 11.8361 65.762 11.726 66.742 11.726C67.686 11.906 68.394 12.176 68.865 12.536C69.337 12.906 69.7 13.4161 69.954 14.0661H70.771C71.134 14.8961 71.351 15.8259 71.424 16.8459C71.533 17.8559 71.587 18.986 71.587 20.216V20.546C71.478 20.766 71.315 20.9458 71.097 21.0858C70.916 21.2358 70.68 21.266 70.39 21.196C70.136 21.126 69.882 20.9459 69.628 20.6559C69.591 20.5459 69.537 20.416 69.464 20.276C69.428 20.086 69.392 19.8859 69.355 19.6759C69.029 18.3259 68.666 17.206 68.266 16.296C67.904 15.386 67.45 14.6461 66.906 14.0661H66.252C65.563 13.7361 64.928 13.6159 64.347 13.6859C63.766 13.7159 63.222 13.8461 62.714 14.0661ZM62.714 14.0661C61.734 15.4461 60.935 17.3658 60.318 19.8358C59.738 22.3058 59.52 24.9758 59.665 27.8358C59.847 30.7058 60.409 33.3758 61.353 35.8358H56.943C55.818 32.8658 55.274 29.996 55.31 27.236C55.346 24.446 55.8 21.936 56.671 19.726C57.542 17.476 58.594 15.5861 59.829 14.0661H62.714ZM61.353 35.8358C61.97 36.3858 62.678 36.836 63.476 37.206C64.311 37.526 65.2 37.6059 66.143 37.4159C67.087 37.2359 68.031 36.7158 68.974 35.8358L70.553 36.6559C69.609 38.3659 68.357 39.546 66.797 40.196C65.236 40.846 63.621 40.866 61.952 40.246C60.318 39.636 58.921 38.4359 57.76 36.6559L61.353 35.8358ZM89.443 35.8358C89.734 35.2558 90.006 34.556 90.26 33.716C90.55 32.846 90.75 32.0859 90.859 31.4359C91.077 31.2159 91.294 31.086 91.512 31.046C91.766 30.976 92.002 31.0159 92.22 31.1559C92.438 31.3059 92.601 31.506 92.71 31.756C92.637 32.416 92.51 33.1159 92.329 33.8859C92.147 34.6059 91.966 35.2558 91.784 35.8358H89.443ZM81.223 35.8358C81.804 36.3858 82.548 36.836 83.455 37.206C84.399 37.526 85.379 37.6059 86.395 37.4159C87.447 37.2359 88.463 36.7158 89.443 35.8358L90.968 36.6559C90.06 38.3959 88.772 39.576 87.102 40.196C85.433 40.776 83.727 40.7559 81.985 40.1459C80.243 39.4859 78.81 38.3259 77.685 36.6559L81.223 35.8358ZM82.475 14.0661C81.423 15.4061 80.57 17.3358 79.917 19.8358C79.698 20.6658 79.523 21.5159 79.394 22.3859C79.469 22.6959 79.589 22.9559 79.753 23.1559C79.971 23.3359 80.279 23.446 80.679 23.486C81.259 23.516 82.003 23.5559 82.911 23.5959H85.578C86.377 23.5959 86.957 23.5159 87.32 23.3759C87.719 23.2259 88.082 23.026 88.409 22.776C88.554 22.446 88.645 22.106 88.681 21.746C88.718 21.346 88.736 20.926 88.736 20.486V20.276C88.736 18.926 88.59 17.7259 88.3 16.6759C88.046 15.5859 87.647 14.7161 87.102 14.0661H86.449C85.723 13.7061 85.016 13.5559 84.326 13.6259C83.673 13.7059 83.056 13.8461 82.475 14.0661L79.971 13.246C81.096 12.596 82.076 12.176 82.911 11.996C83.782 11.816 84.707 11.726 85.687 11.726C86.449 11.906 87.193 12.1959 87.919 12.5959C88.645 12.9559 89.244 13.4461 89.716 14.0661H90.532C91.367 15.3361 91.966 16.6759 92.329 18.0959C92.692 19.4759 92.837 21.036 92.764 22.776C92.764 23.536 92.692 24.1559 92.546 24.6259C92.438 25.0659 92.165 25.3661 91.73 25.5561C91.077 25.5861 90.206 25.6059 89.117 25.6059C88.028 25.5659 86.721 25.5561 85.197 25.5561H81.223C80.534 25.5561 80.062 25.7359 79.808 26.0959C79.59 26.4559 79.372 26.916 79.154 27.456L79.124 27.036C79.13 27.296 79.141 27.5658 79.154 27.8358C79.336 30.7058 80.025 33.3758 81.223 35.8358H76.868C75.707 32.9358 75.108 30.1059 75.071 27.3459C75.035 24.5859 75.398 22.066 76.16 19.786C76.959 17.496 77.957 15.5861 79.154 14.0661H82.475ZM132.341 35.8358C132.632 35.2558 132.922 34.556 133.212 33.716C133.503 32.846 133.702 32.0859 133.811 31.4359C133.993 31.2159 134.21 31.086 134.464 31.046C134.718 30.976 134.954 31.0159 135.172 31.1559C135.39 31.3059 135.553 31.506 135.662 31.756C135.553 32.416 135.408 33.1159 135.227 33.8859C135.081 34.6059 134.918 35.2558 134.737 35.8358H132.341ZM124.121 35.8358C124.738 36.3858 125.5 36.836 126.407 37.206C127.351 37.526 128.331 37.6059 129.347 37.4159C130.4 37.2359 131.398 36.7158 132.341 35.8358L133.92 36.6559C132.976 38.3959 131.67 39.576 130 40.196C128.331 40.776 126.625 40.7559 124.883 40.1459C123.141 39.4859 121.726 38.3259 120.637 36.6559L124.121 35.8358ZM125.428 14.0661C124.375 15.4061 123.522 17.3358 122.869 19.8358C122.65 20.6658 122.476 21.5159 122.347 22.3859C122.422 22.6959 122.541 22.9559 122.706 23.1559C122.923 23.3359 123.232 23.446 123.631 23.486C124.212 23.516 124.938 23.5559 125.809 23.5959H128.531C129.293 23.5959 129.873 23.5159 130.273 23.3759C130.672 23.2259 131.035 23.026 131.361 22.776C131.507 22.446 131.579 22.106 131.579 21.746C131.615 21.346 131.634 20.926 131.634 20.486V20.276C131.634 18.926 131.507 17.7259 131.252 16.6759C130.998 15.5859 130.581 14.7161 130 14.0661H129.347C128.621 13.7061 127.932 13.5559 127.278 13.6259C126.625 13.7059 126.008 13.8461 125.428 14.0661L122.923 13.246C124.048 12.596 125.028 12.176 125.863 11.996C126.698 11.816 127.623 11.726 128.639 11.726C129.365 11.906 130.091 12.1959 130.817 12.5959C131.543 12.9559 132.142 13.4461 132.613 14.0661H133.43C134.301 15.3361 134.9 16.6759 135.227 18.0959C135.589 19.4759 135.753 21.036 135.716 22.776C135.716 23.536 135.644 24.1559 135.499 24.6259C135.354 25.0659 135.081 25.3661 134.682 25.5561C134.029 25.5861 133.14 25.6059 132.015 25.6059C130.926 25.5659 129.619 25.5561 128.095 25.5561H124.175C123.486 25.5561 123.014 25.7359 122.76 26.0959C122.506 26.4559 122.288 26.916 122.107 27.456C122.099 27.396 122.092 27.346 122.084 27.296C122.09 27.476 122.098 27.6558 122.107 27.8358C122.288 30.7058 122.96 33.3758 124.121 35.8358H119.82C118.659 32.9358 118.06 30.1059 118.024 27.3459C117.988 24.5859 118.35 22.066 119.113 19.786C119.911 17.496 120.891 15.5861 122.052 14.0661H125.428ZM100.168 36.496C100.168 37.326 100.331 37.8759 100.658 38.1259C100.984 38.3459 101.456 38.5059 102.073 38.6159C102.146 38.6559 102.2 38.6759 102.236 38.6759H102.4C102.835 38.7759 103.126 38.886 103.271 38.996C103.452 39.106 103.543 39.2861 103.543 39.5461C103.543 39.7561 103.47 39.926 103.325 40.036C103.216 40.146 103.035 40.2361 102.781 40.3061H94.397C94.071 40.2361 93.835 40.1558 93.69 40.0858C93.544 39.9758 93.472 39.776 93.472 39.486C93.472 39.306 93.563 39.1661 93.744 39.0561C93.926 38.9461 94.234 38.8159 94.67 38.6759C94.815 38.6359 94.942 38.5961 95.051 38.5661C95.196 38.5261 95.323 38.4759 95.432 38.3959C95.795 38.2159 96.012 37.986 96.085 37.696C96.194 37.406 96.248 37.006 96.248 36.496L96.194 20.766C96.194 19.456 96.393 18.276 96.793 17.226C97.228 16.166 97.9 15.1161 98.807 14.0661H99.623C99.914 13.6261 100.331 13.2259 100.876 12.8659C101.42 12.5059 101.964 12.1759 102.509 11.8859C103.489 11.7759 104.378 11.726 105.176 11.726C106.011 11.726 106.9 11.796 107.844 11.946C108.424 12.266 108.932 12.5561 109.368 12.8161C109.804 13.0661 110.275 13.4861 110.783 14.0661H111.6C112.544 15.0461 113.233 16.026 113.669 17.006C114.104 17.986 114.322 19.076 114.322 20.276L114.376 36.496C114.376 37.006 114.413 37.406 114.485 37.696C114.594 37.986 114.83 38.2159 115.193 38.3959C115.338 38.4759 115.483 38.5261 115.628 38.5661C115.774 38.5961 115.919 38.6359 116.064 38.6759C116.536 38.7759 116.881 38.886 117.098 38.996C117.352 39.106 117.479 39.266 117.479 39.486C117.479 39.776 117.407 39.9758 117.262 40.0858C117.153 40.1558 116.917 40.2361 116.554 40.3061H108.443C108.152 40.2361 107.934 40.146 107.789 40.036C107.68 39.926 107.626 39.7561 107.626 39.5461C107.626 39.3261 107.735 39.1661 107.953 39.0561C108.17 38.9061 108.497 38.7659 108.932 38.6159C109.332 38.5459 109.658 38.3859 109.912 38.1259C110.203 37.8759 110.33 37.326 110.293 36.496V19.016C110.293 17.636 110.021 16.5859 109.477 15.8659C108.969 15.1359 108.297 14.5361 107.463 14.0661H107.082C106.392 13.9161 105.775 13.8459 105.231 13.8459C104.686 13.8159 104.069 13.8861 103.38 14.0661H102.781C102.091 14.5761 101.474 15.1859 100.93 15.9159C100.422 16.6459 100.168 17.6359 100.168 18.9059V36.496ZM10.616 37.696C10.616 36.896 10.852 36.166 11.323 35.516C12.013 35.006 12.757 34.756 13.555 34.756C14.354 34.716 15.098 34.9359 15.787 35.4059C16.295 36.0959 16.549 36.8359 16.549 37.6359C16.586 38.4359 16.35 39.1759 15.842 39.8659C15.152 40.3459 14.408 40.5758 13.61 40.5758C12.811 40.6158 12.067 40.3959 11.378 39.9259C10.87 39.2359 10.616 38.486 10.616 37.696Z" fill="black"/>
</svg>
