<svg width="136" height="41" viewBox="0 0 136 41" fill="none" xmlns="http://www.w3.org/2000/svg">
<path fill-rule="evenodd" clip-rule="evenodd" d="M4.355 14.5556C5.299 14.6656 6.315 14.5156 7.404 14.1156C8.529 13.6856 9.908 13.1059 11.541 12.3759L13.065 11.6659L13.12 16.2958C11.305 16.9858 9.726 17.4557 8.384 17.7157C7.041 17.9257 5.698 17.8359 4.355 17.4359V14.5556ZM4.355 14.5556L3.593 16.6757C2.468 16.0957 1.579 15.2657 0.925 14.1757C0.308 13.0857 0 11.8858 0 10.5858C0.181 9.27584 0.617 8.18582 1.307 7.31582C2.032 6.40582 3.049 5.62549 4.355 4.97549V4.21573L6.642 2.95547C7.077 2.66547 7.458 2.43577 7.785 2.25577C8.148 2.03577 8.456 1.86553 8.71 1.76553V0.995512C9.327 0.785512 9.89 0.745903 10.398 0.895903C10.942 1.0359 11.396 1.30547 11.759 1.70547C11.977 2.32547 11.995 2.86584 11.813 3.33584C11.632 3.77584 11.269 4.22547 10.725 4.70547L8.71 5.2958V6.06582C8.021 6.31582 7.24 6.6458 6.369 7.0458C5.498 7.4058 4.827 7.65557 4.355 7.80557V8.07559C3.811 8.51559 3.321 9.0058 2.885 9.5458C2.486 10.0958 2.286 10.7658 2.286 11.5658C2.286 12.4358 2.486 13.1259 2.885 13.6259C3.321 14.1059 3.811 14.4056 4.355 14.5556ZM21.286 22.7758C21.032 22.9558 20.759 23.1155 20.469 23.2655C20.215 23.4055 19.943 23.5758 19.653 23.7558C17.874 24.8058 16.513 25.6957 15.57 26.4257C14.662 27.1157 14.209 27.8955 14.209 28.7655V31.0458C14.063 31.2658 13.864 31.4356 13.61 31.5356C13.392 31.6156 13.156 31.6156 12.902 31.5356C12.648 31.4356 12.467 31.2455 12.358 30.9955V28.7655C12.358 27.4955 12.594 26.4557 13.065 25.6557C13.537 24.8657 14.172 24.0059 14.971 23.1059L15.243 22.7758H16.06C16.422 22.3358 16.876 21.9356 17.421 21.5756C18.001 21.1756 18.6 20.7656 19.217 20.3256C19.616 20.0356 20.052 19.7455 20.523 19.4555C21.032 19.1655 21.54 18.8159 22.048 18.4159H22.864C23.59 17.6959 24.153 17.0455 24.552 16.4555C24.988 15.8455 25.205 15.0458 25.205 14.0658H26.131V13.3056H25.478C25.405 12.7256 25.115 12.2456 24.606 11.8856C24.098 11.5256 23.5 11.3456 22.81 11.3456C22.048 11.3456 21.213 11.5058 20.306 11.8358C19.398 12.1258 18.437 12.5055 17.421 12.9755V13.7357L13.12 15.5356L13.065 10.9057C13.501 10.7657 14.118 10.5458 14.916 10.2558C15.715 9.96577 16.549 9.67565 17.421 9.38565V8.62588C18.872 8.22588 20.342 8.03559 21.83 8.07559C23.318 8.11559 24.752 8.74575 26.131 9.98575V11.0155L26.893 10.7455C27.183 11.2155 27.437 11.7456 27.655 12.3256C27.909 12.9056 28.09 13.4858 28.199 14.0658H27.437C27.582 14.7958 27.637 15.5155 27.601 16.2455C27.564 16.9655 27.419 17.6959 27.165 18.4159H26.403C26.076 19.2959 25.532 20.0755 24.77 20.7655C24.008 21.4155 23.118 22.0858 22.102 22.7758H21.286ZM39.196 37.6357C40.212 38.1857 41.283 38.4858 42.408 38.5658C43.533 38.5958 44.586 38.3857 45.566 37.9057C46.582 37.4357 47.416 36.7458 48.07 35.8358L50.465 36.6059C49.086 38.2359 47.416 39.3655 45.457 39.9755C43.533 40.5955 41.446 40.7557 39.196 40.4657V37.6357ZM39.196 3.44571V1.21573C40.866 0.705727 42.462 0.495825 43.987 0.565825C45.511 0.595825 46.818 0.745512 47.906 0.995512V1.76553C48.705 2.01553 49.34 2.26579 49.812 2.52579C50.283 2.74579 50.628 3.04571 50.846 3.44571C50.882 4.75571 50.919 6.1559 50.955 7.6459C50.991 9.0959 51.009 10.5257 51.009 11.9457C50.864 12.1957 50.665 12.3956 50.411 12.5356C50.193 12.6456 49.939 12.6656 49.648 12.5956C49.394 12.4856 49.177 12.2855 48.995 11.9955C48.741 10.9455 48.523 10.1055 48.342 9.49551C48.197 8.83551 48.051 8.20584 47.906 7.58584V6.93594C47.181 5.44594 46.328 4.35592 45.348 3.66592C44.404 2.97592 43.388 2.63565 42.299 2.63565C41.247 2.63565 40.212 2.90571 39.196 3.44571ZM48.07 35.8358C48.868 33.2658 48.904 30.9055 48.179 28.7655C47.453 26.5855 46.346 24.5858 44.858 22.7758H44.096C43.733 22.3358 43.352 21.9556 42.952 21.6356C42.553 21.2656 42.118 20.8659 41.646 20.4359C41.319 20.1059 40.974 19.7958 40.612 19.5058C40.249 19.1858 39.886 18.8159 39.523 18.4159H38.761C37.926 17.5459 37.254 16.7856 36.746 16.1356C36.238 15.4456 35.839 14.7558 35.549 14.0658H34.786C34.387 13.3358 34.061 12.2355 33.807 10.7455C33.589 9.21551 33.77 7.65582 34.351 6.06582C34.968 4.46582 36.329 3.10549 38.434 1.97549L39.196 3.44571C38.361 4.31571 37.817 5.35557 37.563 6.55557C37.309 7.74557 37.382 9.00557 37.781 10.3056C38.18 11.6156 38.924 12.8658 40.013 14.0658H40.775C41.247 14.6858 41.882 15.3859 42.68 16.1859C43.479 16.9459 44.259 17.6959 45.021 18.4159H45.783C46.437 19.1059 47.054 19.7859 47.634 20.4359C48.215 21.0859 48.777 21.8658 49.322 22.7758H50.138C51.3 24.6958 52.044 26.7856 52.37 29.0356C52.697 31.2456 52.316 33.5158 51.227 35.8358H48.07ZM39.196 37.6357L38.434 39.7055C37.055 39.2655 35.93 38.8758 35.059 38.5058C34.224 38.1058 33.807 37.6057 33.807 36.9857L33.698 33.6059L33.589 28.7655C33.734 28.4755 33.916 28.2759 34.133 28.1659C34.351 28.0159 34.587 28.0059 34.841 28.1059C35.131 28.1859 35.367 28.3456 35.549 28.5956L35.766 29.4755C36.129 31.2855 36.565 32.8655 37.073 34.2055C37.581 35.5155 38.289 36.6557 39.196 37.6357ZM62.714 14.0658L60.645 13.3056C61.806 12.6856 62.859 12.2656 63.803 12.0556C64.746 11.8356 65.726 11.7255 66.742 11.7255C67.65 11.9055 68.339 12.1756 68.811 12.5356C69.319 12.9056 69.7 13.4158 69.954 14.0658H70.716C71.116 14.8958 71.351 15.8459 71.424 16.8959C71.533 17.9159 71.587 19.0358 71.587 20.2758V20.5458C71.442 20.7958 71.261 20.9959 71.043 21.1459C70.862 21.2559 70.644 21.2657 70.39 21.1957C70.136 21.1257 69.882 20.9555 69.628 20.7055C69.591 20.5955 69.537 20.4656 69.464 20.3256C69.428 20.1456 69.392 19.9257 69.355 19.6757C68.992 18.3257 68.629 17.2058 68.266 16.2958C67.904 15.3558 67.432 14.6058 66.851 14.0658H66.252C65.563 13.7358 64.928 13.6159 64.347 13.6859C63.766 13.7159 63.222 13.8458 62.714 14.0658ZM68.974 35.8358C69.192 35.4058 69.392 34.9357 69.573 34.4257C69.791 33.9157 69.954 33.4255 70.063 32.9555L70.281 32.4159C70.535 32.1959 70.771 32.0858 70.989 32.0858C71.243 32.0458 71.46 32.1156 71.642 32.3056C71.823 32.4456 71.95 32.6256 72.023 32.8456C71.95 33.3556 71.86 33.8458 71.751 34.3158C71.678 34.7858 71.551 35.2958 71.37 35.8358H68.974ZM62.714 14.0658C61.734 15.4058 60.935 17.3358 60.318 19.8358C59.738 22.3058 59.52 24.9758 59.665 27.8358C59.81 30.7058 60.373 33.3758 61.353 35.8358H56.943C55.818 32.8658 55.274 29.9957 55.31 27.2357C55.346 24.4457 55.8 21.9257 56.671 19.6757C57.542 17.4257 58.613 15.5558 59.883 14.0658H62.714ZM61.353 35.8358C61.97 36.4258 62.678 36.8958 63.476 37.2558C64.274 37.5858 65.145 37.6555 66.089 37.4755C67.069 37.2955 68.031 36.7458 68.974 35.8358L70.553 36.6059C69.609 38.3459 68.357 39.5457 66.797 40.1957C65.236 40.8457 63.621 40.8655 61.952 40.2455C60.282 39.6355 58.867 38.4159 57.705 36.6059L61.353 35.8358ZM89.389 35.8358C89.679 35.2958 89.97 34.5857 90.26 33.7157C90.55 32.8457 90.75 32.0859 90.859 31.4359C91.077 31.2159 91.294 31.0858 91.512 31.0458C91.766 30.9758 92.002 31.0157 92.22 31.1557C92.438 31.3057 92.583 31.5058 92.655 31.7558C92.583 32.4158 92.456 33.1157 92.274 33.8857C92.093 34.6057 91.911 35.2558 91.73 35.8358H89.389ZM82.475 14.0658C81.386 15.3758 80.515 17.2756 79.862 19.7856C79.621 20.7056 79.434 21.6656 79.301 22.6356L79.372 22.2856C79.408 22.6456 79.517 22.9357 79.699 23.1557C79.917 23.3357 80.225 23.4457 80.624 23.4857C81.205 23.5157 81.949 23.5556 82.856 23.5956H85.524C86.322 23.5956 86.921 23.5159 87.32 23.3759C87.719 23.2259 88.064 23.0258 88.355 22.7758C88.5 22.4458 88.59 22.1055 88.627 21.7455C88.663 21.3455 88.681 20.9458 88.681 20.5458V20.2758C88.681 18.9258 88.536 17.7159 88.246 16.6259C87.992 15.5359 87.592 14.6858 87.048 14.0658H86.395C85.705 13.7058 85.016 13.5559 84.326 13.6259C83.673 13.6659 83.056 13.8158 82.475 14.0658L79.917 13.3056C81.042 12.6456 82.022 12.2356 82.856 12.0556C83.727 11.8656 84.653 11.7758 85.633 11.7758C86.395 11.9558 87.139 12.2356 87.865 12.5956C88.59 12.9556 89.189 13.4458 89.661 14.0658H90.423C91.294 15.3358 91.911 16.6756 92.274 18.0956C92.637 19.4756 92.782 21.0358 92.71 22.7758C92.71 23.5358 92.637 24.1559 92.492 24.6259C92.383 25.0659 92.111 25.3555 91.675 25.4955C91.058 25.5355 90.187 25.5556 89.062 25.5556C87.974 25.5156 86.667 25.4955 85.143 25.4955H81.169C80.479 25.4955 80.007 25.6956 79.753 26.0956C79.499 26.4556 79.281 26.9355 79.1 27.5155C79.09 27.3755 79.08 27.2358 79.07 27.0858C79.076 27.3558 79.086 27.6259 79.1 27.8959C79.281 30.7559 79.971 33.4058 81.169 35.8358H76.868C75.67 32.9758 75.053 30.1456 75.017 27.3456C75.017 24.5556 75.398 22.0155 76.16 19.7255C76.959 17.4355 77.957 15.5558 79.154 14.0658H82.475ZM81.169 35.8358C81.749 36.4258 82.511 36.8958 83.455 37.2558C84.399 37.5858 85.379 37.6555 86.395 37.4755C87.447 37.2955 88.445 36.7458 89.389 35.8358L90.968 36.6059C90.06 38.3859 88.754 39.5757 87.048 40.1957C85.379 40.7757 83.655 40.7358 81.876 40.0858C80.134 39.4358 78.719 38.2759 77.63 36.6059L81.169 35.8358ZM125.428 14.0658C124.339 15.3758 123.468 17.2756 122.814 19.7856C122.594 20.6256 122.42 21.4959 122.29 22.3759C122.366 22.6959 122.486 22.9557 122.651 23.1557C122.833 23.3357 123.141 23.4457 123.577 23.4857C124.157 23.5157 124.883 23.5556 125.754 23.5956H128.476C129.275 23.5956 129.855 23.5159 130.218 23.3759C130.617 23.2259 130.98 23.0258 131.307 22.7758C131.452 22.4458 131.543 22.1055 131.579 21.7455C131.615 21.3455 131.634 20.9458 131.634 20.5458V20.2758C131.634 18.9258 131.488 17.7159 131.198 16.6259C130.944 15.5359 130.527 14.6858 129.946 14.0658H129.347C128.621 13.7058 127.914 13.5559 127.224 13.6259C126.571 13.6659 125.972 13.8158 125.428 14.0658L122.869 13.3056C123.994 12.6456 124.974 12.2356 125.809 12.0556C126.643 11.8656 127.569 11.7758 128.585 11.7758C129.311 11.9558 130.037 12.2356 130.763 12.5956C131.488 12.9556 132.105 13.4458 132.613 14.0658H133.376C134.247 15.3358 134.845 16.6756 135.172 18.0956C135.535 19.4756 135.698 21.0358 135.662 22.7758C135.662 23.5358 135.589 24.1559 135.444 24.6259C135.299 25.0659 135.027 25.3555 134.628 25.4955C133.974 25.5355 133.085 25.5556 131.96 25.5556C130.871 25.5156 129.565 25.4955 128.041 25.4955H124.067C123.377 25.4955 122.905 25.6956 122.651 26.0956C122.433 26.4556 122.234 26.9355 122.052 27.5155C122.044 27.4655 122.037 27.4056 122.029 27.3456C122.035 27.5356 122.043 27.7159 122.052 27.8959C122.234 30.7559 122.923 33.4058 124.121 35.8358H119.82C118.623 32.9758 118.006 30.1456 117.969 27.3456C117.933 24.5556 118.314 22.0155 119.113 19.7255C119.911 17.4355 120.891 15.5558 122.052 14.0658H125.428ZM132.341 35.8358C132.632 35.2958 132.922 34.5857 133.212 33.7157C133.503 32.8457 133.702 32.0859 133.811 31.4359C133.993 31.2159 134.192 31.0858 134.41 31.0458C134.664 30.9758 134.9 31.0157 135.118 31.1557C135.335 31.3057 135.499 31.5058 135.608 31.7558C135.535 32.4158 135.408 33.1157 135.227 33.8857C135.045 34.6057 134.864 35.2558 134.682 35.8358H132.341ZM124.121 35.8358C124.702 36.4258 125.446 36.8958 126.353 37.2558C127.297 37.5858 128.295 37.6555 129.347 37.4755C130.4 37.2955 131.398 36.7458 132.341 35.8358L133.866 36.6059C132.958 38.3859 131.67 39.5757 130 40.1957C128.331 40.7757 126.607 40.7358 124.829 40.0858C123.087 39.4358 121.671 38.2759 120.582 36.6059L124.121 35.8358ZM100.113 36.4955C100.113 37.3255 100.277 37.8759 100.603 38.1259C100.966 38.3859 101.456 38.5456 102.073 38.6156C102.109 38.6556 102.146 38.6757 102.182 38.6757C102.255 38.6757 102.327 38.6855 102.4 38.7255C102.835 38.8355 103.126 38.9456 103.271 39.0556C103.452 39.1256 103.543 39.2858 103.543 39.5458C103.543 39.7958 103.47 39.9758 103.325 40.0858C103.216 40.1558 103.017 40.2356 102.726 40.3056H94.288C93.962 40.2356 93.726 40.1558 93.581 40.0858C93.472 39.9758 93.417 39.7757 93.417 39.4857C93.417 39.3057 93.508 39.1656 93.69 39.0556C93.871 38.9456 94.18 38.8157 94.615 38.6757C94.724 38.6357 94.851 38.5958 94.996 38.5658C95.141 38.5258 95.268 38.4855 95.377 38.4555C95.74 38.2355 95.958 37.9955 96.03 37.7455C96.139 37.4555 96.194 37.0355 96.194 36.4955L96.139 20.8158C96.139 19.5058 96.339 18.3258 96.738 17.2758C97.174 16.1858 97.863 15.1158 98.807 14.0658H99.569C99.859 13.6258 100.277 13.2256 100.821 12.8656C101.365 12.5056 101.928 12.1756 102.509 11.8856C103.452 11.7756 104.323 11.7255 105.122 11.7255C105.956 11.7255 106.846 11.7957 107.789 11.9457C108.37 12.2657 108.878 12.5756 109.314 12.8656C109.749 13.1256 110.239 13.5158 110.783 14.0658H111.546C112.489 15.0458 113.179 16.0258 113.614 17.0058C114.05 17.9858 114.268 19.0956 114.268 20.3256L114.322 36.4955C114.322 37.0055 114.376 37.4057 114.485 37.6957C114.594 37.9857 114.83 38.2355 115.193 38.4555C115.338 38.4855 115.483 38.5258 115.628 38.5658C115.774 38.5958 115.919 38.6357 116.064 38.6757C116.5 38.7757 116.844 38.8855 117.098 38.9955C117.352 39.1055 117.479 39.2858 117.479 39.5458C117.479 39.8358 117.407 40.0158 117.262 40.0858C117.153 40.1558 116.917 40.2356 116.554 40.3056H108.334C108.08 40.2356 107.88 40.1558 107.735 40.0858C107.626 39.9758 107.572 39.7958 107.572 39.5458C107.572 39.3258 107.68 39.1656 107.898 39.0556C108.116 38.9056 108.443 38.7757 108.878 38.6757C109.277 38.5657 109.622 38.3859 109.912 38.1259C110.203 37.8759 110.33 37.3255 110.293 36.4955V19.0155C110.293 17.6055 110.021 16.5556 109.477 15.8656C108.932 15.1356 108.243 14.5358 107.408 14.0658H107.027C106.338 13.9158 105.721 13.8456 105.176 13.8456C104.632 13.8156 104.015 13.8858 103.325 14.0658H102.781C102.055 14.5358 101.42 15.1559 100.876 15.9159C100.367 16.6459 100.113 17.6357 100.113 18.9057V36.4955ZM10.561 37.6957C10.561 36.8957 10.815 36.1455 11.323 35.4555C12.013 34.9555 12.757 34.6957 13.555 34.6957C14.354 34.6957 15.098 34.9357 15.787 35.4057C16.295 36.0957 16.549 36.8357 16.549 37.6357C16.549 38.4357 16.295 39.1658 15.787 39.8158C15.134 40.3258 14.39 40.5756 13.555 40.5756C12.757 40.6156 12.031 40.3957 11.378 39.9257C10.87 39.2357 10.598 38.4857 10.561 37.6957Z" fill="black"/>
</svg>
