<svg width="136" height="41" viewBox="0 0 136 41" fill="none" xmlns="http://www.w3.org/2000/svg">
<path fill-rule="evenodd" clip-rule="evenodd" d="M4.355 14.5556L3.647 16.6757C2.486 16.0957 1.579 15.2855 0.925 14.2255C0.308 13.1355 0 11.9258 0 10.5858C0.145 9.27584 0.581 8.16577 1.307 7.25577C2.032 6.35577 3.049 5.57592 4.355 4.91592V4.15567L6.642 2.90567C7.077 2.65567 7.458 2.41571 7.785 2.19571C8.148 1.97571 8.456 1.81547 8.71 1.70547V0.995512C9.327 0.785512 9.89 0.745903 10.398 0.895903C10.942 1.0359 11.396 1.30547 11.759 1.70547C11.977 2.32547 11.995 2.86584 11.813 3.33584C11.632 3.77584 11.269 4.22547 10.725 4.70547L8.71 5.2958V6.06582C8.021 6.27582 7.24 6.58575 6.369 6.98575C5.498 7.35575 4.827 7.62557 4.355 7.80557V8.02579C3.811 8.49579 3.321 9.0058 2.885 9.5458C2.486 10.0958 2.286 10.7658 2.286 11.5658C2.286 12.4358 2.486 13.1259 2.885 13.6259C3.321 14.1059 3.811 14.4056 4.355 14.5556ZM4.355 14.5556C5.299 14.6656 6.315 14.5156 7.404 14.1156C8.529 13.6856 9.908 13.0856 11.541 12.3256L13.065 11.6659L13.12 16.2958C11.305 16.9858 9.726 17.4557 8.384 17.7157C7.041 17.9257 5.698 17.8359 4.355 17.4359V14.5556ZM21.34 22.7758C21.086 22.9558 20.814 23.1155 20.523 23.2655C20.27 23.4055 19.997 23.5758 19.707 23.7558C17.892 24.8058 16.513 25.6957 15.57 26.4257C14.626 27.1457 14.154 27.9255 14.154 28.7655V31.0458C14.045 31.2658 13.864 31.4356 13.61 31.5356C13.356 31.6156 13.102 31.6156 12.848 31.5356C12.63 31.4356 12.467 31.2455 12.358 30.9955V28.7655C12.358 27.4955 12.594 26.4557 13.065 25.6557C13.537 24.8657 14.172 24.0059 14.971 23.1059L15.297 22.7758H16.005C16.404 22.3358 16.876 21.9356 17.421 21.5756C18.001 21.1756 18.6 20.7656 19.217 20.3256C19.653 20.0356 20.106 19.7455 20.578 19.4555C21.086 19.1655 21.594 18.8159 22.102 18.4159H22.864C23.627 17.6959 24.207 17.0455 24.606 16.4555C25.042 15.8455 25.26 15.0458 25.26 14.0658H26.131V13.3559H25.532C25.423 12.7759 25.115 12.3057 24.606 11.9457C24.135 11.5457 23.536 11.3456 22.81 11.3456C22.048 11.3456 21.213 11.5058 20.306 11.8358C19.398 12.1258 18.437 12.5258 17.421 13.0258V13.7357L13.12 15.5356L13.065 10.9057C13.501 10.7657 14.118 10.5458 14.916 10.2558C15.715 9.96577 16.549 9.67565 17.421 9.38565V8.67569C18.872 8.27569 20.342 8.09565 21.83 8.13565C23.354 8.16565 24.788 8.80555 26.131 10.0356V11.0155L26.838 10.7455C27.129 11.2155 27.383 11.7456 27.601 12.3256C27.855 12.9056 28.054 13.4858 28.199 14.0658H27.437C27.582 14.7958 27.637 15.5155 27.601 16.2455C27.601 16.9655 27.455 17.6959 27.165 18.4159H26.457C26.131 19.2959 25.568 20.0755 24.77 20.7655C24.008 21.4155 23.118 22.0858 22.102 22.7758H21.34ZM39.196 37.6357L38.488 39.7558C37.073 39.3258 35.93 38.9258 35.059 38.5658C34.224 38.1658 33.807 37.6556 33.807 37.0356L33.698 33.6659L33.589 28.7655C33.698 28.4755 33.861 28.2759 34.079 28.1659C34.333 28.0159 34.587 28.0059 34.841 28.1059C35.131 28.1859 35.367 28.3456 35.549 28.5956L35.712 29.4755C36.111 31.2855 36.565 32.8655 37.073 34.2055C37.581 35.5455 38.289 36.6957 39.196 37.6357ZM39.196 3.3959V1.21573C40.866 0.705727 42.462 0.495825 43.987 0.565825C45.511 0.595825 46.818 0.745512 47.906 0.995512V1.70547C48.705 1.96547 49.34 2.21573 49.812 2.46573C50.283 2.68573 50.61 2.9959 50.792 3.3959C50.828 4.7359 50.864 6.1559 50.901 7.6459C50.973 9.0959 51.009 10.5056 51.009 11.8856C50.864 12.1756 50.665 12.3757 50.411 12.4857C50.193 12.5957 49.939 12.6156 49.648 12.5356C49.394 12.4356 49.177 12.2455 48.995 11.9955C48.741 10.9455 48.523 10.1055 48.342 9.49551C48.197 8.83551 48.051 8.20584 47.906 7.58584V6.93594C47.181 5.44594 46.328 4.35592 45.348 3.66592C44.404 2.94592 43.388 2.57559 42.299 2.57559C41.247 2.57559 40.212 2.8459 39.196 3.3959ZM39.196 37.6357C40.212 38.1857 41.283 38.4858 42.408 38.5658C43.533 38.6358 44.586 38.4357 45.566 37.9657C46.582 37.4957 47.416 36.7858 48.07 35.8358L50.465 36.5458C49.086 38.1858 47.416 39.3255 45.457 39.9755C43.533 40.5955 41.446 40.7557 39.196 40.4657V37.6357ZM48.07 35.8358C48.904 33.2658 48.941 30.9055 48.179 28.7655C47.453 26.5855 46.328 24.5858 44.803 22.7758H44.096C43.733 22.3358 43.352 21.9556 42.952 21.6356C42.553 21.2656 42.118 20.8659 41.646 20.4359C41.319 20.1059 40.956 19.7958 40.557 19.5058C40.194 19.1858 39.831 18.8159 39.468 18.4159H38.761C37.89 17.5459 37.2 16.7856 36.692 16.1356C36.184 15.4456 35.803 14.7558 35.549 14.0658H34.786C34.387 13.3358 34.061 12.2355 33.807 10.7455C33.553 9.21551 33.734 7.65582 34.351 6.06582C34.968 4.42582 36.347 3.06549 38.488 1.97549L39.196 3.3959C38.361 4.2659 37.817 5.31557 37.563 6.55557C37.309 7.74557 37.382 9.00557 37.781 10.3056C38.18 11.6156 38.924 12.8658 40.013 14.0658H40.72C41.228 14.6858 41.882 15.3859 42.68 16.1859C43.479 16.9459 44.259 17.6959 45.021 18.4159H45.783C46.4 19.1059 46.999 19.7859 47.58 20.4359C48.197 21.0859 48.795 21.8658 49.376 22.7758H50.084C51.282 24.6658 52.044 26.7357 52.37 28.9857C52.697 31.2357 52.316 33.5158 51.227 35.8358H48.07ZM61.353 35.8358C61.934 36.4258 62.623 36.8958 63.422 37.2558C64.256 37.5858 65.145 37.6555 66.089 37.4755C67.069 37.2955 68.031 36.7458 68.974 35.8358L70.607 36.5458C69.664 38.3258 68.394 39.5457 66.797 40.1957C65.2 40.8457 63.567 40.8457 61.897 40.1957C60.228 39.5757 58.812 38.3658 57.651 36.5458L61.353 35.8358ZM62.714 14.0658C61.734 15.3758 60.935 17.2756 60.318 19.7856C59.738 22.2456 59.52 24.9358 59.665 27.8358C59.81 30.7058 60.373 33.3758 61.353 35.8358H56.943C55.782 32.8658 55.219 29.9759 55.256 27.1859C55.328 24.3859 55.8 21.8656 56.671 19.6156C57.578 17.3656 58.667 15.5158 59.937 14.0658H62.714ZM62.714 14.0658L60.645 13.3559C61.806 12.7359 62.859 12.3259 63.803 12.1059C64.746 11.8559 65.708 11.7255 66.688 11.7255C67.631 11.9055 68.339 12.1756 68.811 12.5356C69.319 12.9056 69.7 13.4158 69.954 14.0658H70.662C71.061 14.8958 71.297 15.8459 71.37 16.8959C71.478 17.9159 71.533 19.0358 71.533 20.2758V20.5956C71.424 20.8556 71.261 21.0557 71.043 21.1957C70.862 21.3057 70.644 21.3258 70.39 21.2558C70.136 21.1758 69.882 20.9955 69.628 20.7055C69.591 20.5955 69.537 20.4656 69.464 20.3256C69.428 20.1456 69.392 19.9455 69.355 19.7255C68.992 18.3455 68.611 17.2058 68.212 16.2958C67.849 15.3558 67.396 14.6058 66.851 14.0658H66.252C65.563 13.7358 64.928 13.6159 64.347 13.6859C63.766 13.7159 63.222 13.8458 62.714 14.0658ZM68.974 35.8358C69.192 35.4058 69.392 34.9357 69.573 34.4257C69.791 33.9157 69.954 33.4255 70.063 32.9555L70.281 32.4159C70.535 32.1959 70.771 32.0858 70.989 32.0858C71.243 32.0458 71.46 32.1156 71.642 32.3056C71.823 32.4456 71.95 32.6457 72.023 32.9057C71.95 33.3757 71.86 33.8458 71.751 34.3158C71.642 34.7858 71.497 35.2958 71.315 35.8358H68.974ZM81.169 35.8358C81.749 36.4258 82.493 36.8958 83.401 37.2558C84.344 37.5858 85.342 37.6555 86.395 37.4755C87.447 37.2955 88.445 36.7458 89.389 35.8358L90.968 36.5458C90.06 38.3658 88.754 39.5757 87.048 40.1957C85.379 40.8157 83.655 40.7959 81.876 40.1459C80.098 39.4559 78.664 38.2558 77.576 36.5458L81.169 35.8358ZM82.475 14.0658C81.386 15.3358 80.497 17.2255 79.808 19.7255C79.562 20.6655 79.376 21.6356 79.248 22.6356L79.318 22.2856C79.354 22.6456 79.463 22.9357 79.644 23.1557C79.862 23.3357 80.189 23.4457 80.624 23.4857C81.169 23.5157 81.894 23.5556 82.802 23.5956H85.524C86.286 23.5956 86.867 23.5159 87.266 23.3759C87.665 23.2259 88.028 23.0258 88.355 22.7758C88.5 22.4458 88.572 22.1055 88.572 21.7455C88.609 21.3455 88.627 20.9458 88.627 20.5458V20.2758C88.627 18.9258 88.482 17.7159 88.191 16.6259C87.937 15.5359 87.538 14.6858 86.994 14.0658H86.395C85.669 13.7058 84.961 13.5559 84.272 13.6259C83.618 13.6659 83.019 13.8158 82.475 14.0658L79.917 13.3559C81.005 12.6659 81.967 12.2356 82.802 12.0556C83.673 11.8656 84.598 11.7758 85.578 11.7758C86.34 11.9558 87.084 12.2356 87.81 12.5956C88.536 12.9556 89.153 13.4458 89.661 14.0658H90.369C91.24 15.3358 91.857 16.6756 92.22 18.0956C92.583 19.4756 92.746 21.0358 92.71 22.7758C92.71 23.5358 92.637 24.1559 92.492 24.6259C92.347 25.0659 92.056 25.3555 91.621 25.4955C91.004 25.5355 90.133 25.5556 89.008 25.5556C87.919 25.5156 86.594 25.4955 85.034 25.4955H81.114C80.425 25.4955 79.953 25.6956 79.699 26.0956C79.445 26.4556 79.245 26.9355 79.1 27.5155C79.09 27.4455 79.081 27.3756 79.071 27.3056C79.079 27.4856 79.089 27.6558 79.1 27.8358C79.281 30.7458 79.971 33.4058 81.169 35.8358H76.868C75.634 32.9758 74.999 30.1456 74.963 27.3456C74.963 24.5556 75.362 22.0155 76.16 19.7255C76.959 17.4055 77.957 15.5158 79.154 14.0658H82.475ZM89.389 35.8358C89.679 35.2958 89.97 34.5857 90.26 33.7157C90.55 32.8457 90.75 32.0859 90.859 31.4359C91.04 31.2159 91.258 31.0858 91.512 31.0458C91.766 30.9758 91.984 31.0157 92.165 31.1557C92.383 31.3057 92.546 31.5058 92.655 31.7558C92.546 32.4158 92.401 33.1157 92.22 33.8857C92.038 34.6057 91.857 35.2558 91.675 35.8358H89.389ZM132.287 35.8358C132.577 35.2958 132.868 34.5857 133.158 33.7157C133.448 32.8457 133.666 32.0859 133.811 31.4359C133.993 31.2159 134.192 31.0858 134.41 31.0458C134.664 30.9758 134.9 31.0157 135.118 31.1557C135.335 31.3057 135.481 31.5058 135.553 31.7558C135.481 32.4158 135.354 33.1157 135.172 33.8857C134.991 34.6057 134.809 35.2558 134.628 35.8358H132.287ZM124.067 35.8358C124.647 36.4258 125.409 36.8958 126.353 37.2558C127.297 37.5858 128.276 37.6555 129.293 37.4755C130.345 37.2955 131.343 36.7458 132.287 35.8358L133.866 36.5458C132.958 38.3658 131.652 39.5757 129.946 40.1957C128.276 40.8157 126.553 40.7959 124.774 40.1459C123.032 39.4559 121.617 38.2558 120.528 36.5458L124.067 35.8358ZM125.373 14.0658C124.284 15.3358 123.413 17.2255 122.76 19.7255C122.537 20.5855 122.361 21.4559 122.231 22.3559C122.306 22.6859 122.427 22.9557 122.597 23.1557C122.778 23.3357 123.087 23.4457 123.522 23.4857C124.103 23.5157 124.829 23.5556 125.7 23.5956H128.422C129.22 23.5956 129.801 23.5159 130.164 23.3759C130.563 23.2259 130.926 23.0258 131.252 22.7758C131.398 22.4458 131.488 22.1055 131.525 21.7455C131.561 21.3455 131.579 20.9458 131.579 20.5458V20.2758C131.579 18.9258 131.434 17.7159 131.144 16.6259C130.89 15.5359 130.472 14.6858 129.892 14.0658H129.293C128.603 13.7058 127.914 13.5559 127.224 13.6259C126.571 13.6659 125.954 13.8158 125.373 14.0658L122.814 13.3559C123.94 12.6659 124.919 12.2356 125.754 12.0556C126.589 11.8656 127.496 11.7758 128.476 11.7758C129.238 11.9558 129.982 12.2356 130.708 12.5956C131.47 12.9556 132.087 13.4458 132.559 14.0658H133.321C134.192 15.3358 134.809 16.6756 135.172 18.0956C135.535 19.4756 135.68 21.0358 135.608 22.7758C135.608 23.5358 135.535 24.1559 135.39 24.6259C135.245 25.0659 134.972 25.3555 134.573 25.4955C133.92 25.5355 133.031 25.5556 131.906 25.5556C130.817 25.5156 129.51 25.4955 127.986 25.4955H124.012C123.323 25.4955 122.851 25.6956 122.597 26.0956C122.379 26.4556 122.179 26.9355 121.998 27.5155C121.991 27.4655 121.984 27.4156 121.978 27.3656C121.984 27.5256 121.99 27.6758 121.998 27.8358C122.179 30.7458 122.869 33.4058 124.067 35.8358H119.766C118.568 32.9758 117.951 30.1456 117.915 27.3456C117.879 24.5556 118.26 22.0155 119.058 19.7255C119.857 17.4055 120.855 15.5158 122.052 14.0658H125.373ZM100.113 36.4955C100.077 37.3655 100.222 37.9259 100.549 38.1859C100.912 38.3959 101.402 38.5456 102.019 38.6156C102.091 38.6556 102.146 38.6855 102.182 38.7255H102.345C102.817 38.8355 103.126 38.9456 103.271 39.0556C103.452 39.1256 103.543 39.2858 103.543 39.5458C103.543 39.7958 103.47 39.9758 103.325 40.0858C103.18 40.1558 102.98 40.2356 102.726 40.3056H94.234C93.907 40.2356 93.671 40.1558 93.526 40.0858C93.381 39.9758 93.309 39.7757 93.309 39.4857C93.309 39.3057 93.399 39.1656 93.581 39.0556C93.762 38.9456 94.089 38.8157 94.561 38.6757C94.67 38.6357 94.796 38.5958 94.942 38.5658C95.087 38.5258 95.214 38.4855 95.323 38.4555C95.686 38.2755 95.903 38.0355 95.976 37.7455C96.085 37.4555 96.139 37.0355 96.139 36.4955L96.085 20.8158C96.085 19.5058 96.284 18.3258 96.684 17.2758C97.119 16.1858 97.809 15.1158 98.752 14.0658H99.515C99.805 13.6258 100.222 13.2457 100.767 12.9257C101.347 12.5557 101.928 12.2357 102.509 11.9457C103.416 11.7957 104.269 11.7255 105.067 11.7255C105.902 11.7255 106.791 11.8155 107.735 11.9955C108.316 12.2855 108.824 12.5756 109.259 12.8656C109.695 13.1256 110.185 13.5158 110.729 14.0658H111.491C112.435 15.0458 113.124 16.0258 113.56 17.0058C113.995 17.9858 114.213 19.0956 114.213 20.3256L114.268 36.4955C114.268 37.0055 114.322 37.4155 114.431 37.7455C114.54 38.0355 114.776 38.2755 115.139 38.4555C115.284 38.4855 115.429 38.5258 115.574 38.5658C115.756 38.5958 115.919 38.6357 116.064 38.6757C116.5 38.7757 116.844 38.8855 117.098 38.9955C117.352 39.1055 117.479 39.2858 117.479 39.5458C117.479 39.8358 117.407 40.0158 117.262 40.0858C117.153 40.1558 116.917 40.2356 116.554 40.3056H108.279C108.025 40.2356 107.826 40.1558 107.68 40.0858C107.535 39.9758 107.463 39.7958 107.463 39.5458C107.463 39.3258 107.572 39.1656 107.789 39.0556C108.043 38.9056 108.388 38.7757 108.824 38.6757C109.223 38.5657 109.568 38.3859 109.858 38.1259C110.148 37.8759 110.275 37.3255 110.239 36.4955V19.0155C110.239 17.6055 109.967 16.5356 109.422 15.8056C108.878 15.0856 108.188 14.4958 107.354 14.0658H106.973C106.283 13.9158 105.666 13.8456 105.122 13.8456C104.577 13.8156 103.979 13.8858 103.325 14.0658H102.781C102.055 14.5358 101.42 15.1559 100.876 15.9159C100.367 16.6459 100.113 17.6357 100.113 18.9057V36.4955ZM10.507 37.6957C10.507 36.8957 10.779 36.1455 11.323 35.4555C11.977 34.9555 12.702 34.6957 13.501 34.6957C14.336 34.6657 15.08 34.8957 15.733 35.4057C16.241 36.0557 16.495 36.8057 16.495 37.6357C16.531 38.4357 16.295 39.1658 15.787 39.8158C15.098 40.3258 14.354 40.5756 13.555 40.5756C12.757 40.6156 12.013 40.3957 11.323 39.9257C10.815 39.2357 10.543 38.4857 10.507 37.6957Z" fill="black"/>
</svg>
