<svg width="136" height="41" viewBox="0 0 136 41" fill="none" xmlns="http://www.w3.org/2000/svg">
<path fill-rule="evenodd" clip-rule="evenodd" d="M4.355 14.5556C5.262 14.6656 6.279 14.5156 7.404 14.1156C8.529 13.6856 9.908 13.0856 11.541 12.3256L13.065 11.6156L13.12 16.2455C11.305 16.9655 9.708 17.4357 8.329 17.6557C6.986 17.8757 5.662 17.7856 4.355 17.3856V14.5556ZM4.355 14.5556L3.647 16.7357C2.486 16.1557 1.579 15.3155 0.925 14.2255C0.308 13.1355 0 11.9258 0 10.5858C0.145 9.27584 0.581 8.16577 1.307 7.25577C2.032 6.31577 3.049 5.51563 4.355 4.86563V4.15567L6.642 2.90567C7.077 2.61567 7.458 2.3559 7.785 2.1459C8.148 1.9259 8.456 1.77547 8.71 1.70547V0.995512C9.327 0.785512 9.89 0.745903 10.398 0.895903C10.906 1.0359 11.36 1.30547 11.759 1.70547C11.94 2.32547 11.94 2.86584 11.759 3.33584C11.577 3.81584 11.214 4.2459 10.67 4.6459L8.71 5.2958V6.00577C8.021 6.26577 7.24 6.58575 6.369 6.98575C5.498 7.35575 4.827 7.62557 4.355 7.80557V8.02579C3.811 8.45579 3.321 8.94551 2.885 9.49551C2.45 10.0355 2.232 10.7258 2.232 11.5658C2.232 12.4358 2.45 13.1259 2.885 13.6259C3.321 14.1059 3.811 14.4056 4.355 14.5556ZM21.395 22.7758C21.141 22.9558 20.868 23.1155 20.578 23.2655C20.288 23.4055 19.997 23.5758 19.707 23.7558C17.892 24.8458 16.495 25.7555 15.515 26.4755C14.572 27.1655 14.1 27.9458 14.1 28.8158V31.0458C13.991 31.2658 13.809 31.4356 13.555 31.5356C13.338 31.6156 13.102 31.5957 12.848 31.4857C12.63 31.3757 12.467 31.2155 12.358 30.9955V28.7655C12.358 27.4955 12.594 26.4557 13.065 25.6557C13.537 24.8657 14.172 24.0059 14.971 23.1059L15.297 22.7758H16.005C16.404 22.3358 16.876 21.9356 17.421 21.5756C18.001 21.1756 18.618 20.7656 19.271 20.3256C19.671 20.0356 20.124 19.7455 20.632 19.4555C21.141 19.1655 21.667 18.8159 22.211 18.4159H22.864C23.627 17.6959 24.225 17.0455 24.661 16.4555C25.096 15.8455 25.314 15.0458 25.314 14.0658H26.131V13.3559H25.532C25.459 12.7759 25.169 12.3057 24.661 11.9457C24.153 11.5457 23.554 11.3456 22.864 11.3456C22.102 11.3456 21.267 11.5058 20.36 11.8358C19.453 12.1558 18.473 12.5558 17.421 13.0258V13.7357L13.12 15.5858L13.065 10.9657C13.501 10.8157 14.118 10.5956 14.916 10.3056C15.715 9.98557 16.549 9.67565 17.421 9.38565V8.67569C18.872 8.27569 20.342 8.09565 21.83 8.13565C23.354 8.16565 24.788 8.81561 26.131 10.0956V11.0155L26.838 10.7455C27.093 11.2155 27.347 11.7456 27.601 12.3256C27.855 12.9056 28.036 13.4858 28.145 14.0658H27.437C27.619 14.7958 27.691 15.5358 27.655 16.2958C27.619 17.0258 27.455 17.7259 27.165 18.4159H26.512C26.185 19.2559 25.623 20.0155 24.824 20.7055C24.062 21.3955 23.155 22.0858 22.102 22.7758H21.395ZM39.196 37.6957L38.488 39.7558C37.109 39.3958 35.984 39.0156 35.113 38.6156C34.242 38.2156 33.807 37.7259 33.807 37.1459L33.698 33.6659L33.534 28.7655C33.68 28.5055 33.861 28.3059 34.079 28.1659C34.297 28.0159 34.533 28.0059 34.786 28.1059C35.077 28.1859 35.313 28.3657 35.494 28.6557L35.658 29.5258C36.057 31.3058 36.51 32.8655 37.019 34.2055C37.563 35.5455 38.289 36.7157 39.196 37.6957ZM39.196 3.3959V1.21573C40.829 0.705727 42.408 0.495825 43.932 0.565825C45.493 0.595825 46.818 0.745512 47.906 0.995512V1.70547C48.705 1.92547 49.34 2.16592 49.812 2.41592C50.283 2.66592 50.61 2.9959 50.792 3.3959C50.828 4.7059 50.864 6.09584 50.901 7.58584C50.937 9.07584 50.955 10.5056 50.955 11.8856C50.846 12.1456 50.665 12.3457 50.411 12.4857C50.193 12.5957 49.939 12.6156 49.648 12.5356C49.394 12.4356 49.177 12.2357 48.995 11.9457C48.741 10.8857 48.523 10.0559 48.342 9.43594C48.197 8.78594 48.051 8.16584 47.906 7.58584V6.93594C47.181 5.40594 46.328 4.30563 45.348 3.61563C44.404 2.92563 43.388 2.57559 42.299 2.57559C41.247 2.57559 40.212 2.8459 39.196 3.3959ZM39.196 37.6957C40.176 38.2357 41.228 38.5456 42.354 38.6156C43.515 38.6556 44.586 38.4357 45.566 37.9657C46.582 37.4957 47.416 36.7858 48.07 35.8358L50.519 36.5458C49.14 38.1858 47.471 39.3255 45.511 39.9755C43.551 40.5955 41.446 40.7557 39.196 40.4657V37.6957ZM48.07 35.8358C48.904 33.2658 48.941 30.8855 48.179 28.7055C47.453 26.5355 46.328 24.5558 44.803 22.7758H44.096C43.733 22.3758 43.334 21.9956 42.898 21.6356C42.499 21.2656 42.081 20.8659 41.646 20.4359C41.283 20.1059 40.902 19.7855 40.503 19.4555C40.14 19.1255 39.777 18.7859 39.414 18.4159H38.761C37.89 17.5459 37.182 16.7856 36.638 16.1356C36.129 15.4456 35.748 14.7558 35.494 14.0658H34.786C34.387 13.3358 34.061 12.2159 33.807 10.6859C33.553 9.16594 33.734 7.60577 34.351 6.00577C34.968 4.41577 36.347 3.04569 38.488 1.92569L39.196 3.3959C38.325 4.2659 37.763 5.31557 37.509 6.55557C37.254 7.74557 37.327 9.01563 37.726 10.3656C38.162 11.6656 38.924 12.9058 40.013 14.0658H40.72C41.192 14.6858 41.827 15.3859 42.626 16.1859C43.461 16.9459 44.277 17.6959 45.076 18.4159H45.729C46.382 19.1059 46.999 19.7957 47.58 20.4857C48.197 21.1457 48.795 21.9058 49.376 22.7758H50.084C51.245 24.6658 51.989 26.7456 52.316 29.0356C52.679 31.2856 52.316 33.5558 51.227 35.8358H48.07ZM68.974 35.8358C69.192 35.4058 69.392 34.9357 69.573 34.4257C69.791 33.9157 69.972 33.4458 70.118 33.0058L70.281 32.4657C70.499 32.2157 70.734 32.0858 70.989 32.0858C71.243 32.0458 71.46 32.1156 71.642 32.3056C71.823 32.4456 71.932 32.6457 71.968 32.9057C71.896 33.3757 71.805 33.8458 71.696 34.3158C71.624 34.7858 71.497 35.2958 71.315 35.8358H68.974ZM62.768 14.0658L60.645 13.3559C61.77 12.7359 62.804 12.3259 63.748 12.1059C64.728 11.8859 65.69 11.7758 66.633 11.7758C67.613 11.9258 68.339 12.1756 68.811 12.5356C69.319 12.9056 69.7 13.4158 69.954 14.0658H70.662C71.061 14.8958 71.297 15.8459 71.37 16.8959C71.478 17.9159 71.533 19.0556 71.533 20.3256V20.5956C71.424 20.8556 71.261 21.0557 71.043 21.1957C70.862 21.3457 70.644 21.3756 70.39 21.3056C70.136 21.1956 69.882 21.0155 69.628 20.7655C69.555 20.6555 69.501 20.5259 69.464 20.3759C69.428 20.1959 69.392 19.9755 69.355 19.7255C68.992 18.3855 68.611 17.2358 68.212 16.2958C67.849 15.3558 67.377 14.6058 66.797 14.0658H66.252C65.563 13.7358 64.928 13.6159 64.347 13.6859C63.766 13.7159 63.24 13.8458 62.768 14.0658ZM61.407 35.8358C61.952 36.4258 62.623 36.8958 63.422 37.2558C64.256 37.5858 65.145 37.6555 66.089 37.4755C67.069 37.2955 68.031 36.7458 68.974 35.8358L70.607 36.5458C69.664 38.2858 68.394 39.5057 66.797 40.1957C65.2 40.8857 63.548 40.9055 61.843 40.2455C60.173 39.5955 58.776 38.3658 57.651 36.5458L61.407 35.8358ZM62.768 14.0658C61.752 15.3358 60.935 17.2255 60.318 19.7255C59.702 22.2355 59.466 24.9358 59.611 27.8358C59.792 30.7458 60.391 33.4058 61.407 35.8358H56.943C55.782 32.9058 55.219 30.0357 55.256 27.2357C55.292 24.4057 55.764 21.8656 56.671 19.6156C57.578 17.3356 58.667 15.4758 59.937 14.0658H62.768ZM89.334 35.8358C89.661 35.2958 89.97 34.5857 90.26 33.7157C90.55 32.8457 90.75 32.0859 90.859 31.4359C91.04 31.1759 91.24 31.0355 91.458 30.9955C91.712 30.9555 91.948 31.0157 92.165 31.1557C92.383 31.3057 92.528 31.5058 92.601 31.7558C92.528 32.4158 92.383 33.1157 92.165 33.8857C91.984 34.6057 91.802 35.2558 91.621 35.8358H89.334ZM81.169 35.8358C81.713 36.4258 82.457 36.8958 83.401 37.2558C84.344 37.5858 85.342 37.6555 86.395 37.4755C87.447 37.2955 88.427 36.7458 89.334 35.8358L90.968 36.5458C90.06 38.3258 88.754 39.5457 87.048 40.1957C85.342 40.8157 83.6 40.7959 81.822 40.1459C80.044 39.4559 78.61 38.2558 77.521 36.5458L81.169 35.8358ZM82.475 14.0658C81.386 15.2958 80.497 17.1855 79.808 19.7255C79.583 20.5855 79.406 21.4756 79.276 22.3856C79.321 22.7056 79.426 22.9557 79.59 23.1557C79.808 23.3757 80.134 23.4857 80.57 23.4857C81.114 23.5157 81.84 23.5556 82.747 23.5956H85.469C86.268 23.5956 86.867 23.5357 87.266 23.4257C87.665 23.2857 88.01 23.0658 88.3 22.7758C88.445 22.4458 88.536 22.1055 88.572 21.7455C88.609 21.3455 88.627 20.9458 88.627 20.5458V20.2758C88.627 18.9258 88.482 17.7159 88.191 16.6259C87.937 15.5359 87.52 14.6858 86.939 14.0658H86.395C85.669 13.7058 84.961 13.5559 84.272 13.6259C83.618 13.6659 83.019 13.8158 82.475 14.0658L79.862 13.3559C80.951 12.7059 81.913 12.2859 82.747 12.1059C83.618 11.9259 84.544 11.8358 85.524 11.8358C86.286 11.9758 87.03 12.2356 87.756 12.5956C88.518 12.9556 89.135 13.4458 89.607 14.0658H90.314C91.185 15.3358 91.802 16.6756 92.165 18.0956C92.565 19.4756 92.728 21.0358 92.655 22.7758C92.655 23.5358 92.583 24.1559 92.438 24.6259C92.292 25.0659 92.02 25.3555 91.621 25.4955C90.968 25.5355 90.078 25.5556 88.953 25.5556C87.865 25.5156 86.54 25.4955 84.979 25.4955H81.005C80.316 25.4955 79.844 25.6956 79.59 26.0956C79.372 26.4556 79.191 26.9355 79.046 27.5155C79.038 27.4655 79.03 27.4059 79.023 27.3559C79.029 27.5359 79.037 27.7159 79.046 27.8959C79.227 30.7959 79.935 33.4458 81.169 35.8358H76.814C75.616 32.9758 74.999 30.1456 74.963 27.3456C74.926 24.5156 75.307 21.9557 76.106 19.6757C76.941 17.3457 77.957 15.4758 79.154 14.0658H82.475ZM124.067 35.8358C124.611 36.4258 125.355 36.8958 126.299 37.2558C127.242 37.5858 128.24 37.6555 129.293 37.4755C130.345 37.2955 131.343 36.7458 132.287 35.8358L133.866 36.5458C132.958 38.3258 131.652 39.5457 129.946 40.1957C128.24 40.8157 126.498 40.7959 124.72 40.1459C122.941 39.4559 121.508 38.2558 120.419 36.5458L124.067 35.8358ZM132.287 35.8358C132.577 35.2958 132.868 34.5857 133.158 33.7157C133.448 32.8457 133.648 32.0859 133.757 31.4359C133.938 31.1759 134.138 31.0355 134.356 30.9955C134.61 30.9555 134.845 31.0157 135.063 31.1557C135.281 31.3057 135.426 31.5058 135.499 31.7558C135.426 32.4158 135.299 33.1157 135.118 33.8857C134.936 34.6057 134.755 35.2558 134.573 35.8358H132.287ZM125.373 14.0658C124.284 15.2958 123.395 17.1855 122.706 19.7255C122.483 20.5755 122.307 21.4559 122.177 22.3559C122.252 22.6859 122.374 22.9557 122.542 23.1557C122.724 23.3757 123.032 23.4857 123.468 23.4857C124.012 23.5157 124.738 23.5556 125.645 23.5956H128.367C129.166 23.5956 129.764 23.5357 130.164 23.4257C130.563 23.2857 130.908 23.0658 131.198 22.7758C131.343 22.4458 131.434 22.1055 131.47 21.7455C131.507 21.3455 131.525 20.9458 131.525 20.5458V20.2758C131.525 18.9258 131.38 17.7159 131.089 16.6259C130.835 15.5359 130.418 14.6858 129.837 14.0658H129.293C128.567 13.7058 127.859 13.5559 127.17 13.6259C126.516 13.6659 125.917 13.8158 125.373 14.0658L122.76 13.3559C123.885 12.7059 124.865 12.2859 125.7 12.1059C126.534 11.9259 127.442 11.8358 128.422 11.8358C129.184 11.9758 129.928 12.2356 130.654 12.5956C131.416 12.9556 132.051 13.4458 132.559 14.0658H133.212C134.12 15.3358 134.755 16.6756 135.118 18.0956C135.481 19.4756 135.626 21.0358 135.553 22.7758C135.553 23.5358 135.481 24.1559 135.335 24.6259C135.227 25.0659 134.954 25.3555 134.519 25.4955C133.866 25.5355 132.976 25.5556 131.851 25.5556C130.763 25.5156 129.438 25.4955 127.877 25.4955H123.903C123.214 25.4955 122.742 25.6956 122.488 26.0956C122.27 26.4556 122.089 26.9355 121.943 27.5155C121.935 27.4555 121.928 27.4056 121.92 27.3456C121.926 27.5256 121.934 27.7159 121.943 27.8959C122.125 30.7959 122.833 33.4458 124.067 35.8358H119.766C118.532 32.9758 117.897 30.1456 117.861 27.3456C117.824 24.5156 118.205 21.9557 119.004 19.6757C119.838 17.3457 120.873 15.4758 122.107 14.0658H125.373ZM100.059 36.5458C100.023 37.3858 100.168 37.9259 100.494 38.1859C100.857 38.3959 101.365 38.5657 102.019 38.6757C102.055 38.7057 102.091 38.7255 102.128 38.7255H102.345C102.781 38.8355 103.071 38.9456 103.216 39.0556C103.398 39.1256 103.489 39.2858 103.489 39.5458C103.489 39.7958 103.416 39.9758 103.271 40.0858C103.162 40.1558 102.962 40.2356 102.672 40.3056H94.18C93.817 40.2356 93.563 40.1558 93.417 40.0858C93.309 40.0158 93.254 39.8358 93.254 39.5458C93.254 39.3658 93.345 39.2159 93.526 39.1059C93.708 38.9959 94.034 38.8557 94.506 38.6757C94.615 38.6357 94.742 38.5958 94.887 38.5658C95.032 38.5258 95.159 38.4855 95.268 38.4555C95.631 38.2755 95.849 38.0355 95.922 37.7455C96.03 37.4555 96.085 37.0558 96.085 36.5458L96.03 20.8158C96.03 19.5058 96.248 18.3258 96.684 17.2758C97.119 16.1858 97.809 15.1158 98.752 14.0658H99.46C99.75 13.6258 100.168 13.2457 100.712 12.9257C101.293 12.5557 101.874 12.2357 102.454 11.9457C103.362 11.8357 104.214 11.7758 105.013 11.7758C105.848 11.7758 106.719 11.8555 107.626 11.9955C108.243 12.2855 108.769 12.5756 109.205 12.8656C109.676 13.1256 110.185 13.5158 110.729 14.0658H111.382C112.362 15.0458 113.07 16.0258 113.505 17.0058C113.977 17.9858 114.213 19.0956 114.213 20.3256L114.268 36.5458C114.268 37.0158 114.304 37.4155 114.376 37.7455C114.485 38.0355 114.739 38.2755 115.139 38.4555C115.284 38.4855 115.429 38.5258 115.574 38.5658C115.719 38.5958 115.864 38.6555 116.01 38.7255C116.481 38.7955 116.826 38.8855 117.044 38.9955C117.298 39.1055 117.425 39.2858 117.425 39.5458C117.425 39.8358 117.371 40.0158 117.262 40.0858C117.153 40.1558 116.917 40.2356 116.554 40.3056H108.225C107.971 40.2356 107.771 40.1558 107.626 40.0858C107.481 39.9758 107.408 39.7958 107.408 39.5458C107.408 39.3258 107.517 39.1656 107.735 39.0556C107.989 38.9056 108.334 38.7757 108.769 38.6757C109.168 38.5957 109.513 38.4359 109.804 38.1859C110.094 37.8959 110.221 37.3458 110.185 36.5458V19.0155C110.185 17.6055 109.912 16.5356 109.368 15.8056C108.824 15.0856 108.134 14.4958 107.299 14.0658H106.918C106.229 13.9158 105.612 13.8456 105.067 13.8456C104.523 13.8156 103.924 13.8858 103.271 14.0658H102.726C102.001 14.5358 101.365 15.1559 100.821 15.9159C100.313 16.6459 100.059 17.6357 100.059 18.9057V36.5458ZM10.507 37.6957C10.507 36.8957 10.761 36.1455 11.269 35.4555C11.958 34.9555 12.702 34.6957 13.501 34.6957C14.299 34.6657 15.043 34.8957 15.733 35.4057C16.241 36.0557 16.495 36.8057 16.495 37.6357C16.531 38.4357 16.295 39.1658 15.787 39.8158C15.098 40.3558 14.336 40.6357 13.501 40.6357C12.702 40.6357 11.977 40.3957 11.323 39.9257C10.815 39.2357 10.543 38.4857 10.507 37.6957Z" fill="black"/>
</svg>
