<svg width="136" height="41" viewBox="0 0 136 41" fill="none" xmlns="http://www.w3.org/2000/svg">
<path fill-rule="evenodd" clip-rule="evenodd" d="M4.355 14.5556C5.262 14.6656 6.279 14.5156 7.404 14.1156C8.529 13.6856 9.908 13.0856 11.541 12.3256L13.065 11.6156L13.12 16.2455C11.305 16.9655 9.708 17.4357 8.329 17.6557C6.986 17.8757 5.662 17.7856 4.355 17.3856V14.5556ZM4.355 14.5556L3.702 16.7357C2.54 16.1857 1.633 15.3756 0.98 14.2856C0.327 13.1556 0 11.9258 0 10.5858C0.145 9.27584 0.581 8.14547 1.307 7.20547C2.032 6.26547 3.049 5.46557 4.355 4.80557V4.15567L6.642 2.84561C7.077 2.55561 7.458 2.30584 7.785 2.08584C8.148 1.86584 8.456 1.72567 8.71 1.65567V0.995512C9.327 0.785512 9.89 0.745903 10.398 0.895903C10.906 1.0359 11.342 1.32553 11.704 1.76553C11.922 2.34553 11.94 2.86584 11.759 3.33584C11.577 3.81584 11.214 4.2459 10.67 4.6459L8.71 5.2958V5.95547C8.021 6.20547 7.24 6.53594 6.369 6.93594C5.498 7.29594 4.827 7.56551 4.355 7.74551V7.96573C3.811 8.40573 3.321 8.91551 2.885 9.49551C2.45 10.0355 2.232 10.7258 2.232 11.5658C2.232 12.4358 2.45 13.1259 2.885 13.6259C3.321 14.1059 3.811 14.4056 4.355 14.5556ZM21.449 22.7758C21.159 22.9558 20.868 23.1155 20.578 23.2655C20.324 23.4055 20.052 23.5758 19.761 23.7558C17.874 24.8458 16.459 25.7555 15.515 26.4755C14.572 27.2055 14.1 27.9858 14.1 28.8158V30.9955C13.991 31.2455 13.809 31.4356 13.555 31.5356C13.338 31.6156 13.102 31.5957 12.848 31.4857C12.594 31.3757 12.412 31.2155 12.303 30.9955V28.7655C12.303 27.4955 12.557 26.4557 13.065 25.6557C13.573 24.8257 14.227 23.9759 15.025 23.1059L15.352 22.7758H16.005C16.404 22.3358 16.876 21.9356 17.421 21.5756C18.001 21.1756 18.618 20.7656 19.271 20.3256C19.707 20.0356 20.179 19.7455 20.687 19.4555C21.195 19.1655 21.721 18.8159 22.266 18.4159H22.864C23.663 17.6959 24.28 17.0455 24.715 16.4555C25.151 15.8455 25.369 15.0458 25.369 14.0658H26.131V13.4159H25.586C25.514 12.8359 25.223 12.3555 24.715 11.9955C24.207 11.5955 23.59 11.3959 22.864 11.3959C22.102 11.3959 21.267 11.5656 20.36 11.8856C19.453 12.2156 18.473 12.6158 17.421 13.0858V13.7357L13.12 15.5858L13.065 10.9657C13.501 10.8157 14.118 10.5956 14.916 10.3056C15.715 9.98557 16.549 9.67565 17.421 9.38565V8.72549C18.836 8.33549 20.306 8.14594 21.83 8.18594C23.354 8.22594 24.788 8.8759 26.131 10.1459V11.0756L26.784 10.7958C27.074 11.2358 27.328 11.7456 27.546 12.3256C27.8 12.9056 28 13.4858 28.145 14.0658H27.492C27.637 14.7958 27.691 15.5358 27.655 16.2958C27.619 17.0258 27.474 17.7259 27.22 18.4159H26.566C26.24 19.2559 25.677 20.0355 24.879 20.7655C24.08 21.4455 23.155 22.1258 22.102 22.7758H21.449ZM39.196 37.6957C40.176 38.2357 41.228 38.5456 42.354 38.6156C43.515 38.6856 44.604 38.4855 45.62 38.0155C46.636 37.5055 47.453 36.7858 48.07 35.8358L50.574 36.4955C49.195 38.1655 47.525 39.3255 45.566 39.9755C43.606 40.6355 41.483 40.7957 39.196 40.4657V37.6957ZM39.196 37.6957L38.543 39.8158C37.127 39.4558 35.966 39.0855 35.059 38.7255C34.188 38.3255 33.752 37.8155 33.752 37.2055L33.698 33.7157L33.534 28.8158C33.643 28.5258 33.807 28.3059 34.024 28.1659C34.242 28.0159 34.478 28.0059 34.732 28.1059C35.022 28.1859 35.258 28.3657 35.44 28.6557L35.603 29.5258C36.002 31.3358 36.456 32.9155 36.964 34.2655C37.509 35.6055 38.253 36.7457 39.196 37.6957ZM39.196 3.33584V1.21573C40.829 0.705727 42.426 0.495825 43.987 0.565825C45.547 0.595825 46.854 0.745512 47.906 0.995512V1.65567C48.705 1.90567 49.34 2.16592 49.812 2.41592C50.283 2.63592 50.61 2.94584 50.792 3.33584C50.828 4.64584 50.864 6.04555 50.901 7.53555C50.937 9.01555 50.955 10.4558 50.955 11.8358C50.846 12.1258 50.665 12.3457 50.411 12.4857C50.193 12.5957 49.939 12.5957 49.648 12.4857C49.394 12.3757 49.177 12.1957 48.995 11.9457C48.777 10.8857 48.578 10.0559 48.396 9.43594C48.215 8.78594 48.051 8.14555 47.906 7.53555V6.98575C47.181 5.42575 46.328 4.30563 45.348 3.61563C44.404 2.88563 43.388 2.52579 42.299 2.52579C41.247 2.52579 40.212 2.79584 39.196 3.33584ZM48.07 35.8358C48.904 33.2958 48.941 30.9455 48.179 28.7655C47.453 26.5455 46.31 24.5558 44.749 22.7758H44.096C43.733 22.3758 43.334 21.9956 42.898 21.6356C42.499 21.2656 42.063 20.8659 41.591 20.4359C41.265 20.1059 40.902 19.7855 40.503 19.4555C40.14 19.1255 39.759 18.7859 39.359 18.4159H38.706C37.871 17.5459 37.182 16.7656 36.638 16.0756C36.129 15.3856 35.73 14.7158 35.44 14.0658H34.786C34.387 13.3358 34.061 12.2159 33.807 10.6859C33.553 9.16594 33.734 7.60577 34.351 6.00577C35.004 4.37577 36.402 2.99563 38.543 1.86563L39.196 3.33584C38.325 4.21584 37.763 5.26551 37.509 6.49551C37.254 7.69551 37.327 8.96557 37.726 10.3056C38.162 11.6556 38.924 12.9058 40.013 14.0658H40.666C41.174 14.6858 41.827 15.3859 42.626 16.1859C43.461 16.9459 44.277 17.6959 45.076 18.4159H45.729C46.382 19.1059 46.999 19.7957 47.58 20.4857C48.197 21.1457 48.795 21.9058 49.376 22.7758H50.03C51.227 24.6658 51.989 26.7456 52.316 29.0356C52.679 31.2856 52.298 33.5558 51.173 35.8358H48.07ZM68.92 35.8358C69.174 35.4058 69.392 34.9357 69.573 34.4257C69.791 33.9157 69.972 33.4458 70.118 33.0058L70.281 32.4657C70.499 32.2157 70.734 32.0858 70.989 32.0858C71.243 32.0458 71.442 32.1156 71.587 32.3056C71.769 32.4856 71.896 32.6857 71.968 32.9057C71.896 33.3757 71.805 33.8458 71.696 34.3158C71.587 34.7858 71.442 35.2958 71.261 35.8358H68.92ZM61.407 35.8358C61.952 36.4258 62.623 36.8958 63.422 37.2558C64.256 37.6158 65.145 37.7058 66.089 37.5258C67.069 37.3458 68.013 36.7858 68.92 35.8358L70.607 36.4955C69.7 38.2755 68.43 39.5057 66.797 40.1957C65.2 40.8857 63.548 40.9055 61.843 40.2455C60.137 39.5955 58.722 38.3455 57.597 36.4955L61.407 35.8358ZM62.768 14.0658C61.752 15.2958 60.935 17.1855 60.318 19.7255C59.702 22.2355 59.466 24.9358 59.611 27.8358C59.792 30.7458 60.391 33.4058 61.407 35.8358H56.943C55.782 32.9058 55.219 30.0159 55.256 27.1859C55.292 24.3559 55.764 21.8158 56.671 19.5658C57.578 17.3158 58.685 15.4758 59.992 14.0658H62.768ZM62.768 14.0658L60.645 13.4159C61.77 12.7959 62.804 12.3757 63.748 12.1557C64.692 11.9057 65.653 11.7758 66.633 11.7758C67.577 11.9258 68.303 12.1956 68.811 12.5956C69.319 12.9556 69.7 13.4458 69.954 14.0658H70.607C71.007 14.8958 71.243 15.8459 71.315 16.8959C71.424 17.9459 71.478 19.0956 71.478 20.3256V20.6557C71.37 20.9057 71.224 21.1058 71.043 21.2558C70.862 21.3558 70.644 21.3756 70.39 21.3056C70.136 21.2356 69.882 21.0555 69.628 20.7655C69.555 20.6555 69.501 20.5259 69.464 20.3759C69.428 20.1959 69.392 19.9755 69.355 19.7255C68.992 18.3855 68.611 17.2358 68.212 16.2958C67.849 15.3558 67.359 14.6058 66.742 14.0658H66.252C65.563 13.7358 64.928 13.6159 64.347 13.6859C63.766 13.7159 63.24 13.8458 62.768 14.0658ZM82.475 14.0658C81.35 15.2958 80.443 17.1855 79.753 19.7255C79.529 20.5855 79.351 21.4756 79.221 22.3856C79.267 22.7056 79.371 22.9557 79.535 23.1557C79.753 23.3757 80.08 23.5056 80.515 23.5356C81.06 23.5356 81.786 23.5556 82.693 23.5956H85.415C86.213 23.5956 86.812 23.5357 87.211 23.4257C87.611 23.2857 87.955 23.0658 88.246 22.7758C88.391 22.4458 88.482 22.1055 88.518 21.7455C88.554 21.3455 88.572 20.9458 88.572 20.5458V20.2758C88.572 18.9258 88.427 17.7159 88.137 16.6259C87.883 15.5359 87.465 14.6858 86.885 14.0658H86.34C85.651 13.7058 84.961 13.5559 84.272 13.6259C83.618 13.6659 83.019 13.8158 82.475 14.0658L79.808 13.4159C80.896 12.7259 81.858 12.2859 82.693 12.1059C83.564 11.9259 84.471 11.8358 85.415 11.8358C86.213 11.9758 86.975 12.2356 87.701 12.5956C88.463 12.9556 89.099 13.4458 89.607 14.0658H90.26C91.131 15.2958 91.748 16.6256 92.111 18.0356C92.51 19.4556 92.673 21.0358 92.601 22.7758C92.601 23.5358 92.528 24.1356 92.383 24.5756C92.274 25.0056 92.002 25.2957 91.566 25.4457C90.95 25.4757 90.078 25.4955 88.953 25.4955C87.828 25.4655 86.486 25.4457 84.925 25.4457H80.951C80.261 25.4457 79.79 25.6458 79.535 26.0458C79.318 26.4458 79.136 26.9355 78.991 27.5155C78.983 27.4655 78.976 27.4059 78.969 27.3559C78.975 27.5359 78.982 27.7159 78.991 27.8959C79.173 30.7959 79.88 33.4458 81.114 35.8358H76.814C75.58 32.9758 74.944 30.1456 74.908 27.3456C74.872 24.5156 75.253 21.9557 76.051 19.6757C76.886 17.3457 77.92 15.4758 79.154 14.0658H82.475ZM89.334 35.8358C89.625 35.2958 89.915 34.5857 90.206 33.7157C90.532 32.8457 90.75 32.0859 90.859 31.4359C91.04 31.1759 91.24 31.0355 91.458 30.9955C91.712 30.9555 91.929 31.0157 92.111 31.1557C92.329 31.3057 92.474 31.5058 92.546 31.7558C92.474 32.4158 92.347 33.1157 92.165 33.8857C91.984 34.6057 91.784 35.2558 91.566 35.8358H89.334ZM81.114 35.8358C81.659 36.4258 82.403 36.8958 83.346 37.2558C84.29 37.6158 85.288 37.7058 86.34 37.5258C87.393 37.3458 88.391 36.7858 89.334 35.8358L90.968 36.4955C90.06 38.3055 88.736 39.5457 86.994 40.1957C85.288 40.8157 83.546 40.7959 81.767 40.1459C79.989 39.4559 78.556 38.2355 77.467 36.4955L81.114 35.8358ZM124.012 35.8358C124.593 36.4258 125.337 36.8958 126.244 37.2558C127.188 37.6158 128.186 37.7058 129.238 37.5258C130.291 37.3458 131.289 36.7858 132.232 35.8358L133.866 36.4955C132.958 38.3055 131.652 39.5457 129.946 40.1957C128.24 40.8157 126.48 40.7959 124.665 40.1459C122.887 39.4559 121.453 38.2355 120.365 36.4955L124.012 35.8358ZM125.373 14.0658C124.248 15.2958 123.341 17.1855 122.651 19.7255C122.429 20.5755 122.253 21.4559 122.123 22.3559C122.197 22.6859 122.319 22.9557 122.488 23.1557C122.669 23.3757 122.978 23.5056 123.413 23.5356C123.958 23.5356 124.684 23.5556 125.591 23.5956H128.313C129.111 23.5956 129.71 23.5357 130.109 23.4257C130.508 23.2857 130.853 23.0658 131.144 22.7758C131.325 22.4458 131.416 22.1055 131.416 21.7455C131.452 21.3455 131.47 20.9458 131.47 20.5458V20.2758C131.47 18.9258 131.325 17.7159 131.035 16.6259C130.781 15.5359 130.363 14.6858 129.783 14.0658H129.238C128.549 13.7058 127.859 13.5559 127.17 13.6259C126.516 13.6659 125.917 13.8158 125.373 14.0658L122.706 13.4159C123.831 12.7259 124.811 12.2859 125.645 12.1059C126.48 11.9259 127.369 11.8358 128.313 11.8358C129.111 11.9758 129.873 12.2356 130.599 12.5956C131.361 12.9556 131.996 13.4458 132.505 14.0658H133.158C134.065 15.2958 134.7 16.6256 135.063 18.0356C135.426 19.4556 135.571 21.0358 135.499 22.7758C135.499 23.5358 135.426 24.1356 135.281 24.5756C135.172 25.0056 134.9 25.2957 134.464 25.4457C133.847 25.4757 132.976 25.4955 131.851 25.4955C130.726 25.4655 129.383 25.4457 127.823 25.4457H123.849C123.159 25.4457 122.687 25.6458 122.433 26.0458C122.216 26.4458 122.034 26.9355 121.889 27.5155C121.881 27.4655 121.874 27.4056 121.867 27.3456C121.872 27.5356 121.88 27.7159 121.889 27.8959C122.07 30.7959 122.778 33.4458 124.012 35.8358H119.711C118.477 32.9758 117.842 30.1456 117.806 27.3456C117.77 24.5156 118.151 21.9557 118.949 19.6757C119.784 17.3457 120.836 15.4758 122.107 14.0658H125.373ZM132.232 35.8358C132.523 35.2958 132.813 34.5857 133.103 33.7157C133.43 32.8457 133.648 32.0859 133.757 31.4359C133.938 31.1759 134.138 31.0355 134.356 30.9955C134.61 30.9555 134.827 31.0157 135.009 31.1557C135.227 31.3057 135.372 31.5058 135.444 31.7558C135.372 32.4158 135.245 33.1157 135.063 33.8857C134.882 34.6057 134.7 35.2558 134.519 35.8358H132.232ZM100.004 36.5458C99.968 37.3858 100.113 37.9259 100.44 38.1859C100.803 38.4359 101.311 38.5957 101.964 38.6757C102.037 38.7057 102.091 38.7255 102.128 38.7255H102.291C102.763 38.8355 103.071 38.9456 103.216 39.0556C103.398 39.1256 103.489 39.3056 103.489 39.5956C103.489 39.8156 103.416 39.9758 103.271 40.0858C103.162 40.1558 102.962 40.2356 102.672 40.3056H94.071C93.744 40.2656 93.508 40.2159 93.363 40.1459C93.218 40.0359 93.145 39.8358 93.145 39.5458C93.145 39.3658 93.236 39.2159 93.417 39.1059C93.635 38.9959 93.962 38.8755 94.397 38.7255C94.542 38.6555 94.67 38.5958 94.778 38.5658C94.924 38.5258 95.069 38.4855 95.214 38.4555C95.577 38.2755 95.795 38.0355 95.867 37.7455C95.976 37.4555 96.03 37.0558 96.03 36.5458L95.976 20.8158C95.976 19.5058 96.194 18.3155 96.629 17.2255C97.065 16.1355 97.772 15.0858 98.752 14.0658H99.351C99.678 13.6258 100.113 13.2457 100.658 12.9257C101.238 12.5557 101.837 12.2455 102.454 11.9955C103.362 11.8555 104.214 11.7758 105.013 11.7758C105.811 11.7758 106.664 11.8656 107.572 12.0556C108.188 12.3456 108.715 12.6156 109.15 12.8656C109.622 13.1256 110.13 13.5158 110.675 14.0658H111.328C112.308 15.0458 113.015 16.0258 113.451 17.0058C113.923 17.9858 114.159 19.0956 114.159 20.3256L114.213 36.5458C114.213 37.0158 114.268 37.4155 114.376 37.7455C114.485 38.0355 114.721 38.2755 115.084 38.4555C115.229 38.4855 115.374 38.5258 115.52 38.5658C115.701 38.5958 115.864 38.6555 116.01 38.7255C116.481 38.7955 116.826 38.8855 117.044 38.9955C117.298 39.1055 117.425 39.2858 117.425 39.5458C117.425 39.8358 117.371 40.0359 117.262 40.1459C117.153 40.2159 116.899 40.2656 116.5 40.3056H108.17C107.916 40.2656 107.717 40.1958 107.572 40.0858C107.426 39.9758 107.354 39.8156 107.354 39.5956C107.354 39.3456 107.463 39.1656 107.68 39.0556C107.934 38.9056 108.279 38.7757 108.715 38.6757C109.114 38.5957 109.459 38.4359 109.749 38.1859C110.076 37.9259 110.221 37.3858 110.185 36.5458V19.0155C110.185 17.6055 109.894 16.5356 109.314 15.8056C108.769 15.0856 108.061 14.4958 107.19 14.0658H106.864C106.174 13.9158 105.557 13.8456 105.013 13.8456C104.468 13.8156 103.87 13.8858 103.216 14.0658H102.726C101.964 14.5358 101.311 15.1559 100.767 15.9159C100.259 16.6459 100.004 17.6357 100.004 18.9057V36.5458ZM10.452 37.6957C10.452 36.8957 10.725 36.1455 11.269 35.4555C11.922 34.9555 12.648 34.6957 13.446 34.6957C14.281 34.6657 15.025 34.8756 15.678 35.3456C16.223 36.0356 16.495 36.8057 16.495 37.6357C16.531 38.4357 16.277 39.1658 15.733 39.8158C15.08 40.3558 14.336 40.6357 13.501 40.6357C12.702 40.6657 11.977 40.4357 11.323 39.9257C10.779 39.2357 10.489 38.4857 10.452 37.6957Z" fill="black"/>
</svg>
