<svg width="136" height="41" viewBox="0 0 136 41" fill="none" xmlns="http://www.w3.org/2000/svg">
<path fill-rule="evenodd" clip-rule="evenodd" d="M4.355 14.5556L3.756 16.7856C2.559 16.2056 1.633 15.3756 0.98 14.2856C0.327 13.1956 0 11.9558 0 10.5858C0.145 9.23584 0.581 8.11547 1.307 7.20547C2.032 6.26547 3.049 5.44577 4.355 4.75577V4.15567L6.642 2.79581C7.077 2.54581 7.458 2.30584 7.785 2.08584C8.148 1.86584 8.456 1.70561 8.71 1.59561V0.995512C9.327 0.785512 9.89 0.745903 10.398 0.895903C10.906 1.0359 11.342 1.32553 11.704 1.76553C11.922 2.34553 11.94 2.86584 11.759 3.33584C11.577 3.81584 11.196 4.2459 10.616 4.6459L8.71 5.2958V5.8959C8.021 6.1559 7.222 6.47588 6.315 6.87588C5.444 7.27588 4.791 7.56551 4.355 7.74551V7.91592C3.774 8.38592 3.266 8.89594 2.831 9.43594C2.395 9.98594 2.178 10.6758 2.178 11.5058C2.178 12.4158 2.395 13.1259 2.831 13.6259C3.266 14.1359 3.774 14.4456 4.355 14.5556ZM4.355 14.5556C5.262 14.6656 6.279 14.5156 7.404 14.1156C8.529 13.6856 9.908 13.0655 11.541 12.2655L13.065 11.5658L13.12 16.2455C11.305 16.9355 9.708 17.4057 8.329 17.6557C6.986 17.8757 5.662 17.7856 4.355 17.3856V14.5556ZM21.503 22.7758C21.213 22.9558 20.923 23.1155 20.632 23.2655C20.378 23.4055 20.088 23.5758 19.761 23.7558C17.874 24.8458 16.441 25.7555 15.461 26.4755C14.517 27.2055 14.045 28.0059 14.045 28.8759V30.9955C13.936 31.2455 13.755 31.4356 13.501 31.5356C13.283 31.6156 13.047 31.5957 12.793 31.4857C12.575 31.3757 12.412 31.2155 12.303 30.9955V28.7655C12.303 27.4955 12.557 26.4557 13.065 25.6557C13.573 24.8257 14.227 23.9759 15.025 23.1059L15.352 22.7758H15.951C16.35 22.3358 16.84 21.9356 17.421 21.5756C18.001 21.1756 18.618 20.7656 19.271 20.3256C19.743 20.0356 20.233 19.7455 20.741 19.4555C21.249 19.1655 21.776 18.8159 22.32 18.4159H22.919C23.681 17.6959 24.28 17.0455 24.715 16.4555C25.151 15.8455 25.369 15.0458 25.369 14.0658H26.131V13.4657H25.586C25.514 12.8857 25.223 12.3955 24.715 11.9955C24.207 11.5955 23.608 11.3959 22.919 11.3959C22.157 11.3959 21.304 11.5656 20.36 11.8856C19.453 12.2156 18.473 12.6356 17.421 13.1356V13.7357L13.12 15.5858L13.065 10.9657C13.465 10.8157 14.063 10.5956 14.862 10.3056C15.697 9.98557 16.549 9.67565 17.421 9.38565V8.78555C18.836 8.38555 20.306 8.20575 21.83 8.23575C23.354 8.23575 24.788 8.89571 26.131 10.1957V11.0756L26.73 10.7958C27.02 11.2358 27.292 11.7456 27.546 12.3256C27.8 12.9056 27.982 13.4858 28.09 14.0658H27.492C27.637 14.7958 27.691 15.5358 27.655 16.2958C27.655 17.0258 27.51 17.7259 27.22 18.4159H26.621C26.294 19.2559 25.713 20.0355 24.879 20.7655C24.08 21.4455 23.155 22.1258 22.102 22.7758H21.503ZM39.196 37.6957L38.597 39.8656C37.146 39.5056 35.966 39.1458 35.059 38.7758C34.188 38.3858 33.752 37.8758 33.752 37.2558L33.643 33.7758L33.534 28.8158C33.643 28.5258 33.807 28.3257 34.024 28.2157C34.242 28.0757 34.478 28.0559 34.732 28.1659C35.022 28.2359 35.24 28.3957 35.385 28.6557L35.603 29.5258C36.002 31.3358 36.456 32.9358 36.964 34.3158C37.509 35.6558 38.253 36.7857 39.196 37.6957ZM39.196 3.33584V1.21573C40.829 0.705727 42.426 0.495825 43.987 0.565825C45.547 0.595825 46.854 0.745512 47.906 0.995512V1.59561C48.705 1.85561 49.34 2.10586 49.812 2.35586C50.283 2.61586 50.592 2.94584 50.737 3.33584C50.774 4.64584 50.81 6.04555 50.846 7.53555C50.919 9.01555 50.955 10.4558 50.955 11.8358C50.846 12.0858 50.665 12.2859 50.411 12.4359C50.193 12.5359 49.939 12.5557 49.648 12.4857C49.394 12.3757 49.195 12.1756 49.05 11.8856C48.795 10.8356 48.578 9.99565 48.396 9.38565C48.215 8.72565 48.051 8.11555 47.906 7.53555V6.98575C47.217 5.42575 46.382 4.28557 45.402 3.55557C44.422 2.83557 43.388 2.46573 42.299 2.46573C41.247 2.46573 40.212 2.75584 39.196 3.33584ZM48.07 35.8358C48.941 33.2958 48.977 30.9255 48.179 28.7055C47.416 26.4955 46.255 24.5158 44.694 22.7758H44.096C43.733 22.3758 43.334 21.9956 42.898 21.6356C42.499 21.2656 42.063 20.8659 41.591 20.4359C41.228 20.1059 40.847 19.7855 40.448 19.4555C40.085 19.1255 39.704 18.7859 39.305 18.4159H38.706C37.835 17.5459 37.127 16.7656 36.583 16.0756C36.075 15.3856 35.676 14.7158 35.385 14.0658H34.786C34.387 13.3758 34.042 12.2655 33.752 10.7455C33.498 9.18551 33.698 7.58547 34.351 5.95547C35.004 4.31547 36.42 2.94582 38.597 1.81582L39.196 3.33584C38.325 4.21584 37.744 5.26551 37.454 6.49551C37.2 7.69551 37.273 8.96557 37.672 10.3056C38.107 11.6556 38.906 12.9058 40.067 14.0658H40.666C41.138 14.6858 41.791 15.3859 42.626 16.1859C43.461 16.9459 44.277 17.6959 45.076 18.4159H45.729C46.382 19.1059 46.999 19.7957 47.58 20.4857C48.197 21.1457 48.814 21.9058 49.431 22.7758H50.03C51.227 24.6258 51.989 26.6957 52.316 28.9857C52.679 31.2657 52.298 33.5558 51.173 35.8358H48.07ZM39.196 37.6957C40.176 38.2757 41.228 38.5957 42.354 38.6757C43.515 38.7057 44.604 38.4855 45.62 38.0155C46.636 37.5455 47.453 36.8158 48.07 35.8358L50.574 36.4359C49.231 38.1459 47.562 39.3255 45.566 39.9755C43.606 40.6355 41.483 40.7957 39.196 40.4657V37.6957ZM61.407 35.8358C61.952 36.4258 62.623 36.8958 63.422 37.2558C64.256 37.6158 65.145 37.7058 66.089 37.5258C67.069 37.3458 68.013 36.7858 68.92 35.8358L70.607 36.4359C69.7 38.2559 68.43 39.5057 66.797 40.1957C65.2 40.8857 63.53 40.9055 61.788 40.2455C60.083 39.5955 58.667 38.3259 57.542 36.4359L61.407 35.8358ZM62.823 14.0658C61.77 15.2958 60.935 17.1657 60.318 19.6757C59.702 22.1757 59.466 24.8958 59.611 27.8358C59.756 30.7758 60.355 33.4458 61.407 35.8358H56.943C55.746 32.9058 55.165 30.0159 55.201 27.1859C55.274 24.3559 55.764 21.8158 56.671 19.5658C57.615 17.2758 58.74 15.4458 60.046 14.0658H62.823ZM68.92 35.8358C69.174 35.4058 69.392 34.9357 69.573 34.4257C69.791 33.9157 69.972 33.4458 70.118 33.0058L70.281 32.4657C70.499 32.2157 70.734 32.0858 70.989 32.0858C71.243 32.0458 71.442 32.1156 71.587 32.3056C71.769 32.4856 71.878 32.7055 71.914 32.9555C71.878 33.3955 71.787 33.8458 71.642 34.3158C71.533 34.7858 71.388 35.2958 71.206 35.8358H68.92ZM62.823 14.0658L60.645 13.4657C61.77 12.8457 62.804 12.4357 63.748 12.2157C64.692 11.9557 65.635 11.8358 66.579 11.8358C67.559 11.9758 68.303 12.2356 68.811 12.5956C69.319 12.9556 69.7 13.4458 69.954 14.0658H70.553C70.952 14.8958 71.206 15.8459 71.315 16.8959C71.424 17.9459 71.478 19.0956 71.478 20.3256V20.6557C71.37 20.9057 71.206 21.1058 70.989 21.2558C70.807 21.3958 70.589 21.4359 70.335 21.3559C70.081 21.2859 69.845 21.1058 69.628 20.8158C69.555 20.7058 69.501 20.5659 69.464 20.3759C69.428 20.1959 69.392 19.9956 69.355 19.7856C68.992 18.4056 68.611 17.2358 68.212 16.2958C67.813 15.3558 67.323 14.6058 66.742 14.0658H66.252C65.599 13.7358 64.982 13.6159 64.401 13.6859C63.821 13.7159 63.294 13.8458 62.823 14.0658ZM89.28 35.8358C89.607 35.2958 89.915 34.5857 90.206 33.7157C90.496 32.8457 90.714 32.0859 90.859 31.4359C91.004 31.1759 91.185 31.0355 91.403 30.9955C91.657 30.9555 91.893 31.0157 92.111 31.1557C92.329 31.3057 92.474 31.5058 92.546 31.7558C92.438 32.4158 92.292 33.1157 92.111 33.8857C91.929 34.6057 91.748 35.2558 91.566 35.8358H89.28ZM81.114 35.8358C81.659 36.4258 82.403 36.8958 83.346 37.2558C84.29 37.6158 85.288 37.7058 86.34 37.5258C87.393 37.3458 88.373 36.7858 89.28 35.8358L90.968 36.4359C90.06 38.2859 88.736 39.5457 86.994 40.1957C85.288 40.8157 83.528 40.7758 81.713 40.0858C79.898 39.3958 78.465 38.1859 77.412 36.4359L81.114 35.8358ZM82.475 14.0658C81.35 15.2658 80.443 17.1357 79.753 19.6757C79.505 20.5757 79.311 21.5055 79.171 22.4555C79.184 22.3955 79.196 22.3456 79.209 22.2856C79.245 22.6456 79.354 22.9357 79.535 23.1557C79.717 23.3757 80.025 23.5056 80.461 23.5356C81.005 23.5756 81.731 23.6059 82.638 23.6459H85.36C86.159 23.6459 86.758 23.5757 87.157 23.4257C87.556 23.2857 87.919 23.0658 88.246 22.7758C88.391 22.4458 88.482 22.1055 88.518 21.7455C88.554 21.3455 88.572 20.9458 88.572 20.5458V20.3256C88.572 18.9456 88.427 17.7159 88.137 16.6259C87.846 15.5359 87.411 14.6858 86.83 14.0658H86.34C85.651 13.7058 84.961 13.5559 84.272 13.6259C83.618 13.6659 83.019 13.8158 82.475 14.0658L79.808 13.4657C80.896 12.7757 81.858 12.3457 82.693 12.1557C83.528 11.9757 84.417 11.8856 85.36 11.8856C86.159 11.9956 86.939 12.2356 87.701 12.5956C88.463 12.9556 89.099 13.4458 89.607 14.0658H90.206C91.113 15.2958 91.748 16.6256 92.111 18.0356C92.474 19.4556 92.637 21.0358 92.601 22.7758C92.601 23.5358 92.528 24.1356 92.383 24.5756C92.238 25.0056 91.948 25.2957 91.512 25.4457C90.895 25.4757 90.024 25.4955 88.899 25.4955C87.774 25.4655 86.431 25.4457 84.87 25.4457H80.842C80.189 25.4457 79.735 25.6458 79.481 26.0458C79.263 26.4458 79.082 26.9355 78.937 27.5155C78.93 27.4655 78.923 27.4159 78.917 27.3759C78.922 27.5259 78.929 27.6758 78.937 27.8358C79.118 30.7758 79.844 33.4458 81.114 35.8358H76.814C75.543 33.0058 74.89 30.1756 74.854 27.3456C74.854 24.5156 75.253 21.9356 76.051 19.6156C76.886 17.2956 77.939 15.4458 79.209 14.0658H82.475ZM132.178 35.8358C132.505 35.2958 132.813 34.5857 133.103 33.7157C133.394 32.8457 133.612 32.0859 133.757 31.4359C133.902 31.1759 134.083 31.0355 134.301 30.9955C134.555 30.9555 134.791 31.0157 135.009 31.1557C135.227 31.3057 135.372 31.5058 135.444 31.7558C135.335 32.4158 135.19 33.1157 135.009 33.8857C134.827 34.6057 134.646 35.2558 134.464 35.8358H132.178ZM124.012 35.8358C124.557 36.4258 125.3 36.8958 126.244 37.2558C127.188 37.6158 128.186 37.7058 129.238 37.5258C130.291 37.3458 131.271 36.7858 132.178 35.8358L133.811 36.4359C132.94 38.2859 131.634 39.5457 129.892 40.1957C128.186 40.8157 126.426 40.7758 124.611 40.0858C122.796 39.3958 121.363 38.1859 120.31 36.4359L124.012 35.8358ZM125.373 14.0658C124.248 15.2658 123.341 17.1357 122.651 19.6757C122.408 20.5557 122.217 21.4659 122.078 22.3959C122.153 22.7059 122.272 22.9557 122.433 23.1557C122.615 23.3757 122.905 23.5056 123.304 23.5356C123.885 23.5756 124.629 23.6059 125.536 23.6459H128.258C129.057 23.6459 129.656 23.5757 130.055 23.4257C130.454 23.2857 130.799 23.0658 131.089 22.7758C131.271 22.4458 131.38 22.1055 131.416 21.7455C131.452 21.3455 131.47 20.9458 131.47 20.5458V20.3256C131.47 18.9456 131.325 17.7159 131.035 16.6259C130.744 15.5359 130.309 14.6858 129.728 14.0658H129.238C128.549 13.7058 127.859 13.5559 127.17 13.6259C126.516 13.6659 125.917 13.8158 125.373 14.0658L122.706 13.4657C123.794 12.7757 124.756 12.3457 125.591 12.1557C126.426 11.9757 127.315 11.8856 128.258 11.8856C129.02 11.9956 129.783 12.2356 130.545 12.5956C131.343 12.9556 131.978 13.4458 132.45 14.0658H133.103C134.011 15.2958 134.646 16.6256 135.009 18.0356C135.372 19.4556 135.517 21.0358 135.444 22.7758C135.444 23.5358 135.372 24.1356 135.227 24.5756C135.118 25.0056 134.845 25.2957 134.41 25.4457C133.793 25.4757 132.904 25.4955 131.742 25.4955C130.617 25.4655 129.293 25.4457 127.768 25.4457H123.74C123.087 25.4457 122.633 25.6458 122.379 26.0458C122.161 26.4458 121.98 26.9355 121.835 27.5155C121.828 27.4655 121.822 27.4159 121.815 27.3759C121.821 27.5259 121.827 27.6758 121.835 27.8358C122.016 30.7758 122.742 33.4458 124.012 35.8358H119.711C118.441 33.0058 117.788 30.1756 117.752 27.3456C117.715 24.5156 118.115 21.9356 118.949 19.6156C119.784 17.2956 120.836 15.4458 122.107 14.0658H125.373ZM99.95 36.5458C99.914 37.4158 100.077 37.9857 100.44 38.2357C100.803 38.4557 101.311 38.5957 101.964 38.6757C102.001 38.7057 102.037 38.7255 102.073 38.7255C102.146 38.7255 102.218 38.7458 102.291 38.7758C102.763 38.8558 103.071 38.9456 103.216 39.0556C103.398 39.1656 103.489 39.3456 103.489 39.5956C103.489 39.8156 103.416 39.9758 103.271 40.0858C103.126 40.1558 102.926 40.2356 102.672 40.3056H94.016C93.69 40.2656 93.454 40.2159 93.309 40.1459C93.163 40.0359 93.091 39.8358 93.091 39.5458C93.091 39.3658 93.182 39.2159 93.363 39.1059C93.544 38.9959 93.871 38.8755 94.343 38.7255C94.488 38.6855 94.615 38.6556 94.724 38.6156C94.869 38.5756 95.014 38.5255 95.159 38.4555C95.522 38.2755 95.74 38.0355 95.813 37.7455C95.922 37.4555 95.976 37.0558 95.976 36.5458L95.922 20.8158C95.922 19.5058 96.139 18.3155 96.575 17.2255C97.047 16.1355 97.754 15.0858 98.698 14.0658H99.297C99.623 13.6658 100.077 13.2857 100.658 12.9257C101.238 12.5557 101.819 12.2455 102.4 11.9955C103.307 11.8855 104.16 11.8358 104.958 11.8358C105.757 11.8358 106.61 11.9056 107.517 12.0556C108.134 12.3456 108.66 12.6156 109.096 12.8656C109.568 13.1256 110.094 13.5158 110.675 14.0658H111.273C112.253 15.0458 112.961 16.0258 113.397 17.0058C113.868 17.9858 114.104 19.0956 114.104 20.3256L114.159 36.5458C114.159 37.0558 114.213 37.4555 114.322 37.7455C114.431 38.0355 114.667 38.2755 115.03 38.4555C115.211 38.5255 115.374 38.5756 115.52 38.6156C115.665 38.6556 115.828 38.6855 116.01 38.7255C116.481 38.7955 116.826 38.8855 117.044 38.9955C117.298 39.1055 117.425 39.2858 117.425 39.5458C117.425 39.8358 117.371 40.0359 117.262 40.1459C117.153 40.2159 116.899 40.2656 116.5 40.3056H108.116C107.826 40.2656 107.608 40.1958 107.463 40.0858C107.354 39.9758 107.299 39.8156 107.299 39.5956C107.299 39.3756 107.408 39.2159 107.626 39.1059C107.844 38.9659 108.188 38.8355 108.66 38.7255C109.096 38.6155 109.459 38.4359 109.749 38.1859C110.039 37.9259 110.166 37.3858 110.13 36.5458V19.0155C110.13 17.6055 109.84 16.5356 109.259 15.8056C108.715 15.0856 108.007 14.4958 107.136 14.0658H106.809C106.12 13.9158 105.503 13.8456 104.958 13.8456C104.414 13.8156 103.815 13.8858 103.162 14.0658H102.672C101.946 14.5358 101.311 15.1559 100.767 15.9159C100.222 16.6459 99.95 17.6357 99.95 18.9057V36.5458ZM10.452 37.6957C10.452 36.8557 10.706 36.1155 11.214 35.4555C11.904 34.9155 12.648 34.6459 13.446 34.6459C14.281 34.6459 15.025 34.8756 15.678 35.3456C16.223 36.0356 16.495 36.8057 16.495 37.6357C16.531 38.4357 16.277 39.1658 15.733 39.8158C15.08 40.3558 14.336 40.6357 13.501 40.6357C12.702 40.6657 11.958 40.4357 11.269 39.9257C10.761 39.2357 10.489 38.4857 10.452 37.6957Z" fill="black"/>
</svg>
