<svg width="136" height="41" viewBox="0 0 136 41" fill="none" xmlns="http://www.w3.org/2000/svg">
<path fill-rule="evenodd" clip-rule="evenodd" d="M4.355 14.6059L3.811 16.8456C2.613 16.2556 1.669 15.4258 0.98 14.3358C0.327 13.2158 0 11.9756 0 10.6356C0.109 9.25565 0.526 8.09567 1.252 7.15567C1.978 6.20567 3.012 5.39547 4.355 4.70547V4.10586L6.642 2.79581C7.077 2.50581 7.458 2.25555 7.785 2.03555C8.148 1.81555 8.456 1.65581 8.71 1.54581V0.995512C9.291 0.785512 9.835 0.745903 10.343 0.895903C10.888 1.0359 11.342 1.32553 11.704 1.76553C11.922 2.34553 11.922 2.86584 11.704 3.33584C11.523 3.81584 11.16 4.2459 10.616 4.6459L8.71 5.2958V5.84561C8.021 6.09561 7.222 6.42559 6.315 6.82559C5.444 7.22559 4.791 7.51571 4.355 7.69571V7.91592C3.774 8.34592 3.266 8.85594 2.831 9.43594C2.395 9.98594 2.178 10.6758 2.178 11.5058C2.178 12.4158 2.395 13.1259 2.831 13.6259C3.266 14.1359 3.774 14.4659 4.355 14.6059ZM4.355 14.6059C5.262 14.6859 6.279 14.5156 7.404 14.1156C8.529 13.6856 9.908 13.0655 11.541 12.2655L13.065 11.5658L13.12 16.1859C11.305 16.9159 9.708 17.4057 8.329 17.6557C6.986 17.8757 5.662 17.7856 4.355 17.3856V14.6059ZM21.558 22.7758C21.267 22.9558 20.977 23.1155 20.687 23.2655C20.397 23.4055 20.106 23.5758 19.816 23.7558C17.892 24.8458 16.441 25.7555 15.461 26.4755C14.481 27.2055 13.991 28.0059 13.991 28.8759V30.9955C13.918 31.2455 13.755 31.4356 13.501 31.5356C13.283 31.6156 13.047 31.5957 12.793 31.4857C12.575 31.3757 12.412 31.1957 12.303 30.9457V28.7655C12.303 27.4955 12.557 26.4557 13.065 25.6557C13.573 24.8257 14.245 23.9759 15.08 23.1059L15.406 22.7758H15.951C16.35 22.3358 16.84 21.9356 17.421 21.5756C18.038 21.1756 18.673 20.7656 19.326 20.3256C19.761 20.0356 20.233 19.7455 20.741 19.4555C21.286 19.1655 21.83 18.8159 22.374 18.4159H22.919C23.717 17.6959 24.334 17.0455 24.77 16.4555C25.205 15.8455 25.423 15.0458 25.423 14.0658H26.131V13.5155H25.641C25.568 12.9055 25.278 12.3955 24.77 11.9955C24.262 11.5955 23.645 11.3959 22.919 11.3959C22.157 11.3959 21.304 11.5757 20.36 11.9457C19.453 12.2657 18.473 12.6857 17.421 13.1957V13.7357L13.12 15.6459L13.065 11.0155C13.465 10.8355 14.063 10.5956 14.862 10.3056C15.697 9.98557 16.549 9.67565 17.421 9.38565V8.83584C18.836 8.40584 20.306 8.20575 21.83 8.23575C23.354 8.27575 24.788 8.94577 26.131 10.2558V11.0756L26.675 10.7958C26.965 11.2358 27.238 11.7456 27.492 12.3256C27.746 12.9056 27.945 13.4858 28.09 14.0658H27.492C27.673 14.7958 27.746 15.5358 27.709 16.2958C27.673 17.0258 27.51 17.7259 27.22 18.4159H26.675C26.349 19.2559 25.768 20.0355 24.933 20.7655C24.135 21.4455 23.191 22.1258 22.102 22.7758H21.558ZM39.196 37.7455L38.652 39.9257C37.2 39.5557 36.021 39.1958 35.113 38.8358C34.206 38.4358 33.752 37.9256 33.752 37.3056L33.643 33.8256L33.534 28.8158C33.607 28.5658 33.752 28.3657 33.97 28.2157C34.188 28.0757 34.424 28.0559 34.678 28.1659C34.968 28.2359 35.186 28.4155 35.331 28.7055L35.549 29.5756C35.948 31.3556 36.42 32.9358 36.964 34.3158C37.509 35.6558 38.253 36.8055 39.196 37.7455ZM48.07 35.8358C48.941 33.2958 48.977 30.9255 48.179 28.7055C47.416 26.4955 46.255 24.5158 44.694 22.7758H44.096C43.733 22.3758 43.334 21.9956 42.898 21.6356C42.462 21.2656 42.009 20.8659 41.537 20.4359C41.21 20.1059 40.847 19.7855 40.448 19.4555C40.049 19.1255 39.668 18.7859 39.305 18.4159H38.706C37.835 17.5459 37.127 16.7656 36.583 16.0756C36.039 15.3856 35.621 14.7158 35.331 14.0658H34.786C34.387 13.3758 34.042 12.2655 33.752 10.7455C33.498 9.18551 33.698 7.58547 34.351 5.95547C35.004 4.28547 36.438 2.90582 38.652 1.81582L39.196 3.33584C38.325 4.17584 37.744 5.20571 37.454 6.44571C37.2 7.67571 37.273 8.96557 37.672 10.3056C38.107 11.6556 38.906 12.9058 40.067 14.0658H40.612C41.12 14.6458 41.791 15.3356 42.626 16.1356C43.461 16.9356 44.295 17.6959 45.13 18.4159H45.674C46.328 19.1059 46.963 19.7957 47.58 20.4857C48.197 21.1457 48.814 21.9058 49.431 22.7758H49.975C51.209 24.6258 51.989 26.6957 52.316 28.9857C52.679 31.2657 52.298 33.5558 51.173 35.8358H48.07ZM39.196 37.7455C40.176 38.3255 41.228 38.6555 42.354 38.7255C43.515 38.7655 44.604 38.5456 45.62 38.0756C46.636 37.5656 47.453 36.8158 48.07 35.8358L50.628 36.3857C49.249 38.0957 47.562 39.2855 45.566 39.9755C43.606 40.6355 41.483 40.7957 39.196 40.4657V37.7455ZM39.196 3.33584V1.21573C40.829 0.705727 42.426 0.495825 43.987 0.565825C45.547 0.595825 46.854 0.745512 47.906 0.995512V1.54581C48.705 1.79581 49.34 2.05557 49.812 2.30557C50.283 2.55557 50.592 2.90584 50.737 3.33584C50.774 4.61584 50.81 6.00555 50.846 7.53555C50.919 9.01555 50.955 10.4358 50.955 11.7758C50.846 12.0658 50.665 12.2859 50.411 12.4359C50.193 12.5359 49.939 12.5557 49.648 12.4857C49.394 12.3757 49.195 12.1756 49.05 11.8856C48.795 10.8356 48.578 9.99565 48.396 9.38565C48.215 8.72565 48.051 8.11555 47.906 7.53555V7.0458C47.217 5.4458 46.382 4.28557 45.402 3.55557C44.422 2.83557 43.388 2.46573 42.299 2.46573C41.247 2.46573 40.212 2.75584 39.196 3.33584ZM62.823 14.0658C61.77 15.2658 60.917 17.1357 60.264 19.6757C59.647 22.1757 59.411 24.8958 59.556 27.8358C59.738 30.7758 60.355 33.4458 61.407 35.8358H56.943C55.746 32.9058 55.165 30.0159 55.201 27.1859C55.274 24.3559 55.764 21.7958 56.671 19.5058C57.615 17.2258 58.758 15.4058 60.101 14.0658H62.823ZM61.407 35.8358C61.952 36.4558 62.623 36.9456 63.422 37.3056C64.256 37.6756 65.145 37.7658 66.089 37.5858C67.069 37.3658 68.013 36.7858 68.92 35.8358L70.607 36.3857C69.7 38.2357 68.43 39.5057 66.797 40.1957C65.2 40.8857 63.53 40.9055 61.788 40.2455C60.083 39.5955 58.649 38.3057 57.488 36.3857L61.407 35.8358ZM62.823 14.0658L60.645 13.5155C61.734 12.8655 62.75 12.4357 63.694 12.2157C64.637 11.9557 65.581 11.8358 66.525 11.8358C67.504 11.9758 68.248 12.2356 68.757 12.5956C69.301 12.9556 69.7 13.4458 69.954 14.0658H70.499C70.934 14.8958 71.188 15.8459 71.261 16.8959C71.37 17.9459 71.424 19.1059 71.424 20.3759V20.7055C71.315 20.9555 71.17 21.1556 70.989 21.3056C70.807 21.4456 70.589 21.4859 70.335 21.4159C70.081 21.3059 69.845 21.1058 69.628 20.8158C69.555 20.7058 69.501 20.5759 69.464 20.4359C69.428 20.2559 69.392 20.0356 69.355 19.7856C68.956 18.4356 68.557 17.2959 68.158 16.3559C67.795 15.3759 67.305 14.6058 66.688 14.0658H66.252C65.599 13.7058 64.982 13.5559 64.401 13.6259C63.821 13.7059 63.294 13.8458 62.823 14.0658ZM68.92 35.8358C69.174 35.4058 69.392 34.9357 69.573 34.4257C69.791 33.9157 69.972 33.4458 70.118 33.0058L70.281 32.4657C70.499 32.2157 70.716 32.0858 70.934 32.0858C71.188 32.0458 71.406 32.1156 71.587 32.3056C71.769 32.4856 71.878 32.7055 71.914 32.9555C71.841 33.3955 71.751 33.8458 71.642 34.3158C71.533 34.7858 71.388 35.2958 71.206 35.8358H68.92ZM89.28 35.8358C89.607 35.2958 89.915 34.5857 90.206 33.7157C90.496 32.8057 90.714 32.0459 90.859 31.4359C91.004 31.1759 91.185 31.0355 91.403 30.9955C91.657 30.9555 91.875 31.0157 92.056 31.1557C92.274 31.3057 92.419 31.5058 92.492 31.7558C92.383 32.4158 92.238 33.1157 92.056 33.8857C91.875 34.6057 91.694 35.2558 91.512 35.8358H89.28ZM81.06 35.8358C81.604 36.4558 82.348 36.9456 83.292 37.3056C84.235 37.6756 85.233 37.7658 86.286 37.5858C87.375 37.3658 88.373 36.7858 89.28 35.8358L90.913 36.3857C90.042 38.2757 88.736 39.5457 86.994 40.1957C85.251 40.8157 83.473 40.7758 81.659 40.0858C79.844 39.3958 78.41 38.1657 77.358 36.3857L81.06 35.8358ZM82.475 14.0658C81.314 15.2258 80.388 17.0756 79.699 19.6156C79.468 20.4656 79.287 21.3357 79.154 22.2357C79.19 22.6257 79.3 22.9357 79.481 23.1557C79.662 23.3757 79.971 23.5056 80.406 23.5356C80.951 23.5756 81.677 23.6059 82.584 23.6459H85.36C86.159 23.6459 86.758 23.5757 87.157 23.4257C87.556 23.2857 87.901 23.0658 88.191 22.7758C88.336 22.4858 88.427 22.1355 88.463 21.7455C88.5 21.3455 88.518 20.9458 88.518 20.5458V20.3256C88.518 18.9456 88.373 17.7159 88.082 16.6259C87.792 15.4959 87.357 14.6458 86.776 14.0658H86.34C85.651 13.7058 84.961 13.5559 84.272 13.6259C83.582 13.6659 82.983 13.8158 82.475 14.0658L79.753 13.5155C80.842 12.8355 81.804 12.3957 82.638 12.2157C83.473 11.9957 84.362 11.8856 85.306 11.8856C86.068 12.0356 86.83 12.2859 87.592 12.6459C88.391 13.0159 89.044 13.4858 89.552 14.0658H90.097C91.04 15.2958 91.694 16.6256 92.056 18.0356C92.456 19.4556 92.619 21.0358 92.546 22.7758C92.546 23.5358 92.474 24.1356 92.329 24.5756C92.183 25.0056 91.893 25.2957 91.458 25.4457H80.787C80.098 25.4457 79.644 25.6458 79.427 26.0458C79.223 26.3858 79.051 26.8359 78.91 27.3959C78.918 27.5659 78.926 27.7259 78.937 27.8959C79.118 30.8359 79.826 33.4858 81.06 35.8358H76.759C75.489 33.0058 74.836 30.1756 74.799 27.3456C74.799 24.4856 75.217 21.8858 76.051 19.5658C76.886 17.2358 77.939 15.4058 79.209 14.0658H82.475ZM132.178 35.8358C132.468 35.2958 132.759 34.5857 133.049 33.7157C133.376 32.8057 133.593 32.0459 133.702 31.4359C133.884 31.1759 134.083 31.0355 134.301 30.9955C134.555 30.9555 134.773 31.0157 134.954 31.1557C135.172 31.3057 135.317 31.5058 135.39 31.7558C135.281 32.4158 135.136 33.1157 134.954 33.8857C134.773 34.6057 134.573 35.2558 134.356 35.8358H132.178ZM123.958 35.8358C124.502 36.4558 125.246 36.9456 126.19 37.3056C127.133 37.6756 128.131 37.7658 129.184 37.5858C130.273 37.3658 131.271 36.7858 132.178 35.8358L133.811 36.3857C132.94 38.2757 131.634 39.5457 129.892 40.1957C128.149 40.8157 126.371 40.7758 124.556 40.0858C122.742 39.3958 121.29 38.1657 120.201 36.3857L123.958 35.8358ZM125.373 14.0658C124.212 15.2258 123.286 17.0756 122.597 19.6156C122.355 20.5056 122.165 21.4256 122.025 22.3656L122.052 22.2357C122.052 22.6257 122.143 22.9357 122.325 23.1557C122.542 23.3757 122.851 23.5056 123.25 23.5356C123.831 23.5756 124.575 23.6059 125.482 23.6459H128.204C129.039 23.6459 129.637 23.5757 130 23.4257C130.4 23.2857 130.763 23.0658 131.089 22.7758C131.234 22.4858 131.325 22.1355 131.361 21.7455C131.398 21.3455 131.416 20.9458 131.416 20.5458V20.3256C131.416 18.9456 131.271 17.7159 130.98 16.6259C130.69 15.4959 130.236 14.6458 129.619 14.0658H129.184C128.494 13.7058 127.805 13.5559 127.115 13.6259C126.462 13.6659 125.881 13.8158 125.373 14.0658L122.651 13.5155C123.704 12.8355 124.647 12.3957 125.482 12.2157C126.317 11.9957 127.206 11.8856 128.149 11.8856C128.948 12.0356 129.728 12.2859 130.49 12.6459C131.289 13.0159 131.942 13.4858 132.45 14.0658H132.995C133.902 15.2958 134.537 16.6256 134.9 18.0356C135.299 19.4556 135.481 21.0358 135.444 22.7758C135.444 23.5358 135.372 24.1356 135.227 24.5756C135.081 25.0056 134.791 25.2957 134.356 25.4457H123.685C122.996 25.4457 122.542 25.6458 122.325 26.0458C122.107 26.4058 121.925 26.8955 121.78 27.5155C121.772 27.4655 121.765 27.4056 121.758 27.3456C121.764 27.5356 121.771 27.7159 121.78 27.8959C121.962 30.8359 122.687 33.4858 123.958 35.8358H119.657C118.387 33.0058 117.733 30.1756 117.697 27.3456C117.697 24.4856 118.115 21.8858 118.949 19.5658C119.784 17.2358 120.836 15.4058 122.107 14.0658H125.373ZM99.896 36.5458C99.859 37.4158 100.023 37.9857 100.386 38.2357C100.748 38.4557 101.257 38.6155 101.91 38.7255C101.982 38.7655 102.037 38.7758 102.073 38.7758H102.236C102.708 38.8858 103.035 38.9959 103.216 39.1059C103.398 39.1759 103.489 39.3456 103.489 39.5956C103.489 39.8156 103.416 39.9758 103.271 40.0858C103.126 40.1958 102.908 40.2656 102.618 40.3056H93.962C93.599 40.2656 93.345 40.2159 93.2 40.1459C93.054 40.0359 92.982 39.8358 92.982 39.5458C92.982 39.3658 93.073 39.2159 93.254 39.1059C93.472 38.9959 93.817 38.8755 94.288 38.7255C94.397 38.6855 94.524 38.6556 94.67 38.6156C94.815 38.5756 94.96 38.5458 95.105 38.5058C95.468 38.3258 95.686 38.0958 95.758 37.7958C95.867 37.5058 95.922 37.0958 95.922 36.5458V20.8656C95.922 19.5656 96.139 18.3658 96.575 17.2758C97.01 16.1558 97.718 15.0858 98.698 14.0658H99.242C99.569 13.6658 100.023 13.3055 100.603 12.9755C101.184 12.6155 101.783 12.3056 102.4 12.0556C103.271 11.9056 104.106 11.8358 104.904 11.8358C105.702 11.8358 106.555 11.9259 107.463 12.1059C108.08 12.3559 108.606 12.6156 109.041 12.8656C109.513 13.1256 110.039 13.5158 110.62 14.0658H111.164C112.181 15.0058 112.907 15.9858 113.342 17.0058C113.814 17.9858 114.05 19.0956 114.05 20.3256L114.104 36.5458C114.104 37.0558 114.159 37.4758 114.268 37.7958C114.376 38.0958 114.63 38.3258 115.03 38.5058C115.175 38.5458 115.32 38.5756 115.465 38.6156C115.647 38.6556 115.81 38.6855 115.955 38.7255C116.427 38.7955 116.79 38.8855 117.044 38.9955C117.298 39.1055 117.425 39.2858 117.425 39.5458C117.425 39.8358 117.352 40.0359 117.207 40.1459C117.098 40.2159 116.862 40.2656 116.5 40.3056H108.061C107.771 40.2656 107.553 40.1958 107.408 40.0858C107.263 39.9758 107.19 39.8156 107.19 39.5956C107.19 39.3756 107.299 39.2159 107.517 39.1059C107.771 38.9659 108.134 38.8355 108.606 38.7255C109.041 38.6555 109.404 38.4857 109.695 38.2357C109.985 37.9457 110.112 37.3858 110.076 36.5458V19.0155C110.076 17.5655 109.785 16.4758 109.205 15.7558C108.66 15.0258 107.953 14.4658 107.082 14.0658H106.809C106.084 13.9158 105.448 13.8456 104.904 13.8456C104.36 13.8156 103.761 13.8858 103.108 14.0658H102.672C101.91 14.4958 101.257 15.0956 100.712 15.8656C100.168 16.6256 99.896 17.6357 99.896 18.9057V36.5458ZM10.398 37.6957C10.398 36.8557 10.67 36.1155 11.214 35.4555C11.868 34.9155 12.612 34.6459 13.446 34.6459C14.281 34.6059 15.025 34.8456 15.678 35.3456C16.223 36.0356 16.495 36.8057 16.495 37.6357C16.495 38.4357 16.241 39.1658 15.733 39.8158C15.043 40.3558 14.281 40.6357 13.446 40.6357C12.648 40.6657 11.922 40.4357 11.269 39.9257C10.725 39.2357 10.434 38.4857 10.398 37.6957Z" fill="black"/>
</svg>
