<svg width="136" height="41" viewBox="0 0 136 41" fill="none" xmlns="http://www.w3.org/2000/svg">
<path fill-rule="evenodd" clip-rule="evenodd" d="M4.355 14.6061L3.865 16.8459C2.631 16.2959 1.669 15.4661 0.98 14.3361C0.327 13.2161 0 11.9759 0 10.6359C0.109 9.25589 0.526 8.09591 1.252 7.15591C1.978 6.17591 3.012 5.33615 4.355 4.64615V4.10611L6.642 2.74576C7.077 2.45576 7.458 2.19574 7.785 1.97574C8.148 1.76574 8.456 1.59599 8.71 1.48599V0.995757C9.291 0.785757 9.835 0.746148 10.343 0.896148C10.888 1.03615 11.323 1.32578 11.65 1.76578C11.904 2.34578 11.922 2.86609 11.704 3.33609C11.523 3.81609 11.142 4.24615 10.561 4.64615L8.71 5.29605V5.84586C8.021 6.09586 7.222 6.42584 6.315 6.82584C5.444 7.22584 4.791 7.51595 4.355 7.69595V7.85611C3.774 8.33611 3.248 8.85619 2.776 9.43619C2.341 9.98619 2.123 10.676 2.123 11.506C2.123 12.416 2.341 13.1261 2.776 13.6261C3.248 14.1361 3.774 14.4661 4.355 14.6061ZM4.355 14.6061C5.262 14.6861 6.279 14.5159 7.404 14.1159C8.529 13.6859 9.908 13.046 11.541 12.216L13.065 11.506L13.12 16.1862C11.305 16.9162 9.708 17.4059 8.329 17.6559C6.95 17.8759 5.625 17.7859 4.355 17.3859V14.6061ZM21.612 22.776C21.322 22.956 21.032 23.1158 20.741 23.2658C20.451 23.4058 20.142 23.576 19.816 23.756C17.892 24.846 16.441 25.7658 15.461 26.5358C14.481 27.2558 13.991 28.0361 13.991 28.8761V30.9958C13.882 31.2458 13.701 31.4358 13.446 31.5358C13.229 31.6458 12.993 31.6458 12.739 31.5358C12.521 31.3958 12.376 31.196 12.303 30.946V28.7658C12.303 27.4958 12.557 26.4559 13.065 25.6559C13.573 24.8259 14.245 23.9761 15.08 23.1061L15.406 22.776H15.951C16.35 22.336 16.84 21.9358 17.421 21.5758C18.038 21.1758 18.673 20.7658 19.326 20.3258C19.798 20.0358 20.288 19.7457 20.796 19.4557C21.34 19.1657 21.885 18.8162 22.429 18.4162H22.919C23.717 17.6962 24.334 17.0457 24.77 16.4557C25.242 15.8457 25.478 15.0461 25.478 14.0661H26.131V13.5758H25.641C25.568 12.9558 25.278 12.4458 24.77 12.0558C24.262 11.6558 23.663 11.4557 22.973 11.4557C22.211 11.4557 21.358 11.616 20.415 11.946C19.471 12.266 18.473 12.686 17.421 13.196V13.736L13.12 15.6461L13.065 11.0158C13.465 10.8358 14.082 10.5958 14.916 10.3058C15.751 9.98582 16.586 9.67589 17.421 9.38589V8.83609C18.836 8.43609 20.306 8.25605 21.83 8.29605C23.391 8.33605 24.824 9.00582 26.131 10.3058V11.1261L26.621 10.7961C26.911 11.2361 27.183 11.7458 27.437 12.3258C27.728 12.9058 27.927 13.4861 28.036 14.0661H27.546C27.691 14.7961 27.746 15.5361 27.709 16.2961C27.673 17.0261 27.51 17.7262 27.22 18.4162H26.73C26.403 19.2562 25.822 20.0358 24.988 20.7658C24.153 21.4458 23.191 22.126 22.102 22.776H21.612ZM39.196 37.7458L38.706 39.9757C37.218 39.6157 36.021 39.2559 35.113 38.8859C34.206 38.4859 33.752 37.9859 33.752 37.3659L33.643 33.8859L33.48 28.8761C33.589 28.5861 33.752 28.366 33.97 28.216C34.188 28.076 34.424 28.0562 34.678 28.1662C34.932 28.2362 35.15 28.4157 35.331 28.7057L35.494 29.5758C35.93 31.3958 36.42 32.9961 36.964 34.3761C37.509 35.7161 38.253 36.8358 39.196 37.7458ZM48.124 35.8361C48.959 33.2961 48.977 30.9257 48.179 28.7057C47.416 26.4957 46.237 24.516 44.64 22.776H44.15C43.751 22.376 43.334 21.9959 42.898 21.6359C42.462 21.2359 42.009 20.8362 41.537 20.4362C41.174 20.1462 40.793 19.836 40.394 19.506C39.995 19.146 39.614 18.7862 39.251 18.4162H38.706C37.799 17.5462 37.073 16.7658 36.529 16.0758C36.021 15.3858 35.621 14.7161 35.331 14.0661H34.786C34.387 13.3761 34.042 12.2462 33.752 10.6862C33.498 9.12619 33.698 7.53615 34.351 5.89615C35.004 4.22615 36.456 2.84578 38.706 1.76578L39.196 3.2858C38.289 4.1258 37.69 5.17595 37.4 6.44595C37.146 7.67595 37.236 8.96582 37.672 10.3058C38.107 11.6558 38.906 12.9061 40.067 14.0661H40.557C41.065 14.6461 41.737 15.3359 42.571 16.1359C43.442 16.9359 44.295 17.6962 45.13 18.4162H45.674C46.328 19.1062 46.963 19.796 47.58 20.486C48.197 21.146 48.814 21.906 49.431 22.776H49.975C51.209 24.626 51.989 26.696 52.316 28.986C52.679 31.266 52.298 33.5561 51.173 35.8361H48.124ZM39.196 3.2858V1.21597C40.829 0.675972 42.426 0.436011 43.987 0.506011C45.584 0.586011 46.89 0.745757 47.906 0.995757V1.48599C48.705 1.77599 49.34 2.05582 49.812 2.30582C50.283 2.55582 50.592 2.8858 50.737 3.2858C50.774 4.5558 50.81 5.95574 50.846 7.47574C50.882 8.96574 50.901 10.396 50.901 11.776C50.828 12.066 50.665 12.2862 50.411 12.4362C50.193 12.5362 49.939 12.5362 49.648 12.4362C49.394 12.3262 49.195 12.1261 49.05 11.8361C48.795 10.7761 48.578 9.94584 48.396 9.32584C48.215 8.67584 48.051 8.05574 47.906 7.47574V7.04605C47.217 5.44605 46.382 4.28582 45.402 3.55582C44.422 2.79582 43.388 2.41617 42.299 2.41617C41.247 2.41617 40.212 2.7058 39.196 3.2858ZM39.196 37.7458C40.176 38.3258 41.247 38.6557 42.408 38.7257C43.569 38.7957 44.64 38.5758 45.62 38.0758C46.636 37.5658 47.471 36.8161 48.124 35.8361L50.628 36.3258C49.286 38.0758 47.616 39.2857 45.62 39.9757C43.624 40.6357 41.483 40.796 39.196 40.466V37.7458ZM62.823 14.0661C61.77 15.2261 60.917 17.0759 60.264 19.6159C59.647 22.1559 59.411 24.8961 59.556 27.8361C59.738 30.7761 60.355 33.4461 61.407 35.8361H56.943C55.746 32.9061 55.165 30.0162 55.201 27.1862C55.237 24.3162 55.727 21.756 56.671 19.506C57.615 17.226 58.758 15.4061 60.101 14.0661H62.823ZM68.92 35.8361C69.174 35.4461 69.392 34.9857 69.573 34.4757C69.791 33.9357 69.972 33.446 70.118 33.006L70.281 32.5158C70.499 32.2258 70.716 32.0861 70.934 32.0861C71.188 32.0861 71.406 32.1761 71.587 32.3561C71.769 32.5061 71.86 32.7057 71.86 32.9557C71.823 33.3957 71.733 33.8461 71.587 34.3161C71.478 34.7861 71.333 35.2961 71.152 35.8361H68.92ZM62.823 14.0661L60.645 13.5758C61.734 12.9258 62.75 12.4858 63.694 12.2658C64.637 12.0158 65.581 11.8859 66.525 11.8859C67.504 11.9959 68.248 12.2359 68.757 12.5959C69.301 12.9559 69.7 13.4461 69.954 14.0661H70.499C70.898 14.8961 71.152 15.866 71.261 16.946C71.37 18.006 71.424 19.1461 71.424 20.3761V20.7057C71.315 20.9557 71.17 21.1558 70.989 21.3058C70.807 21.4458 70.589 21.4862 70.335 21.4162C70.081 21.3462 69.845 21.1559 69.628 20.8659C69.555 20.7659 69.501 20.6162 69.464 20.4362C69.428 20.2562 69.392 20.0561 69.355 19.8361C68.956 18.4561 68.557 17.2961 68.158 16.3561C67.758 15.3761 67.25 14.6061 66.633 14.0661H66.252C65.599 13.7061 64.982 13.5561 64.401 13.6261C63.821 13.7061 63.294 13.8461 62.823 14.0661ZM61.407 35.8361C61.915 36.4561 62.587 36.9458 63.422 37.3058C64.256 37.6758 65.145 37.7661 66.089 37.5861C67.069 37.3661 68.013 36.7861 68.92 35.8361L70.662 36.3258C69.754 38.2158 68.466 39.506 66.797 40.196C65.164 40.886 63.476 40.886 61.734 40.196C60.028 39.546 58.613 38.2558 57.488 36.3258L61.407 35.8361ZM82.475 14.0661C81.314 15.1861 80.37 17.0459 79.644 19.6159C79.414 20.4659 79.233 21.336 79.099 22.236C79.136 22.626 79.245 22.9359 79.427 23.1559C79.608 23.3759 79.917 23.5058 80.352 23.5358C80.896 23.5758 81.622 23.6061 82.53 23.6461H85.306C86.104 23.6461 86.703 23.5759 87.102 23.4259C87.502 23.2859 87.846 23.066 88.137 22.776C88.318 22.486 88.409 22.1358 88.409 21.7458C88.445 21.3458 88.463 20.9461 88.463 20.5461V20.3258C88.463 18.9458 88.318 17.7161 88.028 16.6261C87.738 15.4961 87.302 14.6461 86.721 14.0661H86.286C85.596 13.6661 84.907 13.5058 84.217 13.5758C83.564 13.6458 82.983 13.8161 82.475 14.0661L79.699 13.5758C80.787 12.8458 81.749 12.396 82.584 12.216C83.419 12.036 84.29 11.946 85.197 11.946C85.996 12.056 86.794 12.2861 87.592 12.6461C88.391 13.0161 89.044 13.4861 89.552 14.0661H90.042C90.986 15.2961 91.639 16.6258 92.002 18.0358C92.401 19.4558 92.565 21.036 92.492 22.776C92.492 23.536 92.419 24.1358 92.274 24.5758C92.129 25.0058 91.839 25.2759 91.403 25.3859C90.786 25.4259 89.897 25.446 88.736 25.446C87.611 25.406 86.286 25.3859 84.762 25.3859H80.733C80.044 25.3859 79.59 25.586 79.372 25.986C79.154 26.386 78.991 26.8958 78.882 27.5158C78.871 27.4358 78.861 27.3658 78.851 27.2858C78.859 27.4858 78.87 27.6961 78.882 27.8961C79.064 30.8361 79.79 33.4861 81.06 35.8361H76.759C75.489 33.0061 74.836 30.1759 74.799 27.3459C74.763 24.4859 75.162 21.8861 75.997 19.5661C76.868 17.2361 77.939 15.4061 79.209 14.0661H82.475ZM89.226 35.8361C89.552 35.2961 89.861 34.586 90.151 33.716C90.478 32.806 90.714 32.0462 90.859 31.4362C91.004 31.1762 91.185 31.0358 91.403 30.9958C91.657 30.9258 91.875 30.9759 92.056 31.1559C92.274 31.3059 92.401 31.506 92.438 31.756C92.365 32.416 92.22 33.1159 92.002 33.8859C91.821 34.6459 91.639 35.2961 91.458 35.8361H89.226ZM81.06 35.8361C81.604 36.4561 82.348 36.9458 83.292 37.3058C84.235 37.6758 85.233 37.7661 86.286 37.5861C87.338 37.3661 88.318 36.7861 89.226 35.8361L90.913 36.3258C90.042 38.2158 88.736 39.506 86.994 40.196C85.251 40.846 83.455 40.8361 81.604 40.1461C79.79 39.4161 78.338 38.1458 77.249 36.3258L81.06 35.8361ZM132.124 35.8361C132.45 35.2961 132.759 34.586 133.049 33.716C133.376 32.806 133.593 32.0462 133.702 31.4362C133.847 31.1762 134.029 31.0358 134.247 30.9958C134.501 30.9258 134.718 30.9759 134.9 31.1559C135.118 31.3059 135.263 31.506 135.335 31.756C135.227 32.416 135.081 33.1159 134.9 33.8859C134.718 34.6459 134.519 35.2961 134.301 35.8361H132.124ZM123.958 35.8361C124.466 36.4561 125.192 36.9458 126.135 37.3058C127.115 37.6758 128.131 37.7661 129.184 37.5861C130.236 37.3661 131.216 36.7861 132.124 35.8361L133.811 36.3258C132.94 38.2158 131.615 39.506 129.837 40.196C128.095 40.846 126.317 40.8361 124.502 40.1461C122.687 39.4161 121.236 38.1458 120.147 36.3258L123.958 35.8361ZM125.319 14.0661C124.194 15.1861 123.268 17.0459 122.542 19.6159C122.312 20.4659 122.131 21.336 121.998 22.236C121.998 22.626 122.089 22.9359 122.27 23.1559C122.488 23.3759 122.796 23.5058 123.196 23.5358C123.74 23.5758 124.484 23.6061 125.428 23.6461H128.204C129.002 23.6461 129.601 23.5759 130 23.4259C130.4 23.2859 130.744 23.066 131.035 22.776C131.18 22.486 131.271 22.1358 131.307 21.7458C131.343 21.3458 131.361 20.9461 131.361 20.5461V20.3258C131.361 18.9458 131.216 17.7161 130.926 16.6261C130.636 15.4961 130.182 14.6461 129.565 14.0661H129.184C128.494 13.6661 127.805 13.5058 127.115 13.5758C126.462 13.6458 125.863 13.8161 125.319 14.0661L122.597 13.5758C123.649 12.8458 124.593 12.396 125.428 12.216C126.262 12.036 127.151 11.946 128.095 11.946C128.893 12.056 129.674 12.2861 130.436 12.6461C131.234 13.0161 131.888 13.4861 132.396 14.0661H132.94C133.847 15.2961 134.501 16.6258 134.9 18.0358C135.299 19.4558 135.462 21.036 135.39 22.776C135.39 23.536 135.317 24.1358 135.172 24.5758C135.027 25.0058 134.737 25.2759 134.301 25.3859C133.684 25.4259 132.795 25.446 131.634 25.446C130.508 25.406 129.166 25.3859 127.605 25.3859H123.577C122.923 25.3859 122.488 25.586 122.27 25.986C122.066 26.356 121.894 26.8361 121.754 27.3961C121.761 27.5661 121.77 27.7261 121.78 27.8961C121.962 30.8361 122.687 33.4861 123.958 35.8361H119.657C118.35 33.0061 117.679 30.1759 117.643 27.3459C117.643 24.4859 118.06 21.8861 118.895 19.5661C119.73 17.2361 120.8 15.4061 122.107 14.0661H125.319ZM99.841 36.5461C99.805 37.4161 99.968 37.986 100.331 38.236C100.694 38.486 101.22 38.6557 101.91 38.7257C101.946 38.7657 101.982 38.776 102.019 38.776H102.236C102.708 38.886 103.035 38.9961 103.216 39.1061C103.398 39.1761 103.489 39.3459 103.489 39.5959C103.489 39.8159 103.416 39.9761 103.271 40.0861C103.126 40.1961 102.908 40.2658 102.618 40.3058H93.853C93.526 40.2658 93.29 40.2161 93.145 40.1461C93 40.0361 92.927 39.8361 92.927 39.5461C92.927 39.3661 93.018 39.2161 93.2 39.1061C93.381 38.9961 93.726 38.8757 94.234 38.7257C94.343 38.6857 94.47 38.6559 94.615 38.6159C94.76 38.5759 94.905 38.546 95.051 38.506C95.414 38.326 95.649 38.0961 95.758 37.7961C95.867 37.5061 95.922 37.0961 95.922 36.5461L95.867 20.8659C95.867 19.5659 96.085 18.366 96.52 17.276C96.956 16.156 97.682 15.0861 98.698 14.0661H99.188C99.515 13.6661 99.968 13.3057 100.549 12.9757C101.166 12.6157 101.765 12.3058 102.345 12.0558C103.216 11.9458 104.051 11.8859 104.85 11.8859C105.648 11.8859 106.483 11.9561 107.354 12.1061C108.007 12.3961 108.57 12.6659 109.041 12.9259C109.513 13.1359 110.039 13.5161 110.62 14.0661H111.11C112.126 15.0061 112.87 15.986 113.342 17.006C113.814 18.026 114.05 19.1258 114.05 20.3258L114.104 36.5461C114.104 37.0561 114.159 37.4761 114.268 37.7961C114.376 38.0961 114.612 38.326 114.975 38.506C115.157 38.546 115.32 38.5759 115.465 38.6159C115.647 38.6559 115.81 38.6857 115.955 38.7257C116.427 38.8357 116.79 38.9458 117.044 39.0558C117.298 39.1658 117.425 39.3261 117.425 39.5461C117.425 39.8361 117.352 40.0361 117.207 40.1461C117.098 40.2161 116.862 40.2658 116.5 40.3058H108.007C107.717 40.2658 107.499 40.1961 107.354 40.0861C107.209 39.9761 107.136 39.8159 107.136 39.5959C107.136 39.3759 107.245 39.2161 107.463 39.1061C107.717 38.9661 108.08 38.8357 108.551 38.7257C108.987 38.6557 109.35 38.486 109.64 38.236C109.967 37.986 110.112 37.4161 110.076 36.5461V18.966C110.076 17.546 109.785 16.476 109.205 15.756C108.624 15.026 107.88 14.4661 106.973 14.0661H106.755C106.065 13.9161 105.43 13.8459 104.85 13.8459C104.305 13.8159 103.706 13.8861 103.053 14.0661H102.672C101.874 14.4961 101.202 15.0959 100.658 15.8659C100.113 16.6259 99.841 17.6359 99.841 18.9059V36.5461ZM10.398 37.696C10.398 36.856 10.67 36.1157 11.214 35.4557C11.868 34.9157 12.594 34.6461 13.392 34.6461C14.227 34.6061 14.971 34.8459 15.624 35.3459C16.168 36.0059 16.441 36.7461 16.441 37.5861C16.477 38.4161 16.223 39.1661 15.678 39.8161C15.025 40.3561 14.281 40.6359 13.446 40.6359C12.648 40.6659 11.904 40.4359 11.214 39.9259C10.706 39.2659 10.434 38.526 10.398 37.696Z" fill="black"/>
</svg>
