<svg width="136" height="41" viewBox="0 0 136 41" fill="none" xmlns="http://www.w3.org/2000/svg">
<path fill-rule="evenodd" clip-rule="evenodd" d="M4.355 14.6061L3.865 16.8961C2.631 16.3161 1.669 15.4761 0.98 14.3961C0.327 13.2661 0 12.0159 0 10.6359C0.109 9.25589 0.526 8.07586 1.252 7.09586C1.978 6.11586 3.012 5.2658 4.355 4.5358V4.10611L6.642 2.74576C7.077 2.45576 7.458 2.19574 7.785 1.97574C8.148 1.72574 8.456 1.56599 8.71 1.48599V0.995757C9.291 0.785757 9.835 0.746148 10.343 0.896148C10.888 1.03615 11.323 1.32578 11.65 1.76578C11.868 2.34578 11.886 2.86609 11.704 3.33609C11.523 3.81609 11.142 4.24615 10.561 4.64615L8.71 5.29605V5.7858C8.021 6.0458 7.222 6.37578 6.315 6.76578C5.444 7.16578 4.791 7.47595 4.355 7.69595V7.80582C3.774 8.27582 3.248 8.80589 2.776 9.38589C2.341 9.92589 2.123 10.636 2.123 11.506C2.123 12.416 2.341 13.1261 2.776 13.6261C3.248 14.1361 3.774 14.4661 4.355 14.6061ZM4.355 14.6061C5.226 14.6861 6.224 14.4961 7.349 14.0661C8.511 13.6261 9.908 13.016 11.541 12.216L13.065 11.506L13.12 16.1359C11.305 16.8959 9.708 17.4059 8.329 17.6559C6.95 17.8759 5.625 17.7661 4.355 17.3361V14.6061ZM21.667 22.776C21.376 22.956 21.086 23.1158 20.796 23.2658C20.505 23.4058 20.197 23.576 19.87 23.756C17.91 24.846 16.422 25.7658 15.406 26.5358C14.426 27.2558 13.936 28.0559 13.936 28.9259V30.9958C13.864 31.2458 13.701 31.4358 13.446 31.5358C13.229 31.6458 12.993 31.6458 12.739 31.5358C12.521 31.3958 12.376 31.196 12.303 30.946V28.8161C12.303 27.5161 12.557 26.4559 13.065 25.6559C13.573 24.8259 14.245 23.9761 15.08 23.1061L15.461 22.776H15.896C16.332 22.336 16.84 21.9358 17.421 21.5758C18.038 21.1758 18.691 20.7658 19.38 20.3258C19.816 20.0358 20.306 19.7457 20.85 19.4557C21.395 19.1657 21.939 18.8162 22.483 18.4162H22.919C23.754 17.6962 24.389 17.0457 24.824 16.4557C25.296 15.8457 25.532 15.0461 25.532 14.0661H26.131V13.5758H25.695C25.623 12.9558 25.332 12.4458 24.824 12.0558C24.316 11.6558 23.699 11.4557 22.973 11.4557C22.211 11.4557 21.358 11.6358 20.415 11.9958C19.471 12.3258 18.473 12.7358 17.421 13.2458V13.736L13.12 15.6461L13.065 11.0158C13.465 10.8758 14.082 10.6358 14.916 10.3058C15.751 9.98582 16.586 9.67589 17.421 9.38589V8.89615C18.836 8.49615 20.306 8.31586 21.83 8.34586C23.391 8.34586 24.824 9.01587 26.131 10.3659V11.1261L26.621 10.8561C26.911 11.2561 27.183 11.7561 27.437 12.3761C27.691 12.9561 27.891 13.5161 28.036 14.0661H27.546C27.691 14.7961 27.746 15.5361 27.709 16.2961C27.709 17.0261 27.564 17.7262 27.274 18.4162H26.784C26.457 19.2562 25.877 20.0358 25.042 20.7658C24.207 21.4458 23.227 22.126 22.102 22.776H21.667ZM39.196 37.7961L38.706 40.0358C37.218 39.6658 36.002 39.306 35.059 38.946C34.151 38.546 33.698 38.0557 33.698 37.4757L33.643 33.9362L33.48 28.8761C33.553 28.5861 33.698 28.366 33.916 28.216C34.133 28.076 34.369 28.0562 34.623 28.1662C34.914 28.2362 35.131 28.4157 35.277 28.7057L35.44 29.5758C35.875 31.3958 36.365 32.9961 36.91 34.3761C37.454 35.7461 38.216 36.8961 39.196 37.7961ZM39.196 3.2858V1.21597C40.829 0.675972 42.426 0.436011 43.987 0.506011C45.584 0.586011 46.89 0.745757 47.906 0.995757V1.48599C48.705 1.74599 49.34 1.99601 49.812 2.25601C50.283 2.50601 50.574 2.8458 50.683 3.2858C50.719 4.5558 50.755 5.95574 50.792 7.47574C50.864 8.96574 50.901 10.3857 50.901 11.7257C50.828 12.0157 50.665 12.2361 50.411 12.3761C50.193 12.4861 49.939 12.5062 49.648 12.4362C49.394 12.3262 49.195 12.1261 49.05 11.8361C48.795 10.7761 48.578 9.94584 48.396 9.32584C48.215 8.67584 48.051 8.05574 47.906 7.47574V7.04605C47.217 5.44605 46.382 4.28582 45.402 3.55582C44.422 2.79582 43.388 2.41617 42.299 2.41617C41.247 2.41617 40.212 2.7058 39.196 3.2858ZM48.124 35.8361C48.995 33.2961 49.031 30.9257 48.233 28.7057C47.435 26.4557 46.219 24.486 44.586 22.776H44.15C43.751 22.376 43.334 21.9959 42.898 21.6359C42.462 21.2359 42.009 20.8362 41.537 20.4362C41.174 20.1462 40.775 19.836 40.339 19.506C39.94 19.146 39.559 18.7862 39.196 18.4162H38.706C37.799 17.5462 37.073 16.7658 36.529 16.0758C35.984 15.3858 35.567 14.7161 35.277 14.0661H34.786C34.387 13.3761 34.042 12.2462 33.752 10.6862C33.462 9.12619 33.643 7.51586 34.297 5.84586C34.986 4.17586 36.456 2.79572 38.706 1.70572L39.196 3.2858C38.289 4.1258 37.69 5.15589 37.4 6.38589C37.146 7.62589 37.236 8.92582 37.672 10.3058C38.107 11.6558 38.906 12.9061 40.067 14.0661H40.557C41.065 14.6461 41.737 15.3359 42.571 16.1359C43.442 16.9359 44.295 17.6962 45.13 18.4162H45.62C46.31 19.1062 46.963 19.796 47.58 20.486C48.233 21.146 48.868 21.906 49.485 22.776H49.921C51.191 24.586 52.007 26.656 52.37 28.986C52.733 31.306 52.316 33.5861 51.118 35.8361H48.124ZM39.196 37.7961C40.176 38.3861 41.247 38.706 42.408 38.776C43.569 38.816 44.658 38.5961 45.674 38.1261C46.691 37.6161 47.507 36.8561 48.124 35.8361L50.683 36.3258C49.34 38.0758 47.652 39.2857 45.62 39.9757C43.624 40.6357 41.483 40.796 39.196 40.466V37.7961ZM62.877 14.0661L60.645 13.5758C61.734 12.9558 62.75 12.5258 63.694 12.2658C64.637 12.0158 65.563 11.8859 66.47 11.8859C67.486 11.9959 68.248 12.2359 68.757 12.5959C69.301 12.9559 69.7 13.4461 69.954 14.0661H70.444C70.88 14.8961 71.134 15.866 71.206 16.946C71.315 18.006 71.37 19.1662 71.37 20.4362V20.7658C71.297 21.0158 71.17 21.2161 70.989 21.3561C70.807 21.5061 70.589 21.546 70.335 21.466C70.081 21.396 69.845 21.1959 69.628 20.8659C69.555 20.7659 69.501 20.636 69.464 20.486C69.428 20.306 69.392 20.0861 69.355 19.8361C68.956 18.4561 68.557 17.2961 68.158 16.3561C67.758 15.3761 67.25 14.6061 66.633 14.0661H66.252C65.599 13.7061 64.982 13.5561 64.401 13.6261C63.821 13.7061 63.313 13.8461 62.877 14.0661ZM62.877 14.0661C61.788 15.1861 60.917 17.0261 60.264 19.5661C59.647 22.1061 59.411 24.8661 59.556 27.8361C59.738 30.8161 60.355 33.4861 61.407 35.8361H56.943C55.709 32.9361 55.11 30.0562 55.147 27.1862C55.219 24.3162 55.727 21.7457 56.671 19.4557C57.651 17.1657 58.812 15.3761 60.155 14.0661H62.877ZM68.92 35.8361C69.174 35.4461 69.392 34.9857 69.573 34.4757C69.791 33.9357 69.972 33.446 70.118 33.006L70.335 32.5158C70.517 32.2658 70.716 32.1359 70.934 32.1359C71.188 32.1059 71.388 32.1761 71.533 32.3561C71.714 32.5361 71.823 32.756 71.86 33.006C71.787 33.406 71.696 33.8661 71.587 34.3761C71.478 34.8461 71.315 35.3361 71.097 35.8361H68.92ZM61.407 35.8361C61.915 36.4561 62.587 36.9458 63.422 37.3058C64.256 37.6758 65.145 37.7661 66.089 37.5861C67.069 37.4061 68.013 36.8161 68.92 35.8361L70.662 36.3258C69.754 38.1858 68.466 39.466 66.797 40.196C65.164 40.926 63.476 40.9358 61.734 40.2458C59.992 39.5558 58.558 38.2558 57.433 36.3258L61.407 35.8361ZM89.226 35.8361C89.552 35.2961 89.861 34.586 90.151 33.716C90.478 32.806 90.695 32.0462 90.804 31.4362C90.95 31.1762 91.131 31.0358 91.349 30.9958C91.603 30.9258 91.821 30.9759 92.002 31.1559C92.22 31.3059 92.365 31.506 92.438 31.756C92.329 32.416 92.165 33.1159 91.948 33.8859C91.766 34.6459 91.585 35.2961 91.403 35.8361H89.226ZM82.475 14.0661C81.314 15.1561 80.37 16.9861 79.644 19.5661C79.392 20.4461 79.195 21.3561 79.052 22.2961C79.094 22.6561 79.2 22.9459 79.372 23.1559C79.554 23.3759 79.862 23.5058 80.298 23.5358C80.842 23.5758 81.568 23.6061 82.475 23.6461H85.251C86.05 23.6461 86.649 23.5759 87.048 23.4259C87.447 23.2859 87.792 23.066 88.082 22.776C88.264 22.486 88.373 22.1358 88.409 21.7458C88.445 21.3458 88.463 20.9461 88.463 20.5461V20.3258C88.463 18.9858 88.318 17.7461 88.028 16.6261C87.738 15.4961 87.284 14.6461 86.667 14.0661H86.286C85.596 13.6661 84.907 13.5058 84.217 13.5758C83.564 13.6458 82.983 13.8161 82.475 14.0661L79.699 13.5758C80.751 12.8858 81.695 12.4458 82.53 12.2658C83.364 12.0558 84.235 11.946 85.143 11.946C85.941 12.056 86.74 12.2861 87.538 12.6461C88.336 13.0161 88.99 13.4861 89.498 14.0661H89.988C90.931 15.2661 91.585 16.5858 91.948 18.0358C92.347 19.4558 92.51 21.036 92.438 22.776C92.438 23.536 92.365 24.1358 92.22 24.5758C92.075 25.0058 91.784 25.2759 91.349 25.3859C90.768 25.4259 89.897 25.446 88.736 25.446C87.574 25.406 86.213 25.3859 84.653 25.3859H80.624C79.971 25.3859 79.535 25.586 79.318 25.986C79.1 26.386 78.937 26.8958 78.828 27.5158C78.817 27.4458 78.807 27.3661 78.797 27.2961C78.805 27.4961 78.816 27.6961 78.828 27.8961C79.009 30.8661 79.753 33.5161 81.06 35.8361H76.759C75.453 33.0061 74.781 30.1661 74.745 27.2961C74.709 24.4261 75.108 21.836 75.942 19.506C76.814 17.186 77.902 15.3761 79.209 14.0661H82.475ZM81.06 35.8361C81.568 36.4561 82.294 36.9458 83.237 37.3058C84.181 37.6758 85.179 37.7661 86.231 37.5861C87.32 37.4061 88.318 36.8161 89.226 35.8361L90.913 36.3258C90.042 38.2158 88.718 39.506 86.939 40.196C85.197 40.846 83.401 40.8361 81.55 40.1461C79.735 39.4161 78.283 38.1458 77.195 36.3258L81.06 35.8361ZM123.903 35.8361C124.411 36.4561 125.137 36.9458 126.081 37.3058C127.061 37.6758 128.077 37.7661 129.129 37.5861C130.218 37.4061 131.198 36.8161 132.069 35.8361L133.811 36.3258C132.94 38.2158 131.615 39.506 129.837 40.196C128.095 40.846 126.299 40.8361 124.448 40.1461C122.597 39.4161 121.145 38.1458 120.092 36.3258L123.903 35.8361ZM132.069 35.8361C132.396 35.2961 132.704 34.586 132.995 33.716C133.321 32.806 133.557 32.0462 133.702 31.4362C133.847 31.1762 134.029 31.0358 134.247 30.9958C134.501 30.9258 134.718 30.9759 134.9 31.1559C135.118 31.3059 135.245 31.506 135.281 31.756C135.172 32.416 135.027 33.1159 134.845 33.8859C134.664 34.6459 134.464 35.2961 134.247 35.8361H132.069ZM125.319 14.0661C124.157 15.1561 123.214 16.9861 122.488 19.5661C122.243 20.4661 122.052 21.4059 121.917 22.3659L121.943 22.236C121.943 22.626 122.034 22.9359 122.216 23.1559C122.433 23.3759 122.742 23.5058 123.141 23.5358C123.685 23.5758 124.429 23.6061 125.373 23.6461H128.149C128.948 23.6461 129.547 23.5759 129.946 23.4259C130.345 23.2859 130.69 23.066 130.98 22.776C131.125 22.486 131.216 22.1358 131.252 21.7458C131.289 21.3458 131.307 20.9461 131.307 20.5461V20.3258C131.307 18.9858 131.162 17.7461 130.871 16.6261C130.581 15.4961 130.127 14.6461 129.51 14.0661H129.129C128.476 13.6661 127.805 13.5058 127.115 13.5758C126.426 13.6458 125.827 13.8161 125.319 14.0661L122.542 13.5758C123.595 12.8858 124.538 12.4458 125.373 12.2658C126.208 12.0558 127.097 11.946 128.041 11.946C128.839 12.056 129.637 12.2861 130.436 12.6461C131.234 13.0161 131.888 13.4861 132.396 14.0661H132.886C133.793 15.2661 134.446 16.5858 134.845 18.0358C135.245 19.4558 135.408 21.036 135.335 22.776C135.335 23.536 135.263 24.1358 135.118 24.5758C134.972 25.0058 134.664 25.2759 134.192 25.3859C133.612 25.4259 132.74 25.446 131.579 25.446C130.454 25.406 129.111 25.3859 127.551 25.3859H123.522C122.833 25.3859 122.379 25.586 122.161 25.986C121.961 26.356 121.807 26.8159 121.699 27.3659C121.706 27.5459 121.715 27.7161 121.726 27.8961C121.907 30.8661 122.633 33.5161 123.903 35.8361H119.603C118.332 33.0061 117.679 30.1661 117.643 27.2961C117.606 24.4261 118.006 21.836 118.84 19.506C119.711 17.186 120.8 15.3761 122.107 14.0661H125.319ZM99.787 36.5461C99.75 37.4561 99.914 38.0358 100.277 38.2858C100.64 38.5058 101.166 38.6557 101.855 38.7257C101.928 38.7657 101.982 38.776 102.019 38.776H102.182C102.69 38.886 103.017 38.9961 103.162 39.1061C103.343 39.1761 103.434 39.3459 103.434 39.5959C103.434 39.8159 103.362 39.9761 103.216 40.0861C103.071 40.1961 102.853 40.2658 102.563 40.3058H93.798C93.436 40.2658 93.182 40.2161 93.036 40.1461C92.891 40.0361 92.819 39.8361 92.819 39.5461C92.819 39.3661 92.909 39.2161 93.091 39.1061C93.309 38.9961 93.653 38.8757 94.125 38.7257C94.27 38.6857 94.415 38.6559 94.561 38.6159C94.706 38.5759 94.851 38.546 94.996 38.506C95.359 38.326 95.595 38.0961 95.704 37.7961C95.813 37.5061 95.867 37.0961 95.867 36.5461L95.813 20.8659C95.813 19.5659 96.03 18.366 96.466 17.276C96.938 16.156 97.664 15.0861 98.644 14.0661H99.134C99.46 13.6661 99.914 13.3057 100.494 12.9757C101.111 12.6157 101.728 12.3261 102.345 12.1061C103.18 11.9561 103.997 11.8859 104.795 11.8859C105.63 11.8859 106.465 11.9759 107.299 12.1559C107.953 12.4159 108.515 12.6659 108.987 12.9259C109.459 13.1359 109.985 13.5161 110.566 14.0661H111.056C112.072 15.0061 112.816 15.986 113.288 17.006C113.759 18.026 113.995 19.1258 113.995 20.3258L114.05 36.5461C114.05 37.0561 114.104 37.4761 114.213 37.7961C114.322 38.0961 114.576 38.326 114.975 38.506C115.12 38.546 115.266 38.5759 115.411 38.6159C115.592 38.6559 115.774 38.6857 115.955 38.7257C116.427 38.8357 116.79 38.9458 117.044 39.0558C117.298 39.1658 117.425 39.3261 117.425 39.5461C117.425 39.8361 117.352 40.0361 117.207 40.1461C117.098 40.2161 116.844 40.2658 116.445 40.3058H107.953C107.662 40.2658 107.444 40.1961 107.299 40.0861C107.154 39.9761 107.082 39.8159 107.082 39.5959C107.082 39.3759 107.19 39.2161 107.408 39.1061C107.662 38.9661 108.025 38.8357 108.497 38.7257C108.932 38.6557 109.295 38.486 109.586 38.236C109.912 37.986 110.058 37.4161 110.021 36.5461V18.966C110.021 17.546 109.731 16.476 109.15 15.756C108.57 15.026 107.826 14.4661 106.918 14.0661H106.7C106.011 13.9161 105.376 13.8459 104.795 13.8459C104.251 13.8159 103.652 13.8861 102.999 14.0661H102.618C101.855 14.4961 101.184 15.0959 100.603 15.8659C100.059 16.6259 99.787 17.6359 99.787 18.9059V36.5461ZM10.343 37.696C10.343 36.856 10.616 36.1157 11.16 35.4557C11.813 34.9157 12.557 34.6461 13.392 34.6461C14.227 34.6061 14.971 34.8459 15.624 35.3459C16.168 36.0059 16.441 36.7461 16.441 37.5861C16.477 38.4161 16.223 39.1661 15.678 39.8161C15.025 40.3561 14.281 40.6359 13.446 40.6359C12.612 40.6659 11.868 40.4359 11.214 39.9259C10.67 39.2659 10.38 38.526 10.343 37.696Z" fill="black"/>
</svg>
