<svg width="139" height="41" viewBox="0 0 139 41" fill="none" xmlns="http://www.w3.org/2000/svg">
<path fill-rule="evenodd" clip-rule="evenodd" d="M4.355 14.1198L0.381 14.3368C0.272 13.4298 0.181 12.7038 0.109 12.1598C0.036 11.6158 0 10.8348 0 9.81882C0.871 9.67382 1.561 9.54684 2.069 9.43784C2.577 9.32884 3.339 9.23783 4.355 9.16583V5.24582L6.642 5.08282C7.113 5.04682 7.458 5.02783 7.676 5.02783C7.93 4.99183 8.275 4.97385 8.71 4.97385V0.999817C9.618 0.963817 10.307 0.963817 10.779 0.999817C11.287 0.999817 11.995 1.01783 12.902 1.05383C12.938 1.96183 12.938 2.66882 12.902 3.17682C12.902 3.64882 12.866 4.35684 12.793 5.30084L8.71 5.35483V9.32883C7.803 9.32883 7.077 9.36484 6.533 9.43784C5.988 9.47384 5.262 9.49182 4.355 9.49182V10.7438C4.283 11.1068 4.228 11.3978 4.192 11.6158C4.156 11.7968 4.137 12.1048 4.137 12.5408C4.137 12.9038 4.156 13.1938 4.192 13.4118C4.228 13.5928 4.283 13.8288 4.355 14.1198ZM4.355 14.1198C5.879 14.1198 7.041 14.1018 7.839 14.0648C8.674 14.0288 9.908 13.9748 11.541 13.9018L13.065 13.7928V9.81882C13.936 9.81882 14.626 9.80083 15.134 9.76483C15.678 9.72783 16.441 9.69182 17.421 9.65582V5.73584C19.308 5.66384 20.759 5.64482 21.776 5.68182C22.792 5.68182 24.244 5.73582 26.131 5.84482V9.87283L30.105 9.81882C30.141 10.7258 30.159 11.4338 30.159 11.9418C30.196 12.4138 30.214 13.1218 30.214 14.0648H26.294V16.2428C26.294 16.7508 26.276 17.4768 26.24 18.4198H22.266C22.229 19.3638 22.175 20.0898 22.102 20.5978C22.03 21.1058 21.939 21.8318 21.83 22.7758H17.856C17.82 22.9568 17.783 23.0838 17.747 23.1568C17.711 23.2288 17.693 23.3558 17.693 23.5378C17.475 24.3358 17.312 24.9528 17.203 25.3888C17.13 25.7878 17.094 26.4048 17.094 27.2398V31.4308C16.404 31.4678 15.878 31.4858 15.515 31.4858H14.481C14.154 31.4858 13.664 31.4678 13.011 31.4308V28.2188C13.011 27.1308 13.029 26.2958 13.065 25.7148C13.102 25.1348 13.174 24.2998 13.283 23.2108V22.7758H17.257C17.294 22.1948 17.348 21.7588 17.421 21.4688C17.493 21.1418 17.566 20.6888 17.638 20.1078C17.674 19.7448 17.711 19.4728 17.747 19.2908C17.82 19.0738 17.874 18.7828 17.91 18.4198H21.885C21.957 17.5128 22.012 16.8048 22.048 16.2968C22.12 15.7888 22.157 15.0448 22.157 14.0648H26.131V10.0908H23.572C23.064 10.0548 22.647 10.0188 22.32 9.98184C22.03 9.90984 21.576 9.87283 20.959 9.87283C20.233 9.87283 19.653 9.89183 19.217 9.92783L17.421 10.0908V14.0108L13.065 14.2288V18.2028C11.142 18.2748 9.672 18.3298 8.656 18.3658C7.676 18.3658 6.242 18.3478 4.355 18.3118V14.1198ZM39.196 36.0588L35.222 36.2758C35.077 35.3688 34.95 34.6798 34.841 34.2078C34.768 33.7358 34.732 33.0278 34.732 32.0848V30.1788L34.678 27.2938C35.367 27.2578 35.875 27.2398 36.202 27.2398H37.236C37.599 27.2398 38.126 27.2578 38.815 27.2938V28.1108C38.851 29.8528 38.888 31.1948 38.924 32.1388C38.997 33.0458 39.087 34.3528 39.196 36.0588ZM39.196 5.13684V0.999817C41.083 0.963817 42.535 0.944824 43.551 0.944824C44.604 0.944824 46.055 0.963817 47.906 0.999817V4.97385C48.85 5.00985 49.558 5.04682 50.03 5.08282C50.501 5.08282 51.191 5.10084 52.098 5.13684V13.8478C51.445 13.8478 50.937 13.8658 50.574 13.9018H49.539C49.213 13.9018 48.705 13.8838 48.015 13.8478C47.979 12.7948 47.943 11.9968 47.906 11.4518V5.51782C46.527 5.37282 45.457 5.26383 44.694 5.19183C43.969 5.08283 43.225 5.02783 42.462 5.02783C41.7 5.02783 40.612 5.06484 39.196 5.13684ZM47.906 35.8408C48.015 33.0098 48.015 30.8318 47.906 29.3078C47.834 27.7838 47.725 25.6058 47.58 22.7758H43.606C43.569 22.2668 43.533 21.8858 43.497 21.6318C43.461 21.3778 43.406 20.9788 43.334 20.4348C43.297 19.9988 43.261 19.6718 43.225 19.4548C43.188 19.2368 43.152 18.8918 43.116 18.4198H39.142C39.069 17.4768 38.997 16.7508 38.924 16.2428C38.888 15.7348 38.851 15.0088 38.815 14.0648H34.841C34.805 12.6858 34.768 11.5968 34.732 10.7988C34.696 9.96383 34.714 9.14785 34.786 8.34885C34.859 7.51385 35.004 6.38885 35.222 4.97385L39.196 5.13684C39.087 6.51584 39.015 7.60484 38.978 8.40384C38.978 9.16584 38.997 9.94584 39.033 10.7438C39.069 11.5428 39.16 12.6498 39.305 14.0648H43.225C43.297 14.9728 43.37 15.6978 43.442 16.2428C43.551 16.7508 43.642 17.4768 43.715 18.4198H47.689C47.761 19.3278 47.816 20.0348 47.852 20.5438C47.925 21.0518 47.997 21.7958 48.07 22.7758H52.044C52.153 25.5338 52.225 27.6748 52.262 29.1988C52.298 30.7238 52.262 32.9368 52.153 35.8408H47.906ZM39.196 36.0588C40.612 36.0948 41.7 36.1308 42.462 36.1678C43.225 36.1678 43.987 36.1488 44.749 36.1128C45.511 36.0398 46.564 35.9498 47.906 35.8408L48.179 39.8148C46.328 39.9958 44.858 40.1228 43.769 40.1958C42.717 40.2318 41.192 40.2498 39.196 40.2498V36.0588ZM61.026 35.8408C62.369 35.9128 63.403 35.9678 64.129 36.0038C64.891 36.0398 65.635 36.0588 66.361 36.0588C67.123 36.0218 68.212 35.9498 69.628 35.8408L69.791 39.8148C68.375 39.9958 67.25 40.1228 66.416 40.1958C65.617 40.2688 64.801 40.2688 63.966 40.1958C63.167 40.1228 62.042 39.9958 60.591 39.8148L61.026 35.8408ZM61.19 14.0648C61.081 17.4398 60.99 20.0718 60.917 21.9588C60.845 23.8458 60.808 25.7698 60.808 27.7288C60.845 29.6528 60.917 32.3568 61.026 35.8408H56.671C56.526 32.2838 56.453 29.5438 56.453 27.6208C56.453 25.6968 56.508 23.8098 56.617 21.9588C56.725 20.1078 56.853 17.4768 56.998 14.0648H61.19ZM61.19 14.0648L60.917 10.0908C62.804 10.0188 64.22 9.98184 65.164 9.98184C66.143 9.94584 67.541 9.92783 69.355 9.92783C69.464 10.8348 69.537 11.5248 69.573 11.9968C69.646 12.4678 69.7 13.1578 69.736 14.0648H73.656C73.692 14.9728 73.71 15.6798 73.71 16.1878C73.747 16.6958 73.765 17.4218 73.765 18.3658V18.6378C73.112 18.6738 72.604 18.7108 72.241 18.7468H71.206C70.843 18.7108 70.335 18.6928 69.682 18.6928C69.682 18.5468 69.664 18.4198 69.628 18.3118V17.9298C69.591 17.0228 69.555 16.3518 69.519 15.9158C69.482 15.4438 69.428 14.8268 69.355 14.0648H66.252C65.127 14.0288 64.274 14.0108 63.694 14.0108C63.113 14.0108 62.278 14.0288 61.19 14.0648ZM69.628 35.8408V34.0988C69.664 33.6628 69.7 33.0828 69.736 32.3568V31.5948C70.426 31.5578 70.934 31.5398 71.261 31.5398C71.624 31.5398 71.968 31.5578 72.295 31.5948C72.658 31.5948 73.166 31.6128 73.819 31.6488C73.819 32.5558 73.801 33.2638 73.765 33.7718V35.8408H69.628ZM91.24 35.8408C91.276 34.8968 91.294 34.1708 91.294 33.6628C91.331 33.1188 91.367 32.3928 91.403 31.4858C92.056 31.4488 92.546 31.4308 92.873 31.4308C93.236 31.4308 93.599 31.4488 93.962 31.4858C94.325 31.4858 94.833 31.5038 95.486 31.5398C95.45 32.4838 95.414 33.2098 95.377 33.7178V35.8408H91.24ZM82.584 35.8408C83.927 35.9128 84.961 35.9678 85.687 36.0038C86.449 36.0398 87.211 36.0588 87.974 36.0588C88.736 36.0218 89.824 35.9498 91.24 35.8408L91.403 39.8148C90.024 39.9958 88.917 40.1228 88.082 40.1958C87.248 40.2688 86.413 40.2688 85.578 40.1958C84.743 40.1228 83.618 39.9958 82.203 39.8148L82.584 35.8408ZM82.693 14.0648C82.584 17.4398 82.493 20.0718 82.421 21.9588C82.411 22.2128 82.402 22.4678 82.393 22.7228C82.851 22.7578 83.187 22.7948 83.401 22.8298H84.544C85.379 22.8658 86.032 22.8838 86.504 22.8838H89.879C90.169 22.8478 90.587 22.8118 91.131 22.7758V19.6178C91.131 18.3478 91.113 17.3858 91.077 16.7328C91.077 16.0798 91.04 15.1898 90.968 14.0648H87.865C86.703 14.0288 85.832 14.0108 85.251 14.0108C84.671 14.0108 83.818 14.0288 82.693 14.0648L82.421 10.0908C84.308 10.0188 85.723 9.98184 86.667 9.98184C87.611 9.94584 88.99 9.92783 90.804 9.92783C90.913 10.8348 91.004 11.5248 91.077 11.9968C91.149 12.4678 91.204 13.1578 91.24 14.0648H95.214C95.323 15.9518 95.395 17.4038 95.432 18.4198C95.468 19.4368 95.486 20.8878 95.486 22.7758C95.486 23.7188 95.468 24.4448 95.432 24.9528C95.432 25.4248 95.414 26.0958 95.377 26.9668H86.721C85.705 26.9668 84.943 26.9848 84.435 27.0218C83.963 27.0578 83.274 27.1118 82.366 27.1848C82.366 26.7178 82.351 26.3578 82.32 26.1058C82.315 26.6438 82.312 27.1848 82.312 27.7288C82.348 29.6528 82.439 32.3568 82.584 35.8408H78.229C78.084 32.2838 78.011 29.5438 78.011 27.6208C78.011 25.6968 78.047 23.8098 78.12 21.9588C78.229 20.1078 78.356 17.4768 78.501 14.0648H82.693ZM82.328 25.4898C82.337 25.3118 82.35 25.1148 82.366 24.8988V23.6248C82.35 24.2428 82.337 24.8638 82.328 25.4898ZM134.737 35.8408C134.737 34.8968 134.755 34.1708 134.791 33.6628C134.827 33.1188 134.864 32.3928 134.9 31.4858C135.553 31.4488 136.043 31.4308 136.37 31.4308C136.733 31.4308 137.077 31.4488 137.404 31.4858C137.767 31.4858 138.275 31.5038 138.928 31.5398C138.928 32.4838 138.91 33.2098 138.874 33.7178V35.8408H134.737ZM126.081 35.8408C127.424 35.9128 128.458 35.9678 129.184 36.0038C129.946 36.0398 130.708 36.0588 131.47 36.0588C132.232 36.0218 133.321 35.9498 134.737 35.8408L134.9 39.8148C133.484 39.9958 132.359 40.1228 131.525 40.1958C130.726 40.2688 129.892 40.2688 129.02 40.1958C128.186 40.1228 127.061 39.9958 125.645 39.8148L126.081 35.8408ZM126.19 14.0648C126.081 17.4398 125.99 20.0718 125.917 21.9588C125.907 22.2128 125.898 22.4678 125.89 22.7228C126.348 22.7578 126.684 22.7948 126.897 22.8298H128.041C128.875 22.8658 129.529 22.8838 130 22.8838H133.321C133.612 22.8478 134.047 22.8118 134.628 22.7758V19.6178C134.628 18.3478 134.61 17.3858 134.573 16.7328C134.573 16.0798 134.537 15.1898 134.464 14.0648H131.307C130.182 14.0288 129.311 14.0108 128.694 14.0108C128.113 14.0108 127.278 14.0288 126.19 14.0648L125.917 10.0908C127.805 10.0188 129.22 9.98184 130.164 9.98184C131.107 9.94584 132.486 9.92783 134.301 9.92783C134.374 10.8348 134.446 11.5248 134.519 11.9968C134.628 12.4678 134.7 13.1578 134.737 14.0648H138.711C138.82 15.9518 138.892 17.4038 138.928 18.4198C138.965 19.4368 138.983 20.8878 138.983 22.7758C138.983 23.7188 138.965 24.4448 138.928 24.9528C138.928 25.4248 138.892 26.0958 138.82 26.9668H130.218C129.202 26.9668 128.44 26.9848 127.932 27.0218L125.809 27.1848C125.809 27.3658 125.809 27.5468 125.809 27.7288C125.845 29.6528 125.936 32.3568 126.081 35.8408H121.726C121.58 32.2838 121.508 29.5438 121.508 27.6208C121.508 25.6968 121.544 23.8098 121.617 21.9588C121.726 20.1078 121.835 17.4768 121.943 14.0648H126.19ZM104.033 35.8948C104.033 36.3308 104.051 36.6388 104.087 36.8208C104.124 36.9658 104.178 37.2018 104.251 37.5278V37.6368L104.305 37.6918C104.341 37.9818 104.36 38.1998 104.36 38.3448C104.396 38.4538 104.414 38.6348 104.414 38.8888C104.414 39.1798 104.396 39.3978 104.36 39.5428C104.36 39.6878 104.341 39.9058 104.305 40.1958H99.515C99.478 39.9418 99.442 39.7418 99.406 39.5968V38.4538C99.442 38.3448 99.496 38.1998 99.569 38.0178V37.9098C99.605 37.8368 99.623 37.7638 99.623 37.6918C99.66 37.2928 99.678 37.0018 99.678 36.8208C99.714 36.6388 99.732 36.3308 99.732 35.8948V20.0538C99.732 18.7468 99.75 17.7488 99.787 17.0588C99.823 16.3698 99.896 15.3718 100.004 14.0648H103.979C104.015 13.1938 104.051 12.5228 104.087 12.0508C104.16 11.5428 104.233 10.8348 104.305 9.92783H108.443C109.386 9.92783 110.783 9.94584 112.634 9.98184C112.707 10.8528 112.761 11.5248 112.798 11.9968C112.834 12.4318 112.888 13.1218 112.961 14.0648H116.935C117.044 15.3358 117.116 16.3148 117.153 17.0048C117.189 17.6578 117.207 18.6558 117.207 19.9988V36.8208C117.244 37.0018 117.28 37.2928 117.316 37.6918C117.352 37.8008 117.371 37.8728 117.371 37.9098C117.371 37.9458 117.389 37.9998 117.425 38.0728C117.461 38.2538 117.498 38.3998 117.534 38.5078C117.57 38.6168 117.588 38.7618 117.588 38.9438C117.588 39.2338 117.57 39.4518 117.534 39.5968C117.534 39.7418 117.516 39.9418 117.479 40.1958H112.689C112.652 39.9418 112.634 39.7418 112.634 39.5968V38.3448C112.671 38.1998 112.707 37.9818 112.743 37.6918C112.78 37.3288 112.816 37.0568 112.852 36.8748C112.888 36.6938 112.907 36.3668 112.907 35.8948V19.5088C112.907 18.2748 112.87 17.3498 112.798 16.7328C112.761 16.1158 112.689 15.2268 112.58 14.0648H108.932C108.57 14.0288 108.007 14.0288 107.245 14.0648H104.305C104.233 15.0448 104.16 15.8248 104.087 16.4058C104.051 16.9508 104.033 17.7848 104.033 18.9098V35.8948ZM12.793 37.9638C12.793 37.4198 12.811 36.6938 12.848 35.7858C13.828 35.7498 14.572 35.7318 15.08 35.7318C15.588 35.7318 16.314 35.7498 17.257 35.7858C17.294 36.7298 17.312 37.4738 17.312 38.0178C17.312 38.5268 17.294 39.2338 17.257 40.1418C16.314 40.2138 15.57 40.2498 15.025 40.2498C14.517 40.2498 13.809 40.2138 12.902 40.1418C12.83 39.1978 12.793 38.4718 12.793 37.9638Z" fill="black"/>
</svg>
