<svg width="136" height="41" viewBox="0 0 136 41" fill="none" xmlns="http://www.w3.org/2000/svg">
<path fill-rule="evenodd" clip-rule="evenodd" d="M4.355 14.6059L3.92 16.8959C2.686 16.3559 1.724 15.5159 1.034 14.3959C0.345 13.2659 0 12.0157 0 10.6357C0.109 9.21566 0.526 8.02582 1.252 7.04582C1.978 6.06582 3.012 5.20576 4.355 4.48576V4.10587L6.642 2.68595C7.077 2.39595 7.458 2.1457 7.785 1.9257C8.148 1.7057 8.456 1.54595 8.71 1.43595V0.995523C9.291 0.785523 9.835 0.745913 10.343 0.895913C10.888 1.03591 11.323 1.32554 11.65 1.76554C11.868 2.37554 11.868 2.92591 11.65 3.39591C11.469 3.82591 11.087 4.22562 10.507 4.59562L8.71 5.29582V5.73576C8.021 5.98576 7.222 6.33554 6.315 6.76554C5.444 7.16554 4.791 7.45591 4.355 7.64591V7.80558C3.774 8.23558 3.248 8.7456 2.776 9.3256C2.341 9.9056 2.123 10.6155 2.123 11.4555C2.123 12.3955 2.341 13.1259 2.776 13.6259C3.248 14.1359 3.774 14.4659 4.355 14.6059ZM4.355 14.6059C5.226 14.7159 6.224 14.5556 7.349 14.1156C8.511 13.6456 9.908 13.0157 11.541 12.2157L13.065 11.4555L13.12 16.1357C11.342 16.8557 9.745 17.3459 8.329 17.6059C6.95 17.8559 5.625 17.7659 4.355 17.3359V14.6059ZM21.667 22.7758L20.796 23.3158C20.505 23.4658 20.197 23.6256 19.87 23.8056C17.91 24.8956 16.422 25.8056 15.406 26.5356C14.39 27.2556 13.882 28.0557 13.882 28.9257V30.9955C13.809 31.2455 13.646 31.4356 13.392 31.5356C13.174 31.6456 12.957 31.6456 12.739 31.5356C12.521 31.3956 12.376 31.1957 12.303 30.9457V28.8158C12.303 27.5158 12.557 26.4557 13.065 25.6557C13.573 24.8257 14.263 23.9759 15.134 23.1059L15.461 22.7758H15.896C16.332 22.3358 16.84 21.9356 17.421 21.5756C18.038 21.1756 18.691 20.7656 19.38 20.3256C19.852 20.0356 20.342 19.7455 20.85 19.4555C21.395 19.1655 21.957 18.8159 22.538 18.4159H22.973C23.772 17.6959 24.389 17.0455 24.824 16.4555C25.296 15.8455 25.532 15.0458 25.532 14.0658H26.131V13.6259H25.695C25.659 13.0159 25.369 12.5059 24.824 12.1059C24.316 11.6659 23.699 11.4555 22.973 11.4555C22.247 11.4555 21.395 11.6355 20.415 11.9955C19.471 12.3255 18.473 12.7556 17.421 13.3056V13.7358L13.12 15.6957L13.065 11.0155C13.465 10.8755 14.082 10.6356 14.916 10.3056C15.751 9.98558 16.586 9.67566 17.421 9.38566V8.94572C18.836 8.51572 20.306 8.31562 21.83 8.34562C23.391 8.38562 24.824 9.07593 26.131 10.4159V11.1259L26.566 10.8559C26.857 11.2559 27.129 11.7559 27.383 12.3759C27.637 12.9559 27.837 13.5158 27.982 14.0658H27.546C27.728 14.7958 27.8 15.5358 27.764 16.2958C27.728 17.0258 27.564 17.7259 27.274 18.4159H26.838C26.512 19.2559 25.913 20.0355 25.042 20.7655C24.207 21.4455 23.227 22.1258 22.102 22.7758H21.667ZM39.196 37.7958L38.761 40.0859C37.273 39.7259 36.057 39.3655 35.113 38.9955C34.17 38.5955 33.698 38.1058 33.698 37.5258L33.589 33.9858L33.48 28.8759C33.553 28.5859 33.698 28.3657 33.916 28.2157C34.133 28.0757 34.369 28.0559 34.623 28.1659C34.877 28.2759 35.077 28.4755 35.222 28.7655L35.44 29.6357C35.839 31.4157 36.311 32.9959 36.855 34.3759C37.436 35.7459 38.216 36.8958 39.196 37.7958ZM39.196 37.7958C40.14 38.3858 41.192 38.7058 42.354 38.7758C43.551 38.8558 44.658 38.6359 45.674 38.1259C46.691 37.6159 47.507 36.8559 48.124 35.8359L50.683 36.2758C49.376 38.0558 47.707 39.2855 45.674 39.9755C43.642 40.6355 41.483 40.7957 39.196 40.4657V37.7958ZM39.196 3.23576V1.2758C40.829 0.695796 42.426 0.435777 43.987 0.505777C45.584 0.585777 46.89 0.745523 47.906 0.995523V1.43595C48.669 1.68595 49.286 1.96578 49.757 2.25578C50.265 2.50578 50.574 2.83576 50.683 3.23576C50.719 4.50576 50.755 5.8957 50.792 7.4257C50.864 8.9457 50.901 10.3855 50.901 11.7255C50.828 12.0155 50.665 12.2359 50.411 12.3759C50.193 12.4859 49.939 12.506 49.648 12.436C49.394 12.326 49.213 12.1259 49.104 11.8359C48.814 10.7759 48.578 9.9258 48.396 9.2758C48.251 8.6258 48.088 8.0255 47.906 7.4755V7.09562C47.253 5.42562 46.418 4.22578 45.402 3.50578C44.422 2.74578 43.388 2.35587 42.299 2.35587C41.21 2.35587 40.176 2.65576 39.196 3.23576ZM48.124 35.8359C48.995 33.2959 49.031 30.9255 48.233 28.7055C47.435 26.4555 46.219 24.4858 44.586 22.7758H44.15C43.751 22.3758 43.334 21.9957 42.898 21.6357C42.462 21.2357 41.991 20.836 41.483 20.436C41.12 20.146 40.739 19.8358 40.339 19.5058C39.94 19.1458 39.541 18.7859 39.142 18.4159H38.706C37.799 17.5459 37.055 16.7656 36.474 16.0756C35.93 15.3856 35.512 14.7158 35.222 14.0658H34.786C34.351 13.4158 33.988 12.3055 33.698 10.7455C33.444 9.14552 33.643 7.51562 34.297 5.84562C34.986 4.13562 36.474 2.74568 38.761 1.65568L39.196 3.23576C38.289 4.06576 37.69 5.11566 37.4 6.38566C37.109 7.62566 37.182 8.92558 37.617 10.3056C38.089 11.6556 38.906 12.9058 40.067 14.0658H40.503C41.047 14.6458 41.737 15.3357 42.571 16.1357C43.442 16.9357 44.313 17.6959 45.184 18.4159H45.62C46.31 19.1059 46.963 19.7958 47.58 20.4858C48.233 21.1458 48.868 21.9058 49.485 22.7758H49.921C51.191 24.5858 52.007 26.6558 52.37 28.9858C52.733 31.3058 52.316 33.5859 51.118 35.8359H48.124ZM68.92 35.8359C69.174 35.4459 69.41 34.9855 69.628 34.4755C69.845 33.9755 70.009 33.4958 70.118 33.0658L70.335 32.5155C70.517 32.2655 70.716 32.1357 70.934 32.1357C71.188 32.1057 71.388 32.1759 71.533 32.3559C71.714 32.5359 71.805 32.7558 71.805 33.0058C71.769 33.4458 71.678 33.8959 71.533 34.3759C71.424 34.8459 71.279 35.3359 71.097 35.8359H68.92ZM61.407 35.8359C61.915 36.4559 62.569 36.9656 63.367 37.3656C64.202 37.7256 65.109 37.8157 66.089 37.6357C67.069 37.4157 68.013 36.8159 68.92 35.8359L70.662 36.2758C69.754 38.1658 68.466 39.4657 66.797 40.1957C65.164 40.9257 63.458 40.9355 61.679 40.2455C59.937 39.5555 58.504 38.2358 57.379 36.2758L61.407 35.8359ZM62.877 14.0658C61.788 15.1858 60.917 17.0258 60.264 19.5658C59.611 22.1058 59.357 24.8659 59.502 27.8359C59.683 30.8159 60.318 33.4859 61.407 35.8359H56.943C55.709 32.9359 55.11 30.056 55.147 27.186C55.219 24.286 55.727 21.6859 56.671 19.3959C57.651 17.1159 58.83 15.3358 60.21 14.0658H62.877ZM62.877 14.0658L60.645 13.6259C61.698 12.9759 62.696 12.5356 63.639 12.3256C64.583 12.0656 65.508 11.9457 66.416 11.9457C67.432 12.0157 68.212 12.2356 68.757 12.5956C69.301 12.9556 69.7 13.4458 69.954 14.0658H70.39C70.825 14.8958 71.079 15.8657 71.152 16.9457C71.261 18.0057 71.315 19.166 71.315 20.436V20.7655C71.243 21.0155 71.116 21.2359 70.934 21.4159C70.753 21.5559 70.535 21.5958 70.281 21.5258C70.063 21.4158 69.845 21.2157 69.628 20.9257C69.555 20.8157 69.501 20.6658 69.464 20.4858C69.428 20.3058 69.392 20.1057 69.355 19.8857C68.956 18.4757 68.539 17.2959 68.103 16.3559C67.704 15.3759 67.196 14.6058 66.579 14.0658H66.252C65.599 13.7058 64.982 13.5559 64.401 13.6259C63.821 13.7059 63.313 13.8458 62.877 14.0658ZM89.226 35.8359C89.552 35.3359 89.861 34.6257 90.151 33.7157C90.478 32.8057 90.695 32.046 90.804 31.436C90.95 31.176 91.131 31.0355 91.349 30.9955C91.603 30.9255 91.821 30.9757 92.002 31.1557C92.22 31.3057 92.347 31.5058 92.383 31.7558C92.274 32.3758 92.111 33.0857 91.893 33.8857C91.712 34.6457 91.53 35.2959 91.349 35.8359H89.226ZM81.005 35.8359C81.513 36.4559 82.239 36.9656 83.183 37.3656C84.163 37.7256 85.179 37.8157 86.231 37.6357C87.32 37.4157 88.318 36.8159 89.226 35.8359L90.913 36.2758C90.042 38.1958 88.718 39.5057 86.939 40.1957C85.197 40.8457 83.382 40.8159 81.495 40.0859C79.644 39.3659 78.193 38.0958 77.14 36.2758L81.005 35.8359ZM82.475 14.0658C81.278 15.1558 80.316 16.9858 79.59 19.5658C79.338 20.4458 79.14 21.3558 78.997 22.2958C79.039 22.6658 79.146 22.9657 79.318 23.2157C79.499 23.4257 79.808 23.5356 80.243 23.5356C80.787 23.5756 81.531 23.6059 82.475 23.6459H85.197C86.032 23.6459 86.649 23.5757 87.048 23.4257C87.447 23.2857 87.792 23.0658 88.082 22.7758C88.228 22.4858 88.318 22.1355 88.355 21.7455C88.391 21.3455 88.409 20.9556 88.409 20.5956V20.3256C88.409 18.9856 88.264 17.7459 87.974 16.6259C87.683 15.4959 87.23 14.6458 86.613 14.0658H86.286C85.596 13.6658 84.907 13.5056 84.217 13.5756C83.564 13.6456 82.983 13.8158 82.475 14.0658L79.644 13.6259C80.697 12.9059 81.64 12.4455 82.475 12.2655C83.31 12.0555 84.181 11.9457 85.088 11.9457C85.887 12.0557 86.685 12.2859 87.484 12.6459C88.318 13.0159 88.99 13.4858 89.498 14.0658H89.933C90.877 15.2658 91.548 16.5856 91.948 18.0356C92.347 19.4556 92.51 21.0358 92.438 22.7758C92.438 23.5358 92.365 24.1356 92.22 24.5756C92.075 25.0056 91.766 25.2757 91.294 25.3857H80.57C79.917 25.3857 79.481 25.5858 79.263 25.9858C79.046 26.3858 78.882 26.8955 78.773 27.5155C78.763 27.4455 78.753 27.3658 78.743 27.2958C78.751 27.4958 78.761 27.6959 78.773 27.8959C78.955 30.8659 79.699 33.5159 81.005 35.8359H76.705C75.398 33.0459 74.727 30.2156 74.69 27.3456C74.654 24.4456 75.071 21.8358 75.942 19.5058C76.814 17.1458 77.902 15.3358 79.209 14.0658H82.475ZM132.069 35.8359C132.396 35.3359 132.704 34.6257 132.995 33.7157C133.321 32.8057 133.557 32.046 133.702 31.436C133.811 31.176 133.974 31.0355 134.192 30.9955C134.446 30.9255 134.664 30.9757 134.845 31.1557C135.063 31.3057 135.19 31.5058 135.227 31.7558C135.154 32.3758 135.009 33.0857 134.791 33.8857C134.61 34.6457 134.41 35.2959 134.192 35.8359H132.069ZM123.903 35.8359C124.411 36.4559 125.137 36.9656 126.081 37.3656C127.024 37.7256 128.022 37.8157 129.075 37.6357C130.164 37.4157 131.162 36.8159 132.069 35.8359L133.757 36.2758C132.922 38.1958 131.615 39.5057 129.837 40.1957C128.059 40.8457 126.244 40.8159 124.393 40.0859C122.542 39.3659 121.091 38.0958 120.038 36.2758L123.903 35.8359ZM125.319 14.0658C124.157 15.1558 123.214 16.9858 122.488 19.5658C122.233 20.4558 122.034 21.3756 121.891 22.3256C121.904 22.6756 121.995 22.9757 122.161 23.2157C122.379 23.4257 122.687 23.5356 123.087 23.5356C123.631 23.5756 124.375 23.6059 125.319 23.6459H128.095C128.893 23.6459 129.492 23.5757 129.892 23.4257C130.291 23.2857 130.636 23.0658 130.926 22.7758C131.107 22.4858 131.198 22.1355 131.198 21.7455C131.234 21.3455 131.252 20.9556 131.252 20.5956V20.3256C131.252 18.9856 131.107 17.7459 130.817 16.6259C130.527 15.4959 130.073 14.6458 129.456 14.0658H129.129C128.44 13.6658 127.75 13.5056 127.061 13.5756C126.407 13.6456 125.827 13.8158 125.319 14.0658L122.542 13.6259C123.558 12.9059 124.484 12.4455 125.319 12.2655C126.153 12.0555 127.024 11.9457 127.932 11.9457C128.766 12.0557 129.583 12.2859 130.381 12.6459C131.18 13.0159 131.833 13.4858 132.341 14.0658H132.777C133.72 15.2658 134.392 16.5856 134.791 18.0356C135.19 19.4556 135.354 21.0358 135.281 22.7758C135.281 23.5358 135.208 24.1356 135.063 24.5756C134.918 25.0056 134.61 25.2757 134.138 25.3857H123.413C122.76 25.3857 122.324 25.5858 122.107 25.9858C121.906 26.3558 121.752 26.8156 121.644 27.3656C121.651 27.5456 121.66 27.7159 121.671 27.8959C121.853 30.8659 122.597 33.5159 123.903 35.8359H119.603C118.296 33.0459 117.625 30.2156 117.588 27.3456C117.552 24.4456 117.969 21.8358 118.84 19.5058C119.711 17.1458 120.8 15.3358 122.107 14.0658H125.319ZM99.732 36.6059C99.696 37.4759 99.859 38.0356 100.222 38.2856C100.585 38.5056 101.111 38.6555 101.801 38.7255C101.874 38.7655 101.928 38.7758 101.964 38.7758C102.037 38.7758 102.109 38.7959 102.182 38.8359C102.654 38.9059 102.98 38.9959 103.162 39.1059C103.343 39.1759 103.434 39.3456 103.434 39.5956C103.434 39.8556 103.362 40.0359 103.216 40.1459C103.071 40.2159 102.853 40.2656 102.563 40.3056H93.744C93.381 40.2656 93.127 40.2159 92.982 40.1459C92.837 40.0659 92.764 39.8856 92.764 39.5956C92.764 39.4156 92.855 39.2659 93.036 39.1659C93.254 39.0559 93.599 38.9055 94.071 38.7255C94.216 38.6855 94.361 38.6556 94.506 38.6156C94.651 38.5756 94.796 38.5458 94.942 38.5058C95.305 38.3258 95.54 38.0958 95.649 37.7958C95.758 37.5058 95.813 37.1159 95.813 36.6059L95.758 20.8656C95.758 19.5656 95.976 18.3658 96.412 17.2758C96.883 16.1558 97.627 15.0858 98.644 14.0658H99.079C99.406 13.6658 99.859 13.3055 100.44 12.9755C101.057 12.6155 101.674 12.3259 102.291 12.1059C103.162 11.9959 103.997 11.9457 104.795 11.9457C105.594 11.9457 106.41 12.0157 107.245 12.1557C107.898 12.4157 108.461 12.6657 108.932 12.9257C109.404 13.1757 109.931 13.5558 110.511 14.0658H110.947C111.999 15.0058 112.761 15.9858 113.233 17.0058C113.705 18.0258 113.941 19.1256 113.941 20.3256L113.995 36.6059C113.995 37.0759 114.05 37.4758 114.159 37.7958C114.268 38.0958 114.522 38.3258 114.921 38.5058C115.102 38.5458 115.266 38.5756 115.411 38.6156C115.592 38.6556 115.756 38.7058 115.901 38.7758C116.409 38.8558 116.79 38.9456 117.044 39.0556C117.298 39.1656 117.425 39.3456 117.425 39.5956C117.425 39.8856 117.352 40.0659 117.207 40.1459C117.098 40.2159 116.844 40.2656 116.445 40.3056H107.898C107.608 40.2656 107.372 40.2159 107.19 40.1459C107.045 40.0359 106.973 39.8556 106.973 39.5956C106.973 39.3756 107.1 39.2159 107.354 39.1059C107.608 38.9659 107.989 38.8558 108.497 38.7758C108.896 38.7058 109.241 38.5456 109.531 38.2856C109.858 37.9956 110.003 37.4359 109.967 36.6059V18.9657C109.967 17.5457 109.676 16.4758 109.096 15.7558C108.515 15.0258 107.771 14.4658 106.864 14.0658H106.646C105.956 13.8858 105.321 13.7958 104.741 13.7958C104.196 13.7958 103.597 13.8858 102.944 14.0658H102.618C101.819 14.4958 101.13 15.0956 100.549 15.8656C100.004 16.6256 99.732 17.6357 99.732 18.9057V36.6059ZM10.343 37.6957C10.343 36.8557 10.616 36.1155 11.16 35.4555C11.813 34.8755 12.557 34.5859 13.392 34.5859C14.227 34.5859 14.971 34.8456 15.624 35.3456C16.168 36.0056 16.441 36.7459 16.441 37.5859C16.477 38.4159 16.223 39.1658 15.678 39.8158C15.025 40.3558 14.281 40.6357 13.446 40.6357C12.612 40.6657 11.868 40.4357 11.214 39.9257C10.634 39.2657 10.343 38.5257 10.343 37.6957Z" fill="black"/>
</svg>
