<svg width="136" height="41" viewBox="0 0 136 41" fill="none" xmlns="http://www.w3.org/2000/svg">
<path fill-rule="evenodd" clip-rule="evenodd" d="M4.355 14.6059L3.974 16.9457C2.704 16.4057 1.724 15.5757 1.034 14.4457C0.345 13.2857 0 12.0157 0 10.6357C0.073 9.21566 0.472 8.02582 1.198 7.04582C1.96 6.02582 3.012 5.1557 4.355 4.4257V4.04582L6.642 2.68595C7.077 2.39595 7.458 2.1457 7.785 1.9257C8.148 1.6757 8.456 1.48589 8.71 1.37589V0.995523C9.291 0.785523 9.835 0.745913 10.343 0.895913C10.888 1.03591 11.323 1.34584 11.65 1.81584C11.868 2.39584 11.868 2.92591 11.65 3.39591C11.469 3.82591 11.087 4.22562 10.507 4.59562L8.71 5.29582V5.68595C8.021 5.93595 7.222 6.27574 6.315 6.71574C5.408 7.11574 4.754 7.42591 4.355 7.64591V7.74552C3.774 8.22552 3.248 8.7456 2.776 9.3256C2.305 9.8756 2.069 10.5855 2.069 11.4555C2.069 12.3955 2.305 13.136 2.776 13.686C3.248 14.196 3.774 14.4959 4.355 14.6059ZM4.355 14.6059C5.226 14.7159 6.224 14.5556 7.349 14.1156C8.511 13.6456 9.908 12.9957 11.541 12.1557L13.065 11.4555L13.12 16.0756C11.342 16.8456 9.745 17.3459 8.329 17.6059C6.95 17.8559 5.625 17.7659 4.355 17.3359V14.6059ZM21.721 22.7758L20.85 23.3158C20.56 23.4658 20.251 23.6256 19.925 23.8056C17.929 24.8956 16.404 25.8259 15.352 26.5859C14.336 27.3159 13.828 28.1058 13.828 28.9858V30.9955C13.791 31.2455 13.646 31.4356 13.392 31.5356C13.174 31.6456 12.938 31.6456 12.684 31.5356C12.467 31.3956 12.321 31.1957 12.249 30.9457V28.8158C12.249 27.5158 12.521 26.4557 13.065 25.6557C13.61 24.8257 14.299 23.9759 15.134 23.1059L15.515 22.7758H15.896C16.332 22.3358 16.84 21.9356 17.421 21.5756C18.038 21.1756 18.691 20.7656 19.38 20.3256C19.852 20.0356 20.36 19.7455 20.905 19.4555C21.449 19.1655 22.012 18.8159 22.592 18.4159H22.973C23.808 17.6959 24.443 17.0455 24.879 16.4555C25.35 15.8455 25.586 15.0458 25.586 14.0658H26.131V13.686H25.75C25.677 13.066 25.387 12.5557 24.879 12.1557C24.371 11.7257 23.754 11.5058 23.028 11.5058C22.266 11.5058 21.395 11.6856 20.415 12.0556C19.471 12.3756 18.473 12.8159 17.421 13.3559V13.7358L13.12 15.6957L13.065 11.0756C13.428 10.8856 14.027 10.6356 14.862 10.3056C15.733 9.98558 16.586 9.67566 17.421 9.38566V9.00578C18.8 8.56578 20.27 8.36568 21.83 8.40568C23.391 8.43568 24.824 9.1255 26.131 10.4755V11.1259L26.512 10.8559C26.802 11.2559 27.074 11.7559 27.328 12.3759C27.619 12.9559 27.818 13.5158 27.927 14.0658H27.546C27.728 14.7958 27.8 15.5358 27.764 16.2958C27.728 17.0258 27.564 17.7259 27.274 18.4159H26.893C26.566 19.2559 25.967 20.0355 25.096 20.7655C24.225 21.4455 23.227 22.1258 22.102 22.7758H21.721ZM39.196 37.7958L38.815 40.0859C37.291 39.7559 36.057 39.4156 35.113 39.0556C34.17 38.6556 33.698 38.1659 33.698 37.5859L33.589 33.9858L33.426 28.9257C33.498 28.6357 33.643 28.4158 33.861 28.2758C34.079 28.0958 34.315 28.0559 34.569 28.1659C34.859 28.2759 35.059 28.4755 35.168 28.7655L35.385 29.6357C35.821 31.4457 36.311 33.0457 36.855 34.4257C37.436 35.8057 38.216 36.9258 39.196 37.7958ZM39.196 3.23576V1.2758C40.829 0.695796 42.426 0.435777 43.987 0.505777C45.584 0.585777 46.89 0.745523 47.906 0.995523V1.37589C48.669 1.63589 49.286 1.90572 49.757 2.19572C50.265 2.45572 50.574 2.79576 50.683 3.23576C50.719 4.50576 50.755 5.8957 50.792 7.4257C50.828 8.9457 50.846 10.3659 50.846 11.6659C50.81 11.9559 50.665 12.1756 50.411 12.3256C50.193 12.4656 49.939 12.4859 49.648 12.3759C49.394 12.2659 49.213 12.0658 49.104 11.7758C48.85 10.7258 48.632 9.8958 48.451 9.2758C48.269 8.6258 48.088 8.0057 47.906 7.4257V7.09562C47.253 5.42562 46.418 4.21572 45.402 3.44572C44.422 2.68572 43.388 2.30558 42.299 2.30558C41.21 2.30558 40.176 2.61576 39.196 3.23576ZM48.124 35.8359C48.995 33.2959 49.031 30.9057 48.233 28.6557C47.435 26.4057 46.201 24.4458 44.531 22.7758H44.15C43.751 22.3758 43.315 21.9957 42.844 21.6357C42.408 21.2357 41.954 20.836 41.483 20.436C41.12 20.146 40.72 19.8358 40.285 19.5058C39.886 19.1458 39.486 18.7859 39.087 18.4159H38.706C37.763 17.5459 37 16.7656 36.42 16.0756C35.875 15.3856 35.458 14.7158 35.168 14.0658H34.786C34.351 13.4158 33.988 12.286 33.698 10.686C33.444 9.09595 33.643 7.45556 34.297 5.78556C34.986 4.12556 36.492 2.74568 38.815 1.65568L39.196 3.23576C38.253 4.02576 37.636 5.06585 37.345 6.33585C37.091 7.60585 37.182 8.92558 37.617 10.3056C38.089 11.6556 38.906 12.9058 40.067 14.0658H40.448C40.993 14.6458 41.7 15.3357 42.571 16.1357C43.442 16.9357 44.313 17.6959 45.184 18.4159H45.566C46.255 19.1059 46.926 19.7958 47.58 20.4858C48.233 21.1458 48.868 21.9058 49.485 22.7758H49.866C51.173 24.5858 52.007 26.6558 52.37 28.9858C52.733 31.3058 52.316 33.5859 51.118 35.8359H48.124ZM39.196 37.7958C40.14 38.4158 41.192 38.7659 42.354 38.8359C43.551 38.9059 44.658 38.686 45.674 38.186C46.691 37.636 47.507 36.8559 48.124 35.8359L50.737 36.2255C49.394 37.9955 47.707 39.2555 45.674 39.9755C43.642 40.6655 41.483 40.8357 39.196 40.4657V37.7958ZM68.865 35.8359C69.156 35.4459 69.41 34.9855 69.628 34.4755C69.845 33.9755 70.009 33.4958 70.118 33.0658L70.335 32.5155C70.517 32.2655 70.716 32.1357 70.934 32.1357C71.188 32.1057 71.388 32.1759 71.533 32.3559C71.714 32.5359 71.805 32.7558 71.805 33.0058C71.733 33.4458 71.642 33.8959 71.533 34.3759C71.424 34.8459 71.261 35.3359 71.043 35.8359H68.865ZM61.407 35.8359C61.915 36.4559 62.569 36.9656 63.367 37.3656C64.202 37.7256 65.109 37.8157 66.089 37.6357C67.069 37.4157 67.994 36.8159 68.865 35.8359L70.662 36.2255C69.791 38.1455 68.521 39.4657 66.851 40.1957C65.182 40.9257 63.458 40.9355 61.679 40.2455C59.901 39.5555 58.449 38.2155 57.324 36.2255L61.407 35.8359ZM62.932 14.0658C61.806 15.1558 60.917 16.9858 60.264 19.5658C59.611 22.1058 59.357 24.8759 59.502 27.8959C59.683 30.8659 60.318 33.5159 61.407 35.8359H56.943C55.709 32.9359 55.11 30.056 55.147 27.186C55.183 24.286 55.691 21.6859 56.671 19.3959C57.651 17.0759 58.849 15.2958 60.264 14.0658H62.932ZM62.932 14.0658L60.645 13.686C61.698 13.026 62.696 12.5756 63.639 12.3256C64.583 12.0656 65.508 11.9457 66.416 11.9457C67.432 12.0157 68.212 12.2356 68.757 12.5956C69.301 12.9556 69.7 13.4458 69.954 14.0658H70.39C70.789 14.8958 71.043 15.8657 71.152 16.9457C71.261 18.0357 71.315 19.2158 71.315 20.4858V20.8158C71.243 21.0658 71.116 21.2659 70.934 21.4159C70.753 21.5559 70.535 21.5958 70.281 21.5258C70.027 21.4458 69.809 21.2655 69.628 20.9755C69.555 20.8355 69.501 20.6858 69.464 20.5458C69.428 20.3658 69.392 20.1457 69.355 19.8857C68.956 18.5157 68.539 17.3359 68.103 16.3559C67.704 15.3759 67.196 14.6058 66.579 14.0658H66.252C65.635 13.7058 65.037 13.5559 64.456 13.6259C63.875 13.7059 63.367 13.8458 62.932 14.0658ZM89.171 35.8359C89.498 35.3359 89.806 34.6257 90.097 33.7157C90.423 32.8057 90.659 32.046 90.804 31.436C90.95 31.176 91.131 31.0355 91.349 30.9955C91.566 30.9255 91.766 30.9757 91.948 31.1557C92.165 31.3057 92.292 31.5058 92.329 31.7558C92.22 32.3758 92.056 33.0857 91.839 33.8857C91.657 34.6457 91.476 35.2959 91.294 35.8359H89.171ZM81.005 35.8359C81.513 36.4559 82.239 36.9656 83.183 37.3656C84.126 37.7256 85.143 37.8157 86.231 37.6357C87.32 37.4157 88.3 36.8159 89.171 35.8359L90.913 36.2255C90.042 38.1855 88.718 39.5057 86.939 40.1957C85.161 40.8457 83.328 40.8159 81.441 40.0859C79.59 39.3659 78.138 38.0755 77.086 36.2255L81.005 35.8359ZM82.475 14.0658C81.278 15.1158 80.316 16.9358 79.59 19.5058C79.334 20.4158 79.135 21.3456 78.992 22.3056C79.003 22.6656 79.093 22.9757 79.263 23.2157C79.445 23.4257 79.753 23.5556 80.189 23.5956C80.733 23.6256 81.477 23.6459 82.421 23.6459H85.197C85.996 23.6459 86.594 23.5757 86.994 23.4257C87.393 23.2857 87.738 23.0658 88.028 22.7758C88.209 22.4858 88.3 22.1355 88.3 21.7455C88.336 21.3455 88.355 20.9556 88.355 20.5956V20.3759C88.355 19.0059 88.209 17.7459 87.919 16.6259C87.629 15.4959 87.175 14.6458 86.558 14.0658H86.231C85.578 13.6658 84.907 13.5056 84.217 13.5756C83.528 13.6456 82.947 13.8158 82.475 14.0658L79.644 13.686C80.661 12.956 81.586 12.5056 82.421 12.3256C83.255 12.1056 84.108 11.9955 84.979 11.9955C85.814 12.0655 86.631 12.2859 87.429 12.6459C88.264 13.0159 88.953 13.4858 89.498 14.0658H89.879C90.822 15.2658 91.494 16.5856 91.893 18.0356C92.292 19.4556 92.456 21.0358 92.383 22.7758C92.383 23.5358 92.31 24.1356 92.165 24.5756C92.02 25.0056 91.712 25.2659 91.24 25.3359C90.659 25.3659 89.788 25.3857 88.627 25.3857C87.465 25.3557 86.104 25.3359 84.544 25.3359H80.461C79.808 25.3359 79.372 25.5558 79.154 25.9858C78.988 26.3558 78.852 26.8156 78.746 27.3656C78.754 27.5456 78.763 27.7159 78.773 27.8959C78.955 30.8659 79.699 33.5159 81.005 35.8359H76.705C75.398 33.0459 74.727 30.2156 74.69 27.3456C74.654 24.4456 75.071 21.8155 75.942 19.4555C76.814 17.0955 77.92 15.2958 79.263 14.0658H82.475ZM132.015 35.8359C132.341 35.3359 132.668 34.6257 132.995 33.7157C133.321 32.8057 133.539 32.046 133.648 31.436C133.793 31.176 133.974 31.0355 134.192 30.9955C134.446 30.9255 134.664 30.9757 134.845 31.1557C135.063 31.3057 135.172 31.5058 135.172 31.7558C135.1 32.3758 134.954 33.0857 134.737 33.8857C134.555 34.6457 134.356 35.2959 134.138 35.8359H132.015ZM123.849 35.8359C124.357 36.4559 125.083 36.9656 126.026 37.3656C127.006 37.7256 128.022 37.8157 129.075 37.6357C130.164 37.4157 131.144 36.8159 132.015 35.8359L133.757 36.2255C132.922 38.1855 131.597 39.5057 129.783 40.1957C128.004 40.8457 126.172 40.8159 124.284 40.0859C122.433 39.3659 120.982 38.0755 119.929 36.2255L123.849 35.8359ZM125.319 14.0658C124.121 15.1158 123.159 16.9358 122.433 19.5058C122.178 20.4158 121.979 21.3456 121.836 22.3056C121.846 22.6656 121.936 22.9757 122.107 23.2157C122.324 23.4257 122.633 23.5556 123.032 23.5956C123.577 23.6256 124.321 23.6459 125.264 23.6459H128.041C128.839 23.6459 129.438 23.5757 129.837 23.4257C130.273 23.2857 130.617 23.0658 130.871 22.7758C131.053 22.4858 131.162 22.1355 131.198 21.7455C131.234 21.3455 131.252 20.9556 131.252 20.5956V20.3759C131.252 19.0059 131.089 17.7459 130.763 16.6259C130.472 15.4959 130.019 14.6458 129.402 14.0658H129.075C128.422 13.6658 127.75 13.5056 127.061 13.5756C126.407 13.6456 125.827 13.8158 125.319 14.0658L122.488 13.686C123.504 12.956 124.429 12.5056 125.264 12.3256C126.099 12.1056 126.97 11.9955 127.877 11.9955C128.676 12.0655 129.474 12.2859 130.273 12.6459C131.107 13.0159 131.797 13.4858 132.341 14.0658H132.722C133.666 15.2658 134.337 16.5856 134.737 18.0356C135.136 19.4556 135.299 21.0358 135.227 22.7758C135.227 23.5358 135.154 24.1356 135.009 24.5756C134.864 25.0056 134.555 25.2659 134.083 25.3359C133.503 25.3659 132.632 25.3857 131.47 25.3857C130.309 25.3557 128.948 25.3359 127.387 25.3359H123.359C122.706 25.3359 122.27 25.5558 122.052 25.9858C121.853 26.3558 121.698 26.8156 121.59 27.3656C121.597 27.5456 121.606 27.7159 121.617 27.8959C121.798 30.8659 122.542 33.5159 123.849 35.8359H119.548C118.242 33.0459 117.57 30.2156 117.534 27.3456C117.498 24.4456 117.915 21.8155 118.786 19.4555C119.657 17.0955 120.764 15.2958 122.107 14.0658H125.319ZM99.678 36.6059C99.642 37.4759 99.805 38.0356 100.168 38.2856C100.567 38.5456 101.111 38.7058 101.801 38.7758C101.874 38.8158 101.928 38.8359 101.964 38.8359H102.128C102.636 38.9059 102.98 38.9959 103.162 39.1059C103.343 39.2159 103.434 39.3957 103.434 39.6557C103.434 39.8657 103.362 40.0359 103.216 40.1459C103.071 40.2159 102.853 40.2656 102.563 40.3056H93.69C93.327 40.2656 93.054 40.2159 92.873 40.1459C92.728 40.0659 92.655 39.8856 92.655 39.5956C92.655 39.4156 92.746 39.2659 92.927 39.1659C93.145 39.0559 93.508 38.9258 94.016 38.7758C94.161 38.7458 94.307 38.7057 94.452 38.6757C94.597 38.5957 94.724 38.5458 94.833 38.5058C95.232 38.3658 95.486 38.1459 95.595 37.8559C95.704 37.5259 95.758 37.1159 95.758 36.6059L95.704 20.8656C95.704 19.5656 95.922 18.3658 96.357 17.2758C96.829 16.1558 97.591 15.0858 98.644 14.0658H99.025C99.351 13.7058 99.823 13.3558 100.44 13.0258C101.057 12.6658 101.674 12.3757 102.291 12.1557C103.126 12.0157 103.942 11.9457 104.741 11.9457C105.539 11.9457 106.356 12.0357 107.19 12.2157C107.844 12.4357 108.406 12.6657 108.878 12.9257C109.35 13.1757 109.894 13.5558 110.511 14.0658H110.892C111.945 15.0058 112.707 15.9858 113.179 17.0058C113.687 18.0258 113.941 19.1256 113.941 20.3256V36.6059C113.941 37.0759 113.995 37.4758 114.104 37.7958C114.249 38.1258 114.522 38.3658 114.921 38.5058C115.066 38.5758 115.211 38.6357 115.356 38.6757C115.538 38.7057 115.719 38.7458 115.901 38.7758C116.409 38.8558 116.79 38.9456 117.044 39.0556C117.298 39.1656 117.425 39.3456 117.425 39.5956C117.425 39.8856 117.352 40.0659 117.207 40.1459C117.098 40.2159 116.844 40.2656 116.445 40.3056H107.844C107.517 40.2656 107.281 40.2159 107.136 40.1459C106.991 40.0359 106.918 39.8657 106.918 39.6557C106.918 39.3957 107.045 39.2159 107.299 39.1059C107.553 38.9659 107.934 38.8558 108.443 38.7758C108.842 38.7058 109.205 38.5456 109.531 38.2856C109.858 37.9956 110.003 37.4359 109.967 36.6059V18.9657C109.967 17.5457 109.658 16.4758 109.041 15.7558C108.461 14.9858 107.699 14.4258 106.755 14.0658H106.592C105.902 13.8858 105.267 13.7958 104.686 13.7958C104.142 13.7958 103.543 13.8858 102.89 14.0658H102.563C101.801 14.4958 101.13 15.0956 100.549 15.8656C99.968 16.6256 99.678 17.6357 99.678 18.9057V36.6059ZM10.289 37.6957C10.289 36.8157 10.561 36.0755 11.106 35.4555C11.759 34.8755 12.503 34.5859 13.338 34.5859C14.172 34.5559 14.916 34.8056 15.57 35.3456C16.15 36.0056 16.441 36.7459 16.441 37.5859C16.477 38.4159 16.205 39.1658 15.624 39.8158C14.971 40.3558 14.227 40.6357 13.392 40.6357C12.557 40.6657 11.813 40.4357 11.16 39.9257C10.616 39.2657 10.325 38.5257 10.289 37.6957Z" fill="black"/>
</svg>
