<svg width="136" height="41" viewBox="0 0 136 41" fill="none" xmlns="http://www.w3.org/2000/svg">
<path fill-rule="evenodd" clip-rule="evenodd" d="M4.355 14.6059L4.028 16.9457C2.758 16.4457 1.76 15.6255 1.034 14.4955C0.345 13.3355 0 12.066 0 10.686C0.073 9.23595 0.472 8.02582 1.198 7.04582C1.96 6.02582 3.012 5.13589 4.355 4.37589V4.04582L6.642 2.63566C7.077 2.34566 7.458 2.08564 7.785 1.86564C8.148 1.61564 8.456 1.4356 8.71 1.3256V0.995523C9.291 0.785523 9.835 0.745913 10.343 0.895913C10.888 1.03591 11.305 1.34584 11.596 1.81584C11.85 2.39584 11.868 2.92591 11.65 3.39591C11.469 3.82591 11.069 4.22562 10.452 4.59562L8.71 5.29582V5.62589C8.021 5.91589 7.222 6.27574 6.315 6.71574C5.408 7.11574 4.754 7.40585 4.355 7.58585V7.69572C3.738 8.16572 3.194 8.6958 2.722 9.2758C2.286 9.8558 2.069 10.5855 2.069 11.4555C2.069 12.3555 2.286 13.0859 2.722 13.6259C3.194 14.1759 3.738 14.4959 4.355 14.6059ZM4.355 14.6059C5.226 14.7159 6.224 14.5556 7.349 14.1156C8.511 13.6456 9.908 12.9957 11.541 12.1557L13.065 11.3959L13.12 16.0756C11.342 16.8456 9.745 17.3459 8.329 17.6059C6.95 17.8559 5.625 17.7659 4.355 17.3359V14.6059ZM21.776 22.7758C21.485 22.9558 21.177 23.1358 20.85 23.3158C20.56 23.4658 20.251 23.6256 19.925 23.8056C17.929 24.8956 16.404 25.8259 15.352 26.5859C14.336 27.3159 13.828 28.1058 13.828 28.9858V30.9955C13.755 31.2455 13.592 31.4356 13.338 31.5356C13.12 31.6456 12.902 31.6456 12.684 31.5356C12.467 31.3956 12.321 31.1957 12.249 30.9457V28.8158C12.249 27.5158 12.521 26.4557 13.065 25.6557C13.61 24.8257 14.318 23.9759 15.189 23.1059L15.515 22.7758H15.842C16.277 22.3758 16.804 21.9756 17.421 21.5756C18.074 21.1756 18.745 20.7759 19.435 20.3759C19.907 20.0559 20.415 19.7455 20.959 19.4555C21.503 19.1655 22.066 18.8159 22.647 18.4159H22.973C23.808 17.6959 24.461 17.0455 24.933 16.4555C25.405 15.8455 25.641 15.0458 25.641 14.0658H26.131V13.7358H25.75C25.713 13.0858 25.423 12.5557 24.879 12.1557C24.371 11.7257 23.754 11.5058 23.028 11.5058C22.266 11.5058 21.395 11.6856 20.415 12.0556C19.471 12.4156 18.473 12.8459 17.421 13.3559V13.7358L13.12 15.6957L13.065 11.0756C13.428 10.8856 14.027 10.6356 14.862 10.3056C15.733 9.98558 16.586 9.67566 17.421 9.38566V9.00578C18.8 8.56578 20.27 8.36568 21.83 8.40568C23.391 8.43568 24.824 9.1458 26.131 10.5258V11.1757L26.457 10.8559C26.784 11.2559 27.074 11.7559 27.328 12.3759C27.582 12.9559 27.782 13.5158 27.927 14.0658H27.601C27.746 14.7958 27.8 15.5358 27.764 16.2958C27.728 17.0258 27.564 17.7259 27.274 18.4159H26.947C26.621 19.2559 26.022 20.0355 25.151 20.7655C24.28 21.4455 23.264 22.1258 22.102 22.7758H21.776ZM39.196 37.8559L38.87 40.1459C37.309 39.8159 36.057 39.4659 35.113 39.1059C34.17 38.7059 33.698 38.2157 33.698 37.6357L33.589 34.0458L33.426 28.9257C33.498 28.6357 33.625 28.4158 33.807 28.2758C34.024 28.1258 34.26 28.1057 34.514 28.2157C34.805 28.2957 35.004 28.4755 35.113 28.7655L35.331 29.6357C35.766 31.4457 36.256 33.0655 36.801 34.4755C37.382 35.8555 38.18 36.9859 39.196 37.8559ZM39.196 3.1757V1.2758C40.829 0.695796 42.444 0.435777 44.041 0.505777C45.638 0.585777 46.926 0.745523 47.906 0.995523V1.3256C48.669 1.6156 49.286 1.88591 49.757 2.14591C50.229 2.39591 50.538 2.7457 50.683 3.1757C50.683 4.4457 50.701 5.84564 50.737 7.36564C50.81 8.89564 50.846 10.3259 50.846 11.6659C50.81 11.9559 50.665 12.1756 50.411 12.3256C50.193 12.4356 49.957 12.4459 49.703 12.3759C49.449 12.2659 49.249 12.0658 49.104 11.7758C48.85 10.7258 48.632 9.87574 48.451 9.21574C48.269 8.56574 48.088 7.9657 47.906 7.4257V7.09562C47.253 5.42562 46.418 4.21572 45.402 3.44572C44.422 2.68572 43.388 2.30558 42.299 2.30558C41.21 2.30558 40.176 2.5957 39.196 3.1757ZM48.124 35.8359C49.031 33.2959 49.068 30.9057 48.233 28.6557C47.398 26.4057 46.146 24.4458 44.477 22.7758H44.15C43.751 22.3758 43.315 21.9957 42.844 21.6357C42.408 21.2357 41.936 20.836 41.428 20.436C41.065 20.146 40.666 19.8358 40.23 19.5058C39.831 19.1458 39.432 18.7859 39.033 18.4159H38.706C37.763 17.5459 37 16.7656 36.42 16.0756C35.875 15.3856 35.44 14.7158 35.113 14.0658H34.786C34.351 13.4158 33.988 12.286 33.698 10.686C33.407 9.09595 33.607 7.45556 34.297 5.78556C34.986 4.08556 36.51 2.68562 38.87 1.59562L39.196 3.1757C38.253 4.0157 37.636 5.06585 37.345 6.33585C37.091 7.56585 37.182 8.87578 37.617 10.2558C38.053 11.6358 38.888 12.9058 40.122 14.0658H40.448C40.993 14.6458 41.7 15.3357 42.571 16.1357C43.442 16.9357 44.313 17.6959 45.184 18.4159H45.566C46.255 19.1059 46.926 19.7958 47.58 20.4858C48.233 21.1458 48.868 21.9058 49.485 22.7758H49.866C51.173 24.5858 52.007 26.6558 52.37 28.9858C52.733 31.3058 52.316 33.5859 51.118 35.8359H48.124ZM39.196 37.8559C40.14 38.4359 41.192 38.7659 42.354 38.8359C43.551 38.9059 44.658 38.686 45.674 38.186C46.727 37.676 47.543 36.8959 48.124 35.8359L50.792 36.1659C49.449 37.9859 47.743 39.2555 45.674 39.9755C43.642 40.6655 41.483 40.8458 39.196 40.5258V37.8559ZM68.865 35.8359C69.156 35.4459 69.41 34.9855 69.628 34.4755C69.845 33.9755 70.009 33.4958 70.118 33.0658L70.335 32.5155C70.517 32.2655 70.716 32.1357 70.934 32.1357C71.188 32.1057 71.388 32.1759 71.533 32.3559C71.714 32.5359 71.805 32.7758 71.805 33.0658C71.733 33.4658 71.624 33.8959 71.478 34.3759C71.37 34.8459 71.224 35.3359 71.043 35.8359H68.865ZM61.407 35.8359C61.915 36.4959 62.569 37.0159 63.367 37.4159C64.202 37.7859 65.109 37.8757 66.089 37.6957C67.069 37.4757 67.994 36.8559 68.865 35.8359L70.662 36.1659C69.791 38.1259 68.521 39.4657 66.851 40.1957C65.182 40.9257 63.44 40.9355 61.625 40.2455C59.847 39.5555 58.413 38.1959 57.324 36.1659L61.407 35.8359ZM62.932 14.0658C61.843 15.1158 60.954 16.9358 60.264 19.5058C59.611 22.0858 59.357 24.8759 59.502 27.8959C59.683 30.8659 60.318 33.5159 61.407 35.8359H56.943C55.673 32.9359 55.056 30.0359 55.092 27.1259C55.165 24.2259 55.691 21.6356 56.671 19.3456C57.687 17.0556 58.885 15.2958 60.264 14.0658H62.932ZM62.932 14.0658L60.645 13.7358C61.698 13.0458 62.696 12.5756 63.639 12.3256C64.583 12.0656 65.49 11.9457 66.361 11.9457C67.414 12.0557 68.212 12.2859 68.757 12.6459C69.301 12.9759 69.718 13.4458 70.009 14.0658H70.335C70.771 14.8958 71.025 15.8657 71.097 16.9457C71.206 18.0357 71.261 19.2158 71.261 20.4858V20.8158C71.224 21.1058 71.116 21.3257 70.934 21.4657C70.753 21.6157 70.535 21.6456 70.281 21.5756C70.027 21.4656 69.809 21.2655 69.628 20.9755C69.555 20.8655 69.482 20.7258 69.41 20.5458C69.374 20.3658 69.355 20.1657 69.355 19.9457C68.92 18.5257 68.484 17.3359 68.049 16.3559C67.65 15.3759 67.141 14.6058 66.525 14.0658H66.252C65.635 13.7058 65.037 13.5559 64.456 13.6259C63.875 13.7059 63.367 13.8458 62.932 14.0658ZM89.171 35.8359C89.498 35.3359 89.806 34.6257 90.097 33.7157C90.423 32.8057 90.659 32.046 90.804 31.436C90.913 31.176 91.077 31.0355 91.294 30.9955C91.548 30.9255 91.766 30.9757 91.948 31.1557C92.165 31.3057 92.274 31.5258 92.274 31.8158C92.202 32.3958 92.056 33.0857 91.839 33.8857C91.657 34.6457 91.458 35.2959 91.24 35.8359H89.171ZM81.005 35.8359C81.477 36.4959 82.185 37.0159 83.128 37.4159C84.108 37.7859 85.125 37.8757 86.177 37.6957C87.266 37.4757 88.264 36.8559 89.171 35.8359L90.913 36.1659C90.042 38.1659 88.699 39.5057 86.885 40.1957C85.106 40.8457 83.274 40.8159 81.386 40.0859C79.535 39.3659 78.084 38.0559 77.031 36.1659L81.005 35.8359ZM82.421 14.0658C81.223 15.0858 80.261 16.8958 79.535 19.5058C79.28 20.4158 79.081 21.3456 78.938 22.3056C78.948 22.6656 79.039 22.9757 79.209 23.2157C79.39 23.4257 79.699 23.5556 80.134 23.5956C80.642 23.6256 81.368 23.6657 82.312 23.6957H85.143C85.941 23.6957 86.54 23.6258 86.939 23.4858C87.375 23.3058 87.719 23.0658 87.974 22.7758C88.155 22.4858 88.264 22.1355 88.3 21.7455C88.336 21.3455 88.355 20.9556 88.355 20.5956V20.3759C88.355 19.0059 88.191 17.7459 87.865 16.6259C87.574 15.4659 87.121 14.6058 86.504 14.0658H86.231C85.578 13.6658 84.907 13.5056 84.217 13.5756C83.528 13.6456 82.929 13.8158 82.421 14.0658L79.59 13.7358C80.606 12.9758 81.531 12.5056 82.366 12.3256C83.201 12.1056 84.054 11.9955 84.925 11.9955C85.76 12.1055 86.576 12.3455 87.375 12.7055C88.209 13.0255 88.899 13.4858 89.443 14.0658H89.77C90.75 15.2658 91.439 16.5856 91.839 18.0356C92.238 19.4956 92.401 21.0658 92.329 22.7758C92.329 23.5358 92.256 24.1356 92.111 24.5756C91.966 25.0056 91.657 25.2659 91.185 25.3359C90.641 25.3659 89.77 25.3857 88.572 25.3857C87.411 25.3557 86.05 25.3359 84.489 25.3359H80.406C79.753 25.3359 79.318 25.5558 79.1 25.9858C78.933 26.3558 78.797 26.8156 78.692 27.3656C78.699 27.5456 78.708 27.7159 78.719 27.8959C78.9 30.9059 79.662 33.5559 81.005 35.8359H76.705C75.362 33.0459 74.672 30.1958 74.636 27.2958C74.6 24.3858 75.017 21.7755 75.888 19.4555C76.795 17.0955 77.92 15.2958 79.263 14.0658H82.421ZM132.015 35.8359C132.341 35.3359 132.65 34.6257 132.94 33.7157C133.267 32.8057 133.503 32.046 133.648 31.436C133.793 31.176 133.974 31.0355 134.192 30.9955C134.41 30.9255 134.61 30.9757 134.791 31.1557C135.009 31.3057 135.136 31.5258 135.172 31.8158C135.063 32.3958 134.9 33.0857 134.682 33.8857C134.501 34.6457 134.301 35.2959 134.083 35.8359H132.015ZM123.849 35.8359C124.321 36.4959 125.028 37.0159 125.972 37.4159C126.952 37.7859 127.968 37.8757 129.02 37.6957C130.109 37.4757 131.107 36.8559 132.015 35.8359L133.757 36.1659C132.922 38.1659 131.597 39.5057 129.783 40.1957C128.004 40.8457 126.172 40.8159 124.284 40.0859C122.397 39.3659 120.927 38.0559 119.875 36.1659L123.849 35.8359ZM125.319 14.0658C124.085 15.0858 123.105 16.8958 122.379 19.5058C122.123 20.4158 121.924 21.3456 121.781 22.3056C121.792 22.6656 121.882 22.9757 122.052 23.2157C122.27 23.4257 122.579 23.5556 122.978 23.5956C123.522 23.6256 124.266 23.6657 125.21 23.6957H127.986C128.785 23.6957 129.383 23.6258 129.783 23.4858C130.218 23.3058 130.563 23.0658 130.817 22.7758C130.998 22.4858 131.107 22.1355 131.144 21.7455C131.18 21.3455 131.198 20.9556 131.198 20.5956V20.3759C131.198 19.0059 131.035 17.7459 130.708 16.6259C130.418 15.4659 129.964 14.6058 129.347 14.0658H129.075C128.422 13.6658 127.75 13.5056 127.061 13.5756C126.371 13.6456 125.79 13.8158 125.319 14.0658L122.433 13.7358C123.45 12.9758 124.375 12.5056 125.21 12.3256C126.045 12.1056 126.897 11.9955 127.768 11.9955C128.603 12.1055 129.42 12.3455 130.218 12.7055C131.053 13.0255 131.742 13.4858 132.287 14.0658H132.613C133.593 15.2658 134.283 16.5856 134.682 18.0356C135.081 19.4956 135.245 21.0658 135.172 22.7758C135.172 23.5358 135.1 24.1356 134.954 24.5756C134.809 25.0056 134.501 25.2659 134.029 25.3359C133.484 25.3659 132.613 25.3857 131.416 25.3857C130.254 25.3557 128.893 25.3359 127.333 25.3359H123.25C122.597 25.3359 122.161 25.5558 121.943 25.9858C121.777 26.3558 121.64 26.8156 121.535 27.3656C121.542 27.5456 121.551 27.7159 121.562 27.8959C121.744 30.9059 122.506 33.5559 123.849 35.8359H119.548C118.205 33.0459 117.516 30.1958 117.479 27.2958C117.443 24.3858 117.86 21.7755 118.732 19.4555C119.639 17.0955 120.764 15.2958 122.107 14.0658H125.319ZM99.623 36.6059C99.587 37.5059 99.75 38.0956 100.113 38.3456C100.513 38.5656 101.057 38.7058 101.747 38.7758C101.819 38.8158 101.874 38.8359 101.91 38.8359H102.128C102.636 38.9459 102.98 39.0559 103.162 39.1659C103.343 39.2359 103.434 39.3957 103.434 39.6557C103.434 39.8657 103.343 40.0359 103.162 40.1459C103.017 40.2159 102.799 40.2656 102.509 40.3056H93.581C93.218 40.2656 92.964 40.2159 92.819 40.1459C92.673 40.0659 92.601 39.8856 92.601 39.5956C92.601 39.4156 92.692 39.2659 92.873 39.1659C93.091 39.0559 93.454 38.9258 93.962 38.7758C94.071 38.7458 94.198 38.7057 94.343 38.6757C94.524 38.6357 94.67 38.5958 94.778 38.5658C95.178 38.3858 95.432 38.1459 95.54 37.8559C95.649 37.5659 95.704 37.1459 95.704 36.6059L95.649 20.9257C95.649 19.6157 95.885 18.4058 96.357 17.2758C96.829 16.1558 97.573 15.0858 98.589 14.0658H98.97C99.297 13.7058 99.769 13.3558 100.386 13.0258C101.003 12.6658 101.638 12.3757 102.291 12.1557C103.089 12.0157 103.888 11.9457 104.686 11.9457C105.485 11.9457 106.301 12.0357 107.136 12.2157C107.789 12.4657 108.352 12.7255 108.824 12.9755C109.332 13.1955 109.876 13.5558 110.457 14.0658H110.838C111.89 15.0058 112.652 15.9858 113.124 17.0058C113.632 18.0258 113.886 19.1256 113.886 20.3256L113.941 36.6059C113.941 37.1159 113.995 37.5259 114.104 37.8559C114.213 38.1459 114.467 38.3858 114.866 38.5658C115.048 38.5958 115.211 38.6357 115.356 38.6757C115.538 38.7057 115.719 38.7458 115.901 38.7758C116.373 38.8558 116.735 38.9456 116.989 39.0556C117.28 39.1656 117.425 39.3456 117.425 39.5956C117.425 39.8856 117.352 40.0659 117.207 40.1459C117.098 40.2159 116.844 40.2656 116.445 40.3056H107.789C107.463 40.2656 107.227 40.2159 107.082 40.1459C106.936 40.0359 106.864 39.8657 106.864 39.6557C106.864 39.4357 106.991 39.2659 107.245 39.1659C107.499 39.0159 107.88 38.8858 108.388 38.7758C108.824 38.7058 109.187 38.5456 109.477 38.2856C109.804 38.0356 109.949 37.4759 109.912 36.6059V18.9657C109.912 17.5157 109.604 16.4257 108.987 15.6957C108.406 14.9757 107.644 14.4258 106.7 14.0658H106.537C105.848 13.8858 105.212 13.7958 104.632 13.7958C104.087 13.7558 103.489 13.8458 102.835 14.0658H102.563C101.765 14.4658 101.075 15.0456 100.494 15.8056C99.914 16.5656 99.623 17.6057 99.623 18.9057V36.6059ZM10.235 37.6957C10.235 36.8157 10.525 36.0755 11.106 35.4555C11.759 34.8755 12.503 34.5859 13.338 34.5859C14.172 34.5559 14.916 34.8056 15.57 35.3456C16.15 36.0056 16.441 36.7459 16.441 37.5859C16.441 38.4159 16.168 39.1658 15.624 39.8158C14.971 40.3558 14.227 40.6357 13.392 40.6357C12.557 40.6657 11.813 40.4156 11.16 39.8656C10.579 39.2556 10.271 38.5257 10.235 37.6957Z" fill="black"/>
</svg>
