<svg width="136" height="41" viewBox="0 0 136 41" fill="none" xmlns="http://www.w3.org/2000/svg">
<path fill-rule="evenodd" clip-rule="evenodd" d="M4.355 14.6059C5.226 14.7159 6.224 14.5556 7.349 14.1156C8.511 13.6456 9.908 12.9957 11.541 12.1557L13.065 11.3959L13.12 16.0258C11.342 16.8258 9.745 17.3459 8.329 17.6059C6.914 17.8559 5.589 17.7659 4.355 17.3359V14.6059ZM4.355 14.6059L4.083 17.0058C2.776 16.4558 1.76 15.6255 1.034 14.4955C0.345 13.3355 0 12.066 0 10.686C0.073 9.23595 0.472 8.00576 1.198 6.98576C1.96 5.97576 3.012 5.08584 4.355 4.31584V4.04582L6.642 2.63566C7.077 2.30566 7.476 2.03584 7.839 1.81584C8.202 1.56584 8.492 1.3758 8.71 1.2758V0.995523C9.291 0.745523 9.835 0.705913 10.343 0.895913C10.888 1.03591 11.305 1.34584 11.596 1.81584C11.85 2.39584 11.868 2.92591 11.65 3.39591C11.432 3.82591 11.033 4.22562 10.452 4.59562L8.71 5.29582V5.62589C8.021 5.88589 7.222 6.22593 6.315 6.66593C5.408 7.05593 4.754 7.36585 4.355 7.58585V7.69572C3.738 8.13572 3.194 8.6558 2.722 9.2758C2.25 9.8558 2.014 10.5855 2.014 11.4555C2.014 12.3555 2.25 13.0859 2.722 13.6259C3.194 14.1759 3.738 14.4959 4.355 14.6059ZM21.83 22.7758C21.54 22.9558 21.231 23.1358 20.905 23.3158C20.614 23.4658 20.306 23.6256 19.979 23.8056C17.947 24.8956 16.404 25.8259 15.352 26.5859C14.299 27.3159 13.773 28.1058 13.773 28.9858V30.9955C13.737 31.2455 13.592 31.4356 13.338 31.5356C13.12 31.6456 12.884 31.6456 12.63 31.5356C12.412 31.3956 12.285 31.1957 12.249 30.9457V28.8158C12.249 27.5458 12.521 26.4957 13.065 25.6557C13.61 24.8257 14.318 23.9759 15.189 23.1059L15.57 22.7758H15.842C16.277 22.3758 16.804 21.9756 17.421 21.5756C18.074 21.1756 18.745 20.7759 19.435 20.3759C19.907 20.0559 20.415 19.7455 20.959 19.4555C21.54 19.1655 22.12 18.8159 22.701 18.4159H22.973C23.844 17.7259 24.516 17.0755 24.988 16.4555C25.459 15.8455 25.695 15.0458 25.695 14.0658H26.131V13.7958H25.804C25.768 13.1358 25.478 12.6157 24.933 12.2157C24.425 11.7757 23.808 11.5658 23.082 11.5658C22.32 11.5658 21.449 11.7459 20.469 12.1059C19.489 12.4359 18.473 12.8659 17.421 13.4159V13.686L13.12 15.7558L13.065 11.0756C13.428 10.8856 14.027 10.6356 14.862 10.3056C15.733 9.98558 16.586 9.6556 17.421 9.3256V9.05558C18.8 8.62558 20.27 8.42548 21.83 8.45548C23.427 8.49548 24.86 9.20585 26.131 10.5859V11.1757L26.403 10.8559C26.73 11.2859 27.02 11.7959 27.274 12.3759C27.564 12.9559 27.764 13.5158 27.873 14.0658H27.601C27.782 14.7558 27.855 15.4755 27.818 16.2455C27.782 17.0055 27.601 17.7259 27.274 18.4159H27.002C26.675 19.2559 26.058 20.0355 25.151 20.7655C24.28 21.4455 23.282 22.1258 22.157 22.7758H21.83ZM39.196 3.1757V1.2758C40.829 0.695796 42.444 0.435777 44.041 0.505777C45.638 0.585777 46.926 0.745523 47.906 0.995523V1.2758C48.669 1.5658 49.286 1.85591 49.757 2.14591C50.229 2.39591 50.519 2.7457 50.628 3.1757C50.665 4.4157 50.701 5.80564 50.737 7.36564C50.81 8.89564 50.846 10.3056 50.846 11.6156C50.81 11.9456 50.665 12.1756 50.411 12.3256C50.193 12.4356 49.957 12.4459 49.703 12.3759C49.449 12.2659 49.249 12.0555 49.104 11.7255C48.85 10.6755 48.632 9.83574 48.451 9.21574C48.269 8.56574 48.088 7.94564 47.906 7.36564V7.15568C47.253 5.44568 46.418 4.21572 45.402 3.44572C44.422 2.65572 43.388 2.25578 42.299 2.25578C41.21 2.25578 40.176 2.5557 39.196 3.1757ZM48.124 35.8359C49.031 33.2959 49.068 30.9057 48.233 28.6557C47.398 26.4057 46.146 24.4458 44.477 22.7758H44.15C43.751 22.3758 43.315 21.9957 42.844 21.6357C42.408 21.2357 41.936 20.836 41.428 20.436C41.065 20.146 40.666 19.8358 40.23 19.5058C39.795 19.1458 39.378 18.7859 38.978 18.4159H38.706C37.763 17.5459 37 16.7656 36.42 16.0756C35.839 15.3856 35.404 14.7158 35.113 14.0658H34.786C34.351 13.4158 33.988 12.286 33.698 10.686C33.407 9.09595 33.607 7.44576 34.297 5.73576C34.986 4.02576 36.529 2.63582 38.924 1.54582L39.196 3.1757C38.253 3.9757 37.636 5.0058 37.345 6.2758C37.055 7.5458 37.127 8.87578 37.563 10.2558C38.035 11.6358 38.888 12.9058 40.122 14.0658H40.394C40.938 14.6458 41.664 15.3357 42.571 16.1357C43.479 16.9357 44.368 17.6959 45.239 18.4159H45.511C46.237 19.1059 46.926 19.7958 47.58 20.4858C48.233 21.1458 48.886 21.9058 49.539 22.7758H49.812C51.155 24.5558 52.007 26.6258 52.37 28.9858C52.733 31.3058 52.316 33.5859 51.118 35.8359H48.124ZM39.196 37.8559C40.14 38.4759 41.192 38.8157 42.354 38.8857C43.551 38.9657 44.658 38.7458 45.674 38.2358C46.727 37.6958 47.543 36.8959 48.124 35.8359L50.792 36.1156C49.485 37.9656 47.798 39.2555 45.729 39.9755C43.66 40.6655 41.483 40.8458 39.196 40.5258V37.8559ZM39.196 37.8559L38.924 40.1957C37.363 39.8657 36.093 39.5259 35.113 39.1659C34.17 38.7659 33.698 38.2855 33.698 37.7455L33.589 34.0956L33.426 28.9858C33.462 28.6558 33.589 28.4158 33.807 28.2758C34.024 28.1258 34.26 28.1057 34.514 28.2157C34.768 28.2957 34.968 28.4958 35.113 28.8158L35.277 29.686C35.712 31.506 36.22 33.0955 36.801 34.4755C37.382 35.8555 38.18 36.9859 39.196 37.8559ZM61.407 35.8359C61.879 36.4959 62.532 37.0159 63.367 37.4159C64.202 37.7859 65.109 37.8757 66.089 37.6957C67.069 37.4757 67.994 36.8559 68.865 35.8359L70.716 36.1156C69.809 38.1056 68.502 39.4657 66.797 40.1957C65.127 40.9257 63.403 40.9257 61.625 40.1957C59.847 39.5057 58.395 38.1456 57.27 36.1156L61.407 35.8359ZM68.865 35.8359C69.156 35.4459 69.41 34.9855 69.628 34.4755C69.845 33.9755 70.009 33.4958 70.118 33.0658L70.335 32.5756C70.517 32.2856 70.716 32.1357 70.934 32.1357C71.188 32.1057 71.388 32.1759 71.533 32.3559C71.714 32.5359 71.787 32.7758 71.751 33.0658C71.678 33.4658 71.587 33.8959 71.478 34.3759C71.37 34.8459 71.206 35.3359 70.989 35.8359H68.865ZM62.932 14.0658C61.843 15.0858 60.954 16.8755 60.264 19.4555C59.574 22.0355 59.32 24.8259 59.502 27.8359C59.683 30.8459 60.318 33.5159 61.407 35.8359H56.998C55.691 32.9359 55.056 30.0359 55.092 27.1259C55.165 24.2259 55.691 21.6356 56.671 19.3456C57.687 17.0256 58.903 15.2658 60.318 14.0658H62.932ZM62.932 14.0658L60.591 13.7958C61.643 13.1058 62.641 12.6359 63.585 12.3759C64.528 12.1259 65.454 11.9955 66.361 11.9955C67.377 12.0655 68.158 12.2859 68.702 12.6459C69.283 12.9759 69.718 13.4458 70.009 14.0658H70.281C70.716 14.8958 70.989 15.8758 71.097 17.0058C71.206 18.0958 71.261 19.2758 71.261 20.5458V20.8656C71.188 21.1256 71.061 21.3458 70.88 21.5258C70.734 21.6658 70.535 21.7057 70.281 21.6357C70.027 21.5257 69.809 21.3256 69.628 21.0356C69.555 20.8856 69.482 20.7456 69.41 20.5956C69.374 20.4156 69.337 20.1957 69.301 19.9457C68.902 18.5257 68.484 17.3359 68.049 16.3559C67.65 15.3759 67.123 14.6058 66.47 14.0658H66.252C65.635 13.7058 65.037 13.5559 64.456 13.6259C63.875 13.6659 63.367 13.8158 62.932 14.0658ZM89.117 35.8359C89.443 35.3359 89.77 34.6257 90.097 33.7157C90.423 32.8057 90.659 32.046 90.804 31.436C90.913 31.176 91.077 31.0355 91.294 30.9955C91.548 30.9255 91.766 30.9757 91.948 31.1557C92.129 31.3057 92.238 31.5258 92.274 31.8158C92.165 32.3958 92.002 33.0857 91.784 33.8857C91.603 34.6457 91.403 35.2959 91.185 35.8359H89.117ZM80.951 35.8359C81.423 36.4959 82.13 37.0159 83.074 37.4159C84.054 37.7859 85.088 37.8757 86.177 37.6957C87.266 37.4757 88.246 36.8559 89.117 35.8359L90.913 36.1156C90.078 38.1056 88.754 39.4657 86.939 40.1957C85.125 40.8857 83.274 40.8659 81.386 40.1459C79.499 39.3759 78.029 38.0356 76.977 36.1156L80.951 35.8359ZM82.421 14.0658C81.223 15.0458 80.243 16.8455 79.481 19.4555C79.225 20.3655 79.026 21.3055 78.882 22.2655C78.888 22.6455 78.978 22.9657 79.154 23.2157C79.336 23.4257 79.644 23.5556 80.08 23.5956C80.588 23.6256 81.314 23.6657 82.257 23.6957H85.088C85.923 23.6957 86.54 23.6258 86.939 23.4858C87.338 23.3058 87.683 23.0658 87.974 22.7758C88.119 22.4858 88.209 22.1558 88.246 21.7958C88.282 21.3958 88.3 20.9956 88.3 20.5956V20.3759C88.3 19.0059 88.137 17.7459 87.81 16.6259C87.52 15.4659 87.066 14.6058 86.449 14.0658H86.177C85.524 13.6658 84.852 13.5056 84.163 13.5756C83.51 13.6456 82.929 13.8158 82.421 14.0658L79.535 13.7958C80.552 13.0258 81.477 12.5559 82.312 12.3759C83.147 12.1559 83.999 12.0556 84.87 12.0556C85.705 12.1256 86.54 12.3455 87.375 12.7055C88.209 13.0255 88.899 13.4858 89.443 14.0658H89.716C90.695 15.2658 91.385 16.5856 91.784 18.0356C92.22 19.4956 92.401 21.0658 92.329 22.7758C92.329 23.5058 92.238 24.0956 92.056 24.5756C91.911 25.0056 91.603 25.2458 91.131 25.2758C90.587 25.3158 89.716 25.3359 88.518 25.3359C87.357 25.2959 85.996 25.2758 84.435 25.2758H80.352C79.699 25.2758 79.263 25.496 79.046 25.936C78.828 26.366 78.701 26.8955 78.664 27.5155C78.654 27.4455 78.644 27.3658 78.634 27.2958C78.642 27.4958 78.652 27.6959 78.664 27.8959C78.846 30.9059 79.608 33.5559 80.951 35.8359H76.65C75.307 33.0459 74.618 30.1958 74.582 27.2958C74.545 24.3858 74.981 21.7559 75.888 19.3959C76.795 17.0459 77.92 15.2658 79.263 14.0658H82.421ZM131.96 35.8359C132.287 35.3359 132.613 34.6257 132.94 33.7157C133.267 32.8057 133.503 32.046 133.648 31.436C133.757 31.176 133.92 31.0355 134.138 30.9955C134.392 30.9255 134.61 30.9757 134.791 31.1557C134.972 31.3057 135.081 31.5258 135.118 31.8158C135.009 32.3958 134.845 33.0857 134.628 33.8857C134.446 34.6457 134.247 35.2959 134.029 35.8359H131.96ZM123.794 35.8359C124.266 36.4959 124.974 37.0159 125.917 37.4159C126.897 37.7859 127.932 37.8757 129.02 37.6957C130.109 37.4757 131.089 36.8559 131.96 35.8359L133.757 36.1156C132.886 38.1056 131.543 39.4657 129.728 40.1957C127.95 40.8857 126.117 40.8659 124.23 40.1459C122.343 39.3759 120.873 38.0356 119.82 36.1156L123.794 35.8359ZM125.264 14.0658C124.067 15.0458 123.087 16.8455 122.325 19.4555C122.069 20.3655 121.869 21.3055 121.726 22.2655C121.731 22.6455 121.821 22.9657 121.998 23.2157C122.179 23.4257 122.488 23.5556 122.923 23.5956C123.431 23.6256 124.157 23.6657 125.101 23.6957H127.932C128.766 23.6957 129.383 23.6258 129.783 23.4858C130.182 23.3058 130.527 23.0658 130.817 22.7758C130.962 22.4858 131.053 22.1558 131.089 21.7958C131.125 21.3958 131.144 20.9956 131.144 20.5956V20.3759C131.144 19.0059 130.98 17.7459 130.654 16.6259C130.363 15.4659 129.91 14.6058 129.293 14.0658H129.02C128.367 13.6658 127.696 13.5056 127.006 13.5756C126.353 13.6456 125.772 13.8158 125.264 14.0658L122.379 13.7958C123.395 13.0258 124.321 12.5559 125.155 12.3759C125.99 12.1559 126.843 12.0556 127.714 12.0556C128.549 12.1256 129.383 12.3455 130.218 12.7055C131.053 13.0255 131.742 13.4858 132.287 14.0658H132.559C133.539 15.2658 134.228 16.5856 134.628 18.0356C135.063 19.4956 135.245 21.0658 135.172 22.7758C135.172 23.5058 135.081 24.0956 134.9 24.5756C134.755 25.0056 134.446 25.2458 133.974 25.2758C133.43 25.3158 132.559 25.3359 131.361 25.3359C130.2 25.2959 128.839 25.2758 127.278 25.2758H123.196C122.542 25.2758 122.107 25.496 121.889 25.936C121.694 26.316 121.558 26.7858 121.479 27.3158C121.487 27.5158 121.496 27.7059 121.508 27.8959C121.689 30.9059 122.452 33.5559 123.794 35.8359H119.494C118.151 33.0459 117.461 30.1958 117.425 27.2958C117.389 24.3858 117.824 21.7559 118.732 19.3959C119.639 17.0459 120.764 15.2658 122.107 14.0658H125.264ZM99.569 36.6059C99.533 37.5059 99.696 38.0956 100.059 38.3456C100.458 38.5956 101.021 38.7458 101.747 38.7758C101.819 38.8158 101.874 38.8359 101.91 38.8359H102.073C102.581 38.9459 102.926 39.0559 103.108 39.1659C103.325 39.2359 103.434 39.3957 103.434 39.6557C103.434 39.8657 103.343 40.0359 103.162 40.1459C103.017 40.2159 102.799 40.2656 102.509 40.3056H93.526C93.163 40.2656 92.891 40.2159 92.71 40.1459C92.565 40.0659 92.492 39.8856 92.492 39.5956C92.492 39.4156 92.583 39.2659 92.764 39.1659C92.982 39.0559 93.345 38.9258 93.853 38.7758C93.998 38.7458 94.143 38.7057 94.288 38.6757C94.47 38.6357 94.615 38.5958 94.724 38.5658C95.123 38.3858 95.377 38.1459 95.486 37.8559C95.595 37.5659 95.649 37.1459 95.649 36.6059L95.595 20.9257C95.595 19.6157 95.831 18.4058 96.303 17.2758C96.774 16.1558 97.537 15.0858 98.589 14.0658H98.916C99.242 13.7058 99.714 13.3558 100.331 13.0258C100.948 12.6658 101.583 12.3957 102.236 12.2157C103.035 12.0657 103.833 11.9955 104.632 11.9955C105.43 11.9955 106.229 12.0855 107.027 12.2655C107.717 12.4855 108.297 12.7255 108.769 12.9755C109.277 13.1955 109.84 13.5558 110.457 14.0658H110.729C111.818 15.0058 112.598 15.9858 113.07 17.0058C113.578 18.0258 113.832 19.1256 113.832 20.3256L113.886 36.6059C113.886 37.1159 113.941 37.5259 114.05 37.8559C114.195 38.1459 114.467 38.3858 114.866 38.5658C115.012 38.5958 115.175 38.6357 115.356 38.6757C115.538 38.7057 115.701 38.7458 115.846 38.7758C116.354 38.8558 116.735 38.9456 116.989 39.0556C117.28 39.1656 117.425 39.3456 117.425 39.5956C117.425 39.8856 117.352 40.0659 117.207 40.1459C117.098 40.2159 116.844 40.2656 116.445 40.3056H107.68C107.39 40.2656 107.172 40.2159 107.027 40.1459C106.882 40.0359 106.809 39.8657 106.809 39.6557C106.809 39.4357 106.936 39.2659 107.19 39.1659C107.444 39.0159 107.826 38.8858 108.334 38.7758C108.769 38.7458 109.132 38.5956 109.422 38.3456C109.749 38.0556 109.912 37.4759 109.912 36.6059V18.9657C109.912 17.5157 109.604 16.4257 108.987 15.6957C108.37 14.9757 107.59 14.4258 106.646 14.0658H106.483C105.793 13.8858 105.158 13.7958 104.577 13.7958C104.033 13.7558 103.434 13.8458 102.781 14.0658H102.563C101.728 14.4658 101.021 15.0456 100.44 15.8056C99.859 16.5656 99.569 17.6057 99.569 18.9057V36.6059ZM10.235 37.6957C10.235 36.8157 10.525 36.0755 11.106 35.4555C11.723 34.8755 12.448 34.5859 13.283 34.5859C14.154 34.5559 14.916 34.8056 15.57 35.3456C16.114 35.9656 16.386 36.7159 16.386 37.5859C16.422 38.4159 16.15 39.1658 15.57 39.8158C14.953 40.3558 14.209 40.6357 13.338 40.6357C12.503 40.6657 11.777 40.4156 11.16 39.8656C10.579 39.2556 10.271 38.5257 10.235 37.6957Z" fill="black"/>
</svg>
