<svg width="136" height="41" viewBox="0 0 136 41" fill="none" xmlns="http://www.w3.org/2000/svg">
<path fill-rule="evenodd" clip-rule="evenodd" d="M4.355 14.6059C5.19 14.7159 6.188 14.5556 7.349 14.1156C8.511 13.6456 9.908 12.9759 11.541 12.1059L13.065 11.3456L13.12 16.0258C11.342 16.7858 9.745 17.3159 8.329 17.6059C6.914 17.8559 5.589 17.7458 4.355 17.2758V14.6059ZM4.355 14.6059L4.083 17.0556C2.813 16.5156 1.815 15.6655 1.089 14.4955C0.363 13.3355 0 12.066 0 10.686C0.073 9.20595 0.472 7.94595 1.198 6.93595C1.96 5.91595 3.012 5.02554 4.355 4.26554V4.04582L6.642 2.5756C7.077 2.2856 7.476 2.01554 7.839 1.76554C8.202 1.50554 8.492 1.3458 8.71 1.2758V0.995523C9.291 0.745523 9.835 0.705913 10.343 0.895913C10.888 1.03591 11.305 1.34584 11.596 1.81584C11.813 2.39584 11.813 2.92591 11.596 3.39591C11.414 3.82591 11.015 4.22562 10.398 4.59562L8.71 5.29582V5.5756C8.057 5.8256 7.259 6.17587 6.315 6.60587C5.408 7.04587 4.754 7.35556 4.355 7.53556V7.64591C3.738 8.11591 3.194 8.63574 2.722 9.21574C2.25 9.79574 2.014 10.5259 2.014 11.3959C2.014 12.3459 2.25 13.0859 2.722 13.6259C3.194 14.1759 3.738 14.4959 4.355 14.6059ZM21.885 22.7758C21.558 22.9558 21.249 23.1358 20.959 23.3158C20.669 23.4658 20.342 23.6256 19.979 23.8056C17.947 24.8956 16.386 25.8259 15.297 26.5859C14.245 27.3459 13.719 28.1656 13.719 29.0356V30.9955C13.682 31.2455 13.555 31.4356 13.338 31.5356C13.12 31.6456 12.884 31.6456 12.63 31.5356C12.412 31.3956 12.285 31.1957 12.249 30.9457V28.8158C12.249 27.5458 12.521 26.4957 13.065 25.6557C13.61 24.8257 14.336 23.9759 15.243 23.1059L15.57 22.7758H15.842C16.277 22.3758 16.804 21.9756 17.421 21.5756C18.074 21.1756 18.763 20.7759 19.489 20.3759C19.961 20.0859 20.469 19.7958 21.014 19.5058C21.594 19.1858 22.175 18.8159 22.756 18.4159H23.028C23.862 17.7259 24.516 17.0755 24.988 16.4555C25.496 15.8455 25.75 15.0458 25.75 14.0658H26.131V13.7958H25.804C25.768 13.1358 25.478 12.6157 24.933 12.2157C24.425 11.7757 23.808 11.5658 23.082 11.5658C22.32 11.5658 21.449 11.7459 20.469 12.1059C19.489 12.4659 18.473 12.9257 17.421 13.4657V13.686L13.12 15.7558L13.065 11.0756C13.428 10.9256 14.027 10.6856 14.862 10.3656C15.733 9.99564 16.586 9.6556 17.421 9.3256V9.11564C18.8 8.67564 20.27 8.47554 21.83 8.51554C23.427 8.51554 24.86 9.21566 26.131 10.6357V11.1757L26.403 10.9057C26.693 11.3057 26.965 11.7959 27.22 12.3759C27.51 12.9559 27.728 13.5158 27.873 14.0658H27.601C27.782 14.7558 27.855 15.4755 27.818 16.2455C27.782 17.0055 27.619 17.7259 27.328 18.4159H27.056C26.73 19.2559 26.113 20.0355 25.205 20.7655C24.334 21.4455 23.318 22.1258 22.157 22.7758H21.885ZM39.196 37.9057L38.924 40.2455C37.363 39.9255 36.093 39.5757 35.113 39.2157C34.133 38.8557 33.643 38.3858 33.643 37.7958L33.534 34.1557L33.426 28.9858C33.462 28.6558 33.571 28.4158 33.752 28.2758C33.97 28.1258 34.206 28.1057 34.46 28.2157C34.75 28.3257 34.95 28.5258 35.059 28.8158L35.222 29.686C35.694 31.506 36.22 33.1156 36.801 34.5356C37.382 35.9156 38.18 37.0357 39.196 37.9057ZM39.196 3.1757V1.2758C40.829 0.695796 42.444 0.435777 44.041 0.505777C45.638 0.545777 46.926 0.705523 47.906 0.995523V1.2758C48.669 1.5258 49.286 1.79585 49.757 2.08585C50.229 2.34585 50.519 2.7057 50.628 3.1757C50.665 4.4157 50.701 5.80564 50.737 7.36564C50.81 8.89564 50.846 10.3056 50.846 11.6156C50.774 11.9056 50.628 12.1255 50.411 12.2655C50.193 12.4155 49.957 12.4356 49.703 12.3256C49.449 12.2156 49.267 12.0155 49.158 11.7255C48.868 10.6755 48.632 9.81593 48.451 9.16593C48.269 8.51593 48.088 7.91564 47.906 7.36564V7.15568C47.289 5.44568 46.473 4.21572 45.457 3.44572C44.477 2.65572 43.424 2.25578 42.299 2.25578C41.21 2.25578 40.176 2.5557 39.196 3.1757ZM48.124 35.8359C49.031 33.2959 49.068 30.9057 48.233 28.6557C47.398 26.3657 46.128 24.4058 44.422 22.7758H44.15C43.751 22.3758 43.315 21.9957 42.844 21.6357C42.408 21.2357 41.918 20.836 41.374 20.436C41.011 20.146 40.612 19.8358 40.176 19.5058C39.777 19.1458 39.359 18.7859 38.924 18.4159H38.706C37.726 17.5459 36.946 16.7656 36.365 16.0756C35.785 15.3856 35.349 14.7158 35.059 14.0658H34.786C34.351 13.4458 33.988 12.3455 33.698 10.7455C33.407 9.11552 33.607 7.44576 34.297 5.73576C34.986 3.99576 36.529 2.57576 38.924 1.48576L39.196 3.1757C38.253 3.9757 37.636 5.0058 37.345 6.2758C37.055 7.5458 37.127 8.87578 37.563 10.2558C38.035 11.6358 38.888 12.9058 40.122 14.0658H40.394C40.938 14.6458 41.664 15.356 42.571 16.186C43.479 16.986 44.368 17.7259 45.239 18.4159H45.511C46.237 19.0759 46.926 19.746 47.58 20.436C48.233 21.126 48.886 21.9058 49.539 22.7758H49.812C51.155 24.5558 52.007 26.6258 52.37 28.9858C52.733 31.3358 52.298 33.6259 51.064 35.8359H48.124ZM39.196 37.9057C40.14 38.5257 41.192 38.8757 42.354 38.9457C43.551 38.9757 44.658 38.7458 45.674 38.2358C46.727 37.6958 47.543 36.8959 48.124 35.8359L50.846 36.1156C49.539 37.9656 47.834 39.2555 45.729 39.9755C43.66 40.6655 41.483 40.8458 39.196 40.5258V37.9057ZM68.865 35.8359C69.119 35.4459 69.355 34.9855 69.573 34.4755C69.827 33.9755 70.009 33.4958 70.118 33.0658L70.335 32.5756C70.517 32.2856 70.716 32.1357 70.934 32.1357C71.188 32.1057 71.388 32.1959 71.533 32.4159C71.678 32.5959 71.751 32.8058 71.751 33.0658C71.678 33.4658 71.569 33.8959 71.424 34.3759C71.315 34.8459 71.152 35.3359 70.934 35.8359H68.865ZM61.407 35.8359C61.879 36.4959 62.532 37.0159 63.367 37.4159C64.202 37.8159 65.109 37.9057 66.089 37.6957C67.069 37.4757 67.994 36.8559 68.865 35.8359L70.716 36.1156C69.845 38.0756 68.557 39.4357 66.851 40.1957C65.145 40.9557 63.385 40.9755 61.571 40.2455C59.792 39.5255 58.341 38.1456 57.215 36.1156L61.407 35.8359ZM62.986 14.0658C61.861 15.0458 60.954 16.8455 60.264 19.4555C59.574 22.0355 59.302 24.8459 59.447 27.8959C59.629 30.9059 60.282 33.5559 61.407 35.8359H56.998C55.691 32.9759 55.056 30.086 55.092 27.186C55.165 24.246 55.691 21.6158 56.671 19.2958C57.687 16.9658 58.921 15.2258 60.373 14.0658H62.986ZM62.986 14.0658L60.591 13.7958C61.643 13.1358 62.641 12.686 63.585 12.436C64.528 12.146 65.436 11.9955 66.307 11.9955C67.359 12.0655 68.158 12.2859 68.702 12.6459C69.283 12.9759 69.718 13.4458 70.009 14.0658H70.226C70.698 14.8958 70.97 15.8758 71.043 17.0058C71.152 18.0958 71.206 19.2758 71.206 20.5458V20.8656C71.17 21.1556 71.061 21.3758 70.88 21.5258C70.698 21.6658 70.48 21.7057 70.226 21.6357C70.009 21.5557 69.809 21.3556 69.628 21.0356C69.555 20.9256 69.482 20.7756 69.41 20.5956C69.374 20.4156 69.337 20.1957 69.301 19.9457C68.902 18.5257 68.484 17.3359 68.049 16.3559C67.65 15.3359 67.123 14.5758 66.47 14.0658H66.252C65.635 13.7058 65.037 13.5559 64.456 13.6259C63.875 13.6659 63.385 13.8158 62.986 14.0658ZM89.117 35.8359C89.443 35.3359 89.77 34.6257 90.097 33.7157C90.423 32.8057 90.659 32.046 90.804 31.436C90.913 31.176 91.077 31.0355 91.294 30.9955C91.512 30.9255 91.712 30.9757 91.893 31.1557C92.111 31.3057 92.22 31.5258 92.22 31.8158C92.111 32.3958 91.948 33.0857 91.73 33.8857C91.548 34.6457 91.349 35.2959 91.131 35.8359H89.117ZM80.951 35.8359C81.423 36.4959 82.13 37.0159 83.074 37.4159C84.054 37.8159 85.088 37.9057 86.177 37.6957C87.266 37.4757 88.246 36.8559 89.117 35.8359L90.913 36.1156C90.078 38.1056 88.736 39.4657 86.885 40.1957C85.07 40.8857 83.201 40.8459 81.278 40.0859C79.39 39.3259 77.939 37.9956 76.922 36.1156L80.951 35.8359ZM82.421 14.0658C81.187 15.0458 80.189 16.8455 79.427 19.4555C79.171 20.3655 78.971 21.3055 78.828 22.2655C78.833 22.6455 78.924 22.9657 79.1 23.2157C79.318 23.4257 79.626 23.5556 80.025 23.5956C80.534 23.6256 81.259 23.6657 82.203 23.6957H85.034C85.869 23.6957 86.486 23.6258 86.885 23.4858C87.284 23.3058 87.629 23.0658 87.919 22.7758C88.101 22.4858 88.209 22.1558 88.246 21.7958C88.282 21.3958 88.3 20.9956 88.3 20.5956V20.3759C88.3 19.0059 88.137 17.7459 87.81 16.6259C87.52 15.4659 87.048 14.6058 86.395 14.0658H86.177C85.524 13.6658 84.852 13.5056 84.163 13.5756C83.51 13.6156 82.929 13.7758 82.421 14.0658L79.535 13.7958C80.515 13.0658 81.423 12.5959 82.257 12.3759C83.092 12.1559 83.945 12.0556 84.816 12.0556C85.651 12.1256 86.486 12.3455 87.32 12.7055C88.155 13.0255 88.845 13.4858 89.389 14.0658H89.661C90.641 15.2258 91.331 16.5556 91.73 18.0356C92.165 19.4956 92.347 21.0658 92.274 22.7758C92.274 23.5058 92.202 24.0956 92.056 24.5756C91.911 25.0056 91.585 25.2458 91.077 25.2758C90.532 25.3158 89.661 25.3359 88.463 25.3359C87.302 25.2959 85.941 25.2758 84.381 25.2758H80.243C79.59 25.2758 79.154 25.496 78.937 25.936C78.755 26.366 78.646 26.9158 78.61 27.5658C78.601 27.5058 78.592 27.4356 78.583 27.3656C78.591 27.5456 78.599 27.7159 78.61 27.8959C78.791 30.9459 79.572 33.5859 80.951 35.8359H76.65C75.271 33.0859 74.563 30.2358 74.527 27.2958C74.491 24.3558 74.926 21.7056 75.834 19.3456C76.741 16.9856 77.884 15.2258 79.263 14.0658H82.421ZM131.906 35.8359C132.269 35.3359 132.613 34.6257 132.94 33.7157C133.267 32.8057 133.503 32.046 133.648 31.436C133.757 31.176 133.92 31.0355 134.138 30.9955C134.356 30.9255 134.555 30.9757 134.737 31.1557C134.954 31.3057 135.063 31.5258 135.063 31.8158C134.954 32.3958 134.791 33.0857 134.573 33.8857C134.392 34.6457 134.192 35.2959 133.974 35.8359H131.906ZM123.794 35.8359C124.266 36.4959 124.974 37.0159 125.917 37.4159C126.897 37.8159 127.932 37.9057 129.02 37.6957C130.109 37.4757 131.071 36.8559 131.906 35.8359L133.702 36.1156C132.868 38.1056 131.543 39.4657 129.728 40.1957C127.914 40.8857 126.045 40.8459 124.121 40.0859C122.234 39.3259 120.764 37.9956 119.711 36.1156L123.794 35.8359ZM125.264 14.0658C124.03 15.0458 123.032 16.8455 122.27 19.4555C122.014 20.3655 121.814 21.3058 121.671 22.2758C121.677 22.6458 121.768 22.9657 121.943 23.2157C122.125 23.4257 122.433 23.5556 122.869 23.5956C123.377 23.6256 124.103 23.6657 125.046 23.6957H127.877C128.712 23.6957 129.329 23.6258 129.728 23.4858C130.127 23.3058 130.472 23.0658 130.763 22.7758C130.944 22.4858 131.035 22.1558 131.035 21.7958C131.071 21.3958 131.089 20.9956 131.089 20.5956V20.3759C131.089 19.0059 130.926 17.7459 130.599 16.6259C130.309 15.4659 129.855 14.6058 129.238 14.0658H129.02C128.367 13.6658 127.696 13.5056 127.006 13.5756C126.317 13.6156 125.736 13.7758 125.264 14.0658L122.325 13.7958C123.341 13.0658 124.266 12.5959 125.101 12.3759C125.936 12.1559 126.77 12.0556 127.605 12.0556C128.476 12.1256 129.329 12.3455 130.164 12.7055C130.998 13.0255 131.688 13.4858 132.232 14.0658H132.505C133.484 15.2258 134.174 16.5556 134.573 18.0356C135.009 19.4956 135.19 21.0658 135.118 22.7758C135.118 23.5058 135.027 24.0956 134.845 24.5756C134.7 25.0056 134.392 25.2458 133.92 25.2758C133.376 25.3158 132.505 25.3359 131.307 25.3359C130.146 25.2959 128.785 25.2758 127.224 25.2758H123.087C122.433 25.2758 121.998 25.496 121.78 25.936C121.599 26.366 121.49 26.9158 121.453 27.5658C121.444 27.4958 121.435 27.4356 121.426 27.3656C121.434 27.5456 121.443 27.7159 121.453 27.8959C121.635 30.9459 122.415 33.5859 123.794 35.8359H119.494C118.115 33.0859 117.407 30.2358 117.371 27.2958C117.334 24.3558 117.77 21.7056 118.677 19.3456C119.584 16.9856 120.728 15.2258 122.107 14.0658H125.264ZM99.515 36.6059C99.478 37.5059 99.642 38.0956 100.004 38.3456C100.404 38.5956 100.966 38.7458 101.692 38.7758C101.765 38.8158 101.819 38.8359 101.855 38.8359C101.928 38.8359 102.001 38.8557 102.073 38.8857C102.581 38.9657 102.926 39.0559 103.108 39.1659C103.289 39.2359 103.38 39.3957 103.38 39.6557C103.38 39.8657 103.307 40.0359 103.162 40.1459C103.017 40.2159 102.781 40.2656 102.454 40.3056H93.472C93.073 40.2656 92.8 40.2159 92.655 40.1459C92.51 40.0659 92.438 39.8856 92.438 39.5956C92.438 39.4156 92.528 39.2659 92.71 39.1659C92.927 39.0559 93.29 38.9258 93.798 38.7758C93.944 38.7458 94.089 38.7057 94.234 38.6757C94.379 38.6357 94.524 38.5958 94.67 38.5658C95.105 38.3858 95.359 38.1459 95.432 37.8559C95.54 37.5659 95.595 37.1459 95.595 36.6059L95.54 20.9257C95.54 19.6157 95.776 18.4058 96.248 17.2758C96.756 16.1558 97.537 15.0858 98.589 14.0658H98.807C99.17 13.7058 99.66 13.3558 100.277 13.0258C100.93 12.6658 101.583 12.3957 102.236 12.2157C103.035 12.0657 103.815 11.9955 104.577 11.9955C105.376 11.9955 106.174 12.0855 106.973 12.2655C107.662 12.4855 108.243 12.7255 108.715 12.9755C109.223 13.1955 109.785 13.5558 110.402 14.0658H110.675C111.763 15.0058 112.544 15.9858 113.015 17.0058C113.524 18.0258 113.778 19.1459 113.778 20.3759L113.832 36.6059C113.832 37.1159 113.886 37.5259 113.995 37.8559C114.14 38.1459 114.413 38.3858 114.812 38.5658C114.993 38.5958 115.157 38.6357 115.302 38.6757C115.483 38.7057 115.665 38.7458 115.846 38.7758C116.354 38.8558 116.735 38.9456 116.989 39.0556C117.28 39.1656 117.425 39.3456 117.425 39.5956C117.425 39.8856 117.352 40.0659 117.207 40.1459C117.098 40.2159 116.826 40.2656 116.391 40.3056H107.626C107.336 40.2656 107.1 40.2159 106.918 40.1459C106.773 40.0359 106.7 39.8657 106.7 39.6557C106.7 39.4357 106.828 39.2659 107.082 39.1659C107.372 39.0159 107.771 38.9059 108.279 38.8359C108.715 38.7659 109.096 38.5956 109.422 38.3456C109.749 38.0556 109.894 37.4759 109.858 36.6059V18.9657C109.858 17.5157 109.549 16.4257 108.932 15.6957C108.316 14.9757 107.535 14.4258 106.592 14.0658H106.428C105.739 13.8858 105.104 13.7958 104.523 13.7958C103.979 13.7558 103.38 13.8458 102.726 14.0658H102.509C101.71 14.4658 101.003 15.0456 100.386 15.8056C99.805 16.5656 99.515 17.6057 99.515 18.9057V36.6059ZM10.18 37.6957C10.18 36.8157 10.47 36.0557 11.051 35.4057C11.704 34.8257 12.448 34.5356 13.283 34.5356C14.154 34.5356 14.898 34.8056 15.515 35.3456C16.096 35.9656 16.386 36.7159 16.386 37.5859C16.422 38.4159 16.15 39.1458 15.57 39.7558C14.953 40.3458 14.209 40.6357 13.338 40.6357C12.503 40.6657 11.759 40.4156 11.106 39.8656C10.525 39.2556 10.216 38.5257 10.18 37.6957Z" fill="black"/>
</svg>
