<svg width="136" height="41" viewBox="0 0 136 41" fill="none" xmlns="http://www.w3.org/2000/svg">
<path fill-rule="evenodd" clip-rule="evenodd" d="M4.355 14.6059L4.137 17.0556C2.831 16.5556 1.815 15.7156 1.089 14.5556C0.363 13.3956 0 12.106 0 10.686C0.036 9.20595 0.436 7.94595 1.198 6.93595C1.96 5.88595 3.012 4.97574 4.355 4.21574V3.99552L6.642 2.5756C7.077 2.2556 7.476 1.97554 7.839 1.76554C8.202 1.50554 8.492 1.32574 8.71 1.21574V0.995523C9.291 0.745523 9.835 0.705913 10.343 0.895913C10.852 1.03591 11.251 1.34584 11.541 1.81584C11.795 2.39584 11.813 2.92591 11.596 3.39591C11.414 3.82591 11.015 4.22562 10.398 4.59562L8.71 5.29582V5.51554C8.057 5.80554 7.259 6.17587 6.315 6.60587C5.408 7.00587 4.754 7.31556 4.355 7.53556V7.58585C3.738 8.05585 3.176 8.60574 2.668 9.21574C2.196 9.79574 1.96 10.5259 1.96 11.3959C1.96 12.3459 2.196 13.0859 2.668 13.6259C3.176 14.1759 3.738 14.4959 4.355 14.6059ZM4.355 14.6059C5.19 14.7159 6.188 14.5556 7.349 14.1156C8.511 13.6456 9.908 12.9759 11.541 12.1059L13.065 11.3456L13.12 15.9657C11.342 16.7657 9.745 17.2958 8.329 17.5458C6.914 17.8058 5.589 17.7158 4.355 17.2758V14.6059ZM21.939 22.7758L20.959 23.3158C20.669 23.4658 20.36 23.6256 20.034 23.8056C17.929 24.8956 16.332 25.8259 15.243 26.5859C14.19 27.3459 13.664 28.1656 13.664 29.0356V30.9457C13.664 31.2357 13.537 31.4356 13.283 31.5356C13.065 31.6456 12.848 31.6456 12.63 31.5356C12.412 31.3956 12.285 31.1957 12.249 30.9457V28.8158C12.249 27.5458 12.521 26.4957 13.065 25.6557C13.61 24.7857 14.336 23.9359 15.243 23.1059L15.624 22.7758H15.787C16.259 22.3758 16.804 21.9756 17.421 21.5756C18.074 21.1756 18.763 20.7759 19.489 20.3759C19.961 20.0859 20.487 19.7958 21.068 19.5058C21.649 19.1858 22.229 18.8159 22.81 18.4159H23.028C23.899 17.7259 24.57 17.0755 25.042 16.4555C25.514 15.8455 25.75 15.0458 25.75 14.0658H26.131V13.8456H25.859C25.822 13.1956 25.532 12.6457 24.988 12.2157C24.479 11.7757 23.862 11.5658 23.137 11.5658C22.374 11.5658 21.503 11.7459 20.523 12.1059C19.544 12.4659 18.509 12.9257 17.421 13.4657V13.686L13.12 15.7558L13.065 11.1259C13.428 10.9459 14.027 10.6856 14.862 10.3656C15.733 9.99564 16.586 9.6556 17.421 9.3256V9.11564C18.8 8.67564 20.27 8.47554 21.83 8.51554C23.427 8.54554 24.86 9.27595 26.131 10.686V11.2358L26.349 10.9057C26.639 11.3057 26.929 11.7959 27.22 12.3759C27.51 12.9559 27.709 13.5158 27.818 14.0658H27.655C27.8 14.7558 27.855 15.4958 27.818 16.2958C27.782 17.0558 27.619 17.7659 27.328 18.4159H27.111C26.784 19.2559 26.167 20.0355 25.26 20.7655C24.352 21.4855 23.318 22.1558 22.157 22.7758H21.939ZM39.196 37.9057L38.978 40.3056C37.382 39.9756 36.093 39.6355 35.113 39.2655C34.133 38.9055 33.643 38.4359 33.643 37.8559L33.534 34.2055L33.371 28.9858C33.407 28.6958 33.534 28.4756 33.752 28.3256C33.97 28.1456 34.206 28.1057 34.46 28.2157C34.714 28.3257 34.895 28.5258 35.004 28.8158L35.222 29.686C35.658 31.506 36.166 33.1156 36.746 34.5356C37.327 35.9456 38.144 37.0757 39.196 37.9057ZM39.196 3.12589V1.2758C40.793 0.695796 42.408 0.435777 44.041 0.505777C45.674 0.545777 46.963 0.705523 47.906 0.995523V1.21574C48.669 1.47574 49.286 1.74556 49.757 2.03556C50.229 2.32556 50.519 2.68589 50.628 3.12589C50.628 4.35589 50.646 5.75584 50.683 7.31583C50.755 8.83583 50.792 10.2558 50.792 11.5658C50.755 11.8858 50.628 12.1255 50.411 12.2655C50.193 12.3755 49.957 12.3956 49.703 12.3256C49.449 12.2156 49.267 11.9959 49.158 11.6659C48.868 10.6159 48.632 9.78593 48.451 9.16593C48.269 8.51593 48.088 7.91564 47.906 7.36564V7.15568C47.289 5.44568 46.473 4.19591 45.457 3.39591C44.477 2.59591 43.424 2.19572 42.299 2.19572C41.21 2.19572 40.176 2.50589 39.196 3.12589ZM48.124 35.8359C49.068 33.3359 49.104 30.9457 48.233 28.6557C47.398 26.3657 46.11 24.4058 44.368 22.7758H44.15C43.751 22.3758 43.315 21.9957 42.844 21.6357C42.372 21.2357 41.882 20.836 41.374 20.436C41.011 20.146 40.612 19.8358 40.176 19.5058C39.741 19.1458 39.305 18.7859 38.87 18.4159H38.652C37.708 17.5459 36.928 16.7656 36.311 16.0756C35.73 15.3556 35.295 14.6858 35.004 14.0658H34.786C34.351 13.4458 33.97 12.326 33.643 10.686C33.353 9.05595 33.571 7.38595 34.297 5.68595C35.022 3.93595 36.583 2.54576 38.978 1.48576L39.196 3.12589C38.216 3.92589 37.581 4.9555 37.291 6.2255C37 7.4955 37.091 8.83578 37.563 10.2558C38.035 11.6658 38.888 12.9358 40.122 14.0658H40.339C40.884 14.6458 41.61 15.356 42.517 16.186C43.461 16.986 44.368 17.7259 45.239 18.4159H45.457C46.182 19.0759 46.872 19.746 47.525 20.436C48.215 21.126 48.886 21.9058 49.539 22.7758H49.757C51.1 24.5558 51.953 26.6258 52.316 28.9858C52.715 31.3358 52.298 33.6259 51.064 35.8359H48.124ZM39.196 37.9057C40.14 38.5257 41.192 38.8757 42.354 38.9457C43.551 39.0157 44.676 38.7956 45.729 38.2856C46.781 37.7456 47.58 36.9259 48.124 35.8359L50.846 36.0556C49.539 37.9056 47.852 39.1957 45.783 39.9257C43.715 40.6457 41.519 40.8458 39.196 40.5258V37.9057ZM62.986 14.0658C61.861 15.0458 60.954 16.8455 60.264 19.4555C59.574 22.0355 59.302 24.8459 59.447 27.8959C59.629 30.9059 60.3 33.5559 61.462 35.8359H56.998C55.655 32.9759 55.002 30.0659 55.038 27.1259C55.11 24.1859 55.655 21.5558 56.671 19.2358C57.724 16.9158 58.958 15.1858 60.373 14.0658H62.986ZM62.986 14.0658L60.591 13.8456C61.643 13.1556 62.641 12.686 63.585 12.436C64.528 12.176 65.418 12.0556 66.252 12.0556C67.341 12.0856 68.158 12.2859 68.702 12.6459C69.283 13.0159 69.718 13.4858 70.009 14.0658H70.226C70.662 14.8958 70.934 15.8758 71.043 17.0058C71.152 18.0958 71.206 19.2956 71.206 20.5956V20.9257C71.17 21.1757 71.061 21.3956 70.88 21.5756C70.698 21.7256 70.48 21.756 70.226 21.686C70.009 21.576 69.809 21.3759 69.628 21.0859C69.555 20.9459 69.482 20.7957 69.41 20.6557C69.374 20.4657 69.337 20.2555 69.301 19.9955C68.902 18.5855 68.484 17.3659 68.049 16.3559C67.613 15.3359 67.069 14.5758 66.416 14.0658H66.252C65.635 13.7058 65.037 13.5559 64.456 13.6259C63.875 13.6659 63.385 13.8158 62.986 14.0658ZM68.865 35.8359C69.119 35.4459 69.355 34.9855 69.573 34.4755C69.827 33.9755 70.027 33.4958 70.172 33.0658L70.335 32.5756C70.517 32.2856 70.716 32.1357 70.934 32.1357C71.188 32.1057 71.388 32.1959 71.533 32.4159C71.678 32.5959 71.733 32.8256 71.696 33.1156C71.624 33.4856 71.533 33.8959 71.424 34.3759C71.315 34.8459 71.152 35.3359 70.934 35.8359H68.865ZM61.462 35.8359C61.897 36.4959 62.532 37.0159 63.367 37.4159C64.202 37.8159 65.109 37.9255 66.089 37.7455C67.069 37.5255 67.994 36.8959 68.865 35.8359L70.716 36.0556C69.845 38.0556 68.557 39.4357 66.851 40.1957C65.145 40.9557 63.385 40.9755 61.571 40.2455C59.756 39.5255 58.304 38.1256 57.215 36.0556L61.462 35.8359ZM80.951 35.8359C81.386 36.4959 82.076 37.0159 83.019 37.4159C83.999 37.8159 85.034 37.9255 86.123 37.7455C87.211 37.5255 88.191 36.8959 89.062 35.8359L90.913 36.0556C90.078 38.0956 88.736 39.4657 86.885 40.1957C85.07 40.8857 83.201 40.8459 81.278 40.0859C79.354 39.3259 77.866 37.9856 76.814 36.0556L80.951 35.8359ZM82.421 14.0658C81.187 15.0058 80.189 16.7859 79.427 19.3959C79.121 20.4459 78.892 21.5259 78.738 22.6459C78.768 22.5059 78.798 22.3658 78.828 22.2358C78.791 22.6258 78.864 22.9557 79.046 23.2157C79.263 23.4257 79.572 23.5556 79.971 23.5956C80.479 23.6256 81.223 23.6657 82.203 23.6957H85.034C85.832 23.6957 86.431 23.6258 86.83 23.4858C87.266 23.3358 87.611 23.1058 87.865 22.7758C88.046 22.4858 88.155 22.1558 88.191 21.7958C88.228 21.3958 88.246 20.9956 88.246 20.5956V20.3759C88.246 19.0059 88.082 17.7459 87.756 16.6259C87.465 15.4659 86.994 14.6058 86.34 14.0658H86.177C85.524 13.6658 84.852 13.5056 84.163 13.5756C83.473 13.6156 82.893 13.7758 82.421 14.0658L79.481 13.8456C80.461 13.0856 81.368 12.616 82.203 12.436C83.038 12.216 83.872 12.1059 84.707 12.1059C85.578 12.1459 86.431 12.3455 87.266 12.7055C88.137 13.0255 88.845 13.4858 89.389 14.0658H89.607C90.587 15.2258 91.276 16.5556 91.675 18.0356C92.111 19.4956 92.292 21.0658 92.22 22.7758C92.22 23.5058 92.147 24.0855 92.002 24.5155C91.857 24.9555 91.53 25.2058 91.022 25.2758C90.478 25.3158 89.607 25.3359 88.409 25.3359C87.248 25.2959 85.887 25.2758 84.326 25.2758H80.189C79.535 25.2758 79.1 25.496 78.882 25.936C78.701 26.366 78.592 26.9158 78.556 27.5658C78.546 27.5058 78.537 27.4359 78.529 27.3759C78.536 27.5459 78.545 27.7159 78.556 27.8959C78.773 30.9459 79.572 33.5859 80.951 35.8359H76.65C75.271 33.0859 74.563 30.2358 74.527 27.2958C74.491 24.3558 74.926 21.7056 75.834 19.3456C76.741 16.9456 77.884 15.1858 79.263 14.0658H82.421ZM89.062 35.8359C89.425 35.3359 89.77 34.6257 90.097 33.7157C90.423 32.8057 90.659 32.046 90.804 31.436C90.877 31.136 91.022 30.9757 91.24 30.9457C91.494 30.9057 91.712 30.9757 91.893 31.1557C92.075 31.3057 92.165 31.5258 92.165 31.8158C92.093 32.3958 91.948 33.0857 91.73 33.8857C91.512 34.6457 91.294 35.2959 91.077 35.8359H89.062ZM131.906 35.8359C132.232 35.3359 132.559 34.6257 132.886 33.7157C133.212 32.8057 133.448 32.046 133.593 31.436C133.702 31.136 133.866 30.9757 134.083 30.9457C134.337 30.9057 134.555 30.9757 134.737 31.1557C134.918 31.3057 135.009 31.5258 135.009 31.8158C134.9 32.3958 134.737 33.0857 134.519 33.8857C134.337 34.6457 134.138 35.2959 133.92 35.8359H131.906ZM123.74 35.8359C124.212 36.4959 124.919 37.0159 125.863 37.4159C126.843 37.8159 127.877 37.9255 128.966 37.7455C130.055 37.5255 131.035 36.8959 131.906 35.8359L133.702 36.0556C132.868 38.0956 131.525 39.4657 129.674 40.1957C127.859 40.8857 125.99 40.8459 124.067 40.0859C122.179 39.3259 120.709 37.9856 119.657 36.0556L123.74 35.8359ZM125.264 14.0658C124.03 15.0058 123.032 16.7859 122.27 19.3959C121.99 20.3559 121.773 21.3459 121.621 22.3759C121.64 22.7059 121.729 22.9857 121.889 23.2157C122.07 23.4257 122.361 23.5556 122.76 23.5956C123.304 23.6256 124.048 23.6657 124.992 23.6957H127.823C128.658 23.6957 129.275 23.6258 129.674 23.4858C130.109 23.3358 130.454 23.1058 130.708 22.7758C130.89 22.4858 130.998 22.1558 131.035 21.7958C131.071 21.3958 131.089 20.9956 131.089 20.5956V20.3759C131.089 19.0059 130.926 17.7459 130.599 16.6259C130.309 15.4659 129.819 14.6058 129.129 14.0658H128.966C128.349 13.6658 127.696 13.5056 127.006 13.5756C126.317 13.6156 125.736 13.7758 125.264 14.0658L122.325 13.8456C123.304 13.0856 124.194 12.616 124.992 12.436C125.827 12.216 126.68 12.1059 127.551 12.1059C128.422 12.1459 129.275 12.3455 130.109 12.7055C130.944 13.0255 131.652 13.4858 132.232 14.0658H132.396C133.412 15.2258 134.12 16.5556 134.519 18.0356C134.954 19.4956 135.136 21.0658 135.063 22.7758C135.063 23.5058 134.972 24.0855 134.791 24.5155C134.646 24.9555 134.337 25.2058 133.866 25.2758C133.321 25.3158 132.45 25.3359 131.252 25.3359C130.091 25.2959 128.712 25.2758 127.115 25.2758H122.978C122.361 25.2758 121.943 25.496 121.726 25.936C121.544 26.366 121.435 26.9158 121.399 27.5658C121.39 27.5058 121.381 27.4359 121.372 27.3759C121.38 27.5459 121.389 27.7259 121.399 27.8959C121.58 30.9459 122.361 33.5859 123.74 35.8359H119.439C118.06 33.0859 117.352 30.2358 117.316 27.2958C117.28 24.3558 117.715 21.7056 118.623 19.3456C119.566 16.9456 120.728 15.1858 122.107 14.0658H125.264ZM99.46 36.6059C99.424 37.5459 99.605 38.1459 100.004 38.3959C100.404 38.6159 100.966 38.7659 101.692 38.8359C101.765 38.8759 101.819 38.8857 101.855 38.8857H102.019C102.563 38.9657 102.926 39.0559 103.108 39.1659C103.289 39.2359 103.38 39.3957 103.38 39.6557C103.38 39.8657 103.289 40.0359 103.108 40.1459C102.962 40.2159 102.745 40.2656 102.454 40.3056H93.363C93 40.3056 92.728 40.2657 92.546 40.1957C92.401 40.0857 92.329 39.8856 92.329 39.5956C92.329 39.4156 92.438 39.2659 92.655 39.1659C92.873 39.0559 93.236 38.9258 93.744 38.7758C93.889 38.7458 94.034 38.7057 94.18 38.6757C94.325 38.6357 94.47 38.5958 94.615 38.5658C95.051 38.4158 95.305 38.1957 95.377 37.9057C95.486 37.5857 95.54 37.1459 95.54 36.6059L95.486 20.9257C95.486 19.6157 95.722 18.4058 96.194 17.2758C96.702 16.1158 97.482 15.0458 98.535 14.0658H98.752C99.115 13.7058 99.605 13.3558 100.222 13.0258C100.876 12.7058 101.529 12.4455 102.182 12.2655C102.98 12.1255 103.761 12.0556 104.523 12.0556C105.321 12.0556 106.12 12.1456 106.918 12.3256C107.608 12.5356 108.207 12.7555 108.715 12.9755C109.223 13.1955 109.785 13.5558 110.402 14.0658H110.566C111.691 15.0058 112.507 15.9858 113.015 17.0058C113.524 18.0258 113.778 19.1459 113.778 20.3759L113.832 36.6059C113.832 37.1159 113.886 37.5259 113.995 37.8559C114.104 38.1859 114.376 38.4158 114.812 38.5658C114.957 38.5958 115.12 38.6357 115.302 38.6757C115.483 38.7057 115.665 38.7458 115.846 38.7758C116.354 38.8558 116.735 38.9456 116.989 39.0556C117.28 39.1656 117.425 39.3456 117.425 39.5956C117.425 39.8856 117.352 40.0857 117.207 40.1957C117.098 40.2657 116.826 40.3056 116.391 40.3056H107.572C107.281 40.3056 107.045 40.2459 106.864 40.1459C106.719 40.0359 106.646 39.8657 106.646 39.6557C106.646 39.4357 106.773 39.2659 107.027 39.1659C107.281 39.0159 107.68 38.9059 108.225 38.8359C108.66 38.7659 109.041 38.5956 109.368 38.3456C109.695 38.0956 109.84 37.5059 109.804 36.6059V18.9657C109.804 17.5157 109.495 16.4257 108.878 15.6957C108.261 14.9357 107.463 14.3958 106.483 14.0658H106.374C105.684 13.8858 105.049 13.7958 104.468 13.7958C103.924 13.7558 103.325 13.8458 102.672 14.0658H102.509C101.674 14.4658 100.948 15.0456 100.331 15.8056C99.75 16.5656 99.46 17.6057 99.46 18.9057V36.6059ZM10.18 37.6957C10.18 36.8157 10.47 36.0557 11.051 35.4057C11.668 34.8257 12.394 34.5356 13.229 34.5356C14.1 34.4956 14.862 34.7558 15.515 35.2958C16.096 35.9458 16.386 36.7159 16.386 37.5859C16.422 38.4159 16.15 39.1458 15.57 39.7558C14.916 40.3758 14.154 40.686 13.283 40.686C12.448 40.726 11.723 40.4456 11.106 39.8656C10.525 39.2556 10.216 38.5257 10.18 37.6957Z" fill="black"/>
</svg>
