<svg width="136" height="41" viewBox="0 0 136 41" fill="none" xmlns="http://www.w3.org/2000/svg">
<path fill-rule="evenodd" clip-rule="evenodd" d="M4.355 14.6661C5.19 14.7361 6.188 14.536 7.349 14.066C8.511 13.596 9.908 12.9257 11.541 12.0557L13.065 11.2857L13.12 15.9659C11.342 16.7659 9.745 17.2959 8.329 17.5459C6.914 17.8059 5.589 17.7159 4.355 17.2759V14.6661ZM4.355 14.6661L4.192 17.1158C2.849 16.5658 1.815 15.7157 1.089 14.5557C0.363 13.3957 0 12.1061 0 10.6861C0.036 9.20608 0.417 7.93602 1.143 6.87602C1.905 5.82602 2.976 4.91581 4.355 4.15581V3.99565L6.642 2.52593C7.077 2.19593 7.476 1.92561 7.839 1.70561C8.202 1.45561 8.492 1.27606 8.71 1.16606V0.995652C9.255 0.745652 9.781 0.706043 10.289 0.896043C10.833 1.03604 11.251 1.34596 11.541 1.81596C11.795 2.39596 11.813 2.92604 11.596 3.39604C11.378 3.82604 10.96 4.22575 10.343 4.59575L8.71 5.29595V5.46587C8.057 5.75587 7.259 6.11571 6.315 6.55571C5.408 6.98571 4.754 7.31569 4.355 7.53569V7.58598C3.738 8.02598 3.176 8.54606 2.668 9.16606C2.196 9.74606 1.96 10.486 1.96 11.396C1.96 12.346 2.196 13.086 2.668 13.626C3.176 14.176 3.738 14.5161 4.355 14.6661ZM21.993 22.7759L21.014 23.316C20.723 23.466 20.397 23.6257 20.034 23.8057C17.929 24.8957 16.332 25.8458 15.243 26.6358C14.19 27.4058 13.664 28.216 13.664 29.086V30.9458C13.628 31.2358 13.501 31.4357 13.283 31.5357C13.065 31.6457 12.83 31.6457 12.575 31.5357C12.358 31.3957 12.249 31.1758 12.249 30.8858V28.876C12.249 27.566 12.521 26.4958 13.065 25.6558C13.61 24.7858 14.336 23.936 15.243 23.106L15.624 22.7759H15.787C16.259 22.3759 16.804 21.9757 17.421 21.5757C18.074 21.1757 18.763 20.776 19.489 20.376C19.997 20.086 20.542 19.7959 21.122 19.5059C21.703 19.1859 22.284 18.8161 22.864 18.4161H23.028C23.899 17.7261 24.57 17.0756 25.042 16.4556C25.55 15.8456 25.804 15.046 25.804 14.066H26.131V13.9058H25.859C25.859 13.2458 25.586 12.7057 25.042 12.2657C24.498 11.8357 23.862 11.6158 23.137 11.6158C22.374 11.6158 21.503 11.7958 20.523 12.1558C19.544 12.5258 18.509 12.9757 17.421 13.5157V13.6861L13.12 15.8057L13.065 11.126C13.428 10.946 14.027 10.6858 14.862 10.3658C15.733 9.99577 16.586 9.65573 17.421 9.32573V9.16606C18.8 8.72606 20.27 8.52596 21.83 8.56596C23.427 8.60596 24.86 9.32565 26.131 10.7457V11.2359L26.294 10.9058C26.621 11.3058 26.911 11.8161 27.165 12.4361C27.455 13.0161 27.673 13.556 27.818 14.066H27.655C27.837 14.756 27.909 15.4959 27.873 16.2959C27.837 17.0559 27.655 17.7661 27.328 18.4161H27.165C26.802 19.2561 26.167 20.0357 25.26 20.7657C24.352 21.4857 23.318 22.1559 22.157 22.7759H21.993ZM39.196 37.9058L39.033 40.356C37.436 40.036 36.129 39.6857 35.113 39.3257C34.133 38.9657 33.643 38.4858 33.643 37.9058L33.534 34.2657L33.371 29.0357C33.407 28.7057 33.516 28.4757 33.698 28.3257C33.916 28.1457 34.151 28.1059 34.406 28.2159C34.66 28.3259 34.841 28.546 34.95 28.876L35.168 29.7457C35.603 31.5557 36.111 33.176 36.692 34.586C37.309 35.966 38.144 37.0758 39.196 37.9058ZM39.196 3.12602V1.27593C40.793 0.655925 42.408 0.385613 44.041 0.455613C45.674 0.525613 46.963 0.705652 47.906 0.995652V1.16606C48.669 1.45606 49.286 1.74569 49.757 2.03569C50.229 2.28569 50.501 2.65602 50.574 3.12602C50.61 4.31602 50.646 5.69591 50.683 7.25591C50.755 8.81591 50.792 10.256 50.792 11.566C50.755 11.856 50.628 12.0659 50.411 12.2159C50.193 12.3559 49.957 12.3757 49.703 12.2657C49.449 12.1557 49.267 11.9561 49.158 11.6661C48.868 10.6161 48.632 9.76577 48.451 9.11577C48.269 8.45577 48.088 7.85596 47.906 7.31596V7.20561C47.289 5.46561 46.473 4.19604 45.457 3.39604C44.477 2.55604 43.424 2.14604 42.299 2.14604C41.21 2.14604 40.176 2.46602 39.196 3.12602ZM48.124 35.836C49.068 33.336 49.104 30.9458 48.233 28.6558C47.398 26.3358 46.11 24.3759 44.368 22.7759H44.205C43.769 22.3759 43.315 21.9958 42.844 21.6358C42.372 21.2358 41.882 20.8361 41.374 20.4361C40.974 20.1461 40.557 19.8359 40.122 19.5059C39.686 19.1459 39.251 18.7861 38.815 18.4161H38.652C37.672 17.5461 36.892 16.7657 36.311 16.0757C35.73 15.3557 35.277 14.686 34.95 14.066H34.786C34.351 13.446 33.97 12.3261 33.643 10.6861C33.353 9.05608 33.571 7.36602 34.297 5.62602C35.022 3.88602 36.601 2.48608 39.033 1.43608L39.196 3.12602C38.216 3.88602 37.581 4.91563 37.291 6.22563C37 7.49563 37.091 8.83591 37.563 10.2559C38.035 11.6659 38.888 12.936 40.122 14.066H40.285C40.866 14.606 41.61 15.2958 42.517 16.1358C43.461 16.9658 44.386 17.7261 45.293 18.4161H45.457C46.182 19.0761 46.89 19.7461 47.58 20.4361C48.269 21.1261 48.941 21.9059 49.594 22.7759H49.757C51.1 24.5159 51.971 26.5859 52.37 28.9859C52.77 31.3359 52.334 33.626 51.064 35.836H48.124ZM39.196 37.9058C40.14 38.5658 41.21 38.9257 42.408 38.9957C43.606 39.0657 44.713 38.8357 45.729 38.2857C46.781 37.7457 47.58 36.926 48.124 35.836L50.901 36.0059C49.594 37.8959 47.888 39.1958 45.783 39.9258C43.715 40.6458 41.519 40.8459 39.196 40.5259V37.9058ZM63.04 14.066C61.879 15.006 60.935 16.786 60.21 19.396C59.52 21.976 59.266 24.806 59.447 27.896C59.629 30.946 60.3 33.586 61.462 35.836H56.998C55.655 32.976 55.002 30.066 55.038 27.126C55.11 24.186 55.655 21.5559 56.671 19.2359C57.724 16.9159 58.976 15.186 60.427 14.066H63.04ZM63.04 14.066L60.591 13.9058C61.607 13.2158 62.587 12.7359 63.53 12.4859C64.474 12.1959 65.381 12.0557 66.252 12.0557C67.305 12.0857 68.121 12.286 68.702 12.646C69.283 13.016 69.718 13.486 70.009 14.066H70.172C70.607 14.896 70.88 15.8759 70.989 17.0059C71.097 18.1259 71.152 19.3257 71.152 20.5957V20.9258C71.116 21.2158 71.007 21.4458 70.825 21.6358C70.68 21.7758 70.48 21.8157 70.226 21.7457C70.009 21.6357 69.809 21.416 69.628 21.086C69.555 20.976 69.482 20.8358 69.41 20.6558C69.374 20.4658 69.337 20.2557 69.301 19.9957C68.902 18.5857 68.484 17.366 68.049 16.356C67.613 15.336 67.051 14.576 66.361 14.066H66.252C65.635 13.666 65.037 13.5057 64.456 13.5757C63.875 13.6457 63.403 13.816 63.04 14.066ZM68.865 35.836C69.119 35.476 69.355 35.0457 69.573 34.5357C69.827 33.9857 70.027 33.496 70.172 33.066L70.39 32.5757C70.535 32.3157 70.716 32.1958 70.934 32.1958C71.152 32.1558 71.333 32.2261 71.478 32.4161C71.66 32.5961 71.733 32.8258 71.696 33.1158C71.624 33.4858 71.515 33.9158 71.37 34.4258C71.261 34.8958 71.097 35.366 70.88 35.836H68.865ZM61.462 35.836C61.897 36.496 62.532 37.0161 63.367 37.4161C64.202 37.8161 65.109 37.9257 66.089 37.7457C67.069 37.5257 67.994 36.896 68.865 35.836L70.716 36.0059C69.882 38.0359 68.593 39.4358 66.851 40.1958C65.145 40.9558 63.367 40.9757 61.516 40.2457C59.702 39.5257 58.25 38.1059 57.161 36.0059L61.462 35.836ZM89.062 35.836C89.389 35.336 89.716 34.6259 90.042 33.7159C90.405 32.7759 90.641 32.0161 90.75 31.4361C90.859 31.1361 91.022 30.9758 91.24 30.9458C91.458 30.8658 91.657 30.926 91.839 31.106C92.056 31.286 92.165 31.526 92.165 31.816C92.056 32.396 91.893 33.0858 91.675 33.8858C91.458 34.6758 91.24 35.336 91.022 35.836H89.062ZM80.896 35.836C81.332 36.496 82.04 37.0161 83.019 37.4161C83.999 37.8161 85.034 37.9257 86.123 37.7457C87.211 37.5257 88.191 36.896 89.062 35.836L90.859 36.0059C90.06 38.0759 88.736 39.4658 86.885 40.1958C85.034 40.8858 83.147 40.846 81.223 40.086C79.3 39.326 77.812 37.9659 76.759 36.0059L80.896 35.836ZM82.421 14.066C81.187 14.976 80.171 16.7357 79.372 19.3457C79.059 20.4157 78.825 21.5361 78.672 22.6861L78.773 22.1758C78.737 22.6158 78.81 22.9559 78.991 23.2159C79.209 23.4259 79.517 23.5557 79.917 23.5957C80.425 23.6257 81.169 23.6658 82.149 23.6958H84.979C85.814 23.6958 86.431 23.6259 86.83 23.4859C87.23 23.3359 87.574 23.1059 87.865 22.7759C88.01 22.5259 88.101 22.1959 88.137 21.7959C88.173 21.3959 88.191 20.9957 88.191 20.5957V20.376C88.191 19.036 88.028 17.786 87.701 16.626C87.411 15.466 86.939 14.606 86.286 14.066H86.123C85.506 13.626 84.852 13.4457 84.163 13.5157C83.473 13.5957 82.893 13.776 82.421 14.066L79.427 13.9058C80.406 13.1358 81.314 12.6461 82.149 12.4361C82.983 12.2161 83.818 12.106 84.653 12.106C85.524 12.146 86.377 12.3456 87.211 12.7056C88.082 13.0656 88.808 13.516 89.389 14.066H89.552C90.532 15.226 91.24 16.5557 91.675 18.0357C92.111 19.4957 92.292 21.0659 92.22 22.7759C92.22 23.5059 92.129 24.0857 91.948 24.5157C91.802 24.9557 91.494 25.1856 91.022 25.2256C90.478 25.2656 89.607 25.2759 88.409 25.2759C87.211 25.2459 85.814 25.2256 84.217 25.2256H80.08C79.463 25.2256 79.046 25.446 78.828 25.876C78.646 26.316 78.537 26.876 78.501 27.566C78.492 27.506 78.483 27.436 78.475 27.376C78.482 27.546 78.491 27.726 78.501 27.896C78.719 30.946 79.517 33.586 80.896 35.836H76.596C75.217 33.086 74.509 30.2359 74.473 27.2959C74.436 24.3559 74.872 21.7057 75.779 19.3457C76.723 16.9457 77.884 15.186 79.263 14.066H82.421ZM131.851 35.836C132.214 35.336 132.559 34.6259 132.886 33.7159C133.212 32.7759 133.448 32.0161 133.593 31.4361C133.702 31.1361 133.866 30.9758 134.083 30.9458C134.301 30.8658 134.501 30.926 134.682 31.106C134.864 31.286 134.954 31.526 134.954 31.816C134.845 32.396 134.682 33.0858 134.464 33.8858C134.283 34.6758 134.083 35.336 133.866 35.836H131.851ZM123.74 35.836C124.175 36.496 124.865 37.0161 125.809 37.4161C126.788 37.8161 127.823 37.9257 128.912 37.7457C130.037 37.5257 131.017 36.896 131.851 35.836L133.702 36.0059C132.868 38.0759 131.525 39.4658 129.674 40.1958C127.859 40.8858 125.972 40.846 124.012 40.086C122.089 39.326 120.619 37.9659 119.603 36.0059L123.74 35.836ZM125.264 14.066C123.994 14.976 122.978 16.7357 122.216 19.3457C121.935 20.3057 121.718 21.2957 121.566 22.3257C121.584 22.6957 121.674 22.9859 121.835 23.2159C122.016 23.4259 122.306 23.5557 122.706 23.5957C123.25 23.6257 123.994 23.6658 124.938 23.6958H127.768C128.603 23.6958 129.22 23.6259 129.619 23.4859C130.055 23.3359 130.4 23.1059 130.654 22.7759C130.835 22.5259 130.944 22.1959 130.98 21.7959C131.017 21.3959 131.035 20.9957 131.035 20.5957V20.376C131.035 19.036 130.871 17.786 130.545 16.626C130.254 15.466 129.764 14.606 129.075 14.066H128.966C128.313 13.626 127.641 13.4457 126.952 13.5157C126.299 13.5957 125.736 13.776 125.264 14.066L122.27 13.9058C123.25 13.1358 124.139 12.6461 124.938 12.4361C125.772 12.2161 126.607 12.106 127.442 12.106C128.349 12.146 129.22 12.3456 130.055 12.7056C130.926 13.0656 131.634 13.516 132.178 14.066H132.341C133.357 15.226 134.065 16.5557 134.464 18.0357C134.9 19.4957 135.081 21.0659 135.009 22.7759C135.009 23.5059 134.936 24.0857 134.791 24.5157C134.646 24.9557 134.319 25.1856 133.811 25.2256C133.267 25.2656 132.396 25.2759 131.198 25.2759C130.037 25.2459 128.658 25.2256 127.061 25.2256H122.923C122.27 25.2256 121.853 25.446 121.671 25.876C121.49 26.316 121.381 26.876 121.345 27.566C121.336 27.506 121.327 27.436 121.319 27.376C121.326 27.546 121.335 27.726 121.345 27.896C121.526 30.946 122.324 33.586 123.74 35.836H119.439C118.024 33.086 117.298 30.2359 117.262 27.2959C117.225 24.3559 117.661 21.7057 118.568 19.3457C119.512 16.9457 120.691 15.186 122.107 14.066H125.264ZM99.406 36.606C99.369 37.546 99.551 38.146 99.95 38.396C100.349 38.656 100.912 38.796 101.638 38.836C101.71 38.876 101.765 38.8858 101.801 38.8858H102.019C102.527 38.9658 102.872 39.0561 103.053 39.1661C103.271 39.2361 103.38 39.3958 103.38 39.6558C103.38 39.8658 103.289 40.036 103.108 40.146C102.962 40.246 102.745 40.3057 102.454 40.3057H93.309C92.909 40.3057 92.637 40.2658 92.492 40.1958C92.347 40.0858 92.274 39.8857 92.274 39.5957C92.274 39.4157 92.365 39.2661 92.546 39.1661C92.764 39.0561 93.145 38.9259 93.69 38.7759C93.835 38.7459 93.98 38.7058 94.125 38.6758C94.27 38.6358 94.415 38.596 94.561 38.566C94.996 38.416 95.25 38.1958 95.323 37.9058C95.432 37.5858 95.486 37.146 95.486 36.606L95.432 20.9258C95.432 19.6158 95.668 18.4059 96.139 17.2759C96.647 16.1159 97.446 15.046 98.535 14.066H98.698C99.061 13.706 99.551 13.3559 100.168 13.0259C100.821 12.7059 101.492 12.4457 102.182 12.2657C102.944 12.1257 103.706 12.0557 104.468 12.0557C105.267 12.0557 106.065 12.1457 106.864 12.3257C107.553 12.5357 108.152 12.7556 108.66 12.9756C109.168 13.1956 109.731 13.556 110.348 14.066H110.511C111.636 14.976 112.453 15.9559 112.961 17.0059C113.469 18.0559 113.723 19.186 113.723 20.376L113.778 36.606C113.778 37.116 113.832 37.526 113.941 37.856C114.086 38.186 114.358 38.416 114.757 38.566C114.939 38.596 115.102 38.6358 115.247 38.6758C115.429 38.7058 115.61 38.7459 115.792 38.7759C116.336 38.8859 116.735 38.996 116.989 39.106C117.28 39.216 117.425 39.3757 117.425 39.5957C117.425 39.8857 117.352 40.0858 117.207 40.1958C117.062 40.2658 116.79 40.3057 116.391 40.3057H107.517C107.19 40.3057 106.955 40.246 106.809 40.146C106.664 40.036 106.592 39.8658 106.592 39.6558C106.592 39.4358 106.719 39.2661 106.973 39.1661C107.227 39.0161 107.626 38.906 108.17 38.836C108.606 38.796 108.987 38.656 109.314 38.396C109.64 38.106 109.804 37.506 109.804 36.606V18.9058C109.804 17.4958 109.477 16.4258 108.824 15.6958C108.207 14.9358 107.408 14.396 106.428 14.066H106.319C105.63 13.886 104.995 13.7959 104.414 13.7959C103.87 13.7559 103.271 13.846 102.618 14.066H102.454C101.62 14.466 100.894 15.0457 100.277 15.8057C99.696 16.5657 99.406 17.6058 99.406 18.9058V36.606ZM10.126 37.6958C10.126 36.8158 10.416 36.0558 10.997 35.4058C11.65 34.8258 12.394 34.5357 13.229 34.5357C14.1 34.4957 14.844 34.7559 15.461 35.2959C16.078 35.9459 16.386 36.716 16.386 37.586C16.422 38.416 16.132 39.1459 15.515 39.7559C14.898 40.3759 14.154 40.6861 13.283 40.6861C12.448 40.7261 11.704 40.4458 11.051 39.8658C10.47 39.2558 10.162 38.5258 10.126 37.6958Z" fill="black"/>
</svg>
