<svg width="135" height="41" viewBox="0 0 135 41" fill="none" xmlns="http://www.w3.org/2000/svg">
<path fill-rule="evenodd" clip-rule="evenodd" d="M4.355 14.6661L4.246 17.1158C2.903 16.6058 1.851 15.776 1.089 14.606C0.363 13.416 0 12.1061 0 10.6861C0.036 9.20608 0.417 7.93602 1.143 6.87602C1.905 5.78602 2.976 4.866 4.355 4.106V3.99565L6.642 2.52593C7.077 2.19593 7.476 1.90581 7.839 1.65581C8.202 1.39581 8.492 1.216 8.71 1.106V0.995652C9.255 0.745652 9.781 0.706043 10.289 0.896043C10.833 1.03604 11.251 1.36577 11.541 1.86577C11.795 2.41577 11.813 2.92604 11.596 3.39604C11.378 3.82604 10.942 4.21569 10.289 4.53569L8.71 5.29595V5.40581C8.057 5.69581 7.259 6.06565 6.315 6.49565C5.371 6.93565 4.718 7.25563 4.355 7.47563V7.53569C3.738 8.00569 3.176 8.54606 2.668 9.16606C2.159 9.74606 1.905 10.486 1.905 11.396C1.905 12.346 2.159 13.1061 2.668 13.6861C3.176 14.2261 3.738 14.5561 4.355 14.6661ZM4.355 14.6661C5.19 14.7761 6.188 14.5958 7.349 14.1158C8.511 13.6158 9.908 12.9257 11.541 12.0557L13.065 11.2359L13.12 15.9161C11.342 16.7461 9.745 17.2959 8.329 17.5459C6.914 17.8059 5.589 17.7159 4.355 17.2759V14.6661ZM22.048 22.7759L21.068 23.316C20.741 23.466 20.415 23.6257 20.088 23.8057C17.947 24.9357 16.332 25.8758 15.243 26.6358C14.154 27.4058 13.61 28.216 13.61 29.086V30.9458C13.573 31.2358 13.446 31.4357 13.229 31.5357C13.011 31.6457 12.793 31.6457 12.575 31.5357C12.358 31.3957 12.231 31.1758 12.194 30.8858V28.876C12.194 27.566 12.485 26.4958 13.065 25.6558C13.646 24.7858 14.39 23.936 15.297 23.106L15.678 22.7759H15.787C16.259 22.3759 16.804 21.9757 17.421 21.5757C18.074 21.1757 18.782 20.776 19.544 20.376C20.015 20.086 20.542 19.7959 21.122 19.5059C21.739 19.1859 22.338 18.8161 22.919 18.4161H23.028C23.935 17.7261 24.625 17.0756 25.096 16.4556C25.605 15.8456 25.859 15.046 25.859 14.066H26.131V13.9556H25.913C25.877 13.2656 25.586 12.7057 25.042 12.2657C24.534 11.8357 23.917 11.6158 23.191 11.6158C22.429 11.6158 21.54 11.7958 20.523 12.1558C19.544 12.5258 18.509 12.9957 17.421 13.5757V13.6861L13.12 15.8057L13.065 11.126C13.392 10.946 13.991 10.6858 14.862 10.3658C15.733 9.99577 16.586 9.65573 17.421 9.32573V9.21587C18.763 8.74587 20.233 8.52596 21.83 8.56596C23.427 8.60596 24.86 9.34595 26.131 10.7959V11.2359L26.24 10.9058C26.566 11.3058 26.875 11.8161 27.165 12.4361C27.455 13.0161 27.655 13.556 27.764 14.066H27.655C27.837 14.756 27.909 15.4959 27.873 16.2959C27.837 17.0559 27.655 17.7661 27.328 18.4161H27.22C26.857 19.2561 26.222 20.0357 25.314 20.7657C24.407 21.4857 23.354 22.1559 22.157 22.7759H22.048ZM39.196 3.06596V1.27593C40.793 0.655925 42.408 0.385613 44.041 0.455613C45.674 0.525613 46.963 0.705652 47.906 0.995652V1.106C48.669 1.396 49.286 1.68563 49.757 1.97563C50.229 2.26563 50.501 2.63596 50.574 3.06596C50.61 4.30596 50.646 5.69591 50.683 7.25591C50.755 8.81591 50.792 10.2359 50.792 11.5059C50.755 11.8359 50.628 12.0659 50.411 12.2159C50.193 12.3559 49.957 12.3757 49.703 12.2657C49.449 12.1557 49.267 11.9458 49.158 11.6158C48.904 10.5658 48.669 9.70571 48.451 9.05571C48.269 8.40571 48.088 7.82596 47.906 7.31596V7.20561C47.289 5.42561 46.473 4.13598 45.457 3.33598C44.477 2.54598 43.424 2.14604 42.299 2.14604C41.174 2.14604 40.14 2.45596 39.196 3.06596ZM48.124 35.836C49.068 33.336 49.104 30.9458 48.233 28.6558C47.398 26.3358 46.092 24.3759 44.313 22.7759H44.205C43.769 22.3759 43.315 21.9958 42.844 21.6358C42.372 21.2358 41.864 20.8361 41.319 20.4361C40.92 20.1461 40.503 19.8359 40.067 19.5059C39.632 19.1459 39.214 18.7861 38.815 18.4161H38.652C37.672 17.5461 36.873 16.7657 36.256 16.0757C35.676 15.3557 35.222 14.686 34.895 14.066H34.786C34.315 13.446 33.934 12.3261 33.643 10.6861C33.353 9.05608 33.571 7.36602 34.297 5.62602C35.022 3.84602 36.619 2.43602 39.087 1.37602L39.196 3.06596C38.216 3.86596 37.563 4.91563 37.236 6.22563C36.946 7.49563 37.037 8.83591 37.509 10.2559C38.017 11.6659 38.888 12.936 40.122 14.066H40.285C40.829 14.606 41.573 15.2958 42.517 16.1358C43.461 16.9658 44.386 17.7261 45.293 18.4161H45.402C46.164 19.0761 46.89 19.7461 47.58 20.4361C48.269 21.1261 48.941 21.9059 49.594 22.7759H49.703C51.082 24.5159 51.971 26.5859 52.37 28.9859C52.77 31.3359 52.334 33.626 51.064 35.836H48.124ZM39.196 37.9659C40.103 38.5759 41.156 38.9257 42.354 38.9957C43.588 39.0657 44.713 38.8357 45.729 38.2857C46.781 37.7457 47.58 36.926 48.124 35.836L50.901 35.9458C49.63 37.8758 47.943 39.2156 45.838 39.9756C43.733 40.7056 41.519 40.8859 39.196 40.5259V37.9659ZM39.196 37.9659L39.087 40.4161C37.454 40.0861 36.129 39.746 35.113 39.376C34.133 39.016 33.643 38.5657 33.643 38.0157L33.534 34.316L33.371 29.0357C33.371 28.7057 33.48 28.4757 33.698 28.3257C33.916 28.1457 34.151 28.1059 34.406 28.2159C34.66 28.3259 34.823 28.546 34.895 28.876L35.113 29.7457C35.585 31.5557 36.111 33.176 36.692 34.586C37.309 36.006 38.144 37.1259 39.196 37.9659ZM61.462 35.836C61.897 36.496 62.514 37.0356 63.313 37.4756C64.147 37.8756 65.055 37.9657 66.035 37.7457C67.051 37.5257 67.976 36.896 68.811 35.836L70.716 35.9458C69.882 38.0158 68.593 39.4358 66.851 40.1958C65.145 40.9558 63.367 40.9757 61.516 40.2457C59.665 39.5257 58.195 38.0958 57.106 35.9458L61.462 35.836ZM63.04 14.066C61.879 14.976 60.935 16.7357 60.21 19.3457C59.52 21.9557 59.266 24.806 59.447 27.896C59.629 30.946 60.3 33.586 61.462 35.836H56.998C55.655 32.976 55.002 30.066 55.038 27.126C55.11 24.156 55.655 21.5061 56.671 19.1861C57.724 16.8561 58.994 15.156 60.482 14.066H63.04ZM68.811 35.836C69.101 35.476 69.355 35.0457 69.573 34.5357C69.827 33.9857 70.027 33.5158 70.172 33.1158L70.39 32.5757C70.535 32.3157 70.716 32.1958 70.934 32.1958C71.152 32.1558 71.333 32.2261 71.478 32.4161C71.66 32.5961 71.714 32.8258 71.642 33.1158C71.569 33.5158 71.478 33.9558 71.37 34.4258C71.261 34.8958 71.097 35.366 70.88 35.836H68.811ZM63.04 14.066L60.591 13.9556C61.607 13.2256 62.587 12.7359 63.53 12.4859C64.474 12.2359 65.363 12.106 66.198 12.106C67.287 12.106 68.121 12.286 68.702 12.646C69.283 13.016 69.718 13.486 70.009 14.066H70.118C70.589 14.896 70.88 15.8759 70.989 17.0059C71.097 18.1259 71.152 19.3458 71.152 20.6558V20.9756C71.116 21.2356 71.007 21.4458 70.825 21.6358C70.68 21.7758 70.48 21.8157 70.226 21.7457C69.972 21.6357 69.773 21.436 69.628 21.146C69.555 21.036 69.482 20.8856 69.41 20.7056C69.374 20.5256 69.337 20.3057 69.301 20.0557C68.902 18.6057 68.466 17.366 67.994 16.356C67.559 15.336 67.014 14.576 66.361 14.066H66.252C65.672 13.666 65.091 13.5057 64.51 13.5757C63.93 13.6457 63.44 13.816 63.04 14.066ZM89.008 35.836C89.371 35.366 89.716 34.6659 90.042 33.7159C90.369 32.7759 90.605 32.0161 90.75 31.4361C90.859 31.1361 91.022 30.9758 91.24 30.9458C91.458 30.8658 91.657 30.926 91.839 31.106C92.02 31.286 92.111 31.526 92.111 31.816C92.002 32.396 91.839 33.0858 91.621 33.8858C91.403 34.6758 91.204 35.336 91.022 35.836H89.008ZM80.896 35.836C81.332 36.496 82.022 37.0356 82.965 37.4756C83.945 37.8756 84.979 37.9657 86.068 37.7457C87.193 37.5257 88.173 36.896 89.008 35.836L90.859 35.9458C90.06 38.0558 88.736 39.4658 86.885 40.1958C85.034 40.8858 83.128 40.846 81.169 40.086C79.245 39.326 77.757 37.9458 76.705 35.9458L80.896 35.836ZM82.421 14.066C81.15 14.936 80.116 16.6957 79.318 19.3457C79.012 20.3957 78.782 21.486 78.628 22.606C78.658 22.456 78.688 22.3158 78.719 22.1758C78.719 22.6158 78.81 22.9559 78.991 23.2159C79.173 23.4659 79.463 23.606 79.862 23.646C80.37 23.686 81.114 23.6958 82.094 23.6958H84.925C85.76 23.6958 86.377 23.6259 86.776 23.4859C87.211 23.3359 87.556 23.1059 87.81 22.7759C87.992 22.5259 88.101 22.1959 88.137 21.7959C88.173 21.3959 88.191 21.0158 88.191 20.6558V20.4361C88.191 19.0561 88.028 17.786 87.701 16.626C87.375 15.466 86.885 14.606 86.231 14.066H86.123C85.506 13.626 84.852 13.4457 84.163 13.5157C83.473 13.5957 82.893 13.776 82.421 14.066L79.427 13.9556C80.406 13.1556 81.296 12.6659 82.094 12.4859C82.929 12.2659 83.763 12.1558 84.598 12.1558C85.469 12.1558 86.34 12.3456 87.211 12.7056C88.082 13.0656 88.79 13.516 89.334 14.066H89.443C90.496 15.226 91.222 16.5557 91.621 18.0357C92.056 19.4957 92.238 21.0659 92.165 22.7759C92.165 23.5059 92.075 24.0857 91.893 24.5157C91.748 24.9557 91.439 25.1856 90.968 25.2256C90.423 25.2656 89.552 25.2759 88.355 25.2759C87.157 25.2459 85.76 25.2256 84.163 25.2256H80.025C79.408 25.2256 78.991 25.446 78.773 25.876C78.592 26.316 78.483 26.876 78.447 27.566C78.438 27.506 78.429 27.436 78.42 27.376C78.428 27.546 78.436 27.726 78.447 27.896C78.664 30.976 79.481 33.626 80.896 35.836H76.596C75.18 33.086 74.454 30.2359 74.418 27.2959C74.382 24.3159 74.836 21.6459 75.779 19.2959C76.723 16.8959 77.902 15.156 79.318 14.066H82.421ZM131.851 35.836C132.178 35.366 132.505 34.6659 132.831 33.7159C133.194 32.7759 133.448 32.0161 133.593 31.4361C133.666 31.1361 133.811 30.9758 134.029 30.9458C134.247 30.8658 134.446 30.926 134.628 31.106C134.845 31.286 134.936 31.526 134.9 31.816C134.791 32.396 134.628 33.0858 134.41 33.8858C134.229 34.6758 134.029 35.336 133.811 35.836H131.851ZM123.685 35.836C124.121 36.496 124.829 37.0356 125.809 37.4756C126.788 37.8756 127.823 37.9657 128.912 37.7457C130 37.5257 130.98 36.896 131.851 35.836L133.702 35.9458C132.868 38.0558 131.525 39.4658 129.674 40.1958C127.823 40.8858 125.917 40.846 123.958 40.086C122.034 39.326 120.564 37.9458 119.548 35.9458L123.685 35.836ZM125.264 14.066C123.994 14.936 122.96 16.6957 122.161 19.3457C121.855 20.3957 121.625 21.476 121.471 22.606C121.502 22.456 121.532 22.3158 121.562 22.1758C121.526 22.6158 121.599 22.9559 121.78 23.2159C121.962 23.4659 122.252 23.606 122.651 23.646C123.159 23.686 123.903 23.6958 124.883 23.6958H127.768C128.567 23.6958 129.166 23.6259 129.565 23.4859C130 23.3359 130.345 23.1059 130.599 22.7759C130.781 22.5259 130.89 22.1959 130.926 21.7959C130.962 21.3959 130.98 21.0158 130.98 20.6558V20.4361C130.98 19.0561 130.817 17.786 130.49 16.626C130.2 15.466 129.71 14.606 129.02 14.066H128.912C128.295 13.626 127.641 13.4457 126.952 13.5157C126.262 13.5957 125.7 13.776 125.264 14.066L122.216 13.9556C123.196 13.1556 124.085 12.6659 124.883 12.4859C125.718 12.2659 126.553 12.1558 127.387 12.1558C128.258 12.1558 129.129 12.3456 130 12.7056C130.871 13.0656 131.597 13.516 132.178 14.066H132.287C133.303 15.226 134.011 16.5557 134.41 18.0357C134.845 19.4957 135.027 21.0659 134.954 22.7759C134.954 23.5059 134.882 24.0857 134.737 24.5157C134.591 24.9557 134.265 25.1856 133.757 25.2256C133.212 25.2656 132.341 25.2759 131.144 25.2759C129.946 25.2459 128.567 25.2256 127.006 25.2256H122.814C122.197 25.2256 121.78 25.446 121.562 25.876C121.381 26.316 121.29 26.876 121.29 27.566C121.281 27.506 121.272 27.436 121.264 27.376C121.271 27.546 121.28 27.726 121.29 27.896C121.508 30.976 122.306 33.626 123.685 35.836H119.385C117.969 33.086 117.244 30.2359 117.207 27.2959C117.207 24.3159 117.661 21.6459 118.568 19.2959C119.512 16.8959 120.691 15.156 122.107 14.066H125.264ZM99.351 36.6558C99.315 37.5658 99.496 38.146 99.896 38.396C100.295 38.656 100.876 38.796 101.638 38.836C101.674 38.876 101.71 38.8858 101.747 38.8858H101.964C102.509 38.9658 102.872 39.0561 103.053 39.1661C103.271 39.2661 103.38 39.4556 103.38 39.7056C103.38 39.9256 103.289 40.0858 103.108 40.1958C102.962 40.2658 102.726 40.3057 102.4 40.3057H93.254C92.855 40.3057 92.565 40.2658 92.383 40.1958C92.238 40.1258 92.165 39.9458 92.165 39.6558C92.165 39.4658 92.274 39.3259 92.492 39.2159C92.71 39.1059 93.073 38.976 93.581 38.836C93.726 38.796 93.871 38.7656 94.016 38.7256C94.198 38.6556 94.361 38.596 94.506 38.566C94.942 38.416 95.214 38.1958 95.323 37.9058C95.432 37.5858 95.486 37.1658 95.486 36.6558L95.432 20.9258C95.432 19.6158 95.668 18.4059 96.139 17.2759C96.647 16.1159 97.446 15.046 98.535 14.066H98.644C99.006 13.736 99.515 13.416 100.168 13.086C100.821 12.726 101.474 12.4657 102.128 12.3257C102.89 12.1757 103.652 12.106 104.414 12.106C105.212 12.106 105.993 12.196 106.755 12.376C107.481 12.556 108.098 12.7759 108.606 13.0259C109.114 13.2459 109.695 13.596 110.348 14.066H110.457C111.582 14.976 112.398 15.9559 112.907 17.0059C113.415 18.0559 113.669 19.186 113.669 20.376L113.723 36.6558C113.723 37.1258 113.778 37.526 113.886 37.856C114.032 38.186 114.322 38.416 114.757 38.566C114.903 38.636 115.066 38.6856 115.247 38.7256C115.429 38.7656 115.61 38.796 115.792 38.836C116.336 38.906 116.735 38.996 116.989 39.106C117.28 39.216 117.425 39.3958 117.425 39.6558C117.425 39.9458 117.352 40.1258 117.207 40.1958C117.062 40.2658 116.79 40.3057 116.391 40.3057H107.463C107.136 40.3057 106.9 40.2658 106.755 40.1958C106.61 40.0858 106.537 39.9256 106.537 39.7056C106.537 39.4556 106.664 39.2661 106.918 39.1661C107.172 39.0161 107.572 38.906 108.116 38.836C108.551 38.796 108.932 38.656 109.259 38.396C109.622 38.106 109.785 37.5258 109.749 36.6558V18.9058C109.749 17.4958 109.422 16.4258 108.769 15.6958C108.152 14.9358 107.354 14.396 106.374 14.066H106.319C105.63 13.886 104.995 13.7959 104.414 13.7959C103.833 13.7559 103.216 13.846 102.563 14.066H102.454C101.62 14.466 100.894 15.0457 100.277 15.8057C99.66 16.5657 99.351 17.6058 99.351 18.9058V36.6558ZM10.126 37.6358C10.126 36.7658 10.416 36.0258 10.997 35.4058C11.614 34.8258 12.358 34.5357 13.229 34.5357C14.1 34.4957 14.844 34.7559 15.461 35.2959C16.078 35.9459 16.386 36.716 16.386 37.586C16.422 38.416 16.132 39.1459 15.515 39.7559C14.898 40.3759 14.154 40.6861 13.283 40.6861C12.412 40.7261 11.668 40.4458 11.051 39.8658C10.47 39.2558 10.162 38.5058 10.126 37.6358Z" fill="black"/>
</svg>
