<svg width="135" height="41" viewBox="0 0 135 41" fill="none" xmlns="http://www.w3.org/2000/svg">
<path fill-rule="evenodd" clip-rule="evenodd" d="M4.355 14.6661L4.301 17.1661C2.922 16.6561 1.851 15.806 1.089 14.606C0.363 13.416 0 12.1257 0 10.7457C0 9.18565 0.381 7.87573 1.143 6.82573C1.905 5.77573 2.976 4.84594 4.355 4.04594V3.93608L6.642 2.46587C7.077 2.14587 7.476 1.85575 7.839 1.59575C8.202 1.34575 8.492 1.16571 8.71 1.05571V0.995652C9.255 0.745652 9.781 0.706043 10.289 0.896043C10.833 1.03604 11.251 1.36577 11.541 1.86577C11.759 2.41577 11.759 2.92604 11.541 3.39604C11.36 3.82604 10.942 4.21569 10.289 4.53569L8.71 5.29595V5.356C8.057 5.646 7.259 6.02565 6.315 6.49565C5.371 6.93565 4.718 7.25563 4.355 7.47563C3.702 7.94563 3.121 8.49577 2.613 9.11577C2.141 9.72577 1.905 10.4757 1.905 11.3457C1.905 12.3257 2.141 13.1061 2.613 13.6861C3.121 14.2261 3.702 14.5561 4.355 14.6661ZM13.066 11.2359L13.065 11.1758C13.392 10.9958 13.991 10.7258 14.862 10.3658C15.733 9.99577 16.586 9.65573 17.421 9.32573V9.27593C18.763 8.80593 20.233 8.58602 21.83 8.62602C23.463 8.65602 24.897 9.406 26.131 10.856V11.2359L26.185 10.9659C26.512 11.3259 26.82 11.8161 27.111 12.4361C27.401 13.0161 27.619 13.556 27.764 14.066H27.655C27.837 14.756 27.909 15.4959 27.873 16.2959C27.837 17.0559 27.673 17.7661 27.383 18.4161H27.274C26.911 19.2561 26.258 20.0357 25.314 20.7657C24.407 21.4857 23.354 22.1559 22.157 22.7759H22.048C21.758 22.9559 21.449 23.136 21.122 23.316C20.796 23.466 20.451 23.6257 20.088 23.8057C17.947 24.9357 16.314 25.8758 15.189 26.6358C14.1 27.4058 13.555 28.216 13.555 29.086V30.9458C13.555 31.2358 13.446 31.4357 13.229 31.5357C13.011 31.6457 12.793 31.6457 12.575 31.5357C12.358 31.3957 12.231 31.1758 12.194 30.8858V28.876C12.194 27.566 12.485 26.4958 13.065 25.6558C13.646 24.7858 14.39 23.936 15.297 23.106L15.678 22.7759H15.787C16.223 22.3759 16.767 21.9757 17.421 21.5757C18.11 21.1757 18.818 20.776 19.544 20.376C20.052 20.086 20.596 19.7959 21.177 19.5059C21.758 19.1859 22.356 18.8161 22.973 18.4161H23.082C23.953 17.7261 24.643 17.0756 25.151 16.4556C25.659 15.8456 25.913 15.046 25.913 14.066H26.131V14.0059H25.913C25.913 13.3259 25.641 12.7557 25.096 12.3257C24.552 11.8557 23.917 11.6158 23.191 11.6158C22.429 11.6158 21.54 11.8159 20.523 12.2159C19.544 12.5759 18.509 13.046 17.421 13.626V13.6861L13.12 15.8057L13.066 11.2359ZM4.355 14.6661C5.154 14.7761 6.133 14.5958 7.295 14.1158C8.492 13.6158 9.908 12.9257 11.541 12.0557L13.066 11.2359L13.12 15.9161C11.342 16.7161 9.726 17.2559 8.275 17.5459C6.859 17.8059 5.553 17.6956 4.355 17.2256V14.6661ZM39.196 3.06596V1.27593C40.793 0.655925 42.408 0.385613 44.041 0.455613C45.674 0.525613 46.963 0.705652 47.906 0.995652V1.05571C48.669 1.34571 49.286 1.63583 49.757 1.92583C50.229 2.21583 50.501 2.59596 50.574 3.06596C50.61 4.26596 50.646 5.66591 50.683 7.25591C50.755 8.81591 50.792 10.2359 50.792 11.5059C50.755 11.8359 50.628 12.0659 50.411 12.2159C50.193 12.3559 49.957 12.3757 49.703 12.2657C49.449 12.1557 49.286 11.9458 49.213 11.6158C48.923 10.5658 48.669 9.70571 48.451 9.05571C48.269 8.40571 48.088 7.82596 47.906 7.31596V7.20561C47.326 5.42561 46.527 4.13598 45.511 3.33598C44.495 2.50598 43.424 2.08598 42.299 2.08598C41.174 2.08598 40.14 2.41596 39.196 3.06596ZM48.124 35.836C49.068 33.336 49.104 30.9458 48.233 28.6558C47.362 26.3358 46.037 24.3759 44.259 22.7759H44.205C43.769 22.3759 43.297 21.9958 42.789 21.6358C42.317 21.2358 41.827 20.8361 41.319 20.4361C40.92 20.1461 40.484 19.8359 40.013 19.5059C39.577 19.1459 39.16 18.7861 38.761 18.4161H38.652C37.672 17.5461 36.873 16.7657 36.256 16.0757C35.639 15.3557 35.168 14.686 34.841 14.066H34.786C34.315 13.486 33.934 12.3757 33.643 10.7457C33.353 9.07565 33.571 7.36602 34.297 5.62602C35.022 3.84602 36.638 2.41573 39.142 1.32573L39.196 3.06596C38.216 3.82596 37.563 4.86583 37.236 6.17583C36.946 7.47583 37.037 8.83591 37.509 10.2559C37.98 11.6659 38.87 12.936 40.176 14.066H40.23C40.811 14.606 41.573 15.2958 42.517 16.1358C43.461 16.9658 44.386 17.7261 45.293 18.4161H45.402C46.128 19.0761 46.836 19.7461 47.525 20.4361C48.251 21.1261 48.941 21.9059 49.594 22.7759H49.703C51.082 24.5159 51.971 26.5859 52.37 28.9859C52.77 31.3759 52.316 33.666 51.009 35.836H48.124ZM39.196 37.9659C40.103 38.6159 41.156 38.9757 42.354 39.0557C43.588 39.1257 44.713 38.8857 45.729 38.3457C46.781 37.7657 47.58 36.926 48.124 35.836L50.955 35.896C49.685 37.816 47.979 39.1658 45.838 39.9258C43.733 40.6858 41.519 40.8859 39.196 40.5259V37.9659ZM39.196 37.9659L39.142 40.4161C37.472 40.1261 36.129 39.7961 35.113 39.4361C34.097 39.0661 33.589 38.6157 33.589 38.0757L33.48 34.316L33.371 29.0357C33.371 28.7457 33.462 28.5258 33.643 28.3858C33.861 28.2058 34.097 28.1659 34.351 28.2759C34.605 28.3859 34.768 28.586 34.841 28.876L35.059 29.7457C35.531 31.5557 36.075 33.196 36.692 34.646C37.309 36.056 38.144 37.1659 39.196 37.9659ZM68.811 35.836C69.101 35.476 69.355 35.0457 69.573 34.5357C69.827 33.9857 70.027 33.5158 70.172 33.1158L70.39 32.626C70.535 32.336 70.716 32.1958 70.934 32.1958C71.152 32.1558 71.333 32.2459 71.478 32.4659C71.624 32.6459 71.678 32.8658 71.642 33.1158C71.569 33.5158 71.46 33.9558 71.315 34.4258C71.206 34.8958 71.043 35.366 70.825 35.836H68.811ZM61.462 35.836C61.861 36.526 62.478 37.0756 63.313 37.4756C64.147 37.8756 65.055 37.9657 66.035 37.7457C67.051 37.5257 67.976 36.896 68.811 35.836L70.771 35.896C69.9 37.966 68.593 39.3958 66.851 40.1958C65.109 40.9958 63.313 41.0157 61.462 40.2457C59.611 39.4857 58.141 38.036 57.052 35.896L61.462 35.836ZM63.04 14.066C61.879 14.936 60.935 16.6957 60.21 19.3457C59.52 21.9557 59.248 24.806 59.393 27.896C59.574 30.946 60.264 33.586 61.462 35.836H56.998C55.655 33.006 55.002 30.106 55.038 27.126C55.11 24.156 55.655 21.5061 56.671 19.1861C57.724 16.8261 59.012 15.116 60.536 14.066H63.04ZM63.04 14.066L60.591 14.0059C61.607 13.2859 62.587 12.7957 63.53 12.5357C64.474 12.2457 65.345 12.106 66.143 12.106C67.269 12.146 68.121 12.3456 68.702 12.7056C69.283 13.0256 69.718 13.486 70.009 14.066H70.063C70.535 14.896 70.825 15.8759 70.934 17.0059C71.043 18.1259 71.097 19.3458 71.097 20.6558V20.9756C71.097 21.2656 71.007 21.5061 70.825 21.6861C70.644 21.8361 70.426 21.8659 70.172 21.7959C69.954 21.6859 69.773 21.466 69.628 21.146C69.555 21.036 69.482 20.8856 69.41 20.7056C69.374 20.5256 69.337 20.3057 69.301 20.0557C68.865 18.6357 68.43 17.4258 67.994 16.4058C67.559 15.3558 66.996 14.576 66.307 14.066H66.252C65.672 13.666 65.091 13.5057 64.51 13.5757C63.93 13.6457 63.44 13.816 63.04 14.066ZM80.896 35.836C81.296 36.526 81.985 37.0756 82.965 37.4756C83.945 37.8756 84.979 37.9657 86.068 37.7457C87.193 37.5257 88.173 36.896 89.008 35.836L90.859 35.896C90.06 37.996 88.718 39.4358 86.83 40.1958C84.979 40.9258 83.074 40.886 81.114 40.086C79.154 39.286 77.666 37.896 76.65 35.896L80.896 35.836ZM89.008 35.836C89.371 35.366 89.716 34.6659 90.042 33.7159C90.369 32.7759 90.605 32.0161 90.75 31.4361C90.859 31.1361 91.022 30.9758 91.24 30.9458C91.458 30.8658 91.657 30.926 91.839 31.106C92.02 31.286 92.093 31.526 92.056 31.816C91.948 32.396 91.784 33.0858 91.566 33.8858C91.385 34.6758 91.185 35.336 90.968 35.836H89.008ZM82.421 14.066C81.15 14.896 80.116 16.6459 79.318 19.2959C79.037 20.2659 78.82 21.2757 78.667 22.3057C78.684 22.6857 78.774 22.9859 78.937 23.2159C79.118 23.4659 79.408 23.606 79.808 23.646C80.316 23.686 81.06 23.7159 82.04 23.7559H84.87C85.705 23.7559 86.322 23.6857 86.721 23.5357C87.157 23.3557 87.502 23.1059 87.756 22.7759C87.937 22.5259 88.046 22.1959 88.082 21.7959C88.119 21.3959 88.137 21.0158 88.137 20.6558V20.4361C88.137 19.0561 87.974 17.786 87.647 16.626C87.32 15.426 86.83 14.576 86.177 14.066H86.123C85.469 13.626 84.798 13.4457 84.108 13.5157C83.419 13.5957 82.856 13.776 82.421 14.066L79.372 14.0059C80.352 13.2159 81.241 12.7059 82.04 12.4859C82.874 12.2659 83.691 12.1558 84.489 12.1558C85.397 12.1958 86.286 12.3959 87.157 12.7559C88.028 13.0859 88.754 13.516 89.334 14.066H89.389C90.441 15.186 91.167 16.4959 91.566 17.9859C92.002 19.4759 92.183 21.0659 92.111 22.7759C92.111 23.5059 92.02 24.0857 91.839 24.5157C91.694 24.9557 91.385 25.1856 90.913 25.2256C90.369 25.2656 89.498 25.2759 88.3 25.2759C87.102 25.2459 85.705 25.2256 84.108 25.2256H79.971C79.318 25.2256 78.9 25.446 78.719 25.876C78.566 26.246 78.465 26.6957 78.415 27.2457C78.423 27.4657 78.434 27.676 78.447 27.896C78.628 30.976 79.445 33.626 80.896 35.836H76.596C75.144 33.116 74.4 30.2659 74.364 27.2959C74.327 24.3159 74.781 21.6359 75.725 19.2359C76.668 16.8459 77.866 15.116 79.318 14.066H82.421ZM123.685 35.836C124.085 36.526 124.774 37.0756 125.754 37.4756C126.734 37.8756 127.768 37.9657 128.857 37.7457C129.982 37.5257 130.962 36.896 131.797 35.836L133.648 35.896C132.849 37.996 131.507 39.4358 129.619 40.1958C127.768 40.9258 125.863 40.886 123.903 40.086C121.98 39.286 120.492 37.896 119.439 35.896L123.685 35.836ZM125.21 14.066C123.94 14.896 122.905 16.6459 122.107 19.2959C121.796 20.3759 121.564 21.486 121.41 22.646C121.442 22.476 121.475 22.3258 121.508 22.1758C121.472 22.6158 121.544 22.9559 121.726 23.2159C121.907 23.4659 122.197 23.606 122.597 23.646C123.105 23.686 123.849 23.7159 124.829 23.7559H127.714C128.512 23.7559 129.111 23.6857 129.51 23.5357C129.946 23.3557 130.291 23.1059 130.545 22.7759C130.726 22.5259 130.835 22.1959 130.871 21.7959C130.908 21.3959 130.926 21.0158 130.926 20.6558V20.4361C130.926 19.0561 130.763 17.786 130.436 16.626C130.146 15.426 129.656 14.576 128.966 14.066H128.912C128.295 13.626 127.641 13.4457 126.952 13.5157C126.262 13.5957 125.682 13.776 125.21 14.066L122.161 14.0059C123.141 13.2159 124.03 12.7059 124.829 12.4859C125.663 12.2659 126.498 12.1558 127.333 12.1558C128.204 12.1958 129.075 12.3959 129.946 12.7559C130.817 13.0859 131.543 13.516 132.124 14.066H132.178C133.23 15.186 133.956 16.4959 134.356 17.9859C134.791 19.4759 134.972 21.0659 134.9 22.7759C134.9 23.5059 134.827 24.0857 134.682 24.5157C134.537 24.9557 134.21 25.1856 133.702 25.2256C133.194 25.2656 132.323 25.2759 131.089 25.2759C129.892 25.2459 128.494 25.2256 126.897 25.2256H122.76C122.143 25.2256 121.726 25.446 121.508 25.876C121.326 26.316 121.236 26.876 121.236 27.566C121.227 27.506 121.218 27.436 121.21 27.376C121.217 27.546 121.226 27.726 121.236 27.896C121.453 30.976 122.27 33.626 123.685 35.836H119.385C117.969 33.116 117.244 30.2659 117.207 27.2959C117.171 24.3159 117.625 21.6359 118.568 19.2359C119.512 16.8459 120.691 15.116 122.107 14.066H125.21ZM131.797 35.836C132.16 35.366 132.505 34.6659 132.831 33.7159C133.194 32.7759 133.43 32.0161 133.539 31.4361C133.648 31.1361 133.811 30.9758 134.029 30.9458C134.247 30.8658 134.446 30.926 134.628 31.106C134.809 31.286 134.9 31.526 134.9 31.816C134.791 32.396 134.628 33.0858 134.41 33.8858C134.192 34.6758 133.974 35.336 133.757 35.836H131.797ZM99.297 36.6558C99.26 37.5658 99.442 38.146 99.841 38.396C100.24 38.656 100.821 38.8158 101.583 38.8858C101.656 38.9258 101.71 38.9458 101.747 38.9458H101.964C102.509 39.0158 102.872 39.1059 103.053 39.2159C103.235 39.2859 103.325 39.4556 103.325 39.7056C103.325 39.9256 103.253 40.0858 103.108 40.1958C102.962 40.2658 102.726 40.3057 102.4 40.3057H93.145C92.782 40.3057 92.51 40.2658 92.329 40.1958C92.183 40.1258 92.111 39.9458 92.111 39.6558C92.111 39.4658 92.22 39.3259 92.438 39.2159C92.655 39.1059 93.018 38.976 93.526 38.836C93.671 38.796 93.817 38.7656 93.962 38.7256C94.143 38.6856 94.307 38.6558 94.452 38.6158C94.887 38.4758 95.159 38.2559 95.268 37.9659C95.377 37.6359 95.432 37.2058 95.432 36.6558L95.377 20.9756C95.377 19.6756 95.613 18.4359 96.085 17.2759C96.593 16.1159 97.41 15.046 98.535 14.066H98.589C98.952 13.736 99.46 13.416 100.113 13.086C100.767 12.756 101.438 12.5057 102.128 12.3257C102.853 12.1757 103.616 12.106 104.414 12.106C105.212 12.106 105.975 12.196 106.7 12.376C107.426 12.556 108.043 12.7759 108.551 13.0259C109.06 13.2459 109.64 13.596 110.293 14.066H110.348C111.509 14.976 112.344 15.9559 112.852 17.0059C113.36 18.0559 113.614 19.186 113.614 20.376L113.669 36.6558C113.669 37.1658 113.723 37.5858 113.832 37.9058C113.977 38.2358 114.268 38.4758 114.703 38.6158C114.884 38.6558 115.066 38.6856 115.247 38.7256C115.429 38.7656 115.61 38.796 115.792 38.836C116.3 38.906 116.699 38.996 116.989 39.106C117.28 39.216 117.425 39.3958 117.425 39.6558C117.425 39.9458 117.352 40.1258 117.207 40.1958C117.062 40.2658 116.772 40.3057 116.336 40.3057H107.408C107.082 40.3057 106.828 40.2658 106.646 40.1958C106.501 40.0858 106.428 39.9256 106.428 39.7056C106.428 39.4856 106.555 39.3259 106.809 39.2159C107.1 39.0659 107.517 38.9658 108.061 38.8858C108.533 38.8158 108.932 38.656 109.259 38.396C109.586 38.106 109.731 37.5258 109.695 36.6558V18.9058C109.695 17.4558 109.368 16.366 108.715 15.646C108.098 14.886 107.281 14.356 106.265 14.066C105.575 13.886 104.94 13.7959 104.36 13.7959C103.779 13.7559 103.162 13.846 102.509 14.066H102.454C101.583 14.426 100.839 15.0057 100.222 15.8057C99.605 16.5657 99.297 17.6058 99.297 18.9058V36.6558ZM10.071 37.6358C10.071 36.7658 10.38 36.0258 10.997 35.4058C11.614 34.7858 12.358 34.4756 13.229 34.4756C14.1 34.4456 14.844 34.7159 15.461 35.2959C16.041 35.9159 16.332 36.6559 16.332 37.5259C16.368 38.3959 16.096 39.1459 15.515 39.7559C14.862 40.3759 14.1 40.6861 13.229 40.6861C12.394 40.7261 11.668 40.4458 11.051 39.8658C10.434 39.2558 10.108 38.5058 10.071 37.6358Z" fill="black"/>
</svg>
