<svg width="135" height="41" viewBox="0 0 135 41" fill="none" xmlns="http://www.w3.org/2000/svg">
<path fill-rule="evenodd" clip-rule="evenodd" d="M4.355 14.6661L4.301 17.2256C2.958 16.6756 1.905 15.8261 1.143 14.6661C0.381 13.4661 0 12.1557 0 10.7457C0 9.18565 0.381 7.87573 1.143 6.82573C1.905 5.73573 2.976 4.79565 4.355 3.99565V3.93608L6.642 2.41606C7.077 2.12606 7.476 1.85575 7.839 1.59575C8.202 1.34575 8.492 1.16571 8.71 1.05571V0.995652C9.255 0.745652 9.781 0.706043 10.289 0.896043C10.833 1.03604 11.233 1.36577 11.487 1.86577C11.741 2.41577 11.759 2.92604 11.541 3.39604C11.323 3.82604 10.888 4.21569 10.235 4.53569L8.71 5.29595V5.356C8.057 5.646 7.259 6.00585 6.315 6.44585C5.371 6.87585 4.718 7.20583 4.355 7.42583V7.47563C3.702 7.94563 3.121 8.49577 2.613 9.11577C2.105 9.69577 1.851 10.4357 1.851 11.3457C1.851 12.3257 2.105 13.1061 2.613 13.6861C3.121 14.2261 3.702 14.5561 4.355 14.6661ZM4.355 14.6661C5.154 14.7761 6.133 14.5958 7.295 14.1158C8.492 13.6158 9.908 12.9057 11.541 11.9957L13.065 11.1758C13.392 10.9958 13.991 10.7258 14.862 10.3658C15.733 9.99577 16.586 9.65573 17.421 9.32573V9.27593C18.763 8.83593 20.233 8.63583 21.83 8.67583C23.463 8.67583 24.897 9.41581 26.131 10.9058V11.2857L26.185 10.9659C26.512 11.3259 26.802 11.8161 27.056 12.4361C27.347 13.0161 27.564 13.556 27.709 14.066C27.891 14.756 27.964 15.4959 27.927 16.2959C27.891 17.0559 27.709 17.7661 27.383 18.4161H27.328C26.965 19.2561 26.312 20.0357 25.369 20.7657C24.461 21.4857 23.391 22.1559 22.157 22.7759H22.102L21.122 23.316C20.832 23.466 20.505 23.6257 20.142 23.8057C17.965 24.9357 16.314 25.8958 15.189 26.6958C14.1 27.4558 13.555 28.276 13.555 29.146V30.9458C13.519 31.2358 13.392 31.4357 13.174 31.5357C12.957 31.6457 12.739 31.6457 12.521 31.5357C12.303 31.3957 12.194 31.1758 12.194 30.8858V28.876C12.194 27.566 12.485 26.4958 13.065 25.6558C13.646 24.7858 14.408 23.936 15.352 23.106L15.733 22.7759C16.205 22.3759 16.767 21.9757 17.421 21.5757C18.11 21.1757 18.836 20.776 19.598 20.376C20.106 20.086 20.651 19.7959 21.231 19.5059C21.812 19.1859 22.411 18.8161 23.028 18.4161H23.082C23.99 17.7261 24.679 17.0756 25.151 16.4556C25.659 15.8456 25.913 15.046 25.913 14.066H26.131V14.0059H25.967C25.931 13.3559 25.641 12.816 25.096 12.376C24.588 11.906 23.971 11.6661 23.246 11.6661C22.483 11.6661 21.594 11.8657 20.578 12.2657C19.562 12.6357 18.509 13.086 17.421 13.626V13.6861L13.12 15.8658C11.342 16.6958 9.726 17.2559 8.275 17.5459C6.859 17.8059 5.553 17.6956 4.355 17.2256V14.6661ZM39.196 3.01567V1.27593C40.793 0.655925 42.408 0.385613 44.041 0.455613C45.711 0.525613 46.999 0.705652 47.906 0.995652V1.05571C48.669 1.34571 49.286 1.63583 49.757 1.92583C50.229 2.17583 50.483 2.54567 50.519 3.01567C50.556 4.24567 50.592 5.64561 50.628 7.20561C50.701 8.76561 50.737 10.1856 50.737 11.4556C50.737 11.7756 50.628 12.0158 50.411 12.1558C50.193 12.3058 49.957 12.3259 49.703 12.2159C49.449 12.1059 49.286 11.886 49.213 11.566C48.923 10.506 48.669 9.65591 48.451 9.00591C48.269 8.34591 48.088 7.76591 47.906 7.25591C47.326 5.44591 46.527 4.12569 45.511 3.28569C44.495 2.45569 43.424 2.03569 42.299 2.03569C41.174 2.03569 40.14 2.35567 39.196 3.01567ZM48.124 35.836C49.104 33.336 49.14 30.9257 48.233 28.5957C47.362 26.2757 46.037 24.3359 44.259 22.7759H44.205C43.769 22.3759 43.297 21.9958 42.789 21.6358C42.317 21.2358 41.809 20.8361 41.265 20.4361C40.866 20.1461 40.448 19.8359 40.013 19.5059C39.577 19.1459 39.142 18.7861 38.706 18.4161H38.652C37.636 17.5461 36.819 16.7657 36.202 16.0757C35.621 15.3557 35.168 14.686 34.841 14.066H34.786C34.315 13.486 33.916 12.3561 33.589 10.6861C33.299 9.01608 33.516 7.31573 34.242 5.57573C35.004 3.79573 36.638 2.37573 39.142 1.32573L39.196 3.01567C38.18 3.81567 37.509 4.86583 37.182 6.17583C36.892 7.44583 36.982 8.80591 37.454 10.2559C37.962 11.6659 38.87 12.936 40.176 14.066H40.23C40.775 14.606 41.519 15.2958 42.462 16.1358C43.442 16.9658 44.404 17.7261 45.348 18.4161C46.11 19.0761 46.836 19.7461 47.525 20.4361C48.251 21.1261 48.959 21.9059 49.648 22.7759C51.064 24.4859 51.971 26.5459 52.37 28.9859C52.77 31.3759 52.316 33.666 51.009 35.836H48.124ZM39.196 38.0157C40.103 38.6757 41.156 39.036 42.354 39.106C43.588 39.146 44.731 38.8857 45.783 38.3457C46.836 37.7957 47.616 36.966 48.124 35.836L51.009 35.896C49.703 37.816 47.979 39.1658 45.838 39.9258C43.733 40.6858 41.519 40.8859 39.196 40.5259V38.0157ZM39.196 38.0157L39.142 40.4659C37.509 40.1759 36.166 39.8559 35.113 39.4859C34.097 39.1259 33.589 38.676 33.589 38.126L33.48 34.376L33.317 29.086C33.317 28.766 33.407 28.5258 33.589 28.3858C33.807 28.2058 34.042 28.1659 34.297 28.2759C34.587 28.3859 34.768 28.5958 34.841 28.9258L35.059 29.7959C35.531 31.6159 36.057 33.226 36.638 34.646C37.254 36.056 38.107 37.1857 39.196 38.0157ZM63.095 14.066C61.897 14.936 60.935 16.6759 60.21 19.2959C59.484 21.9059 59.212 24.776 59.393 27.896C59.574 30.976 60.264 33.626 61.462 35.836H56.998C55.618 33.006 54.947 30.106 54.983 27.126C55.056 24.116 55.618 21.446 56.671 19.126C57.76 16.806 59.048 15.116 60.536 14.066H63.095ZM63.095 14.066L60.591 14.0059C61.571 13.3259 62.532 12.8457 63.476 12.5957C64.42 12.3057 65.309 12.1558 66.143 12.1558C67.232 12.1558 68.067 12.3456 68.648 12.7056C69.265 13.0256 69.718 13.486 70.009 14.066H70.063C70.499 14.896 70.771 15.8957 70.88 17.0557C70.989 18.1857 71.043 19.3956 71.043 20.7056V21.0357C71.043 21.3257 70.952 21.5461 70.771 21.6861C70.626 21.8361 70.426 21.8659 70.172 21.7959C69.954 21.7259 69.773 21.5258 69.628 21.1958C69.555 21.0858 69.482 20.9457 69.41 20.7657C69.374 20.5757 69.337 20.366 69.301 20.106C68.865 18.656 68.412 17.4258 67.94 16.4058C67.504 15.3558 66.96 14.576 66.307 14.066H66.252C65.672 13.666 65.091 13.5057 64.51 13.5757C63.93 13.6457 63.458 13.816 63.095 14.066ZM68.811 35.836C69.101 35.476 69.355 35.0457 69.573 34.5357C69.827 33.9857 70.027 33.5158 70.172 33.1158L70.39 32.626C70.535 32.336 70.716 32.1958 70.934 32.1958C71.152 32.1558 71.333 32.2459 71.478 32.4659C71.624 32.6459 71.66 32.8858 71.587 33.1758C71.515 33.5358 71.406 33.9558 71.261 34.4258C71.152 34.8958 70.989 35.366 70.771 35.836H68.811ZM61.462 35.836C61.861 36.526 62.478 37.0959 63.313 37.5259C64.147 37.9259 65.055 38.0159 66.035 37.7959C67.051 37.5859 67.976 36.926 68.811 35.836L70.771 35.896C69.936 37.966 68.629 39.3958 66.851 40.1958C65.109 40.9958 63.313 41.0157 61.462 40.2457C59.611 39.4857 58.141 38.036 57.052 35.896L61.462 35.836ZM80.842 35.836C81.278 36.526 81.967 37.0959 82.911 37.5259C83.891 37.9259 84.925 38.0159 86.014 37.7959C87.139 37.5859 88.119 36.926 88.953 35.836L90.859 35.896C90.06 37.996 88.718 39.4358 86.83 40.1958C84.943 40.9258 83.019 40.886 81.06 40.086C79.1 39.286 77.612 37.896 76.596 35.896L80.842 35.836ZM88.953 35.836C89.316 35.366 89.661 34.6659 89.988 33.7159C90.351 32.7759 90.605 32.0161 90.75 31.4361C90.822 31.1361 90.968 30.9758 91.185 30.9458C91.403 30.8658 91.603 30.926 91.784 31.106C91.966 31.286 92.056 31.526 92.056 31.816C91.948 32.396 91.784 33.0858 91.566 33.8858C91.349 34.6758 91.131 35.336 90.913 35.836H88.953ZM82.421 14.066C81.114 14.896 80.062 16.6459 79.263 19.2959C78.946 20.3859 78.711 21.5161 78.557 22.6861C78.593 22.5061 78.629 22.3358 78.664 22.1758C78.628 22.6158 78.701 22.9559 78.882 23.2159C79.064 23.4659 79.354 23.606 79.753 23.646C80.261 23.686 81.005 23.7159 81.985 23.7559H84.87C85.705 23.7559 86.322 23.6857 86.721 23.5357C87.121 23.3557 87.465 23.1059 87.756 22.7759C87.937 22.5259 88.046 22.1959 88.082 21.7959C88.119 21.3959 88.137 21.0158 88.137 20.6558V20.4361C88.137 19.0561 87.974 17.786 87.647 16.626C87.32 15.426 86.812 14.576 86.123 14.066H86.068C85.451 13.626 84.798 13.4457 84.108 13.5157C83.419 13.5957 82.856 13.776 82.421 14.066L79.372 14.0059C80.316 13.2459 81.187 12.7557 81.985 12.5357C82.82 12.3257 83.637 12.2159 84.435 12.2159C85.342 12.2159 86.231 12.3959 87.102 12.7559C87.974 13.0859 88.699 13.516 89.28 14.066H89.334C90.387 15.186 91.131 16.4959 91.566 17.9859C92.002 19.4759 92.183 21.0659 92.111 22.7759C92.111 23.5059 92.02 24.0857 91.839 24.5157C91.694 24.9557 91.367 25.1661 90.859 25.1661C90.351 25.2061 89.48 25.2256 88.246 25.2256C87.048 25.1856 85.651 25.1661 84.054 25.1661H79.862C79.245 25.1661 78.846 25.406 78.664 25.876C78.483 26.316 78.392 26.876 78.392 27.566C78.383 27.506 78.375 27.436 78.366 27.376C78.373 27.546 78.382 27.726 78.392 27.896C78.61 31.016 79.427 33.666 80.842 35.836H76.541C75.126 33.116 74.4 30.2659 74.364 27.2959C74.327 24.2859 74.781 21.5959 75.725 19.2359C76.668 16.8459 77.866 15.116 79.318 14.066H82.421ZM131.742 35.836C132.105 35.366 132.45 34.6659 132.777 33.7159C133.14 32.7759 133.394 32.0161 133.539 31.4361C133.612 31.1361 133.757 30.9758 133.974 30.9458C134.192 30.8658 134.392 30.926 134.573 31.106C134.791 31.286 134.882 31.526 134.845 31.816C134.737 32.396 134.573 33.0858 134.356 33.8858C134.138 34.6758 133.92 35.336 133.702 35.836H131.742ZM123.631 35.836C124.067 36.526 124.774 37.0959 125.754 37.5259C126.734 37.9259 127.768 38.0159 128.857 37.7959C129.946 37.5859 130.908 36.926 131.742 35.836L133.648 35.896C132.849 37.996 131.507 39.4358 129.619 40.1958C127.768 40.9258 125.845 40.886 123.849 40.086C121.889 39.286 120.401 37.896 119.385 35.896L123.631 35.836ZM125.21 14.066C123.903 14.896 122.851 16.6459 122.052 19.2959C121.735 20.3859 121.5 21.5161 121.346 22.6861C121.382 22.5061 121.418 22.3358 121.453 22.1758C121.417 22.6158 121.49 22.9559 121.671 23.2159C121.853 23.4659 122.143 23.606 122.542 23.646C123.05 23.686 123.794 23.7159 124.774 23.7559H127.66C128.494 23.7559 129.111 23.6857 129.51 23.5357C129.946 23.3557 130.291 23.1059 130.545 22.7759C130.726 22.5259 130.835 22.1959 130.871 21.7959C130.908 21.3959 130.926 21.0158 130.926 20.6558V20.4361C130.926 19.0561 130.763 17.786 130.436 16.626C130.109 15.426 129.601 14.576 128.912 14.066H128.857C128.24 13.626 127.587 13.4457 126.897 13.5157C126.208 13.5957 125.645 13.776 125.21 14.066L122.161 14.0059C123.105 13.2459 123.976 12.7557 124.774 12.5357C125.609 12.3257 126.426 12.2159 127.224 12.2159C128.131 12.2159 129.021 12.3959 129.892 12.7559C130.799 13.0859 131.525 13.516 132.069 14.066H132.124C133.176 15.186 133.92 16.4959 134.356 17.9859C134.791 19.4759 134.972 21.0659 134.9 22.7759C134.9 23.5059 134.809 24.0857 134.628 24.5157C134.483 24.9557 134.156 25.1661 133.648 25.1661C133.14 25.2061 132.269 25.2256 131.035 25.2256C129.837 25.1856 128.44 25.1661 126.843 25.1661H122.651C122.034 25.1661 121.635 25.406 121.453 25.876C121.272 26.316 121.181 26.876 121.181 27.566C121.172 27.506 121.163 27.436 121.155 27.376C121.162 27.546 121.171 27.726 121.181 27.896C121.399 31.016 122.216 33.666 123.631 35.836H119.33C117.915 33.116 117.189 30.2659 117.153 27.2959C117.116 24.2859 117.57 21.5959 118.514 19.2359C119.457 16.8459 120.655 15.116 122.107 14.066H125.21ZM99.242 36.6558C99.206 37.6058 99.388 38.1956 99.787 38.4556C100.222 38.7056 100.803 38.8558 101.529 38.8858C101.601 38.9258 101.656 38.9458 101.692 38.9458H101.91C102.454 39.0158 102.817 39.1059 102.999 39.2159C103.216 39.2859 103.325 39.4556 103.325 39.7056C103.325 39.9256 103.235 40.0858 103.053 40.1958C102.908 40.2658 102.672 40.3057 102.345 40.3057H93.091C92.692 40.3057 92.401 40.2658 92.22 40.1958C92.075 40.1258 92.002 39.9458 92.002 39.6558C92.002 39.4658 92.111 39.3259 92.329 39.2159C92.546 39.1059 92.927 38.976 93.472 38.836C93.617 38.796 93.762 38.7656 93.907 38.7256C94.089 38.6856 94.252 38.6558 94.397 38.6158C94.833 38.4758 95.105 38.2559 95.214 37.9659C95.323 37.6359 95.377 37.2058 95.377 36.6558L95.323 20.9756C95.323 19.6756 95.577 18.4359 96.085 17.2759C96.593 16.1159 97.391 15.046 98.48 14.066H98.535C98.898 13.736 99.406 13.416 100.059 13.086C100.748 12.756 101.42 12.526 102.073 12.376C102.835 12.236 103.597 12.1558 104.36 12.1558C105.158 12.1558 105.92 12.2461 106.646 12.4361C107.372 12.6161 107.989 12.8159 108.497 13.0259C109.041 13.2459 109.622 13.596 110.239 14.066H110.293C111.455 14.976 112.29 15.9559 112.798 17.0059C113.342 18.0559 113.614 19.186 113.614 20.376L113.669 36.6558C113.669 37.1658 113.723 37.5858 113.832 37.9058C113.977 38.2358 114.249 38.4758 114.649 38.6158C114.83 38.6558 115.012 38.6856 115.193 38.7256C115.374 38.7656 115.556 38.796 115.737 38.836C116.282 38.906 116.699 38.996 116.989 39.106C117.28 39.216 117.425 39.3958 117.425 39.6558C117.425 39.9458 117.352 40.1258 117.207 40.1958C117.062 40.2658 116.772 40.3057 116.336 40.3057H107.354C107.027 40.3057 106.773 40.2658 106.592 40.1958C106.446 40.0858 106.374 39.9256 106.374 39.7056C106.374 39.4856 106.501 39.3259 106.755 39.2159C107.045 39.0659 107.463 38.9658 108.007 38.8858C108.479 38.8558 108.878 38.7056 109.205 38.4556C109.568 38.1656 109.731 37.5658 109.695 36.6558V18.9058C109.695 17.4558 109.368 16.366 108.715 15.646C108.061 14.886 107.227 14.356 106.211 14.066C105.521 13.886 104.886 13.7959 104.305 13.7959C103.724 13.7559 103.108 13.846 102.454 14.066H102.4C101.565 14.426 100.821 15.0057 100.168 15.8057C99.551 16.5657 99.242 17.6058 99.242 18.9058V36.6558ZM10.017 37.6358C10.017 36.7658 10.325 36.0258 10.942 35.4058C11.559 34.7858 12.303 34.4756 13.174 34.4756C14.045 34.4456 14.789 34.7159 15.406 35.2959C16.023 35.9159 16.332 36.6559 16.332 37.5259C16.368 38.3959 16.078 39.1459 15.461 39.7559C14.844 40.3759 14.1 40.6861 13.229 40.6861C12.358 40.7261 11.614 40.4458 10.997 39.8658C10.38 39.2558 10.053 38.5058 10.017 37.6358Z" fill="black"/>
</svg>
